<svg width="425" height="602" viewBox="0 0 425 602" fill="none" xmlns="http://www.w3.org/2000/svg">
<g filter="url(#filter0_d_5720_13778)">
<rect x="25.0164" y="611.667" width="377.453" height="70.0842" rx="8" transform="rotate(-5 25.0164 611.667)" fill="white" shape-rendering="crispEdges"/>
<g clip-path="url(#clip0_5720_13778)">
<path d="M362.715 611.77C362.017 611.831 361.405 611.642 360.881 611.202C360.357 610.762 360.064 610.193 360.003 609.495C359.942 608.797 360.131 608.185 360.571 607.661C361.011 607.137 361.58 606.844 362.278 606.783C362.977 606.722 363.588 606.912 364.112 607.351C364.636 607.791 364.929 608.36 364.99 609.059C365.051 609.757 364.862 610.368 364.422 610.892C363.982 611.416 363.413 611.709 362.715 611.77ZM359.205 617.605C358.657 617.653 358.17 617.499 357.745 617.143C357.32 616.786 357.084 616.333 357.036 615.785L355.814 601.821C355.766 601.273 355.92 600.786 356.276 600.362C356.633 599.936 357.086 599.7 357.634 599.652L358.632 599.565L358.545 598.567C358.52 598.285 358.595 598.039 358.769 597.831C358.943 597.623 359.172 597.507 359.455 597.482C359.737 597.458 359.983 597.532 360.191 597.707C360.398 597.881 360.515 598.11 360.539 598.393L360.627 599.39L368.606 598.692L368.518 597.695C368.494 597.412 368.569 597.167 368.744 596.958C368.918 596.751 369.146 596.635 369.429 596.61C369.711 596.585 369.956 596.66 370.164 596.834C370.372 597.009 370.489 597.237 370.513 597.52L370.601 598.517L371.598 598.43C372.146 598.382 372.633 598.537 373.059 598.893C373.483 599.249 373.719 599.702 373.767 600.25L374.989 614.214C375.037 614.762 374.883 615.249 374.527 615.674C374.17 616.099 373.717 616.335 373.169 616.383L359.205 617.605ZM359.031 615.61L372.994 614.388L372.121 604.415L358.158 605.636L359.031 615.61Z" fill="#3B69D1"/>
</g>
</g>
<rect x="0.537122" y="0.450193" width="302.549" height="463.692" rx="12.5" transform="matrix(0.996363 -0.0974165 0.0778812 0.997803 12.2727 30.6596)" fill="#F1F1F1" stroke="#878787" stroke-dasharray="5.51 5.51"/>
<rect width="313.682" height="438.499" rx="8" transform="matrix(0.996369 -0.0973154 0.0779576 0.997794 -13.967 47.1065)" fill="white"/>
<path d="M13.5089 97.6643L9.39386 98.0488L12.6447 93.4013L17.302 92.9661L13.5089 97.6643ZM6.98372 122.728L5.14899 100.376L18.164 99.1599L18.4733 102.928L9.98801 103.721L10.4231 109.021L17.6324 108.348L17.9417 112.115L10.7324 112.789L11.2042 118.537L19.6895 117.744L19.9987 121.512L6.98372 122.728ZM20.6351 105.236L24.9734 104.83L30.0958 115.935L33.2992 104.052L37.6694 103.644L33.1209 120.286L27.7937 120.783L20.6351 105.236ZM49.1711 99.995L45.2794 100.359L48.1618 94.7481L52.5639 94.3368L49.1711 99.995ZM55.9417 115.515C54.6075 117.667 52.2216 119.144 49.1911 119.427C43.4811 119.961 39.9316 116.271 39.5463 111.577C39.1558 106.819 41.832 102.611 47.0954 102.12C51.5613 101.702 54.7451 104.462 55.0911 108.676C55.1645 109.57 55.105 110.413 55.022 110.967L43.7614 112.02C44.3906 114.985 46.3404 116.026 48.8604 115.79C50.6149 115.626 52.0832 114.717 52.8501 113.487L55.9417 115.515ZM47.2723 105.449C45.1988 105.643 43.9215 106.921 43.6479 109.07L51.0486 108.378C50.8511 106.756 49.5372 105.238 47.2723 105.449ZM59.8283 117.79L58.5073 101.697L62.5585 101.318L62.6634 102.595C63.6907 101.405 65.1219 100.435 67.2591 100.235C70.7362 99.9106 73.708 102.046 74.0986 106.804L74.8849 116.383L70.8017 116.765L70.0285 107.345C69.8529 105.206 68.5307 103.978 66.5529 104.163C64.5113 104.353 63.5394 105.828 63.0172 106.906L63.8795 117.411L59.8283 117.79ZM94.0716 111.952C92.7374 114.104 90.3515 115.581 87.321 115.865C81.611 116.398 78.0615 112.708 77.6763 108.014C77.2857 103.256 79.9619 99.0485 85.2253 98.5567C89.6912 98.1394 92.875 100.899 93.221 105.114C93.2944 106.008 93.2349 106.85 93.1519 107.405L81.8913 108.457C82.5205 111.422 84.4703 112.463 86.9904 112.227C88.7448 112.064 90.2131 111.154 90.98 109.924L94.0716 111.952ZM85.4022 101.887C83.3287 102.08 82.0514 103.358 81.7778 105.507L89.1785 104.816C88.981 103.193 87.6671 101.675 85.4022 101.887ZM97.9582 114.227L96.6372 98.1339L100.688 97.7554L100.788 98.9688C101.786 97.8137 103.092 96.8873 105.07 96.7025C107.112 96.5117 108.971 97.2388 110.166 98.8648C111.199 97.3525 112.63 95.996 115.342 95.7427C118.659 95.4327 121.464 97.4873 121.836 102.022L122.648 111.92L118.565 112.302L117.766 102.563C117.606 100.615 116.454 99.4999 114.635 99.6698C112.881 99.8337 112.024 101.137 111.475 102.282C111.525 102.502 111.543 102.726 111.564 102.981L112.377 112.88L108.294 113.261L107.494 103.522C107.334 101.575 106.182 100.46 104.364 100.63C102.514 100.802 101.669 102.265 101.147 103.343L102.009 113.849L97.9582 114.227ZM141.859 107.487C140.524 109.639 138.139 111.116 135.108 111.399C129.398 111.933 125.849 108.243 125.463 103.549C125.073 98.7911 127.749 94.5834 133.012 94.0916C137.478 93.6743 140.662 96.4335 141.008 100.648C141.081 101.542 141.022 102.385 140.939 102.939L129.678 103.992C130.308 106.957 132.257 107.998 134.777 107.762C136.532 107.598 138 106.689 138.767 105.459L141.859 107.487ZM133.189 97.4213C131.116 97.6151 129.838 98.8928 129.565 101.042L136.965 100.35C136.768 98.7279 135.454 97.2097 133.189 97.4213ZM145.745 109.762L144.424 93.6688L148.475 93.2902L148.58 94.5675C149.608 93.3775 151.039 92.4072 153.176 92.2075C156.653 91.8826 159.625 94.0181 160.015 98.7758L160.802 108.355L156.719 108.737L155.945 99.317C155.77 97.1776 154.448 95.9498 152.47 96.1346C150.428 96.3253 149.456 97.7997 148.934 98.8782L149.796 109.383L145.745 109.762ZM165.941 101.955L165.401 95.3768L162.402 95.657L162.103 92.0168L165.102 91.7367L164.772 87.7133L168.855 87.3318L169.185 91.3551L174.098 90.8961L174.396 94.5363L169.484 94.9953L170.024 101.573C170.17 103.361 171.185 103.974 172.78 103.825C173.897 103.721 174.62 103.525 175.144 103.25L175.435 106.795C174.666 107.221 173.722 107.47 172.382 107.595C168.363 107.97 166.263 105.882 165.941 101.955ZM177.452 104.451L179.932 101.773C181.023 102.926 182.277 103.71 183.808 103.567C185.116 103.445 185.723 102.616 185.644 101.658C185.414 98.848 177.812 100.62 177.348 94.9683C177.115 92.1264 179.332 89.7635 182.681 89.4505C185.138 89.221 187.468 90.1938 188.744 91.6511L186.259 94.2644C185.346 93.3201 184.225 92.5883 182.981 92.7045C181.705 92.8237 181.156 93.5828 181.224 94.4131C181.45 97.1591 189.059 95.4829 189.515 101.039C189.729 104.43 187.17 106.535 184.139 106.818C181.268 107.086 179.132 106.128 177.452 104.451Z" fill="#3B69D1"/>
<g filter="url(#filter1_d_5720_13778)">
<rect width="48" height="48" rx="24" transform="matrix(0.996861 -0.0931459 0.0819077 0.997847 237.576 66.9944)" fill="#3B69D1" shape-rendering="crispEdges"/>
<path d="M263.467 88.7073C265.67 88.5014 267.307 86.5485 267.126 84.3433C266.945 82.138 265.014 80.5186 262.811 80.7245C260.608 80.9303 258.97 82.8832 259.151 85.0885C259.333 87.2937 261.264 88.9131 263.467 88.7073ZM262.975 82.7202C264.072 82.6177 265.043 83.432 265.133 84.5296C265.223 85.6272 264.399 86.6091 263.303 86.7116C262.206 86.814 261.235 85.9998 261.145 84.9022C261.055 83.8045 261.879 82.8226 262.975 82.7202ZM263.548 89.7051C260.887 89.9538 255.683 91.7874 255.901 94.4417L256.065 96.4374C256.11 96.9862 256.596 97.3933 257.144 97.3421L271.1 96.038C271.648 95.9868 272.06 95.4958 272.015 94.947L271.851 92.9513C271.633 90.2971 266.21 89.4564 263.548 89.7051ZM269.939 94.1355L257.977 95.2532L257.896 94.2653C258.036 93.5283 261.021 91.9523 263.712 91.7008C266.404 91.4493 269.6 92.4478 269.857 93.1376L269.939 94.1355Z" fill="white"/>
<rect x="0.539384" y="0.45235" width="47" height="47" rx="23.5" transform="matrix(0.996861 -0.0931459 0.0819077 0.997847 237.541 67.0457)" stroke="#3B69D1" shape-rendering="crispEdges"/>
</g>
<rect width="302.362" height="36" transform="translate(5.00601 148.018) scale(1.0012) rotate(-5)" fill="white"/>
<path d="M32.2446 164.73L31.2673 153.559L34.0919 153.312L37.2313 157.765L39.5497 152.835L42.3743 152.588L43.3516 163.758L41.0855 163.957L40.3846 155.946L38.2609 160.344L36.6651 160.484L33.8098 156.521L34.5107 164.532L32.2446 164.73ZM48.376 163.56C46.7642 163.701 45.5821 162.872 45.4522 161.388C45.3461 160.175 46.2081 159.183 47.9064 158.745L50.3277 158.115L50.3096 157.907C50.2356 157.062 49.5498 156.575 48.6242 156.656C47.8422 156.724 47.2679 157.144 46.8887 157.772L45.3055 156.769C45.937 155.717 47.0649 155.007 48.533 154.879C50.863 154.675 52.1813 155.959 52.3363 157.73L52.7914 162.932L50.7647 163.11L50.6963 162.328C50.2401 162.995 49.3175 163.478 48.376 163.56ZM47.4546 161.116C47.5021 161.659 47.9637 161.972 48.6499 161.912C49.5754 161.831 50.208 161.341 50.5511 160.668L50.452 159.535L48.5649 160.022C47.7317 160.239 47.4113 160.621 47.4546 161.116ZM59.8444 162.315L58.867 151.145L61.6917 150.897L64.831 155.35L67.1494 150.42L69.974 150.173L70.9513 161.344L68.6853 161.542L67.9844 153.531L65.8607 157.93L64.2648 158.069L61.4096 154.106L62.1104 162.117L59.8444 162.315ZM73.9926 151.558C73.2744 151.621 72.615 151.067 72.5521 150.349C72.4893 149.631 73.0427 148.972 73.7608 148.909C74.4789 148.846 75.1224 149.401 75.1853 150.119C75.2481 150.837 74.7107 151.495 73.9926 151.558ZM73.7978 161.095L73.0941 153.052L75.1208 152.874L75.8245 160.917L73.7978 161.095ZM77.3417 159.611L78.5761 158.281C79.1252 158.86 79.7548 159.255 80.5208 159.188C81.1751 159.131 81.4767 158.718 81.4348 158.24C81.3119 156.835 77.5121 157.698 77.2649 154.874C77.1407 153.453 78.244 152.279 79.9196 152.133C81.1484 152.025 82.3172 152.518 82.9601 153.25L81.7229 154.548C81.2633 154.074 80.7004 153.705 80.078 153.759C79.4397 153.815 79.1672 154.193 79.2035 154.608C79.3235 155.98 83.1276 155.165 83.3705 157.942C83.4866 159.636 82.2111 160.68 80.6951 160.813C79.2589 160.938 78.1873 160.453 77.3417 159.611ZM84.526 158.982L85.7604 157.652C86.3096 158.231 86.9391 158.626 87.7051 158.559C88.3594 158.502 88.661 158.09 88.6191 157.611C88.4963 156.207 84.6964 157.07 84.4493 154.245C84.325 152.825 85.4284 151.651 87.104 151.504C88.3328 151.397 89.5015 151.89 90.1444 152.621L88.9072 153.919C88.4476 153.445 87.8847 153.076 87.2623 153.131C86.624 153.187 86.3515 153.564 86.3878 153.979C86.5079 155.351 90.312 154.536 90.5549 157.313C90.671 159.007 89.3955 160.052 87.8795 160.184C86.4432 160.31 85.3716 159.825 84.526 158.982ZM92.8184 149.911C92.1002 149.974 91.4408 149.42 91.3779 148.702C91.3151 147.984 91.8685 147.325 92.5866 147.262C93.3047 147.199 93.9482 147.754 94.0111 148.472C94.0739 149.19 93.5365 149.848 92.8184 149.911ZM92.6236 159.448L91.9199 151.405L93.9466 151.227L94.6503 159.27L92.6236 159.448ZM100.179 150.36C102.796 150.131 104.752 151.906 104.963 154.316C105.174 156.725 103.556 158.813 100.939 159.042C98.3214 159.271 96.3651 157.496 96.1543 155.086C95.9435 152.677 97.5619 150.589 100.179 150.36ZM100.803 157.124C102.096 157.011 102.978 155.888 102.857 154.5C102.734 153.096 101.671 152.16 100.379 152.273C99.038 152.39 98.138 153.498 98.2608 154.902C98.3837 156.306 99.4624 157.241 100.803 157.124ZM107.164 158.175L106.46 150.132L108.487 149.955L108.543 150.594C109.054 150.002 109.767 149.522 110.837 149.428C112.576 149.276 114.069 150.351 114.277 152.729L114.696 157.516L112.653 157.695L112.241 152.987C112.148 151.918 111.483 151.301 110.493 151.388C109.472 151.477 108.99 152.211 108.731 152.748L109.19 157.998L107.164 158.175ZM121.729 156.901L120.752 145.73L123.018 145.532L123.815 154.644L128.06 154.273L128.24 156.331L121.729 156.901ZM133.109 147.479C135.726 147.25 137.682 149.025 137.893 151.435C138.104 153.844 136.485 155.932 133.868 156.161C131.251 156.39 129.295 154.615 129.084 152.205C128.873 149.796 130.491 147.708 133.109 147.479ZM133.732 154.243C135.025 154.13 135.908 153.007 135.786 151.619C135.663 150.215 134.601 149.279 133.308 149.392C131.968 149.509 131.068 150.617 131.19 152.021C131.313 153.425 132.392 154.36 133.732 154.243ZM143.893 153.354C144.691 153.284 145.298 152.861 145.632 152.269L147.318 153.344C146.654 154.399 145.529 155.141 144.061 155.269C141.284 155.512 139.45 153.662 139.245 151.316C139.04 148.971 140.525 146.831 143.301 146.588C144.77 146.459 146.006 146.994 146.843 147.918L145.369 149.269C144.937 148.744 144.267 148.433 143.437 148.505C142.113 148.621 141.228 149.728 141.351 151.132C141.476 152.552 142.537 153.473 143.893 153.354ZM151.092 154.573C149.48 154.714 148.298 153.885 148.168 152.401C148.062 151.188 148.924 150.196 150.622 149.758L153.044 149.128L153.025 148.921C152.951 148.075 152.266 147.588 151.34 147.669C150.558 147.738 149.984 148.158 149.605 148.786L148.021 147.783C148.653 146.731 149.781 146.021 151.249 145.892C153.579 145.689 154.897 146.972 155.052 148.744L155.507 153.946L153.481 154.123L153.412 153.341C152.956 154.008 152.033 154.491 151.092 154.573ZM150.17 152.129C150.218 152.672 150.68 152.985 151.366 152.925C152.291 152.844 152.924 152.355 153.267 151.682L153.168 150.549L151.281 151.035C150.448 151.253 150.127 151.635 150.17 152.129ZM157.828 153.743L156.781 141.774L158.808 141.597L159.855 153.566L157.828 153.743ZM169.575 151.397C168.913 152.468 167.723 153.199 166.207 153.331C163.35 153.581 161.564 151.728 161.359 149.382C161.151 147.004 162.479 144.91 165.112 144.679C167.346 144.484 168.947 145.872 169.132 147.978C169.171 148.425 169.143 148.845 169.103 149.122L163.47 149.615C163.793 151.098 164.771 151.624 166.032 151.514C166.91 151.437 167.642 150.987 168.023 150.375L169.575 151.397ZM165.21 146.343C164.172 146.434 163.536 147.069 163.405 148.141L167.107 147.817C167.004 147.006 166.343 146.244 165.21 146.343Z" fill="#646464"/>
<path d="M188.835 151.03L187.858 139.859L194.369 139.29L194.534 141.173L190.289 141.544L190.52 144.193L194.127 143.878L194.292 145.761L190.685 146.076L190.936 148.949L195.181 148.577L195.346 150.46L188.835 151.03ZM199.16 150.127L196.83 150.331L199.309 145.949L196.286 142.274L198.6 142.071L200.476 144.4L201.92 141.781L204.249 141.577L201.895 145.723L205.097 149.607L202.783 149.81L200.728 147.272L199.16 150.127ZM206.782 146.501L206.495 143.214L204.995 143.345L204.836 141.526L206.336 141.394L206.16 139.384L208.202 139.205L208.378 141.216L210.836 141.001L210.995 142.82L208.538 143.035L208.825 146.322C208.903 147.216 209.413 147.525 210.211 147.455C210.769 147.407 211.131 147.311 211.392 147.175L211.547 148.947C211.164 149.157 210.692 149.279 210.022 149.337C208.011 149.513 206.954 148.464 206.782 146.501ZM220.489 146.942C219.827 148.013 218.637 148.744 217.121 148.877C214.264 149.127 212.478 147.273 212.272 144.927C212.064 142.55 213.393 140.455 216.026 140.225C218.26 140.03 219.861 141.417 220.045 143.524C220.084 143.971 220.057 144.391 220.017 144.668L214.383 145.161C214.706 146.644 215.685 147.17 216.945 147.059C217.823 146.982 218.556 146.532 218.936 145.92L220.489 146.942ZM216.123 141.889C215.086 141.98 214.45 142.614 214.319 143.687L218.021 143.363C217.918 142.552 217.256 141.79 216.123 141.889ZM222.44 148.09L221.737 140.047L223.763 139.87L223.833 140.668C224.312 140.079 224.962 139.604 225.872 139.524C226.143 139.501 226.387 139.528 226.584 139.575L226.758 141.57C226.497 141.528 226.222 141.504 225.855 141.536C224.865 141.623 224.275 142.221 224.016 142.758L224.467 147.913L222.44 148.09ZM228.923 147.523L228.22 139.48L230.246 139.303L230.302 139.941C230.813 139.349 231.527 138.869 232.596 138.775C234.336 138.623 235.829 139.699 236.037 142.076L236.456 146.864L234.413 147.043L234.001 142.335C233.908 141.266 233.242 140.648 232.253 140.735C231.232 140.824 230.749 141.558 230.491 142.095L230.95 147.346L228.923 147.523ZM246.047 144.706C245.385 145.777 244.195 146.508 242.679 146.641C239.822 146.891 238.036 145.037 237.831 142.691C237.623 140.314 238.951 138.219 241.584 137.989C243.818 137.794 245.419 139.181 245.603 141.288C245.642 141.734 245.615 142.155 245.575 142.432L239.942 142.925C240.264 144.408 241.243 144.933 242.504 144.823C243.381 144.746 244.114 144.296 244.494 143.684L246.047 144.706ZM241.681 139.653C240.644 139.744 240.008 140.378 239.877 141.451L243.579 141.127C243.476 140.316 242.814 139.554 241.681 139.653ZM247.085 144.76L248.32 143.43C248.869 144.009 249.498 144.404 250.264 144.337C250.919 144.28 251.22 143.868 251.178 143.389C251.056 141.985 247.256 142.848 247.009 140.023C246.884 138.603 247.988 137.429 249.663 137.282C250.892 137.175 252.061 137.667 252.704 138.399L251.466 139.697C251.007 139.223 250.444 138.854 249.822 138.909C249.183 138.964 248.911 139.342 248.947 139.757C249.067 141.129 252.871 140.314 253.114 143.091C253.23 144.785 251.955 145.829 250.439 145.962C249.002 146.088 247.931 145.603 247.085 144.76Z" fill="#161616"/>
<path d="M255.151 158.294L188.326 164.14L189.024 172.119L255.849 166.273L255.151 158.294Z" fill="#3B69D1" mask="url(#path-10-inside-1_5720_13778)"/>
<g filter="url(#filter2_d_5720_13778)">
<rect x="9.01962" y="193.898" width="301.797" height="412.496" rx="8" transform="rotate(-5 9.01962 193.898)" fill="white" shape-rendering="crispEdges"/>
<path d="M46.9965 227.058L40.9225 221.961C40.4587 222.404 39.9128 222.77 39.2849 223.059C38.6569 223.348 37.9772 223.525 37.2458 223.589C35.4339 223.748 33.8457 223.254 32.4812 222.11C31.116 220.964 30.3541 219.485 30.1956 217.673C30.037 215.861 30.5306 214.273 31.6761 212.908C32.8211 211.543 34.2995 210.782 36.1114 210.623C37.9234 210.465 39.5119 210.958 40.8771 212.103C42.2416 213.248 43.0031 214.727 43.1617 216.539C43.2257 217.27 43.1697 217.97 42.9936 218.639C42.8176 219.308 42.552 219.909 42.1966 220.442L48.2978 225.562C48.4967 225.729 48.6077 225.945 48.631 226.211C48.6543 226.477 48.5749 226.719 48.3929 226.936C48.226 227.134 48.0013 227.246 47.7187 227.271C47.4361 227.296 47.1954 227.225 46.9965 227.058ZM37.0713 221.594C38.318 221.485 39.3398 220.956 40.1365 220.008C40.9325 219.058 41.276 217.96 41.1669 216.713C41.0578 215.467 40.5289 214.445 39.5801 213.648C38.6307 212.852 37.5327 212.509 36.2859 212.618C35.0392 212.727 34.0175 213.256 33.2207 214.205C32.4247 215.154 32.0813 216.252 32.1903 217.499C32.2994 218.746 32.8283 219.767 33.7771 220.564C34.7265 221.36 35.8245 221.703 37.0713 221.594Z" fill="#3B69D1"/>
<path d="M62.388 219.966C62.6169 222.584 63.6733 224.549 65.565 226.137L64.2334 227.459C62.0809 225.83 60.6578 223.35 60.3772 220.142C60.0938 216.903 61.1762 214.203 62.9071 212.299L64.448 213.37C62.9176 215.176 62.1604 217.365 62.388 219.966ZM66.6716 224.03L66.5013 222.083L70.0018 217.982C70.7867 217.029 71.2763 216.375 71.1967 215.465C71.1157 214.539 70.4299 214.053 69.5522 214.129C68.483 214.223 67.8859 214.935 67.382 215.976L65.5331 215.06C66.3406 213.446 67.6452 212.367 69.5921 212.196C71.539 212.026 73.2118 213.134 73.3794 215.049C73.5134 216.581 72.6113 217.85 71.6038 219.015L69.1344 221.852L74.2251 221.407L74.3954 223.354L66.6716 224.03ZM77.9005 218.641C77.6715 216.024 76.6137 214.042 74.7075 212.472L76.039 211.15C78.1742 212.764 79.6132 215.243 79.8952 218.467C80.1787 221.706 79.1108 224.389 77.3654 226.31L75.8244 225.239C77.3867 223.43 78.128 221.243 77.9005 218.641ZM90.3485 220.35C91.1464 220.28 91.7526 219.858 92.0868 219.266L93.7727 220.34C93.1093 221.395 91.9842 222.137 90.516 222.265C87.7393 222.508 85.9051 220.659 85.6999 218.313C85.4946 215.967 86.9798 213.827 89.7565 213.584C91.2247 213.456 92.4614 213.991 93.298 214.914L91.8243 216.265C91.3924 215.74 90.722 215.429 89.8921 215.502C88.5676 215.618 87.6835 216.724 87.8064 218.128C87.9306 219.549 88.992 220.469 90.3485 220.35ZM95.4001 221.516L94.6965 213.473L96.7232 213.296L96.793 214.094C97.2721 213.505 97.922 213.03 98.8317 212.951C99.103 212.927 99.3465 212.954 99.5436 213.001L99.7181 214.996C99.4572 214.954 99.1817 214.93 98.8147 214.962C97.8253 215.049 97.2344 215.647 96.9759 216.185L97.4268 221.339L95.4001 221.516ZM102.078 211.412C101.36 211.475 100.7 210.922 100.638 210.204C100.575 209.486 101.128 208.826 101.846 208.763C102.564 208.701 103.208 209.255 103.271 209.973C103.334 210.692 102.796 211.35 102.078 211.412ZM101.883 220.949L101.18 212.906L103.206 212.729L103.91 220.772L101.883 220.949ZM106.594 217.578L106.306 214.291L104.806 214.422L104.647 212.603L106.147 212.472L105.971 210.461L108.014 210.282L108.19 212.293L110.648 212.078L110.807 213.897L108.349 214.112L108.637 217.399C108.715 218.293 109.224 218.602 110.022 218.533C110.581 218.484 110.942 218.388 111.204 218.252L111.359 220.024C110.975 220.234 110.503 220.356 109.833 220.414C107.822 220.59 106.766 219.541 106.594 217.578ZM114.764 210.431L112.618 207.95L114.82 207.757L116.695 210.262L114.764 210.431ZM120.301 218.019C119.638 219.09 118.448 219.822 116.932 219.954C114.076 220.204 112.289 218.35 112.084 216.004C111.876 213.627 113.204 211.533 115.837 211.302C118.072 211.107 119.672 212.494 119.857 214.601C119.896 215.048 119.868 215.468 119.828 215.745L114.195 216.238C114.518 217.721 115.496 218.247 116.757 218.136C117.635 218.06 118.367 217.61 118.748 216.997L120.301 218.019ZM115.935 212.966C114.898 213.057 114.262 213.691 114.13 214.764L117.833 214.44C117.729 213.629 117.068 212.867 115.935 212.966ZM122.252 219.167L121.548 211.124L123.575 210.947L123.645 211.745C124.124 211.156 124.774 210.681 125.683 210.602C125.955 210.578 126.198 210.605 126.395 210.652L126.57 212.647C126.309 212.605 126.033 212.581 125.666 212.613C124.677 212.7 124.086 213.298 123.828 213.835L124.279 218.99L122.252 219.167ZM135.682 216.674C135.02 217.745 133.83 218.476 132.314 218.608C129.457 218.858 127.671 217.005 127.466 214.659C127.258 212.281 128.586 210.187 131.219 209.956C133.453 209.761 135.054 211.149 135.238 213.255C135.277 213.702 135.25 214.122 135.21 214.399L129.577 214.892C129.899 216.375 130.878 216.901 132.139 216.791C133.016 216.714 133.749 216.264 134.129 215.652L135.682 216.674ZM131.316 211.62C130.279 211.711 129.643 212.346 129.512 213.418L133.214 213.094C133.111 212.283 132.449 211.521 131.316 211.62ZM136.72 216.727L137.955 215.397C138.504 215.976 139.133 216.372 139.899 216.305C140.554 216.247 140.855 215.835 140.813 215.356C140.691 213.952 136.891 214.815 136.644 211.99C136.519 210.57 137.623 209.396 139.298 209.25C140.527 209.142 141.696 209.635 142.339 210.367L141.102 211.665C140.642 211.19 140.079 210.822 139.457 210.876C138.818 210.932 138.546 211.309 138.582 211.724C138.702 213.097 142.506 212.282 142.749 215.058C142.865 216.753 141.59 217.797 140.074 217.93C138.637 218.055 137.566 217.57 136.72 216.727ZM151.406 216.858C149.794 216.999 148.612 216.169 148.482 214.685C148.376 213.472 149.238 212.48 150.937 212.042L153.358 211.413L153.34 211.205C153.266 210.359 152.58 209.873 151.654 209.954C150.872 210.022 150.298 210.442 149.919 211.07L148.336 210.067C148.967 209.015 150.095 208.305 151.563 208.177C153.893 207.973 155.211 209.256 155.366 211.028L155.822 216.23L153.795 216.407L153.726 215.626C153.27 216.293 152.348 216.775 151.406 216.858ZM150.485 214.414C150.532 214.956 150.994 215.27 151.68 215.21C152.606 215.129 153.238 214.639 153.581 213.966L153.482 212.833L151.595 213.32C150.762 213.537 150.441 213.919 150.485 214.414ZM161.865 214.093C162.663 214.024 163.269 213.601 163.603 213.009L165.289 214.083C164.625 215.138 163.5 215.88 162.032 216.008C159.255 216.251 157.421 214.402 157.216 212.056C157.011 209.71 158.496 207.57 161.273 207.327C162.741 207.199 163.978 207.734 164.814 208.657L163.34 210.009C162.909 209.483 162.238 209.172 161.408 209.245C160.084 209.361 159.2 210.467 159.323 211.872C159.447 213.292 160.508 214.212 161.865 214.093ZM167.248 212.272L166.96 208.984L165.46 209.116L165.301 207.296L166.801 207.165L166.625 205.154L168.668 204.976L168.844 206.986L171.301 206.771L171.461 208.591L169.003 208.806L169.291 212.093C169.369 212.987 169.878 213.296 170.676 213.226C171.235 213.177 171.596 213.081 171.858 212.946L172.013 214.717C171.629 214.928 171.157 215.049 170.487 215.108C168.476 215.284 167.42 214.235 167.248 212.272ZM174.015 205.119C173.297 205.182 172.637 204.628 172.575 203.91C172.512 203.192 173.065 202.533 173.783 202.47C174.501 202.407 175.145 202.962 175.208 203.68C175.27 204.398 174.733 205.056 174.015 205.119ZM173.82 214.655L173.116 206.613L175.143 206.435L175.847 214.478L173.82 214.655ZM176.584 206.309L178.084 206.178L178.01 205.332C177.861 203.625 178.874 202.153 180.885 201.977C181.619 201.913 182.256 202.034 182.791 202.261L182.077 204.028C181.822 203.873 181.491 203.757 181.076 203.794C180.389 203.854 179.985 204.371 180.049 205.106L180.127 205.999L182.584 205.784L182.744 207.603L180.286 207.818L180.831 214.042L178.788 214.221L178.243 207.997L176.743 208.128L176.584 206.309ZM183.598 212.626L184.832 211.296C185.381 211.875 186.011 212.27 186.777 212.203C187.431 212.146 187.733 211.734 187.691 211.255C187.568 209.851 183.768 210.714 183.521 207.889C183.397 206.469 184.5 205.295 186.176 205.148C187.405 205.041 188.573 205.534 189.216 206.265L187.979 207.563C187.519 207.089 186.956 206.72 186.334 206.775C185.696 206.831 185.423 207.208 185.46 207.623C185.58 208.996 189.384 208.18 189.627 210.957C189.743 212.651 188.467 213.696 186.951 213.828C185.515 213.954 184.443 213.469 183.598 212.626Z" fill="#161616"/>
<path d="M284.443 200.907C284.31 200.919 284.183 200.909 284.063 200.877C283.943 200.846 283.829 200.785 283.721 200.694L278.704 196.485C278.505 196.318 278.398 196.097 278.383 195.821C278.367 195.547 278.442 195.31 278.609 195.111C278.776 194.912 279.001 194.8 279.283 194.776C279.566 194.751 279.807 194.822 280.006 194.989L284.236 198.538L287.808 194.281C287.975 194.082 288.196 193.975 288.471 193.959C288.746 193.943 288.983 194.019 289.182 194.186C289.38 194.353 289.492 194.578 289.517 194.86C289.542 195.143 289.471 195.384 289.304 195.582L285.117 200.572C285.026 200.68 284.924 200.76 284.811 200.812C284.699 200.864 284.576 200.896 284.443 200.907Z" fill="#161616"/>
<path d="M37.0484 260.985L35.9706 261.9L34.4819 259.956L33.3534 262.129L32.1332 261.415L33.5324 259.396L31.1175 258.996L31.4297 257.602L33.7913 258.312L33.4181 255.884L34.8384 255.76L34.8924 258.215L37.0789 257.107L37.6285 258.426L35.3357 259.238L37.0484 260.985Z" fill="#161616"/>
<path d="M45.2149 266.108L44.2376 254.937L46.0568 254.778L46.8876 264.273L51.292 263.888L51.4386 265.564L45.2149 266.108ZM56.2812 256.714C58.8984 256.485 60.8255 258.294 61.0336 260.672C61.2416 263.05 59.6579 265.166 57.0407 265.395C54.4395 265.623 52.4964 263.815 52.2884 261.437C52.0804 259.059 53.68 256.941 56.2812 256.714ZM56.9213 263.846C58.4373 263.713 59.4441 262.355 59.3101 260.823C59.1732 259.259 57.9486 258.128 56.4326 258.26C54.8847 258.396 53.8765 259.738 54.0119 261.286C54.1473 262.834 55.3733 263.981 56.9213 263.846ZM67.1761 262.949C68.0857 262.869 68.7807 262.358 69.1731 261.696L70.5523 262.573C69.9047 263.626 68.7797 264.368 67.2956 264.498C64.5986 264.734 62.7325 262.887 62.5273 260.541C62.322 258.195 63.8391 256.053 66.536 255.817C68.0042 255.688 69.2569 256.222 70.0776 257.147L68.8715 258.249C68.3702 257.666 67.5971 257.284 66.6715 257.365C65.1235 257.5 64.1125 258.811 64.2508 260.39C64.3904 261.986 65.6122 263.085 67.1761 262.949ZM74.4994 263.787C72.9035 263.927 71.7388 263.112 71.6145 261.692C71.5084 260.479 72.3732 259.519 74.0556 259.082L76.6191 258.424L76.5828 258.009C76.4962 257.02 75.7091 256.477 74.6718 256.568C73.7941 256.645 73.1428 257.104 72.7372 257.799L71.4261 256.965C72.0604 255.944 73.1564 255.237 74.5926 255.112C76.7629 254.922 78.0715 256.094 78.2265 257.865L78.6914 263.179L77.0477 263.323L76.9681 262.413C76.455 263.166 75.4888 263.701 74.4994 263.787ZM73.2686 261.483C73.3231 262.105 73.8555 262.493 74.6853 262.42C75.6907 262.332 76.4307 261.785 76.8425 260.977L76.721 259.589L74.5828 260.146C73.5928 260.409 73.2155 260.876 73.2686 261.483ZM81.2679 262.954L80.2208 250.985L81.8645 250.841L82.9116 262.81L81.2679 262.954ZM85.5701 252.672C84.9637 252.725 84.4084 252.259 84.3553 251.653C84.3023 251.046 84.7683 250.491 85.3747 250.438C85.9811 250.385 86.5364 250.851 86.5895 251.457C86.6425 252.064 86.1765 252.619 85.5701 252.672ZM85.6003 262.575L84.8967 254.532L86.5404 254.388L87.244 262.431L85.6003 262.575ZM88.9422 261.141L89.9887 260.052C90.574 260.676 91.25 261.051 92.0479 260.982C92.8299 260.913 93.2188 260.397 93.1658 259.79C93.0234 258.163 89.1333 259.098 88.8848 256.257C88.7689 254.933 89.7939 253.782 91.4057 253.641C92.5866 253.537 93.6741 254.021 94.3156 254.737L93.2837 255.808C92.8026 255.271 92.2091 254.921 91.5389 254.98C90.7729 255.047 90.429 255.527 90.4765 256.07C90.6175 257.682 94.5117 256.794 94.7532 259.555C94.8755 261.136 93.6812 262.189 92.1811 262.321C90.8247 262.439 89.7718 261.985 88.9422 261.141ZM99.2004 261.626C97.6046 261.766 96.4398 260.951 96.3156 259.531C96.2095 258.318 97.0742 257.358 98.7566 256.921L101.32 256.263L101.284 255.848C101.197 254.859 100.41 254.316 99.3728 254.407C98.4951 254.484 97.8438 254.943 97.4383 255.638L96.1271 254.804C96.7615 253.783 97.8574 253.076 99.2937 252.951C101.464 252.761 102.773 253.933 102.928 255.704L103.392 261.018L101.749 261.162L101.669 260.252C101.156 261.005 100.19 261.54 99.2004 261.626ZM97.9697 259.322C98.0241 259.944 98.5565 260.332 99.3863 260.259C100.392 260.171 101.132 259.624 101.544 258.816L101.422 257.428L99.2838 257.985C98.2938 258.248 97.9166 258.715 97.9697 259.322ZM106.203 257.958L105.874 254.192L104.358 254.325L104.228 252.841L105.744 252.708L105.568 250.697L107.228 250.552L107.404 252.563L110.069 252.33L110.199 253.814L107.534 254.047L107.863 257.813C107.958 258.898 108.563 259.199 109.457 259.121C109.999 259.073 110.361 258.977 110.638 258.841L110.765 260.293C110.396 260.486 109.957 260.605 109.334 260.659C107.451 260.824 106.375 259.921 106.203 257.958ZM112.702 250.298C112.096 250.351 111.541 249.885 111.488 249.279C111.434 248.672 111.9 248.117 112.507 248.064C113.113 248.011 113.669 248.477 113.722 249.083C113.775 249.69 113.309 250.245 112.702 250.298ZM112.733 260.201L112.029 252.158L113.673 252.014L114.376 260.057L112.733 260.201ZM120.068 251.133C122.685 250.904 124.612 252.714 124.82 255.091C125.028 257.469 123.444 259.586 120.827 259.814C118.226 260.042 116.283 258.234 116.075 255.856C115.867 253.479 117.466 251.361 120.068 251.133ZM120.708 258.265C122.224 258.133 123.23 256.774 123.096 255.242C122.96 253.678 121.735 252.547 120.219 252.68C118.671 252.815 117.663 254.158 117.798 255.706C117.934 257.254 119.16 258.401 120.708 258.265ZM127.226 258.933L126.522 250.89L128.166 250.746L128.234 251.528C128.785 250.837 129.542 250.304 130.691 250.204C132.463 250.049 133.924 251.127 134.128 253.457L134.551 258.292L132.891 258.437L132.474 253.666C132.362 252.389 131.593 251.685 130.444 251.785C129.343 251.882 128.748 252.625 128.395 253.363L128.87 258.789L127.226 258.933Z" fill="#161616"/>
<path d="M35.2697 300.803L36.169 299.824C36.915 300.631 37.7373 301.024 38.6449 300.944C39.734 300.849 40.305 300.138 40.2268 299.244C40.0338 297.038 35.4394 297.918 35.1572 294.693C35.0302 293.24 36.1272 291.948 37.8307 291.799C39.1992 291.68 40.2595 292.22 41.0699 293.12L40.1542 294.073C39.5097 293.299 38.7851 292.898 37.9473 292.971C36.9838 293.055 36.422 293.71 36.4953 294.547C36.6871 296.74 41.265 295.833 41.5497 299.086C41.6975 300.776 40.4929 301.965 38.7615 302.116C37.3232 302.242 36.2144 301.79 35.2697 300.803ZM46.8223 292.926L45.6633 293.028L46.9127 290.583L48.2532 290.465L46.8223 292.926ZM50.1153 299.688C49.536 300.625 48.5376 301.275 47.225 301.39C44.8512 301.597 43.2323 299.98 43.0528 297.928C42.8659 295.791 44.0889 294.01 46.2672 293.819C48.1802 293.652 49.5402 294.884 49.6917 296.615C49.7162 296.894 49.6975 297.163 49.6727 297.362L44.2688 297.835C44.4585 299.521 45.6229 300.446 47.1309 300.314C48.0386 300.235 48.7699 299.749 49.1757 299.08L50.1153 299.688ZM46.3272 294.827C45.1683 294.928 44.4182 295.683 44.2732 296.92L48.4902 296.551C48.3579 295.522 47.57 294.718 46.3272 294.827ZM52.0746 300.684L51.1584 290.211L52.3453 290.107L53.2615 300.58L52.0746 300.684ZM61.9243 298.654C61.345 299.591 60.3466 300.242 59.034 300.356C56.6602 300.564 55.0413 298.947 54.8617 296.894C54.6748 294.758 55.8979 292.977 58.0762 292.786C59.9892 292.619 61.3492 293.85 61.5007 295.582C61.5251 295.861 61.5064 296.13 61.4817 296.329L56.0778 296.802C56.2675 298.488 57.4319 299.413 58.9399 299.281C59.8476 299.202 60.5789 298.716 60.9847 298.047L61.9243 298.654ZM58.1362 293.794C56.9772 293.895 56.2272 294.65 56.0822 295.887L60.2991 295.518C60.1668 294.489 59.379 293.685 58.1362 293.794ZM67.0225 298.532C67.8883 298.456 68.5638 297.975 68.9429 297.323L69.9407 297.953C69.3614 298.89 68.391 299.538 67.1063 299.65C64.7744 299.854 63.1276 298.24 62.948 296.187C62.7684 294.134 64.1098 292.258 66.4417 292.054C67.7124 291.943 68.7958 292.425 69.5278 293.233L68.6546 294.027C68.168 293.451 67.4192 293.094 66.5395 293.171C65.0314 293.303 64.0601 294.584 64.1908 296.078C64.3227 297.586 65.5005 298.665 67.0225 298.532ZM71.8411 296.577L71.5259 292.974L70.1994 293.09L70.1053 292.015L71.4318 291.899L71.2779 290.14L72.4788 290.034L72.6327 291.794L75.0763 291.58L75.1704 292.655L72.7268 292.869L73.0419 296.472C73.1385 297.575 73.7239 297.833 74.5756 297.759C75.0364 297.718 75.3527 297.634 75.6082 297.499L75.7011 298.561C75.3782 298.73 75.0061 298.818 74.5034 298.862C72.9395 298.999 71.9913 298.294 71.8411 296.577ZM77.3309 289.54C76.8701 289.58 76.4601 289.236 76.4198 288.775C76.3807 288.328 76.7247 287.918 77.1855 287.878C77.6463 287.838 78.0423 288.183 78.0814 288.63C78.1217 289.091 77.7917 289.499 77.3309 289.54ZM77.5062 298.459L76.8905 291.421L78.0774 291.318L78.6931 298.355L77.5062 298.459ZM83.7731 290.538C86.0351 290.34 87.7378 291.95 87.9174 294.002C88.097 296.055 86.6997 297.936 84.4376 298.134C82.1616 298.333 80.4729 296.722 80.2933 294.669C80.1137 292.617 81.497 290.737 83.7731 290.538ZM84.3539 297.016C85.82 296.887 86.7877 295.565 86.6607 294.112C86.5324 292.646 85.3509 291.525 83.8848 291.654C82.3767 291.786 81.4078 293.094 81.5361 294.561C81.6643 296.027 82.8458 297.148 84.3539 297.016ZM90.1333 297.354L89.5176 290.317L90.7045 290.213L90.7741 291.009C91.2917 290.33 91.9787 289.82 93.026 289.728C94.6038 289.59 95.8696 290.549 96.0443 292.546L96.4169 296.804L95.23 296.908L94.8611 292.691C94.7511 291.435 93.9755 290.771 92.8863 290.866C91.867 290.955 91.276 291.598 90.8939 292.377L91.3202 297.25L90.1333 297.354ZM98.806 296.595L98.1903 289.558L99.3772 289.454L99.4468 290.25C99.9643 289.571 100.651 289.061 101.699 288.97C103.276 288.831 104.542 289.79 104.717 291.787L105.09 296.046L103.903 296.15L103.534 291.933C103.424 290.676 102.648 290.012 101.559 290.107C100.54 290.197 99.9486 290.839 99.5665 291.618L99.9929 296.492L98.806 296.595ZM113.633 294.13C113.054 295.068 112.055 295.718 110.743 295.833C108.369 296.04 106.75 294.423 106.57 292.37C106.383 290.234 107.606 288.453 109.785 288.262C111.698 288.095 113.058 289.326 113.209 291.058C113.234 291.337 113.215 291.606 113.19 291.805L107.786 292.278C107.976 293.964 109.14 294.889 110.649 294.757C111.556 294.678 112.287 294.192 112.693 293.523L113.633 294.13ZM109.845 289.27C108.686 289.371 107.936 290.126 107.791 291.363L112.008 290.994C111.875 289.965 111.088 289.161 109.845 289.27ZM114.965 295.182L114.871 294.107L118.591 288.856L114.541 289.211L114.447 288.136L119.949 287.654L120.043 288.729L116.309 293.981L120.568 293.608L120.662 294.683L114.965 295.182ZM130.988 290.741L130.637 286.719L131.824 286.615L132.172 290.595C132.356 292.703 131.249 294.038 129.336 294.206C127.437 294.372 126.114 293.249 125.93 291.141L125.582 287.161L126.769 287.058L127.121 291.079C127.242 292.461 128.051 293.193 129.252 293.088C130.425 292.985 131.109 292.123 130.988 290.741ZM134.778 293.448L134.163 286.411L135.35 286.307L135.419 287.103C135.937 286.424 136.624 285.914 137.671 285.822C139.249 285.684 140.515 286.643 140.689 288.64L141.062 292.899L139.875 293.002L139.506 288.785C139.396 287.529 138.62 286.865 137.531 286.96C136.512 287.049 135.921 287.692 135.539 288.471L135.965 293.344L134.778 293.448ZM149.605 290.983C149.026 291.92 148.028 292.571 146.715 292.685C144.341 292.893 142.722 291.276 142.543 289.223C142.356 287.087 143.579 285.305 145.757 285.115C147.67 284.948 149.03 286.179 149.182 287.911C149.206 288.19 149.187 288.459 149.163 288.658L143.759 289.131C143.948 290.817 145.113 291.742 146.621 291.61C147.529 291.531 148.26 291.045 148.666 290.376L149.605 290.983ZM145.817 286.123C144.658 286.224 143.908 286.979 143.763 288.216L147.98 287.847C147.848 286.817 147.06 286.014 145.817 286.123ZM153.651 284.706L154.936 284.593L157.691 290.191L159.432 284.2L160.717 284.088L158.582 291.366L157.018 291.503L153.651 284.706ZM162.612 282.078C162.151 282.119 161.741 281.775 161.701 281.314C161.662 280.867 162.006 280.457 162.466 280.417C162.927 280.377 163.323 280.722 163.362 281.169C163.403 281.629 163.073 282.038 162.612 282.078ZM162.787 290.998L162.171 283.96L163.358 283.856L163.974 290.894L162.787 290.998ZM166.483 290.675L165.566 280.202L166.753 280.098L167.669 290.571L166.483 290.675ZM170.178 290.351L169.262 279.879L170.449 279.775L171.365 290.247L170.178 290.351ZM180.028 288.322C179.448 289.259 178.45 289.909 177.137 290.024C174.764 290.231 173.145 288.614 172.965 286.562C172.778 284.425 174.001 282.644 176.18 282.453C178.093 282.286 179.453 283.518 179.604 285.249C179.629 285.528 179.61 285.797 179.585 285.997L174.181 286.469C174.371 288.155 175.535 289.081 177.043 288.949C177.951 288.869 178.682 288.383 179.088 287.714L180.028 288.322ZM176.24 283.461C175.081 283.562 174.331 284.318 174.186 285.554L178.403 285.185C178.27 284.156 177.482 283.352 176.24 283.461ZM188.322 281.391C190.584 281.193 192.287 282.803 192.466 284.856C192.646 286.908 191.249 288.789 188.987 288.987C186.711 289.186 185.022 287.575 184.842 285.523C184.663 283.47 186.046 281.59 188.322 281.391ZM188.903 287.869C190.369 287.741 191.337 286.418 191.21 284.965C191.081 283.499 189.9 282.379 188.434 282.507C186.926 282.639 185.957 283.948 186.085 285.414C186.213 286.88 187.395 288.001 188.903 287.869ZM199.32 284.762L198.968 280.741L200.155 280.637L200.503 284.617C200.687 286.725 199.58 288.06 197.667 288.228C195.768 288.394 194.446 287.271 194.261 285.163L193.913 281.183L195.1 281.079L195.452 285.101C195.573 286.483 196.382 287.214 197.583 287.109C198.756 287.007 199.441 286.145 199.32 284.762ZM211.51 283.696L211.159 279.674L212.345 279.571L212.694 283.55C212.878 285.659 211.771 286.994 209.858 287.161C207.959 287.327 206.636 286.205 206.452 284.096L206.104 280.117L207.291 280.013L207.643 284.034C207.763 285.417 208.573 286.148 209.774 286.043C210.947 285.94 211.631 285.078 211.51 283.696ZM215.3 286.404L214.685 279.366L215.871 279.262L215.941 280.058C216.459 279.38 217.146 278.869 218.193 278.778C219.771 278.64 221.037 279.598 221.211 281.595L221.584 285.854L220.397 285.958L220.028 281.741C219.918 280.484 219.142 279.82 218.053 279.915C217.034 280.005 216.443 280.647 216.061 281.426L216.487 286.3L215.3 286.404ZM37.0198 322.576C36.8402 320.523 38.0978 318.655 40.3041 318.461C41.3513 318.37 42.2106 318.703 42.9013 319.36L42.5275 315.087L43.7144 314.983L44.6306 325.456L43.4437 325.56L43.3704 324.722C42.8043 325.489 42.0159 325.966 40.9687 326.058C38.7624 326.251 37.1994 324.629 37.0198 322.576ZM38.2765 322.466C38.4073 323.96 39.5165 325.059 41.0106 324.928C41.988 324.843 42.8122 324.292 43.2568 323.423L43.0149 320.659C42.397 319.868 41.5049 319.482 40.5414 319.566C39.0474 319.697 38.1458 320.972 38.2765 322.466ZM49.9938 316.77L48.8348 316.871L50.0842 314.426L51.4247 314.309L49.9938 316.77ZM53.2868 323.531C52.7075 324.468 51.7091 325.118 50.3965 325.233C48.0227 325.44 46.4039 323.823 46.2243 321.771C46.0374 319.634 47.2604 317.853 49.4387 317.662C51.3517 317.495 52.7117 318.727 52.8632 320.458C52.8877 320.737 52.869 321.006 52.8442 321.206L47.4403 321.678C47.63 323.364 48.7944 324.29 50.3025 324.158C51.2101 324.078 51.9414 323.592 52.3473 322.923L53.2868 323.531ZM49.4988 318.67C48.3398 318.772 47.5898 319.527 47.4447 320.763L51.6617 320.394C51.5294 319.365 50.7415 318.561 49.4988 318.67ZM55.5466 327.962L54.6304 317.49L55.8173 317.386L55.8906 318.223C56.4567 317.456 57.2451 316.979 58.2923 316.888C60.4986 316.695 62.0616 318.317 62.2412 320.369C62.4208 322.422 61.1632 324.291 58.9569 324.484C57.9097 324.575 57.0504 324.243 56.3597 323.585L56.7335 327.858L55.5466 327.962ZM58.2504 318.017C57.273 318.103 56.4628 318.652 56.0054 319.536L56.2449 322.273C56.864 323.077 57.7561 323.463 58.7196 323.379C60.2136 323.248 61.1291 321.972 60.9984 320.478C60.8677 318.984 59.7445 317.886 58.2504 318.017ZM66.2716 323.759C64.8892 323.88 63.8865 323.194 63.7814 321.993C63.6886 320.932 64.4325 320.107 65.9046 319.725L68.2442 319.127L68.2014 318.638C68.1159 317.66 67.3688 317.163 66.3635 317.251C65.5536 317.322 64.9303 317.756 64.55 318.395L63.5964 317.789C64.1375 316.897 65.0837 316.294 66.3125 316.186C68.0998 316.03 69.2527 316.984 69.3883 318.534L69.8012 323.254L68.6143 323.358L68.5361 322.464C68.0654 323.195 67.1792 323.68 66.2716 323.759ZM64.9786 321.846C65.0311 322.447 65.5577 322.837 66.3816 322.765C67.3171 322.683 68.046 322.169 68.4408 321.375L68.3199 319.992L66.2699 320.523C65.3211 320.775 64.9261 321.246 64.9786 321.846ZM72.1823 323.045L71.5666 316.008L72.7535 315.904L72.8305 316.784C73.2934 316.124 73.9003 315.663 74.7939 315.585C75.0173 315.565 75.2292 315.575 75.4017 315.616L75.5031 316.775C75.2887 316.737 75.0768 316.728 74.7976 316.752C73.876 316.833 73.3171 317.36 72.9465 318.11L73.3692 322.942L72.1823 323.045ZM78.258 320.136L77.9428 316.533L76.6163 316.649L76.5222 315.574L77.8488 315.458L77.6948 313.699L78.8957 313.594L79.0496 315.353L81.4932 315.139L81.5873 316.215L79.1437 316.428L79.4589 320.031C79.5554 321.134 80.1408 321.392 80.9926 321.318C81.4534 321.277 81.7697 321.194 82.0252 321.059L82.118 322.12C81.7951 322.289 81.423 322.378 80.9203 322.422C79.3564 322.558 78.4083 321.853 78.258 320.136ZM89.941 320.324C89.3617 321.261 88.3633 321.911 87.0507 322.026C84.6769 322.234 83.0581 320.616 82.8785 318.564C82.6916 316.427 83.9146 314.646 86.0929 314.455C88.0059 314.288 89.3659 315.52 89.5174 317.251C89.5419 317.531 89.5232 317.8 89.4984 317.999L84.0945 318.472C84.2842 320.157 85.4486 321.083 86.9567 320.951C87.8643 320.871 88.5956 320.385 89.0014 319.717L89.941 320.324ZM86.1529 315.463C84.994 315.565 84.2439 316.32 84.0989 317.557L88.3159 317.188C88.1836 316.158 87.3957 315.355 86.1529 315.463ZM91.9003 321.32L91.2846 314.283L92.4715 314.179L92.5387 314.947C93.0156 314.286 93.6759 313.792 94.6533 313.707C95.6726 313.617 96.5508 314.005 97.0618 314.861C97.5532 314.044 98.2419 313.393 99.4567 313.286C100.965 313.154 102.156 314.063 102.323 315.976L102.708 320.375L101.521 320.479L101.14 316.122C101.037 314.949 100.322 314.336 99.3171 314.424C98.4234 314.502 97.8391 315.06 97.4503 315.924C97.4777 316.077 97.5051 316.229 97.5198 316.396L97.9046 320.795L96.7177 320.899L96.3366 316.542C96.2339 315.369 95.533 314.755 94.5137 314.844C93.5502 314.929 93.0023 315.582 92.6609 316.343L93.0872 321.216L91.9003 321.32ZM111.254 318.459C110.675 319.396 109.677 320.046 108.364 320.161C105.99 320.369 104.371 318.752 104.192 316.699C104.005 314.563 105.228 312.781 107.406 312.591C109.319 312.423 110.679 313.655 110.831 315.387C110.855 315.666 110.837 315.935 110.812 316.134L105.408 316.607C105.598 318.293 106.762 319.218 108.27 319.086C109.178 319.007 109.909 318.521 110.315 317.852L111.254 318.459ZM107.466 313.599C106.307 313.7 105.557 314.455 105.412 315.692L109.629 315.323C109.497 314.293 108.709 313.49 107.466 313.599ZM113.214 319.456L112.598 312.418L113.785 312.314L113.855 313.11C114.372 312.432 115.059 311.921 116.106 311.83C117.684 311.692 118.95 312.65 119.125 314.647L119.497 318.906L118.31 319.01L117.941 314.793C117.832 313.536 117.056 312.872 115.967 312.968C114.947 313.057 114.356 313.699 113.974 314.479L114.401 319.352L113.214 319.456ZM122.085 316.302L121.77 312.699L120.443 312.815L120.349 311.74L121.676 311.624L121.522 309.864L122.723 309.759L122.876 311.519L125.32 311.305L125.414 312.38L122.971 312.594L123.286 316.197C123.382 317.3 123.968 317.558 124.819 317.483C125.28 317.443 125.596 317.359 125.852 317.224L125.945 318.285C125.622 318.454 125.25 318.543 124.747 318.587C123.183 318.724 122.235 318.019 122.085 316.302ZM130.605 314.388C130.426 312.336 131.683 310.467 133.89 310.274C134.937 310.182 135.796 310.515 136.487 311.172L136.113 306.899L137.3 306.796L138.216 317.268L137.029 317.372L136.956 316.534C136.39 317.301 135.601 317.778 134.554 317.87C132.348 318.063 130.785 316.441 130.605 314.388ZM131.862 314.278C131.993 315.772 133.102 316.871 134.596 316.741C135.573 316.655 136.398 316.105 136.842 315.236L136.6 312.471C135.982 311.681 135.09 311.294 134.127 311.379C132.633 311.509 131.731 312.784 131.862 314.278ZM142.648 317.077C141.266 317.198 140.263 316.512 140.158 315.311C140.065 314.25 140.809 313.425 142.281 313.043L144.621 312.445L144.578 311.956C144.492 310.978 143.745 310.481 142.74 310.569C141.93 310.64 141.307 311.074 140.926 311.712L139.973 311.106C140.514 310.215 141.46 309.611 142.689 309.504C144.476 309.348 145.629 310.302 145.765 311.852L146.178 316.572L144.991 316.675L144.913 315.782C144.442 316.512 143.556 316.998 142.648 317.077ZM141.355 315.164C141.408 315.765 141.934 316.155 142.758 316.083C143.694 316.001 144.423 315.487 144.817 314.693L144.696 313.31L142.646 313.841C141.698 314.093 141.303 314.564 141.355 315.164ZM148.559 316.363L147.943 309.326L149.13 309.222L149.2 310.018C149.717 309.339 150.404 308.829 151.451 308.737C153.029 308.599 154.295 309.558 154.47 311.555L154.842 315.814L153.656 315.917L153.287 311.7C153.177 310.444 152.401 309.78 151.312 309.875C150.292 309.964 149.701 310.607 149.319 311.386L149.746 316.259L148.559 316.363ZM156.393 314.707L157.169 313.922C157.711 314.493 158.328 314.791 159.04 314.729C159.822 314.66 160.228 314.146 160.174 313.532C160.036 311.954 156.566 312.821 156.348 310.335C156.252 309.232 157.108 308.242 158.462 308.124C159.468 308.036 160.375 308.435 160.924 309.076L160.161 309.847C159.737 309.349 159.178 309.06 158.563 309.114C157.809 309.18 157.443 309.662 157.491 310.207C157.629 311.785 161.118 310.973 161.328 313.375C161.429 314.689 160.454 315.604 159.141 315.719C158.024 315.817 157.105 315.447 156.393 314.707ZM167.186 314.734L166.27 304.261L167.457 304.157L168.373 314.63L167.186 314.734ZM177.036 312.704C176.456 313.641 175.458 314.291 174.145 314.406C171.772 314.614 170.153 312.997 169.973 310.944C169.786 308.808 171.009 307.026 173.188 306.836C175.101 306.668 176.461 307.9 176.612 309.632C176.636 309.911 176.618 310.18 176.593 310.379L171.189 310.852C171.379 312.538 172.543 313.463 174.051 313.331C174.959 313.252 175.69 312.765 176.096 312.097L177.036 312.704ZM173.248 307.844C172.089 307.945 171.339 308.7 171.193 309.937L175.41 309.568C175.278 308.538 174.49 307.735 173.248 307.844ZM178.059 310.237C177.88 308.184 179.137 306.315 181.344 306.122C182.391 306.031 183.25 306.363 183.942 307.035L183.868 306.183L185.054 306.079L185.971 316.552L184.784 316.655L184.409 312.369C183.844 313.15 183.055 313.627 182.008 313.718C179.802 313.911 178.239 312.289 178.059 310.237ZM179.302 310.128C179.433 311.622 180.556 312.72 182.036 312.59C183.028 312.503 183.838 311.954 184.295 311.07L184.056 308.333C183.437 307.529 182.544 307.143 181.567 307.228C180.087 307.358 179.171 308.634 179.302 310.128ZM192.823 309.451L192.471 305.43L193.658 305.326L194.006 309.306C194.191 311.414 193.083 312.749 191.17 312.917C189.271 313.083 187.949 311.96 187.765 309.852L187.416 305.872L188.603 305.768L188.955 309.79C189.076 311.172 189.886 311.903 191.087 311.798C192.26 311.696 192.944 310.834 192.823 309.451ZM202.767 310.453C202.188 311.39 201.189 312.04 199.877 312.155C197.503 312.363 195.884 310.745 195.705 308.693C195.518 306.556 196.741 304.775 198.919 304.584C200.832 304.417 202.192 305.649 202.344 307.38C202.368 307.66 202.349 307.929 202.325 308.128L196.921 308.601C197.11 310.286 198.275 311.212 199.783 311.08C200.69 311 201.422 310.514 201.828 309.846L202.767 310.453ZM198.979 305.592C197.82 305.694 197.07 306.449 196.925 307.686L201.142 307.317C201.01 306.287 200.222 305.484 198.979 305.592ZM204.726 311.449L203.81 300.977L204.997 300.873L205.913 311.345L204.726 311.449ZM210.509 303.852L211.793 303.74L214.548 309.338L216.289 303.346L217.574 303.234L215.439 310.512L213.875 310.649L210.509 303.852ZM222.107 302.556C224.369 302.358 226.072 303.968 226.251 306.02C226.431 308.073 225.034 309.954 222.771 310.152C220.495 310.351 218.807 308.74 218.627 306.687C218.448 304.635 219.831 302.755 222.107 302.556ZM222.688 309.034C224.154 308.905 225.122 307.583 224.995 306.13C224.866 304.664 223.685 303.543 222.219 303.672C220.711 303.804 219.742 305.112 219.87 306.579C219.998 308.045 221.18 309.166 222.688 309.034ZM233.104 305.927L232.753 301.906L233.94 301.802L234.288 305.782C234.472 307.89 233.365 309.225 231.452 309.393C229.553 309.559 228.23 308.436 228.046 306.328L227.698 302.348L228.885 302.244L229.237 306.266C229.358 307.648 230.167 308.379 231.368 308.274C232.541 308.172 233.225 307.31 233.104 305.927ZM236.029 307.74L236.804 306.954C237.347 307.526 237.964 307.824 238.676 307.762C239.458 307.693 239.863 307.179 239.809 306.565C239.671 304.987 236.201 305.853 235.984 303.368C235.887 302.265 236.744 301.275 238.098 301.157C239.103 301.069 240.011 301.468 240.559 302.109L239.797 302.88C239.373 302.382 238.813 302.093 238.199 302.147C237.445 302.213 237.079 302.695 237.127 303.24C237.265 304.818 240.753 304.006 240.963 306.408C241.064 307.721 240.089 308.637 238.777 308.752C237.66 308.849 236.741 308.48 236.029 307.74ZM43.1886 348.858C44.0543 348.783 44.7298 348.301 45.1089 347.649L46.1068 348.28C45.5275 349.217 44.557 349.864 43.2724 349.977C40.9405 350.181 39.2937 348.566 39.1141 346.513C38.9345 344.461 40.2759 342.585 42.6078 342.381C43.8785 342.269 44.9619 342.752 45.6939 343.56L44.8206 344.354C44.334 343.777 43.5852 343.421 42.7055 343.498C41.1975 343.63 40.2261 344.911 40.3568 346.405C40.4888 347.913 41.6666 348.992 43.1886 348.858ZM47.8359 349.296L46.9197 338.823L48.1066 338.72L48.4767 342.951C48.9943 342.272 49.6813 341.762 50.7285 341.67C52.3064 341.532 53.5722 342.491 53.7469 344.487L54.1195 348.746L52.9326 348.85L52.5637 344.633C52.4537 343.376 51.692 342.711 50.5889 342.808C49.5556 342.898 48.9798 343.554 48.5965 344.319L49.0228 349.192L47.8359 349.296ZM62.6628 346.831C62.0835 347.768 61.0851 348.418 59.7725 348.533C57.3987 348.741 55.7799 347.124 55.6003 345.071C55.4134 342.935 56.6364 341.153 58.8147 340.963C60.7277 340.795 62.0878 342.027 62.2392 343.759C62.2637 344.038 62.245 344.307 62.2202 344.506L56.8163 344.979C57.006 346.665 58.1704 347.59 59.6785 347.458C60.5861 347.379 61.3174 346.892 61.7233 346.224L62.6628 346.831ZM58.8748 341.97C57.7158 342.072 56.9658 342.827 56.8207 344.064L61.0377 343.695C60.9054 342.665 60.1175 341.862 58.8748 341.97ZM64.6221 347.827L64.0064 340.79L65.1933 340.686L65.2703 341.566C65.7332 340.906 66.3401 340.445 67.2337 340.367C67.4571 340.347 67.669 340.357 67.8415 340.398L67.9429 341.557C67.7285 341.52 67.5167 341.51 67.2374 341.534C66.3158 341.615 65.7569 342.142 65.3863 342.892L65.809 347.724L64.6221 347.827ZM72.9156 346.258C73.7813 346.182 74.4568 345.701 74.8359 345.048L75.8338 345.679C75.2545 346.616 74.284 347.264 72.9993 347.376C70.6674 347.58 69.0206 345.965 68.8411 343.913C68.6615 341.86 70.0029 339.984 72.3348 339.78C73.6055 339.669 74.6888 340.151 75.4209 340.959L74.5476 341.753C74.061 341.177 73.3122 340.82 72.4325 340.897C70.9244 341.029 69.9531 342.31 70.0838 343.804C70.2158 345.312 71.3936 346.391 72.9156 346.258ZM77.5629 346.695L76.6467 336.223L77.8336 336.119L78.2037 340.35C78.7213 339.671 79.4083 339.161 80.4555 339.069C82.0334 338.931 83.2992 339.89 83.4739 341.887L83.8465 346.146L82.6596 346.249L82.2906 342.032C82.1807 340.776 81.419 340.111 80.3159 340.207C79.2826 340.298 78.7068 340.953 78.3234 341.718L78.7498 346.591L77.5629 346.695ZM92.3898 344.23C91.8105 345.167 90.8121 345.818 89.4995 345.932C87.1257 346.14 85.5068 344.523 85.3273 342.47C85.1404 340.334 86.3634 338.552 88.5417 338.362C90.4547 338.195 91.8147 339.426 91.9662 341.158C91.9907 341.437 91.972 341.706 91.9472 341.905L86.5433 342.378C86.733 344.064 87.8974 344.989 89.4054 344.857C90.3131 344.778 91.0444 344.292 91.4502 343.623L92.3898 344.23ZM88.6017 339.37C87.4428 339.471 86.6927 340.226 86.5477 341.463L90.7647 341.094C90.6324 340.064 89.8445 339.261 88.6017 339.37ZM93.7221 345.282L93.628 344.206L97.3476 338.956L93.2982 339.311L93.2041 338.235L98.7057 337.754L98.7998 338.829L95.0662 344.081L99.3251 343.708L99.4192 344.783L93.7221 345.282ZM109.745 340.84L109.394 336.819L110.58 336.715L110.929 340.695C111.113 342.803 110.006 344.138 108.093 344.306C106.194 344.472 104.871 343.349 104.687 341.241L104.339 337.261L105.526 337.157L105.878 341.179C105.998 342.561 106.808 343.292 108.009 343.187C109.182 343.085 109.866 342.223 109.745 340.84ZM113.535 343.548L112.92 336.511L114.106 336.407L114.176 337.203C114.694 336.524 115.381 336.014 116.428 335.922C118.006 335.784 119.272 336.743 119.446 338.74L119.819 342.998L118.632 343.102L118.263 338.885C118.153 337.629 117.377 336.965 116.288 337.06C115.269 337.149 114.678 337.792 114.296 338.571L114.722 343.444L113.535 343.548ZM128.833 333.993L127.674 334.094L128.923 331.649L130.264 331.532L128.833 333.993ZM132.126 340.754C131.546 341.691 130.548 342.341 129.235 342.456C126.862 342.664 125.243 341.046 125.063 338.994C124.876 336.857 126.099 335.076 128.278 334.885C130.191 334.718 131.551 335.95 131.702 337.681C131.727 337.961 131.708 338.23 131.683 338.429L126.279 338.902C126.469 340.587 127.633 341.513 129.141 341.381C130.049 341.301 130.78 340.815 131.186 340.147L132.126 340.754ZM128.338 335.893C127.179 335.995 126.429 336.75 126.284 337.987L130.501 337.618C130.368 336.588 129.58 335.785 128.338 335.893ZM132.381 334.808L133.666 334.695L136.421 340.294L138.162 334.302L139.446 334.19L137.311 341.468L135.747 341.605L132.381 334.808ZM144.269 332.642L143.11 332.744L144.359 330.299L145.7 330.181L144.269 332.642ZM147.562 339.403C146.983 340.34 145.984 340.991 144.672 341.105C142.298 341.313 140.679 339.696 140.499 337.643C140.313 335.507 141.536 333.726 143.714 333.535C145.627 333.368 146.987 334.599 147.138 336.331C147.163 336.61 147.144 336.879 147.119 337.078L141.716 337.551C141.905 339.237 143.07 340.162 144.578 340.03C145.485 339.951 146.217 339.465 146.622 338.796L147.562 339.403ZM143.774 334.543C142.615 334.644 141.865 335.399 141.72 336.636L145.937 336.267C145.805 335.237 145.017 334.434 143.774 334.543ZM149.521 340.4L148.906 333.362L150.092 333.258L150.162 334.054C150.68 333.376 151.367 332.865 152.414 332.774C153.992 332.636 155.258 333.594 155.432 335.591L155.805 339.85L154.618 339.954L154.249 335.737C154.139 334.48 153.363 333.816 152.274 333.912C151.255 334.001 150.664 334.643 150.282 335.423L150.708 340.296L149.521 340.4ZM164.348 337.935C163.769 338.872 162.77 339.522 161.458 339.637C159.084 339.845 157.465 338.227 157.286 336.175C157.099 334.038 158.322 332.257 160.5 332.066C162.413 331.899 163.773 333.131 163.925 334.862C163.949 335.142 163.93 335.41 163.906 335.61L158.502 336.082C158.691 337.768 159.856 338.694 161.364 338.562C162.271 338.482 163.003 337.996 163.409 337.327L164.348 337.935ZM160.56 333.074C159.401 333.176 158.651 333.931 158.506 335.167L162.723 334.799C162.591 333.769 161.803 332.965 160.56 333.074ZM166.308 338.931L165.692 331.894L166.879 331.79L166.946 332.558C167.423 331.897 168.083 331.403 169.06 331.317C170.08 331.228 170.958 331.616 171.469 332.472C171.96 331.655 172.649 331.003 173.864 330.897C175.372 330.765 176.563 331.674 176.73 333.587L177.115 337.986L175.928 338.089L175.547 333.733C175.445 332.56 174.73 331.947 173.724 332.035C172.831 332.113 172.246 332.671 171.858 333.535C171.885 333.687 171.912 333.84 171.927 334.007L172.312 338.406L171.125 338.51L170.744 334.153C170.641 332.98 169.94 332.366 168.921 332.455C167.957 332.54 167.409 333.193 167.068 333.954L167.494 338.827L166.308 338.931ZM185.662 336.07C185.082 337.007 184.084 337.657 182.771 337.772C180.398 337.98 178.779 336.363 178.599 334.31C178.412 332.174 179.635 330.392 181.814 330.202C183.727 330.034 185.087 331.266 185.238 332.998C185.262 333.277 185.244 333.546 185.219 333.745L179.815 334.218C180.005 335.904 181.169 336.829 182.677 336.697C183.585 336.618 184.316 336.131 184.722 335.463L185.662 336.07ZM181.874 331.209C180.715 331.311 179.965 332.066 179.82 333.303L184.036 332.934C183.904 331.904 183.116 331.101 181.874 331.209ZM187.621 337.066L187.005 330.029L188.192 329.925L188.262 330.721C188.779 330.043 189.466 329.532 190.514 329.441C192.091 329.302 193.357 330.261 193.532 332.258L193.905 336.517L192.718 336.621L192.349 332.404C192.239 331.147 191.463 330.483 190.374 330.578C189.355 330.668 188.764 331.31 188.381 332.089L188.808 336.963L187.621 337.066ZM196.492 333.912L196.177 330.31L194.85 330.426L194.756 329.351L196.083 329.235L195.929 327.475L197.13 327.37L197.284 329.13L199.727 328.916L199.821 329.991L197.378 330.205L197.693 333.807C197.789 334.911 198.375 335.169 199.227 335.094C199.687 335.054 200.004 334.97 200.259 334.835L200.352 335.896C200.029 336.065 199.657 336.154 199.154 336.198C197.59 336.335 196.642 335.63 196.492 333.912ZM203.058 335.871C202.556 335.915 202.117 335.559 202.074 335.07C202.031 334.582 202.401 334.141 202.903 334.097C203.406 334.053 203.832 334.424 203.875 334.913C203.918 335.401 203.561 335.827 203.058 335.871Z" fill="#161616"/>
<rect x="40.8782" y="368.497" width="268.759" height="47.0577" rx="7.5" transform="rotate(-5 40.8782 368.497)" fill="white"/>
<path d="M60.7238 397.415L59.7465 386.244L61.5657 386.085L62.3964 395.58L66.8009 395.195L66.9475 396.87L60.7238 397.415ZM71.7712 398.362C71.33 399.751 70.47 400.582 69.0338 400.708C68.4593 400.758 68.036 400.699 67.655 400.571L67.5265 399.103C67.8249 399.206 68.199 399.253 68.566 399.221C69.3799 399.15 69.9292 398.813 70.2327 397.869L70.6621 396.529L66.5288 388.803L68.3481 388.643L71.3556 394.346L73.2952 388.211L75.0506 388.057L71.7712 398.362ZM80.0498 387.298C82.6669 387.069 84.594 388.878 84.8021 391.256C85.0101 393.634 83.4264 395.75 80.8093 395.979C78.2081 396.207 76.265 394.399 76.0569 392.021C75.8489 389.643 77.4485 387.526 80.0498 387.298ZM80.6898 394.43C82.2058 394.297 83.2126 392.939 83.0786 391.407C82.9418 389.843 81.7172 388.712 80.2011 388.845C78.6532 388.98 77.645 390.322 77.7804 391.87C77.9159 393.418 79.1418 394.565 80.6898 394.43ZM87.208 395.098L86.5044 387.055L88.1481 386.911L88.2165 387.693C88.7671 387.002 89.5245 386.469 90.6735 386.369C92.4449 386.214 93.906 387.292 94.1099 389.622L94.5329 394.457L92.8732 394.602L92.4558 389.831C92.3441 388.554 91.5749 387.849 90.4259 387.95C89.3248 388.046 88.7305 388.79 88.3771 389.528L88.8517 394.954L87.208 395.098ZM102.042 389.362C102.282 392.107 103.394 394.164 105.285 395.735L104.174 396.83C102.087 395.211 100.679 392.713 100.398 389.506C100.115 386.266 101.18 383.552 102.848 381.669L104.131 382.554C102.601 384.36 101.804 386.649 102.042 389.362ZM109.813 381.542C111.585 381.387 112.788 382.086 113.631 383.09L112.354 384.295C111.655 383.472 110.91 383.054 109.937 383.139C108.102 383.3 107.271 384.836 107.396 387.366C108.082 386.566 109.037 386.081 110.217 385.977C112.372 385.789 113.93 387.244 114.105 389.239C114.285 391.298 112.969 393.166 110.495 393.382C107.751 393.622 105.95 391.786 105.617 387.988C105.306 384.429 106.526 381.83 109.813 381.542ZM110.067 387.566C109.03 387.657 108.142 388.169 107.596 389.101C108.036 391.185 109.047 391.901 110.324 391.789C111.68 391.67 112.413 390.674 112.307 389.461C112.204 388.28 111.264 387.462 110.067 387.566ZM119.282 392.613C117.51 392.768 116.308 392.07 115.464 391.066L116.726 389.862C117.425 390.685 118.185 391.101 119.142 391.018C120.993 390.856 121.824 389.32 121.699 386.79C121.013 387.59 120.059 388.075 118.878 388.178C116.723 388.367 115.165 386.911 114.99 384.916C114.81 382.858 116.126 380.99 118.6 380.774C121.329 380.535 123.145 382.37 123.478 386.168C123.789 389.727 122.569 392.326 119.282 392.613ZM116.788 384.695C116.891 385.876 117.815 386.695 119.028 386.589C120.065 386.499 120.953 385.987 121.499 385.055C121.059 382.97 120.048 382.255 118.755 382.368C117.415 382.485 116.682 383.482 116.788 384.695ZM128.533 379.905C131.389 379.655 132.986 382.104 133.278 385.439C133.57 388.774 132.422 391.464 129.566 391.714C126.709 391.964 125.096 389.516 124.804 386.18C124.512 382.845 125.676 380.154 128.533 379.905ZM128.675 381.532C127.047 381.675 126.39 383.533 126.607 386.023C126.827 388.528 127.796 390.228 129.423 390.086C131.035 389.945 131.693 388.086 131.475 385.597C131.256 383.091 130.287 381.391 128.675 381.532ZM138.226 379.056C141.082 378.807 142.68 381.256 142.971 384.591C143.263 387.926 142.116 390.616 139.259 390.866C136.403 391.115 134.789 388.668 134.498 385.332C134.206 381.997 135.369 379.306 138.226 379.056ZM138.368 380.684C136.741 380.827 136.083 382.685 136.301 385.175C136.52 387.68 137.489 389.38 139.117 389.238C140.728 389.097 141.386 387.238 141.168 384.749C140.949 382.243 139.98 380.543 138.368 380.684ZM147.919 378.208C150.776 377.958 152.373 380.408 152.665 383.743C152.957 387.078 151.809 389.768 148.953 390.018C146.096 390.267 144.483 387.82 144.191 384.484C143.899 381.149 145.063 378.458 147.919 378.208ZM148.062 379.836C146.434 379.979 145.777 381.837 145.994 384.327C146.214 386.832 147.182 388.532 148.81 388.39C150.422 388.249 151.079 386.39 150.862 383.901C150.642 381.395 149.674 379.695 148.062 379.836ZM156.355 384.642C156.117 381.913 154.984 379.809 153.112 378.269L154.223 377.175C156.275 378.764 157.717 381.275 157.999 384.498C158.281 387.722 157.264 390.432 155.549 392.335L154.266 391.45C155.827 389.625 156.594 387.371 156.355 384.642Z" fill="#161616"/>
<rect x="40.8782" y="368.497" width="268.759" height="47.0577" rx="7.5" transform="rotate(-5 40.8782 368.497)" stroke="#3B69D1"/>
<path d="M52.23 448.86L53.463 447.513C54.2781 448.375 55.2178 448.823 56.1912 448.738C57.2924 448.642 57.8763 447.964 57.7939 447.022C57.5914 444.708 52.4379 445.722 52.1112 441.987C51.9618 440.28 53.2592 438.751 55.2859 438.574C56.8977 438.433 58.1588 439.062 59.1502 440.101L57.8999 441.433C57.166 440.58 56.3539 440.121 55.4443 440.2C54.4708 440.286 53.9001 440.93 53.9741 441.776C54.1752 444.074 59.3273 443.045 59.6568 446.811C59.7994 448.808 58.3618 450.204 56.367 450.379C54.6116 450.533 53.3241 449.97 52.23 448.86ZM69.3739 447.601C68.7119 448.672 67.5375 449.402 66.0374 449.533C63.2607 449.776 61.4425 447.925 61.2372 445.579C61.0264 443.169 62.3895 441.104 64.9428 440.881C67.161 440.687 68.7299 442.077 68.9086 444.12C68.9407 444.487 68.9249 444.858 68.8821 445.103L62.9456 445.623C63.2109 447.368 64.3596 448.184 65.9076 448.049C66.8811 447.964 67.6572 447.462 68.0933 446.748L69.3739 447.601ZM65.031 442.256C63.8341 442.361 63.0643 443.12 62.9179 444.387L67.2426 444.008C67.1227 443.006 66.3236 442.143 65.031 442.256ZM75.0964 447.181C76.006 447.101 76.701 446.59 77.0933 445.928L78.4725 446.805C77.825 447.858 76.6999 448.6 75.2158 448.73C72.5189 448.966 70.6528 447.119 70.4475 444.773C70.2423 442.427 71.7594 440.285 74.4563 440.049C75.9245 439.92 77.1772 440.454 77.9978 441.379L76.7918 442.481C76.2905 441.898 75.5173 441.516 74.5917 441.597C73.0438 441.732 72.0328 443.043 72.171 444.622C72.3107 446.218 73.5324 447.317 75.0964 447.181ZM80.5552 445.127L80.2257 441.361L78.7096 441.494L78.5798 440.009L80.0958 439.877L79.9199 437.866L81.5796 437.721L81.7555 439.732L84.4205 439.498L84.5504 440.983L81.8853 441.216L82.2148 444.982C82.3098 446.067 82.915 446.368 83.8086 446.29C84.3512 446.242 84.7127 446.146 84.9901 446.009L85.1172 447.462C84.7482 447.655 84.3083 447.774 83.6859 447.828C81.8029 447.993 80.7269 447.09 80.5552 445.127ZM94.075 445.44C93.4129 446.511 92.2386 447.241 90.7385 447.372C87.9618 447.615 86.1435 445.764 85.9383 443.418C85.7275 441.008 87.0905 438.943 89.6439 438.72C91.8621 438.526 93.4309 439.916 93.6097 441.959C93.6418 442.326 93.626 442.697 93.5831 442.942L87.6466 443.461C87.9119 445.207 89.0607 446.023 90.6087 445.888C91.5821 445.803 92.3583 445.3 92.7944 444.587L94.075 445.44ZM89.732 440.095C88.5351 440.2 87.7653 440.959 87.6189 442.226L91.9436 441.847C91.8237 440.845 91.0246 439.982 89.732 440.095ZM101.233 442.659L100.83 438.063L102.49 437.918L102.885 442.434C103.096 444.843 101.833 446.401 99.5833 446.598C97.3172 446.796 95.8032 445.482 95.5923 443.072L95.1972 438.556L96.8569 438.41L97.259 443.006C97.3804 444.395 98.1871 445.16 99.4478 445.05C100.677 444.943 101.354 444.047 101.233 442.659ZM105.692 445.742L104.988 437.699L106.632 437.555L106.712 438.465C107.216 437.794 107.879 437.285 108.868 437.199C109.123 437.176 109.367 437.203 109.58 437.249L109.721 438.861C109.46 438.819 109.201 438.794 108.865 438.823C107.844 438.912 107.221 439.514 106.867 440.236L107.336 445.598L105.692 445.742ZM115.408 440.84C115.203 438.494 116.608 436.361 119.146 436.139C120.295 436.038 121.193 436.378 121.926 437.037L121.511 432.298L123.187 432.151L124.234 444.12L122.558 444.266L122.487 443.453C121.88 444.229 121.054 444.72 119.905 444.82C117.368 445.042 115.613 443.186 115.408 440.84ZM117.148 440.687C117.286 442.267 118.429 443.389 119.977 443.254C121.014 443.163 121.865 442.59 122.333 441.697L122.079 438.793C121.412 437.967 120.494 437.581 119.489 437.669C117.941 437.804 117.009 439.108 117.148 440.687ZM127.092 437.068L125.576 437.2L126.577 432.658L128.444 432.495L127.092 437.068ZM132.881 443.604C131.286 443.744 130.121 442.929 129.997 441.509C129.891 440.296 130.755 439.336 132.438 438.9L135.001 438.241L134.965 437.826C134.878 436.837 134.091 436.295 133.054 436.385C132.176 436.462 131.525 436.921 131.119 437.616L129.808 436.782C130.443 435.762 131.538 435.055 132.975 434.929C135.145 434.739 136.454 435.911 136.609 437.682L137.074 442.996L135.43 443.14L135.35 442.231C134.837 442.983 133.871 443.518 132.881 443.604ZM131.651 441.3C131.705 441.922 132.238 442.31 133.067 442.237C134.073 442.149 134.813 441.602 135.225 440.794L135.103 439.406L132.965 439.963C131.975 440.226 131.598 440.694 131.651 441.3ZM143.309 441.213C144.218 441.133 144.913 440.622 145.306 439.961L146.685 440.837C146.037 441.891 144.912 442.632 143.428 442.762C140.731 442.998 138.865 441.151 138.66 438.805C138.455 436.46 139.972 434.317 142.669 434.081C144.137 433.952 145.39 434.486 146.21 435.411L145.004 436.514C144.503 435.93 143.73 435.548 142.804 435.629C141.256 435.764 140.245 437.075 140.383 438.655C140.523 440.25 141.745 441.35 143.309 441.213ZM148.767 439.159L148.438 435.393L146.922 435.526L146.792 434.042L148.308 433.909L148.132 431.898L149.792 431.753L149.968 433.764L152.633 433.531L152.763 435.015L150.098 435.248L150.427 439.014C150.522 440.099 151.127 440.4 152.021 440.322C152.564 440.274 152.925 440.178 153.202 440.042L153.33 441.494C152.96 441.687 152.521 441.806 151.898 441.86C150.015 442.025 148.939 441.122 148.767 439.159ZM155.266 431.499C154.66 431.552 154.105 431.086 154.052 430.48C153.999 429.873 154.465 429.318 155.071 429.265C155.677 429.212 156.233 429.678 156.286 430.284C156.339 430.891 155.873 431.446 155.266 431.499ZM155.297 441.402L154.593 433.359L156.237 433.215L156.94 441.258L155.297 441.402ZM157.744 433.083L159.516 432.928L162.425 438.977L164.224 432.517L166.011 432.36L163.667 440.67L161.48 440.861L157.744 433.083ZM168.17 430.37C167.564 430.423 167.008 429.957 166.955 429.351C166.902 428.745 167.368 428.189 167.975 428.136C168.581 428.083 169.136 428.549 169.19 429.155C169.243 429.762 168.777 430.317 168.17 430.37ZM168.2 440.273L167.497 432.23L169.14 432.086L169.844 440.129L168.2 440.273ZM172.767 437.06L172.438 433.293L170.922 433.426L170.792 431.942L172.308 431.809L172.132 429.799L173.792 429.653L173.968 431.664L176.633 431.431L176.762 432.915L174.097 433.148L174.427 436.914C174.522 438 175.127 438.3 176.021 438.222C176.563 438.175 176.925 438.079 177.202 437.942L177.329 439.394C176.96 439.587 176.52 439.706 175.898 439.761C174.015 439.925 172.939 439.022 172.767 437.06ZM182.666 429.617L181.07 429.756L182.498 426.962L184.317 426.803L182.666 429.617ZM186.287 437.372C185.625 438.443 184.451 439.173 182.951 439.304C180.174 439.547 178.356 437.696 178.15 435.35C177.94 432.941 179.303 430.876 181.856 430.652C184.074 430.458 185.643 431.849 185.822 433.891C185.854 434.258 185.838 434.63 185.795 434.875L179.859 435.394C180.124 437.14 181.273 437.956 182.821 437.82C183.794 437.735 184.57 437.233 185.006 436.519L186.287 437.372ZM181.944 432.028C180.747 432.132 179.977 432.891 179.831 434.158L184.156 433.78C184.036 432.777 183.237 431.914 181.944 432.028Z" fill="#161616"/>
<rect x="49.6035" y="468.237" width="268.759" height="55.0674" rx="7.5" transform="rotate(-5 49.6035 468.237)" fill="white"/>
<rect x="66.0677" y="478.355" width="245.295" height="32.0385" rx="8" transform="rotate(-5 66.0677 478.355)" fill="#EEF1F8"/>
<path d="M76.2739 499.572L79.2308 489.464L81.3532 489.279L86.0204 498.72L84.3029 498.87L83.0302 496.223L78.7713 496.596L77.9774 499.423L76.2739 499.572ZM79.1822 495.181L82.3798 494.901L80.4191 490.824L79.1822 495.181ZM87.8304 498.561L87.2147 491.524L88.653 491.398L88.7226 492.194C89.1637 491.606 89.7439 491.162 90.6096 491.086C90.833 491.066 91.0461 491.09 91.2326 491.13L91.3559 492.54C91.1276 492.504 90.9006 492.481 90.6073 492.507C89.7137 492.585 89.1687 493.111 88.8582 493.744L89.2687 498.435L87.8304 498.561ZM94.0219 495.557L93.7336 492.262L92.407 492.378L92.2934 491.079L93.6199 490.963L93.466 489.204L94.9182 489.077L95.0721 490.836L97.4041 490.632L97.5177 491.931L95.1858 492.135L95.4741 495.43C95.5571 496.38 96.0867 496.643 96.8687 496.574C97.3434 496.533 97.6597 496.449 97.9025 496.329L98.0137 497.6C97.6907 497.769 97.3059 497.873 96.7613 497.921C95.1136 498.065 94.1721 497.275 94.0219 495.557ZM109.752 495.49C109.172 496.427 108.145 497.065 106.832 497.18C104.403 497.393 102.812 495.773 102.632 493.72C102.448 491.612 103.64 489.805 105.874 489.61C107.815 489.44 109.188 490.656 109.345 492.444C109.373 492.765 109.359 493.09 109.321 493.304L104.127 493.759C104.359 495.286 105.364 496 106.719 495.882C107.57 495.807 108.25 495.368 108.631 494.743L109.752 495.49ZM105.952 490.813C104.904 490.905 104.231 491.569 104.103 492.677L107.887 492.346C107.782 491.469 107.083 490.714 105.952 490.813ZM111.776 494.004L111.488 490.708L110.161 490.825L110.048 489.526L111.374 489.41L111.22 487.65L112.673 487.523L112.827 489.283L115.158 489.079L115.272 490.377L112.94 490.581L113.228 493.877C113.312 494.826 113.841 495.09 114.623 495.021C115.098 494.98 115.414 494.896 115.657 494.776L115.768 496.047C115.445 496.216 115.06 496.32 114.516 496.367C112.868 496.511 111.927 495.721 111.776 494.004ZM121.588 495.608L120.733 485.833L126.179 485.357L126.297 486.711L122.443 487.048L122.685 489.813L125.98 489.525L126.099 490.879L122.804 491.168L123.18 495.468L121.588 495.608ZM130.303 495.056C128.907 495.179 127.887 494.466 127.779 493.223C127.686 492.162 128.443 491.322 129.915 490.94L132.158 490.363L132.126 490C132.05 489.135 131.361 488.66 130.454 488.74C129.686 488.807 129.116 489.208 128.761 489.816L127.614 489.087C128.169 488.194 129.128 487.575 130.385 487.465C132.284 487.299 133.429 488.325 133.564 489.875L133.971 494.524L132.533 494.65L132.463 493.854C132.014 494.513 131.169 494.981 130.303 495.056ZM129.226 493.04C129.274 493.585 129.74 493.924 130.466 493.86C131.345 493.783 131.993 493.304 132.353 492.598L132.247 491.383L130.376 491.87C129.51 492.101 129.18 492.509 129.226 493.04ZM139.427 492.964C140.223 492.894 140.831 492.447 141.174 491.868L142.381 492.635C141.914 493.407 141.148 493.981 140.156 494.222L139.102 496.327L137.65 496.454L138.729 494.319C136.8 494.136 135.518 492.672 135.359 490.857C135.179 488.805 136.507 486.93 138.867 486.723C140.151 486.611 141.247 487.078 141.966 487.887L140.91 488.852C140.472 488.342 139.795 488.007 138.985 488.078C137.631 488.196 136.746 489.343 136.867 490.725C136.989 492.122 138.058 493.083 139.427 492.964ZM146.339 486.069C148.629 485.869 150.315 487.452 150.497 489.533C150.679 491.613 149.294 493.465 147.004 493.666C144.728 493.865 143.027 492.283 142.845 490.202C142.663 488.122 144.063 486.269 146.339 486.069ZM146.899 492.31C148.226 492.194 149.107 491.005 148.989 489.665C148.87 488.296 147.798 487.307 146.472 487.423C145.117 487.541 144.235 488.716 144.353 490.07C144.472 491.425 145.545 492.428 146.899 492.31ZM152.603 492.894L151.987 485.857L153.425 485.731L153.485 486.415C153.967 485.81 154.629 485.344 155.635 485.256C157.185 485.121 158.463 486.064 158.642 488.103L159.012 492.334L157.56 492.461L157.194 488.286C157.097 487.168 156.424 486.552 155.418 486.64C154.455 486.724 153.935 487.375 153.625 488.021L154.041 492.768L152.603 492.894ZM161.248 492.138L160.632 485.1L162.07 484.975L162.13 485.659C162.612 485.054 163.275 484.588 164.28 484.5C165.83 484.364 167.109 485.308 167.287 487.346L167.657 491.577L166.205 491.704L165.84 487.529C165.742 486.412 165.069 485.796 164.064 485.884C163.1 485.968 162.58 486.618 162.271 487.265L162.686 492.012L161.248 492.138ZM171.853 491.421C170.456 491.543 169.437 490.831 169.328 489.588C169.235 488.527 169.992 487.686 171.464 487.304L173.707 486.728L173.676 486.365C173.6 485.5 172.911 485.025 172.003 485.104C171.235 485.172 170.666 485.573 170.311 486.181L169.163 485.451C169.718 484.559 170.677 483.94 171.934 483.83C173.833 483.664 174.978 484.689 175.114 486.239L175.521 490.889L174.082 491.015L174.013 490.219C173.564 490.878 172.718 491.345 171.853 491.421ZM170.776 489.405C170.823 489.949 171.289 490.289 172.015 490.225C172.895 490.148 173.542 489.669 173.903 488.962L173.796 487.748L171.926 488.235C171.059 488.465 170.729 488.874 170.776 489.405ZM177.131 492.015C177.069 491.303 177.369 490.713 177.982 490.167C177.652 489.929 177.465 489.565 177.434 489.202C177.385 488.644 177.611 488.174 178.123 487.749C177.468 487.342 177.056 486.66 176.988 485.878C176.87 484.524 177.819 483.315 179.537 483.165C180.067 483.119 180.537 483.176 180.943 483.323L183.541 483.096L183.648 484.325L182.266 484.446C182.417 484.728 182.516 485.057 182.546 485.392C182.665 486.761 181.717 487.983 179.972 488.136C179.664 488.163 179.381 488.145 179.111 488.113C178.904 488.314 178.796 488.534 178.815 488.744C178.84 489.037 179.009 489.191 179.386 489.158L181.299 488.991C183.114 488.832 184.103 489.688 184.214 490.959C184.348 492.481 182.968 493.755 180.831 493.942C178.667 494.132 177.257 493.453 177.131 492.015ZM179.889 487.032C180.797 486.952 181.275 486.305 181.205 485.51C181.137 484.728 180.555 484.188 179.647 484.267C178.739 484.346 178.26 484.979 178.329 485.761C178.398 486.557 178.981 487.111 179.889 487.032ZM178.482 491.699C178.551 492.481 179.374 492.888 180.701 492.772C182.097 492.65 182.859 492.034 182.787 491.21C182.735 490.61 182.344 490.166 181.269 490.26L179.035 490.455C178.671 490.797 178.438 491.197 178.482 491.699ZM191.474 488.34C190.894 489.277 189.867 489.916 188.554 490.03C186.125 490.243 184.534 488.623 184.354 486.571C184.17 484.462 185.362 482.655 187.596 482.46C189.537 482.29 190.91 483.507 191.066 485.294C191.095 485.615 191.081 485.94 191.043 486.154L185.849 486.609C186.081 488.136 187.086 488.85 188.441 488.732C189.292 488.657 189.972 488.218 190.353 487.594L191.474 488.34ZM187.674 483.663C186.626 483.755 185.953 484.419 185.825 485.527L189.609 485.196C189.504 484.319 188.805 483.564 187.674 483.663ZM196.218 485.533C196.038 483.48 197.268 481.614 199.488 481.42C200.493 481.332 201.279 481.629 201.92 482.206L201.558 478.059L203.024 477.93L203.94 488.403L202.474 488.531L202.412 487.819C201.88 488.499 201.158 488.928 200.152 489.016C197.932 489.21 196.397 487.585 196.218 485.533ZM197.74 485.4C197.861 486.782 198.861 487.764 200.215 487.645C201.123 487.566 201.867 487.065 202.277 486.283L202.055 483.742C201.471 483.019 200.668 482.681 199.788 482.758C198.433 482.877 197.619 484.017 197.74 485.4ZM206.441 482.232L205.114 482.348L205.99 478.374L207.624 478.231L206.441 482.232ZM211.943 480.33C214.233 480.129 215.919 481.713 216.101 483.793C216.283 485.874 214.898 487.726 212.608 487.926C210.331 488.125 208.631 486.543 208.449 484.463C208.267 482.382 209.667 480.529 211.943 480.33ZM212.503 486.57C213.83 486.454 214.71 485.266 214.593 483.925C214.473 482.557 213.402 481.567 212.075 481.683C210.721 481.802 209.839 482.976 209.957 484.331C210.076 485.685 211.149 486.689 212.503 486.57ZM222.718 483.721L222.366 479.699L223.818 479.572L224.164 483.524C224.349 485.632 223.244 486.995 221.275 487.168C219.292 487.341 217.967 486.191 217.783 484.082L217.437 480.131L218.889 480.004L219.241 484.025C219.347 485.24 220.053 485.91 221.156 485.813C222.232 485.719 222.824 484.936 222.718 483.721ZM225.053 479.464L226.603 479.329L229.148 484.622L230.722 478.968L232.286 478.831L230.235 486.102L228.322 486.27L225.053 479.464ZM234.202 485.755L233.586 478.718L235.024 478.592L235.094 479.388C235.535 478.8 236.115 478.356 236.981 478.28C237.204 478.26 237.417 478.284 237.604 478.324L237.727 479.734C237.499 479.698 237.272 479.676 236.979 479.701C236.085 479.779 235.54 480.306 235.23 480.938L235.64 485.629L234.202 485.755ZM241.438 485.333C240.042 485.455 239.023 484.743 238.914 483.5C238.821 482.439 239.578 481.599 241.05 481.216L243.293 480.64L243.261 480.277C243.185 479.412 242.497 478.937 241.589 479.017C240.821 479.084 240.251 479.485 239.896 480.093L238.749 479.363C239.304 478.471 240.263 477.852 241.52 477.742C243.419 477.576 244.564 478.602 244.699 480.151L245.106 484.801L243.668 484.927L243.598 484.131C243.149 484.79 242.304 485.258 241.438 485.333ZM240.361 483.317C240.409 483.862 240.875 484.201 241.601 484.137C242.481 484.06 243.128 483.581 243.488 482.874L243.382 481.66L241.511 482.147C240.645 482.378 240.315 482.786 240.361 483.317ZM246.717 485.927C246.654 485.215 246.955 484.626 247.568 484.079C247.238 483.841 247.051 483.477 247.019 483.114C246.97 482.556 247.197 482.086 247.708 481.661C247.054 481.254 246.642 480.572 246.574 479.79C246.455 478.436 247.405 477.227 249.122 477.077C249.653 477.031 250.122 477.088 250.529 477.235L253.126 477.008L253.234 478.237L251.851 478.358C252.003 478.64 252.102 478.969 252.131 479.304C252.251 480.673 251.303 481.895 249.557 482.048C249.25 482.075 248.967 482.057 248.697 482.025C248.489 482.226 248.382 482.446 248.4 482.656C248.426 482.949 248.594 483.103 248.971 483.07L250.884 482.903C252.7 482.744 253.689 483.6 253.8 484.871C253.933 486.393 252.553 487.667 250.417 487.854C248.253 488.044 246.842 487.365 246.717 485.927ZM249.475 480.944C250.382 480.864 250.86 480.217 250.791 479.422C250.722 478.64 250.14 478.1 249.233 478.179C248.325 478.258 247.846 478.891 247.914 479.673C247.984 480.469 248.567 481.023 249.475 480.944ZM248.068 485.612C248.136 486.393 248.96 486.8 250.286 486.684C251.683 486.562 252.445 485.946 252.373 485.122C252.32 484.522 251.93 484.078 250.855 484.172L248.62 484.367C248.256 484.709 248.024 485.109 248.068 485.612ZM261.059 482.252C260.48 483.189 259.452 483.828 258.14 483.942C255.71 484.155 254.119 482.535 253.94 480.483C253.755 478.374 254.948 476.567 257.182 476.372C259.123 476.202 260.496 477.419 260.652 479.206C260.68 479.527 260.666 479.852 260.629 480.066L255.434 480.521C255.667 482.048 256.672 482.762 258.026 482.644C258.878 482.569 259.557 482.13 259.939 481.506L261.059 482.252ZM257.259 477.575C256.212 477.667 255.538 478.331 255.41 479.44L259.194 479.108C259.089 478.231 258.39 477.476 257.259 477.575ZM262.039 482.321L262.955 481.368C263.467 481.915 264.059 482.243 264.757 482.182C265.441 482.122 265.781 481.67 265.735 481.139C265.61 479.715 262.207 480.533 261.989 478.048C261.888 476.889 262.784 475.882 264.195 475.758C265.228 475.668 266.18 476.091 266.741 476.718L265.838 477.655C265.417 477.185 264.898 476.879 264.311 476.93C263.641 476.989 263.34 477.409 263.382 477.884C263.505 479.294 266.913 478.518 267.124 480.933C267.231 482.317 266.186 483.238 264.873 483.353C263.686 483.457 262.765 483.059 262.039 482.321ZM271.994 478.903C271.814 476.851 273.044 474.984 275.264 474.79C276.27 474.702 277.056 474.999 277.697 475.576L277.334 471.429L278.8 471.301L279.717 481.773L278.25 481.902L278.188 481.189C277.657 481.869 276.934 482.298 275.929 482.386C273.709 482.58 272.174 480.956 271.994 478.903ZM273.516 478.77C273.637 480.152 274.638 481.134 275.992 481.016C276.9 480.936 277.644 480.435 278.054 479.653L277.831 477.112C277.248 476.389 276.444 476.052 275.564 476.129C274.21 476.247 273.395 477.388 273.516 478.77ZM282.217 475.603L280.891 475.719L281.767 471.745L283.401 471.602L282.217 475.603ZM287.283 481.322C285.887 481.445 284.868 480.732 284.759 479.489C284.666 478.428 285.423 477.588 286.895 477.206L289.138 476.629L289.106 476.266C289.03 475.401 288.342 474.926 287.434 475.006C286.666 475.073 286.096 475.474 285.741 476.082L284.594 475.353C285.149 474.46 286.108 473.841 287.365 473.731C289.264 473.565 290.409 474.591 290.544 476.141L290.951 480.79L289.513 480.916L289.443 480.12C288.994 480.779 288.149 481.247 287.283 481.322ZM286.206 479.306C286.254 479.851 286.72 480.19 287.446 480.126C288.326 480.049 288.973 479.57 289.333 478.864L289.227 477.649L287.356 478.136C286.49 478.367 286.16 478.775 286.206 479.306ZM293.206 480.593L292.59 473.556L294.028 473.43L294.098 474.226C294.539 473.638 295.119 473.194 295.985 473.118C296.208 473.098 296.421 473.122 296.608 473.162L296.731 474.572C296.503 474.536 296.276 474.513 295.983 474.539C295.089 474.617 294.544 475.143 294.233 475.776L294.644 480.467L293.206 480.593ZM299.397 477.589L299.109 474.294L297.782 474.41L297.669 473.111L298.995 472.995L298.841 471.236L300.294 471.109L300.447 472.868L302.779 472.664L302.893 473.963L300.561 474.167L300.849 477.462C300.932 478.412 301.462 478.675 302.244 478.606C302.719 478.565 303.035 478.481 303.278 478.361L303.389 479.632C303.066 479.801 302.681 479.905 302.137 479.952C300.489 480.097 299.547 479.307 299.397 477.589Z" fill="#3B69D1"/>
<rect x="49.6035" y="468.237" width="268.759" height="55.0674" rx="7.5" transform="rotate(-5 49.6035 468.237)" stroke="#3B69D1"/>
<rect x="55.8865" y="540.049" width="268.759" height="47.0577" rx="23.5" transform="rotate(-5 55.8865 540.049)" fill="#3B69D1"/>
<path d="M149.987 562.47L149.01 551.299L152.425 551C154.883 550.785 156.509 551.913 156.691 553.988C156.809 555.344 156.243 556.407 155.14 557.034L159.068 561.676L156.403 561.909L153.023 557.654L151.858 557.756L152.254 562.272L149.987 562.47ZM152.718 552.872L151.441 552.984L151.694 555.872L152.97 555.761C153.928 555.677 154.437 555.07 154.358 554.16C154.284 553.314 153.675 552.789 152.718 552.872ZM167.491 559.62C166.829 560.691 165.638 561.422 164.122 561.555C161.266 561.805 159.48 559.951 159.274 557.605C159.066 555.227 160.395 553.133 163.028 552.903C165.262 552.707 166.863 554.095 167.047 556.202C167.086 556.648 167.059 557.069 167.018 557.346L161.385 557.839C161.708 559.322 162.687 559.847 163.947 559.737C164.825 559.66 165.557 559.21 165.938 558.598L167.491 559.62ZM163.125 554.567C162.088 554.658 161.452 555.292 161.321 556.365L165.023 556.041C164.92 555.23 164.258 554.468 163.125 554.567ZM173.102 558.84C173.9 558.77 174.506 558.347 174.84 557.755L176.526 558.83C175.863 559.885 174.738 560.626 173.27 560.755C170.493 560.998 168.659 559.148 168.453 556.802C168.248 554.456 169.733 552.316 172.51 552.073C173.978 551.945 175.215 552.48 176.052 553.404L174.578 554.755C174.146 554.23 173.476 553.919 172.646 553.991C171.321 554.107 170.437 555.214 170.56 556.618C170.684 558.038 171.746 558.958 173.102 558.84ZM178.154 560.006L177.107 548.037L179.133 547.86L179.533 552.424C180.044 551.832 180.757 551.352 181.827 551.258C183.566 551.106 185.059 552.181 185.267 554.559L185.686 559.347L183.643 559.525L183.231 554.818C183.138 553.749 182.489 553.13 181.483 553.218C180.462 553.307 179.98 554.041 179.721 554.578L180.18 559.828L178.154 560.006ZM195.278 557.189C194.615 558.26 193.425 558.991 191.909 559.124C189.053 559.374 187.266 557.52 187.061 555.174C186.853 552.796 188.181 550.702 190.814 550.472C193.049 550.276 194.649 551.664 194.834 553.771C194.873 554.217 194.845 554.638 194.805 554.915L189.172 555.408C189.495 556.891 190.473 557.416 191.734 557.306C192.612 557.229 193.344 556.779 193.725 556.167L195.278 557.189ZM190.912 552.136C189.874 552.227 189.239 552.861 189.107 553.934L192.81 553.61C192.706 552.799 192.045 552.037 190.912 552.136ZM197.229 558.337L196.525 550.294L198.552 550.117L198.622 550.914C199.101 550.326 199.751 549.851 200.66 549.771C200.932 549.748 201.175 549.775 201.372 549.822L201.547 551.816C201.286 551.775 201.01 551.751 200.643 551.783C199.654 551.869 199.063 552.468 198.805 553.005L199.256 558.16L197.229 558.337ZM207.091 555.866C207.889 555.796 208.495 555.373 208.83 554.781L210.516 555.856C209.852 556.911 208.727 557.653 207.259 557.781C204.482 558.024 202.648 556.174 202.443 553.828C202.237 551.483 203.723 549.343 206.499 549.1C207.967 548.971 209.204 549.506 210.041 550.43L208.567 551.781C208.135 551.256 207.465 550.945 206.635 551.017C205.31 551.133 204.426 552.24 204.549 553.644C204.673 555.064 205.735 555.985 207.091 555.866ZM212.143 557.032L211.096 545.063L213.123 544.886L213.522 549.45C214.033 548.859 214.747 548.378 215.816 548.285C217.555 548.132 219.048 549.208 219.256 551.586L219.675 556.373L217.633 556.552L217.221 551.844C217.127 550.775 216.478 550.156 215.473 550.244C214.451 550.334 213.969 551.067 213.71 551.604L214.17 556.855L212.143 557.032ZM229.267 554.215C228.605 555.286 227.414 556.018 225.898 556.15C223.042 556.4 221.256 554.546 221.05 552.2C220.842 549.823 222.171 547.729 224.804 547.498C227.038 547.303 228.639 548.69 228.823 550.797C228.862 551.244 228.835 551.664 228.794 551.941L223.161 552.434C223.484 553.917 224.463 554.443 225.723 554.332C226.601 554.256 227.333 553.806 227.714 553.193L229.267 554.215ZM224.901 549.162C223.864 549.253 223.228 549.887 223.097 550.96L226.799 550.636C226.696 549.825 226.034 549.063 224.901 549.162ZM231.218 555.363L230.514 547.32L232.541 547.143L232.611 547.941C233.09 547.352 233.74 546.877 234.65 546.798C234.921 546.774 235.164 546.801 235.362 546.848L235.536 548.843C235.275 548.801 235 548.777 234.633 548.809C233.643 548.896 233.052 549.494 232.794 550.031L233.245 555.186L231.218 555.363Z" fill="#EEF1F8"/>
<rect x="55.8865" y="540.049" width="268.759" height="47.0577" rx="23.5" transform="rotate(-5 55.8865 540.049)" stroke="#3B69D1"/>
</g>
<g clip-path="url(#clip1_5720_13778)">
<path d="M365.434 559.132C367.71 554.825 369.873 550.676 372.054 546.544C372.484 545.717 372.789 545.134 373.545 544.25C374.098 543.585 375.311 542.211 376.171 543.23C376.812 544.117 377.173 544.792 376.603 546.355C375.105 550.378 372.889 553.924 370.717 557.461C368.795 560.582 367.268 562.915 365.355 565.514C364.462 566.728 363.286 566.451 361.982 564.993C360.811 563.684 359.593 562.355 358.633 560.93C355.151 555.802 351.795 550.648 348.379 545.486C347.951 544.846 347.585 544.36 347.169 543.561C346.672 542.592 346.262 541.897 346.998 541.547C347.691 541.207 348.763 542.255 349.227 542.856C353.192 547.832 361.235 558.178 361.764 558.672C361.804 555.554 361.912 552.692 361.845 549.762C361.268 529.327 359.128 508.59 351.846 486.886C346.081 469.705 338.449 452.805 328.411 436.214C327.824 435.232 327.303 434.216 326.819 433.234C326.144 431.907 326.006 431.176 326.604 431.011C327.826 430.874 328.491 431.735 329.07 432.396C330.24 433.704 331.212 435.189 332.159 436.627C344.659 455.925 352.885 475.739 358.699 495.833C364.668 516.456 365.862 535.973 365.292 555.074C365.22 556.066 365.297 558.62 365.434 559.132Z" fill="black"/>
</g>
<defs>
<filter id="filter0_d_5720_13778" x="21.0116" y="578.769" width="390.135" height="110.724" filterUnits="userSpaceOnUse" color-interpolation-filters="sRGB">
<feFlood flood-opacity="0" result="BackgroundImageFix"/>
<feColorMatrix in="SourceAlpha" type="matrix" values="0 0 0 0 0 0 0 0 0 0 0 0 0 0 0 0 0 0 127 0" result="hardAlpha"/>
<feOffset dy="4"/>
<feGaussianBlur stdDeviation="2"/>
<feComposite in2="hardAlpha" operator="out"/>
<feColorMatrix type="matrix" values="0 0 0 0 0 0 0 0 0 0 0 0 0 0 0 0 0 0 0.25 0"/>
<feBlend mode="normal" in2="BackgroundImageFix" result="effect1_dropShadow_5720_13778"/>
<feBlend mode="normal" in="SourceGraphic" in2="effect1_dropShadow_5720_13778" result="shape"/>
</filter>
<filter id="filter1_d_5720_13778" x="225.562" y="54.5138" width="75.8098" height="76.3965" filterUnits="userSpaceOnUse" color-interpolation-filters="sRGB">
<feFlood flood-opacity="0" result="BackgroundImageFix"/>
<feColorMatrix in="SourceAlpha" type="matrix" values="0 0 0 0 0 0 0 0 0 0 0 0 0 0 0 0 0 0 127 0" result="hardAlpha"/>
<feOffset dy="4"/>
<feGaussianBlur stdDeviation="6"/>
<feComposite in2="hardAlpha" operator="out"/>
<feColorMatrix type="matrix" values="0 0 0 0 0.152941 0 0 0 0 0.286275 0 0 0 0 0.588235 0 0 0 0.12 0"/>
<feBlend mode="normal" in2="BackgroundImageFix" result="effect1_dropShadow_5720_13778"/>
<feBlend mode="normal" in="SourceGraphic" in2="effect1_dropShadow_5720_13778" result="shape"/>
</filter>
<filter id="filter2_d_5720_13778" x="-2.99481" y="159.585" width="360.63" height="461.258" filterUnits="userSpaceOnUse" color-interpolation-filters="sRGB">
<feFlood flood-opacity="0" result="BackgroundImageFix"/>
<feColorMatrix in="SourceAlpha" type="matrix" values="0 0 0 0 0 0 0 0 0 0 0 0 0 0 0 0 0 0 127 0" result="hardAlpha"/>
<feOffset dy="4"/>
<feGaussianBlur stdDeviation="6"/>
<feComposite in2="hardAlpha" operator="out"/>
<feColorMatrix type="matrix" values="0 0 0 0 0.152941 0 0 0 0 0.286275 0 0 0 0 0.588235 0 0 0 0.12 0"/>
<feBlend mode="normal" in2="BackgroundImageFix" result="effect1_dropShadow_5720_13778"/>
<feBlend mode="normal" in="SourceGraphic" in2="effect1_dropShadow_5720_13778" result="shape"/>
</filter>
<clipPath id="clip0_5720_13778">
<rect width="24" height="24" fill="white" transform="translate(352.298 596.099) scale(1.0012) rotate(-5)"/>
</clipPath>
<clipPath id="clip1_5720_13778">
<rect width="101.33" height="143.693" fill="white" transform="translate(432.711 510.635) scale(1.0012) rotate(133.013)"/>
</clipPath>
</defs>
</svg>
