<svg width="401" height="628" viewBox="0 0 401 628" fill="none" xmlns="http://www.w3.org/2000/svg">
<rect x="0.536477" y="0.449652" width="302.549" height="534.324" rx="12.5" transform="matrix(0.995166 -0.0972995 0.0777876 0.996604 40.1771 50.1032)" fill="#F1F1F1" stroke="#878787" stroke-dasharray="5.51 5.51"/>
<rect width="320.731" height="553.764" rx="8" transform="matrix(0.995172 -0.0971985 0.0778639 0.996595 3.0498 76.0499)" fill="white"/>
<g filter="url(#filter0_d_6053_2422)">
<rect x="27" y="246.004" width="288" height="96" rx="8" transform="rotate(-5.58 27 246.004)" fill="white" shape-rendering="crispEdges"/>
<ellipse cx="51.5786" cy="271.736" rx="5.5" ry="5" fill="#3B69D1"/>
<path d="M67.7933 277.185L66.7043 266.038L69.5229 265.763L72.7033 270.178L74.9689 265.231L77.7875 264.955L78.8766 276.102L76.6153 276.323L75.8343 268.329L73.7578 272.744L72.1654 272.9L69.2736 268.97L70.0546 276.964L67.7933 277.185ZM88.8693 273.808C88.2189 274.884 87.0375 275.626 85.5247 275.774C82.6742 276.053 80.8714 274.219 80.6427 271.878C80.4109 269.506 81.7164 267.401 84.3439 267.144C86.5733 266.926 88.1861 268.296 88.3915 270.398C88.4351 270.844 88.4118 271.264 88.3746 271.541L82.7533 272.09C83.0907 273.568 84.0734 274.083 85.3314 273.96C86.2072 273.875 86.9342 273.418 87.3082 272.803L88.8693 273.808ZM84.458 268.805C83.4229 268.906 82.7941 269.546 82.6739 270.619L86.3683 270.258C86.2571 269.449 85.5886 268.694 84.458 268.805ZM89.9067 273.851L91.1261 272.51C91.6804 273.083 92.3132 273.471 93.0775 273.397C93.7304 273.333 94.0275 272.918 93.9808 272.44C93.8439 271.039 90.0575 271.939 89.7821 269.121C89.6437 267.703 90.7338 266.52 92.4058 266.357C93.632 266.237 94.8042 266.717 95.4537 267.441L94.2312 268.75C93.7674 268.281 93.2014 267.919 92.5804 267.979C91.9434 268.041 91.6751 268.421 91.7156 268.835C91.8494 270.205 95.6404 269.352 95.9111 272.123C96.0442 273.814 94.7809 274.87 93.2681 275.018C91.8349 275.158 90.7597 274.684 89.9067 273.851ZM105.989 271.846C106.785 271.768 107.386 271.339 107.714 270.745L109.409 271.801C108.757 272.861 107.641 273.614 106.176 273.757C103.405 274.027 101.554 272.199 101.326 269.858C101.097 267.517 102.558 265.365 105.329 265.094C106.794 264.951 108.035 265.473 108.88 266.387L107.422 267.751C106.985 267.231 106.312 266.927 105.484 267.008C104.162 267.137 103.291 268.251 103.428 269.652C103.566 271.07 104.635 271.978 105.989 271.846ZM113.191 272.991C111.582 273.148 110.393 272.332 110.249 270.851C110.13 269.641 110.981 268.641 112.673 268.186L115.085 267.533L115.065 267.326C114.982 266.482 114.292 266.003 113.369 266.093C112.588 266.169 112.019 266.595 111.647 267.226L110.055 266.24C110.675 265.182 111.795 264.462 113.26 264.319C115.585 264.092 116.914 265.361 117.087 267.128L117.594 272.32L115.572 272.517L115.496 271.737C115.047 272.408 114.13 272.899 113.191 272.991ZM112.246 270.559C112.299 271.101 112.763 271.409 113.448 271.342C114.371 271.252 114.998 270.757 115.334 270.081L115.223 268.95L113.344 269.455C112.514 269.681 112.197 270.066 112.246 270.559ZM119.91 272.093L119.126 264.068L121.148 263.87L121.211 264.507C121.715 263.911 122.423 263.424 123.49 263.32C125.226 263.15 126.728 264.209 126.96 266.582L127.426 271.359L125.388 271.558L124.929 266.86C124.825 265.794 124.154 265.184 123.167 265.28C122.148 265.38 121.673 266.118 121.421 266.657L121.932 271.896L119.91 272.093ZM128.757 267.178C128.529 264.837 129.879 262.695 132.411 262.448C133.494 262.342 134.307 262.6 134.988 263.161L134.543 258.607L136.582 258.407L137.749 270.351L135.71 270.55L135.648 269.913C135.088 270.594 134.34 271.005 133.257 271.111C130.725 271.358 128.986 269.519 128.757 267.178ZM130.875 266.971C131.012 268.372 131.988 269.306 133.357 269.172C134.265 269.083 134.976 268.628 135.446 267.843L135.191 265.231C134.578 264.551 133.792 264.242 132.884 264.331C131.515 264.465 130.738 265.569 130.875 266.971ZM140.271 260.587C139.555 260.657 138.89 260.111 138.82 259.394C138.75 258.678 139.296 258.014 140.013 257.944C140.729 257.874 141.378 258.421 141.448 259.138C141.518 259.854 140.988 260.517 140.271 260.587ZM140.173 270.114L139.389 262.088L141.411 261.89L142.195 269.916L140.173 270.114ZM143.655 265.722C143.427 263.381 144.777 261.24 147.309 260.993C148.391 260.887 149.204 261.145 149.886 261.705L149.441 257.151L151.48 256.952L152.646 268.895L150.608 269.094L150.546 268.457C149.985 269.139 149.238 269.55 148.155 269.655C145.623 269.903 143.884 268.063 143.655 265.722ZM145.773 265.515C145.91 266.917 146.885 267.85 148.255 267.716C149.163 267.628 149.874 267.172 150.344 266.387L150.088 263.775C149.475 263.096 148.69 262.787 147.782 262.875C146.412 263.009 145.636 264.114 145.773 265.515ZM157.355 268.676C155.747 268.833 154.558 268.017 154.413 266.536C154.295 265.326 155.146 264.326 156.838 263.872L159.25 263.218L159.229 263.011C159.147 262.167 158.457 261.688 157.533 261.778C156.753 261.854 156.184 262.28 155.811 262.911L154.22 261.925C154.84 260.868 155.959 260.147 157.424 260.004C159.749 259.777 161.079 261.046 161.252 262.813L161.759 268.005L159.737 268.202L159.66 267.422C159.211 268.093 158.295 268.584 157.355 268.676ZM156.41 266.244C156.463 266.786 156.928 267.094 157.612 267.027C158.536 266.937 159.163 266.442 159.499 265.766L159.388 264.635L157.508 265.14C156.678 265.366 156.362 265.751 156.41 266.244ZM164.298 264.799L163.978 261.518L162.481 261.665L162.303 259.849L163.8 259.703L163.604 257.696L165.643 257.497L165.839 259.504L168.291 259.264L168.468 261.08L166.016 261.319L166.336 264.6C166.424 265.491 166.935 265.795 167.732 265.717C168.289 265.663 168.649 265.563 168.909 265.425L169.082 267.193C168.701 267.407 168.231 267.533 167.562 267.599C165.555 267.795 164.489 266.757 164.298 264.799ZM175.818 263.127L175.373 258.572L177.412 258.373L177.847 262.832C178.082 265.236 176.825 266.854 174.469 267.085C172.112 267.315 170.582 265.969 170.347 263.565L169.911 259.106L171.95 258.907L172.395 263.461C172.508 264.624 173.183 265.281 174.298 265.172C175.397 265.065 175.932 264.289 175.818 263.127ZM180.434 266.18L179.65 258.154L181.673 257.957L181.75 258.753C182.223 258.16 182.867 257.679 183.775 257.591C184.046 257.564 184.289 257.589 184.487 257.634L184.681 259.624C184.42 259.585 184.145 259.564 183.778 259.6C182.791 259.696 182.207 260.3 181.954 260.839L182.457 265.983L180.434 266.18ZM193.823 263.554C193.172 264.63 191.991 265.373 190.478 265.52C187.628 265.799 185.825 263.966 185.596 261.625C185.364 259.252 186.67 257.147 189.297 256.89C191.527 256.673 193.14 258.042 193.345 260.144C193.388 260.59 193.365 261.01 193.328 261.287L187.707 261.836C188.044 263.315 189.027 263.83 190.285 263.707C191.161 263.621 191.888 263.164 192.262 262.549L193.823 263.554ZM189.411 258.551C188.376 258.652 187.748 259.292 187.627 260.365L191.322 260.004C191.211 259.195 190.542 258.441 189.411 258.551ZM194.86 263.597L196.08 262.256C196.634 262.829 197.267 263.217 198.031 263.143C198.684 263.079 198.981 262.664 198.934 262.186C198.797 260.785 195.011 261.686 194.736 258.867C194.597 257.45 195.687 256.266 197.359 256.103C198.585 255.983 199.758 256.463 200.407 257.187L199.185 258.497C198.721 258.027 198.155 257.665 197.534 257.725C196.897 257.788 196.629 258.168 196.669 258.582C196.803 259.951 200.594 259.098 200.865 261.869C200.998 263.56 199.734 264.616 198.221 264.764C196.788 264.904 195.713 264.43 194.86 263.597Z" fill="#161616"/>
<path d="M122.33 311.043L121.377 301.289L124.233 301.01C126.184 300.819 127.501 301.774 127.664 303.446C127.828 305.118 126.719 306.295 124.768 306.486L123.221 306.637L123.639 310.915L122.33 311.043ZM124.37 302.122L122.795 302.276L123.113 305.522L124.687 305.369C125.802 305.26 126.412 304.595 126.31 303.55C126.213 302.561 125.485 302.013 124.37 302.122ZM131.694 310.325C130.314 310.459 129.306 309.784 129.189 308.586C129.085 307.527 129.82 306.696 131.286 306.299L133.617 305.678L133.569 305.19C133.474 304.215 132.723 303.725 131.72 303.823C130.912 303.902 130.293 304.343 129.92 304.984L128.962 304.388C129.493 303.492 130.432 302.88 131.658 302.76C133.442 302.586 134.603 303.528 134.754 305.074L135.214 309.784L134.03 309.9L133.942 309.008C133.48 309.742 132.599 310.236 131.694 310.325ZM130.383 308.427C130.442 309.026 130.971 309.411 131.794 309.33C132.727 309.239 133.45 308.718 133.836 307.921L133.701 306.542L131.659 307.093C130.714 307.354 130.325 307.828 130.383 308.427ZM137.59 309.552L136.904 302.529L138.088 302.413L138.174 303.291C138.63 302.628 139.231 302.161 140.123 302.074C140.346 302.052 140.557 302.06 140.73 302.099L140.843 303.256C140.629 303.22 140.417 303.213 140.138 303.24C139.219 303.33 138.666 303.862 138.303 304.615L138.774 309.436L137.59 309.552ZM145.857 307.9C146.721 307.816 147.391 307.328 147.763 306.673L148.766 307.292C148.197 308.234 147.234 308.891 145.952 309.016C143.625 309.243 141.964 307.647 141.764 305.599C141.564 303.551 142.885 301.664 145.212 301.436C146.479 301.312 147.566 301.783 148.306 302.583L147.442 303.385C146.95 302.814 146.198 302.465 145.32 302.551C143.816 302.698 142.858 303.987 143.004 305.478C143.151 306.983 144.338 308.048 145.857 307.9ZM152.722 300.702C154.98 300.482 156.696 302.072 156.896 304.121C157.097 306.169 155.72 308.062 153.463 308.282C151.192 308.504 149.489 306.912 149.289 304.864C149.089 302.816 150.451 300.924 152.722 300.702ZM153.368 307.166C154.831 307.023 155.784 305.692 155.642 304.243C155.499 302.78 154.308 301.673 152.845 301.816C151.34 301.963 150.386 303.28 150.529 304.743C150.672 306.206 151.863 307.313 153.368 307.166ZM163.74 303.959L163.348 299.946L164.532 299.83L164.92 303.801C165.126 305.905 164.034 307.25 162.125 307.436C160.23 307.621 158.898 306.513 158.692 304.409L158.304 300.438L159.489 300.323L159.881 304.336C160.015 305.715 160.831 306.437 162.03 306.32C163.2 306.206 163.875 305.338 163.74 303.959ZM167.553 306.624L166.867 299.602L168.051 299.486L168.137 300.364C168.592 299.701 169.194 299.234 170.086 299.147C170.309 299.125 170.52 299.132 170.693 299.172L170.806 300.328C170.591 300.293 170.38 300.286 170.101 300.313C169.181 300.403 168.629 300.935 168.266 301.688L168.737 306.509L167.553 306.624ZM172.826 297.177C172.366 297.222 171.953 296.882 171.908 296.423C171.864 295.977 172.204 295.564 172.664 295.519C173.123 295.474 173.522 295.815 173.566 296.261C173.611 296.72 173.285 297.132 172.826 297.177ZM173.091 306.083L172.405 299.061L173.589 298.945L174.275 305.968L173.091 306.083ZM176.778 305.723L176.092 298.701L177.277 298.585L177.362 299.463C177.818 298.799 178.419 298.333 179.311 298.245C179.534 298.224 179.746 298.231 179.919 298.27L180.032 299.427C179.817 299.392 179.605 299.384 179.327 299.411C178.407 299.501 177.854 300.034 177.492 300.786L177.963 305.607L176.778 305.723ZM186.072 304.815L185.051 294.365L186.235 294.249L187.256 304.699L186.072 304.815ZM195.889 302.689C195.32 303.63 194.329 304.29 193.019 304.418C190.651 304.649 189.017 303.05 188.817 301.002C188.609 298.87 189.813 297.079 191.986 296.866C193.895 296.68 195.266 297.896 195.435 299.624C195.462 299.903 195.446 300.172 195.423 300.371L190.031 300.898C190.237 302.58 191.41 303.492 192.914 303.345C193.82 303.256 194.546 302.763 194.944 302.092L195.889 302.689ZM192.056 297.872C190.9 297.985 190.158 298.747 190.026 299.984L194.234 299.573C194.091 298.546 193.296 297.751 192.056 297.872ZM196.955 302.781L197.722 301.989C198.269 302.554 198.888 302.846 199.599 302.776C200.379 302.7 200.779 302.183 200.719 301.57C200.565 299.995 197.108 300.895 196.866 298.415C196.758 297.314 197.603 296.318 198.955 296.186C199.958 296.088 200.868 296.477 201.423 297.112L200.669 297.889C200.241 297.396 199.679 297.114 199.066 297.173C198.313 297.247 197.953 297.732 198.006 298.276C198.16 299.85 201.636 299.004 201.87 301.401C201.984 302.712 201.019 303.636 199.71 303.764C198.595 303.873 197.673 303.513 196.955 302.781ZM206.792 299.246C206.592 297.198 207.829 295.319 210.031 295.103C211.076 295.001 211.937 295.325 212.634 295.974L212.217 291.711L213.402 291.595L214.423 302.045L213.238 302.161L213.157 301.325C212.599 302.097 211.816 302.581 210.771 302.683C208.57 302.898 206.992 301.294 206.792 299.246ZM208.046 299.123C208.192 300.614 209.311 301.701 210.802 301.555C211.777 301.46 212.595 300.902 213.03 300.029L212.76 297.27C212.135 296.487 211.24 296.111 210.279 296.205C208.788 296.35 207.901 297.633 208.046 299.123ZM219.691 293.316L218.535 293.429L219.758 290.974L221.096 290.843L219.691 293.316ZM223.049 300.035C222.479 300.977 221.489 301.636 220.179 301.764C217.81 301.996 216.177 300.397 215.977 298.349C215.769 296.217 216.972 294.425 219.146 294.213C221.055 294.026 222.426 295.243 222.594 296.971C222.622 297.249 222.606 297.518 222.583 297.717L217.191 298.244C217.397 299.926 218.569 300.838 220.074 300.691C220.98 300.603 221.705 300.11 222.104 299.438L223.049 300.035ZM219.216 295.219C218.06 295.332 217.318 296.094 217.186 297.33L221.394 296.919C221.251 295.892 220.456 295.098 219.216 295.219ZM225.015 301.01L224.329 293.988L225.514 293.872L225.589 294.638C226.058 293.974 226.713 293.474 227.688 293.378C228.705 293.279 229.586 293.657 230.105 294.507C230.588 293.686 231.269 293.029 232.481 292.91C233.986 292.763 235.185 293.659 235.371 295.568L235.8 299.957L234.616 300.072L234.191 295.725C234.077 294.555 233.356 293.95 232.353 294.048C231.461 294.135 230.883 294.698 230.504 295.565C230.533 295.717 230.562 295.869 230.578 296.036L231.007 300.425L229.823 300.541L229.398 296.193C229.283 295.023 228.577 294.417 227.56 294.516C226.599 294.61 226.058 295.268 225.725 296.032L226.2 300.895L225.015 301.01ZM240.115 299.732C238.736 299.867 237.727 299.192 237.61 297.993C237.507 296.934 238.241 296.103 239.708 295.707L242.038 295.085L241.991 294.597C241.895 293.622 241.144 293.133 240.141 293.231C239.333 293.31 238.715 293.75 238.341 294.391L237.383 293.796C237.914 292.9 238.853 292.288 240.079 292.168C241.863 291.994 243.024 292.935 243.175 294.482L243.635 299.191L242.451 299.307L242.364 298.415C241.901 299.15 241.021 299.644 240.115 299.732ZM238.804 297.835C238.863 298.434 239.393 298.818 240.215 298.738C241.148 298.647 241.871 298.126 242.257 297.328L242.123 295.949L240.081 296.5C239.136 296.761 238.746 297.235 238.804 297.835ZM246.011 298.959L245.325 291.937L246.509 291.821L246.595 292.699C247.051 292.035 247.652 291.569 248.544 291.481C248.767 291.46 248.979 291.467 249.151 291.506L249.264 292.663C249.05 292.628 248.838 292.62 248.56 292.647C247.64 292.737 247.087 293.27 246.725 294.022L247.196 298.843L246.011 298.959ZM254.278 297.307C255.142 297.223 255.812 296.736 256.184 296.08L257.187 296.7C256.618 297.642 255.655 298.298 254.373 298.424C252.046 298.651 250.385 297.055 250.185 295.007C249.985 292.958 251.306 291.071 253.633 290.844C254.901 290.72 255.988 291.19 256.727 291.99L255.863 292.792C255.371 292.221 254.62 291.873 253.742 291.958C252.237 292.105 251.28 293.394 251.425 294.885C251.572 296.39 252.76 297.456 254.278 297.307ZM258.924 297.698L257.903 287.247L259.088 287.132L259.5 291.354C260.01 290.671 260.691 290.154 261.736 290.052C263.311 289.898 264.585 290.843 264.779 292.835L265.194 297.085L264.01 297.201L263.599 292.993C263.476 291.739 262.709 291.082 261.608 291.19C260.577 291.29 260.009 291.951 259.634 292.719L260.109 297.582L258.924 297.698ZM273.708 295.086C273.139 296.028 272.148 296.687 270.838 296.815C268.47 297.046 266.836 295.448 266.636 293.399C266.428 291.267 267.631 289.476 269.805 289.264C271.714 289.077 273.085 290.294 273.254 292.021C273.281 292.3 273.265 292.569 273.242 292.768L267.85 293.295C268.056 294.977 269.229 295.889 270.733 295.742C271.639 295.654 272.365 295.161 272.763 294.489L273.708 295.086ZM269.875 290.27C268.719 290.383 267.977 291.144 267.845 292.381L272.053 291.97C271.91 290.943 271.115 290.148 269.875 290.27ZM274.774 295.178L275.54 294.386C276.088 294.952 276.707 295.243 277.418 295.173C278.198 295.097 278.598 294.58 278.538 293.967C278.384 292.392 274.927 293.293 274.685 290.812C274.577 289.712 275.422 288.715 276.774 288.583C277.777 288.485 278.687 288.874 279.242 289.509L278.488 290.286C278.06 289.793 277.498 289.511 276.885 289.571C276.132 289.644 275.772 290.13 275.825 290.673C275.979 292.247 279.455 291.401 279.689 293.798C279.803 295.109 278.838 296.033 277.528 296.161C276.414 296.27 275.492 295.91 274.774 295.178Z" fill="#161616"/>
<path d="M289.611 293.996C289.411 293.831 289.297 293.608 289.269 293.326C289.242 293.044 289.31 292.803 289.475 292.603L292.977 288.342L288.716 284.84C288.516 284.675 288.402 284.452 288.375 284.17C288.347 283.888 288.416 283.647 288.58 283.446C288.745 283.246 288.968 283.132 289.25 283.105C289.532 283.077 289.773 283.146 289.974 283.31L294.999 287.441C295.108 287.531 295.19 287.632 295.243 287.744C295.295 287.856 295.328 287.978 295.341 288.111C295.354 288.244 295.345 288.37 295.316 288.49C295.285 288.61 295.225 288.725 295.135 288.834L291.004 293.86C290.84 294.06 290.616 294.174 290.334 294.202C290.052 294.229 289.811 294.161 289.611 293.996Z" fill="#161616"/>
</g>
<g filter="url(#filter1_d_6053_2422)">
<rect x="48.4463" y="457.397" width="288" height="120" rx="8" transform="rotate(-5.58 48.4463 457.397)" fill="white" shape-rendering="crispEdges"/>
<ellipse cx="74.1919" cy="495.073" rx="5.5" ry="5" fill="#3B69D1"/>
<path d="M89.2396 488.579L88.1506 477.432L90.9692 477.156L94.1496 481.572L96.4152 476.624L99.2338 476.349L100.323 487.496L98.0616 487.717L97.2806 479.723L95.2041 484.138L93.6116 484.293L90.7199 480.364L91.5009 488.358L89.2396 488.579ZM105.339 487.247C103.731 487.404 102.542 486.588 102.397 485.107C102.279 483.896 103.129 482.897 104.821 482.442L107.233 481.789L107.213 481.582C107.13 480.738 106.441 480.259 105.517 480.349C104.737 480.425 104.167 480.85 103.795 481.482L102.204 480.496C102.824 479.438 103.943 478.718 105.408 478.575C107.733 478.348 109.063 479.617 109.235 481.384L109.743 486.575L107.72 486.773L107.644 485.993C107.195 486.664 106.278 487.155 105.339 487.247ZM104.394 484.815C104.447 485.357 104.911 485.665 105.596 485.598C106.519 485.508 107.146 485.012 107.482 484.337L107.372 483.206L105.492 483.711C104.662 483.937 104.346 484.321 104.394 484.815ZM114.579 478.001L116.076 477.854L115.993 477.01C115.827 475.306 116.824 473.826 118.83 473.63C119.563 473.559 120.201 473.673 120.737 473.894L120.042 475.666C119.786 475.514 119.453 475.402 119.039 475.443C118.355 475.51 117.955 476.031 118.027 476.763L118.114 477.655L120.567 477.416L120.744 479.231L118.292 479.47L118.898 485.681L116.86 485.88L116.253 479.67L114.756 479.816L114.579 478.001ZM125.437 476.618C128.049 476.363 130.021 478.116 130.256 480.52C130.491 482.925 128.895 485.026 126.284 485.281C123.672 485.536 121.7 483.783 121.466 481.379C121.231 478.974 122.826 476.873 125.437 476.618ZM126.129 483.367C127.419 483.241 128.289 482.111 128.154 480.725C128.017 479.324 126.946 478.4 125.656 478.526C124.318 478.657 123.431 479.772 123.568 481.174C123.704 482.575 124.791 483.498 126.129 483.367ZM132.492 484.353L131.708 476.327L133.731 476.129L133.808 476.926C134.281 476.333 134.925 475.852 135.833 475.763C136.104 475.737 136.347 475.761 136.544 475.806L136.739 477.797C136.478 477.758 136.203 477.737 135.836 477.772C134.849 477.869 134.265 478.473 134.012 479.012L134.515 484.155L132.492 484.353ZM138.962 483.721L138.177 475.695L140.2 475.497L140.259 476.103C140.749 475.524 141.395 475.059 142.382 474.963C143.401 474.863 144.337 475.222 144.946 476.03C145.451 475.274 146.156 474.594 147.51 474.462C149.166 474.3 150.584 475.319 150.805 477.58L151.287 482.517L149.249 482.716L148.774 477.859C148.679 476.887 148.095 476.334 147.187 476.422C146.311 476.508 145.892 477.16 145.627 477.732C145.654 477.842 145.665 477.954 145.677 478.081L146.159 483.018L144.121 483.217L143.646 478.36C143.552 477.388 142.967 476.835 142.059 476.923C141.136 477.014 140.725 477.745 140.472 478.284L140.984 483.523L138.962 483.721ZM155.88 482.309C154.271 482.466 153.082 481.65 152.938 480.169C152.819 478.959 153.67 477.959 155.362 477.505L157.774 476.851L157.754 476.644C157.671 475.8 156.981 475.321 156.058 475.411C155.277 475.487 154.708 475.913 154.336 476.544L152.744 475.558C153.364 474.501 154.484 473.78 155.949 473.637C158.274 473.41 159.603 474.679 159.776 476.446L160.283 481.638L158.261 481.835L158.185 481.055C157.736 481.726 156.819 482.217 155.88 482.309ZM154.935 479.877C154.988 480.419 155.452 480.727 156.136 480.66C157.06 480.57 157.687 480.075 158.023 479.399L157.912 478.268L156.032 478.773C155.202 478.999 154.886 479.384 154.935 479.877ZM162.822 478.432L162.502 475.151L161.005 475.297L160.828 473.482L162.324 473.336L162.128 471.329L164.167 471.13L164.363 473.137L166.815 472.897L166.992 474.712L164.54 474.952L164.861 478.232C164.948 479.124 165.46 479.428 166.256 479.35C166.813 479.296 167.173 479.196 167.433 479.058L167.606 480.826C167.225 481.04 166.755 481.166 166.086 481.232C164.08 481.428 163.014 480.39 162.822 478.432ZM169.508 471.219C168.792 471.289 168.128 470.743 168.058 470.027C167.988 469.31 168.534 468.646 169.25 468.576C169.967 468.506 170.615 469.053 170.685 469.77C170.755 470.487 170.225 471.149 169.508 471.219ZM169.41 480.746L168.626 472.72L170.649 472.523L171.433 480.548L169.41 480.746ZM176.864 471.594C179.476 471.339 181.448 473.091 181.683 475.496C181.918 477.9 180.322 480.001 177.711 480.257C175.099 480.512 173.127 478.759 172.893 476.355C172.658 473.95 174.253 471.849 176.864 471.594ZM177.556 478.343C178.846 478.217 179.716 477.087 179.581 475.701C179.444 474.3 178.373 473.376 177.083 473.502C175.745 473.632 174.858 474.748 174.995 476.149C175.131 477.551 176.218 478.473 177.556 478.343ZM183.919 479.328L183.135 471.303L185.158 471.105L185.22 471.742C185.724 471.146 186.432 470.659 187.499 470.555C189.235 470.385 190.737 471.444 190.969 473.817L191.436 478.594L189.397 478.793L188.938 474.096C188.834 473.029 188.164 472.419 187.176 472.515C186.157 472.615 185.683 473.353 185.43 473.892L185.942 479.131L183.919 479.328ZM91.526 516.424L90.3592 504.481L92.3816 504.283L92.4454 504.936C93.0057 504.255 93.7518 503.828 94.8506 503.721C97.3984 503.472 99.1216 505.313 99.3503 507.654C99.579 509.995 98.2448 512.135 95.6969 512.383C94.5981 512.491 93.7836 512.217 93.1019 511.656L93.5484 516.227L91.526 516.424ZM94.7506 505.66C93.8111 505.751 93.0872 506.24 92.6507 507.038L92.8965 509.554C93.5126 510.266 94.3 510.591 95.2236 510.501C96.5931 510.367 97.3852 509.26 97.2483 507.859C97.1114 506.458 96.1201 505.526 94.7506 505.66ZM101.594 511.486L100.809 503.46L102.832 503.262L102.91 504.059C103.382 503.466 104.027 502.985 104.934 502.896C105.205 502.87 105.448 502.894 105.646 502.939L105.84 504.93C105.579 504.891 105.304 504.87 104.938 504.905C103.95 505.002 103.366 505.606 103.113 506.145L103.616 511.288L101.594 511.486ZM110.727 502.17C113.339 501.914 115.311 503.667 115.545 506.072C115.78 508.476 114.185 510.577 111.574 510.832C108.962 511.087 106.99 509.335 106.755 506.93C106.52 504.526 108.116 502.425 110.727 502.17ZM111.419 508.918C112.709 508.792 113.579 507.662 113.443 506.277C113.307 504.876 112.236 503.951 110.946 504.077C109.608 504.208 108.72 505.324 108.857 506.725C108.994 508.126 110.081 509.049 111.419 508.918ZM115.917 501.984L117.414 501.838L117.332 500.994C117.165 499.29 118.162 497.81 120.169 497.614C120.901 497.542 121.539 497.657 122.075 497.878L121.38 499.65C121.124 499.498 120.792 499.386 120.378 499.426C119.693 499.493 119.294 500.014 119.365 500.747L119.453 501.639L121.905 501.399L122.082 503.214L119.63 503.454L120.237 509.664L118.198 509.864L117.592 503.653L116.095 503.799L115.917 501.984ZM131.03 507.292C130.38 508.368 129.199 509.11 127.686 509.258C124.835 509.537 123.033 507.703 122.804 505.362C122.572 502.99 123.878 500.885 126.505 500.628C128.734 500.41 130.347 501.78 130.553 503.882C130.596 504.328 130.573 504.748 130.536 505.025L124.915 505.574C125.252 507.052 126.235 507.567 127.493 507.444C128.368 507.359 129.095 506.902 129.469 506.287L131.03 507.292ZM126.619 502.289C125.584 502.39 124.955 503.03 124.835 504.103L128.529 503.742C128.418 502.933 127.75 502.178 126.619 502.289ZM132.068 507.335L133.287 505.994C133.842 506.567 134.474 506.955 135.239 506.881C135.892 506.817 136.189 506.402 136.142 505.924C136.005 504.523 132.219 505.423 131.943 502.605C131.805 501.187 132.895 500.004 134.567 499.84C135.793 499.721 136.965 500.201 137.615 500.925L136.392 502.234C135.929 501.765 135.363 501.402 134.742 501.463C134.105 501.525 133.836 501.905 133.877 502.319C134.011 503.689 137.802 502.836 138.072 505.607C138.205 507.298 136.942 508.354 135.429 508.502C133.996 508.642 132.921 508.168 132.068 507.335ZM139.237 506.635L140.456 505.294C141.011 505.866 141.643 506.255 142.408 506.18C143.061 506.116 143.358 505.701 143.311 505.224C143.174 503.822 139.388 504.723 139.112 501.904C138.974 500.487 140.064 499.303 141.736 499.14C142.962 499.02 144.134 499.501 144.784 500.225L143.561 501.534C143.098 501.065 142.532 500.702 141.911 500.763C141.274 500.825 141.005 501.205 141.046 501.619C141.18 502.988 144.971 502.136 145.241 504.907C145.374 506.598 144.111 507.653 142.598 507.801C141.165 507.941 140.09 507.468 139.237 506.635ZM147.427 497.491C146.71 497.561 146.046 497.015 145.976 496.298C145.906 495.582 146.452 494.917 147.169 494.847C147.885 494.777 148.534 495.325 148.604 496.042C148.674 496.758 148.144 497.421 147.427 497.491ZM147.329 507.018L146.545 498.992L148.567 498.794L149.351 506.82L147.329 507.018ZM154.783 497.865C157.395 497.61 159.366 499.363 159.601 501.767C159.836 504.172 158.241 506.273 155.629 506.528C153.018 506.783 151.046 505.031 150.811 502.626C150.576 500.222 152.172 498.121 154.783 497.865ZM155.475 504.614C156.764 504.488 157.635 503.358 157.499 501.973C157.362 500.571 156.291 499.647 155.002 499.773C153.664 499.904 152.776 501.019 152.913 502.421C153.05 503.822 154.137 504.745 155.475 504.614ZM161.838 505.6L161.054 497.574L163.076 497.377L163.138 498.014C163.643 497.418 164.351 496.931 165.418 496.826C167.154 496.657 168.656 497.716 168.887 500.088L169.354 504.866L167.316 505.065L166.857 500.367C166.753 499.3 166.082 498.691 165.095 498.787C164.076 498.887 163.601 499.624 163.349 500.163L163.86 505.402L161.838 505.6ZM171.651 504.641L170.867 496.616L172.889 496.418L172.951 497.055C173.456 496.459 174.164 495.972 175.23 495.868C176.966 495.698 178.468 496.757 178.7 499.13L179.167 503.907L177.129 504.106L176.67 499.409C176.565 498.342 175.895 497.732 174.908 497.828C173.888 497.928 173.414 498.666 173.161 499.205L173.673 504.444L171.651 504.641ZM188.725 501.655C188.074 502.731 186.893 503.474 185.38 503.622C182.529 503.9 180.727 502.067 180.498 499.726C180.266 497.353 181.572 495.248 184.199 494.991C186.429 494.774 188.041 496.143 188.247 498.245C188.29 498.691 188.267 499.111 188.23 499.388L182.609 499.938C182.946 501.416 183.929 501.931 185.187 501.808C186.062 501.722 186.789 501.265 187.163 500.65L188.725 501.655ZM184.313 496.652C183.278 496.753 182.649 497.394 182.529 498.466L186.224 498.105C186.112 497.296 185.444 496.542 184.313 496.652ZM190.685 502.782L189.518 490.839L191.541 490.641L192.707 502.584L190.685 502.782ZM195.133 502.347L193.966 490.404L195.988 490.206L197.155 502.15L195.133 502.347ZM206.841 499.885C206.191 500.961 205.01 501.704 203.497 501.852C200.646 502.13 198.844 500.297 198.615 497.956C198.383 495.583 199.689 493.478 202.316 493.221C204.545 493.004 206.158 494.373 206.364 496.475C206.407 496.921 206.384 497.341 206.347 497.618L200.725 498.168C201.063 499.646 202.045 500.161 203.303 500.038C204.179 499.952 204.906 499.495 205.28 498.88L206.841 499.885ZM202.43 494.882C201.395 494.983 200.766 495.624 200.646 496.696L204.34 496.335C204.229 495.526 203.561 494.772 202.43 494.882Z" fill="#161616"/>
<path d="M146.11 546.322L145.157 536.569L148.013 536.29C149.964 536.099 151.281 537.054 151.444 538.726C151.608 540.398 150.499 541.575 148.548 541.766L147.002 541.917L147.42 546.194L146.11 546.322ZM148.15 537.402L146.576 537.555L146.893 540.802L148.467 540.648C149.582 540.539 150.192 539.875 150.09 538.83C149.994 537.84 149.265 537.293 148.15 537.402ZM155.474 545.604C154.095 545.739 153.086 545.064 152.969 543.866C152.866 542.807 153.6 541.975 155.067 541.579L157.397 540.957L157.35 540.47C157.254 539.494 156.503 539.005 155.5 539.103C154.692 539.182 154.074 539.622 153.7 540.264L152.742 539.668C153.273 538.772 154.212 538.16 155.438 538.04C157.222 537.866 158.383 538.807 158.534 540.354L158.994 545.064L157.81 545.179L157.723 544.287C157.26 545.022 156.38 545.516 155.474 545.604ZM154.163 543.707C154.222 544.306 154.752 544.69 155.574 544.61C156.507 544.519 157.23 543.998 157.616 543.201L157.482 541.821L155.44 542.372C154.495 542.634 154.105 543.108 154.163 543.707ZM161.37 544.831L160.684 537.809L161.868 537.693L161.954 538.571C162.41 537.908 163.011 537.441 163.903 537.354C164.126 537.332 164.338 537.339 164.51 537.379L164.623 538.535C164.409 538.5 164.197 538.492 163.919 538.52C162.999 538.61 162.446 539.142 162.084 539.895L162.555 544.716L161.37 544.831ZM169.637 543.18C170.501 543.095 171.171 542.608 171.543 541.953L172.546 542.572C171.977 543.514 171.014 544.171 169.732 544.296C167.405 544.523 165.744 542.927 165.544 540.879C165.344 538.831 166.665 536.943 168.992 536.716C170.26 536.592 171.347 537.063 172.086 537.862L171.222 538.664C170.73 538.093 169.979 537.745 169.101 537.831C167.596 537.978 166.639 539.267 166.784 540.758C166.931 542.262 168.119 543.328 169.637 543.18ZM176.503 535.982C178.76 535.762 180.477 537.352 180.677 539.4C180.877 541.449 179.5 543.341 177.243 543.562C174.972 543.784 173.269 542.192 173.069 540.144C172.869 538.095 174.231 536.204 176.503 535.982ZM177.148 542.446C178.611 542.303 179.564 540.972 179.423 539.523C179.28 538.06 178.088 536.952 176.625 537.095C175.121 537.242 174.166 538.559 174.309 540.023C174.452 541.486 175.643 542.593 177.148 542.446ZM187.52 539.238L187.128 535.225L188.313 535.11L188.701 539.081C188.906 541.185 187.814 542.529 185.905 542.716C184.01 542.901 182.678 541.793 182.472 539.689L182.084 535.718L183.269 535.602L183.661 539.615C183.796 540.995 184.612 541.717 185.81 541.6C186.98 541.485 187.655 540.618 187.52 539.238ZM191.333 541.904L190.647 534.882L191.831 534.766L191.917 535.644C192.373 534.98 192.974 534.513 193.866 534.426C194.089 534.405 194.301 534.412 194.473 534.451L194.586 535.608C194.372 535.573 194.16 535.565 193.881 535.592C192.962 535.682 192.409 536.215 192.046 536.967L192.517 541.788L191.333 541.904ZM196.606 532.457C196.146 532.502 195.733 532.162 195.688 531.702C195.645 531.256 195.984 530.843 196.444 530.799C196.904 530.754 197.303 531.094 197.346 531.54C197.391 532 197.066 532.412 196.606 532.457ZM196.871 541.363L196.185 534.34L197.369 534.225L198.055 541.247L196.871 541.363ZM200.559 541.003L199.872 533.98L201.057 533.864L201.143 534.742C201.598 534.079 202.2 533.612 203.091 533.525C203.314 533.503 203.526 533.511 203.699 533.55L203.812 534.707C203.597 534.671 203.386 534.664 203.107 534.691C202.187 534.781 201.634 535.313 201.272 536.066L201.743 540.887L200.559 541.003ZM209.852 540.095L208.831 529.645L210.016 529.529L211.037 539.979L209.852 540.095ZM219.669 537.968C219.1 538.91 218.109 539.569 216.8 539.697C214.431 539.929 212.798 538.33 212.598 536.282C212.389 534.15 213.593 532.358 215.766 532.146C217.675 531.96 219.046 533.176 219.215 534.904C219.242 535.182 219.226 535.451 219.203 535.65L213.811 536.177C214.018 537.859 215.19 538.772 216.695 538.624C217.6 538.536 218.326 538.043 218.725 537.371L219.669 537.968ZM215.837 533.152C214.68 533.265 213.939 534.027 213.806 535.263L218.014 534.852C217.872 533.825 217.077 533.031 215.837 533.152ZM220.735 538.061L221.502 537.269C222.049 537.834 222.669 538.125 223.379 538.056C224.16 537.98 224.559 537.462 224.499 536.849C224.345 535.275 220.889 536.175 220.646 533.695C220.539 532.594 221.384 531.597 222.735 531.465C223.739 531.367 224.649 531.757 225.203 532.392L224.449 533.169C224.021 532.676 223.459 532.393 222.846 532.453C222.093 532.527 221.733 533.012 221.786 533.555C221.94 535.13 225.416 534.284 225.65 536.68C225.764 537.992 224.8 538.916 223.49 539.044C222.375 539.153 221.454 538.793 220.735 538.061ZM230.573 534.526C230.372 532.477 231.61 530.598 233.811 530.383C234.856 530.281 235.718 530.605 236.414 531.254L235.998 526.99L237.182 526.875L238.203 537.325L237.019 537.441L236.937 536.605C236.379 537.377 235.597 537.861 234.552 537.963C232.35 538.178 230.773 536.574 230.573 534.526ZM231.827 534.403C231.972 535.894 233.091 536.98 234.582 536.835C235.557 536.739 236.375 536.181 236.81 535.309L236.541 532.55C235.916 531.767 235.021 531.39 234.059 531.484C232.568 531.63 231.681 532.912 231.827 534.403ZM243.472 528.595L242.315 528.708L243.538 526.254L244.876 526.123L243.472 528.595ZM246.829 535.315C246.26 536.257 245.269 536.916 243.959 537.044C241.591 537.275 239.957 535.677 239.757 533.628C239.549 531.496 240.753 529.705 242.926 529.493C244.835 529.306 246.206 530.523 246.375 532.25C246.402 532.529 246.386 532.798 246.363 532.997L240.971 533.524C241.177 535.206 242.35 536.118 243.855 535.971C244.76 535.883 245.486 535.39 245.884 534.718L246.829 535.315ZM242.996 530.499C241.84 530.612 241.098 531.373 240.966 532.61L245.174 532.199C245.031 531.172 244.236 530.377 242.996 530.499ZM248.796 536.29L248.11 529.268L249.294 529.152L249.369 529.918C249.838 529.253 250.493 528.753 251.468 528.658C252.485 528.559 253.366 528.937 253.885 529.786C254.368 528.966 255.049 528.308 256.261 528.19C257.766 528.043 258.965 528.938 259.152 530.847L259.58 535.236L258.396 535.352L257.971 531.005C257.857 529.834 257.137 529.23 256.133 529.328C255.242 529.415 254.664 529.978 254.284 530.845C254.313 530.996 254.342 531.148 254.358 531.316L254.787 535.705L253.603 535.82L253.178 531.473C253.064 530.303 252.357 529.696 251.34 529.796C250.379 529.89 249.838 530.547 249.505 531.312L249.98 536.174L248.796 536.29ZM263.895 535.012C262.516 535.147 261.507 534.471 261.39 533.273C261.287 532.214 262.022 531.383 263.488 530.986L265.819 530.365L265.771 529.877C265.676 528.902 264.925 528.412 263.921 528.51C263.113 528.589 262.495 529.03 262.122 529.671L261.163 529.075C261.695 528.179 262.633 527.567 263.86 527.447C265.643 527.273 266.804 528.215 266.955 529.761L267.415 534.471L266.231 534.587L266.144 533.695C265.681 534.429 264.801 534.923 263.895 535.012ZM262.585 533.114C262.643 533.713 263.173 534.098 263.995 534.017C264.929 533.926 265.651 533.405 266.038 532.608L265.903 531.229L263.861 531.78C262.916 532.041 262.526 532.515 262.585 533.114ZM269.791 534.239L269.105 527.216L270.29 527.101L270.375 527.978C270.831 527.315 271.433 526.848 272.324 526.761C272.547 526.739 272.759 526.747 272.932 526.786L273.045 527.943C272.83 527.907 272.618 527.9 272.34 527.927C271.42 528.017 270.867 528.549 270.505 529.302L270.976 534.123L269.791 534.239ZM278.059 532.587C278.923 532.503 279.592 532.015 279.964 531.36L280.967 531.979C280.398 532.921 279.436 533.578 278.154 533.703C275.827 533.931 274.166 532.334 273.966 530.286C273.765 528.238 275.086 526.351 277.413 526.123C278.681 525.999 279.768 526.47 280.507 527.27L279.643 528.072C279.151 527.501 278.4 527.152 277.522 527.238C276.017 527.385 275.06 528.674 275.206 530.165C275.353 531.67 276.54 532.736 278.059 532.587ZM282.705 532.977L281.684 522.527L282.868 522.411L283.28 526.633C283.79 525.95 284.471 525.434 285.516 525.332C287.091 525.178 288.365 526.122 288.56 528.115L288.975 532.365L287.79 532.48L287.379 528.272C287.257 527.018 286.489 526.362 285.389 526.469C284.357 526.57 283.789 527.231 283.414 527.999L283.889 532.862L282.705 532.977ZM297.488 530.365C296.919 531.307 295.928 531.967 294.619 532.095C292.25 532.326 290.617 530.727 290.416 528.679C290.208 526.547 291.412 524.756 293.585 524.543C295.494 524.357 296.865 525.573 297.034 527.301C297.061 527.58 297.045 527.849 297.022 528.048L291.63 528.574C291.837 530.256 293.009 531.169 294.514 531.022C295.419 530.933 296.145 530.44 296.543 529.768L297.488 530.365ZM293.656 525.549C292.499 525.662 291.758 526.424 291.625 527.661L295.833 527.25C295.691 526.223 294.896 525.428 293.656 525.549ZM298.554 530.458L299.321 529.666C299.868 530.231 300.488 530.522 301.198 530.453C301.978 530.377 302.378 529.859 302.318 529.246C302.164 527.672 298.707 528.572 298.465 526.092C298.358 524.991 299.203 523.994 300.554 523.862C301.557 523.764 302.468 524.154 303.022 524.789L302.268 525.566C301.84 525.073 301.278 524.79 300.665 524.85C299.912 524.924 299.552 525.409 299.605 525.953C299.759 527.527 303.235 526.681 303.469 529.078C303.583 530.389 302.619 531.313 301.309 531.441C300.194 531.55 299.273 531.19 298.554 530.458Z" fill="#161616"/>
<path d="M313.391 529.276C313.191 529.111 313.077 528.888 313.049 528.606C313.022 528.324 313.09 528.083 313.255 527.882L316.757 523.622L312.497 520.119C312.296 519.955 312.182 519.731 312.155 519.449C312.127 519.167 312.196 518.926 312.36 518.726C312.525 518.526 312.748 518.412 313.03 518.384C313.312 518.357 313.554 518.425 313.754 518.59L318.779 522.721C318.889 522.811 318.97 522.911 319.023 523.023C319.075 523.136 319.108 523.258 319.121 523.391C319.134 523.523 319.126 523.65 319.096 523.77C319.065 523.89 319.005 524.005 318.915 524.114L314.785 529.14C314.62 529.34 314.397 529.454 314.115 529.481C313.833 529.509 313.591 529.44 313.391 529.276Z" fill="#161616"/>
</g>
<g filter="url(#filter2_d_6053_2422)">
<rect x="39" y="351.004" width="288" height="96" rx="8" transform="rotate(-5.58 39 351.004)" fill="white" shape-rendering="crispEdges"/>
<ellipse cx="63.5786" cy="376.736" rx="5.5" ry="5" fill="#3B69D1"/>
<path d="M79.7933 382.185L78.7043 371.038L81.5229 370.763L84.7033 375.178L86.9689 370.231L89.7875 369.955L90.8766 381.102L88.6153 381.323L87.8343 373.329L85.7578 377.744L84.1654 377.9L81.2736 373.97L82.0546 381.964L79.7933 382.185ZM100.869 378.808C100.219 379.884 99.0375 380.626 97.5247 380.774C94.6742 381.053 92.8714 379.219 92.6427 376.878C92.4109 374.506 93.7164 372.401 96.3439 372.144C98.5733 371.926 100.186 373.296 100.391 375.398C100.435 375.844 100.412 376.264 100.375 376.541L94.7533 377.09C95.0907 378.568 96.0734 379.083 97.3314 378.96C98.2072 378.875 98.9342 378.418 99.3082 377.803L100.869 378.808ZM96.458 373.805C95.4229 373.906 94.7941 374.546 94.6739 375.619L98.3683 375.258C98.2571 374.449 97.5886 373.694 96.458 373.805ZM101.907 378.851L103.126 377.51C103.68 378.083 104.313 378.471 105.078 378.397C105.73 378.333 106.027 377.918 105.981 377.44C105.844 376.039 102.058 376.939 101.782 374.121C101.644 372.703 102.734 371.52 104.406 371.357C105.632 371.237 106.804 371.717 107.454 372.441L106.231 373.75C105.767 373.281 105.201 372.919 104.58 372.979C103.943 373.041 103.675 373.421 103.716 373.835C103.849 375.205 107.64 374.352 107.911 377.123C108.044 378.814 106.781 379.87 105.268 380.018C103.835 380.158 102.76 379.684 101.907 378.851ZM121.552 376.787C120.902 377.863 119.72 378.606 118.207 378.754C115.357 379.032 113.554 377.199 113.326 374.858C113.094 372.485 114.399 370.38 117.027 370.123C119.256 369.906 120.869 371.275 121.074 373.377C121.118 373.823 121.095 374.243 121.057 374.52L115.436 375.07C115.773 376.548 116.756 377.063 118.014 376.94C118.89 376.854 119.617 376.397 119.991 375.782L121.552 376.787ZM117.141 371.784C116.106 371.885 115.477 372.526 115.357 373.598L119.051 373.237C118.94 372.428 118.271 371.674 117.141 371.784ZM123.513 377.914L122.728 369.888L124.751 369.69L124.813 370.327C125.317 369.731 126.025 369.244 127.092 369.14C128.828 368.97 130.33 370.029 130.562 372.402L131.029 377.179L128.99 377.379L128.532 372.681C128.427 371.614 127.757 371.004 126.77 371.101C125.75 371.2 125.276 371.938 125.023 372.477L125.535 377.716L123.513 377.914ZM133.549 373.975L133.228 370.695L131.731 370.841L131.554 369.026L133.051 368.879L132.855 366.873L134.893 366.674L135.089 368.68L137.541 368.441L137.719 370.256L135.266 370.496L135.587 373.776C135.674 374.668 136.186 374.971 136.982 374.894C137.539 374.839 137.899 374.74 138.159 374.602L138.332 376.369C137.951 376.583 137.481 376.71 136.812 376.775C134.806 376.971 133.74 375.934 133.549 373.975ZM140.137 376.29L139.352 368.264L141.375 368.066L141.453 368.862C141.925 368.27 142.569 367.789 143.477 367.7C143.748 367.674 143.991 367.698 144.189 367.743L144.383 369.734C144.122 369.695 143.847 369.673 143.481 369.709C142.493 369.806 141.909 370.409 141.656 370.948L142.159 376.092L140.137 376.29ZM153.525 373.663C152.874 374.74 151.693 375.482 150.18 375.63C147.33 375.908 145.527 374.075 145.298 371.734C145.066 369.361 146.372 367.256 148.999 367C151.229 366.782 152.842 368.152 153.047 370.254C153.091 370.7 153.067 371.12 153.03 371.397L147.409 371.946C147.746 373.424 148.729 373.939 149.987 373.816C150.863 373.73 151.59 373.274 151.964 372.658L153.525 373.663ZM149.114 368.661C148.078 368.762 147.45 369.402 147.329 370.475L151.024 370.114C150.913 369.305 150.244 368.55 149.114 368.661ZM155.693 371.812L155.373 368.531L153.876 368.678L153.698 366.862L155.195 366.716L154.999 364.71L157.038 364.51L157.234 366.517L159.686 366.277L159.863 368.093L157.411 368.332L157.731 371.613C157.819 372.504 158.33 372.808 159.127 372.73C159.684 372.676 160.044 372.576 160.304 372.438L160.477 374.206C160.096 374.42 159.626 374.546 158.957 374.612C156.95 374.808 155.884 373.77 155.693 371.812ZM162.379 364.599C161.663 364.669 160.998 364.123 160.928 363.407C160.858 362.69 161.404 362.026 162.121 361.956C162.838 361.886 163.486 362.434 163.556 363.15C163.626 363.867 163.096 364.529 162.379 364.599ZM162.281 374.126L161.497 366.1L163.519 365.903L164.303 373.929L162.281 374.126ZM173.99 371.664C173.339 372.74 172.158 373.483 170.645 373.63C167.795 373.909 165.992 372.076 165.763 369.735C165.532 367.362 166.837 365.257 169.465 365C171.694 364.783 173.307 366.152 173.512 368.254C173.556 368.7 173.532 369.12 173.495 369.397L167.874 369.946C168.211 371.425 169.194 371.94 170.452 371.817C171.328 371.731 172.055 371.274 172.429 370.659L173.99 371.664ZM169.579 366.661C168.543 366.762 167.915 367.402 167.795 368.475L171.489 368.114C171.378 367.305 170.709 366.551 169.579 366.661ZM175.95 372.791L175.166 364.765L177.189 364.567L177.251 365.204C177.755 364.608 178.463 364.121 179.53 364.017C181.266 363.847 182.768 364.906 183 367.279L183.467 372.056L181.428 372.255L180.969 367.558C180.865 366.491 180.195 365.881 179.207 365.978C178.188 366.077 177.714 366.815 177.461 367.354L177.973 372.593L175.95 372.791ZM184.949 370.738L186.168 369.397C186.723 369.97 187.355 370.358 188.12 370.283C188.773 370.22 189.07 369.805 189.023 369.327C188.886 367.926 185.1 368.826 184.824 366.008C184.686 364.59 185.776 363.407 187.448 363.243C188.674 363.124 189.846 363.604 190.496 364.328L189.273 365.637C188.81 365.168 188.244 364.805 187.623 364.866C186.986 364.928 186.717 365.308 186.758 365.722C186.891 367.092 190.683 366.239 190.953 369.01C191.086 370.701 189.823 371.757 188.31 371.905C186.877 372.045 185.802 371.571 184.949 370.738ZM196.368 366.745C196.139 364.404 197.489 362.262 200.021 362.015C201.104 361.909 201.917 362.167 202.599 362.728L202.154 358.173L204.192 357.974L205.359 369.917L203.32 370.117L203.258 369.48C202.698 370.161 201.95 370.572 200.867 370.678C198.335 370.925 196.596 369.086 196.368 366.745ZM198.486 366.538C198.622 367.939 199.598 368.873 200.967 368.739C201.875 368.65 202.586 368.195 203.056 367.41L202.801 364.798C202.188 364.118 201.402 363.809 200.494 363.898C199.125 364.032 198.349 365.136 198.486 366.538ZM208.222 363.014L206.343 363.198L207.328 358.472L209.621 358.248L208.222 363.014ZM218.668 367.299C218.017 368.375 216.836 369.118 215.323 369.265C212.473 369.544 210.67 367.711 210.441 365.37C210.209 362.997 211.515 360.892 214.142 360.635C216.372 360.418 217.985 361.787 218.19 363.889C218.234 364.335 218.21 364.755 218.173 365.032L212.552 365.582C212.889 367.06 213.872 367.575 215.13 367.452C216.006 367.366 216.733 366.909 217.107 366.294L218.668 367.299ZM214.256 362.296C213.221 362.397 212.593 363.037 212.472 364.11L216.167 363.749C216.056 362.94 215.387 362.186 214.256 362.296ZM220.628 368.426L219.844 360.4L221.867 360.202L221.926 360.807C222.416 360.229 223.062 359.764 224.049 359.668C225.068 359.568 226.003 359.927 226.613 360.735C227.118 359.979 227.823 359.299 229.176 359.167C230.833 359.005 232.25 360.024 232.471 362.285L232.954 367.222L230.915 367.421L230.441 362.564C230.346 361.592 229.761 361.039 228.854 361.127C227.978 361.213 227.559 361.865 227.294 362.437C227.32 362.547 227.331 362.659 227.344 362.786L227.826 367.722L225.788 367.922L225.313 363.065C225.218 362.093 224.634 361.54 223.726 361.628C222.802 361.718 222.392 362.45 222.139 362.989L222.651 368.228L220.628 368.426ZM243.469 362.143C243.697 364.484 242.363 366.624 239.815 366.873C238.717 366.98 237.902 366.706 237.22 366.146L237.284 366.798L235.262 366.996L234.095 355.053L236.117 354.855L236.564 359.426C237.124 358.744 237.87 358.317 238.969 358.21C241.517 357.961 243.24 359.802 243.469 362.143ZM238.869 360.149C237.93 360.241 237.19 360.731 236.768 361.512L237.017 364.059C237.631 364.755 238.434 365.078 239.342 364.99C240.711 364.856 241.504 363.75 241.367 362.348C241.23 360.947 240.239 360.015 238.869 360.149ZM247.997 365.993C246.388 366.15 245.199 365.334 245.055 363.853C244.936 362.643 245.787 361.643 247.479 361.189L249.891 360.535L249.871 360.328C249.788 359.484 249.098 359.005 248.175 359.095C247.394 359.171 246.825 359.597 246.453 360.228L244.861 359.242C245.481 358.185 246.601 357.464 248.066 357.321C250.391 357.094 251.72 358.363 251.893 360.13L252.4 365.322L250.378 365.519L250.302 364.739C249.853 365.41 248.936 365.901 247.997 365.993ZM247.052 363.561C247.105 364.103 247.569 364.411 248.253 364.344C249.177 364.254 249.804 363.759 250.14 363.083L250.029 361.952L248.15 362.457C247.32 362.683 247.003 363.068 247.052 363.561ZM259.664 361.107L259.219 356.553L261.257 356.354L261.693 360.813C261.928 363.217 260.671 364.835 258.314 365.065C255.957 365.296 254.427 363.95 254.192 361.545L253.757 357.087L255.795 356.888L256.24 361.442C256.354 362.604 257.029 363.262 258.143 363.153C259.242 363.046 259.777 362.27 259.664 361.107ZM267.978 362.192C268.774 362.114 269.375 361.686 269.703 361.091L271.398 362.147C270.746 363.208 269.63 363.96 268.165 364.103C265.394 364.374 263.543 362.545 263.315 360.204C263.086 357.863 264.547 355.711 267.318 355.44C268.783 355.297 270.024 355.819 270.869 356.733L269.411 358.097C268.974 357.577 268.301 357.273 267.473 357.354C266.151 357.483 265.28 358.597 265.417 359.999C265.555 361.416 266.624 362.324 267.978 362.192ZM273.035 363.306L271.868 351.362L273.891 351.165L274.336 355.719C274.84 355.123 275.548 354.636 276.615 354.532C278.351 354.362 279.853 355.421 280.085 357.794L280.551 362.571L278.513 362.77L278.054 358.073C277.95 357.006 277.295 356.395 276.292 356.493C275.273 356.592 274.798 357.33 274.546 357.869L275.057 363.108L273.035 363.306ZM290.109 360.319C289.459 361.396 288.277 362.138 286.764 362.286C283.914 362.564 282.111 360.731 281.882 358.39C281.651 356.017 282.956 353.912 285.584 353.656C287.813 353.438 289.426 354.808 289.631 356.91C289.675 357.355 289.651 357.776 289.614 358.053L283.993 358.602C284.33 360.08 285.313 360.595 286.571 360.472C287.447 360.386 288.174 359.93 288.548 359.314L290.109 360.319ZM285.698 355.317C284.663 355.418 284.034 356.058 283.914 357.131L287.608 356.77C287.497 355.961 286.828 355.206 285.698 355.317Z" fill="#161616"/>
<path d="M134.33 416.043L133.377 406.289L136.233 406.01C138.184 405.819 139.501 406.774 139.664 408.446C139.828 410.118 138.719 411.295 136.768 411.486L135.221 411.637L135.639 415.915L134.33 416.043ZM136.37 407.122L134.795 407.276L135.113 410.522L136.687 410.369C137.802 410.26 138.412 409.595 138.31 408.55C138.213 407.561 137.485 407.013 136.37 407.122ZM143.694 415.325C142.314 415.459 141.306 414.784 141.189 413.586C141.085 412.527 141.82 411.696 143.286 411.299L145.617 410.678L145.569 410.19C145.474 409.215 144.723 408.725 143.72 408.823C142.912 408.902 142.293 409.343 141.92 409.984L140.962 409.388C141.493 408.492 142.432 407.88 143.658 407.76C145.442 407.586 146.603 408.528 146.754 410.074L147.214 414.784L146.03 414.9L145.942 414.008C145.48 414.742 144.599 415.236 143.694 415.325ZM142.383 413.427C142.442 414.026 142.971 414.411 143.794 414.33C144.727 414.239 145.45 413.718 145.836 412.921L145.701 411.542L143.659 412.093C142.714 412.354 142.325 412.828 142.383 413.427ZM149.59 414.552L148.904 407.529L150.088 407.413L150.174 408.291C150.63 407.628 151.231 407.161 152.123 407.074C152.346 407.052 152.557 407.06 152.73 407.099L152.843 408.256C152.629 408.22 152.417 408.213 152.138 408.24C151.219 408.33 150.666 408.862 150.303 409.615L150.774 414.436L149.59 414.552ZM157.857 412.9C158.721 412.816 159.391 412.328 159.763 411.673L160.766 412.292C160.197 413.234 159.234 413.891 157.952 414.016C155.625 414.243 153.964 412.647 153.764 410.599C153.564 408.551 154.885 406.664 157.212 406.436C158.479 406.312 159.566 406.783 160.306 407.583L159.442 408.385C158.95 407.814 158.198 407.465 157.32 407.551C155.816 407.698 154.858 408.987 155.004 410.478C155.151 411.983 156.338 413.048 157.857 412.9ZM164.722 405.702C166.98 405.482 168.696 407.072 168.896 409.121C169.097 411.169 167.72 413.062 165.463 413.282C163.192 413.504 161.489 411.912 161.289 409.864C161.089 407.816 162.451 405.924 164.722 405.702ZM165.368 412.166C166.831 412.023 167.784 410.692 167.642 409.243C167.499 407.78 166.308 406.673 164.845 406.816C163.34 406.963 162.386 408.28 162.529 409.743C162.672 411.206 163.863 412.313 165.368 412.166ZM175.74 408.959L175.348 404.946L176.532 404.83L176.92 408.801C177.126 410.905 176.034 412.25 174.125 412.436C172.23 412.621 170.898 411.513 170.692 409.409L170.304 405.438L171.489 405.323L171.881 409.336C172.015 410.715 172.831 411.437 174.03 411.32C175.2 411.206 175.875 410.338 175.74 408.959ZM179.553 411.624L178.867 404.602L180.051 404.486L180.137 405.364C180.592 404.701 181.194 404.234 182.086 404.147C182.309 404.125 182.52 404.132 182.693 404.172L182.806 405.328C182.591 405.293 182.38 405.286 182.101 405.313C181.181 405.403 180.629 405.935 180.266 406.688L180.737 411.509L179.553 411.624ZM184.826 402.177C184.366 402.222 183.953 401.882 183.908 401.423C183.864 400.977 184.204 400.564 184.664 400.519C185.123 400.474 185.522 400.815 185.566 401.261C185.611 401.72 185.285 402.132 184.826 402.177ZM185.091 411.083L184.405 404.061L185.589 403.945L186.275 410.968L185.091 411.083ZM188.778 410.723L188.092 403.701L189.277 403.585L189.362 404.463C189.818 403.799 190.419 403.333 191.311 403.245C191.534 403.224 191.746 403.231 191.919 403.27L192.032 404.427C191.817 404.392 191.605 404.384 191.327 404.411C190.407 404.501 189.854 405.034 189.492 405.786L189.963 410.607L188.778 410.723ZM198.072 409.815L197.051 399.365L198.235 399.249L199.256 409.699L198.072 409.815ZM207.889 407.689C207.32 408.63 206.329 409.29 205.019 409.418C202.651 409.649 201.017 408.05 200.817 406.002C200.609 403.87 201.813 402.079 203.986 401.866C205.895 401.68 207.266 402.896 207.435 404.624C207.462 404.903 207.446 405.172 207.423 405.371L202.031 405.898C202.237 407.58 203.41 408.492 204.914 408.345C205.82 408.256 206.546 407.763 206.944 407.092L207.889 407.689ZM204.056 402.872C202.9 402.985 202.158 403.747 202.026 404.984L206.234 404.573C206.091 403.546 205.296 402.751 204.056 402.872ZM208.955 407.781L209.722 406.989C210.269 407.554 210.888 407.846 211.599 407.776C212.379 407.7 212.779 407.183 212.719 406.57C212.565 404.995 209.108 405.895 208.866 403.415C208.758 402.314 209.603 401.318 210.955 401.186C211.958 401.088 212.868 401.477 213.423 402.112L212.669 402.889C212.241 402.396 211.679 402.114 211.066 402.173C210.313 402.247 209.953 402.732 210.006 403.276C210.16 404.85 213.636 404.004 213.87 406.401C213.984 407.712 213.019 408.636 211.71 408.764C210.595 408.873 209.673 408.513 208.955 407.781ZM218.792 404.246C218.592 402.198 219.829 400.319 222.031 400.103C223.076 400.001 223.937 400.325 224.634 400.974L224.217 396.711L225.402 396.595L226.423 407.045L225.238 407.161L225.157 406.325C224.599 407.097 223.816 407.581 222.771 407.683C220.57 407.898 218.992 406.294 218.792 404.246ZM220.046 404.123C220.192 405.614 221.311 406.701 222.802 406.555C223.777 406.46 224.595 405.902 225.03 405.029L224.76 402.27C224.135 401.487 223.24 401.111 222.279 401.205C220.788 401.35 219.901 402.633 220.046 404.123ZM231.691 398.316L230.535 398.429L231.758 395.974L233.096 395.843L231.691 398.316ZM235.049 405.035C234.479 405.977 233.489 406.636 232.179 406.764C229.81 406.996 228.177 405.397 227.977 403.349C227.769 401.217 228.972 399.425 231.146 399.213C233.055 399.026 234.426 400.243 234.594 401.971C234.622 402.249 234.606 402.518 234.583 402.717L229.191 403.244C229.397 404.926 230.569 405.838 232.074 405.691C232.98 405.603 233.705 405.11 234.104 404.438L235.049 405.035ZM231.216 400.219C230.06 400.332 229.318 401.094 229.186 402.33L233.394 401.919C233.251 400.892 232.456 400.098 231.216 400.219ZM237.015 406.01L236.329 398.988L237.514 398.872L237.589 399.638C238.058 398.974 238.713 398.474 239.688 398.378C240.705 398.279 241.586 398.657 242.105 399.507C242.588 398.686 243.269 398.029 244.481 397.91C245.986 397.763 247.185 398.659 247.371 400.568L247.8 404.957L246.616 405.072L246.191 400.725C246.077 399.555 245.356 398.95 244.353 399.048C243.461 399.135 242.883 399.698 242.504 400.565C242.533 400.717 242.562 400.869 242.578 401.036L243.007 405.425L241.823 405.541L241.398 401.193C241.283 400.023 240.577 399.417 239.56 399.516C238.599 399.61 238.058 400.268 237.725 401.032L238.2 405.895L237.015 406.01ZM252.115 404.732C250.736 404.867 249.727 404.192 249.61 402.993C249.507 401.934 250.241 401.103 251.708 400.707L254.038 400.085L253.991 399.597C253.895 398.622 253.144 398.133 252.141 398.231C251.333 398.31 250.715 398.75 250.341 399.391L249.383 398.796C249.914 397.9 250.853 397.288 252.079 397.168C253.863 396.994 255.024 397.935 255.175 399.482L255.635 404.191L254.451 404.307L254.364 403.415C253.901 404.15 253.021 404.644 252.115 404.732ZM250.804 402.835C250.863 403.434 251.393 403.818 252.215 403.738C253.148 403.647 253.871 403.126 254.257 402.328L254.123 400.949L252.081 401.5C251.136 401.761 250.746 402.235 250.804 402.835ZM258.011 403.959L257.325 396.937L258.509 396.821L258.595 397.699C259.051 397.035 259.652 396.569 260.544 396.481C260.767 396.46 260.979 396.467 261.151 396.506L261.264 397.663C261.05 397.628 260.838 397.62 260.56 397.647C259.64 397.737 259.087 398.27 258.725 399.022L259.196 403.843L258.011 403.959ZM266.278 402.307C267.142 402.223 267.812 401.736 268.184 401.08L269.187 401.7C268.618 402.642 267.655 403.298 266.373 403.424C264.046 403.651 262.385 402.055 262.185 400.007C261.985 397.958 263.306 396.071 265.633 395.844C266.901 395.72 267.988 396.19 268.727 396.99L267.863 397.792C267.371 397.221 266.62 396.873 265.742 396.958C264.237 397.105 263.28 398.394 263.425 399.885C263.572 401.39 264.76 402.456 266.278 402.307ZM270.924 402.698L269.903 392.247L271.088 392.132L271.5 396.354C272.01 395.671 272.691 395.154 273.736 395.052C275.311 394.898 276.585 395.843 276.779 397.835L277.194 402.085L276.01 402.201L275.599 397.993C275.476 396.739 274.709 396.082 273.608 396.19C272.577 396.29 272.009 396.951 271.634 397.719L272.109 402.582L270.924 402.698ZM285.708 400.086C285.139 401.028 284.148 401.687 282.838 401.815C280.47 402.046 278.836 400.448 278.636 398.399C278.428 396.267 279.631 394.476 281.805 394.264C283.714 394.077 285.085 395.294 285.254 397.021C285.281 397.3 285.265 397.569 285.242 397.768L279.85 398.295C280.056 399.977 281.229 400.889 282.733 400.742C283.639 400.654 284.365 400.161 284.763 399.489L285.708 400.086ZM281.875 395.27C280.719 395.383 279.977 396.144 279.845 397.381L284.053 396.97C283.91 395.943 283.115 395.148 281.875 395.27ZM286.774 400.178L287.54 399.386C288.088 399.952 288.707 400.243 289.418 400.173C290.198 400.097 290.598 399.58 290.538 398.967C290.384 397.392 286.927 398.293 286.685 395.812C286.577 394.712 287.422 393.715 288.774 393.583C289.777 393.485 290.687 393.874 291.242 394.509L290.488 395.286C290.06 394.793 289.498 394.511 288.885 394.571C288.132 394.644 287.772 395.13 287.825 395.673C287.979 397.247 291.455 396.401 291.689 398.798C291.803 400.109 290.838 401.033 289.528 401.161C288.414 401.27 287.492 400.91 286.774 400.178Z" fill="#161616"/>
<path d="M301.611 398.996C301.411 398.831 301.297 398.608 301.269 398.326C301.242 398.044 301.31 397.803 301.475 397.603L304.977 393.342L300.716 389.84C300.516 389.675 300.402 389.452 300.375 389.17C300.347 388.888 300.416 388.647 300.58 388.446C300.745 388.246 300.968 388.132 301.25 388.105C301.532 388.077 301.773 388.146 301.974 388.31L306.999 392.441C307.108 392.531 307.19 392.632 307.243 392.744C307.295 392.856 307.328 392.978 307.341 393.111C307.354 393.244 307.345 393.37 307.316 393.49C307.285 393.61 307.225 393.725 307.135 393.834L303.004 398.86C302.84 399.06 302.616 399.174 302.334 399.202C302.052 399.229 301.811 399.161 301.611 398.996Z" fill="#161616"/>
</g>
<path d="M31.2762 171.078C32.6776 170.941 33.7413 170.146 34.3439 169.074L35.9194 170.062C35.0182 171.533 33.4666 172.6 31.4443 172.798C27.9409 173.14 25.3038 170.665 24.9926 167.48C24.6815 164.295 26.7897 161.356 30.293 161.014C32.3154 160.817 34.0442 161.564 35.2131 162.832L33.8585 164.106C33.0599 163.171 31.8623 162.597 30.461 162.734C28.1361 162.961 26.6445 164.972 26.8717 167.297C27.1004 169.637 28.9513 171.305 31.2762 171.078ZM38.0535 171.831L36.8867 159.888L38.5269 159.727L38.9859 164.425C39.5287 163.729 40.2798 163.189 41.4264 163.077C43.2099 162.903 44.6642 163.967 44.8913 166.292L45.3627 171.117L43.7066 171.279L43.2414 166.517C43.117 165.243 42.3416 164.547 41.1951 164.659C40.0963 164.767 39.5263 165.514 39.1648 166.256L39.6937 171.671L38.0535 171.831ZM50.8239 162.159C53.4354 161.904 55.3785 163.692 55.6103 166.064C55.8421 168.437 54.2818 170.567 51.6702 170.822C49.0746 171.076 47.1156 169.29 46.8838 166.917C46.652 164.544 48.2282 162.413 50.8239 162.159ZM51.5352 169.276C53.048 169.128 54.0398 167.761 53.8905 166.232C53.738 164.672 52.5035 163.555 50.9907 163.702C49.4461 163.853 48.4527 165.204 48.6036 166.749C48.7545 168.294 49.9906 169.427 51.5352 169.276ZM57.9218 159.987C57.3167 160.046 56.7573 159.586 56.6982 158.981C56.6391 158.376 57.0988 157.817 57.704 157.757C58.3091 157.698 58.8684 158.158 58.9276 158.763C58.9867 159.368 58.5269 159.928 57.9218 159.987ZM58.0521 169.877L57.268 161.851L58.9082 161.691L59.6923 169.717L58.0521 169.877ZM61.3753 168.411L62.4094 167.313C63.0003 167.931 63.6792 168.298 64.4754 168.221C65.2557 168.144 65.639 167.625 65.5799 167.02C65.4212 165.395 61.5455 166.369 61.2686 163.534C61.1394 162.212 62.1514 161.053 63.7598 160.895C64.9382 160.78 66.0293 161.252 66.6772 161.961L65.6574 163.041C65.1715 162.51 64.5752 162.166 63.9064 162.232C63.142 162.306 62.8034 162.789 62.8563 163.331C63.0134 164.939 66.8938 164.013 67.163 166.768C67.3011 168.346 66.1189 169.41 64.6221 169.557C63.2685 169.689 62.2124 169.245 61.3753 168.411ZM69.3051 158.875C68.7 158.934 68.1406 158.474 68.0815 157.869C68.0224 157.264 68.4822 156.704 69.0873 156.645C69.6924 156.586 70.2517 157.046 70.3109 157.651C70.37 158.256 69.9102 158.816 69.3051 158.875ZM69.4354 168.765L68.6513 160.739L70.2915 160.579L71.0756 168.605L69.4354 168.765ZM72.7586 167.299L73.7927 166.201C74.3836 166.819 75.0625 167.186 75.8587 167.108C76.639 167.032 77.0223 166.512 76.9632 165.907C76.8045 164.283 72.9288 165.257 72.6519 162.422C72.5227 161.1 73.5348 159.94 75.1431 159.783C76.3215 159.668 77.4126 160.14 78.0605 160.849L77.0407 161.929C76.5548 161.398 75.9585 161.054 75.2897 161.119C74.5253 161.194 74.1867 161.677 74.2396 162.219C74.3968 163.827 78.2771 162.901 78.5463 165.656C78.6844 167.234 77.5022 168.298 76.0054 168.445C74.6518 168.577 73.5957 168.133 72.7586 167.299ZM79.8187 166.609L80.8529 165.511C81.4437 166.129 82.1227 166.496 82.9189 166.419C83.6992 166.342 84.0824 165.823 84.0233 165.218C83.8646 163.593 79.9889 164.567 79.712 161.732C79.5829 160.411 80.5949 159.251 82.2032 159.094C83.3816 158.978 84.4727 159.451 85.1206 160.159L84.1009 161.239C83.6149 160.708 83.0187 160.364 82.3498 160.43C81.5855 160.504 81.2469 160.988 81.2998 161.529C81.4569 163.137 85.3373 162.212 85.6064 164.966C85.7445 166.545 84.5624 167.609 83.0655 167.755C81.7119 167.887 80.6558 167.444 79.8187 166.609ZM94.9345 164.955C94.2841 166.032 93.1186 166.773 91.6218 166.919C88.8509 167.19 87.0163 165.359 86.7876 163.018C86.5527 160.614 87.8931 158.538 90.441 158.289C92.6545 158.072 94.2354 159.445 94.4346 161.484C94.4704 161.85 94.4584 162.221 94.418 162.466L88.4942 163.045C88.7768 164.785 89.9324 165.589 91.4771 165.438C92.4484 165.343 93.2186 164.834 93.6469 164.117L94.9345 164.955ZM90.543 159.661C89.3486 159.778 88.5875 160.544 88.454 161.811L92.7695 161.389C92.6396 160.389 91.8328 159.535 90.543 159.661ZM96.451 166.125L96.3063 164.645L100.27 159.145L95.923 159.57L95.7784 158.089L102.148 157.467L102.293 158.947L98.3287 164.447L102.899 164L103.044 165.481L96.451 166.125ZM114.605 160.879L114.157 156.293L115.813 156.131L116.253 160.638C116.488 163.043 115.243 164.611 112.997 164.83C110.736 165.051 109.211 163.754 108.976 161.349L108.535 156.842L110.191 156.681L110.64 161.267C110.775 162.652 111.588 163.409 112.846 163.286C114.072 163.166 114.74 162.265 114.605 160.879ZM119.09 163.914L118.305 155.888L119.946 155.728L120.022 156.508C120.565 155.812 121.316 155.272 122.462 155.16C124.23 154.988 125.7 156.05 125.927 158.375L126.399 163.2L124.743 163.361L124.277 158.6C124.153 157.326 123.378 156.63 122.231 156.742C121.132 156.85 120.546 157.598 120.201 158.339L120.73 163.753L119.09 163.914ZM136.067 160.937C135.416 162.013 134.251 162.754 132.754 162.9C129.983 163.171 128.149 161.341 127.92 159C127.685 156.595 129.025 154.519 131.573 154.27C133.787 154.054 135.368 155.427 135.567 157.465C135.603 157.831 135.591 158.202 135.55 158.447L129.627 159.026C129.909 160.767 131.065 161.57 132.609 161.419C133.581 161.324 134.351 160.815 134.779 160.098L136.067 160.937ZM131.675 155.643C130.481 155.759 129.72 156.525 129.586 157.792L133.902 157.37C133.772 156.37 132.965 155.517 131.675 155.643ZM142.684 158.795L142.317 155.037L140.804 155.185L140.659 153.704L142.172 153.556L141.976 151.55L143.632 151.388L143.828 153.394L146.487 153.135L146.632 154.616L143.973 154.875L144.34 158.634C144.446 159.716 145.053 160.011 145.945 159.924C146.486 159.871 146.846 159.771 147.122 159.632L147.264 161.081C146.897 161.277 146.459 161.401 145.838 161.461C143.959 161.645 142.875 160.754 142.684 158.795ZM149.227 160.969L148.061 149.026L149.701 148.866L150.16 153.564C150.703 152.867 151.454 152.328 152.6 152.216C154.384 152.042 155.838 153.105 156.065 155.43L156.537 160.255L154.88 160.417L154.415 155.656C154.291 154.382 153.515 153.686 152.369 153.798C151.27 153.905 150.7 154.652 150.339 155.395L150.868 160.809L149.227 160.969ZM162.509 150.283L160.917 150.439L162.315 147.634L164.13 147.456L162.509 150.283ZM166.205 157.992C165.554 159.069 164.389 159.81 162.892 159.956C160.121 160.227 158.286 158.396 158.058 156.055C157.823 153.651 159.163 151.575 161.711 151.326C163.925 151.11 165.505 152.482 165.705 154.521C165.74 154.887 165.728 155.258 165.688 155.503L159.764 156.082C160.047 157.822 161.202 158.626 162.747 158.475C163.718 158.38 164.489 157.871 164.917 157.154L166.205 157.992ZM161.813 152.698C160.619 152.815 159.858 153.581 159.724 154.848L164.04 154.426C163.91 153.426 163.103 152.572 161.813 152.698ZM168.324 159.104L167.54 151.078L169.18 150.918L169.253 151.666C169.766 150.989 170.471 150.47 171.538 150.366C172.636 150.258 173.608 150.662 174.211 151.567C174.754 150.711 175.487 149.98 176.872 149.845C178.544 149.681 179.946 150.702 180.162 152.915L180.649 157.899L178.993 158.061L178.512 153.141C178.397 151.962 177.676 151.325 176.641 151.427C175.685 151.52 175.123 152.186 174.768 152.992C174.798 153.134 174.812 153.277 174.828 153.436L175.315 158.421L173.659 158.582L173.178 153.662C173.063 152.483 172.357 151.845 171.306 151.948C170.287 152.047 169.75 152.807 169.435 153.529L169.964 158.943L168.324 159.104ZM185.427 157.674C183.835 157.829 182.664 157.027 182.525 155.61C182.407 154.4 183.261 153.432 184.937 152.979L187.49 152.296L187.45 151.882C187.353 150.894 186.562 150.361 185.527 150.462C184.651 150.548 184.005 151.013 183.607 151.711L182.289 150.891C182.912 149.865 184 149.148 185.433 149.008C187.599 148.797 188.917 149.954 189.09 151.721L189.608 157.024L187.968 157.184L187.879 156.277C187.374 157.033 186.415 157.577 185.427 157.674ZM184.175 155.385C184.236 156.006 184.771 156.387 185.599 156.307C186.603 156.209 187.336 155.655 187.739 154.844L187.604 153.458L185.474 154.036C184.488 154.309 184.116 154.78 184.175 155.385ZM192.385 153.94L192.017 150.181L190.505 150.329L190.36 148.848L191.873 148.701L191.677 146.694L193.333 146.532L193.529 148.539L196.188 148.279L196.333 149.76L193.674 150.02L194.041 153.778C194.146 154.861 194.754 155.155 195.646 155.068C196.187 155.015 196.547 154.915 196.823 154.776L196.964 156.225C196.598 156.422 196.16 156.545 195.539 156.606C193.66 156.789 192.576 155.898 192.385 153.94ZM198.798 146.223C198.193 146.283 197.633 145.823 197.574 145.218C197.515 144.613 197.975 144.053 198.58 143.994C199.185 143.935 199.745 144.395 199.804 145C199.863 145.605 199.403 146.164 198.798 146.223ZM198.928 156.114L198.144 148.088L199.784 147.928L200.568 155.953L198.928 156.114ZM202.222 151.741C201.994 149.4 203.376 147.255 205.892 147.009C207.054 146.896 207.955 147.226 208.695 147.893L208.614 147.065L210.286 146.902L211.453 158.845L209.781 159.008L209.317 154.263C208.72 155.061 207.901 155.559 206.738 155.672C204.222 155.918 202.451 154.081 202.222 151.741ZM203.942 151.573C204.096 153.149 205.25 154.258 206.794 154.107C207.845 154.005 208.689 153.424 209.148 152.527L208.864 149.629C208.19 148.81 207.269 148.434 206.25 148.534C204.705 148.685 203.788 149.996 203.942 151.573ZM218.843 150.696L218.395 146.109L220.051 145.948L220.491 150.454C220.726 152.859 219.481 154.427 217.235 154.647C214.974 154.868 213.449 153.57 213.214 151.165L212.773 146.659L214.43 146.497L214.878 151.083C215.013 152.468 215.826 153.225 217.084 153.102C218.311 152.982 218.978 152.081 218.843 150.696ZM230.446 151.716C229.795 152.793 228.63 153.533 227.133 153.68C224.362 153.95 222.527 152.12 222.299 149.779C222.064 147.375 223.404 145.298 225.952 145.05C228.166 144.833 229.747 146.206 229.946 148.244C229.981 148.611 229.969 148.982 229.929 149.227L224.005 149.805C224.288 151.546 225.443 152.35 226.988 152.199C227.96 152.104 228.73 151.594 229.158 150.877L230.446 151.716ZM226.054 146.422C224.86 146.539 224.099 147.304 223.965 148.571L228.281 148.15C228.151 147.15 227.344 146.296 226.054 146.422ZM237.24 156.325L236.073 144.382L237.713 144.222L237.794 145.05C238.407 144.251 239.227 143.753 240.389 143.639C242.905 143.393 244.676 145.23 244.905 147.571C245.133 149.911 243.751 152.056 241.235 152.302C240.073 152.415 239.173 152.085 238.416 151.42L238.88 156.165L237.24 156.325ZM240.333 145.204C239.282 145.307 238.454 145.886 237.967 146.818L238.244 149.652C238.92 150.486 239.842 150.879 240.878 150.777C242.422 150.626 243.339 149.315 243.185 147.739C243.031 146.162 241.878 145.053 240.333 145.204ZM249.404 151.423C247.812 151.579 246.64 150.777 246.502 149.36C246.383 148.15 247.237 147.182 248.913 146.729L251.467 146.045L251.426 145.631C251.33 144.644 250.538 144.11 249.503 144.212C248.627 144.297 247.982 144.762 247.584 145.46L246.266 144.64C246.889 143.615 247.976 142.898 249.41 142.758C251.575 142.546 252.894 143.703 253.067 145.471L253.585 150.774L251.945 150.934L251.856 150.026C251.351 150.783 250.391 151.327 249.404 151.423ZM248.152 149.134C248.212 149.755 248.748 150.137 249.576 150.056C250.579 149.958 251.313 149.404 251.716 148.593L251.58 147.208L249.451 147.786C248.464 148.059 248.092 148.529 248.152 149.134ZM256.156 150.523L255.372 142.497L257.012 142.337L257.101 143.244C257.597 142.569 258.254 142.054 259.242 141.958C259.496 141.933 259.74 141.957 259.953 142.001L260.11 143.609C259.849 143.571 259.59 143.548 259.255 143.58C258.236 143.68 257.62 144.287 257.273 145.012L257.796 150.362L256.156 150.523ZM262.547 149.898L261.763 141.872L263.403 141.712L263.476 142.461C263.989 141.784 264.694 141.265 265.761 141.16C266.86 141.053 267.831 141.456 268.434 142.362C268.978 141.505 269.71 140.774 271.095 140.639C272.767 140.476 274.169 141.496 274.386 143.71L274.873 148.694L273.216 148.856L272.736 143.935C272.621 142.757 271.899 142.12 270.864 142.221C269.909 142.314 269.347 142.98 268.991 143.787C269.021 143.928 269.035 144.072 269.051 144.231L269.538 149.215L267.882 149.377L267.401 144.456C267.286 143.278 266.581 142.64 265.53 142.742C264.51 142.842 263.974 143.602 263.658 144.324L264.187 149.738L262.547 149.898ZM277.284 138.556C276.678 138.615 276.119 138.155 276.06 137.55C276.001 136.945 276.461 136.385 277.066 136.326C277.671 136.267 278.23 136.727 278.289 137.332C278.349 137.937 277.889 138.496 277.284 138.556ZM277.414 148.446L276.63 140.42L278.27 140.26L279.054 148.285L277.414 148.446ZM286.029 147.604L284.862 135.661L286.503 135.501L287.669 147.444L286.029 147.604ZM297.47 145.168C296.82 146.244 295.654 146.985 294.157 147.131C291.387 147.402 289.552 145.572 289.323 143.231C289.088 140.826 290.429 138.75 292.977 138.501C295.19 138.285 296.771 139.658 296.97 141.696C297.006 142.062 296.994 142.433 296.954 142.678L291.03 143.257C291.313 144.998 292.468 145.801 294.013 145.65C294.984 145.556 295.754 145.046 296.183 144.329L297.47 145.168ZM293.079 139.874C291.884 139.991 291.123 140.756 290.99 142.023L295.305 141.602C295.175 140.601 294.369 139.748 293.079 139.874ZM298.59 145.235L299.624 144.138C300.215 144.755 300.894 145.123 301.69 145.045C302.47 144.969 302.853 144.449 302.794 143.844C302.636 142.22 298.76 143.193 298.483 140.359C298.354 139.037 299.366 137.877 300.974 137.72C302.153 137.605 303.244 138.077 303.892 138.785L302.872 139.866C302.386 139.334 301.79 138.991 301.121 139.056C300.356 139.131 300.018 139.614 300.071 140.155C300.228 141.764 304.108 140.838 304.377 143.593C304.515 145.171 303.333 146.235 301.836 146.381C300.483 146.513 299.427 146.07 298.59 145.235ZM27.5374 195.831L28.5715 194.733C29.1624 195.351 29.8414 195.719 30.6376 195.641C31.4178 195.565 31.8011 195.045 31.742 194.44C31.5833 192.815 27.7076 193.789 27.4307 190.954C27.3016 189.633 28.3136 188.473 29.9219 188.316C31.1003 188.201 32.1914 188.673 32.8393 189.381L31.8195 190.461C31.3336 189.93 30.7373 189.586 30.0685 189.652C29.3042 189.726 28.9655 190.21 29.0184 190.751C29.1756 192.359 33.0559 191.434 33.3251 194.189C33.4632 195.767 32.281 196.831 30.7842 196.977C29.4306 197.109 28.3745 196.666 27.5374 195.831ZM35.4672 186.295C34.8621 186.354 34.3027 185.894 34.2436 185.289C34.1845 184.684 34.6443 184.125 35.2494 184.065C35.8545 184.006 36.4139 184.466 36.473 185.071C36.5321 185.676 36.0723 186.236 35.4672 186.295ZM35.5975 196.185L34.8134 188.159L36.4536 187.999L37.2377 196.025L35.5975 196.185ZM40.8443 195.672L38.9334 195.859L41.4271 191.436L38.3403 187.815L40.2353 187.63L42.3994 190.199L44.0253 187.259L45.9203 187.074L43.5768 191.226L46.8795 195.083L45.0005 195.266L42.6188 192.445L40.8443 195.672ZM53.0645 191.665L52.6974 187.907L51.1846 188.055L51.0399 186.574L52.5527 186.426L52.3566 184.42L54.0128 184.258L54.2088 186.264L56.8681 186.005L57.0128 187.486L54.3535 187.745L54.7206 191.503C54.8264 192.586 55.4339 192.881 56.3257 192.793C56.8671 192.741 57.2271 192.641 57.5029 192.502L57.6445 193.951C57.2778 194.147 56.8397 194.27 56.2187 194.331C54.3396 194.515 53.2559 193.624 53.0645 191.665ZM59.6082 193.839L58.4413 181.896L60.0815 181.736L60.5405 186.434C61.0834 185.737 61.8345 185.198 62.981 185.086C64.7645 184.912 66.2188 185.975 66.446 188.3L66.9174 193.125L65.2613 193.287L64.7961 188.526C64.6716 187.252 63.8963 186.556 62.7497 186.668C61.651 186.775 61.0809 187.522 60.7194 188.265L61.2484 193.679L59.6082 193.839ZM72.8903 183.153L71.2979 183.309L72.6957 180.503L74.5111 180.326L72.8903 183.153ZM76.5854 190.862C75.935 191.939 74.7695 192.68 73.2726 192.826C70.5018 193.096 68.6672 191.266 68.4385 188.925C68.2035 186.521 69.544 184.445 72.0919 184.196C74.3053 183.979 75.8863 185.352 76.0855 187.391C76.1212 187.757 76.1093 188.128 76.0689 188.373L70.1451 188.952C70.4277 190.692 71.5833 191.496 73.1279 191.345C74.0993 191.25 74.8694 190.741 75.2978 190.024L76.5854 190.862ZM72.1938 185.568C70.9995 185.685 70.2384 186.451 70.1049 187.718L74.4204 187.296C74.2905 186.296 73.4837 185.442 72.1938 185.568ZM78.7048 191.974L77.9206 183.948L79.5608 183.788L79.634 184.536C80.1466 183.859 80.8514 183.34 81.9183 183.236C83.0171 183.128 83.9889 183.532 84.5919 184.437C85.1351 183.581 85.8675 182.85 87.253 182.714C88.925 182.551 90.3269 183.572 90.5431 185.785L91.0301 190.769L89.374 190.931L88.8932 186.011C88.7781 184.832 88.0568 184.195 87.0217 184.296C86.0662 184.39 85.5043 185.056 85.149 185.862C85.179 186.004 85.193 186.147 85.2085 186.306L85.6955 191.291L84.0394 191.452L83.5586 186.532C83.4435 185.353 82.7381 184.715 81.6871 184.818C80.6679 184.917 80.1313 185.677 79.816 186.399L80.3449 191.813L78.7048 191.974ZM95.8083 190.544C94.2159 190.699 93.0443 189.897 92.9059 188.48C92.7876 187.27 93.6416 186.302 95.3175 185.849L97.8711 185.166L97.8307 184.752C97.7342 183.764 96.9426 183.231 95.9075 183.332C95.0317 183.417 94.3858 183.882 93.9878 184.58L92.6699 183.761C93.2931 182.735 94.3805 182.018 95.8137 181.878C97.9794 181.667 99.2982 182.824 99.4708 184.591L99.9889 189.894L98.3487 190.054L98.26 189.147C97.7552 189.903 96.7956 190.447 95.8083 190.544ZM94.5558 188.255C94.6164 188.876 95.1521 189.257 95.9801 189.177C96.9834 189.078 97.717 188.525 98.12 187.714L97.9847 186.328L95.8548 186.906C94.8687 187.179 94.4966 187.65 94.5558 188.255ZM102.765 186.81L102.398 183.051L100.885 183.199L100.741 181.718L102.254 181.57L102.058 179.564L103.714 179.402L103.91 181.409L106.569 181.149L106.714 182.63L104.054 182.89L104.422 186.648C104.527 187.731 105.135 188.025 106.027 187.938C106.568 187.885 106.928 187.785 107.204 187.646L107.345 189.095C106.979 189.292 106.541 189.415 105.92 189.475C104.041 189.659 102.957 188.768 102.765 186.81ZM109.179 179.093C108.574 179.152 108.014 178.693 107.955 178.088C107.896 177.482 108.356 176.923 108.961 176.864C109.566 176.805 110.125 177.265 110.185 177.87C110.244 178.475 109.784 179.034 109.179 179.093ZM109.309 188.984L108.525 180.958L110.165 180.798L110.949 188.823L109.309 188.984ZM112.603 184.611C112.374 182.27 113.757 180.125 116.273 179.879C117.435 179.766 118.335 180.096 119.076 180.763L118.995 179.935L120.667 179.772L121.834 191.715L120.162 191.878L119.698 187.133C119.101 187.93 118.281 188.429 117.119 188.542C114.603 188.788 112.832 186.951 112.603 184.611ZM114.323 184.443C114.477 186.019 115.63 187.128 117.175 186.977C118.226 186.875 119.069 186.294 119.528 185.397L119.245 182.499C118.571 181.68 117.65 181.304 116.63 181.404C115.086 181.555 114.169 182.866 114.323 184.443ZM129.224 183.565L128.776 178.979L130.432 178.818L130.872 183.324C131.107 185.729 129.861 187.297 127.616 187.517C125.355 187.737 123.829 186.44 123.595 184.035L123.154 179.529L124.81 179.367L125.258 183.953C125.394 185.338 126.207 186.095 127.465 185.972C128.691 185.852 129.359 184.951 129.224 183.565ZM140.826 184.586C140.176 185.662 139.011 186.403 137.514 186.55C134.743 186.82 132.908 184.99 132.679 182.649C132.445 180.245 133.785 178.168 136.333 177.919C138.546 177.703 140.127 179.076 140.326 181.114C140.362 181.481 140.35 181.851 140.31 182.097L134.386 182.675C134.669 184.416 135.824 185.219 137.369 185.069C138.34 184.974 139.11 184.464 139.539 183.747L140.826 184.586ZM136.435 179.292C135.241 179.409 134.479 180.174 134.346 181.441L138.661 181.02C138.532 180.02 137.725 179.166 136.435 179.292ZM141.946 184.654L142.98 183.556C143.571 184.173 144.25 184.541 145.046 184.463C145.826 184.387 146.21 183.867 146.15 183.262C145.992 181.638 142.116 182.611 141.839 179.777C141.71 178.455 142.722 177.295 144.33 177.138C145.509 177.023 146.6 177.495 147.248 178.203L146.228 179.284C145.742 178.752 145.146 178.409 144.477 178.474C143.713 178.549 143.374 179.032 143.427 179.574C143.584 181.182 147.464 180.256 147.734 183.011C147.872 184.589 146.689 185.653 145.193 185.799C143.839 185.932 142.783 185.488 141.946 184.654ZM153.391 183.535L154.425 182.438C155.016 183.055 155.695 183.423 156.491 183.345C157.272 183.269 157.655 182.749 157.596 182.144C157.437 180.52 153.562 181.493 153.285 178.659C153.155 177.337 154.167 176.177 155.776 176.02C156.954 175.905 158.045 176.377 158.693 177.085L157.673 178.166C157.187 177.634 156.591 177.291 155.922 177.356C155.158 177.431 154.819 177.914 154.872 178.455C155.029 180.064 158.91 179.138 159.179 181.893C159.317 183.471 158.135 184.535 156.638 184.681C155.285 184.813 154.228 184.37 153.391 183.535ZM166.561 179.918L166.113 175.331L167.769 175.17L168.21 179.676C168.445 182.081 167.199 183.649 164.954 183.869C162.693 184.09 161.167 182.792 160.932 180.387L160.492 175.881L162.148 175.719L162.596 180.305C162.732 181.69 163.545 182.447 164.803 182.324C166.029 182.204 166.697 181.303 166.561 179.918ZM170.916 173.062C170.311 173.121 169.752 172.661 169.692 172.056C169.633 171.451 170.093 170.891 170.698 170.832C171.303 170.773 171.863 171.233 171.922 171.838C171.981 172.443 171.521 173.003 170.916 173.062ZM171.046 182.952L170.262 174.926L171.902 174.766L172.687 182.792L171.046 182.952ZM173.407 174.619L175.175 174.446L178.141 180.458L179.872 173.987L181.656 173.813L179.398 182.136L177.217 182.349L173.407 174.619ZM186.004 181.732C184.411 181.887 183.24 181.085 183.101 179.668C182.983 178.458 183.837 177.49 185.513 177.037L188.067 176.354L188.026 175.94C187.93 174.952 187.138 174.419 186.103 174.52C185.227 174.605 184.581 175.07 184.183 175.768L182.865 174.949C183.489 173.923 184.576 173.206 186.009 173.066C188.175 172.855 189.494 174.012 189.666 175.779L190.184 181.082L188.544 181.242L188.456 180.335C187.951 181.091 186.991 181.635 186.004 181.732ZM184.751 179.443C184.812 180.064 185.348 180.445 186.176 180.365C187.179 180.267 187.913 179.713 188.316 178.902L188.18 177.516L186.05 178.094C185.064 178.367 184.692 178.838 184.751 179.443ZM192.755 180.831L191.971 172.805L193.612 172.645L193.688 173.425C194.231 172.729 194.982 172.19 196.128 172.078C197.896 171.905 199.366 172.967 199.593 175.292L200.065 180.117L198.409 180.279L197.943 175.517C197.819 174.243 197.044 173.547 195.897 173.66C194.798 173.767 194.212 174.515 193.867 175.257L194.396 180.671L192.755 180.831ZM202.82 177.034L202.453 173.276L200.94 173.424L200.796 171.943L202.308 171.795L202.112 169.789L203.769 169.627L203.965 171.633L206.624 171.374L206.769 172.855L204.109 173.114L204.476 176.873C204.582 177.955 205.19 178.25 206.081 178.163C206.623 178.11 206.983 178.01 207.259 177.871L207.4 179.32C207.034 179.516 206.595 179.64 205.974 179.7C204.095 179.884 203.012 178.993 202.82 177.034ZM216.326 177.21C215.676 178.286 214.51 179.027 213.014 179.173C210.243 179.444 208.408 177.614 208.179 175.273C207.944 172.868 209.285 170.792 211.833 170.543C214.046 170.327 215.627 171.7 215.826 173.738C215.862 174.104 215.85 174.475 215.81 174.72L209.886 175.299C210.169 177.04 211.324 177.843 212.869 177.692C213.84 177.597 214.61 177.088 215.039 176.371L216.326 177.21ZM211.935 171.916C210.74 172.032 209.979 172.798 209.846 174.065L214.161 173.644C214.031 172.643 213.225 171.79 211.935 171.916ZM217.446 177.277L218.48 176.18C219.071 176.797 219.75 177.165 220.546 177.087C221.326 177.011 221.709 176.491 221.65 175.886C221.492 174.262 217.616 175.235 217.339 172.401C217.21 171.079 218.222 169.919 219.83 169.762C221.009 169.647 222.1 170.119 222.748 170.827L221.728 171.908C221.242 171.376 220.646 171.033 219.977 171.098C219.212 171.173 218.874 171.656 218.927 172.197C219.084 173.806 222.964 172.88 223.233 175.635C223.372 177.213 222.189 178.277 220.692 178.423C219.339 178.555 218.283 178.112 217.446 177.277ZM230.053 171.271C229.385 171.336 228.806 170.846 228.742 170.193C228.68 169.556 229.154 168.98 229.823 168.914C230.476 168.85 231.053 169.325 231.115 169.962C231.179 170.614 230.706 171.207 230.053 171.271ZM230.645 177.322C229.976 177.388 229.399 176.913 229.335 176.26C229.273 175.623 229.746 175.031 230.414 174.965C231.067 174.902 231.646 175.392 231.708 176.029C231.772 176.682 231.297 177.258 230.645 177.322Z" fill="#161616"/>
<rect width="320" height="64" transform="translate(0 84.1154) rotate(-5.58)" fill="white"/>
<path d="M33.9939 121.822L25.6181 114.937C25.436 114.787 25.3012 114.619 25.2138 114.432C25.1252 114.245 25.0701 114.041 25.0485 113.82C25.0269 113.599 25.0415 113.388 25.0922 113.188C25.1419 112.988 25.2415 112.797 25.3912 112.615L32.2761 104.239C32.5505 103.905 32.9227 103.715 33.3927 103.669C33.8626 103.623 34.2645 103.737 34.5984 104.012C34.9322 104.286 35.122 104.658 35.168 105.128C35.2139 105.598 35.0996 106 34.8252 106.334L28.9881 113.435L36.0893 119.273C36.4231 119.547 36.613 119.919 36.6589 120.389C36.7048 120.859 36.5906 121.261 36.3162 121.595C36.0418 121.929 35.6696 122.119 35.1996 122.164C34.7296 122.21 34.3277 122.096 33.9939 121.822Z" fill="#3B69D1"/>
<path d="M58.9347 103.774L58.6336 100.693L72.3444 99.3531L72.6454 102.434L67.486 102.938L68.8185 116.578L65.4266 116.909L64.0941 103.27L58.9347 103.774ZM76.5509 115.822L74.8007 97.9074L77.8342 97.611L78.5017 104.442C79.2583 103.549 80.3203 102.818 81.9207 102.662C84.5243 102.407 86.7774 103.996 87.1251 107.555L87.8252 114.721L84.7678 115.019L84.0794 107.973C83.923 106.372 82.9412 105.456 81.4364 105.603C79.9077 105.752 79.1959 106.858 78.8167 107.667L79.5845 115.526L76.5509 115.822ZM96.9057 99.7507L93.9916 100.035L96.0884 95.8276L99.3847 95.5056L96.9057 99.7507ZM102.162 111.343C101.186 112.957 99.414 114.071 97.1448 114.292C92.8692 114.71 90.165 111.96 89.8219 108.449C89.4742 104.89 91.4325 101.732 95.3737 101.347C98.7178 101.021 101.137 103.075 101.445 106.228C101.51 106.897 101.476 107.527 101.42 107.943L92.9878 108.766C93.4938 110.984 94.9679 111.756 96.8549 111.572C98.1687 111.443 99.2592 110.758 99.8201 109.835L102.162 111.343ZM95.5448 103.838C93.9921 103.99 93.049 104.95 92.8687 106.56L98.4103 106.018C98.2435 104.805 97.2407 103.673 95.5448 103.838ZM105.102 113.033L103.926 100.994L106.96 100.698L107.049 101.605C107.784 100.738 108.752 100.04 110.233 99.8955C111.762 99.7461 113.165 100.284 114.079 101.497C114.837 100.362 115.894 99.3424 117.925 99.1441C120.409 98.9014 122.536 100.43 122.867 103.822L123.59 111.226L120.533 111.525L119.821 104.24C119.679 102.783 118.802 101.952 117.44 102.085C116.127 102.213 115.499 103.191 115.1 104.05C115.141 104.215 115.157 104.382 115.176 104.573L115.899 111.978L112.842 112.277L112.13 104.991C111.988 103.534 111.111 102.704 109.749 102.837C108.364 102.972 107.747 104.069 107.368 104.878L108.136 112.736L105.102 113.033ZM130.48 110.915C128.067 111.151 126.284 109.926 126.066 107.705C125.889 105.89 127.165 104.39 129.703 103.708L133.321 102.728L133.291 102.417C133.167 101.152 132.132 100.433 130.747 100.568C129.576 100.682 128.722 101.32 128.164 102.267L125.777 100.788C126.707 99.2024 128.386 98.1221 130.583 97.9074C134.071 97.5666 136.065 99.4697 136.324 102.121L137.085 109.908L134.051 110.204L133.937 109.034C133.264 110.04 131.889 110.777 130.48 110.915ZM129.062 107.268C129.141 108.08 129.838 108.542 130.865 108.442C132.25 108.307 133.19 107.564 133.694 106.55L133.529 104.854L130.709 105.612C129.464 105.95 128.99 106.527 129.062 107.268ZM140.894 105.099L140.413 100.178L138.168 100.398L137.902 97.6746L140.147 97.4553L139.853 94.4456L142.91 94.1469L143.204 97.1566L146.883 96.7972L147.149 99.5202L143.47 99.8796L143.951 104.8C144.082 106.138 144.85 106.593 146.044 106.477C146.88 106.395 147.42 106.246 147.81 106.039L148.069 108.69C147.497 109.011 146.792 109.201 145.789 109.299C142.78 109.593 141.181 108.037 140.894 105.099ZM150.923 94.2804C149.848 94.3854 148.852 93.5664 148.747 92.4916C148.642 91.4167 149.461 90.4203 150.535 90.3153C151.61 90.2103 152.583 91.0316 152.688 92.1065C152.793 93.1814 151.998 94.1754 150.923 94.2804ZM150.776 108.57L149.599 96.5318L152.633 96.2354L153.809 108.274L150.776 108.57ZM155.999 101.983C155.656 98.4721 157.657 95.2623 161.479 94.8889C163.103 94.7302 164.325 95.1413 165.348 95.9819L165.252 95.0025L168.31 94.7038L170.06 112.619L167.002 112.917L166.333 106.062C165.492 107.084 164.373 107.724 162.749 107.883C158.927 108.256 156.342 105.495 155.999 101.983ZM159.152 101.675C159.357 103.777 160.82 105.178 162.875 104.977C164.284 104.839 165.394 104.104 166.027 102.933L165.653 99.111C164.732 98.0677 163.527 97.5825 162.165 97.7155C160.111 97.9162 158.947 99.5733 159.152 101.675ZM180.544 100.405L179.876 93.5738L182.934 93.2751L183.587 99.9632C183.94 103.57 182.055 105.997 178.52 106.342C174.984 106.688 172.689 104.669 172.337 101.062L171.683 94.3742L174.741 94.0755L175.408 100.907C175.579 102.651 176.591 103.637 178.263 103.474C179.912 103.312 180.714 102.149 180.544 100.405ZM198.36 101.944C197.384 103.559 195.612 104.672 193.343 104.894C189.067 105.312 186.363 102.562 186.02 99.0503C185.672 95.4913 187.631 92.3339 191.572 91.9488C194.916 91.6221 197.335 93.6766 197.643 96.8296C197.709 97.4984 197.674 98.1288 197.618 98.5442L189.186 99.368C189.692 101.585 191.166 102.358 193.053 102.173C194.367 102.045 195.457 101.36 196.018 100.437L198.36 101.944ZM191.743 94.44C190.19 94.5917 189.247 95.552 189.067 97.1611L194.609 96.6197C194.442 95.4062 193.439 94.2743 191.743 94.44ZM199.916 102.009L201.745 99.9978C202.577 100.857 203.526 101.439 204.672 101.327C205.652 101.232 206.097 100.61 206.027 99.8929C205.822 97.7909 200.142 99.1416 199.729 94.9137C199.522 92.7878 201.157 91.0124 203.665 90.7674C205.504 90.5877 207.262 91.3081 208.237 92.3946L206.403 94.3582C205.707 93.6545 204.858 93.1105 203.927 93.2015C202.971 93.2948 202.569 93.8647 202.629 94.4857C202.83 96.5399 208.517 95.2609 208.923 99.4171C209.122 101.954 207.227 103.538 204.958 103.759C202.808 103.969 201.196 103.259 199.916 102.009Z" fill="#3B69D1"/>
<defs>
<filter id="filter0_d_6053_2422" x="2" y="199" width="345.97" height="173.549" filterUnits="userSpaceOnUse" color-interpolation-filters="sRGB">
<feFlood flood-opacity="0" result="BackgroundImageFix"/>
<feColorMatrix in="SourceAlpha" type="matrix" values="0 0 0 0 0 0 0 0 0 0 0 0 0 0 0 0 0 0 127 0" result="hardAlpha"/>
<feOffset dy="6"/>
<feGaussianBlur stdDeviation="12.5"/>
<feComposite in2="hardAlpha" operator="out"/>
<feColorMatrix type="matrix" values="0 0 0 0 0.196078 0 0 0 0 0.196078 0 0 0 0 0.196078 0 0 0 0.1 0"/>
<feBlend mode="normal" in2="BackgroundImageFix" result="effect1_dropShadow_6053_2422"/>
<feBlend mode="normal" in="SourceGraphic" in2="effect1_dropShadow_6053_2422" result="shape"/>
</filter>
<filter id="filter1_d_6053_2422" x="23.4463" y="410.394" width="348.304" height="197.435" filterUnits="userSpaceOnUse" color-interpolation-filters="sRGB">
<feFlood flood-opacity="0" result="BackgroundImageFix"/>
<feColorMatrix in="SourceAlpha" type="matrix" values="0 0 0 0 0 0 0 0 0 0 0 0 0 0 0 0 0 0 127 0" result="hardAlpha"/>
<feOffset dy="6"/>
<feGaussianBlur stdDeviation="12.5"/>
<feComposite in2="hardAlpha" operator="out"/>
<feColorMatrix type="matrix" values="0 0 0 0 0.196078 0 0 0 0 0.196078 0 0 0 0 0.196078 0 0 0 0.1 0"/>
<feBlend mode="normal" in2="BackgroundImageFix" result="effect1_dropShadow_6053_2422"/>
<feBlend mode="normal" in="SourceGraphic" in2="effect1_dropShadow_6053_2422" result="shape"/>
</filter>
<filter id="filter2_d_6053_2422" x="14" y="304" width="345.97" height="173.549" filterUnits="userSpaceOnUse" color-interpolation-filters="sRGB">
<feFlood flood-opacity="0" result="BackgroundImageFix"/>
<feColorMatrix in="SourceAlpha" type="matrix" values="0 0 0 0 0 0 0 0 0 0 0 0 0 0 0 0 0 0 127 0" result="hardAlpha"/>
<feOffset dy="6"/>
<feGaussianBlur stdDeviation="12.5"/>
<feComposite in2="hardAlpha" operator="out"/>
<feColorMatrix type="matrix" values="0 0 0 0 0.196078 0 0 0 0 0.196078 0 0 0 0 0.196078 0 0 0 0.1 0"/>
<feBlend mode="normal" in2="BackgroundImageFix" result="effect1_dropShadow_6053_2422"/>
<feBlend mode="normal" in="SourceGraphic" in2="effect1_dropShadow_6053_2422" result="shape"/>
</filter>
</defs>
</svg>
