<svg width="425" height="602" viewBox="0 0 425 602" fill="none" xmlns="http://www.w3.org/2000/svg">
<rect x="0.537122" y="0.450193" width="302.549" height="463.692" rx="12.5" transform="matrix(0.996363 -0.0974165 0.0778812 0.997803 12.2727 30.6596)" fill="#F1F1F1" stroke="#878787" stroke-dasharray="5.51 5.51"/>
<rect width="313.682" height="430.696" rx="8" transform="matrix(0.996369 -0.0973154 0.0779576 0.997794 -13.967 47.1065)" fill="white"/>
<path d="M13.5089 97.6643L9.39386 98.0488L12.6447 93.4013L17.302 92.9661L13.5089 97.6643ZM6.98372 122.728L5.14899 100.376L18.164 99.1599L18.4733 102.928L9.98801 103.721L10.4231 109.021L17.6324 108.348L17.9417 112.115L10.7324 112.789L11.2042 118.537L19.6895 117.744L19.9987 121.512L6.98372 122.728ZM20.6351 105.236L24.9734 104.83L30.0958 115.935L33.2992 104.052L37.6694 103.644L33.1209 120.286L27.7937 120.783L20.6351 105.236ZM49.1711 99.995L45.2794 100.359L48.1618 94.7481L52.5639 94.3368L49.1711 99.995ZM55.9417 115.515C54.6075 117.667 52.2216 119.144 49.1911 119.427C43.4811 119.961 39.9316 116.271 39.5463 111.577C39.1558 106.819 41.832 102.611 47.0954 102.12C51.5613 101.702 54.7451 104.462 55.0911 108.676C55.1645 109.57 55.105 110.413 55.022 110.967L43.7614 112.02C44.3906 114.985 46.3404 116.026 48.8604 115.79C50.6149 115.626 52.0832 114.717 52.8501 113.487L55.9417 115.515ZM47.2723 105.449C45.1988 105.643 43.9215 106.921 43.6479 109.07L51.0486 108.378C50.8511 106.756 49.5372 105.238 47.2723 105.449ZM59.8283 117.79L58.5073 101.697L62.5585 101.318L62.6634 102.595C63.6907 101.405 65.1219 100.435 67.2591 100.235C70.7362 99.9106 73.708 102.046 74.0986 106.804L74.8849 116.383L70.8017 116.765L70.0285 107.345C69.8529 105.206 68.5307 103.978 66.5529 104.163C64.5113 104.353 63.5394 105.828 63.0172 106.906L63.8795 117.411L59.8283 117.79ZM94.0716 111.952C92.7374 114.104 90.3515 115.581 87.321 115.865C81.611 116.398 78.0615 112.708 77.6763 108.014C77.2857 103.256 79.9619 99.0485 85.2253 98.5567C89.6912 98.1394 92.875 100.899 93.221 105.114C93.2944 106.008 93.2349 106.85 93.1519 107.405L81.8913 108.457C82.5205 111.422 84.4703 112.463 86.9904 112.227C88.7448 112.064 90.2131 111.154 90.98 109.924L94.0716 111.952ZM85.4022 101.887C83.3287 102.08 82.0514 103.358 81.7778 105.507L89.1785 104.816C88.981 103.193 87.6671 101.675 85.4022 101.887ZM97.9582 114.227L96.6372 98.1339L100.688 97.7554L100.788 98.9688C101.786 97.8137 103.092 96.8873 105.07 96.7025C107.112 96.5117 108.971 97.2388 110.166 98.8648C111.199 97.3525 112.63 95.996 115.342 95.7427C118.659 95.4327 121.464 97.4873 121.836 102.022L122.648 111.92L118.565 112.302L117.766 102.563C117.606 100.615 116.454 99.4999 114.635 99.6698C112.881 99.8337 112.024 101.137 111.475 102.282C111.525 102.502 111.543 102.726 111.564 102.981L112.377 112.88L108.294 113.261L107.494 103.522C107.334 101.575 106.182 100.46 104.364 100.63C102.514 100.802 101.669 102.265 101.147 103.343L102.009 113.849L97.9582 114.227ZM141.859 107.487C140.524 109.639 138.139 111.116 135.108 111.399C129.398 111.933 125.849 108.243 125.463 103.549C125.073 98.7911 127.749 94.5834 133.012 94.0916C137.478 93.6743 140.662 96.4335 141.008 100.648C141.081 101.542 141.022 102.385 140.939 102.939L129.678 103.992C130.308 106.957 132.257 107.998 134.777 107.762C136.532 107.598 138 106.689 138.767 105.459L141.859 107.487ZM133.189 97.4213C131.116 97.6151 129.838 98.8928 129.565 101.042L136.965 100.35C136.768 98.7279 135.454 97.2097 133.189 97.4213ZM145.745 109.762L144.424 93.6688L148.475 93.2902L148.58 94.5675C149.608 93.3775 151.039 92.4072 153.176 92.2075C156.653 91.8826 159.625 94.0181 160.015 98.7758L160.802 108.355L156.719 108.737L155.945 99.317C155.77 97.1776 154.448 95.9498 152.47 96.1346C150.428 96.3253 149.456 97.7997 148.934 98.8782L149.796 109.383L145.745 109.762ZM165.941 101.955L165.401 95.3768L162.402 95.657L162.103 92.0168L165.102 91.7367L164.772 87.7133L168.855 87.3318L169.185 91.3551L174.098 90.8961L174.396 94.5363L169.484 94.9953L170.024 101.573C170.17 103.361 171.185 103.974 172.78 103.825C173.897 103.721 174.62 103.525 175.144 103.25L175.435 106.795C174.666 107.221 173.722 107.47 172.382 107.595C168.363 107.97 166.263 105.882 165.941 101.955ZM177.452 104.451L179.932 101.773C181.023 102.926 182.277 103.71 183.808 103.567C185.116 103.445 185.723 102.616 185.644 101.658C185.414 98.848 177.812 100.62 177.348 94.9683C177.115 92.1264 179.332 89.7635 182.681 89.4505C185.138 89.221 187.468 90.1938 188.744 91.6511L186.259 94.2644C185.346 93.3201 184.225 92.5883 182.981 92.7045C181.705 92.8237 181.156 93.5828 181.224 94.4131C181.45 97.1591 189.059 95.4829 189.515 101.039C189.729 104.43 187.17 106.535 184.139 106.818C181.268 107.086 179.132 106.128 177.452 104.451Z" fill="#3B69D1"/>
<g filter="url(#filter0_d_5719_14830)">
<rect width="48" height="48" rx="24" transform="matrix(0.996861 -0.0931459 0.0819077 0.997847 237.576 66.9944)" fill="#3B69D1" shape-rendering="crispEdges"/>
<path d="M263.467 88.7073C265.67 88.5014 267.307 86.5485 267.126 84.3433C266.945 82.138 265.014 80.5186 262.811 80.7245C260.608 80.9303 258.97 82.8832 259.151 85.0885C259.333 87.2937 261.264 88.9131 263.467 88.7073ZM262.975 82.7202C264.072 82.6177 265.043 83.432 265.133 84.5296C265.223 85.6272 264.399 86.6091 263.303 86.7116C262.206 86.814 261.235 85.9998 261.145 84.9022C261.055 83.8045 261.879 82.8226 262.975 82.7202ZM263.548 89.7051C260.887 89.9538 255.683 91.7874 255.901 94.4417L256.065 96.4374C256.11 96.9862 256.596 97.3933 257.144 97.3421L271.1 96.038C271.648 95.9868 272.06 95.4958 272.015 94.947L271.851 92.9513C271.633 90.2971 266.21 89.4564 263.548 89.7051ZM269.939 94.1355L257.977 95.2532L257.896 94.2653C258.036 93.5283 261.021 91.9523 263.712 91.7008C266.404 91.4493 269.6 92.4478 269.857 93.1376L269.939 94.1355Z" fill="white"/>
<rect x="0.539384" y="0.45235" width="47" height="47" rx="23.5" transform="matrix(0.996861 -0.0931459 0.0819077 0.997847 237.541 67.0457)" stroke="#3B69D1" shape-rendering="crispEdges"/>
</g>
<g filter="url(#filter1_d_5719_14830)">
<rect x="5.00601" y="148.018" width="301.797" height="328.395" rx="8" transform="rotate(-5 5.00601 148.018)" fill="white" shape-rendering="crispEdges"/>
<g clip-path="url(#clip0_5719_14830)">
<path d="M32.7774 178.251C32.0792 178.312 31.468 178.123 30.9437 177.683C30.4195 177.243 30.1268 176.674 30.0657 175.976C30.0047 175.278 30.1941 174.667 30.634 174.142C31.0739 173.618 31.6429 173.326 32.3411 173.264C33.0392 173.203 33.6505 173.393 34.1747 173.833C34.699 174.273 34.9916 174.842 35.0527 175.54C35.1138 176.238 34.9244 176.849 34.4845 177.373C34.0446 177.898 33.4755 178.19 32.7774 178.251ZM29.2677 184.086C28.7192 184.134 28.2323 183.98 27.8072 183.624C27.3827 183.267 27.1464 182.814 27.0984 182.266L25.8768 168.302C25.8288 167.754 25.9829 167.267 26.339 166.843C26.6958 166.418 27.1485 166.181 27.697 166.133L28.6944 166.046L28.6072 165.048C28.5825 164.766 28.6571 164.52 28.8312 164.312C29.006 164.105 29.2347 163.988 29.5173 163.964C29.7999 163.939 30.0453 164.014 30.2535 164.188C30.4611 164.363 30.5772 164.591 30.602 164.874L30.6892 165.871L38.6684 165.173L38.5811 164.176C38.5564 163.893 38.6314 163.648 38.8061 163.439C38.9803 163.232 39.2086 163.116 39.4912 163.091C39.7738 163.066 40.0189 163.141 40.2264 163.315C40.4347 163.49 40.5512 163.719 40.5759 164.001L40.6632 164.999L41.6605 164.911C42.2091 164.863 42.696 165.018 43.1212 165.375C43.5456 165.731 43.7819 166.183 43.8299 166.732L45.0515 180.695C45.0995 181.244 44.9454 181.731 44.5893 182.156C44.2325 182.58 43.7798 182.816 43.2312 182.864L29.2677 184.086ZM29.0932 182.091L43.0567 180.87L42.1841 170.896L28.2206 172.117L29.0932 182.091ZM28.0461 170.123L42.0096 168.901L41.8351 166.906L27.8716 168.128L28.0461 170.123Z" fill="#3B69D1"/>
</g>
<path d="M58.3743 174.086C58.6033 176.703 59.6597 178.669 61.5514 180.257L60.2198 181.579C58.0673 179.95 56.6442 177.47 56.3636 174.262C56.0802 171.023 57.1626 168.323 58.8935 166.419L60.4344 167.49C58.904 169.296 58.1468 171.485 58.3743 174.086ZM62.658 178.15L62.4877 176.203L65.9882 172.102C66.7731 171.148 67.2626 170.495 67.1831 169.585C67.1021 168.659 66.4163 168.173 65.5386 168.249C64.4694 168.343 63.8723 169.054 63.3684 170.096L61.5195 169.18C62.327 167.566 63.6316 166.487 65.5785 166.316C67.5254 166.146 69.1982 167.254 69.3658 169.169C69.4998 170.701 68.5977 171.97 67.5902 173.135L65.1208 175.972L70.2115 175.527L70.3818 177.474L62.658 178.15ZM73.8868 172.761C73.6579 170.144 72.6001 168.162 70.6939 166.592L72.0254 165.27C74.1606 166.884 75.5996 169.363 75.8816 172.587C76.1651 175.826 75.0972 178.509 73.3518 180.43L71.8108 179.359C73.3731 177.55 74.1144 175.362 73.8868 172.761ZM86.3349 174.47C87.1328 174.4 87.739 173.977 88.0731 173.385L89.7591 174.46C89.0956 175.515 87.9706 176.257 86.5024 176.385C83.7257 176.628 81.8915 174.779 81.6863 172.433C81.481 170.087 82.9662 167.947 85.7429 167.704C87.2111 167.575 88.4478 168.11 89.2844 169.034L87.8107 170.385C87.3788 169.86 86.7084 169.549 85.8785 169.622C84.554 169.738 83.6699 170.844 83.7927 172.248C83.917 173.669 84.9784 174.589 86.3349 174.47ZM91.3865 175.636L90.6829 167.593L92.7096 167.416L92.7794 168.214C93.2585 167.625 93.9084 167.15 94.8181 167.071C95.0893 167.047 95.3329 167.074 95.53 167.121L95.7045 169.116C95.4436 169.074 95.1681 169.05 94.8011 169.082C93.8117 169.169 93.2208 169.767 92.9623 170.304L93.4132 175.459L91.3865 175.636ZM98.0644 165.532C97.3463 165.595 96.6868 165.042 96.624 164.324C96.5611 163.606 97.1145 162.946 97.8326 162.883C98.5507 162.821 99.1943 163.375 99.2571 164.093C99.3199 164.812 98.7825 165.47 98.0644 165.532ZM97.8696 175.069L97.1659 167.026L99.1926 166.849L99.8963 174.892L97.8696 175.069ZM102.58 171.698L102.293 168.411L100.793 168.542L100.634 166.723L102.134 166.591L101.958 164.581L104 164.402L104.176 166.413L106.634 166.198L106.793 168.017L104.336 168.232L104.623 171.519C104.701 172.413 105.211 172.722 106.009 172.652C106.567 172.604 106.929 172.508 107.19 172.372L107.345 174.144C106.962 174.354 106.49 174.476 105.82 174.534C103.809 174.71 102.752 173.661 102.58 171.698ZM110.751 164.551L108.604 162.07L110.806 161.877L112.682 164.382L110.751 164.551ZM116.287 172.139C115.625 173.21 114.435 173.941 112.918 174.074C110.062 174.324 108.276 172.47 108.07 170.124C107.862 167.747 109.191 165.652 111.824 165.422C114.058 165.227 115.659 166.614 115.843 168.721C115.882 169.168 115.855 169.588 115.815 169.865L110.181 170.358C110.504 171.841 111.483 172.367 112.743 172.256C113.621 172.179 114.354 171.729 114.734 171.117L116.287 172.139ZM111.921 167.086C110.884 167.177 110.248 167.811 110.117 168.884L113.819 168.56C113.716 167.749 113.054 166.987 111.921 167.086ZM118.238 173.287L117.535 165.244L119.561 165.067L119.631 165.865C120.11 165.276 120.76 164.801 121.67 164.721C121.941 164.698 122.185 164.725 122.382 164.772L122.556 166.767C122.295 166.725 122.02 166.701 121.653 166.733C120.663 166.82 120.072 167.418 119.814 167.955L120.265 173.11L118.238 173.287ZM131.669 170.793C131.006 171.864 129.816 172.596 128.3 172.728C125.444 172.978 123.657 171.124 123.452 168.779C123.244 166.401 124.572 164.307 127.206 164.076C129.44 163.881 131.04 165.268 131.225 167.375C131.264 167.822 131.236 168.242 131.196 168.519L125.563 169.012C125.886 170.495 126.864 171.021 128.125 170.911C129.003 170.834 129.735 170.384 130.116 169.772L131.669 170.793ZM127.303 165.74C126.266 165.831 125.63 166.465 125.498 167.538L129.201 167.214C129.098 166.403 128.436 165.641 127.303 165.74ZM132.707 170.847L133.941 169.517C134.49 170.096 135.12 170.492 135.886 170.424C136.54 170.367 136.842 169.955 136.8 169.476C136.677 168.072 132.877 168.935 132.63 166.11C132.506 164.69 133.609 163.516 135.285 163.37C136.513 163.262 137.682 163.755 138.325 164.486L137.088 165.785C136.628 165.31 136.065 164.941 135.443 164.996C134.805 165.052 134.532 165.429 134.568 165.844C134.689 167.217 138.493 166.401 138.736 169.178C138.852 170.873 137.576 171.917 136.06 172.049C134.624 172.175 133.552 171.69 132.707 170.847ZM147.393 170.978C145.781 171.119 144.599 170.289 144.469 168.805C144.363 167.592 145.225 166.6 146.923 166.162L149.344 165.532L149.326 165.325C149.252 164.479 148.566 163.992 147.641 164.073C146.859 164.142 146.284 164.562 145.905 165.19L144.322 164.187C144.954 163.135 146.081 162.425 147.55 162.296C149.88 162.093 151.198 163.376 151.353 165.148L151.808 170.35L149.781 170.527L149.713 169.745C149.257 170.412 148.334 170.895 147.393 170.978ZM146.471 168.534C146.519 169.076 146.98 169.39 147.666 169.329C148.592 169.249 149.225 168.759 149.568 168.086L149.469 166.953L147.581 167.439C146.748 167.657 146.428 168.039 146.471 168.534ZM157.851 168.213C158.649 168.144 159.255 167.721 159.589 167.129L161.275 168.203C160.612 169.258 159.487 170 158.019 170.128C155.242 170.371 153.408 168.522 153.202 166.176C152.997 163.83 154.482 161.69 157.259 161.447C158.727 161.319 159.964 161.854 160.801 162.777L159.327 164.128C158.895 163.603 158.225 163.292 157.395 163.365C156.07 163.481 155.186 164.587 155.309 165.992C155.433 167.412 156.495 168.332 157.851 168.213ZM163.234 166.392L162.947 163.104L161.447 163.235L161.288 161.416L162.788 161.285L162.612 159.274L164.654 159.095L164.83 161.106L167.288 160.891L167.447 162.71L164.989 162.925L165.277 166.213C165.355 167.107 165.865 167.416 166.663 167.346C167.221 167.297 167.583 167.201 167.844 167.066L167.999 168.837C167.616 169.047 167.144 169.169 166.474 169.228C164.463 169.404 163.406 168.354 163.234 166.392ZM170.001 159.239C169.283 159.302 168.624 158.748 168.561 158.03C168.498 157.312 169.051 156.652 169.77 156.59C170.488 156.527 171.131 157.082 171.194 157.8C171.257 158.518 170.719 159.176 170.001 159.239ZM169.807 168.775L169.103 160.732L171.13 160.555L171.833 168.598L169.807 168.775ZM172.571 160.429L174.071 160.298L173.997 159.452C173.847 157.744 174.86 156.273 176.871 156.097C177.605 156.033 178.243 156.154 178.777 156.381L178.063 158.147C177.809 157.993 177.477 157.877 177.062 157.913C176.376 157.974 175.971 158.491 176.035 159.225L176.113 160.119L178.571 159.904L178.73 161.723L176.272 161.938L176.817 168.162L174.774 168.341L174.23 162.117L172.73 162.248L172.571 160.429ZM179.584 166.746L180.819 165.416C181.368 165.995 181.997 166.39 182.763 166.323C183.418 166.266 183.719 165.854 183.677 165.375C183.554 163.971 179.755 164.834 179.507 162.009C179.383 160.589 180.487 159.415 182.162 159.268C183.391 159.161 184.56 159.654 185.203 160.385L183.965 161.683C183.506 161.209 182.943 160.84 182.32 160.895C181.682 160.95 181.41 161.328 181.446 161.743C181.566 163.115 185.37 162.3 185.613 165.077C185.729 166.771 184.454 167.816 182.938 167.948C181.501 168.074 180.43 167.589 179.584 166.746Z" fill="#161616"/>
<path d="M275.119 155.215C274.92 155.048 274.808 154.823 274.784 154.541C274.759 154.258 274.83 154.017 274.997 153.819L279.184 148.829C279.275 148.721 279.376 148.64 279.489 148.588C279.602 148.537 279.725 148.505 279.858 148.494C279.991 148.482 280.117 148.492 280.237 148.523C280.357 148.555 280.471 148.616 280.58 148.707L285.596 152.916C285.795 153.083 285.906 153.3 285.93 153.566C285.953 153.832 285.874 154.073 285.692 154.29C285.525 154.489 285.3 154.601 285.017 154.625C284.735 154.65 284.494 154.579 284.295 154.412L280.065 150.863L276.493 155.12C276.326 155.319 276.109 155.43 275.843 155.453C275.578 155.476 275.336 155.397 275.119 155.215Z" fill="#161616"/>
<path d="M33.0347 215.105L31.957 216.02L30.4683 214.076L29.3398 216.249L28.1196 215.535L29.5188 213.515L27.1039 213.116L27.4161 211.722L29.7777 212.431L29.4045 210.004L30.8248 209.88L30.8788 212.335L33.0653 211.227L33.6149 212.546L31.322 213.358L33.0347 215.105Z" fill="#161616"/>
<path d="M41.2013 220.228L40.224 209.057L42.0432 208.898L42.8739 218.393L47.2784 218.008L47.425 219.684L41.2013 220.228ZM52.2676 210.834C54.8848 210.605 56.8119 212.414 57.0199 214.792C57.228 217.17 55.6443 219.286 53.0271 219.515C50.4259 219.743 48.4828 217.935 48.2748 215.557C48.0668 213.179 49.6664 211.061 52.2676 210.834ZM52.9077 217.966C54.4237 217.833 55.4305 216.475 55.2964 214.943C55.1596 213.379 53.935 212.248 52.419 212.38C50.871 212.516 49.8629 213.858 49.9983 215.406C50.1337 216.954 51.3597 218.101 52.9077 217.966ZM63.1625 217.068C64.0721 216.989 64.7671 216.478 65.1595 215.816L66.5387 216.693C65.8911 217.746 64.7661 218.488 63.2819 218.618C60.585 218.854 58.7189 217.007 58.5137 214.661C58.3084 212.315 59.8255 210.172 62.5224 209.937C63.9906 209.808 65.2433 210.342 66.064 211.267L64.8579 212.369C64.3566 211.786 63.5834 211.403 62.6579 211.484C61.1099 211.62 60.0989 212.93 60.2372 214.51C60.3768 216.106 61.5986 217.205 63.1625 217.068ZM70.4857 217.907C68.8899 218.047 67.7252 217.232 67.6009 215.812C67.4948 214.599 68.3596 213.639 70.042 213.202L72.6055 212.544L72.5692 212.129C72.4826 211.139 71.6955 210.597 70.6582 210.688C69.7805 210.765 69.1292 211.224 68.7236 211.919L67.4125 211.085C68.0468 210.064 69.1428 209.357 70.579 209.232C72.7493 209.042 74.0579 210.214 74.2129 211.985L74.6778 217.299L73.0341 217.443L72.9545 216.533C72.4414 217.286 71.4752 217.821 70.4857 217.907ZM69.255 215.603C69.3094 216.225 69.8418 216.613 70.6717 216.54C71.677 216.452 72.4171 215.905 72.8289 215.097L72.7074 213.709L70.5692 214.266C69.5792 214.529 69.2019 214.996 69.255 215.603ZM77.2543 217.074L76.2072 205.105L77.8509 204.961L78.898 216.93L77.2543 217.074ZM81.5565 206.792C80.9501 206.845 80.3948 206.379 80.3417 205.772C80.2887 205.166 80.7546 204.611 81.3611 204.558C81.9675 204.505 82.5228 204.971 82.5759 205.577C82.6289 206.183 82.1629 206.739 81.5565 206.792ZM81.5867 216.695L80.8831 208.652L82.5268 208.508L83.2304 216.551L81.5867 216.695ZM84.9286 215.261L85.9751 214.172C86.5603 214.796 87.2364 215.171 88.0343 215.102C88.8162 215.033 89.2052 214.517 89.1522 213.91C89.0098 212.282 85.1197 213.218 84.8712 210.377C84.7553 209.053 85.7803 207.902 87.3921 207.761C88.573 207.657 89.6605 208.141 90.302 208.857L89.2701 209.928C88.789 209.391 88.1955 209.041 87.5253 209.1C86.7593 209.167 86.4154 209.647 86.4629 210.19C86.6039 211.802 90.4981 210.914 90.7396 213.675C90.8619 215.256 89.6676 216.309 88.1675 216.441C86.8111 216.559 85.7582 216.105 84.9286 215.261ZM95.1868 215.746C93.591 215.886 92.4262 215.071 92.302 213.651C92.1959 212.438 93.0606 211.478 94.743 211.041L97.3065 210.383L97.2702 209.968C97.1837 208.978 96.3965 208.436 95.3592 208.527C94.4815 208.604 93.8302 209.063 93.4247 209.758L92.1135 208.924C92.7479 207.903 93.8438 207.196 95.2801 207.071C97.4504 206.881 98.759 208.053 98.9139 209.824L99.3789 215.138L97.7351 215.282L97.6556 214.372C97.1425 215.125 96.1762 215.66 95.1868 215.746ZM93.956 213.442C94.0105 214.064 94.5429 214.452 95.3727 214.379C96.3781 214.291 97.1182 213.744 97.5299 212.936L97.4084 211.548L95.2702 212.105C94.2802 212.368 93.903 212.835 93.956 213.442ZM102.19 212.078L101.86 208.312L100.344 208.445L100.214 206.961L101.73 206.828L101.555 204.817L103.214 204.672L103.39 206.683L106.055 206.45L106.185 207.934L103.52 208.167L103.849 211.933C103.944 213.018 104.55 213.319 105.443 213.241C105.986 213.193 106.347 213.097 106.625 212.96L106.752 214.413C106.383 214.606 105.943 214.725 105.321 214.779C103.437 214.944 102.362 214.041 102.19 212.078ZM108.689 204.418C108.082 204.471 107.527 204.005 107.474 203.399C107.421 202.792 107.887 202.237 108.493 202.184C109.1 202.131 109.655 202.597 109.708 203.203C109.761 203.81 109.295 204.365 108.689 204.418ZM108.719 214.321L108.015 206.278L109.659 206.134L110.363 214.177L108.719 214.321ZM116.054 205.253C118.671 205.024 120.598 206.833 120.806 209.211C121.014 211.589 119.431 213.705 116.814 213.934C114.212 214.162 112.269 212.354 112.061 209.976C111.853 207.599 113.453 205.481 116.054 205.253ZM116.694 212.385C118.21 212.252 119.217 210.894 119.083 209.362C118.946 207.798 117.721 206.667 116.205 206.8C114.657 206.935 113.649 208.278 113.785 209.826C113.92 211.373 115.146 212.52 116.694 212.385ZM123.212 213.053L122.509 205.01L124.152 204.866L124.221 205.648C124.771 204.957 125.529 204.424 126.678 204.324C128.449 204.169 129.91 205.247 130.114 207.577L130.537 212.412L128.877 212.557L128.46 207.786C128.348 206.509 127.579 205.805 126.43 205.905C125.329 206.001 124.735 206.745 124.381 207.483L124.856 212.909L123.212 213.053Z" fill="#161616"/>
<rect x="29.5345" y="238.836" width="268.759" height="47.0577" rx="7.5" transform="rotate(-5 29.5345 238.836)" fill="white"/>
<path d="M49.3801 267.754L48.4027 256.583L50.222 256.424L51.0527 265.919L55.4572 265.534L55.6038 267.209L49.3801 267.754ZM60.4275 268.701C59.9863 270.09 59.1263 270.921 57.69 271.047C57.1156 271.097 56.6923 271.038 56.3113 270.91L56.1828 269.442C56.4812 269.545 56.8552 269.592 57.2223 269.56C58.0362 269.489 58.5855 269.151 58.8889 268.208L59.3184 266.868L55.1851 259.141L57.0044 258.982L60.0118 264.685L61.9514 258.549L63.7069 258.396L60.4275 268.701ZM68.706 257.637C71.3232 257.408 73.2503 259.217 73.4584 261.595C73.6664 263.973 72.0827 266.089 69.4656 266.318C66.8644 266.546 64.9213 264.738 64.7132 262.36C64.5052 259.982 66.1048 257.864 68.706 257.637ZM69.3461 264.769C70.8621 264.636 71.8689 263.278 71.7349 261.746C71.5981 260.182 70.3735 259.051 68.8574 259.183C67.3095 259.319 66.3013 260.661 66.4367 262.209C66.5722 263.757 67.7981 264.904 69.3461 264.769ZM75.8643 265.437L75.1607 257.394L76.8044 257.25L76.8728 258.032C77.4234 257.341 78.1808 256.808 79.3298 256.707C81.1011 256.552 82.5623 257.631 82.7662 259.961L83.1892 264.796L81.5295 264.941L81.1121 260.17C81.0004 258.893 80.2312 258.188 79.0822 258.289C77.9811 258.385 77.3868 259.129 77.0333 259.867L77.508 265.293L75.8643 265.437ZM90.698 259.701C90.9381 262.446 92.0508 264.503 93.941 266.074L92.8307 267.168C90.7434 265.55 89.3349 263.052 89.0543 259.845C88.7708 256.605 89.8359 253.891 91.5043 252.008L92.7878 252.893C91.2574 254.699 90.4606 256.988 90.698 259.701ZM98.4696 251.881C100.241 251.726 101.444 252.425 102.287 253.429L101.01 254.634C100.311 253.811 99.5667 253.393 98.5933 253.478C96.7581 253.639 95.9276 255.175 96.0525 257.705C96.7383 256.905 97.6928 256.419 98.8737 256.316C101.028 256.128 102.587 257.583 102.761 259.578C102.941 261.637 101.625 263.505 99.1517 263.721C96.4069 263.961 94.606 262.125 94.2737 258.327C93.9624 254.768 95.1822 252.169 98.4696 251.881ZM98.7233 257.905C97.686 257.996 96.7981 258.508 96.2525 259.44C96.6922 261.524 97.7035 262.24 98.9802 262.128C100.337 262.009 101.07 261.012 100.963 259.8C100.86 258.619 99.9202 257.8 98.7233 257.905ZM107.938 262.952C106.167 263.107 104.964 262.408 104.12 261.405L105.382 260.201C106.081 261.024 106.841 261.44 107.799 261.356C109.65 261.194 110.48 259.659 110.355 257.129C109.669 257.928 108.715 258.414 107.534 258.517C105.38 258.706 103.821 257.25 103.647 255.255C103.467 253.197 104.783 251.329 107.256 251.112C109.985 250.874 111.802 252.709 112.134 256.507C112.445 260.065 111.226 262.665 107.938 262.952ZM105.444 255.034C105.548 256.215 106.472 257.034 107.684 256.928C108.722 256.837 109.61 256.326 110.155 255.393C109.716 253.309 108.704 252.594 107.412 252.707C106.071 252.824 105.338 253.821 105.444 255.034ZM117.189 250.243C120.045 249.994 121.643 252.443 121.934 255.778C122.226 259.113 121.079 261.803 118.222 262.053C115.365 262.302 113.752 259.855 113.461 256.519C113.169 253.184 114.332 250.493 117.189 250.243ZM117.331 251.871C115.703 252.014 115.046 253.872 115.264 256.362C115.483 258.867 116.452 260.567 118.08 260.425C119.691 260.284 120.349 258.425 120.131 255.936C119.912 253.43 118.943 251.73 117.331 251.871ZM126.882 249.395C129.739 249.145 131.336 251.595 131.628 254.93C131.92 258.265 130.772 260.955 127.915 261.204C125.059 261.454 123.446 259.007 123.154 255.671C122.862 252.336 124.026 249.645 126.882 249.395ZM127.025 251.023C125.397 251.166 124.739 253.024 124.957 255.514C125.176 258.019 126.145 259.719 127.773 259.577C129.385 259.436 130.042 257.577 129.824 255.088C129.605 252.582 128.636 250.882 127.025 251.023ZM136.576 248.547C139.432 248.297 141.029 250.747 141.321 254.082C141.613 257.417 140.465 260.107 137.609 260.356C134.752 260.606 133.139 258.159 132.847 254.823C132.556 251.488 133.719 248.797 136.576 248.547ZM136.718 250.175C135.09 250.317 134.433 252.176 134.651 254.665C134.87 257.171 135.839 258.871 137.466 258.729C139.078 258.588 139.736 256.729 139.518 254.24C139.299 251.734 138.33 250.034 136.718 250.175ZM145.012 254.981C144.773 252.252 143.64 250.148 141.769 248.608L142.879 247.513C144.932 249.103 146.373 251.614 146.655 254.837C146.937 258.061 145.92 260.771 144.205 262.674L142.922 261.789C144.483 259.964 145.25 257.71 145.012 254.981Z" fill="#161616"/>
<rect x="29.5345" y="238.836" width="268.759" height="47.0577" rx="7.5" transform="rotate(-5 29.5345 238.836)" stroke="#3B69D1"/>
<path d="M40.8863 319.198L42.1193 317.852C42.9343 318.714 43.8741 319.162 44.8475 319.077C45.9487 318.981 46.5325 318.302 46.4502 317.361C46.2477 315.047 41.0942 316.061 40.7675 312.326C40.6181 310.619 41.9155 309.09 43.9422 308.913C45.554 308.772 46.8151 309.401 47.8065 310.44L46.5562 311.772C45.8223 310.919 45.0102 310.46 44.1006 310.539C43.1271 310.624 42.5564 311.269 42.6304 312.115C42.8315 314.413 47.9836 313.384 48.3131 317.15C48.4557 319.147 47.0181 320.543 45.0233 320.718C43.2679 320.871 41.9804 320.309 40.8863 319.198ZM58.0302 317.94C57.3682 319.011 56.1938 319.741 54.6937 319.872C51.917 320.115 50.0988 318.264 49.8935 315.918C49.6827 313.508 51.0458 311.443 53.5991 311.22C55.8173 311.026 57.3862 312.416 57.5649 314.459C57.597 314.826 57.5812 315.197 57.5383 315.442L51.6019 315.961C51.8672 317.707 53.0159 318.523 54.5639 318.388C55.5373 318.303 56.3135 317.8 56.7496 317.087L58.0302 317.94ZM53.6873 312.595C52.4904 312.7 51.7206 313.459 51.5742 314.726L55.8988 314.347C55.779 313.345 54.9799 312.482 53.6873 312.595ZM63.7527 317.519C64.6623 317.44 65.3573 316.929 65.7496 316.267L67.1288 317.144C66.4813 318.197 65.3562 318.939 63.8721 319.069C61.1752 319.305 59.3091 317.458 59.1038 315.112C58.8986 312.766 60.4157 310.623 63.1126 310.388C64.5808 310.259 65.8335 310.793 66.6541 311.718L65.4481 312.82C64.9468 312.237 64.1736 311.855 63.248 311.935C61.7001 312.071 60.6891 313.381 60.8273 314.961C60.9669 316.557 62.1887 317.656 63.7527 317.519ZM69.2114 315.466L68.882 311.7L67.3659 311.832L67.2361 310.348L68.7521 310.216L68.5762 308.205L70.2359 308.06L70.4118 310.071L73.0768 309.837L73.2066 311.321L70.5416 311.555L70.8711 315.321C70.9661 316.406 71.5713 316.707 72.4649 316.629C73.0075 316.581 73.369 316.485 73.6464 316.348L73.7735 317.801C73.4045 317.994 72.9646 318.113 72.3422 318.167C70.4592 318.332 69.3832 317.429 69.2114 315.466ZM82.7313 315.779C82.0692 316.85 80.8949 317.58 79.3948 317.711C76.6181 317.954 74.7998 316.103 74.5946 313.757C74.3838 311.347 75.7468 309.282 78.3002 309.059C80.5184 308.865 82.0872 310.255 82.2659 312.298C82.2981 312.665 82.2823 313.036 82.2394 313.281L76.3029 313.8C76.5682 315.546 77.717 316.362 79.265 316.227C80.2384 316.141 81.0146 315.639 81.4507 314.926L82.7313 315.779ZM78.3883 310.434C77.1914 310.539 76.4216 311.298 76.2752 312.565L80.5999 312.186C80.48 311.184 79.6809 310.321 78.3883 310.434ZM89.8889 312.998L89.4868 308.402L91.1464 308.256L91.5416 312.773C91.7524 315.182 90.4897 316.74 88.2396 316.937C85.9735 317.135 84.4594 315.82 84.2486 313.411L83.8535 308.895L85.5132 308.749L85.9153 313.345C86.0367 314.734 86.8434 315.499 88.1041 315.389C89.3329 315.282 90.0104 314.386 89.8889 312.998ZM94.3482 316.081L93.6445 308.038L95.2882 307.894L95.3678 308.804C95.8719 308.133 96.535 307.624 97.5244 307.538C97.7797 307.515 98.0233 307.542 98.2363 307.588L98.3774 309.2C98.1164 309.158 97.8569 309.133 97.5218 309.162C96.5005 309.251 95.8777 309.853 95.5228 310.575L95.9919 315.937L94.3482 316.081ZM104.064 311.179C103.859 308.833 105.265 306.7 107.802 306.478C108.951 306.377 109.849 306.717 110.582 307.376L110.167 302.637L111.843 302.49L112.89 314.459L111.215 314.605L111.143 313.791C110.536 314.568 109.71 315.059 108.561 315.159C106.024 315.381 104.27 313.524 104.064 311.179ZM105.804 311.026C105.942 312.606 107.086 313.728 108.633 313.593C109.671 313.502 110.521 312.929 110.99 312.036L110.736 309.132C110.068 308.306 109.15 307.92 108.145 308.008C106.597 308.143 105.666 309.447 105.804 311.026ZM115.748 307.407L114.232 307.539L115.233 302.997L117.101 302.834L115.748 307.407ZM121.538 313.943C119.942 314.083 118.777 313.268 118.653 311.848C118.547 310.635 119.412 309.675 121.094 309.238L123.657 308.58L123.621 308.165C123.535 307.176 122.747 306.633 121.71 306.724C120.832 306.801 120.181 307.26 119.776 307.955L118.464 307.121C119.099 306.1 120.195 305.393 121.631 305.268C123.801 305.078 125.11 306.25 125.265 308.021L125.73 313.335L124.086 313.479L124.007 312.57C123.493 313.322 122.527 313.857 121.538 313.943ZM120.307 311.639C120.361 312.261 120.894 312.649 121.724 312.576C122.729 312.488 123.469 311.941 123.881 311.133L123.759 309.745L121.621 310.302C120.631 310.565 120.254 311.033 120.307 311.639ZM131.965 311.552C132.875 311.472 133.57 310.961 133.962 310.3L135.341 311.176C134.694 312.23 133.569 312.971 132.084 313.101C129.387 313.337 127.521 311.49 127.316 309.144C127.111 306.798 128.628 304.656 131.325 304.42C132.793 304.291 134.046 304.825 134.866 305.75L133.66 306.853C133.159 306.269 132.386 305.887 131.46 305.968C129.912 306.103 128.901 307.414 129.04 308.994C129.179 310.589 130.401 311.689 131.965 311.552ZM137.424 309.498L137.094 305.732L135.578 305.865L135.448 304.381L136.964 304.248L136.789 302.237L138.448 302.092L138.624 304.103L141.289 303.87L141.419 305.354L138.754 305.587L139.083 309.353C139.178 310.438 139.784 310.739 140.677 310.661C141.22 310.613 141.581 310.517 141.859 310.381L141.986 311.833C141.617 312.026 141.177 312.145 140.555 312.199C138.671 312.364 137.596 311.461 137.424 309.498ZM143.923 301.838C143.316 301.891 142.761 301.425 142.708 300.819C142.655 300.212 143.121 299.657 143.727 299.604C144.334 299.551 144.889 300.017 144.942 300.623C144.995 301.23 144.529 301.785 143.923 301.838ZM143.953 311.741L143.249 303.698L144.893 303.554L145.597 311.597L143.953 311.741ZM146.401 303.422L148.172 303.267L151.081 309.316L152.88 302.856L154.667 302.699L152.323 311.009L150.137 311.2L146.401 303.422ZM156.826 300.709C156.22 300.762 155.665 300.296 155.612 299.69C155.559 299.083 156.025 298.528 156.631 298.475C157.237 298.422 157.793 298.888 157.846 299.494C157.899 300.101 157.433 300.656 156.826 300.709ZM156.857 310.612L156.153 302.569L157.797 302.425L158.5 310.468L156.857 310.612ZM161.424 307.399L161.094 303.632L159.578 303.765L159.448 302.281L160.964 302.148L160.788 300.137L162.448 299.992L162.624 302.003L165.289 301.77L165.419 303.254L162.754 303.487L163.083 307.253C163.178 308.338 163.783 308.639 164.677 308.561C165.22 308.514 165.581 308.418 165.859 308.281L165.986 309.733C165.617 309.926 165.177 310.045 164.554 310.099C162.671 310.264 161.595 309.361 161.424 307.399ZM171.322 299.956L169.726 300.095L171.154 297.301L172.973 297.142L171.322 299.956ZM174.943 307.711C174.281 308.782 173.107 309.512 171.607 309.643C168.83 309.886 167.012 308.035 166.807 305.689C166.596 303.28 167.959 301.215 170.512 300.991C172.73 300.797 174.299 302.188 174.478 304.23C174.51 304.597 174.494 304.969 174.452 305.213L168.515 305.733C168.78 307.478 169.929 308.295 171.477 308.159C172.451 308.074 173.227 307.572 173.663 306.858L174.943 307.711ZM170.6 302.366C169.404 302.471 168.634 303.23 168.487 304.497L172.812 304.119C172.692 303.116 171.893 302.253 170.6 302.366Z" fill="#161616"/>
<rect x="38.2598" y="338.575" width="268.759" height="55.0674" rx="7.5" transform="rotate(-5 38.2598 338.575)" fill="white"/>
<rect x="54.7239" y="348.693" width="245.295" height="32.0385" rx="8" transform="rotate(-5 54.7239 348.693)" fill="#EEF1F8"/>
<path d="M64.9302 369.911L67.8871 359.803L70.0095 359.617L74.6767 369.058L72.9592 369.209L71.6865 366.562L67.4276 366.935L66.6337 369.762L64.9302 369.911ZM67.8385 365.52L71.0361 365.24L69.0754 361.163L67.8385 365.52ZM76.4867 368.9L75.871 361.862L77.3093 361.737L77.3789 362.533C77.82 361.945 78.4002 361.5 79.2659 361.425C79.4893 361.405 79.7024 361.429 79.8889 361.469L80.0122 362.879C79.7839 362.843 79.5569 362.82 79.2636 362.846C78.37 362.924 77.825 363.45 77.5145 364.083L77.925 368.774L76.4867 368.9ZM82.6782 365.896L82.3899 362.601L81.0633 362.717L80.9497 361.418L82.2762 361.302L82.1223 359.543L83.5745 359.416L83.7284 361.175L86.0603 360.971L86.174 362.27L83.8421 362.474L84.1304 365.769C84.2134 366.719 84.743 366.982 85.525 366.913C85.9997 366.872 86.316 366.788 86.5588 366.668L86.67 367.939C86.347 368.108 85.9622 368.212 85.4176 368.259C83.7699 368.404 82.8284 367.614 82.6782 365.896ZM98.408 365.828C97.8287 366.766 96.8011 367.404 95.4886 367.519C93.0589 367.732 91.468 366.112 91.2884 364.059C91.1039 361.951 92.2966 360.144 94.5307 359.949C96.4717 359.779 97.8444 360.995 98.0008 362.783C98.0289 363.104 98.0151 363.429 97.9776 363.643L92.7832 364.097C93.0153 365.625 94.0205 366.339 95.3749 366.22C96.2267 366.146 96.9059 365.707 97.2874 365.082L98.408 365.828ZM94.6079 361.152C93.5606 361.243 92.887 361.907 92.7589 363.016L96.543 362.685C96.4381 361.808 95.7389 361.053 94.6079 361.152ZM100.433 364.343L100.144 361.047L98.8177 361.163L98.7041 359.865L100.031 359.749L99.8767 357.989L101.329 357.862L101.483 359.622L103.815 359.418L103.928 360.716L101.596 360.92L101.885 364.216C101.968 365.165 102.497 365.428 103.279 365.36C103.754 365.319 104.07 365.235 104.313 365.115L104.424 366.385C104.101 366.554 103.717 366.658 103.172 366.706C101.524 366.85 100.583 366.06 100.433 364.343ZM110.244 365.947L109.389 356.172L114.835 355.696L114.953 357.05L111.099 357.387L111.341 360.152L114.637 359.864L114.755 361.218L111.46 361.507L111.836 365.807L110.244 365.947ZM118.959 365.395C117.563 365.517 116.544 364.805 116.435 363.562C116.342 362.501 117.099 361.661 118.571 361.278L120.814 360.702L120.782 360.339C120.706 359.474 120.018 358.999 119.11 359.079C118.342 359.146 117.772 359.547 117.417 360.155L116.27 359.425C116.825 358.533 117.784 357.914 119.041 357.804C120.94 357.638 122.085 358.663 122.22 360.213L122.627 364.863L121.189 364.989L121.119 364.193C120.67 364.852 119.825 365.32 118.959 365.395ZM117.882 363.379C117.93 363.923 118.396 364.263 119.122 364.199C120.002 364.122 120.649 363.643 121.009 362.936L120.903 361.722L119.032 362.209C118.166 362.44 117.836 362.848 117.882 363.379ZM128.083 363.303C128.879 363.233 129.487 362.786 129.83 362.207L131.037 362.974C130.57 363.746 129.804 364.32 128.812 364.561L127.758 366.666L126.306 366.793L127.386 364.658C125.456 364.475 124.174 363.011 124.015 361.196C123.836 359.143 125.163 357.269 127.523 357.062C128.808 356.95 129.904 357.417 130.622 358.226L129.567 359.191C129.128 358.68 128.451 358.346 127.642 358.417C126.287 358.535 125.402 359.682 125.523 361.064C125.646 362.461 126.715 363.422 128.083 363.303ZM134.995 356.408C137.285 356.208 138.972 357.791 139.154 359.872C139.336 361.952 137.95 363.804 135.66 364.004C133.384 364.204 131.684 362.622 131.502 360.541C131.32 358.461 132.719 356.607 134.995 356.408ZM135.555 362.649C136.882 362.533 137.763 361.344 137.646 360.004C137.526 358.635 136.454 357.646 135.128 357.762C133.773 357.88 132.891 359.055 133.01 360.409C133.128 361.764 134.201 362.767 135.555 362.649ZM141.259 363.233L140.643 356.196L142.081 356.07L142.141 356.754C142.623 356.149 143.286 355.683 144.291 355.595C145.841 355.459 147.12 356.403 147.298 358.442L147.668 362.673L146.216 362.8L145.851 358.624C145.753 357.507 145.08 356.891 144.074 356.979C143.111 357.063 142.591 357.714 142.282 358.36L142.697 363.107L141.259 363.233ZM149.904 362.477L149.288 355.439L150.727 355.313L150.787 355.998C151.268 355.393 151.931 354.927 152.936 354.839C154.486 354.703 155.765 355.647 155.943 357.685L156.313 361.916L154.861 362.043L154.496 357.868C154.398 356.751 153.725 356.135 152.72 356.222C151.756 356.307 151.236 356.957 150.927 357.603L151.342 362.351L149.904 362.477ZM160.509 361.76C159.112 361.882 158.093 361.169 157.985 359.927C157.892 358.865 158.648 358.025 160.121 357.643L162.364 357.067L162.332 356.704C162.256 355.838 161.567 355.364 160.66 355.443C159.892 355.511 159.322 355.912 158.967 356.52L157.82 355.79C158.375 354.898 159.334 354.279 160.59 354.169C162.489 354.003 163.634 355.028 163.77 356.578L164.177 361.228L162.739 361.354L162.669 360.558C162.22 361.216 161.375 361.684 160.509 361.76ZM159.432 359.744C159.48 360.288 159.945 360.628 160.672 360.564C161.551 360.487 162.199 360.008 162.559 359.301L162.453 358.087L160.582 358.574C159.716 358.804 159.385 359.213 159.432 359.744ZM165.787 362.354C165.725 361.641 166.025 361.052 166.639 360.506C166.308 360.268 166.122 359.904 166.09 359.541C166.041 358.983 166.267 358.513 166.779 358.088C166.124 357.681 165.713 356.999 165.644 356.217C165.526 354.863 166.475 353.654 168.193 353.504C168.724 353.458 169.193 353.515 169.6 353.662L172.197 353.435L172.304 354.664L170.922 354.785C171.073 355.067 171.173 355.396 171.202 355.731C171.322 357.1 170.373 358.322 168.628 358.475C168.321 358.502 168.038 358.484 167.767 358.452C167.56 358.653 167.453 358.873 167.471 359.083C167.497 359.376 167.665 359.53 168.042 359.497L169.955 359.33C171.77 359.171 172.76 360.027 172.871 361.298C173.004 362.82 171.624 364.094 169.488 364.281C167.323 364.471 165.913 363.792 165.787 362.354ZM168.545 357.371C169.453 357.291 169.931 356.644 169.861 355.848C169.793 355.066 169.211 354.526 168.303 354.606C167.396 354.685 166.916 355.318 166.985 356.1C167.054 356.896 167.638 357.45 168.545 357.371ZM167.139 362.038C167.207 362.82 168.03 363.227 169.357 363.111C170.753 362.988 171.516 362.373 171.444 361.549C171.391 360.949 171 360.505 169.925 360.599L167.691 360.794C167.327 361.135 167.095 361.536 167.139 362.038ZM180.13 358.679C179.551 359.616 178.523 360.254 177.21 360.369C174.781 360.582 173.19 358.962 173.01 356.91C172.826 354.801 174.019 352.994 176.253 352.799C178.194 352.629 179.566 353.846 179.723 355.633C179.751 355.954 179.737 356.279 179.7 356.493L174.505 356.948C174.737 358.475 175.742 359.189 177.097 359.071C177.949 358.996 178.628 358.557 179.009 357.933L180.13 358.679ZM176.33 354.002C175.283 354.094 174.609 354.758 174.481 355.866L178.265 355.535C178.16 354.658 177.461 353.903 176.33 354.002ZM184.874 355.872C184.694 353.819 185.924 351.953 188.144 351.758C189.149 351.67 189.935 351.968 190.577 352.545L190.214 348.397L191.68 348.269L192.596 358.742L191.13 358.87L191.068 358.158C190.536 358.838 189.814 359.267 188.809 359.355C186.589 359.549 185.053 357.924 184.874 355.872ZM186.396 355.739C186.517 357.121 187.517 358.103 188.872 357.984C189.779 357.905 190.523 357.404 190.933 356.622L190.711 354.081C190.127 353.358 189.324 353.02 188.444 353.097C187.09 353.216 186.275 354.356 186.396 355.739ZM195.097 352.571L193.77 352.687L194.647 348.713L196.28 348.57L195.097 352.571ZM200.599 350.669C202.889 350.468 204.576 352.052 204.758 354.132C204.94 356.213 203.554 358.065 201.264 358.265C198.988 358.464 197.288 356.882 197.106 354.802C196.924 352.721 198.323 350.868 200.599 350.669ZM201.159 356.909C202.486 356.793 203.367 355.605 203.249 354.264C203.13 352.896 202.058 351.906 200.732 352.022C199.377 352.14 198.495 353.315 198.614 354.67C198.732 356.024 199.805 357.028 201.159 356.909ZM211.374 354.06L211.023 350.038L212.475 349.911L212.82 353.863C213.005 355.971 211.9 357.334 209.931 357.507C207.948 357.68 206.624 356.53 206.439 354.421L206.093 350.469L207.546 350.342L207.897 354.364C208.004 355.579 208.71 356.249 209.813 356.152C210.888 356.058 211.481 355.275 211.374 354.06ZM213.709 349.803L215.259 349.668L217.805 354.96L219.378 349.307L220.942 349.17L218.891 356.441L216.978 356.609L213.709 349.803ZM222.858 356.094L222.242 349.057L223.681 348.931L223.75 349.727C224.191 349.139 224.771 348.695 225.637 348.619C225.861 348.599 226.074 348.623 226.26 348.663L226.384 350.073C226.155 350.037 225.928 350.015 225.635 350.04C224.741 350.118 224.196 350.644 223.886 351.277L224.296 355.968L222.858 356.094ZM230.095 355.672C228.698 355.794 227.679 355.082 227.57 353.839C227.477 352.778 228.234 351.937 229.706 351.555L231.949 350.979L231.918 350.616C231.842 349.75 231.153 349.276 230.245 349.355C229.477 349.423 228.908 349.824 228.553 350.432L227.405 349.702C227.96 348.81 228.919 348.191 230.176 348.081C232.075 347.915 233.22 348.94 233.356 350.49L233.763 355.14L232.324 355.266L232.255 354.47C231.806 355.128 230.96 355.596 230.095 355.672ZM229.018 353.656C229.065 354.2 229.531 354.54 230.257 354.476C231.137 354.399 231.784 353.92 232.145 353.213L232.038 351.999L230.168 352.486C229.301 352.716 228.971 353.125 229.018 353.656ZM235.373 356.266C235.311 355.554 235.611 354.964 236.224 354.418C235.894 354.18 235.707 353.816 235.676 353.453C235.627 352.895 235.853 352.425 236.365 352C235.71 351.593 235.298 350.911 235.23 350.129C235.112 348.775 236.061 347.566 237.779 347.416C238.309 347.37 238.779 347.427 239.185 347.574L241.783 347.347L241.89 348.576L240.508 348.697C240.659 348.979 240.758 349.308 240.788 349.643C240.907 351.012 239.959 352.234 238.213 352.387C237.906 352.414 237.623 352.396 237.353 352.364C237.146 352.565 237.038 352.785 237.057 352.995C237.082 353.288 237.251 353.442 237.628 353.409L239.541 353.242C241.356 353.083 242.345 353.939 242.456 355.21C242.59 356.732 241.21 358.006 239.073 358.193C236.909 358.383 235.499 357.704 235.373 356.266ZM238.131 351.283C239.039 351.203 239.517 350.556 239.447 349.76C239.379 348.979 238.797 348.438 237.889 348.518C236.981 348.597 236.502 349.23 236.571 350.012C236.64 350.808 237.223 351.362 238.131 351.283ZM236.724 355.95C236.793 356.732 237.616 357.139 238.943 357.023C240.339 356.901 241.101 356.285 241.029 355.461C240.977 354.861 240.586 354.417 239.511 354.511L237.277 354.706C236.913 355.048 236.68 355.448 236.724 355.95ZM249.716 352.591C249.136 353.528 248.109 354.166 246.796 354.281C244.367 354.494 242.776 352.874 242.596 350.822C242.412 348.713 243.604 346.906 245.838 346.711C247.779 346.541 249.152 347.758 249.308 349.545C249.337 349.866 249.323 350.191 249.285 350.405L244.091 350.86C244.323 352.387 245.328 353.101 246.683 352.983C247.534 352.908 248.213 352.469 248.595 351.845L249.716 352.591ZM245.916 347.914C244.868 348.006 244.195 348.67 244.067 349.778L247.851 349.447C247.746 348.57 247.047 347.815 245.916 347.914ZM250.696 352.66L251.611 351.707C252.123 352.253 252.715 352.582 253.413 352.521C254.097 352.461 254.438 352.009 254.391 351.478C254.267 350.054 250.863 350.872 250.645 348.387C250.544 347.228 251.441 346.221 252.851 346.097C253.884 346.007 254.836 346.43 255.397 347.056L254.494 347.994C254.073 347.524 253.554 347.218 252.968 347.269C252.297 347.328 251.997 347.748 252.038 348.223C252.161 349.633 255.569 348.857 255.78 351.272C255.887 352.656 254.842 353.577 253.53 353.692C252.343 353.796 251.422 353.398 250.696 352.66ZM260.65 349.242C260.471 347.189 261.7 345.323 263.921 345.129C264.926 345.041 265.712 345.338 266.353 345.915L265.99 341.768L267.457 341.64L268.373 352.112L266.907 352.24L266.844 351.528C266.313 352.208 265.591 352.637 264.585 352.725C262.365 352.919 260.83 351.295 260.65 349.242ZM262.172 349.109C262.293 350.491 263.294 351.473 264.648 351.355C265.556 351.275 266.3 350.774 266.71 349.992L266.488 347.451C265.904 346.728 265.1 346.39 264.221 346.467C262.866 346.586 262.051 347.727 262.172 349.109ZM270.873 345.942L269.547 346.058L270.423 342.084L272.057 341.941L270.873 345.942ZM275.94 351.661C274.543 351.783 273.524 351.071 273.415 349.828C273.322 348.767 274.079 347.927 275.551 347.544L277.794 346.968L277.763 346.605C277.687 345.74 276.998 345.265 276.09 345.345C275.322 345.412 274.753 345.813 274.398 346.421L273.25 345.691C273.805 344.799 274.764 344.18 276.021 344.07C277.92 343.904 279.065 344.93 279.201 346.479L279.608 351.129L278.169 351.255L278.1 350.459C277.651 351.118 276.805 351.586 275.94 351.661ZM274.863 349.645C274.91 350.19 275.376 350.529 276.102 350.465C276.982 350.388 277.629 349.909 277.99 349.202L277.883 347.988L276.013 348.475C275.146 348.706 274.816 349.114 274.863 349.645ZM281.862 350.932L281.246 343.894L282.685 343.769L282.754 344.565C283.195 343.977 283.775 343.532 284.641 343.457C284.865 343.437 285.078 343.461 285.264 343.501L285.388 344.911C285.159 344.875 284.932 344.852 284.639 344.878C283.745 344.956 283.2 345.482 282.89 346.114L283.3 350.806L281.862 350.932ZM288.053 347.928L287.765 344.633L286.439 344.749L286.325 343.45L287.652 343.334L287.498 341.575L288.95 341.448L289.104 343.207L291.436 343.003L291.549 344.302L289.217 344.506L289.506 347.801C289.589 348.751 290.118 349.014 290.9 348.945C291.375 348.904 291.691 348.82 291.934 348.7L292.045 349.971C291.722 350.14 291.337 350.244 290.793 350.291C289.145 350.436 288.204 349.646 288.053 347.928Z" fill="#3B69D1"/>
<rect x="38.2598" y="338.575" width="268.759" height="55.0674" rx="7.5" transform="rotate(-5 38.2598 338.575)" stroke="#3B69D1"/>
<rect x="44.5428" y="410.388" width="268.759" height="47.0577" rx="23.5" transform="rotate(-5 44.5428 410.388)" fill="#3B69D1"/>
<path d="M138.644 432.809L137.666 421.638L141.081 421.339C143.539 421.124 145.165 422.252 145.347 424.327C145.466 425.683 144.899 426.746 143.796 427.373L147.724 432.014L145.059 432.248L141.68 427.993L140.515 428.094L140.91 432.611L138.644 432.809ZM141.374 423.211L140.097 423.323L140.35 426.211L141.627 426.1C142.584 426.016 143.094 425.408 143.014 424.499C142.94 423.653 142.331 423.127 141.374 423.211ZM156.147 429.959C155.485 431.03 154.295 431.761 152.779 431.894C149.922 432.144 148.136 430.29 147.931 427.944C147.723 425.566 149.051 423.472 151.684 423.242C153.918 423.046 155.519 424.434 155.703 426.54C155.742 426.987 155.715 427.408 155.675 427.685L150.041 428.178C150.364 429.661 151.343 430.186 152.604 430.076C153.481 429.999 154.214 429.549 154.594 428.937L156.147 429.959ZM151.781 424.906C150.744 424.996 150.108 425.631 149.977 426.704L153.679 426.38C153.576 425.569 152.914 424.807 151.781 424.906ZM161.758 429.179C162.556 429.109 163.162 428.686 163.497 428.094L165.183 429.168C164.519 430.223 163.394 430.965 161.926 431.094C159.149 431.336 157.315 429.487 157.11 427.141C156.904 424.795 158.39 422.655 161.166 422.412C162.635 422.284 163.871 422.819 164.708 423.743L163.234 425.094C162.802 424.569 162.132 424.257 161.302 424.33C159.977 424.446 159.093 425.552 159.216 426.957C159.34 428.377 160.402 429.297 161.758 429.179ZM166.81 430.345L165.763 418.376L167.79 418.199L168.189 422.763C168.7 422.171 169.414 421.691 170.483 421.597C172.222 421.445 173.715 422.52 173.923 424.898L174.342 429.686L172.3 429.864L171.888 425.157C171.794 424.087 171.145 423.469 170.14 423.557C169.118 423.646 168.636 424.38 168.377 424.917L168.837 430.167L166.81 430.345ZM183.934 427.528C183.272 428.599 182.081 429.33 180.565 429.463C177.709 429.713 175.923 427.859 175.717 425.513C175.509 423.135 176.838 421.041 179.471 420.811C181.705 420.615 183.306 422.003 183.49 424.109C183.529 424.556 183.502 424.977 183.461 425.254L177.828 425.747C178.151 427.23 179.13 427.755 180.39 427.645C181.268 427.568 182 427.118 182.381 426.506L183.934 427.528ZM179.568 422.475C178.531 422.565 177.895 423.2 177.764 424.273L181.466 423.949C181.363 423.138 180.701 422.376 179.568 422.475ZM185.885 428.676L185.181 420.633L187.208 420.456L187.278 421.253C187.757 420.665 188.407 420.19 189.317 420.11C189.588 420.086 189.831 420.113 190.029 420.161L190.203 422.155C189.942 422.114 189.667 422.09 189.3 422.122C188.31 422.208 187.719 422.807 187.461 423.344L187.912 428.498L185.885 428.676ZM195.748 426.205C196.546 426.135 197.152 425.712 197.486 425.12L199.172 426.195C198.508 427.25 197.383 427.991 195.915 428.12C193.138 428.363 191.304 426.513 191.099 424.167C190.894 421.821 192.379 419.682 195.156 419.439C196.624 419.31 197.861 419.845 198.697 420.769L197.223 422.12C196.792 421.595 196.121 421.284 195.291 421.356C193.967 421.472 193.083 422.579 193.205 423.983C193.33 425.403 194.391 426.324 195.748 426.205ZM200.799 427.371L199.752 415.402L201.779 415.225L202.178 419.789C202.689 419.198 203.403 418.717 204.472 418.623C206.212 418.471 207.705 419.547 207.913 421.924L208.332 426.712L206.289 426.891L205.877 422.183C205.783 421.114 205.134 420.495 204.129 420.583C203.108 420.673 202.625 421.406 202.367 421.943L202.826 427.194L200.799 427.371ZM217.923 424.554C217.261 425.625 216.071 426.357 214.555 426.489C211.698 426.739 209.912 424.885 209.707 422.539C209.499 420.162 210.827 418.068 213.46 417.837C215.694 417.642 217.295 419.029 217.479 421.136C217.518 421.583 217.491 422.003 217.451 422.28L211.817 422.773C212.14 424.256 213.119 424.782 214.38 424.671C215.257 424.595 215.99 424.144 216.37 423.532L217.923 424.554ZM213.557 419.501C212.52 419.592 211.884 420.226 211.753 421.299L215.455 420.975C215.352 420.164 214.69 419.402 213.557 419.501ZM219.874 425.702L219.171 417.659L221.197 417.482L221.267 418.28C221.746 417.691 222.396 417.216 223.306 417.137C223.577 417.113 223.821 417.14 224.018 417.187L224.192 419.182C223.931 419.14 223.656 419.116 223.289 419.148C222.3 419.235 221.709 419.833 221.45 420.37L221.901 425.525L219.874 425.702Z" fill="#EEF1F8"/>
<rect x="44.5428" y="410.388" width="268.759" height="47.0577" rx="23.5" transform="rotate(-5 44.5428 410.388)" stroke="#3B69D1"/>
</g>
<g filter="url(#filter2_d_5719_14830)">
<rect x="35.0421" y="504.612" width="333.205" height="70.0842" rx="8" transform="rotate(-5 35.0421 504.612)" fill="white" shape-rendering="crispEdges"/>
<path d="M65.0435 534.148L68.0357 533.886L67.5121 527.902L73.4965 527.378L74.02 533.363L77.0122 533.101L76.2269 524.124L69.8499 520.16L64.2582 525.172L65.0435 534.148ZM65.218 536.143C64.6695 536.191 64.183 536.037 63.7585 535.681C63.3333 535.324 63.0967 534.871 63.0487 534.323L62.2634 525.346C62.2357 525.03 62.2804 524.725 62.3973 524.43C62.5135 524.135 62.6883 523.885 62.9217 523.68L68.5134 518.669C68.6846 518.52 68.867 518.403 69.0607 518.319C69.2543 518.235 69.4592 518.184 69.6753 518.165C69.8914 518.146 70.1021 518.161 70.3074 518.21C70.5127 518.259 70.7126 518.342 70.9071 518.459L77.2841 522.424C77.5495 522.585 77.7653 522.801 77.9317 523.071C78.0974 523.341 78.194 523.634 78.2217 523.95L79.007 532.926C79.055 533.475 78.901 533.962 78.5448 534.387C78.188 534.812 77.7353 535.048 77.1867 535.096L72.1998 535.532L71.6762 529.548L69.6814 529.722L70.205 535.707L65.218 536.143Z" fill="#646464"/>
<path d="M52.0331 557.397L54.6394 548.727L56.1475 548.595L60.2197 556.681L59.0229 556.785L57.8377 554.405L53.9838 554.742L53.23 557.292L52.0331 557.397ZM54.27 553.74L57.3818 553.468L55.4793 549.642L54.27 553.74ZM64.3023 555.6C65.0444 555.535 65.6233 555.123 65.9483 554.563L66.8036 555.104C66.307 555.907 65.4752 556.462 64.3741 556.558C62.3753 556.733 60.9638 555.349 60.8099 553.59C60.6559 551.831 61.8057 550.222 63.8045 550.048C64.8936 549.952 65.8222 550.365 66.4497 551.058L65.7012 551.739C65.2841 551.245 64.6423 550.939 63.8882 551.005C62.5956 551.118 61.763 552.216 61.8751 553.497C61.9882 554.789 62.9977 555.714 64.3023 555.6ZM70.7659 555.034C71.5079 554.97 72.0869 554.557 72.4119 553.998L73.2672 554.538C72.7706 555.341 71.9388 555.897 70.8377 555.993C68.8389 556.168 67.4274 554.784 67.2734 553.024C67.1195 551.265 68.2693 549.657 70.268 549.482C71.3572 549.387 72.2858 549.8 72.9133 550.493L72.1648 551.173C71.7477 550.679 71.1058 550.374 70.3518 550.44C69.0592 550.553 68.2266 551.651 68.3386 552.931C68.4517 554.224 69.4613 555.149 70.7659 555.034ZM78.7241 552.457L78.4226 549.01L79.4399 548.921L79.7383 552.332C79.8964 554.139 78.9473 555.283 77.3076 555.427C75.6799 555.569 74.5464 554.607 74.3883 552.8L74.0899 549.389L75.1072 549.3L75.4088 552.747C75.5125 553.932 76.2065 554.558 77.2358 554.468C78.2412 554.38 78.8278 553.642 78.7241 552.457ZM87.2477 553.315C86.7511 554.118 85.8953 554.676 84.7703 554.774C82.7356 554.952 81.348 553.566 81.1941 551.807C81.0339 549.975 82.0822 548.448 83.9493 548.285C85.589 548.142 86.7548 549.197 86.8846 550.682C86.9055 550.921 86.8895 551.151 86.8683 551.322L82.2364 551.727C82.399 553.172 83.397 553.966 84.6897 553.852C85.4676 553.784 86.0945 553.368 86.4423 552.795L87.2477 553.315ZM84.0008 549.149C83.0074 549.236 82.3645 549.883 82.2401 550.943L85.8547 550.627C85.7413 549.744 85.066 549.056 84.0008 549.149ZM88.7768 546.524C88.3818 546.559 88.0304 546.264 87.9959 545.869C87.9623 545.486 88.2572 545.134 88.6522 545.1C89.0472 545.065 89.3866 545.361 89.4201 545.744C89.4547 546.139 89.1718 546.489 88.7768 546.524ZM88.9271 554.169L88.3993 548.137L89.4167 548.048L89.9444 554.08L88.9271 554.169ZM92.0946 553.892L91.3092 544.916L92.3266 544.827L93.1119 553.803L92.0946 553.892Z" fill="#646464"/>
<path d="M140.983 516.625L144.214 512.774C144.396 512.557 144.621 512.441 144.887 512.426C145.154 512.411 145.396 512.495 145.613 512.677C145.813 512.86 145.925 513.085 145.948 513.351C145.972 513.617 145.9 513.858 145.735 514.073L141.892 518.681C141.71 518.898 141.486 519.018 141.22 519.041C140.954 519.064 140.713 518.985 140.496 518.803L138.164 516.846C137.965 516.679 137.853 516.455 137.828 516.172C137.804 515.889 137.875 515.649 138.041 515.45C138.208 515.251 138.433 515.139 138.716 515.115C138.998 515.09 139.239 515.161 139.438 515.328L140.983 516.625ZM127.566 518.628C127.283 518.652 127.038 518.577 126.83 518.403C126.622 518.229 126.506 518 126.481 517.718C126.456 517.435 126.531 517.19 126.706 516.981C126.88 516.774 127.109 516.658 127.391 516.633L134.373 516.022C134.655 515.997 134.901 516.072 135.109 516.246C135.317 516.421 135.433 516.65 135.458 516.932C135.482 517.215 135.408 517.46 135.233 517.667C135.059 517.876 134.83 517.992 134.547 518.017L127.566 518.628ZM142.262 525.784L140.533 527.845C140.366 528.044 140.141 528.156 139.859 528.18C139.576 528.205 139.335 528.134 139.137 527.967C138.938 527.8 138.826 527.576 138.801 527.293C138.776 527.01 138.848 526.77 139.014 526.571L140.744 524.51L138.683 522.781C138.484 522.614 138.372 522.389 138.347 522.107C138.323 521.824 138.394 521.583 138.561 521.384C138.727 521.186 138.952 521.074 139.235 521.049C139.517 521.024 139.758 521.095 139.957 521.262L142.018 522.991L143.747 520.931C143.914 520.732 144.139 520.62 144.421 520.595C144.704 520.571 144.945 520.642 145.143 520.808C145.342 520.975 145.454 521.2 145.479 521.483C145.504 521.765 145.432 522.006 145.266 522.205L143.536 524.266L145.597 525.995C145.796 526.162 145.908 526.387 145.933 526.669C145.957 526.952 145.886 527.192 145.719 527.391C145.552 527.59 145.328 527.702 145.045 527.727C144.763 527.751 144.522 527.68 144.323 527.513L142.262 525.784ZM128.264 526.607C127.981 526.632 127.736 526.557 127.528 526.382C127.32 526.208 127.204 525.979 127.179 525.697C127.154 525.414 127.229 525.169 127.404 524.96C127.578 524.753 127.807 524.637 128.089 524.612L135.071 524.001C135.354 523.977 135.599 524.051 135.807 524.225C136.015 524.4 136.131 524.629 136.156 524.911C136.18 525.194 136.106 525.439 135.932 525.647C135.757 525.855 135.528 525.971 135.245 525.996L128.264 526.607Z" fill="#646464"/>
<path d="M113.582 552.012L112.849 543.634L114.286 543.508L117.217 547.509L119.408 543.06L120.845 542.935L121.577 551.313L120.452 551.411L119.851 544.541L117.76 548.752L116.898 548.828L114.106 545.044L114.707 551.914L113.582 552.012ZM126.125 544.595C128.064 544.426 129.523 545.805 129.677 547.565C129.831 549.324 128.633 550.937 126.694 551.106C124.743 551.277 123.296 549.896 123.142 548.137C122.988 546.377 124.174 544.766 126.125 544.595ZM126.622 550.148C127.879 550.038 128.709 548.904 128.6 547.659C128.49 546.402 127.477 545.442 126.22 545.552C124.928 545.665 124.097 546.787 124.207 548.043C124.317 549.3 125.33 550.261 126.622 550.148ZM131.576 550.438L131.049 544.406L132.066 544.317L132.126 544.999C132.569 544.417 133.158 543.98 134.056 543.901C135.408 543.783 136.493 544.605 136.643 546.316L136.962 549.967L135.945 550.056L135.629 546.441C135.534 545.364 134.87 544.795 133.936 544.877C133.062 544.953 132.556 545.504 132.228 546.172L132.594 550.349L131.576 550.438ZM141.517 548.736L142.182 548.063C142.647 548.553 143.176 548.808 143.786 548.755C144.457 548.696 144.804 548.256 144.758 547.729C144.64 546.376 141.665 547.119 141.479 544.989C141.396 544.043 142.13 543.195 143.291 543.093C144.153 543.018 144.93 543.36 145.401 543.91L144.747 544.57C144.384 544.144 143.904 543.896 143.377 543.942C142.731 543.999 142.417 544.412 142.458 544.879C142.577 546.231 145.567 545.535 145.747 547.594C145.834 548.72 144.998 549.505 143.873 549.603C142.915 549.687 142.128 549.37 141.517 548.736ZM151.517 546.088L151.216 542.641L152.233 542.552L152.531 545.963C152.69 547.771 151.74 548.915 150.101 549.058C148.473 549.201 147.34 548.239 147.181 546.431L146.883 543.02L147.9 542.931L148.202 546.378C148.306 547.563 149 548.19 150.029 548.1C151.034 548.012 151.621 547.273 151.517 546.088ZM154.615 540.764C154.22 540.798 153.869 540.504 153.834 540.109C153.801 539.726 154.096 539.374 154.491 539.34C154.886 539.305 155.225 539.601 155.259 539.984C155.293 540.379 155.01 540.729 154.615 540.764ZM154.766 548.409L154.238 542.377L155.255 542.288L155.783 548.32L154.766 548.409ZM156.496 542.179L157.597 542.083L159.958 546.881L161.451 541.746L162.552 541.649L160.722 547.888L159.381 548.005L156.496 542.179ZM164.176 539.927C163.781 539.962 163.43 539.667 163.395 539.272C163.362 538.889 163.657 538.538 164.052 538.503C164.447 538.469 164.786 538.765 164.82 539.148C164.854 539.543 164.571 539.893 164.176 539.927ZM164.327 547.573L163.799 541.54L164.816 541.451L165.344 547.484L164.327 547.573Z" fill="#646464"/>
<g clip-path="url(#clip1_5719_14830)">
<path d="M198.379 517.458L204.389 516.932C204.671 516.907 204.896 516.791 205.062 516.584C205.228 516.377 205.299 516.132 205.274 515.849C205.249 515.567 205.133 515.338 204.925 515.163C204.717 514.989 204.472 514.915 204.189 514.939L198.18 515.465C197.897 515.49 197.673 515.606 197.507 515.812C197.341 516.02 197.27 516.265 197.295 516.547C197.319 516.83 197.436 517.058 197.643 517.233C197.851 517.407 198.097 517.482 198.379 517.458ZM198.118 514.465L208.117 513.591C208.399 513.566 208.623 513.45 208.79 513.242C208.956 513.035 209.026 512.791 209.002 512.508C208.977 512.226 208.86 511.997 208.652 511.822C208.445 511.648 208.2 511.573 207.917 511.598L197.918 512.473C197.636 512.498 197.411 512.613 197.245 512.82C197.079 513.028 197.008 513.273 197.033 513.555C197.058 513.838 197.174 514.066 197.381 514.24C197.59 514.415 197.835 514.49 198.118 514.465ZM197.856 511.473L207.855 510.598C208.137 510.574 208.362 510.458 208.528 510.251C208.694 510.044 208.765 509.799 208.74 509.516C208.715 509.233 208.599 509.005 208.39 508.83C208.183 508.656 207.938 508.581 207.655 508.606L197.656 509.481C197.374 509.505 197.149 509.621 196.983 509.828C196.817 510.035 196.746 510.281 196.771 510.563C196.796 510.846 196.912 511.074 197.12 511.249C197.328 511.423 197.573 511.498 197.856 511.473ZM193.879 523.454L192.52 507.92C192.472 507.371 192.626 506.885 192.983 506.459C193.339 506.035 193.792 505.799 194.34 505.751L210.298 504.355C210.847 504.307 211.334 504.461 211.759 504.817C212.183 505.174 212.42 505.626 212.468 506.175L213.515 518.143C213.563 518.692 213.409 519.179 213.053 519.604C212.696 520.029 212.243 520.265 211.695 520.313L197.731 521.534L195.638 524.029C195.35 524.373 194.994 524.475 194.571 524.336C194.149 524.197 193.918 523.903 193.879 523.454ZM195.664 520.886L196.734 519.612L211.52 518.318L210.473 506.349L194.515 507.745L195.664 520.886Z" fill="#646464"/>
</g>
<path d="M183.003 545.939L182.27 537.561L183.706 537.435L186.637 541.436L188.828 536.987L190.265 536.861L190.998 545.239L189.873 545.338L189.272 538.468L187.18 542.679L186.318 542.754L183.527 538.97L184.128 545.84L183.003 545.939ZM198.616 543.572C198.119 544.375 197.263 544.932 196.138 545.031C194.104 545.209 192.716 543.822 192.562 542.063C192.402 540.232 193.45 538.705 195.317 538.542C196.957 538.398 198.123 539.454 198.253 540.938C198.274 541.177 198.258 541.408 198.236 541.579L193.605 541.984C193.767 543.429 194.765 544.222 196.058 544.109C196.836 544.041 197.463 543.624 197.81 543.051L198.616 543.572ZM195.369 539.405C194.375 539.492 193.733 540.14 193.608 541.2L197.223 540.883C197.109 540.001 196.434 539.312 195.369 539.405ZM199.53 543.661L200.195 542.987C200.66 543.477 201.188 543.733 201.799 543.679C202.469 543.62 202.816 543.18 202.77 542.653C202.652 541.301 199.678 542.044 199.491 539.913C199.409 538.968 200.143 538.119 201.304 538.018C202.165 537.943 202.943 538.285 203.413 538.834L202.759 539.495C202.396 539.068 201.916 538.821 201.39 538.867C200.744 538.923 200.43 539.337 200.471 539.803C200.589 541.156 203.58 540.46 203.76 542.519C203.846 543.645 203.01 544.429 201.885 544.528C200.928 544.612 200.14 544.295 199.53 543.661ZM204.79 543.2L205.454 542.527C205.919 543.017 206.448 543.272 207.059 543.219C207.729 543.16 208.076 542.72 208.03 542.193C207.912 540.841 204.938 541.583 204.751 539.453C204.668 538.507 205.402 537.659 206.563 537.558C207.425 537.482 208.203 537.824 208.673 538.374L208.019 539.034C207.656 538.608 207.176 538.36 206.65 538.406C206.003 538.463 205.69 538.876 205.73 539.343C205.849 540.696 208.839 540 209.019 542.058C209.106 543.185 208.27 543.969 207.145 544.068C206.187 544.151 205.4 543.834 204.79 543.2ZM212.446 543.532C211.261 543.635 210.401 543.047 210.311 542.018C210.232 541.108 210.869 540.401 212.131 540.074L214.136 539.561L214.1 539.142C214.026 538.304 213.386 537.877 212.524 537.953C211.83 538.014 211.296 538.386 210.97 538.933L210.153 538.414C210.616 537.649 211.427 537.132 212.481 537.04C214.013 536.906 215.001 537.724 215.117 539.053L215.471 543.098L214.454 543.187L214.387 542.421C213.983 543.047 213.224 543.464 212.446 543.532ZM211.337 541.892C211.382 542.407 211.834 542.741 212.54 542.679C213.342 542.609 213.967 542.168 214.305 541.487L214.201 540.303L212.444 540.758C211.631 540.974 211.292 541.377 211.337 541.892ZM216.913 544.069C216.86 543.459 217.116 542.942 217.678 542.471C217.384 542.279 217.212 541.969 217.183 541.646C217.141 541.167 217.358 540.75 217.799 540.41C217.238 540.061 216.873 539.478 216.814 538.808C216.713 537.647 217.537 536.586 218.973 536.46C219.416 536.421 219.819 536.482 220.156 536.61L222.394 536.414L222.471 537.3L221.167 537.414C221.361 537.698 221.475 538.038 221.506 538.397C221.607 539.546 220.795 540.606 219.347 540.733C219.048 540.759 218.756 540.736 218.498 540.686C218.263 540.888 218.138 541.116 218.158 541.343C218.18 541.595 218.327 541.763 218.698 541.73L220.422 541.579C222.014 541.44 222.824 542.153 222.918 543.23C223.029 544.499 221.843 545.556 220.036 545.714C218.252 545.87 217.019 545.278 216.913 544.069ZM219.289 539.93C220.162 539.853 220.613 539.211 220.549 538.481C220.484 537.739 219.929 537.184 219.055 537.261C218.157 537.339 217.719 537.981 217.784 538.723C217.849 539.465 218.391 540.008 219.289 539.93ZM217.896 543.863C217.96 544.593 218.753 544.97 219.949 544.865C221.218 544.754 221.976 544.181 221.907 543.391C221.857 542.817 221.494 542.39 220.417 542.484L218.466 542.655C218.074 543.003 217.854 543.384 217.896 543.863ZM229.169 540.899C228.672 541.702 227.816 542.259 226.691 542.358C224.657 542.536 223.269 541.149 223.115 539.39C222.955 537.559 224.003 536.032 225.87 535.869C227.51 535.725 228.676 536.781 228.806 538.265C228.827 538.504 228.811 538.735 228.789 538.906L224.157 539.311C224.32 540.756 225.318 541.549 226.611 541.436C227.389 541.368 228.016 540.951 228.363 540.378L229.169 540.899ZM225.922 536.732C224.928 536.819 224.286 537.467 224.161 538.527L227.776 538.21C227.662 537.328 226.987 536.639 225.922 536.732Z" fill="#646464"/>
<g clip-path="url(#clip2_5719_14830)">
<path d="M273.633 513.914C273.832 514.081 274.072 514.152 274.355 514.127C274.638 514.102 274.862 513.991 275.029 513.792C275.196 513.593 275.267 513.352 275.242 513.07C275.218 512.787 275.106 512.562 274.907 512.395L273.036 510.825C273.238 510.456 273.38 510.067 273.461 509.658C273.543 509.248 273.564 508.819 273.525 508.371C273.416 507.124 272.887 506.102 271.938 505.305C270.989 504.509 269.89 504.166 268.644 504.275C267.397 504.384 266.375 504.913 265.579 505.862C264.783 506.811 264.439 507.909 264.548 509.156C264.657 510.403 265.186 511.424 266.135 512.221C267.084 513.017 268.182 513.361 269.429 513.252C269.861 513.214 270.276 513.119 270.673 512.967C271.07 512.815 271.433 512.607 271.762 512.344L273.633 513.914ZM269.255 511.257C268.556 511.318 267.945 511.128 267.421 510.689C266.897 510.249 266.604 509.68 266.543 508.981C266.482 508.283 266.671 507.672 267.111 507.148C267.551 506.624 268.12 506.331 268.818 506.27C269.516 506.209 270.128 506.398 270.652 506.838C271.176 507.278 271.469 507.847 271.53 508.545C271.591 509.243 271.402 509.855 270.962 510.379C270.522 510.903 269.953 511.196 269.255 511.257ZM262.298 517.896C261.749 517.944 261.263 517.79 260.838 517.433C260.413 517.077 260.176 516.624 260.128 516.075L259.081 504.107C259.033 503.558 259.188 503.072 259.545 502.647C259.901 502.222 260.353 501.985 260.902 501.937L276.86 500.541C277.408 500.493 277.895 500.648 278.32 501.004C278.745 501.36 278.981 501.813 279.029 502.361L280.076 514.33C280.124 514.879 279.97 515.366 279.614 515.791C279.257 516.215 278.805 516.451 278.256 516.499L262.298 517.896ZM262.123 515.901L278.081 514.505L277.034 502.536L261.076 503.932L262.123 515.901Z" fill="#646464"/>
</g>
<path d="M242.891 540.699L242.158 532.321L244.384 532.126C246.072 531.979 247.194 532.809 247.319 534.245C247.407 535.251 246.959 536.05 246.092 536.487L249.139 540.152L247.81 540.269L245.058 536.795C244.975 536.814 244.879 536.823 244.796 536.83L243.695 536.926L244.016 540.601L242.891 540.699ZM244.516 533.08L243.367 533.18L243.611 535.969L244.76 535.868C245.717 535.784 246.235 535.221 246.156 534.323C246.082 533.473 245.473 532.996 244.516 533.08ZM255.512 538.594C255.015 539.397 254.16 539.954 253.035 540.053C251 540.231 249.612 538.845 249.458 537.085C249.298 535.254 250.347 533.727 252.214 533.564C253.853 533.42 255.019 534.476 255.149 535.96C255.17 536.2 255.154 536.43 255.133 536.601L250.501 537.006C250.663 538.451 251.661 539.244 252.954 539.131C253.732 539.063 254.359 538.647 254.707 538.073L255.512 538.594ZM252.265 534.428C251.272 534.515 250.629 535.162 250.504 536.222L254.119 535.906C254.006 535.023 253.33 534.334 252.265 534.428ZM259.882 538.489C260.624 538.424 261.203 538.012 261.528 537.452L262.383 537.993C261.887 538.796 261.055 539.351 259.954 539.447C257.955 539.622 256.543 538.238 256.39 536.479C256.236 534.72 257.385 533.111 259.384 532.937C260.473 532.841 261.402 533.254 262.029 533.947L261.281 534.628C260.864 534.134 260.222 533.828 259.468 533.894C258.175 534.007 257.343 535.105 257.455 536.386C257.568 537.678 258.577 538.603 259.882 538.489ZM263.865 538.864L263.08 529.888L264.097 529.799L264.415 533.425C264.858 532.844 265.447 532.406 266.345 532.328C267.697 532.209 268.782 533.031 268.932 534.742L269.251 538.393L268.234 538.482L267.918 534.867C267.823 533.79 267.171 533.22 266.225 533.303C265.339 533.38 264.846 533.942 264.517 534.598L264.883 538.775L263.865 538.864ZM276.574 536.751C276.078 537.554 275.222 538.112 274.097 538.21C272.062 538.388 270.674 537.002 270.521 535.243C270.36 533.411 271.409 531.884 273.276 531.721C274.915 531.578 276.081 532.633 276.211 534.118C276.232 534.357 276.216 534.588 276.195 534.758L271.563 535.163C271.725 536.609 272.724 537.402 274.016 537.289C274.794 537.22 275.421 536.804 275.769 536.231L276.574 536.751ZM273.327 532.585C272.334 532.672 271.691 533.319 271.567 534.379L275.181 534.063C275.068 533.18 274.392 532.492 273.327 532.585ZM278.254 537.605L277.726 531.573L278.743 531.484L278.809 532.238C279.206 531.673 279.726 531.277 280.492 531.21C280.684 531.194 280.865 531.202 281.013 531.237L281.1 532.231C280.916 532.198 280.735 532.19 280.495 532.211C279.705 532.28 279.226 532.732 278.909 533.375L279.271 537.516L278.254 537.605ZM285.362 536.26C286.104 536.195 286.683 535.782 287.008 535.223L287.864 535.763C287.367 536.567 286.535 537.122 285.434 537.218C283.435 537.393 282.024 536.009 281.87 534.25C281.716 532.49 282.866 530.882 284.864 530.707C285.954 530.612 286.882 531.025 287.51 531.718L286.761 532.399C286.344 531.904 285.702 531.599 284.948 531.665C283.656 531.778 282.823 532.876 282.935 534.156C283.048 535.449 284.058 536.374 285.362 536.26ZM289.346 536.635L288.56 527.658L289.578 527.569L289.895 531.196C290.339 530.614 290.927 530.177 291.825 530.098C293.178 529.98 294.262 530.802 294.412 532.513L294.732 536.164L293.714 536.253L293.398 532.638C293.304 531.561 292.651 530.991 291.705 531.074C290.82 531.151 290.326 531.713 289.998 532.369L290.363 536.546L289.346 536.635ZM302.054 534.522C301.558 535.325 300.702 535.882 299.577 535.981C297.542 536.159 296.155 534.773 296.001 533.013C295.841 531.182 296.889 529.655 298.756 529.492C300.396 529.348 301.562 530.404 301.691 531.888C301.712 532.128 301.696 532.358 301.675 532.529L297.043 532.934C297.206 534.379 298.204 535.172 299.496 535.059C300.274 534.991 300.901 534.575 301.249 534.001L302.054 534.522ZM298.808 530.356C297.814 530.443 297.171 531.09 297.047 532.15L300.661 531.834C300.548 530.951 299.873 530.263 298.808 530.356Z" fill="#646464"/>
<path d="M333.367 508.16C332.669 508.221 332.058 508.032 331.533 507.592C331.009 507.152 330.716 506.583 330.655 505.885C330.594 505.187 330.784 504.576 331.224 504.051C331.663 503.527 332.233 503.234 332.931 503.173C333.629 503.112 334.24 503.302 334.764 503.742C335.289 504.181 335.581 504.75 335.642 505.449C335.703 506.147 335.514 506.758 335.074 507.282C334.634 507.807 334.065 508.099 333.367 508.16ZM329.857 513.995C329.309 514.043 328.822 513.889 328.397 513.533C327.972 513.176 327.736 512.723 327.688 512.175L326.466 498.211C326.418 497.663 326.572 497.176 326.929 496.752C327.285 496.327 327.738 496.09 328.287 496.042L329.284 495.955L329.197 494.957C329.172 494.675 329.247 494.429 329.421 494.221C329.596 494.013 329.824 493.897 330.107 493.873C330.39 493.848 330.635 493.923 330.843 494.097C331.051 494.271 331.167 494.5 331.192 494.783L331.279 495.78L339.258 495.082L339.171 494.085C339.146 493.802 339.221 493.557 339.396 493.348C339.57 493.141 339.798 493.025 340.081 493C340.363 492.975 340.609 493.05 340.816 493.224C341.024 493.399 341.141 493.628 341.166 493.91L341.253 494.908L342.25 494.82C342.799 494.772 343.286 494.927 343.711 495.283C344.135 495.64 344.371 496.092 344.419 496.641L345.641 510.604C345.689 511.153 345.535 511.639 345.179 512.065C344.822 512.489 344.369 512.725 343.821 512.773L329.857 513.995ZM329.683 512L343.646 510.779L342.774 500.805L328.81 502.026L329.683 512Z" fill="#3B69D1"/>
<path d="M309.689 525.689L308.145 525.824L309.356 524.09L311.104 523.937L309.689 525.689ZM307.289 535.065L306.556 526.687L311.44 526.26L311.563 527.672L308.379 527.95L308.553 529.937L311.258 529.701L311.382 531.113L308.677 531.35L308.865 533.504L312.049 533.225L312.173 534.638L307.289 535.065ZM312.379 528.541L314.007 528.399L315.952 532.57L317.131 528.126L318.77 527.982L317.096 534.207L315.097 534.382L312.379 528.541ZM323.081 526.64L321.621 526.768L322.692 524.672L324.343 524.528L323.081 526.64ZM325.653 532.469C325.157 533.273 324.264 533.821 323.127 533.921C320.984 534.108 319.645 532.718 319.491 530.958C319.335 529.175 320.331 527.604 322.306 527.432C323.981 527.285 325.182 528.326 325.32 529.906C325.35 530.241 325.329 530.556 325.299 530.764L321.074 531.133C321.316 532.246 322.05 532.64 322.995 532.557C323.654 532.5 324.203 532.162 324.489 531.703L325.653 532.469ZM322.379 528.679C321.601 528.748 321.124 529.223 321.025 530.028L323.802 529.785C323.725 529.177 323.229 528.605 322.379 528.679ZM327.117 533.33L326.589 527.298L328.109 527.165L328.151 527.644C328.534 527.2 329.069 526.84 329.871 526.77C331.176 526.656 332.296 527.462 332.452 529.245L332.766 532.836L331.234 532.97L330.925 529.439C330.855 528.637 330.356 528.175 329.614 528.239C328.848 528.306 328.486 528.857 328.292 529.26L328.637 533.197L327.117 533.33ZM339.959 531.218C339.463 532.021 338.57 532.569 337.433 532.669C335.291 532.856 333.951 531.466 333.797 529.707C333.641 527.923 334.637 526.353 336.612 526.18C338.288 526.033 339.488 527.074 339.627 528.654C339.656 528.989 339.635 529.304 339.605 529.512L335.38 529.882C335.622 530.994 336.356 531.388 337.302 531.306C337.96 531.248 338.509 530.91 338.795 530.451L339.959 531.218ZM336.685 527.428C335.907 527.496 335.43 527.972 335.332 528.776L338.109 528.533C338.031 527.925 337.535 527.353 336.685 527.428ZM341.423 532.079L340.895 526.046L342.415 525.913L342.455 526.368C342.827 525.938 343.316 525.593 344.058 525.529C344.824 525.461 345.523 525.738 345.975 526.35C346.36 525.785 346.895 525.28 347.912 525.191C349.157 525.082 350.213 525.858 350.362 527.558L350.687 531.268L349.155 531.402L348.835 527.752C348.771 527.022 348.337 526.601 347.655 526.661C346.996 526.719 346.677 527.205 346.473 527.633C346.492 527.716 346.5 527.799 346.508 527.895L346.833 531.605L345.301 531.739L344.981 528.089C344.918 527.359 344.483 526.939 343.801 526.998C343.106 527.059 342.792 527.605 342.598 528.008L342.943 531.946L341.423 532.079ZM357.889 529.649C357.393 530.452 356.5 531.001 355.363 531.1C353.22 531.288 351.881 529.897 351.727 528.138C351.571 526.355 352.567 524.784 354.542 524.611C356.217 524.465 357.418 525.505 357.556 527.085C357.586 527.42 357.565 527.736 357.535 527.943L353.31 528.313C353.552 529.426 354.286 529.82 355.232 529.737C355.89 529.679 356.439 529.342 356.725 528.883L357.889 529.649ZM354.615 525.859C353.837 525.927 353.36 526.403 353.261 527.208L356.038 526.965C355.961 526.356 355.465 525.785 354.615 525.859ZM359.353 530.51L358.825 524.478L360.345 524.345L360.387 524.824C360.77 524.38 361.305 524.02 362.107 523.949C363.412 523.835 364.532 524.642 364.688 526.425L365.002 530.016L363.47 530.15L363.161 526.619C363.091 525.817 362.592 525.354 361.85 525.419C361.084 525.486 360.722 526.036 360.528 526.439L360.873 530.377L359.353 530.51ZM366.918 527.629L366.703 525.163L365.577 525.262L365.458 523.897L366.583 523.799L366.451 522.291L367.983 522.157L368.115 523.665L369.958 523.504L370.078 524.868L368.235 525.029L368.45 527.495C368.509 528.165 368.891 528.397 369.489 528.345C369.908 528.308 370.179 528.236 370.376 528.135L370.492 529.463C370.204 529.621 369.85 529.712 369.348 529.756C367.839 529.888 367.047 529.101 366.918 527.629Z" fill="#3B69D1"/>
</g>
<g clip-path="url(#clip3_5719_14830)">
<path d="M347.963 468.476C350.374 464.293 352.668 460.267 354.978 456.256C355.434 455.453 355.758 454.887 356.519 454.008C357.077 453.348 358.295 451.98 359.015 452.868C359.543 453.65 359.828 454.253 359.189 455.753C357.518 459.613 355.218 463.08 352.959 466.536C350.961 469.587 349.383 471.873 347.431 474.435C346.519 475.632 345.454 475.458 344.355 474.191C343.369 473.055 342.34 471.902 341.557 470.641C338.712 466.108 335.985 461.541 333.204 456.971C332.855 456.405 332.552 455.977 332.225 455.263C331.836 454.394 331.508 453.775 332.212 453.396C332.877 453.028 333.791 453.929 334.175 454.457C337.477 458.814 344.156 467.887 344.609 468.31C344.87 465.398 345.176 462.72 345.324 459.992C346.261 440.969 345.777 421.778 340.617 402.052C336.532 386.439 330.703 371.221 322.632 356.465C322.161 355.591 321.753 354.681 321.376 353.8C320.849 352.61 320.775 351.938 321.338 351.741C322.475 351.525 323.027 352.281 323.514 352.855C324.5 353.992 325.29 355.307 326.061 356.581C336.21 373.685 342.378 391.579 346.299 409.907C350.324 428.717 350.023 446.839 348.124 464.7C347.986 465.631 347.874 468.007 347.963 468.476Z" fill="black"/>
</g>
<defs>
<filter id="filter0_d_5719_14830" x="225.562" y="54.5138" width="75.8098" height="76.3965" filterUnits="userSpaceOnUse" color-interpolation-filters="sRGB">
<feFlood flood-opacity="0" result="BackgroundImageFix"/>
<feColorMatrix in="SourceAlpha" type="matrix" values="0 0 0 0 0 0 0 0 0 0 0 0 0 0 0 0 0 0 127 0" result="hardAlpha"/>
<feOffset dy="4"/>
<feGaussianBlur stdDeviation="6"/>
<feComposite in2="hardAlpha" operator="out"/>
<feColorMatrix type="matrix" values="0 0 0 0 0.152941 0 0 0 0 0.286275 0 0 0 0 0.588235 0 0 0 0.12 0"/>
<feBlend mode="normal" in2="BackgroundImageFix" result="effect1_dropShadow_5719_14830"/>
<feBlend mode="normal" in="SourceGraphic" in2="effect1_dropShadow_5719_14830" result="shape"/>
</filter>
<filter id="filter1_d_5719_14830" x="-7.00842" y="113.705" width="353.299" height="377.477" filterUnits="userSpaceOnUse" color-interpolation-filters="sRGB">
<feFlood flood-opacity="0" result="BackgroundImageFix"/>
<feColorMatrix in="SourceAlpha" type="matrix" values="0 0 0 0 0 0 0 0 0 0 0 0 0 0 0 0 0 0 127 0" result="hardAlpha"/>
<feOffset dy="4"/>
<feGaussianBlur stdDeviation="6"/>
<feComposite in2="hardAlpha" operator="out"/>
<feColorMatrix type="matrix" values="0 0 0 0 0.152941 0 0 0 0 0.286275 0 0 0 0 0.588235 0 0 0 0.12 0"/>
<feBlend mode="normal" in2="BackgroundImageFix" result="effect1_dropShadow_5719_14830"/>
<feBlend mode="normal" in="SourceGraphic" in2="effect1_dropShadow_5719_14830" result="shape"/>
</filter>
<filter id="filter2_d_5719_14830" x="31.0373" y="475.571" width="346.054" height="106.868" filterUnits="userSpaceOnUse" color-interpolation-filters="sRGB">
<feFlood flood-opacity="0" result="BackgroundImageFix"/>
<feColorMatrix in="SourceAlpha" type="matrix" values="0 0 0 0 0 0 0 0 0 0 0 0 0 0 0 0 0 0 127 0" result="hardAlpha"/>
<feOffset dy="4"/>
<feGaussianBlur stdDeviation="2"/>
<feComposite in2="hardAlpha" operator="out"/>
<feColorMatrix type="matrix" values="0 0 0 0 0 0 0 0 0 0 0 0 0 0 0 0 0 0 0.25 0"/>
<feBlend mode="normal" in2="BackgroundImageFix" result="effect1_dropShadow_5719_14830"/>
<feBlend mode="normal" in="SourceGraphic" in2="effect1_dropShadow_5719_14830" result="shape"/>
</filter>
<clipPath id="clip0_5719_14830">
<rect width="24" height="24" fill="white" transform="translate(22.3608 162.58) scale(1.0012) rotate(-5)"/>
</clipPath>
<clipPath id="clip1_5719_14830">
<rect width="24" height="24" fill="white" transform="translate(190.176 504.105) scale(1.0012) rotate(-5)"/>
</clipPath>
<clipPath id="clip2_5719_14830">
<rect width="24" height="24" fill="white" transform="translate(256.563 498.297) scale(1.0012) rotate(-5)"/>
</clipPath>
<clipPath id="clip3_5719_14830">
<rect width="101.33" height="122.979" fill="white" transform="translate(413.543 418.394) scale(1.0012) rotate(133.013)"/>
</clipPath>
</defs>
</svg>
