<svg width="335" height="213" viewBox="0 0 335 213" fill="none" xmlns="http://www.w3.org/2000/svg">
<rect x="24.2356" y="84.4351" width="288.331" height="128.082" rx="10.4713" transform="rotate(-5.5659 24.2356 84.4351)" fill="#F1F1F1" stroke="#878787" stroke-width="0.910548" stroke-dasharray="4.55 4.55"/>
<g filter="url(#filter0_d_6026_15069)">
<rect y="27.9537" width="288" height="168" rx="8" transform="rotate(-5.57 0 27.9537)" fill="white" shape-rendering="crispEdges"/>
<path d="M34.173 67.2221L31.68 65.3553C29.1263 63.4386 26.8012 61.516 24.7046 59.5878C22.6072 57.6605 21.4344 55.4251 21.1864 52.8816C20.9836 50.8026 21.511 48.9984 22.7685 47.4691C24.026 45.9399 25.6943 45.0739 27.7733 44.8711C28.9455 44.7568 30.0756 44.8975 31.1636 45.2934C32.2517 45.6901 33.2028 46.2841 34.0168 47.0755C34.6625 46.1418 35.4809 45.3751 36.4718 44.7757C37.4628 44.1771 38.5444 43.8207 39.7167 43.7064C41.7957 43.5036 43.5998 44.031 45.1291 45.2885C46.6584 46.546 47.5244 48.2143 47.7272 50.2933C47.9752 52.8368 47.2628 55.2618 45.5899 57.5684C43.917 59.875 41.9908 62.2175 39.8113 64.5958L37.756 66.8727C37.2926 67.3868 36.718 67.6773 36.0324 67.7441C35.3468 67.811 34.727 67.637 34.173 67.2221Z" fill="#3B69D1"/>
<path d="M59.2237 51.8984L58.9733 49.3306L70.3991 48.2163L70.6495 50.7841L66.3499 51.2035L67.4583 62.5695L64.6317 62.8452L63.5233 51.4791L59.2237 51.8984ZM76.2238 51.185C79.4883 50.8666 81.9526 53.0578 82.2457 56.0635C82.5388 59.0693 80.5443 61.6953 77.2798 62.0136C74.0153 62.332 71.551 60.1408 71.2578 57.1351C70.9647 54.1293 72.9593 51.5034 76.2238 51.185ZM77.0867 59.6211C78.699 59.4638 79.7871 58.0515 79.6182 56.3198C79.4474 54.5681 78.1089 53.4125 76.4965 53.5698C74.8245 53.7328 73.7146 55.1272 73.8854 56.8788C74.0562 58.6305 75.4146 59.7841 77.0867 59.6211ZM85.5182 65.7516L84.0623 50.8225L86.5903 50.5759L86.6699 51.392C87.3705 50.54 88.3032 50.007 89.6767 49.873C92.8616 49.5624 95.0151 51.8643 95.3005 54.7904C95.5859 57.7165 93.9176 60.3911 90.7327 60.7017C89.3592 60.8356 88.3411 60.4928 87.4891 59.7922L88.0462 65.5051L85.5182 65.7516ZM89.5513 52.2966C88.3769 52.4112 87.4719 53.0219 86.9261 54.0196L87.2329 57.1647C88.0028 58.0541 88.9869 58.4605 90.1414 58.3479C91.8533 58.181 92.8438 56.7983 92.673 55.0466C92.5021 53.2949 91.2632 52.1297 89.5513 52.2966ZM102.263 54.1114C101.978 51.1853 103.666 48.5088 106.831 48.2001C108.184 48.0681 109.201 48.391 110.053 49.0916L109.497 43.3986L112.045 43.1501L113.501 58.0793L110.953 58.3278L110.876 57.5316C110.175 58.3836 109.241 58.8967 107.887 59.0287C104.722 59.3374 102.548 57.0375 102.263 54.1114ZM104.911 53.8532C105.081 55.6049 106.3 56.7721 108.012 56.6051C109.147 56.4945 110.036 55.9255 110.623 54.9439L110.305 51.6793C109.539 50.8297 108.557 50.4432 107.422 50.5538C105.71 50.7208 104.74 52.1015 104.911 53.8532ZM121.231 45.5901L118.802 45.827L120.55 42.3207L123.297 42.0529L121.231 45.5901ZM125.609 55.2508C124.796 56.5961 123.319 57.5238 121.428 57.7082C117.865 58.0557 115.611 55.7636 115.326 52.8374C115.037 49.8715 116.669 47.2407 119.954 46.9204C122.74 46.6486 124.756 48.361 125.012 50.9885C125.067 51.5459 125.038 52.0712 124.991 52.4174L117.964 53.1026C118.386 54.9505 119.614 55.5943 121.186 55.4409C122.281 55.3342 123.19 54.7632 123.658 53.9942L125.609 55.2508ZM120.096 48.9964C118.802 49.1225 118.016 49.9226 117.865 51.2636L122.483 50.8132C122.345 49.8019 121.509 48.8585 120.096 48.9964ZM128.059 56.6596L127.081 46.6272L129.609 46.3806L129.683 47.1371C130.295 46.4142 131.103 45.8331 132.337 45.7127C133.611 45.5885 134.78 46.0371 135.542 47.048C136.173 46.1022 137.055 45.2526 138.747 45.0876C140.817 44.8857 142.589 46.1598 142.864 48.9864L143.466 55.1571L140.918 55.4056L140.326 49.3344C140.208 48.1201 139.477 47.4278 138.343 47.5384C137.248 47.6452 136.724 48.4598 136.392 49.1754C136.426 49.3128 136.439 49.4522 136.455 49.6114L137.057 55.7822L134.509 56.0306L133.917 49.9594C133.798 48.7452 133.068 48.0528 131.933 48.1635C130.778 48.2761 130.265 49.1903 129.949 49.8641L130.587 56.4131L128.059 56.6596ZM149.207 54.8986C147.197 55.0947 145.711 54.0741 145.53 52.2229C145.382 50.7101 146.446 49.4609 148.561 48.893L151.576 48.0765L151.551 47.8177C151.448 46.7627 150.586 46.1636 149.431 46.2762C148.456 46.3713 147.744 46.9029 147.278 47.6918L145.289 46.459C146.065 45.1375 147.464 44.2375 149.295 44.0589C152.202 43.7755 153.863 45.3617 154.079 47.5712L154.712 54.0604L152.184 54.3069L152.089 53.3315C151.527 54.17 150.382 54.7841 149.207 54.8986ZM148.026 51.8589C148.092 52.5357 148.673 52.9212 149.529 52.8377C150.683 52.7251 151.467 52.1061 151.887 51.2614L151.749 49.8481L149.399 50.4791C148.362 50.7612 147.966 51.2418 148.026 51.8589ZM157.607 53.7781L156.628 43.7457L159.156 43.4991L159.253 44.4944C159.844 43.7536 160.65 43.1525 161.784 43.0419C162.123 43.0089 162.427 43.0395 162.674 43.0958L162.916 45.584C162.59 45.5354 162.246 45.5087 161.788 45.5534C160.554 45.6737 159.824 46.4282 159.508 47.102L160.135 53.5315L157.607 53.7781ZM169.889 50.5708C170.884 50.4738 171.635 49.9383 172.045 49.195L174.163 50.5156C173.348 51.841 171.953 52.7809 170.122 52.9595C166.658 53.2973 164.345 51.011 164.06 48.0848C163.774 45.1587 165.602 42.4686 169.066 42.1309C170.897 41.9523 172.447 42.6048 173.503 43.7477L171.68 45.4527C171.135 44.8026 170.294 44.4225 169.259 44.5234C167.606 44.6845 166.516 46.0769 166.687 47.8286C166.86 49.6002 168.197 50.7358 169.889 50.5708ZM176.21 51.9638L174.754 37.0347L177.282 36.7881L177.837 42.4811C178.468 41.7364 179.353 41.1276 180.686 40.9976C182.856 40.786 184.734 42.11 185.023 45.0759L185.605 51.0476L183.057 51.2961L182.485 45.4239C182.355 44.0902 181.536 43.326 180.282 43.4483C179.008 43.5726 178.415 44.4945 178.099 45.1684L178.738 51.7173L176.21 51.9638ZM197.553 48.2346C196.74 49.5799 195.263 50.5077 193.372 50.6921C189.808 51.0396 187.555 48.7474 187.27 45.8213C186.981 42.8554 188.613 40.2245 191.898 39.9042C194.684 39.6325 196.7 41.3449 196.956 43.9724C197.011 44.5298 196.981 45.0551 196.935 45.4012L189.908 46.0865C190.33 47.9343 191.558 48.5782 193.13 48.4248C194.225 48.318 195.134 47.7471 195.602 46.9781L197.553 48.2346ZM192.04 41.9802C190.746 42.1064 189.96 42.9065 189.809 44.2474L194.427 43.7971C194.288 42.7858 193.453 41.8424 192.04 41.9802ZM198.849 48.289L200.374 46.6132C201.067 47.3293 201.858 47.8148 202.813 47.7216C203.629 47.6421 204.001 47.1236 203.942 46.5264C203.772 44.7747 199.038 45.8994 198.695 42.3761C198.522 40.6045 199.885 39.1253 201.975 38.9214C203.508 38.772 204.973 39.3726 205.785 40.2781L204.256 41.9142C203.677 41.3276 202.969 40.8742 202.193 40.9499C201.397 41.0275 201.061 41.5023 201.112 42.0199C201.279 43.7318 206.018 42.6667 206.355 46.1303C206.521 48.2442 204.942 49.5637 203.051 49.7481C201.259 49.9228 199.916 49.3305 198.849 48.289Z" fill="#161616"/>
<path d="M25.748 108.836L24.6609 97.6893L26.1578 97.5433L27.2449 108.69L25.748 108.836ZM30.4522 108.378L29.6695 100.352L31.0231 100.22L31.1116 101.127C31.6946 100.347 32.473 99.7568 33.6673 99.6403C35.4668 99.4648 36.9225 100.545 37.1445 102.822L37.6182 107.679L36.2646 107.811L35.7956 103.002C35.6559 101.568 34.763 100.82 33.5208 100.941C32.3584 101.054 31.6911 101.794 31.2638 102.688L31.8058 108.246L30.4522 108.378ZM39.3757 106.398L40.252 105.493C40.8777 106.139 41.5853 106.472 42.3975 106.393C43.2892 106.306 43.746 105.715 43.6777 105.014C43.5022 103.215 39.5513 104.243 39.2749 101.408C39.1522 100.15 40.1182 99.0112 41.6629 98.8606C42.8095 98.7488 43.8496 99.1939 44.483 99.9199L43.6211 100.808C43.1322 100.245 42.4898 99.9213 41.7891 99.9897C40.9292 100.074 40.517 100.628 40.5776 101.249C40.7531 103.049 44.7261 102.082 44.9932 104.821C45.1232 106.32 44.0205 107.376 42.5236 107.522C41.2497 107.646 40.1967 107.234 39.3757 106.398ZM47.7851 110.642L46.6203 98.6986L47.9739 98.5666L48.0671 99.5221C48.7045 98.6401 49.599 98.0866 50.7933 97.9702C53.3094 97.7248 55.1119 99.5585 55.3402 101.899C55.5685 104.24 54.1542 106.388 51.6382 106.633C50.4438 106.75 49.4592 106.379 48.6634 105.637L49.1387 110.51L47.7851 110.642ZM50.7583 99.2597C49.6436 99.3684 48.725 100.005 48.2131 101.019L48.5175 104.14C49.2332 105.051 50.2559 105.482 51.3547 105.375C53.0586 105.208 54.0891 103.742 53.9229 102.038C53.7567 100.334 52.4622 99.0935 50.7583 99.2597ZM57.6143 95.5205C57.0888 95.5718 56.6169 95.1838 56.5656 94.6583C56.5159 94.1487 56.904 93.6768 57.4295 93.6255C57.955 93.5743 58.4109 93.9639 58.4606 94.4735C58.5119 94.999 58.1398 95.4693 57.6143 95.5205ZM57.9157 105.699L57.133 97.6734L58.4865 97.5414L59.2692 105.567L57.9157 105.699ZM62.13 105.288L61.3473 97.2624L62.7009 97.1304L62.7988 98.1337C63.3196 97.3755 64.0071 96.8423 65.0263 96.7429C65.2811 96.7181 65.523 96.7266 65.7204 96.7717L65.8493 98.0934C65.6042 98.053 65.3622 98.0444 65.0437 98.0755C63.9927 98.178 63.3607 98.7862 62.9463 99.6465L63.4836 105.156L62.13 105.288ZM74.9826 102.701C74.332 103.777 73.1997 104.53 71.7028 104.676C68.9957 104.94 67.1295 103.113 66.9012 100.772C66.6636 98.3355 68.0394 96.2883 70.5236 96.046C72.7053 95.8333 74.2716 97.2238 74.4642 99.1984C74.4952 99.5169 74.477 99.8241 74.4509 100.052L68.2882 100.653C68.5239 102.575 69.8634 103.618 71.5833 103.45C72.6183 103.349 73.4476 102.786 73.9032 102.018L74.9826 102.701ZM70.6036 97.1957C69.2818 97.3246 68.4343 98.195 68.2828 99.6083L73.092 99.1393C72.9293 97.9656 72.0208 97.0575 70.6036 97.1957ZM76.5152 103.885L76.3956 102.659L80.5816 96.6245L75.9635 97.0749L75.8439 95.8487L82.1182 95.2368L82.2378 96.463L78.0358 102.499L82.8928 102.026L83.0124 103.252L76.5152 103.885ZM83.6321 98.4169L87.9317 97.9976L88.0591 99.3034L83.7595 99.7227L83.6321 98.4169ZM87.9893 94.6642L89.4544 94.5214L92.6627 100.88L94.582 94.0213L96.0471 93.8784L93.6927 102.21L91.9091 102.384L87.9893 94.6642ZM101.213 93.0531C103.793 92.8015 105.755 94.6197 105.983 96.9606C106.211 99.3015 104.638 101.464 102.058 101.716C99.4624 101.969 97.5166 100.149 97.2883 97.8085C97.06 95.4676 98.6176 93.3062 101.213 93.0531ZM101.95 100.44C103.622 100.277 104.711 98.7565 104.55 97.1004C104.387 95.4283 103.025 94.1624 101.353 94.3255C99.6336 94.4932 98.5425 95.9982 98.7056 97.6703C98.8686 99.3424 100.23 100.608 101.95 100.44ZM113.804 96.7766L113.357 92.1903L114.711 92.0583L115.153 96.5968C115.388 99.0014 114.139 100.538 111.957 100.751C109.792 100.962 108.27 99.6956 108.035 97.291L107.593 92.7525L108.946 92.6205L109.393 97.2067C109.547 98.7833 110.48 99.6086 111.849 99.4751C113.187 99.3446 113.958 98.3531 113.804 96.7766ZM117.163 98.8122L118.039 97.9069C118.665 98.5532 119.373 98.8861 120.185 98.8069C121.076 98.7199 121.533 98.1288 121.465 97.4281C121.289 95.6286 117.339 96.657 117.062 93.8224C116.939 92.5644 117.905 91.4252 119.45 91.2746C120.597 91.1628 121.637 91.6079 122.27 92.3339L121.408 93.2217C120.919 92.6585 120.277 92.3354 119.576 92.4037C118.716 92.4875 118.304 93.0422 118.365 93.6632C118.54 95.4627 122.513 94.4965 122.78 97.2355C122.91 98.734 121.808 99.79 120.311 99.936C119.037 100.06 117.984 99.6484 117.163 98.8122ZM128.406 94.7738C128.178 92.4329 129.592 90.2855 132.108 90.0401C133.303 89.9237 134.287 90.2939 135.083 91.0361L134.608 86.1632L135.961 86.0312L137.126 97.9746L135.773 98.1066L135.679 97.1511C135.042 98.0331 134.147 98.5866 132.953 98.7031C130.437 98.9484 128.635 97.1147 128.406 94.7738ZM129.839 94.6341C130.006 96.338 131.284 97.5797 132.988 97.4136C134.103 97.3049 135.037 96.6671 135.535 95.6701L135.227 92.5171C134.513 91.6222 133.491 91.1914 132.392 91.2986C130.688 91.4647 129.673 92.9301 129.839 94.6341ZM146.985 95.6788C146.334 96.7551 145.202 97.5085 143.705 97.6545C140.998 97.9185 139.132 96.091 138.903 93.7501C138.666 91.3137 140.042 89.2665 142.526 89.0242C144.707 88.8115 146.274 90.202 146.466 92.1766C146.497 92.4951 146.479 92.8023 146.453 93.0299L140.29 93.6309C140.526 95.5531 141.866 96.596 143.585 96.4283C144.621 96.3274 145.45 95.7642 145.905 94.9964L146.985 95.6788ZM142.606 90.1739C141.284 90.3028 140.436 91.1732 140.285 92.5865L145.094 92.1175C144.931 90.9438 144.023 90.0357 142.606 90.1739ZM148.203 95.7851L149.079 94.8798C149.705 95.5261 150.413 95.859 151.225 95.7798C152.117 95.6928 152.573 95.1017 152.505 94.401C152.33 92.6015 148.379 93.6299 148.102 90.7953C147.98 89.5373 148.946 88.3981 150.49 88.2475C151.637 88.1357 152.677 88.5808 153.31 89.3068L152.449 90.1946C151.96 89.6314 151.317 89.3082 150.617 89.3766C149.757 89.4604 149.345 90.0151 149.405 90.6361C149.581 92.4356 153.554 91.4694 153.821 94.2084C153.951 95.7068 152.848 96.7629 151.351 96.9088C150.077 97.0331 149.024 96.6213 148.203 95.7851ZM159.447 91.7467C159.218 89.4058 160.632 87.2584 163.149 87.013C164.343 86.8966 165.327 87.2667 166.123 88.009L165.648 83.1361L167.002 83.0041L168.166 94.9475L166.813 95.0795L166.72 94.124C166.082 95.006 165.188 95.5595 163.993 95.6759C161.477 95.9213 159.675 94.0876 159.447 91.7467ZM160.88 91.6069C161.046 93.3109 162.324 94.5526 164.028 94.3865C165.143 94.2777 166.078 93.64 166.575 92.643L166.268 89.49C165.553 88.5951 164.531 88.1643 163.432 88.2715C161.728 88.4376 160.714 89.903 160.88 91.6069ZM174.189 84.9717L172.868 85.1006L174.266 82.2957L175.795 82.1466L174.189 84.9717ZM178.025 92.6517C177.374 93.728 176.242 94.4814 174.745 94.6274C172.038 94.8914 170.172 93.0639 169.944 90.723C169.706 88.2866 171.082 86.2394 173.566 85.9971C175.748 85.7843 177.314 87.1749 177.507 89.1495C177.538 89.468 177.519 89.7752 177.493 90.0028L171.331 90.6038C171.566 92.526 172.906 93.5689 174.626 93.4012C175.661 93.3003 176.49 92.7371 176.946 91.9693L178.025 92.6517ZM173.646 87.1468C172.324 87.2757 171.477 88.146 171.325 89.5594L176.134 89.0904C175.972 87.9167 175.063 87.0086 173.646 87.1468ZM180.273 93.7668L179.49 85.7409L180.844 85.6089L180.929 86.4847C181.466 85.725 182.214 85.1537 183.329 85.045C184.491 84.9317 185.498 85.364 186.091 86.335C186.642 85.3971 187.421 84.6459 188.807 84.5108C190.526 84.3431 191.896 85.367 192.109 87.5486L192.598 92.5648L191.245 92.6968L190.76 87.7284C190.63 86.3907 189.807 85.6993 188.66 85.8112C187.641 85.9106 186.98 86.5537 186.546 87.5445C186.579 87.7181 186.612 87.8917 186.631 88.0828L187.12 93.099L185.767 93.231L185.282 88.2626C185.152 86.925 184.345 86.232 183.182 86.3454C182.083 86.4525 181.465 87.2041 181.084 88.0772L181.626 93.6348L180.273 93.7668ZM197.53 92.3089C195.953 92.4627 194.801 91.6909 194.667 90.3214C194.549 89.1111 195.389 88.1611 197.065 87.7083L199.729 86.9984L199.674 86.4411C199.566 85.3264 198.707 84.767 197.561 84.8789C196.637 84.9689 195.931 85.4719 195.504 86.2048L194.408 85.5239C195.016 84.5001 196.089 83.8006 197.49 83.6639C199.529 83.4652 200.855 84.5415 201.028 86.3091L201.553 91.6915L200.199 91.8235L200.1 90.8044C199.571 91.6437 198.565 92.208 197.53 92.3089ZM196.032 90.1401C196.099 90.8248 196.704 91.2641 197.644 91.1725C198.711 91.0684 199.537 90.4734 199.979 89.5623L199.825 87.9858L197.491 88.6153C196.411 88.9135 195.965 89.4553 196.032 90.1401ZM204.268 91.4267L203.486 83.4008L204.839 83.2688L204.937 84.272C205.458 83.5139 206.145 82.9807 207.164 82.8813C207.419 82.8564 207.661 82.865 207.859 82.91L207.987 84.2318C207.742 84.1914 207.5 84.1828 207.182 84.2139C206.131 84.3164 205.499 84.9246 205.084 85.7849L205.622 91.2947L204.268 91.4267ZM213.717 89.5407C214.704 89.4444 215.47 88.8875 215.895 88.1387L217.041 88.8468C216.391 89.923 215.29 90.6734 213.825 90.8162C211.166 91.0756 209.268 89.2512 209.039 86.9103C208.811 84.5694 210.321 82.4127 212.98 82.1533C214.429 82.012 215.671 82.55 216.516 83.4643L215.528 84.3805C214.966 83.728 214.108 83.3295 213.105 83.4273C211.385 83.595 210.29 85.0682 210.457 86.7721C210.624 88.4919 211.981 89.71 213.717 89.5407ZM219.026 89.9875L217.862 78.0441L219.215 77.9121L219.686 82.7372C220.269 81.957 221.047 81.3666 222.241 81.2502C224.041 81.0747 225.497 82.1545 225.719 84.4317L226.192 89.2886L224.839 89.4206L224.37 84.6115C224.23 83.1783 223.353 82.4278 222.095 82.5505C220.917 82.6654 220.267 83.4201 219.838 84.2978L220.38 89.8555L219.026 89.9875ZM235.922 87.0055C235.272 88.0817 234.139 88.8351 232.642 88.9811C229.935 89.2451 228.069 87.4176 227.841 85.0767C227.603 82.6403 228.979 80.5931 231.463 80.3508C233.645 80.1381 235.211 81.5286 235.404 83.5032C235.435 83.8217 235.417 84.129 235.391 84.3566L229.228 84.9576C229.463 86.8798 230.803 87.9227 232.523 87.7549C233.558 87.654 234.387 87.0908 234.843 86.323L235.922 87.0055ZM231.543 81.5005C230.221 81.6294 229.374 82.4998 229.222 83.9132L234.032 83.4441C233.869 82.2704 232.96 81.3623 231.543 81.5005ZM237.141 87.1117L238.017 86.2064C238.643 86.8527 239.35 87.1856 240.162 87.1064C241.054 87.0194 241.511 86.4283 241.443 85.7276C241.267 83.9281 237.316 84.9565 237.04 82.1219C236.917 80.8639 237.883 79.7247 239.428 79.5741C240.574 79.4623 241.614 79.9074 242.248 80.6334L241.386 81.5212C240.897 80.958 240.255 80.6349 239.554 80.7032C238.694 80.7871 238.282 81.3417 238.343 81.9627C238.518 83.7622 242.491 82.796 242.758 85.535C242.888 87.0335 241.785 88.0895 240.289 88.2355C239.015 88.3597 237.962 87.948 237.141 87.1117ZM249.46 87.0195L248.295 75.0762L249.649 74.9442L250.814 86.8875L249.46 87.0195ZM260.68 84.591C260.029 85.6673 258.897 86.4207 257.4 86.5667C254.693 86.8307 252.827 85.0032 252.598 82.6623C252.361 80.2259 253.737 78.1787 256.221 77.9364C258.402 77.7237 259.969 79.1142 260.161 81.0888C260.192 81.4073 260.174 81.7145 260.148 81.9421L253.985 82.5431C254.221 84.4653 255.561 85.5083 257.28 85.3405C258.316 85.2396 259.145 84.6764 259.6 83.9086L260.68 84.591ZM256.301 79.0861C254.979 79.215 254.131 80.0854 253.98 81.4987L258.789 81.0297C258.626 79.856 257.718 78.9479 256.301 79.0861ZM261.898 84.6973L262.774 83.792C263.4 84.4383 264.108 84.7712 264.92 84.692C265.812 84.605 266.268 84.0139 266.2 83.3132C266.025 81.5137 262.074 82.5421 261.797 79.7075C261.675 78.4495 262.641 77.3103 264.185 77.1597C265.332 77.0479 266.372 77.493 267.005 78.219L266.144 79.1068C265.655 78.5436 265.012 78.2204 264.312 78.2888C263.452 78.3726 263.04 78.9273 263.1 79.5483C263.276 81.3478 267.249 80.3816 267.516 83.1206C267.646 84.6191 266.543 85.6751 265.046 85.821C263.772 85.9453 262.719 85.5335 261.898 84.6973ZM28.1251 136.673L26.9604 124.73L28.314 124.598L28.4071 125.553C29.0445 124.671 29.939 124.118 31.1334 124.001C33.6494 123.756 35.4519 125.59 35.6802 127.931C35.9085 130.271 34.4943 132.419 31.9782 132.664C30.7839 132.781 29.7993 132.411 29.0035 131.668L29.4787 136.541L28.1251 136.673ZM31.0984 125.291C29.9837 125.4 29.0651 126.036 28.5531 127.05L28.8575 130.171C29.5733 131.082 30.5959 131.513 31.6947 131.406C33.3986 131.24 34.4291 129.773 34.2629 128.069C34.0968 126.365 32.8023 125.125 31.0984 125.291ZM38.2557 131.73L37.091 119.787L38.4446 119.655L39.6093 131.598L38.2557 131.73ZM47.7241 127.335L47.2769 122.748L48.6305 122.616L49.0731 127.155C49.3076 129.56 48.0588 131.096 45.8771 131.309C43.7114 131.52 42.1893 130.254 41.9548 127.849L41.5122 123.311L42.8658 123.179L43.3131 127.765C43.4668 129.341 44.3993 130.167 45.7688 130.033C47.1065 129.903 47.8779 128.911 47.7241 127.335ZM51.0826 129.37L51.9588 128.465C52.5845 129.111 53.2922 129.444 54.1043 129.365C54.9961 129.278 55.4529 128.687 55.3845 127.986C55.2091 126.187 51.2582 127.215 50.9818 124.381C50.8591 123.123 51.8251 121.983 53.3698 121.833C54.5163 121.721 55.5564 122.166 56.1899 122.892L55.328 123.78C54.839 123.217 54.1966 122.894 53.4959 122.962C52.636 123.046 52.2239 123.6 52.2845 124.221C52.46 126.021 56.4329 125.055 56.7001 127.794C56.8301 129.292 55.7274 130.348 54.2305 130.494C52.9566 130.618 51.9036 130.207 51.0826 129.37ZM68.6561 125.293L68.2088 120.707L69.5624 120.575L70.005 125.114C70.2395 127.518 68.9907 129.055 66.8091 129.267C64.6434 129.479 63.1213 128.212 62.8868 125.808L62.4442 121.269L63.7977 121.137L64.245 125.724C64.3988 127.3 65.3313 128.125 66.7008 127.992C68.0384 127.861 68.8098 126.87 68.6561 125.293ZM73.2743 125.599L72.8736 121.49L71.3608 121.638L71.2412 120.411L72.754 120.264L72.5583 118.257L73.9278 118.124L74.1235 120.13L76.9103 119.859L77.0299 121.085L74.2431 121.357L74.6438 125.465C74.7665 126.723 75.4376 127.011 76.409 126.917C76.9345 126.865 77.2945 126.766 77.5847 126.609L77.7027 127.819C77.3361 128.016 76.9123 128.121 76.339 128.177C74.5555 128.351 73.4653 127.557 73.2743 125.599ZM79.4605 117.504C78.935 117.555 78.4631 117.167 78.4119 116.642C78.3622 116.132 78.7502 115.66 79.2757 115.609C79.8012 115.558 80.2572 115.947 80.3069 116.457C80.3581 116.982 79.986 117.453 79.4605 117.504ZM79.7619 127.683L78.9792 119.657L80.3328 119.525L81.1155 127.551L79.7619 127.683ZM83.9763 127.272L82.8116 115.328L84.1652 115.196L85.3299 127.14L83.9763 127.272ZM87.8893 116.682C87.3638 116.733 86.8919 116.345 86.8407 115.82C86.791 115.31 87.179 114.838 87.7045 114.787C88.23 114.736 88.686 115.125 88.7357 115.635C88.7869 116.16 88.4148 116.631 87.8893 116.682ZM88.1907 126.861L87.408 118.835L88.7616 118.703L89.5443 126.729L88.1907 126.861ZM91.3758 125.441L92.2521 124.536C92.8777 125.182 93.5854 125.515 94.3975 125.436C95.2893 125.349 95.7461 124.757 95.6778 124.057C95.5023 122.257 91.5514 123.286 91.275 120.451C91.1523 119.193 92.1183 118.054 93.663 117.903C94.8095 117.791 95.8497 118.237 96.4831 118.963L95.6212 119.85C95.1322 119.287 94.4898 118.964 93.7892 119.032C92.9293 119.116 92.5171 119.671 92.5777 120.292C92.7532 122.091 96.7262 121.125 96.9933 123.864C97.1233 125.363 96.0206 126.419 94.5237 126.565C93.2498 126.689 92.1968 126.277 91.3758 125.441ZM102.48 116.079L101.158 116.208L102.556 113.403L104.085 113.254L102.48 116.079ZM106.315 123.759C105.664 124.835 104.532 125.589 103.035 125.735C100.328 125.999 98.462 124.171 98.2337 121.83C97.9961 119.394 99.3719 117.347 101.856 117.104C104.038 116.892 105.604 118.282 105.797 120.257C105.828 120.575 105.809 120.882 105.783 121.11L99.6207 121.711C99.8564 123.633 101.196 124.676 102.916 124.508C103.951 124.407 104.78 123.844 105.236 123.076L106.315 123.759ZM101.936 118.254C100.614 118.383 99.7668 119.253 99.6153 120.667L104.424 120.198C104.262 119.024 103.353 118.116 101.936 118.254ZM115.537 122.86C114.886 123.936 113.754 124.689 112.257 124.835C109.55 125.099 107.684 123.272 107.456 120.931C107.218 118.494 108.594 116.447 111.078 116.205C113.26 115.992 114.826 117.383 115.019 119.357C115.05 119.676 115.031 119.983 115.005 120.211L108.843 120.812C109.078 122.734 110.418 123.777 112.138 123.609C113.173 123.508 114.002 122.945 114.458 122.177L115.537 122.86ZM111.158 117.355C109.836 117.483 108.989 118.354 108.837 119.767L113.646 119.298C113.484 118.124 112.575 117.216 111.158 117.355ZM116.755 122.966L117.632 122.06C118.257 122.707 118.965 123.04 119.777 122.96C120.669 122.874 121.126 122.282 121.057 121.582C120.882 119.782 116.931 120.811 116.655 117.976C116.532 116.718 117.498 115.579 119.043 115.428C120.189 115.316 121.229 115.762 121.863 116.487L121.001 117.375C120.512 116.812 119.869 116.489 119.169 116.557C118.309 116.641 117.897 117.196 117.957 117.817C118.133 119.616 122.106 118.65 122.373 121.389C122.503 122.888 121.4 123.944 119.903 124.09C118.629 124.214 117.576 123.802 116.755 122.966Z" fill="#161616"/>
<path d="M149.085 160.107L148.134 150.354L151.882 149.988C154.933 149.69 157.228 151.731 157.485 154.365C157.742 156.998 155.885 159.444 152.833 159.742L149.085 160.107ZM152.027 151.184L149.56 151.424L150.278 158.781L152.744 158.541C154.918 158.329 156.332 156.531 156.133 154.497C155.934 152.448 154.2 150.972 152.027 151.184ZM162.792 150.556L161.635 150.669L162.859 148.214L164.196 148.084L162.792 150.556ZM166.148 157.276C165.579 158.217 164.588 158.877 163.278 159.004C160.909 159.235 159.276 157.636 159.077 155.588C158.869 153.456 160.073 151.665 162.246 151.453C164.155 151.267 165.526 152.484 165.694 154.211C165.721 154.49 165.705 154.759 165.683 154.958L160.29 155.484C160.496 157.166 161.669 158.078 163.173 157.932C164.079 157.843 164.805 157.35 165.203 156.679L166.148 157.276ZM162.316 152.459C161.16 152.572 160.418 153.333 160.286 154.57L164.494 154.16C164.351 153.133 163.556 152.338 162.316 152.459ZM171.238 157.103C172.102 157.019 172.772 156.531 173.144 155.876L174.147 156.496C173.578 157.437 172.615 158.094 171.333 158.219C169.006 158.446 167.346 156.85 167.146 154.801C166.946 152.753 168.267 150.866 170.594 150.639C171.862 150.515 172.949 150.986 173.688 151.786L172.824 152.588C172.332 152.017 171.581 151.668 170.703 151.754C169.198 151.9 168.24 153.189 168.386 154.68C168.533 156.185 169.72 157.251 171.238 157.103ZM178.105 149.906C180.362 149.686 182.079 151.277 182.279 153.325C182.478 155.374 181.101 157.266 178.844 157.486C176.573 157.708 174.87 156.116 174.671 154.067C174.471 152.019 175.834 150.128 178.105 149.906ZM178.749 156.37C180.212 156.228 181.166 154.897 181.024 153.448C180.882 151.985 179.691 150.877 178.228 151.02C176.723 151.167 175.768 152.483 175.911 153.946C176.053 155.41 177.245 156.517 178.749 156.37ZM189.122 153.164L188.731 149.151L189.915 149.036L190.303 153.007C190.508 155.111 189.415 156.456 187.506 156.642C185.611 156.827 184.279 155.719 184.074 153.615L183.687 149.643L184.871 149.528L185.263 153.541C185.397 154.92 186.213 155.642 187.411 155.526C188.582 155.411 189.257 154.544 189.122 153.164ZM191.245 148.906L192.527 148.781L195.334 154.345L197.014 148.344L198.295 148.219L196.235 155.509L194.675 155.661L191.245 148.906ZM200.432 155.1L199.747 148.077L200.931 147.962L201.017 148.839C201.473 148.176 202.074 147.71 202.966 147.623C203.189 147.601 203.401 147.608 203.573 147.648L203.686 148.804C203.472 148.769 203.26 148.761 202.981 148.789C202.062 148.878 201.509 149.41 201.146 150.163L201.616 154.984L200.432 155.1ZM205.706 145.653C205.247 145.698 204.834 145.359 204.789 144.899C204.745 144.453 205.085 144.04 205.545 143.995C206.005 143.95 206.404 144.291 206.447 144.737C206.492 145.197 206.166 145.608 205.706 145.653ZM205.97 154.56L205.285 147.537L206.47 147.422L207.155 154.444L205.97 154.56ZM209.658 154.2L208.973 147.177L210.157 147.062L210.243 147.94C210.699 147.276 211.3 146.81 212.192 146.723C212.415 146.701 212.627 146.709 212.799 146.748L212.912 147.905C212.698 147.869 212.486 147.862 212.207 147.889C211.288 147.979 210.735 148.511 210.372 149.263L210.842 154.085L209.658 154.2ZM218.952 153.294L217.932 142.843L219.117 142.728L220.136 153.178L218.952 153.294ZM224.567 152.943C223.188 153.078 222.179 152.402 222.062 151.204C221.959 150.145 222.694 149.314 224.16 148.918L226.491 148.296L226.444 147.809C226.348 146.833 225.597 146.344 224.594 146.442C223.786 146.521 223.168 146.961 222.794 147.602L221.836 147.006C222.367 146.11 223.307 145.498 224.533 145.379C226.316 145.205 227.477 146.146 227.628 147.693L228.087 152.403L226.903 152.518L226.816 151.627C226.353 152.361 225.473 152.855 224.567 152.943ZM223.257 151.045C223.315 151.644 223.845 152.029 224.667 151.949C225.601 151.858 226.323 151.337 226.71 150.54L226.575 149.16L224.533 149.711C223.588 149.972 223.198 150.446 223.257 151.045ZM234.219 151.805L233.2 141.354L234.384 141.239L235.403 151.689L234.219 151.805ZM237.643 142.539C237.183 142.584 236.77 142.244 236.725 141.784C236.682 141.338 237.021 140.925 237.481 140.881C237.941 140.836 238.34 141.177 238.383 141.623C238.428 142.082 238.103 142.494 237.643 142.539ZM237.907 151.445L237.222 144.423L238.406 144.307L239.091 151.33L237.907 151.445ZM240.693 150.203L241.46 149.411C242.008 149.976 242.627 150.267 243.338 150.198C244.118 150.122 244.518 149.605 244.458 148.992C244.304 147.417 240.847 148.317 240.605 145.837C240.498 144.736 241.343 143.739 242.695 143.607C243.698 143.51 244.608 143.899 245.162 144.534L244.408 145.311C243.98 144.818 243.418 144.536 242.805 144.595C242.053 144.669 241.692 145.154 241.745 145.697C241.899 147.272 245.375 146.427 245.609 148.823C245.723 150.134 244.758 151.058 243.448 151.186C242.333 151.295 241.412 150.935 240.693 150.203ZM247.946 148.089L247.596 144.494L246.272 144.623L246.167 143.55L247.491 143.421L247.32 141.665L248.518 141.549L248.689 143.304L251.128 143.066L251.232 144.139L248.794 144.377L249.145 147.972C249.252 149.073 249.839 149.325 250.689 149.242C251.149 149.197 251.464 149.11 251.718 148.973L251.821 150.032C251.5 150.204 251.13 150.296 250.628 150.345C249.067 150.497 248.113 149.803 247.946 148.089ZM259.617 148.161C259.047 149.102 258.057 149.761 256.747 149.889C254.378 150.12 252.745 148.521 252.545 146.473C252.337 144.341 253.541 142.55 255.715 142.338C257.624 142.152 258.994 143.368 259.163 145.096C259.19 145.375 259.174 145.644 259.151 145.843L253.759 146.369C253.965 148.051 255.137 148.963 256.642 148.816C257.548 148.728 258.273 148.235 258.672 147.563L259.617 148.161ZM255.785 143.344C254.628 143.456 253.887 144.218 253.754 145.455L257.962 145.044C257.82 144.017 257.025 143.223 255.785 143.344Z" fill="#161616"/>
<path d="M269.591 147.652C269.391 147.487 269.277 147.264 269.249 146.982C269.222 146.7 269.29 146.459 269.455 146.258L272.958 141.998L268.698 138.495C268.498 138.331 268.384 138.107 268.356 137.825C268.329 137.543 268.397 137.302 268.562 137.102C268.727 136.902 268.95 136.788 269.232 136.76C269.514 136.733 269.755 136.801 269.956 136.966L274.98 141.098C275.09 141.188 275.171 141.289 275.224 141.401C275.276 141.513 275.309 141.635 275.322 141.768C275.335 141.9 275.326 142.027 275.297 142.147C275.266 142.267 275.206 142.382 275.116 142.491L270.984 147.516C270.82 147.716 270.596 147.83 270.314 147.858C270.032 147.885 269.791 147.816 269.591 147.652Z" fill="#161616"/>
</g>
<path d="M248.862 123.785C249.721 119.289 250.563 114.978 251.388 110.667C251.557 109.808 251.675 109.202 251.708 108.09C251.742 107.265 251.776 105.514 250.883 105.665C250.159 105.867 249.671 106.103 249.233 107.568C248.121 111.357 247.583 115.281 247.027 119.171C246.538 122.606 246.218 125.233 245.966 128.298C245.848 129.73 246.555 130.302 247.869 130.134C249.048 129.982 250.26 129.848 251.388 129.477C255.464 128.164 259.489 126.749 263.547 125.368C264.052 125.2 264.456 125.099 265.029 124.812C265.719 124.459 266.242 124.24 266.039 123.516C265.854 122.825 264.844 122.859 264.339 122.977C260.095 123.869 251.372 125.857 250.883 125.857C252.298 123.65 253.561 121.579 254.942 119.575C264.625 105.665 275.217 92.5633 288.791 82.1392C299.535 73.8875 311.07 67.0503 323.65 61.9982C324.391 61.6951 325.115 61.3246 325.806 60.9541C326.749 60.4658 327.153 60.0448 326.934 59.5396C326.395 58.647 325.671 58.8154 325.081 58.8996C323.903 59.0512 322.741 59.4554 321.612 59.8427C306.574 65.181 293.405 73.6685 281.297 83.9243C268.869 94.4495 259.303 107.315 250.799 121.04C250.378 121.781 249.165 123.516 248.862 123.785Z" fill="black"/>
<defs>
<filter id="filter0_d_6026_15069" x="-25" y="-19" width="352.947" height="245.161" filterUnits="userSpaceOnUse" color-interpolation-filters="sRGB">
<feFlood flood-opacity="0" result="BackgroundImageFix"/>
<feColorMatrix in="SourceAlpha" type="matrix" values="0 0 0 0 0 0 0 0 0 0 0 0 0 0 0 0 0 0 127 0" result="hardAlpha"/>
<feOffset dy="6"/>
<feGaussianBlur stdDeviation="12.5"/>
<feComposite in2="hardAlpha" operator="out"/>
<feColorMatrix type="matrix" values="0 0 0 0 0.196078 0 0 0 0 0.196078 0 0 0 0 0.196078 0 0 0 0.1 0"/>
<feBlend mode="normal" in2="BackgroundImageFix" result="effect1_dropShadow_6026_15069"/>
<feBlend mode="normal" in="SourceGraphic" in2="effect1_dropShadow_6026_15069" result="shape"/>
</filter>
</defs>
</svg>
