<svg width="372" height="365" viewBox="0 0 372 365" fill="none" xmlns="http://www.w3.org/2000/svg">
<rect x="18.7365" y="28.9766" width="326.254" height="315.16" rx="11.5" transform="rotate(-5 18.7365 28.9766)" fill="#F1F1F1" stroke="#878787" stroke-dasharray="5 5"/>
<g filter="url(#filter0_d_3531_10726)">
<g clip-path="url(#clip0_3531_10726)">
<rect y="50.2931" width="328.255" height="315.909" rx="16" transform="rotate(-5 0 50.2931)" fill="white"/>
<path d="M23.4801 102.826L21.7681 101.079L24.06 100.267L23.5107 98.9493L21.3251 100.057L21.2711 97.6022L19.8514 97.7264L20.2244 100.153L17.8638 99.4433L17.5518 100.837L19.9656 101.236L18.567 103.256L19.7867 103.969L20.9147 101.796L22.4028 103.74L23.4801 102.826ZM25.6292 106.913C26.7228 108.023 28.0097 108.586 29.7644 108.432C31.7583 108.258 33.1954 106.862 33.0528 104.865C32.7235 101.101 27.5735 102.13 27.3726 99.833C27.2986 98.9876 27.8691 98.343 28.8421 98.2578C29.7513 98.1783 30.5631 98.6377 31.2966 99.4897L32.5464 98.1588C31.5555 97.1203 30.2949 96.4912 28.6838 96.6322C26.658 96.8094 25.3611 98.3373 25.5104 100.044C25.837 103.777 30.9883 102.764 31.1907 105.077C31.273 106.018 30.6894 106.696 29.5887 106.792C28.6157 106.877 27.6764 106.429 26.8616 105.568L25.6292 106.913ZM39.1461 97.9028L40.7967 95.0902L38.9783 95.2493L37.551 98.0424L39.1461 97.9028ZM42.7658 105.655L41.4857 104.803C41.0499 105.516 40.274 106.018 39.301 106.103C37.7537 106.238 36.6054 105.423 36.3402 103.678L42.2742 103.158C42.317 102.914 42.3328 102.543 42.3007 102.176C42.1221 100.134 40.5538 98.7441 38.3366 98.9381C35.7843 99.1614 34.4219 101.225 34.6326 103.634C34.8377 105.979 36.6552 107.829 39.4308 107.586C40.9302 107.455 42.104 106.726 42.7658 105.655ZM38.4247 100.313C39.7168 100.2 40.5155 101.062 40.6353 102.064L36.3125 102.442C36.4589 101.176 37.2283 100.417 38.4247 100.313ZM44.8755 106.789L46.5185 106.645L45.4718 94.6812L43.8288 94.8249L44.8755 106.789ZM56.3495 104.467L55.0694 103.614C54.6336 104.327 53.8577 104.829 52.8847 104.914C51.3374 105.05 50.1891 104.234 49.9239 102.489L55.8579 101.97C55.9007 101.725 55.9165 101.354 55.8844 100.987C55.7058 98.9455 54.1375 97.5557 51.9203 97.7497C49.368 97.973 48.0056 100.037 48.2163 102.446C48.4214 104.791 50.2389 106.641 53.0145 106.398C54.5139 106.267 55.6877 105.537 56.3495 104.467ZM52.0084 99.1243C53.3005 99.0112 54.0992 99.8736 54.2191 100.876L49.8962 101.254C50.0426 99.9874 50.812 99.229 52.0084 99.1243ZM62.0695 104.047C60.5063 104.183 59.285 103.085 59.1454 101.49C59.0073 99.9104 60.0178 98.6004 61.5651 98.465C62.4903 98.384 63.2632 98.7665 63.7642 99.3495L64.9698 98.2475C64.1495 97.3227 62.8973 96.7893 61.4298 96.9177C58.7339 97.1535 57.2175 99.2954 57.4227 101.64C57.6278 103.985 59.4931 105.831 62.1889 105.595C63.6724 105.466 64.797 104.724 65.4443 103.671L64.0657 102.795C63.6735 103.456 62.9788 103.967 62.0695 104.047ZM67.526 101.994C67.6977 103.956 68.7732 104.859 70.6555 104.694C71.2776 104.639 71.7172 104.521 72.0861 104.328L71.9591 102.876C71.6818 103.013 71.3205 103.109 70.7781 103.156C69.8848 103.234 69.2799 102.934 69.185 101.849L68.8556 98.0843L71.5195 97.8513L71.3897 96.3678L68.7258 96.6008L68.55 94.5909L66.891 94.7361L67.0669 96.746L65.5515 96.8786L65.6813 98.3621L67.1967 98.2295L67.526 101.994ZM74.0222 94.3372C74.6284 94.2842 75.0941 93.7291 75.0411 93.1229C74.9881 92.5168 74.433 92.051 73.8268 92.104C73.2207 92.157 72.7549 92.7121 72.8079 93.3183C72.8609 93.9245 73.416 94.3903 74.0222 94.3372ZM74.0524 104.236L75.6954 104.092L74.992 96.0526L73.349 96.1964L74.0524 104.236ZM81.3844 95.1719C78.7843 95.3994 77.1853 97.5163 77.3932 99.8931C77.6012 102.27 79.5434 104.077 82.1435 103.85C84.7596 103.621 86.3426 101.505 86.1347 99.1283C85.9267 96.7515 84.0004 94.943 81.3844 95.1719ZM82.0241 102.301C80.4768 102.436 79.2514 101.29 79.116 99.7424C78.9806 98.1951 79.9884 96.8532 81.5357 96.7178C83.0511 96.5852 84.2751 97.7158 84.4119 99.279C84.5459 100.81 83.5395 102.168 82.0241 102.301ZM88.5396 102.968L90.1826 102.825L89.7081 97.4012C90.0615 96.663 90.6555 95.9199 91.7561 95.8236C92.9046 95.7231 93.6735 96.4274 93.7851 97.7035L94.2024 102.473L95.8614 102.328L95.4385 97.4946C95.2347 95.1657 93.7742 94.0879 92.0036 94.2428C90.8551 94.3433 90.098 94.8757 89.5476 95.5668L89.4792 94.7852L87.8362 94.9289L88.5396 102.968ZM98.4158 102.104L100.059 101.961L99.5843 96.5371C99.9377 95.799 100.532 95.0559 101.632 94.9596C102.781 94.8591 103.55 95.5633 103.661 96.8395L104.079 101.609L105.738 101.464L105.315 96.6305C105.111 94.3016 103.65 93.2239 101.88 93.3788C100.731 93.4793 99.9742 94.0116 99.4239 94.7027L99.3555 93.9211L97.7125 94.0648L98.4158 102.104ZM115.436 99.2973L114.155 98.4449C113.72 99.1581 112.944 99.66 111.971 99.7451C110.423 99.8805 109.275 99.0648 109.01 97.3199L114.944 96.8007C114.987 96.5559 115.003 96.1848 114.97 95.8179C114.792 93.7761 113.224 92.3863 111.006 92.5803C108.454 92.8036 107.092 94.8677 107.302 97.2764C107.507 99.6213 109.325 101.471 112.1 101.229C113.6 101.097 114.774 100.368 115.436 99.2973ZM111.094 93.9549C112.387 93.8419 113.185 94.7043 113.305 95.7064L108.982 96.0846C109.129 94.8181 109.898 94.0596 111.094 93.9549ZM117.545 100.431L119.188 100.287L118.719 94.9273C119.074 94.2051 119.697 93.6042 120.717 93.5149C121.052 93.4856 121.312 93.5111 121.573 93.5526L121.432 91.9415C121.219 91.8958 120.975 91.8689 120.72 91.8912C119.731 91.9777 119.068 92.4858 118.564 93.1567L118.485 92.2475L116.842 92.3912L117.545 100.431ZM133.401 95.5717C133.522 96.9595 132.845 97.8545 131.617 97.962C130.357 98.0723 129.55 97.307 129.429 95.9192L129.027 91.3252L127.368 91.4703L127.763 95.9846C127.974 98.3933 129.487 99.7075 131.752 99.5093C134.002 99.3125 135.264 97.7555 135.053 95.3468L134.658 90.8325L132.999 90.9777L133.401 95.5717ZM137.858 98.6536L139.501 98.5099L139.027 93.0864C139.38 92.3482 139.974 91.6051 141.075 91.5088C142.223 91.4083 142.992 92.1126 143.104 93.3887L143.521 98.1582L145.18 98.013L144.757 93.1797C144.554 90.8508 143.093 89.7731 141.322 89.928C140.174 90.0285 139.417 90.5608 138.866 91.2519L138.798 90.4703L137.155 90.6141L137.858 98.6536ZM154.878 95.8465L153.598 94.9941C153.162 95.7074 152.386 96.2092 151.413 96.2943C149.866 96.4297 148.718 95.614 148.453 93.8691L154.387 93.3499C154.429 93.1051 154.445 92.734 154.413 92.3671C154.234 90.3253 152.666 88.9355 150.449 89.1295C147.897 89.3528 146.534 91.4169 146.745 93.8256C146.95 96.1705 148.768 98.0207 151.543 97.7778C153.043 97.6467 154.216 96.9171 154.878 95.8465ZM150.537 90.5041C151.829 90.3911 152.628 91.2535 152.748 92.2556L148.425 92.6338C148.571 91.3673 149.341 90.6088 150.537 90.5041ZM160.297 92.6399C160.503 94.9848 162.256 96.8406 164.793 96.6187C165.941 96.5182 166.766 96.0281 167.373 95.2516L167.445 96.0652L169.119 95.9186L168.073 83.955L166.398 84.1015L166.812 88.8391C166.08 88.1799 165.182 87.8406 164.033 87.941C161.497 88.1629 160.092 90.295 160.297 92.6399ZM162.036 92.4878C161.898 90.9086 162.829 89.6056 164.376 89.4702C165.381 89.3823 166.299 89.7681 166.966 90.5938L167.22 93.497C166.751 94.3899 165.901 94.9625 164.865 95.0532C163.317 95.1886 162.174 94.067 162.036 92.4878ZM174.009 95.7319C174.998 95.6454 175.964 95.1109 176.477 94.3587L176.556 95.268L178.199 95.1242L177.735 89.8124C177.58 88.0418 176.272 86.8703 174.102 87.0601C172.667 87.1857 171.571 87.8924 170.937 88.9122L172.248 89.7459C172.653 89.0514 173.304 88.5926 174.182 88.5159C175.218 88.4252 176.005 88.9671 176.092 89.9561L176.128 90.3709L173.566 91.029C171.884 91.4655 171.02 92.4252 171.126 93.6375C171.25 95.0572 172.414 95.8715 174.009 95.7319ZM172.779 93.4285C172.726 92.8224 173.103 92.3554 174.093 92.092L176.23 91.5353L176.351 92.9231C175.94 93.7307 175.2 94.2776 174.195 94.3655C173.366 94.4381 172.833 94.0506 172.779 93.4285ZM181.009 92.0655C181.181 94.0276 182.256 94.93 184.139 94.7654C184.761 94.7109 185.2 94.5921 185.569 94.3991L185.442 92.9475C185.165 93.0843 184.804 93.1802 184.261 93.2276C183.368 93.3058 182.763 93.0051 182.668 91.9204L182.339 88.1558L185.003 87.9228L184.873 86.4393L182.209 86.6723L182.033 84.6625L180.374 84.8076L180.55 86.8175L179.035 86.9501L179.164 88.4336L180.68 88.301L181.009 92.0655ZM194.523 92.3781L193.243 91.5256C192.807 92.2389 192.031 92.7407 191.058 92.8259C189.511 92.9612 188.363 92.1455 188.098 90.4006L194.032 89.8814C194.074 89.6366 194.09 89.2655 194.058 88.8986C193.88 86.8568 192.311 85.467 190.094 85.661C187.542 85.8843 186.179 87.9484 186.39 90.3571C186.595 92.702 188.413 94.5522 191.188 94.3093C192.688 94.1782 193.861 93.4486 194.523 92.3781ZM190.182 87.0356C191.474 86.9226 192.273 87.785 192.393 88.7871L188.07 89.1653C188.216 87.8988 188.986 87.1403 190.182 87.0356ZM199.943 89.1714C200.148 91.5163 201.901 93.3721 204.438 93.1502C205.586 93.0497 206.411 92.5596 207.018 91.7831L207.09 92.5967L208.765 92.4501L207.718 80.4865L206.043 80.633L206.457 85.3706C205.725 84.7114 204.827 84.3721 203.678 84.4725C201.142 84.6944 199.737 86.8265 199.943 89.1714ZM201.681 89.0193C201.543 87.4401 202.474 86.1371 204.021 86.0017C205.026 85.9138 205.944 86.2996 206.611 87.1253L206.865 90.0285C206.397 90.9214 205.547 91.494 204.51 91.5847C202.962 91.7201 201.819 90.5985 201.681 89.0193ZM211.621 85.4011L212.973 80.8304L211.107 80.9937L210.106 85.5337L211.621 85.4011ZM218.429 82.2176L220.08 79.405L218.261 79.5641L216.834 82.3572L218.429 82.2176ZM222.049 89.9699L220.769 89.1174C220.333 89.8307 219.557 90.3325 218.584 90.4177C217.037 90.553 215.889 89.7373 215.623 87.9924L221.557 87.4733C221.6 87.2284 221.616 86.8573 221.584 86.4904C221.405 84.4486 219.837 83.0589 217.62 83.2528C215.068 83.4761 213.705 85.5402 213.916 87.9489C214.121 90.2938 215.938 92.144 218.714 91.9012C220.213 91.77 221.387 91.0404 222.049 89.9699ZM217.708 84.6275C219 84.5144 219.799 85.3768 219.919 86.379L215.596 86.7572C215.742 85.4906 216.512 84.7321 217.708 84.6275ZM227.769 89.5498C226.206 89.6866 224.984 88.5879 224.845 86.9927C224.707 85.4135 225.717 84.1035 227.265 83.9682C228.19 83.8872 228.963 84.2697 229.464 84.8527L230.669 83.7507C229.849 82.8259 228.597 82.2925 227.129 82.4209C224.433 82.6567 222.917 84.7986 223.122 87.1435C223.327 89.4883 225.193 91.3343 227.888 91.0985C229.372 90.9687 230.496 90.2274 231.144 89.1742L229.765 88.2982C229.373 88.9594 228.678 89.4703 227.769 89.5498ZM232.976 90.3319L234.619 90.1882L234.144 84.7647C234.513 84.0251 235.091 83.2834 236.192 83.1871C237.341 83.0866 238.109 83.7909 238.221 85.067L238.638 89.8365L240.297 89.6914L239.874 84.8581C239.671 82.5291 238.226 81.45 236.44 81.6063C235.291 81.7068 234.534 82.2392 233.984 82.9303L233.572 78.2246L231.929 78.3683L232.976 90.3319ZM246.376 79.7726L248.026 76.96L246.208 77.1191L244.78 79.9122L246.376 79.7726ZM249.995 87.5249L248.715 86.6725C248.279 87.3857 247.503 87.8875 246.53 87.9727C244.983 88.1081 243.835 87.2923 243.57 85.5474L249.504 85.0283C249.547 84.7834 249.562 84.4123 249.53 84.0455C249.352 82.0037 247.783 80.6139 245.566 80.8079C243.014 81.0311 241.651 83.0953 241.862 85.5039C242.067 87.8488 243.885 89.699 246.66 89.4562C248.16 89.325 249.334 88.5954 249.995 87.5249ZM245.654 82.1825C246.946 82.0694 247.745 82.9318 247.865 83.934L243.542 84.3122C243.688 83.0456 244.458 82.2871 245.654 82.1825ZM254.25 88.7118C255.239 88.6253 256.205 88.0907 256.717 87.3386L256.797 88.2479L258.44 88.1041L257.975 82.7923C257.82 81.0216 256.512 79.8502 254.343 80.04C252.907 80.1656 251.812 80.8722 251.178 81.8921L252.488 82.7258C252.894 82.0313 253.545 81.5725 254.422 81.4958C255.459 81.405 256.246 81.947 256.332 82.936L256.368 83.3507L253.806 84.0089C252.124 84.4454 251.26 85.405 251.366 86.6173C251.49 88.037 252.655 88.8514 254.25 88.7118ZM253.019 86.4084C252.966 85.8022 253.343 85.3353 254.333 85.0719L256.47 84.5152L256.592 85.903C256.18 86.7105 255.44 87.2574 254.436 87.3454C253.606 87.4179 253.074 87.0305 253.019 86.4084ZM261.015 87.8788L262.658 87.735L262.184 82.3115C262.537 81.5734 263.131 80.8302 264.232 80.7339C265.38 80.6335 266.149 81.3377 266.261 82.6139L266.678 87.3834L268.337 87.2382L267.914 82.4049C267.71 80.076 266.25 78.9982 264.479 79.1532C263.331 79.2536 262.574 79.786 262.023 80.4771L261.955 79.6955L260.312 79.8392L261.015 87.8788ZM274.549 85.4571C272.985 85.5939 271.764 84.4952 271.625 82.9C271.486 81.3208 272.497 80.0108 274.044 79.8755C274.969 79.7945 275.742 80.177 276.243 80.76L277.449 79.658C276.629 78.7332 275.376 78.1998 273.909 78.3282C271.213 78.564 269.697 80.7059 269.902 83.0508C270.107 85.3956 271.972 87.2417 274.668 87.0058C276.152 86.876 277.276 86.1347 277.923 85.0815L276.545 84.2055C276.153 84.8667 275.458 85.3776 274.549 85.4571ZM286.587 84.3235L285.307 83.4711C284.871 84.1843 284.095 84.6862 283.122 84.7713C281.575 84.9067 280.427 84.0909 280.162 82.346L286.096 81.8269C286.138 81.582 286.154 81.211 286.122 80.8441C285.943 78.8023 284.375 77.4125 282.158 77.6065C279.606 77.8298 278.243 79.8939 278.454 82.3026C278.659 84.6474 280.477 86.4976 283.252 86.2548C284.752 86.1236 285.925 85.394 286.587 84.3235ZM282.246 78.9811C283.538 78.8681 284.337 79.7304 284.457 80.7326L280.134 81.1108C280.28 79.8443 281.05 79.0858 282.246 78.9811Z" fill="#161616"/>
<rect x="19.9816" y="126.547" width="295.23" height="47.0373" rx="7.5" transform="rotate(-5 19.9816 126.547)" fill="white"/>
<path d="M39.1161 155.513L46.6931 154.85L46.5549 153.271L41.0995 153.748L43.7661 150.606C44.9 149.237 45.7885 148.002 45.656 146.486C45.4927 144.62 43.8698 143.524 41.9716 143.69C40.1372 143.851 38.9073 144.859 38.1091 146.391L39.6215 147.143C40.1529 146.052 40.8163 145.367 41.9488 145.268C42.9697 145.178 43.7884 145.718 43.8819 146.786C43.974 147.839 43.4542 148.511 42.4381 149.758L38.978 153.934L39.1161 155.513ZM50.5253 154.515L55.3175 144.436L55.1793 142.856L47.2993 143.546L47.4374 145.125L53.4511 144.599L48.5154 154.691L50.5253 154.515ZM57.2863 157.09L58.9452 156.945L61.3722 141.511L59.7133 141.656L57.2863 157.09ZM66.4263 141.551C63.5709 141.801 62.4078 144.49 62.6995 147.824C62.9912 151.158 64.6037 153.605 67.459 153.355C70.3143 153.105 71.4614 150.417 71.1698 147.083C70.8781 143.749 69.2816 141.301 66.4263 141.551ZM66.5686 143.178C68.1797 143.037 69.1481 144.736 69.3672 147.241C69.585 149.729 68.9277 151.587 67.3166 151.728C65.6896 151.87 64.7211 150.171 64.502 147.667C64.2843 145.178 64.9415 143.32 66.5686 143.178ZM74.8732 152.385L79.6653 142.305L79.5272 140.726L71.6471 141.416L71.7853 142.995L77.799 142.469L72.8633 152.561L74.8732 152.385ZM81.6342 154.96L83.2931 154.815L85.7201 139.381L84.0612 139.526L81.6342 154.96ZM88.0144 151.235L95.5913 150.572L95.4532 148.993L89.9978 149.47L92.6643 146.328C93.7983 144.959 94.6868 143.724 94.5542 142.208C94.3909 140.342 92.7681 139.246 90.8698 139.412C89.0354 139.573 87.8055 140.581 87.0073 142.113L88.5197 142.865C89.0511 141.774 89.7145 141.089 90.8471 140.99C91.868 140.9 92.6867 141.439 92.7802 142.508C92.8723 143.561 92.3525 144.233 91.3363 145.48L87.8762 149.656L88.0144 151.235ZM100.339 138.584C97.4835 138.834 96.3204 141.523 96.6121 144.857C96.9037 148.191 98.5162 150.638 101.372 150.388C104.227 150.138 105.374 147.45 105.082 144.116C104.791 140.782 103.194 138.334 100.339 138.584ZM100.481 140.211C102.092 140.07 103.061 141.77 103.28 144.274C103.497 146.762 102.84 148.62 101.229 148.761C99.6021 148.903 98.6337 147.204 98.4146 144.7C98.1969 142.211 98.8541 140.353 100.481 140.211ZM107.081 149.567L114.658 148.904L114.52 147.325L109.065 147.802L111.731 144.66C112.865 143.291 113.754 142.056 113.621 140.54C113.458 138.674 111.835 137.578 109.937 137.744C108.102 137.905 106.873 138.912 106.074 140.445L107.587 141.197C108.118 140.105 108.782 139.421 109.914 139.321C110.935 139.232 111.754 139.771 111.847 140.84C111.939 141.893 111.42 142.565 110.403 143.811L106.943 147.988L107.081 149.567ZM116.428 148.749L124.005 148.086L123.867 146.507L118.411 146.985L121.078 143.842C122.212 142.473 123.1 141.238 122.968 139.722C122.805 137.856 121.182 136.76 119.283 136.927C117.449 137.087 116.219 138.095 115.421 139.627L116.933 140.379C117.465 139.288 118.128 138.603 119.261 138.504C120.282 138.414 121.1 138.954 121.194 140.022C121.286 141.075 120.766 141.748 119.75 142.994L116.29 147.17L116.428 148.749Z" fill="#161616"/>
<path d="M293.79 117.981L293.834 118.479L294.332 118.435L295.23 118.357C295.937 118.295 296.577 118.831 296.641 119.558L297.909 134.059C297.973 134.786 297.435 135.425 296.728 135.487L282.372 136.743C281.665 136.805 281.024 136.268 280.961 135.542L279.692 121.041C279.629 120.314 280.166 119.675 280.873 119.613L281.77 119.535L282.269 119.491L282.225 118.992L282.146 118.086C282.126 117.858 282.296 117.662 282.509 117.643C282.723 117.625 282.924 117.788 282.944 118.016L283.023 118.923L283.066 119.421L283.565 119.377L292.538 118.592L293.036 118.549L292.993 118.05L292.913 117.144C292.893 116.916 293.063 116.72 293.276 116.701C293.49 116.683 293.691 116.846 293.711 117.074L293.79 117.981ZM281.182 123.148L280.684 123.191L280.728 123.69L281.679 134.566C281.746 135.335 282.424 135.916 283.198 135.849L295.76 134.75C296.533 134.682 297.1 133.992 297.032 133.223L296.081 122.347L296.037 121.848L295.539 121.892L281.182 123.148Z" fill="#161616" stroke="#161616"/>
<rect x="19.9816" y="126.547" width="295.23" height="47.0373" rx="7.5" transform="rotate(-5 19.9816 126.547)" stroke="#3B69D1"/>
<path d="M43.7698 236.297L45.2692 236.165L44.8408 231.268L46.3083 231.14C46.42 231.13 46.5476 231.119 46.6578 231.093L50.3258 235.723L52.0965 235.568L48.0365 230.683C49.191 230.1 49.7889 229.035 49.6717 227.695C49.5043 225.781 48.009 224.674 45.7598 224.871L42.7929 225.131L43.7698 236.297ZM45.9353 226.142C47.2114 226.03 48.0225 226.666 48.1216 227.799C48.2263 228.995 47.5366 229.747 46.2605 229.858L44.7291 229.992L44.404 226.276L45.9353 226.142ZM60.5907 233.491L59.5174 232.797C59.0538 233.561 58.2183 234.116 57.1815 234.207C55.4587 234.358 54.1286 233.301 53.9118 231.375L60.0851 230.835C60.1134 230.607 60.1347 230.3 60.1068 229.981C59.9338 228.003 58.3801 226.596 56.1947 226.787C53.7063 227.005 52.3091 229.04 52.5227 231.48C52.7278 233.825 54.5772 235.673 57.2889 235.435C58.7884 235.304 59.9289 234.561 60.5907 233.491ZM56.2633 227.938C57.683 227.814 58.5831 228.732 58.7342 229.908L53.9168 230.33C54.0825 228.917 54.9393 228.054 56.2633 227.938ZM66.4148 233.351C64.6761 233.503 63.3306 232.271 63.1799 230.548C63.0306 228.841 64.1402 227.378 65.863 227.227C66.8679 227.139 67.7233 227.547 68.2792 228.205L69.2768 227.298C68.4405 226.375 67.2029 225.824 65.7513 225.951C63.0874 226.184 61.5551 228.327 61.7602 230.672C61.9654 233.017 63.8466 234.862 66.5105 234.629C67.9781 234.5 69.0867 233.76 69.7485 232.69L68.6086 231.97C68.1755 232.715 67.4038 233.265 66.4148 233.351ZM78.4427 231.929L77.3694 231.235C76.9058 231.999 76.0703 232.555 75.0334 232.645C73.3107 232.796 71.9805 231.739 71.7638 229.813L77.9371 229.273C77.9654 229.045 77.9867 228.738 77.9588 228.419C77.7857 226.441 76.2321 225.034 74.0467 225.225C71.5583 225.443 70.1611 227.478 70.3746 229.918C70.5798 232.263 72.4292 234.111 75.1409 233.874C76.6403 233.742 77.7809 233 78.4427 231.929ZM74.1153 226.376C75.535 226.252 76.435 227.17 76.5862 228.346L71.7688 228.768C71.9345 227.355 72.7913 226.492 74.1153 226.376ZM78.7341 225.137L82.5799 232.901L84.3665 232.745L86.8056 224.43L85.338 224.559L83.349 231.403L80.2016 225.008L78.7341 225.137ZM91.9837 223.656C89.3836 223.883 87.8034 226.031 88.0085 228.376C88.2137 230.721 90.1428 232.561 92.7429 232.334C95.327 232.107 96.9232 229.959 96.7181 227.614C96.5129 225.269 94.5679 223.43 91.9837 223.656ZM92.6472 231.056C90.9244 231.207 89.5748 229.926 89.4282 228.252C89.2817 226.577 90.3885 225.081 92.1113 224.931C93.7862 224.784 95.1359 226.064 95.2824 227.739C95.4276 229.398 94.3221 230.909 92.6472 231.056ZM99.0492 221.254C99.5756 221.208 99.9527 220.741 99.9066 220.214C99.862 219.704 99.4096 219.309 98.8832 219.355C98.3568 219.401 97.9637 219.87 98.0084 220.38C98.0545 220.907 98.5228 221.3 99.0492 221.254ZM99.2495 231.443L100.605 231.324L99.902 223.285L98.5461 223.403L99.2495 231.443ZM103.471 231.073L104.827 230.955L104.344 225.436C104.767 224.579 105.406 223.976 106.459 223.884C106.778 223.856 107.02 223.867 107.265 223.91L107.149 222.586C106.952 222.539 106.71 222.528 106.454 222.551C105.434 222.64 104.74 223.167 104.211 223.92L104.124 222.915L102.768 223.034L103.471 231.073ZM119.408 226.207C119.546 227.786 118.764 228.771 117.425 228.888C116.053 229.008 115.128 228.173 114.99 226.594L114.588 222L113.232 222.118L113.629 226.665C113.84 229.073 115.351 230.356 117.52 230.166C119.706 229.975 120.971 228.449 120.76 226.041L120.362 221.495L119.006 221.613L119.408 226.207ZM123.738 229.3L125.093 229.182L124.606 223.615C125.043 222.725 125.718 221.99 126.882 221.889C128.127 221.78 129.013 222.538 129.138 223.974L129.56 228.791L130.916 228.672L130.49 223.807C130.291 221.526 128.845 220.431 127.042 220.589C125.846 220.693 125.061 221.276 124.47 222.051L124.39 221.142L123.034 221.261L123.738 229.3ZM140.675 226.484L139.602 225.791C139.138 226.555 138.303 227.11 137.266 227.201C135.543 227.351 134.213 226.294 133.997 224.368L140.17 223.828C140.198 223.601 140.219 223.294 140.192 222.974C140.018 220.996 138.465 219.589 136.279 219.781C133.791 219.998 132.394 222.033 132.607 224.474C132.813 226.819 134.662 228.666 137.374 228.429C138.873 228.298 140.014 227.555 140.675 226.484ZM136.348 220.932C137.768 220.808 138.668 221.725 138.819 222.902L134.002 223.323C134.167 221.91 135.024 221.048 136.348 220.932ZM45.5282 260.253L46.884 260.135L46.397 254.568C46.8335 253.677 47.5086 252.943 48.6731 252.841C49.9173 252.733 50.8034 253.491 50.929 254.926L51.3505 259.744L52.7063 259.625L52.2807 254.76C52.0811 252.479 50.6351 251.384 48.8326 251.542C47.6362 251.646 46.8514 252.229 46.2602 253.004L46.1807 252.095L44.8248 252.214L45.5282 260.253ZM58.3731 250.707C55.773 250.934 54.1928 253.082 54.3979 255.427C54.6031 257.772 56.5322 259.612 59.1323 259.384C61.7164 259.158 63.3126 257.01 63.1075 254.665C62.9023 252.32 60.9572 250.481 58.3731 250.707ZM59.0366 258.107C57.3138 258.258 55.9642 256.977 55.8176 255.302C55.6711 253.628 56.7779 252.132 58.5007 251.982C60.1756 251.835 61.5253 253.115 61.6718 254.79C61.817 256.449 60.7115 257.96 59.0366 258.107ZM65.741 255.768C65.9127 257.73 66.9958 258.536 68.7823 258.379C69.3566 258.329 69.7817 258.228 70.1506 258.035L70.0445 256.822C69.7526 256.977 69.3913 257.072 68.8649 257.119C67.8919 257.204 67.2231 256.909 67.1128 255.648L66.7528 251.533L69.5443 251.289L69.4368 250.06L66.6453 250.305L66.4695 248.295L65.0977 248.415L65.2735 250.425L63.7581 250.557L63.8656 251.785L65.381 251.653L65.741 255.768ZM72.0124 247.729C72.5388 247.683 72.9158 247.216 72.8698 246.69C72.8251 246.18 72.3727 245.785 71.8463 245.831C71.3199 245.877 70.9269 246.346 70.9716 246.856C71.0176 247.382 71.486 247.775 72.0124 247.729ZM72.2127 257.919L73.5685 257.8L72.8652 249.76L71.5093 249.879L72.2127 257.919ZM74.678 249.602L74.7855 250.83L76.3009 250.698L76.8968 257.509L78.2686 257.389L77.6727 250.578L80.4642 250.333L80.3568 249.105L77.5653 249.349L77.4759 248.328C77.3838 247.276 77.9356 246.6 78.8448 246.521C79.3074 246.48 79.6868 246.592 80.0095 246.789L80.5165 245.603C80.0476 245.387 79.4392 245.231 78.7054 245.295C76.9508 245.449 75.9576 246.773 76.1069 248.48L76.1934 249.469L74.678 249.602ZM82.5117 246.811C83.0381 246.765 83.4152 246.298 83.3691 245.771C83.3245 245.261 82.8721 244.867 82.3457 244.913C81.8193 244.959 81.4262 245.427 81.4709 245.937C81.517 246.464 81.9853 246.857 82.5117 246.811ZM82.712 257L84.0679 256.881L83.3645 248.842L82.0086 248.961L82.712 257ZM90.5506 255.35C88.8118 255.502 87.4664 254.27 87.3156 252.547C87.1663 250.84 88.2759 249.377 89.9987 249.226C91.0037 249.138 91.859 249.545 92.415 250.204L93.4125 249.297C92.5763 248.374 91.3386 247.823 89.8871 247.95C87.2232 248.183 85.6908 250.326 85.8959 252.671C86.1011 255.016 87.9824 256.86 90.6463 256.627C92.1138 256.499 93.2224 255.759 93.8842 254.689L92.7443 253.968C92.3112 254.714 91.5396 255.263 90.5506 255.35ZM97.9554 255.891C98.9922 255.801 100.005 255.246 100.542 254.411L100.632 255.432L101.988 255.314L101.516 249.922C101.361 248.151 100.044 247.061 98.0021 247.24C96.5984 247.363 95.5175 248.052 94.8994 249.07L95.9886 249.763C96.4231 249.034 97.1352 248.537 98.0604 248.456C99.2089 248.356 100.062 248.924 100.16 250.041L100.209 250.599L97.5361 251.283C95.8544 251.719 95.0046 252.662 95.1107 253.874C95.2307 255.246 96.3762 256.03 97.9554 255.891ZM96.4783 253.706C96.4183 253.02 96.8695 252.482 97.9534 252.195L100.295 251.588L100.433 253.167C99.9824 254.075 99.1498 254.662 98.081 254.755C97.1399 254.838 96.5383 254.392 96.4783 253.706ZM104.934 252.339C105.106 254.301 106.189 255.107 107.976 254.951C108.55 254.9 108.975 254.799 109.344 254.606L109.238 253.393C108.946 253.548 108.585 253.643 108.058 253.69C107.085 253.775 106.416 253.48 106.306 252.219L105.946 248.104L108.738 247.86L108.63 246.631L105.839 246.876L105.663 244.866L104.291 244.986L104.467 246.996L102.951 247.128L103.059 248.357L104.574 248.224L104.934 252.339ZM111.206 244.3C111.732 244.254 112.109 243.787 112.063 243.261C112.019 242.751 111.566 242.356 111.04 242.402C110.513 242.448 110.12 242.917 110.165 243.427C110.211 243.953 110.679 244.346 111.206 244.3ZM111.406 254.49L112.762 254.371L112.059 246.331L110.703 246.45L111.406 254.49ZM118.565 245.441C115.965 245.668 114.385 247.816 114.59 250.161C114.795 252.505 116.724 254.346 119.324 254.118C121.908 253.892 123.505 251.743 123.3 249.399C123.094 247.054 121.149 245.215 118.565 245.441ZM119.229 252.841C117.506 252.992 116.156 251.711 116.01 250.036C115.863 248.361 116.97 246.866 118.693 246.715C120.368 246.569 121.717 247.849 121.864 249.524C122.009 251.183 120.904 252.694 119.229 252.841ZM125.831 253.228L127.187 253.109L126.7 247.542C127.136 246.652 127.811 245.918 128.976 245.816C130.22 245.707 131.106 246.465 131.232 247.901L131.653 252.718L133.009 252.6L132.583 247.734C132.384 245.453 130.938 244.358 129.135 244.516C127.939 244.621 127.154 245.204 126.563 245.979L126.483 245.069L125.128 245.188L125.831 253.228ZM139 248.025C139.205 250.37 140.991 252.223 143.511 252.002C144.708 251.898 145.608 251.353 146.255 250.476L146.339 251.433L147.694 251.315L146.648 239.351L145.292 239.47L145.719 244.351C144.93 243.6 143.948 243.22 142.752 243.325C140.232 243.545 138.795 245.68 139 248.025ZM140.436 247.899C140.286 246.193 141.316 244.736 143.023 244.587C144.124 244.491 145.143 244.932 145.849 245.834L146.125 248.993C145.617 249.986 144.676 250.615 143.559 250.712C141.852 250.862 140.585 249.606 140.436 247.899ZM157.583 249.116L156.51 248.422C156.046 249.186 155.211 249.741 154.174 249.832C152.451 249.982 151.121 248.925 150.904 247L157.077 246.459C157.106 246.232 157.127 245.925 157.099 245.606C156.926 243.628 155.373 242.221 153.187 242.412C150.699 242.629 149.302 244.664 149.515 247.105C149.72 249.45 151.57 251.297 154.281 251.06C155.781 250.929 156.921 250.186 157.583 249.116ZM153.256 243.563C154.675 243.439 155.575 244.357 155.727 245.533L150.909 245.954C151.075 244.541 151.932 243.679 153.256 243.563ZM47.6215 284.181L48.9774 284.062L48.4945 278.543C48.9178 277.686 49.5563 277.084 50.6091 276.991C50.9281 276.963 51.1702 276.974 51.4151 277.017L51.2992 275.693C51.1022 275.646 50.8602 275.635 50.6049 275.658C49.584 275.747 48.8907 276.274 48.3619 277.027L48.274 276.022L46.9181 276.141L47.6215 284.181ZM55.8082 283.689C56.8451 283.599 57.8574 283.044 58.3952 282.209L58.4845 283.23L59.8404 283.111L59.3687 277.72C59.2138 275.949 57.8968 274.859 55.855 275.038C54.4513 275.16 53.3703 275.85 52.7522 276.868L53.8415 277.561C54.276 276.831 54.988 276.335 55.9132 276.254C57.0617 276.154 57.9151 276.722 58.0128 277.839L58.0616 278.397L55.389 279.081C53.7073 279.517 52.8574 280.459 52.9635 281.672C53.0835 283.044 54.229 283.827 55.8082 283.689ZM54.3311 281.504C54.2711 280.818 54.7224 280.28 55.8063 279.993L58.1482 279.386L58.2863 280.965C57.8353 281.872 57.0026 282.46 55.9339 282.553C54.9927 282.635 54.3912 282.19 54.3311 281.504ZM62.9038 286.798L64.2597 286.679L63.8326 281.798C64.6216 282.549 65.6032 282.929 66.7996 282.824C69.3199 282.604 70.7566 280.469 70.5514 278.124C70.3463 275.779 68.5607 273.926 66.0404 274.146C64.844 274.251 63.9434 274.796 63.2967 275.672L63.213 274.715L61.8571 274.834L62.9038 286.798ZM65.9925 275.437C67.6993 275.287 68.9824 276.541 69.1318 278.248C69.2811 279.955 68.2352 281.413 66.5284 281.562C65.4278 281.658 64.4087 281.217 63.7014 280.298L63.4279 277.172C63.9503 276.162 64.8759 275.534 65.9925 275.437ZM73.4343 285.876L74.7902 285.758L74.3631 280.877C75.1521 281.627 76.1337 282.007 77.3301 281.903C79.8504 281.682 81.2871 279.547 81.0819 277.203C80.8768 274.858 79.0912 273.005 76.5709 273.225C75.3745 273.33 74.4739 273.875 73.8272 274.751L73.7435 273.794L72.3876 273.913L73.4343 285.876ZM76.523 274.515C78.2298 274.366 79.5129 275.62 79.6622 277.327C79.8116 279.034 78.7657 280.491 77.0589 280.641C75.9583 280.737 74.9392 280.296 74.2319 279.377L73.9584 276.251C74.4808 275.24 75.4064 274.613 76.523 274.515ZM90.7298 279.075L89.6565 278.381C89.1929 279.145 88.3574 279.7 87.3206 279.791C85.5978 279.942 84.2676 278.885 84.0509 276.959L90.2242 276.419C90.2525 276.191 90.2738 275.884 90.2459 275.565C90.0729 273.587 88.5192 272.18 86.3338 272.371C83.8454 272.589 82.4482 274.624 82.6618 277.064C82.8669 279.409 84.7163 281.257 87.428 281.019C88.9275 280.888 90.068 280.145 90.7298 279.075ZM86.4024 273.522C87.8221 273.398 88.7222 274.316 88.8733 275.492L84.0559 275.914C84.2216 274.501 85.0784 273.638 86.4024 273.522ZM92.9681 280.213L94.3239 280.095L93.2773 268.131L91.9214 268.25L92.9681 280.213ZM108.43 275.758C108.317 274.466 107.533 273.41 106.195 272.996C107.106 272.386 107.536 271.416 107.441 270.332C107.286 268.561 105.748 267.522 103.818 267.691C102.191 267.833 101.075 268.67 100.392 270.048L101.652 270.677C102.094 269.658 102.83 269.079 103.835 268.991C104.984 268.891 105.885 269.455 105.984 270.588C106.079 271.672 105.333 272.509 104.056 272.621L102.382 272.767L102.495 274.059L104.393 273.893C105.86 273.765 106.83 274.564 106.941 275.824C107.059 277.18 106.094 278.084 104.706 278.206C103.462 278.315 102.522 277.866 101.729 276.698L100.537 277.59C101.56 278.995 102.905 279.665 104.835 279.496C107.084 279.3 108.607 277.784 108.43 275.758ZM115.137 268.067C115.647 268.022 116.04 267.554 115.994 267.028C115.95 266.517 115.481 266.124 114.971 266.169C114.444 266.215 114.051 266.683 114.096 267.194C114.142 267.72 114.611 268.113 115.137 268.067ZM116.801 279.189L116.006 270.097L114.65 270.215L115.445 279.308C115.561 280.632 114.939 281.056 113.982 281.139C113.456 281.185 113.067 281.155 112.769 281.053L112.875 282.265C113.256 282.392 113.692 282.418 114.266 282.368C116.069 282.211 116.98 281.231 116.801 279.189ZM122.512 269.206C119.912 269.433 118.332 271.581 118.537 273.926C118.742 276.271 120.671 278.111 123.271 277.883C125.856 277.657 127.452 275.509 127.247 273.164C127.041 270.819 125.096 268.98 122.512 269.206ZM123.176 276.606C121.453 276.757 120.103 275.476 119.957 273.801C119.81 272.127 120.917 270.631 122.64 270.481C124.315 270.334 125.664 271.614 125.811 273.289C125.956 274.948 124.851 276.459 123.176 276.606ZM135.076 273.057C135.214 274.637 134.432 275.621 133.092 275.738C131.72 275.858 130.795 275.023 130.657 273.444L130.255 268.85L128.899 268.969L129.297 273.515C129.508 275.923 131.018 277.206 133.188 277.016C135.373 276.825 136.638 275.3 136.427 272.891L136.03 268.345L134.674 268.463L135.076 273.057ZM139.405 276.15L140.761 276.032L140.278 270.513C140.701 269.656 141.34 269.053 142.393 268.961C142.712 268.933 142.954 268.944 143.199 268.987L143.083 267.663C142.886 267.616 142.644 267.605 142.388 267.628C141.368 267.717 140.674 268.244 140.145 268.997L140.058 267.992L138.702 268.111L139.405 276.15ZM144.787 274.571C145.601 275.416 146.65 275.838 147.926 275.726C149.426 275.595 150.54 274.549 150.425 273.049C150.185 270.305 146.199 271.232 146.042 269.43C145.987 268.808 146.405 268.257 147.266 268.181C147.968 268.12 148.608 268.45 149.092 269.018L149.963 268.138C149.336 267.406 148.3 266.95 147.151 267.05C145.604 267.186 144.626 268.316 144.736 269.576C144.985 272.415 148.949 271.426 149.106 273.228C149.168 273.93 148.705 274.517 147.811 274.595C146.998 274.666 146.293 274.326 145.673 273.673L144.787 274.571ZM159.322 274.633C160.359 274.542 161.371 273.988 161.909 273.153L161.998 274.174L163.354 274.055L162.882 268.664C162.727 266.893 161.41 265.803 159.368 265.981C157.965 266.104 156.884 266.793 156.266 267.812L157.355 268.504C157.789 267.775 158.501 267.279 159.427 267.198C160.575 267.097 161.429 267.666 161.526 268.782L161.575 269.341L158.902 270.024C157.221 270.461 156.371 271.403 156.477 272.616C156.597 273.987 157.743 274.771 159.322 274.633ZM157.845 272.448C157.785 271.762 158.236 271.224 159.32 270.936L161.662 270.33L161.8 271.909C161.349 272.816 160.516 273.403 159.447 273.497C158.506 273.579 157.905 273.134 157.845 272.448ZM164.08 265.891L167.926 273.655L169.713 273.499L172.152 265.184L170.684 265.313L168.695 272.157L165.548 265.762L164.08 265.891ZM176.566 273.124C177.603 273.034 178.615 272.479 179.153 271.644L179.242 272.665L180.598 272.547L180.127 267.155C179.972 265.384 178.655 264.294 176.613 264.473C175.209 264.595 174.128 265.285 173.51 266.303L174.599 266.996C175.034 266.266 175.746 265.77 176.671 265.689C177.82 265.589 178.673 266.157 178.771 267.274L178.82 267.832L176.147 268.516C174.465 268.952 173.615 269.895 173.721 271.107C173.841 272.479 174.987 273.263 176.566 273.124ZM175.089 270.939C175.029 270.253 175.48 269.715 176.564 269.428L178.906 268.821L179.044 270.4C178.593 271.307 177.761 271.895 176.692 271.988C175.751 272.071 175.149 271.625 175.089 270.939ZM183.318 272.309L184.674 272.19L184.187 266.623C184.624 265.733 185.299 264.999 186.463 264.897C187.708 264.788 188.594 265.546 188.719 266.982L189.141 271.799L190.497 271.681L190.071 266.815C189.871 264.534 188.425 263.439 186.623 263.597C185.427 263.702 184.642 264.285 184.05 265.06L183.971 264.15L182.615 264.269L183.318 272.309ZM193.453 268.706C193.624 270.668 194.707 271.473 196.494 271.317C197.068 271.266 197.493 271.165 197.862 270.972L197.756 269.76C197.464 269.914 197.103 270.01 196.576 270.056C195.603 270.141 194.935 269.846 194.824 268.585L194.464 264.47L197.256 264.226L197.148 262.998L194.357 263.242L194.181 261.232L192.809 261.352L192.985 263.362L191.47 263.494L191.577 264.723L193.092 264.59L193.453 268.706ZM49.7149 308.108L51.0708 307.989L50.0241 296.026L48.6682 296.144L49.7149 308.108ZM53.9222 300.796L55.1912 296.377L53.6439 296.512L52.6621 300.906L53.9222 300.796ZM60.5542 297.772L62.1889 294.961L60.6575 295.095L59.2302 297.888L60.5542 297.772ZM64.3161 305.496L63.2427 304.803C62.7791 305.566 61.9437 306.122 60.9068 306.212C59.1841 306.363 57.8539 305.306 57.6372 303.38L63.8104 302.84C63.8387 302.613 63.8601 302.305 63.8322 301.986C63.6591 300.008 62.1055 298.601 59.9201 298.792C57.4317 299.01 56.0345 301.045 56.248 303.486C56.4532 305.831 58.3025 307.678 61.0143 307.441C62.5137 307.309 63.6543 306.567 64.3161 305.496ZM59.9887 299.944C61.4084 299.819 62.3084 300.737 62.4595 301.914L57.6422 302.335C57.8079 300.922 58.6647 300.059 59.9887 299.944ZM70.1402 305.356C68.4015 305.508 67.056 304.276 66.9052 302.553C66.7559 300.846 67.8656 299.383 69.5883 299.232C70.5933 299.144 71.4487 299.552 72.0046 300.21L73.0021 299.303C72.1659 298.38 70.9283 297.829 69.4767 297.956C66.8128 298.189 65.2804 300.333 65.4856 302.677C65.6907 305.022 67.572 306.867 70.2359 306.634C71.7034 306.506 72.8121 305.766 73.4739 304.695L72.3339 303.975C71.9008 304.72 71.1292 305.27 70.1402 305.356ZM75.4492 305.856L76.805 305.738L76.318 300.171C76.7559 299.296 77.4137 298.548 78.5941 298.444C79.8542 298.334 80.7244 299.094 80.85 300.53L81.2715 305.347L82.6273 305.228L82.2017 300.363C82.0021 298.082 80.5561 296.987 78.7536 297.145C77.5572 297.249 76.7724 297.832 76.1812 298.607L75.7584 293.774L74.4025 293.893L75.4492 305.856ZM88.6251 295.317L90.2598 292.505L88.7284 292.639L87.3011 295.432L88.6251 295.317ZM92.387 303.04L91.3137 302.347C90.8501 303.111 90.0146 303.666 88.9777 303.757C87.255 303.907 85.9248 302.85 85.7081 300.924L91.8814 300.384C91.9097 300.157 91.931 299.849 91.9031 299.53C91.73 297.552 90.1764 296.145 87.991 296.336C85.5026 296.554 84.1054 298.589 84.3189 301.03C84.5241 303.375 86.3734 305.222 89.0852 304.985C90.5846 304.854 91.7252 304.111 92.387 303.04ZM88.0596 297.488C89.4793 297.364 90.3793 298.281 90.5305 299.458L85.7131 299.879C85.8788 298.466 86.7356 297.604 88.0596 297.488ZM96.7678 304.216C97.8047 304.125 98.817 303.571 99.3548 302.736L99.4441 303.757L100.8 303.638L100.328 298.247C100.173 296.476 98.8564 295.386 96.8146 295.565C95.4109 295.687 94.3299 296.377 93.7118 297.395L94.8011 298.087C95.2356 297.358 95.9476 296.862 96.8728 296.781C98.0213 296.681 98.8747 297.249 98.9724 298.365L99.0212 298.924L96.3486 299.608C94.6669 300.044 93.817 300.986 93.9231 302.199C94.0431 303.571 95.1886 304.354 96.7678 304.216ZM95.2907 302.031C95.2307 301.345 95.682 300.807 96.7659 300.519L99.1078 299.913L99.2459 301.492C98.7949 302.399 97.9622 302.987 96.8935 303.08C95.9523 303.162 95.3508 302.717 95.2907 302.031ZM103.52 303.4L104.876 303.282L104.389 297.715C104.825 296.825 105.501 296.09 106.665 295.989C107.909 295.88 108.795 296.638 108.921 298.074L109.342 302.891L110.698 302.772L110.273 297.907C110.073 295.626 108.627 294.531 106.825 294.689C105.628 294.793 104.843 295.376 104.252 296.151L104.173 295.242L102.817 295.361L103.52 303.4ZM117.044 301.253C115.306 301.405 113.96 300.172 113.81 298.45C113.66 296.743 114.77 295.28 116.493 295.129C117.498 295.041 118.353 295.448 118.909 296.107L119.906 295.2C119.07 294.276 117.833 293.726 116.381 293.853C113.717 294.086 112.185 296.229 112.39 298.574C112.595 300.919 114.476 302.763 117.14 302.53C118.608 302.402 119.716 301.662 120.378 300.591L119.238 299.871C118.805 300.617 118.033 301.166 117.044 301.253ZM129.072 299.831L127.999 299.137C127.535 299.901 126.7 300.456 125.663 300.547C123.94 300.698 122.61 299.641 122.393 297.715L128.567 297.175C128.595 296.947 128.616 296.64 128.588 296.321C128.415 294.343 126.862 292.936 124.676 293.127C122.188 293.345 120.791 295.38 121.004 297.82C121.209 300.165 123.059 302.012 125.771 301.775C127.27 301.644 128.411 300.901 129.072 299.831ZM124.745 294.278C126.165 294.154 127.065 295.072 127.216 296.248L122.398 296.67C122.564 295.257 123.421 294.394 124.745 294.278Z" fill="#161616"/>
<rect x="237.742" y="200.239" width="50.0389" height="30.0233" rx="15" transform="rotate(-5 237.742 200.239)" fill="#34C759"/>
<g filter="url(#filter1_dd_3531_10726)">
<path fill-rule="evenodd" clip-rule="evenodd" d="M275.165 226.098C282.874 225.424 288.576 218.628 287.902 210.919C287.227 203.211 280.432 197.509 272.723 198.183C265.015 198.857 259.312 205.653 259.987 213.362C260.661 221.07 267.457 226.773 275.165 226.098Z" fill="white"/>
</g>
<path d="M307.152 204.695C303.658 205 301.519 207.92 301.798 211.11C302.077 214.3 304.691 216.804 308.184 216.499C311.662 216.194 313.801 213.275 313.522 210.084C313.243 206.894 310.629 204.39 307.152 204.695ZM308.062 215.095C305.541 215.315 303.563 213.463 303.345 210.975C303.127 208.486 304.754 206.319 307.274 206.098C309.779 205.879 311.757 207.731 311.975 210.22C312.193 212.708 310.566 214.876 308.062 215.095ZM321.556 211.535C321.694 213.115 320.912 214.099 319.572 214.216C318.201 214.336 317.276 213.501 317.137 211.922L316.736 207.328L315.38 207.447L315.777 211.993C315.988 214.401 317.499 215.684 319.668 215.494C321.853 215.303 323.118 213.778 322.908 211.369L322.51 206.823L321.154 206.941L321.556 211.535ZM325.685 204.439C326.212 204.393 326.589 203.926 326.543 203.4C326.498 202.889 326.046 202.495 325.519 202.541C324.993 202.587 324.6 203.056 324.644 203.566C324.69 204.092 325.159 204.485 325.685 204.439ZM325.885 214.629L327.241 214.51L326.538 206.47L325.182 206.589L325.885 214.629Z" fill="#161616"/>
</g>
</g>
<defs>
<filter id="filter0_d_3531_10726" x="-25.0194" y="2.66907" width="404.578" height="393.355" filterUnits="userSpaceOnUse" color-interpolation-filters="sRGB">
<feFlood flood-opacity="0" result="BackgroundImageFix"/>
<feColorMatrix in="SourceAlpha" type="matrix" values="0 0 0 0 0 0 0 0 0 0 0 0 0 0 0 0 0 0 127 0" result="hardAlpha"/>
<feOffset dy="6"/>
<feGaussianBlur stdDeviation="12.5"/>
<feComposite in2="hardAlpha" operator="out"/>
<feColorMatrix type="matrix" values="0 0 0 0 0.196078 0 0 0 0 0.196078 0 0 0 0 0.196078 0 0 0 0.1 0"/>
<feBlend mode="normal" in2="BackgroundImageFix" result="effect1_dropShadow_3531_10726"/>
<feBlend mode="normal" in="SourceGraphic" in2="effect1_dropShadow_3531_10726" result="shape"/>
</filter>
<filter id="filter1_dd_3531_10726" x="257.931" y="197.128" width="32.0268" height="32.0266" filterUnits="userSpaceOnUse" color-interpolation-filters="sRGB">
<feFlood flood-opacity="0" result="BackgroundImageFix"/>
<feColorMatrix in="SourceAlpha" type="matrix" values="0 0 0 0 0 0 0 0 0 0 0 0 0 0 0 0 0 0 127 0" result="hardAlpha"/>
<feOffset dy="1"/>
<feGaussianBlur stdDeviation="1"/>
<feColorMatrix type="matrix" values="0 0 0 0 0 0 0 0 0 0 0 0 0 0 0 0 0 0 0.2 0"/>
<feBlend mode="normal" in2="BackgroundImageFix" result="effect1_dropShadow_3531_10726"/>
<feColorMatrix in="SourceAlpha" type="matrix" values="0 0 0 0 0 0 0 0 0 0 0 0 0 0 0 0 0 0 127 0" result="hardAlpha"/>
<feOffset dy="0.1"/>
<feGaussianBlur stdDeviation="0.15"/>
<feColorMatrix type="matrix" values="0 0 0 0 0 0 0 0 0 0 0 0 0 0 0 0 0 0 0.1 0"/>
<feBlend mode="normal" in2="effect1_dropShadow_3531_10726" result="effect2_dropShadow_3531_10726"/>
<feBlend mode="normal" in="SourceGraphic" in2="effect2_dropShadow_3531_10726" result="shape"/>
</filter>
<clipPath id="clip0_3531_10726">
<rect y="50.2931" width="328.255" height="315.909" rx="16" transform="rotate(-5 0 50.2931)" fill="white"/>
</clipPath>
</defs>
</svg>
