<svg width="358" height="204" viewBox="0 0 358 204" fill="none" xmlns="http://www.w3.org/2000/svg">
    <rect x="18.7531" y="29.0026" width="326.554" height="150.54" rx="11.5"
        transform="rotate(-5 18.7531 29.0026)" fill="#F1F1F1" stroke="#878787"
        stroke-dasharray="5 5" />
    <g filter="url(#filter0_d_3545_10532)">
        <rect y="50.3392" width="328.555" height="152.257" rx="16" transform="rotate(-5 0 50.3392)"
            fill="white" />
    </g>
    <path
        d="M127.914 85.9401L130.4 85.7225L129.631 76.9332L132.764 81.2815L134.515 81.1283L136.845 76.3021L137.614 85.0914L140.1 84.8739L139.028 72.6179L135.929 72.889L133.385 78.2985L129.941 73.4129L126.842 73.684L127.914 85.9401ZM146.503 75.069C143.631 75.3203 141.856 77.6104 142.087 80.2542C142.318 82.8979 144.465 84.8449 147.336 84.5937C150.208 84.3425 151.983 82.0524 151.752 79.4086C151.521 76.7648 149.374 74.8178 146.503 75.069ZM147.187 82.4896C145.717 82.6183 144.533 81.5927 144.398 80.052C144.263 78.5112 145.251 77.2957 146.722 77.167C148.14 77.0429 149.306 78.07 149.441 79.6108C149.574 81.134 148.606 82.3655 147.187 82.4896ZM154.166 83.6433L156.39 83.4488L155.886 77.6885C156.169 77.0991 156.699 76.2941 157.819 76.1961C158.905 76.1011 159.634 76.7783 159.737 77.9514L160.189 83.1164L162.43 82.9203L161.971 77.6677C161.742 75.059 160.104 73.8791 158.196 74.046C157.023 74.1487 156.24 74.6759 155.679 75.3248L155.618 74.6245L153.394 74.819L154.166 83.6433ZM168.792 81.0758C169.72 82.0003 170.895 82.5326 172.471 82.3947C174.134 82.2492 175.534 81.1035 175.406 79.2445C175.14 76.198 170.966 77.0924 170.835 75.5867C170.795 75.1315 171.094 74.7172 171.794 74.6559C172.477 74.5962 173.095 75.0008 173.599 75.5213L174.956 74.097C174.251 73.2942 172.968 72.7536 171.62 72.8715C169.782 73.0324 168.571 74.3203 168.708 75.8786C168.979 78.9776 173.148 78.0307 173.283 79.5714C173.329 80.0967 172.998 80.5491 172.28 80.6119C171.439 80.6854 170.749 80.2518 170.146 79.6165L168.792 81.0758ZM183.155 77.261C183.267 78.5392 182.67 79.3853 181.462 79.4909C180.237 79.5982 179.502 78.8685 179.391 77.5904L178.953 72.5829L176.711 72.779L177.14 77.6814C177.372 80.3252 179.037 81.8202 181.629 81.5935C184.22 81.3668 185.618 79.6037 185.387 76.9599L184.958 72.0575L182.717 72.2536L183.155 77.261ZM188.405 70.2034C189.193 70.1344 189.783 69.4124 189.714 68.6245C189.645 67.8367 188.939 67.228 188.151 67.2969C187.363 67.3659 186.756 68.0894 186.825 68.8773C186.894 69.6652 187.617 70.2723 188.405 70.2034ZM188.192 80.6665L190.415 80.4719L189.643 71.6476L187.419 71.8422L188.192 80.6665ZM191.049 71.5246L195.025 80.0686L197.949 79.8128L200.399 70.7066L198 70.9165L196.275 77.4187L193.43 71.3163L191.049 71.5246ZM202.785 68.9453C203.573 68.8764 204.162 68.1544 204.093 67.3665C204.024 66.5786 203.318 65.97 202.531 66.0389C201.743 66.1078 201.136 66.8314 201.204 67.6192C201.273 68.4071 201.997 69.0142 202.785 68.9453ZM202.571 79.4084L204.795 79.2139L204.023 70.3896L201.799 70.5841L202.571 79.4084Z"
        fill="#3B69D1" />
    <path
        d="M32.1578 129.216L36.0107 128.879C39.121 128.606 41.0252 126.167 40.7936 123.519C40.5619 120.871 38.263 118.799 35.1526 119.071L31.2998 119.408L32.1578 129.216ZM35.3388 120.876C37.1602 120.717 38.5948 121.947 38.748 123.698C38.9 125.435 37.7019 126.909 35.8806 127.069L33.9892 127.234L33.4474 121.042L35.3388 120.876ZM46.3334 119.731L47.8111 117.258L45.8777 117.427L44.6241 119.88L46.3334 119.731ZM49.3445 126.554L47.9813 125.657C47.6471 126.195 47.004 126.59 46.2335 126.657C45.1266 126.754 44.2674 126.293 43.9841 124.99L48.9298 124.558C48.965 124.315 48.9892 123.945 48.9549 123.553C48.7931 121.704 47.3876 120.485 45.4262 120.657C43.1144 120.859 41.9482 122.698 42.1309 124.785C42.311 126.845 43.8793 128.472 46.3872 128.253C47.7182 128.137 48.7632 127.495 49.3445 126.554ZM45.5116 122.118C46.5064 122.031 47.0873 122.7 47.1778 123.412L43.9274 123.696C44.0426 122.755 44.6009 122.198 45.5116 122.118ZM51.0576 127.562L52.837 127.406L52.4337 122.797C52.6607 122.325 53.0283 121.686 53.8409 121.615C54.6395 121.545 55.1484 122.037 55.2232 122.892L55.597 127.165L57.3904 127.008L57.0104 122.665C57.0006 122.553 56.992 122.455 56.9694 122.358C57.2079 121.857 57.5817 121.288 58.3523 121.22C59.1509 121.15 59.6598 121.642 59.7346 122.497L60.1084 126.77L61.9018 126.613L61.5218 122.27C61.3477 120.281 60.1106 119.372 58.6535 119.5C57.4626 119.604 56.8367 120.195 56.3862 120.856C55.8577 120.14 55.0388 119.816 54.1421 119.895C53.2735 119.971 52.7017 120.373 52.2658 120.878L52.2192 120.345L50.4398 120.501L51.0576 127.562ZM65.9404 126.472C66.767 126.399 67.577 125.976 67.9775 125.39L68.0376 126.077L69.8169 125.921L69.4173 121.353C69.2813 119.798 68.1238 118.671 66.0783 118.85C64.7893 118.963 63.7991 119.586 63.2447 120.51L64.6347 121.391C64.9676 120.839 65.4718 120.47 66.1583 120.41C66.9709 120.339 67.573 120.767 67.638 121.509L67.6539 121.691L65.5282 122.244C64.0371 122.629 63.2804 123.5 63.3735 124.565C63.4875 125.868 64.5253 126.596 65.9404 126.472ZM65.1315 124.326C65.0935 123.892 65.3748 123.557 66.1063 123.365L67.763 122.938L67.8501 123.933C67.5488 124.524 66.9935 124.954 66.1809 125.025C65.5784 125.078 65.1732 124.802 65.1315 124.326ZM71.8545 125.743L73.6338 125.587L73.2379 121.062C73.4649 120.59 73.9836 120.065 74.8523 119.989C75.1745 119.96 75.4164 119.982 75.6454 120.018L75.4922 118.267C75.3192 118.225 75.1053 118.202 74.8672 118.223C74.0686 118.292 73.498 118.709 73.0773 119.226L73.016 118.526L71.2367 118.681L71.8545 125.743ZM80.5132 123.573C79.3223 123.677 78.3904 122.87 78.2813 121.623C78.1735 120.39 78.9497 119.418 80.1125 119.317C80.8411 119.253 81.4297 119.526 81.8089 119.987L83.1027 118.801C82.3683 117.99 81.2824 117.52 79.9935 117.633C77.5556 117.846 76.2518 119.725 76.432 121.784C76.6121 123.844 78.2225 125.468 80.6603 125.255C81.9493 125.142 82.937 124.491 83.5195 123.564L82.0393 122.621C81.746 123.141 81.2137 123.512 80.5132 123.573ZM84.9483 124.597L86.7276 124.441L86.3243 119.832C86.5513 119.36 86.975 118.716 87.8716 118.638C88.7543 118.56 89.3242 119.104 89.4063 120.042L89.7679 124.175L91.5612 124.018L91.1935 119.815C91.0109 117.728 89.7 116.784 88.1729 116.917C87.2342 116.999 86.6076 117.421 86.1589 117.94L85.8083 113.933L84.029 114.089L84.9483 124.597ZM99.9821 122.124L98.6189 121.227C98.2847 121.764 97.6416 122.159 96.871 122.227C95.7642 122.324 94.905 121.862 94.6217 120.56L99.5674 120.127C99.6026 119.884 99.6268 119.515 99.5924 119.123C99.4306 117.273 98.0252 116.055 96.0637 116.227C93.752 116.429 92.5858 118.268 92.7684 120.355C92.9486 122.415 94.5169 124.042 97.0248 123.823C98.3558 123.706 99.4008 123.064 99.9821 122.124ZM96.1492 117.688C97.1439 117.601 97.7248 118.27 97.8154 118.982L94.5649 119.266C94.6802 118.324 95.2385 117.767 96.1492 117.688ZM100.893 122.171C101.636 122.911 102.577 123.337 103.838 123.227C105.169 123.11 106.288 122.194 106.186 120.706C105.973 118.268 102.633 118.984 102.528 117.779C102.496 117.415 102.735 117.083 103.296 117.034C103.842 116.986 104.336 117.31 104.74 117.727L105.826 116.587C105.262 115.945 104.236 115.512 103.157 115.606C101.686 115.735 100.717 116.766 100.826 118.013C101.043 120.492 104.379 119.735 104.487 120.968C104.524 121.388 104.259 121.75 103.685 121.8C103.012 121.859 102.459 121.512 101.977 121.004L100.893 122.171Z"
        fill="#3B69D1" />
    <path
        d="M123.311 120.595L125.301 120.421L124.954 116.456L125.977 116.367L128.944 120.103L131.283 119.898L127.835 115.823C128.803 115.273 129.301 114.34 129.196 113.149C129.037 111.327 127.609 110.337 125.452 110.526L122.453 110.788L123.311 120.595ZM125.708 112.169C126.549 112.096 127.083 112.557 127.148 113.3C127.218 114.098 126.771 114.632 125.93 114.705L124.809 114.803L124.587 112.267L125.708 112.169ZM138.678 118.093L137.315 117.196C136.981 117.734 136.338 118.129 135.567 118.196C134.46 118.293 133.601 117.832 133.318 116.529L138.264 116.097C138.299 115.854 138.323 115.484 138.289 115.092C138.127 113.243 136.721 112.025 134.76 112.196C132.448 112.398 131.282 114.237 131.465 116.324C131.645 118.384 133.213 120.012 135.721 119.792C137.052 119.676 138.097 119.034 138.678 118.093ZM134.845 113.657C135.84 113.57 136.421 114.239 136.512 114.951L133.261 115.236C133.376 114.294 133.935 113.737 134.845 113.657ZM140.391 119.101L142.171 118.945L141.768 114.336C141.994 113.864 142.418 113.22 143.315 113.142C144.183 113.066 144.767 113.608 144.849 114.546L145.211 118.679L147.004 118.523L146.637 114.319C146.454 112.232 145.143 111.288 143.616 111.421C142.677 111.503 142.051 111.925 141.602 112.445L141.553 111.884L139.774 112.04L140.391 119.101ZM148.212 114.859C148.392 116.919 149.904 118.551 152.132 118.356C153.084 118.273 153.745 117.919 154.244 117.325L154.293 117.885L156.086 117.728L155.167 107.22L153.374 107.377L153.724 111.384C153.13 110.885 152.418 110.651 151.465 110.735C149.237 110.93 148.031 112.8 148.212 114.859ZM150.075 114.696C149.967 113.463 150.659 112.499 151.864 112.394C152.663 112.324 153.351 112.603 153.883 113.205L154.084 115.503C153.664 116.189 153.035 116.583 152.237 116.653C151.032 116.758 150.183 115.929 150.075 114.696ZM164.62 115.824L163.256 114.927C162.922 115.464 162.279 115.859 161.509 115.927C160.402 116.023 159.543 115.562 159.259 114.26L164.205 113.827C164.24 113.584 164.264 113.215 164.23 112.823C164.068 110.973 162.663 109.755 160.701 109.927C158.39 110.129 157.223 111.967 157.406 114.055C157.586 116.114 159.154 117.742 161.662 117.523C162.993 117.406 164.038 116.764 164.62 115.824ZM160.787 111.387C161.782 111.3 162.362 111.969 162.453 112.682L159.203 112.966C159.318 112.024 159.876 111.467 160.787 111.387ZM165.957 116.864L171.869 116.347L171.729 114.75L168.045 115.072L171.293 110.892L171.153 109.294L165.451 109.793L165.591 111.391L169.065 111.087L165.817 115.267L165.957 116.864ZM172.548 111.812L172.699 113.536L176.482 113.205L176.331 111.482L172.548 111.812ZM176.295 108.845L179.477 115.682L181.816 115.477L183.777 108.19L181.857 108.358L180.477 113.561L178.2 108.678L176.295 108.845ZM188.153 107.525C185.856 107.726 184.435 109.558 184.62 111.674C184.805 113.79 186.522 115.348 188.82 115.147C191.118 114.946 192.539 113.113 192.354 110.997C192.168 108.882 190.451 107.324 188.153 107.525ZM188.701 113.463C187.524 113.566 186.577 112.745 186.469 111.512C186.361 110.279 187.151 109.307 188.328 109.204C189.463 109.104 190.396 109.926 190.504 111.159C190.611 112.378 189.836 113.364 188.701 113.463ZM198.67 110.925C198.759 111.948 198.282 112.625 197.315 112.709C196.334 112.795 195.747 112.211 195.657 111.188L195.307 107.181L193.513 107.338L193.857 111.261C194.042 113.377 195.375 114.573 197.448 114.392C199.522 114.21 200.641 112.799 200.456 110.684L200.112 106.761L198.319 106.918L198.67 110.925ZM201.939 112.686C202.682 113.426 203.622 113.852 204.883 113.741C206.214 113.625 207.334 112.708 207.232 111.22C207.019 108.783 203.679 109.498 203.574 108.293C203.542 107.929 203.781 107.598 204.342 107.549C204.888 107.501 205.382 107.825 205.786 108.241L206.872 107.101C206.307 106.459 205.281 106.026 204.203 106.121C202.731 106.249 201.763 107.28 201.872 108.527C202.089 111.007 205.425 110.249 205.533 111.482C205.57 111.902 205.305 112.264 204.73 112.315C204.058 112.373 203.505 112.026 203.023 111.518L201.939 112.686Z"
        fill="#646464" />
    <rect x="28.7444" y="145.199" width="287.434" height="1.30828"
        transform="rotate(-5 28.7444 145.199)" fill="#B3B3B3" />
    <rect x="28.5517" y="143" width="84.4563" height="3.51601" transform="rotate(-5 28.5517 143)"
        fill="#3B69D1" />
    <g filter="url(#filter1_d_3545_10532)">
        <rect x="99.3485" y="160.39" width="162.274" height="43.7763" rx="21.8512"
            transform="rotate(-5 99.3485 160.39)" fill="#3B69D1" shape-rendering="crispEdges" />
        <path fill-rule="evenodd" clip-rule="evenodd"
            d="M116.15 180.387L115.887 177.379L116.89 177.292L117.153 180.299L120.16 180.036L120.248 181.039L117.241 181.302L117.504 184.309L116.501 184.397L116.238 181.389L113.231 181.653L113.143 180.65L116.15 180.387Z"
            fill="white" />
        <path
            d="M133.996 182.486C132.408 182.625 131.169 181.484 131.028 179.872C130.887 178.26 131.909 176.922 133.497 176.783C134.46 176.699 135.259 177.102 135.8 177.746L137.056 176.581C136.196 175.626 134.885 175.05 133.357 175.183C130.698 175.416 129.061 177.62 129.271 180.026C129.482 182.432 131.477 184.318 134.136 184.086C135.664 183.952 136.856 183.169 137.534 182.055L136.097 181.138C135.675 181.866 134.958 182.401 133.996 182.486ZM138.942 183.423L140.47 183.289L140.13 179.403C140.325 178.998 140.77 178.547 141.516 178.482C141.793 178.458 142 178.476 142.197 178.507L142.065 177.003C141.917 176.968 141.733 176.948 141.529 176.966C140.843 177.026 140.353 177.384 139.992 177.827L139.939 177.226L138.411 177.359L138.942 183.423ZM146.481 175.684L147.75 173.56L146.09 173.706L145.013 175.812L146.481 175.684ZM149.066 181.543L147.896 180.773C147.609 181.234 147.057 181.573 146.395 181.631C145.445 181.714 144.707 181.318 144.464 180.2L148.71 179.828C148.741 179.62 148.761 179.303 148.732 178.966C148.593 177.378 147.386 176.332 145.702 176.479C143.717 176.653 142.716 178.232 142.872 180.024C143.027 181.792 144.374 183.19 146.527 183.002C147.67 182.902 148.567 182.35 149.066 181.543ZM145.775 177.734C146.629 177.659 147.128 178.233 147.206 178.845L144.415 179.089C144.514 178.28 144.993 177.802 145.775 177.734ZM155.986 180.938L154.816 180.167C154.529 180.629 153.977 180.968 153.315 181.026C152.365 181.109 151.627 180.713 151.383 179.595L155.63 179.223C155.66 179.014 155.681 178.697 155.652 178.36C155.513 176.772 154.306 175.726 152.622 175.874C150.637 176.047 149.635 177.626 149.792 179.419C149.947 181.187 151.294 182.585 153.447 182.396C154.59 182.296 155.487 181.745 155.986 180.938ZM152.695 177.128C153.549 177.053 154.048 177.628 154.126 178.239L151.335 178.484C151.434 177.675 151.913 177.197 152.695 177.128ZM157.457 181.803L158.985 181.669L158.645 177.783C158.84 177.378 159.285 176.927 160.031 176.862C160.308 176.838 160.516 176.856 160.712 176.887L160.581 175.384C160.432 175.348 160.249 175.328 160.044 175.346C159.358 175.406 158.868 175.764 158.507 176.207L158.455 175.606L156.927 175.74L157.457 181.803ZM169.352 178.12C169.429 178.998 169.019 179.579 168.189 179.652C167.347 179.725 166.842 179.224 166.765 178.346L166.464 174.905L164.924 175.04L165.219 178.408C165.378 180.225 166.522 181.252 168.303 181.096C170.083 180.941 171.044 179.729 170.885 177.913L170.591 174.544L169.051 174.679L169.352 178.12ZM172.812 180.459L174.34 180.326L173.994 176.368C174.189 175.963 174.553 175.41 175.322 175.342C176.068 175.277 176.57 175.742 176.64 176.548L176.951 180.097L178.491 179.963L178.175 176.354C178.018 174.561 176.892 173.75 175.581 173.865C174.775 173.936 174.237 174.298 173.852 174.744L173.81 174.263L172.282 174.396L172.812 180.459ZM185.721 178.336L184.551 177.566C184.264 178.027 183.712 178.366 183.05 178.424C182.099 178.507 181.362 178.111 181.118 176.993L185.365 176.622C185.395 176.413 185.416 176.096 185.387 175.759C185.248 174.171 184.041 173.125 182.357 173.272C180.372 173.446 179.37 175.025 179.527 176.817C179.682 178.586 181.028 179.983 183.182 179.795C184.325 179.695 185.222 179.143 185.721 178.336ZM182.43 174.527C183.284 174.452 183.783 175.027 183.861 175.638L181.07 175.882C181.169 175.073 181.648 174.595 182.43 174.527ZM189.736 175.924C189.891 177.692 191.19 179.094 193.102 178.927C193.921 178.855 194.488 178.551 194.916 178.041L194.958 178.522L196.498 178.387L195.709 169.365L194.169 169.499L194.47 172.94C193.96 172.512 193.348 172.311 192.53 172.382C190.617 172.55 189.582 174.156 189.736 175.924ZM191.336 175.784C191.244 174.725 191.838 173.897 192.873 173.807C193.558 173.747 194.149 173.986 194.607 174.504L194.779 176.477C194.419 177.066 193.878 177.404 193.193 177.464C192.158 177.555 191.429 176.843 191.336 175.784ZM201.24 170.893L202.509 168.77L200.849 168.915L199.772 171.021L201.24 170.893ZM203.825 176.752L202.655 175.982C202.368 176.443 201.816 176.783 201.154 176.84C200.204 176.924 199.466 176.527 199.223 175.409L203.469 175.038C203.499 174.829 203.52 174.512 203.491 174.175C203.352 172.587 202.145 171.541 200.461 171.688C198.476 171.862 197.474 173.441 197.631 175.233C197.786 177.002 199.133 178.399 201.286 178.211C202.429 178.111 203.326 177.56 203.825 176.752ZM200.534 172.943C201.388 172.868 201.887 173.443 201.965 174.054L199.174 174.298C199.273 173.489 199.752 173.011 200.534 172.943ZM205.296 177.617L206.824 177.484L206.478 173.526C206.673 173.121 206.988 172.572 207.686 172.511C208.372 172.451 208.809 172.873 208.873 173.607L209.194 177.276L210.734 177.142L210.408 173.412C210.399 173.316 210.392 173.232 210.373 173.149C210.577 172.719 210.898 172.23 211.56 172.172C212.246 172.112 212.683 172.534 212.747 173.268L213.068 176.938L214.608 176.803L214.282 173.073C214.132 171.365 213.07 170.585 211.819 170.695C210.796 170.784 210.259 171.292 209.872 171.859C209.418 171.244 208.715 170.966 207.945 171.034C207.199 171.099 206.708 171.445 206.334 171.878L206.294 171.421L204.766 171.554L205.296 177.617ZM218.076 176.681C218.785 176.619 219.481 176.255 219.825 175.752L219.876 176.342L221.404 176.208L221.061 172.286C220.944 170.951 219.95 169.983 218.194 170.137C217.087 170.234 216.237 170.769 215.761 171.562L216.954 172.318C217.24 171.845 217.673 171.528 218.263 171.477C218.96 171.415 219.477 171.782 219.533 172.42L219.547 172.576L217.722 173.051C216.441 173.382 215.792 174.129 215.872 175.044C215.969 176.162 216.861 176.788 218.076 176.681ZM217.381 174.839C217.348 174.466 217.59 174.178 218.218 174.014L219.641 173.647L219.715 174.501C219.457 175.009 218.98 175.378 218.282 175.439C217.765 175.484 217.417 175.248 217.381 174.839ZM223.154 176.055L224.682 175.921L224.342 172.036C224.537 171.631 224.982 171.18 225.728 171.114C226.005 171.09 226.212 171.108 226.409 171.14L226.277 169.636C226.129 169.6 225.945 169.58 225.741 169.598C225.055 169.658 224.565 170.016 224.204 170.46L224.151 169.858L222.623 169.992L223.154 176.055ZM230.589 174.192C229.566 174.282 228.766 173.588 228.672 172.518C228.58 171.459 229.246 170.625 230.245 170.537C230.87 170.483 231.376 170.717 231.701 171.113L232.812 170.095C232.182 169.398 231.249 168.995 230.142 169.092C228.049 169.275 226.93 170.888 227.084 172.656C227.239 174.425 228.622 175.819 230.715 175.636C231.822 175.539 232.67 174.98 233.17 174.185L231.899 173.375C231.647 173.821 231.19 174.14 230.589 174.192ZM234.397 175.072L235.925 174.938L235.578 170.98C235.773 170.575 236.137 170.022 236.907 169.954C237.665 169.888 238.154 170.354 238.225 171.161L238.535 174.709L240.075 174.575L239.759 170.966C239.603 169.173 238.477 168.362 237.166 168.477C236.36 168.548 235.822 168.91 235.436 169.356L235.135 165.915L233.608 166.049L234.397 175.072ZM247.306 172.948L246.135 172.178C245.848 172.639 245.296 172.978 244.635 173.036C243.684 173.119 242.946 172.723 242.703 171.605L246.95 171.234C246.98 171.025 247.001 170.708 246.971 170.371C246.832 168.783 245.626 167.737 243.941 167.884C241.956 168.058 240.955 169.637 241.112 171.429C241.266 173.198 242.613 174.595 244.767 174.407C245.909 174.307 246.807 173.755 247.306 172.948ZM244.015 169.139C244.869 169.064 245.368 169.639 245.445 170.25L242.654 170.494C242.753 169.685 243.233 169.207 244.015 169.139Z"
            fill="white" />
        <rect x="99.8902" y="160.845" width="161.274" height="42.7763" rx="21.3512"
            transform="rotate(-5 99.8902 160.845)" stroke="#3B69D1" shape-rendering="crispEdges" />
    </g>
    <defs>
        <filter id="filter0_d_3545_10532" x="-25.0423" y="2.67163" width="390.66" height="230.398"
            filterUnits="userSpaceOnUse" color-interpolation-filters="sRGB">
            <feFlood flood-opacity="0" result="BackgroundImageFix" />
            <feColorMatrix in="SourceAlpha" type="matrix"
                values="0 0 0 0 0 0 0 0 0 0 0 0 0 0 0 0 0 0 127 0" result="hardAlpha" />
            <feOffset dy="6" />
            <feGaussianBlur stdDeviation="12.5" />
            <feComposite in2="hardAlpha" operator="out" />
            <feColorMatrix type="matrix"
                values="0 0 0 0 0.196078 0 0 0 0 0.196078 0 0 0 0 0.196078 0 0 0 0.1 0" />
            <feBlend mode="normal" in2="BackgroundImageFix"
                result="effect1_dropShadow_3545_10532" />
            <feBlend mode="normal" in="SourceGraphic" in2="effect1_dropShadow_3545_10532"
                result="shape" />
        </filter>
        <filter id="filter1_d_3545_10532" x="79.3147" y="132.223" width="205.54" height="97.8206"
            filterUnits="userSpaceOnUse" color-interpolation-filters="sRGB">
            <feFlood flood-opacity="0" result="BackgroundImageFix" />
            <feColorMatrix in="SourceAlpha" type="matrix"
                values="0 0 0 0 0 0 0 0 0 0 0 0 0 0 0 0 0 0 127 0" result="hardAlpha" />
            <feOffset dy="6" />
            <feGaussianBlur stdDeviation="10" />
            <feComposite in2="hardAlpha" operator="out" />
            <feColorMatrix type="matrix"
                values="0 0 0 0 0.196078 0 0 0 0 0.196078 0 0 0 0 0.196078 0 0 0 0.2 0" />
            <feBlend mode="normal" in2="BackgroundImageFix"
                result="effect1_dropShadow_3545_10532" />
            <feBlend mode="normal" in="SourceGraphic" in2="effect1_dropShadow_3545_10532"
                result="shape" />
        </filter>
    </defs>
</svg>
