<svg width="361" height="240" viewBox="0 0 361 240" fill="none" xmlns="http://www.w3.org/2000/svg">
<rect x="18.7481" y="28.9948" width="326.463" height="189.189" rx="11.5" transform="rotate(-5 18.7481 28.9948)" fill="#F1F1F1" stroke="#878787" stroke-dasharray="5 5"/>
<g filter="url(#filter0_d_3531_10683)">
<g clip-path="url(#clip0_3531_10683)">
<rect y="50.3254" width="328.465" height="190.269" rx="16" transform="rotate(-5 0 50.3254)" fill="white"/>
<path d="M20.6604 83.7013L25.0499 83.3173C28.5934 83.0073 30.7628 80.228 30.4989 77.2112C30.2349 74.1944 27.6159 71.8341 24.0724 72.1441L19.6829 72.5281L20.6604 83.7013ZM24.2844 74.2004C26.3594 74.0188 27.9939 75.4199 28.1685 77.4151C28.3416 79.3943 26.9767 81.0739 24.9017 81.2554L22.7468 81.444L22.1296 74.3889L24.2844 74.2004ZM40.2406 80.6694L38.6876 79.6472C38.3069 80.2596 37.5742 80.7097 36.6964 80.7865C35.4354 80.8968 34.4565 80.3712 34.1337 78.8876L39.7682 78.3946C39.8083 78.1177 39.8358 77.6971 39.7967 77.2502C39.6124 75.1432 38.0113 73.7554 35.7766 73.9509C33.143 74.1813 31.8143 76.2758 32.0224 78.6541C32.2277 81.0005 34.0144 82.8547 36.8715 82.6047C38.3879 82.472 39.5784 81.7406 40.2406 80.6694ZM35.874 75.6151C37.0073 75.5159 37.6691 76.2783 37.7722 77.0896L34.0691 77.4135C34.2004 76.3405 34.8365 75.7058 35.874 75.6151ZM42.1924 81.8175L44.2195 81.6402L43.7684 76.4845C44.027 75.9472 44.618 75.3487 45.6076 75.2621C45.9748 75.23 46.2503 75.2541 46.5113 75.2956L46.3367 73.3004C46.1396 73.2533 45.896 73.2264 45.6246 73.2501C44.7148 73.3297 44.0648 73.8048 43.5855 74.3936L43.5157 73.5955L41.4886 73.7728L42.1924 81.8175ZM48.6768 81.2502L50.7039 81.0728L50.2445 75.8214C50.5031 75.2841 50.9857 74.5503 52.0073 74.4609C52.9969 74.3744 53.6621 74.9917 53.7557 76.0611L54.1676 80.7698L56.2107 80.5911L55.7918 75.8026C55.5837 73.4243 54.0903 72.3486 52.3505 72.5008C51.2811 72.5944 50.5672 73.075 50.056 73.6666L50.0001 73.0282L47.973 73.2055L48.6768 81.2502ZM58.7074 70.851C59.4257 70.7881 59.9632 70.1299 59.9004 69.4116C59.8375 68.6934 59.1939 68.1385 58.4756 68.2013C57.7573 68.2642 57.2039 68.9238 57.2667 69.6421C57.3295 70.3603 57.9891 70.9138 58.7074 70.851ZM58.5126 80.3897L60.5397 80.2123L59.8359 72.1676L57.8088 72.345L58.5126 80.3897ZM70.2624 78.0428L68.7093 77.0207C68.3286 77.633 67.596 78.0831 66.7181 78.1599C65.4571 78.2702 64.4782 77.7447 64.1554 76.261L69.7899 75.7681C69.83 75.4912 69.8576 75.0706 69.8185 74.6236C69.6341 72.5167 68.033 71.1288 65.7983 71.3243C63.1647 71.5547 61.836 73.6493 62.0441 76.0276C62.2494 78.3739 64.0361 80.2281 66.8932 79.9781C68.4096 79.8455 69.6001 79.1141 70.2624 78.0428ZM65.8957 72.9885C67.029 72.8894 67.6908 73.6517 67.7939 74.463L64.0908 74.787C64.2221 73.714 64.8582 73.0793 65.8957 72.9885ZM72.2141 79.191L74.2412 79.0136L73.7902 73.858C74.0487 73.3207 74.6397 72.7221 75.6294 72.6355C75.9965 72.6034 76.272 72.6276 76.533 72.6691L76.3584 70.6738C76.1613 70.6268 75.9177 70.5998 75.6463 70.6236C74.7365 70.7032 74.0865 71.1782 73.6072 71.767L73.5374 70.9689L71.5103 71.1463L72.2141 79.191ZM86.7238 76.3131C85.367 76.4318 84.3054 75.5114 84.1811 74.0908C84.0582 72.6862 84.9425 71.5795 86.2673 71.4636C87.0973 71.391 87.7679 71.7022 88.1999 72.2274L89.674 70.876C88.8372 69.952 87.6002 69.4169 86.1317 69.5454C83.3543 69.7884 81.8689 71.9288 82.0742 74.2752C82.2794 76.6215 84.114 78.4715 86.8914 78.2285C88.3598 78.1001 89.4851 77.3583 90.1488 76.303L88.4624 75.2282C88.1282 75.8203 87.5219 76.2433 86.7238 76.3131ZM94.5638 68.8077C91.9461 69.0367 90.3274 71.1244 90.5382 73.5347C90.7491 75.9449 92.7058 77.7198 95.3235 77.4908C97.9412 77.2618 99.56 75.174 99.3491 72.7638C99.1382 70.3536 97.1815 68.5786 94.5638 68.8077ZM95.1878 75.5726C93.8471 75.6899 92.7681 74.755 92.6452 73.3503C92.5223 71.9457 93.4225 70.8376 94.7633 70.7203C96.0562 70.6072 97.1193 71.5435 97.2421 72.9481C97.3636 74.3368 96.4807 75.4595 95.1878 75.5726ZM101.55 76.6244L103.577 76.447L103.118 71.1956C103.376 70.6583 103.795 69.9301 104.721 69.8491C105.631 69.7695 106.21 70.33 106.296 71.3036L106.722 76.1719L108.765 75.9932L108.332 71.0451C108.321 70.9174 108.311 70.8056 108.285 70.6953C108.557 70.1247 108.983 69.4762 109.86 69.3994C110.77 69.3198 111.35 69.8803 111.435 70.854L111.861 75.7223L113.904 75.5435L113.471 70.5954C113.273 68.3288 111.864 67.2941 110.204 67.4393C108.847 67.558 108.134 68.2316 107.621 68.9842C107.019 68.1684 106.086 67.7996 105.064 67.889C104.074 67.9756 103.423 68.4347 102.926 69.0089L102.873 68.4024L100.846 68.5797L101.55 76.6244ZM116.218 75.3411L118.245 75.1638L117.786 69.9124C118.044 69.3751 118.463 68.6468 119.389 68.5658C120.299 68.4862 120.878 69.0467 120.964 70.0203L121.389 74.8887L123.433 74.7099L123 69.7618C122.988 69.6341 122.979 69.5224 122.953 69.412C123.225 68.8414 123.651 68.193 124.528 68.1162C125.438 68.0366 126.018 68.597 126.103 69.5707L126.529 74.439L128.572 74.2603L128.139 69.3121C127.941 67.0456 126.532 66.0108 124.872 66.1561C123.515 66.2748 122.802 66.9483 122.289 67.7009C121.686 66.8851 120.753 66.5164 119.732 66.6057C118.742 66.6923 118.091 67.1514 117.594 67.7256L117.541 67.1191L115.514 67.2964L116.218 75.3411ZM138.178 72.101L136.624 71.0789C136.244 71.6912 135.511 72.1413 134.633 72.2181C133.372 72.3284 132.393 71.8029 132.071 70.3192L137.705 69.8263C137.745 69.5493 137.773 69.1288 137.734 68.6818C137.549 66.5749 135.948 65.187 133.714 65.3825C131.08 65.6129 129.751 67.7075 129.959 70.0858C130.165 72.4321 131.951 74.2863 134.808 74.0363C136.325 73.9037 137.515 73.1722 138.178 72.101ZM133.811 67.0467C134.944 66.9476 135.606 67.7099 135.709 68.5212L132.006 68.8452C132.137 67.7721 132.773 67.1375 133.811 67.0467ZM140.129 73.2491L142.156 73.0718L141.697 67.8204C141.956 67.2831 142.438 66.5493 143.46 66.4599C144.449 66.3733 145.115 66.9906 145.208 68.0601L145.62 72.7688L147.663 72.59L147.244 67.8015C147.036 65.4232 145.543 64.3476 143.803 64.4998C142.733 64.5934 142.02 65.074 141.508 65.6656L141.453 65.0271L139.425 65.2045L140.129 73.2491ZM150.219 69.407C150.391 71.3703 151.447 72.4198 153.459 72.2438C154.129 72.1852 154.601 72.0635 154.985 71.853L154.83 70.0812C154.568 70.2167 154.206 70.3127 153.648 70.3615C152.85 70.4314 152.34 70.1221 152.262 69.2282L151.974 65.9401L154.432 65.7251L154.273 63.9054L151.815 64.1205L151.639 62.1093L149.596 62.2881L149.772 64.2992L148.272 64.4305L148.431 66.2501L149.931 66.1189L150.219 69.407ZM159.08 71.8324C160.022 71.75 160.944 71.2672 161.401 70.6L161.469 71.3821L163.496 71.2048L163.041 66.0013C162.886 64.2295 161.567 62.9456 159.237 63.1495C157.769 63.278 156.64 63.9878 156.009 65.0403L157.592 66.0437C157.972 65.4154 158.546 64.9952 159.328 64.9268C160.254 64.8458 160.94 65.3327 161.014 66.1786L161.032 66.3861L158.61 67.0162C156.912 67.4543 156.049 68.4465 156.156 69.6596C156.285 71.1441 157.468 71.9735 159.08 71.8324ZM158.158 69.3879C158.115 68.8931 158.435 68.5112 159.269 68.2935L161.156 67.8067L161.255 68.94C160.912 69.6134 160.28 70.103 159.354 70.184C158.667 70.244 158.206 69.9306 158.158 69.3879ZM166.012 61.463C166.731 61.4002 167.268 60.742 167.205 60.0237C167.143 59.3054 166.499 58.7505 165.781 58.8134C165.062 58.8762 164.509 59.5358 164.572 60.2541C164.635 60.9724 165.294 61.5258 166.012 61.463ZM165.818 71.0017L167.845 70.8244L167.141 62.7797L165.114 62.957L165.818 71.0017ZM170.276 70.6117L172.303 70.4343L171.852 65.2787C172.11 64.7414 172.701 64.1428 173.691 64.0563C174.058 64.0241 174.334 64.0483 174.595 64.0898L174.42 62.0946C174.223 62.0475 173.979 62.0205 173.708 62.0443C172.798 62.1239 172.148 62.5989 171.669 63.1877L171.599 62.3896L169.572 62.567L170.276 70.6117ZM183.709 68.1175L182.156 67.0954C181.775 67.7077 181.042 68.1578 180.165 68.2346C178.904 68.3449 177.925 67.8194 177.602 66.3358L183.236 65.8428C183.277 65.5659 183.304 65.1453 183.265 64.6983C183.081 62.5914 181.48 61.2035 179.245 61.399C176.611 61.6294 175.283 63.724 175.491 66.1023C175.696 68.4487 177.483 70.3028 180.34 70.0529C181.856 69.9202 183.047 69.1888 183.709 68.1175ZM179.342 63.0632C180.475 62.9641 181.137 63.7265 181.24 64.5377L177.537 64.8617C177.669 63.7887 178.305 63.154 179.342 63.0632Z" fill="#161616"/>
<rect x="20.5002" y="100.804" width="165.462" height="21.0298" rx="10.5" transform="rotate(-5 20.5002 100.804)" fill="#F1F1F1"/>
<rect x="23.3802" y="133.725" width="216.024" height="21.0298" rx="10.5" transform="rotate(-5 23.3802 133.725)" fill="#F1F1F1"/>
<path d="M80.8889 185.993C80.8249 185.261 80.1806 184.714 79.4491 184.778L68.8079 185.709C68.0764 185.773 67.5302 186.424 67.5942 187.156L68.2924 195.137C68.3564 195.868 69.0073 196.415 69.7389 196.351L79.0499 195.536L81.9429 197.963L80.8889 185.993ZM78.1521 192.934L71.5014 193.516C71.1356 193.548 70.8101 193.275 70.7781 192.909C70.7461 192.543 71.0192 192.218 71.385 192.186L78.0357 191.604C78.4015 191.572 78.727 191.845 78.759 192.211C78.791 192.576 78.5179 192.902 78.1521 192.934ZM77.9775 190.939L71.3268 191.52C70.961 191.552 70.6356 191.279 70.6036 190.914C70.5716 190.548 70.8447 190.222 71.2104 190.19L77.8612 189.608C78.2269 189.576 78.5524 189.85 78.5844 190.215C78.6164 190.581 78.3433 190.907 77.9775 190.939ZM77.803 188.943L71.1523 189.525C70.7865 189.557 70.461 189.284 70.429 188.918C70.397 188.553 70.6701 188.227 71.0359 188.195L77.6866 187.613C78.0524 187.581 78.3779 187.854 78.4099 188.22C78.4419 188.586 78.1688 188.911 77.803 188.943Z" fill="#3B69D1"/>
<path d="M92.5406 184.772L97.748 195.576L100.717 195.316L103.969 183.773L101.559 183.983L99.0187 193.004L94.9508 184.562L92.5406 184.772ZM108.674 186.192C106.056 186.421 104.437 188.509 104.648 190.919C104.859 193.329 106.816 195.104 109.433 194.875C112.051 194.646 113.67 192.558 113.459 190.148C113.248 187.738 111.291 185.963 108.674 186.192ZM109.298 192.957C107.957 193.074 106.878 192.139 106.755 190.734C106.632 189.33 107.532 188.222 108.873 188.104C110.166 187.991 111.229 188.928 111.352 190.332C111.473 191.721 110.591 192.844 109.298 192.957ZM115.855 184.47C116.573 184.407 117.11 183.749 117.048 183.03C116.985 182.312 116.341 181.757 115.623 181.82C114.904 181.883 114.351 182.543 114.414 183.261C114.477 183.979 115.136 184.533 115.855 184.47ZM115.66 194.009L117.687 193.831L116.983 185.786L114.956 185.964L115.66 194.009ZM120.118 193.618L122.145 193.441L121.694 188.285C121.952 187.748 122.543 187.15 123.533 187.063C123.9 187.031 124.176 187.055 124.437 187.097L124.262 185.101C124.065 185.054 123.821 185.027 123.55 185.051C122.64 185.131 121.99 185.606 121.511 186.195L121.441 185.396L119.414 185.574L120.118 193.618ZM130.904 192.675L132.932 192.497L131.884 180.526L129.857 180.703L130.904 192.675ZM142.654 190.328L141.101 189.306C140.72 189.918 139.988 190.368 139.11 190.445C137.849 190.555 136.87 190.03 136.547 188.546L142.182 188.053C142.222 187.776 142.249 187.356 142.21 186.909C142.026 184.802 140.425 183.414 138.19 183.609C135.556 183.84 134.228 185.934 134.436 188.313C134.641 190.659 136.428 192.513 139.285 192.263C140.801 192.131 141.992 191.399 142.654 190.328ZM138.288 185.274C139.421 185.174 140.083 185.937 140.186 186.748L136.483 187.072C136.614 185.999 137.25 185.364 138.288 185.274ZM143.693 190.382C144.538 191.225 145.61 191.71 147.047 191.584C148.563 191.452 149.839 190.407 149.723 188.712C149.48 185.935 145.675 186.75 145.555 185.378C145.518 184.963 145.791 184.585 146.429 184.529C147.052 184.475 147.615 184.844 148.075 185.318L149.312 184.02C148.669 183.288 147.5 182.795 146.271 182.902C144.595 183.049 143.491 184.223 143.616 185.644C143.863 188.469 147.664 187.606 147.787 189.01C147.828 189.489 147.527 189.902 146.872 189.959C146.106 190.026 145.476 189.631 144.927 189.051L143.693 190.382ZM155.807 190.496L163.532 189.82L163.362 187.873L158.27 188.318L160.74 185.481C161.748 184.315 162.65 183.046 162.516 181.513C162.348 179.598 160.675 178.49 158.728 178.66C156.78 178.831 155.476 179.91 154.668 181.524L156.517 182.44C157.021 181.399 157.618 180.687 158.688 180.594C159.566 180.517 160.252 181.004 160.333 181.93C160.412 182.839 159.923 183.493 159.138 184.447L155.636 188.549L155.807 190.496ZM173.69 187.323C172.333 187.442 171.272 186.521 171.147 185.101C171.024 183.696 171.909 182.589 173.234 182.474C174.064 182.401 174.734 182.712 175.166 183.237L176.64 181.886C175.803 180.962 174.566 180.427 173.098 180.555C170.321 180.798 168.835 182.939 169.04 185.285C169.246 187.632 171.08 189.482 173.858 189.239C175.326 189.11 176.451 188.368 177.115 187.313L175.429 186.238C175.094 186.83 174.488 187.253 173.69 187.323ZM181.53 179.818C178.912 180.047 177.294 182.134 177.504 184.545C177.715 186.955 179.672 188.73 182.29 188.501C184.907 188.272 186.526 186.184 186.315 183.774C186.104 181.364 184.148 179.589 181.53 179.818ZM182.154 186.583C180.813 186.7 179.734 185.765 179.611 184.36C179.489 182.956 180.389 181.848 181.73 181.73C183.022 181.617 184.085 182.554 184.208 183.958C184.33 185.347 183.447 186.47 182.154 186.583ZM188.516 187.634L190.543 187.457L190.084 182.206C190.342 181.668 190.761 180.94 191.687 180.859C192.597 180.779 193.177 181.34 193.262 182.314L193.688 187.182L195.731 187.003L195.298 182.055C195.287 181.927 195.277 181.816 195.251 181.705C195.523 181.135 195.949 180.486 196.827 180.409C197.737 180.33 198.316 180.89 198.401 181.864L198.827 186.732L200.871 186.554L200.438 181.605C200.239 179.339 198.83 178.304 197.17 178.449C195.813 178.568 195.1 179.242 194.587 179.994C193.985 179.178 193.052 178.81 192.03 178.899C191.041 178.986 190.389 179.445 189.893 180.019L189.839 179.412L187.812 179.59L188.516 187.634ZM203.184 186.351L205.211 186.174L204.752 180.922C205.01 180.385 205.429 179.657 206.355 179.576C207.265 179.496 207.845 180.057 207.93 181.03L208.356 185.899L210.399 185.72L209.966 180.772C209.955 180.644 209.945 180.532 209.919 180.422C210.191 179.851 210.617 179.203 211.495 179.126C212.404 179.047 212.984 179.607 213.069 180.581L213.495 185.449L215.538 185.27L215.106 180.322C214.907 178.056 213.498 177.021 211.838 177.166C210.481 177.285 209.768 177.958 209.255 178.711C208.653 177.895 207.72 177.526 206.698 177.616C205.709 177.702 205.057 178.161 204.56 178.736L204.507 178.129L202.48 178.306L203.184 186.351ZM225.144 183.111L223.591 182.089C223.21 182.701 222.477 183.151 221.599 183.228C220.338 183.338 219.36 182.813 219.037 181.329L224.671 180.836C224.711 180.559 224.739 180.139 224.7 179.692C224.516 177.585 222.914 176.197 220.68 176.392C218.046 176.623 216.717 178.717 216.925 181.096C217.131 183.442 218.917 185.296 221.775 185.046C223.291 184.914 224.482 184.182 225.144 183.111ZM220.777 178.057C221.91 177.958 222.572 178.72 222.675 179.531L218.972 179.855C219.103 178.782 219.74 178.147 220.777 178.057ZM227.095 184.259L229.123 184.082L228.663 178.83C228.922 178.293 229.404 177.559 230.426 177.47C231.416 177.383 232.081 178.001 232.174 179.07L232.586 183.779L234.629 183.6L234.21 178.811C234.002 176.433 232.509 175.358 230.769 175.51C229.7 175.603 228.986 176.084 228.475 176.676L228.419 176.037L226.392 176.214L227.095 184.259ZM237.185 180.417C237.357 182.38 238.414 183.43 240.425 183.254C241.095 183.195 241.567 183.073 241.951 182.863L241.796 181.091C241.534 181.227 241.173 181.323 240.614 181.372C239.816 181.441 239.306 181.132 239.228 180.238L238.94 176.95L241.399 176.735L241.239 174.915L238.781 175.13L238.605 173.119L236.562 173.298L236.738 175.309L235.238 175.441L235.397 177.26L236.897 177.129L237.185 180.417ZM246.046 182.842C246.988 182.76 247.911 182.277 248.367 181.61L248.435 182.392L250.463 182.215L250.007 177.011C249.852 175.24 248.534 173.956 246.203 174.159C244.735 174.288 243.607 174.998 242.975 176.05L244.559 177.054C244.938 176.425 245.512 176.005 246.294 175.937C247.22 175.856 247.906 176.343 247.98 177.189L247.998 177.396L245.576 178.026C243.878 178.464 243.016 179.457 243.122 180.67C243.252 182.154 244.434 182.983 246.046 182.842ZM245.125 180.398C245.081 179.903 245.402 179.521 246.235 179.304L248.123 178.817L248.222 179.95C247.879 180.623 247.246 181.113 246.32 181.194C245.634 181.254 245.172 180.941 245.125 180.398ZM252.979 172.473C253.697 172.41 254.234 171.752 254.172 171.034C254.109 170.315 253.465 169.761 252.747 169.823C252.029 169.886 251.475 170.546 251.538 171.264C251.601 171.982 252.26 172.536 252.979 172.473ZM252.784 182.012L254.811 181.834L254.107 173.79L252.08 173.967L252.784 182.012ZM257.242 181.622L259.269 181.444L258.818 176.289C259.077 175.751 259.668 175.153 260.657 175.066C261.024 175.034 261.3 175.058 261.561 175.1L261.386 173.105C261.189 173.057 260.945 173.031 260.674 173.054C259.764 173.134 259.114 173.609 258.635 174.198L258.565 173.4L256.538 173.577L257.242 181.622ZM270.675 179.128L269.122 178.105C268.741 178.718 268.009 179.168 267.131 179.245C265.87 179.355 264.891 178.829 264.568 177.346L270.203 176.853C270.243 176.576 270.27 176.155 270.231 175.708C270.047 173.601 268.446 172.214 266.211 172.409C263.577 172.639 262.249 174.734 262.457 177.112C262.662 179.459 264.449 181.313 267.306 181.063C268.822 180.93 270.013 180.199 270.675 179.128ZM266.308 174.073C267.442 173.974 268.104 174.736 268.207 175.548L264.504 175.872C264.635 174.799 265.271 174.164 266.308 174.073ZM271.713 179.181C272.559 180.024 273.631 180.509 275.068 180.384C276.584 180.251 277.86 179.207 277.744 177.512C277.501 174.735 273.696 175.55 273.576 174.177C273.539 173.762 273.812 173.385 274.45 173.329C275.073 173.274 275.636 173.643 276.096 174.118L277.333 172.819C276.69 172.087 275.521 171.595 274.292 171.702C272.616 171.849 271.512 173.023 271.637 174.443C271.884 177.269 275.685 176.405 275.807 177.81C275.849 178.289 275.548 178.701 274.893 178.758C274.127 178.826 273.497 178.43 272.948 177.851L271.713 179.181Z" fill="#3B69D1"/>
<rect x="26.802" y="167.101" width="295.419" height="55.0793" rx="27.5" transform="rotate(-5 26.802 167.101)" stroke="#3B69D1"/>
</g>
</g>
<defs>
<filter id="filter0_d_3531_10683" x="-25.0354" y="2.67089" width="393.869" height="268.244" filterUnits="userSpaceOnUse" color-interpolation-filters="sRGB">
<feFlood flood-opacity="0" result="BackgroundImageFix"/>
<feColorMatrix in="SourceAlpha" type="matrix" values="0 0 0 0 0 0 0 0 0 0 0 0 0 0 0 0 0 0 127 0" result="hardAlpha"/>
<feOffset dy="6"/>
<feGaussianBlur stdDeviation="12.5"/>
<feComposite in2="hardAlpha" operator="out"/>
<feColorMatrix type="matrix" values="0 0 0 0 0.196078 0 0 0 0 0.196078 0 0 0 0 0.196078 0 0 0 0.1 0"/>
<feBlend mode="normal" in2="BackgroundImageFix" result="effect1_dropShadow_3531_10683"/>
<feBlend mode="normal" in="SourceGraphic" in2="effect1_dropShadow_3531_10683" result="shape"/>
</filter>
<clipPath id="clip0_3531_10683">
<rect y="50.3254" width="328.465" height="190.269" rx="16" transform="rotate(-5 0 50.3254)" fill="white"/>
</clipPath>
</defs>
</svg>
