<svg width="357" height="183" viewBox="0 0 357 183" fill="none" xmlns="http://www.w3.org/2000/svg">
    <rect x="19.5766" y="29.0067" width="326.6" height="131.242" rx="11.5"
        transform="rotate(-5 19.5766 29.0067)" fill="#F1F1F1" stroke="#878787"
        stroke-dasharray="5 5" />
    <g filter="url(#filter0_d_3552_10578)">
        <rect y="51.2609" width="327.6" height="132.242" rx="16" transform="rotate(-5 0 51.2609)"
            fill="white" shape-rendering="crispEdges" />
        <rect x="17.3653" y="65.8323" width="93.1707" height="32.0587" rx="16"
            transform="rotate(-5 17.3653 65.8323)" fill="#F4E5FF" />
        <path
            d="M36.8785 86.2497L38.1919 86.1348L37.4768 77.961L43.725 85.6507L45.4436 85.5004L44.5879 75.7198L43.2745 75.8347L43.9896 84.0085L37.7414 76.3187L36.0228 76.4691L36.8785 86.2497ZM50.77 77.6568C48.4925 77.8561 47.1083 79.7371 47.288 81.791C47.4677 83.845 49.1575 85.457 51.435 85.2578C53.6985 85.0598 55.0966 83.1775 54.9169 81.1236C54.7372 79.0697 53.0335 77.4588 50.77 77.6568ZM51.3511 84.1388C49.8421 84.2708 48.6599 83.1493 48.5316 81.6822C48.4032 80.2151 49.3727 78.9054 50.8817 78.7734C52.3488 78.6451 53.531 79.7665 53.6594 81.2336C53.7865 82.6867 52.8182 84.0104 51.3511 84.1388ZM61.7745 81.0305C61.8955 82.4137 61.2107 83.2762 60.037 83.3789C58.8354 83.484 58.0252 82.7524 57.9042 81.3691L57.5521 77.3451L56.3645 77.449L56.7128 81.4311C56.8974 83.5409 58.2206 84.6641 60.1208 84.4979C62.035 84.3304 63.1431 82.9945 62.9585 80.8847L62.6101 76.9026L61.4224 77.0065L61.7745 81.0305ZM63.9434 76.7859L67.312 83.5871L68.8769 83.4502L71.0134 76.1674L69.7279 76.2798L67.9857 82.2751L65.2288 76.6734L63.9434 76.7859ZM79.1341 81.3843L78.1939 80.7766C77.7878 81.4457 77.056 81.9321 76.1478 82.0116C74.6388 82.1436 73.4737 81.2178 73.2839 79.5308L78.6912 79.0577C78.716 78.8584 78.7347 78.5893 78.7102 78.3098C78.5586 76.5773 77.1977 75.3447 75.2835 75.5122C73.1039 75.7029 71.88 77.4854 72.0671 79.6232C72.2468 81.6771 73.8667 83.2953 76.242 83.0875C77.5554 82.9726 78.5544 82.322 79.1341 81.3843ZM75.3436 76.5206C76.5871 76.4118 77.3755 77.2158 77.5079 78.2461L73.2883 78.6152C73.4334 77.3776 74.1839 76.6221 75.3436 76.5206ZM82.9714 82.4142C83.8796 82.3348 84.7663 81.8489 85.2373 81.1178L85.3156 82.012L86.5032 81.9081L86.09 77.1855C85.9543 75.6346 84.8008 74.6795 83.0123 74.836C81.7827 74.9436 80.8359 75.5473 80.2945 76.4395L81.2486 77.0459C81.6292 76.4072 82.2529 75.9725 83.0633 75.9016C84.0693 75.8136 84.8168 76.3113 84.9024 77.2894L84.9452 77.7784L82.6041 78.3775C81.1311 78.7598 80.3867 79.5852 80.4796 80.6471C80.5847 81.8487 81.5881 82.5353 82.9714 82.4142ZM81.6775 80.5C81.625 79.8992 82.0202 79.4282 82.9696 79.1762L85.021 78.6447L85.142 80.028C84.7469 80.8228 84.0175 81.3372 83.0814 81.4191C82.257 81.4912 81.7301 81.1008 81.6775 80.5ZM93.5261 78.2526C93.6471 79.6358 92.9623 80.4983 91.7886 80.601C90.587 80.7061 89.7768 79.9745 89.6557 78.5912L89.3037 74.5672L88.116 74.6711L88.4644 78.6532C88.649 80.763 89.9722 81.8862 91.8724 81.72C93.7866 81.5525 94.8946 80.2166 94.71 78.1068L94.3617 74.1246L93.174 74.2286L93.5261 78.2526Z"
            fill="#950EFF" />
        <path
            d="M42.1415 143.112L44.409 142.914L44.0136 138.395L45.4348 138.27C47.8939 138.055 49.2846 136.662 49.1044 134.602C48.9228 132.526 47.3114 131.396 44.8522 131.611L41.1635 131.934L42.1415 143.112ZM45.1129 133.487C46.071 133.404 46.6962 133.928 46.7702 134.774C46.8498 135.685 46.3239 136.294 45.3658 136.378L43.8488 136.51L43.5959 133.62L45.1129 133.487ZM53.3709 142.371C54.313 142.289 55.2362 141.805 55.6927 141.138L55.7611 141.92L57.7891 141.743L57.3337 136.537C57.1786 134.765 55.8594 133.48 53.528 133.684C52.059 133.813 50.9304 134.523 50.2984 135.576L51.8827 136.58C52.2621 135.951 52.8368 135.531 53.6192 135.462C54.5454 135.381 55.2316 135.868 55.3057 136.715L55.3239 136.922L52.901 137.553C51.2016 137.991 50.3391 138.984 50.4453 140.197C50.5752 141.682 51.7581 142.512 53.3709 142.371ZM52.4489 139.925C52.4056 139.43 52.7262 139.048 53.5599 138.831L55.4482 138.344L55.5474 139.477C55.2041 140.151 54.5711 140.641 53.6449 140.722C52.9583 140.782 52.4964 140.468 52.4489 139.925ZM60.1114 141.54L62.1394 141.362L61.6881 136.205C61.9468 135.667 62.5381 135.068 63.5281 134.982C63.8954 134.95 64.171 134.974 64.4321 135.015L64.2575 133.019C64.0603 132.972 63.8165 132.945 63.5451 132.969C62.6349 133.049 61.9846 133.524 61.5051 134.113L61.4353 133.314L59.4073 133.492L60.1114 141.54ZM67.3827 137.943C67.5545 139.907 68.6118 140.957 70.6238 140.781C71.2945 140.722 71.7666 140.601 72.1504 140.39L71.9953 138.618C71.7336 138.753 71.372 138.849 70.8131 138.898C70.0146 138.968 69.5049 138.658 69.4266 137.764L69.1388 134.475L71.598 134.26L71.4387 132.439L68.9796 132.654L68.8035 130.642L66.7596 130.821L66.9356 132.833L65.4346 132.964L65.5938 134.785L67.0949 134.654L67.3827 137.943ZM76.2474 140.369C77.1896 140.287 78.1127 139.804 78.5692 139.137L78.6377 139.919L80.6657 139.742L80.2102 134.536C80.0552 132.763 78.736 131.479 76.4046 131.683C74.9355 131.811 73.807 132.522 73.175 133.575L74.7592 134.578C75.1387 133.95 75.7134 133.529 76.4958 133.461C77.422 133.38 78.1082 133.867 78.1823 134.713L78.2004 134.921L75.7776 135.551C74.0782 135.99 73.2157 136.982 73.3218 138.196C73.4518 139.681 74.6346 140.511 76.2474 140.369ZM75.3255 137.924C75.2822 137.429 75.6027 137.047 76.4365 136.829L78.3248 136.342L78.4239 137.476C78.0806 138.15 77.4477 138.639 76.5215 138.72C75.8349 138.78 75.373 138.467 75.3255 137.924ZM82.3125 141.013C82.4606 142.706 84.0558 143.468 86.6267 143.243C89.1337 143.023 90.7222 141.501 90.5657 139.712C90.4344 138.211 89.2376 137.222 87.2096 137.399L85.1816 137.577C84.8144 137.609 84.6247 137.464 84.5968 137.145C84.5814 136.969 84.6619 136.785 84.8236 136.61C85.0673 136.637 85.3242 136.631 85.5956 136.607C87.6715 136.425 88.7414 135.045 88.6031 133.464C88.5793 133.192 88.5251 132.94 88.4229 132.691L89.8441 132.567L89.6932 130.842L86.755 131.099C86.2737 130.932 85.721 130.868 85.0983 130.922C83.0863 131.098 81.983 132.466 82.1199 134.031C82.1982 134.925 82.6513 135.69 83.4 136.156C82.8323 136.656 82.6055 137.19 82.6614 137.829C82.6977 138.244 82.9111 138.66 83.2584 138.952C82.586 139.541 82.2426 140.215 82.3125 141.013ZM85.4934 135.071C84.6152 135.148 84.0421 134.667 83.9723 133.869C83.9038 133.086 84.3847 132.513 85.2629 132.437C86.1093 132.362 86.6969 132.826 86.7667 133.624C86.8366 134.423 86.3398 134.997 85.4934 135.071ZM84.2035 140.558C84.1602 140.063 84.369 139.691 84.6473 139.377L87.1383 139.159C88.1124 139.074 88.5174 139.473 88.5705 140.08C88.6403 140.878 87.9373 141.487 86.4682 141.615C85.0471 141.74 84.2706 141.325 84.2035 140.558ZM98.7971 136.836L97.2434 135.813C96.8626 136.426 96.1296 136.876 95.2513 136.953C93.9898 137.063 93.0106 136.538 92.6876 135.053L98.3245 134.56C98.3646 134.283 98.3921 133.862 98.353 133.415C98.1686 131.307 96.5668 129.919 94.3312 130.115C91.6965 130.345 90.3673 132.44 90.5754 134.82C90.7808 137.167 92.5682 139.022 95.4266 138.772C96.9436 138.639 98.1346 137.908 98.7971 136.836ZM94.4286 131.779C95.5624 131.68 96.2245 132.443 96.3276 133.255L92.623 133.579C92.7543 132.505 93.3907 131.87 94.4286 131.779ZM100.75 137.984L102.778 137.807L102.326 132.649C102.585 132.112 103.176 131.513 104.166 131.426C104.534 131.394 104.809 131.418 105.07 131.46L104.896 129.464C104.699 129.417 104.455 129.39 104.183 129.413C103.273 129.493 102.623 129.968 102.143 130.557L102.074 129.759L100.046 129.936L100.75 137.984ZM111.541 137.04L113.569 136.863L112.521 124.887L110.493 125.064L111.541 137.04ZM116.508 129.976L117.958 125.216L115.659 125.417L114.624 130.141L116.508 129.976ZM122.734 127.63C120.116 127.859 118.496 129.947 118.707 132.359C118.918 134.77 120.876 136.545 123.494 136.316C126.113 136.087 127.733 133.999 127.522 131.587C127.311 129.176 125.353 127.4 122.734 127.63ZM123.359 134.397C122.017 134.515 120.938 133.579 120.815 132.174C120.692 130.769 121.593 129.66 122.934 129.543C124.228 129.43 125.291 130.367 125.414 131.772C125.535 133.161 124.652 134.284 123.359 134.397ZM127.936 127.496L128.095 129.317L129.596 129.185L130.141 135.413L132.185 135.234L131.64 129.007L134.099 128.791L133.94 126.971L131.481 127.186L131.403 126.292C131.338 125.557 131.743 125.039 132.43 124.979C132.845 124.943 133.177 125.059 133.432 125.213L134.146 123.445C133.612 123.218 132.973 123.097 132.239 123.162C130.227 123.338 129.213 124.81 129.363 126.519L129.437 127.365L127.936 127.496ZM134.735 126.901L134.894 128.722L136.395 128.591L136.94 134.818L138.984 134.639L138.439 128.412L140.898 128.197L140.739 126.376L138.28 126.591L138.202 125.697C138.137 124.963 138.543 124.444 139.229 124.384C139.644 124.348 139.976 124.464 140.231 124.618L140.945 122.85C140.411 122.624 139.773 122.502 139.038 122.567C137.026 122.743 136.012 124.215 136.162 125.924L136.236 126.77L134.735 126.901ZM142.729 134.312L144.757 134.134L144.306 128.977C144.564 128.439 145.156 127.84 146.146 127.754C146.513 127.721 146.789 127.746 147.05 127.787L146.875 125.791C146.678 125.744 146.434 125.717 146.163 125.741C145.253 125.82 144.602 126.296 144.123 126.885L144.053 126.086L142.025 126.264L142.729 134.312ZM156.168 131.817L154.614 130.794C154.233 131.407 153.5 131.857 152.622 131.934C151.361 132.044 150.381 131.518 150.058 130.034L155.695 129.541C155.735 129.264 155.763 128.843 155.724 128.396C155.539 126.288 153.938 124.9 151.702 125.095C149.067 125.326 147.738 127.421 147.946 129.8C148.152 132.148 149.939 134.003 152.797 133.753C154.314 133.62 155.505 132.888 156.168 131.817ZM151.799 126.76C152.933 126.661 153.595 127.424 153.698 128.235L149.994 128.559C150.125 127.486 150.761 126.851 151.799 126.76ZM163.828 123.069L165.76 122.9L163.884 120.393L161.68 120.586L163.828 123.069ZM164.713 132.63C165.655 132.547 166.578 132.064 167.035 131.397L167.103 132.179L169.131 132.002L168.676 126.796C168.521 125.024 167.201 123.739 164.87 123.943C163.401 124.072 162.272 124.782 161.64 125.835L163.225 126.839C163.604 126.21 164.179 125.79 164.961 125.721C165.887 125.64 166.574 126.127 166.648 126.974L166.666 127.181L164.243 127.812C162.544 128.25 161.681 129.242 161.787 130.456C161.917 131.941 163.1 132.771 164.713 132.63ZM163.791 130.184C163.748 129.689 164.068 129.307 164.902 129.089L166.79 128.602L166.889 129.736C166.546 130.41 165.913 130.9 164.987 130.981C164.3 131.041 163.838 130.727 163.791 130.184ZM175.757 131.422L177.785 131.245L177.326 125.991C177.584 125.454 178.003 124.725 178.93 124.644C179.84 124.564 180.42 125.125 180.505 126.099L180.931 130.97L182.975 130.791L182.542 125.84C182.531 125.713 182.521 125.601 182.495 125.491C182.767 124.92 183.193 124.271 184.071 124.194C184.982 124.115 185.562 124.675 185.647 125.649L186.073 130.52L188.117 130.341L187.684 125.391C187.485 123.123 186.075 122.088 184.415 122.233C183.057 122.352 182.344 123.026 181.831 123.779C181.228 122.963 180.295 122.594 179.273 122.683C178.283 122.77 177.631 123.229 177.134 123.803L177.081 123.197L175.053 123.374L175.757 131.422ZM193.532 121.436C190.913 121.665 189.294 123.753 189.505 126.165C189.715 128.576 191.673 130.352 194.292 130.122C196.911 129.893 198.53 127.805 198.319 125.393C198.108 122.982 196.151 121.206 193.532 121.436ZM194.156 128.203C192.815 128.321 191.735 127.385 191.612 125.98C191.489 124.575 192.39 123.466 193.731 123.349C195.025 123.236 196.088 124.173 196.211 125.578C196.333 126.967 195.45 128.09 194.156 128.203ZM200.521 129.256L202.549 129.078L202.089 123.825C202.348 123.287 202.831 122.553 203.853 122.464C204.843 122.377 205.508 122.994 205.602 124.064L206.014 128.775L208.058 128.596L207.639 123.806C207.431 121.426 205.937 120.35 204.196 120.503C203.126 120.596 202.412 121.077 201.901 121.669L201.845 121.03L199.817 121.208L200.521 129.256ZM218.389 126.083C217.032 126.202 215.97 125.281 215.846 123.86C215.723 122.455 216.607 121.348 217.933 121.232C218.763 121.159 219.434 121.47 219.866 121.996L221.341 120.644C220.504 119.72 219.266 119.184 217.797 119.313C215.018 119.556 213.532 121.697 213.738 124.044C213.943 126.392 215.778 128.243 218.557 127.999C220.026 127.871 221.152 127.129 221.816 126.073L220.129 124.998C219.794 125.59 219.188 126.013 218.389 126.083ZM226.233 118.575C223.614 118.804 221.994 120.892 222.205 123.304C222.416 125.715 224.374 127.491 226.993 127.261C229.611 127.032 231.231 124.944 231.02 122.532C230.809 120.121 228.851 118.346 226.233 118.575ZM226.857 125.342C225.516 125.46 224.436 124.524 224.313 123.119C224.19 121.714 225.091 120.605 226.432 120.488C227.726 120.375 228.789 121.312 228.912 122.717C229.034 124.106 228.15 125.229 226.857 125.342ZM233.222 126.395L235.25 126.217L234.79 120.964C235.049 120.426 235.532 119.692 236.554 119.603C237.544 119.516 238.209 120.134 238.303 121.203L238.715 125.914L240.759 125.735L240.34 120.945C240.131 118.565 238.637 117.489 236.897 117.642C235.827 117.735 235.113 118.216 234.601 118.808L234.546 118.169L232.518 118.347L233.222 126.395ZM242.257 124.43C243.103 125.273 244.175 125.758 245.613 125.632C247.13 125.5 248.406 124.455 248.29 122.759C248.047 119.981 244.24 120.797 244.12 119.423C244.084 119.008 244.356 118.63 244.995 118.574C245.618 118.52 246.181 118.889 246.641 119.364L247.879 118.065C247.236 117.332 246.066 116.839 244.837 116.947C243.16 117.094 242.056 118.268 242.18 119.69C242.427 122.516 246.23 121.652 246.353 123.058C246.395 123.537 246.093 123.949 245.438 124.006C244.672 124.074 244.042 123.678 243.492 123.099L242.257 124.43ZM257.623 122.94L256.069 121.918C255.689 122.53 254.956 122.981 254.077 123.058C252.816 123.168 251.837 122.642 251.514 121.158L257.151 120.665C257.191 120.388 257.218 119.967 257.179 119.52C256.995 117.412 255.393 116.023 253.157 116.219C250.523 116.45 249.193 118.545 249.402 120.924C249.607 123.272 251.394 125.127 254.253 124.877C255.77 124.744 256.961 124.012 257.623 122.94ZM253.255 117.884C254.388 117.785 255.051 118.547 255.154 119.359L251.449 119.683C251.58 118.61 252.217 117.975 253.255 117.884ZM259.771 114.546C260.489 114.483 261.027 113.825 260.964 113.106C260.901 112.388 260.257 111.833 259.539 111.896C258.82 111.958 258.266 112.618 258.329 113.337C258.392 114.055 259.052 114.609 259.771 114.546ZM259.576 124.089L261.604 123.912L260.9 115.864L258.872 116.041L259.576 124.089ZM264.036 123.699L266.064 123.521L265.016 111.545L262.988 111.723L264.036 123.699ZM268.496 123.309L270.524 123.131L269.476 111.155L267.448 111.332L268.496 123.309ZM280.25 120.961L278.697 119.938C278.316 120.551 277.583 121.001 276.704 121.078C275.443 121.188 274.464 120.662 274.141 119.178L279.778 118.685C279.818 118.408 279.845 117.987 279.806 117.54C279.622 115.432 278.02 114.044 275.784 114.239C273.15 114.47 271.82 116.565 272.029 118.945C272.234 121.292 274.021 123.147 276.88 122.897C278.397 122.764 279.588 122.032 280.25 120.961ZM275.882 115.904C277.016 115.805 277.678 116.568 277.781 117.379L274.076 117.704C274.207 116.63 274.844 115.995 275.882 115.904ZM282.203 122.109L284.231 121.932L283.78 116.774C284.038 116.237 284.629 115.638 285.62 115.551C285.987 115.519 286.262 115.543 286.524 115.585L286.349 113.589C286.152 113.542 285.908 113.515 285.636 113.538C284.726 113.618 284.076 114.093 283.597 114.682L283.527 113.884L281.499 114.061L282.203 122.109Z"
            fill="#3B69D1" />
        <rect x="21.749" y="110.2" width="280.516" height="55.1028" rx="27.5"
            transform="rotate(-5 21.749 110.2)" stroke="#3B69D1" />
    </g>
    <defs>
        <filter id="filter0_d_3552_10578" x="-25.0459" y="3.67385" width="387.971" height="210.383"
            filterUnits="userSpaceOnUse" color-interpolation-filters="sRGB">
            <feFlood flood-opacity="0" result="BackgroundImageFix" />
            <feColorMatrix in="SourceAlpha" type="matrix"
                values="0 0 0 0 0 0 0 0 0 0 0 0 0 0 0 0 0 0 127 0" result="hardAlpha" />
            <feOffset dy="6" />
            <feGaussianBlur stdDeviation="12.5" />
            <feComposite in2="hardAlpha" operator="out" />
            <feColorMatrix type="matrix"
                values="0 0 0 0 0.196078 0 0 0 0 0.196078 0 0 0 0 0.196078 0 0 0 0.1 0" />
            <feBlend mode="normal" in2="BackgroundImageFix"
                result="effect1_dropShadow_3552_10578" />
            <feBlend mode="normal" in="SourceGraphic" in2="effect1_dropShadow_3552_10578"
                result="shape" />
        </filter>
    </defs>
</svg>
