<svg width="358" height="202" viewBox="0 0 358 202" fill="none" xmlns="http://www.w3.org/2000/svg">
<rect x="18.7516" y="29.0002" width="326.526" height="150.527" rx="11.5" transform="rotate(-5 18.7516 29.0002)" fill="#F1F1F1" stroke="#878787" stroke-dasharray="5 5"/>
<g filter="url(#filter0_d_3531_10693)">
<rect y="50.335" width="328.527" height="152.244" rx="16" transform="rotate(-5 0 50.335)" fill="white"/>
</g>
<path d="M40.3814 163.359C40.8678 163.316 41.3006 163.68 41.3431 164.166L41.6526 167.703C41.6951 168.19 41.332 168.623 40.8456 168.665C40.3592 168.708 39.9264 168.345 39.8839 167.858L39.5744 164.321C39.5319 163.834 39.895 163.402 40.3814 163.359ZM39.9857 158.938C35.1041 159.365 31.4977 163.673 31.9248 168.554C32.3519 173.436 36.6515 177.052 41.5331 176.625C46.4235 176.197 50.0388 171.889 49.6117 167.007C49.1846 162.125 44.8761 158.51 39.9857 158.938ZM41.3872 174.856C37.4784 175.198 34.0355 172.309 33.6935 168.4C33.3515 164.491 36.2405 161.048 40.1493 160.706C44.0581 160.364 47.501 163.253 47.843 167.162C48.185 171.071 45.296 174.514 41.3872 174.856ZM42.0394 172.125L40.2707 172.28L40.116 170.511L41.8847 170.356L42.0394 172.125Z" fill="#D33211"/>
<path d="M60.5813 172.446L65.9015 171.981L65.8025 170.849L61.8123 171.198L61.519 167.844L64.9431 167.545L64.8453 166.427L61.4212 166.727L61.1439 163.557L65.134 163.208L65.035 162.076L59.7148 162.542L60.5813 172.446ZM68.1742 171.782L69.3769 171.677L68.9449 166.739C69.332 165.949 69.9309 165.298 70.9638 165.207C72.0675 165.111 72.8535 165.783 72.9649 167.057L73.3388 171.33L74.5415 171.225L74.1639 166.909C73.9869 164.886 72.7042 163.915 71.1053 164.054C70.0441 164.147 69.348 164.664 68.8236 165.352L68.753 164.545L67.5503 164.651L68.1742 171.782ZM80.7761 170.679L81.9788 170.574L81.5505 165.678C81.926 164.918 82.4923 164.384 83.4262 164.302C83.7092 164.278 83.9239 164.287 84.1411 164.325L84.0384 163.151C83.8636 163.109 83.6489 163.1 83.4225 163.119C82.5169 163.199 81.902 163.666 81.4329 164.334L81.3549 163.443L80.1522 163.548L80.7761 170.679ZM92.2079 168.496L91.2558 167.881C90.8446 168.558 90.1035 169.051 89.1838 169.131C87.6556 169.265 86.4757 168.327 86.2835 166.619L91.7594 166.14C91.7845 165.938 91.8034 165.665 91.7786 165.382C91.6251 163.628 90.247 162.38 88.3085 162.549C86.1012 162.742 84.8618 164.548 85.0512 166.712C85.2332 168.792 86.8737 170.431 89.2791 170.221C90.6091 170.104 91.6208 169.445 92.2079 168.496ZM88.3693 163.571C89.6286 163.46 90.427 164.275 90.5611 165.318L86.2879 165.692C86.4349 164.438 87.1949 163.673 88.3693 163.571ZM94.3529 167.082C94.5052 168.822 95.466 169.537 97.0507 169.398C97.5601 169.354 97.9372 169.264 98.2644 169.092L98.1703 168.017C97.9114 168.154 97.5909 168.239 97.1239 168.28C96.2608 168.355 95.6676 168.093 95.5698 166.976L95.2504 163.325L97.7266 163.108L97.6313 162.019L95.1551 162.235L94.9991 160.453L93.7823 160.559L93.9382 162.342L92.594 162.46L92.6894 163.549L94.0336 163.431L94.3529 167.082ZM102.049 169.018C102.969 168.937 103.867 168.445 104.344 167.705L104.423 168.611L105.626 168.505L105.208 163.723C105.07 162.152 103.902 161.185 102.091 161.344C100.846 161.452 99.8868 162.064 99.3385 162.967L100.305 163.581C100.69 162.935 101.322 162.494 102.142 162.423C103.161 162.333 103.918 162.838 104.005 163.828L104.048 164.323L101.677 164.93C100.186 165.317 99.4319 166.153 99.526 167.228C99.6324 168.445 100.649 169.14 102.049 169.018ZM100.739 167.079C100.686 166.471 101.086 165.994 102.048 165.739L104.125 165.201L104.247 166.601C103.847 167.406 103.109 167.927 102.161 168.01C101.326 168.083 100.792 167.688 100.739 167.079ZM108.039 168.294L109.242 168.189L108.813 163.293C109.189 162.533 109.755 161.999 110.689 161.917C110.972 161.893 111.187 161.902 111.404 161.94L111.301 160.766C111.126 160.724 110.912 160.714 110.685 160.734C109.78 160.813 109.165 161.281 108.696 161.949L108.618 161.058L107.415 161.163L108.039 168.294ZM112.314 164.327C112.496 166.407 114.08 168.051 116.315 167.855C117.377 167.762 118.176 167.279 118.749 166.502L118.823 167.351L120.026 167.245L119.098 156.633L117.895 156.739L118.274 161.068C117.574 160.402 116.703 160.065 115.642 160.158C113.406 160.354 112.132 162.247 112.314 164.327ZM113.587 164.216C113.455 162.702 114.368 161.41 115.882 161.278C116.859 161.192 117.763 161.584 118.389 162.384L118.634 165.186C118.183 166.066 117.348 166.624 116.358 166.711C114.844 166.843 113.72 165.73 113.587 164.216ZM126.546 161.143C127.055 161.098 127.415 160.653 127.372 160.158C127.329 159.663 126.898 159.302 126.388 159.346C125.879 159.391 125.503 159.823 125.547 160.318C125.59 160.813 126.036 161.188 126.546 161.143ZM127.04 166.789C127.549 166.744 127.911 166.313 127.867 165.818C127.824 165.323 127.392 164.947 126.882 164.992C126.373 165.036 125.999 165.483 126.042 165.978C126.085 166.473 126.53 166.833 127.04 166.789ZM133.691 166.05L140.313 165.471L140.213 164.324L135.162 164.766L137.637 161.77C138.717 160.42 139.506 159.339 139.388 157.995C139.247 156.382 137.837 155.422 136.182 155.566C134.639 155.701 133.6 156.534 132.904 157.864L134.007 158.409C134.503 157.396 135.136 156.813 136.183 156.721C137.188 156.633 137.99 157.162 138.08 158.195C138.171 159.242 137.696 159.84 136.642 161.158L133.591 164.904L133.691 166.05ZM148.256 164.975C149.176 164.895 150.074 164.403 150.551 163.662L150.63 164.568L151.833 164.463L151.415 159.68C151.277 158.11 150.109 157.142 148.298 157.301C147.053 157.41 146.094 158.021 145.546 158.925L146.512 159.539C146.897 158.892 147.529 158.452 148.349 158.38C149.368 158.291 150.125 158.795 150.212 159.785L150.255 160.281L147.884 160.887C146.393 161.274 145.639 162.11 145.733 163.186C145.839 164.403 146.856 165.098 148.256 164.975ZM146.946 163.037C146.893 162.428 147.293 161.951 148.255 161.696L150.332 161.158L150.454 162.559C150.054 163.364 149.316 163.885 148.368 163.967C147.533 164.041 146.999 163.645 146.946 163.037ZM157.454 163.115C155.912 163.25 154.718 162.157 154.585 160.629C154.452 159.115 155.437 157.817 156.965 157.683C157.856 157.605 158.615 157.967 159.108 158.551L159.993 157.746C159.251 156.927 158.153 156.439 156.866 156.551C154.503 156.758 153.143 158.659 153.325 160.739C153.507 162.819 155.176 164.455 157.539 164.249C158.841 164.135 159.824 163.478 160.411 162.529L159.4 161.89C159.016 162.551 158.331 163.039 157.454 163.115ZM162.337 161.134C162.489 162.875 163.45 163.589 165.035 163.45C165.544 163.406 165.921 163.316 166.248 163.145L166.154 162.069C165.895 162.206 165.575 162.291 165.108 162.332C164.245 162.407 163.652 162.146 163.554 161.028L163.234 157.377L165.711 157.161L165.615 156.071L163.139 156.288L162.983 154.505L161.766 154.611L161.922 156.394L160.578 156.512L160.673 157.601L162.018 157.484L162.337 161.134ZM167.9 154.003C168.367 153.963 168.701 153.548 168.66 153.081C168.621 152.629 168.219 152.279 167.753 152.32C167.286 152.36 166.937 152.776 166.977 153.229C167.017 153.696 167.433 154.044 167.9 154.003ZM168.078 163.042L169.28 162.936L168.656 155.805L167.454 155.91L168.078 163.042ZM174.428 155.015C172.122 155.217 170.72 157.121 170.902 159.201C171.084 161.281 172.795 162.914 175.101 162.712C177.394 162.512 178.809 160.606 178.627 158.526C178.445 156.446 176.72 154.814 174.428 155.015ZM175.016 161.579C173.488 161.713 172.291 160.577 172.161 159.091C172.031 157.606 173.013 156.279 174.541 156.146C176.027 156.016 177.224 157.151 177.354 158.637C177.483 160.109 176.502 161.449 175.016 161.579ZM180.873 161.922L182.076 161.817L181.644 156.879C182.031 156.089 182.63 155.438 183.663 155.348C184.766 155.251 185.552 155.924 185.664 157.197L186.037 161.47L187.24 161.365L186.863 157.049C186.686 155.026 185.403 154.055 183.804 154.195C182.743 154.287 182.047 154.805 181.522 155.492L181.452 154.685L180.249 154.791L180.873 161.922ZM188.812 160.244C189.533 160.993 190.464 161.368 191.596 161.269C192.926 161.153 193.914 160.225 193.812 158.894C193.599 156.46 190.064 157.283 189.924 155.684C189.876 155.132 190.246 154.643 191.01 154.576C191.633 154.522 192.2 154.814 192.63 155.319L193.402 154.538C192.847 153.888 191.927 153.484 190.908 153.573C189.536 153.693 188.668 154.696 188.766 155.814C188.987 158.332 192.503 157.454 192.643 159.053C192.697 159.676 192.286 160.196 191.494 160.266C190.772 160.329 190.147 160.027 189.597 159.448L188.812 160.244Z" fill="#E20E18"/>
<path d="M127.903 85.9328L130.389 85.7153L129.621 76.9267L132.753 81.2747L134.504 81.1215L136.833 76.2957L137.602 85.0843L140.088 84.8668L139.016 72.6118L135.917 72.8829L133.374 78.2919L129.93 73.4067L126.831 73.6778L127.903 85.9328ZM146.491 75.0627C143.619 75.3139 141.844 77.6038 142.075 80.2474C142.306 82.891 144.453 84.8378 147.324 84.5866C150.195 84.3354 151.97 82.0455 151.739 79.4019C151.508 76.7583 149.362 74.8115 146.491 75.0627ZM147.175 82.4827C145.704 82.6113 144.521 81.5858 144.386 80.0452C144.251 78.5046 145.239 77.2892 146.709 77.1605C148.127 77.0364 149.293 78.0635 149.428 79.6041C149.561 81.1272 148.593 82.3586 147.175 82.4827ZM154.153 83.6363L156.376 83.4417L155.873 77.6819C156.156 77.0926 156.686 76.2877 157.806 76.1897C158.891 76.0947 159.621 76.7718 159.724 77.9448L160.175 83.1094L162.416 82.9133L161.957 77.6612C161.729 75.0526 160.091 73.8729 158.182 74.0398C157.009 74.1424 156.226 74.6696 155.666 75.3184L155.604 74.6182L153.381 74.8127L154.153 83.6363ZM168.778 81.069C169.705 81.9934 170.881 82.5256 172.457 82.3877C174.12 82.2422 175.519 81.0966 175.392 79.2378C175.125 76.1916 170.952 77.0859 170.82 75.5803C170.78 75.1251 171.079 74.7109 171.78 74.6496C172.462 74.5899 173.08 74.9945 173.584 75.5149L174.941 74.0907C174.236 73.288 172.954 72.7475 171.606 72.8654C169.768 73.0262 168.557 74.3141 168.693 75.8722C168.965 78.971 173.133 78.0241 173.268 79.5647C173.314 80.0899 172.983 80.5423 172.265 80.6051C171.425 80.6786 170.734 80.2451 170.132 79.6098L168.778 81.069ZM183.14 77.2545C183.251 78.5325 182.655 79.3786 181.447 79.4842C180.222 79.5915 179.487 78.8618 179.376 77.5838L178.937 72.5768L176.697 72.7728L177.125 77.6748C177.357 80.3184 179.022 81.8133 181.613 81.5866C184.204 81.3599 185.603 79.597 185.371 76.9534L184.942 72.0514L182.702 72.2475L183.14 77.2545ZM188.389 70.1974C189.177 70.1285 189.767 69.4066 189.698 68.6188C189.629 67.8309 188.923 67.2223 188.135 67.2913C187.347 67.3602 186.74 68.0837 186.809 68.8715C186.878 69.6593 187.602 70.2664 188.389 70.1974ZM188.176 80.6597L190.399 80.4652L189.627 71.6416L187.404 71.8361L188.176 80.6597ZM191.033 71.5186L195.009 80.0619L197.932 79.8061L200.382 70.7007L197.983 70.9105L196.259 77.4122L193.414 71.3103L191.033 71.5186ZM202.768 68.9395C203.556 68.8706 204.145 68.1486 204.076 67.3608C204.007 66.573 203.301 65.9644 202.513 66.0333C201.726 66.1022 201.119 66.8257 201.188 67.6135C201.256 68.4014 201.98 69.0084 202.768 68.9395ZM202.554 79.4017L204.777 79.2072L204.005 70.3836L201.782 70.5781L202.554 79.4017Z" fill="#3B69D1"/>
<path d="M33.2572 129.84C31.408 130.002 29.9649 128.674 29.8006 126.797C29.6364 124.92 30.827 123.361 32.6763 123.2C33.797 123.102 34.7274 123.571 35.3576 124.32L36.82 122.964C35.8193 121.852 34.2924 121.181 32.5132 121.336C29.4172 121.607 27.5101 124.174 27.7553 126.976C28.0004 129.778 30.3242 131.974 33.4202 131.703C35.1994 131.548 36.5877 130.636 37.3777 129.338L35.7033 128.271C35.2127 129.118 34.378 129.742 33.2572 129.84ZM45.2797 129.226L43.9167 128.329C43.5825 128.866 42.9395 129.261 42.169 129.329C41.0622 129.425 40.2031 128.964 39.9198 127.662L44.8651 127.229C44.9003 126.986 44.9245 126.617 44.8901 126.225C44.7284 124.376 43.3231 123.158 41.3618 123.329C39.0502 123.531 37.8841 125.37 38.0667 127.457C38.2469 129.517 39.815 131.144 42.3227 130.924C43.6536 130.808 44.6985 130.166 45.2797 129.226ZM41.4472 124.79C42.4419 124.703 43.0227 125.372 43.1132 126.084L39.8631 126.368C39.9783 125.427 40.5366 124.869 41.4472 124.79ZM47.2018 127.618C47.3526 129.341 48.2802 130.262 50.0454 130.108C50.6337 130.056 51.0479 129.949 51.3846 129.765L51.2486 128.21C51.019 128.329 50.7017 128.413 50.2114 128.456C49.5109 128.517 49.0637 128.245 48.995 127.461L48.7426 124.575L50.9 124.386L50.7603 122.789L48.6028 122.978L48.4484 121.213L46.6552 121.37L46.8096 123.135L45.4928 123.25L45.6325 124.847L46.9494 124.732L47.2018 127.618ZM53.3036 127.084C53.4543 128.807 54.3819 129.728 56.1471 129.574C56.7355 129.522 57.1496 129.416 57.4864 129.231L57.3503 127.676C57.1207 127.795 56.8034 127.879 56.3131 127.922C55.6126 127.983 55.1654 127.712 55.0968 126.927L54.8443 124.041L57.0017 123.852L56.862 122.255L54.7045 122.444L54.5501 120.679L52.7569 120.836L52.9113 122.601L51.5945 122.716L51.7342 124.313L53.0511 124.198L53.3036 127.084ZM65.3361 127.471L63.973 126.574C63.6388 127.111 62.9958 127.507 62.2253 127.574C61.1186 127.671 60.2594 127.21 59.9761 125.907L64.9214 125.475C64.9566 125.232 64.9808 124.862 64.9465 124.47C64.7847 122.621 63.3794 121.403 61.4181 121.574C59.1065 121.777 57.9404 123.615 58.123 125.702C58.3032 127.762 59.8714 129.389 62.379 129.17C63.7099 129.053 64.7548 128.411 65.3361 127.471ZM61.5035 123.035C62.4982 122.948 63.079 123.617 63.1696 124.329L59.9194 124.614C60.0346 123.672 60.5929 123.115 61.5035 123.035ZM70.1191 127.18C70.8614 127.919 71.8022 128.345 73.063 128.235C74.3939 128.119 75.5136 127.202 75.4117 125.714C75.1984 123.277 71.8589 123.993 71.7535 122.788C71.7217 122.423 71.9609 122.092 72.5213 122.043C73.0676 121.995 73.5618 122.319 73.9653 122.735L75.0513 121.596C74.487 120.953 73.461 120.521 72.3822 120.615C70.9113 120.744 69.9427 121.774 70.0518 123.021C70.2687 125.501 73.6045 124.743 73.7124 125.976C73.7491 126.396 73.4843 126.758 72.91 126.809C72.2375 126.867 71.6849 126.52 71.2028 126.012L70.1191 127.18ZM83.6002 125.873L82.2371 124.976C81.9029 125.514 81.2599 125.909 80.4894 125.976C79.3827 126.073 78.5236 125.612 78.2402 124.309L83.1855 123.877C83.2207 123.634 83.2449 123.265 83.2106 122.872C83.0488 121.023 81.6435 119.805 79.6822 119.977C77.3706 120.179 76.2045 122.017 76.3871 124.105C76.5673 126.164 78.1355 127.791 80.6431 127.572C81.974 127.455 83.019 126.813 83.6002 125.873ZM79.7676 121.437C80.7623 121.35 81.3431 122.019 81.4337 122.731L78.1835 123.016C78.2987 122.074 78.857 121.517 79.7676 121.437ZM85.3132 126.881L87.0924 126.725L86.6891 122.116C86.9161 121.645 87.2836 121.005 88.0962 120.934C88.8947 120.865 89.4036 121.356 89.4784 122.211L89.8522 126.484L91.6454 126.327L91.2654 121.984C91.2556 121.872 91.247 121.774 91.2245 121.677C91.463 121.176 91.8367 120.607 92.6072 120.54C93.4057 120.47 93.9146 120.962 93.9894 121.816L94.3632 126.089L96.1564 125.932L95.7764 121.589C95.6024 119.6 94.3654 118.692 92.9084 118.819C91.7176 118.924 91.0917 119.515 90.6413 120.175C90.1128 119.459 89.294 119.136 88.3974 119.214C87.5288 119.29 86.9571 119.693 86.5212 120.197L86.4746 119.665L84.6954 119.82L85.3132 126.881ZM100.195 125.791C101.021 125.718 101.831 125.295 102.232 124.709L102.292 125.396L104.071 125.24L103.671 120.673C103.535 119.118 102.378 117.991 100.333 118.17C99.0437 118.283 98.0536 118.906 97.4992 119.829L98.8891 120.71C99.222 120.159 99.7261 119.79 100.413 119.73C101.225 119.659 101.827 120.086 101.892 120.829L101.908 121.011L99.7825 121.564C98.2916 121.948 97.5349 122.819 97.628 123.884C97.742 125.187 98.7797 125.915 100.195 125.791ZM99.3858 123.645C99.3478 123.211 99.6291 122.876 100.361 122.685L102.017 122.257L102.104 123.252C101.803 123.843 101.248 124.273 100.435 124.344C99.8327 124.397 99.4275 124.122 99.3858 123.645ZM106.279 116.69C106.91 116.635 107.381 116.057 107.326 115.426C107.271 114.796 106.706 114.309 106.076 114.364C105.445 114.419 104.96 114.998 105.015 115.629C105.07 116.259 105.649 116.745 106.279 116.69ZM106.108 125.062L107.887 124.906L107.27 117.845L105.491 118.001L106.108 125.062ZM110.021 124.719L111.8 124.564L111.397 119.955C111.624 119.483 112.048 118.839 112.944 118.76C113.813 118.685 114.397 119.226 114.479 120.165L114.84 124.298L116.633 124.141L116.266 119.938C116.083 117.851 114.772 116.907 113.245 117.04C112.307 117.122 111.68 117.544 111.232 118.063L111.182 117.503L109.403 117.659L110.021 124.719ZM125.054 122.247L123.69 121.349C123.356 121.887 122.713 122.282 121.943 122.349C120.836 122.446 119.977 121.985 119.694 120.683L124.639 120.25C124.674 120.007 124.698 119.638 124.664 119.246C124.502 117.396 123.097 116.178 121.136 116.35C118.824 116.552 117.658 118.39 117.841 120.478C118.021 122.537 119.589 124.165 122.097 123.945C123.427 123.829 124.472 123.187 125.054 122.247ZM121.221 117.81C122.216 117.723 122.797 118.393 122.887 119.105L119.637 119.389C119.752 118.447 120.31 117.89 121.221 117.81Z" fill="#3B69D1"/>
<path d="M145.12 121.649L147.236 121.463L147.951 118.832L151.874 118.488L153.036 120.956L155.151 120.771L150.581 111.289L147.975 111.517L145.12 121.649ZM148.419 117.083L149.442 113.28L151.109 116.847L148.419 117.083ZM159.832 118.95C158.641 119.054 157.709 118.246 157.6 116.999C157.492 115.767 158.268 114.795 159.431 114.693C160.159 114.63 160.748 114.903 161.127 115.364L162.421 114.178C161.686 113.367 160.601 112.897 159.312 113.01C156.874 113.223 155.571 115.102 155.751 117.161C155.931 119.22 157.541 120.844 159.979 120.631C161.268 120.518 162.255 119.867 162.838 118.941L161.358 117.998C161.064 118.517 160.532 118.889 159.832 118.95ZM164.557 117.351C164.708 119.074 165.636 119.995 167.401 119.84C167.989 119.789 168.404 119.682 168.74 119.497L168.604 117.942C168.375 118.061 168.057 118.145 167.567 118.188C166.867 118.25 166.419 117.978 166.351 117.194L166.098 114.308L168.256 114.119L168.116 112.522L165.958 112.711L165.804 110.946L164.011 111.102L164.165 112.868L162.848 112.983L162.988 114.58L164.305 114.465L164.557 117.351ZM170.498 111.071C171.128 111.016 171.6 110.438 171.545 109.808C171.49 109.178 170.925 108.691 170.295 108.746C169.664 108.801 169.178 109.38 169.233 110.01C169.289 110.641 169.868 111.126 170.498 111.071ZM170.327 119.443L172.106 119.288L171.488 112.227L169.709 112.383L170.327 119.443ZM176.96 111.466C174.662 111.667 173.241 113.499 173.427 115.615C173.612 117.73 175.329 119.288 177.626 119.087C179.924 118.886 181.345 117.054 181.16 114.938C180.975 112.823 179.257 111.265 176.96 111.466ZM177.507 117.403C176.331 117.506 175.384 116.686 175.276 115.453C175.168 114.22 175.958 113.247 177.135 113.145C178.27 113.045 179.203 113.867 179.31 115.1C179.417 116.319 178.642 117.304 177.507 117.403ZM183.091 118.326L184.871 118.171L184.467 113.562C184.694 113.09 185.118 112.446 186.014 112.368C186.883 112.292 187.467 112.833 187.549 113.772L187.911 117.905L189.704 117.748L189.336 113.545C189.153 111.458 187.843 110.514 186.316 110.647C185.377 110.729 184.75 111.151 184.302 111.671L184.253 111.11L182.474 111.266L183.091 118.326ZM191.018 116.602C191.76 117.342 192.701 117.768 193.962 117.658C195.293 117.541 196.413 116.625 196.311 115.137C196.097 112.7 192.758 113.415 192.653 112.21C192.621 111.846 192.86 111.515 193.42 111.466C193.967 111.418 194.461 111.742 194.864 112.158L195.95 111.018C195.386 110.376 194.36 109.944 193.281 110.038C191.81 110.167 190.842 111.197 190.951 112.444C191.168 114.924 194.504 114.166 194.611 115.399C194.648 115.819 194.383 116.181 193.809 116.231C193.137 116.29 192.584 115.943 192.102 115.435L191.018 116.602Z" fill="#646464"/>
<path d="M224.28 114.723L226.269 114.549L225.922 110.584L226.945 110.495L229.912 114.23L232.251 114.026L228.803 109.951C229.771 109.401 230.269 108.468 230.164 107.277C230.005 105.456 228.577 104.465 226.42 104.654L223.422 104.916L224.28 114.723ZM226.677 106.297C227.517 106.224 228.052 106.685 228.117 107.428C228.187 108.226 227.739 108.76 226.899 108.833L225.778 108.931L225.556 106.395L226.677 106.297ZM239.646 112.221L238.283 111.324C237.948 111.861 237.305 112.256 236.535 112.324C235.428 112.421 234.569 111.959 234.286 110.657L239.231 110.225C239.266 109.982 239.29 109.612 239.256 109.22C239.094 107.371 237.689 106.153 235.728 106.324C233.416 106.527 232.25 108.365 232.433 110.452C232.613 112.512 234.181 114.139 236.689 113.92C238.019 113.803 239.064 113.161 239.646 112.221ZM235.813 107.785C236.808 107.698 237.389 108.367 237.479 109.079L234.229 109.363C234.344 108.422 234.902 107.865 235.813 107.785ZM241.359 113.229L243.138 113.073L242.735 108.464C242.962 107.992 243.385 107.348 244.282 107.27C245.15 107.194 245.734 107.736 245.816 108.674L246.178 112.807L247.971 112.65L247.603 108.447C247.421 106.36 246.11 105.416 244.583 105.55C243.644 105.632 243.018 106.054 242.569 106.573L242.52 106.012L240.741 106.168L241.359 113.229ZM249.178 108.987C249.358 111.047 250.87 112.679 253.098 112.484C254.051 112.401 254.711 112.046 255.21 111.452L255.259 112.013L257.052 111.856L256.133 101.349L254.34 101.506L254.69 105.512C254.096 105.014 253.384 104.78 252.431 104.863C250.204 105.058 248.998 106.928 249.178 108.987ZM251.041 108.824C250.934 107.591 251.626 106.627 252.83 106.522C253.629 106.452 254.317 106.731 254.849 107.334L255.05 109.631C254.631 110.317 254.002 110.711 253.203 110.781C251.998 110.886 251.149 110.057 251.041 108.824ZM265.585 109.952L264.222 109.055C263.888 109.592 263.245 109.987 262.474 110.054C261.367 110.151 260.508 109.69 260.225 108.388L265.17 107.955C265.205 107.712 265.23 107.343 265.195 106.951C265.033 105.102 263.628 103.883 261.667 104.055C259.355 104.257 258.189 106.096 258.372 108.183C258.552 110.242 260.12 111.87 262.628 111.65C263.959 111.534 265.004 110.892 265.585 109.952ZM261.752 105.516C262.747 105.429 263.328 106.098 263.418 106.81L260.168 107.094C260.283 106.152 260.842 105.595 261.752 105.516ZM266.922 110.992L272.834 110.475L272.694 108.878L269.01 109.2L272.258 105.02L272.118 103.423L266.416 103.922L266.556 105.519L270.03 105.215L266.782 109.395L266.922 110.992ZM273.512 105.941L273.663 107.664L277.446 107.333L277.295 105.61L273.512 105.941ZM277.259 102.973L280.441 109.81L282.78 109.605L284.74 102.319L282.821 102.487L281.441 107.689L279.164 102.806L277.259 102.973ZM289.116 101.653C286.819 101.854 285.398 103.687 285.583 105.802C285.768 107.918 287.486 109.476 289.783 109.275C292.081 109.074 293.501 107.241 293.316 105.126C293.131 103.01 291.414 101.452 289.116 101.653ZM289.664 107.591C288.487 107.694 287.54 106.873 287.432 105.64C287.325 104.408 288.115 103.435 289.292 103.332C290.426 103.233 291.359 104.055 291.467 105.287C291.574 106.506 290.799 107.492 289.664 107.591ZM299.632 105.053C299.721 106.076 299.244 106.753 298.278 106.837C297.297 106.923 296.709 106.339 296.62 105.317L296.269 101.31L294.476 101.467L294.819 105.389C295.004 107.505 296.337 108.701 298.411 108.52C300.484 108.338 301.603 106.928 301.418 104.812L301.075 100.89L299.281 101.046L299.632 105.053ZM302.901 106.814C303.644 107.554 304.584 107.98 305.845 107.869C307.176 107.753 308.296 106.836 308.194 105.349C307.981 102.911 304.641 103.627 304.536 102.422C304.504 102.058 304.743 101.726 305.303 101.677C305.85 101.629 306.344 101.953 306.747 102.37L307.833 101.23C307.269 100.588 306.243 100.155 305.164 100.249C303.693 100.378 302.725 101.409 302.834 102.655C303.051 105.135 306.387 104.377 306.494 105.61C306.531 106.031 306.266 106.393 305.692 106.443C305.02 106.502 304.467 106.155 303.985 105.646L302.901 106.814Z" fill="#646464"/>
<rect x="28.7417" y="145.187" width="287.409" height="1.30817" transform="rotate(-5 28.7417 145.187)" fill="#B3B3B3"/>
<rect x="28.549" y="142.988" width="98.4399" height="3.51571" transform="rotate(-5 28.549 142.988)" fill="#3B69D1"/>
<defs>
<filter id="filter0_d_3531_10693" x="-25.0402" y="2.6714" width="390.627" height="230.379" filterUnits="userSpaceOnUse" color-interpolation-filters="sRGB">
<feFlood flood-opacity="0" result="BackgroundImageFix"/>
<feColorMatrix in="SourceAlpha" type="matrix" values="0 0 0 0 0 0 0 0 0 0 0 0 0 0 0 0 0 0 127 0" result="hardAlpha"/>
<feOffset dy="6"/>
<feGaussianBlur stdDeviation="12.5"/>
<feComposite in2="hardAlpha" operator="out"/>
<feColorMatrix type="matrix" values="0 0 0 0 0.196078 0 0 0 0 0.196078 0 0 0 0 0.196078 0 0 0 0.1 0"/>
<feBlend mode="normal" in2="BackgroundImageFix" result="effect1_dropShadow_3531_10693"/>
<feBlend mode="normal" in="SourceGraphic" in2="effect1_dropShadow_3531_10693" result="shape"/>
</filter>
</defs>
</svg>
