<svg width="358" height="204" viewBox="0 0 358 204" fill="none" xmlns="http://www.w3.org/2000/svg">
<rect x="18.7531" y="29.0026" width="326.554" height="150.54" rx="11.5" transform="rotate(-5 18.7531 29.0026)" fill="#F1F1F1" stroke="#878787" stroke-dasharray="5 5"/>
<g filter="url(#filter0_d_3531_10710)">
<rect y="50.3392" width="328.555" height="152.257" rx="16" transform="rotate(-5 0 50.3392)" fill="white"/>
</g>
<path d="M127.914 85.9401L130.4 85.7225L129.631 76.9332L132.764 81.2815L134.515 81.1283L136.845 76.3021L137.614 85.0914L140.1 84.8739L139.028 72.6179L135.929 72.889L133.385 78.2985L129.941 73.4129L126.842 73.684L127.914 85.9401ZM146.503 75.069C143.631 75.3203 141.856 77.6104 142.087 80.2542C142.318 82.8979 144.465 84.8449 147.336 84.5937C150.208 84.3425 151.983 82.0524 151.752 79.4086C151.521 76.7648 149.374 74.8178 146.503 75.069ZM147.187 82.4896C145.717 82.6183 144.533 81.5927 144.398 80.052C144.263 78.5112 145.251 77.2957 146.722 77.167C148.14 77.0429 149.306 78.07 149.441 79.6108C149.574 81.134 148.606 82.3655 147.187 82.4896ZM154.166 83.6433L156.39 83.4488L155.886 77.6885C156.169 77.0991 156.699 76.2941 157.819 76.1961C158.905 76.1011 159.634 76.7783 159.737 77.9514L160.189 83.1164L162.43 82.9203L161.971 77.6677C161.742 75.059 160.104 73.8791 158.196 74.046C157.023 74.1487 156.24 74.6759 155.679 75.3248L155.618 74.6245L153.394 74.819L154.166 83.6433ZM168.792 81.0758C169.72 82.0003 170.895 82.5326 172.471 82.3947C174.134 82.2492 175.534 81.1035 175.406 79.2445C175.14 76.198 170.966 77.0924 170.835 75.5867C170.795 75.1315 171.094 74.7172 171.794 74.6559C172.477 74.5962 173.095 75.0008 173.599 75.5213L174.956 74.097C174.251 73.2942 172.968 72.7536 171.62 72.8715C169.782 73.0324 168.571 74.3203 168.708 75.8786C168.979 78.9776 173.148 78.0307 173.283 79.5714C173.329 80.0967 172.998 80.5491 172.28 80.6119C171.439 80.6854 170.749 80.2518 170.146 79.6165L168.792 81.0758ZM183.155 77.261C183.267 78.5392 182.67 79.3853 181.462 79.4909C180.237 79.5982 179.502 78.8685 179.391 77.5904L178.953 72.5829L176.711 72.779L177.14 77.6814C177.372 80.3252 179.037 81.8202 181.629 81.5935C184.22 81.3668 185.618 79.6037 185.387 76.9599L184.958 72.0575L182.717 72.2536L183.155 77.261ZM188.405 70.2034C189.193 70.1344 189.783 69.4124 189.714 68.6245C189.645 67.8367 188.939 67.228 188.151 67.2969C187.363 67.3659 186.756 68.0894 186.825 68.8773C186.894 69.6652 187.617 70.2723 188.405 70.2034ZM188.192 80.6665L190.415 80.4719L189.643 71.6476L187.419 71.8422L188.192 80.6665ZM191.049 71.5246L195.025 80.0686L197.949 79.8128L200.399 70.7066L198 70.9165L196.275 77.4187L193.43 71.3163L191.049 71.5246ZM202.785 68.9453C203.573 68.8764 204.162 68.1544 204.093 67.3665C204.024 66.5786 203.318 65.97 202.531 66.0389C201.743 66.1078 201.136 66.8314 201.204 67.6192C201.273 68.4071 201.997 69.0142 202.785 68.9453ZM202.571 79.4084L204.795 79.2139L204.023 70.3896L201.799 70.5841L202.571 79.4084Z" fill="#3B69D1"/>
<path d="M33.2603 129.851C31.4109 130.013 29.9676 128.685 29.8034 126.808C29.6391 124.93 30.8299 123.372 32.6793 123.21C33.8001 123.112 34.7306 123.581 35.3608 124.331L36.8234 122.975C35.8225 121.862 34.2956 121.191 32.5162 121.347C29.4199 121.618 27.5127 124.184 27.7578 126.987C28.003 129.789 30.327 131.985 33.4233 131.714C35.2026 131.559 36.5911 130.647 37.3811 129.349L35.7065 128.282C35.216 129.129 34.3811 129.753 33.2603 129.851ZM45.2838 129.237L43.9206 128.34C43.5864 128.877 42.9434 129.272 42.1728 129.34C41.0659 129.436 40.2068 128.975 39.9234 127.673L44.8691 127.24C44.9043 126.997 44.9285 126.628 44.8942 126.236C44.7324 124.386 43.327 123.168 41.3655 123.34C39.0538 123.542 37.8875 125.38 38.0702 127.468C38.2504 129.527 39.8186 131.155 42.3265 130.936C43.6575 130.819 44.7025 130.177 45.2838 129.237ZM41.4509 124.8C42.4457 124.713 43.0266 125.382 43.1171 126.095L39.8667 126.379C39.9819 125.437 40.5403 124.88 41.4509 124.8ZM47.2061 127.629C47.3568 129.352 48.2845 130.273 50.0498 130.119C50.6383 130.067 51.0524 129.96 51.3892 129.776L51.2532 128.22C51.0236 128.339 50.7062 128.424 50.2159 128.466C49.5153 128.528 49.0681 128.256 48.9994 127.472L48.7469 124.586L50.9045 124.397L50.7648 122.8L48.6072 122.988L48.4527 121.223L46.6594 121.38L46.8138 123.145L45.4968 123.26L45.6366 124.858L46.9536 124.742L47.2061 127.629ZM53.3083 127.095C53.4591 128.818 54.3867 129.739 56.1521 129.585C56.7405 129.533 57.1547 129.426 57.4915 129.242L57.3554 127.687C57.1258 127.805 56.8085 127.89 56.3181 127.933C55.6176 127.994 55.1703 127.722 55.1016 126.938L54.8491 124.052L57.0068 123.863L56.867 122.266L54.7094 122.454L54.555 120.689L52.7616 120.846L52.9161 122.611L51.5991 122.727L51.7388 124.324L53.0558 124.209L53.3083 127.095ZM65.3418 127.482L63.9786 126.585C63.6445 127.122 63.0014 127.517 62.2308 127.585C61.124 127.682 60.2648 127.22 59.9814 125.918L64.9271 125.485C64.9623 125.242 64.9865 124.873 64.9522 124.481C64.7904 122.631 63.385 121.413 61.4235 121.585C59.1118 121.787 57.9455 123.625 58.1282 125.713C58.3084 127.773 59.8767 129.4 62.3845 129.181C63.7155 129.064 64.7605 128.422 65.3418 127.482ZM61.5089 123.045C62.5037 122.958 63.0846 123.628 63.1751 124.34L59.9247 124.624C60.0399 123.682 60.5983 123.125 61.5089 123.045ZM70.1253 127.191C70.8677 127.93 71.8085 128.356 73.0694 128.246C74.4004 128.129 75.5202 127.213 75.4183 125.725C75.205 123.287 71.8653 124.003 71.7598 122.798C71.728 122.434 71.9672 122.102 72.5276 122.053C73.074 122.005 73.5682 122.329 73.9717 122.746L75.0579 121.606C74.4935 120.964 73.4674 120.531 72.3886 120.625C70.9175 120.754 69.9488 121.785 70.0579 123.032C70.2749 125.512 73.611 124.754 73.7188 125.987C73.7556 126.407 73.4908 126.769 72.9164 126.819C72.2439 126.878 71.6911 126.531 71.209 126.023L70.1253 127.191ZM83.6075 125.884L82.2443 124.987C81.9101 125.524 81.267 125.919 80.4964 125.987C79.3896 126.084 78.5304 125.622 78.2471 124.32L83.1928 123.887C83.228 123.644 83.2522 123.275 83.2178 122.883C83.056 121.033 81.6506 119.815 79.6891 119.987C77.3774 120.189 76.2112 122.027 76.3938 124.115C76.574 126.175 78.1423 127.802 80.6502 127.583C81.9812 127.466 83.0262 126.824 83.6075 125.884ZM79.7746 121.447C80.7693 121.36 81.3502 122.03 81.4408 122.742L78.1903 123.026C78.3056 122.084 78.8639 121.527 79.7746 121.447ZM85.3206 126.892L87.0999 126.736L86.6967 122.127C86.9236 121.655 87.2913 121.016 88.1039 120.945C88.9025 120.875 89.4114 121.367 89.4862 122.221L89.86 126.495L91.6534 126.338L91.2734 121.994C91.2636 121.882 91.255 121.784 91.2324 121.687C91.4709 121.186 91.8447 120.617 92.6152 120.55C93.4138 120.48 93.9228 120.972 93.9975 121.827L94.3714 126.1L96.1647 125.943L95.7848 121.6C95.6107 119.61 94.3736 118.702 92.9165 118.829C91.7256 118.934 91.0997 119.525 90.6492 120.185C90.1207 119.469 89.3018 119.146 88.4051 119.224C87.5365 119.3 86.9646 119.703 86.5287 120.207L86.4822 119.675L84.7028 119.83L85.3206 126.892ZM100.203 125.801C101.03 125.729 101.84 125.305 102.241 124.72L102.301 125.406L104.08 125.25L103.68 120.683C103.544 119.128 102.387 118.001 100.341 118.18C99.0523 118.293 98.0621 118.916 97.5076 119.84L98.8977 120.72C99.2306 120.169 99.7348 119.8 100.421 119.74C101.234 119.669 101.836 120.096 101.901 120.839L101.917 121.021L99.7912 121.574C98.3001 121.958 97.5433 122.829 97.6365 123.894C97.7505 125.197 98.7883 125.925 100.203 125.801ZM99.3945 123.656C99.3565 123.221 99.6377 122.886 100.369 122.695L102.026 122.268L102.113 123.263C101.812 123.854 101.256 124.283 100.444 124.354C99.8414 124.407 99.4361 124.132 99.3945 123.656ZM106.288 116.7C106.919 116.644 107.391 116.067 107.336 115.436C107.28 114.806 106.715 114.319 106.085 114.374C105.455 114.429 104.969 115.008 105.024 115.638C105.079 116.269 105.658 116.755 106.288 116.7ZM106.117 125.072L107.897 124.917L107.279 117.855L105.5 118.011L106.117 125.072ZM110.031 124.73L111.81 124.574L111.407 119.965C111.634 119.493 112.057 118.849 112.954 118.771C113.823 118.695 114.406 119.236 114.489 120.175L114.85 124.308L116.644 124.151L116.276 119.948C116.093 117.861 114.782 116.916 113.255 117.05C112.316 117.132 111.69 117.554 111.241 118.073L111.192 117.513L109.413 117.669L110.031 124.73ZM125.064 122.257L123.701 121.36C123.367 121.897 122.724 122.292 121.953 122.36C120.846 122.456 119.987 121.995 119.704 120.693L124.65 120.26C124.685 120.017 124.709 119.648 124.675 119.256C124.513 117.406 123.107 116.188 121.146 116.36C118.834 116.562 117.668 118.4 117.851 120.488C118.031 122.548 119.599 124.175 122.107 123.956C123.438 123.839 124.483 123.197 125.064 122.257ZM121.231 117.82C122.226 117.733 122.807 118.403 122.898 119.115L119.647 119.399C119.762 118.457 120.321 117.9 121.231 117.82Z" fill="#3B69D1"/>
<path d="M145.133 121.659L147.248 121.474L147.964 118.842L151.887 118.498L153.048 120.966L155.164 120.781L150.593 111.299L147.987 111.527L145.133 121.659ZM148.432 117.092L149.454 113.29L151.122 116.857L148.432 117.092ZM159.845 118.96C158.654 119.064 157.722 118.256 157.613 117.009C157.505 115.776 158.282 114.805 159.444 114.703C160.173 114.639 160.762 114.913 161.141 115.374L162.435 114.187C161.7 113.376 160.614 112.907 159.325 113.019C156.888 113.233 155.584 115.111 155.764 117.171C155.944 119.231 157.554 120.854 159.992 120.641C161.281 120.528 162.269 119.877 162.851 118.951L161.371 118.007C161.078 118.527 160.546 118.899 159.845 118.96ZM164.571 117.36C164.722 119.084 165.65 120.005 167.415 119.85C168.004 119.799 168.418 119.692 168.755 119.507L168.618 117.952C168.389 118.071 168.072 118.155 167.581 118.198C166.881 118.26 166.433 117.988 166.365 117.204L166.112 114.317L168.27 114.129L168.13 112.531L165.972 112.72L165.818 110.955L164.025 111.112L164.179 112.877L162.862 112.992L163.002 114.59L164.319 114.474L164.571 117.36ZM170.512 111.081C171.143 111.025 171.615 110.448 171.559 109.817C171.504 109.187 170.939 108.7 170.309 108.755C169.678 108.81 169.193 109.389 169.248 110.02C169.303 110.65 169.882 111.136 170.512 111.081ZM170.341 119.453L172.121 119.298L171.503 112.236L169.724 112.392L170.341 119.453ZM176.975 111.475C174.677 111.676 173.256 113.509 173.441 115.624C173.626 117.74 175.344 119.298 177.641 119.097C179.939 118.896 181.36 117.063 181.175 114.948C180.99 112.832 179.272 111.274 176.975 111.475ZM177.522 117.413C176.346 117.516 175.398 116.696 175.291 115.463C175.183 114.23 175.973 113.257 177.15 113.154C178.285 113.055 179.218 113.877 179.326 115.11C179.432 116.329 178.657 117.314 177.522 117.413ZM183.107 118.336L184.886 118.181L184.483 113.571C184.71 113.1 185.133 112.456 186.03 112.377C186.899 112.301 187.483 112.843 187.565 113.782L187.926 117.915L189.72 117.758L189.352 113.555C189.169 111.467 187.859 110.523 186.331 110.657C185.393 110.739 184.766 111.161 184.317 111.68L184.268 111.12L182.489 111.275L183.107 118.336ZM191.034 116.612C191.777 117.352 192.717 117.778 193.978 117.668C195.309 117.551 196.429 116.634 196.327 115.147C196.114 112.709 192.774 113.425 192.669 112.22C192.637 111.856 192.876 111.524 193.437 111.475C193.983 111.427 194.477 111.751 194.881 112.168L195.967 111.028C195.402 110.385 194.376 109.953 193.298 110.047C191.826 110.176 190.858 111.207 190.967 112.453C191.184 114.933 194.52 114.176 194.628 115.409C194.665 115.829 194.4 116.191 193.825 116.241C193.153 116.3 192.6 115.953 192.118 115.445L191.034 116.612Z" fill="#646464"/>
<path d="M224.299 114.733L226.288 114.559L225.941 110.594L226.964 110.504L229.931 114.24L232.271 114.035L228.823 109.96C229.791 109.41 230.288 108.477 230.184 107.286C230.025 105.465 228.597 104.474 226.439 104.663L223.441 104.925L224.299 114.733ZM226.696 106.306C227.536 106.233 228.071 106.694 228.136 107.437C228.206 108.235 227.758 108.769 226.918 108.842L225.797 108.94L225.575 106.404L226.696 106.306ZM239.666 112.231L238.303 111.333C237.968 111.871 237.325 112.266 236.555 112.333C235.448 112.43 234.589 111.969 234.305 110.667L239.251 110.234C239.286 109.991 239.311 109.622 239.276 109.229C239.114 107.38 237.709 106.162 235.748 106.333C233.436 106.536 232.27 108.374 232.452 110.462C232.632 112.521 234.201 114.149 236.709 113.929C238.04 113.813 239.085 113.171 239.666 112.231ZM235.833 107.794C236.828 107.707 237.409 108.376 237.499 109.088L234.249 109.373C234.364 108.431 234.922 107.874 235.833 107.794ZM241.379 113.238L243.158 113.083L242.755 108.473C242.982 108.002 243.406 107.357 244.302 107.279C245.171 107.203 245.755 107.745 245.837 108.684L246.199 112.817L247.992 112.66L247.624 108.457C247.442 106.369 246.131 105.425 244.604 105.559C243.665 105.641 243.038 106.063 242.59 106.582L242.541 106.021L240.761 106.177L241.379 113.238ZM249.199 108.996C249.379 111.056 250.892 112.688 253.119 112.494C254.072 112.41 254.733 112.056 255.231 111.462L255.28 112.022L257.074 111.865L256.154 101.357L254.361 101.514L254.712 105.521C254.117 105.023 253.405 104.788 252.452 104.872C250.225 105.067 249.019 106.937 249.199 108.996ZM251.063 108.833C250.955 107.601 251.647 106.636 252.852 106.531C253.65 106.461 254.338 106.74 254.871 107.343L255.072 109.64C254.652 110.326 254.023 110.72 253.224 110.79C252.019 110.896 251.17 110.066 251.063 108.833ZM265.607 109.961L264.244 109.064C263.91 109.601 263.267 109.996 262.496 110.064C261.389 110.161 260.53 109.699 260.247 108.397L265.192 107.964C265.228 107.721 265.252 107.352 265.218 106.96C265.056 105.11 263.65 103.892 261.689 104.064C259.377 104.266 258.211 106.105 258.394 108.192C258.574 110.252 260.142 111.879 262.65 111.66C263.981 111.543 265.026 110.901 265.607 109.961ZM261.774 105.525C262.769 105.437 263.35 106.107 263.44 106.819L260.19 107.103C260.305 106.161 260.864 105.604 261.774 105.525ZM266.944 111.002L272.857 110.484L272.717 108.887L269.032 109.21L272.281 105.029L272.141 103.432L266.439 103.931L266.578 105.528L270.053 105.224L266.805 109.404L266.944 111.002ZM273.536 105.95L273.686 107.673L277.469 107.342L277.318 105.619L273.536 105.95ZM277.283 102.982L280.464 109.819L282.804 109.614L284.764 102.327L282.845 102.495L281.465 107.698L279.188 102.815L277.283 102.982ZM289.141 101.662C286.843 101.863 285.422 103.696 285.607 105.811C285.792 107.927 287.51 109.485 289.808 109.284C292.105 109.083 293.526 107.25 293.341 105.135C293.156 103.019 291.439 101.461 289.141 101.662ZM289.689 107.6C288.512 107.703 287.565 106.882 287.457 105.649C287.349 104.416 288.139 103.444 289.316 103.341C290.451 103.242 291.384 104.063 291.492 105.296C291.598 106.515 290.823 107.501 289.689 107.6ZM299.657 105.062C299.747 106.085 299.269 106.762 298.303 106.846C297.322 106.932 296.734 106.348 296.645 105.326L296.294 101.319L294.501 101.475L294.844 105.398C295.029 107.514 296.362 108.71 298.436 108.529C300.509 108.347 301.628 106.937 301.443 104.821L301.1 100.898L299.307 101.055L299.657 105.062ZM302.927 106.823C303.669 107.563 304.61 107.989 305.871 107.878C307.202 107.762 308.322 106.845 308.22 105.358C308.006 102.92 304.667 103.635 304.561 102.431C304.529 102.066 304.769 101.735 305.329 101.686C305.876 101.638 306.37 101.962 306.773 102.378L307.859 101.238C307.295 100.596 306.269 100.163 305.19 100.258C303.719 100.387 302.75 101.417 302.859 102.664C303.076 105.144 306.412 104.386 306.52 105.619C306.557 106.04 306.292 106.401 305.718 106.452C305.045 106.511 304.493 106.164 304.01 105.655L302.927 106.823Z" fill="#646464"/>
<rect x="28.7444" y="145.199" width="287.434" height="1.30828" transform="rotate(-5 28.7444 145.199)" fill="#B3B3B3"/>
<rect x="28.5517" y="143" width="98.4482" height="3.51601" transform="rotate(-5 28.5517 143)" fill="#3B69D1"/>
<g filter="url(#filter1_d_3531_10710)">
<rect x="99.3485" y="160.39" width="162.274" height="43.7763" rx="21.8512" transform="rotate(-5 99.3485 160.39)" fill="#3B69D1" shape-rendering="crispEdges"/>
<path fill-rule="evenodd" clip-rule="evenodd" d="M116.15 180.387L115.887 177.379L116.89 177.292L117.153 180.299L120.16 180.036L120.248 181.039L117.241 181.302L117.504 184.309L116.501 184.397L116.238 181.389L113.231 181.653L113.143 180.65L116.15 180.387Z" fill="white"/>
<path d="M133.996 182.486C132.408 182.625 131.169 181.484 131.028 179.872C130.887 178.26 131.909 176.922 133.497 176.783C134.46 176.699 135.259 177.102 135.8 177.746L137.056 176.581C136.196 175.626 134.885 175.05 133.357 175.183C130.698 175.416 129.061 177.62 129.271 180.026C129.482 182.432 131.477 184.318 134.136 184.086C135.664 183.952 136.856 183.169 137.534 182.055L136.097 181.138C135.675 181.866 134.958 182.401 133.996 182.486ZM138.942 183.423L140.47 183.289L140.13 179.403C140.325 178.998 140.77 178.547 141.516 178.482C141.793 178.458 142 178.476 142.197 178.507L142.065 177.003C141.917 176.968 141.733 176.948 141.529 176.966C140.843 177.026 140.353 177.384 139.992 177.827L139.939 177.226L138.411 177.359L138.942 183.423ZM146.481 175.684L147.75 173.56L146.09 173.706L145.013 175.812L146.481 175.684ZM149.066 181.543L147.896 180.773C147.609 181.234 147.057 181.573 146.395 181.631C145.445 181.714 144.707 181.318 144.464 180.2L148.71 179.828C148.741 179.62 148.761 179.303 148.732 178.966C148.593 177.378 147.386 176.332 145.702 176.479C143.717 176.653 142.716 178.232 142.872 180.024C143.027 181.792 144.374 183.19 146.527 183.002C147.67 182.902 148.567 182.35 149.066 181.543ZM145.775 177.734C146.629 177.659 147.128 178.233 147.206 178.845L144.415 179.089C144.514 178.28 144.993 177.802 145.775 177.734ZM155.986 180.938L154.816 180.167C154.529 180.629 153.977 180.968 153.315 181.026C152.365 181.109 151.627 180.713 151.383 179.595L155.63 179.223C155.66 179.014 155.681 178.697 155.652 178.36C155.513 176.772 154.306 175.726 152.622 175.874C150.637 176.047 149.635 177.626 149.792 179.419C149.947 181.187 151.294 182.585 153.447 182.396C154.59 182.296 155.487 181.745 155.986 180.938ZM152.695 177.128C153.549 177.053 154.048 177.628 154.126 178.239L151.335 178.484C151.434 177.675 151.913 177.197 152.695 177.128ZM157.457 181.803L158.985 181.669L158.645 177.783C158.84 177.378 159.285 176.927 160.031 176.862C160.308 176.838 160.516 176.856 160.712 176.887L160.581 175.384C160.432 175.348 160.249 175.328 160.044 175.346C159.358 175.406 158.868 175.764 158.507 176.207L158.455 175.606L156.927 175.74L157.457 181.803ZM169.352 178.12C169.429 178.998 169.019 179.579 168.189 179.652C167.347 179.725 166.842 179.224 166.765 178.346L166.464 174.905L164.924 175.04L165.219 178.408C165.378 180.225 166.522 181.252 168.303 181.096C170.083 180.941 171.044 179.729 170.885 177.913L170.591 174.544L169.051 174.679L169.352 178.12ZM172.812 180.459L174.34 180.326L173.994 176.368C174.189 175.963 174.553 175.41 175.322 175.342C176.068 175.277 176.57 175.742 176.64 176.548L176.951 180.097L178.491 179.963L178.175 176.354C178.018 174.561 176.892 173.75 175.581 173.865C174.775 173.936 174.237 174.298 173.852 174.744L173.81 174.263L172.282 174.396L172.812 180.459ZM185.721 178.336L184.551 177.566C184.264 178.027 183.712 178.366 183.05 178.424C182.099 178.507 181.362 178.111 181.118 176.993L185.365 176.622C185.395 176.413 185.416 176.096 185.387 175.759C185.248 174.171 184.041 173.125 182.357 173.272C180.372 173.446 179.37 175.025 179.527 176.817C179.682 178.586 181.028 179.983 183.182 179.795C184.325 179.695 185.222 179.143 185.721 178.336ZM182.43 174.527C183.284 174.452 183.783 175.027 183.861 175.638L181.07 175.882C181.169 175.073 181.648 174.595 182.43 174.527ZM189.736 175.924C189.891 177.692 191.19 179.094 193.102 178.927C193.921 178.855 194.488 178.551 194.916 178.041L194.958 178.522L196.498 178.387L195.709 169.365L194.169 169.499L194.47 172.94C193.96 172.512 193.348 172.311 192.53 172.382C190.617 172.55 189.582 174.156 189.736 175.924ZM191.336 175.784C191.244 174.725 191.838 173.897 192.873 173.807C193.558 173.747 194.149 173.986 194.607 174.504L194.779 176.477C194.419 177.066 193.878 177.404 193.193 177.464C192.158 177.555 191.429 176.843 191.336 175.784ZM201.24 170.893L202.509 168.77L200.849 168.915L199.772 171.021L201.24 170.893ZM203.825 176.752L202.655 175.982C202.368 176.443 201.816 176.783 201.154 176.84C200.204 176.924 199.466 176.527 199.223 175.409L203.469 175.038C203.499 174.829 203.52 174.512 203.491 174.175C203.352 172.587 202.145 171.541 200.461 171.688C198.476 171.862 197.474 173.441 197.631 175.233C197.786 177.002 199.133 178.399 201.286 178.211C202.429 178.111 203.326 177.56 203.825 176.752ZM200.534 172.943C201.388 172.868 201.887 173.443 201.965 174.054L199.174 174.298C199.273 173.489 199.752 173.011 200.534 172.943ZM205.296 177.617L206.824 177.484L206.478 173.526C206.673 173.121 206.988 172.572 207.686 172.511C208.372 172.451 208.809 172.873 208.873 173.607L209.194 177.276L210.734 177.142L210.408 173.412C210.399 173.316 210.392 173.232 210.373 173.149C210.577 172.719 210.898 172.23 211.56 172.172C212.246 172.112 212.683 172.534 212.747 173.268L213.068 176.938L214.608 176.803L214.282 173.073C214.132 171.365 213.07 170.585 211.819 170.695C210.796 170.784 210.259 171.292 209.872 171.859C209.418 171.244 208.715 170.966 207.945 171.034C207.199 171.099 206.708 171.445 206.334 171.878L206.294 171.421L204.766 171.554L205.296 177.617ZM218.076 176.681C218.785 176.619 219.481 176.255 219.825 175.752L219.876 176.342L221.404 176.208L221.061 172.286C220.944 170.951 219.95 169.983 218.194 170.137C217.087 170.234 216.237 170.769 215.761 171.562L216.954 172.318C217.24 171.845 217.673 171.528 218.263 171.477C218.96 171.415 219.477 171.782 219.533 172.42L219.547 172.576L217.722 173.051C216.441 173.382 215.792 174.129 215.872 175.044C215.969 176.162 216.861 176.788 218.076 176.681ZM217.381 174.839C217.348 174.466 217.59 174.178 218.218 174.014L219.641 173.647L219.715 174.501C219.457 175.009 218.98 175.378 218.282 175.439C217.765 175.484 217.417 175.248 217.381 174.839ZM223.154 176.055L224.682 175.921L224.342 172.036C224.537 171.631 224.982 171.18 225.728 171.114C226.005 171.09 226.212 171.108 226.409 171.14L226.277 169.636C226.129 169.6 225.945 169.58 225.741 169.598C225.055 169.658 224.565 170.016 224.204 170.46L224.151 169.858L222.623 169.992L223.154 176.055ZM230.589 174.192C229.566 174.282 228.766 173.588 228.672 172.518C228.58 171.459 229.246 170.625 230.245 170.537C230.87 170.483 231.376 170.717 231.701 171.113L232.812 170.095C232.182 169.398 231.249 168.995 230.142 169.092C228.049 169.275 226.93 170.888 227.084 172.656C227.239 174.425 228.622 175.819 230.715 175.636C231.822 175.539 232.67 174.98 233.17 174.185L231.899 173.375C231.647 173.821 231.19 174.14 230.589 174.192ZM234.397 175.072L235.925 174.938L235.578 170.98C235.773 170.575 236.137 170.022 236.907 169.954C237.665 169.888 238.154 170.354 238.225 171.161L238.535 174.709L240.075 174.575L239.759 170.966C239.603 169.173 238.477 168.362 237.166 168.477C236.36 168.548 235.822 168.91 235.436 169.356L235.135 165.915L233.608 166.049L234.397 175.072ZM247.306 172.948L246.135 172.178C245.848 172.639 245.296 172.978 244.635 173.036C243.684 173.119 242.946 172.723 242.703 171.605L246.95 171.234C246.98 171.025 247.001 170.708 246.971 170.371C246.832 168.783 245.626 167.737 243.941 167.884C241.956 168.058 240.955 169.637 241.112 171.429C241.266 173.198 242.613 174.595 244.767 174.407C245.909 174.307 246.807 173.755 247.306 172.948ZM244.015 169.139C244.869 169.064 245.368 169.639 245.445 170.25L242.654 170.494C242.753 169.685 243.233 169.207 244.015 169.139Z" fill="white"/>
<rect x="99.8902" y="160.845" width="161.274" height="42.7763" rx="21.3512" transform="rotate(-5 99.8902 160.845)" stroke="#3B69D1" shape-rendering="crispEdges"/>
</g>
<defs>
<filter id="filter0_d_3531_10710" x="-25.0423" y="2.67163" width="390.66" height="230.398" filterUnits="userSpaceOnUse" color-interpolation-filters="sRGB">
<feFlood flood-opacity="0" result="BackgroundImageFix"/>
<feColorMatrix in="SourceAlpha" type="matrix" values="0 0 0 0 0 0 0 0 0 0 0 0 0 0 0 0 0 0 127 0" result="hardAlpha"/>
<feOffset dy="6"/>
<feGaussianBlur stdDeviation="12.5"/>
<feComposite in2="hardAlpha" operator="out"/>
<feColorMatrix type="matrix" values="0 0 0 0 0.196078 0 0 0 0 0.196078 0 0 0 0 0.196078 0 0 0 0.1 0"/>
<feBlend mode="normal" in2="BackgroundImageFix" result="effect1_dropShadow_3531_10710"/>
<feBlend mode="normal" in="SourceGraphic" in2="effect1_dropShadow_3531_10710" result="shape"/>
</filter>
<filter id="filter1_d_3531_10710" x="79.3147" y="132.223" width="205.54" height="97.8206" filterUnits="userSpaceOnUse" color-interpolation-filters="sRGB">
<feFlood flood-opacity="0" result="BackgroundImageFix"/>
<feColorMatrix in="SourceAlpha" type="matrix" values="0 0 0 0 0 0 0 0 0 0 0 0 0 0 0 0 0 0 127 0" result="hardAlpha"/>
<feOffset dy="6"/>
<feGaussianBlur stdDeviation="10"/>
<feComposite in2="hardAlpha" operator="out"/>
<feColorMatrix type="matrix" values="0 0 0 0 0.196078 0 0 0 0 0.196078 0 0 0 0 0.196078 0 0 0 0.2 0"/>
<feBlend mode="normal" in2="BackgroundImageFix" result="effect1_dropShadow_3531_10710"/>
<feBlend mode="normal" in="SourceGraphic" in2="effect1_dropShadow_3531_10710" result="shape"/>
</filter>
</defs>
</svg>
