<svg width="358" height="204" viewBox="0 0 358 204" fill="none" xmlns="http://www.w3.org/2000/svg">
<rect x="18.7531" y="29.0026" width="326.554" height="150.54" rx="11.5" transform="rotate(-5 18.7531 29.0026)" fill="#F1F1F1" stroke="#878787" stroke-dasharray="5 5"/>
<g filter="url(#filter0_d_3545_10532)">
<rect y="50.3392" width="328.555" height="152.257" rx="16" transform="rotate(-5 0 50.3392)" fill="white"/>
</g>
<path d="M127.914 85.9401L130.4 85.7225L129.631 76.9332L132.764 81.2815L134.515 81.1283L136.845 76.3021L137.614 85.0914L140.1 84.8739L139.028 72.6179L135.929 72.889L133.385 78.2985L129.941 73.4129L126.842 73.684L127.914 85.9401ZM146.503 75.069C143.631 75.3203 141.856 77.6104 142.087 80.2542C142.318 82.8979 144.465 84.8449 147.336 84.5937C150.208 84.3425 151.983 82.0524 151.752 79.4086C151.521 76.7648 149.374 74.8178 146.503 75.069ZM147.187 82.4896C145.717 82.6183 144.533 81.5927 144.398 80.052C144.263 78.5112 145.251 77.2957 146.722 77.167C148.14 77.0429 149.306 78.07 149.441 79.6108C149.574 81.134 148.606 82.3655 147.187 82.4896ZM154.166 83.6433L156.39 83.4488L155.886 77.6885C156.169 77.0991 156.699 76.2941 157.819 76.1961C158.905 76.1011 159.634 76.7783 159.737 77.9514L160.189 83.1164L162.43 82.9203L161.971 77.6677C161.742 75.059 160.104 73.8791 158.196 74.046C157.023 74.1487 156.24 74.6759 155.679 75.3248L155.618 74.6245L153.394 74.819L154.166 83.6433ZM168.792 81.0758C169.72 82.0003 170.895 82.5326 172.471 82.3947C174.134 82.2492 175.534 81.1035 175.406 79.2445C175.14 76.198 170.966 77.0924 170.835 75.5867C170.795 75.1315 171.094 74.7172 171.794 74.6559C172.477 74.5962 173.095 75.0008 173.599 75.5213L174.956 74.097C174.251 73.2942 172.968 72.7536 171.62 72.8715C169.782 73.0324 168.571 74.3203 168.708 75.8786C168.979 78.9776 173.148 78.0307 173.283 79.5714C173.329 80.0967 172.998 80.5491 172.28 80.6119C171.439 80.6854 170.749 80.2518 170.146 79.6165L168.792 81.0758ZM183.155 77.261C183.267 78.5392 182.67 79.3853 181.462 79.4909C180.237 79.5982 179.502 78.8685 179.391 77.5904L178.953 72.5829L176.711 72.779L177.14 77.6814C177.372 80.3252 179.037 81.8202 181.629 81.5935C184.22 81.3668 185.618 79.6037 185.387 76.9599L184.958 72.0575L182.717 72.2536L183.155 77.261ZM188.405 70.2034C189.193 70.1344 189.783 69.4124 189.714 68.6245C189.645 67.8367 188.939 67.228 188.151 67.2969C187.363 67.3659 186.756 68.0894 186.825 68.8773C186.894 69.6652 187.617 70.2723 188.405 70.2034ZM188.192 80.6665L190.415 80.4719L189.643 71.6476L187.419 71.8422L188.192 80.6665ZM191.049 71.5246L195.025 80.0686L197.949 79.8128L200.399 70.7066L198 70.9165L196.275 77.4187L193.43 71.3163L191.049 71.5246ZM202.785 68.9453C203.573 68.8764 204.162 68.1544 204.093 67.3665C204.024 66.5786 203.318 65.97 202.531 66.0389C201.743 66.1078 201.136 66.8314 201.204 67.6192C201.273 68.4071 201.997 69.0142 202.785 68.9453ZM202.571 79.4084L204.795 79.2139L204.023 70.3896L201.799 70.5841L202.571 79.4084Z" fill="#3B69D1"/>
<path d="M32.1573 129.216L36.0102 128.879C39.1205 128.607 41.0247 126.167 40.7931 123.519C40.5614 120.871 38.2625 118.799 35.1522 119.071L31.2993 119.408L32.1573 129.216ZM35.3383 120.876C37.1597 120.717 38.5943 121.947 38.7475 123.698C38.8995 125.435 37.7014 126.909 35.8801 127.069L33.9887 127.234L33.4469 121.042L35.3383 120.876ZM46.3329 119.731L47.8107 117.258L45.8772 117.427L44.6236 119.88L46.3329 119.731ZM49.344 126.554L47.9808 125.657C47.6466 126.195 47.0035 126.59 46.233 126.657C45.1261 126.754 44.2669 126.293 43.9836 124.99L48.9293 124.558C48.9645 124.315 48.9887 123.946 48.9544 123.553C48.7926 121.704 47.3871 120.486 45.4257 120.657C43.1139 120.859 41.9477 122.698 42.1304 124.786C42.3106 126.845 43.8788 128.473 46.3867 128.253C47.7177 128.137 48.7627 127.495 49.344 126.554ZM45.5111 122.118C46.5059 122.031 47.0868 122.7 47.1773 123.412L43.9269 123.697C44.0421 122.755 44.6004 122.198 45.5111 122.118ZM51.0571 127.562L52.8365 127.407L52.4332 122.797C52.6602 122.325 53.0278 121.686 53.8404 121.615C54.639 121.545 55.1479 122.037 55.2227 122.892L55.5965 127.165L57.3899 127.008L57.0099 122.665C57.0001 122.553 56.9915 122.455 56.9689 122.358C57.2075 121.857 57.5812 121.288 58.3518 121.22C59.1504 121.151 59.6593 121.643 59.7341 122.497L60.1079 126.77L61.9013 126.613L61.5213 122.27C61.3472 120.281 60.1101 119.372 58.653 119.5C57.4621 119.604 56.8362 120.195 56.3858 120.856C55.8572 120.14 55.0383 119.816 54.1416 119.895C53.273 119.971 52.7012 120.374 52.2653 120.878L52.2187 120.345L50.4394 120.501L51.0571 127.562ZM65.9399 126.472C66.7665 126.4 67.5765 125.976 67.977 125.39L68.0371 126.077L69.8164 125.921L69.4168 121.354C69.2808 119.798 68.1234 118.671 66.0778 118.85C64.7889 118.963 63.7987 119.586 63.2442 120.51L64.6342 121.391C64.9671 120.839 65.4713 120.471 66.1578 120.41C66.9704 120.339 67.5725 120.767 67.6375 121.509L67.6534 121.691L65.5277 122.244C64.0366 122.629 63.2799 123.5 63.373 124.565C63.487 125.868 64.5248 126.596 65.9399 126.472ZM65.131 124.326C65.093 123.892 65.3743 123.557 66.1058 123.366L67.7625 122.938L67.8496 123.933C67.5483 124.524 66.993 124.954 66.1804 125.025C65.5779 125.078 65.1727 124.803 65.131 124.326ZM71.854 125.743L73.6333 125.587L73.2374 121.062C73.4644 120.59 73.9831 120.065 74.8518 119.989C75.174 119.96 75.4159 119.982 75.6449 120.018L75.4917 118.267C75.3187 118.225 75.1049 118.202 74.8667 118.223C74.0681 118.292 73.4975 118.709 73.0768 119.226L73.0155 118.526L71.2362 118.681L71.854 125.743ZM80.5127 123.573C79.3218 123.678 78.39 122.87 78.2809 121.623C78.173 120.39 78.9492 119.418 80.1121 119.317C80.8406 119.253 81.4292 119.526 81.8084 119.987L83.1023 118.801C82.3678 117.99 81.282 117.52 79.993 117.633C77.5552 117.846 76.2513 119.725 76.4315 121.785C76.6117 123.844 78.222 125.468 80.6598 125.255C81.9488 125.142 82.9365 124.491 83.519 123.565L82.0388 122.621C81.7455 123.141 81.2132 123.512 80.5127 123.573ZM84.9478 124.597L86.7271 124.441L86.3238 119.832C86.5508 119.36 86.9745 118.716 87.8711 118.638C88.7538 118.561 89.3237 119.104 89.4058 120.042L89.7674 124.176L91.5607 124.019L91.193 119.815C91.0104 117.728 89.6995 116.784 88.1724 116.917C87.2337 116.999 86.6071 117.421 86.1584 117.941L85.8078 113.934L84.0285 114.089L84.9478 124.597ZM99.9816 122.124L98.6184 121.227C98.2842 121.764 97.6411 122.16 96.8705 122.227C95.7637 122.324 94.9045 121.863 94.6212 120.56L99.5669 120.128C99.6021 119.884 99.6263 119.515 99.5919 119.123C99.4301 117.274 98.0247 116.055 96.0633 116.227C93.7515 116.429 92.5853 118.268 92.7679 120.355C92.9481 122.415 94.5164 124.042 97.0243 123.823C98.3553 123.707 99.4003 123.064 99.9816 122.124ZM96.1487 117.688C97.1435 117.601 97.7244 118.27 97.8149 118.982L94.5645 119.266C94.6797 118.325 95.238 117.767 96.1487 117.688Z" fill="#3B69D1"/>
<path d="M119.305 121.597L121.294 121.423L120.947 117.458L121.97 117.369L124.937 121.105L127.277 120.9L123.828 116.825C124.797 116.274 125.294 115.341 125.19 114.151C125.03 112.329 123.602 111.339 121.445 111.528L118.447 111.79L119.305 121.597ZM121.702 113.171C122.542 113.097 123.077 113.559 123.142 114.302C123.211 115.1 122.764 115.633 121.923 115.707L120.803 115.805L120.581 113.269L121.702 113.171ZM134.672 119.095L133.308 118.198C132.974 118.735 132.331 119.131 131.561 119.198C130.454 119.295 129.594 118.833 129.311 117.531L134.257 117.099C134.292 116.855 134.316 116.486 134.282 116.094C134.12 114.245 132.715 113.026 130.753 113.198C128.441 113.4 127.275 115.239 127.458 117.326C127.638 119.386 129.206 121.013 131.714 120.794C133.045 120.677 134.09 120.035 134.672 119.095ZM130.839 114.659C131.833 114.572 132.414 115.241 132.505 115.953L129.254 116.237C129.37 115.295 129.928 114.738 130.839 114.659ZM136.385 120.103L138.164 119.947L137.761 115.338C137.988 114.866 138.411 114.222 139.308 114.144C140.177 114.068 140.761 114.609 140.843 115.548L141.204 119.681L142.998 119.524L142.63 115.321C142.447 113.234 141.136 112.29 139.609 112.423C138.671 112.505 138.044 112.927 137.595 113.446L137.546 112.886L135.767 113.042L136.385 120.103ZM144.205 115.861C144.385 117.921 145.897 119.553 148.125 119.358C149.078 119.275 149.738 118.921 150.237 118.326L150.286 118.887L152.079 118.73L151.16 108.222L149.367 108.379L149.717 112.386C149.123 111.887 148.411 111.653 147.458 111.736C145.23 111.931 144.025 113.802 144.205 115.861ZM146.068 115.698C145.96 114.465 146.652 113.501 147.857 113.396C148.656 113.326 149.344 113.604 149.877 114.207L150.078 116.505C149.658 117.191 149.029 117.585 148.23 117.655C147.025 117.76 146.176 116.931 146.068 115.698ZM160.613 116.826L159.25 115.928C158.915 116.466 158.272 116.861 157.502 116.928C156.395 117.025 155.536 116.564 155.252 115.262L160.198 114.829C160.233 114.586 160.258 114.217 160.223 113.824C160.061 111.975 158.656 110.757 156.695 110.928C154.383 111.131 153.217 112.969 153.399 115.057C153.579 117.116 155.148 118.744 157.656 118.524C158.987 118.408 160.032 117.766 160.613 116.826ZM156.78 112.389C157.775 112.302 158.356 112.971 158.446 113.683L155.196 113.968C155.311 113.026 155.869 112.469 156.78 112.389ZM161.95 117.866L167.862 117.349L167.723 115.752L164.038 116.074L167.286 111.893L167.147 110.296L161.444 110.795L161.584 112.392L165.059 112.088L161.81 116.269L161.95 117.866ZM168.541 112.814L168.692 114.538L172.475 114.207L172.324 112.483L168.541 112.814ZM172.288 109.846L175.47 116.683L177.81 116.479L179.77 109.192L177.85 109.36L176.47 114.563L174.194 109.68L172.288 109.846ZM184.146 108.527C181.849 108.728 180.428 110.56 180.613 112.676C180.798 114.791 182.516 116.349 184.813 116.148C187.111 115.947 188.532 114.115 188.347 111.999C188.162 109.884 186.444 108.326 184.146 108.527ZM184.694 114.465C183.517 114.568 182.57 113.747 182.462 112.514C182.355 111.281 183.145 110.308 184.322 110.205C185.456 110.106 186.39 110.928 186.497 112.161C186.604 113.38 185.829 114.365 184.694 114.465ZM194.663 111.927C194.752 112.949 194.275 113.626 193.308 113.711C192.328 113.797 191.74 113.213 191.651 112.19L191.3 108.183L189.507 108.34L189.85 112.263C190.035 114.379 191.368 115.575 193.441 115.393C195.515 115.212 196.634 113.801 196.449 111.686L196.106 107.763L194.312 107.92L194.663 111.927ZM197.932 113.688C198.675 114.427 199.616 114.853 200.877 114.743C202.208 114.627 203.327 113.71 203.225 112.222C203.012 109.784 199.672 110.5 199.567 109.295C199.535 108.931 199.774 108.599 200.335 108.55C200.881 108.503 201.375 108.826 201.779 109.243L202.865 108.103C202.301 107.461 201.275 107.028 200.196 107.123C198.725 107.251 197.756 108.282 197.865 109.529C198.082 112.009 201.418 111.251 201.526 112.484C201.563 112.904 201.298 113.266 200.724 113.316C200.051 113.375 199.498 113.028 199.016 112.52L197.932 113.688Z" fill="#646464"/>
<rect x="28.7439" y="145.199" width="287.434" height="1.30828" transform="rotate(-5 28.7439 145.199)" fill="#B3B3B3"/>
<rect x="28.5512" y="143" width="81.2367" height="3.51601" transform="rotate(-5 28.5512 143)" fill="#3B69D1"/>
<g filter="url(#filter1_d_3545_10532)">
<rect x="99.3485" y="160.39" width="162.274" height="43.7763" rx="21.8512" transform="rotate(-5 99.3485 160.39)" fill="#3B69D1" shape-rendering="crispEdges"/>
<path fill-rule="evenodd" clip-rule="evenodd" d="M116.15 180.387L115.887 177.379L116.89 177.292L117.153 180.299L120.16 180.036L120.248 181.039L117.241 181.302L117.504 184.309L116.501 184.397L116.238 181.389L113.231 181.653L113.143 180.65L116.15 180.387Z" fill="white"/>
<path d="M133.996 182.486C132.408 182.625 131.169 181.484 131.028 179.872C130.887 178.26 131.909 176.922 133.497 176.783C134.46 176.699 135.259 177.102 135.8 177.746L137.056 176.581C136.196 175.626 134.885 175.05 133.357 175.183C130.698 175.416 129.061 177.62 129.271 180.026C129.482 182.432 131.477 184.318 134.136 184.086C135.664 183.952 136.856 183.169 137.534 182.055L136.097 181.138C135.675 181.866 134.958 182.401 133.996 182.486ZM138.942 183.423L140.47 183.289L140.13 179.403C140.325 178.998 140.77 178.547 141.516 178.482C141.793 178.458 142 178.476 142.197 178.507L142.065 177.003C141.917 176.968 141.733 176.948 141.529 176.966C140.843 177.026 140.353 177.384 139.992 177.827L139.939 177.226L138.411 177.359L138.942 183.423ZM146.481 175.684L147.75 173.56L146.09 173.706L145.013 175.812L146.481 175.684ZM149.066 181.543L147.896 180.773C147.609 181.234 147.057 181.573 146.395 181.631C145.445 181.714 144.707 181.318 144.464 180.2L148.71 179.828C148.741 179.62 148.761 179.303 148.732 178.966C148.593 177.378 147.386 176.332 145.702 176.479C143.717 176.653 142.716 178.232 142.872 180.024C143.027 181.792 144.374 183.19 146.527 183.002C147.67 182.902 148.567 182.35 149.066 181.543ZM145.775 177.734C146.629 177.659 147.128 178.233 147.206 178.845L144.415 179.089C144.514 178.28 144.993 177.802 145.775 177.734ZM155.986 180.938L154.816 180.167C154.529 180.629 153.977 180.968 153.315 181.026C152.365 181.109 151.627 180.713 151.383 179.595L155.63 179.223C155.66 179.014 155.681 178.697 155.652 178.36C155.513 176.772 154.306 175.726 152.622 175.874C150.637 176.047 149.635 177.626 149.792 179.419C149.947 181.187 151.294 182.585 153.447 182.396C154.59 182.296 155.487 181.745 155.986 180.938ZM152.695 177.128C153.549 177.053 154.048 177.628 154.126 178.239L151.335 178.484C151.434 177.675 151.913 177.197 152.695 177.128ZM157.457 181.803L158.985 181.669L158.645 177.783C158.84 177.378 159.285 176.927 160.031 176.862C160.308 176.838 160.516 176.856 160.712 176.887L160.581 175.384C160.432 175.348 160.249 175.328 160.044 175.346C159.358 175.406 158.868 175.764 158.507 176.207L158.455 175.606L156.927 175.74L157.457 181.803ZM169.352 178.12C169.429 178.998 169.019 179.579 168.189 179.652C167.347 179.725 166.842 179.224 166.765 178.346L166.464 174.905L164.924 175.04L165.219 178.408C165.378 180.225 166.522 181.252 168.303 181.096C170.083 180.941 171.044 179.729 170.885 177.913L170.591 174.544L169.051 174.679L169.352 178.12ZM172.812 180.459L174.34 180.326L173.994 176.368C174.189 175.963 174.553 175.41 175.322 175.342C176.068 175.277 176.57 175.742 176.64 176.548L176.951 180.097L178.491 179.963L178.175 176.354C178.018 174.561 176.892 173.75 175.581 173.865C174.775 173.936 174.237 174.298 173.852 174.744L173.81 174.263L172.282 174.396L172.812 180.459ZM185.721 178.336L184.551 177.566C184.264 178.027 183.712 178.366 183.05 178.424C182.099 178.507 181.362 178.111 181.118 176.993L185.365 176.622C185.395 176.413 185.416 176.096 185.387 175.759C185.248 174.171 184.041 173.125 182.357 173.272C180.372 173.446 179.37 175.025 179.527 176.817C179.682 178.586 181.028 179.983 183.182 179.795C184.325 179.695 185.222 179.143 185.721 178.336ZM182.43 174.527C183.284 174.452 183.783 175.027 183.861 175.638L181.07 175.882C181.169 175.073 181.648 174.595 182.43 174.527ZM189.736 175.924C189.891 177.692 191.19 179.094 193.102 178.927C193.921 178.855 194.488 178.551 194.916 178.041L194.958 178.522L196.498 178.387L195.709 169.365L194.169 169.499L194.47 172.94C193.96 172.512 193.348 172.311 192.53 172.382C190.617 172.55 189.582 174.156 189.736 175.924ZM191.336 175.784C191.244 174.725 191.838 173.897 192.873 173.807C193.558 173.747 194.149 173.986 194.607 174.504L194.779 176.477C194.419 177.066 193.878 177.404 193.193 177.464C192.158 177.555 191.429 176.843 191.336 175.784ZM201.24 170.893L202.509 168.77L200.849 168.915L199.772 171.021L201.24 170.893ZM203.825 176.752L202.655 175.982C202.368 176.443 201.816 176.783 201.154 176.84C200.204 176.924 199.466 176.527 199.223 175.409L203.469 175.038C203.499 174.829 203.52 174.512 203.491 174.175C203.352 172.587 202.145 171.541 200.461 171.688C198.476 171.862 197.474 173.441 197.631 175.233C197.786 177.002 199.133 178.399 201.286 178.211C202.429 178.111 203.326 177.56 203.825 176.752ZM200.534 172.943C201.388 172.868 201.887 173.443 201.965 174.054L199.174 174.298C199.273 173.489 199.752 173.011 200.534 172.943ZM205.296 177.617L206.824 177.484L206.478 173.526C206.673 173.121 206.988 172.572 207.686 172.511C208.372 172.451 208.809 172.873 208.873 173.607L209.194 177.276L210.734 177.142L210.408 173.412C210.399 173.316 210.392 173.232 210.373 173.149C210.577 172.719 210.898 172.23 211.56 172.172C212.246 172.112 212.683 172.534 212.747 173.268L213.068 176.938L214.608 176.803L214.282 173.073C214.132 171.365 213.07 170.585 211.819 170.695C210.796 170.784 210.259 171.292 209.872 171.859C209.418 171.244 208.715 170.966 207.945 171.034C207.199 171.099 206.708 171.445 206.334 171.878L206.294 171.421L204.766 171.554L205.296 177.617ZM218.076 176.681C218.785 176.619 219.481 176.255 219.825 175.752L219.876 176.342L221.404 176.208L221.061 172.286C220.944 170.951 219.95 169.983 218.194 170.137C217.087 170.234 216.237 170.769 215.761 171.562L216.954 172.318C217.24 171.845 217.673 171.528 218.263 171.477C218.96 171.415 219.477 171.782 219.533 172.42L219.547 172.576L217.722 173.051C216.441 173.382 215.792 174.129 215.872 175.044C215.969 176.162 216.861 176.788 218.076 176.681ZM217.381 174.839C217.348 174.466 217.59 174.178 218.218 174.014L219.641 173.647L219.715 174.501C219.457 175.009 218.98 175.378 218.282 175.439C217.765 175.484 217.417 175.248 217.381 174.839ZM223.154 176.055L224.682 175.921L224.342 172.036C224.537 171.631 224.982 171.18 225.728 171.114C226.005 171.09 226.212 171.108 226.409 171.14L226.277 169.636C226.129 169.6 225.945 169.58 225.741 169.598C225.055 169.658 224.565 170.016 224.204 170.46L224.151 169.858L222.623 169.992L223.154 176.055ZM230.589 174.192C229.566 174.282 228.766 173.588 228.672 172.518C228.58 171.459 229.246 170.625 230.245 170.537C230.87 170.483 231.376 170.717 231.701 171.113L232.812 170.095C232.182 169.398 231.249 168.995 230.142 169.092C228.049 169.275 226.93 170.888 227.084 172.656C227.239 174.425 228.622 175.819 230.715 175.636C231.822 175.539 232.67 174.98 233.17 174.185L231.899 173.375C231.647 173.821 231.19 174.14 230.589 174.192ZM234.397 175.072L235.925 174.938L235.578 170.98C235.773 170.575 236.137 170.022 236.907 169.954C237.665 169.888 238.154 170.354 238.225 171.161L238.535 174.709L240.075 174.575L239.759 170.966C239.603 169.173 238.477 168.362 237.166 168.477C236.36 168.548 235.822 168.91 235.436 169.356L235.135 165.915L233.608 166.049L234.397 175.072ZM247.306 172.948L246.135 172.178C245.848 172.639 245.296 172.978 244.635 173.036C243.684 173.119 242.946 172.723 242.703 171.605L246.95 171.234C246.98 171.025 247.001 170.708 246.971 170.371C246.832 168.783 245.626 167.737 243.941 167.884C241.956 168.058 240.955 169.637 241.112 171.429C241.266 173.198 242.613 174.595 244.767 174.407C245.909 174.307 246.807 173.755 247.306 172.948ZM244.015 169.139C244.869 169.064 245.368 169.639 245.445 170.25L242.654 170.494C242.753 169.685 243.233 169.207 244.015 169.139Z" fill="white"/>
<rect x="99.8902" y="160.845" width="161.274" height="42.7763" rx="21.3512" transform="rotate(-5 99.8902 160.845)" stroke="#3B69D1" shape-rendering="crispEdges"/>
</g>
<defs>
<filter id="filter0_d_3545_10532" x="-25.0423" y="2.67163" width="390.66" height="230.398" filterUnits="userSpaceOnUse" color-interpolation-filters="sRGB">
<feFlood flood-opacity="0" result="BackgroundImageFix"/>
<feColorMatrix in="SourceAlpha" type="matrix" values="0 0 0 0 0 0 0 0 0 0 0 0 0 0 0 0 0 0 127 0" result="hardAlpha"/>
<feOffset dy="6"/>
<feGaussianBlur stdDeviation="12.5"/>
<feComposite in2="hardAlpha" operator="out"/>
<feColorMatrix type="matrix" values="0 0 0 0 0.196078 0 0 0 0 0.196078 0 0 0 0 0.196078 0 0 0 0.1 0"/>
<feBlend mode="normal" in2="BackgroundImageFix" result="effect1_dropShadow_3545_10532"/>
<feBlend mode="normal" in="SourceGraphic" in2="effect1_dropShadow_3545_10532" result="shape"/>
</filter>
<filter id="filter1_d_3545_10532" x="79.3147" y="132.223" width="205.54" height="97.8206" filterUnits="userSpaceOnUse" color-interpolation-filters="sRGB">
<feFlood flood-opacity="0" result="BackgroundImageFix"/>
<feColorMatrix in="SourceAlpha" type="matrix" values="0 0 0 0 0 0 0 0 0 0 0 0 0 0 0 0 0 0 127 0" result="hardAlpha"/>
<feOffset dy="6"/>
<feGaussianBlur stdDeviation="10"/>
<feComposite in2="hardAlpha" operator="out"/>
<feColorMatrix type="matrix" values="0 0 0 0 0.196078 0 0 0 0 0.196078 0 0 0 0 0.196078 0 0 0 0.2 0"/>
<feBlend mode="normal" in2="BackgroundImageFix" result="effect1_dropShadow_3545_10532"/>
<feBlend mode="normal" in="SourceGraphic" in2="effect1_dropShadow_3545_10532" result="shape"/>
</filter>
</defs>
</svg>
