<svg width="358" height="202" viewBox="0 0 358 202" fill="none" xmlns="http://www.w3.org/2000/svg">
    <rect x="18.7516" y="29.0002" width="326.526" height="150.527" rx="11.5"
        transform="rotate(-5 18.7516 29.0002)" fill="#F1F1F1" stroke="#878787"
        stroke-dasharray="5 5" />
    <g filter="url(#filter0_d_3601_10863)">
        <rect y="50.335" width="328.527" height="152.244" rx="16" transform="rotate(-5 0 50.335)"
            fill="white" />
    </g>
    <path
        d="M40.3814 163.359C40.8678 163.316 41.3006 163.68 41.3431 164.166L41.6526 167.703C41.6951 168.19 41.332 168.623 40.8456 168.665C40.3592 168.708 39.9264 168.345 39.8839 167.858L39.5744 164.321C39.5319 163.834 39.895 163.402 40.3814 163.359ZM39.9857 158.938C35.1041 159.365 31.4977 163.673 31.9248 168.554C32.3519 173.436 36.6515 177.052 41.5331 176.625C46.4235 176.197 50.0388 171.889 49.6117 167.007C49.1846 162.125 44.8761 158.51 39.9857 158.938ZM41.3872 174.856C37.4784 175.198 34.0355 172.309 33.6935 168.4C33.3515 164.491 36.2405 161.048 40.1493 160.706C44.0581 160.364 47.501 163.253 47.843 167.162C48.185 171.071 45.296 174.514 41.3872 174.856ZM42.0394 172.125L40.2707 172.28L40.116 170.511L41.8847 170.356L42.0394 172.125Z"
        fill="#D33211" />
    <path
        d="M60.5811 172.446L65.9013 171.981L65.8023 170.849L61.8121 171.198L61.5187 167.844L64.9429 167.545L64.8451 166.427L61.4209 166.727L61.1436 163.557L65.1338 163.208L65.0347 162.076L59.7145 162.542L60.5811 172.446ZM68.1739 171.782L69.3767 171.677L68.9446 166.739C69.3318 165.949 69.9307 165.298 70.9636 165.207C72.0673 165.111 72.8533 165.783 72.9647 167.057L73.3385 171.33L74.5412 171.225L74.1637 166.909C73.9866 164.886 72.704 163.915 71.1051 164.054C70.0439 164.147 69.3477 164.664 68.8233 165.352L68.7527 164.545L67.55 164.651L68.1739 171.782ZM80.7759 170.679L81.9786 170.574L81.5502 165.678C81.9257 164.918 82.4921 164.384 83.426 164.302C83.7089 164.278 83.9237 164.287 84.1409 164.325L84.0381 163.151C83.8634 163.109 83.6486 163.1 83.4223 163.119C82.5167 163.199 81.9017 163.666 81.4326 164.334L81.3547 163.443L80.1519 163.548L80.7759 170.679ZM92.2076 168.496L91.2555 167.881C90.8443 168.558 90.1032 169.051 89.1835 169.131C87.6554 169.265 86.4755 168.327 86.2832 166.619L91.7591 166.14C91.7842 165.938 91.8032 165.665 91.7784 165.382C91.6249 163.628 90.2467 162.38 88.3083 162.549C86.1009 162.742 84.8616 164.548 85.051 166.712C85.233 168.792 86.8734 170.431 89.2788 170.221C90.6089 170.104 91.6206 169.445 92.2076 168.496ZM88.3691 163.571C89.6284 163.46 90.4268 164.275 90.5608 165.318L86.2877 165.692C86.4347 164.438 87.1947 163.673 88.3691 163.571ZM94.3527 167.082C94.505 168.822 95.4657 169.537 97.0505 169.398C97.5598 169.354 97.9369 169.264 98.2641 169.092L98.1701 168.017C97.9111 168.154 97.5906 168.239 97.1237 168.28C96.2606 168.355 95.6674 168.093 95.5696 166.976L95.2502 163.325L97.7263 163.108L97.631 162.019L95.1549 162.235L94.9989 160.453L93.782 160.559L93.938 162.342L92.5938 162.46L92.6891 163.549L94.0333 163.431L94.3527 167.082ZM102.049 169.018C102.969 168.937 103.867 168.445 104.344 167.705L104.423 168.611L105.626 168.505L105.207 163.723C105.07 162.152 103.902 161.185 102.091 161.344C100.845 161.452 99.8866 162.064 99.3383 162.967L100.305 163.581C100.69 162.935 101.322 162.494 102.142 162.423C103.161 162.333 103.918 162.838 104.005 163.828L104.048 164.323L101.677 164.93C100.185 165.317 99.4316 166.153 99.5257 167.228C99.6322 168.445 100.648 169.14 102.049 169.018ZM100.739 167.079C100.686 166.471 101.086 165.994 102.047 165.739L104.125 165.201L104.247 166.601C103.847 167.406 103.109 167.927 102.161 168.01C101.326 168.083 100.792 167.688 100.739 167.079ZM108.039 168.294L109.241 168.189L108.813 163.293C109.188 162.533 109.755 161.999 110.689 161.917C110.972 161.893 111.186 161.902 111.404 161.94L111.301 160.766C111.126 160.724 110.911 160.714 110.685 160.734C109.779 160.813 109.164 161.281 108.695 161.949L108.617 161.058L107.415 161.163L108.039 168.294ZM112.314 164.327C112.496 166.407 114.08 168.051 116.315 167.855C117.376 167.762 118.175 167.279 118.749 166.502L118.823 167.351L120.026 167.245L119.097 156.633L117.895 156.739L118.273 161.068C117.574 160.402 116.703 160.065 115.642 160.158C113.406 160.354 112.132 162.247 112.314 164.327ZM113.587 164.216C113.455 162.702 114.368 161.41 115.882 161.278C116.859 161.192 117.763 161.584 118.389 162.384L118.634 165.186C118.183 166.066 117.348 166.624 116.358 166.711C114.844 166.843 113.72 165.73 113.587 164.216ZM126.545 161.143C127.055 161.098 127.415 160.653 127.372 160.158C127.328 159.663 126.898 159.302 126.388 159.346C125.879 159.391 125.503 159.823 125.547 160.318C125.59 160.813 126.036 161.188 126.545 161.143ZM127.039 166.789C127.549 166.744 127.91 166.313 127.867 165.818C127.824 165.323 127.392 164.947 126.882 164.992C126.373 165.036 125.998 165.483 126.042 165.978C126.085 166.473 126.53 166.833 127.039 166.789ZM133.691 166.05L140.313 165.471L140.213 164.324L135.161 164.766L137.637 161.77C138.716 160.42 139.506 159.339 139.388 157.995C139.247 156.382 137.837 155.422 136.181 155.566C134.639 155.701 133.6 156.534 132.904 157.864L134.006 158.409C134.502 157.396 135.136 156.813 136.183 156.721C137.187 156.633 137.989 157.162 138.08 158.195C138.171 159.242 137.696 159.84 136.642 161.158L133.591 164.904L133.691 166.05ZM145.38 161.434C145.562 163.514 147.146 165.158 149.381 164.962C150.443 164.87 151.241 164.386 151.815 163.609L151.889 164.458L153.092 164.353L152.164 153.74L150.961 153.846L151.34 158.175C150.64 157.509 149.769 157.172 148.708 157.265C146.472 157.461 145.198 159.354 145.38 161.434ZM146.653 161.323C146.521 159.809 147.434 158.517 148.948 158.385C149.925 158.299 150.829 158.691 151.455 159.491L151.7 162.293C151.249 163.174 150.414 163.731 149.424 163.818C147.91 163.95 146.786 162.837 146.653 161.323ZM158.527 155.551L159.977 153.057L158.618 153.176L157.352 155.653L158.527 155.551ZM161.864 162.402L160.912 161.786C160.5 162.464 159.759 162.957 158.839 163.037C157.311 163.171 156.131 162.233 155.939 160.525L161.415 160.046C161.44 159.844 161.459 159.571 161.434 159.288C161.281 157.534 159.903 156.286 157.964 156.455C155.757 156.648 154.518 158.453 154.707 160.618C154.889 162.698 156.529 164.337 158.935 164.127C160.265 164.01 161.277 163.351 161.864 162.402ZM158.025 157.476C159.284 157.366 160.083 158.18 160.217 159.224L155.944 159.598C156.091 158.344 156.851 157.579 158.025 157.476ZM163.849 163.411L165.052 163.306L164.62 158.368C164.966 157.596 165.521 156.935 166.497 156.849C167.53 156.759 168.24 157.381 168.344 158.57L168.731 162.984L169.933 162.879L169.543 158.422C169.528 158.252 169.501 158.098 169.473 157.943C169.867 157.068 170.459 156.503 171.365 156.423C172.383 156.334 173.108 156.955 173.212 158.144L173.598 162.559L174.801 162.453L174.411 157.996C174.241 156.058 173.034 155.137 171.506 155.27C170.275 155.378 169.577 156.038 169.079 156.866C168.561 155.999 167.672 155.606 166.639 155.696C165.648 155.783 164.979 156.283 164.496 156.953L164.428 156.175L163.225 156.28L163.849 163.411ZM179.181 162.27C180.1 162.189 180.998 161.697 181.475 160.957L181.554 161.862L182.757 161.757L182.339 156.975C182.201 155.404 181.033 154.437 179.222 154.595C177.977 154.704 177.018 155.316 176.47 156.219L177.436 156.833C177.821 156.186 178.453 155.746 179.274 155.674C180.292 155.585 181.049 156.089 181.136 157.08L181.179 157.575L178.809 158.182C177.317 158.569 176.563 159.405 176.657 160.48C176.764 161.697 177.78 162.392 179.181 162.27ZM177.87 160.331C177.817 159.723 178.217 159.246 179.179 158.991L181.256 158.452L181.379 159.853C180.979 160.658 180.24 161.179 179.292 161.262C178.457 161.335 177.924 160.94 177.87 160.331ZM185.17 161.546L186.373 161.441L185.944 156.545C186.32 155.785 186.886 155.251 187.82 155.169C188.103 155.144 188.318 155.154 188.535 155.192L188.432 154.018C188.257 153.976 188.043 153.966 187.816 153.986C186.911 154.065 186.296 154.533 185.827 155.201L185.749 154.31L184.546 154.415L185.17 161.546ZM193.574 159.955C192.032 160.09 190.838 158.997 190.704 157.469C190.572 155.955 191.556 154.657 193.084 154.523C193.976 154.445 194.735 154.807 195.228 155.391L196.113 154.586C195.371 153.767 194.273 153.279 192.985 153.391C190.622 153.598 189.263 155.499 189.445 157.579C189.627 159.659 191.296 161.295 193.659 161.089C194.961 160.975 195.944 160.318 196.531 159.369L195.52 158.73C195.136 159.391 194.451 159.879 193.574 159.955ZM198.283 160.399L199.486 160.294L199.054 155.355C199.442 154.58 200.026 153.916 201.073 153.824C202.191 153.727 202.962 154.4 203.074 155.674L203.448 159.947L204.65 159.842L204.273 155.526C204.096 153.503 202.813 152.531 201.214 152.671C200.153 152.764 199.457 153.281 198.933 153.969L198.557 149.681L197.355 149.787L198.283 160.399ZM213.308 157.901L212.355 157.286C211.944 157.963 211.203 158.456 210.283 158.536C208.755 158.67 207.575 157.732 207.383 156.024L212.859 155.545C212.884 155.343 212.903 155.071 212.878 154.788C212.725 153.033 211.347 151.785 209.408 151.954C207.201 152.148 205.962 153.953 206.151 156.118C206.333 158.198 207.973 159.836 210.379 159.626C211.709 159.509 212.721 158.851 213.308 157.901ZM209.469 152.976C210.728 152.866 211.527 153.68 211.661 154.723L207.388 155.097C207.535 153.844 208.295 153.078 209.469 152.976ZM214.388 158.006C215.11 158.756 216.041 159.13 217.173 159.031C218.503 158.915 219.491 157.987 219.389 156.656C219.176 154.222 215.64 155.045 215.501 153.446C215.452 152.894 215.823 152.406 216.587 152.339C217.21 152.284 217.777 152.577 218.206 153.081L218.979 152.3C218.423 151.65 217.504 151.246 216.485 151.335C215.113 151.455 214.245 152.458 214.343 153.576C214.563 156.094 218.079 155.217 218.219 156.815C218.274 157.438 217.863 157.959 217.071 158.028C216.349 158.091 215.724 157.789 215.174 157.21L214.388 158.006Z"
        fill="#E20E18" />
    <path
        d="M127.903 85.9328L130.389 85.7153L129.621 76.9267L132.753 81.2747L134.504 81.1215L136.833 76.2957L137.602 85.0843L140.088 84.8668L139.016 72.6118L135.917 72.8829L133.374 78.2919L129.93 73.4067L126.831 73.6778L127.903 85.9328ZM146.491 75.0627C143.619 75.3139 141.844 77.6038 142.075 80.2474C142.306 82.891 144.453 84.8378 147.324 84.5866C150.195 84.3354 151.97 82.0455 151.739 79.4019C151.508 76.7583 149.362 74.8115 146.491 75.0627ZM147.175 82.4827C145.704 82.6113 144.521 81.5858 144.386 80.0452C144.251 78.5046 145.239 77.2892 146.709 77.1605C148.127 77.0364 149.293 78.0635 149.428 79.6041C149.561 81.1272 148.593 82.3586 147.175 82.4827ZM154.153 83.6363L156.376 83.4417L155.873 77.6819C156.156 77.0926 156.686 76.2877 157.806 76.1897C158.891 76.0947 159.621 76.7718 159.724 77.9448L160.175 83.1094L162.416 82.9133L161.957 77.6612C161.729 75.0526 160.091 73.8729 158.182 74.0398C157.009 74.1424 156.226 74.6696 155.666 75.3184L155.604 74.6182L153.381 74.8127L154.153 83.6363ZM168.778 81.069C169.705 81.9934 170.881 82.5256 172.457 82.3877C174.12 82.2422 175.519 81.0966 175.392 79.2378C175.125 76.1916 170.952 77.0859 170.82 75.5803C170.78 75.1251 171.079 74.7109 171.78 74.6496C172.462 74.5899 173.08 74.9945 173.584 75.5149L174.941 74.0907C174.236 73.288 172.954 72.7475 171.606 72.8654C169.768 73.0262 168.557 74.3141 168.693 75.8722C168.965 78.971 173.133 78.0241 173.268 79.5647C173.314 80.0899 172.983 80.5423 172.265 80.6051C171.425 80.6786 170.734 80.2451 170.132 79.6098L168.778 81.069ZM183.14 77.2545C183.251 78.5325 182.655 79.3786 181.447 79.4842C180.222 79.5915 179.487 78.8618 179.376 77.5838L178.937 72.5768L176.697 72.7728L177.125 77.6748C177.357 80.3184 179.022 81.8133 181.613 81.5866C184.204 81.3599 185.603 79.597 185.371 76.9534L184.942 72.0514L182.702 72.2475L183.14 77.2545ZM188.389 70.1974C189.177 70.1285 189.767 69.4066 189.698 68.6188C189.629 67.8309 188.923 67.2223 188.135 67.2913C187.347 67.3602 186.74 68.0837 186.809 68.8715C186.878 69.6593 187.602 70.2664 188.389 70.1974ZM188.176 80.6597L190.399 80.4652L189.627 71.6416L187.404 71.8361L188.176 80.6597ZM191.033 71.5186L195.009 80.0619L197.932 79.8061L200.382 70.7007L197.983 70.9105L196.259 77.4122L193.414 71.3103L191.033 71.5186ZM202.768 68.9395C203.556 68.8706 204.145 68.1486 204.076 67.3608C204.007 66.573 203.301 65.9644 202.513 66.0333C201.726 66.1022 201.119 66.8257 201.188 67.6135C201.256 68.4014 201.98 69.0084 202.768 68.9395ZM202.554 79.4017L204.777 79.2072L204.005 70.3836L201.782 70.5781L202.554 79.4017Z"
        fill="#3B69D1" />
    <path
        d="M33.2575 129.84C31.4082 130.002 29.9651 128.674 29.8009 126.797C29.6366 124.92 30.8273 123.361 32.6765 123.2C33.7972 123.102 34.7276 123.571 35.3579 124.32L36.8203 122.964C35.8195 121.852 34.2927 121.181 32.5135 121.336C29.4174 121.607 27.5104 124.174 27.7555 126.976C28.0006 129.778 30.3244 131.974 33.4205 131.703C35.1997 131.548 36.588 130.636 37.378 129.338L35.7035 128.271C35.213 129.118 34.3782 129.742 33.2575 129.84ZM45.28 129.226L43.9169 128.329C43.5828 128.866 42.9397 129.261 42.1692 129.329C41.0625 129.425 40.2034 128.964 39.92 127.662L44.8653 127.229C44.9005 126.986 44.9247 126.617 44.8904 126.225C44.7286 124.376 43.3233 123.157 41.362 123.329C39.0505 123.531 37.8843 125.37 38.067 127.457C38.2471 129.516 39.8153 131.144 42.323 130.924C43.6538 130.808 44.6988 130.166 45.28 129.226ZM41.4474 124.79C42.4421 124.703 43.023 125.372 43.1135 126.084L39.8633 126.368C39.9786 125.426 40.5368 124.869 41.4474 124.79ZM47.2021 127.618C47.3528 129.341 48.2804 130.262 50.0456 130.108C50.634 130.056 51.0481 129.949 51.3849 129.765L51.2488 128.209C51.0193 128.328 50.702 128.413 50.2116 128.456C49.5112 128.517 49.0639 128.245 48.9953 127.461L48.7428 124.575L50.9002 124.386L50.7605 122.789L48.6031 122.978L48.4486 121.213L46.6554 121.37L46.8099 123.135L45.493 123.25L45.6327 124.847L46.9496 124.732L47.2021 127.618ZM53.3038 127.084C53.4546 128.807 54.3821 129.728 56.1473 129.574C56.7357 129.522 57.1499 129.415 57.4866 129.231L57.3506 127.676C57.121 127.795 56.8037 127.879 56.3133 127.922C55.6129 127.983 55.1656 127.712 55.097 126.927L54.8445 124.041L57.0019 123.852L56.8622 122.255L54.7048 122.444L54.5504 120.679L52.7572 120.836L52.9116 122.601L51.5947 122.716L51.7344 124.313L53.0513 124.198L53.3038 127.084ZM65.3363 127.471L63.9732 126.574C63.6391 127.111 62.9961 127.506 62.2255 127.574C61.1188 127.671 60.2597 127.209 59.9764 125.907L64.9217 125.475C64.9569 125.232 64.981 124.862 64.9467 124.47C64.7849 122.621 63.3796 121.403 61.4183 121.574C59.1068 121.777 57.9407 123.615 58.1233 125.702C58.3035 127.762 59.8716 129.389 62.3793 129.17C63.7102 129.053 64.7551 128.411 65.3363 127.471ZM61.5038 123.035C62.4984 122.948 63.0793 123.617 63.1698 124.329L59.9196 124.613C60.0349 123.672 60.5932 123.115 61.5038 123.035ZM70.1194 127.18C70.8617 127.919 71.8024 128.345 73.0632 128.235C74.3941 128.118 75.5138 127.202 75.4119 125.714C75.1987 123.277 71.8592 123.992 71.7538 122.788C71.7219 122.423 71.9611 122.092 72.5215 122.043C73.0679 121.995 73.562 122.319 73.9655 122.735L75.0516 121.596C74.4872 120.953 73.4612 120.521 72.3825 120.615C70.9115 120.744 69.9429 121.774 70.052 123.021C70.2689 125.501 73.6047 124.743 73.7126 125.976C73.7494 126.396 73.4846 126.758 72.9102 126.808C72.2378 126.867 71.6851 126.52 71.203 126.012L70.1194 127.18ZM83.6004 125.873L82.2373 124.976C81.9032 125.513 81.2602 125.909 80.4896 125.976C79.3829 126.073 78.5238 125.611 78.2405 124.309L83.1858 123.877C83.221 123.634 83.2451 123.264 83.2108 122.872C83.049 121.023 81.6437 119.805 79.6824 119.976C77.3709 120.179 76.2048 122.017 76.3874 124.104C76.5676 126.164 78.1357 127.791 80.6434 127.572C81.9743 127.455 83.0192 126.813 83.6004 125.873ZM79.7679 121.437C80.7625 121.35 81.3434 122.019 81.4339 122.731L78.1837 123.016C78.299 122.074 78.8573 121.517 79.7679 121.437ZM85.3134 126.881L87.0926 126.725L86.6894 122.116C86.9163 121.645 87.2839 121.005 88.0964 120.934C88.895 120.864 89.4038 121.356 89.4786 122.211L89.8524 126.484L91.6456 126.327L91.2657 121.984C91.2559 121.872 91.2473 121.774 91.2247 121.677C91.4632 121.176 91.8369 120.607 92.6074 120.54C93.406 120.47 93.9149 120.962 93.9896 121.816L94.3634 126.089L96.1566 125.932L95.7767 121.589C95.6026 119.6 94.3656 118.692 92.9087 118.819C91.7179 118.923 91.092 119.515 90.6416 120.175C90.1131 119.459 89.2943 119.136 88.3977 119.214C87.5291 119.29 86.9573 119.693 86.5214 120.197L86.4749 119.664L84.6957 119.82L85.3134 126.881ZM100.195 125.791C101.021 125.718 101.831 125.295 102.232 124.709L102.292 125.395L104.071 125.24L103.672 120.673C103.536 119.118 102.378 117.991 100.333 118.17C99.044 118.283 98.0539 118.906 97.4994 119.829L98.8893 120.71C99.2222 120.159 99.7264 119.79 100.413 119.73C101.225 119.659 101.827 120.086 101.892 120.828L101.908 121.011L99.7828 121.564C98.2918 121.948 97.5351 122.819 97.6283 123.884C97.7423 125.186 98.78 125.914 100.195 125.791ZM99.3861 123.645C99.3481 123.211 99.6293 122.876 100.361 122.685L102.017 122.257L102.104 123.252C101.803 123.843 101.248 124.273 100.435 124.344C99.833 124.397 99.4278 124.121 99.3861 123.645ZM106.28 116.69C106.91 116.634 107.382 116.057 107.327 115.426C107.271 114.796 106.706 114.309 106.076 114.364C105.446 114.419 104.96 114.998 105.015 115.629C105.07 116.259 105.649 116.745 106.28 116.69ZM106.109 125.062L107.888 124.906L107.27 117.845L105.491 118.001L106.109 125.062ZM110.021 124.719L111.8 124.564L111.397 119.954C111.624 119.483 112.048 118.839 112.944 118.76C113.813 118.684 114.397 119.226 114.479 120.165L114.84 124.298L116.634 124.141L116.266 119.938C116.083 117.851 114.773 116.906 113.246 117.04C112.307 117.122 111.68 117.544 111.232 118.063L111.183 117.503L109.404 117.658L110.021 124.719ZM125.054 122.246L123.691 121.349C123.357 121.887 122.714 122.282 121.943 122.349C120.836 122.446 119.977 121.985 119.694 120.683L124.639 120.25C124.674 120.007 124.699 119.638 124.664 119.245C124.502 117.396 123.097 116.178 121.136 116.35C118.824 116.552 117.658 118.39 117.841 120.478C118.021 122.537 119.589 124.164 122.097 123.945C123.428 123.829 124.473 123.187 125.054 122.246ZM121.221 117.81C122.216 117.723 122.797 118.392 122.887 119.105L119.637 119.389C119.752 118.447 120.311 117.89 121.221 117.81Z"
        fill="#3B69D1" />
    <path
        d="M139.343 121.541L143.195 121.204C146.305 120.932 148.21 118.492 147.978 115.844C147.746 113.197 145.447 111.125 142.337 111.397L138.485 111.734L139.343 121.541ZM142.524 113.202C144.345 113.043 145.779 114.272 145.932 116.023C146.084 117.761 144.886 119.235 143.065 119.394L141.174 119.559L140.632 113.367L142.524 113.202ZM153.517 112.057L154.995 109.584L153.062 109.753L151.808 112.206L153.517 112.057ZM156.528 118.88L155.165 117.982C154.831 118.52 154.188 118.915 153.417 118.982C152.311 119.079 151.451 118.618 151.168 117.316L156.113 116.883C156.149 116.64 156.173 116.271 156.138 115.879C155.977 114.029 154.571 112.811 152.61 112.983C150.299 113.185 149.132 115.023 149.315 117.111C149.495 119.17 151.063 120.798 153.571 120.578C154.902 120.462 155.947 119.82 156.528 118.88ZM152.696 114.444C153.69 114.356 154.271 115.026 154.362 115.738L151.111 116.022C151.227 115.08 151.785 114.523 152.696 114.444ZM158.241 119.887L160.02 119.732L159.617 115.123C159.844 114.651 160.212 114.012 161.024 113.941C161.823 113.871 162.331 114.363 162.406 115.217L162.78 119.49L164.573 119.333L164.193 114.99C164.184 114.878 164.175 114.78 164.152 114.683C164.391 114.183 164.765 113.613 165.535 113.546C166.334 113.476 166.842 113.968 166.917 114.823L167.291 119.096L169.084 118.939L168.704 114.596C168.53 112.606 167.293 111.698 165.836 111.826C164.646 111.93 164.02 112.521 163.569 113.182C163.041 112.466 162.222 112.142 161.325 112.22C160.457 112.296 159.885 112.699 159.449 113.203L159.403 112.671L157.623 112.827L158.241 119.887ZM173.123 118.797C173.949 118.725 174.759 118.301 175.16 117.715L175.22 118.402L176.999 118.246L176.599 113.679C176.463 112.124 175.306 110.997 173.26 111.176C171.972 111.289 170.981 111.912 170.427 112.836L171.817 113.716C172.15 113.165 172.654 112.796 173.34 112.736C174.153 112.665 174.755 113.092 174.82 113.835L174.836 114.017L172.71 114.57C171.219 114.954 170.463 115.825 170.556 116.89C170.67 118.193 171.708 118.921 173.123 118.797ZM172.314 116.652C172.276 116.217 172.557 115.882 173.288 115.691L174.945 115.264L175.032 116.258C174.731 116.849 174.176 117.279 173.363 117.35C172.761 117.403 172.355 117.128 172.314 116.652ZM179.036 118.068L180.815 117.912L180.419 113.387C180.646 112.916 181.165 112.39 182.034 112.314C182.356 112.286 182.598 112.307 182.827 112.344L182.674 110.593C182.501 110.551 182.287 110.528 182.049 110.548C181.25 110.618 180.68 111.035 180.259 111.552L180.198 110.852L178.418 111.007L179.036 118.068ZM187.694 115.899C186.503 116.003 185.572 115.195 185.462 113.948C185.355 112.716 186.131 111.744 187.294 111.642C188.022 111.579 188.611 111.852 188.99 112.313L190.283 111.127C189.549 110.316 188.463 109.846 187.174 109.959C184.737 110.172 183.433 112.051 183.613 114.11C183.793 116.17 185.404 117.793 187.841 117.58C189.13 117.467 190.118 116.816 190.7 115.89L189.22 114.947C188.927 115.466 188.395 115.838 187.694 115.899ZM192.129 116.922L193.908 116.767L193.505 112.158C193.732 111.686 194.155 111.042 195.052 110.964C195.935 110.886 196.504 111.429 196.586 112.368L196.948 116.501L198.741 116.344L198.374 112.141C198.191 110.054 196.88 109.11 195.353 109.243C194.415 109.325 193.788 109.747 193.339 110.267L192.989 106.26L191.21 106.416L192.129 116.922ZM207.161 114.45L205.798 113.553C205.464 114.09 204.821 114.485 204.051 114.553C202.944 114.649 202.085 114.188 201.801 112.886L206.747 112.453C206.782 112.21 206.806 111.841 206.772 111.449C206.61 109.6 205.205 108.381 203.243 108.553C200.932 108.755 199.766 110.594 199.948 112.681C200.129 114.74 201.697 116.368 204.204 116.148C205.535 116.032 206.58 115.39 207.161 114.45ZM203.329 110.014C204.323 109.927 204.904 110.596 204.995 111.308L201.745 111.592C201.86 110.65 202.418 110.093 203.329 110.014ZM208.073 114.497C208.815 115.237 209.756 115.663 211.017 115.552C212.347 115.436 213.467 114.519 213.365 113.032C213.152 110.594 209.813 111.31 209.707 110.105C209.675 109.741 209.914 109.409 210.475 109.36C211.021 109.312 211.515 109.636 211.919 110.053L213.005 108.913C212.441 108.271 211.415 107.838 210.336 107.933C208.865 108.061 207.896 109.092 208.005 110.339C208.222 112.818 211.558 112.061 211.666 113.293C211.703 113.714 211.438 114.076 210.864 114.126C210.191 114.185 209.638 113.838 209.156 113.329L208.073 114.497Z"
        fill="#646464" />
    <path
        d="M229.287 113.721L231.276 113.547L230.929 109.583L231.952 109.493L234.919 113.229L237.258 113.024L233.81 108.949C234.779 108.399 235.276 107.466 235.172 106.275C235.012 104.454 233.584 103.464 231.427 103.652L228.429 103.915L229.287 113.721ZM231.684 105.296C232.524 105.222 233.059 105.684 233.124 106.426C233.194 107.225 232.746 107.758 231.906 107.831L230.785 107.929L230.563 105.394L231.684 105.296ZM244.653 111.219L243.29 110.322C242.955 110.86 242.312 111.255 241.542 111.322C240.435 111.419 239.576 110.958 239.293 109.656L244.238 109.223C244.273 108.98 244.297 108.611 244.263 108.218C244.101 106.369 242.696 105.151 240.735 105.323C238.423 105.525 237.257 107.363 237.44 109.451C237.62 111.51 239.188 113.137 241.696 112.918C243.027 112.802 244.071 112.16 244.653 111.219ZM240.82 106.783C241.815 106.696 242.396 107.365 242.486 108.077L239.236 108.362C239.351 107.42 239.91 106.863 240.82 106.783ZM246.366 112.227L248.145 112.071L247.742 107.462C247.969 106.991 248.392 106.347 249.289 106.268C250.157 106.192 250.741 106.734 250.823 107.673L251.185 111.805L252.978 111.649L252.61 107.446C252.428 105.358 251.117 104.414 249.59 104.548C248.651 104.63 248.025 105.052 247.576 105.571L247.527 105.011L245.748 105.166L246.366 112.227ZM254.185 107.986C254.365 110.045 255.877 111.677 258.105 111.482C259.058 111.399 259.718 111.045 260.217 110.451L260.266 111.011L262.059 110.854L261.14 100.347L259.347 100.504L259.697 104.511C259.103 104.012 258.391 103.778 257.438 103.861C255.211 104.056 254.005 105.926 254.185 107.986ZM256.048 107.823C255.941 106.59 256.633 105.626 257.837 105.52C258.636 105.45 259.324 105.729 259.857 106.332L260.058 108.629C259.638 109.315 259.009 109.709 258.21 109.779C257.005 109.885 256.156 109.055 256.048 107.823ZM270.592 108.95L269.229 108.053C268.895 108.59 268.252 108.985 267.481 109.053C266.374 109.15 265.515 108.688 265.232 107.386L270.177 106.953C270.212 106.71 270.237 106.341 270.202 105.949C270.04 104.1 268.635 102.882 266.674 103.053C264.362 103.255 263.196 105.094 263.379 107.181C263.559 109.241 265.127 110.868 267.635 110.649C268.966 110.532 270.011 109.89 270.592 108.95ZM266.759 104.514C267.754 104.427 268.335 105.096 268.425 105.808L265.175 106.092C265.29 105.151 265.849 104.594 266.759 104.514ZM271.929 109.991L277.841 109.473L277.701 107.876L274.017 108.199L277.265 104.018L277.125 102.421L271.423 102.92L271.563 104.517L275.037 104.213L271.789 108.393L271.929 109.991ZM278.52 104.939L278.67 106.662L282.453 106.331L282.302 104.608L278.52 104.939ZM282.266 101.971L285.448 108.808L287.787 108.603L289.747 101.317L287.828 101.485L286.448 106.688L284.172 101.805L282.266 101.971ZM294.123 100.652C291.826 100.853 290.405 102.685 290.59 104.801C290.775 106.916 292.493 108.474 294.79 108.273C297.088 108.072 298.509 106.239 298.323 104.124C298.138 102.009 296.421 100.451 294.123 100.652ZM294.671 106.589C293.494 106.692 292.547 105.872 292.44 104.639C292.332 103.406 293.122 102.433 294.299 102.33C295.433 102.231 296.366 103.053 296.474 104.286C296.581 105.505 295.806 106.49 294.671 106.589ZM304.639 104.051C304.728 105.074 304.251 105.751 303.285 105.836C302.304 105.921 301.716 105.338 301.627 104.315L301.276 100.308L299.483 100.465L299.826 104.388C300.012 106.503 301.344 107.699 303.418 107.518C305.491 107.337 306.61 105.926 306.425 103.81L306.082 99.8878L304.288 100.045L304.639 104.051ZM307.908 105.812C308.651 106.552 309.591 106.978 310.852 106.868C312.183 106.751 313.303 105.834 313.201 104.347C312.988 101.909 309.648 102.625 309.543 101.42C309.511 101.056 309.75 100.724 310.31 100.675C310.857 100.628 311.351 100.951 311.754 101.368L312.841 100.228C312.276 99.5859 311.25 99.1533 310.171 99.2477C308.7 99.3764 307.732 100.407 307.841 101.654C308.058 104.133 311.394 103.376 311.502 104.609C311.538 105.029 311.274 105.391 310.699 105.441C310.027 105.5 309.474 105.153 308.992 104.645L307.908 105.812Z"
        fill="#646464" />
    <rect x="28.742" y="145.187" width="287.409" height="1.30817"
        transform="rotate(-5 28.742 145.187)" fill="#B3B3B3" />
    <rect x="28.5493" y="142.988" width="98.4399" height="3.51571"
        transform="rotate(-5 28.5493 142.988)" fill="#3B69D1" />
    <defs>
        <filter id="filter0_d_3601_10863" x="-25.0402" y="2.6714" width="390.627" height="230.379"
            filterUnits="userSpaceOnUse" color-interpolation-filters="sRGB">
            <feFlood flood-opacity="0" result="BackgroundImageFix" />
            <feColorMatrix in="SourceAlpha" type="matrix"
                values="0 0 0 0 0 0 0 0 0 0 0 0 0 0 0 0 0 0 127 0" result="hardAlpha" />
            <feOffset dy="6" />
            <feGaussianBlur stdDeviation="12.5" />
            <feComposite in2="hardAlpha" operator="out" />
            <feColorMatrix type="matrix"
                values="0 0 0 0 0.196078 0 0 0 0 0.196078 0 0 0 0 0.196078 0 0 0 0.1 0" />
            <feBlend mode="normal" in2="BackgroundImageFix"
                result="effect1_dropShadow_3601_10863" />
            <feBlend mode="normal" in="SourceGraphic" in2="effect1_dropShadow_3601_10863"
                result="shape" />
        </filter>
    </defs>
</svg>
