<svg width="358" height="202" viewBox="0 0 358 202" fill="none" xmlns="http://www.w3.org/2000/svg">
    <rect x="18.7516" y="29.0002" width="326.526" height="150.527" rx="11.5"
        transform="rotate(-5 18.7516 29.0002)" fill="#F1F1F1" stroke="#878787"
        stroke-dasharray="5 5" />
    <g filter="url(#filter0_d_3552_10577)">
        <g clip-path="url(#clip0_3552_10577)">
            <rect y="50.3349" width="328.527" height="152.244" rx="16"
                transform="rotate(-5 0 50.3349)" fill="white" />
            <rect x="17.3614" y="64.903" width="85.1367" height="32.0514" rx="16"
                transform="rotate(-5 17.3614 64.903)" fill="#F4E5FF" />
            <path
                d="M32.8791 85.665L34.1922 85.5501L33.4772 77.3781L39.724 85.0661L41.4422 84.9158L40.5867 75.1374L39.2736 75.2523L39.9885 83.4242L33.7418 75.7362L32.0236 75.8866L32.8791 85.665ZM46.7674 77.074C44.4904 77.2733 43.1066 79.1538 43.2862 81.2073C43.4659 83.2608 45.1552 84.8725 47.4322 84.6733C49.6952 84.4753 51.093 82.5935 50.9134 80.54C50.7337 78.4865 49.0304 76.8761 46.7674 77.074ZM47.3484 83.5545C45.8398 83.6865 44.6578 82.5653 44.5295 81.0985C44.4011 79.6318 45.3704 78.3223 46.8791 78.1904C48.3459 78.062 49.5278 79.1832 49.6562 80.65C49.7833 82.1028 48.8152 83.4262 47.3484 83.5545ZM57.7694 80.4469C57.8904 81.8299 57.2057 82.6921 56.0323 82.7948C54.831 82.8999 54.0209 82.1684 53.9 80.7855L53.548 76.7623L52.3606 76.8662L52.7089 80.8474C52.8935 82.9568 54.2163 84.0797 56.1161 83.9135C58.0299 83.7461 59.1377 82.4105 58.9531 80.3011L58.6048 76.3199L57.4174 76.4238L57.7694 80.4469ZM59.9378 76.2033L63.3056 83.003L64.8702 82.8661L67.0062 75.5849L65.721 75.6973L63.9792 81.6913L61.2229 76.0909L59.9378 76.2033ZM75.125 80.8006L74.1851 80.1931C73.7791 80.8621 73.0475 81.3484 72.1395 81.4278C70.6308 81.5598 69.466 80.6341 69.2762 78.9475L74.6822 78.4746C74.707 78.2753 74.7257 78.0063 74.7013 77.7269C74.5497 75.9947 73.1891 74.7624 71.2754 74.9299C69.0962 75.1205 67.8726 76.9026 68.0596 79.0399C68.2393 81.0934 69.8588 82.7112 72.2336 82.5034C73.5467 82.3885 74.5455 81.7381 75.125 80.8006ZM71.3354 75.9381C72.5787 75.8293 73.3669 76.6331 73.4992 77.6631L69.2805 78.0322C69.4257 76.7949 70.176 76.0395 71.3354 75.9381ZM78.9614 81.8304C79.8694 81.7509 80.756 81.2651 81.2269 80.5342L81.3051 81.4282L82.4925 81.3244L82.0794 76.6028C81.9437 75.0522 80.7904 74.0974 79.0024 74.2538C77.7731 74.3614 76.8265 74.965 76.2852 75.8569L77.2391 76.4632C77.6196 75.8247 78.2431 75.3901 79.0534 75.3192C80.0591 75.2312 80.8065 75.7288 80.892 76.7067L80.9348 77.1956L78.5943 77.7945C77.1216 78.1767 76.3774 79.0019 76.4702 80.0636C76.5753 81.2649 77.5785 81.9513 78.9614 81.8304ZM77.6679 79.9166C77.6154 79.3159 78.0105 78.845 78.9597 78.593L81.0106 78.0617L81.1316 79.4446C80.7366 80.2393 80.0074 80.7535 79.0715 80.8354C78.2473 80.9075 77.7205 80.5172 77.6679 79.9166ZM89.5137 77.6696C89.6347 79.0526 88.9501 79.9148 87.7767 80.0175C86.5753 80.1226 85.7653 79.3911 85.6443 78.0082L85.2923 73.9851L84.1049 74.089L84.4532 78.0702C84.6378 80.1795 85.9607 81.3025 87.8605 81.1362C89.7742 80.9688 90.882 79.6332 90.6975 77.5239L90.3491 73.5427L89.1618 73.6465L89.5137 77.6696Z"
                fill="#950EFF" />
            <path
                d="M22.943 123.735L24.5394 123.596L25.5449 120.194L30.6855 119.744L32.2664 122.92L33.8628 122.78L28.431 111.994L26.4194 112.17L22.943 123.735ZM25.9266 118.857L27.5397 113.391L30.0775 118.494L25.9266 118.857ZM33.884 114.67L33.9916 115.9L35.5082 115.767L36.1046 122.584L37.4776 122.464L36.8812 115.647L39.675 115.402L39.5675 114.173L36.7737 114.417L36.6843 113.396C36.5921 112.342 37.1443 111.666 38.0543 111.587C38.5172 111.546 38.897 111.658 39.2199 111.855L39.7274 110.668C39.258 110.452 38.6492 110.296 37.9148 110.36C36.1587 110.514 35.1646 111.839 35.3141 113.548L35.4007 114.538L33.884 114.67ZM40.3853 114.101L40.4929 115.331L42.0095 115.198L42.6059 122.015L43.9789 121.895L43.3825 115.078L46.1763 114.833L46.0688 113.604L43.2749 113.849L43.1855 112.827C43.0933 111.773 43.6455 111.098 44.5555 111.018C45.0185 110.977 45.3983 111.089 45.7211 111.286L46.2286 110.099C45.7593 109.883 45.1504 109.727 44.416 109.791C42.6599 109.945 41.6659 111.271 41.8154 112.979L41.902 113.969L40.3853 114.101ZM48.2255 111.308C48.7523 111.262 49.1297 110.795 49.0836 110.268C49.0389 109.757 48.5861 109.362 48.0593 109.408C47.5324 109.454 47.1391 109.923 47.1838 110.434C47.2299 110.961 47.6987 111.354 48.2255 111.308ZM48.4259 121.506L49.7829 121.387L49.079 113.341L47.722 113.46L48.4259 121.506ZM56.271 119.854C54.5308 120.006 53.1842 118.773 53.0334 117.049C52.8839 115.341 53.9945 113.876 55.7187 113.725C56.7245 113.637 57.5806 114.045 58.1369 114.704L59.1353 113.796C58.2984 112.872 57.0597 112.321 55.6069 112.448C52.9408 112.681 51.4072 114.826 51.6125 117.173C51.8178 119.52 53.7007 121.366 56.3668 121.133C57.8355 121.004 58.9451 120.264 59.6074 119.192L58.4666 118.472C58.0331 119.217 57.2608 119.768 56.271 119.854ZM61.5844 120.355L62.9414 120.236L62.4539 114.664C62.8922 113.789 63.5505 113.04 64.7319 112.937C65.9931 112.826 66.864 113.587 66.9897 115.023L67.4115 119.845L68.7685 119.726L68.3425 114.857C68.1428 112.574 66.6956 111.478 64.8916 111.636C63.6942 111.74 62.9087 112.324 62.317 113.1L61.8938 108.262L60.5368 108.381L61.5844 120.355ZM78.5362 117.536L77.462 116.842C76.998 117.606 76.1619 118.162 75.1242 118.253C73.4 118.404 72.0687 117.346 71.8518 115.418L78.0302 114.878C78.0585 114.65 78.0799 114.343 78.052 114.023C77.8788 112.044 76.3238 110.635 74.1366 110.827C71.6461 111.045 70.2478 113.081 70.4615 115.524C70.6668 117.871 72.5177 119.72 75.2317 119.482C76.7324 119.351 77.8739 118.608 78.5362 117.536ZM74.2053 111.979C75.6261 111.855 76.5269 112.773 76.6782 113.951L71.8568 114.372C72.0227 112.958 72.8802 112.095 74.2053 111.979ZM80.7764 118.675L82.1334 118.557L81.6501 113.033C82.0738 112.175 82.7128 111.573 83.7664 111.48C84.0857 111.452 84.328 111.463 84.573 111.506L84.4571 110.181C84.26 110.134 84.0177 110.123 83.7623 110.146C82.7405 110.235 82.0466 110.762 81.5174 111.516L81.4294 110.511L80.0724 110.629L80.7764 118.675ZM96.7266 113.805C96.8649 115.386 96.0824 116.371 94.7414 116.488C93.3684 116.609 92.4427 115.773 92.3044 114.192L91.9021 109.594L90.5451 109.713L90.9432 114.263C91.1541 116.674 92.666 117.957 94.8372 117.767C97.0243 117.576 98.2904 116.049 98.0795 113.639L97.6814 109.089L96.3244 109.207L96.7266 113.805ZM101.06 116.901L102.417 116.782L101.929 111.211C102.366 110.32 103.042 109.585 104.207 109.483C105.452 109.374 106.339 110.133 106.465 111.57L106.887 116.391L108.244 116.272L107.818 111.403C107.618 109.12 106.171 108.024 104.367 108.182C103.17 108.287 102.384 108.87 101.792 109.646L101.713 108.736L100.356 108.855L101.06 116.901ZM110.775 105.836C111.302 105.79 111.679 105.322 111.633 104.795C111.588 104.285 111.135 103.89 110.609 103.936C110.082 103.982 109.688 104.451 109.733 104.962C109.779 105.489 110.248 105.882 110.775 105.836ZM110.975 116.033L112.332 115.915L111.628 107.868L110.271 107.987L110.975 116.033ZM114.162 111.701C114.367 114.048 116.154 115.902 118.677 115.681C119.874 115.577 120.775 115.031 121.421 114.138L121.85 119.039L123.207 118.921L122.159 106.947L120.802 107.066L120.888 108.04C120.097 107.272 119.114 106.892 117.917 106.997C115.394 107.217 113.957 109.354 114.162 111.701ZM115.583 111.576C115.433 109.868 116.48 108.409 118.172 108.261C119.29 108.163 120.31 108.605 121.018 109.524L121.291 112.654C120.768 113.664 119.842 114.292 118.709 114.392C117.016 114.54 115.732 113.285 115.583 111.576ZM131.041 110.803C131.18 112.384 130.397 113.369 129.056 113.486C127.683 113.606 126.758 112.77 126.619 111.19L126.217 106.592L124.86 106.711L125.258 111.261C125.469 113.671 126.981 114.955 129.152 114.765C131.339 114.574 132.605 113.047 132.394 110.636L131.996 106.087L130.639 106.205L131.041 110.803ZM142.411 111.948L141.337 111.254C140.873 112.018 140.036 112.574 138.999 112.665C137.275 112.816 135.943 111.758 135.726 109.83L141.905 109.29C141.933 109.062 141.954 108.754 141.927 108.435C141.753 106.455 140.198 105.047 138.011 105.239C135.521 105.456 134.122 107.493 134.336 109.936C134.541 112.283 136.392 114.131 139.106 113.894C140.607 113.763 141.748 113.019 142.411 111.948ZM138.08 106.391C139.501 106.266 140.401 107.185 140.553 108.362L135.731 108.784C135.897 107.37 136.755 106.507 138.08 106.391ZM144.651 113.087L146.008 112.968L145.52 107.397C145.911 106.526 146.537 105.78 147.639 105.683C148.804 105.581 149.606 106.283 149.723 107.624L150.159 112.605L151.516 112.487L151.076 107.458C151.059 107.266 151.028 107.092 150.996 106.918C151.441 105.93 152.109 105.292 153.131 105.203C154.28 105.102 155.098 105.803 155.215 107.144L155.651 112.125L157.008 112.006L156.568 106.977C156.376 104.79 155.015 103.751 153.29 103.902C151.901 104.023 151.114 104.768 150.552 105.702C149.968 104.723 148.964 104.28 147.798 104.382C146.681 104.48 145.926 105.045 145.381 105.8L145.304 104.922L143.947 105.041L144.651 113.087ZM166.779 109.816L165.705 109.122C165.241 109.886 164.404 110.442 163.367 110.533C161.643 110.684 160.311 109.626 160.094 107.698L166.273 107.158C166.301 106.93 166.322 106.622 166.295 106.303C166.121 104.324 164.566 102.915 162.379 103.107C159.889 103.324 158.49 105.361 158.704 107.804C158.909 110.151 160.76 112 163.474 111.762C164.975 111.631 166.116 110.887 166.779 109.816ZM162.448 104.259C163.869 104.135 164.77 105.053 164.921 106.23L160.099 106.652C160.265 105.238 161.123 104.375 162.448 104.259ZM169.019 110.955L170.376 110.837L169.889 105.265C170.325 104.374 171.001 103.639 172.166 103.537C173.412 103.428 174.299 104.187 174.424 105.624L174.846 110.445L176.203 110.327L175.777 105.457C175.577 103.175 174.13 102.079 172.326 102.236C171.129 102.341 170.343 102.925 169.752 103.7L169.672 102.79L168.315 102.909L169.019 110.955ZM179.161 107.349C179.333 109.313 180.417 110.119 182.205 109.962C182.78 109.912 183.206 109.811 183.575 109.617L183.469 108.404C183.176 108.558 182.815 108.654 182.288 108.7C181.314 108.786 180.645 108.49 180.534 107.229L180.174 103.11L182.968 102.866L182.86 101.636L180.067 101.881L179.891 99.8693L178.518 99.9895L178.694 102.001L177.177 102.134L177.284 103.363L178.801 103.23L179.161 107.349ZM26.0438 147.594L27.4008 147.476L26.3533 135.502L24.9963 135.621L26.0438 147.594ZM37.3052 145.274L36.2309 144.58C35.767 145.344 34.9308 145.9 33.8931 145.991C32.1689 146.142 30.8377 145.084 30.6208 143.156L36.7991 142.616C36.8274 142.388 36.8488 142.08 36.8209 141.761C36.6477 139.781 35.0927 138.373 32.9056 138.564C30.4151 138.782 29.0167 140.819 29.2304 143.262C29.4357 145.608 31.2866 147.457 34.0006 147.22C35.5013 147.089 36.6428 146.345 37.3052 145.274ZM32.9742 139.717C34.3951 139.592 35.2959 140.511 35.4471 141.688L30.6258 142.11C30.7916 140.696 31.6491 139.833 32.9742 139.717ZM38.5244 145.392C39.3384 146.238 40.3889 146.661 41.6661 146.549C43.1668 146.418 44.2817 145.371 44.1664 143.869C43.9262 141.123 39.9374 142.051 39.7795 140.247C39.7251 139.625 40.1433 139.073 41.0054 138.998C41.7079 138.937 42.3481 139.267 42.8322 139.836L43.7043 138.955C43.0771 138.222 42.0398 137.765 40.8903 137.866C39.3417 138.001 38.3629 139.133 38.4732 140.394C38.7218 143.236 42.6891 142.245 42.8469 144.049C42.9084 144.752 42.445 145.339 41.551 145.417C40.7368 145.488 40.0313 145.148 39.4111 144.494L38.5244 145.392ZM53.804 136.736C51.2018 136.964 49.6202 139.113 49.8256 141.46C50.0309 143.807 51.9616 145.649 54.5638 145.421C57.1501 145.195 58.7476 143.044 58.5423 140.697C58.337 138.35 56.3903 136.51 53.804 136.736ZM54.4681 144.142C52.7439 144.293 51.3931 143.012 51.2464 141.336C51.0998 139.659 52.2075 138.163 53.9317 138.012C55.608 137.865 56.9588 139.147 57.1055 140.823C57.2507 142.483 56.1444 143.996 54.4681 144.142ZM59.1935 136.586L59.301 137.816L60.8177 137.683L61.4141 144.5L62.7871 144.38L62.1907 137.563L64.9845 137.318L64.8769 136.089L62.0831 136.334L61.9937 135.312C61.9015 134.258 62.4537 133.582 63.3637 133.503C63.8267 133.462 64.2065 133.574 64.5293 133.771L65.0368 132.584C64.5675 132.368 63.9586 132.212 63.2242 132.276C61.4681 132.43 60.4741 133.756 60.6235 135.464L60.7101 136.454L59.1935 136.586ZM65.6948 136.018L65.8023 137.247L67.319 137.114L67.9154 143.931L69.2883 143.811L68.6919 136.994L71.4858 136.75L71.3782 135.52L68.5844 135.765L68.495 134.743C68.4028 133.689 68.955 133.014 69.865 132.934C70.328 132.894 70.7077 133.005 71.0306 133.202L71.5381 132.015C71.0687 131.799 70.4599 131.643 69.7255 131.708C67.9694 131.861 66.9754 133.187 67.1248 134.895L67.2114 135.885L65.6948 136.018ZM73.3924 143.452L74.7494 143.333L74.2661 137.809C74.6898 136.952 75.3288 136.349 76.3825 136.257C76.7018 136.229 76.944 136.24 77.1891 136.283L77.0732 134.958C76.876 134.911 76.6337 134.9 76.3783 134.922C75.3565 135.011 74.6627 135.539 74.1334 136.293L74.0454 135.287L72.6884 135.406L73.3924 143.452ZM86.2907 140.988L85.2165 140.294C84.7525 141.058 83.9164 141.614 82.8787 141.705C81.1545 141.856 79.8232 140.798 79.6063 138.87L85.7847 138.33C85.813 138.102 85.8344 137.795 85.8064 137.475C85.6332 135.496 84.0783 134.087 81.8911 134.279C79.4006 134.497 78.0023 136.533 78.216 138.976C78.4213 141.323 80.2722 143.172 82.9862 142.934C84.4869 142.803 85.6284 142.06 86.2907 140.988ZM81.9598 135.431C83.3806 135.307 84.2814 136.225 84.4327 137.403L79.6113 137.824C79.7772 136.41 80.6347 135.547 81.9598 135.431ZM87.51 141.107C88.324 141.953 89.3745 142.375 90.6516 142.264C92.1523 142.132 93.2673 141.086 93.1519 139.584C92.9117 136.838 88.9229 137.766 88.7651 135.962C88.7106 135.339 89.1289 134.788 89.991 134.712C90.6934 134.651 91.3336 134.981 91.8177 135.55L92.6898 134.669C92.0626 133.936 91.0253 133.48 89.8759 133.58C88.3273 133.716 87.3484 134.847 87.4588 136.108C87.7074 138.95 91.6746 137.959 91.8325 139.763C91.8939 140.466 91.4305 141.053 90.5365 141.132C89.7223 141.203 89.0169 140.862 88.3966 140.209L87.51 141.107ZM98.8111 137.174C99.0164 139.521 100.803 141.375 103.326 141.155C104.523 141.05 105.425 140.505 106.072 139.628L106.156 140.585L107.513 140.467L106.465 128.493L105.108 128.612L105.536 133.497C104.746 132.746 103.763 132.365 102.566 132.47C100.044 132.691 98.6058 134.827 98.8111 137.174ZM100.248 137.048C100.098 135.34 101.129 133.883 102.837 133.733C103.939 133.637 104.959 134.078 105.665 134.982L105.942 138.143C105.434 139.136 104.491 139.766 103.374 139.864C101.666 140.013 100.397 138.757 100.248 137.048ZM113.644 130.536L115.281 127.722L113.748 127.856L112.319 130.651L113.644 130.536ZM117.409 138.266L116.335 137.571C115.871 138.336 115.035 138.892 113.997 138.982C112.273 139.133 110.942 138.075 110.725 136.148L116.903 135.607C116.932 135.38 116.953 135.072 116.925 134.753C116.752 132.773 115.197 131.365 113.01 131.556C110.519 131.774 109.121 133.811 109.335 136.253C109.54 138.6 111.391 140.449 114.105 140.212C115.606 140.08 116.747 139.337 117.409 138.266ZM113.079 132.709C114.499 132.584 115.4 133.503 115.551 134.68L110.73 135.102C110.896 133.688 111.753 132.824 113.079 132.709ZM127.647 134.651C127.442 132.305 125.655 130.45 123.132 130.671C121.935 130.775 121.034 131.321 120.386 132.198L119.959 127.313L118.602 127.431L119.65 139.405L121.007 139.286L120.923 138.328C121.712 139.08 122.695 139.46 123.892 139.355C126.415 139.135 127.853 136.998 127.647 134.651ZM123.084 131.962C124.793 131.812 126.077 133.067 126.226 134.776C126.376 136.484 125.329 137.943 123.621 138.092C122.519 138.189 121.499 137.747 120.793 136.844L120.516 133.683C121.025 132.689 121.967 132.06 123.084 131.962ZM135.506 134.543C135.645 136.123 134.862 137.109 133.521 137.226C132.148 137.346 131.222 136.51 131.084 134.93L130.682 130.332L129.325 130.451L129.723 135.001C129.934 137.411 131.446 138.695 133.617 138.505C135.804 138.313 137.07 136.787 136.859 134.376L136.461 129.826L135.104 129.945L135.506 134.543ZM140.129 134.895C140.3 136.858 141.384 137.664 143.173 137.508C143.747 137.458 144.173 137.356 144.542 137.163L144.436 135.949C144.144 136.104 143.782 136.2 143.255 136.246C142.281 136.331 141.612 136.036 141.502 134.774L141.141 130.656L143.935 130.411L143.828 129.182L141.034 129.426L140.858 127.415L139.485 127.535L139.661 129.546L138.144 129.679L138.252 130.908L139.768 130.776L140.129 134.895ZM148.812 137.079C149.85 136.988 150.863 136.433 151.402 135.597L151.491 136.619L152.848 136.5L152.376 131.104C152.221 129.332 150.903 128.241 148.859 128.42C147.454 128.543 146.372 129.233 145.754 130.252L146.844 130.945C147.279 130.215 147.992 129.718 148.917 129.637C150.067 129.537 150.921 130.106 151.019 131.223L151.068 131.782L148.393 132.466C146.71 132.903 145.859 133.846 145.965 135.06C146.085 136.433 147.232 137.217 148.812 137.079ZM147.334 134.892C147.274 134.205 147.726 133.667 148.81 133.379L151.154 132.772L151.293 134.352C150.841 135.26 150.008 135.848 148.938 135.942C147.996 136.024 147.394 135.578 147.334 134.892ZM155.57 136.262L156.927 136.144L156.44 130.572C156.877 129.681 157.552 128.946 158.718 128.844C159.963 128.735 160.85 129.494 160.976 130.931L161.397 135.752L162.754 135.634L162.328 130.765C162.129 128.482 160.681 127.386 158.877 127.543C157.68 127.648 156.895 128.232 156.303 129.007L156.223 128.097L154.866 128.216L155.57 136.262ZM165.713 132.656C165.885 134.62 166.969 135.426 168.757 135.269C169.331 135.219 169.757 135.118 170.126 134.924L170.02 133.711C169.728 133.865 169.366 133.961 168.839 134.007C167.865 134.093 167.196 133.797 167.086 132.536L166.725 128.417L169.519 128.173L169.412 126.943L166.618 127.188L166.442 125.176L165.069 125.296L165.245 127.308L163.728 127.441L163.836 128.67L165.352 128.537L165.713 132.656ZM171.231 133.782C172.045 134.628 173.096 135.051 174.373 134.939C175.874 134.808 176.989 133.761 176.873 132.259C176.633 129.513 172.644 130.441 172.486 128.637C172.432 128.014 172.85 127.463 173.712 127.388C174.415 127.326 175.055 127.656 175.539 128.225L176.411 127.345C175.784 126.611 174.747 126.155 173.597 126.256C172.049 126.391 171.07 127.522 171.18 128.784C171.429 131.625 175.396 130.635 175.554 132.439C175.615 133.141 175.152 133.729 174.258 133.807C173.444 133.878 172.738 133.538 172.118 132.884L171.231 133.782ZM30.3457 171.574C31.3834 171.483 32.3965 170.928 32.9348 170.092L33.0242 171.114L34.3812 170.995L33.9091 165.599C33.754 163.827 32.4359 162.736 30.3925 162.915C28.9876 163.038 27.9057 163.728 27.2871 164.747L28.3773 165.44C28.8121 164.71 29.5248 164.213 30.4507 164.132C31.6002 164.032 32.4543 164.6 32.5521 165.718L32.6009 166.277L29.926 166.961C28.243 167.398 27.3924 168.341 27.4986 169.554C27.6187 170.927 28.7652 171.712 30.3457 171.574ZM28.8674 169.386C28.8073 168.7 29.2589 168.162 30.3437 167.874L32.6875 167.267L32.8258 168.847C32.3744 169.755 31.541 170.343 30.4714 170.437C29.5295 170.519 28.9274 170.073 28.8674 169.386ZM40.7235 169.475C38.9834 169.627 37.6368 168.394 37.4859 166.67C37.3365 164.962 38.447 163.497 40.1712 163.346C41.177 163.258 42.0331 163.666 42.5895 164.325L43.5879 163.417C42.7509 162.493 41.5123 161.942 40.0595 162.069C37.3934 162.302 35.8597 164.447 36.0651 166.794C36.2704 169.141 38.1532 170.987 40.8193 170.754C42.2881 170.625 43.3976 169.885 44.06 168.813L42.9191 168.093C42.4856 168.838 41.7133 169.389 40.7235 169.475ZM49.3451 168.721C47.605 168.873 46.2584 167.64 46.1075 165.916C45.9581 164.207 47.0686 162.743 48.7928 162.592C49.7986 162.504 50.6547 162.912 51.2111 163.571L52.2095 162.663C51.3725 161.739 50.1339 161.188 48.6811 161.315C46.015 161.548 44.4813 163.693 44.6866 166.04C44.892 168.387 46.7748 170.233 49.4409 170C50.9096 169.871 52.0192 169.13 52.6816 168.059L51.5407 167.338C51.1072 168.084 50.3349 168.634 49.3451 168.721ZM61.383 167.298L60.3087 166.604C59.8448 167.368 59.0086 167.924 57.9709 168.015C56.2467 168.165 54.9155 167.108 54.6986 165.18L60.8769 164.639C60.9052 164.412 60.9266 164.104 60.8987 163.785C60.7255 161.805 59.1705 160.397 56.9834 160.588C54.4929 160.806 53.0945 162.843 53.3082 165.286C53.5135 167.632 55.3644 169.481 58.0784 169.244C59.5791 169.113 60.7206 168.369 61.383 167.298ZM57.052 161.741C58.4729 161.616 59.3737 162.535 59.5249 163.712L54.7036 164.134C54.8694 162.72 55.7269 161.857 57.052 161.741ZM63.9667 172.364L65.3237 172.246L64.8963 167.36C65.6859 168.112 66.6683 168.492 67.8657 168.388C70.3881 168.167 71.826 166.03 71.6207 163.683C71.4153 161.337 69.6283 159.482 67.1059 159.703C65.9085 159.808 65.0071 160.353 64.3599 161.23L64.2761 160.272L62.9191 160.391L63.9667 172.364ZM67.058 160.994C68.7662 160.844 70.0503 162.099 70.1998 163.808C70.3492 165.516 69.3025 166.975 67.5943 167.124C66.4927 167.221 65.4728 166.779 64.765 165.86L64.4912 162.731C65.0141 161.72 65.9404 161.092 67.058 160.994ZM74.2645 164.787C74.4363 166.751 75.5203 167.557 77.3083 167.401C77.8831 167.35 78.3085 167.249 78.6777 167.056L78.5716 165.842C78.2794 165.996 77.9178 166.092 77.391 166.139C76.4171 166.224 75.7478 165.928 75.6375 164.667L75.2771 160.548L78.0709 160.304L77.9634 159.075L75.1696 159.319L74.9936 157.307L73.6206 157.428L73.7966 159.439L72.2799 159.572L72.3875 160.801L73.9041 160.668L74.2645 164.787ZM83.8569 157.272L85.4929 154.458L83.9603 154.593L82.5318 157.388L83.8569 157.272ZM87.6219 165.002L86.5477 164.308C86.0837 165.072 85.2475 165.628 84.2098 165.719C82.4856 165.87 81.1544 164.812 80.9375 162.884L87.1158 162.344C87.1442 162.116 87.1655 161.809 87.1376 161.489C86.9644 159.51 85.4094 158.101 83.2223 158.293C80.7318 158.511 79.3334 160.547 79.5471 162.99C79.7525 165.337 81.6034 167.186 84.3174 166.948C85.818 166.817 86.9595 166.074 87.6219 165.002ZM83.2909 159.445C84.7118 159.321 85.6126 160.239 85.7638 161.416L80.9425 161.838C81.1083 160.424 81.9658 159.561 83.2909 159.445ZM88.8412 165.121C89.6552 165.966 90.7056 166.389 91.9828 166.278C93.4835 166.146 94.5984 165.1 94.4831 163.598C94.2429 160.852 90.2541 161.78 90.0962 159.976C90.0418 159.353 90.4601 158.802 91.3222 158.726C92.0246 158.665 92.6648 158.995 93.1489 159.564L94.021 158.683C93.3938 157.95 92.3565 157.494 91.207 157.594C89.6584 157.73 88.6796 158.861 88.7899 160.122C89.0386 162.964 93.0058 161.973 93.1636 163.777C93.2251 164.48 92.7617 165.067 91.8677 165.146C91.0535 165.217 90.348 164.876 89.7278 164.223L88.8412 165.121Z"
                fill="#161616" />
            <rect x="218.417" y="87.5303" width="50.0804" height="30.0482" rx="15"
                transform="rotate(-5 218.417 87.5303)" fill="#34C759" />
            <g filter="url(#filter1_dd_3552_10577)">
                <path fill-rule="evenodd" clip-rule="evenodd"
                    d="M255.872 113.411C263.586 112.736 269.293 105.935 268.619 98.2197C267.944 90.5047 261.142 84.7977 253.427 85.4727C245.712 86.1476 240.005 92.949 240.68 100.664C241.355 108.379 248.157 114.086 255.872 113.411Z"
                    fill="white" />
            </g>
            <path
                d="M287.884 91.9896C284.388 92.2955 282.247 95.2176 282.526 98.4106C282.805 101.604 285.422 104.109 288.918 103.804C292.398 103.499 294.539 100.577 294.26 97.384C293.981 94.191 291.365 91.6851 287.884 91.9896ZM288.795 102.399C286.273 102.619 284.293 100.766 284.075 98.2751C283.857 95.7846 285.485 93.6152 288.007 93.3945C290.514 93.1752 292.494 95.029 292.712 97.5195C292.929 100.01 291.301 102.179 288.795 102.399ZM302.301 98.8362C302.439 100.417 301.656 101.402 300.315 101.519C298.942 101.64 298.017 100.804 297.878 99.2231L297.476 94.6252L296.119 94.744L296.517 99.2939C296.728 101.705 298.24 102.988 300.411 102.798C302.598 102.607 303.864 101.08 303.653 98.6696L303.255 94.1196L301.898 94.2383L302.301 98.8362ZM306.433 91.7342C306.96 91.6881 307.337 91.2207 307.291 90.6939C307.247 90.183 306.794 89.7883 306.267 89.8344C305.74 89.8805 305.347 90.3492 305.391 90.8601C305.438 91.387 305.906 91.7803 306.433 91.7342ZM306.634 101.932L307.991 101.813L307.287 93.7669L305.93 93.8856L306.634 101.932Z"
                fill="#161616" />
        </g>
    </g>
    <defs>
        <filter id="filter0_d_3552_10577" x="-25.0402" y="2.6714" width="390.626" height="230.378"
            filterUnits="userSpaceOnUse" color-interpolation-filters="sRGB">
            <feFlood flood-opacity="0" result="BackgroundImageFix" />
            <feColorMatrix in="SourceAlpha" type="matrix"
                values="0 0 0 0 0 0 0 0 0 0 0 0 0 0 0 0 0 0 127 0" result="hardAlpha" />
            <feOffset dy="6" />
            <feGaussianBlur stdDeviation="12.5" />
            <feComposite in2="hardAlpha" operator="out" />
            <feColorMatrix type="matrix"
                values="0 0 0 0 0.196078 0 0 0 0 0.196078 0 0 0 0 0.196078 0 0 0 0.1 0" />
            <feBlend mode="normal" in2="BackgroundImageFix"
                result="effect1_dropShadow_3552_10577" />
            <feBlend mode="normal" in="SourceGraphic" in2="effect1_dropShadow_3552_10577"
                result="shape" />
        </filter>
        <filter id="filter1_dd_3552_10577" x="238.623" y="84.4169" width="32.0534" height="32.0532"
            filterUnits="userSpaceOnUse" color-interpolation-filters="sRGB">
            <feFlood flood-opacity="0" result="BackgroundImageFix" />
            <feColorMatrix in="SourceAlpha" type="matrix"
                values="0 0 0 0 0 0 0 0 0 0 0 0 0 0 0 0 0 0 127 0" result="hardAlpha" />
            <feOffset dy="1" />
            <feGaussianBlur stdDeviation="1" />
            <feColorMatrix type="matrix" values="0 0 0 0 0 0 0 0 0 0 0 0 0 0 0 0 0 0 0.2 0" />
            <feBlend mode="normal" in2="BackgroundImageFix"
                result="effect1_dropShadow_3552_10577" />
            <feColorMatrix in="SourceAlpha" type="matrix"
                values="0 0 0 0 0 0 0 0 0 0 0 0 0 0 0 0 0 0 127 0" result="hardAlpha" />
            <feOffset dy="0.1" />
            <feGaussianBlur stdDeviation="0.15" />
            <feColorMatrix type="matrix" values="0 0 0 0 0 0 0 0 0 0 0 0 0 0 0 0 0 0 0.1 0" />
            <feBlend mode="normal" in2="effect1_dropShadow_3552_10577"
                result="effect2_dropShadow_3552_10577" />
            <feBlend mode="normal" in="SourceGraphic" in2="effect2_dropShadow_3552_10577"
                result="shape" />
        </filter>
        <clipPath id="clip0_3552_10577">
            <rect y="50.3349" width="328.527" height="152.244" rx="16"
                transform="rotate(-5 0 50.3349)" fill="white" />
        </clipPath>
    </defs>
</svg>
