<svg width="370" height="349" viewBox="0 0 370 349" fill="none" xmlns="http://www.w3.org/2000/svg">
    <rect x="18.738" y="28.979" width="326.282" height="294.636" rx="11.5"
        transform="rotate(-5 18.738 28.979)" fill="#F1F1F1" stroke="#878787"
        stroke-dasharray="5 5" />
    <g filter="url(#filter0_d_3846_11447)">
        <rect y="50.2976" width="328.283" height="299.184" rx="16" transform="rotate(-5 0 50.2976)"
            fill="white" />
    </g>
    <path
        d="M122.526 86.3311L125.01 86.1137L124.577 81.1629L125.854 81.0512L129.558 85.7158L132.48 85.4602L128.174 80.3722C129.383 79.6847 130.004 78.5198 129.874 77.0328C129.675 74.7586 127.892 73.522 125.198 73.7577L121.454 74.0852L122.526 86.3311ZM125.519 75.8097C126.568 75.7179 127.236 76.2941 127.317 77.2213C127.404 78.2185 126.845 78.8843 125.796 78.9762L124.396 79.0986L124.119 75.9322L125.519 75.8097ZM141.714 83.2069L140.012 82.0866C139.594 82.7577 138.791 83.251 137.829 83.3352C136.447 83.4561 135.374 82.8801 135.02 81.254L141.196 80.7137C141.24 80.4102 141.27 79.9492 141.227 79.4594C141.025 77.1502 139.27 75.6291 136.821 75.8433C133.935 76.0959 132.478 78.3915 132.706 80.9981C132.931 83.5698 134.89 85.6019 138.021 85.328C139.683 85.1826 140.988 84.3809 141.714 83.2069ZM136.928 77.6673C138.17 77.5586 138.895 78.3942 139.008 79.2833L134.95 79.6384C135.094 78.4624 135.791 77.7668 136.928 77.6673ZM147.865 82.3514C146.378 82.4815 145.214 81.4727 145.078 79.9157C144.943 78.3763 145.913 77.1633 147.365 77.0362C148.274 76.9567 149.009 77.2978 149.483 77.8734L151.098 76.3923C150.181 75.3796 148.825 74.7931 147.216 74.9339C144.172 75.2002 142.544 77.5461 142.769 80.1178C142.994 82.6894 145.005 84.717 148.049 84.4507C149.658 84.3099 150.891 83.4969 151.619 82.3403L149.771 81.1623C149.404 81.8113 148.74 82.2749 147.865 82.3514ZM153.403 83.6297L155.625 83.4353L155.121 77.6798C155.404 77.0909 155.933 76.2866 157.053 76.1886C158.155 76.0922 158.867 76.7703 158.969 77.9424L159.421 83.1032L161.66 82.9073L161.201 77.6591C160.973 75.0524 159.336 73.8735 157.429 74.0404C156.257 74.1429 155.475 74.6697 154.914 75.3181L154.477 70.3147L152.255 70.5091L153.403 83.6297ZM172.175 80.5419L170.472 79.4216C170.055 80.0927 169.252 80.586 168.29 80.6702C166.908 80.7911 165.835 80.2151 165.481 78.589L171.657 78.0487C171.701 77.7452 171.731 77.2843 171.688 76.7944C171.486 74.4852 169.731 72.9641 167.282 73.1783C164.395 73.4309 162.939 75.7265 163.167 78.3332C163.392 80.9048 165.351 82.937 168.482 82.663C170.144 82.5176 171.449 81.7159 172.175 80.5419ZM167.389 75.0023C168.631 74.8937 169.356 75.7292 169.469 76.6184L165.411 76.9734C165.554 75.7974 166.252 75.1018 167.389 75.0023ZM174.314 81.8002L176.535 81.6059L176.041 75.9553C176.324 75.3664 176.972 74.7103 178.057 74.6155C178.459 74.5802 178.761 74.6067 179.047 74.6522L178.856 72.4654C178.64 72.4138 178.373 72.3843 178.075 72.4103C177.078 72.4976 176.366 73.0182 175.841 73.6635L175.764 72.7888L173.542 72.9832L174.314 81.8002ZM185.125 79.0915C183.638 79.2216 182.475 78.2129 182.339 76.6559C182.204 75.1164 183.173 73.9034 184.625 73.7764C185.535 73.6968 186.27 74.0379 186.743 74.6135L188.359 73.1324C187.442 72.1197 186.086 71.5332 184.476 71.674C181.432 71.9403 179.804 74.2863 180.029 76.8579C180.254 79.4295 182.265 81.4571 185.309 81.1908C186.918 81.05 188.152 80.237 188.879 79.0804L187.031 77.9024C186.665 78.5514 186 79.015 185.125 79.0915ZM190.663 80.3698L192.885 80.1755L192.381 74.4199C192.665 73.831 193.194 73.0267 194.313 72.9288C195.416 72.8323 196.127 73.5105 196.23 74.6826L196.681 79.8433L198.92 79.6474L198.461 74.3992C198.233 71.7926 196.596 70.6137 194.69 70.7805C193.517 70.883 192.735 71.4098 192.175 72.0582L191.737 67.0549L189.515 67.2493L190.663 80.3698ZM209.435 77.282L207.733 76.1617C207.316 76.8328 206.513 77.3262 205.55 77.4103C204.168 77.5312 203.096 76.9552 202.742 75.3292L208.917 74.7889C208.961 74.4854 208.991 74.0244 208.948 73.5346C208.746 71.2253 206.992 69.7042 204.542 69.9185C201.656 70.171 200.2 72.4667 200.428 75.0733C200.653 77.6449 202.611 79.6771 205.742 79.4031C207.404 79.2577 208.709 78.4561 209.435 77.282ZM204.649 71.7425C205.891 71.6338 206.617 72.4694 206.73 73.3585L202.671 73.7136C202.815 72.5375 203.512 71.8419 204.649 71.7425Z"
        fill="#3B69D1" />
    <path
        d="M35.617 120.649C32.5233 120.92 30.6176 123.484 30.8626 126.284C31.1075 129.084 33.4296 131.279 36.5233 131.008C39.6031 130.739 41.5087 128.174 41.2638 125.374C41.0188 122.575 38.6968 120.38 35.617 120.649ZM36.3604 129.146C34.5126 129.308 33.0705 127.981 32.9064 126.105C32.7423 124.23 33.9321 122.673 35.7799 122.511C37.6138 122.35 39.0558 123.677 39.2199 125.553C39.384 127.429 38.1943 128.986 36.3604 129.146ZM41.9839 123.139L42.1235 124.735L43.4394 124.62L43.9171 130.079L45.7089 129.923L45.2313 124.463L47.3871 124.274L47.2475 122.678L45.0916 122.867L45.0231 122.083C44.9667 121.439 45.3219 120.985 45.9239 120.932C46.2879 120.9 46.5789 121.002 46.8023 121.138L47.4284 119.587C46.9597 119.389 46.4002 119.282 45.7563 119.339C43.9924 119.493 43.1038 120.784 43.2349 122.282L43.2998 123.024L41.9839 123.139ZM47.9444 122.617L48.084 124.213L49.3999 124.098L49.8775 129.558L51.6694 129.401L51.1917 123.941L53.3476 123.753L53.208 122.157L51.0521 122.346L50.9835 121.562C50.9272 120.918 51.2824 120.463 51.8844 120.411C52.2483 120.379 52.5393 120.48 52.7628 120.616L53.3889 119.066C52.9201 118.867 52.3607 118.761 51.7168 118.817C49.9529 118.972 49.0643 120.263 49.1953 121.76L49.2603 122.502L47.9444 122.617ZM54.9526 129.114L56.7304 128.958L56.3348 124.437C56.5616 123.965 57.0799 123.44 57.9479 123.364C58.2699 123.336 58.5115 123.357 58.7404 123.394L58.5873 121.644C58.4144 121.603 58.2008 121.579 57.9628 121.6C57.1648 121.67 56.5947 122.086 56.1744 122.603L56.1132 121.903L54.3353 122.058L54.9526 129.114ZM66.7339 126.926L65.3719 126.03C65.038 126.567 64.3954 126.962 63.6255 127.029C62.5196 127.126 61.6611 126.665 61.378 125.364L66.3196 124.931C66.3548 124.688 66.3789 124.32 66.3446 123.928C66.183 122.08 64.7787 120.863 62.8189 121.034C60.509 121.236 59.3438 123.073 59.5263 125.159C59.7063 127.217 61.2733 128.843 63.7791 128.624C65.109 128.507 66.1532 127.866 66.7339 126.926ZM62.9042 122.494C63.8982 122.407 64.4786 123.075 64.569 123.787L61.3213 124.071C61.4365 123.13 61.9943 122.573 62.9042 122.494ZM67.6446 126.974C68.3864 127.713 69.3264 128.138 70.5863 128.028C71.9162 127.912 73.0351 126.996 72.9332 125.509C72.7201 123.074 69.3831 123.789 69.2778 122.585C69.246 122.221 69.485 121.89 70.045 121.841C70.5909 121.793 71.0847 122.116 71.4879 122.533L72.5732 121.394C72.0092 120.752 70.9839 120.32 69.906 120.414C68.4361 120.543 67.4683 121.572 67.5773 122.818C67.7941 125.296 71.1274 124.539 71.2352 125.771C71.2719 126.191 71.0073 126.552 70.4334 126.603C69.7614 126.661 69.2092 126.315 68.7274 125.807L67.6446 126.974Z"
        fill="#646464" />
    <path
        d="M87.9824 115.186L89.6369 113.137L87.5931 113.315L86.1765 115.344L87.9824 115.186ZM85.1755 126.152L90.887 125.652L90.7425 124L87.0188 124.326L86.7984 121.806L89.9621 121.53L89.8176 119.878L86.6538 120.154L86.4505 117.831L90.1742 117.505L90.0297 115.853L84.3182 116.353L85.1755 126.152ZM91.1287 118.522L94.3078 125.353L96.6456 125.148L98.6042 117.868L96.6863 118.035L95.3074 123.234L93.0326 118.355L91.1287 118.522ZM101.798 116.46L103.492 116.312L101.846 114.114L99.9146 114.283L101.798 116.46ZM106.654 123.116L105.292 122.22C104.958 122.757 104.316 123.151 103.546 123.219C102.44 123.316 101.581 122.855 101.298 121.553L106.24 121.121C106.275 120.878 106.299 120.509 106.265 120.117C106.103 118.269 104.699 117.052 102.739 117.224C100.429 117.426 99.2641 119.263 99.4466 121.349C99.6267 123.406 101.194 125.033 103.699 124.813C105.029 124.697 106.073 124.056 106.654 123.116ZM102.825 118.683C103.819 118.596 104.399 119.265 104.489 119.976L101.242 120.261C101.357 119.32 101.915 118.763 102.825 118.683ZM108.366 124.123L110.144 123.967L109.741 119.362C109.968 118.891 110.391 118.247 111.287 118.169C112.155 118.093 112.738 118.634 112.82 119.572L113.182 123.702L114.973 123.545L114.606 119.345C114.424 117.259 113.114 116.316 111.588 116.45C110.65 116.532 110.024 116.953 109.576 117.472L109.527 116.912L107.749 117.068L108.366 124.123ZM123.387 121.652L122.025 120.756C121.691 121.293 121.049 121.687 120.279 121.755C119.173 121.852 118.315 121.391 118.031 120.089L122.973 119.657C123.008 119.414 123.032 119.045 122.998 118.653C122.836 116.806 121.432 115.588 119.472 115.76C117.162 115.962 115.997 117.799 116.18 119.885C116.36 121.943 117.927 123.569 120.433 123.349C121.762 123.233 122.807 122.592 123.387 121.652ZM119.558 117.219C120.552 117.132 121.132 117.801 121.222 118.512L117.975 118.797C118.09 117.856 118.648 117.299 119.558 117.219ZM125.099 122.659L126.877 122.504L126.474 117.898C126.701 117.427 127.068 116.788 127.88 116.717C128.678 116.647 129.186 117.139 129.261 117.993L129.635 122.262L131.427 122.105L131.047 117.766C131.037 117.654 131.029 117.556 131.006 117.459C131.244 116.959 131.618 116.39 132.388 116.323C133.186 116.253 133.694 116.744 133.769 117.598L134.142 121.868L135.934 121.711L135.555 117.371C135.381 115.384 134.145 114.476 132.689 114.603C131.499 114.708 130.873 115.298 130.423 115.958C129.895 115.243 129.077 114.919 128.181 114.998C127.313 115.074 126.742 115.476 126.306 115.98L126.26 115.448L124.482 115.604L125.099 122.659ZM144.358 119.817L142.996 118.921C142.662 119.458 142.02 119.853 141.25 119.92C140.144 120.017 139.286 119.556 139.002 118.255L143.944 117.822C143.979 117.579 144.003 117.211 143.969 116.819C143.807 114.971 142.403 113.754 140.443 113.925C138.133 114.127 136.968 115.964 137.151 118.05C137.331 120.108 138.898 121.734 141.404 121.515C142.733 121.398 143.778 120.757 144.358 119.817ZM140.529 115.385C141.523 115.298 142.103 115.966 142.193 116.678L138.946 116.962C139.061 116.021 139.619 115.464 140.529 115.385ZM146.07 120.824L147.848 120.669L147.445 116.063C147.672 115.592 148.095 114.948 148.991 114.87C149.859 114.794 150.442 115.335 150.524 116.273L150.886 120.403L152.678 120.246L152.31 116.047C152.128 113.961 150.818 113.017 149.292 113.151C148.354 113.233 147.728 113.654 147.28 114.173L147.231 113.613L145.453 113.769L146.07 120.824ZM154.919 117.455C155.07 119.176 155.997 120.097 157.76 119.943C158.348 119.891 158.762 119.784 159.099 119.6L158.963 118.046C158.733 118.165 158.416 118.249 157.926 118.292C157.226 118.353 156.779 118.082 156.711 117.298L156.459 114.414L158.614 114.225L158.475 112.63L156.319 112.818L156.165 111.054L154.373 111.211L154.527 112.975L153.211 113.09L153.351 114.686L154.667 114.571L154.919 117.455ZM159.979 118.578C160.721 119.317 161.661 119.742 162.921 119.632C164.25 119.516 165.369 118.6 165.267 117.113C165.054 114.678 161.717 115.393 161.612 114.189C161.58 113.825 161.819 113.494 162.379 113.445C162.925 113.397 163.419 113.72 163.822 114.137L164.907 112.998C164.343 112.356 163.318 111.924 162.24 112.018C160.77 112.147 159.803 113.176 159.912 114.422C160.128 116.9 163.462 116.143 163.569 117.375C163.606 117.795 163.342 118.157 162.768 118.207C162.096 118.266 161.543 117.919 161.062 117.411L159.979 118.578Z"
        fill="#3B69D1" />
    <rect x="28.7206" y="145.079" width="287.196" height="1.3072"
        transform="rotate(-5 28.7206 145.079)" fill="#B3B3B3" />
    <rect x="85.2542" y="137.467" width="84.3864" height="3.5131"
        transform="rotate(-5 85.2542 137.467)" fill="#3B69D1" />
    <path
        d="M180.259 117.144L183.352 116.874C185.606 116.676 186.896 115.463 186.74 113.671C186.65 112.649 186.003 111.86 184.927 111.488C185.573 110.98 185.877 110.263 185.807 109.465C185.663 107.813 184.329 106.914 182.285 107.093L179.401 107.345L180.259 117.144ZM182.472 108.741C183.227 108.675 183.711 109.042 183.771 109.728C183.833 110.441 183.421 110.887 182.665 110.953L181.727 111.035L181.534 108.823L182.472 108.741ZM183.09 112.58C184.013 112.499 184.615 112.926 184.689 113.766C184.761 114.592 184.244 115.131 183.32 115.212L182.102 115.318L181.872 112.687L183.09 112.58ZM191.567 108.763C189.271 108.964 187.851 110.795 188.036 112.909C188.221 115.023 189.937 116.58 192.233 116.379C194.529 116.178 195.948 114.347 195.763 112.233C195.578 110.119 193.862 108.562 191.567 108.763ZM192.114 114.696C190.938 114.799 189.992 113.979 189.884 112.747C189.776 111.516 190.566 110.544 191.742 110.441C192.875 110.342 193.808 111.163 193.916 112.395C194.022 113.613 193.248 114.597 192.114 114.696ZM197.865 107.253C198.494 107.198 198.966 106.621 198.911 105.991C198.856 105.361 198.291 104.874 197.661 104.929C197.031 104.984 196.546 105.563 196.601 106.193C196.656 106.823 197.235 107.308 197.865 107.253ZM197.694 115.619L199.471 115.463L198.854 108.408L197.076 108.563L197.694 115.619ZM201.826 112.662C201.977 114.384 202.904 115.304 204.667 115.15C205.255 115.098 205.669 114.992 206.006 114.807L205.87 113.253C205.64 113.372 205.323 113.456 204.833 113.499C204.133 113.56 203.687 113.289 203.618 112.505L203.366 109.621L205.521 109.433L205.382 107.837L203.226 108.025L203.072 106.262L201.28 106.418L201.434 108.182L200.118 108.297L200.258 109.893L201.574 109.778L201.826 112.662ZM213.85 113.049L212.488 112.152C212.154 112.689 211.511 113.084 210.741 113.151C209.635 113.248 208.777 112.787 208.494 111.486L213.435 111.054C213.47 110.811 213.495 110.442 213.46 110.05C213.299 108.202 211.894 106.985 209.935 107.156C207.625 107.358 206.46 109.195 206.642 111.281C206.822 113.339 208.389 114.965 210.895 114.746C212.225 114.63 213.269 113.988 213.85 113.049ZM210.02 108.616C211.014 108.529 211.594 109.198 211.685 109.909L208.437 110.193C208.552 109.252 209.11 108.696 210.02 108.616ZM220.565 105.38L222.259 105.232L220.614 103.034L218.682 103.203L220.565 105.38ZM221.341 113.762C222.167 113.689 222.976 113.266 223.376 112.681L223.436 113.367L225.214 113.211L224.815 108.648C224.679 107.094 223.522 105.968 221.479 106.146C220.191 106.259 219.201 106.882 218.647 107.805L220.036 108.685C220.369 108.134 220.873 107.765 221.558 107.705C222.37 107.634 222.972 108.061 223.037 108.803L223.053 108.985L220.929 109.538C219.439 109.922 218.683 110.792 218.776 111.856C218.89 113.158 219.927 113.885 221.341 113.762ZM220.533 111.618C220.495 111.184 220.776 110.849 221.506 110.658L223.162 110.231L223.249 111.225C222.948 111.815 222.393 112.245 221.581 112.316C220.979 112.369 220.574 112.094 220.533 111.618ZM233.741 105.074C231.445 105.274 230.026 107.105 230.21 109.219C230.395 111.333 232.111 112.89 234.407 112.689C236.703 112.488 238.123 110.657 237.938 108.543C237.753 106.429 236.037 104.873 233.741 105.074ZM234.288 111.007C233.112 111.11 232.166 110.29 232.058 109.058C231.951 107.826 232.74 106.854 233.916 106.751C235.05 106.652 235.982 107.473 236.09 108.705C236.197 109.923 235.422 110.907 234.288 111.007ZM244.249 108.471C244.338 109.493 243.861 110.169 242.895 110.254C241.915 110.339 241.328 109.756 241.239 108.734L240.889 104.73L239.097 104.887L239.44 108.807C239.625 110.921 240.957 112.116 243.028 111.935C245.1 111.753 246.218 110.344 246.033 108.23L245.69 104.31L243.898 104.467L244.249 108.471ZM248.608 108.569C248.758 110.291 249.685 111.211 251.449 111.057C252.037 111.006 252.451 110.899 252.787 110.714L252.651 109.16C252.422 109.279 252.105 109.363 251.615 109.406C250.915 109.467 250.468 109.196 250.399 108.412L250.147 105.528L252.303 105.34L252.163 103.744L250.008 103.933L249.853 102.169L248.061 102.325L248.216 104.089L246.9 104.204L247.039 105.8L248.355 105.685L248.608 108.569ZM254.544 102.294C255.174 102.239 255.645 101.662 255.59 101.032C255.535 100.402 254.97 99.9154 254.34 99.9705C253.71 100.026 253.225 100.604 253.28 101.234C253.335 101.864 253.914 102.349 254.544 102.294ZM254.373 110.66L256.151 110.505L255.533 103.449L253.756 103.605L254.373 110.66ZM258.283 110.318L260.061 110.162L259.142 99.6633L257.364 99.8188L258.283 110.318Z"
        fill="#646464" />
    <g filter="url(#filter1_d_3846_11447)">
        <rect x="30.2067" y="168.105" width="286.63" height="153.761" rx="13.359"
            transform="rotate(-5 30.2067 168.105)" fill="white" shape-rendering="crispEdges" />
        <rect x="52.0449" y="265.433" width="221.977" height="12.6316" rx="6.31037"
            transform="rotate(-5 52.0449 265.433)" fill="#F1F1F1" />
        <rect x="51.0441" y="246.345" width="162.296" height="12.6316" rx="6.31037"
            transform="rotate(-5 51.0441 246.345)" fill="#F1F1F1" />
    </g>
    <rect x="45.1442" y="180.639" width="162.043" height="26.8685" rx="13.4223"
        transform="rotate(-5 45.1442 180.639)" fill="#DDFFED" />
    <path
        d="M62.3057 189.826C62.611 189.8 62.8826 190.028 62.9093 190.333L63.1035 192.553C63.1302 192.858 62.9023 193.13 62.5971 193.156C62.2918 193.183 62.0202 192.955 61.9935 192.65L61.7993 190.43C61.7726 190.125 62.0005 189.853 62.3057 189.826ZM62.0574 187.052C58.9939 187.32 56.7307 190.023 56.9987 193.087C57.2667 196.15 59.965 198.42 63.0285 198.152C66.0976 197.883 68.3664 195.179 68.0984 192.116C67.8303 189.052 65.1265 186.784 62.0574 187.052ZM62.937 197.041C60.4839 197.256 58.3233 195.443 58.1086 192.99C57.894 190.537 59.7071 188.376 62.1601 188.162C64.6131 187.947 66.7738 189.76 66.9884 192.213C67.203 194.666 65.39 196.827 62.937 197.041ZM63.3463 195.328L62.2363 195.425L62.1392 194.315L63.2492 194.218L63.3463 195.328Z"
        fill="#4A526D" />
    <path
        d="M74.6911 196.06L75.7866 195.964L75.0728 187.806L73.9773 187.902L74.6911 196.06ZM78.1339 195.759L79.1246 195.672L78.7687 191.605C79.0876 190.955 79.5809 190.418 80.4317 190.344C81.3408 190.264 81.9882 190.818 82.0799 191.867L82.3879 195.387L83.3785 195.3L83.0675 191.745C82.9217 190.079 81.8652 189.279 80.5483 189.394C79.6742 189.47 79.1007 189.896 78.6688 190.463L78.6107 189.798L77.62 189.885L78.1339 195.759ZM84.0895 189.319L84.168 190.216L85.2752 190.12L85.7105 195.096L86.7129 195.008L86.2775 190.032L88.317 189.853L88.2385 188.956L86.1989 189.134L86.1337 188.389C86.0664 187.619 86.4695 187.126 87.1338 187.068C87.4718 187.038 87.749 187.12 87.9848 187.264L88.3552 186.397C88.0126 186.239 87.5681 186.126 87.032 186.173C85.75 186.285 85.0243 187.253 85.1334 188.5L85.1966 189.222L84.0895 189.319ZM91.7755 188.412C89.8758 188.578 88.7213 190.147 88.8711 191.86C89.021 193.573 90.4305 194.918 92.3302 194.752C94.2183 194.587 95.3845 193.017 95.2346 191.303C95.0847 189.59 93.6636 188.247 91.7755 188.412ZM92.2603 193.818C91.0016 193.929 90.0155 192.993 89.9084 191.769C89.8013 190.546 90.61 189.453 91.8688 189.343C93.0925 189.236 94.0786 190.171 94.1857 191.395C94.2917 192.607 93.484 193.711 92.2603 193.818ZM97.0841 194.101L98.0748 194.014L97.722 189.982C98.0313 189.356 98.4978 188.916 99.267 188.848C99.5001 188.828 99.6769 188.836 99.8558 188.867L99.7712 187.9C99.6273 187.866 99.4504 187.858 99.2639 187.874C98.518 187.939 98.0115 188.324 97.6251 188.875L97.5609 188.14L96.5702 188.227L97.0841 194.101ZM101.716 193.696L102.707 193.609L102.351 189.542C102.636 188.906 103.093 188.361 103.898 188.291C104.748 188.216 105.333 188.729 105.419 189.708L105.737 193.344L106.728 193.257L106.407 189.586C106.394 189.446 106.372 189.319 106.349 189.192C106.673 188.471 107.161 188.005 107.907 187.94C108.746 187.866 109.343 188.378 109.428 189.357L109.746 192.993L110.737 192.907L110.416 189.235C110.276 187.639 109.282 186.88 108.023 186.99C107.009 187.079 106.435 187.622 106.024 188.304C105.598 187.59 104.865 187.267 104.014 187.341C103.198 187.412 102.647 187.825 102.249 188.376L102.193 187.735L101.203 187.822L101.716 193.696ZM114.345 192.755C115.102 192.689 115.842 192.284 116.235 191.674L116.3 192.42L117.291 192.333L116.946 188.394C116.833 187.1 115.871 186.304 114.379 186.434C113.353 186.524 112.563 187.028 112.112 187.772L112.908 188.277C113.225 187.745 113.745 187.382 114.421 187.323C115.261 187.25 115.884 187.665 115.955 188.481L115.991 188.889L114.038 189.388C112.81 189.707 112.189 190.396 112.266 191.281C112.354 192.284 113.191 192.856 114.345 192.755ZM113.265 191.159C113.222 190.658 113.551 190.265 114.343 190.054L116.054 189.611L116.155 190.765C115.826 191.428 115.217 191.857 114.436 191.925C113.749 191.985 113.309 191.66 113.265 191.159ZM119.444 190.16C119.569 191.594 120.361 192.182 121.666 192.068C122.085 192.031 122.396 191.957 122.666 191.816L122.588 190.93C122.375 191.043 122.111 191.113 121.726 191.147C121.015 191.209 120.527 190.993 120.446 190.072L120.183 187.066L122.223 186.887L122.144 185.99L120.104 186.168L119.976 184.7L118.974 184.787L119.102 186.256L117.995 186.353L118.073 187.25L119.181 187.153L119.444 190.16ZM124.026 184.287C124.41 184.253 124.686 183.912 124.652 183.527C124.62 183.154 124.289 182.866 123.904 182.9C123.52 182.933 123.233 183.276 123.265 183.649C123.299 184.033 123.641 184.32 124.026 184.287ZM124.172 191.731L125.163 191.644L124.649 185.771L123.658 185.857L124.172 191.731ZM129.403 185.12C127.503 185.286 126.349 186.855 126.498 188.568C126.648 190.281 128.058 191.626 129.957 191.46C131.846 191.295 133.012 189.725 132.862 188.011C132.712 186.298 131.291 184.955 129.403 185.12ZM129.888 190.526C128.629 190.637 127.643 189.701 127.536 188.477C127.429 187.254 128.237 186.161 129.496 186.051C130.72 185.944 131.706 186.879 131.813 188.103C131.919 189.315 131.111 190.419 129.888 190.526ZM134.711 190.809L135.702 190.722L135.346 186.655C135.665 186.005 136.158 185.468 137.009 185.394C137.918 185.314 138.566 185.868 138.657 186.917L138.965 190.437L139.956 190.35L139.645 186.796C139.499 185.129 138.443 184.329 137.126 184.444C136.252 184.521 135.678 184.947 135.246 185.513L135.188 184.848L134.198 184.935L134.711 190.809ZM147.734 188.965C146.464 189.076 145.481 188.176 145.371 186.917C145.261 185.67 146.072 184.601 147.331 184.491C148.065 184.427 148.69 184.724 149.096 185.205L149.825 184.543C149.214 183.868 148.31 183.466 147.249 183.558C145.303 183.729 144.183 185.295 144.333 187.008C144.483 188.721 145.858 190.069 147.804 189.899C148.876 189.805 149.686 189.264 150.17 188.482L149.337 187.956C149.02 188.5 148.457 188.902 147.734 188.965ZM153.532 183.009C151.632 183.175 150.477 184.744 150.627 186.457C150.777 188.17 152.187 189.515 154.086 189.349C155.974 189.184 157.141 187.614 156.991 185.9C156.841 184.187 155.42 182.844 153.532 183.009ZM154.016 188.415C152.758 188.526 151.772 187.59 151.664 186.366C151.557 185.143 152.366 184.05 153.625 183.94C154.849 183.833 155.835 184.768 155.942 185.992C156.048 187.204 155.24 188.308 154.016 188.415ZM158.84 188.698L159.831 188.611L159.066 179.87L158.075 179.957L158.84 188.698ZM161.925 188.428L162.915 188.342L162.15 179.601L161.16 179.687L161.925 188.428ZM170.146 186.734L169.361 186.227C169.023 186.786 168.412 187.191 167.655 187.258C166.396 187.368 165.424 186.595 165.266 185.188L169.776 184.794C169.797 184.627 169.812 184.403 169.792 184.17C169.666 182.725 168.531 181.697 166.934 181.836C165.116 181.995 164.095 183.482 164.251 185.265C164.401 186.979 165.752 188.328 167.733 188.155C168.829 188.059 169.662 187.516 170.146 186.734ZM166.984 182.677C168.021 182.587 168.679 183.257 168.789 184.117L165.27 184.425C165.391 183.392 166.017 182.762 166.984 182.677ZM174.401 186.632C173.131 186.743 172.148 185.843 172.037 184.584C171.928 183.337 172.739 182.268 173.998 182.158C174.732 182.093 175.357 182.391 175.763 182.872L176.492 182.21C175.881 181.535 174.977 181.133 173.916 181.225C171.97 181.396 170.85 182.962 171 184.675C171.15 186.388 172.525 187.736 174.471 187.565C175.543 187.472 176.353 186.931 176.837 186.149L176.004 185.623C175.687 186.167 175.124 186.569 174.401 186.632ZM178.423 185C178.548 186.434 179.339 187.022 180.645 186.908C181.064 186.871 181.375 186.797 181.644 186.656L181.567 185.77C181.354 185.883 181.09 185.953 180.705 185.987C179.994 186.049 179.506 185.833 179.425 184.912L179.162 181.906L181.202 181.727L181.123 180.83L179.083 181.008L178.955 179.54L177.953 179.627L178.081 181.096L176.974 181.193L177.052 182.09L178.16 181.993L178.423 185ZM183.005 179.127C183.389 179.093 183.665 178.752 183.631 178.367C183.599 177.994 183.268 177.706 182.883 177.74C182.499 177.773 182.212 178.116 182.244 178.489C182.278 178.873 182.62 179.16 183.005 179.127ZM183.151 186.571L184.142 186.484L183.628 180.611L182.637 180.697L183.151 186.571ZM184.836 180.505L187.646 186.178L188.951 186.064L190.733 179.989L189.661 180.083L188.208 185.084L185.908 180.411L184.836 180.505ZM197.507 184.34L196.723 183.834C196.384 184.392 195.773 184.797 195.016 184.864C193.757 184.974 192.785 184.202 192.627 182.794L197.137 182.4C197.158 182.234 197.174 182.009 197.153 181.776C197.027 180.331 195.892 179.303 194.295 179.442C192.477 179.601 191.456 181.088 191.612 182.871C191.762 184.585 193.113 185.934 195.094 185.761C196.19 185.665 197.023 185.123 197.507 184.34ZM194.345 180.284C195.382 180.193 196.04 180.863 196.15 181.723L192.631 182.031C192.752 180.998 193.378 180.368 194.345 180.284Z"
        fill="#4A526D" />
    <rect x="45.1442" y="180.639" width="162.043" height="26.8685" rx="13.4223"
        transform="rotate(-5 45.1442 180.639)" stroke="#4A526D" stroke-width="0.834935" />
    <g clip-path="url(#clip0_3846_11447)">
        <path
            d="M294.119 167.283L294.155 167.699L294.571 167.663L295.071 167.619C295.386 167.591 295.677 167.832 295.705 168.161L296.412 176.233C296.44 176.562 296.196 176.85 295.881 176.877L287.889 177.576C287.573 177.604 287.283 177.364 287.254 177.035L286.548 168.962C286.519 168.633 286.763 168.346 287.079 168.318L287.578 168.274L287.995 168.238L287.958 167.822L287.914 167.317C287.91 167.266 287.949 167.225 287.99 167.222C288.031 167.218 288.076 167.251 288.081 167.303L288.125 167.807L288.161 168.224L288.577 168.187L293.572 167.75L293.989 167.714L293.952 167.297L293.908 166.793C293.903 166.741 293.943 166.701 293.983 166.697C294.024 166.694 294.07 166.727 294.074 166.778L294.119 167.283ZM287.227 170.008L286.811 170.045L286.847 170.461L287.377 176.515C287.421 177.019 287.864 177.401 288.373 177.356L295.366 176.744C295.874 176.7 296.245 176.247 296.201 175.743L295.671 169.689L295.635 169.273L295.219 169.309L287.227 170.008Z"
            fill="#950EFF" stroke="#950EFF" stroke-width="0.834935" />
    </g>
    <rect x="277.403" y="160.318" width="25.9061" height="25.9061" rx="12.9415"
        transform="rotate(-5 277.403 160.318)" stroke="#950EFF" stroke-width="0.834935" />
    <path
        d="M50.2131 224.846C49.9691 222.057 52.0294 219.597 54.8169 219.353C57.611 219.108 60.0718 221.174 60.3157 223.962C60.5596 226.75 58.4948 229.211 55.7008 229.455C52.9132 229.699 50.4571 227.634 50.2131 224.846ZM50.326 224.836C50.5647 227.564 52.9681 229.581 55.6965 229.342C58.4248 229.103 60.4415 226.7 60.2028 223.972C59.9641 221.243 57.5607 219.227 54.8323 219.465C52.104 219.704 50.0873 222.107 50.326 224.836Z"
        fill="#3B69D1" stroke="#3B69D1" />
    <path
        d="M68.6079 219.367L73.1531 228.364L74.8047 228.22L77.7185 218.57L76.3865 218.686L73.8682 227.027L69.9398 219.25L68.6079 219.367ZM85.2254 226.194L84.3292 225.615C83.9421 226.253 83.2444 226.716 82.3787 226.792C80.9401 226.918 79.8295 226.035 79.6485 224.427L84.8032 223.976C84.8268 223.786 84.8447 223.53 84.8213 223.263C84.6768 221.612 83.3795 220.437 81.5547 220.596C79.4769 220.778 78.3102 222.477 78.4885 224.515C78.6598 226.473 80.2041 228.016 82.4684 227.818C83.7204 227.708 84.6728 227.088 85.2254 226.194ZM81.612 221.558C82.7975 221.454 83.549 222.22 83.6752 223.203L79.6527 223.554C79.791 222.375 80.5065 221.654 81.612 221.558ZM87.0944 227.145L88.2265 227.046L87.8198 222.397C88.1843 221.654 88.7481 221.041 89.7204 220.956C90.7593 220.865 91.4992 221.498 91.6041 222.697L91.956 226.719L93.0882 226.62L92.7328 222.558C92.5661 220.653 91.3587 219.739 89.8536 219.87C88.8546 219.958 88.1993 220.445 87.7056 221.092L87.6392 220.332L86.507 220.432L87.0944 227.145ZM94.5007 223.114C94.672 225.072 96.1629 226.62 98.2674 226.436C99.2664 226.348 100.018 225.893 100.558 225.161L100.628 225.961L101.761 225.862L100.887 215.872L99.7543 215.971L100.111 220.047C99.4521 219.42 98.6325 219.102 97.6335 219.19C95.529 219.374 94.3294 221.156 94.5007 223.114ZM95.6994 223.01C95.5748 221.584 96.4347 220.368 97.8599 220.244C98.779 220.163 99.6299 220.532 100.219 221.285L100.45 223.923C100.026 224.752 99.2398 225.277 98.3074 225.358C96.8822 225.483 95.8241 224.435 95.6994 223.01ZM104.147 225.653L105.279 225.554L104.876 220.945C105.23 220.23 105.763 219.727 106.642 219.65C106.908 219.626 107.11 219.636 107.315 219.671L107.218 218.566C107.054 218.527 106.851 218.517 106.638 218.536C105.786 218.611 105.207 219.051 104.765 219.68L104.692 218.841L103.56 218.94L104.147 225.653ZM114.908 223.597L114.012 223.018C113.625 223.656 112.927 224.12 112.062 224.195C110.623 224.321 109.512 223.439 109.331 221.83L114.486 221.379C114.51 221.189 114.528 220.933 114.504 220.666C114.36 219.015 113.063 217.84 111.238 217.999C109.16 218.181 107.993 219.88 108.171 221.918C108.343 223.876 109.887 225.419 112.151 225.221C113.403 225.111 114.356 224.491 114.908 223.597ZM111.295 218.961C112.48 218.857 113.232 219.623 113.358 220.606L109.336 220.958C109.474 219.778 110.189 219.058 111.295 218.961ZM115.885 221.244C116.056 223.202 117.547 224.749 119.652 224.565C120.651 224.477 121.403 224.022 121.943 223.291L122.013 224.09L123.145 223.991L122.271 214.001L121.139 214.1L121.495 218.176C120.836 217.549 120.017 217.231 119.018 217.319C116.913 217.503 115.714 219.286 115.885 221.244ZM117.084 221.139C116.959 219.713 117.819 218.497 119.244 218.373C120.163 218.292 121.014 218.661 121.604 219.415L121.834 222.052C121.41 222.881 120.624 223.406 119.692 223.487C118.266 223.612 117.208 222.564 117.084 221.139ZM125.364 215.274C125.804 215.235 126.119 214.845 126.08 214.406C126.043 213.98 125.665 213.65 125.225 213.689C124.786 213.727 124.458 214.118 124.495 214.545C124.533 214.984 124.925 215.312 125.364 215.274ZM125.531 223.782L126.664 223.683L126.076 216.97L124.944 217.069L125.531 223.782ZM134.604 222.988L135.79 222.884L134.974 213.561L133.775 213.665L130.86 215.625L131.547 216.424L133.895 214.876L134.604 222.988ZM140.523 222.47L141.708 222.367L140.892 213.043L139.694 213.148L136.778 215.107L137.465 215.906L139.813 214.359L140.523 222.47ZM150.148 221.816C151.014 221.74 151.86 221.277 152.309 220.58L152.383 221.433L153.515 221.334L153.121 216.832C152.992 215.353 151.892 214.443 150.188 214.592C149.015 214.694 148.113 215.27 147.597 216.12L148.506 216.698C148.869 216.09 149.464 215.675 150.236 215.608C151.195 215.524 151.908 215.998 151.989 216.931L152.03 217.397L149.798 217.968C148.394 218.332 147.685 219.119 147.773 220.131C147.873 221.277 148.83 221.931 150.148 221.816ZM148.915 219.991C148.865 219.418 149.242 218.969 150.147 218.729L152.102 218.223L152.218 219.541C151.841 220.299 151.146 220.789 150.253 220.867C149.468 220.936 148.965 220.564 148.915 219.991ZM158.24 213.887C156.068 214.077 154.749 215.87 154.92 217.828C155.092 219.786 156.702 221.323 158.873 221.133C161.031 220.944 162.364 219.15 162.193 217.192C162.021 215.234 160.397 213.699 158.24 213.887ZM158.794 220.066C157.355 220.192 156.228 219.123 156.106 217.725C155.983 216.326 156.908 215.078 158.346 214.952C159.745 214.829 160.872 215.898 160.994 217.297C161.115 218.682 160.192 219.944 158.794 220.066ZM165.318 212.463L166.316 210.684L167.595 212.264L168.608 212.175L167.029 210.085L165.497 210.219L164.292 212.553L165.318 212.463ZM168.73 217.103C168.845 218.422 168.193 219.244 167.074 219.342C165.928 219.442 165.156 218.745 165.04 217.426L164.705 213.59L163.573 213.689L163.905 217.485C164.081 219.497 165.342 220.567 167.154 220.409C168.978 220.249 170.035 218.976 169.859 216.964L169.527 213.168L168.394 213.267L168.73 217.103ZM172.586 217.397C172.73 219.035 173.634 219.708 175.126 219.577C175.606 219.535 175.96 219.45 176.268 219.289L176.18 218.277C175.936 218.406 175.634 218.486 175.195 218.524C174.382 218.595 173.824 218.349 173.732 217.297L173.431 213.86L175.762 213.656L175.673 212.631L173.342 212.835L173.195 211.156L172.049 211.256L172.196 212.935L170.931 213.045L171.02 214.071L172.286 213.96L172.586 217.397ZM182.858 210.928L183.95 210.833L182.371 208.743L181.106 208.854L182.858 210.928ZM183.421 218.905C184.287 218.829 185.133 218.366 185.582 217.669L185.656 218.522L186.788 218.423L186.394 213.921C186.265 212.442 185.165 211.532 183.461 211.681C182.288 211.783 181.386 212.359 180.87 213.209L181.779 213.787C182.142 213.179 182.737 212.764 183.509 212.697C184.468 212.613 185.181 213.087 185.262 214.02L185.303 214.486L183.071 215.057C181.667 215.421 180.958 216.208 181.046 217.22C181.146 218.366 182.103 219.02 183.421 218.905ZM182.188 217.08C182.138 216.507 182.515 216.058 183.42 215.818L185.375 215.312L185.491 216.63C185.114 217.388 184.419 217.878 183.526 217.956C182.741 218.025 182.238 217.653 182.188 217.08ZM194.608 217.738L195.793 217.635L194.977 208.311L193.779 208.416L190.863 210.375L191.55 211.174L193.898 209.627L194.608 217.738ZM200.747 207.538C198.429 207.741 197.459 210 197.702 212.77C197.944 215.541 199.292 217.597 201.609 217.394C203.954 217.189 204.91 214.931 204.668 212.161C204.426 209.39 203.091 207.333 200.747 207.538ZM200.858 208.655C202.337 208.526 203.238 210.085 203.429 212.269C203.62 214.454 203.003 216.145 201.525 216.274C200.033 216.405 199.118 214.847 198.927 212.663C198.736 210.479 199.366 208.786 200.858 208.655ZM206.789 216.673L207.921 216.574L207.514 211.925C207.88 211.195 208.429 210.57 209.415 210.484C210.467 210.392 211.194 211.026 211.299 212.225L211.65 216.247L212.783 216.148L212.427 212.086C212.261 210.181 211.053 209.267 209.548 209.398C208.549 209.486 207.894 209.973 207.4 210.62L207.047 206.584L205.915 206.683L206.789 216.673ZM217.006 206.115C214.689 206.318 213.719 208.577 213.961 211.348C214.203 214.118 215.551 216.175 217.869 215.972C220.213 215.767 221.17 213.509 220.927 210.738C220.685 207.968 219.351 205.91 217.006 206.115ZM217.118 207.233C218.596 207.104 219.497 208.662 219.688 210.847C219.88 213.031 219.263 214.722 217.784 214.852C216.292 214.982 215.378 213.425 215.186 211.24C214.995 209.056 215.626 207.363 217.118 207.233ZM225.084 205.409C222.766 205.611 221.796 207.871 222.039 210.641C222.281 213.411 223.629 215.468 225.946 215.265C228.291 215.06 229.247 212.802 229.005 210.032C228.762 207.261 227.428 205.203 225.084 205.409ZM225.195 206.526C226.674 206.397 227.575 207.955 227.766 210.14C227.957 212.324 227.34 214.016 225.862 214.145C224.37 214.276 223.455 212.718 223.264 210.534C223.073 208.349 223.703 206.657 225.195 206.526Z"
        fill="#3B69D1" />
    <defs>
        <filter id="filter0_d_3846_11447" x="-25.0216" y="2.66942" width="403.153" height="376.701"
            filterUnits="userSpaceOnUse" color-interpolation-filters="sRGB">
            <feFlood flood-opacity="0" result="BackgroundImageFix" />
            <feColorMatrix in="SourceAlpha" type="matrix"
                values="0 0 0 0 0 0 0 0 0 0 0 0 0 0 0 0 0 0 127 0" result="hardAlpha" />
            <feOffset dy="6" />
            <feGaussianBlur stdDeviation="12.5" />
            <feComposite in2="hardAlpha" operator="out" />
            <feColorMatrix type="matrix"
                values="0 0 0 0 0.196078 0 0 0 0 0.196078 0 0 0 0 0.196078 0 0 0 0.1 0" />
            <feBlend mode="normal" in2="BackgroundImageFix"
                result="effect1_dropShadow_3846_11447" />
            <feBlend mode="normal" in="SourceGraphic" in2="effect1_dropShadow_3846_11447"
                result="shape" />
        </filter>
        <filter id="filter1_d_3846_11447" x="9.31533" y="127.246" width="340.723" height="219.94"
            filterUnits="userSpaceOnUse" color-interpolation-filters="sRGB">
            <feFlood flood-opacity="0" result="BackgroundImageFix" />
            <feColorMatrix in="SourceAlpha" type="matrix"
                values="0 0 0 0 0 0 0 0 0 0 0 0 0 0 0 0 0 0 127 0" result="hardAlpha" />
            <feOffset dy="5.00961" />
            <feGaussianBlur stdDeviation="10.4367" />
            <feComposite in2="hardAlpha" operator="out" />
            <feColorMatrix type="matrix"
                values="0 0 0 0 0.196078 0 0 0 0 0.196078 0 0 0 0 0.196078 0 0 0 0.1 0" />
            <feBlend mode="normal" in2="BackgroundImageFix"
                result="effect1_dropShadow_3846_11447" />
            <feBlend mode="normal" in="SourceGraphic" in2="effect1_dropShadow_3846_11447"
                result="shape" />
        </filter>
        <clipPath id="clip0_3846_11447">
            <rect width="13.359" height="13.359" fill="white"
                transform="translate(284.194 166.016) scale(1.00086) rotate(-5)" />
        </clipPath>
    </defs>
</svg>
