<svg width="386" height="576" viewBox="0 0 386 576" fill="none" xmlns="http://www.w3.org/2000/svg">
<rect width="313.682" height="418.303" rx="8" transform="matrix(0.995997 -0.0975606 0.0804228 0.997139 1.9538 32.0409)" fill="white"/>
<path d="M35.6013 154.972L34.3014 156.099L32.8465 154.169L31.7649 156.321L30.2891 155.437L31.676 153.467L29.2967 153.097L29.6793 151.407L31.9937 152.137L31.6074 149.744L33.3303 149.593L33.3496 152.019L35.502 150.898L36.1722 152.495L33.8774 153.275L35.6013 154.972ZM43.4968 158.14C44.773 158.028 45.7236 157.318 46.2821 156.353L48.1889 157.568C47.2893 159.045 45.7084 160.084 43.6824 160.261C40.1569 160.57 37.5108 158.068 37.2317 154.878C36.9525 151.687 39.1241 148.765 42.6496 148.456C44.6756 148.279 46.4142 149.043 47.5538 150.31L45.8886 151.854C45.1709 151.001 44.1115 150.466 42.8352 150.578C40.7295 150.762 39.3737 152.537 39.5607 154.674C39.7478 156.812 41.3911 158.324 43.4968 158.14ZM50.0552 159.382L49.0085 147.418L51.0345 147.24L51.4336 151.803C51.9445 151.212 52.658 150.731 53.7268 150.638C55.4657 150.486 56.9582 151.561 57.1662 153.938L57.5849 158.723L55.5429 158.902L55.1312 154.196C55.0377 153.127 54.3888 152.509 53.3838 152.597C52.3628 152.686 51.8805 153.42 51.622 153.957L52.0812 159.205L50.0552 159.382ZM62.9827 149.828C65.5989 149.599 67.5545 151.373 67.7652 153.782C67.976 156.191 66.3582 158.277 63.7419 158.506C61.1257 158.735 59.1701 156.961 58.9594 154.552C58.7486 152.143 60.3665 150.057 62.9827 149.828ZM63.6064 156.589C64.8985 156.476 65.7809 155.354 65.6595 153.966C65.5367 152.562 64.4742 151.626 63.1821 151.74C61.8421 151.857 60.9423 152.964 61.0651 154.368C61.188 155.772 62.2663 156.706 63.6064 156.589ZM70.1595 148.107C69.4417 148.17 68.7824 147.617 68.7196 146.899C68.6568 146.181 69.21 145.522 69.9279 145.459C70.6457 145.396 71.289 145.951 71.3518 146.669C71.4146 147.386 70.8774 148.044 70.1595 148.107ZM69.9648 157.64L69.2614 149.6L71.2874 149.423L71.9908 157.463L69.9648 157.64ZM73.5075 156.157L74.7414 154.827C75.2904 155.406 75.9197 155.801 76.6854 155.734C77.3395 155.677 77.641 155.265 77.5991 154.786C77.4763 153.382 73.6778 154.245 73.4308 151.422C73.3065 150.002 74.4095 148.828 76.0845 148.682C77.3128 148.574 78.4812 149.067 79.1239 149.798L77.8871 151.096C77.4277 150.622 76.865 150.253 76.2428 150.308C75.6047 150.363 75.3323 150.741 75.3686 151.156C75.4886 152.528 79.2913 151.713 79.5342 154.488C79.6502 156.182 78.3752 157.226 76.8597 157.359C75.424 157.484 74.3528 156.999 73.5075 156.157ZM81.7968 147.089C81.079 147.152 80.4197 146.599 80.3569 145.881C80.2941 145.163 80.8473 144.504 81.5652 144.441C82.283 144.378 82.9263 144.933 82.9891 145.65C83.0519 146.368 82.5147 147.026 81.7968 147.089ZM81.6021 156.622L80.8987 148.582L82.9247 148.405L83.6281 156.445L81.6021 156.622ZM85.1448 155.139L86.3787 153.809C86.9277 154.388 87.557 154.783 88.3227 154.716C88.9768 154.659 89.2783 154.247 89.2364 153.768C89.1136 152.364 85.3151 153.227 85.068 150.403C84.9438 148.984 86.0468 147.81 87.7218 147.664C88.9501 147.556 90.1185 148.049 90.7611 148.78L89.5244 150.078C89.065 149.604 88.5023 149.235 87.8801 149.289C87.242 149.345 86.9696 149.723 87.0059 150.137C87.1259 151.509 90.9286 150.694 91.1715 153.47C91.2875 155.164 90.0125 156.208 88.497 156.34C87.0613 156.466 85.99 155.981 85.1448 155.139ZM92.3265 154.51L93.5605 153.181C94.1095 153.76 94.7388 154.155 95.5045 154.088C96.1586 154.031 96.4601 153.618 96.4182 153.14C96.2954 151.736 92.4969 152.599 92.2498 149.775C92.1256 148.355 93.2286 147.182 94.9036 147.035C96.1319 146.928 97.3002 147.42 97.9429 148.152L96.7062 149.45C96.2468 148.975 95.684 148.607 95.0619 148.661C94.4238 148.717 94.1514 149.094 94.1877 149.509C94.3077 150.881 98.1104 150.066 98.3533 152.842C98.4693 154.536 97.1943 155.58 95.6788 155.712C94.243 155.838 93.1718 155.353 92.3265 154.51ZM107.678 153.023C107.016 154.093 105.826 154.824 104.31 154.957C101.455 155.207 99.6692 153.354 99.464 151.009C99.2561 148.632 100.584 146.538 103.216 146.308C105.449 146.113 107.05 147.5 107.234 149.605C107.273 150.052 107.245 150.473 107.205 150.749L101.574 151.242C101.897 152.725 102.875 153.25 104.135 153.14C105.013 153.063 105.745 152.613 106.125 152.001L107.678 153.023ZM103.313 147.971C102.276 148.062 101.641 148.696 101.51 149.769L105.211 149.445C105.107 148.634 104.446 147.872 103.313 147.971ZM109.2 154.208L109.041 152.389L112.74 147.629L108.783 147.975L108.624 146.156L115.117 145.588L115.276 147.407L111.577 152.167L115.773 151.8L115.932 153.619L109.2 154.208ZM127.332 149.117L126.933 144.555L128.975 144.376L129.366 148.843C129.577 151.251 128.303 152.858 125.942 153.064C123.581 153.271 122.063 151.909 121.852 149.5L121.462 145.033L123.503 144.855L123.903 149.417C124.004 150.582 124.674 151.246 125.79 151.149C126.891 151.052 127.434 150.282 127.332 149.117ZM131.921 152.22L131.218 144.18L133.244 144.002L133.3 144.641C133.811 144.049 134.524 143.569 135.593 143.475C137.332 143.323 138.824 144.398 139.032 146.775L139.451 151.561L137.409 151.74L136.997 147.034C136.904 145.965 136.239 145.348 135.25 145.434C134.229 145.524 133.747 146.257 133.488 146.794L133.947 152.043L131.921 152.22ZM146.305 148.004L146.017 144.717L144.518 144.849L144.359 143.03L145.858 142.899L145.682 140.889L147.724 140.71L147.9 142.72L150.357 142.505L150.516 144.324L148.059 144.539L148.347 147.825C148.425 148.718 148.934 149.027 149.732 148.958C150.29 148.909 150.652 148.813 150.913 148.678L151.068 150.448C150.684 150.659 150.213 150.78 149.543 150.839C147.533 151.015 146.477 149.966 146.305 148.004ZM153.069 140.853C152.352 140.916 151.692 140.363 151.629 139.645C151.567 138.927 152.12 138.268 152.838 138.205C153.556 138.142 154.199 138.697 154.262 139.415C154.324 140.133 153.787 140.791 153.069 140.853ZM152.875 150.387L152.171 142.347L154.197 142.169L154.901 150.209L152.875 150.387ZM157.584 147.017L157.296 143.731L155.797 143.862L155.638 142.043L157.137 141.912L156.961 139.902L159.003 139.723L159.179 141.733L161.636 141.518L161.795 143.337L159.338 143.552L159.626 146.838C159.704 147.732 160.213 148.041 161.011 147.971C161.569 147.922 161.931 147.826 162.192 147.691L162.347 149.461C161.963 149.672 161.492 149.793 160.822 149.852C158.812 150.028 157.756 148.979 157.584 147.017ZM164.154 149.4L163.45 141.36L165.476 141.182L165.546 141.98C166.025 141.392 166.675 140.917 167.584 140.837C167.855 140.814 168.099 140.841 168.296 140.888L168.47 142.882C168.209 142.84 167.934 142.816 167.567 142.848C166.578 142.935 165.987 143.533 165.729 144.07L166.18 149.223L164.154 149.4ZM177.579 146.907C176.917 147.978 175.728 148.709 174.212 148.841C171.356 149.091 169.571 147.238 169.366 144.893C169.158 142.516 170.486 140.423 173.118 140.192C175.351 139.997 176.951 141.384 177.136 143.49C177.175 143.937 177.147 144.357 177.107 144.634L171.476 145.126C171.798 146.609 172.777 147.134 174.037 147.024C174.914 146.947 175.647 146.498 176.027 145.886L177.579 146.907ZM173.215 141.856C172.178 141.946 171.542 142.581 171.411 143.653L175.112 143.329C175.009 142.519 174.348 141.757 173.215 141.856ZM184.173 151.603L183.126 139.638L185.152 139.461L185.209 140.115C185.777 139.439 186.528 139.019 187.629 138.923C190.181 138.7 191.887 140.56 192.092 142.905C192.297 145.25 190.94 147.378 188.388 147.601C187.287 147.697 186.475 147.415 185.798 146.847L186.199 151.426L184.173 151.603ZM187.509 140.862C186.568 140.945 185.838 141.426 185.394 142.221L185.614 144.741C186.223 145.46 187.008 145.793 187.933 145.712C189.305 145.592 190.109 144.493 189.987 143.089C189.864 141.685 188.881 140.742 187.509 140.862ZM194.298 146.763L193.595 138.722L195.621 138.545L195.691 139.343C196.17 138.754 196.819 138.28 197.729 138.2C198 138.176 198.243 138.203 198.44 138.25L198.615 140.244C198.354 140.203 198.079 140.179 197.712 140.211C196.723 140.297 196.132 140.896 195.874 141.433L196.324 146.585L194.298 146.763ZM204.295 136.5L202.349 136.671L203.777 133.877L205.978 133.685L204.295 136.5ZM207.724 144.27C207.062 145.34 205.872 146.071 204.357 146.204C201.501 146.454 199.716 144.601 199.51 142.256C199.302 139.879 200.63 137.785 203.263 137.555C205.496 137.36 207.096 138.747 207.28 140.853C207.319 141.299 207.292 141.72 207.252 141.996L201.621 142.489C201.943 143.972 202.921 144.497 204.182 144.387C205.059 144.31 205.791 143.86 206.172 143.248L207.724 144.27ZM203.36 139.218C202.323 139.309 201.687 139.943 201.556 141.016L205.257 140.692C205.154 139.881 204.492 139.119 203.36 139.218ZM208.686 141.453C208.481 139.108 209.854 136.978 212.391 136.757C213.475 136.662 214.286 136.928 214.963 137.496L214.564 132.934L216.606 132.755L217.652 144.719L215.61 144.898L215.555 144.26C214.987 144.936 214.235 145.34 213.15 145.435C210.613 145.657 208.891 143.798 208.686 141.453ZM210.808 141.267C210.931 142.671 211.898 143.615 213.269 143.495C214.179 143.416 214.895 142.967 215.373 142.186L215.144 139.57C214.538 138.883 213.754 138.566 212.845 138.646C211.473 138.766 210.685 139.863 210.808 141.267ZM223.94 134.782L221.994 134.952L223.421 132.159L225.623 131.966L223.94 134.782ZM227.369 142.551C226.707 143.622 225.517 144.353 224.002 144.485C221.146 144.735 219.36 142.882 219.155 140.537C218.947 138.16 220.275 136.067 222.907 135.836C225.141 135.641 226.741 137.028 226.925 139.134C226.964 139.581 226.937 140.001 226.897 140.278L221.265 140.77C221.588 142.253 222.566 142.778 223.826 142.668C224.704 142.591 225.436 142.142 225.817 141.53L227.369 142.551ZM223.005 137.5C221.968 137.59 221.332 138.225 221.201 139.297L224.902 138.973C224.799 138.163 224.137 137.401 223.005 137.5ZM227.627 135.745L229.126 135.614L229.052 134.768C228.903 133.061 229.916 131.59 231.926 131.415C232.66 131.35 233.297 131.471 233.831 131.698L233.118 133.464C232.863 133.31 232.532 133.194 232.117 133.23C231.431 133.29 231.026 133.808 231.09 134.542L231.168 135.435L233.625 135.22L233.784 137.039L231.327 137.254L231.872 143.475L229.83 143.654L229.286 137.432L227.786 137.564L227.627 135.745ZM236.042 133.594C235.324 133.657 234.664 133.104 234.602 132.386C234.539 131.668 235.092 131.009 235.81 130.946C236.528 130.883 237.171 131.438 237.234 132.156C237.297 132.874 236.759 133.531 236.042 133.594ZM235.847 143.128L235.143 135.087L237.169 134.91L237.873 142.95L235.847 143.128ZM240.302 142.738L239.599 134.698L241.625 134.52L241.681 135.158C242.192 134.567 242.905 134.087 243.974 133.993C245.713 133.841 247.205 134.916 247.413 137.293L247.832 142.079L245.79 142.258L245.378 137.552C245.285 136.483 244.62 135.866 243.631 135.952C242.61 136.042 242.128 136.775 241.869 137.312L242.328 142.56L240.302 142.738ZM250.327 132.344C249.609 132.407 248.95 131.854 248.887 131.136C248.825 130.418 249.378 129.759 250.096 129.696C250.813 129.633 251.457 130.188 251.52 130.906C251.582 131.624 251.045 132.282 250.327 132.344ZM250.133 141.878L249.429 133.838L251.455 133.66L252.158 141.7L250.133 141.878Z" fill="#161616"/>
<rect x="32.0546" y="182.557" width="107.091" height="31.0271" rx="7.5" transform="rotate(-5 32.0546 182.557)" stroke="#878787"/>
<path d="M42.916 203.207L42.0611 193.437L47.505 192.96L47.6234 194.314L43.7709 194.651L44.0127 197.415L47.3069 197.127L47.4253 198.481L44.1311 198.769L44.5073 203.068L42.916 203.207ZM51.6278 202.656C50.232 202.778 49.2132 202.066 49.1045 200.823C49.0117 199.763 49.7681 198.923 51.2397 198.541L53.4819 197.965L53.4502 197.602C53.3745 196.737 52.686 196.262 51.7787 196.342C51.011 196.409 50.4413 196.81 50.0865 197.418L48.9397 196.689C49.4945 195.796 50.4532 195.178 51.7094 195.068C53.6078 194.902 54.7524 195.927 54.8879 197.476L55.2946 202.124L53.8569 202.25L53.7872 201.455C53.3385 202.113 52.4933 202.581 51.6278 202.656ZM50.5513 200.641C50.5989 201.185 51.0646 201.524 51.7905 201.461C52.6699 201.384 53.3172 200.905 53.6773 200.198L53.5711 198.984L51.7008 199.471C50.8349 199.702 50.5049 200.11 50.5513 200.641ZM57.5218 193.265C56.9914 193.312 56.5056 192.904 56.4592 192.374C56.4128 191.843 56.8204 191.358 57.3508 191.311C57.8813 191.265 58.367 191.672 58.4134 192.203C58.4598 192.733 58.0522 193.219 57.5218 193.265ZM57.5482 201.927L56.9327 194.892L58.3705 194.766L58.986 201.802L57.5482 201.927ZM61.3377 201.596L60.7223 194.561L62.16 194.435L62.2296 195.231C62.6705 194.643 63.2505 194.199 64.1159 194.123C64.3393 194.104 64.5523 194.127 64.7386 194.167L64.862 195.577C64.6338 195.541 64.4068 195.518 64.1136 195.544C63.2203 195.622 62.6756 196.148 62.3651 196.78L62.7755 201.47L61.3377 201.596ZM72.8232 199.438C72.2441 200.374 71.2169 201.013 69.9048 201.128C67.476 201.34 65.8856 199.721 65.7061 197.669C65.5217 195.561 66.714 193.755 68.9473 193.56C70.8875 193.39 72.2598 194.606 72.4161 196.393C72.4442 196.714 72.4304 197.039 72.3929 197.253L67.2004 197.707C67.4324 199.234 68.4372 199.948 69.7912 199.829C70.6427 199.755 71.3216 199.316 71.703 198.692L72.8232 199.438ZM69.0244 194.763C67.9775 194.854 67.3042 195.518 67.1761 196.626L70.9589 196.295C70.854 195.418 70.1551 194.664 69.0244 194.763ZM78.4315 200.1L77.816 193.065L79.2537 192.939L79.3111 193.595C79.766 193.007 80.3878 192.559 81.3231 192.477C82.2862 192.393 83.1337 192.755 83.6536 193.553C84.1369 192.808 84.7848 192.174 85.9992 192.068C87.4648 191.94 88.6834 192.846 88.8531 194.786L89.2354 199.155L87.7837 199.282L87.4063 194.969C87.316 193.936 86.6899 193.372 85.7826 193.451C84.9451 193.524 84.4471 194.103 84.1289 194.806C84.1538 194.93 84.1648 195.056 84.177 195.195L84.5593 199.564L83.1076 199.691L82.7302 195.378C82.6399 194.345 82.0278 193.78 81.1065 193.86C80.2132 193.938 79.7365 194.599 79.454 195.229L79.8692 199.974L78.4315 200.1ZM94.0894 191.36C96.3786 191.16 98.0643 192.742 98.2462 194.822C98.4282 196.902 97.043 198.753 94.7538 198.954C92.4785 199.153 90.7789 197.571 90.597 195.491C90.415 193.412 91.8142 191.559 94.0894 191.36ZM94.6493 197.598C95.9753 197.482 96.856 196.294 96.7387 194.954C96.619 193.586 95.5479 192.597 94.2219 192.713C92.8679 192.831 91.986 194.006 92.1045 195.36C92.223 196.714 93.2953 197.717 94.6493 197.598ZM100.351 198.183L99.7352 191.147L101.173 191.022L101.233 191.706C101.714 191.101 102.377 190.635 103.382 190.547C104.931 190.412 106.209 191.355 106.388 193.393L106.758 197.622L105.306 197.749L104.941 193.575C104.843 192.459 104.17 191.843 103.165 191.93C102.202 192.015 101.682 192.665 101.373 193.311L101.788 198.057L100.351 198.183ZM117.296 195.462C118.524 195.355 119.463 194.668 120 193.735L121.371 194.614C120.569 195.893 119.201 196.815 117.428 196.97C114.357 197.239 112.07 195.048 111.825 192.256C111.581 189.464 113.453 186.909 116.524 186.641C118.297 186.485 119.804 187.155 120.817 188.276L119.619 189.38C118.928 188.554 117.884 188.041 116.656 188.148C114.618 188.326 113.294 190.074 113.472 192.112C113.652 194.164 115.258 195.641 117.296 195.462ZM121.504 186.486L123.207 186.337L127.084 194.156L129.53 185.784L131.247 185.634L128.277 195.739L126.169 195.924L121.504 186.486Z" fill="#161616"/>
<rect x="147.711" y="172.438" width="150.128" height="31.0271" rx="7.5" transform="rotate(-5 147.711 172.438)" stroke="#878787"/>
<path d="M158.572 193.089L157.717 183.318L160.481 183.076C162.533 182.897 163.885 183.875 164.036 185.606C164.14 186.793 163.631 187.723 162.649 188.245L166.138 192.427L164.239 192.593L161.156 188.699C161.086 188.706 161.03 188.71 160.975 188.715L159.802 188.818L160.164 192.95L158.572 193.089ZM160.683 184.423L159.427 184.533L159.684 187.464L160.94 187.354C161.931 187.267 162.454 186.659 162.373 185.724C162.296 184.844 161.674 184.336 160.683 184.423ZM173.553 190.625C172.974 191.562 171.947 192.2 170.635 192.315C168.206 192.527 166.616 190.908 166.436 188.856C166.252 186.749 167.444 184.942 169.677 184.747C171.617 184.577 172.99 185.793 173.146 187.58C173.174 187.901 173.16 188.226 173.123 188.44L167.93 188.894C168.162 190.421 169.167 191.135 170.521 191.017C171.373 190.942 172.052 190.503 172.433 189.879L173.553 190.625ZM169.754 185.95C168.707 186.041 168.034 186.705 167.906 187.813L171.689 187.483C171.584 186.606 170.885 185.851 169.754 185.95ZM178.558 190.257C179.354 190.188 179.962 189.741 180.305 189.162L181.512 189.929C180.945 190.85 179.961 191.499 178.663 191.612C176.304 191.819 174.672 190.203 174.492 188.152C174.313 186.1 175.64 184.225 177.999 184.019C179.283 183.907 180.379 184.373 181.096 185.183L180.041 186.147C179.603 185.637 178.927 185.302 178.117 185.373C176.763 185.491 175.879 186.638 176 188.02C176.122 189.415 177.191 190.377 178.558 190.257ZM183.115 190.942L182.199 180.473L183.636 180.347L183.997 184.465C184.478 183.86 185.141 183.394 186.146 183.306C187.709 183.169 188.973 184.114 189.151 186.152L189.521 190.381L188.07 190.508L187.705 186.335C187.607 185.218 186.934 184.602 185.929 184.689C184.966 184.774 184.46 185.423 184.137 186.07L184.552 190.816L183.115 190.942ZM198.008 188.485C197.429 189.422 196.402 190.06 195.089 190.175C192.661 190.388 191.07 188.769 190.891 186.717C190.706 184.609 191.899 182.803 194.132 182.608C196.072 182.438 197.444 183.654 197.601 185.441C197.629 185.762 197.615 186.086 197.578 186.301L192.385 186.755C192.617 188.282 193.622 188.996 194.976 188.877C195.827 188.803 196.506 188.363 196.888 187.739L198.008 188.485ZM194.209 183.81C193.162 183.902 192.489 184.566 192.361 185.674L196.143 185.343C196.039 184.466 195.34 183.711 194.209 183.81ZM199.854 189.477L199.238 182.442L200.676 182.316L200.746 183.112C201.187 182.525 201.767 182.08 202.632 182.004C202.855 181.985 203.068 182.009 203.255 182.048L203.378 183.458C203.15 183.422 202.923 183.4 202.63 183.425C201.736 183.503 201.192 184.029 200.881 184.661L201.292 189.351L199.854 189.477ZM208.288 187.656C209.084 187.587 209.692 187.14 210.035 186.561L211.242 187.327C210.675 188.249 209.691 188.898 208.393 189.011C206.034 189.218 204.402 187.602 204.222 185.55C204.043 183.499 205.37 181.624 207.729 181.418C209.013 181.306 210.109 181.772 210.826 182.582L209.771 183.546C209.333 183.036 208.657 182.701 207.847 182.772C206.493 182.89 205.609 184.037 205.73 185.419C205.852 186.814 206.921 187.776 208.288 187.656ZM212.845 188.341L211.929 177.872L213.366 177.746L213.727 181.864C214.208 181.259 214.871 180.793 215.876 180.705C217.439 180.568 218.703 181.513 218.881 183.551L219.251 187.78L217.8 187.907L217.435 183.733C217.337 182.617 216.664 182.001 215.659 182.088C214.696 182.173 214.19 182.822 213.867 183.469L214.282 188.215L212.845 188.341ZM227.738 185.884C227.159 186.821 226.132 187.459 224.819 187.574C222.391 187.787 220.8 186.168 220.621 184.116C220.436 182.008 221.629 180.202 223.862 180.006C225.802 179.837 227.174 181.053 227.331 182.84C227.359 183.161 227.345 183.485 227.308 183.7L222.115 184.154C222.347 185.681 223.352 186.395 224.706 186.276C225.557 186.202 226.236 185.762 226.618 185.138L227.738 185.884ZM223.939 181.209C222.892 181.301 222.219 181.965 222.091 183.073L225.874 182.742C225.769 181.865 225.07 181.11 223.939 181.209ZM232.48 183.078C232.301 181.026 233.53 179.161 235.749 178.966C236.754 178.879 237.54 179.176 238.181 179.752L237.818 175.607L239.284 175.478L240.2 185.947L238.734 186.076L238.672 185.364C238.141 186.043 237.418 186.472 236.413 186.56C234.194 186.754 232.66 185.13 232.48 183.078ZM234.001 182.945C234.122 184.327 235.123 185.309 236.476 185.19C237.384 185.111 238.128 184.61 238.537 183.828L238.315 181.288C237.732 180.565 236.928 180.228 236.049 180.305C234.695 180.423 233.881 181.563 234.001 182.945ZM242.699 179.779L241.373 179.895L242.249 175.922L243.883 175.779L242.699 179.779ZM251.824 183.777C251.245 184.714 250.218 185.352 248.906 185.467C246.477 185.679 244.887 184.06 244.707 182.009C244.523 179.901 245.715 178.095 247.949 177.899C249.889 177.729 251.261 178.946 251.417 180.732C251.445 181.053 251.432 181.378 251.394 181.592L246.202 182.047C246.434 183.573 247.438 184.287 248.792 184.169C249.644 184.094 250.323 183.655 250.704 183.031L251.824 183.777ZM248.026 179.102C246.979 179.194 246.305 179.857 246.177 180.966L249.96 180.635C249.855 179.758 249.156 179.003 248.026 179.102ZM253.67 184.769L253.055 177.734L254.493 177.608L254.55 178.264C255.005 177.676 255.627 177.227 256.562 177.146C257.525 177.061 258.373 177.423 258.893 178.222C259.376 177.476 260.024 176.843 261.238 176.736C262.704 176.608 263.922 177.514 264.092 179.455L264.474 183.824L263.023 183.951L262.645 179.637C262.555 178.604 261.929 178.04 261.022 178.12C260.184 178.193 259.686 178.771 259.368 179.474C259.393 179.598 259.404 179.724 259.416 179.864L259.798 184.233L258.347 184.36L257.969 180.047C257.879 179.014 257.267 178.448 256.346 178.529C255.452 178.607 254.975 179.268 254.693 179.897L255.108 184.643L253.67 184.769ZM267.002 187.062L266.087 176.594L267.524 176.468L267.588 177.194C268.132 176.499 268.854 176.07 269.873 175.981C272.078 175.788 273.613 177.412 273.792 179.464C273.972 181.516 272.743 183.382 270.537 183.574C269.518 183.664 268.733 183.367 268.076 182.777L268.44 186.937L267.002 187.062ZM269.81 177.351C268.889 177.431 268.159 177.931 267.723 178.743L267.941 181.228C268.526 181.964 269.33 182.316 270.237 182.236C271.591 182.118 272.406 180.978 272.285 179.596C272.164 178.214 271.164 177.232 269.81 177.351ZM275.89 182.825L274.974 172.356L276.411 172.23L277.327 182.699L275.89 182.825ZM282.305 174.893C284.595 174.693 286.28 176.276 286.462 178.355C286.644 180.435 285.259 182.286 282.97 182.487C280.695 182.686 278.995 181.104 278.813 179.025C278.631 176.945 280.03 175.092 282.305 174.893ZM282.865 181.132C284.191 181.016 285.072 179.827 284.955 178.487C284.835 177.119 283.764 176.13 282.438 176.246C281.084 176.365 280.202 177.539 280.321 178.893C280.439 180.247 281.511 181.25 282.865 181.132ZM288.54 173.054C288.01 173.1 287.524 172.693 287.478 172.162C287.431 171.632 287.839 171.146 288.369 171.1C288.9 171.053 289.386 171.461 289.432 171.991C289.478 172.522 289.071 173.007 288.54 173.054ZM288.567 181.716L287.951 174.681L289.389 174.555L290.004 181.59L288.567 181.716Z" fill="#161616"/>
<rect x="35.5439" y="222.438" width="100.085" height="31.0271" rx="7.5" transform="rotate(-5 35.5439 222.438)" stroke="#878787"/>
<path d="M50.611 241.483C51.8393 241.376 52.7779 240.689 53.3151 239.756L54.686 240.634C53.8837 241.914 52.5156 242.836 50.7429 242.991C47.672 243.259 45.3846 241.068 45.1403 238.277C44.8961 235.485 46.7683 232.93 49.8392 232.661C51.6119 232.506 53.1192 233.176 54.1316 234.297L52.9341 235.401C52.243 234.575 51.1994 234.062 49.9711 234.169C47.9331 234.347 46.6091 236.095 46.7874 238.133C46.967 240.185 48.573 241.662 50.611 241.483ZM58.3614 242.254C56.9655 242.376 55.9467 241.663 55.8381 240.421C55.7452 239.36 56.5016 238.52 57.9732 238.139L60.2155 237.563L60.1837 237.2C60.108 236.334 59.4195 235.86 58.5122 235.939C57.7445 236.007 57.1748 236.408 56.8201 237.016L55.6732 236.286C56.2281 235.394 57.1867 234.775 58.443 234.666C60.3413 234.499 61.4859 235.525 61.6215 237.074L62.0281 241.722L60.5904 241.848L60.5208 241.052C60.072 241.71 59.2268 242.178 58.3614 242.254ZM57.2849 240.238C57.3325 240.783 57.7982 241.122 58.524 241.058C59.4034 240.981 60.0507 240.503 60.4109 239.796L60.3046 238.582L58.4344 239.069C57.5684 239.299 57.2385 239.708 57.2849 240.238ZM64.2818 241.525L63.6663 234.49L65.104 234.364L65.1638 235.048C65.6454 234.443 66.3079 233.977 67.3129 233.89C68.8623 233.754 70.1404 234.697 70.3187 236.735L70.6887 240.964L69.237 241.091L68.8719 236.918C68.7742 235.801 68.1014 235.185 67.0964 235.273C66.1333 235.357 65.6135 236.007 65.3043 236.653L65.7195 241.399L64.2818 241.525ZM72.058 237.3C71.8784 235.248 73.1077 233.383 75.3271 233.188C76.3321 233.1 77.1176 233.397 77.7588 233.974L77.3961 229.829L78.8618 229.7L79.7777 240.169L78.312 240.297L78.2498 239.586C77.7185 240.265 76.9964 240.694 75.9914 240.782C73.772 240.976 72.2375 239.352 72.058 237.3ZM73.5794 237.167C73.7003 238.549 74.7005 239.53 76.0544 239.412C76.9617 239.333 77.7056 238.831 78.1154 238.05L77.8932 235.51C77.3095 234.787 76.5064 234.45 75.627 234.526C74.273 234.645 73.4585 235.785 73.5794 237.167ZM82.0715 231.304C81.5411 231.351 81.0554 230.943 81.009 230.413C80.9625 229.882 81.3701 229.396 81.9006 229.35C82.431 229.304 82.9167 229.711 82.9631 230.242C83.0096 230.772 82.602 231.258 82.0715 231.304ZM82.098 239.966L81.4825 232.931L82.9202 232.805L83.5357 239.84L82.098 239.966ZM85.0214 236.166C84.8419 234.114 86.0711 232.248 88.2905 232.054C89.2955 231.966 90.081 232.263 90.7223 232.84L90.3596 228.694L91.8252 228.566L92.7411 239.035L91.2755 239.163L91.2132 238.451C90.6819 239.131 89.9599 239.56 88.9549 239.648C86.7355 239.842 85.2009 238.218 85.0214 236.166ZM86.5429 236.033C86.6638 237.415 87.6639 238.396 89.0179 238.278C89.9252 238.198 90.669 237.697 91.0789 236.916L90.8566 234.376C90.273 233.653 89.4698 233.315 88.5904 233.392C87.2365 233.511 86.422 234.651 86.5429 236.033ZM97.0199 238.872C95.6241 238.994 94.6053 238.281 94.4966 237.039C94.4038 235.978 95.1602 235.138 96.6318 234.756L98.874 234.18L98.8423 233.818C98.7666 232.952 98.0781 232.478 97.1708 232.557C96.403 232.624 95.8334 233.026 95.4786 233.634L94.3318 232.904C94.8866 232.012 95.8452 231.393 97.1015 231.283C98.9999 231.117 100.144 232.142 100.28 233.692L100.687 238.34L99.2489 238.466L99.1793 237.67C98.7306 238.328 97.8854 238.796 97.0199 238.872ZM95.9434 236.856C95.991 237.4 96.4567 237.739 97.1826 237.676C98.062 237.599 98.7093 237.12 99.0694 236.414L98.9632 235.199L97.0929 235.687C96.227 235.917 95.897 236.326 95.9434 236.856ZM103.145 235.663L102.857 232.369L101.531 232.485L101.418 231.187L102.744 231.071L102.59 229.312L104.041 229.185L104.195 230.944L106.526 230.74L106.64 232.038L104.309 232.242L104.597 235.536C104.68 236.486 105.209 236.749 105.991 236.68C106.466 236.639 106.782 236.555 107.025 236.435L107.136 237.705C106.813 237.874 106.428 237.978 105.884 238.026C104.237 238.17 103.296 237.38 103.145 235.663ZM113.339 234.195L112.987 230.175L114.439 230.048L114.785 233.998C114.969 236.106 113.865 237.468 111.896 237.641C109.914 237.814 108.59 236.664 108.406 234.556L108.06 230.606L109.512 230.479L109.863 234.499C109.97 235.713 110.675 236.383 111.778 236.287C112.853 236.193 113.445 235.409 113.339 234.195ZM117.24 236.892L116.624 229.857L118.062 229.731L118.131 230.526C118.572 229.939 119.152 229.495 120.018 229.419C120.241 229.4 120.454 229.423 120.641 229.463L120.764 230.873C120.536 230.837 120.309 230.814 120.016 230.84C119.122 230.918 118.577 231.444 118.267 232.076L118.677 236.766L117.24 236.892ZM128.725 234.734C128.146 235.67 127.119 236.309 125.807 236.424C123.378 236.636 121.787 235.017 121.608 232.965C121.424 230.857 122.616 229.051 124.849 228.856C126.789 228.686 128.162 229.902 128.318 231.689C128.346 232.01 128.332 232.335 128.295 232.549L123.102 233.003C123.334 234.53 124.339 235.244 125.693 235.125C126.545 235.051 127.223 234.612 127.605 233.988L128.725 234.734ZM124.926 230.059C123.879 230.15 123.206 230.814 123.078 231.922L126.861 231.591C126.756 230.714 126.057 229.96 124.926 230.059Z" fill="#161616"/>
<rect x="144.221" y="212.93" width="165.14" height="31.0271" rx="7.5" transform="rotate(-5 144.221 212.93)" stroke="#878787"/>
<path d="M155.082 233.581L154.227 223.81L159.671 223.334L159.789 224.688L155.937 225.025L156.179 227.788L159.473 227.5L159.591 228.854L156.297 229.142L156.555 232.088L160.407 231.751L160.526 233.105L155.082 233.581ZM162.68 232.916L162.065 225.881L163.503 225.755L163.563 226.439C164.044 225.834 164.707 225.369 165.712 225.281C167.261 225.145 168.539 226.088 168.717 228.126L169.087 232.356L167.636 232.483L167.271 228.309C167.173 227.192 166.5 226.576 165.495 226.664C164.532 226.748 164.012 227.399 163.703 228.044L164.118 232.79L162.68 232.916ZM171.528 229.681L171.24 226.386L169.914 226.502L169.8 225.204L171.126 225.088L170.972 223.33L172.424 223.203L172.578 224.961L174.909 224.757L175.022 226.055L172.691 226.259L172.979 229.554C173.063 230.503 173.592 230.766 174.374 230.698C174.848 230.656 175.164 230.572 175.407 230.452L175.518 231.723C175.195 231.892 174.811 231.996 174.266 232.043C172.619 232.187 171.678 231.398 171.528 229.681ZM177.239 231.642L176.623 224.607L178.061 224.482L178.131 225.277C178.572 224.69 179.152 224.246 180.017 224.17C180.24 224.15 180.453 224.174 180.64 224.214L180.763 225.624C180.535 225.587 180.308 225.565 180.015 225.591C179.121 225.669 178.577 226.195 178.266 226.827L178.677 231.517L177.239 231.642ZM188.724 229.484C188.145 230.421 187.118 231.059 185.806 231.174C183.377 231.387 181.787 229.768 181.607 227.716C181.423 225.608 182.615 223.802 184.848 223.606C186.789 223.437 188.161 224.653 188.317 226.44C188.345 226.761 188.331 227.085 188.294 227.3L183.101 227.754C183.333 229.281 184.338 229.995 185.692 229.876C186.544 229.802 187.223 229.362 187.604 228.738L188.724 229.484ZM184.925 224.809C183.879 224.901 183.205 225.565 183.077 226.673L186.86 226.342C186.755 225.465 186.056 224.71 184.925 224.809ZM190.748 227.999L190.46 224.705L189.134 224.821L189.02 223.523L190.346 223.407L190.192 221.648L191.644 221.521L191.798 223.28L194.129 223.076L194.243 224.374L191.912 224.578L192.2 227.872C192.283 228.821 192.812 229.084 193.594 229.016C194.068 228.974 194.385 228.891 194.627 228.771L194.738 230.041C194.416 230.21 194.031 230.314 193.486 230.362C191.839 230.506 190.898 229.716 190.748 227.999ZM196.433 221.299C195.902 221.345 195.416 220.938 195.37 220.407C195.324 219.877 195.731 219.391 196.262 219.345C196.792 219.298 197.278 219.706 197.324 220.236C197.371 220.767 196.963 221.253 196.433 221.299ZM196.459 229.961L195.844 222.926L197.281 222.8L197.897 229.835L196.459 229.961ZM206.5 227.929C205.92 228.866 204.893 229.504 203.581 229.619C201.152 229.832 199.562 228.213 199.382 226.161C199.198 224.053 200.39 222.247 202.624 222.051C204.564 221.882 205.936 223.098 206.092 224.884C206.121 225.205 206.107 225.53 206.069 225.744L200.877 226.199C201.109 227.726 202.114 228.439 203.468 228.321C204.319 228.246 204.998 227.807 205.379 227.183L206.5 227.929ZM202.701 223.254C201.654 223.346 200.981 224.009 200.852 225.118L204.635 224.787C204.53 223.91 203.831 223.155 202.701 223.254ZM208.346 228.921L207.73 221.886L209.168 221.76L209.228 222.444C209.709 221.839 210.372 221.373 211.377 221.286C212.926 221.15 214.204 222.093 214.382 224.131L214.753 228.36L213.301 228.487L212.936 224.314C212.838 223.197 212.165 222.581 211.16 222.669C210.197 222.753 209.677 223.403 209.368 224.049L209.783 228.795L208.346 228.921ZM219.884 224.367C219.704 222.315 220.934 220.449 223.153 220.255C224.158 220.167 224.944 220.464 225.585 221.041L225.222 216.895L226.688 216.767L227.604 227.236L226.138 227.364L226.076 226.652C225.545 227.332 224.822 227.761 223.817 227.849C221.598 228.043 220.064 226.419 219.884 224.367ZM221.405 224.234C221.526 225.616 222.527 226.597 223.88 226.479C224.788 226.399 225.532 225.898 225.941 225.117L225.719 222.577C225.136 221.854 224.332 221.516 223.453 221.593C222.099 221.712 221.285 222.852 221.405 224.234ZM230.103 221.068L228.777 221.184L229.653 217.211L231.287 217.068L230.103 221.068ZM239.228 225.066C238.649 226.002 237.622 226.641 236.31 226.756C233.881 226.968 232.291 225.349 232.111 223.297C231.927 221.19 233.119 219.383 235.353 219.188C237.293 219.018 238.665 220.234 238.821 222.021C238.849 222.342 238.836 222.667 238.798 222.881L233.606 223.335C233.838 224.862 234.842 225.576 236.196 225.458C237.048 225.383 237.727 224.944 238.108 224.32L239.228 225.066ZM235.43 220.391C234.383 220.482 233.709 221.146 233.581 222.254L237.364 221.923C237.259 221.046 236.56 220.292 235.43 220.391ZM241.074 226.058L240.459 219.022L241.897 218.897L241.954 219.553C242.409 218.964 243.031 218.516 243.966 218.434C244.929 218.35 245.777 218.712 246.297 219.51C246.78 218.765 247.428 218.131 248.642 218.025C250.108 217.897 251.326 218.803 251.496 220.743L251.878 225.112L250.427 225.239L250.049 220.926C249.959 219.893 249.333 219.329 248.426 219.408C247.588 219.482 247.09 220.06 246.772 220.763C246.797 220.887 246.808 221.013 246.82 221.152L247.202 225.521L245.751 225.648L245.373 221.335C245.283 220.302 244.671 219.737 243.75 219.818C242.856 219.896 242.379 220.556 242.097 221.186L242.512 225.932L241.074 226.058ZM261.196 220.753C261.376 222.805 260.147 224.67 257.941 224.863C256.922 224.952 256.137 224.655 255.48 224.066L255.544 224.792L254.106 224.917L253.19 214.449L254.628 214.323L254.992 218.482C255.536 217.788 256.258 217.359 257.277 217.27C259.482 217.077 261.017 218.701 261.196 220.753ZM257.214 218.64C256.293 218.72 255.549 219.221 255.126 220.018L255.346 222.53C255.93 223.253 256.734 223.604 257.641 223.525C258.995 223.407 259.81 222.266 259.689 220.885C259.568 219.503 258.568 218.521 257.214 218.64ZM265.266 224.152C263.87 224.274 262.851 223.562 262.742 222.319C262.65 221.258 263.406 220.419 264.878 220.037L267.12 219.461L267.088 219.098C267.012 218.232 266.324 217.758 265.417 217.838C264.649 217.905 264.079 218.306 263.724 218.914L262.578 218.184C263.132 217.292 264.091 216.674 265.347 216.564C267.246 216.398 268.39 217.423 268.526 218.972L268.933 223.62L267.495 223.746L267.425 222.95C266.976 223.609 266.131 224.076 265.266 224.152ZM264.189 222.136C264.237 222.681 264.703 223.02 265.428 222.956C266.308 222.879 266.955 222.401 267.315 221.694L267.209 220.48L265.339 220.967C264.473 221.197 264.143 221.606 264.189 222.136ZM275.696 219.99L275.344 215.97L276.796 215.843L277.142 219.794C277.326 221.901 276.222 223.264 274.254 223.436C272.271 223.609 270.947 222.459 270.763 220.352L270.417 216.401L271.869 216.274L272.221 220.295C272.327 221.509 273.032 222.179 274.135 222.082C275.21 221.988 275.802 221.205 275.696 219.99ZM282.797 221.324C283.593 221.255 284.2 220.808 284.544 220.229L285.75 220.996C285.184 221.917 284.2 222.566 282.901 222.679C280.542 222.886 278.91 221.27 278.731 219.219C278.551 217.167 279.878 215.292 282.237 215.086C283.521 214.974 284.617 215.44 285.335 216.25L284.28 217.214C283.841 216.704 283.165 216.369 282.355 216.44C281.002 216.558 280.117 217.705 280.238 219.087C280.36 220.483 281.429 221.444 282.797 221.324ZM287.353 222.009L286.437 211.54L287.875 211.414L288.235 215.532C288.717 214.927 289.379 214.461 290.384 214.373C291.947 214.236 293.212 215.181 293.39 217.219L293.76 221.448L292.308 221.575L291.943 217.402C291.845 216.285 291.173 215.669 290.168 215.757C289.204 215.841 288.699 216.49 288.375 217.137L288.791 221.883L287.353 222.009ZM302.246 219.552C301.667 220.489 300.64 221.128 299.328 221.242C296.899 221.455 295.309 219.836 295.129 217.784C294.945 215.676 296.137 213.87 298.37 213.675C300.311 213.505 301.683 214.721 301.839 216.508C301.867 216.829 301.853 217.153 301.816 217.368L296.623 217.822C296.855 219.349 297.86 220.063 299.214 219.944C300.066 219.87 300.745 219.431 301.126 218.806L302.246 219.552ZM298.447 214.877C297.401 214.969 296.727 215.633 296.599 216.741L300.382 216.41C300.277 215.533 299.578 214.779 298.447 214.877Z" fill="#161616"/>
<rect x="38.4915" y="261.865" width="181.153" height="32.0271" rx="8" transform="rotate(-5 38.4915 261.865)" fill="#274996"/>
<g clip-path="url(#clip0_8452_5813)">
<path d="M204.48 264.356L201.508 267.898C201.397 268.03 201.247 268.105 201.059 268.121C200.871 268.138 200.71 268.09 200.578 267.979C200.445 267.868 200.371 267.718 200.354 267.53C200.338 267.341 200.385 267.181 200.496 267.048L203.468 263.506L199.926 260.534C199.794 260.423 199.719 260.273 199.703 260.085C199.686 259.897 199.734 259.736 199.845 259.604C199.956 259.471 200.106 259.397 200.294 259.38C200.483 259.364 200.643 259.411 200.776 259.522L204.317 262.494L207.29 258.953C207.401 258.82 207.55 258.746 207.739 258.729C207.927 258.713 208.088 258.76 208.22 258.871C208.353 258.982 208.427 259.132 208.444 259.32C208.46 259.509 208.413 259.669 208.302 259.802L205.329 263.344L208.871 266.316C209.004 266.427 209.078 266.577 209.095 266.765C209.111 266.953 209.064 267.114 208.953 267.246C208.842 267.379 208.692 267.453 208.504 267.47C208.315 267.486 208.155 267.439 208.022 267.328L204.48 264.356Z" fill="white"/>
<path d="M50.112 282.951L49.2571 273.18L51.2392 273.007L51.9366 280.977L55.6495 280.652L55.8071 282.453L50.112 282.951ZM63.7316 280.606C63.1525 281.543 62.1114 282.183 60.7853 282.299C58.2868 282.517 56.7243 280.896 56.5448 278.844C56.3628 276.764 57.5247 274.933 59.8279 274.731C61.7821 274.56 63.1823 275.774 63.3435 277.616C63.3777 278.007 63.3536 278.375 63.3185 278.617L58.3911 279.048C58.6734 280.346 59.5294 280.805 60.6322 280.709C61.3999 280.642 62.0406 280.248 62.3735 279.713L63.7316 280.606ZM59.913 276.186C59.0057 276.266 58.4494 276.821 58.3346 277.759L61.573 277.476C61.4828 276.766 60.9041 276.1 59.913 276.186ZM65.6468 279.004L65.3952 276.129L64.0831 276.244L63.9439 274.652L65.256 274.538L65.1021 272.779L66.8888 272.622L67.0427 274.381L69.1923 274.193L69.3315 275.784L67.1819 275.972L67.4335 278.848C67.5019 279.63 67.9475 279.9 68.6454 279.839C69.1339 279.796 69.4501 279.712 69.6789 279.594L69.8144 281.143C69.4789 281.327 69.0662 281.434 68.48 281.485C66.7212 281.639 65.797 280.721 65.6468 279.004ZM71.7264 278.472L71.4748 275.597L70.1627 275.712L70.0235 274.12L71.3356 274.006L71.1817 272.247L72.9684 272.091L73.1223 273.849L75.2719 273.661L75.4111 275.253L73.2615 275.441L73.5131 278.316C73.5814 279.098 74.0271 279.368 74.725 279.307C75.2135 279.264 75.5297 279.18 75.7584 279.062L75.894 280.611C75.5585 280.795 75.1458 280.902 74.5596 280.953C72.8008 281.107 71.8766 280.189 71.7264 278.472ZM77.4749 280.557L76.8594 273.522L78.6322 273.367L78.6932 274.065C79.1123 273.55 79.6808 273.135 80.4764 273.065C80.7137 273.044 80.9268 273.068 81.0992 273.109L81.2518 274.854C81.0236 274.818 80.7826 274.797 80.4616 274.825C79.5962 274.9 79.0793 275.424 78.8532 275.894L79.2477 280.402L77.4749 280.557ZM89.2223 278.376C88.6432 279.313 87.6021 279.953 86.276 280.069C83.7774 280.287 82.215 278.666 82.0354 276.614C81.8535 274.534 83.0154 272.702 85.3185 272.501C87.2727 272.33 88.6729 273.544 88.8341 275.386C88.8683 275.777 88.8442 276.145 88.8092 276.387L83.8818 276.818C84.1641 278.116 85.0201 278.575 86.1228 278.479C86.8905 278.412 87.5312 278.018 87.8641 277.482L89.2223 278.376ZM85.4037 273.956C84.4963 274.036 83.9401 274.591 83.8253 275.529L87.0637 275.246C86.9735 274.536 86.3947 273.87 85.4037 273.956ZM93.8811 275.578C93.7016 273.526 94.9029 271.662 97.1223 271.468C98.0715 271.385 98.7811 271.619 99.3731 272.115L99.0238 268.123L100.811 267.967L101.726 278.436L99.9397 278.592L99.8909 278.034C99.3941 278.626 98.7358 278.979 97.7866 279.062C95.5672 279.256 94.0606 277.63 93.8811 275.578ZM95.7376 275.415C95.845 276.644 96.6909 277.47 97.8914 277.365C98.687 277.295 99.3137 276.903 99.7321 276.219L99.5319 273.93C99.0011 273.329 98.3157 273.052 97.5201 273.121C96.3197 273.226 95.6301 274.187 95.7376 275.415ZM110.228 276.539C109.649 277.475 108.608 278.115 107.282 278.231C104.783 278.45 103.221 276.828 103.041 274.776C102.859 272.696 104.021 270.865 106.324 270.663C108.279 270.492 109.679 271.706 109.84 273.548C109.874 273.939 109.85 274.307 109.815 274.549L104.888 274.98C105.17 276.278 106.026 276.737 107.129 276.641C107.896 276.574 108.537 276.18 108.87 275.645L110.228 276.539ZM106.41 272.119C105.502 272.198 104.946 272.753 104.831 273.691L108.07 273.408C107.979 272.699 107.401 272.032 106.41 272.119ZM115.697 277.213L115.082 270.178L116.855 270.023L116.901 270.554C117.335 270.052 117.905 269.65 118.77 269.574C119.664 269.496 120.48 269.819 121.006 270.532C121.455 269.874 122.078 269.285 123.265 269.181C124.717 269.054 125.949 269.959 126.123 271.941L126.501 276.268L124.714 276.425L124.342 272.167C124.268 271.316 123.76 270.826 122.965 270.895C122.197 270.962 121.825 271.529 121.587 272.028C121.61 272.125 121.618 272.223 121.628 272.334L122.007 276.661L120.22 276.818L119.847 272.56C119.773 271.709 119.266 271.219 118.47 271.288C117.661 271.359 117.294 271.996 117.068 272.466L117.47 277.058L115.697 277.213ZM131.235 268.484C133.524 268.284 135.235 269.836 135.419 271.943C135.604 274.051 134.188 275.877 131.899 276.077C129.61 276.278 127.899 274.725 127.714 272.618C127.53 270.51 128.945 268.684 131.235 268.484ZM131.78 274.4C132.911 274.301 133.683 273.319 133.577 272.105C133.469 270.876 132.54 270.057 131.409 270.156C130.236 270.259 129.449 271.228 129.557 272.456C129.664 273.685 130.608 274.502 131.78 274.4ZM137.484 272.719L137.232 269.844L135.92 269.959L135.781 268.367L137.093 268.253L136.939 266.494L138.726 266.337L138.88 268.096L141.03 267.908L141.169 269.499L139.019 269.688L139.271 272.563C139.339 273.345 139.785 273.615 140.483 273.554C140.971 273.511 141.287 273.427 141.516 273.309L141.652 274.858C141.316 275.042 140.904 275.149 140.317 275.2C138.558 275.354 137.634 274.436 137.484 272.719ZM143.403 266.463C142.775 266.518 142.198 266.034 142.143 265.406C142.088 264.777 142.572 264.201 143.2 264.146C143.828 264.091 144.391 264.576 144.446 265.204C144.501 265.832 144.031 266.408 143.403 266.463ZM143.233 274.804L142.617 267.769L144.39 267.614L145.005 274.649L143.233 274.804ZM145.511 267.516L147.409 267.35L149.677 272.215L151.052 267.031L152.965 266.864L151.012 274.124L148.681 274.328L145.511 267.516ZM156.561 273.849C155.151 273.973 154.117 273.247 154.003 271.949C153.911 270.888 154.665 270.021 156.15 269.638L158.268 269.087L158.252 268.905C158.187 268.165 157.587 267.74 156.778 267.81C156.094 267.87 155.592 268.238 155.26 268.787L153.875 267.91C154.427 266.989 155.414 266.368 156.698 266.256C158.736 266.078 159.889 267.201 160.025 268.75L160.423 273.3L158.65 273.456L158.59 272.772C158.191 273.355 157.384 273.777 156.561 273.849ZM155.755 271.712C155.796 272.186 156.2 272.46 156.8 272.408C157.61 272.337 158.163 271.909 158.463 271.32L158.377 270.329L156.726 270.755C155.997 270.945 155.717 271.279 155.755 271.712ZM162.675 270.515L162.423 267.64L161.111 267.755L160.972 266.163L162.284 266.049L162.13 264.29L163.917 264.134L164.071 265.892L166.22 265.704L166.36 267.296L164.21 267.484L164.462 270.359C164.53 271.141 164.976 271.411 165.673 271.35C166.162 271.307 166.478 271.223 166.707 271.105L166.842 272.654C166.507 272.838 166.094 272.945 165.508 272.996C163.749 273.15 162.825 272.232 162.675 270.515ZM168.594 264.259C167.966 264.314 167.389 263.83 167.334 263.202C167.279 262.574 167.763 261.997 168.391 261.942C169.019 261.887 169.582 262.372 169.637 263C169.692 263.628 169.222 264.204 168.594 264.259ZM168.423 272.6L167.808 265.565L169.581 265.41L170.196 272.445L168.423 272.6ZM175.032 264.652C177.321 264.452 179.032 266.004 179.217 268.112C179.401 270.219 177.986 272.045 175.696 272.245C173.407 272.446 171.696 270.894 171.512 268.786C171.327 266.678 172.743 264.852 175.032 264.652ZM175.578 270.568C176.708 270.469 177.481 269.487 177.374 268.273C177.267 267.045 176.337 266.226 175.207 266.325C174.034 266.427 173.247 267.396 173.354 268.625C173.462 269.853 174.405 270.671 175.578 270.568ZM181.141 271.488L180.526 264.453L182.299 264.298L182.348 264.856C182.795 264.339 183.419 263.918 184.354 263.836C185.876 263.703 187.182 264.644 187.364 266.724L187.73 270.911L185.943 271.068L185.583 266.95C185.501 266.015 184.919 265.475 184.054 265.551C183.161 265.629 182.739 266.27 182.512 266.74L182.914 271.333L181.141 271.488Z" fill="#EEF1F8"/>
</g>
<path d="M239.692 250.598C239.725 250.722 239.734 250.851 239.716 250.978C239.699 251.106 239.657 251.228 239.592 251.339C239.462 251.561 239.25 251.723 239.001 251.79C238.752 251.857 238.487 251.822 238.263 251.695C238.038 251.565 237.874 251.351 237.805 251.101L236.967 247.972C236.901 247.722 236.936 247.456 237.065 247.232C237.194 247.008 237.406 246.844 237.656 246.775C237.779 246.742 237.909 246.733 238.036 246.751C238.163 246.768 238.286 246.81 238.396 246.875C238.508 246.939 238.606 247.025 238.684 247.127C238.763 247.229 238.82 247.345 238.854 247.469L239.692 250.598ZM252.38 270.087C252.354 269.952 252.38 269.812 252.453 269.695C252.526 269.578 252.641 269.494 252.774 269.458C252.907 269.422 253.048 269.438 253.17 269.503C253.292 269.567 253.385 269.675 253.43 269.806L254.073 272.207C254.098 272.278 254.108 272.353 254.102 272.428C254.096 272.502 254.075 272.575 254.04 272.641C254.005 272.708 253.957 272.766 253.898 272.813C253.84 272.859 253.772 272.893 253.7 272.913C253.627 272.932 253.552 272.936 253.477 272.925C253.403 272.914 253.332 272.888 253.269 272.848C253.205 272.808 253.151 272.756 253.109 272.694C253.066 272.632 253.037 272.562 253.023 272.489L252.38 270.087ZM248.994 269.856C248.968 269.721 248.995 269.581 249.068 269.464C249.141 269.348 249.256 269.263 249.389 269.227C249.522 269.192 249.663 269.208 249.785 269.272C249.907 269.337 249.999 269.445 250.045 269.575L250.972 273.038C250.997 273.109 251.007 273.184 251.001 273.259C250.995 273.333 250.974 273.406 250.939 273.472C250.904 273.538 250.856 273.597 250.797 273.643C250.739 273.69 250.671 273.724 250.599 273.744C250.526 273.763 250.451 273.767 250.377 273.756C250.302 273.745 250.231 273.719 250.168 273.679C250.105 273.639 250.05 273.587 250.008 273.525C249.965 273.463 249.936 273.393 249.922 273.319L248.994 269.856ZM240.624 269.821C240.584 269.812 240.546 269.8 240.509 269.783C239.325 269.256 238.143 268.724 236.964 268.186C236.612 268.018 236.225 267.939 235.835 267.954C235.639 267.958 235.448 268.018 235.285 268.128C235.223 268.175 235.172 268.234 235.133 268.301C235.095 268.368 235.07 268.442 235.061 268.519C235.029 268.836 235.074 269.156 235.192 269.452C235.335 269.827 235.541 270.176 235.799 270.483C236.15 270.911 236.547 271.3 236.982 271.642L243.904 277.772C243.98 277.841 244.04 277.928 244.079 278.024C244.287 278.638 244.628 279.199 245.077 279.667C245.183 279.774 245.315 279.85 245.46 279.888C245.606 279.926 245.758 279.924 245.902 279.882C248.41 279.21 251.065 278.397 253.573 277.827C254.039 277.696 254.455 277.427 254.766 277.056C255.164 276.553 255.445 275.968 255.588 275.343L255.641 275.159C256.15 273.269 256.646 271.434 256.222 269.529L255.605 267.347L255.58 267.256L255.443 266.743C255.031 265.139 254.402 262.68 253.006 262.797L252.145 263.028C252.354 263.707 252.519 264.421 252.64 265.075C252.719 265.46 252.795 265.819 252.881 266.142C252.927 266.313 252.903 266.495 252.815 266.648C252.726 266.801 252.581 266.913 252.41 266.958C252.239 267.004 252.058 266.98 251.905 266.892C251.752 266.803 251.64 266.658 251.594 266.487C251.512 266.181 251.428 265.779 251.343 265.36C251.004 263.74 250.553 261.576 249.385 261.662L248.549 261.886C248.494 261.902 248.438 261.91 248.382 261.91C248.622 262.671 248.817 263.445 248.965 264.23C249.047 264.614 249.119 264.973 249.206 265.297C249.235 265.383 249.246 265.474 249.239 265.565C249.232 265.656 249.206 265.745 249.163 265.825C249.12 265.905 249.061 265.976 248.989 266.033C248.918 266.09 248.835 266.131 248.747 266.155C248.659 266.178 248.567 266.184 248.477 266.17C248.387 266.157 248.3 266.125 248.223 266.077C248.146 266.029 248.079 265.965 248.027 265.89C247.975 265.815 247.939 265.73 247.921 265.641C247.839 265.334 247.756 264.933 247.667 264.514C247.332 262.893 246.88 260.73 245.709 260.817L244.873 261.041C244.817 261.057 244.759 261.065 244.7 261.063L245.583 264.359C245.613 264.446 245.624 264.537 245.616 264.628C245.609 264.719 245.583 264.807 245.54 264.888C245.497 264.968 245.438 265.039 245.367 265.095C245.295 265.152 245.213 265.194 245.125 265.217C245.037 265.241 244.945 265.246 244.855 265.233C244.764 265.219 244.678 265.188 244.6 265.139C244.523 265.091 244.456 265.028 244.404 264.953C244.353 264.878 244.317 264.793 244.299 264.703L242.507 258.017C242.209 256.902 241.561 256.314 240.9 256.175C240.669 256.126 240.431 256.131 240.202 256.189C239.974 256.247 239.762 256.357 239.583 256.51L239.56 256.534C239.058 256.967 238.8 257.81 239.107 258.955L242.242 270.656C242.288 270.827 242.264 271.009 242.175 271.162C242.087 271.315 241.942 271.427 241.771 271.472C241.6 271.518 241.418 271.494 241.265 271.406C241.112 271.317 241.001 271.172 240.955 271.001L240.638 269.817L240.624 269.821ZM251.652 261.789C251.704 261.76 251.759 261.737 251.816 261.722L252.705 261.483C252.755 261.47 252.806 261.462 252.857 261.461C255.394 261.199 256.2 264.342 256.724 266.397C256.978 267.344 257.269 268.275 257.533 269.217C258.015 271.45 257.471 273.444 256.924 275.492L256.876 275.669C256.688 276.489 256.317 277.255 255.793 277.913C255.309 278.488 254.661 278.904 253.935 279.103L246.263 281.159C245.907 281.267 245.529 281.279 245.168 281.192C244.806 281.105 244.475 280.923 244.207 280.665C243.631 280.101 243.187 279.416 242.906 278.66L236.159 272.683C235.646 272.279 235.178 271.82 234.765 271.313C234.406 270.884 234.123 270.396 233.93 269.871C233.743 269.37 233.681 268.831 233.748 268.301C233.819 267.808 234.08 267.364 234.477 267.063C234.848 266.795 235.29 266.642 235.748 266.624C236.358 266.598 236.965 266.719 237.518 266.977L240.185 268.195L237.803 259.304C237.347 257.605 237.817 256.314 238.653 255.547L238.691 255.519C239.017 255.234 239.404 255.028 239.822 254.917C240.257 254.801 240.713 254.788 241.153 254.88C242.267 255.113 243.327 256.005 243.775 257.677L244.342 259.795C244.393 259.765 244.447 259.743 244.503 259.727L245.392 259.489C245.442 259.476 245.493 259.468 245.544 259.466C246.654 259.351 247.377 259.919 247.874 260.774C247.959 260.681 248.069 260.614 248.19 260.582L249.076 260.345C249.126 260.331 249.177 260.323 249.228 260.322C250.411 260.199 251.161 260.846 251.651 261.796L251.652 261.789ZM234.13 258.769C234.253 258.736 234.381 258.728 234.507 258.746C234.633 258.763 234.755 258.805 234.865 258.87C235.032 258.967 235.167 259.111 235.253 259.284C235.339 259.457 235.371 259.652 235.346 259.844C235.321 260.036 235.24 260.216 235.113 260.361C234.985 260.507 234.818 260.611 234.631 260.662L231.505 261.499C231.381 261.533 231.252 261.541 231.125 261.524C230.998 261.506 230.875 261.464 230.764 261.399C230.598 261.302 230.464 261.158 230.379 260.984C230.294 260.811 230.262 260.617 230.287 260.426C230.312 260.235 230.393 260.055 230.519 259.91C230.646 259.764 230.812 259.659 230.998 259.608L234.13 258.769ZM235.234 253.561C235.401 253.657 235.537 253.801 235.622 253.975C235.708 254.149 235.74 254.344 235.715 254.536C235.69 254.728 235.608 254.908 235.48 255.053C235.352 255.199 235.184 255.303 234.997 255.353C234.746 255.42 234.479 255.384 234.254 255.253L231.457 253.632C231.232 253.502 231.068 253.288 230.999 253.038C230.949 252.851 230.955 252.653 231.017 252.47C231.079 252.286 231.195 252.125 231.348 252.008C231.502 251.89 231.687 251.82 231.88 251.807C232.073 251.795 232.266 251.84 232.433 251.937L235.234 253.561ZM247.055 257.339C246.804 257.405 246.537 257.37 246.312 257.24C246.087 257.11 245.922 256.896 245.854 256.645C245.787 256.394 245.822 256.126 245.952 255.9C246.082 255.674 246.296 255.509 246.547 255.441L249.676 254.603C249.8 254.569 249.93 254.561 250.058 254.578C250.185 254.595 250.308 254.637 250.419 254.702C250.586 254.8 250.72 254.944 250.805 255.118C250.89 255.291 250.921 255.486 250.896 255.677C250.871 255.868 250.79 256.048 250.663 256.193C250.536 256.339 250.369 256.444 250.183 256.495L247.055 257.339ZM244.634 252.293C244.505 252.518 244.291 252.682 244.04 252.749C243.789 252.816 243.522 252.781 243.297 252.651C243.072 252.521 242.908 252.307 242.841 252.057C242.774 251.806 242.809 251.539 242.939 251.314L244.545 248.494C244.675 248.27 244.889 248.106 245.14 248.038C245.391 247.971 245.658 248.006 245.883 248.136C246.108 248.266 246.272 248.48 246.339 248.731C246.406 248.981 246.371 249.249 246.241 249.473L244.634 252.293Z" fill="black"/>
<rect x="43.1382" y="309.238" width="148.126" height="31.0271" rx="7.5" transform="rotate(-5 43.1382 309.238)" stroke="#878787"/>
<path d="M53.9996 329.888L53.1447 320.118L55.9085 319.876C57.9604 319.696 59.3119 320.675 59.4634 322.406C59.5672 323.592 59.0578 324.523 58.0767 325.045L61.5651 329.227L59.6667 329.393L56.5833 325.499C56.5135 325.505 56.4577 325.51 56.4019 325.515L55.2294 325.618L55.5908 329.749L53.9996 329.888ZM56.1107 321.222L54.8545 321.332L55.1109 324.264L56.3672 324.154C57.3582 324.067 57.8817 323.459 57.7999 322.523C57.7229 321.644 57.1018 321.136 56.1107 321.222ZM68.9804 327.424C68.4013 328.361 67.3741 329 66.062 329.114C63.6332 329.327 62.0429 327.708 61.8633 325.656C61.6789 323.548 62.8712 321.742 65.1046 321.547C67.0448 321.377 68.4171 322.593 68.5734 324.38C68.6015 324.701 68.5877 325.026 68.5502 325.24L63.3576 325.694C63.5896 327.221 64.5945 327.935 65.9484 327.816C66.7999 327.742 67.4788 327.303 67.8603 326.679L68.9804 327.424ZM65.1817 322.75C64.1348 322.841 63.4614 323.505 63.3334 324.613L67.1161 324.282C67.0113 323.405 66.3123 322.651 65.1817 322.75ZM73.9857 327.057C74.7814 326.987 75.3893 326.54 75.7325 325.962L76.9388 326.728C76.3725 327.65 75.3884 328.298 74.0902 328.412C71.7312 328.618 70.099 327.003 69.9195 324.951C69.74 322.899 71.0669 321.025 73.4259 320.819C74.7101 320.706 75.8058 321.173 76.5236 321.982L75.4687 322.947C75.0302 322.436 74.354 322.102 73.5444 322.173C72.1904 322.291 71.3061 323.437 71.427 324.819C71.5491 326.215 72.6178 327.177 73.9857 327.057ZM78.5418 327.741L77.6259 317.272L79.0636 317.147L79.4239 321.264C79.9055 320.66 80.568 320.194 81.573 320.106C83.1363 319.969 84.4004 320.913 84.5787 322.951L84.9488 327.181L83.4971 327.308L83.1319 323.134C83.0342 322.017 82.3615 321.401 81.3564 321.489C80.3933 321.573 79.8875 322.222 79.5643 322.87L79.9795 327.616L78.5418 327.741ZM93.4351 325.285C92.856 326.222 91.8288 326.86 90.5167 326.975C88.0879 327.187 86.4975 325.568 86.318 323.516C86.1336 321.409 87.3259 319.603 89.5592 319.407C91.4995 319.237 92.8717 320.454 93.0281 322.24C93.0561 322.561 93.0424 322.886 93.0048 323.1L87.8123 323.555C88.0443 325.081 89.0491 325.795 90.4031 325.677C91.2546 325.602 91.9335 325.163 92.3149 324.539L93.4351 325.285ZM89.6363 320.61C88.5894 320.702 87.9161 321.365 87.788 322.474L91.5708 322.143C91.4659 321.266 90.767 320.511 89.6363 320.61ZM95.2811 326.277L94.6656 319.242L96.1034 319.116L96.173 319.912C96.6139 319.324 97.1939 318.88 98.0593 318.804C98.2826 318.785 98.4957 318.808 98.682 318.848L98.8054 320.258C98.5771 320.222 98.3501 320.199 98.057 320.225C97.1637 320.303 96.6189 320.829 96.3085 321.461L96.7189 326.151L95.2811 326.277ZM103.716 324.456C104.511 324.386 105.119 323.939 105.462 323.361L106.669 324.127C106.102 325.049 105.118 325.697 103.82 325.811C101.461 326.017 99.829 324.402 99.6495 322.35C99.47 320.298 100.797 318.424 103.156 318.218C104.44 318.105 105.536 318.572 106.254 319.381L105.199 320.346C104.76 319.835 104.084 319.501 103.274 319.572C101.92 319.69 101.036 320.836 101.157 322.218C101.279 323.614 102.348 324.576 103.716 324.456ZM108.272 325.14L107.356 314.671L108.794 314.546L109.154 318.663C109.635 318.059 110.298 317.593 111.303 317.505C112.866 317.368 114.13 318.312 114.309 320.35L114.679 324.58L113.227 324.707L112.862 320.533C112.764 319.416 112.091 318.8 111.086 318.888C110.123 318.972 109.617 319.621 109.294 320.269L109.71 325.014L108.272 325.14ZM123.165 322.684C122.586 323.621 121.559 324.259 120.247 324.374C117.818 324.586 116.228 322.967 116.048 320.915C115.864 318.808 117.056 317.002 119.289 316.806C121.229 316.636 122.602 317.853 122.758 319.639C122.786 319.96 122.772 320.285 122.735 320.499L117.542 320.954C117.774 322.48 118.779 323.194 120.133 323.076C120.985 323.001 121.664 322.562 122.045 321.938L123.165 322.684ZM119.366 318.009C118.319 318.101 117.646 318.764 117.518 319.873L121.301 319.542C121.196 318.665 120.497 317.91 119.366 318.009ZM127.907 319.878C127.728 317.826 128.957 315.96 131.176 315.766C132.181 315.678 132.967 315.975 133.608 316.552L133.245 312.406L134.711 312.278L135.627 322.747L134.161 322.875L134.099 322.163C133.568 322.843 132.846 323.272 131.841 323.36C129.621 323.554 128.087 321.93 127.907 319.878ZM129.429 319.745C129.55 321.127 130.55 322.108 131.904 321.99C132.811 321.91 133.555 321.409 133.965 320.628L133.743 318.087C133.159 317.365 132.356 317.027 131.476 317.104C130.122 317.223 129.308 318.363 129.429 319.745ZM144.198 320.844C143.619 321.781 142.592 322.419 141.28 322.534C138.851 322.746 137.261 321.127 137.081 319.075C136.897 316.968 138.089 315.161 140.322 314.966C142.263 314.796 143.635 316.012 143.791 317.799C143.819 318.12 143.806 318.445 143.768 318.659L138.575 319.113C138.808 320.64 139.812 321.354 141.166 321.236C142.018 321.161 142.697 320.722 143.078 320.098L144.198 320.844ZM140.4 316.169C139.353 316.26 138.679 316.924 138.551 318.032L142.334 317.701C142.229 316.825 141.53 316.07 140.4 316.169ZM149.022 320.576L149.937 319.624C150.449 320.17 151.041 320.498 151.738 320.437C152.422 320.377 152.763 319.926 152.716 319.395C152.592 317.971 149.189 318.79 148.972 316.305C148.87 315.146 149.767 314.14 151.177 314.016C152.21 313.926 153.161 314.349 153.722 314.975L152.819 315.912C152.399 315.443 151.879 315.136 151.293 315.188C150.623 315.246 150.322 315.666 150.364 316.141C150.487 317.551 153.894 316.775 154.105 319.189C154.212 320.572 153.167 321.494 151.855 321.609C150.669 321.712 149.748 321.315 149.022 320.576ZM156.364 318.471L156.076 315.177L154.75 315.293L154.636 313.995L155.962 313.879L155.808 312.12L157.26 311.993L157.414 313.752L159.745 313.548L159.858 314.846L157.527 315.05L157.816 318.344C157.899 319.293 158.428 319.557 159.21 319.488C159.684 319.447 160 319.363 160.243 319.243L160.354 320.513C160.031 320.682 159.647 320.786 159.102 320.834C157.455 320.978 156.514 320.188 156.364 318.471ZM164.033 320.473C162.638 320.595 161.619 319.882 161.51 318.64C161.417 317.579 162.174 316.739 163.645 316.357L165.887 315.781L165.856 315.419C165.78 314.553 165.091 314.079 164.184 314.158C163.416 314.225 162.847 314.627 162.492 315.235L161.345 314.505C161.9 313.613 162.859 312.994 164.115 312.884C166.013 312.718 167.158 313.743 167.293 315.293L167.7 319.941L166.262 320.067L166.193 319.271C165.744 319.929 164.899 320.397 164.033 320.473ZM162.957 318.457C163.004 319.001 163.47 319.341 164.196 319.277C165.075 319.2 165.723 318.721 166.083 318.015L165.977 316.8L164.106 317.288C163.24 317.518 162.91 317.927 162.957 318.457ZM169.31 321.066C169.248 320.354 169.548 319.765 170.161 319.219C169.831 318.981 169.644 318.618 169.612 318.255C169.564 317.696 169.79 317.226 170.301 316.802C169.647 316.395 169.235 315.714 169.167 314.932C169.049 313.578 169.998 312.37 171.715 312.219C172.245 312.173 172.714 312.23 173.121 312.378L175.717 312.151L175.825 313.379L174.443 313.5C174.594 313.782 174.693 314.111 174.723 314.446C174.842 315.814 173.894 317.036 172.149 317.189C171.842 317.216 171.56 317.198 171.289 317.165C171.082 317.366 170.975 317.587 170.993 317.796C171.019 318.089 171.187 318.243 171.564 318.21L173.476 318.043C175.291 317.884 176.28 318.74 176.391 320.01C176.524 321.532 175.145 322.806 173.009 322.993C170.845 323.182 169.436 322.504 169.31 321.066ZM172.067 316.085C172.974 316.005 173.452 315.359 173.383 314.563C173.314 313.781 172.732 313.242 171.825 313.321C170.918 313.4 170.439 314.033 170.507 314.815C170.577 315.61 171.16 316.164 172.067 316.085ZM170.661 320.751C170.729 321.533 171.552 321.939 172.878 321.823C174.274 321.701 175.036 321.085 174.964 320.262C174.912 319.662 174.521 319.218 173.446 319.312L171.213 319.507C170.849 319.848 170.617 320.248 170.661 320.751ZM183.647 317.392C183.068 318.329 182.041 318.968 180.729 319.082C178.3 319.295 176.71 317.676 176.53 315.624C176.346 313.516 177.538 311.71 179.772 311.515C181.712 311.345 183.084 312.561 183.24 314.348C183.269 314.669 183.255 314.993 183.217 315.208L178.025 315.662C178.257 317.189 179.262 317.903 180.615 317.784C181.467 317.71 182.146 317.271 182.527 316.646L183.647 317.392ZM179.849 312.717C178.802 312.809 178.128 313.473 178 314.581L181.783 314.25C181.678 313.373 180.979 312.619 179.849 312.717Z" fill="#161616"/>
<rect x="199.673" y="295.543" width="54.0465" height="31.0271" rx="7.5" transform="rotate(-5 199.673 295.543)" stroke="#878787"/>
<path d="M209.334 316.298L212.29 306.194L214.411 306.008L219.077 315.446L217.36 315.596L216.088 312.951L211.83 313.323L211.037 316.149L209.334 316.298ZM212.241 311.909L215.437 311.629L213.477 307.553L212.241 311.909ZM225.028 311.887L224.676 307.867L226.128 307.74L226.474 311.69C226.658 313.798 225.554 315.161 223.585 315.333C221.603 315.506 220.279 314.356 220.095 312.249L219.749 308.298L221.201 308.171L221.552 312.191C221.659 313.406 222.364 314.075 223.467 313.979C224.542 313.885 225.134 313.102 225.028 311.887ZM229.215 312.098L228.927 308.803L227.601 308.919L227.488 307.621L228.814 307.505L228.66 305.746L230.112 305.619L230.265 307.378L232.596 307.174L232.71 308.472L230.379 308.676L230.667 311.971C230.75 312.92 231.28 313.183 232.061 313.114C232.536 313.073 232.852 312.989 233.095 312.869L233.206 314.14C232.883 314.308 232.498 314.412 231.954 314.46C230.307 314.604 229.366 313.814 229.215 312.098ZM234.926 314.059L234.311 307.024L235.749 306.898L235.818 307.694C236.259 307.107 236.839 306.662 237.705 306.587C237.928 306.567 238.141 306.591 238.327 306.631L238.451 308.041C238.222 308.004 237.995 307.982 237.702 308.008C236.809 308.086 236.264 308.612 235.954 309.244L236.364 313.934L234.926 314.059ZM246.412 311.901C245.833 312.838 244.806 313.476 243.493 313.591C241.065 313.804 239.474 312.185 239.295 310.133C239.11 308.025 240.303 306.219 242.536 306.023C244.476 305.854 245.849 307.07 246.005 308.856C246.033 309.178 246.019 309.502 245.982 309.716L240.789 310.171C241.021 311.698 242.026 312.411 243.38 312.293C244.231 312.219 244.91 311.779 245.292 311.155L246.412 311.901ZM242.613 307.226C241.566 307.318 240.893 307.982 240.765 309.09L244.548 308.759C244.443 307.882 243.744 307.127 242.613 307.226Z" fill="#161616"/>
<path d="M33.4045 103.132L25.1369 96.1987C24.9571 96.048 24.825 95.8789 24.7404 95.6913C24.6548 95.5039 24.6028 95.2993 24.5846 95.0777C24.5664 94.856 24.5842 94.6449 24.6381 94.4444C24.6908 94.2441 24.7934 94.053 24.9458 93.8712L31.958 85.5099C32.2374 85.1767 32.6125 84.9881 33.083 84.9441C33.5536 84.9002 33.9536 85.0163 34.2831 85.2927C34.6126 85.569 34.7967 85.9427 34.8354 86.4137C34.8741 86.8848 34.7537 87.2869 34.4742 87.6202L28.5291 94.7091L35.5386 100.588C35.8681 100.864 36.0522 101.238 36.0909 101.709C36.1295 102.18 36.0091 102.582 35.7297 102.915C35.4502 103.248 35.0752 103.437 34.6046 103.481C34.134 103.525 33.734 103.409 33.4045 103.132Z" fill="#161616"/>
<path d="M68.7011 95.2658C70.6144 95.0871 72.0444 94.0126 72.8891 92.5587L75.7367 94.3672C74.377 96.593 71.9998 98.166 68.9624 98.4498C63.677 98.9437 59.7316 95.2114 59.3386 90.4234C58.9455 85.6355 62.2228 81.2283 67.5083 80.7344C70.5456 80.4506 73.1449 81.5827 74.8426 83.4746L72.3349 85.8077C71.2663 84.5325 69.6829 83.7396 67.7696 83.9184C64.6127 84.2134 62.567 86.8892 62.8303 90.0972C63.0936 93.3051 65.5442 95.5608 68.7011 95.2658ZM78.5191 97.0744L77.5287 85.0088L80.566 84.7249L80.6643 85.9219C81.3867 85.0342 82.364 84.3157 83.7272 84.1883C84.1338 84.1503 84.4985 84.1886 84.7933 84.2576L85.0389 87.2501C84.6484 87.19 84.236 87.1562 83.6859 87.2076C82.2031 87.3462 81.3133 88.2495 80.9217 89.058L81.5565 96.7906L78.5191 97.0744ZM93.581 81.579L90.6633 81.8516L92.8243 77.6452L96.1247 77.3368L93.581 81.579ZM98.6571 93.2146C97.6569 94.8278 95.8681 95.9358 93.596 96.1481C89.3151 96.5481 86.6539 93.7813 86.365 90.2622C86.0722 86.6952 88.0786 83.5405 92.0248 83.1718C95.373 82.8589 97.76 84.9276 98.0194 88.0877C98.0744 88.758 98.0299 89.3893 97.9676 89.8053L89.5252 90.5941C89.9969 92.8176 91.4587 93.5977 93.3481 93.4212C94.6635 93.2983 95.7643 92.6165 96.3393 91.6943L98.6571 93.2146ZM92.1574 85.6682C90.6029 85.8135 89.6452 86.7714 89.4401 88.3827L94.9886 87.8643C94.8406 86.6478 93.8555 85.5096 92.1574 85.6682ZM112.414 91.9292C111.413 93.5424 109.625 94.6504 107.352 94.8627C103.071 95.2627 100.41 92.4959 100.121 88.9768C99.8287 85.4098 101.835 82.2551 105.781 81.8864C109.129 81.5735 111.516 83.6422 111.776 86.8023C111.831 87.4726 111.786 88.104 111.724 88.5199L103.282 89.3087C103.753 91.5322 105.215 92.3123 107.105 92.1358C108.42 92.0129 109.521 91.3311 110.096 90.4089L112.414 91.9292ZM105.914 84.3828C104.359 84.5281 103.402 85.486 103.197 87.0973L108.745 86.5789C108.597 85.3624 107.612 84.2242 105.914 84.3828ZM115.328 93.6351L114.337 81.5694L117.374 81.2856L117.473 82.4826C118.195 81.5949 119.172 80.8764 120.536 80.749C120.942 80.711 121.307 80.7493 121.602 80.8182L121.847 83.8107C121.457 83.7507 121.044 83.7169 120.494 83.7683C119.011 83.9068 118.122 84.8102 117.73 85.6187L118.365 93.3512L115.328 93.6351ZM139.001 86.1641L138.439 79.3173L141.501 79.0313L142.051 85.7344C142.348 89.3493 140.426 91.7724 136.886 92.1031C133.346 92.4338 131.083 90.4019 130.786 86.787L130.236 80.0838L133.297 79.7978L133.859 86.6445C134.003 88.3922 135 89.3845 136.674 89.2281C138.324 89.0739 139.145 87.9117 139.001 86.1641ZM145.853 90.7827L144.863 78.7171L147.9 78.4333L147.979 79.3909C148.749 78.4987 149.822 77.7713 151.424 77.6215C154.031 77.3779 156.259 78.979 156.552 82.546L157.142 89.728L154.08 90.014L153.501 82.9518C153.369 81.3478 152.378 80.4273 150.895 80.5658C149.364 80.7088 148.636 81.8142 148.244 82.6228L148.891 90.4989L145.853 90.7827ZM171.527 86.4057C170.526 88.019 168.737 89.1269 166.465 89.3392C162.184 89.7392 159.523 86.9725 159.234 83.4533C158.942 79.8863 160.948 76.7316 164.894 76.3629C168.242 76.0501 170.629 78.1187 170.889 81.2788C170.944 81.9491 170.899 82.5805 170.837 82.9964L162.395 83.7852C162.866 86.0088 164.328 86.7889 166.218 86.6123C167.533 86.4894 168.634 85.8076 169.209 84.8854L171.527 86.4057ZM165.027 78.8594C163.472 79.0046 162.515 79.9625 162.31 81.5739L167.858 81.0554C167.71 79.8389 166.725 78.7007 165.027 78.8594ZM184.312 87.551C181.897 87.7767 180.132 86.5424 179.95 84.316C179.8 82.4966 181.099 81.0002 183.647 80.3279L187.279 79.3613L187.253 79.0501C187.149 77.7813 186.126 77.0568 184.739 77.1864C183.567 77.2959 182.703 77.9314 182.13 78.8775L179.766 77.3856C180.721 75.8008 182.416 74.7257 184.616 74.5201C188.108 74.1938 190.073 76.109 190.291 78.7663L190.931 86.5707L187.894 86.8545L187.798 85.6814C187.109 86.6866 185.723 87.4192 184.312 87.551ZM182.951 83.8908C183.018 84.7048 183.707 85.1711 184.736 85.075C186.123 84.9454 187.074 84.2052 187.593 83.1917L187.454 81.492L184.623 82.2389C183.373 82.5728 182.89 83.1487 182.951 83.8908ZM200.001 83.3109C201.196 83.1992 202.108 82.5592 202.613 81.6677L205.13 83.2658C204.128 84.8551 202.437 85.9781 200.237 86.1837C196.075 86.5725 193.342 83.8125 193.053 80.2933C192.764 76.7742 195.006 73.5493 199.167 73.1604C201.368 72.9549 203.216 73.7471 204.462 75.1263L202.244 77.167C201.601 76.3827 200.599 75.9215 199.355 76.0377C197.37 76.2232 196.037 77.8916 196.21 79.9983C196.385 82.129 197.968 83.5009 200.001 83.3109ZM208.079 80.5297L207.674 75.5981L205.426 75.8082L205.202 73.079L207.45 72.869L207.203 69.8526L210.264 69.5665L210.512 72.5829L214.195 72.2388L214.419 74.9679L210.736 75.3121L211.14 80.2437C211.251 81.5843 212.011 82.0439 213.207 81.9322C214.044 81.854 214.586 81.7068 214.979 81.5012L215.197 84.1586C214.621 84.4778 213.913 84.6645 212.909 84.7584C209.895 85.0399 208.321 83.4743 208.079 80.5297ZM218.273 69.7349C217.196 69.8355 216.213 69.0107 216.124 67.9334C216.036 66.8561 216.87 65.8615 217.946 65.7609C219.023 65.6603 219.982 66.4874 220.071 67.5647C220.159 68.6419 219.349 69.6343 218.273 69.7349ZM217.905 84.0503L216.915 71.9846L219.952 71.7008L220.943 83.7665L217.905 84.0503ZM229.295 70.3454C233.217 69.9789 236.134 72.6253 236.43 76.2402C236.727 79.8551 234.286 83.0021 230.364 83.3686C226.442 83.7351 223.525 81.0887 223.229 77.4738C222.932 73.8588 225.373 70.7118 229.295 70.3454ZM230.176 80.4913C232.113 80.3103 233.444 78.6179 233.273 76.5352C233.101 74.4285 231.516 73.0326 229.579 73.2137C227.57 73.4014 226.213 75.0721 226.386 77.1788C226.559 79.2855 228.167 80.6791 230.176 80.4913ZM239.696 82.0142L238.706 69.9485L241.743 69.6647L241.822 70.6223C242.592 69.7301 243.665 69.0027 245.267 68.8529C247.874 68.6094 250.102 70.2104 250.395 73.7774L250.984 80.9594L247.923 81.2454L247.343 74.1832C247.212 72.5792 246.22 71.6587 244.738 71.7972C243.207 71.9402 242.478 73.0456 242.087 73.8542L242.733 81.7304L239.696 82.0142Z" fill="#3B69D1"/>
<g filter="url(#filter0_d_8452_5813)">
<rect x="28.0237" y="409.625" width="320.271" height="68.0575" rx="10" transform="rotate(-5 28.0237 409.625)" fill="white" shape-rendering="crispEdges"/>
<path d="M54.744 439.437L57.7352 439.175L57.2118 433.193L63.194 432.669L63.7174 438.652L66.7085 438.39L65.9234 429.417L59.5487 425.453L53.959 430.463L54.744 439.437ZM54.9185 441.431C54.3701 441.479 53.8838 441.325 53.4595 440.969C53.0344 440.612 52.7979 440.16 52.75 439.611L51.9649 430.638C51.9373 430.322 51.9819 430.017 52.0988 429.722C52.215 429.427 52.3897 429.177 52.623 428.973L58.2127 423.963C58.3838 423.814 58.5662 423.697 58.7598 423.614C58.9534 423.53 59.1582 423.478 59.3742 423.459C59.5902 423.44 59.8009 423.455 60.0061 423.504C60.2113 423.554 60.4111 423.637 60.6055 423.753L66.9803 427.717C67.2455 427.878 67.4613 428.093 67.6276 428.363C67.7932 428.634 67.8899 428.926 67.9175 429.242L68.7026 438.216C68.7505 438.764 68.5965 439.251 68.2406 439.676C67.8839 440.1 67.4313 440.336 66.8829 440.384L61.8978 440.82L61.3744 434.838L59.3803 435.012L59.9037 440.995L54.9185 441.431Z" fill="#646464"/>
<path d="M45.048 460.378L47.2191 453.156L48.4754 453.046L51.8677 459.782L50.8707 459.869L49.8834 457.886L46.6729 458.167L46.045 460.291L45.048 460.378ZM46.9113 457.332L49.5036 457.105L47.9188 453.918L46.9113 457.332ZM55.2686 458.881C55.8868 458.827 56.3691 458.484 56.6398 458.018L57.3523 458.468C56.9387 459.137 56.2457 459.6 55.3284 459.68C53.6634 459.826 52.4875 458.673 52.3593 457.207C52.2311 455.741 53.1889 454.402 54.8539 454.256C55.7612 454.177 56.5348 454.521 57.0575 455.098L56.4339 455.665C56.0865 455.253 55.5518 454.999 54.9237 455.054C53.8469 455.148 53.1533 456.062 53.2466 457.129C53.3409 458.206 54.1818 458.976 55.2686 458.881ZM60.653 458.41C61.2712 458.356 61.7535 458.013 62.0242 457.547L62.7367 457.997C62.323 458.666 61.6301 459.129 60.7128 459.209C59.0478 459.354 57.8719 458.202 57.7437 456.736C57.6154 455.27 58.5732 453.931 60.2383 453.785C61.1456 453.706 61.9192 454.05 62.4419 454.627L61.8183 455.194C61.4709 454.782 60.9362 454.528 60.3081 454.583C59.2313 454.677 58.5377 455.591 58.631 456.658C58.7252 457.735 59.5662 458.505 60.653 458.41ZM67.2825 456.263L67.0313 453.392L67.8788 453.317L68.1274 456.159C68.2591 457.664 67.4684 458.618 66.1025 458.737C64.7465 458.856 63.8024 458.054 63.6706 456.549L63.422 453.707L64.2695 453.633L64.5207 456.505C64.6071 457.492 65.1852 458.014 66.0427 457.939C66.8802 457.865 67.3689 457.25 67.2825 456.263ZM74.3829 456.978C73.9693 457.647 73.2564 458.111 72.3192 458.193C70.6242 458.342 69.4683 457.187 69.3401 455.721C69.2066 454.196 70.0799 452.924 71.6353 452.788C73.0012 452.668 73.9723 453.548 74.0805 454.784C74.0979 454.984 74.0846 455.176 74.0669 455.318L70.2084 455.655C70.3438 456.859 71.1752 457.52 72.252 457.426C72.9001 457.369 73.4223 457.022 73.7121 456.544L74.3829 456.978ZM71.6781 453.507C70.8506 453.58 70.3151 454.119 70.2115 455.002L73.2225 454.739C73.1281 454.003 72.5655 453.43 71.6781 453.507ZM75.6568 451.321C75.3277 451.35 75.035 451.104 75.0062 450.775C74.9783 450.456 75.2239 450.163 75.553 450.134C75.882 450.106 76.1648 450.352 76.1927 450.671C76.2215 451 75.9858 451.292 75.6568 451.321ZM75.7819 457.689L75.3423 452.664L76.1898 452.59L76.6294 457.615L75.7819 457.689ZM78.4206 457.459L77.7664 449.981L78.6139 449.907L79.2681 457.385L78.4206 457.459Z" fill="#646464"/>
<path d="M121.888 435.572C121.539 435.602 121.243 435.317 121.262 434.963L121.607 428.564L118.117 428.869C117.24 428.946 117.723 428.15 117.74 428.118C118.802 425.785 120.398 422.33 122.507 417.725C122.591 417.537 122.781 417.409 122.98 417.392C123.329 417.361 123.625 417.647 123.606 418L123.262 424.4L126.761 424.094C127.16 424.059 127.396 424.229 127.218 424.717C124.438 430.727 122.826 434.234 122.362 435.239C122.278 435.427 122.098 435.553 121.888 435.572Z" fill="#3B69D1"/>
<path d="M113.698 453.398L114.642 452.361C115.107 452.863 115.694 453.133 116.262 453.083C116.82 453.034 117.133 452.705 117.09 452.207C116.977 450.921 113.837 451.547 113.63 449.184C113.533 448.077 114.371 447.08 115.707 446.963C116.753 446.871 117.592 447.27 118.252 447.926L117.297 448.954C116.842 448.461 116.353 448.152 115.825 448.198C115.326 448.242 115.025 448.59 115.062 449.009C115.172 450.275 118.312 449.639 118.521 452.031C118.616 453.349 117.668 454.226 116.382 454.338C115.205 454.441 114.38 454.082 113.698 453.398ZM123.103 451.359L122.854 448.508L124.13 448.396L124.374 451.188C124.506 452.693 123.71 453.697 122.234 453.826C120.758 453.956 119.81 453.104 119.678 451.599L119.434 448.807L120.71 448.695L120.959 451.547C121.023 452.275 121.441 452.69 122.139 452.629C122.827 452.569 123.167 452.087 123.103 451.359ZM126.093 447.34C125.644 447.379 125.232 447.034 125.193 446.585C125.154 446.136 125.499 445.724 125.948 445.685C126.397 445.646 126.799 445.992 126.838 446.441C126.877 446.89 126.542 447.301 126.093 447.34ZM125.971 453.299L125.532 448.273L126.798 448.163L127.237 453.188L125.971 453.299ZM127.598 448.093L128.954 447.974L130.574 451.449L131.557 447.746L132.923 447.627L131.528 452.812L129.863 452.958L127.598 448.093ZM134.281 446.624C133.833 446.663 133.421 446.317 133.381 445.869C133.342 445.42 133.688 445.008 134.137 444.969C134.585 444.929 134.987 445.276 135.027 445.725C135.066 446.173 134.73 446.585 134.281 446.624ZM134.16 452.582L133.72 447.557L134.986 447.446L135.426 452.471L134.16 452.582Z" fill="#3B69D1"/>
<g clip-path="url(#clip1_8452_5813)">
<path d="M182.427 423.243L188.434 422.717C188.717 422.692 188.941 422.576 189.107 422.369C189.273 422.162 189.344 421.918 189.319 421.635C189.294 421.353 189.178 421.124 188.971 420.949C188.763 420.775 188.517 420.701 188.235 420.725L182.228 421.251C181.945 421.275 181.721 421.391 181.555 421.598C181.389 421.805 181.318 422.05 181.343 422.333C181.367 422.615 181.484 422.844 181.691 423.018C181.899 423.192 182.145 423.267 182.427 423.243ZM182.165 420.252L192.161 419.377C192.443 419.352 192.667 419.236 192.833 419.029C193 418.822 193.07 418.577 193.046 418.295C193.021 418.013 192.904 417.784 192.696 417.609C192.489 417.435 192.244 417.36 191.961 417.385L181.966 418.26C181.683 418.284 181.459 418.4 181.293 418.607C181.127 418.814 181.056 419.059 181.081 419.342C181.106 419.624 181.222 419.853 181.429 420.027C181.638 420.201 181.883 420.276 182.165 420.252ZM181.904 417.26L191.899 416.386C192.181 416.361 192.406 416.246 192.572 416.039C192.738 415.831 192.809 415.586 192.784 415.304C192.759 415.021 192.643 414.793 192.435 414.618C192.227 414.444 191.982 414.369 191.7 414.394L181.704 415.269C181.422 415.293 181.197 415.409 181.031 415.616C180.865 415.823 180.795 416.068 180.819 416.351C180.844 416.633 180.96 416.862 181.168 417.036C181.376 417.211 181.621 417.285 181.904 417.26ZM177.928 429.237L176.57 413.708C176.522 413.16 176.676 412.673 177.033 412.248C177.389 411.824 177.841 411.588 178.389 411.54L194.342 410.144C194.89 410.096 195.377 410.25 195.802 410.606C196.226 410.963 196.462 411.415 196.51 411.964L197.557 423.928C197.605 424.477 197.451 424.963 197.095 425.388C196.738 425.813 196.286 426.049 195.737 426.097L181.779 427.318L179.686 429.812C179.398 430.155 179.043 430.257 178.62 430.118C178.198 429.98 177.967 429.686 177.928 429.237ZM179.713 426.67L180.782 425.396L195.563 424.103L194.516 412.138L178.564 413.534L179.713 426.67Z" fill="#646464"/>
</g>
<path d="M168.476 449.58L167.865 442.601L169.061 442.496L171.503 445.829L173.329 442.123L174.525 442.018L175.136 448.997L174.199 449.079L173.698 443.356L171.955 446.864L171.237 446.927L168.912 443.775L169.413 449.498L168.476 449.58ZM181.482 447.608C181.068 448.277 180.355 448.742 179.418 448.824C177.723 448.972 176.567 447.817 176.439 446.351C176.306 444.826 177.179 443.554 178.734 443.418C180.1 443.298 181.071 444.178 181.179 445.414C181.197 445.614 181.184 445.806 181.166 445.948L177.307 446.286C177.443 447.489 178.274 448.15 179.351 448.056C179.999 447.999 180.521 447.652 180.811 447.175L181.482 447.608ZM178.777 444.138C177.95 444.21 177.414 444.749 177.31 445.632L180.322 445.369C180.227 444.634 179.665 444.06 178.777 444.138ZM182.243 447.682L182.797 447.121C183.184 447.53 183.625 447.742 184.134 447.698C184.692 447.649 184.981 447.282 184.943 446.843C184.844 445.717 182.367 446.335 182.211 444.56C182.142 443.773 182.754 443.066 183.721 442.982C184.439 442.919 185.087 443.204 185.478 443.662L184.934 444.212C184.631 443.856 184.232 443.65 183.793 443.689C183.254 443.736 182.993 444.08 183.027 444.469C183.126 445.596 185.617 445.016 185.767 446.731C185.839 447.669 185.143 448.323 184.205 448.405C183.408 448.474 182.752 448.21 182.243 447.682ZM186.625 447.299L187.179 446.738C187.566 447.146 188.007 447.359 188.515 447.314C189.073 447.265 189.363 446.899 189.324 446.46C189.226 445.333 186.748 445.952 186.593 444.177C186.524 443.389 187.135 442.683 188.102 442.598C188.82 442.536 189.468 442.82 189.86 443.278L189.315 443.828C189.013 443.473 188.613 443.267 188.174 443.305C187.636 443.352 187.375 443.697 187.409 444.086C187.507 445.212 189.998 444.633 190.148 446.348C190.22 447.286 189.524 447.939 188.587 448.021C187.789 448.091 187.133 447.827 186.625 447.299ZM193.003 447.575C192.016 447.661 191.3 447.171 191.225 446.314C191.158 445.556 191.689 444.967 192.741 444.694L194.411 444.267L194.381 443.918C194.32 443.22 193.786 442.865 193.068 442.927C192.49 442.978 192.045 443.288 191.773 443.744L191.092 443.311C191.479 442.675 192.154 442.244 193.032 442.167C194.308 442.055 195.131 442.737 195.228 443.844L195.523 447.214L194.675 447.288L194.62 446.65C194.283 447.171 193.651 447.518 193.003 447.575ZM192.079 446.209C192.117 446.638 192.493 446.916 193.081 446.865C193.749 446.806 194.27 446.439 194.552 445.872L194.465 444.885L193.001 445.264C192.324 445.444 192.042 445.78 192.079 446.209ZM196.724 448.023C196.68 447.514 196.893 447.084 197.361 446.691C197.116 446.532 196.973 446.273 196.949 446.004C196.915 445.605 197.095 445.258 197.462 444.974C196.995 444.684 196.691 444.198 196.642 443.64C196.557 442.672 197.244 441.789 198.44 441.684C198.809 441.652 199.145 441.703 199.426 441.809L201.29 441.646L201.355 442.383L200.268 442.478C200.429 442.715 200.524 442.998 200.55 443.298C200.634 444.255 199.958 445.138 198.752 445.243C198.502 445.265 198.26 445.246 198.045 445.205C197.849 445.373 197.745 445.562 197.761 445.752C197.78 445.961 197.902 446.101 198.211 446.074L199.647 445.949C200.973 445.833 201.648 446.427 201.727 447.324C201.819 448.381 200.831 449.261 199.326 449.393C197.84 449.523 196.812 449.03 196.724 448.023ZM198.703 444.574C199.431 444.511 199.806 443.976 199.753 443.367C199.699 442.749 199.236 442.287 198.509 442.351C197.761 442.416 197.396 442.951 197.45 443.569C197.504 444.187 197.955 444.64 198.703 444.574ZM197.543 447.851C197.596 448.459 198.257 448.773 199.254 448.686C200.311 448.593 200.942 448.116 200.884 447.458C200.842 446.979 200.54 446.624 199.643 446.702L198.018 446.845C197.691 447.134 197.508 447.452 197.543 447.851ZM206.934 445.381C206.52 446.051 205.807 446.515 204.87 446.597C203.175 446.745 202.019 445.59 201.891 444.125C201.757 442.599 202.631 441.327 204.186 441.191C205.552 441.072 206.523 441.951 206.631 443.188C206.649 443.387 206.635 443.579 206.618 443.721L202.759 444.059C202.895 445.263 203.726 445.923 204.803 445.829C205.451 445.772 205.973 445.425 206.263 444.948L206.934 445.381ZM204.229 441.911C203.401 441.983 202.866 442.522 202.762 443.406L205.773 443.142C205.679 442.407 205.116 441.833 204.229 441.911ZM207.695 445.455L208.249 444.895C208.636 445.303 209.077 445.515 209.585 445.471C210.144 445.422 210.433 445.055 210.395 444.616C210.296 443.49 207.818 444.108 207.663 442.334C207.594 441.546 208.206 440.84 209.173 440.755C209.891 440.692 210.538 440.977 210.93 441.435L210.385 441.985C210.083 441.63 209.683 441.424 209.245 441.462C208.706 441.509 208.445 441.853 208.479 442.242C208.578 443.369 211.069 442.789 211.219 444.504C211.291 445.442 210.594 446.096 209.657 446.178C208.86 446.248 208.203 445.984 207.695 445.455Z" fill="#646464"/>
<path d="M259.649 422.816L253.577 417.721C253.113 418.164 252.567 418.529 251.94 418.819C251.312 419.108 250.633 419.285 249.901 419.349C248.09 419.507 246.503 419.014 245.138 417.87C243.774 416.724 243.012 415.246 242.854 413.435C242.695 411.624 243.189 410.036 244.334 408.671C245.478 407.307 246.956 406.546 248.767 406.387C250.579 406.229 252.167 406.722 253.531 407.866C254.895 409.011 255.657 410.49 255.815 412.301C255.879 413.032 255.823 413.732 255.647 414.4C255.471 415.069 255.206 415.67 254.851 416.203L260.95 421.321C261.148 421.488 261.259 421.704 261.283 421.97C261.306 422.236 261.226 422.477 261.045 422.694C260.878 422.893 260.653 423.004 260.371 423.029C260.088 423.054 259.847 422.983 259.649 422.816ZM249.727 417.355C250.973 417.246 251.995 416.717 252.791 415.768C253.587 414.819 253.93 413.722 253.821 412.475C253.712 411.229 253.183 410.208 252.235 409.411C251.286 408.616 250.188 408.272 248.942 408.381C247.696 408.49 246.674 409.019 245.878 409.968C245.082 410.917 244.739 412.014 244.848 413.261C244.957 414.507 245.486 415.528 246.434 416.325C247.383 417.12 248.481 417.464 249.727 417.355Z" fill="#646464"/>
<path d="M236.706 443.611L236.096 436.631L239.845 436.303L239.914 437.101L237.103 437.347L237.298 439.58L239.711 439.369L239.78 440.157L237.367 440.368L237.574 442.731L240.385 442.485L240.455 443.283L236.706 443.611ZM242.057 443.142L241.617 438.117L242.464 438.043L242.512 438.592C242.853 438.12 243.324 437.767 244.022 437.706C244.75 437.642 245.377 437.919 245.742 438.53C246.093 437.947 246.585 437.482 247.452 437.406C248.529 437.312 249.379 437.961 249.499 439.327L249.774 442.467L248.926 442.541L248.654 439.431C248.581 438.593 248.07 438.156 247.352 438.218C246.714 438.274 246.297 438.672 246.019 439.289C246.039 439.398 246.059 439.507 246.069 439.627L246.344 442.767L245.496 442.842L245.224 439.731C245.151 438.893 244.65 438.455 243.923 438.518C243.235 438.579 242.843 439.045 242.6 439.589L242.904 443.068L242.057 443.142ZM251.696 444.771L251.042 437.293L251.89 437.219L251.942 437.817C252.346 437.269 252.909 436.929 253.657 436.863C255.232 436.725 256.348 437.883 256.476 439.349C256.605 440.815 255.707 442.149 254.131 442.287C253.384 442.352 252.77 442.115 252.277 441.646L252.544 444.696L251.696 444.771ZM253.627 437.669C252.929 437.731 252.35 438.123 252.024 438.754L252.195 440.708C252.637 441.282 253.274 441.558 253.962 441.498C255.029 441.405 255.682 440.494 255.589 439.427C255.496 438.36 254.694 437.576 253.627 437.669ZM258.064 441.742L257.409 434.264L258.257 434.19L258.911 441.668L258.064 441.742ZM262.538 436.086C264.154 435.945 265.369 437.094 265.498 438.56C265.626 440.026 264.628 441.369 263.013 441.51C261.388 441.652 260.182 440.502 260.054 439.036C259.926 437.571 260.913 436.228 262.538 436.086ZM262.953 440.711C264 440.62 264.691 439.675 264.6 438.638C264.509 437.592 263.665 436.791 262.618 436.883C261.541 436.977 260.85 437.912 260.941 438.959C261.033 440.005 261.876 440.806 262.953 440.711ZM266.955 434.585C266.626 434.613 266.333 434.368 266.304 434.039C266.276 433.72 266.522 433.427 266.851 433.398C267.18 433.369 267.463 433.616 267.491 433.935C267.519 434.264 267.284 434.556 266.955 434.585ZM267.08 440.953L266.64 435.928L267.488 435.854L267.927 440.879L267.08 440.953ZM269.081 440.085L269.635 439.524C270.022 439.932 270.463 440.145 270.971 440.1C271.529 440.052 271.819 439.685 271.78 439.246C271.682 438.119 269.204 438.738 269.049 436.963C268.98 436.176 269.591 435.469 270.558 435.384C271.276 435.322 271.924 435.607 272.316 436.065L271.771 436.615C271.469 436.259 271.069 436.053 270.63 436.091C270.092 436.139 269.831 436.483 269.865 436.872C269.963 437.998 272.454 437.419 272.604 439.134C272.677 440.072 271.98 440.725 271.043 440.807C270.245 440.877 269.589 440.613 269.081 440.085Z" fill="#646464"/>
<path d="M314.253 414.221C313.556 414.282 312.945 414.093 312.42 413.653C311.896 413.213 311.604 412.644 311.543 411.946C311.482 411.248 311.671 410.637 312.111 410.113C312.551 409.589 313.119 409.297 313.817 409.236C314.515 409.175 315.126 409.364 315.65 409.804C316.174 410.243 316.467 410.812 316.528 411.51C316.589 412.208 316.4 412.819 315.96 413.343C315.52 413.867 314.951 414.16 314.253 414.221ZM310.745 420.054C310.197 420.102 309.71 419.948 309.285 419.592C308.861 419.235 308.625 418.782 308.577 418.234L307.355 404.275C307.307 403.727 307.461 403.241 307.817 402.816C308.174 402.391 308.627 402.155 309.175 402.107L310.172 402.02L310.085 401.023C310.06 400.74 310.135 400.495 310.309 400.287C310.483 400.079 310.712 399.963 310.995 399.938C311.277 399.914 311.522 399.988 311.73 400.162C311.938 400.337 312.054 400.566 312.079 400.848L312.166 401.845L320.142 401.147L320.055 400.15C320.03 399.868 320.105 399.622 320.28 399.414C320.454 399.207 320.682 399.091 320.965 399.066C321.247 399.041 321.492 399.116 321.7 399.29C321.908 399.465 322.024 399.693 322.049 399.976L322.136 400.973L323.133 400.886C323.682 400.838 324.169 400.992 324.594 401.349C325.018 401.705 325.254 402.157 325.302 402.705L326.523 416.664C326.571 417.212 326.417 417.699 326.061 418.124C325.705 418.548 325.252 418.784 324.704 418.832L310.745 420.054ZM310.571 418.059L324.529 416.838L323.657 406.868L309.698 408.089L310.571 418.059ZM309.524 406.095L323.482 404.874L323.308 402.88L309.349 404.101L309.524 406.095Z" fill="#646464"/>
<path d="M292.764 431.071L291.897 431.146L292.905 429.702L293.922 429.613L292.764 431.071ZM291.094 438.852L290.483 431.873L294.232 431.545L294.302 432.343L291.49 432.588L291.686 434.822L294.098 434.611L294.167 435.398L291.755 435.61L291.961 437.972L294.773 437.727L294.843 438.524L291.094 438.852ZM295.081 433.44L295.998 433.359L297.966 437.357L299.209 433.079L300.126 432.998L298.602 438.195L297.485 438.293L295.081 433.44ZM303.57 431.893L302.742 431.966L303.634 430.22L304.591 430.136L303.57 431.893ZM305.921 436.721C305.507 437.39 304.794 437.854 303.857 437.936C302.162 438.085 301.006 436.93 300.878 435.464C300.745 433.939 301.618 432.667 303.173 432.531C304.539 432.411 305.51 433.291 305.619 434.527C305.636 434.727 305.623 434.919 305.605 435.061L301.746 435.398C301.882 436.602 302.713 437.263 303.79 437.169C304.438 437.112 304.96 436.765 305.25 436.287L305.921 436.721ZM303.216 433.25C302.389 433.323 301.853 433.862 301.75 434.745L304.761 434.482C304.666 433.746 304.104 433.173 303.216 433.25ZM307.32 437.433L306.88 432.407L307.728 432.333L307.778 432.902C308.147 432.417 308.638 432.053 309.385 431.987C310.512 431.889 311.416 432.573 311.541 433.999L311.807 437.04L310.959 437.114L310.696 434.103C310.617 433.206 310.063 432.732 309.286 432.8C308.558 432.863 308.136 433.322 307.863 433.879L308.167 437.358L307.32 437.433ZM317.907 435.672C317.493 436.342 316.78 436.806 315.843 436.888C314.148 437.036 312.992 435.881 312.864 434.416C312.731 432.89 313.604 431.618 315.159 431.482C316.525 431.363 317.496 432.242 317.604 433.479C317.622 433.678 317.609 433.87 317.591 434.012L313.732 434.35C313.868 435.554 314.699 436.214 315.776 436.12C316.424 436.063 316.946 435.716 317.236 435.239L317.907 435.672ZM315.202 432.202C314.375 432.274 313.839 432.813 313.735 433.696L316.746 433.433C316.652 432.698 316.089 432.124 315.202 432.202ZM319.306 436.384L318.866 431.359L319.714 431.285L319.762 431.833C320.102 431.361 320.574 431.009 321.272 430.947C321.999 430.884 322.626 431.16 322.991 431.772C323.342 431.188 323.834 430.723 324.701 430.647C325.778 430.553 326.629 431.202 326.748 432.568L327.023 435.709L326.175 435.783L325.903 432.672C325.83 431.835 325.32 431.397 324.602 431.46C323.964 431.516 323.546 431.914 323.269 432.531C323.288 432.64 323.308 432.748 323.318 432.868L323.593 436.009L322.746 436.083L322.473 432.972C322.4 432.135 321.9 431.696 321.172 431.76C320.484 431.82 320.093 432.286 319.849 432.83L320.153 436.31L319.306 436.384ZM333.125 434.341C332.712 435.01 331.999 435.474 331.062 435.556C329.367 435.705 328.211 434.55 328.082 433.084C327.949 431.559 328.822 430.287 330.378 430.151C331.744 430.031 332.715 430.911 332.823 432.147C332.84 432.347 332.827 432.539 332.809 432.681L328.951 433.018C329.086 434.222 329.918 434.883 330.994 434.789C331.642 434.732 332.165 434.385 332.454 433.907L333.125 434.341ZM330.421 430.87C329.593 430.943 329.057 431.482 328.954 432.365L331.965 432.102C331.87 431.366 331.308 430.793 330.421 430.87ZM334.524 435.052L334.085 430.027L334.932 429.953L334.982 430.522C335.351 430.037 335.842 429.673 336.59 429.607C337.716 429.509 338.62 430.193 338.745 431.619L339.011 434.66L338.163 434.734L337.9 431.723C337.822 430.826 337.268 430.352 336.49 430.42C335.762 430.483 335.34 430.942 335.067 431.499L335.372 434.978L334.524 435.052ZM340.859 432.8L340.634 430.228L339.686 430.311L339.619 429.543L340.566 429.46L340.456 428.204L341.314 428.129L341.424 429.385L343.169 429.233L343.236 430L341.491 430.153L341.716 432.725C341.785 433.513 342.203 433.697 342.811 433.644C343.14 433.615 343.366 433.556 343.548 433.459L343.615 434.217C343.384 434.338 343.118 434.401 342.76 434.432C341.643 434.53 340.966 434.027 340.859 432.8ZM344.305 433.504L344.859 432.943C345.246 433.351 345.687 433.563 346.195 433.519C346.753 433.47 347.043 433.103 347.005 432.665C346.906 431.538 344.428 432.157 344.273 430.382C344.204 429.594 344.815 428.888 345.783 428.803C346.5 428.74 347.148 429.025 347.54 429.483L346.995 430.033C346.693 429.678 346.293 429.472 345.854 429.51C345.316 429.557 345.055 429.901 345.089 430.29C345.187 431.417 347.679 430.837 347.829 432.552C347.901 433.49 347.204 434.144 346.267 434.226C345.469 434.296 344.813 434.032 344.305 433.504Z" fill="#646464"/>
</g>
<defs>
<filter id="filter0_d_8452_5813" x="16.0135" y="377.708" width="349.004" height="119.732" filterUnits="userSpaceOnUse" color-interpolation-filters="sRGB">
<feFlood flood-opacity="0" result="BackgroundImageFix"/>
<feColorMatrix in="SourceAlpha" type="matrix" values="0 0 0 0 0 0 0 0 0 0 0 0 0 0 0 0 0 0 127 0" result="hardAlpha"/>
<feOffset dy="8"/>
<feGaussianBlur stdDeviation="6"/>
<feComposite in2="hardAlpha" operator="out"/>
<feColorMatrix type="matrix" values="0 0 0 0 0.152941 0 0 0 0 0.286275 0 0 0 0 0.588235 0 0 0 0.24 0"/>
<feBlend mode="normal" in2="BackgroundImageFix" result="effect1_dropShadow_8452_5813"/>
<feBlend mode="normal" in="SourceGraphic" in2="effect1_dropShadow_8452_5813" result="shape"/>
</filter>
<clipPath id="clip0_8452_5813">
<rect x="221.747" y="277.982" width="181.153" height="32.0271" rx="8" transform="rotate(175 221.747 277.982)" fill="white"/>
</clipPath>
<clipPath id="clip1_8452_5813">
<rect width="24" height="24" fill="white" transform="translate(174.226 409.895) scale(1.00085) rotate(-5)"/>
</clipPath>
</defs>
</svg>
