<svg width="355" height="174" viewBox="0 0 355 174" fill="none" xmlns="http://www.w3.org/2000/svg">
<rect x="18.7378" y="28.9651" width="326.123" height="124.363" rx="11.4995" transform="rotate(-5 18.7378 28.9651)" fill="#F1F1F1" stroke="#878787" stroke-width="0.999955" stroke-dasharray="5 5"/>
<g filter="url(#filter0_d_4866_12432)">
<g clip-path="url(#clip0_4866_12432)">
<rect y="50.2752" width="328.138" height="124.052" rx="16" transform="rotate(-5 0 50.2752)" fill="white"/>
<path d="M46.8628 75.6041C45.1157 75.757 43.9755 77.0604 44.1185 78.6959L44.1195 78.7071C44.2533 80.2365 45.4349 81.2693 46.981 81.134C48.0863 81.0373 48.7403 80.412 48.9804 79.7498L49.0921 79.74C49.0974 79.8014 49.0972 79.8633 49.1026 79.9247C49.176 81.4707 48.7439 82.7684 47.4657 82.8803C46.7568 82.9423 46.2278 82.6173 45.9663 82.0721L45.9447 82.0178L44.5269 82.1418L44.5434 82.2022C44.9081 83.4134 46.09 84.193 47.5692 84.0636C49.5954 83.8864 50.6772 82.1718 50.4399 79.459L50.4389 79.4478C50.185 76.5453 48.5821 75.4537 46.8628 75.6041ZM47.2416 79.9976C46.3262 80.0776 45.6033 79.4659 45.5218 78.5338L45.5208 78.5226C45.4422 77.6239 46.089 76.853 46.9766 76.7753C47.8697 76.6972 48.6304 77.3562 48.711 78.2772L48.712 78.2884C48.7916 79.1982 48.1514 79.918 47.2416 79.9976Z" fill="#161616"/>
<path d="M52.6492 78.1577C53.1628 78.1127 53.5026 77.6893 53.4596 77.1981C53.4161 76.7013 53.0084 76.3489 52.4949 76.3938C51.987 76.4382 51.6411 76.8566 51.6845 77.3534C51.7275 77.8446 52.1413 78.2021 52.6492 78.1577ZM53.0116 82.2994C53.5251 82.2545 53.8654 81.8366 53.822 81.3399C53.7785 80.8431 53.3708 80.4906 52.8573 80.5356C52.3493 80.58 52.0034 80.9984 52.0469 81.4951C52.0904 81.9919 52.5036 82.3439 53.0116 82.2994Z" fill="#161616"/>
<path d="M59.3187 82.8332L60.6975 82.7126L60.5622 81.1664L61.6451 81.0716L61.541 79.8827L60.4582 79.9774L59.9928 74.6579L57.9554 74.8361C57.0068 76.5953 56.0247 78.5486 55.1396 80.454L55.2426 81.6318L59.1834 81.287L59.3187 82.8332ZM56.4812 80.3591L56.4739 80.2754C57.1357 78.8395 57.9375 77.2675 58.6532 75.9337L58.737 75.9264L59.1047 80.1296L56.4812 80.3591Z" fill="#161616"/>
<path d="M64.8897 82.3458L66.3298 82.2198L65.6251 74.1651L64.1906 74.2906L62.2156 75.9539L62.3343 77.3103L64.2141 75.7172L64.309 75.7089L64.8897 82.3458Z" fill="#161616"/>
<rect opacity="0.35" x="274.489" y="56.2005" width="16.0659" height="7.9056" rx="1.65686" transform="rotate(-5 274.489 56.2005)" stroke="black" stroke-width="0.764706"/>
<path opacity="0.4" d="M291.848 57.1138L292.114 60.1623C292.705 59.8504 293.051 59.2149 292.993 58.5495C292.935 57.8841 292.483 57.3183 291.848 57.1138Z" fill="black"/>
<rect x="275.732" y="57.2439" width="13.7705" height="5.6102" rx="1.01961" transform="rotate(-5 275.732 57.2439)" fill="black"/>
<path fill-rule="evenodd" clip-rule="evenodd" d="M264.574 58.4366C266.269 58.2884 267.957 58.7966 269.288 59.8564C269.388 59.9384 269.536 59.9243 269.619 59.8248L270.426 58.8555C270.468 58.805 270.488 58.7399 270.482 58.6745C270.476 58.6091 270.444 58.5489 270.393 58.5071C266.898 55.701 261.81 56.1461 258.855 59.5166C258.812 59.5665 258.791 59.6314 258.796 59.6968C258.801 59.7623 258.833 59.823 258.883 59.8654L259.846 60.6799C259.945 60.7636 260.093 60.7518 260.177 60.6534C261.304 59.3786 262.878 58.585 264.574 58.4366ZM264.828 61.3384C265.759 61.2569 266.688 61.5242 267.433 62.0886C267.534 62.1691 267.681 62.1543 267.764 62.0553L268.57 61.086C268.612 61.0352 268.632 60.9695 268.626 60.9036C268.62 60.8377 268.587 60.7771 268.535 60.7354C266.262 58.965 263.005 59.2499 261.073 61.3883C261.03 61.4383 261.008 61.5036 261.013 61.5696C261.019 61.6356 261.05 61.6968 261.101 61.7395L262.062 62.5541C262.161 62.6372 262.308 62.6263 262.394 62.5295C263.029 61.8447 263.897 61.4203 264.828 61.3384ZM266.768 63.136C266.776 63.202 266.755 63.2681 266.712 63.3185L265.318 64.9932C265.278 65.0424 265.219 65.0733 265.155 65.0788C265.091 65.0844 265.028 65.0643 264.979 65.0229L263.316 63.6156C263.265 63.5734 263.233 63.5119 263.229 63.4456C263.224 63.3794 263.248 63.3142 263.293 63.2656C264.197 62.3554 265.626 62.2303 266.674 62.9698C266.727 63.0098 266.761 63.07 266.768 63.136Z" fill="black"/>
<path fill-rule="evenodd" clip-rule="evenodd" d="M254.028 57.8629L253.266 57.9295C252.845 57.9664 252.533 58.3374 252.57 58.7583L253.148 65.3633C253.185 65.7842 253.556 66.0956 253.977 66.0588L254.739 65.9921C255.16 65.9553 255.471 65.5842 255.434 65.1633L254.857 58.5583C254.82 58.1374 254.449 57.826 254.028 57.8629ZM249.865 60.019L250.627 59.9523C251.048 59.9155 251.419 60.2268 251.456 60.6477L251.878 65.4745C251.915 65.8954 251.604 66.2664 251.183 66.3033L250.42 66.3699C250 66.4068 249.629 66.0954 249.592 65.6745L249.169 60.8478C249.133 60.4269 249.444 60.0558 249.865 60.019ZM247.226 62.0417L246.464 62.1084C246.043 62.1452 245.731 62.5163 245.768 62.9372L246.035 65.9856C246.072 66.4065 246.443 66.7179 246.864 66.6811L247.626 66.6144C248.047 66.5776 248.358 66.2065 248.321 65.7856L248.055 62.7371C248.018 62.3162 247.647 62.0049 247.226 62.0417ZM243.803 63.8771L243.041 63.9438C242.62 63.9806 242.308 64.3517 242.345 64.7726L242.478 66.2968C242.515 66.7177 242.886 67.0291 243.307 66.9923L244.069 66.9256C244.49 66.8888 244.802 66.5177 244.765 66.0968L244.631 64.5726C244.595 64.1517 244.224 63.8403 243.803 63.8771Z" fill="black"/>
<rect x="20.2746" y="98.3591" width="286.12" height="55.0819" rx="16" transform="rotate(-5 20.2746 98.3591)" fill="#F1F1F1"/>
<path d="M38.2606 135.124L41.657 134.827L41.0648 128.058L42.8109 127.905L47.8759 134.283L51.8703 133.933L45.9834 126.977C47.6365 126.037 48.4853 124.444 48.3074 122.411C48.0354 119.301 45.5978 117.611 41.9143 117.933L36.7957 118.381L38.2606 135.124ZM42.3526 120.739C43.7877 120.613 44.7002 121.401 44.8111 122.669C44.9304 124.032 44.1665 124.942 42.7314 125.068L40.8179 125.235L40.4391 120.906L42.3526 120.739ZM64.495 130.852L62.1678 129.321C61.5973 130.238 60.4994 130.913 59.1839 131.028C57.2943 131.193 55.8275 130.406 55.3438 128.182L63.7871 127.444C63.8472 127.029 63.8884 126.398 63.8298 125.729C63.5536 122.571 61.1543 120.492 57.8057 120.785C53.8591 121.13 51.8681 124.269 52.1799 127.832C52.4875 131.349 55.1649 134.127 59.4464 133.752C61.7186 133.554 63.5027 132.458 64.495 130.852ZM57.9516 123.278C59.6498 123.13 60.6415 124.272 60.7961 125.488L55.2469 125.973C55.4437 124.365 56.3968 123.414 57.9516 123.278ZM72.9053 129.683C70.8722 129.861 69.2814 128.481 69.0951 126.353C68.911 124.248 70.2361 122.589 72.2213 122.416C73.4651 122.307 74.47 122.773 75.1173 123.56L77.3262 121.535C76.0723 120.151 74.2186 119.349 72.0181 119.541C67.8562 119.905 65.6302 123.113 65.9379 126.629C66.2455 130.145 68.9946 132.917 73.1564 132.553C75.357 132.36 77.0433 131.249 78.0377 129.667L75.5107 128.057C75.0099 128.944 74.1013 129.578 72.9053 129.683ZM80.4769 131.43L83.5146 131.165L82.8261 123.295C83.2136 122.49 83.9368 121.391 85.4676 121.257C86.9745 121.125 87.9474 122.052 88.0876 123.655L88.7049 130.711L91.7665 130.443L91.1387 123.267C90.8269 119.703 88.5891 118.091 85.9819 118.319C84.3794 118.46 83.3096 119.18 82.5436 120.066L81.9451 113.226L78.9074 113.491L80.4769 131.43ZM106.143 127.209L103.815 125.677C103.245 126.594 102.147 127.269 100.831 127.384C98.9418 127.549 97.475 126.762 96.9913 124.539L105.435 123.8C105.495 123.385 105.536 122.755 105.477 122.085C105.201 118.928 102.802 116.848 99.4532 117.141C95.5066 117.486 93.5156 120.625 93.8274 124.189C94.1351 127.705 96.8124 130.483 101.094 130.109C103.366 129.91 105.15 128.814 106.143 127.209ZM99.5991 119.635C101.297 119.486 102.289 120.629 102.444 121.844L96.8944 122.33C97.0912 120.722 98.0444 119.771 99.5991 119.635ZM109.067 128.929L112.105 128.663L111.429 120.938C111.816 120.132 112.702 119.236 114.185 119.106C114.735 119.058 115.148 119.094 115.539 119.156L115.278 116.166C114.982 116.096 114.617 116.055 114.21 116.091C112.847 116.21 111.873 116.922 111.155 117.804L111.05 116.608L108.013 116.874L109.067 128.929ZM123.849 125.226C121.816 125.404 120.225 124.024 120.039 121.896C119.855 119.791 121.18 118.132 123.165 117.959C124.409 117.85 125.414 118.316 126.061 119.103L128.27 117.078C127.016 115.693 125.163 114.892 122.962 115.084C118.8 115.448 116.574 118.656 116.882 122.172C117.19 125.688 119.939 128.46 124.1 128.096C126.301 127.903 127.987 126.792 128.982 125.21L126.455 123.6C125.954 124.487 125.045 125.121 123.849 125.226ZM131.421 126.973L134.459 126.708L133.77 118.838C134.158 118.033 134.881 116.934 136.412 116.8C137.919 116.668 138.891 117.595 139.032 119.198L139.649 126.254L142.711 125.986L142.083 118.81C141.771 115.246 139.533 113.634 136.926 113.862C135.323 114.003 134.254 114.723 133.488 115.609L132.889 108.769L129.851 109.034L131.421 126.973ZM157.087 122.752L154.759 121.22C154.189 122.137 153.091 122.812 151.775 122.927C149.886 123.092 148.419 122.305 147.935 120.082L156.379 119.343C156.439 118.928 156.48 118.298 156.421 117.628C156.145 114.471 153.746 112.391 150.397 112.684C146.451 113.029 144.46 116.168 144.771 119.732C145.079 123.248 147.756 126.026 152.038 125.652C154.31 125.453 156.094 124.357 157.087 122.752ZM150.543 115.178C152.241 115.029 153.233 116.172 153.388 117.387L147.838 117.873C148.035 116.265 148.988 115.314 150.543 115.178Z" fill="#3B69D1"/>
<g filter="url(#filter1_d_4866_12432)">
<rect x="257.331" y="86.8348" width="36.7213" height="36.7213" rx="18.3529" transform="rotate(-5 257.331 86.8348)" fill="#3B69D1" shape-rendering="crispEdges"/>
<path d="M277.222 103.525C278.906 103.378 280.151 101.894 280.004 100.21C279.856 98.5259 278.373 97.281 276.688 97.4284C275.004 97.5758 273.759 99.0593 273.907 100.744C274.054 102.428 275.538 103.673 277.222 103.525ZM276.822 98.9526C277.66 98.8793 278.406 99.5052 278.479 100.344C278.553 101.182 277.927 101.928 277.089 102.001C276.25 102.074 275.504 101.449 275.431 100.61C275.358 99.7719 275.983 99.026 276.822 98.9526ZM277.289 104.287C275.254 104.465 271.281 105.842 271.458 107.869L271.592 109.394C271.628 109.813 272.001 110.126 272.42 110.089L283.09 109.156C283.509 109.119 283.822 108.746 283.786 108.327L283.652 106.802C283.475 104.775 279.323 104.109 277.289 104.287ZM282.195 107.698L273.049 108.498L272.983 107.744C273.088 107.182 275.364 105.992 277.422 105.812C279.48 105.632 281.928 106.408 282.128 106.936L282.195 107.698Z" fill="white"/>
<rect x="257.745" y="87.1823" width="35.9566" height="35.9566" rx="17.9706" transform="rotate(-5 257.745 87.1823)" stroke="#3B69D1" stroke-width="0.764706" shape-rendering="crispEdges"/>
</g>
</g>
</g>
<defs>
<filter id="filter0_d_4866_12432" x="-25.0105" y="2.66817" width="387.722" height="202.2" filterUnits="userSpaceOnUse" color-interpolation-filters="sRGB">
<feFlood flood-opacity="0" result="BackgroundImageFix"/>
<feColorMatrix in="SourceAlpha" type="matrix" values="0 0 0 0 0 0 0 0 0 0 0 0 0 0 0 0 0 0 127 0" result="hardAlpha"/>
<feOffset dy="6"/>
<feGaussianBlur stdDeviation="12.5"/>
<feComposite in2="hardAlpha" operator="out"/>
<feColorMatrix type="matrix" values="0 0 0 0 0.196078 0 0 0 0 0.196078 0 0 0 0 0.196078 0 0 0 0.1 0"/>
<feBlend mode="normal" in2="BackgroundImageFix" result="effect1_dropShadow_4866_12432"/>
<feBlend mode="normal" in="SourceGraphic" in2="effect1_dropShadow_4866_12432" result="shape"/>
</filter>
<filter id="filter1_d_4866_12432" x="248.15" y="77.5141" width="58.1425" height="58.1427" filterUnits="userSpaceOnUse" color-interpolation-filters="sRGB">
<feFlood flood-opacity="0" result="BackgroundImageFix"/>
<feColorMatrix in="SourceAlpha" type="matrix" values="0 0 0 0 0 0 0 0 0 0 0 0 0 0 0 0 0 0 127 0" result="hardAlpha"/>
<feOffset dy="3.05882"/>
<feGaussianBlur stdDeviation="4.58824"/>
<feComposite in2="hardAlpha" operator="out"/>
<feColorMatrix type="matrix" values="0 0 0 0 0.152941 0 0 0 0 0.286275 0 0 0 0 0.588235 0 0 0 0.12 0"/>
<feBlend mode="normal" in2="BackgroundImageFix" result="effect1_dropShadow_4866_12432"/>
<feBlend mode="normal" in="SourceGraphic" in2="effect1_dropShadow_4866_12432" result="shape"/>
</filter>
<clipPath id="clip0_4866_12432">
<rect y="50.2752" width="328.138" height="124.052" rx="16" transform="rotate(-5 0 50.2752)" fill="white"/>
</clipPath>
</defs>
</svg>
