<svg width="352" height="372" viewBox="0 0 352 372" fill="none" xmlns="http://www.w3.org/2000/svg">
<rect x="18.733" y="268.995" width="326.036" height="84.3227" rx="11.4995" transform="rotate(-5 18.733 268.995)" fill="#F1F1F1" stroke="#878787" stroke-width="0.999955" stroke-dasharray="5 5"/>
<g filter="url(#filter0_d_4866_12752)">
<rect y="290.299" width="328.051" height="82.0128" rx="16" transform="rotate(-5 0 290.299)" fill="white"/>
</g>
<path d="M29.5452 328.375L32.0872 328.153L31.6424 323.069L36.7264 322.624L37.1712 327.708L39.7132 327.486L39.046 319.859L33.6284 316.491L28.878 320.749L29.5452 328.375ZM29.6934 330.07C29.2274 330.111 28.8141 329.98 28.4535 329.677C28.0922 329.374 27.8912 328.989 27.8505 328.523L27.1833 320.897C27.1598 320.629 27.1977 320.37 27.297 320.119C27.3958 319.868 27.5443 319.656 27.7425 319.482L32.493 315.224C32.6384 315.098 32.7934 314.999 32.958 314.928C33.1225 314.856 33.2966 314.813 33.4801 314.797C33.6637 314.781 33.8427 314.793 34.0171 314.835C34.1916 314.877 34.3614 314.947 34.5266 315.047L39.9442 318.415C40.1697 318.552 40.353 318.735 40.4944 318.964C40.6351 319.194 40.7173 319.443 40.7407 319.711L41.4079 327.337C41.4487 327.803 41.3178 328.217 41.0153 328.578C40.7121 328.939 40.3275 329.139 39.8615 329.18L35.6248 329.551L35.18 324.467L33.4853 324.615L33.9301 329.699L29.6934 330.07Z" fill="#646464"/>
<path d="M18.7018 348.052L19.7186 347.963L20.359 345.796L23.6331 345.51L24.64 347.533L25.6568 347.444L22.1972 340.574L20.916 340.686L18.7018 348.052ZM20.6021 344.945L21.6295 341.464L23.2458 344.714L20.6021 344.945ZM29.1251 346.525C28.0168 346.622 27.1592 345.837 27.0631 344.739C26.9679 343.651 27.6752 342.718 28.7734 342.622C29.414 342.566 29.9592 342.825 30.3136 343.245L30.9495 342.667C30.4164 342.078 29.6275 341.727 28.7022 341.808C27.0041 341.957 26.0273 343.323 26.1581 344.818C26.2889 346.312 27.4881 347.488 29.1861 347.34C30.1216 347.258 30.8283 346.786 31.2501 346.104L30.5235 345.645C30.2474 346.12 29.7556 346.47 29.1251 346.525ZM34.6163 346.045C33.508 346.142 32.6503 345.356 32.5542 344.258C32.4591 343.17 33.1664 342.237 34.2645 342.141C34.9051 342.085 35.4504 342.345 35.8047 342.765L36.4406 342.187C35.9076 341.598 35.1187 341.247 34.1934 341.328C32.4953 341.476 31.5185 342.843 31.6493 344.337C31.7801 345.832 32.9792 347.008 34.6773 346.859C35.6128 346.777 36.3195 346.306 36.7413 345.623L36.0147 345.164C35.7386 345.639 35.2467 345.99 34.6163 346.045ZM41.3773 343.855C41.4654 344.862 40.967 345.489 40.1129 345.564C39.2384 345.641 38.6488 345.108 38.5607 344.101L38.3045 341.173L37.4402 341.249L37.6938 344.147C37.8281 345.682 38.791 346.499 40.1739 346.378C41.5669 346.257 42.3732 345.284 42.2389 343.749L41.9854 340.851L41.1211 340.927L41.3773 343.855ZM48.6185 344.584L47.9343 344.142C47.6388 344.629 47.1063 344.983 46.4453 345.041C45.3472 345.137 44.4993 344.463 44.3612 343.235L48.2962 342.891C48.3143 342.746 48.3279 342.55 48.3101 342.347C48.1998 341.086 47.2094 340.189 45.8164 340.311C44.2301 340.45 43.3395 341.747 43.4756 343.303C43.6064 344.797 44.7853 345.975 46.5138 345.824C47.4696 345.74 48.1967 345.267 48.6185 344.584ZM45.8601 341.045C46.765 340.966 47.3388 341.551 47.4351 342.3L44.3643 342.569C44.47 341.669 45.0161 341.119 45.8601 341.045ZM49.9176 338.815C50.2531 338.786 50.4935 338.488 50.4641 338.152C50.4357 337.827 50.1473 337.575 49.8117 337.605C49.4762 337.634 49.2257 337.933 49.2541 338.258C49.2835 338.594 49.582 338.844 49.9176 338.815ZM50.0453 345.31L50.9095 345.234L50.4612 340.11L49.5969 340.185L50.0453 345.31ZM52.7362 345.074L53.6005 344.999L52.9333 337.373L52.069 337.448L52.7362 345.074Z" fill="#646464"/>
<path d="M101.21 312.862L103.955 309.591C104.11 309.407 104.301 309.308 104.527 309.295C104.754 309.283 104.959 309.354 105.143 309.508C105.314 309.664 105.409 309.855 105.428 310.081C105.448 310.307 105.388 310.512 105.247 310.695L101.982 314.609C101.828 314.793 101.637 314.895 101.411 314.915C101.185 314.935 100.98 314.867 100.796 314.713L98.8149 313.05C98.6459 312.909 98.551 312.718 98.53 312.478C98.5089 312.238 98.5693 312.033 98.7111 311.864C98.8528 311.695 99.0437 311.6 99.2838 311.579C99.5239 311.558 99.7284 311.619 99.8974 311.76L101.21 312.862ZM89.8113 314.564C89.5713 314.585 89.363 314.521 89.1867 314.373C89.0098 314.225 88.9109 314.031 88.8899 313.791C88.8689 313.551 88.9326 313.342 89.081 313.165C89.229 312.989 89.423 312.89 89.6631 312.869L95.5944 312.35C95.8345 312.329 96.043 312.393 96.2199 312.541C96.3962 312.689 96.4949 312.883 96.5159 313.124C96.5369 313.364 96.4735 313.572 96.3255 313.748C96.1771 313.925 95.9828 314.024 95.7427 314.045L89.8113 314.564ZM102.297 320.644L100.828 322.395C100.686 322.563 100.495 322.658 100.255 322.679C100.015 322.7 99.8104 322.64 99.6414 322.498C99.4725 322.357 99.3775 322.166 99.3565 321.926C99.3355 321.685 99.3959 321.481 99.5377 321.312L101.007 319.561L99.256 318.092C99.087 317.95 98.992 317.759 98.971 317.519C98.95 317.279 99.0104 317.075 99.1522 316.906C99.2939 316.737 99.4848 316.642 99.7249 316.621C99.965 316.6 100.17 316.66 100.338 316.802L102.089 318.271L103.558 316.52C103.7 316.351 103.891 316.256 104.131 316.235C104.371 316.214 104.576 316.275 104.745 316.417C104.914 316.558 105.009 316.749 105.03 316.989C105.051 317.229 104.99 317.434 104.848 317.603L103.379 319.354L105.13 320.823C105.299 320.965 105.394 321.155 105.415 321.396C105.436 321.636 105.376 321.84 105.234 322.009C105.092 322.178 104.901 322.273 104.661 322.294C104.421 322.315 104.217 322.255 104.048 322.113L102.297 320.644ZM90.4044 321.343C90.1643 321.364 89.9561 321.3 89.7797 321.151C89.6029 321.003 89.5039 320.81 89.4829 320.569C89.4619 320.329 89.5256 320.121 89.6741 319.944C89.822 319.768 90.016 319.669 90.2561 319.648L96.1875 319.129C96.4276 319.108 96.6361 319.171 96.8129 319.319C96.9893 319.468 97.088 319.662 97.109 319.902C97.13 320.142 97.0665 320.351 96.9186 320.527C96.7701 320.704 96.5759 320.803 96.3358 320.824L90.4044 321.343Z" fill="#646464"/>
<path d="M78.0389 342.861L78.9947 342.777L78.4841 336.94L80.8555 340.155L81.5876 340.091L83.3648 336.513L83.8754 342.35L84.8312 342.266L84.2085 335.149L82.9883 335.255L81.1264 339.035L78.6364 335.636L77.4162 335.743L78.0389 342.861ZM88.6943 336.559C87.0369 336.704 86.0296 338.073 86.1604 339.568C86.2911 341.063 87.5208 342.236 89.1782 342.091C90.8254 341.947 91.8429 340.577 91.7121 339.082C91.5814 337.588 90.3415 336.415 88.6943 336.559ZM89.1172 341.277C88.0191 341.373 87.1587 340.557 87.0653 339.489C86.9719 338.421 87.6775 337.468 88.7756 337.372C89.8433 337.279 90.7036 338.095 90.797 339.162C90.8895 340.22 90.1849 341.183 89.1172 341.277ZM93.3258 341.523L94.1901 341.448L93.8796 337.899C94.1578 337.331 94.5882 336.863 95.3305 336.799C96.1236 336.729 96.6884 337.213 96.7685 338.128L97.0371 341.198L97.9014 341.123L97.6301 338.022C97.5029 336.567 96.5811 335.869 95.4321 335.97C94.6695 336.037 94.1693 336.408 93.7924 336.902L93.7417 336.323L92.8774 336.398L93.3258 341.523ZM101.771 340.077C102.29 340.616 102.959 340.885 103.772 340.814C104.728 340.73 105.438 340.064 105.365 339.107C105.212 337.358 102.671 337.949 102.571 336.8C102.536 336.404 102.802 336.053 103.351 336.005C103.799 335.965 104.207 336.176 104.515 336.538L105.07 335.977C104.671 335.51 104.01 335.219 103.278 335.284C102.292 335.37 101.668 336.09 101.739 336.894C101.897 338.704 104.424 338.073 104.524 339.222C104.563 339.669 104.268 340.043 103.699 340.093C103.18 340.138 102.731 339.922 102.336 339.505L101.771 340.077ZM110.267 337.828C110.355 338.835 109.856 339.462 109.002 339.537C108.128 339.613 107.538 339.081 107.45 338.074L107.194 335.146L106.33 335.221L106.583 338.119C106.717 339.655 107.68 340.472 109.063 340.351C110.456 340.229 111.263 339.257 111.128 337.722L110.875 334.824L110.01 334.899L110.267 337.828ZM112.899 333.305C113.234 333.275 113.475 332.978 113.445 332.642C113.417 332.317 113.128 332.065 112.793 332.095C112.457 332.124 112.207 332.422 112.235 332.748C112.265 333.083 112.563 333.334 112.899 333.305ZM113.026 339.8L113.891 339.724L113.442 334.599L112.578 334.675L113.026 339.8ZM114.496 334.507L116.948 339.456L118.087 339.357L119.641 334.057L118.706 334.139L117.438 338.502L115.432 334.425L114.496 334.507ZM121.021 332.594C121.357 332.565 121.597 332.267 121.568 331.931C121.539 331.606 121.251 331.355 120.915 331.384C120.58 331.413 120.329 331.712 120.358 332.037C120.387 332.373 120.686 332.623 121.021 332.594ZM121.149 339.089L122.013 339.013L121.565 333.889L120.701 333.964L121.149 339.089Z" fill="#646464"/>
<g clip-path="url(#clip0_4866_12752)">
<path d="M157.122 312.944L162.227 312.498C162.467 312.477 162.658 312.378 162.799 312.202C162.94 312.026 163 311.818 162.979 311.578C162.958 311.338 162.86 311.144 162.683 310.995C162.506 310.847 162.298 310.784 162.058 310.805L156.953 311.252C156.713 311.273 156.522 311.371 156.381 311.547C156.24 311.723 156.18 311.931 156.201 312.171C156.222 312.411 156.32 312.605 156.497 312.753C156.674 312.902 156.882 312.965 157.122 312.944ZM156.9 310.402L165.394 309.659C165.634 309.638 165.825 309.54 165.966 309.363C166.107 309.188 166.167 308.98 166.146 308.74C166.125 308.5 166.026 308.305 165.849 308.157C165.673 308.009 165.465 307.945 165.225 307.966L156.73 308.71C156.49 308.731 156.3 308.829 156.158 309.005C156.017 309.181 155.957 309.389 155.978 309.629C155.999 309.869 156.098 310.063 156.274 310.211C156.451 310.36 156.66 310.423 156.9 310.402ZM156.677 307.86L165.172 307.117C165.412 307.096 165.603 306.998 165.744 306.822C165.885 306.646 165.945 306.438 165.924 306.198C165.903 305.958 165.804 305.763 165.627 305.615C165.451 305.467 165.243 305.403 165.002 305.424L156.508 306.168C156.268 306.189 156.077 306.287 155.936 306.463C155.795 306.639 155.735 306.847 155.756 307.087C155.777 307.327 155.876 307.522 156.052 307.67C156.229 307.818 156.437 307.881 156.677 307.86ZM153.299 318.039L152.144 304.842C152.103 304.376 152.234 303.962 152.538 303.601C152.84 303.24 153.224 303.04 153.69 302.999L167.248 301.813C167.714 301.772 168.128 301.903 168.489 302.205C168.849 302.508 169.05 302.893 169.091 303.359L169.98 313.527C170.021 313.993 169.89 314.407 169.588 314.768C169.285 315.129 168.9 315.329 168.434 315.37L156.571 316.408L154.793 318.527C154.548 318.819 154.246 318.906 153.887 318.788C153.528 318.67 153.332 318.42 153.299 318.039ZM154.815 315.857L155.724 314.774L168.286 313.675L167.396 303.507L153.839 304.693L154.815 315.857Z" fill="#646464"/>
</g>
<path d="M144.217 337.071L145.173 336.987L144.662 331.151L147.034 334.365L147.766 334.301L149.543 330.724L150.054 336.56L151.009 336.476L150.387 329.359L149.167 329.465L147.305 333.245L144.815 329.846L143.594 329.953L144.217 337.071ZM157.481 335.06L156.797 334.618C156.502 335.104 155.969 335.458 155.308 335.516C154.21 335.612 153.362 334.939 153.224 333.711L157.159 333.367C157.177 333.222 157.191 333.026 157.173 332.822C157.063 331.562 156.072 330.665 154.679 330.786C153.093 330.925 152.202 332.222 152.339 333.778C152.469 335.273 153.648 336.45 155.377 336.299C156.333 336.216 157.06 335.742 157.481 335.06ZM154.723 331.52C155.628 331.441 156.202 332.026 156.298 332.776L153.227 333.045C153.333 332.144 153.879 331.594 154.723 331.52ZM158.258 335.135C158.776 335.674 159.446 335.943 160.259 335.872C161.215 335.788 161.925 335.122 161.851 334.165C161.698 332.416 159.158 333.007 159.057 331.858C159.023 331.462 159.289 331.111 159.838 331.063C160.286 331.023 160.693 331.234 161.002 331.596L161.557 331.035C161.158 330.568 160.497 330.277 159.765 330.342C158.779 330.428 158.155 331.148 158.225 331.952C158.384 333.762 160.911 333.131 161.011 334.28C161.05 334.727 160.755 335.101 160.186 335.151C159.667 335.196 159.218 334.98 158.823 334.563L158.258 335.135ZM162.726 334.744C163.245 335.283 163.914 335.552 164.727 335.481C165.683 335.398 166.393 334.731 166.32 333.774C166.167 332.025 163.626 332.616 163.526 331.467C163.491 331.071 163.757 330.72 164.307 330.672C164.754 330.632 165.162 330.843 165.47 331.205L166.025 330.644C165.626 330.177 164.965 329.887 164.233 329.951C163.247 330.037 162.624 330.757 162.694 331.561C162.852 333.371 165.379 332.74 165.479 333.889C165.519 334.336 165.223 334.71 164.654 334.76C164.135 334.805 163.686 334.589 163.291 334.172L162.726 334.744ZM169.231 335.026C169.892 334.968 170.537 334.614 170.88 334.082L170.937 334.733L171.801 334.657L171.5 331.221C171.401 330.092 170.562 329.397 169.26 329.511C168.366 329.589 167.677 330.028 167.283 330.678L167.977 331.119C168.254 330.654 168.708 330.338 169.298 330.286C170.03 330.222 170.574 330.584 170.636 331.296L170.667 331.652L168.963 332.088C167.891 332.366 167.35 332.967 167.417 333.74C167.494 334.614 168.224 335.114 169.231 335.026ZM168.289 333.633C168.251 333.195 168.538 332.853 169.229 332.669L170.722 332.282L170.81 333.289C170.523 333.868 169.992 334.242 169.311 334.301C168.711 334.354 168.327 334.07 168.289 333.633ZM173.026 335.483C173.116 336.51 174.164 337.012 175.679 336.88C177.214 336.745 178.222 335.848 178.128 334.77C178.047 333.855 177.359 333.249 176.007 333.367L174.543 333.495C174.227 333.523 174.102 333.38 174.084 333.167C174.067 332.973 174.173 332.78 174.373 332.609C174.592 332.651 174.839 332.67 175.094 332.648C176.324 332.54 177.014 331.64 176.928 330.664C176.901 330.359 176.804 330.07 176.64 329.828L177.748 329.731L177.682 328.979L175.781 329.145C175.495 329.037 175.152 328.985 174.776 329.018C173.556 329.125 172.856 330.026 172.942 331.012C172.992 331.582 173.302 332.077 173.779 332.374C173.404 332.663 173.22 333.017 173.256 333.424C173.28 333.698 173.426 333.962 173.676 334.125C173.198 334.525 172.981 334.964 173.026 335.483ZM175.044 331.966C174.281 332.033 173.821 331.571 173.766 330.94C173.711 330.31 174.083 329.765 174.846 329.698C175.588 329.633 176.06 330.104 176.115 330.735C176.169 331.355 175.786 331.901 175.044 331.966ZM173.861 335.307C173.825 334.9 174.012 334.577 174.345 334.281L176.002 334.136C176.918 334.056 177.226 334.418 177.269 334.906C177.327 335.578 176.683 336.064 175.606 336.159C174.589 336.247 173.915 335.927 173.861 335.307ZM183.438 332.789L182.754 332.347C182.458 332.834 181.926 333.188 181.265 333.245C180.167 333.341 179.319 332.668 179.181 331.44L183.116 331.096C183.134 330.951 183.147 330.755 183.129 330.551C183.019 329.291 182.029 328.394 180.636 328.516C179.049 328.654 178.159 329.952 178.295 331.507C178.426 333.002 179.605 334.18 181.333 334.028C182.289 333.945 183.016 333.471 183.438 332.789ZM180.679 329.249C181.584 329.17 182.158 329.755 182.254 330.505L179.184 330.774C179.289 329.873 179.835 329.323 180.679 329.249Z" fill="#646464"/>
<path d="M228.629 309.271C228.798 309.413 229.002 309.473 229.242 309.452C229.482 309.431 229.673 309.336 229.815 309.167C229.957 308.998 230.017 308.794 229.996 308.554C229.975 308.314 229.88 308.123 229.711 307.981L228.122 306.647C228.293 306.333 228.414 306.003 228.483 305.655C228.552 305.307 228.57 304.943 228.537 304.562C228.444 303.503 227.995 302.635 227.189 301.958C226.382 301.281 225.449 300.99 224.39 301.082C223.331 301.175 222.463 301.624 221.786 302.43C221.11 303.237 220.818 304.17 220.911 305.229C221.003 306.288 221.453 307.156 222.259 307.833C223.065 308.509 223.998 308.801 225.057 308.708C225.425 308.676 225.777 308.596 226.114 308.467C226.451 308.337 226.76 308.161 227.039 307.937L228.629 309.271ZM224.909 307.014C224.316 307.066 223.797 306.905 223.351 306.531C222.906 306.157 222.657 305.674 222.605 305.081C222.554 304.488 222.714 303.968 223.088 303.523C223.462 303.078 223.945 302.829 224.538 302.777C225.132 302.725 225.651 302.886 226.096 303.26C226.542 303.633 226.79 304.117 226.842 304.71C226.894 305.303 226.733 305.822 226.359 306.268C225.986 306.713 225.502 306.962 224.909 307.014ZM218.999 312.654C218.533 312.694 218.12 312.564 217.759 312.261C217.398 311.958 217.197 311.573 217.156 311.107L216.266 300.939C216.226 300.473 216.357 300.06 216.66 299.699C216.962 299.338 217.347 299.137 217.813 299.096L231.37 297.91C231.836 297.869 232.25 298.001 232.611 298.304C232.972 298.606 233.172 298.991 233.213 299.457L234.103 309.625C234.144 310.091 234.013 310.504 233.71 310.865C233.407 311.226 233.022 311.427 232.556 311.468L218.999 312.654ZM218.851 310.959L232.408 309.773L231.518 299.605L217.961 300.791L218.851 310.959Z" fill="#3B69D1"/>
<path d="M202.497 331.972L203.941 331.846L203.689 328.968L204.432 328.903L206.585 331.614L208.283 331.466L205.78 328.508C206.483 328.109 206.844 327.432 206.768 326.568C206.653 325.246 205.616 324.527 204.051 324.664L201.875 324.854L202.497 331.972ZM204.237 325.857C204.847 325.803 205.235 326.138 205.282 326.677C205.333 327.257 205.008 327.644 204.398 327.697L203.584 327.768L203.423 325.928L204.237 325.857ZM213.65 330.156L212.661 329.505C212.418 329.895 211.951 330.182 211.392 330.231C210.589 330.301 209.965 329.966 209.76 329.021L213.349 328.707C213.374 328.531 213.392 328.263 213.367 327.978C213.25 326.636 212.23 325.752 210.806 325.876C209.128 326.023 208.282 327.357 208.415 328.872C208.545 330.367 209.684 331.548 211.504 331.389C212.47 331.304 213.228 330.838 213.65 330.156ZM210.868 326.936C211.59 326.873 212.012 327.359 212.077 327.876L209.718 328.082C209.802 327.398 210.207 326.994 210.868 326.936ZM217.225 329.659C216.361 329.734 215.685 329.148 215.605 328.243C215.527 327.348 216.09 326.643 216.934 326.57C217.463 326.523 217.89 326.722 218.165 327.056L219.105 326.195C218.571 325.607 217.783 325.266 216.848 325.348C215.079 325.502 214.132 326.866 214.263 328.361C214.394 329.855 215.563 331.034 217.332 330.879C218.267 330.797 218.984 330.325 219.407 329.652L218.333 328.968C218.12 329.345 217.734 329.614 217.225 329.659ZM220.444 330.402L221.735 330.289L221.443 326.944C221.607 326.601 221.915 326.134 222.566 326.077C223.206 326.021 223.62 326.415 223.679 327.096L223.942 330.096L225.243 329.982L224.976 326.931C224.844 325.416 223.892 324.731 222.784 324.828C222.103 324.888 221.648 325.194 221.322 325.571L221.068 322.663L219.777 322.776L220.444 330.402ZM231.355 328.607L230.365 327.956C230.123 328.346 229.656 328.633 229.097 328.682C228.294 328.752 227.67 328.417 227.464 327.472L231.054 327.158C231.079 326.982 231.097 326.714 231.072 326.429C230.954 325.087 229.934 324.203 228.511 324.327C226.833 324.474 225.987 325.808 226.119 327.323C226.25 328.818 227.388 329.999 229.208 329.84C230.174 329.755 230.933 329.289 231.355 328.607ZM228.573 325.387C229.295 325.324 229.716 325.81 229.782 326.327L227.423 326.533C227.507 325.849 227.912 325.445 228.573 325.387ZM232.598 329.338L233.889 329.225L233.602 325.941C233.767 325.599 234.143 325.218 234.774 325.162C235.007 325.142 235.183 325.157 235.349 325.184L235.238 323.913C235.112 323.883 234.957 323.866 234.784 323.881C234.205 323.931 233.791 324.234 233.485 324.609L233.441 324.101L232.15 324.214L232.598 329.338ZM238.882 327.764C238.018 327.84 237.341 327.253 237.262 326.348C237.184 325.454 237.747 324.749 238.591 324.675C239.12 324.629 239.547 324.827 239.822 325.161L240.761 324.3C240.228 323.712 239.44 323.371 238.505 323.453C236.736 323.608 235.789 324.971 235.92 326.466C236.051 327.961 237.22 329.139 238.989 328.984C239.924 328.902 240.641 328.43 241.064 327.758L239.99 327.073C239.777 327.45 239.39 327.72 238.882 327.764ZM242.101 328.507L243.392 328.394L243.099 325.049C243.264 324.707 243.572 324.239 244.222 324.182C244.863 324.126 245.277 324.52 245.336 325.201L245.599 328.201L246.9 328.087L246.633 325.037C246.501 323.522 245.549 322.837 244.441 322.933C243.76 322.993 243.305 323.299 242.979 323.676L242.725 320.768L241.434 320.881L242.101 328.507ZM253.011 326.712L252.022 326.061C251.78 326.451 251.313 326.738 250.754 326.787C249.95 326.857 249.327 326.522 249.121 325.577L252.711 325.263C252.736 325.087 252.754 324.819 252.729 324.534C252.611 323.192 251.591 322.308 250.168 322.432C248.49 322.579 247.644 323.914 247.776 325.429C247.907 326.923 249.045 328.104 250.865 327.945C251.831 327.861 252.59 327.395 253.011 326.712ZM250.23 323.493C250.952 323.429 251.373 323.915 251.439 324.432L249.08 324.638C249.164 323.955 249.569 323.55 250.23 323.493Z" fill="#3B69D1"/>
<g clip-path="url(#clip1_4866_12752)">
<path d="M287.375 303.683C286.781 303.735 286.262 303.574 285.817 303.201C285.371 302.827 285.123 302.344 285.071 301.75C285.019 301.157 285.18 300.638 285.554 300.193C285.927 299.747 286.411 299.499 287.004 299.447C287.597 299.395 288.116 299.556 288.562 299.929C289.007 300.303 289.256 300.787 289.308 301.38C289.359 301.973 289.199 302.492 288.825 302.938C288.451 303.383 287.968 303.632 287.375 303.683ZM284.393 308.64C283.927 308.681 283.513 308.55 283.152 308.248C282.791 307.945 282.591 307.56 282.55 307.094L281.512 295.231C281.471 294.765 281.602 294.352 281.905 293.991C282.208 293.63 282.593 293.429 283.059 293.388L283.906 293.314L283.832 292.467C283.811 292.227 283.874 292.018 284.022 291.841C284.171 291.665 284.365 291.566 284.605 291.545C284.845 291.524 285.054 291.588 285.23 291.736C285.407 291.884 285.505 292.078 285.526 292.318L285.601 293.166L292.379 292.573L292.305 291.725C292.284 291.485 292.348 291.277 292.496 291.1C292.644 290.924 292.838 290.825 293.078 290.804C293.318 290.783 293.527 290.846 293.703 290.994C293.88 291.143 293.979 291.337 294 291.577L294.074 292.424L294.921 292.35C295.387 292.31 295.801 292.441 296.162 292.744C296.523 293.046 296.724 293.431 296.764 293.897L297.802 305.76C297.843 306.226 297.712 306.639 297.409 307C297.106 307.361 296.722 307.562 296.256 307.602L284.393 308.64ZM284.245 306.946L296.107 305.908L295.366 297.434L283.503 298.472L284.245 306.946Z" fill="#646464"/>
</g>
<path d="M266.95 318.546L268.132 317.06L267.095 317.15L266.066 318.624L266.95 318.546ZM265.247 326.482L269.07 326.148L268.999 325.334L266.132 325.585L265.921 323.175L268.382 322.96L268.311 322.157L265.851 322.372L265.651 320.094L268.519 319.843L268.448 319.03L264.624 319.364L265.247 326.482ZM269.314 320.962L271.765 325.912L272.904 325.812L274.459 320.512L273.523 320.594L272.255 324.957L270.249 320.881L269.314 320.962ZM277.97 319.385L279.012 317.593L278.036 317.679L277.126 319.459L277.97 319.385ZM280.368 324.309L279.684 323.867C279.389 324.354 278.856 324.707 278.195 324.765C277.097 324.861 276.249 324.188 276.111 322.96L280.046 322.616C280.064 322.471 280.078 322.275 280.06 322.071C279.95 320.811 278.959 319.914 277.566 320.035C275.98 320.174 275.089 321.471 275.225 323.027C275.356 324.522 276.535 325.699 278.264 325.548C279.219 325.465 279.946 324.991 280.368 324.309ZM277.61 320.769C278.515 320.69 279.089 321.275 279.185 322.025L276.114 322.294C276.22 321.393 276.766 320.843 277.61 320.769ZM281.795 325.034L282.659 324.959L282.349 321.41C282.627 320.843 283.057 320.375 283.8 320.31C284.593 320.24 285.158 320.724 285.238 321.639L285.506 324.71L286.371 324.634L286.099 321.533C285.972 320.079 285.05 319.381 283.901 319.481C283.139 319.548 282.639 319.92 282.262 320.414L282.211 319.834L281.347 319.91L281.795 325.034ZM292.592 323.239L291.908 322.797C291.612 323.284 291.08 323.638 290.419 323.696C289.321 323.792 288.473 323.118 288.334 321.891L292.27 321.546C292.288 321.401 292.301 321.205 292.283 321.002C292.173 319.741 291.183 318.844 289.79 318.966C288.203 319.105 287.313 320.402 287.449 321.958C287.58 323.452 288.759 324.63 290.487 324.479C291.443 324.395 292.17 323.922 292.592 323.239ZM289.833 319.7C290.738 319.621 291.312 320.206 291.408 320.956L288.338 321.224C288.443 320.324 288.989 319.774 289.833 319.7ZM294.019 323.965L294.883 323.889L294.572 320.341C294.821 319.786 295.22 319.311 295.922 319.249C296.664 319.184 297.174 319.631 297.249 320.486L297.527 323.658L298.391 323.582L298.111 320.379C298.1 320.257 298.08 320.147 298.06 320.036C298.343 319.406 298.769 319 299.419 318.943C300.152 318.879 300.672 319.325 300.747 320.18L301.024 323.352L301.889 323.276L301.608 320.073C301.487 318.68 300.619 318.019 299.521 318.115C298.636 318.192 298.135 318.666 297.777 319.261C297.405 318.638 296.766 318.356 296.023 318.421C295.312 318.483 294.831 318.843 294.483 319.324L294.435 318.765L293.57 318.84L294.019 323.965ZM308.112 321.882L307.428 321.439C307.132 321.926 306.6 322.28 305.939 322.338C304.841 322.434 303.993 321.76 303.855 320.533L307.79 320.188C307.808 320.043 307.821 319.848 307.804 319.644C307.693 318.383 306.703 317.486 305.31 317.608C303.724 317.747 302.833 319.044 302.969 320.6C303.1 322.095 304.279 323.272 306.007 323.121C306.963 323.037 307.69 322.564 308.112 321.882ZM305.354 318.342C306.259 318.263 306.832 318.848 306.929 319.598L303.858 319.866C303.964 318.966 304.51 318.416 305.354 318.342ZM309.539 322.607L310.403 322.531L310.093 318.983C310.371 318.415 310.801 317.947 311.544 317.883C312.337 317.813 312.901 318.297 312.982 319.212L313.25 322.282L314.114 322.207L313.843 319.106C313.716 317.651 312.794 316.953 311.645 317.054C310.883 317.121 310.382 317.492 310.005 317.986L309.955 317.407L309.09 317.482L309.539 322.607ZM315.999 320.31C316.108 321.561 316.799 322.074 317.937 321.975C318.303 321.943 318.574 321.878 318.81 321.755L318.742 320.982C318.556 321.081 318.326 321.142 317.99 321.171C317.37 321.225 316.943 321.037 316.873 320.234L316.644 317.611L318.423 317.455L318.355 316.672L316.575 316.828L316.463 315.546L315.589 315.623L315.701 316.904L314.735 316.989L314.803 317.772L315.769 317.687L315.999 320.31Z" fill="#646464"/>
<g filter="url(#filter1_d_4866_12752)">
<rect x="11.0017" y="81.4387" width="222.924" height="65.6424" rx="5.19859" transform="rotate(-5 11.0017 81.4387)" fill="white" shape-rendering="crispEdges"/>
<path d="M31.0941 102.298C30.9052 100.139 31.5001 98.2389 32.8787 96.596C34.2572 94.9531 36.0256 94.0372 38.1837 93.8484L38.3348 95.5749C36.6514 95.7222 35.2749 96.4333 34.2051 97.7082C33.1348 98.9837 32.6733 100.463 32.8206 102.147L31.0941 102.298ZM34.5471 101.995C34.4427 100.801 34.7746 99.7464 35.5429 98.8307C36.3107 97.9157 37.2917 97.406 38.4858 97.3015L38.6369 99.028C37.9175 99.091 37.3281 99.3962 36.8685 99.9439C36.409 100.491 36.2107 101.125 36.2737 101.844L34.5471 101.995ZM27.0368 95.6935C26.562 95.7351 26.1406 95.6014 25.7726 95.2926C25.4052 94.9844 25.2007 94.5928 25.1592 94.118C25.1177 93.6432 25.251 93.2219 25.5592 92.8539C25.8681 92.4865 26.2599 92.282 26.7347 92.2404C27.2095 92.1989 27.6306 92.3323 27.9979 92.6405C28.366 92.9493 28.5707 93.3411 28.6123 93.8159C28.6538 94.2907 28.5201 94.7118 28.2113 95.0793C27.9031 95.4472 27.5116 95.652 27.0368 95.6935ZM24.8246 100.236L24.6358 98.0783C24.6043 97.7186 24.7036 97.4019 24.9337 97.1284C25.1631 96.8543 25.4577 96.7015 25.8174 96.6701L28.4072 96.4435C29.0547 96.3868 29.5944 96.1329 30.0264 95.6816C30.4578 95.231 30.7041 94.6913 30.765 94.0625L32.4916 93.9115C32.4808 94.7823 32.231 95.5725 31.7421 96.2822C31.2533 96.9919 30.6173 97.5115 29.8343 97.8409L30.0042 99.7833L24.8246 100.236ZM39.9533 104.132C39.4785 104.174 39.0571 104.04 38.6892 103.732C38.3218 103.423 38.1173 103.031 38.0757 102.557C38.0342 102.082 38.1675 101.66 38.4758 101.292C38.7846 100.925 39.1764 100.721 39.6512 100.679C40.126 100.637 40.5474 100.771 40.9154 101.079C41.2828 101.388 41.4873 101.78 41.5288 102.255C41.5703 102.729 41.437 103.151 41.1288 103.519C40.8199 103.886 40.4281 104.091 39.9533 104.132ZM37.7411 108.675L37.5712 106.733C36.7428 106.544 36.0263 106.143 35.4217 105.529C34.8171 104.915 34.4338 104.18 34.272 103.324L35.9985 103.173C36.1677 103.782 36.5039 104.271 37.0072 104.64C37.5109 105.009 38.0865 105.165 38.7339 105.109L41.3238 104.882C41.6834 104.851 42.0001 104.95 42.2736 105.18C42.5477 105.409 42.7005 105.704 42.7319 106.064L42.9208 108.222L37.7411 108.675Z" fill="#FCBF49"/>
<path d="M54.0656 94.1733C51.2039 94.4236 49.4411 96.796 49.6677 99.3858C49.8943 101.976 52.0422 104.006 54.9039 103.756C57.7527 103.506 59.5154 101.134 59.2888 98.5441C59.0623 95.9543 56.9144 93.924 54.0656 94.1733ZM54.7533 102.033C53.044 102.183 51.7101 100.956 51.5583 99.2204C51.4065 97.4853 52.507 96.045 54.2163 95.8955C55.9126 95.7471 57.2465 96.9743 57.3983 98.7095C57.5501 100.445 56.4496 101.885 54.7533 102.033ZM59.955 96.4764L60.0841 97.9526L61.3013 97.8461L61.7431 102.896L63.4006 102.751L62.9588 97.7011L64.9529 97.5266L64.8238 96.0504L62.8296 96.2249L62.7662 95.4998C62.7141 94.9041 63.0427 94.4839 63.5995 94.4352C63.9362 94.4057 64.2053 94.4996 64.412 94.6251L64.9912 93.1913C64.5576 93.0074 64.0401 92.9092 63.4444 92.9613C61.8129 93.104 60.9909 94.2981 61.1121 95.6836L61.1722 96.3699L59.955 96.4764ZM65.4684 95.994L65.5976 97.4702L66.8148 97.3637L67.2566 102.414L68.9141 102.269L68.4722 97.2187L70.4664 97.0443L70.3372 95.5681L68.3431 95.7425L68.2796 95.0174C68.2275 94.4217 68.5561 94.0015 69.1129 93.9528C69.4496 93.9234 69.7188 94.0173 69.9255 94.1427L70.5046 92.7089C70.071 92.525 69.5535 92.4268 68.9579 92.4789C67.3263 92.6216 66.5044 93.8157 66.6256 95.2012L66.6856 95.8875L65.4684 95.994ZM71.951 102.003L73.5955 101.859L73.2296 97.6767C73.4394 97.2408 73.9188 96.7553 74.7217 96.685C75.0195 96.659 75.243 96.6785 75.4548 96.7122L75.3131 95.0936C75.1532 95.0554 74.9556 95.0335 74.7355 95.0528C73.9974 95.1174 73.47 95.5028 73.0812 95.9804L73.0246 95.333L71.38 95.4768L71.951 102.003ZM82.8488 99.9798L81.5889 99.1505C81.28 99.6473 80.6857 100.012 79.9735 100.075C78.9505 100.164 78.1564 99.7379 77.8945 98.5343L82.4655 98.1344C82.4981 97.9097 82.5204 97.5685 82.4887 97.2059C82.3392 95.4966 81.0402 94.3707 79.2274 94.5293C77.0908 94.7162 76.0129 96.4155 76.1817 98.3449C76.3482 100.248 77.7977 101.753 80.1156 101.55C81.3457 101.442 82.3116 100.849 82.8488 99.9798ZM79.3063 95.8794C80.2257 95.799 80.7626 96.4175 80.8463 97.0756L77.8421 97.3384C77.9486 96.4679 78.4646 95.9531 79.3063 95.8794ZM83.6912 100.023C84.3773 100.707 85.2468 101.101 86.4122 100.999C87.6424 100.891 88.6774 100.044 88.5832 98.6691C88.386 96.416 85.2993 97.0775 85.2019 95.9638C85.1724 95.6272 85.3935 95.3208 85.9115 95.2754C86.4165 95.2313 86.8733 95.5305 87.2462 95.9155L88.2501 94.8621C87.7284 94.2684 86.7801 93.8685 85.783 93.9558C84.4234 94.0747 83.5281 95.0273 83.6289 96.1797C83.8294 98.4717 86.9128 97.7714 87.0125 98.9109C87.0464 99.2994 86.8017 99.6339 86.2708 99.6804C85.6492 99.7348 85.1384 99.4141 84.6928 98.9442L83.6912 100.023ZM93.0003 96.8734C93.1668 98.7769 94.5645 100.286 96.6234 100.106C97.5039 100.029 98.1146 99.7011 98.5754 99.1519L98.6207 99.6698L100.278 99.5248L99.4286 89.8131L97.7711 89.9581L98.0951 93.6615C97.5459 93.2007 96.8876 92.9842 96.0071 93.0613C93.9482 93.2414 92.8337 94.9699 93.0003 96.8734ZM94.7225 96.7228C94.6228 95.5833 95.2625 94.6922 96.3761 94.5948C97.1142 94.5302 97.75 94.7877 98.2424 95.3449L98.4282 97.4685C98.04 98.1027 97.4586 98.4667 96.7205 98.5313C95.6069 98.6287 94.8222 97.8623 94.7225 96.7228ZM102.661 93.9405L103.837 90.0798L101.972 90.2429L101.133 94.0742L102.661 93.9405ZM106.1 91.291C106.683 91.24 107.119 90.706 107.068 90.1233C107.017 89.5406 106.495 89.0905 105.912 89.1414C105.33 89.1924 104.88 89.7275 104.931 90.3102C104.982 90.8929 105.518 91.342 106.1 91.291ZM105.942 99.0293L107.587 98.8854L107.016 92.3591L105.371 92.503L105.942 99.0293ZM109.559 98.7129L111.203 98.569L110.831 94.3088C111.04 93.8729 111.38 93.2821 112.131 93.2164C112.869 93.1518 113.34 93.6065 113.409 94.3964L113.754 98.3458L115.412 98.2008L115.061 94.1866C115.052 94.083 115.044 93.9924 115.023 93.9029C115.243 93.4399 115.589 92.9139 116.301 92.8516C117.039 92.787 117.509 93.2417 117.578 94.0316L117.924 97.981L119.581 97.836L119.23 93.8218C119.069 91.9831 117.926 91.1436 116.579 91.2615C115.479 91.3578 114.9 91.9042 114.484 92.5147C113.995 91.8529 113.238 91.5537 112.41 91.6262C111.607 91.6965 111.078 92.0689 110.675 92.5348L110.632 92.0427L108.988 92.1866L109.559 98.7129ZM121.458 97.6718L123.103 97.5279L122.73 93.2677C122.94 92.8318 123.28 92.241 124.031 92.1753C124.769 92.1107 125.239 92.5654 125.308 93.3553L125.654 97.3048L127.311 97.1598L126.96 93.1456C126.951 93.042 126.943 92.9513 126.922 92.8618C127.143 92.3989 127.488 91.8728 128.2 91.8105C128.938 91.7459 129.409 92.2006 129.478 92.9905L129.823 96.94L131.481 96.795L131.13 92.7808C130.969 90.942 129.825 90.1026 128.479 90.2204C127.378 90.3167 126.799 90.8631 126.383 91.4737C125.895 90.8118 125.138 90.5127 124.309 90.5852C123.506 90.6554 122.978 91.0279 122.575 91.4937L122.532 91.0016L120.887 91.1455L121.458 97.6718ZM139.273 95.0433L138.013 94.214C137.704 94.7108 137.11 95.0759 136.398 95.1383C135.375 95.2277 134.581 94.8014 134.319 93.5978L138.89 93.1979C138.922 92.9732 138.945 92.632 138.913 92.2694C138.764 90.5602 137.465 89.4342 135.652 89.5928C133.515 89.7798 132.437 91.479 132.606 93.4084C132.773 95.3119 134.222 96.8161 136.54 96.6133C137.77 96.5057 138.736 95.9123 139.273 95.0433ZM135.731 90.9429C136.65 90.8625 137.187 91.481 137.271 92.1391L134.266 92.4019C134.373 91.5314 134.889 91.0166 135.731 90.9429ZM140.857 95.9747L142.501 95.8308L142.135 91.6483C142.345 91.2124 142.824 90.7268 143.627 90.6566C143.925 90.6305 144.149 90.6501 144.36 90.6838L144.219 89.0651C144.059 89.0269 143.861 89.0051 143.641 89.0243C142.903 89.0889 142.376 89.4743 141.987 89.952L141.93 89.3045L140.286 89.4484L140.857 95.9747ZM145.465 94.619C146.151 95.3027 147.02 95.6964 148.186 95.5944C149.416 95.4868 150.451 94.6395 150.357 93.2646C150.159 91.0115 147.073 91.673 146.975 90.5594C146.946 90.2227 147.167 89.9163 147.685 89.871C148.19 89.8268 148.647 90.1261 149.02 90.511L150.024 89.4576C149.502 88.8639 148.553 88.4641 147.556 88.5513C146.197 88.6703 145.302 89.6228 145.402 90.7753C145.603 93.0672 148.686 92.3669 148.786 93.5064C148.82 93.8949 148.575 94.2295 148.044 94.2759C147.423 94.3303 146.912 94.0096 146.466 93.5397L145.465 94.619ZM152.193 87.2584C152.776 87.2074 153.212 86.6734 153.161 86.0907C153.11 85.508 152.588 85.0578 152.005 85.1088C151.422 85.1598 150.973 85.6949 151.024 86.2776C151.075 86.8603 151.611 87.3093 152.193 87.2584ZM152.035 94.9967L153.68 94.8528L153.109 88.3265L151.464 88.4704L152.035 94.9967ZM158.166 87.6231C156.042 87.8089 154.729 89.5026 154.9 91.4579C155.071 93.4132 156.659 94.8532 158.782 94.6674C160.906 94.4816 162.219 92.7878 162.048 90.8325C161.877 88.8772 160.29 87.4373 158.166 87.6231ZM158.672 93.1112C157.584 93.2064 156.709 92.4479 156.609 91.3084C156.51 90.1688 157.24 89.2699 158.328 89.1747C159.377 89.0829 160.239 89.8426 160.339 90.9821C160.437 92.1087 159.721 93.0194 158.672 93.1112ZM163.833 93.9645L165.478 93.8206L165.105 89.5604C165.315 89.1245 165.707 88.5291 166.535 88.4566C167.338 88.3864 167.878 88.8872 167.954 89.7548L168.288 93.5748L169.945 93.4297L169.606 89.545C169.437 87.6156 168.225 86.743 166.814 86.8665C165.946 86.9424 165.367 87.3323 164.952 87.8122L164.907 87.2943L163.262 87.4382L163.833 93.9645Z" fill="#161616"/>
<rect x="28.8707" y="121.629" width="60.443" height="13.6484" rx="6.82314" transform="rotate(-5 28.8707 121.629)" fill="#F1F1F1"/>
<rect x="94.2632" y="115.908" width="40.9452" height="13.6484" rx="6.82314" transform="rotate(-5 94.2632 115.908)" fill="#F1F1F1"/>
<rect x="140.232" y="111.886" width="82.5404" height="13.6484" rx="6.82314" transform="rotate(-5 140.232 111.886)" fill="#F1F1F1"/>
</g>
<g filter="url(#filter2_d_4866_12752)">
<rect x="25.3003" y="115.885" width="222.924" height="65.6424" rx="5.19859" transform="rotate(-5 25.3003 115.885)" fill="white" shape-rendering="crispEdges"/>
<g clip-path="url(#clip2_4866_12752)">
<path d="M39.5868 142.471C39.3998 142.487 39.2398 142.439 39.1068 142.328C38.9738 142.216 38.8991 142.067 38.8827 141.88L38.6373 139.074C38.6008 138.657 38.7171 138.288 38.9862 137.967C39.2554 137.647 39.5986 137.468 40.0158 137.431L43.0588 137.165C43.3034 137.144 43.5426 137.184 43.7763 137.287C44.01 137.39 44.2154 137.542 44.3926 137.744C44.8627 138.312 45.436 138.733 46.1124 139.007C46.7888 139.282 47.4939 139.387 48.2276 139.323C48.9614 139.258 49.6376 139.033 50.2561 138.645C50.8746 138.257 51.3732 137.743 51.752 137.101C51.8913 136.871 52.0636 136.685 52.2687 136.544C52.4738 136.403 52.6987 136.322 52.9433 136.3L55.9863 136.034C56.4035 135.998 56.7725 136.114 57.0933 136.383C57.414 136.652 57.5927 136.995 57.6292 137.413L57.8746 140.218C57.891 140.405 57.8434 140.565 57.7318 140.698C57.6202 140.831 57.4709 140.906 57.2838 140.922L52.9675 141.3C52.7805 141.316 52.6204 141.269 52.4874 141.157C52.3544 141.046 52.2798 140.896 52.2634 140.709L52.0954 138.789C51.6189 139.309 51.0575 139.727 50.4112 140.045C49.7648 140.362 49.0747 140.553 48.3409 140.618C47.6072 140.682 46.898 140.613 46.2135 140.412C45.529 140.211 44.8998 139.896 44.3259 139.468L44.494 141.389C44.5103 141.576 44.4627 141.736 44.3511 141.869C44.2395 142.002 44.0902 142.077 43.9032 142.093L39.5868 142.471ZM48.1143 138.028C47.6108 138.072 47.1148 137.996 46.6264 137.799C46.1381 137.603 45.7317 137.308 45.4075 136.916C45.1483 136.605 44.8481 136.363 44.5067 136.19C44.1654 136.017 43.8045 135.911 43.4241 135.872C43.8036 135.404 44.4293 135.016 45.3012 134.707C46.1731 134.399 46.9975 134.211 47.7745 134.143C48.5514 134.075 49.3996 134.117 50.319 134.268C51.2383 134.42 51.9255 134.693 52.3805 135.088C52.0128 135.193 51.6758 135.36 51.3697 135.59C51.0636 135.82 50.8099 136.11 50.6087 136.461C50.3574 136.904 50.0084 137.264 49.5615 137.542C49.1147 137.821 48.6323 137.982 48.1143 138.028ZM40.9627 135.826C40.3009 135.884 39.7196 135.703 39.2189 135.283C38.7183 134.863 38.439 134.322 38.3811 133.66C38.3232 132.998 38.5043 132.417 38.9244 131.916C39.3445 131.416 39.8855 131.136 40.5473 131.078C41.2092 131.02 41.7905 131.202 42.2911 131.622C42.7918 132.042 43.0711 132.583 43.129 133.245C43.1869 133.906 43.0058 134.488 42.5857 134.988C42.1656 135.489 41.6246 135.768 40.9627 135.826ZM54.775 134.618C54.1132 134.676 53.5319 134.495 53.0312 134.075C52.5306 133.654 52.2513 133.113 52.1934 132.452C52.1354 131.79 52.3166 131.208 52.7367 130.708C53.1568 130.207 53.6978 129.928 54.3596 129.87C55.0215 129.812 55.6027 129.993 56.1034 130.413C56.6041 130.833 56.8834 131.374 56.9413 132.036C56.9992 132.698 56.8181 133.279 56.398 133.78C55.9779 134.281 55.4369 134.56 54.775 134.618ZM47.6423 132.632C46.9805 132.69 46.3992 132.509 45.8985 132.089C45.3978 131.669 45.1185 131.128 45.0606 130.466C45.0027 129.804 45.1838 129.223 45.604 128.722C46.0241 128.222 46.5651 127.942 47.2269 127.884C47.8888 127.826 48.47 128.008 48.9707 128.428C49.4714 128.848 49.7507 129.389 49.8086 130.051C49.8665 130.712 49.6854 131.294 49.2653 131.794C48.8451 132.295 48.3041 132.574 47.6423 132.632Z" fill="#15616D"/>
</g>
<path d="M68.3642 128.619C65.5025 128.87 63.7398 131.242 63.9663 133.832C64.1929 136.422 66.3408 138.452 69.2025 138.202C72.0513 137.952 73.814 135.58 73.5875 132.99C73.3609 130.4 71.213 128.37 68.3642 128.619ZM69.0519 136.479C67.3426 136.629 66.0087 135.402 65.8569 133.666C65.7051 131.931 66.8056 130.491 68.5149 130.342C70.2112 130.193 71.5451 131.42 71.6969 133.156C71.8487 134.891 70.7482 136.331 69.0519 136.479ZM74.2536 130.922L74.3827 132.399L75.5999 132.292L76.0418 137.342L77.6992 137.197L77.2574 132.147L79.2515 131.973L79.1224 130.496L77.1282 130.671L77.0648 129.946C77.0127 129.35 77.3413 128.93 77.8981 128.881C78.2348 128.852 78.5039 128.946 78.7106 129.071L79.2898 127.637C78.8562 127.453 78.3387 127.355 77.743 127.407C76.1115 127.55 75.2895 128.744 75.4107 130.13L75.4708 130.816L74.2536 130.922ZM79.767 130.44L79.8962 131.916L81.1134 131.81L81.5552 136.86L83.2127 136.715L82.7708 131.665L84.765 131.49L84.6358 130.014L82.6417 130.189L82.5783 129.463C82.5261 128.868 82.8547 128.448 83.4115 128.399C83.7482 128.369 84.0174 128.463 84.2241 128.589L84.8032 127.155C84.3696 126.971 83.8521 126.873 83.2565 126.925C81.6249 127.068 80.803 128.262 80.9242 129.647L80.9842 130.334L79.767 130.44ZM86.2496 136.449L87.8942 136.305L87.5282 132.123C87.738 131.687 88.2175 131.201 89.0203 131.131C89.3181 131.105 89.5417 131.125 89.7534 131.158L89.6118 129.54C89.4518 129.501 89.2542 129.48 89.0341 129.499C88.296 129.563 87.7686 129.949 87.3798 130.426L87.3232 129.779L85.6787 129.923L86.2496 136.449ZM97.1474 134.426L95.8875 133.597C95.5786 134.093 94.9843 134.458 94.2721 134.521C93.2491 134.61 92.455 134.184 92.1931 132.98L96.7641 132.58C96.7967 132.356 96.819 132.015 96.7873 131.652C96.6378 129.943 95.3388 128.817 93.526 128.975C91.3894 129.162 90.3115 130.862 90.4803 132.791C90.6468 134.694 92.0963 136.199 94.4142 135.996C95.6443 135.888 96.6102 135.295 97.1474 134.426ZM93.6049 130.325C94.5243 130.245 95.0612 130.863 95.1449 131.522L92.1407 131.784C92.2472 130.914 92.7633 130.399 93.6049 130.325ZM97.9898 134.47C98.6759 135.153 99.5454 135.547 100.711 135.445C101.941 135.337 102.976 134.49 102.882 133.115C102.685 130.862 99.5979 131.523 99.5005 130.41C99.471 130.073 99.6922 129.767 100.21 129.721C100.715 129.677 101.172 129.977 101.545 130.361L102.549 129.308C102.027 128.714 101.079 128.315 100.082 128.402C98.722 128.521 97.8267 129.473 97.9275 130.626C98.128 132.918 101.211 132.217 101.311 133.357C101.345 133.745 101.1 134.08 100.569 134.126C99.9478 134.181 99.437 133.86 98.9914 133.39L97.9898 134.47ZM107.299 131.319C107.465 133.223 108.863 134.732 110.922 134.552C111.802 134.475 112.413 134.147 112.874 133.598L112.919 134.116L114.577 133.971L113.727 124.259L112.07 124.404L112.394 128.108C111.844 127.647 111.186 127.43 110.306 127.507C108.247 127.687 107.132 129.416 107.299 131.319ZM109.021 131.169C108.921 130.029 109.561 129.138 110.675 129.041C111.413 128.976 112.049 129.234 112.541 129.791L112.727 131.915C112.339 132.549 111.757 132.913 111.019 132.977C109.905 133.075 109.121 132.308 109.021 131.169ZM122.464 132.211L121.204 131.382C120.895 131.878 120.301 132.244 119.588 132.306C118.565 132.395 117.771 131.969 117.509 130.765L122.081 130.365C122.113 130.141 122.135 129.8 122.104 129.437C121.954 127.728 120.655 126.602 118.842 126.76C116.706 126.947 115.628 128.647 115.797 130.576C115.963 132.48 117.413 133.984 119.731 133.781C120.961 133.673 121.927 133.08 122.464 132.211ZM118.921 128.111C119.841 128.03 120.378 128.649 120.461 129.307L117.457 129.57C117.564 128.699 118.08 128.184 118.921 128.111ZM126.885 131.942C127.571 132.625 128.44 133.019 129.606 132.917C130.836 132.809 131.871 131.962 131.777 130.587C131.58 128.334 128.493 128.995 128.396 127.882C128.366 127.545 128.587 127.239 129.105 127.193C129.61 127.149 130.067 127.449 130.44 127.834L131.444 126.78C130.922 126.186 129.974 125.787 128.977 125.874C127.617 125.993 126.722 126.945 126.823 128.098C127.023 130.39 130.106 129.689 130.206 130.829C130.24 131.217 129.995 131.552 129.464 131.598C128.843 131.653 128.332 131.332 127.886 130.862L126.885 131.942ZM139.346 130.734L138.086 129.905C137.777 130.401 137.182 130.767 136.47 130.829C135.447 130.918 134.653 130.492 134.391 129.288L138.962 128.889C138.995 128.664 139.017 128.323 138.985 127.96C138.836 126.251 137.537 125.125 135.724 125.283C133.588 125.47 132.51 127.17 132.678 129.099C132.845 131.003 134.294 132.507 136.612 132.304C137.842 132.196 138.808 131.603 139.346 130.734ZM135.803 126.634C136.722 126.553 137.259 127.172 137.343 127.83L134.339 128.093C134.445 127.222 134.961 126.707 135.803 126.634ZM140.929 131.665L142.573 131.521L142.208 127.339C142.417 126.903 142.897 126.417 143.7 126.347C143.997 126.321 144.221 126.341 144.433 126.374L144.291 124.756C144.131 124.718 143.933 124.696 143.713 124.715C142.975 124.78 142.448 125.165 142.059 125.643L142.002 124.995L140.358 125.139L140.929 131.665ZM145.015 124.732L147.956 131.051L150.118 130.861L151.93 124.127L150.156 124.282L148.88 129.091L146.776 124.578L145.015 124.732ZM153.695 122.824C154.277 122.773 154.713 122.239 154.662 121.656C154.611 121.074 154.089 120.623 153.507 120.674C152.924 120.725 152.475 121.261 152.526 121.843C152.577 122.426 153.112 122.875 153.695 122.824ZM153.537 130.562L155.181 130.418L154.61 123.892L152.966 124.036L153.537 130.562ZM160.174 128.677C159.073 128.773 158.212 128.026 158.111 126.874C158.011 125.734 158.728 124.837 159.803 124.743C160.477 124.684 161.021 124.936 161.371 125.362L162.567 124.266C161.888 123.516 160.884 123.082 159.693 123.186C157.44 123.384 156.235 125.12 156.401 127.024C156.568 128.927 158.056 130.428 160.309 130.231C161.501 130.127 162.414 129.525 162.952 128.669L161.584 127.797C161.313 128.277 160.821 128.62 160.174 128.677ZM169.935 128.058L168.675 127.228C168.366 127.725 167.772 128.09 167.06 128.153C166.037 128.242 165.243 127.816 164.981 126.612L169.552 126.212C169.584 125.988 169.607 125.646 169.575 125.284C169.425 123.575 168.127 122.449 166.314 122.607C164.177 122.794 163.099 124.493 163.268 126.423C163.435 128.326 164.884 129.831 167.202 129.628C168.432 129.52 169.398 128.927 169.935 128.058ZM166.393 123.957C167.312 123.877 167.849 124.495 167.933 125.154L164.928 125.416C165.035 124.546 165.551 124.031 166.393 123.957ZM178.029 127.115C176.928 127.211 176.067 126.464 175.966 125.312C175.867 124.172 176.584 123.274 177.659 123.18C178.332 123.122 178.876 123.374 179.226 123.8L180.422 122.704C179.743 121.954 178.74 121.52 177.549 121.624C175.296 121.821 174.09 123.558 174.257 125.461C174.423 127.365 175.912 128.866 178.165 128.669C179.356 128.564 180.269 127.963 180.808 127.106L179.439 126.235C179.168 126.715 178.676 127.058 178.029 127.115ZM182.286 120.323C182.869 120.272 183.305 119.738 183.254 119.155C183.203 118.572 182.681 118.122 182.098 118.173C181.515 118.224 181.066 118.759 181.117 119.342C181.168 119.925 181.703 120.374 182.286 120.323ZM182.128 128.061L183.773 127.917L183.202 121.391L181.557 121.535L182.128 128.061ZM184.241 121.3L187.182 127.619L189.345 127.43L191.156 120.695L189.382 120.85L188.107 125.659L186.002 121.146L184.241 121.3ZM192.921 119.392C193.504 119.341 193.94 118.807 193.889 118.224C193.838 117.642 193.316 117.192 192.733 117.243C192.15 117.294 191.701 117.829 191.752 118.411C191.803 118.994 192.338 119.443 192.921 119.392ZM192.763 127.13L194.407 126.987L193.836 120.46L192.192 120.604L192.763 127.13ZM195.628 123.592C195.794 125.495 197.179 127.005 199.251 126.824C200.132 126.747 200.741 126.406 201.202 125.857L201.527 129.574L203.185 129.429L202.335 119.717L200.677 119.862L200.724 120.393C200.175 119.932 199.515 119.702 198.635 119.78C196.563 119.961 195.461 121.688 195.628 123.592ZM197.337 123.442C197.237 122.303 197.877 121.412 198.991 121.314C199.729 121.25 200.379 121.519 200.872 122.089L201.054 124.161C200.704 124.792 200.099 125.184 199.335 125.251C198.222 125.348 197.437 124.582 197.337 123.442ZM208.929 122.872C209.012 123.817 208.571 124.443 207.678 124.521C206.771 124.6 206.228 124.06 206.145 123.115L205.821 119.412L204.164 119.557L204.481 123.182C204.652 125.138 205.884 126.243 207.801 126.076C209.717 125.908 210.751 124.604 210.58 122.649L210.263 119.023L208.605 119.168L208.929 122.872ZM218.57 123.803L217.31 122.973C217.001 123.47 216.407 123.835 215.694 123.898C214.672 123.987 213.877 123.561 213.616 122.357L218.187 121.957C218.219 121.733 218.241 121.391 218.21 121.029C218.06 119.32 216.761 118.194 214.948 118.352C212.812 118.539 211.734 120.238 211.903 122.168C212.069 124.071 213.519 125.576 215.837 125.373C217.067 125.265 218.033 124.672 218.57 123.803ZM215.027 119.702C215.947 119.622 216.484 120.24 216.567 120.899L213.563 121.161C213.67 120.291 214.186 119.776 215.027 119.702Z" fill="#161616"/>
<rect x="43.1693" y="156.075" width="60.443" height="13.6484" rx="6.82314" transform="rotate(-5 43.1693 156.075)" fill="#F1F1F1"/>
<rect x="108.562" y="150.354" width="40.9452" height="13.6484" rx="6.82314" transform="rotate(-5 108.562 150.354)" fill="#F1F1F1"/>
<rect x="154.531" y="146.332" width="82.5404" height="13.6484" rx="6.82314" transform="rotate(-5 154.531 146.332)" fill="#F1F1F1"/>
</g>
<g filter="url(#filter3_d_4866_12752)">
<rect x="38.9484" y="149.031" width="222.924" height="65.6424" rx="5.19859" transform="rotate(-5 38.9484 149.031)" fill="white" shape-rendering="crispEdges"/>
<path d="M62.2347 176.569C62.0477 176.586 61.8877 176.538 61.7547 176.426C61.6217 176.315 61.547 176.166 61.5306 175.978L61.2474 172.741L56.8879 173.123C56.7584 173.134 56.6339 173.119 56.5144 173.079C56.3949 173.039 56.2882 172.979 56.1943 172.901L54.6453 171.601C54.5358 171.509 54.4544 171.407 54.4012 171.296C54.3479 171.185 54.3163 171.071 54.3062 170.956C54.2961 170.841 54.3077 170.724 54.3408 170.605C54.3738 170.487 54.4363 170.372 54.5282 170.263L55.828 168.714C55.9068 168.62 56.0015 168.543 56.1122 168.482C56.2229 168.422 56.343 168.386 56.4725 168.375L60.832 167.993L60.6621 166.051L55.2667 166.523C55.0077 166.546 54.7765 166.472 54.5731 166.301C54.3697 166.13 54.2566 165.915 54.234 165.656L53.9847 162.808C53.9621 162.549 54.0361 162.317 54.2068 162.114C54.3774 161.911 54.5923 161.798 54.8513 161.775L60.2467 161.303L60.1334 160.008C60.117 159.821 60.1646 159.661 60.2762 159.528C60.3878 159.395 60.5372 159.32 60.7242 159.304C60.9112 159.288 61.0713 159.335 61.2043 159.447C61.3373 159.558 61.4119 159.708 61.4283 159.895L61.5416 161.19L65.9011 160.808C66.0306 160.797 66.1551 160.811 66.2746 160.852C66.3941 160.892 66.5008 160.951 66.5947 161.03L68.1437 162.33C68.2532 162.422 68.3346 162.524 68.3878 162.635C68.4411 162.746 68.4727 162.859 68.4828 162.975C68.4928 163.09 68.4813 163.207 68.4482 163.325C68.4151 163.444 68.3527 163.559 68.2607 163.668L66.961 165.217C66.8822 165.311 66.7875 165.388 66.6768 165.449C66.5661 165.509 66.446 165.545 66.3165 165.556L61.957 165.938L62.1269 167.88L67.5223 167.408C67.7813 167.385 68.0125 167.459 68.2159 167.63C68.4193 167.801 68.5324 168.015 68.555 168.274L68.8043 171.123C68.8269 171.382 68.7529 171.613 68.5822 171.817C68.4115 172.02 68.1967 172.133 67.9377 172.156L62.5423 172.628L62.8255 175.865C62.8419 176.052 62.7943 176.212 62.6827 176.345C62.5711 176.478 62.4218 176.553 62.2347 176.569Z" fill="#5149A8"/>
<path d="M82.0123 161.765C79.1506 162.016 77.3879 164.388 77.6144 166.978C77.841 169.568 79.9889 171.598 82.8507 171.348C85.6994 171.098 87.4622 168.726 87.2356 166.136C87.009 163.546 84.8611 161.516 82.0123 161.765ZM82.7 169.625C80.9907 169.775 79.6568 168.548 79.505 166.812C79.3532 165.077 80.4537 163.637 82.163 163.488C83.8593 163.339 85.1932 164.566 85.345 166.302C85.4968 168.037 84.3963 169.477 82.7 169.625ZM87.9017 164.068L88.0308 165.545L89.248 165.438L89.6899 170.488L91.3473 170.343L90.9055 165.293L92.8997 165.119L92.7705 163.642L90.7764 163.817L90.7129 163.092C90.6608 162.496 90.9894 162.076 91.5462 162.027C91.8829 161.998 92.1521 162.092 92.3588 162.217L92.9379 160.783C92.5043 160.599 91.9868 160.501 91.3912 160.553C89.7596 160.696 88.9376 161.89 89.0588 163.276L89.1189 163.962L87.9017 164.068ZM93.4151 163.586L93.5443 165.062L94.7615 164.956L95.2033 170.006L96.8608 169.861L96.419 164.811L98.4131 164.636L98.284 163.16L96.2898 163.335L96.2264 162.609C96.1743 162.014 96.5028 161.594 97.0597 161.545C97.3963 161.515 97.6655 161.609 97.8722 161.735L98.4514 160.301C98.0177 160.117 97.5003 160.019 96.9046 160.071C95.273 160.214 94.4511 161.408 94.5723 162.793L94.6323 163.48L93.4151 163.586ZM99.8977 169.595L101.542 169.451L101.176 165.269C101.386 164.833 101.866 164.347 102.668 164.277C102.966 164.251 103.19 164.271 103.401 164.304L103.26 162.686C103.1 162.647 102.902 162.626 102.682 162.645C101.944 162.709 101.417 163.095 101.028 163.572L100.971 162.925L99.3268 163.069L99.8977 169.595ZM110.796 167.572L109.536 166.743C109.227 167.239 108.632 167.604 107.92 167.667C106.897 167.756 106.103 167.33 105.841 166.126L110.412 165.726C110.445 165.502 110.467 165.161 110.435 164.798C110.286 163.089 108.987 161.963 107.174 162.121C105.037 162.308 103.96 164.008 104.128 165.937C104.295 167.84 105.744 169.345 108.062 169.142C109.292 169.034 110.258 168.441 110.796 167.572ZM107.253 163.471C108.172 163.391 108.709 164.01 108.793 164.668L105.789 164.93C105.895 164.06 106.411 163.545 107.253 163.471ZM111.638 167.616C112.324 168.299 113.194 168.693 114.359 168.591C115.589 168.483 116.624 167.636 116.53 166.261C116.333 164.008 113.246 164.67 113.149 163.556C113.119 163.219 113.34 162.913 113.858 162.867C114.363 162.823 114.82 163.123 115.193 163.508L116.197 162.454C115.675 161.86 114.727 161.461 113.73 161.548C112.37 161.667 111.475 162.619 111.576 163.772C111.776 166.064 114.859 165.363 114.959 166.503C114.993 166.891 114.748 167.226 114.218 167.272C113.596 167.327 113.085 167.006 112.64 166.536L111.638 167.616ZM120.947 164.465C121.114 166.369 122.511 167.878 124.57 167.698C125.451 167.621 126.061 167.293 126.522 166.744L126.567 167.262L128.225 167.117L127.375 157.405L125.718 157.55L126.042 161.254C125.493 160.793 124.834 160.576 123.954 160.653C121.895 160.833 120.78 162.562 120.947 164.465ZM122.669 164.315C122.57 163.175 123.209 162.284 124.323 162.187C125.061 162.122 125.697 162.38 126.189 162.937L126.375 165.061C125.987 165.695 125.405 166.059 124.667 166.123C123.554 166.221 122.769 165.454 122.669 164.315ZM130.608 161.533L131.784 157.672L129.919 157.835L129.08 161.666L130.608 161.533ZM135.125 166.709C135.889 166.642 136.638 166.25 137.008 165.709L137.063 166.344L138.708 166.2L138.339 161.978C138.213 160.541 137.143 159.499 135.253 159.665C134.061 159.769 133.146 160.345 132.634 161.199L133.918 162.013C134.226 161.503 134.692 161.162 135.326 161.107C136.078 161.041 136.634 161.436 136.694 162.122L136.709 162.291L134.744 162.802C133.366 163.157 132.667 163.962 132.753 164.946C132.858 166.15 133.817 166.823 135.125 166.709ZM134.377 164.726C134.342 164.324 134.602 164.015 135.278 163.838L136.81 163.443L136.89 164.362C136.612 164.909 136.098 165.306 135.347 165.372C134.791 165.42 134.416 165.166 134.377 164.726ZM140.591 166.035L142.236 165.891L141.386 156.179L139.741 156.323L140.591 166.035ZM144.414 163.3C144.553 164.892 145.41 165.744 147.042 165.601C147.586 165.554 147.969 165.455 148.28 165.284L148.154 163.847C147.942 163.957 147.649 164.034 147.195 164.074C146.548 164.131 146.135 163.88 146.071 163.155L145.838 160.487L147.832 160.313L147.703 158.837L145.709 159.011L145.566 157.379L143.908 157.524L144.051 159.156L142.834 159.263L142.963 160.739L144.18 160.632L144.414 163.3ZM155.535 163.658L154.275 162.828C153.967 163.325 153.372 163.69 152.66 163.753C151.637 163.842 150.843 163.416 150.581 162.212L155.152 161.812C155.185 161.588 155.207 161.246 155.175 160.884C155.026 159.174 153.727 158.049 151.914 158.207C149.777 158.394 148.7 160.093 148.868 162.023C149.035 163.926 150.484 165.43 152.802 165.228C154.032 165.12 154.998 164.527 155.535 163.658ZM151.993 159.557C152.912 159.477 153.449 160.095 153.533 160.753L150.529 161.016C150.635 160.146 151.151 159.631 151.993 159.557ZM157.119 164.589L158.763 164.445L158.397 160.263C158.607 159.827 159.087 159.341 159.889 159.271C160.187 159.245 160.411 159.264 160.623 159.298L160.481 157.679C160.321 157.641 160.123 157.619 159.903 157.639C159.165 157.703 158.638 158.089 158.249 158.566L158.192 157.919L156.548 158.063L157.119 164.589ZM162.379 164.129L164.024 163.985L163.651 159.725C163.861 159.289 164.252 158.693 165.081 158.621C165.884 158.551 166.424 159.052 166.5 159.919L166.834 163.739L168.491 163.594L168.151 159.709C167.983 157.78 166.771 156.907 165.36 157.031C164.492 157.107 163.913 157.497 163.498 157.977L163.453 157.459L161.808 157.602L162.379 164.129ZM172.214 163.464C172.978 163.397 173.727 163.005 174.097 162.464L174.153 163.099L175.797 162.955L175.428 158.733C175.302 157.296 174.232 156.255 172.342 156.42C171.151 156.524 170.235 157.1 169.723 157.954L171.008 158.768C171.315 158.258 171.781 157.917 172.416 157.862C173.167 157.796 173.723 158.191 173.783 158.877L173.798 159.046L171.833 159.557C170.455 159.912 169.756 160.717 169.842 161.701C169.947 162.906 170.907 163.578 172.214 163.464ZM171.467 161.481C171.432 161.079 171.692 160.77 172.368 160.593L173.899 160.198L173.979 161.118C173.701 161.664 173.188 162.061 172.437 162.127C171.88 162.175 171.505 161.921 171.467 161.481ZM177.68 162.79L179.325 162.646L178.952 158.386C179.162 157.95 179.554 157.355 180.382 157.282C181.185 157.212 181.725 157.713 181.801 158.58L182.135 162.4L183.792 162.255L183.452 158.371C183.284 156.441 182.072 155.569 180.661 155.692C179.793 155.768 179.214 156.158 178.799 156.638L178.754 156.12L177.109 156.264L177.68 162.79ZM188.68 160.523C187.579 160.619 186.718 159.873 186.617 158.72C186.518 157.581 187.235 156.683 188.31 156.589C188.983 156.53 189.527 156.782 189.878 157.208L191.073 156.112C190.395 155.362 189.391 154.928 188.2 155.033C185.947 155.23 184.742 156.966 184.908 158.87C185.075 160.773 186.563 162.274 188.816 162.077C190.007 161.973 190.92 161.371 191.459 160.515L190.091 159.643C189.819 160.123 189.328 160.466 188.68 160.523ZM198.442 159.904L197.182 159.075C196.873 159.571 196.279 159.936 195.566 159.999C194.543 160.088 193.749 159.662 193.487 158.458L198.058 158.058C198.091 157.834 198.113 157.492 198.082 157.13C197.932 155.421 196.633 154.295 194.82 154.453C192.684 154.64 191.606 156.339 191.775 158.269C191.941 160.172 193.391 161.677 195.708 161.474C196.939 161.366 197.904 160.773 198.442 159.904ZM194.899 155.803C195.819 155.723 196.356 156.341 196.439 157L193.435 157.262C193.542 156.392 194.058 155.877 194.899 155.803Z" fill="#161616"/>
<rect x="56.8174" y="189.221" width="60.443" height="13.6484" rx="6.82314" transform="rotate(-5 56.8174 189.221)" fill="#F1F1F1"/>
<rect x="122.21" y="183.5" width="40.9452" height="13.6484" rx="6.82314" transform="rotate(-5 122.21 183.5)" fill="#F1F1F1"/>
<rect x="168.179" y="179.478" width="82.5404" height="13.6484" rx="6.82314" transform="rotate(-5 168.179 179.478)" fill="#F1F1F1"/>
</g>
<g filter="url(#filter4_d_4866_12752)">
<rect x="53.2471" y="183.477" width="222.924" height="65.6424" rx="5.19859" transform="rotate(-5 53.2471 183.477)" fill="white" shape-rendering="crispEdges"/>
<path d="M73.6413 207.789L78.8209 207.336C79.0655 207.314 79.2634 207.213 79.4147 207.033C79.5654 206.854 79.6301 206.642 79.6087 206.397C79.5873 206.152 79.4868 205.955 79.3071 205.804C79.1269 205.653 78.9145 205.588 78.6699 205.609L73.4903 206.062C73.2457 206.084 73.048 206.185 72.8974 206.365C72.7461 206.544 72.6811 206.757 72.7025 207.001C72.7239 207.246 72.8247 207.443 73.0049 207.594C73.1846 207.745 73.3967 207.81 73.6413 207.789ZM73.3392 204.336L78.5188 203.883C78.7634 203.861 78.9613 203.76 79.1126 203.58C79.2633 203.401 79.328 203.188 79.3066 202.944C79.2852 202.699 79.1846 202.501 79.005 202.35C78.8248 202.199 78.6124 202.135 78.3678 202.156L73.1882 202.609C72.9436 202.631 72.7459 202.731 72.5952 202.911C72.4439 203.091 72.379 203.303 72.4004 203.548C72.4218 203.793 72.5226 203.99 72.7028 204.141C72.8825 204.292 73.0946 204.357 73.3392 204.336ZM71.3536 211.469C70.8788 211.51 70.4577 211.377 70.0903 211.068C69.7223 210.76 69.5176 210.368 69.476 209.893L68.2676 196.081C68.2261 195.606 68.3597 195.185 68.6685 194.817C68.9768 194.449 69.3683 194.245 69.8431 194.203L76.037 193.661C76.2672 193.641 76.4906 193.665 76.707 193.733C76.9229 193.801 77.1169 193.907 77.289 194.052L81.8422 197.872C82.0143 198.017 82.1526 198.189 82.2572 198.39C82.3618 198.592 82.4242 198.807 82.4443 199.038L83.2883 208.685C83.3299 209.159 83.1965 209.581 82.8883 209.949C82.5794 210.316 82.1876 210.521 81.7128 210.562L71.3536 211.469ZM76.3391 198.854C76.3605 199.099 76.4613 199.296 76.6415 199.447C76.8212 199.598 77.0333 199.663 77.2779 199.642L80.731 199.34L76.037 195.401L76.3391 198.854Z" fill="#2186C7"/>
<path d="M96.3109 196.212C93.4492 196.462 91.6865 198.834 91.9131 201.424C92.1396 204.014 94.2875 206.044 97.1493 205.794C99.9981 205.545 101.761 203.172 101.534 200.582C101.308 197.993 99.1597 195.962 96.3109 196.212ZM96.9986 204.072C95.2893 204.221 93.9554 202.994 93.8036 201.259C93.6518 199.524 94.7523 198.083 96.4616 197.934C98.1579 197.785 99.4918 199.013 99.6436 200.748C99.7954 202.483 98.6949 203.923 96.9986 204.072ZM102.2 198.515L102.329 199.991L103.547 199.884L103.988 204.935L105.646 204.79L105.204 199.739L107.198 199.565L107.069 198.089L105.075 198.263L105.012 197.538C104.959 196.942 105.288 196.522 105.845 196.474C106.181 196.444 106.451 196.538 106.657 196.663L107.237 195.23C106.803 195.046 106.285 194.947 105.69 195C104.058 195.142 103.236 196.336 103.357 197.722L103.418 198.408L102.2 198.515ZM107.714 198.032L107.843 199.509L109.06 199.402L109.502 204.452L111.159 204.307L110.718 199.257L112.712 199.083L112.583 197.606L110.588 197.781L110.525 197.056C110.473 196.46 110.801 196.04 111.358 195.991C111.695 195.962 111.964 196.056 112.171 196.181L112.75 194.747C112.316 194.563 111.799 194.465 111.203 194.517C109.572 194.66 108.75 195.854 108.871 197.24L108.931 197.926L107.714 198.032ZM114.196 204.041L115.841 203.898L115.475 199.715C115.685 199.279 116.164 198.794 116.967 198.723C117.265 198.697 117.488 198.717 117.7 198.751L117.558 197.132C117.399 197.094 117.201 197.072 116.981 197.091C116.243 197.156 115.715 197.541 115.327 198.019L115.27 197.371L113.625 197.515L114.196 204.041ZM125.094 202.018L123.834 201.189C123.525 201.686 122.931 202.051 122.219 202.113C121.196 202.203 120.402 201.776 120.14 200.573L124.711 200.173C124.743 199.948 124.766 199.607 124.734 199.244C124.584 197.535 123.286 196.409 121.473 196.568C119.336 196.755 118.258 198.454 118.427 200.383C118.594 202.287 120.043 203.791 122.361 203.588C123.591 203.481 124.557 202.887 125.094 202.018ZM121.552 197.918C122.471 197.837 123.008 198.456 123.092 199.114L120.087 199.377C120.194 198.506 120.71 197.991 121.552 197.918ZM129.416 199.422C129.583 201.325 130.98 202.834 133.039 202.654C133.92 202.577 134.53 202.249 134.991 201.7L135.036 202.218L136.694 202.073L135.844 192.361L134.187 192.506L134.511 196.21C133.962 195.749 133.303 195.533 132.423 195.61C130.364 195.79 129.249 197.518 129.416 199.422ZM131.138 199.271C131.039 198.132 131.678 197.241 132.792 197.143C133.53 197.079 134.166 197.336 134.658 197.893L134.844 200.017C134.456 200.651 133.874 201.015 133.136 201.08C132.023 201.177 131.238 200.411 131.138 199.271ZM139.077 196.489L140.253 192.628L138.388 192.791L137.549 196.623L139.077 196.489ZM147.527 200.055L146.267 199.226C145.959 199.723 145.364 200.088 144.652 200.15C143.629 200.24 142.835 199.814 142.573 198.61L147.144 198.21C147.177 197.985 147.199 197.644 147.167 197.282C147.018 195.572 145.719 194.446 143.906 194.605C141.769 194.792 140.691 196.491 140.86 198.421C141.027 200.324 142.476 201.828 144.794 201.625C146.024 201.518 146.99 200.924 147.527 200.055ZM143.985 195.955C144.904 195.875 145.441 196.493 145.525 197.151L142.521 197.414C142.627 196.544 143.143 196.029 143.985 195.955ZM149.111 200.987L150.755 200.843L150.382 196.583C150.592 196.147 150.932 195.556 151.683 195.49C152.421 195.426 152.892 195.88 152.961 196.67L153.306 200.62L154.964 200.475L154.612 196.461C154.603 196.357 154.595 196.266 154.575 196.177C154.795 195.714 155.14 195.188 155.853 195.126C156.591 195.061 157.061 195.516 157.13 196.306L157.476 200.255L159.133 200.11L158.782 196.096C158.621 194.257 157.478 193.418 156.131 193.535C155.03 193.632 154.452 194.178 154.036 194.789C153.547 194.127 152.79 193.828 151.961 193.9C151.159 193.97 150.63 194.343 150.227 194.809L150.184 194.317L148.54 194.461L149.111 200.987ZM161.289 203.131L162.933 202.987L162.608 199.271C163.157 199.732 163.817 199.961 164.71 199.883C166.782 199.702 167.884 197.974 167.717 196.071C167.551 194.167 166.166 192.658 164.094 192.839C163.201 192.917 162.591 193.257 162.13 193.807L162.084 193.276L160.439 193.419L161.289 203.131ZM163.997 194.413C165.11 194.316 165.908 195.081 166.008 196.22C166.108 197.36 165.455 198.252 164.341 198.35C163.59 198.415 162.953 198.145 162.459 197.562L162.28 195.516C162.641 194.871 163.233 194.48 163.997 194.413ZM169.508 199.202L171.152 199.058L170.303 189.347L168.658 189.491L169.508 199.202ZM175.639 191.829C173.515 192.015 172.202 193.708 172.373 195.664C172.544 197.619 174.131 199.059 176.255 198.873C178.379 198.687 179.692 196.994 179.521 195.038C179.35 193.083 177.762 191.643 175.639 191.829ZM176.145 197.317C175.057 197.412 174.182 196.654 174.082 195.514C173.982 194.375 174.713 193.476 175.801 193.38C176.849 193.289 177.712 194.048 177.811 195.188C177.91 196.314 177.194 197.225 176.145 197.317ZM181.464 190.432C182.047 190.381 182.483 189.847 182.432 189.264C182.381 188.681 181.859 188.231 181.276 188.282C180.693 188.333 180.244 188.868 180.295 189.451C180.346 190.034 180.882 190.483 181.464 190.432ZM181.306 198.17L182.951 198.026L182.38 191.5L180.735 191.644L181.306 198.17Z" fill="#161616"/>
<rect x="71.116" y="223.668" width="60.443" height="13.6484" rx="6.82314" transform="rotate(-5 71.116 223.668)" fill="#F1F1F1"/>
<rect x="136.509" y="217.946" width="40.9452" height="13.6484" rx="6.82314" transform="rotate(-5 136.509 217.946)" fill="#F1F1F1"/>
<rect x="182.478" y="213.925" width="82.5404" height="13.6484" rx="6.82314" transform="rotate(-5 182.478 213.925)" fill="#F1F1F1"/>
</g>
<path d="M211.17 279.829C210.311 275.332 209.469 271.02 208.644 266.708C208.476 265.849 208.358 265.243 208.324 264.131C208.29 263.306 208.257 261.554 209.149 261.706C209.874 261.908 210.362 262.144 210.8 263.609C211.912 267.399 212.451 271.323 213.006 275.214C213.495 278.65 213.815 281.277 214.067 284.343C214.185 285.774 213.478 286.347 212.164 286.179C210.985 286.027 209.773 285.892 208.644 285.522C204.568 284.208 200.543 282.793 196.483 281.412C195.978 281.244 195.574 281.142 195.001 280.856C194.311 280.502 193.789 280.283 193.991 279.559C194.176 278.869 195.187 278.902 195.692 279.02C199.936 279.913 208.661 281.9 209.149 281.9C207.735 279.694 206.471 277.622 205.09 275.618C195.406 261.706 184.811 248.602 171.236 238.176C160.49 229.923 148.953 223.085 136.371 218.032C135.63 217.729 134.906 217.358 134.215 216.988C133.272 216.499 132.868 216.078 133.087 215.573C133.626 214.68 134.35 214.849 134.94 214.933C136.119 215.085 137.281 215.489 138.409 215.876C153.45 221.215 166.621 229.704 178.731 239.962C191.161 250.488 200.728 263.356 209.234 277.083C209.655 277.824 210.867 279.559 211.17 279.829Z" fill="black"/>
<defs>
<filter id="filter0_d_4866_12752" x="-25.0039" y="242.705" width="383.958" height="160.3" filterUnits="userSpaceOnUse" color-interpolation-filters="sRGB">
<feFlood flood-opacity="0" result="BackgroundImageFix"/>
<feColorMatrix in="SourceAlpha" type="matrix" values="0 0 0 0 0 0 0 0 0 0 0 0 0 0 0 0 0 0 127 0" result="hardAlpha"/>
<feOffset dy="6"/>
<feGaussianBlur stdDeviation="12.5"/>
<feComposite in2="hardAlpha" operator="out"/>
<feColorMatrix type="matrix" values="0 0 0 0 0.196078 0 0 0 0 0.196078 0 0 0 0 0.196078 0 0 0 0.1 0"/>
<feBlend mode="normal" in2="BackgroundImageFix" result="effect1_dropShadow_4866_12752"/>
<feBlend mode="normal" in="SourceGraphic" in2="effect1_dropShadow_4866_12752" result="shape"/>
</filter>
<filter id="filter1_d_4866_12752" x="-5.2464" y="49.6611" width="260.293" height="117.318" filterUnits="userSpaceOnUse" color-interpolation-filters="sRGB">
<feFlood flood-opacity="0" result="BackgroundImageFix"/>
<feColorMatrix in="SourceAlpha" type="matrix" values="0 0 0 0 0 0 0 0 0 0 0 0 0 0 0 0 0 0 127 0" result="hardAlpha"/>
<feOffset dy="3.89894"/>
<feGaussianBlur stdDeviation="8.12279"/>
<feComposite in2="hardAlpha" operator="out"/>
<feColorMatrix type="matrix" values="0 0 0 0 0.196078 0 0 0 0 0.196078 0 0 0 0 0.196078 0 0 0 0.1 0"/>
<feBlend mode="normal" in2="BackgroundImageFix" result="effect1_dropShadow_4866_12752"/>
<feBlend mode="normal" in="SourceGraphic" in2="effect1_dropShadow_4866_12752" result="shape"/>
</filter>
<filter id="filter2_d_4866_12752" x="9.05221" y="84.1071" width="260.293" height="117.318" filterUnits="userSpaceOnUse" color-interpolation-filters="sRGB">
<feFlood flood-opacity="0" result="BackgroundImageFix"/>
<feColorMatrix in="SourceAlpha" type="matrix" values="0 0 0 0 0 0 0 0 0 0 0 0 0 0 0 0 0 0 127 0" result="hardAlpha"/>
<feOffset dy="3.89894"/>
<feGaussianBlur stdDeviation="8.12279"/>
<feComposite in2="hardAlpha" operator="out"/>
<feColorMatrix type="matrix" values="0 0 0 0 0.196078 0 0 0 0 0.196078 0 0 0 0 0.196078 0 0 0 0.1 0"/>
<feBlend mode="normal" in2="BackgroundImageFix" result="effect1_dropShadow_4866_12752"/>
<feBlend mode="normal" in="SourceGraphic" in2="effect1_dropShadow_4866_12752" result="shape"/>
</filter>
<filter id="filter3_d_4866_12752" x="22.7003" y="117.253" width="260.293" height="117.318" filterUnits="userSpaceOnUse" color-interpolation-filters="sRGB">
<feFlood flood-opacity="0" result="BackgroundImageFix"/>
<feColorMatrix in="SourceAlpha" type="matrix" values="0 0 0 0 0 0 0 0 0 0 0 0 0 0 0 0 0 0 127 0" result="hardAlpha"/>
<feOffset dy="3.89894"/>
<feGaussianBlur stdDeviation="8.12279"/>
<feComposite in2="hardAlpha" operator="out"/>
<feColorMatrix type="matrix" values="0 0 0 0 0.196078 0 0 0 0 0.196078 0 0 0 0 0.196078 0 0 0 0.1 0"/>
<feBlend mode="normal" in2="BackgroundImageFix" result="effect1_dropShadow_4866_12752"/>
<feBlend mode="normal" in="SourceGraphic" in2="effect1_dropShadow_4866_12752" result="shape"/>
</filter>
<filter id="filter4_d_4866_12752" x="36.9989" y="151.699" width="260.293" height="117.318" filterUnits="userSpaceOnUse" color-interpolation-filters="sRGB">
<feFlood flood-opacity="0" result="BackgroundImageFix"/>
<feColorMatrix in="SourceAlpha" type="matrix" values="0 0 0 0 0 0 0 0 0 0 0 0 0 0 0 0 0 0 127 0" result="hardAlpha"/>
<feOffset dy="3.89894"/>
<feGaussianBlur stdDeviation="8.12279"/>
<feComposite in2="hardAlpha" operator="out"/>
<feColorMatrix type="matrix" values="0 0 0 0 0.196078 0 0 0 0 0.196078 0 0 0 0 0.196078 0 0 0 0.1 0"/>
<feBlend mode="normal" in2="BackgroundImageFix" result="effect1_dropShadow_4866_12752"/>
<feBlend mode="normal" in="SourceGraphic" in2="effect1_dropShadow_4866_12752" result="shape"/>
</filter>
<clipPath id="clip0_4866_12752">
<rect width="20.4107" height="20.4107" fill="white" transform="translate(150.153 301.601) rotate(-5)"/>
</clipPath>
<clipPath id="clip1_4866_12752">
<rect width="20.4107" height="20.4107" fill="white" transform="translate(278.525 290.369) rotate(-5)"/>
</clipPath>
<clipPath id="clip2_4866_12752">
<rect width="20.7943" height="20.7943" fill="white" transform="translate(36.5657 125.338) rotate(-5)"/>
</clipPath>
</defs>
</svg>
