<svg width="386" height="576" viewBox="0 0 386 576" fill="none" xmlns="http://www.w3.org/2000/svg">
<rect width="313.682" height="418.303" rx="8" transform="matrix(0.995997 -0.0975606 0.0804228 0.997139 1.9538 32.0409)" fill="white"/>
<path d="M36.2992 140.93L34.9992 142.057L33.5444 140.126L32.4627 142.278L30.9869 141.395L32.3738 139.425L29.9945 139.054L30.3772 137.365L32.6915 138.095L32.3053 135.702L34.0282 135.551L34.0475 137.976L36.1999 136.856L36.8701 138.453L34.5753 139.232L36.2992 140.93ZM39.5309 146.322L38.554 135.155L40.8192 134.957L41.6162 144.066L45.8596 143.694L46.0396 145.752L39.5309 146.322ZM47.0225 139.044L45.14 139.208L46.1738 134.488L48.471 134.287L47.0225 139.044ZM52.5875 145.421C50.9763 145.561 49.7946 144.733 49.6648 143.249C49.5588 142.037 50.4204 141.045 52.1182 140.607L54.5386 139.977L54.5204 139.77C54.4465 138.924 53.7609 138.438 52.8357 138.519C52.054 138.587 51.4799 139.007 51.1008 139.635L49.5181 138.632C50.1494 137.58 51.2769 136.871 52.7445 136.743C55.0736 136.539 56.3915 137.822 56.5464 139.593L57.0014 144.793L54.9754 144.971L54.907 144.189C54.451 144.856 53.5287 145.338 52.5875 145.421ZM51.6665 142.977C51.7139 143.52 52.1754 143.833 52.8613 143.773C53.7866 143.692 54.4189 143.203 54.7619 142.53L54.6628 141.397L52.7764 141.884C51.9435 142.101 51.6232 142.483 51.6665 142.977ZM63.0423 142.657C63.84 142.587 64.446 142.165 64.78 141.573L66.4654 142.647C65.8021 143.702 64.6775 144.443 63.2098 144.572C60.4341 144.814 58.6005 142.966 58.3954 140.62C58.1902 138.275 59.6748 136.136 62.4506 135.893C63.9182 135.765 65.1545 136.3 65.9908 137.223L64.5176 138.574C64.0859 138.049 63.4157 137.738 62.5861 137.81C61.2621 137.926 60.3783 139.032 60.5011 140.436C60.6253 141.856 61.6864 142.776 63.0423 142.657ZM68.4238 140.836L68.1363 137.55L66.6367 137.681L66.4776 135.863L67.9771 135.731L67.8013 133.721L69.8432 133.543L70.0191 135.553L72.4758 135.338L72.6349 137.156L70.1782 137.371L70.4657 140.658C70.5438 141.551 71.0531 141.86 71.8508 141.79C72.4091 141.741 72.7704 141.645 73.0319 141.51L73.1868 143.281C72.8033 143.491 72.3317 143.613 71.6617 143.671C69.6517 143.847 68.5954 142.798 68.4238 140.836ZM75.1883 133.686C74.4704 133.749 73.8112 133.196 73.7484 132.478C73.6856 131.76 74.2387 131.101 74.9566 131.038C75.6745 130.975 76.3177 131.53 76.3806 132.247C76.4434 132.965 75.9061 133.623 75.1883 133.686ZM74.9936 143.219L74.2901 135.179L76.3161 135.002L77.0195 143.042L74.9936 143.219ZM82.5464 134.135C85.1626 133.906 87.1181 135.68 87.3289 138.089C87.5396 140.498 85.9218 142.585 83.3056 142.813C80.6894 143.042 78.7338 141.268 78.5231 138.86C78.3123 136.451 79.9301 134.364 82.5464 134.135ZM83.17 140.896C84.4622 140.783 85.3446 139.661 85.2231 138.273C85.1003 136.87 84.0379 135.934 82.7457 136.047C81.4057 136.164 80.506 137.271 80.6288 138.675C80.7516 140.079 81.83 141.014 83.17 140.896ZM89.5285 141.947L88.8251 133.907L90.851 133.73L90.9069 134.368C91.4178 133.777 92.1312 133.297 93.2001 133.203C94.9389 133.051 96.4314 134.126 96.6394 136.503L97.0581 141.289L95.0162 141.467L94.6044 136.761C94.5109 135.693 93.8461 135.076 92.8571 135.162C91.8361 135.251 91.3537 135.985 91.0953 136.522L91.5545 141.77L89.5285 141.947ZM110.946 138.756C110.284 139.826 109.094 140.557 107.579 140.69C104.723 140.94 102.938 139.087 102.732 136.741C102.524 134.365 103.852 132.271 106.484 132.041C108.718 131.846 110.318 133.233 110.502 135.338C110.541 135.785 110.514 136.205 110.474 136.482L104.842 136.975C105.165 138.458 106.143 138.983 107.404 138.873C108.281 138.796 109.013 138.346 109.394 137.734L110.946 138.756ZM106.582 133.704C105.545 133.795 104.909 134.429 104.778 135.502L108.479 135.178C108.376 134.367 107.714 133.605 106.582 133.704ZM111.984 138.809L113.218 137.48C113.767 138.059 114.396 138.454 115.162 138.387C115.816 138.33 116.117 137.917 116.075 137.439C115.953 136.035 112.154 136.898 111.907 134.074C111.783 132.654 112.886 131.481 114.561 131.334C115.789 131.227 116.957 131.719 117.6 132.451L116.363 133.749C115.904 133.274 115.341 132.906 114.719 132.96C114.081 133.016 113.809 133.393 113.845 133.808C113.965 135.18 117.768 134.365 118.01 137.141C118.126 138.835 116.851 139.879 115.336 140.011C113.9 140.137 112.829 139.652 111.984 138.809ZM120.457 136.284L120.169 132.998L118.67 133.129L118.51 131.31L120.01 131.179L119.834 129.169L121.876 128.99L122.052 131L124.509 130.785L124.668 132.604L122.211 132.819L122.499 136.105C122.577 136.999 123.086 137.308 123.884 137.238C124.442 137.189 124.803 137.093 125.065 136.958L125.22 138.728C124.836 138.939 124.365 139.06 123.695 139.119C121.685 139.295 120.628 138.246 120.457 136.284ZM131.806 132.751C131.024 132.82 130.346 132.236 130.279 131.47C130.214 130.72 130.781 130.044 131.563 129.975C132.313 129.91 133.021 130.475 133.087 131.225C133.154 131.99 132.556 132.686 131.806 132.751ZM132.3 138.398C131.518 138.467 130.842 137.899 130.775 137.133C130.709 136.384 131.276 135.691 132.057 135.623C132.807 135.557 133.517 136.138 133.582 136.888C133.649 137.653 133.05 138.333 132.3 138.398Z" fill="#161616"/>
<path d="M45.0479 176.984C39.5442 177.465 35.4683 182.323 35.9498 187.827C36.4313 193.33 41.2888 197.406 46.7924 196.925C52.2961 196.443 56.372 191.586 55.8905 186.082C55.409 180.578 50.5515 176.502 45.0479 176.984ZM46.618 194.931C42.2111 195.316 38.3294 192.059 37.9439 187.652C37.5583 183.245 40.8154 179.364 45.2223 178.978C49.6292 178.592 53.5109 181.85 53.8964 186.256C54.282 190.663 51.0249 194.545 46.618 194.931Z" fill="#3B69D1"/>
<path d="M46.3556 191.939C49.1088 191.699 51.1455 189.271 50.9046 186.518C50.6637 183.765 48.2365 181.728 45.4833 181.969C42.73 182.21 40.6933 184.637 40.9342 187.39C41.1751 190.144 43.6023 192.18 46.3556 191.939Z" fill="#3B69D1"/>
<path d="M66.1723 182.345L66.0523 180.973L74.9538 180.194L75.0738 181.566L71.3728 181.89L72.2298 191.685L70.7302 191.816L69.8733 182.021L66.1723 182.345ZM83.7551 189.342C83.0933 190.413 81.9526 191.156 80.4531 191.287C77.7412 191.524 75.8917 189.677 75.6865 187.332C75.473 184.891 76.8702 182.856 79.3588 182.638C81.5444 182.447 83.0981 183.854 83.2712 185.832C83.2991 186.151 83.2778 186.459 83.2494 186.686L77.0758 187.226C77.2925 189.152 78.6227 190.209 80.3456 190.059C81.3825 189.968 82.2181 189.413 82.6817 188.649L83.7551 189.342ZM79.4274 183.789C78.1034 183.905 77.2465 184.768 77.0808 186.181L81.8985 185.759C81.7473 184.583 80.8472 183.665 79.4274 183.789ZM85.9935 190.481L85.2901 182.441L86.6461 182.322L86.734 183.327C87.2628 182.574 87.9562 182.047 88.9771 181.957C89.2324 181.935 89.4745 181.946 89.6715 181.993L89.7873 183.317C89.5424 183.274 89.3004 183.263 88.9813 183.291C87.9284 183.383 87.2899 183.986 86.8666 184.843L87.3495 190.362L85.9935 190.481ZM92.334 189.926L91.6306 181.886L92.9866 181.767L93.0634 182.645C93.6081 181.89 94.3625 181.325 95.4792 181.228C96.6437 181.126 97.6469 181.569 98.2308 182.546C98.7921 181.613 99.579 180.869 100.967 180.748C102.69 180.597 104.051 181.635 104.242 183.821L104.681 188.846L103.325 188.964L102.89 183.987C102.773 182.647 101.956 181.947 100.807 182.048C99.7864 182.137 99.1188 182.774 98.6747 183.761C98.706 183.935 98.7373 184.109 98.754 184.301L99.1937 189.326L97.8377 189.445L97.4022 184.467C97.285 183.127 96.4842 182.426 95.3196 182.528C94.2189 182.624 93.593 183.37 93.2029 184.24L93.69 189.807L92.334 189.926ZM107.214 178.417C106.687 178.463 106.219 178.07 106.173 177.543C106.128 177.033 106.521 176.565 107.048 176.518C107.574 176.472 108.027 176.867 108.071 177.377C108.117 177.904 107.74 178.371 107.214 178.417ZM107.414 188.607L106.711 180.567L108.067 180.448L108.77 188.488L107.414 188.607ZM111.636 188.237L110.933 180.197L112.289 180.079L112.368 180.988C112.959 180.213 113.744 179.63 114.941 179.525C116.743 179.367 118.189 180.463 118.389 182.744L118.815 187.609L117.459 187.728L117.037 182.91C116.912 181.475 116.025 180.716 114.781 180.825C113.617 180.927 112.941 181.661 112.505 182.551L112.992 188.119L111.636 188.237ZM124.813 177.697L123.489 177.813L124.916 175.019L126.448 174.885L124.813 177.697ZM128.575 185.421C127.913 186.492 126.773 187.235 125.273 187.366C122.561 187.603 120.712 185.756 120.506 183.41C120.293 180.97 121.69 178.935 124.179 178.717C126.364 178.526 127.918 179.933 128.091 181.911C128.119 182.23 128.098 182.537 128.069 182.765L121.896 183.305C122.112 185.231 123.443 186.288 125.166 186.137C126.202 186.047 127.038 185.491 127.502 184.727L128.575 185.421ZM124.247 179.868C122.923 179.984 122.066 180.847 121.901 182.26L126.718 181.838C126.567 180.662 125.667 179.744 124.247 179.868ZM137.813 184.613C137.151 185.684 136.011 186.426 134.511 186.558C131.799 186.795 129.95 184.947 129.745 182.602C129.531 180.162 130.928 178.126 133.417 177.909C135.602 177.717 137.156 179.125 137.329 181.103C137.357 181.422 137.336 181.729 137.308 181.957L131.134 182.497C131.351 184.423 132.681 185.48 134.404 185.329C135.441 185.238 136.276 184.683 136.74 183.919L137.813 184.613ZM133.486 179.06C132.161 179.176 131.305 180.038 131.139 181.451L135.957 181.03C135.805 179.854 134.905 178.936 133.486 179.06Z" fill="#161616"/>
<path d="M48.5371 216.865C43.0335 217.347 38.9575 222.204 39.4391 227.708C39.9206 233.212 44.7781 237.288 50.2817 236.806C55.7854 236.325 59.8613 231.467 59.3798 225.963C58.8983 220.46 54.0408 216.384 48.5371 216.865ZM50.1073 234.812C45.7004 235.198 41.8187 231.94 41.4331 227.534C41.0476 223.127 44.3047 219.245 48.7116 218.859C53.1185 218.474 57.0002 221.731 57.3857 226.138C57.7713 230.545 54.5142 234.426 50.1073 234.812Z" fill="#161616"/>
<path d="M74.1319 219.489L71.9016 217.514L73.5287 217.371L75.5198 219.367L74.1319 219.489ZM70.3909 232.033L73.8647 220.476L75.8747 220.301L81.3025 231.078L79.7072 231.218L78.1275 228.044L72.9908 228.494L71.9862 231.893L70.3909 232.033ZM73.3723 227.158L77.52 226.795L74.9842 221.697L73.3723 227.158ZM85.7168 222.59L87.2323 222.458L87.1458 221.468C86.9965 219.762 87.9897 218.437 89.7445 218.283C90.4783 218.219 91.0867 218.375 91.5557 218.591L91.0486 219.777C90.726 219.58 90.3465 219.468 89.8839 219.509C88.9746 219.588 88.4228 220.264 88.5149 221.317L88.6043 222.337L91.396 222.093L91.5034 223.322L88.7117 223.566L89.3077 230.378L87.9358 230.498L87.3398 223.686L85.8243 223.818L85.7168 222.59ZM95.4111 230.069C93.8318 230.207 92.6862 229.423 92.5662 228.051C92.4601 226.839 93.31 225.896 94.9918 225.46L97.6647 224.776L97.6159 224.217C97.5182 223.101 96.6647 222.532 95.5161 222.633C94.5909 222.714 93.8788 223.21 93.4443 223.939L92.3549 223.247C92.9731 222.229 94.0541 221.539 95.4579 221.416C97.4998 221.238 98.8169 222.328 98.9718 224.099L99.4436 229.491L98.0876 229.609L97.9983 228.588C97.4605 229.423 96.4481 229.978 95.4111 230.069ZM93.934 227.883C93.994 228.569 94.5956 229.015 95.5368 228.932C96.6056 228.839 97.4383 228.252 97.8894 227.344L97.7512 225.765L95.4092 226.372C94.3252 226.659 93.8739 227.197 93.934 227.883ZM101.964 219.063C101.437 219.109 100.969 218.716 100.923 218.189C100.878 217.679 101.271 217.211 101.797 217.165C102.324 217.118 102.776 217.513 102.821 218.023C102.867 218.55 102.49 219.017 101.964 219.063ZM102.164 229.253L101.46 221.213L102.816 221.094L103.52 229.134L102.164 229.253ZM106.386 228.883L105.682 220.843L107.038 220.725L107.126 221.73C107.655 220.976 108.348 220.449 109.369 220.36C109.625 220.338 109.867 220.349 110.064 220.396L110.179 221.72C109.935 221.677 109.693 221.666 109.373 221.694C108.321 221.786 107.682 222.388 107.259 223.245L107.742 228.765L106.386 228.883ZM119.274 226.422C118.612 227.492 117.472 228.235 115.972 228.366C113.26 228.604 111.411 226.756 111.206 224.411C110.992 221.97 112.389 219.935 114.878 219.717C117.063 219.526 118.617 220.933 118.79 222.911C118.818 223.231 118.797 223.538 118.769 223.765L112.595 224.305C112.812 226.232 114.142 227.289 115.865 227.138C116.902 227.047 117.737 226.492 118.201 225.728L119.274 226.422ZM114.947 220.869C113.622 220.985 112.766 221.847 112.6 223.26L117.418 222.839C117.266 221.662 116.366 220.745 114.947 220.869ZM128.75 218.504C131.334 218.278 133.28 220.117 133.485 222.462C133.69 224.807 132.094 226.956 129.509 227.182C126.909 227.409 124.98 225.569 124.775 223.224C124.569 220.879 126.15 218.731 128.75 218.504ZM129.414 225.904C131.089 225.758 132.194 224.246 132.049 222.587C131.902 220.912 130.553 219.632 128.878 219.778C127.155 219.929 126.048 221.425 126.194 223.1C126.341 224.775 127.691 226.055 129.414 225.904ZM141.314 222.355L140.912 217.761L142.268 217.642L142.666 222.189C142.877 224.598 141.612 226.123 139.426 226.314C137.257 226.504 135.746 225.222 135.535 222.813L135.137 218.266L136.493 218.148L136.895 222.742C137.034 224.321 137.959 225.157 139.331 225.037C140.671 224.919 141.452 223.935 141.314 222.355ZM156.975 223.123C156.313 224.194 155.172 224.937 153.673 225.068C150.961 225.305 149.111 223.458 148.906 221.113C148.693 218.672 150.09 216.637 152.578 216.419C154.764 216.228 156.318 217.635 156.491 219.613C156.519 219.932 156.497 220.239 156.469 220.467L150.295 221.007C150.512 222.933 151.842 223.99 153.565 223.84C154.602 223.749 155.438 223.193 155.901 222.43L156.975 223.123ZM152.647 217.57C151.323 217.686 150.466 218.549 150.3 219.962L155.118 219.54C154.967 218.364 154.067 217.446 152.647 217.57ZM159.213 224.262L158.51 216.222L159.866 216.103L159.945 217.012C160.536 216.237 161.321 215.654 162.518 215.549C164.32 215.392 165.766 216.487 165.966 218.768L166.392 223.634L165.036 223.752L164.614 218.935C164.489 217.499 163.602 216.74 162.358 216.849C161.194 216.951 160.518 217.685 160.082 218.576L160.569 224.143L159.213 224.262ZM177.038 221.738C178.027 221.651 178.799 221.101 179.232 220.356L180.372 221.076C179.71 222.147 178.601 222.887 177.134 223.015C174.47 223.248 172.588 221.404 172.383 219.059C172.178 216.714 173.71 214.57 176.375 214.337C177.826 214.21 179.064 214.761 179.9 215.684L178.903 216.591C178.347 215.933 177.491 215.525 176.486 215.613C174.763 215.764 173.654 217.227 173.803 218.934C173.954 220.657 175.299 221.89 177.038 221.738ZM184.974 213.585C187.558 213.359 189.503 215.198 189.708 217.543C189.913 219.888 188.317 222.037 185.733 222.263C183.133 222.49 181.203 220.65 180.998 218.305C180.793 215.96 182.373 213.812 184.974 213.585ZM185.637 220.985C187.312 220.839 188.418 219.328 188.273 217.668C188.126 215.993 186.776 214.713 185.101 214.86C183.378 215.01 182.271 216.506 182.418 218.181C182.565 219.856 183.914 221.136 185.637 220.985ZM197.538 217.437L197.136 212.842L198.492 212.724L198.89 217.27C199.1 219.679 197.835 221.204 195.65 221.395C193.48 221.585 191.97 220.303 191.759 217.894L191.361 213.347L192.717 213.229L193.119 217.823C193.257 219.402 194.182 220.238 195.554 220.118C196.894 220.001 197.676 219.016 197.538 217.437ZM201.868 220.53L201.164 212.49L202.52 212.371L202.608 213.376C203.137 212.623 203.83 212.096 204.851 212.006C205.106 211.984 205.348 211.995 205.546 212.042L205.661 213.366C205.416 213.323 205.174 213.312 204.855 213.34C203.802 213.432 203.164 214.035 202.741 214.892L203.224 220.411L201.868 220.53ZM207.25 218.95L208.136 218.052C208.756 218.706 209.461 219.046 210.275 218.975C211.168 218.896 211.631 218.309 211.57 217.607C211.412 215.805 207.448 216.795 207.199 213.955C207.089 212.695 208.067 211.564 209.614 211.429C210.763 211.328 211.799 211.784 212.426 212.517L211.555 213.397C211.071 212.829 210.431 212.499 209.729 212.56C208.868 212.636 208.45 213.187 208.504 213.809C208.662 215.611 212.648 214.684 212.888 217.428C213.003 218.929 211.889 219.975 210.39 220.106C209.113 220.217 208.064 219.795 207.25 218.95Z" fill="#161616"/>
<path d="M48.3367 278.521L47.0367 279.648L45.5819 277.717L44.5003 279.87L43.0245 278.986L44.4114 277.016L42.032 276.645L42.4147 274.956L44.729 275.686L44.3428 273.293L46.0657 273.142L46.085 275.568L48.2374 274.447L48.9076 276.044L46.6128 276.823L48.3367 278.521Z" fill="#161616"/>
<path d="M56.0237 283.523L55.0468 272.356L59.4337 271.972C62.9752 271.663 65.5928 274.022 65.8566 277.037C66.1204 280.052 63.9522 282.829 60.4107 283.139L56.0237 283.523ZM59.6457 274.027L57.4921 274.216L58.109 281.267L60.2626 281.078C62.3364 280.897 63.7006 279.218 63.5275 277.24C63.353 275.246 61.7195 273.846 59.6457 274.027ZM70.3266 282.513C68.7154 282.654 67.5337 281.825 67.4039 280.341C67.2978 279.129 68.1595 278.137 69.8572 277.699L72.2777 277.07L72.2595 276.862C72.1855 276.017 71.5 275.53 70.5747 275.611C69.7931 275.679 69.219 276.099 68.8399 276.727L67.2572 275.724C67.8885 274.673 69.016 273.963 70.4836 273.835C72.8127 273.631 74.1306 274.914 74.2855 276.685L74.7405 281.885L72.7145 282.063L72.6461 281.281C72.1901 281.948 71.2678 282.43 70.3266 282.513ZM69.4056 280.07C69.453 280.612 69.9144 280.925 70.6004 280.865C71.5256 280.784 72.158 280.295 72.501 279.622L72.4019 278.489L70.5155 278.976C69.6825 279.193 69.3623 279.575 69.4056 280.07ZM77.3141 278.703L77.0266 275.416L75.5271 275.548L75.368 273.729L76.8675 273.598L76.6917 271.588L78.7336 271.409L78.9095 273.419L81.3662 273.204L81.5253 275.023L79.0686 275.238L79.3561 278.524C79.4342 279.417 79.9435 279.726 80.7411 279.657C81.2995 279.608 81.6608 279.512 81.9222 279.376L82.0772 281.147C81.6937 281.358 81.2221 281.479 80.5521 281.538C78.5421 281.714 77.4858 280.665 77.3141 278.703ZM91.0157 279.143C90.3539 280.214 89.164 280.945 87.6485 281.078C84.793 281.327 83.0073 279.474 82.8021 277.129C82.5942 274.752 83.9221 272.659 86.5542 272.429C88.7876 272.233 90.3878 273.62 90.5721 275.726C90.6111 276.173 90.5836 276.593 90.5435 276.87L84.9123 277.363C85.2349 278.845 86.2132 279.371 87.4734 279.26C88.3508 279.184 89.0831 278.734 89.4635 278.122L91.0157 279.143ZM86.6515 274.092C85.6146 274.183 84.9789 274.817 84.8477 275.889L88.5487 275.566C88.4456 274.755 87.7842 273.993 86.6515 274.092Z" fill="#161616"/>
<path d="M46.0125 310.52L45.2798 302.145L49.7784 301.752L49.8621 302.709L46.4882 303.004L46.7226 305.684L49.618 305.431L49.7007 306.376L46.8053 306.629L47.1372 310.422L46.0125 310.52ZM53.9585 303.508C55.8967 303.338 57.3556 304.717 57.5095 306.476C57.6634 308.235 56.4661 309.847 54.5279 310.016C52.5777 310.187 51.1308 308.807 50.9769 307.048C50.823 305.289 52.0083 303.678 53.9585 303.508ZM54.4561 309.058C55.7124 308.948 56.5415 307.815 56.4327 306.57C56.3228 305.314 55.3104 304.354 54.0542 304.464C52.762 304.577 51.9318 305.698 52.0417 306.955C52.1516 308.211 53.164 309.171 54.4561 309.058ZM59.4082 309.348L58.8806 303.318L59.8976 303.229L59.9635 303.983C60.3602 303.418 60.8802 303.023 61.6459 302.956C61.8373 302.939 62.0189 302.947 62.1667 302.982L62.2535 303.976C62.0699 303.943 61.8883 303.935 61.649 303.956C60.8594 304.025 60.3805 304.477 60.063 305.12L60.4252 309.259L59.4082 309.348ZM64.1636 308.932L63.636 302.902L64.653 302.813L64.7106 303.471C65.1192 302.905 65.6849 302.482 66.5224 302.408C67.3959 302.332 68.1483 302.664 68.5862 303.397C69.0072 302.697 69.5973 302.139 70.6382 302.048C71.9304 301.935 72.9509 302.714 73.0943 304.353L73.4241 308.122L72.4071 308.211L72.0805 304.478C71.9926 303.473 71.38 302.948 70.5186 303.023C69.7528 303.09 69.2521 303.568 68.9191 304.309C68.9425 304.439 68.966 304.57 68.9786 304.713L69.3083 308.482L68.2913 308.571L67.9647 304.838C67.8768 303.833 67.2762 303.307 66.4028 303.383C65.5772 303.456 65.1078 304.015 64.8152 304.668L65.1806 308.843L64.1636 308.932ZM77.1275 307.967C75.943 308.07 75.0838 307.483 74.9938 306.454C74.9143 305.544 75.5517 304.837 76.813 304.51L78.8177 303.997L78.781 303.578C78.7078 302.741 78.0677 302.315 77.2062 302.39C76.5123 302.451 75.9782 302.823 75.6523 303.37L74.8353 302.851C75.299 302.087 76.1097 301.57 77.1626 301.478C78.694 301.344 79.6818 302.161 79.798 303.489L80.1518 307.533L79.1348 307.622L79.0679 306.857C78.6645 307.483 77.9052 307.899 77.1275 307.967ZM76.0196 306.328C76.0646 306.842 76.5158 307.176 77.2217 307.115C78.0234 307.044 78.6479 306.604 78.9862 305.923L78.8826 304.739L77.126 305.194C76.3131 305.41 75.9746 305.813 76.0196 306.328ZM82.3621 305.303L82.092 302.216L80.9554 302.315L80.8748 301.394L82.0114 301.294L81.8796 299.787L82.9085 299.697L83.0404 301.204L85.1342 301.021L85.2148 301.943L83.121 302.126L83.3911 305.213C83.4737 306.158 83.9754 306.379 84.7052 306.315C85.1 306.281 85.371 306.209 85.59 306.093L85.6695 307.002C85.3928 307.147 85.074 307.223 84.6433 307.261C83.3032 307.378 82.4909 306.774 82.3621 305.303ZM89.6627 303.663C89.5088 301.904 90.5864 300.303 92.4768 300.138C93.3741 300.059 94.1104 300.344 94.7022 300.908L94.3819 297.246L95.3988 297.157L96.1839 306.131L95.1669 306.22L95.1041 305.502C94.6191 306.159 93.9436 306.568 93.0462 306.646C91.1558 306.812 89.8166 305.422 89.6627 303.663ZM90.7395 303.569C90.8515 304.849 91.8019 305.791 93.0821 305.679C93.9196 305.606 94.6258 305.134 95.0068 304.389L94.7995 302.02C94.2701 301.343 93.5057 301.012 92.6802 301.084C91.4 301.196 90.6275 302.289 90.7395 303.569ZM103.601 304.481C103.104 305.284 102.249 305.841 101.124 305.94C99.0904 306.118 97.7033 304.732 97.5494 302.973C97.3893 301.143 98.4372 299.616 100.304 299.453C101.943 299.31 103.108 300.365 103.238 301.849C103.259 302.088 103.243 302.318 103.222 302.489L98.5914 302.894C98.7539 304.339 99.7516 305.131 101.044 305.018C101.821 304.95 102.448 304.534 102.796 303.961L103.601 304.481ZM100.355 300.317C99.3621 300.403 98.7194 301.05 98.5951 302.11L102.208 301.794C102.095 300.912 101.42 300.223 100.355 300.317ZM107.726 302.083C107.572 300.324 108.65 298.723 110.54 298.557C111.438 298.479 112.174 298.764 112.766 299.327L112.445 295.666L113.462 295.577L114.247 304.55L113.23 304.639L113.168 303.922C112.683 304.579 112.007 304.988 111.11 305.066C109.219 305.231 107.88 303.842 107.726 302.083ZM108.803 301.989C108.915 303.269 109.865 304.21 111.146 304.098C111.983 304.025 112.689 303.553 113.07 302.809L112.863 300.44C112.334 299.763 111.569 299.432 110.744 299.504C109.463 299.616 108.691 300.708 108.803 301.989ZM118.045 304.387C116.86 304.491 116.001 303.903 115.911 302.874C115.832 301.964 116.469 301.258 117.73 300.93L119.735 300.417L119.699 299.999C119.625 299.161 118.985 298.735 118.124 298.81C117.43 298.871 116.896 299.243 116.57 299.79L115.753 299.271C116.216 298.507 117.027 297.99 118.08 297.898C119.611 297.764 120.599 298.582 120.715 299.91L121.069 303.954L120.052 304.043L119.985 303.277C119.582 303.903 118.823 304.319 118.045 304.387ZM116.937 302.748C116.982 303.262 117.433 303.597 118.139 303.535C118.941 303.465 119.565 303.024 119.904 302.344L119.8 301.159L118.044 301.614C117.231 301.83 116.892 302.233 116.937 302.748ZM123.28 301.723L123.01 298.636L121.873 298.735L121.792 297.814L122.929 297.715L122.797 296.207L123.826 296.117L123.958 297.625L126.052 297.441L126.132 298.363L124.038 298.546L124.309 301.633C124.391 302.578 124.893 302.799 125.623 302.735C126.017 302.701 126.288 302.629 126.507 302.513L126.587 303.423C126.31 303.567 125.991 303.644 125.561 303.681C124.221 303.798 123.408 303.194 123.28 301.723ZM133.29 301.884C132.794 302.687 131.938 303.244 130.813 303.342C128.78 303.52 127.392 302.135 127.239 300.376C127.078 298.545 128.126 297.019 129.993 296.856C131.632 296.712 132.797 297.768 132.927 299.251C132.948 299.49 132.932 299.721 132.911 299.892L128.28 300.297C128.443 301.741 129.441 302.534 130.733 302.421C131.511 302.353 132.137 301.936 132.485 301.363L133.29 301.884ZM130.044 297.719C129.051 297.806 128.409 298.453 128.284 299.513L131.898 299.197C131.784 298.314 131.109 297.626 130.044 297.719ZM139.847 302.48C138.663 302.583 137.804 301.995 137.714 300.966C137.634 300.057 138.272 299.35 139.533 299.023L141.538 298.51L141.501 298.091C141.428 297.254 140.788 296.827 139.926 296.903C139.232 296.963 138.698 297.336 138.372 297.883L137.555 297.363C138.019 296.599 138.83 296.082 139.882 295.99C141.414 295.856 142.402 296.674 142.518 298.002L142.872 302.046L141.855 302.135L141.788 301.369C141.384 301.995 140.625 302.411 139.847 302.48ZM138.739 300.84C138.784 301.355 139.236 301.689 139.942 301.627C140.743 301.557 141.368 301.117 141.706 300.436L141.602 299.252L139.846 299.707C139.033 299.923 138.694 300.326 138.739 300.84ZM145.082 299.815L144.812 296.728L143.675 296.828L143.595 295.907L144.731 295.807L144.599 294.3L145.628 294.21L145.76 295.717L147.854 295.534L147.935 296.455L145.841 296.638L146.111 299.725C146.194 300.67 146.695 300.892 147.425 300.828C147.82 300.793 148.091 300.721 148.31 300.606L148.389 301.515C148.113 301.66 147.794 301.736 147.363 301.774C146.023 301.891 145.211 301.287 145.082 299.815ZM150.153 299.372L149.883 296.285L148.746 296.384L148.666 295.463L149.802 295.364L149.67 293.856L150.699 293.766L150.831 295.274L152.925 295.09L153.005 296.012L150.912 296.195L151.182 299.282C151.264 300.227 151.766 300.448 152.496 300.384C152.891 300.35 153.162 300.278 153.381 300.162L153.46 301.072C153.184 301.216 152.865 301.292 152.434 301.33C151.094 301.447 150.282 300.843 150.153 299.372ZM160.163 299.533C159.667 300.336 158.811 300.893 157.687 300.991C155.653 301.169 154.266 299.783 154.112 298.025C153.952 296.194 155 294.668 156.866 294.504C158.505 294.361 159.671 295.416 159.8 296.9C159.821 297.139 159.805 297.37 159.784 297.54L155.154 297.946C155.316 299.39 156.314 300.183 157.606 300.07C158.384 300.002 159.01 299.585 159.358 299.012L160.163 299.533ZM156.917 295.368C155.924 295.455 155.282 296.102 155.158 297.162L158.771 296.845C158.657 295.963 157.982 295.275 156.917 295.368ZM161.842 300.386L161.314 294.356L162.331 294.267L162.391 294.949C162.835 294.368 163.423 293.931 164.321 293.852C165.673 293.734 166.757 294.555 166.907 296.266L167.226 299.915L166.209 300.004L165.893 296.391C165.799 295.314 165.134 294.746 164.201 294.827C163.328 294.904 162.821 295.454 162.494 296.122L162.859 300.297L161.842 300.386ZM168.495 296.766C168.341 295.008 169.419 293.406 171.309 293.241C172.206 293.162 172.943 293.448 173.534 294.011L173.214 290.35L174.231 290.261L175.016 299.234L173.999 299.323L173.936 298.605C173.451 299.262 172.776 299.671 171.878 299.75C169.988 299.915 168.649 298.525 168.495 296.766ZM169.572 296.672C169.684 297.952 170.634 298.894 171.914 298.782C172.752 298.709 173.458 298.237 173.839 297.492L173.632 295.123C173.102 294.446 172.338 294.115 171.512 294.188C170.232 294.3 169.46 295.392 169.572 296.672ZM181.133 296.095L180.832 292.649L181.849 292.56L182.147 295.97C182.305 297.776 181.356 298.92 179.717 299.064C178.09 299.206 176.957 298.244 176.799 296.438L176.501 293.028L177.518 292.939L177.819 296.385C177.923 297.569 178.616 298.196 179.645 298.105C180.65 298.018 181.237 297.279 181.133 296.095ZM187.75 293.442C187.319 293.48 186.942 293.163 186.905 292.744C186.868 292.326 187.186 291.96 187.617 291.923C188.047 291.885 188.412 292.191 188.448 292.609C188.485 293.028 188.18 293.404 187.75 293.442ZM188.167 298.216C187.736 298.254 187.36 297.949 187.324 297.53C187.287 297.111 187.604 296.734 188.034 296.696C188.465 296.659 188.83 296.976 188.867 297.395C188.904 297.814 188.598 298.178 188.167 298.216ZM195.534 296.836C195.692 298.643 194.86 299.463 193.388 299.592C193.161 299.612 192.956 299.617 192.798 299.595L192.71 298.59C192.856 298.613 193.002 298.625 193.17 298.61C193.971 298.54 194.516 298.155 194.414 296.982L193.729 289.157L194.854 289.059L195.534 296.836ZM199.46 296.493C199.618 298.299 198.785 299.119 197.314 299.248C197.087 299.268 196.882 299.274 196.723 299.252L196.635 298.247C196.782 298.27 196.928 298.281 197.095 298.267C197.897 298.197 198.442 297.811 198.339 296.639L197.655 288.814L198.779 288.716L199.46 296.493ZM201.063 299.33L202.967 287.746L203.996 287.656L202.092 299.24L201.063 299.33ZM206.294 296.497L205.561 288.122L206.997 287.997L209.927 291.996L212.118 287.549L213.554 287.423L214.286 295.798L213.162 295.897L212.561 289.029L210.47 293.239L209.608 293.314L206.818 289.531L207.419 296.399L206.294 296.497ZM215.832 298.038L217.736 286.454L218.765 286.364L216.861 297.948L215.832 298.038ZM219.649 295.329L222.254 286.662L223.762 286.53L227.832 294.613L226.636 294.718L225.451 292.338L221.599 292.675L220.845 295.224L219.649 295.329ZM221.885 291.673L224.995 291.401L223.094 287.577L221.885 291.673ZM228.575 294.548L231.181 285.881L232.688 285.749L236.759 293.832L235.562 293.937L234.378 291.557L230.525 291.894L229.772 294.443L228.575 294.548ZM230.811 290.892L233.922 290.62L232.02 286.796L230.811 290.892ZM237.502 293.767L240.107 285.1L241.615 284.968L245.686 293.051L244.489 293.156L243.304 290.776L239.452 291.113L238.698 293.662L237.502 293.767ZM239.738 290.111L242.849 289.839L240.947 286.015L239.738 290.111ZM246.428 292.986L249.034 284.319L250.541 284.187L254.612 292.27L253.416 292.375L252.231 289.995L248.378 290.332L247.625 292.881L246.428 292.986ZM248.664 289.33L251.775 289.058L249.873 285.234L248.664 289.33Z" fill="#161616"/>
<rect x="45.644" y="321.604" width="288.243" height="48.0406" rx="8" transform="rotate(-5 45.644 321.604)" fill="white"/>
<rect x="45.644" y="321.604" width="288.243" height="48.0406" rx="8" transform="rotate(-5 45.644 321.604)" stroke="#161616"/>
<path d="M68.0819 350.786L67.2319 341.07L64.4202 342.924L63.5971 341.967L67.0889 339.62L68.5247 339.494L69.5016 350.661L68.0819 350.786ZM75.4348 338.568C78.2424 338.323 79.8404 340.787 80.1307 344.105C80.421 347.423 79.2752 350.128 76.4676 350.373C73.6918 350.616 72.0778 348.153 71.7875 344.835C71.4972 341.517 72.659 338.811 75.4348 338.568ZM75.568 339.907C73.7813 340.063 73.0263 342.091 73.2552 344.707C73.4841 347.323 74.5796 349.188 76.3663 349.032C78.137 348.877 78.876 346.851 78.6472 344.235C78.4183 341.619 77.3387 339.752 75.568 339.907ZM81.7334 352.758L84.2723 337.313L85.6442 337.193L83.1054 352.638L81.7334 352.758ZM90.7019 337.233C93.5096 336.987 95.1076 339.451 95.3979 342.77C95.6882 346.088 94.5423 348.792 91.7347 349.038C88.9589 349.28 87.345 346.818 87.0547 343.499C86.7644 340.181 87.9261 337.476 90.7019 337.233ZM90.8351 338.571C89.0484 338.728 88.2934 340.755 88.5223 343.371C88.7512 345.987 89.8467 347.853 91.6334 347.696C93.4041 347.541 94.1432 345.516 93.9143 342.899C93.6854 340.283 92.6058 338.416 90.8351 338.571ZM100.19 347.976L99.3396 338.261L96.5279 340.115L95.7048 339.158L99.1966 336.811L100.632 336.685L101.609 347.852L100.19 347.976ZM104.276 350.786L106.815 335.341L108.187 335.221L105.648 350.666L104.276 350.786ZM110.564 347.069L110.451 345.777L113.891 341.553C115.079 340.067 115.615 339.393 115.512 338.213C115.41 337.048 114.506 336.452 113.373 336.551C112.193 336.655 111.479 337.312 110.92 338.454L109.676 337.839C110.461 336.34 111.633 335.401 113.372 335.249C115.238 335.086 116.828 336.169 116.987 337.987C117.12 339.503 116.23 340.722 115.013 342.243L112.222 345.622L117.917 345.123L118.03 346.416L110.564 347.069ZM122.81 334.424C125.617 334.178 127.215 336.642 127.506 339.96C127.796 343.279 126.65 345.983 123.842 346.229C121.067 346.471 119.453 344.009 119.162 340.69C118.872 337.372 120.034 334.667 122.81 334.424ZM122.943 335.762C121.156 335.919 120.401 337.946 120.63 340.562C120.859 343.178 121.954 345.043 123.741 344.887C125.512 344.732 126.251 342.706 126.022 340.09C125.793 337.474 124.714 335.607 122.943 335.762ZM129.601 345.403L129.488 344.111L132.928 339.888C134.117 338.402 134.652 337.728 134.549 336.547C134.447 335.383 133.543 334.787 132.41 334.886C131.23 334.989 130.516 335.646 129.957 336.788L128.713 336.174C129.499 334.674 130.67 333.736 132.409 333.584C134.276 333.421 135.865 334.503 136.024 336.322C136.157 337.837 135.267 339.056 134.05 340.577L131.259 343.956L136.954 343.458L137.067 344.75L129.601 345.403ZM137.644 341.453L137.53 340.16L142.197 333.049L143.936 332.897L144.518 339.549L145.81 339.436L145.923 340.728L144.631 340.841L144.913 344.064L143.477 344.189L143.195 340.967L137.644 341.453ZM139.062 340.026L143.082 339.675L142.637 334.586L139.062 340.026Z" fill="#161616"/>
<path d="M304.369 327.601C303.671 327.663 303.06 327.473 302.536 327.033C302.012 326.594 301.72 326.025 301.658 325.327C301.597 324.629 301.787 324.018 302.226 323.494C302.666 322.97 303.235 322.677 303.933 322.616C304.631 322.555 305.242 322.745 305.766 323.184C306.29 323.624 306.583 324.193 306.644 324.891C306.705 325.589 306.515 326.2 306.076 326.724C305.636 327.248 305.067 327.54 304.369 327.601ZM300.861 333.434C300.312 333.482 299.826 333.328 299.401 332.972C298.976 332.615 298.74 332.163 298.692 331.614L297.471 317.656C297.423 317.108 297.577 316.621 297.933 316.197C298.29 315.772 298.742 315.535 299.291 315.487L300.288 315.4L300.2 314.403C300.176 314.121 300.25 313.875 300.424 313.667C300.599 313.46 300.828 313.344 301.11 313.319C301.393 313.294 301.638 313.369 301.846 313.543C302.054 313.718 302.17 313.946 302.195 314.229L302.282 315.226L310.258 314.528L310.171 313.531C310.146 313.248 310.221 313.003 310.396 312.795C310.57 312.587 310.798 312.471 311.081 312.447C311.363 312.422 311.608 312.497 311.816 312.671C312.024 312.845 312.14 313.074 312.165 313.356L312.252 314.353L313.249 314.266C313.798 314.218 314.284 314.373 314.709 314.729C315.134 315.085 315.37 315.537 315.418 316.086L316.639 330.044C316.687 330.593 316.533 331.079 316.177 331.504C315.82 331.929 315.368 332.165 314.819 332.213L300.861 333.434ZM300.686 331.44L314.645 330.219L313.773 320.248L299.814 321.47L300.686 331.44Z" fill="#646464"/>
<rect x="50.703" y="379.432" width="198.167" height="32.0271" rx="8" transform="rotate(-5 50.703 379.432)" fill="#274996"/>
<g clip-path="url(#clip0_8452_5838)">
<path d="M233.641 380.439L230.669 383.981C230.557 384.114 230.408 384.188 230.219 384.205C230.031 384.221 229.871 384.174 229.738 384.063C229.606 383.951 229.531 383.802 229.515 383.613C229.498 383.425 229.545 383.265 229.657 383.132L232.629 379.59L229.087 376.618C228.954 376.507 228.88 376.357 228.863 376.169C228.847 375.98 228.894 375.82 229.005 375.688C229.117 375.555 229.266 375.48 229.455 375.464C229.643 375.448 229.803 375.495 229.936 375.606L233.478 378.578L236.45 375.036C236.561 374.904 236.711 374.829 236.899 374.813C237.088 374.796 237.248 374.844 237.38 374.955C237.513 375.066 237.587 375.216 237.604 375.404C237.62 375.592 237.573 375.753 237.462 375.885L234.49 379.427L238.032 382.399C238.164 382.511 238.239 382.66 238.255 382.849C238.272 383.037 238.224 383.197 238.113 383.33C238.002 383.462 237.852 383.537 237.664 383.553C237.476 383.57 237.315 383.523 237.183 383.411L233.641 380.439Z" fill="white"/>
<path d="M61.1516 400.62L63.9957 390.526L66.592 390.299L71.1459 399.746L69.0382 399.93L67.8807 397.472L63.9723 397.814L63.2593 400.436L61.1516 400.62ZM64.4387 396.071L67.1187 395.837L65.4575 392.283L64.4387 396.071ZM76.8263 396.183L76.4771 392.191L78.2637 392.034L78.6057 395.943C78.7901 398.05 77.6753 399.456 75.6094 399.637C73.5436 399.818 72.2156 398.626 72.0312 396.518L71.6893 392.61L73.476 392.453L73.8252 396.445C73.9144 397.464 74.4998 398.046 75.4769 397.961C76.44 397.876 76.9155 397.202 76.8263 396.183ZM80.9841 390.559C80.3559 390.614 79.7791 390.13 79.7242 389.501C79.6692 388.873 80.1532 388.296 80.7814 388.242C81.3955 388.188 81.9724 388.672 82.0273 389.3C82.0823 389.928 81.5983 390.505 80.9841 390.559ZM82.6803 399.496C82.8342 401.255 82.0961 402.304 80.3234 402.459C79.7371 402.511 79.3262 402.476 78.9638 402.353L78.8282 400.804C79.0601 400.882 79.4 400.909 79.8886 400.866C80.5865 400.805 80.9784 400.461 80.9076 399.652L80.2261 391.863L81.9988 391.708L82.6803 399.496ZM87.4503 390.949C89.7395 390.749 91.4506 392.301 91.635 394.409C91.8194 396.517 90.4038 398.342 88.1146 398.543C85.8254 398.743 84.1143 397.191 83.9299 395.083C83.7455 392.975 85.1611 391.15 87.4503 390.949ZM87.996 396.865C89.1267 396.766 89.8987 395.785 89.7925 394.57C89.685 393.342 88.7554 392.523 87.6248 392.622C86.4523 392.725 85.665 393.694 85.7724 394.922C85.8799 396.15 86.8235 396.968 87.996 396.865ZM97.9277 394.337L97.5784 390.345L99.3651 390.188L99.707 394.097C99.8914 396.204 98.7767 397.61 96.7108 397.791C94.6449 397.971 93.317 396.78 93.1326 394.672L92.7906 390.763L94.5773 390.607L94.9266 394.599C95.0157 395.618 95.6011 396.2 96.5782 396.114C97.5414 396.03 98.0168 395.356 97.9277 394.337ZM101.943 397.052L101.327 390.017L103.1 389.861L103.161 390.559C103.58 390.044 104.149 389.629 104.944 389.559C105.182 389.539 105.395 389.562 105.567 389.603L105.72 391.348C105.492 391.312 105.251 391.291 104.93 391.319C104.064 391.395 103.547 391.918 103.321 392.388L103.716 396.897L101.943 397.052ZM106.503 393.108C106.324 391.056 107.525 389.193 109.745 388.999C110.694 388.916 111.403 389.149 111.995 389.646L111.646 385.654L113.433 385.497L114.349 395.966L112.562 396.123L112.513 395.564C112.017 396.156 111.358 396.509 110.409 396.592C108.19 396.786 106.683 395.16 106.503 393.108ZM108.36 392.946C108.467 394.174 109.313 395 110.514 394.895C111.309 394.826 111.936 394.433 112.355 393.75L112.154 391.46C111.623 390.86 110.938 390.582 110.142 390.652C108.942 390.757 108.252 391.717 108.36 392.946ZM116.917 389.947L115.27 390.091L116.175 385.961L118.185 385.785L116.917 389.947ZM120.454 395.432L119.538 384.963L121.311 384.808L121.66 388.8C122.107 388.283 122.732 387.863 123.667 387.781C125.188 387.648 126.494 388.588 126.676 390.668L127.043 394.856L125.256 395.012L124.896 390.894C124.814 389.959 124.246 389.418 123.367 389.495C122.474 389.573 122.051 390.215 121.825 390.685L122.227 395.277L120.454 395.432ZM133.424 391.231L133.074 387.239L134.861 387.083L135.203 390.991C135.388 393.099 134.273 394.504 132.207 394.685C130.141 394.866 128.813 393.674 128.629 391.566L128.287 387.658L130.073 387.502L130.423 391.494C130.512 392.513 131.097 393.094 132.074 393.009C133.037 392.925 133.513 392.25 133.424 391.231ZM137.609 385.605C136.981 385.659 136.404 385.175 136.35 384.547C136.295 383.919 136.779 383.342 137.407 383.287C138.035 383.232 138.598 383.718 138.653 384.346C138.708 384.974 138.238 385.55 137.609 385.605ZM137.439 393.946L136.824 386.911L138.596 386.756L139.212 393.791L137.439 393.946ZM146.173 389.3C146.373 391.589 147.297 393.309 148.952 394.697L147.787 395.854C145.904 394.429 144.659 392.26 144.414 389.454C144.166 386.62 145.113 384.259 146.627 382.593L147.975 383.53C146.636 385.11 145.974 387.025 146.173 389.3ZM152.096 392.65L151.411 384.819L149.487 386.141L148.434 384.883L151.297 382.874L153.125 382.714L153.98 392.485L152.096 392.65ZM158.866 381.944C161.434 381.72 162.83 383.848 163.086 386.779C163.343 389.711 162.338 392.049 159.769 392.274C157.201 392.498 155.805 390.37 155.549 387.439C155.292 384.508 156.297 382.169 158.866 381.944ZM159.018 383.689C157.776 383.798 157.296 385.218 157.475 387.27C157.656 389.336 158.375 390.638 159.617 390.529C160.845 390.422 161.326 389.001 161.146 386.949C160.965 384.883 160.247 383.582 159.018 383.689ZM168.893 382.868C168.265 382.923 167.688 382.439 167.633 381.81C167.578 381.182 168.062 380.605 168.69 380.55C169.304 380.497 169.881 380.981 169.936 381.609C169.991 382.237 169.507 382.814 168.893 382.868ZM170.589 391.805C170.743 393.564 170.005 394.613 168.232 394.768C167.646 394.82 167.235 394.785 166.872 394.662L166.737 393.113C166.969 393.191 167.309 393.218 167.797 393.175C168.495 393.114 168.887 392.77 168.816 391.961L168.135 384.172L169.908 384.017L170.589 391.805ZM174.649 390.902C173.239 391.025 172.205 390.3 172.092 389.002C171.999 387.941 172.753 387.073 174.239 386.69L176.356 386.139L176.341 385.957C176.276 385.218 175.676 384.792 174.866 384.863C174.182 384.923 173.68 385.29 173.348 385.839L171.964 384.962C172.516 384.042 173.502 383.421 174.787 383.308C176.825 383.13 177.978 384.253 178.113 385.802L178.511 390.353L176.739 390.508L176.679 389.824C176.28 390.407 175.473 390.83 174.649 390.902ZM173.843 388.764C173.885 389.238 174.289 389.513 174.889 389.46C175.698 389.389 176.252 388.961 176.552 388.372L176.465 387.381L174.815 387.807C174.086 387.997 173.806 388.331 173.843 388.764ZM180.541 390.175L179.926 383.14L181.699 382.985L181.747 383.543C182.195 383.026 182.819 382.606 183.754 382.524C185.276 382.391 186.582 383.331 186.763 385.411L187.13 389.599L185.343 389.755L184.983 385.637C184.901 384.702 184.319 384.162 183.454 384.238C182.561 384.316 182.138 384.958 181.912 385.428L182.314 390.02L180.541 390.175ZM187.454 382.481L189.352 382.315L191.621 387.18L192.996 381.997L194.908 381.829L192.955 389.089L190.624 389.293L187.454 382.481ZM196.81 380.425C196.182 380.48 195.605 379.996 195.551 379.368C195.496 378.74 195.98 378.163 196.608 378.108C197.236 378.053 197.799 378.538 197.854 379.166C197.909 379.795 197.439 380.37 196.81 380.425ZM196.64 388.767L196.025 381.732L197.797 381.577L198.413 388.612L196.64 388.767ZM206.915 386.714C206.336 387.651 205.295 388.291 203.969 388.407C201.47 388.625 199.908 387.004 199.728 384.952C199.546 382.872 200.708 381.041 203.011 380.839C204.966 380.668 206.366 381.882 206.527 383.724C206.561 384.115 206.537 384.483 206.502 384.725L201.575 385.156C201.857 386.454 202.713 386.913 203.816 386.817C204.583 386.75 205.224 386.356 205.557 385.821L206.915 386.714ZM203.097 382.294C202.189 382.374 201.633 382.929 201.518 383.867L204.757 383.584C204.666 382.874 204.088 382.208 203.097 382.294ZM208.622 387.718L208.007 380.683L209.779 380.528L209.84 381.226C210.259 380.711 210.828 380.296 211.624 380.226C211.861 380.205 212.074 380.229 212.246 380.27L212.399 382.015C212.171 381.979 211.93 381.958 211.609 381.986C210.743 382.061 210.226 382.585 210 383.055L210.395 387.563L208.622 387.718ZM214.976 383.309C214.775 381.019 213.85 379.286 212.183 377.913L213.347 376.756C215.215 378.168 216.474 380.336 216.72 383.156C216.968 385.99 216.034 388.336 214.507 390.017L213.16 389.08C214.526 387.497 215.175 385.584 214.976 383.309Z" fill="#EEF1F8"/>
</g>
<rect x="54.7339" y="419.768" width="143.122" height="31.0271" rx="7.5" transform="rotate(-5 54.7339 419.768)" stroke="#878787"/>
<path d="M65.5953 440.418L64.7405 430.648L68.5372 430.315C71.608 430.047 73.8845 432.112 74.1153 434.75C74.3461 437.388 72.4629 439.818 69.392 440.086L65.5953 440.418ZM68.6794 431.78L66.46 431.974L67.0584 438.814L69.2778 438.619C71.3017 438.442 72.6203 436.794 72.4542 434.896C72.2869 432.983 70.7033 431.603 68.6794 431.78ZM82.689 437.77C82.1099 438.706 81.0827 439.345 79.7706 439.46C77.3418 439.672 75.7515 438.053 75.5719 436.001C75.3875 433.893 76.5798 432.087 78.8131 431.892C80.7534 431.722 82.1257 432.938 82.282 434.725C82.3101 435.046 82.2963 435.371 82.2588 435.585L77.0662 436.039C77.2982 437.566 78.3031 438.28 79.657 438.161C80.5085 438.087 81.1874 437.648 81.5688 437.024L82.689 437.77ZM78.8903 433.095C77.8434 433.186 77.17 433.85 77.042 434.958L80.8247 434.627C80.7199 433.75 80.0209 432.996 78.8903 433.095ZM84.5351 438.761L83.9196 431.726L85.3573 431.601L85.4147 432.257C85.8696 431.668 86.4914 431.22 87.4266 431.138C88.3898 431.054 89.2372 431.416 89.7572 432.214C90.2405 431.469 90.8884 430.835 92.1027 430.729C93.5684 430.601 94.787 431.507 94.9567 433.447L95.3389 437.816L93.8873 437.943L93.5099 433.63C93.4195 432.597 92.7935 432.033 91.8862 432.112C91.0487 432.186 90.5507 432.764 90.2324 433.467C90.2574 433.591 90.2684 433.717 90.2806 433.856L90.6628 438.225L89.2112 438.352L88.8338 434.039C88.7434 433.006 88.1314 432.441 87.2101 432.522C86.3168 432.6 85.8401 433.26 85.5576 433.89L85.9728 438.636L84.5351 438.761ZM99.5252 437.661C98.1293 437.783 97.1105 437.071 97.0019 435.828C96.909 434.767 97.6654 433.928 99.137 433.546L101.379 432.97L101.348 432.607C101.272 431.741 100.583 431.267 99.676 431.347C98.9083 431.414 98.3386 431.815 97.9839 432.423L96.837 431.693C97.3919 430.801 98.3505 430.183 99.6068 430.073C101.505 429.907 102.65 430.932 102.785 432.481L103.192 437.129L101.754 437.255L101.685 436.459C101.236 437.117 100.391 437.585 99.5252 437.661ZM98.4487 435.645C98.4963 436.19 98.962 436.529 99.6878 436.465C100.567 436.388 101.215 435.91 101.575 435.203L101.468 433.989L99.5982 434.476C98.7322 434.706 98.4023 435.115 98.4487 435.645ZM105.419 428.27C104.889 428.316 104.403 427.909 104.357 427.378C104.31 426.848 104.718 426.362 105.248 426.316C105.779 426.269 106.264 426.677 106.311 427.208C106.357 427.738 105.95 428.224 105.419 428.27ZM105.446 436.932L104.83 429.897L106.268 429.771L106.883 436.806L105.446 436.932ZM109.235 436.6L108.62 429.565L110.057 429.44L110.117 430.124C110.599 429.519 111.261 429.053 112.266 428.965C113.816 428.829 115.094 429.773 115.272 431.811L115.642 436.04L114.19 436.167L113.825 431.993C113.728 430.877 113.055 430.26 112.05 430.348C111.087 430.433 110.567 431.083 110.258 431.729L110.673 436.475L109.235 436.6ZM122.21 431.583C122.42 433.984 123.393 435.784 125.047 437.158L124.075 438.115C122.25 436.7 121.018 434.515 120.772 431.709C120.524 428.876 121.456 426.501 122.915 424.855L124.038 425.628C122.699 427.208 122.002 429.21 122.21 431.583ZM128.378 434.912L127.66 426.704L125.443 428.206L124.566 427.186L127.551 425.138L129.045 425.008L129.9 434.779L128.378 434.912ZM134.526 434.374L133.808 426.166L131.59 427.668L130.713 426.648L133.699 424.6L135.193 424.47L136.047 434.241L134.526 434.374ZM142.687 425.01C142.156 425.056 141.67 424.648 141.624 424.118C141.578 423.588 141.985 423.102 142.516 423.055C143.046 423.009 143.532 423.417 143.578 423.947C143.625 424.477 143.217 424.963 142.687 425.01ZM144.253 434.395C144.407 436.154 143.633 437.107 141.985 437.252C141.441 437.299 141.044 437.264 140.697 437.153L140.586 435.883C140.832 435.96 141.171 435.987 141.646 435.945C142.428 435.877 142.903 435.526 142.815 434.521L142.125 426.634L143.563 426.508L144.253 434.395ZM148.489 433.377C147.093 433.499 146.074 432.787 145.966 431.544C145.873 430.484 146.629 429.644 148.101 429.262L150.343 428.686L150.311 428.323C150.236 427.458 149.547 426.983 148.64 427.063C147.872 427.13 147.302 427.531 146.948 428.139L145.801 427.41C146.356 426.517 147.314 425.899 148.571 425.789C150.469 425.623 151.614 426.648 151.749 428.197L152.156 432.845L150.718 432.971L150.648 432.176C150.2 432.834 149.354 433.301 148.489 433.377ZM147.413 431.362C147.46 431.906 147.926 432.245 148.652 432.181C149.531 432.105 150.178 431.626 150.539 430.919L150.432 429.705L148.562 430.192C147.696 430.423 147.366 430.831 147.413 431.362ZM154.409 432.648L153.794 425.613L155.232 425.487L155.292 426.171C155.773 425.567 156.436 425.101 157.441 425.013C158.99 424.877 160.268 425.82 160.446 427.858L160.816 432.088L159.365 432.215L159 428.041C158.902 426.924 158.229 426.308 157.224 426.396C156.261 426.48 155.741 427.131 155.432 427.777L155.847 432.522L154.409 432.648ZM161.335 424.953L162.885 424.818L165.429 430.109L167.002 424.458L168.566 424.321L166.515 431.589L164.603 431.756L161.335 424.953ZM170.454 422.58C169.924 422.627 169.438 422.219 169.392 421.689C169.345 421.158 169.753 420.672 170.283 420.626C170.814 420.58 171.3 420.987 171.346 421.518C171.392 422.048 170.985 422.534 170.454 422.58ZM170.481 431.242L169.865 424.207L171.303 424.081L171.919 431.116L170.481 431.242ZM180.521 429.21C179.942 430.147 178.915 430.786 177.603 430.9C175.174 431.113 173.584 429.494 173.404 427.442C173.22 425.334 174.412 423.528 176.645 423.333C178.586 423.163 179.958 424.379 180.114 426.166C180.142 426.487 180.129 426.811 180.091 427.026L174.898 427.48C175.131 429.007 176.135 429.721 177.489 429.602C178.341 429.528 179.02 429.089 179.401 428.464L180.521 429.21ZM176.723 424.535C175.676 424.627 175.002 425.291 174.874 426.399L178.657 426.068C178.552 425.191 177.853 424.437 176.723 424.535ZM182.367 430.202L181.752 423.167L183.19 423.041L183.259 423.837C183.7 423.25 184.28 422.805 185.146 422.73C185.369 422.71 185.582 422.734 185.768 422.774L185.892 424.183C185.663 424.147 185.436 424.125 185.143 424.15C184.25 424.229 183.705 424.754 183.395 425.386L183.805 430.076L182.367 430.202ZM188.61 425.802C188.402 423.415 187.411 421.575 185.774 420.227L186.745 419.27C188.54 420.66 189.802 422.857 190.048 425.676C190.295 428.496 189.405 430.866 187.905 432.531L186.783 431.757C188.148 430.161 188.819 428.189 188.61 425.802Z" fill="#161616"/>
<rect x="58.2232" y="459.649" width="206.175" height="31.0271" rx="7.5" transform="rotate(-5 58.2232 459.649)" stroke="#878787"/>
<path d="M68.1565 479.017L69.235 477.839C69.9479 478.593 70.7699 478.985 71.6214 478.911C72.5845 478.826 73.0952 478.233 73.0232 477.41C72.8461 475.386 68.3384 476.272 68.0526 473.006C67.9219 471.512 69.0568 470.175 70.8295 470.02C72.2393 469.897 73.3424 470.447 74.2095 471.356L73.1159 472.521C72.474 471.775 71.7637 471.373 70.968 471.443C70.1166 471.517 69.6174 472.081 69.6821 472.821C69.8579 474.831 74.3645 473.931 74.6527 477.225C74.7774 478.972 73.5199 480.193 71.7751 480.346C70.2396 480.48 69.1135 479.988 68.1565 479.017ZM83.1521 477.916C82.573 478.853 81.5458 479.491 80.2337 479.606C77.8049 479.818 76.2146 478.199 76.035 476.147C75.8506 474.04 77.0429 472.233 79.2763 472.038C81.2165 471.868 82.5888 473.085 82.7451 474.871C82.7732 475.192 82.7594 475.517 82.7219 475.731L77.5293 476.186C77.7613 477.712 78.7662 478.426 80.1202 478.308C80.9716 478.233 81.6505 477.794 82.032 477.17L83.1521 477.916ZM79.3534 473.241C78.3065 473.333 77.6331 473.996 77.5051 475.105L81.2878 474.774C81.183 473.897 80.484 473.142 79.3534 473.241ZM84.9982 478.908L84.3827 471.873L85.8204 471.747L85.8778 472.403C86.3327 471.815 86.9545 471.366 87.8898 471.285C88.8529 471.2 89.7003 471.562 90.2203 472.361C90.7036 471.615 91.3515 470.982 92.5659 470.875C94.0315 470.747 95.2501 471.653 95.4198 473.594L95.8021 477.963L94.3504 478.09L93.973 473.776C93.8826 472.743 93.2566 472.179 92.3493 472.259C91.5118 472.332 91.0138 472.91 90.6956 473.613C90.7205 473.737 90.7315 473.863 90.7437 474.003L91.126 478.372L89.6743 478.499L89.2969 474.185C89.2065 473.153 88.5945 472.587 87.6732 472.668C86.7799 472.746 86.3032 473.407 86.0207 474.036L86.4359 478.782L84.9982 478.908ZM99.9883 477.807C98.5925 477.929 97.5737 477.217 97.465 475.974C97.3722 474.914 98.1285 474.074 99.6001 473.692L101.842 473.116L101.811 472.753C101.735 471.888 101.046 471.413 100.139 471.493C99.3714 471.56 98.8017 471.961 98.447 472.569L97.3001 471.84C97.855 470.947 98.8136 470.329 100.07 470.219C101.968 470.053 103.113 471.078 103.248 472.627L103.655 477.275L102.217 477.401L102.148 476.606C101.699 477.264 100.854 477.732 99.9883 477.807ZM98.9118 475.792C98.9594 476.336 99.4251 476.675 100.151 476.612C101.03 476.535 101.678 476.056 102.038 475.349L101.932 474.135L100.061 474.622C99.1953 474.853 98.8654 475.261 98.9118 475.792ZM105.882 468.416C105.352 468.463 104.866 468.055 104.82 467.525C104.773 466.994 105.181 466.509 105.711 466.462C106.242 466.416 106.727 466.823 106.774 467.354C106.82 467.884 106.413 468.37 105.882 468.416ZM105.909 477.078L105.293 470.043L106.731 469.917L107.346 476.953L105.909 477.078ZM109.698 476.747L109.083 469.712L110.52 469.586L110.58 470.27C111.062 469.665 111.724 469.199 112.729 469.111C114.279 468.976 115.557 469.919 115.735 471.957L116.105 476.186L114.653 476.313L114.288 472.14C114.191 471.023 113.518 470.407 112.513 470.495C111.55 470.579 111.03 471.229 110.721 471.875L111.136 476.621L109.698 476.747ZM124.591 474.29C124.012 475.227 122.985 475.866 121.673 475.98C119.244 476.193 117.654 474.574 117.474 472.522C117.29 470.414 118.482 468.608 120.716 468.413C122.656 468.243 124.028 469.459 124.184 471.246C124.213 471.567 124.199 471.891 124.161 472.106L118.969 472.56C119.201 474.087 120.206 474.801 121.56 474.682C122.411 474.608 123.09 474.169 123.471 473.545L124.591 474.29ZM120.793 469.616C119.746 469.707 119.072 470.371 118.944 471.479L122.727 471.148C122.622 470.271 121.923 469.517 120.793 469.616ZM130.5 478.387L129.584 467.918L131.022 467.792L131.086 468.518C131.63 467.823 132.352 467.395 133.371 467.305C135.576 467.113 137.111 468.736 137.29 470.788C137.47 472.84 136.24 474.706 134.035 474.899C133.016 474.988 132.23 474.691 131.574 474.101L131.938 478.261L130.5 478.387ZM133.308 468.675C132.386 468.756 131.656 469.256 131.221 470.067L131.438 472.552C132.023 473.289 132.828 473.64 133.735 473.561C135.089 473.442 135.903 472.302 135.783 470.92C135.662 469.538 134.662 468.557 133.308 468.675ZM139.387 474.149L138.772 467.114L140.21 466.988L140.279 467.784C140.72 467.197 141.3 466.752 142.165 466.677C142.389 466.657 142.602 466.681 142.788 466.721L142.912 468.13C142.683 468.094 142.456 468.072 142.163 468.097C141.27 468.176 140.725 468.702 140.415 469.333L140.825 474.024L139.387 474.149ZM147.248 466.091C149.537 465.891 151.223 467.474 151.405 469.553C151.587 471.633 150.202 473.484 147.912 473.685C145.637 473.884 143.938 472.302 143.756 470.223C143.574 468.143 144.973 466.29 147.248 466.091ZM147.808 472.33C149.134 472.214 150.015 471.025 149.897 469.685C149.778 468.317 148.707 467.328 147.381 467.444C146.027 467.563 145.145 468.737 145.263 470.091C145.382 471.445 146.454 472.448 147.808 472.33ZM156.778 471.545C157.573 471.475 158.181 471.028 158.524 470.45L159.731 471.216C159.164 472.138 158.18 472.786 156.882 472.9C154.523 473.106 152.891 471.491 152.711 469.439C152.532 467.387 153.859 465.513 156.218 465.307C157.502 465.194 158.598 465.661 159.316 466.47L158.261 467.435C157.822 466.924 157.146 466.59 156.336 466.661C154.982 466.779 154.098 467.925 154.219 469.307C154.341 470.703 155.41 471.664 156.778 471.545ZM161.334 472.229L160.418 461.76L161.856 461.635L162.216 465.752C162.697 465.148 163.36 464.682 164.365 464.594C165.928 464.457 167.192 465.401 167.371 467.439L167.741 471.669L166.289 471.796L165.924 467.622C165.826 466.505 165.153 465.889 164.148 465.977C163.185 466.061 162.679 466.71 162.356 467.358L162.772 472.103L161.334 472.229ZM171.935 471.513C170.539 471.635 169.52 470.922 169.411 469.68C169.319 468.619 170.075 467.779 171.546 467.397L173.789 466.822L173.757 466.459C173.681 465.593 172.993 465.119 172.085 465.198C171.318 465.265 170.748 465.667 170.393 466.275L169.246 465.545C169.801 464.653 170.76 464.034 172.016 463.924C173.915 463.758 175.059 464.783 175.195 466.333L175.601 470.981L174.164 471.107L174.094 470.311C173.645 470.969 172.8 471.437 171.935 471.513ZM170.858 469.497C170.906 470.042 171.371 470.381 172.097 470.317C172.977 470.24 173.624 469.762 173.984 469.055L173.878 467.84L172.008 468.328C171.142 468.558 170.812 468.967 170.858 469.497ZM177.829 462.122C177.298 462.168 176.812 461.761 176.766 461.23C176.72 460.7 177.127 460.214 177.658 460.168C178.188 460.121 178.674 460.529 178.72 461.059C178.767 461.59 178.359 462.075 177.829 462.122ZM177.855 470.784L177.24 463.749L178.677 463.623L179.293 470.658L177.855 470.784ZM181.645 470.452L181.029 463.417L182.467 463.291L182.527 463.975C183.008 463.371 183.671 462.905 184.676 462.817C186.225 462.681 187.503 463.624 187.681 465.662L188.052 469.892L186.6 470.019L186.235 465.845C186.137 464.728 185.464 464.112 184.459 464.2C183.496 464.284 182.976 464.935 182.667 465.581L183.082 470.327L181.645 470.452ZM196.538 467.996C195.959 468.933 194.932 469.571 193.619 469.686C191.191 469.898 189.6 468.279 189.421 466.227C189.236 464.12 190.429 462.314 192.662 462.118C194.602 461.948 195.974 463.165 196.131 464.951C196.159 465.272 196.145 465.597 196.108 465.811L190.915 466.266C191.147 467.792 192.152 468.506 193.506 468.388C194.357 468.313 195.036 467.874 195.418 467.25L196.538 467.996ZM192.739 463.321C191.692 463.413 191.019 464.076 190.891 465.185L194.674 464.854C194.569 463.977 193.87 463.222 192.739 463.321ZM202.716 464.727C202.926 467.128 203.9 468.927 205.553 470.302L204.582 471.259C202.756 469.843 201.524 467.658 201.279 464.852C201.031 462.019 201.962 459.645 203.422 457.998L204.544 458.772C203.206 460.352 202.509 462.354 202.716 464.727ZM206.89 468.244L205.974 457.775L207.412 457.649L208.328 468.118L206.89 468.244ZM215.189 464.479L214.838 460.459L216.289 460.332L216.635 464.283C216.819 466.39 215.715 467.753 213.747 467.925C211.765 468.098 210.44 466.948 210.256 464.841L209.91 460.89L211.362 460.763L211.714 464.783C211.82 465.998 212.526 466.668 213.628 466.571C214.703 466.477 215.296 465.694 215.189 464.479ZM219.09 467.176L218.474 460.141L219.912 460.015L219.972 460.699C220.454 460.095 221.116 459.629 222.121 459.541C223.67 459.405 224.949 460.348 225.127 462.386L225.497 466.616L224.045 466.743L223.68 462.569C223.582 461.452 222.91 460.836 221.905 460.924C220.941 461.008 220.422 461.659 220.112 462.305L220.528 467.05L219.09 467.176ZM226.866 462.951C226.687 460.9 227.916 459.034 230.135 458.84C231.14 458.752 231.926 459.049 232.567 459.626L232.204 455.48L233.67 455.352L234.586 465.821L233.12 465.949L233.058 465.237C232.527 465.916 231.805 466.345 230.8 466.433C228.58 466.627 227.046 465.003 226.866 462.951ZM228.388 462.818C228.508 464.2 229.509 465.182 230.863 465.063C231.77 464.984 232.514 464.483 232.924 463.701L232.701 461.161C232.118 460.438 231.315 460.101 230.435 460.178C229.081 460.296 228.267 461.436 228.388 462.818ZM236.88 456.956C236.349 457.002 235.863 456.594 235.817 456.064C235.771 455.534 236.178 455.048 236.709 455.001C237.239 454.955 237.725 455.363 237.771 455.893C237.818 456.423 237.41 456.909 236.88 456.956ZM236.906 465.618L236.291 458.582L237.728 458.457L238.344 465.492L236.906 465.618ZM246.5 464.019C246.687 466.154 245.738 467.208 243.881 467.37C243.588 467.396 243.336 467.404 243.151 467.378L243.026 465.954C243.183 465.983 243.352 465.982 243.547 465.965C244.455 465.885 245.008 465.457 244.902 464.243L244.106 455.142L245.711 455.001L246.5 464.019ZM251.257 463.602C251.444 465.738 250.495 466.792 248.639 466.954C248.346 466.98 248.093 466.988 247.908 466.962L247.783 465.538C247.941 465.566 248.109 465.566 248.305 465.549C249.212 465.469 249.765 465.041 249.659 463.827L248.863 454.726L250.468 454.585L251.257 463.602ZM255.118 460.17C254.909 457.783 253.918 455.943 252.281 454.595L253.252 453.638C255.047 455.029 256.309 457.225 256.555 460.045C256.802 462.864 255.912 465.235 254.412 466.899L253.29 466.125C254.655 464.529 255.326 462.557 255.118 460.17Z" fill="#161616"/>
<path d="M33.4045 103.132L25.1369 96.1987C24.9571 96.048 24.825 95.8789 24.7404 95.6913C24.6548 95.5039 24.6028 95.2993 24.5846 95.0777C24.5664 94.856 24.5842 94.6449 24.6381 94.4444C24.6908 94.2441 24.7934 94.053 24.9458 93.8712L31.958 85.5099C32.2374 85.1767 32.6125 84.9881 33.083 84.9441C33.5536 84.9002 33.9536 85.0163 34.2831 85.2927C34.6126 85.569 34.7967 85.9427 34.8354 86.4137C34.8741 86.8848 34.7537 87.2869 34.4742 87.6202L28.5291 94.7091L35.5386 100.588C35.8681 100.864 36.0522 101.238 36.0909 101.709C36.1295 102.18 36.0091 102.582 35.7297 102.915C35.4502 103.248 35.0752 103.437 34.6046 103.481C34.134 103.525 33.734 103.409 33.4045 103.132Z" fill="#161616"/>
<path d="M68.7011 95.2658C70.6144 95.0871 72.0444 94.0126 72.8891 92.5587L75.7367 94.3672C74.377 96.593 71.9998 98.166 68.9624 98.4498C63.677 98.9437 59.7316 95.2114 59.3386 90.4234C58.9455 85.6355 62.2228 81.2283 67.5083 80.7344C70.5456 80.4506 73.1449 81.5827 74.8426 83.4746L72.3349 85.8077C71.2663 84.5325 69.6829 83.7396 67.7696 83.9184C64.6127 84.2134 62.567 86.8892 62.8303 90.0972C63.0936 93.3051 65.5442 95.5608 68.7011 95.2658ZM78.5191 97.0744L77.5287 85.0088L80.566 84.7249L80.6643 85.9219C81.3867 85.0342 82.364 84.3157 83.7272 84.1883C84.1338 84.1503 84.4985 84.1886 84.7933 84.2576L85.0389 87.2501C84.6484 87.19 84.236 87.1562 83.6859 87.2076C82.2031 87.3462 81.3133 88.2495 80.9217 89.058L81.5565 96.7906L78.5191 97.0744ZM93.581 81.579L90.6633 81.8516L92.8243 77.6452L96.1247 77.3368L93.581 81.579ZM98.6571 93.2146C97.6569 94.8278 95.8681 95.9358 93.596 96.1481C89.3151 96.5481 86.6539 93.7813 86.365 90.2622C86.0722 86.6952 88.0786 83.5405 92.0248 83.1718C95.373 82.8589 97.76 84.9276 98.0194 88.0877C98.0744 88.758 98.0299 89.3893 97.9676 89.8053L89.5252 90.5941C89.9969 92.8176 91.4587 93.5977 93.3481 93.4212C94.6635 93.2983 95.7643 92.6165 96.3393 91.6943L98.6571 93.2146ZM92.1574 85.6682C90.6029 85.8135 89.6452 86.7714 89.4401 88.3827L94.9886 87.8643C94.8406 86.6478 93.8555 85.5096 92.1574 85.6682ZM112.414 91.9292C111.413 93.5424 109.625 94.6504 107.352 94.8627C103.071 95.2627 100.41 92.4959 100.121 88.9768C99.8287 85.4098 101.835 82.2551 105.781 81.8864C109.129 81.5735 111.516 83.6422 111.776 86.8023C111.831 87.4726 111.786 88.104 111.724 88.5199L103.282 89.3087C103.753 91.5322 105.215 92.3123 107.105 92.1358C108.42 92.0129 109.521 91.3311 110.096 90.4089L112.414 91.9292ZM105.914 84.3828C104.359 84.5281 103.402 85.486 103.197 87.0973L108.745 86.5789C108.597 85.3624 107.612 84.2242 105.914 84.3828ZM115.328 93.6351L114.337 81.5694L117.374 81.2856L117.473 82.4826C118.195 81.5949 119.172 80.8764 120.536 80.749C120.942 80.711 121.307 80.7493 121.602 80.8182L121.847 83.8107C121.457 83.7507 121.044 83.7169 120.494 83.7683C119.011 83.9068 118.122 84.8102 117.73 85.6187L118.365 93.3512L115.328 93.6351ZM139.001 86.1641L138.439 79.3173L141.501 79.0313L142.051 85.7344C142.348 89.3493 140.426 91.7724 136.886 92.1031C133.346 92.4338 131.083 90.4019 130.786 86.787L130.236 80.0838L133.297 79.7978L133.859 86.6445C134.003 88.3922 135 89.3845 136.674 89.2281C138.324 89.0739 139.145 87.9117 139.001 86.1641ZM145.853 90.7827L144.863 78.7171L147.9 78.4333L147.979 79.3909C148.749 78.4987 149.822 77.7713 151.424 77.6215C154.031 77.3779 156.259 78.979 156.552 82.546L157.142 89.728L154.08 90.014L153.501 82.9518C153.369 81.3478 152.378 80.4273 150.895 80.5658C149.364 80.7088 148.636 81.8142 148.244 82.6228L148.891 90.4989L145.853 90.7827ZM171.527 86.4057C170.526 88.019 168.737 89.1269 166.465 89.3392C162.184 89.7392 159.523 86.9725 159.234 83.4533C158.942 79.8863 160.948 76.7316 164.894 76.3629C168.242 76.0501 170.629 78.1187 170.889 81.2788C170.944 81.9491 170.899 82.5805 170.837 82.9964L162.395 83.7852C162.866 86.0088 164.328 86.7889 166.218 86.6123C167.533 86.4894 168.634 85.8076 169.209 84.8854L171.527 86.4057ZM165.027 78.8594C163.472 79.0046 162.515 79.9625 162.31 81.5739L167.858 81.0554C167.71 79.8389 166.725 78.7007 165.027 78.8594ZM184.312 87.551C181.897 87.7767 180.132 86.5424 179.95 84.316C179.8 82.4966 181.099 81.0002 183.647 80.3279L187.279 79.3613L187.253 79.0501C187.149 77.7813 186.126 77.0568 184.739 77.1864C183.567 77.2959 182.703 77.9314 182.13 78.8775L179.766 77.3856C180.721 75.8008 182.416 74.7257 184.616 74.5201C188.108 74.1938 190.073 76.109 190.291 78.7663L190.931 86.5707L187.894 86.8545L187.798 85.6814C187.109 86.6866 185.723 87.4192 184.312 87.551ZM182.951 83.8908C183.018 84.7048 183.707 85.1711 184.736 85.075C186.123 84.9454 187.074 84.2052 187.593 83.1917L187.454 81.492L184.623 82.2389C183.373 82.5728 182.89 83.1487 182.951 83.8908ZM200.001 83.3109C201.196 83.1992 202.108 82.5592 202.613 81.6677L205.13 83.2658C204.128 84.8551 202.437 85.9781 200.237 86.1837C196.075 86.5725 193.342 83.8125 193.053 80.2933C192.764 76.7742 195.006 73.5493 199.167 73.1604C201.368 72.9549 203.216 73.7471 204.462 75.1263L202.244 77.167C201.601 76.3827 200.599 75.9215 199.355 76.0377C197.37 76.2232 196.037 77.8916 196.21 79.9983C196.385 82.129 197.968 83.5009 200.001 83.3109ZM208.079 80.5297L207.674 75.5981L205.426 75.8082L205.202 73.079L207.45 72.869L207.203 69.8526L210.264 69.5665L210.512 72.5829L214.195 72.2388L214.419 74.9679L210.736 75.3121L211.14 80.2437C211.251 81.5843 212.011 82.0439 213.207 81.9322C214.044 81.854 214.586 81.7068 214.979 81.5012L215.197 84.1586C214.621 84.4778 213.913 84.6645 212.909 84.7584C209.895 85.0399 208.321 83.4743 208.079 80.5297ZM218.273 69.7349C217.196 69.8355 216.213 69.0107 216.124 67.9334C216.036 66.8561 216.87 65.8615 217.946 65.7609C219.023 65.6603 219.982 66.4874 220.071 67.5647C220.159 68.6419 219.349 69.6343 218.273 69.7349ZM217.905 84.0503L216.915 71.9846L219.952 71.7008L220.943 83.7665L217.905 84.0503ZM229.295 70.3454C233.217 69.9789 236.134 72.6253 236.43 76.2402C236.727 79.8551 234.286 83.0021 230.364 83.3686C226.442 83.7351 223.525 81.0887 223.229 77.4738C222.932 73.8588 225.373 70.7118 229.295 70.3454ZM230.176 80.4913C232.113 80.3103 233.444 78.6179 233.273 76.5352C233.101 74.4285 231.516 73.0326 229.579 73.2137C227.57 73.4014 226.213 75.0721 226.386 77.1788C226.559 79.2855 228.167 80.6791 230.176 80.4913ZM239.696 82.0142L238.706 69.9485L241.743 69.6647L241.822 70.6223C242.592 69.7301 243.665 69.0027 245.267 68.8529C247.874 68.6094 250.102 70.2104 250.395 73.7774L250.984 80.9594L247.923 81.2454L247.343 74.1832C247.212 72.5792 246.22 71.6587 244.738 71.7972C243.207 71.9402 242.478 73.0456 242.087 73.8542L242.733 81.7304L239.696 82.0142Z" fill="#3B69D1"/>
<g filter="url(#filter0_d_8452_5838)">
<rect x="28.0237" y="438.26" width="320.271" height="68.0575" rx="10" transform="rotate(-5 28.0237 438.26)" fill="white" shape-rendering="crispEdges"/>
<path d="M54.744 468.072L57.7352 467.81L57.2118 461.828L63.194 461.304L63.7174 467.287L66.7085 467.025L65.9234 458.052L59.5487 454.088L53.959 459.098L54.744 468.072ZM54.9185 470.066C54.3701 470.114 53.8838 469.96 53.4595 469.604C53.0344 469.247 52.7979 468.795 52.75 468.246L51.9649 459.273C51.9373 458.957 51.9819 458.652 52.0988 458.357C52.215 458.062 52.3897 457.812 52.623 457.608L58.2127 452.598C58.3838 452.449 58.5662 452.332 58.7598 452.248C58.9534 452.165 59.1582 452.113 59.3742 452.094C59.5902 452.075 59.8009 452.09 60.0061 452.139C60.2113 452.188 60.4111 452.271 60.6055 452.388L66.9803 456.352C67.2455 456.513 67.4613 456.728 67.6276 456.998C67.7932 457.269 67.8899 457.561 67.9175 457.877L68.7026 466.851C68.7505 467.399 68.5965 467.886 68.2406 468.311C67.8839 468.735 67.4313 468.971 66.8829 469.019L61.8978 469.455L61.3744 463.473L59.3803 463.647L59.9037 469.63L54.9185 470.066Z" fill="#646464"/>
<path d="M45.048 489.013L47.2191 481.791L48.4754 481.681L51.8677 488.417L50.8707 488.504L49.8834 486.521L46.6729 486.802L46.045 488.926L45.048 489.013ZM46.9113 485.967L49.5036 485.74L47.9188 482.553L46.9113 485.967ZM55.2686 487.516C55.8868 487.462 56.3691 487.119 56.6398 486.653L57.3523 487.103C56.9387 487.772 56.2457 488.235 55.3284 488.315C53.6634 488.461 52.4875 487.308 52.3593 485.842C52.2311 484.376 53.1889 483.037 54.8539 482.891C55.7612 482.812 56.5348 483.156 57.0575 483.733L56.4339 484.3C56.0865 483.888 55.5518 483.634 54.9237 483.689C53.8469 483.783 53.1533 484.697 53.2466 485.764C53.3409 486.841 54.1818 487.611 55.2686 487.516ZM60.653 487.045C61.2712 486.991 61.7535 486.648 62.0242 486.182L62.7367 486.632C62.323 487.301 61.6301 487.764 60.7128 487.844C59.0478 487.989 57.8719 486.836 57.7437 485.371C57.6154 483.905 58.5732 482.566 60.2383 482.42C61.1456 482.341 61.9192 482.685 62.4419 483.262L61.8183 483.829C61.4709 483.417 60.9362 483.163 60.3081 483.218C59.2313 483.312 58.5377 484.226 58.631 485.293C58.7252 486.37 59.5662 487.14 60.653 487.045ZM67.2825 484.898L67.0313 482.027L67.8788 481.952L68.1274 484.794C68.2591 486.299 67.4684 487.253 66.1025 487.372C64.7465 487.491 63.8024 486.689 63.6706 485.184L63.422 482.342L64.2695 482.268L64.5207 485.14C64.6071 486.127 65.1852 486.649 66.0427 486.574C66.8802 486.5 67.3689 485.885 67.2825 484.898ZM74.3829 485.613C73.9693 486.282 73.2564 486.746 72.3192 486.828C70.6242 486.977 69.4683 485.822 69.3401 484.356C69.2066 482.831 70.0799 481.559 71.6353 481.423C73.0012 481.303 73.9723 482.183 74.0805 483.419C74.0979 483.619 74.0846 483.811 74.0669 483.953L70.2084 484.29C70.3438 485.494 71.1752 486.155 72.252 486.061C72.9001 486.004 73.4223 485.657 73.7121 485.179L74.3829 485.613ZM71.6781 482.142C70.8506 482.215 70.3151 482.754 70.2115 483.637L73.2225 483.374C73.1281 482.638 72.5655 482.065 71.6781 482.142ZM75.6568 479.956C75.3277 479.985 75.035 479.739 75.0062 479.41C74.9783 479.091 75.2239 478.798 75.553 478.769C75.882 478.741 76.1648 478.987 76.1927 479.306C76.2215 479.635 75.9858 479.927 75.6568 479.956ZM75.7819 486.324L75.3423 481.299L76.1898 481.225L76.6294 486.25L75.7819 486.324ZM78.4206 486.094L77.7664 478.616L78.6139 478.542L79.2681 486.019L78.4206 486.094Z" fill="#646464"/>
<path d="M121.888 464.207C121.539 464.237 121.243 463.952 121.262 463.598L121.607 457.199L118.117 457.504C117.24 457.581 117.723 456.785 117.74 456.753C118.802 454.42 120.398 450.965 122.507 446.36C122.591 446.172 122.781 446.044 122.98 446.027C123.329 445.997 123.625 446.282 123.606 446.635L123.262 453.035L126.761 452.729C127.16 452.694 127.396 452.864 127.218 453.352C124.438 459.362 122.826 462.869 122.362 463.874C122.278 464.062 122.098 464.188 121.888 464.207Z" fill="#3B69D1"/>
<path d="M113.698 482.033L114.642 480.996C115.107 481.498 115.694 481.768 116.262 481.718C116.82 481.669 117.133 481.34 117.09 480.842C116.977 479.556 113.837 480.182 113.63 477.819C113.533 476.712 114.371 475.715 115.707 475.598C116.753 475.506 117.592 475.905 118.252 476.561L117.297 477.589C116.842 477.096 116.353 476.787 115.825 476.833C115.326 476.877 115.025 477.225 115.062 477.644C115.172 478.91 118.312 478.274 118.521 480.666C118.616 481.984 117.668 482.861 116.382 482.973C115.205 483.076 114.38 482.717 113.698 482.033ZM123.103 479.994L122.854 477.143L124.13 477.031L124.374 479.823C124.506 481.328 123.71 482.332 122.234 482.461C120.758 482.591 119.81 481.739 119.678 480.234L119.434 477.442L120.71 477.33L120.959 480.182C121.023 480.91 121.441 481.325 122.139 481.264C122.827 481.204 123.167 480.722 123.103 479.994ZM126.093 475.975C125.644 476.015 125.232 475.669 125.193 475.22C125.154 474.771 125.499 474.359 125.948 474.32C126.397 474.281 126.799 474.628 126.838 475.076C126.877 475.525 126.542 475.936 126.093 475.975ZM125.971 481.934L125.532 476.908L126.798 476.798L127.237 481.823L125.971 481.934ZM127.598 476.728L128.954 476.609L130.574 480.084L131.557 476.381L132.923 476.262L131.528 481.447L129.863 481.593L127.598 476.728ZM134.281 475.259C133.833 475.298 133.421 474.952 133.381 474.504C133.342 474.055 133.688 473.643 134.137 473.604C134.585 473.565 134.987 473.911 135.027 474.36C135.066 474.808 134.73 475.22 134.281 475.259ZM134.16 481.217L133.72 476.192L134.986 476.081L135.426 481.106L134.16 481.217Z" fill="#3B69D1"/>
<path d="M182.427 451.878L188.434 451.352C188.717 451.327 188.941 451.211 189.107 451.004C189.273 450.797 189.344 450.552 189.319 450.27C189.294 449.987 189.178 449.759 188.971 449.584C188.763 449.41 188.517 449.335 188.235 449.36L182.228 449.886C181.945 449.91 181.721 450.026 181.555 450.233C181.389 450.44 181.318 450.685 181.343 450.968C181.367 451.25 181.484 451.478 181.691 451.653C181.899 451.827 182.145 451.902 182.427 451.878ZM182.165 448.886L192.161 448.012C192.443 447.987 192.667 447.871 192.833 447.664C193 447.457 193.07 447.212 193.046 446.93C193.021 446.647 192.904 446.419 192.696 446.244C192.489 446.07 192.244 445.995 191.961 446.02L181.966 446.895C181.683 446.919 181.459 447.035 181.293 447.242C181.127 447.449 181.056 447.694 181.081 447.977C181.106 448.259 181.222 448.487 181.429 448.661C181.638 448.836 181.883 448.911 182.165 448.886ZM181.904 445.895L191.899 445.021C192.181 444.996 192.406 444.88 192.572 444.674C192.738 444.466 192.809 444.221 192.784 443.939C192.759 443.656 192.643 443.428 192.435 443.253C192.227 443.079 191.982 443.004 191.7 443.029L181.704 443.903C181.422 443.928 181.197 444.044 181.031 444.251C180.865 444.458 180.795 444.703 180.819 444.985C180.844 445.268 180.96 445.497 181.168 445.671C181.376 445.845 181.621 445.92 181.904 445.895ZM177.928 457.872L176.57 442.343C176.522 441.795 176.676 441.308 177.033 440.883C177.389 440.459 177.841 440.223 178.389 440.175L194.342 438.779C194.89 438.731 195.377 438.885 195.802 439.241C196.226 439.598 196.462 440.05 196.51 440.599L197.557 452.563C197.605 453.112 197.451 453.598 197.095 454.023C196.738 454.448 196.286 454.684 195.737 454.732L181.779 455.953L179.686 458.447C179.398 458.79 179.043 458.892 178.62 458.753C178.198 458.614 177.967 458.321 177.928 457.872ZM179.713 455.305L180.782 454.031L195.563 452.738L194.516 440.773L178.564 442.169L179.713 455.305Z" fill="#646464"/>
<path d="M168.476 478.215L167.865 471.236L169.061 471.131L171.503 474.464L173.329 470.758L174.525 470.653L175.136 477.632L174.199 477.714L173.698 471.991L171.955 475.499L171.237 475.562L168.912 472.41L169.413 478.133L168.476 478.215ZM181.482 476.243C181.068 476.912 180.355 477.376 179.418 477.458C177.723 477.607 176.567 476.452 176.439 474.986C176.306 473.461 177.179 472.189 178.734 472.053C180.1 471.933 181.071 472.813 181.179 474.049C181.197 474.249 181.184 474.441 181.166 474.583L177.307 474.92C177.443 476.124 178.274 476.785 179.351 476.691C179.999 476.634 180.521 476.287 180.811 475.809L181.482 476.243ZM178.777 472.772C177.95 472.845 177.414 473.384 177.31 474.267L180.322 474.004C180.227 473.269 179.665 472.695 178.777 472.772ZM182.243 476.317L182.797 475.756C183.184 476.164 183.625 476.377 184.134 476.333C184.692 476.284 184.981 475.917 184.943 475.478C184.844 474.351 182.367 474.97 182.211 473.195C182.142 472.408 182.754 471.701 183.721 471.617C184.439 471.554 185.087 471.839 185.478 472.297L184.934 472.847C184.631 472.491 184.232 472.285 183.793 472.324C183.254 472.371 182.993 472.715 183.027 473.104C183.126 474.231 185.617 473.651 185.767 475.366C185.839 476.304 185.143 476.958 184.205 477.04C183.408 477.109 182.752 476.845 182.243 476.317ZM186.625 475.934L187.179 475.373C187.566 475.781 188.007 475.994 188.515 475.949C189.073 475.9 189.363 475.533 189.324 475.095C189.226 473.968 186.748 474.587 186.593 472.812C186.524 472.024 187.135 471.318 188.102 471.233C188.82 471.17 189.468 471.455 189.86 471.913L189.315 472.463C189.013 472.108 188.613 471.902 188.174 471.94C187.636 471.987 187.375 472.332 187.409 472.721C187.507 473.847 189.998 473.268 190.148 474.983C190.22 475.921 189.524 476.574 188.587 476.656C187.789 476.726 187.133 476.462 186.625 475.934ZM193.003 476.21C192.016 476.296 191.3 475.806 191.225 474.949C191.158 474.191 191.689 473.602 192.741 473.329L194.411 472.902L194.381 472.553C194.32 471.855 193.786 471.5 193.068 471.562C192.49 471.613 192.045 471.923 191.773 472.379L191.092 471.946C191.479 471.31 192.154 470.879 193.032 470.802C194.308 470.69 195.131 471.372 195.228 472.479L195.523 475.849L194.675 475.923L194.62 475.285C194.283 475.806 193.651 476.153 193.003 476.21ZM192.079 474.844C192.117 475.272 192.493 475.551 193.081 475.5C193.749 475.441 194.27 475.074 194.552 474.507L194.465 473.52L193.001 473.899C192.324 474.079 192.042 474.415 192.079 474.844ZM196.724 476.658C196.68 476.149 196.893 475.719 197.361 475.326C197.116 475.167 196.973 474.908 196.949 474.639C196.915 474.24 197.095 473.893 197.462 473.609C196.995 473.319 196.691 472.833 196.642 472.274C196.557 471.307 197.244 470.423 198.44 470.319C198.809 470.287 199.145 470.337 199.426 470.444L201.29 470.28L201.355 471.018L200.268 471.113C200.429 471.35 200.524 471.633 200.55 471.933C200.634 472.89 199.958 473.773 198.752 473.878C198.502 473.9 198.26 473.881 198.045 473.84C197.849 474.007 197.745 474.197 197.761 474.387C197.78 474.596 197.902 474.736 198.211 474.709L199.647 474.583C200.973 474.467 201.648 475.061 201.727 475.959C201.819 477.016 200.831 477.896 199.326 478.027C197.84 478.157 196.812 477.665 196.724 476.658ZM198.703 473.209C199.431 473.146 199.806 472.61 199.753 472.002C199.699 471.384 199.236 470.922 198.509 470.986C197.761 471.051 197.396 471.586 197.45 472.204C197.504 472.822 197.955 473.275 198.703 473.209ZM197.543 476.486C197.596 477.094 198.257 477.408 199.254 477.32C200.311 477.228 200.942 476.751 200.884 476.093C200.842 475.614 200.54 475.259 199.643 475.337L198.018 475.48C197.691 475.769 197.508 476.087 197.543 476.486ZM206.934 474.016C206.52 474.685 205.807 475.15 204.87 475.232C203.175 475.38 202.019 474.225 201.891 472.76C201.757 471.234 202.631 469.962 204.186 469.826C205.552 469.707 206.523 470.586 206.631 471.822C206.649 472.022 206.635 472.214 206.618 472.356L202.759 472.694C202.895 473.898 203.726 474.558 204.803 474.464C205.451 474.407 205.973 474.06 206.263 473.583L206.934 474.016ZM204.229 470.546C203.401 470.618 202.866 471.157 202.762 472.04L205.773 471.777C205.679 471.042 205.116 470.468 204.229 470.546ZM207.695 474.09L208.249 473.53C208.636 473.938 209.077 474.15 209.585 474.106C210.144 474.057 210.433 473.69 210.395 473.251C210.296 472.125 207.818 472.743 207.663 470.969C207.594 470.181 208.206 469.474 209.173 469.39C209.891 469.327 210.538 469.612 210.93 470.07L210.385 470.62C210.083 470.265 209.683 470.058 209.245 470.097C208.706 470.144 208.445 470.488 208.479 470.877C208.578 472.004 211.069 471.424 211.219 473.139C211.291 474.077 210.594 474.731 209.657 474.813C208.86 474.883 208.203 474.619 207.695 474.09Z" fill="#646464"/>
<path d="M259.649 451.451L253.577 446.356C253.113 446.798 252.567 447.164 251.94 447.454C251.312 447.743 250.633 447.92 249.901 447.984C248.09 448.142 246.503 447.649 245.138 446.505C243.774 445.359 243.012 443.881 242.854 442.07C242.695 440.259 243.189 438.671 244.334 437.306C245.478 435.942 246.956 435.181 248.767 435.022C250.579 434.864 252.167 435.357 253.531 436.501C254.895 437.646 255.657 439.125 255.815 440.936C255.879 441.667 255.823 442.367 255.647 443.035C255.471 443.704 255.206 444.305 254.851 444.838L260.95 449.956C261.148 450.123 261.259 450.339 261.283 450.605C261.306 450.871 261.226 451.112 261.045 451.329C260.878 451.528 260.653 451.639 260.371 451.664C260.088 451.689 259.847 451.618 259.649 451.451ZM249.727 445.99C250.973 445.881 251.995 445.352 252.791 444.403C253.587 443.454 253.93 442.357 253.821 441.11C253.712 439.864 253.183 438.843 252.235 438.046C251.286 437.251 250.188 436.907 248.942 437.016C247.696 437.125 246.674 437.654 245.878 438.602C245.082 439.551 244.739 440.649 244.848 441.895C244.957 443.142 245.486 444.163 246.434 444.96C247.383 445.755 248.481 446.099 249.727 445.99Z" fill="#646464"/>
<path d="M236.706 472.245L236.096 465.266L239.845 464.938L239.914 465.736L237.103 465.982L237.298 468.215L239.711 468.004L239.78 468.792L237.367 469.003L237.574 471.366L240.385 471.12L240.455 471.917L236.706 472.245ZM242.057 471.777L241.617 466.752L242.464 466.678L242.512 467.227C242.853 466.755 243.324 466.402 244.022 466.341C244.75 466.277 245.377 466.554 245.742 467.165C246.093 466.582 246.585 466.117 247.452 466.041C248.529 465.947 249.379 466.596 249.499 467.962L249.774 471.102L248.926 471.176L248.654 468.066C248.581 467.228 248.07 466.791 247.352 466.853C246.714 466.909 246.297 467.307 246.019 467.924C246.039 468.033 246.059 468.142 246.069 468.262L246.344 471.402L245.496 471.476L245.224 468.366C245.151 467.528 244.65 467.09 243.923 467.153C243.235 467.214 242.843 467.68 242.6 468.224L242.904 471.703L242.057 471.777ZM251.696 473.406L251.042 465.928L251.89 465.854L251.942 466.452C252.346 465.904 252.909 465.563 253.657 465.498C255.232 465.36 256.348 466.518 256.476 467.984C256.605 469.45 255.707 470.784 254.131 470.922C253.384 470.987 252.77 470.75 252.277 470.28L252.544 473.331L251.696 473.406ZM253.627 466.304C252.929 466.365 252.35 466.758 252.024 467.389L252.195 469.343C252.637 469.917 253.274 470.193 253.962 470.133C255.029 470.04 255.682 469.129 255.589 468.062C255.496 466.995 254.694 466.211 253.627 466.304ZM258.064 470.377L257.409 462.899L258.257 462.825L258.911 470.303L258.064 470.377ZM262.538 464.721C264.154 464.58 265.369 465.729 265.498 467.195C265.626 468.66 264.628 470.004 263.013 470.145C261.388 470.287 260.182 469.137 260.054 467.671C259.926 466.205 260.913 464.863 262.538 464.721ZM262.953 469.346C264 469.255 264.691 468.31 264.6 467.273C264.509 466.226 263.665 465.426 262.618 465.518C261.541 465.612 260.85 466.547 260.941 467.593C261.033 468.64 261.876 469.441 262.953 469.346ZM266.955 463.219C266.626 463.248 266.333 463.003 266.304 462.674C266.276 462.354 266.522 462.062 266.851 462.033C267.18 462.004 267.463 462.251 267.491 462.57C267.519 462.899 267.284 463.191 266.955 463.219ZM267.08 469.588L266.64 464.563L267.488 464.489L267.927 469.514L267.08 469.588ZM269.081 468.72L269.635 468.159C270.022 468.567 270.463 468.78 270.971 468.735C271.529 468.686 271.819 468.32 271.78 467.881C271.682 466.754 269.204 467.373 269.049 465.598C268.98 464.81 269.591 464.104 270.558 464.019C271.276 463.957 271.924 464.241 272.316 464.699L271.771 465.249C271.469 464.894 271.069 464.688 270.63 464.726C270.092 464.773 269.831 465.118 269.865 465.507C269.963 466.633 272.454 466.054 272.604 467.769C272.677 468.707 271.98 469.36 271.043 469.442C270.245 469.512 269.589 469.248 269.081 468.72Z" fill="#646464"/>
<path d="M314.253 442.856C313.556 442.917 312.945 442.728 312.42 442.288C311.896 441.848 311.604 441.279 311.543 440.581C311.482 439.883 311.671 439.272 312.111 438.748C312.551 438.224 313.119 437.932 313.817 437.871C314.515 437.81 315.126 437.999 315.65 438.439C316.174 438.879 316.467 439.447 316.528 440.145C316.589 440.843 316.4 441.454 315.96 441.978C315.52 442.502 314.951 442.795 314.253 442.856ZM310.745 448.689C310.197 448.737 309.71 448.583 309.285 448.227C308.861 447.87 308.625 447.417 308.577 446.869L307.355 432.91C307.307 432.362 307.461 431.876 307.817 431.451C308.174 431.026 308.627 430.79 309.175 430.742L310.172 430.655L310.085 429.658C310.06 429.375 310.135 429.13 310.309 428.922C310.483 428.714 310.712 428.598 310.995 428.573C311.277 428.549 311.522 428.623 311.73 428.797C311.938 428.972 312.054 429.201 312.079 429.483L312.166 430.48L320.142 429.782L320.055 428.785C320.03 428.503 320.105 428.258 320.28 428.049C320.454 427.842 320.682 427.726 320.965 427.701C321.247 427.676 321.492 427.751 321.7 427.925C321.908 428.1 322.024 428.328 322.049 428.611L322.136 429.608L323.133 429.521C323.682 429.473 324.169 429.627 324.594 429.984C325.018 430.34 325.254 430.792 325.302 431.34L326.523 445.299C326.571 445.847 326.417 446.334 326.061 446.759C325.705 447.183 325.252 447.419 324.704 447.467L310.745 448.689ZM310.571 446.694L324.529 445.473L323.657 435.503L309.698 436.724L310.571 446.694ZM309.524 434.73L323.482 433.509L323.308 431.515L309.349 432.736L309.524 434.73Z" fill="#646464"/>
<path d="M292.764 459.706L291.897 459.781L292.905 458.337L293.922 458.248L292.764 459.706ZM291.094 467.487L290.483 460.508L294.232 460.18L294.302 460.978L291.49 461.224L291.686 463.457L294.098 463.246L294.167 464.033L291.755 464.245L291.961 466.608L294.773 466.362L294.843 467.159L291.094 467.487ZM295.081 462.075L295.998 461.995L297.966 465.992L299.209 461.714L300.126 461.633L298.602 466.83L297.485 466.928L295.081 462.075ZM303.57 460.528L302.742 460.601L303.634 458.855L304.591 458.771L303.57 460.528ZM305.921 465.356C305.507 466.025 304.794 466.489 303.857 466.571C302.162 466.72 301.006 465.565 300.878 464.099C300.745 462.574 301.618 461.302 303.173 461.166C304.539 461.046 305.51 461.926 305.619 463.162C305.636 463.362 305.623 463.554 305.605 463.696L301.746 464.033C301.882 465.237 302.713 465.898 303.79 465.804C304.438 465.747 304.96 465.4 305.25 464.922L305.921 465.356ZM303.216 461.885C302.389 461.958 301.853 462.497 301.75 463.38L304.761 463.117C304.666 462.382 304.104 461.808 303.216 461.885ZM307.32 466.068L306.88 461.042L307.728 460.968L307.778 461.537C308.147 461.052 308.638 460.688 309.385 460.622C310.512 460.524 311.416 461.208 311.541 462.634L311.807 465.675L310.959 465.749L310.696 462.738C310.617 461.841 310.063 461.367 309.286 461.435C308.558 461.499 308.136 461.957 307.863 462.514L308.167 465.993L307.32 466.068ZM317.907 464.307C317.493 464.977 316.78 465.441 315.843 465.523C314.148 465.671 312.992 464.516 312.864 463.051C312.731 461.525 313.604 460.253 315.159 460.117C316.525 459.998 317.496 460.877 317.604 462.114C317.622 462.313 317.609 462.505 317.591 462.647L313.732 462.985C313.868 464.189 314.699 464.849 315.776 464.755C316.424 464.698 316.946 464.351 317.236 463.874L317.907 464.307ZM315.202 460.837C314.375 460.909 313.839 461.448 313.735 462.332L316.746 462.068C316.652 461.333 316.089 460.759 315.202 460.837ZM319.306 465.019L318.866 459.994L319.714 459.92L319.762 460.468C320.102 459.996 320.574 459.644 321.272 459.582C321.999 459.519 322.626 459.795 322.991 460.407C323.342 459.823 323.834 459.358 324.701 459.282C325.778 459.188 326.629 459.837 326.748 461.203L327.023 464.344L326.175 464.418L325.903 461.307C325.83 460.47 325.32 460.032 324.602 460.095C323.964 460.151 323.546 460.549 323.269 461.166C323.288 461.275 323.308 461.384 323.318 461.503L323.593 464.644L322.746 464.718L322.473 461.607C322.4 460.77 321.9 460.331 321.172 460.395C320.484 460.455 320.093 460.921 319.849 461.465L320.153 464.945L319.306 465.019ZM333.125 462.976C332.712 463.645 331.999 464.109 331.062 464.191C329.367 464.34 328.211 463.185 328.082 461.719C327.949 460.194 328.822 458.922 330.378 458.786C331.744 458.666 332.715 459.546 332.823 460.782C332.84 460.982 332.827 461.174 332.809 461.316L328.951 461.653C329.086 462.857 329.918 463.518 330.994 463.424C331.642 463.367 332.165 463.02 332.454 462.542L333.125 462.976ZM330.421 459.505C329.593 459.578 329.057 460.117 328.954 461L331.965 460.737C331.87 460.001 331.308 459.428 330.421 459.505ZM334.524 463.687L334.085 458.662L334.932 458.588L334.982 459.157C335.351 458.672 335.842 458.308 336.59 458.242C337.716 458.144 338.62 458.828 338.745 460.254L339.011 463.295L338.163 463.369L337.9 460.358C337.822 459.461 337.268 458.987 336.49 459.055C335.762 459.118 335.34 459.577 335.067 460.134L335.372 463.613L334.524 463.687ZM340.859 461.435L340.634 458.863L339.686 458.946L339.619 458.178L340.566 458.095L340.456 456.839L341.314 456.764L341.424 458.02L343.169 457.868L343.236 458.635L341.491 458.788L341.716 461.36C341.785 462.148 342.203 462.333 342.811 462.279C343.14 462.251 343.366 462.191 343.548 462.094L343.615 462.852C343.384 462.973 343.118 463.036 342.76 463.067C341.643 463.165 340.966 462.662 340.859 461.435ZM344.305 462.139L344.859 461.578C345.246 461.986 345.687 462.199 346.195 462.154C346.753 462.105 347.043 461.738 347.005 461.3C346.906 460.173 344.428 460.792 344.273 459.017C344.204 458.229 344.815 457.523 345.783 457.438C346.5 457.375 347.148 457.66 347.54 458.118L346.995 458.668C346.693 458.313 346.293 458.107 345.854 458.145C345.316 458.192 345.055 458.537 345.089 458.925C345.187 460.052 347.679 459.472 347.829 461.187C347.901 462.125 347.204 462.779 346.267 462.861C345.469 462.931 344.813 462.667 344.305 462.139Z" fill="#646464"/>
</g>
<defs>
<filter id="filter0_d_8452_5838" x="16.0135" y="406.343" width="349.004" height="119.732" filterUnits="userSpaceOnUse" color-interpolation-filters="sRGB">
<feFlood flood-opacity="0" result="BackgroundImageFix"/>
<feColorMatrix in="SourceAlpha" type="matrix" values="0 0 0 0 0 0 0 0 0 0 0 0 0 0 0 0 0 0 127 0" result="hardAlpha"/>
<feOffset dy="8"/>
<feGaussianBlur stdDeviation="6"/>
<feComposite in2="hardAlpha" operator="out"/>
<feColorMatrix type="matrix" values="0 0 0 0 0.152941 0 0 0 0 0.286275 0 0 0 0 0.588235 0 0 0 0.24 0"/>
<feBlend mode="normal" in2="BackgroundImageFix" result="effect1_dropShadow_8452_5838"/>
<feBlend mode="normal" in="SourceGraphic" in2="effect1_dropShadow_8452_5838" result="shape"/>
</filter>
<clipPath id="clip0_8452_5838">
<rect x="250.907" y="394.066" width="198.167" height="32.0271" rx="8" transform="rotate(175 250.907 394.066)" fill="white"/>
</clipPath>
</defs>
</svg>
