<svg width="386" height="576" viewBox="0 0 386 576" fill="none" xmlns="http://www.w3.org/2000/svg">
    <rect width="313.682" height="385.608" rx="8"
        transform="matrix(0.995997 -0.0975607 0.0804228 0.997139 1.9538 32.0409)" fill="white" />
    <path
        d="M22.9948 109.298L21.1607 86.9547L27.7296 86.3409C32.3853 85.9058 35.412 87.9389 35.7212 91.7054C35.8705 93.5248 35.1698 95.1664 33.6911 96.3338C36.1373 97.1667 37.602 98.9597 37.7932 101.29C38.1286 105.376 35.176 108.16 30.042 108.64L22.9948 109.298ZM28.1345 90.0985L25.998 90.2981L26.412 95.3414L28.5485 95.1418C30.2704 94.9809 31.2149 93.9598 31.0812 92.3319C30.9528 90.7679 29.8564 89.9376 28.1345 90.0985ZM29.4954 98.8487L26.7211 99.1079L27.2137 105.109L29.988 104.85C32.0926 104.653 33.2764 103.417 33.1218 101.533C32.9646 99.6181 31.6 98.652 29.4954 98.8487ZM42.9273 88.3946C41.4923 88.5287 40.181 87.4289 40.0631 85.9925C39.9452 84.5562 41.0574 83.23 42.4924 83.0959C43.9273 82.9618 45.2068 84.0645 45.3247 85.5009C45.4426 86.9373 44.3623 88.2605 42.9273 88.3946ZM42.4376 107.482L41.117 91.3942L45.1668 91.0158L46.4874 107.103L42.4376 107.482ZM65.9251 102.65C64.5914 104.801 62.2063 106.278 59.177 106.561C53.469 107.094 49.9208 103.405 49.5356 98.713C49.1452 93.957 51.8204 89.7508 57.082 89.2592C61.5463 88.842 64.7289 91.6003 65.0748 95.8137C65.1481 96.7074 65.0887 97.5493 65.0057 98.1038L53.7492 99.1556C54.3781 102.12 56.3272 103.16 58.8464 102.925C60.6002 102.761 62.068 101.852 62.8346 100.623L65.9251 102.65ZM57.2588 92.5878C55.1861 92.7814 53.9092 94.0587 53.6357 96.2071L61.0337 95.5158C60.8363 93.8939 59.5228 92.3762 57.2588 92.5878ZM69.8103 104.924L68.4898 88.8365L72.5396 88.4581L72.6444 89.7349C73.6714 88.5453 75.102 87.5754 77.2385 87.3758C80.7143 87.051 83.6851 89.1857 84.0755 93.9418L84.8615 103.518L80.7798 103.899L80.0069 94.4828C79.8314 92.3441 78.5096 91.1167 76.5325 91.3015C74.4917 91.4922 73.5201 92.966 72.9981 94.0441L73.8601 104.546L69.8103 104.924ZM85.688 87.2295L90.0248 86.8243L95.1453 97.9251L98.3476 86.0466L102.716 85.6384L98.1694 102.274L92.844 102.772L85.688 87.2295ZM120.982 97.5051C119.648 99.6561 117.263 101.133 114.234 101.416C108.526 101.95 104.978 98.2608 104.592 93.5686C104.202 88.8125 106.877 84.6063 112.139 84.1147C116.603 83.6975 119.786 86.4558 120.132 90.6692C120.205 91.5629 120.146 92.4048 120.063 92.9593L108.806 94.0111C109.435 96.9758 111.384 98.016 113.903 97.7806C115.657 97.6167 117.125 96.7076 117.892 95.478L120.982 97.5051ZM112.316 87.4433C110.243 87.637 108.966 88.9142 108.693 91.0626L116.091 90.3713C115.893 88.7494 114.58 87.2317 112.316 87.4433ZM124.867 99.7796L123.547 83.692L127.596 83.3136L127.701 84.5904C128.728 83.4009 130.159 82.4309 132.295 82.2313C135.771 81.9065 138.742 84.0413 139.132 88.7973L139.918 98.3732L135.837 98.7546L135.064 89.3383C134.888 87.1997 133.566 85.9723 131.589 86.157C129.549 86.3477 128.577 87.8215 128.055 88.8996L128.917 99.4012L124.867 99.7796ZM154.533 89.9958L153.783 80.8668L157.865 80.4854L158.599 89.4229C158.994 94.2428 156.432 97.4735 151.712 97.9145C146.993 98.3555 143.975 95.6462 143.579 90.8263L142.846 81.8888L146.927 81.5074L147.677 90.6364C147.868 92.9665 149.198 94.2897 151.43 94.0811C153.63 93.8755 154.724 92.3259 154.533 89.9958ZM178.25 92.1541C176.916 94.305 174.531 95.7823 171.502 96.0654C165.794 96.5987 162.246 92.9097 161.86 88.2175C161.47 83.4615 164.145 79.2553 169.407 78.7636C173.871 78.3465 177.054 81.1047 177.4 85.3181C177.473 86.2119 177.414 87.0537 177.331 87.6083L166.074 88.6601C166.703 91.6248 168.652 92.6649 171.171 92.4295C172.925 92.2656 174.393 91.3565 175.159 90.127L178.25 92.1541ZM169.584 82.0922C167.511 82.2859 166.234 83.5631 165.96 85.7115L173.359 85.0203C173.161 83.3983 171.848 81.8807 169.584 82.0922Z"
        fill="#3B69D1" />
    <g filter="url(#filter0_d_6966_2096)">
        <rect width="48" height="48" rx="24"
            transform="matrix(0.996505 -0.0931126 0.0818785 0.997491 256.087 53.3437)"
            fill="#3B69D1" shape-rendering="crispEdges" />
        <path
            d="M281.968 75.0488C284.171 74.843 285.808 72.8908 285.627 70.6864C285.446 68.4819 283.516 66.8631 281.313 67.0689C279.111 67.2747 277.474 69.2268 277.655 71.4313C277.836 73.6357 279.766 75.2546 281.968 75.0488ZM281.477 69.0639C282.573 68.9614 283.544 69.7754 283.634 70.8726C283.724 71.9699 282.901 72.9514 281.805 73.0538C280.708 73.1562 279.738 72.3423 279.648 71.2451C279.558 70.1478 280.381 69.1663 281.477 69.0639ZM282.05 76.0463C279.39 76.2949 274.188 78.1278 274.406 80.7812L274.57 82.7761C274.615 83.3248 275.1 83.7317 275.648 83.6805L289.599 82.3769C290.147 82.3257 290.559 81.835 290.514 81.2863L290.35 79.2914C290.132 76.638 284.711 75.7977 282.05 76.0463ZM288.439 80.4751L276.481 81.5924L276.4 80.6049C276.54 79.8681 279.523 78.2927 282.214 78.0413C284.905 77.7899 288.099 78.788 288.357 79.4776L288.439 80.4751Z"
            fill="white" />
        <rect x="0.539192" y="0.452189" width="47" height="47" rx="23.5"
            transform="matrix(0.996505 -0.0931126 0.0818785 0.997491 256.052 53.395)"
            stroke="#3B69D1" shape-rendering="crispEdges" />
    </g>
    <path
        d="M44.0762 309.429C45.9905 309.261 47.4164 308.196 48.2542 306.749L51.1143 308.572C49.765 310.788 47.3936 312.345 44.3546 312.611C39.0663 313.074 35.0972 309.322 34.6785 304.536C34.2598 299.751 37.5171 295.367 42.8054 294.904C45.8444 294.638 48.4523 295.784 50.1617 297.684L47.6638 300.001C46.5873 298.72 44.9982 297.919 43.0839 298.087C39.9252 298.363 37.8916 301.024 38.1721 304.231C38.4526 307.437 40.9176 309.705 44.0762 309.429ZM64.6115 308.38C63.6187 309.986 61.8339 311.082 59.5607 311.281C55.2774 311.656 52.5989 308.876 52.2912 305.359C51.9792 301.793 53.971 298.653 57.9193 298.308C61.2694 298.015 63.6697 300.095 63.946 303.254C64.0047 303.924 63.9634 304.554 63.9032 304.97L55.4563 305.709C55.9403 307.933 57.4077 308.721 59.2981 308.555C60.6142 308.44 61.7125 307.765 62.2832 306.847L64.6115 308.38ZM58.0652 300.803C56.5099 300.939 55.5563 301.89 55.3595 303.499L60.911 303.013C60.7563 301.797 59.7642 300.654 58.0652 300.803ZM67.8946 305.633L67.4633 300.704L65.214 300.9L64.9753 298.173L67.2247 297.976L66.9609 294.961L70.0238 294.693L70.2876 297.708L73.9726 297.385L74.2113 300.113L70.5262 300.436L70.9575 305.365C71.0747 306.705 71.8386 307.169 73.0351 307.064C73.8726 306.991 74.4146 306.847 74.8067 306.644L75.0391 309.3C74.4639 309.615 73.7565 309.798 72.7515 309.886C69.7364 310.15 68.1521 308.576 67.8946 305.633ZM78.3167 304.721L77.8855 299.792L75.6362 299.989L75.3975 297.261L77.6468 297.064L77.383 294.049L80.4459 293.781L80.7097 296.796L84.3948 296.474L84.6334 299.201L80.9484 299.524L81.3796 304.453C81.4969 305.793 82.2608 306.257 83.4572 306.152C84.2947 306.079 84.8367 305.935 85.2289 305.732L85.4613 308.388C84.8861 308.704 84.1787 308.886 83.1736 308.974C80.1586 309.238 78.5742 307.664 78.3167 304.721ZM98.8691 305.383C97.8763 306.988 96.0915 308.085 93.8183 308.284C89.535 308.659 86.8565 305.879 86.5487 302.361C86.2368 298.796 88.2286 295.656 92.1769 295.31C95.5269 295.017 97.9273 297.098 98.2036 300.257C98.2622 300.927 98.2209 301.557 98.1608 301.972L89.7139 302.711C90.1979 304.936 91.6653 305.723 93.5557 305.558C94.8718 305.443 95.9701 304.768 96.5408 303.85L98.8691 305.383ZM92.3228 297.805C90.7674 297.941 89.8139 298.893 89.617 300.502L95.1685 300.016C95.0139 298.8 94.0218 297.657 92.3228 297.805ZM107.039 304.885L108.89 302.89C109.713 303.759 110.657 304.351 111.806 304.251C112.787 304.165 113.239 303.547 113.176 302.829C112.992 300.723 107.294 302.017 106.924 297.782C106.737 295.652 108.392 293.892 110.904 293.672C112.747 293.511 114.499 294.25 115.463 295.347L113.608 297.293C112.919 296.582 112.075 296.029 111.142 296.111C110.185 296.194 109.776 296.761 109.831 297.383C110.011 299.441 115.715 298.218 116.079 302.382C116.253 304.923 114.34 306.488 112.067 306.687C109.914 306.876 108.307 306.148 107.039 304.885ZM130.065 302.653C129.073 304.259 127.288 305.356 125.015 305.555C120.731 305.929 118.053 303.15 117.745 299.632C117.433 296.067 119.425 292.927 123.373 292.581C126.723 292.288 129.124 294.369 129.4 297.527C129.459 298.197 129.417 298.828 129.357 299.243L120.91 299.982C121.394 302.206 122.862 302.994 124.752 302.829C126.068 302.714 127.166 302.039 127.737 301.121L130.065 302.653ZM123.519 295.076C121.964 295.212 121.01 296.164 120.813 297.772L126.365 297.287C126.21 296.07 125.218 294.927 123.519 295.076ZM132.991 304.374L131.936 292.314L134.975 292.048L135.055 292.958C135.799 292.097 136.776 291.409 138.259 291.279C139.791 291.145 141.19 291.698 142.092 292.921C142.862 291.792 143.931 290.783 145.965 290.605C148.453 290.387 150.566 291.938 150.863 295.336L151.512 302.754L148.449 303.022L147.811 295.724C147.683 294.264 146.814 293.424 145.45 293.543C144.134 293.658 143.496 294.63 143.088 295.486C143.127 295.651 143.141 295.819 143.158 296.01L143.807 303.428L140.744 303.696L140.106 296.398C139.978 294.938 139.109 294.098 137.745 294.217C136.357 294.339 135.729 295.43 135.342 296.236L136.03 304.109L132.991 304.374ZM158.41 302.512C155.993 302.724 154.221 301.48 154.026 299.255C153.867 297.436 155.159 295.949 157.706 295.292L161.337 294.347L161.309 294.036C161.198 292.768 160.17 292.038 158.782 292.16C157.61 292.262 156.749 292.892 156.18 293.834L153.806 292.33C154.753 290.752 156.444 289.688 158.646 289.495C162.139 289.19 164.116 291.114 164.348 293.771L165.031 301.571L161.992 301.837L161.889 300.665C161.205 301.665 159.822 302.389 158.41 302.512ZM157.028 298.848C157.1 299.661 157.792 300.131 158.821 300.041C160.209 299.92 161.157 299.186 161.672 298.176L161.523 296.477L158.693 297.207C157.444 297.533 156.964 298.106 157.028 298.848ZM168.803 286.967C167.726 287.061 166.737 286.231 166.643 285.155C166.549 284.078 167.379 283.089 168.455 282.995C169.532 282.901 170.497 283.732 170.591 284.809C170.686 285.886 169.88 286.873 168.803 286.967ZM168.511 301.267L167.456 289.207L170.495 288.941L171.55 301.001L168.511 301.267ZM175.194 300.682L174.139 288.622L177.178 288.356L177.262 289.313C178.028 288.426 179.098 287.706 180.701 287.566C183.31 287.337 185.549 288.95 185.86 292.515L186.489 299.694L183.426 299.962L182.808 292.903C182.668 291.3 181.671 290.374 180.187 290.504C178.655 290.638 177.932 291.738 177.544 292.544L178.233 300.416L175.194 300.682ZM200.871 296.459C199.878 298.064 198.093 299.161 195.82 299.36C191.537 299.735 188.858 296.955 188.55 293.437C188.238 289.872 190.23 286.732 194.178 286.387C197.529 286.093 199.929 288.174 200.205 291.333C200.264 292.003 200.223 292.633 200.162 293.048L191.716 293.787C192.199 296.012 193.667 296.799 195.557 296.634C196.873 296.519 197.972 295.844 198.542 294.926L200.871 296.459ZM194.324 288.881C192.769 289.017 191.815 289.969 191.619 291.578L197.17 291.092C197.015 289.876 196.023 288.733 194.324 288.881Z"
        fill="#3B69D1" />
    <g filter="url(#filter1_d_6966_2096)">
        <rect x="35.6903" y="327.957" width="303.946" height="157.83" rx="8"
            transform="rotate(-5 35.6903 327.957)" fill="white" shape-rendering="crispEdges" />
        <path
            d="M63.4518 358.18C62.7538 358.241 62.1428 358.052 61.6188 357.612C61.0947 357.172 60.8022 356.604 60.7411 355.906C60.68 355.208 60.8694 354.597 61.3091 354.073C61.7489 353.549 62.3177 353.256 63.0156 353.195C63.7135 353.134 64.3245 353.323 64.8486 353.763C65.3727 354.203 65.6652 354.772 65.7263 355.47C65.7874 356.168 65.598 356.778 65.1583 357.303C64.7185 357.827 64.1497 358.119 63.4518 358.18ZM59.9434 364.013C59.395 364.061 58.9083 363.907 58.4834 363.551C58.059 363.194 57.8228 362.742 57.7748 362.193L56.5536 348.235C56.5057 347.686 56.6597 347.2 57.0157 346.776C57.3724 346.351 57.8249 346.114 58.3733 346.066L59.3703 345.979L59.2831 344.982C59.2583 344.699 59.333 344.454 59.507 344.246C59.6818 344.038 59.9104 343.922 60.1929 343.898C60.4754 343.873 60.7207 343.948 60.9288 344.122C61.1363 344.296 61.2524 344.525 61.2771 344.807L61.3644 345.805L69.3407 345.107L69.2534 344.11C69.2287 343.827 69.3037 343.582 69.4784 343.374C69.6525 343.166 69.8807 343.05 70.1632 343.025C70.4457 343.001 70.6907 343.075 70.8982 343.249C71.1063 343.424 71.2228 343.653 71.2475 343.935L71.3347 344.932L72.3318 344.845C72.8801 344.797 73.3668 344.951 73.7919 345.308C74.2162 345.664 74.4523 346.116 74.5003 346.665L75.7215 360.623C75.7695 361.171 75.6155 361.658 75.2595 362.083C74.9028 362.508 74.4503 362.744 73.9019 362.792L59.9434 364.013ZM59.7689 362.019L73.7274 360.798L72.8552 350.827L58.8966 352.048L59.7689 362.019Z"
            fill="#3B69D1" />
        <path
            d="M95.5029 357.888L95.3327 355.941L98.8319 351.842C99.6166 350.889 100.106 350.235 100.026 349.326C99.9454 348.401 99.2599 347.914 98.3825 347.991C97.3137 348.084 96.7168 348.796 96.2131 349.836L94.3648 348.921C95.172 347.307 96.4762 346.229 98.4224 346.058C100.369 345.888 102.041 346.996 102.208 348.91C102.342 350.441 101.441 351.71 100.433 352.875L97.9648 355.711L103.054 355.266L103.224 357.212L95.5029 357.888ZM109.655 356.649L108.952 348.609L110.978 348.432L111.047 349.23C111.526 348.641 112.176 348.167 113.085 348.087C113.357 348.063 113.6 348.09 113.797 348.137L113.972 350.131C113.711 350.09 113.435 350.066 113.068 350.098C112.079 350.184 111.489 350.783 111.23 351.32L111.681 356.472L109.655 356.649ZM123.081 354.157C122.419 355.227 121.229 355.958 119.713 356.091C116.858 356.341 115.072 354.488 114.867 352.143C114.659 349.766 115.987 347.672 118.619 347.442C120.853 347.247 122.453 348.634 122.637 350.74C122.676 351.186 122.649 351.607 122.609 351.883L116.977 352.376C117.3 353.859 118.278 354.384 119.538 354.274C120.416 354.197 121.148 353.747 121.529 353.135L123.081 354.157ZM118.717 349.105C117.68 349.196 117.044 349.83 116.913 350.903L120.614 350.579C120.511 349.768 119.849 349.006 118.717 349.105ZM125.031 355.304L124.328 347.264L126.354 347.087L126.41 347.725C126.921 347.134 127.634 346.653 128.703 346.56C130.442 346.408 131.934 347.483 132.142 349.86L132.561 354.645L130.519 354.824L130.107 350.118C130.014 349.049 129.349 348.432 128.36 348.519C127.339 348.608 126.857 349.342 126.598 349.879L127.057 355.127L125.031 355.304ZM133.935 350.474C133.73 348.129 135.103 346 137.64 345.778C138.724 345.683 139.535 345.95 140.212 346.517L139.813 341.955L141.855 341.776L142.902 353.741L140.86 353.919L140.804 353.281C140.236 353.958 139.484 354.361 138.399 354.456C135.862 354.678 134.141 352.819 133.935 350.474ZM136.057 350.289C136.18 351.693 137.147 352.637 138.519 352.517C139.428 352.437 140.144 351.989 140.622 351.207L140.393 348.591C139.787 347.905 139.004 347.588 138.094 347.667C136.722 347.787 135.934 348.885 136.057 350.289ZM152.618 351.573C151.956 352.643 150.766 353.374 149.251 353.507C146.395 353.757 144.61 351.904 144.404 349.558C144.196 347.182 145.524 345.088 148.156 344.858C150.39 344.663 151.99 346.05 152.174 348.155C152.213 348.602 152.186 349.022 152.146 349.299L146.514 349.792C146.837 351.275 147.815 351.8 149.076 351.69C149.953 351.613 150.685 351.163 151.066 350.551L152.618 351.573ZM148.254 346.521C147.217 346.612 146.581 347.246 146.45 348.319L150.151 347.995C150.048 347.184 149.386 346.422 148.254 346.521ZM154.14 352.758L153.981 350.939L157.68 346.179L153.724 346.525L153.565 344.706L160.057 344.138L160.216 345.957L156.518 350.717L160.713 350.35L160.872 352.169L154.14 352.758ZM161.645 347.005L165.952 346.628L166.124 348.591L161.817 348.967L161.645 347.005ZM165.912 343.626L168.081 343.436L170.673 348.996L172.245 343.072L174.43 342.881L172.199 351.178L169.534 351.411L165.912 343.626ZM179.414 342.123C182.03 341.894 183.985 343.668 184.196 346.077C184.407 348.486 182.789 350.573 180.173 350.801C177.557 351.03 175.601 349.256 175.39 346.848C175.18 344.439 176.797 342.352 179.414 342.123ZM180.037 348.884C181.33 348.771 182.212 347.649 182.09 346.261C181.968 344.858 180.905 343.922 179.613 344.035C178.273 344.152 177.373 345.26 177.496 346.663C177.619 348.067 178.697 349.002 180.037 348.884ZM191.388 345.995L190.989 341.432L193.031 341.253L193.421 345.72C193.632 348.129 192.358 349.735 189.997 349.942C187.636 350.149 186.118 348.786 185.908 346.378L185.517 341.911L187.559 341.732L187.958 346.295C188.06 347.459 188.729 348.124 189.846 348.026C190.946 347.93 191.49 347.159 191.388 345.995ZM195.111 348L196.345 346.67C196.894 347.249 197.523 347.644 198.289 347.577C198.943 347.52 199.244 347.108 199.202 346.629C199.079 345.225 195.281 346.088 195.034 343.264C194.91 341.845 196.013 340.671 197.688 340.524C198.916 340.417 200.084 340.91 200.727 341.641L199.49 342.939C199.031 342.465 198.468 342.096 197.846 342.15C197.208 342.206 196.935 342.584 196.972 342.998C197.092 344.37 200.894 343.555 201.137 346.331C201.253 348.025 199.978 349.069 198.463 349.201C197.027 349.327 195.956 348.842 195.111 348ZM208.907 338.578L206.761 336.098L208.963 335.905L210.838 338.41L208.907 338.578ZM209.791 348.13C208.18 348.271 206.998 347.442 206.868 345.958C206.762 344.746 207.624 343.754 209.322 343.316L211.742 342.687L211.724 342.479C211.65 341.634 210.965 341.147 210.039 341.228C209.258 341.297 208.684 341.716 208.304 342.344L206.722 341.342C207.353 340.29 208.481 339.58 209.948 339.452C212.277 339.248 213.595 340.531 213.75 342.302L214.205 347.503L212.179 347.68L212.111 346.898C211.655 347.565 210.732 348.047 209.791 348.13ZM208.87 345.687C208.918 346.229 209.379 346.542 210.065 346.482C210.99 346.401 211.623 345.912 211.966 345.239L211.866 344.106L209.98 344.593C209.147 344.81 208.827 345.192 208.87 345.687ZM218.973 338.984L221.142 338.794L223.735 344.354L225.306 338.43L227.491 338.238L225.26 346.535L222.596 346.768L218.973 338.984ZM236.665 344.219C236.003 345.29 234.813 346.021 233.298 346.154C230.442 346.403 228.657 344.55 228.451 342.205C228.244 339.828 229.571 337.735 232.204 337.505C234.437 337.309 236.037 338.696 236.221 340.802C236.26 341.249 236.233 341.669 236.193 341.946L230.562 342.439C230.884 343.921 231.863 344.447 233.123 344.336C234 344.26 234.732 343.81 235.113 343.198L236.665 344.219ZM232.301 339.168C231.264 339.259 230.628 339.893 230.497 340.965L234.198 340.642C234.095 339.831 233.434 339.069 232.301 339.168ZM238.616 345.367L237.912 337.327L239.938 337.15L239.994 337.788C240.505 337.196 241.218 336.716 242.287 336.623C244.026 336.47 245.519 337.545 245.727 339.922L246.145 344.708L244.103 344.887L243.692 340.181C243.598 339.112 242.933 338.495 241.944 338.582C240.923 338.671 240.441 339.404 240.182 339.941L240.642 345.19L238.616 345.367ZM248.641 334.974C247.923 335.036 247.263 334.483 247.201 333.765C247.138 333.048 247.691 332.388 248.409 332.325C249.127 332.263 249.77 332.817 249.833 333.535C249.896 334.253 249.358 334.911 248.641 334.974ZM248.446 344.507L247.742 336.467L249.768 336.29L250.472 344.33L248.446 344.507ZM252.901 344.117L252.198 336.077L254.224 335.9L254.294 336.697C254.773 336.109 255.422 335.634 256.332 335.555C256.603 335.531 256.846 335.558 257.043 335.605L257.218 337.599C256.957 337.557 256.682 337.533 256.315 337.565C255.326 337.652 254.735 338.25 254.477 338.787L254.927 343.94L252.901 344.117Z"
            fill="#161616" />
        <path
            d="M310.178 337.398C309.979 337.231 309.868 337.007 309.843 336.724C309.818 336.442 309.889 336.201 310.056 336.002L313.604 331.773L309.376 328.225C309.177 328.058 309.065 327.834 309.04 327.551C309.016 327.269 309.087 327.028 309.254 326.829C309.42 326.631 309.645 326.519 309.928 326.494C310.21 326.469 310.451 326.54 310.649 326.707L315.637 330.892C315.745 330.983 315.826 331.085 315.878 331.198C315.929 331.311 315.961 331.433 315.972 331.566C315.984 331.699 315.974 331.826 315.943 331.946C315.911 332.066 315.85 332.18 315.759 332.288L311.574 337.276C311.407 337.475 311.183 337.586 310.9 337.611C310.618 337.636 310.377 337.565 310.178 337.398Z"
            fill="#646464" />
        <path
            d="M71.1097 411.26C71.3921 411.235 71.6207 411.119 71.7954 410.911C71.9695 410.703 72.0442 410.458 72.0195 410.176L71.6684 406.163C71.6436 405.88 71.5279 405.656 71.3212 405.49C71.1137 405.324 70.8688 405.253 70.5863 405.278C70.3038 405.303 70.0755 405.419 69.9014 405.626C69.7267 405.834 69.6518 406.08 69.6765 406.362L70.0276 410.375C70.0523 410.658 70.1684 410.882 70.3758 411.048C70.5825 411.214 70.8272 411.285 71.1097 411.26ZM71.4586 415.248C71.7411 415.223 71.9697 415.107 72.1443 414.899C72.3184 414.691 72.3931 414.446 72.3684 414.164C72.3437 413.881 72.2276 413.653 72.02 413.478C71.8119 413.304 71.5666 413.229 71.2841 413.254C71.0016 413.279 70.7733 413.395 70.5993 413.602C70.4246 413.811 70.3496 414.056 70.3743 414.338C70.399 414.621 70.5154 414.849 70.7236 415.023C70.9311 415.198 71.1761 415.273 71.4586 415.248ZM71.8947 420.233C70.5155 420.354 69.1964 420.206 67.9375 419.788C66.6787 419.371 65.5614 418.753 64.5855 417.934C63.6097 417.115 62.8072 416.122 62.1779 414.955C61.548 413.788 61.1727 412.515 61.0521 411.135C60.9314 409.756 61.0799 408.437 61.4975 407.178C61.9145 405.919 62.5324 404.802 63.3512 403.826C64.1701 402.85 65.1631 402.047 66.3303 401.417C67.4976 400.788 68.7709 400.413 70.1501 400.293C71.5294 400.172 72.8484 400.32 74.1072 400.737C75.3661 401.155 76.4835 401.773 77.4593 402.592C78.4352 403.411 79.2377 404.404 79.8669 405.571C80.4968 406.738 80.8721 408.011 80.9928 409.391C81.1135 410.77 80.965 412.089 80.5473 413.348C80.1303 414.607 79.5124 415.724 78.6936 416.7C77.8748 417.676 76.8817 418.478 75.7144 419.108C74.5472 419.737 73.274 420.113 71.8947 420.233Z"
            fill="#D31140" />
        <path
            d="M108.06 410.84C108.246 412.962 106.629 414.502 104.3 414.706C102.194 414.89 100.757 414.083 99.708 412.568L101.489 411.238C102.218 412.412 103.015 412.889 104.116 412.793C105.201 412.698 105.957 411.973 105.867 410.936C105.777 409.915 104.924 409.346 103.743 409.45L101.909 409.61L101.741 407.696L103.432 407.548C104.373 407.466 105.013 406.879 104.938 406.018C104.864 405.172 104.184 404.749 103.307 404.826C102.413 404.904 101.849 405.436 101.456 406.274L99.6064 405.343C100.304 403.948 101.496 403.056 103.299 402.898C105.341 402.719 106.958 403.751 107.118 405.586C107.209 406.623 106.839 407.539 106.06 408.186C107.243 408.661 107.953 409.612 108.06 410.84ZM116.913 413.522C115.302 413.663 114.12 412.834 113.991 411.35C113.885 410.138 114.746 409.146 116.444 408.708L118.864 408.078L118.846 407.871C118.772 407.026 118.087 406.539 117.161 406.62C116.38 406.688 115.806 407.108 115.427 407.736L113.844 406.733C114.475 405.682 115.603 404.972 117.07 404.844C119.399 404.64 120.717 405.923 120.872 407.694L121.327 412.894L119.301 413.072L119.233 412.29C118.777 412.957 117.855 413.439 116.913 413.522ZM115.992 411.079C116.04 411.621 116.501 411.934 117.187 411.874C118.112 411.793 118.745 411.304 119.088 410.631L118.989 409.498L117.102 409.985C116.269 410.202 115.949 410.584 115.992 411.079ZM127.368 410.758C128.166 410.689 128.772 410.266 129.106 409.674L130.791 410.748C130.128 411.803 129.003 412.544 127.536 412.673C124.76 412.916 122.926 411.067 122.721 408.722C122.516 406.377 124.001 404.237 126.776 403.995C128.244 403.866 129.48 404.401 130.317 405.324L128.843 406.675C128.412 406.15 127.741 405.839 126.912 405.912C125.588 406.027 124.704 407.134 124.827 408.537C124.951 409.957 126.012 410.877 127.368 410.758ZM132.75 408.937L132.462 405.651L130.962 405.782L130.803 403.964L132.303 403.833L132.127 401.822L134.169 401.644L134.345 403.654L136.802 403.439L136.961 405.258L134.504 405.472L134.791 408.759C134.87 409.652 135.379 409.961 136.177 409.891C136.735 409.842 137.096 409.747 137.358 409.611L137.513 411.382C137.129 411.592 136.658 411.714 135.987 411.773C133.977 411.948 132.921 410.9 132.75 408.937ZM139.514 401.787C138.796 401.85 138.137 401.297 138.074 400.579C138.011 399.861 138.565 399.202 139.282 399.139C140 399.076 140.644 399.631 140.706 400.349C140.769 401.066 140.232 401.724 139.514 401.787ZM139.319 411.32L138.616 403.28L140.642 403.103L141.345 411.143L139.319 411.32ZM146.872 402.236C149.488 402.007 151.444 403.781 151.655 406.19C151.865 408.599 150.248 410.686 147.631 410.915C145.015 411.143 143.06 409.37 142.849 406.961C142.638 404.552 144.256 402.465 146.872 402.236ZM147.496 408.997C148.788 408.884 149.67 407.762 149.549 406.374C149.426 404.971 148.364 404.035 147.072 404.148C145.732 404.265 144.832 405.373 144.955 406.776C145.077 408.18 146.156 409.115 147.496 408.997ZM153.854 410.049L153.151 402.009L155.177 401.831L155.233 402.469C155.744 401.878 156.457 401.398 157.526 401.304C159.265 401.152 160.757 402.227 160.965 404.604L161.384 409.39L159.342 409.569L158.93 404.863C158.837 403.794 158.172 403.177 157.183 403.263C156.162 403.353 155.68 404.086 155.421 404.623L155.88 409.871L153.854 410.049ZM162.881 408.085L164.115 406.756C164.664 407.335 165.293 407.73 166.059 407.663C166.713 407.606 167.014 407.193 166.972 406.715C166.849 405.311 163.051 406.174 162.804 403.35C162.68 401.93 163.783 400.757 165.458 400.61C166.686 400.503 167.854 400.995 168.497 401.727L167.26 403.025C166.801 402.55 166.238 402.182 165.616 402.236C164.978 402.292 164.705 402.669 164.742 403.084C164.862 404.456 168.665 403.641 168.907 406.417C169.023 408.111 167.748 409.155 166.233 409.287C164.797 409.413 163.726 408.928 162.881 408.085ZM182.563 406.219C181.901 407.289 180.711 408.021 179.195 408.153C176.34 408.403 174.554 406.55 174.349 404.205C174.141 401.828 175.469 399.734 178.101 399.504C180.334 399.309 181.935 400.696 182.119 402.802C182.158 403.248 182.13 403.669 182.09 403.945L176.459 404.438C176.782 405.921 177.76 406.446 179.02 406.336C179.898 406.259 180.63 405.809 181.01 405.197L182.563 406.219ZM178.198 401.167C177.161 401.258 176.526 401.892 176.395 402.965L180.096 402.641C179.992 401.83 179.331 401.068 178.198 401.167ZM184.513 407.366L183.81 399.326L185.836 399.149L185.892 399.787C186.402 399.196 187.116 398.715 188.185 398.622C189.924 398.47 191.416 399.545 191.624 401.922L192.043 406.708L190.001 406.886L189.589 402.18C189.496 401.111 188.831 400.494 187.842 400.581C186.821 400.67 186.338 401.404 186.08 401.941L186.539 407.189L184.513 407.366ZM198.643 406.13L197.94 398.09L199.966 397.913L200.035 398.71C200.514 398.122 201.164 397.647 202.073 397.568C202.345 397.544 202.588 397.571 202.785 397.618L202.96 399.612C202.699 399.57 202.423 399.546 202.056 399.578C201.067 399.665 200.477 400.263 200.218 400.8L200.669 405.953L198.643 406.13ZM212.069 403.637C211.407 404.708 210.217 405.439 208.701 405.572C205.846 405.821 204.06 403.968 203.855 401.623C203.647 399.246 204.975 397.153 207.607 396.923C209.841 396.727 211.441 398.114 211.625 400.22C211.664 400.667 211.637 401.087 211.596 401.364L205.965 401.857C206.288 403.339 207.266 403.865 208.526 403.754C209.404 403.678 210.136 403.228 210.516 402.616L212.069 403.637ZM207.704 398.586C206.668 398.677 206.032 399.311 205.901 400.383L209.602 400.06C209.499 399.249 208.837 398.487 207.704 398.586ZM214.257 401.806L213.97 398.52L212.47 398.651L212.311 396.833L213.811 396.701L213.635 394.691L215.677 394.513L215.853 396.523L218.309 396.308L218.468 398.127L216.012 398.341L216.299 401.628C216.377 402.521 216.887 402.83 217.684 402.76C218.243 402.711 218.604 402.616 218.865 402.48L219.02 404.251C218.637 404.461 218.165 404.583 217.495 404.642C215.485 404.817 214.429 403.768 214.257 401.806ZM223.113 404.23C221.502 404.371 220.32 403.542 220.191 402.059C220.085 400.846 220.946 399.855 222.644 399.417L225.064 398.787L225.046 398.58C224.972 397.734 224.287 397.248 223.361 397.329C222.58 397.397 222.006 397.817 221.627 398.445L220.044 397.442C220.675 396.39 221.803 395.681 223.27 395.552C225.599 395.349 226.917 396.632 227.072 398.403L227.527 403.603L225.501 403.78L225.433 402.999C224.977 403.665 224.055 404.148 223.113 404.23ZM222.192 401.787C222.24 402.33 222.701 402.643 223.387 402.583C224.312 402.502 224.945 402.013 225.288 401.34L225.189 400.207L223.302 400.694C222.469 400.911 222.149 401.293 222.192 401.787ZM229.847 403.4L229.144 395.36L231.17 395.183L231.24 395.98C231.719 395.392 232.368 394.917 233.278 394.838C233.549 394.814 233.792 394.841 233.989 394.888L234.164 396.882C233.903 396.84 233.627 396.816 233.261 396.848C232.271 396.935 231.681 397.533 231.422 398.07L231.873 403.223L229.847 403.4ZM235.059 398.893C234.854 396.548 236.227 394.419 238.763 394.197C239.848 394.102 240.659 394.369 241.336 394.936L240.937 390.374L242.979 390.195L244.025 402.16L241.983 402.338L241.928 401.7C241.36 402.377 240.607 402.78 239.523 402.875C236.986 403.097 235.264 401.238 235.059 398.893ZM237.181 398.708C237.304 400.112 238.27 401.056 239.642 400.936C240.552 400.856 241.268 400.408 241.746 399.626L241.517 397.01C240.911 396.324 240.127 396.007 239.218 396.086C237.846 396.206 237.058 397.304 237.181 398.708Z"
            fill="#161616" />
        <path
            d="M315.15 394.229C314.951 394.062 314.84 393.838 314.815 393.555C314.79 393.273 314.861 393.032 315.028 392.833L318.576 388.605L314.348 385.056C314.149 384.89 314.037 384.665 314.012 384.382C313.988 384.1 314.059 383.859 314.226 383.66C314.392 383.462 314.617 383.35 314.899 383.325C315.182 383.301 315.423 383.372 315.621 383.538L320.609 387.723C320.717 387.814 320.798 387.916 320.85 388.029C320.901 388.142 320.933 388.264 320.944 388.397C320.956 388.53 320.946 388.657 320.915 388.777C320.883 388.897 320.822 389.011 320.731 389.119L316.546 394.107C316.379 394.306 316.155 394.417 315.872 394.442C315.59 394.467 315.349 394.396 315.15 394.229Z"
            fill="#646464" />
        <path
            d="M40.7495 385.785L343.539 359.295L343.365 357.301L40.5751 383.791L40.7495 385.785ZM348.25 413.135L45.4599 439.625L45.6344 441.619L348.424 415.129L348.25 413.135Z"
            fill="#F1F1F1" mask="url(#path-11-inside-1_6966_2096)" />
        <path
            d="M73.5265 473.338L79.5087 472.815C79.7912 472.79 80.0198 472.673 80.1945 472.465C80.3685 472.258 80.4432 472.013 80.4185 471.73C80.3938 471.448 80.2777 471.22 80.0702 471.045C79.8621 470.871 79.6167 470.796 79.3342 470.82L73.352 471.344C73.0695 471.369 72.8413 471.485 72.6672 471.693C72.4925 471.901 72.4175 472.146 72.4422 472.428C72.4669 472.711 72.5833 472.939 72.7915 473.113C72.999 473.288 73.244 473.363 73.5265 473.338ZM73.1775 469.35L79.1598 468.826C79.4423 468.802 79.6709 468.685 79.8455 468.477C80.0196 468.27 80.0943 468.025 80.0696 467.742C80.0449 467.46 79.9287 467.231 79.7212 467.056C79.5131 466.882 79.2678 466.808 78.9853 466.832L73.0031 467.356C72.7206 467.38 72.4923 467.497 72.3182 467.704C72.1435 467.912 72.0686 468.157 72.0933 468.44C72.118 468.722 72.2344 468.951 72.4425 469.125C72.65 469.299 72.8951 469.375 73.1775 469.35ZM70.8843 477.588C70.3359 477.636 69.8496 477.482 69.4252 477.126C69.0002 476.769 68.7637 476.317 68.7157 475.768L67.3201 459.816C67.2721 459.267 67.4264 458.78 67.7831 458.355C68.1391 457.931 68.5913 457.695 69.1397 457.647L76.2934 457.021C76.5593 456.998 76.8172 457.026 77.0672 457.104C77.3166 457.183 77.5406 457.306 77.7394 457.472L82.9981 461.885C83.1969 462.052 83.3567 462.251 83.4774 462.483C83.5982 462.716 83.6703 462.965 83.6935 463.231L84.6683 474.372C84.7163 474.921 84.5623 475.408 84.2063 475.833C83.8496 476.257 83.3971 476.493 82.8487 476.541L70.8843 477.588ZM76.6423 463.019C76.667 463.301 76.7835 463.529 76.9916 463.703C77.1991 463.878 77.4441 463.953 77.7266 463.928L81.7147 463.58L76.2934 459.031L76.6423 463.019Z"
            fill="#950EFF" />
        <path
            d="M104.836 468.613L104.666 466.667L108.905 459.995L111.425 459.775L111.972 466.028L113.105 465.929L113.275 467.875L112.143 467.974L112.402 470.941L110.249 471.13L109.989 468.163L104.836 468.613ZM106.883 466.473L109.819 466.216L109.485 462.404L106.883 466.473ZM121.885 470.353C120.274 470.494 119.092 469.665 118.963 468.181C118.857 466.969 119.718 465.977 121.416 465.539L123.836 464.91L123.818 464.702C123.744 463.857 123.059 463.37 122.133 463.451C121.352 463.52 120.778 463.94 120.399 464.567L118.816 463.565C119.447 462.513 120.575 461.803 122.042 461.675C124.371 461.471 125.689 462.754 125.844 464.525L126.299 469.726L124.273 469.903L124.205 469.121C123.749 469.788 122.826 470.271 121.885 470.353ZM120.964 467.91C121.012 468.452 121.473 468.765 122.159 468.705C123.084 468.624 123.717 468.135 124.06 467.462L123.961 466.329L122.074 466.816C121.241 467.034 120.921 467.415 120.964 467.91ZM132.34 467.59C133.138 467.52 133.744 467.097 134.078 466.505L135.763 467.58C135.1 468.634 133.975 469.376 132.508 469.504C129.732 469.747 127.898 467.898 127.693 465.553C127.488 463.208 128.973 461.069 131.748 460.826C133.216 460.697 134.452 461.232 135.289 462.156L133.815 463.506C133.384 462.981 132.713 462.67 131.884 462.743C130.56 462.859 129.676 463.965 129.799 465.369C129.923 466.788 130.984 467.708 132.34 467.59ZM137.722 465.769L137.434 462.482L135.934 462.614L135.775 460.795L137.275 460.664L137.099 458.654L139.141 458.475L139.317 460.485L141.774 460.27L141.933 462.089L139.476 462.304L139.763 465.59C139.842 466.483 140.351 466.792 141.149 466.723C141.707 466.674 142.068 466.578 142.33 466.442L142.485 468.213C142.101 468.424 141.629 468.545 140.959 468.604C138.949 468.78 137.893 467.731 137.722 465.769ZM144.486 458.618C143.768 458.681 143.109 458.128 143.046 457.41C142.983 456.692 143.537 456.033 144.254 455.97C144.972 455.907 145.616 456.462 145.678 457.18C145.741 457.898 145.204 458.555 144.486 458.618ZM144.291 468.152L143.588 460.111L145.614 459.934L146.317 467.974L144.291 468.152ZM151.844 459.068C154.46 458.839 156.416 460.613 156.627 463.021C156.837 465.43 155.22 467.517 152.603 467.746C149.987 467.975 148.032 466.201 147.821 463.792C147.61 461.383 149.228 459.296 151.844 459.068ZM152.468 465.829C153.76 465.716 154.642 464.594 154.521 463.206C154.398 461.802 153.336 460.866 152.044 460.979C150.703 461.096 149.804 462.204 149.927 463.608C150.049 465.012 151.128 465.946 152.468 465.829ZM158.826 466.88L158.123 458.84L160.149 458.663L160.205 459.301C160.716 458.709 161.429 458.229 162.498 458.136C164.237 457.983 165.729 459.058 165.937 461.435L166.356 466.221L164.314 466.4L163.902 461.694C163.809 460.625 163.144 460.008 162.155 460.094C161.134 460.184 160.651 460.917 160.393 461.454L160.852 466.703L158.826 466.88ZM167.853 464.917L169.087 463.587C169.636 464.166 170.265 464.561 171.031 464.494C171.685 464.437 171.986 464.025 171.944 463.546C171.821 462.142 168.023 463.005 167.776 460.181C167.652 458.762 168.755 457.588 170.43 457.442C171.658 457.334 172.826 457.827 173.469 458.558L172.232 459.856C171.773 459.382 171.21 459.013 170.588 459.067C169.95 459.123 169.677 459.501 169.714 459.915C169.834 461.287 173.636 460.472 173.879 463.248C173.995 464.942 172.72 465.986 171.205 466.118C169.769 466.244 168.698 465.759 167.853 464.917ZM181.649 455.495L179.503 453.015L181.705 452.822L183.58 455.327L181.649 455.495ZM182.533 465.047C180.922 465.188 179.74 464.359 179.61 462.875C179.504 461.663 180.366 460.671 182.064 460.233L184.484 459.604L184.466 459.396C184.392 458.551 183.707 458.064 182.781 458.145C182 458.214 181.426 458.634 181.046 459.261L179.464 458.259C180.095 457.207 181.223 456.497 182.69 456.369C185.019 456.165 186.337 457.448 186.492 459.219L186.947 464.42L184.921 464.597L184.853 463.815C184.397 464.482 183.474 464.965 182.533 465.047ZM181.612 462.604C181.66 463.146 182.121 463.459 182.807 463.399C183.732 463.318 184.365 462.829 184.708 462.156L184.608 461.023L182.722 461.51C181.889 461.728 181.569 462.109 181.612 462.604ZM193.567 463.84L192.863 455.8L194.889 455.623L194.959 456.421C195.438 455.832 196.088 455.358 196.997 455.278C197.268 455.254 197.512 455.281 197.709 455.328L197.883 457.322C197.622 457.281 197.347 457.257 196.98 457.289C195.991 457.375 195.4 457.974 195.142 458.511L195.593 463.663L193.567 463.84ZM203.564 453.578L201.618 453.748L203.045 450.955L205.246 450.763L203.564 453.578ZM206.992 461.348C206.33 462.418 205.141 463.149 203.625 463.282C200.77 463.532 198.984 461.679 198.779 459.334C198.571 456.957 199.899 454.863 202.531 454.633C204.764 454.438 206.364 455.825 206.549 457.931C206.588 458.377 206.56 458.798 206.52 459.074L200.889 459.567C201.212 461.05 202.19 461.575 203.45 461.465C204.327 461.388 205.06 460.938 205.44 460.326L206.992 461.348ZM202.628 456.296C201.591 456.387 200.956 457.021 200.824 458.094L204.525 457.77C204.422 456.959 203.761 456.197 202.628 456.296ZM211.12 462.546C209.509 462.687 208.327 461.858 208.197 460.374C208.091 459.162 208.953 458.17 210.651 457.732L213.071 457.103L213.053 456.895C212.979 456.05 212.293 455.563 211.368 455.644C210.587 455.713 210.012 456.133 209.633 456.76L208.051 455.758C208.682 454.706 209.809 453.996 211.277 453.868C213.606 453.664 214.924 454.947 215.079 456.718L215.534 461.919L213.508 462.096L213.44 461.314C212.984 461.981 212.061 462.464 211.12 462.546ZM210.199 460.103C210.247 460.645 210.708 460.958 211.394 460.898C212.319 460.817 212.951 460.328 213.294 459.655L213.195 458.522L211.309 459.009C210.476 459.227 210.156 459.608 210.199 460.103ZM217.854 461.716L216.807 449.751L218.833 449.574L219.88 461.538L217.854 461.716ZM222.504 451.793C221.786 451.855 221.127 451.302 221.064 450.584C221.002 449.866 221.555 449.207 222.273 449.144C222.99 449.082 223.634 449.636 223.696 450.354C223.759 451.072 223.222 451.73 222.504 451.793ZM222.309 461.326L221.606 453.286L223.632 453.108L224.335 461.149L222.309 461.326ZM225.852 459.842L227.086 458.513C227.635 459.092 228.264 459.487 229.03 459.42C229.684 459.362 229.986 458.95 229.944 458.472C229.821 457.068 226.022 457.931 225.775 455.107C225.651 453.687 226.754 452.514 228.429 452.367C229.658 452.26 230.826 452.752 231.469 453.484L230.232 454.782C229.772 454.307 229.21 453.939 228.587 453.993C227.949 454.049 227.677 454.426 227.713 454.841C227.833 456.213 231.636 455.398 231.879 458.174C231.995 459.868 230.72 460.911 229.204 461.044C227.769 461.17 226.697 460.685 225.852 459.842ZM241.203 458.355C240.541 459.425 239.351 460.156 237.836 460.289C234.98 460.539 233.195 458.686 232.99 456.341C232.782 453.964 234.11 451.87 236.742 451.64C238.975 451.445 240.575 452.832 240.76 454.937C240.799 455.384 240.771 455.804 240.731 456.081L235.1 456.574C235.422 458.057 236.401 458.582 237.661 458.472C238.538 458.395 239.271 457.945 239.651 457.333L241.203 458.355ZM236.839 453.303C235.802 453.394 235.166 454.028 235.035 455.101L238.736 454.777C238.633 453.966 237.972 453.204 236.839 453.303ZM243.154 459.502L242.45 451.462L244.476 451.285L244.546 452.082C245.025 451.494 245.675 451.019 246.584 450.94C246.855 450.916 247.099 450.943 247.296 450.99L247.47 452.984C247.209 452.943 246.934 452.918 246.567 452.95C245.578 453.037 244.987 453.635 244.729 454.172L245.18 459.325L243.154 459.502Z"
            fill="#161616" />
        <path
            d="M320.122 451.06C319.923 450.893 319.812 450.669 319.787 450.386C319.762 450.104 319.833 449.863 320 449.664L323.548 445.436L319.32 441.888C319.121 441.721 319.009 441.496 318.984 441.214C318.96 440.931 319.031 440.69 319.198 440.492C319.364 440.293 319.589 440.181 319.871 440.156C320.154 440.132 320.395 440.203 320.593 440.37L325.581 444.555C325.689 444.646 325.77 444.747 325.822 444.86C325.873 444.973 325.905 445.096 325.916 445.229C325.928 445.362 325.918 445.488 325.887 445.608C325.855 445.728 325.794 445.842 325.703 445.95L321.518 450.938C321.351 451.137 321.127 451.249 320.844 451.273C320.562 451.298 320.321 451.227 320.122 451.06Z"
            fill="#646464" />
    </g>
    <g filter="url(#filter2_d_6966_2096)">
        <circle cx="158.134" cy="134.113" r="16.0135" fill="white" />
    </g>
    <path
        d="M158.134 142.12C155.898 142.12 154.005 141.344 152.454 139.793C150.903 138.242 150.127 136.349 150.127 134.113C150.127 131.878 150.903 129.985 152.454 128.434C154.005 126.882 155.898 126.107 158.134 126.107C159.285 126.107 160.386 126.344 161.436 126.82C162.487 127.295 163.388 127.975 164.139 128.859L164.139 127.107C164.139 126.824 164.235 126.586 164.427 126.394C164.618 126.202 164.856 126.107 165.14 126.107C165.423 126.107 165.661 126.202 165.852 126.394C166.044 126.586 166.14 126.824 166.14 127.107L166.14 132.112C166.14 132.395 166.044 132.633 165.852 132.824C165.661 133.016 165.423 133.112 165.14 133.112L160.135 133.112C159.852 133.112 159.614 133.016 159.423 132.824C159.231 132.633 159.134 132.395 159.134 132.112C159.134 131.828 159.231 131.59 159.423 131.398C159.614 131.207 159.852 131.111 160.135 131.111L163.338 131.111C162.804 130.177 162.075 129.443 161.149 128.909C160.223 128.375 159.218 128.108 158.134 128.108C156.466 128.108 155.048 128.692 153.88 129.86C152.712 131.027 152.129 132.445 152.129 134.113C152.129 135.781 152.712 137.199 153.88 138.367C155.048 139.535 156.466 140.118 158.134 140.118C159.285 140.118 160.348 139.814 161.324 139.205C162.3 138.596 163.029 137.783 163.513 136.766C163.597 136.582 163.734 136.428 163.927 136.303C164.118 136.178 164.314 136.115 164.514 136.115C164.898 136.115 165.186 136.248 165.378 136.515C165.569 136.782 165.59 137.083 165.44 137.416C164.806 138.834 163.83 139.972 162.512 140.831C161.195 141.69 159.735 142.12 158.134 142.12Z"
        fill="#3B69D1" />
    <path
        d="M177.196 255.047C176.807 254.725 176.235 254.781 175.916 255.173L172.732 259.068L171.375 245.186C171.326 244.682 170.877 244.31 170.378 244.359C169.879 244.408 169.511 244.86 169.56 245.363L170.917 259.255L167.048 256.048C166.659 255.726 166.087 255.782 165.768 256.173C165.449 256.565 165.505 257.141 165.894 257.464L171.468 262.083C171.857 262.406 172.429 262.35 172.748 261.958L177.323 256.347C177.633 255.956 177.576 255.371 177.196 255.047Z"
        fill="#161616" />
    <path
        d="M80.8205 186.611L81.8365 185.482C82.698 186.395 83.6419 186.834 84.6778 186.733C85.921 186.611 86.565 185.792 86.4653 184.772C86.2193 182.254 80.981 183.313 80.6213 179.631C80.4593 177.974 81.6976 176.485 83.642 176.295C85.2039 176.143 86.4215 176.748 87.3577 177.766L86.3226 178.865C85.5773 177.989 84.745 177.539 83.7887 177.632C82.6891 177.74 82.0547 178.494 82.1482 179.45C82.3926 181.952 87.6119 180.863 87.9747 184.576C88.1632 186.505 86.8008 187.877 84.8246 188.07C83.183 188.23 81.911 187.727 80.8205 186.611ZM94.3603 185.867C95.3484 185.771 96.1145 185.213 96.5401 184.464L97.6873 185.172C97.0363 186.249 95.9352 187.001 94.4689 187.144C91.8073 187.404 89.9074 185.578 89.6785 183.235C89.4496 180.893 90.9603 178.734 93.6219 178.474C95.0722 178.332 96.3154 178.87 97.161 179.785L96.1726 180.702C95.61 180.049 94.7505 179.651 93.7464 179.749C92.0252 179.917 90.9303 181.392 91.0969 183.097C91.2651 184.818 92.6231 186.037 94.3603 185.867ZM99.6744 186.314L98.8896 178.281L100.244 178.149L100.342 179.153C100.864 178.394 101.552 177.86 102.572 177.76C102.827 177.735 103.069 177.744 103.266 177.789L103.396 179.112C103.15 179.071 102.908 179.063 102.589 179.094C101.537 179.197 100.905 179.806 100.49 180.667L101.029 186.181L99.6744 186.314ZM108.376 177.032C110.958 176.78 112.922 178.599 113.151 180.942C113.38 183.285 111.805 185.45 109.223 185.702C106.625 185.956 104.678 184.135 104.449 181.792C104.22 179.45 105.778 177.286 108.376 177.032ZM109.115 184.426C110.788 184.262 111.878 182.74 111.716 181.082C111.553 179.409 110.19 178.142 108.517 178.306C106.795 178.474 105.704 179.98 105.867 181.654C106.031 183.327 107.393 184.594 109.115 184.426ZM115.721 184.746L114.553 172.793L115.908 172.66L117.076 184.613L115.721 184.746ZM119.939 184.334L118.771 172.38L120.126 172.248L121.294 184.201L119.939 184.334ZM131.168 181.901C130.517 182.978 129.384 183.733 127.885 183.879C125.176 184.144 123.308 182.315 123.079 179.972C122.841 177.534 124.217 175.485 126.704 175.242C128.887 175.028 130.455 176.42 130.648 178.396C130.679 178.715 130.661 179.022 130.635 179.25L124.467 179.853C124.703 181.777 126.044 182.82 127.766 182.652C128.801 182.551 129.631 181.987 130.087 181.218L131.168 181.901ZM126.784 176.392C125.461 176.522 124.613 177.393 124.462 178.807L129.275 178.337C129.112 177.163 128.202 176.254 126.784 176.392ZM133.417 183.017L132.633 174.984L133.987 174.852L134.085 175.856C134.607 175.097 135.295 174.563 136.315 174.464C136.57 174.439 136.812 174.447 137.009 174.492L137.138 175.815C136.893 175.775 136.651 175.766 136.332 175.797C135.28 175.9 134.648 176.509 134.233 177.37L134.772 182.885L133.417 183.017ZM142.97 178.029C142.741 175.686 144.156 173.537 146.674 173.291C147.87 173.174 148.855 173.544 149.652 174.287L149.175 169.41L150.53 169.278L151.698 181.231L150.343 181.363L150.25 180.407C149.612 181.29 148.717 181.844 147.521 181.961C145.003 182.207 143.199 180.372 142.97 178.029ZM144.404 177.889C144.571 179.594 145.851 180.837 147.556 180.67C148.672 180.561 149.607 179.923 150.105 178.925L149.797 175.769C149.082 174.874 148.058 174.443 146.958 174.55C145.253 174.717 144.238 176.184 144.404 177.889ZM161.564 178.932C160.913 180.009 159.78 180.763 158.282 180.909C155.573 181.174 153.705 179.345 153.476 177.003C153.238 174.564 154.614 172.515 157.1 172.272C159.284 172.059 160.852 173.45 161.045 175.426C161.076 175.745 161.058 176.053 161.032 176.28L154.864 176.883C155.1 178.807 156.441 179.85 158.162 179.682C159.198 179.581 160.028 179.017 160.484 178.249L161.564 178.932ZM157.181 173.423C155.858 173.552 155.01 174.423 154.858 175.838L159.671 175.368C159.508 174.193 158.599 173.284 157.181 173.423ZM168.11 179.627L166.942 167.674L168.297 167.542L168.768 172.371C169.352 171.59 170.131 170.999 171.326 170.882C173.127 170.706 174.584 171.787 174.807 174.066L175.282 178.927L173.927 179.059L173.457 174.246C173.317 172.812 172.439 172.061 171.18 172.184C170 172.299 169.35 173.054 168.921 173.933L169.465 179.495L168.11 179.627ZM180.214 178.67C178.636 178.824 177.483 178.052 177.349 176.681C177.23 175.47 178.071 174.519 179.748 174.066L182.414 173.355L182.359 172.797C182.25 171.681 181.391 171.122 180.244 171.234C179.319 171.324 178.612 171.828 178.185 172.561L177.089 171.88C177.697 170.855 178.77 170.155 180.173 170.018C182.213 169.819 183.541 170.896 183.714 172.665L184.24 178.052L182.886 178.184L182.786 177.164C182.257 178.004 181.25 178.569 180.214 178.67ZM178.715 176.5C178.782 177.185 179.388 177.625 180.328 177.533C181.396 177.428 182.223 176.833 182.664 175.921L182.51 174.343L180.174 174.973C179.093 175.272 178.648 175.814 178.715 176.5ZM192.216 173.797L191.767 169.207L193.122 169.075L193.566 173.617C193.801 176.023 192.551 177.561 190.368 177.775C188.2 177.986 186.677 176.719 186.442 174.313L185.998 169.771L187.353 169.638L187.801 174.228C187.955 175.806 188.889 176.632 190.259 176.498C191.598 176.367 192.37 175.375 192.216 173.797ZM196.838 174.102L196.436 169.99L194.922 170.138L194.802 168.91L196.316 168.763L196.12 166.754L197.491 166.62L197.687 168.629L200.476 168.356L200.596 169.583L197.807 169.856L198.209 173.968C198.332 175.227 199.003 175.515 199.975 175.42C200.501 175.369 200.862 175.269 201.152 175.112L201.27 176.323C200.904 176.52 200.479 176.626 199.906 176.682C198.121 176.856 197.029 176.062 196.838 174.102ZM214.638 173.746C213.987 174.824 212.854 175.578 211.356 175.724C208.646 175.989 206.778 174.16 206.549 171.817C206.311 169.379 207.688 167.33 210.174 167.087C212.357 166.874 213.925 168.265 214.118 170.241C214.15 170.56 214.131 170.867 214.105 171.095L207.938 171.698C208.174 173.622 209.515 174.665 211.236 174.497C212.272 174.396 213.102 173.832 213.558 173.063L214.638 173.746ZM210.254 168.237C208.931 168.367 208.083 169.238 207.932 170.653L212.745 170.182C212.582 169.008 211.673 168.099 210.254 168.237ZM216.888 174.862L216.103 166.829L217.458 166.697L217.546 167.605C218.13 166.824 218.909 166.233 220.104 166.117C221.905 165.941 223.362 167.021 223.585 169.3L224.06 174.161L222.705 174.294L222.235 169.48C222.095 168.046 221.201 167.297 219.958 167.418C218.794 167.532 218.126 168.273 217.699 169.167L218.242 174.73L216.888 174.862ZM239.025 168.645C239.254 170.987 237.839 173.137 235.321 173.383C234.126 173.5 233.14 173.129 232.343 172.387L232.437 173.343L231.082 173.475L229.914 161.522L231.269 161.39L231.746 166.267C232.383 165.384 233.279 164.83 234.474 164.713C236.992 164.467 238.796 166.302 239.025 168.645ZM234.439 166.003C233.323 166.112 232.388 166.751 231.89 167.749L232.199 170.904C232.914 171.8 233.937 172.231 235.037 172.123C236.742 171.957 237.773 170.488 237.607 168.783C237.44 167.078 236.144 165.837 234.439 166.003ZM243.824 172.456C242.247 172.61 241.093 171.837 240.959 170.467C240.841 169.256 241.681 168.305 243.358 167.851L246.024 167.14L245.97 166.582C245.861 165.467 245.002 164.907 243.854 165.019C242.93 165.109 242.223 165.613 241.796 166.347L240.699 165.665C241.307 164.64 242.381 163.94 243.784 163.803C245.824 163.604 247.152 164.681 247.324 166.45L247.851 171.837L246.496 171.969L246.396 170.949C245.867 171.789 244.86 172.354 243.824 172.456ZM242.325 170.285C242.392 170.97 242.998 171.41 243.938 171.318C245.006 171.214 245.833 170.618 246.275 169.706L246.121 168.128L243.785 168.759C242.704 169.057 242.258 169.6 242.325 170.285ZM249.6 170.556L250.477 169.65C251.104 170.296 251.812 170.629 252.625 170.55C253.517 170.463 253.974 169.871 253.906 169.17C253.73 167.369 249.776 168.399 249.499 165.562C249.376 164.303 250.342 163.162 251.888 163.011C253.036 162.899 254.077 163.345 254.711 164.071L253.848 164.96C253.359 164.396 252.716 164.073 252.015 164.141C251.154 164.226 250.742 164.781 250.802 165.402C250.978 167.203 254.955 166.235 255.222 168.977C255.353 170.476 254.249 171.534 252.751 171.68C251.476 171.805 250.422 171.393 249.6 170.556ZM100.331 214.342L99.163 202.389L100.518 202.257L100.611 203.213C101.249 202.33 102.144 201.776 103.339 201.659C105.858 201.413 107.662 203.248 107.891 205.591C108.12 207.934 106.705 210.083 104.186 210.329C102.991 210.446 102.006 210.076 101.209 209.333L101.686 214.21L100.331 214.342ZM103.305 202.95C102.189 203.059 101.27 203.696 100.758 204.711L101.063 207.835C101.779 208.746 102.803 209.177 103.903 209.07C105.608 208.903 106.639 207.435 106.472 205.729C106.306 204.024 105.01 202.783 103.305 202.95ZM113.397 200.676C115.979 200.424 117.942 202.244 118.171 204.586C118.4 206.929 116.826 209.094 114.244 209.347C111.646 209.6 109.698 207.779 109.469 205.437C109.24 203.094 110.799 200.93 113.397 200.676ZM114.135 208.07C115.809 207.907 116.899 206.384 116.737 204.727C116.573 203.053 115.211 201.786 113.537 201.95C111.816 202.118 110.724 203.625 110.888 205.298C111.051 206.971 112.414 208.238 114.135 208.07ZM125.999 204.401L125.551 199.811L126.905 199.678L127.349 204.221C127.584 206.627 126.335 208.165 124.151 208.379C121.984 208.59 120.46 207.323 120.225 204.917L119.781 200.375L121.136 200.242L121.584 204.832C121.739 206.41 122.672 207.236 124.043 207.102C125.381 206.971 126.153 205.979 125.999 204.401ZM130.36 207.45L129.575 199.418L130.93 199.285L131.028 200.289C131.549 199.531 132.237 198.997 133.257 198.897C133.512 198.872 133.754 198.881 133.952 198.926L134.081 200.249C133.836 200.208 133.594 200.2 133.275 200.231C132.223 200.334 131.591 200.942 131.176 201.803L131.715 207.318L130.36 207.45ZM140.99 206.412L140.206 198.379L141.56 198.247L141.658 199.251C142.18 198.492 142.868 197.958 143.888 197.858C144.143 197.834 144.385 197.842 144.582 197.887L144.711 199.21C144.466 199.17 144.224 199.161 143.905 199.192C142.853 199.295 142.221 199.904 141.806 200.765L142.345 206.279L140.99 206.412ZM153.853 203.82C153.202 204.897 152.069 205.651 150.571 205.797C147.862 206.062 145.994 204.233 145.765 201.891C145.527 199.452 146.903 197.403 149.389 197.16C151.573 196.947 153.141 198.338 153.334 200.314C153.365 200.633 153.347 200.941 153.321 201.168L147.153 201.771C147.389 203.695 148.73 204.738 150.451 204.57C151.487 204.469 152.317 203.905 152.773 203.137L153.853 203.82ZM149.47 198.311C148.147 198.44 147.299 199.311 147.147 200.726L151.96 200.256C151.797 199.081 150.888 198.172 149.47 198.311ZM159.676 203.621C160.664 203.524 161.43 202.967 161.856 202.217L163.003 202.926C162.352 204.003 161.251 204.754 159.785 204.897C157.123 205.157 155.223 203.332 154.994 200.989C154.765 198.646 156.276 196.487 158.938 196.227C160.388 196.086 161.631 196.624 162.477 197.539L161.488 198.456C160.926 197.803 160.066 197.404 159.062 197.502C157.341 197.67 156.246 199.145 156.413 200.85C156.581 202.572 157.939 203.79 159.676 203.621ZM164.99 204.067L163.822 192.114L165.177 191.981L165.649 196.81C166.232 196.029 167.011 195.438 168.207 195.322C170.007 195.146 171.465 196.226 171.687 198.505L172.162 203.366L170.807 203.499L170.337 198.685C170.197 197.251 169.319 196.5 168.06 196.623C166.881 196.738 166.231 197.494 165.801 198.372L166.345 203.935L164.99 204.067ZM177.094 203.11C175.516 203.264 174.363 202.492 174.229 201.121C174.111 199.91 174.951 198.959 176.628 198.505L179.294 197.794L179.24 197.236C179.131 196.121 178.271 195.561 177.124 195.673C176.2 195.764 175.493 196.267 175.065 197.001L173.969 196.319C174.577 195.295 175.651 194.594 177.053 194.457C179.093 194.258 180.421 195.335 180.594 197.104L181.121 202.491L179.766 202.623L179.666 201.603C179.137 202.443 178.13 203.008 177.094 203.11ZM175.595 200.939C175.662 201.624 176.268 202.064 177.208 201.972C178.276 201.868 179.103 201.272 179.545 200.36L179.391 198.782L177.055 199.413C175.974 199.712 175.528 200.254 175.595 200.939ZM183.838 202.225L183.054 194.193L184.408 194.061L184.506 195.065C185.028 194.306 185.716 193.772 186.736 193.672C186.991 193.647 187.233 193.656 187.43 193.701L187.559 195.024C187.314 194.983 187.072 194.975 186.753 195.006C185.701 195.109 185.069 195.718 184.654 196.579L185.193 202.093L183.838 202.225ZM189.235 203.162C189.155 202.35 189.49 201.657 190.232 201.022C189.838 200.771 189.604 200.359 189.562 199.929C189.5 199.291 189.783 198.732 190.366 198.273C189.613 197.816 189.119 197.043 189.032 196.151C188.881 194.605 189.965 193.18 191.877 192.993C192.467 192.935 193.005 193.011 193.456 193.177L196.436 192.885L196.552 194.065L194.814 194.235C195.076 194.611 195.233 195.062 195.28 195.541C195.429 197.071 194.362 198.494 192.433 198.683C192.035 198.722 191.646 198.695 191.302 198.632C190.991 198.904 190.827 199.21 190.857 199.512C190.89 199.847 191.088 200.069 191.582 200.021L193.878 199.797C195.997 199.59 197.087 200.529 197.227 201.963C197.392 203.653 195.825 205.077 193.419 205.312C191.044 205.544 189.392 204.772 189.235 203.162ZM192.345 197.613C193.508 197.5 194.1 196.637 194.005 195.665C193.908 194.677 193.161 193.946 191.998 194.059C190.802 194.176 190.227 195.037 190.323 196.025C190.42 197.013 191.15 197.73 192.345 197.613ZM190.542 202.874C190.637 203.846 191.699 204.338 193.292 204.182C194.982 204.017 195.984 203.243 195.881 202.191C195.807 201.426 195.317 200.863 193.883 201.003L191.285 201.257C190.768 201.725 190.48 202.236 190.542 202.874ZM205.526 198.771C204.875 199.848 203.742 200.603 202.244 200.749C199.535 201.014 197.666 199.185 197.438 196.842C197.199 194.404 198.576 192.355 201.062 192.112C203.246 191.898 204.814 193.29 205.007 195.266C205.038 195.585 205.02 195.892 204.994 196.12L198.826 196.723C199.062 198.646 200.403 199.69 202.124 199.522C203.16 199.421 203.99 198.857 204.446 198.088L205.526 198.771ZM201.142 193.262C199.82 193.392 198.972 194.263 198.82 195.677L203.633 195.207C203.47 194.032 202.561 193.124 201.142 193.262ZM207.776 199.887L206.991 191.854L208.346 191.722L208.444 192.726C208.965 191.967 209.653 191.433 210.673 191.334C210.928 191.309 211.17 191.317 211.368 191.362L211.497 192.685C211.252 192.645 211.01 192.636 210.691 192.667C209.639 192.77 209.007 193.379 208.592 194.24L209.131 199.754L207.776 199.887ZM216.41 190.934L217.876 190.791L221.089 197.154L223.008 190.289L224.475 190.146L222.12 198.485L220.335 198.66L216.41 190.934ZM229.645 189.319C232.227 189.067 234.191 190.886 234.42 193.229C234.648 195.572 233.074 197.737 230.492 197.989C227.894 198.243 225.946 196.422 225.718 194.079C225.489 191.736 227.047 189.573 229.645 189.319ZM230.383 196.713C232.057 196.549 233.147 195.027 232.985 193.369C232.822 191.696 231.459 190.429 229.786 190.593C228.064 190.761 226.973 192.267 227.136 193.941C227.3 195.614 228.662 196.881 230.383 196.713ZM235.804 196.038L236.681 195.132C237.307 195.779 238.015 196.112 238.828 196.032C239.721 195.945 240.178 195.354 240.109 194.652C239.933 192.851 235.979 193.881 235.702 191.044C235.579 189.785 236.546 188.645 238.092 188.494C239.239 188.382 240.28 188.827 240.914 189.554L240.052 190.442C239.562 189.879 238.919 189.555 238.218 189.624C237.357 189.708 236.945 190.263 237.006 190.885C237.182 192.686 241.158 191.718 241.426 194.459C241.556 195.959 240.453 197.016 238.955 197.163C237.68 197.287 236.626 196.875 235.804 196.038ZM120.081 222.372C119.555 222.424 119.083 222.035 119.031 221.509C118.982 220.999 119.37 220.527 119.896 220.476C120.422 220.424 120.878 220.814 120.928 221.324C120.979 221.85 120.607 222.321 120.081 222.372ZM120.384 232.559L119.6 224.527L120.954 224.395L121.739 232.427L120.384 232.559ZM124.602 232.147L123.818 224.115L125.172 223.982L125.261 224.891C125.844 224.11 126.623 223.519 127.819 223.402C129.62 223.226 131.077 224.307 131.299 226.586L131.774 231.447L130.42 231.579L129.949 226.766C129.809 225.332 128.915 224.582 127.672 224.704C126.509 224.817 125.841 225.558 125.414 226.453L125.957 232.015L124.602 232.147ZM132.664 223.251L134.179 223.103L134.082 222.114C133.915 220.409 134.895 219.074 136.648 218.903C137.381 218.832 137.991 218.981 138.463 219.193L137.968 220.383C137.643 220.19 137.262 220.082 136.8 220.127C135.892 220.216 135.347 220.897 135.45 221.949L135.549 222.969L138.338 222.696L138.458 223.923L135.669 224.196L136.334 231.001L134.963 231.135L134.298 224.33L132.784 224.478L132.664 223.251ZM143.172 221.902C145.754 221.65 147.717 223.469 147.946 225.812C148.175 228.155 146.601 230.32 144.019 230.572C141.421 230.826 139.473 229.005 139.244 226.662C139.016 224.319 140.574 222.156 143.172 221.902ZM143.91 229.296C145.584 229.132 146.674 227.61 146.512 225.952C146.348 224.279 144.986 223.012 143.312 223.176C141.591 223.344 140.499 224.85 140.663 226.524C140.826 228.197 142.189 229.464 143.91 229.296ZM150.517 229.616L149.732 221.583L151.087 221.451L151.185 222.455C151.706 221.696 152.394 221.162 153.414 221.062C153.669 221.038 153.911 221.046 154.108 221.091L154.238 222.414C153.992 222.374 153.75 222.365 153.431 222.396C152.38 222.499 151.747 223.108 151.333 223.969L151.871 229.483L150.517 229.616ZM156.851 228.997L156.066 220.964L157.421 220.832L157.507 221.708C158.044 220.948 158.792 220.376 159.908 220.267C161.072 220.153 162.079 220.586 162.673 221.558C163.225 220.619 164.004 219.867 165.391 219.731C167.112 219.563 168.483 220.588 168.696 222.771L169.187 227.792L167.832 227.924L167.346 222.951C167.216 221.613 166.392 220.921 165.244 221.033C164.224 221.133 163.563 221.776 163.129 222.768C163.162 222.942 163.195 223.116 163.214 223.307L163.704 228.327L162.35 228.46L161.864 223.487C161.733 222.148 160.925 221.455 159.762 221.569C158.662 221.676 158.044 222.428 157.662 223.302L158.206 228.864L156.851 228.997ZM174.123 227.535C172.545 227.689 171.391 226.917 171.257 225.546C171.139 224.335 171.979 223.384 173.657 222.93L176.322 222.219L176.268 221.661C176.159 220.546 175.3 219.986 174.152 220.098C173.228 220.189 172.521 220.692 172.094 221.426L170.997 220.744C171.605 219.72 172.679 219.019 174.082 218.882C176.122 218.683 177.45 219.76 177.623 221.529L178.149 226.916L176.794 227.048L176.695 226.028C176.165 226.868 175.158 227.433 174.123 227.535ZM172.623 225.364C172.69 226.049 173.296 226.489 174.237 226.397C175.304 226.293 176.131 225.697 176.573 224.785L176.419 223.207L174.083 223.838C173.002 224.137 172.556 224.679 172.623 225.364ZM181.066 223.912L180.664 219.8L179.15 219.948L179.03 218.721L180.544 218.573L180.348 216.565L181.718 216.431L181.915 218.439L184.704 218.166L184.824 219.394L182.035 219.666L182.436 223.778C182.559 225.037 183.231 225.325 184.203 225.23C184.729 225.179 185.09 225.079 185.38 224.922L185.498 226.134C185.131 226.33 184.707 226.436 184.133 226.492C182.348 226.667 181.257 225.872 181.066 223.912ZM187.256 215.809C186.73 215.861 186.257 215.472 186.206 214.946C186.156 214.436 186.545 213.964 187.07 213.913C187.596 213.861 188.053 214.251 188.103 214.761C188.154 215.287 187.782 215.758 187.256 215.809ZM187.559 225.997L186.774 217.964L188.129 217.832L188.914 225.864L187.559 225.997ZM194.627 216.875C197.209 216.623 199.172 218.442 199.401 220.785C199.63 223.128 198.056 225.293 195.474 225.545C192.876 225.799 190.928 223.978 190.699 221.635C190.47 219.292 192.029 217.129 194.627 216.875ZM195.365 224.269C197.039 224.105 198.129 222.583 197.967 220.925C197.803 219.252 196.441 217.985 194.767 218.149C193.046 218.317 191.954 219.823 192.118 221.497C192.281 223.17 193.644 224.437 195.365 224.269ZM201.972 224.589L201.187 216.556L202.541 216.424L202.63 217.332C203.214 216.551 203.993 215.96 205.188 215.843C206.989 215.667 208.446 216.748 208.669 219.027L209.143 223.888L207.789 224.02L207.319 219.207C207.178 217.773 206.285 217.023 205.041 217.145C203.878 217.258 203.21 217.999 202.783 218.894L203.326 224.456L201.972 224.589ZM210.902 222.606L211.779 221.7C212.405 222.346 213.114 222.679 213.927 222.6C214.819 222.513 215.276 221.921 215.208 221.22C215.032 219.419 211.078 220.449 210.801 217.612C210.677 216.353 211.644 215.213 213.19 215.061C214.338 214.949 215.379 215.395 216.013 216.121L215.15 217.01C214.661 216.446 214.018 216.123 213.317 216.192C212.456 216.276 212.044 216.831 212.104 217.452C212.28 219.253 216.256 218.286 216.524 221.027C216.655 222.527 215.551 223.584 214.053 223.73C212.778 223.855 211.724 223.443 210.902 222.606ZM223.377 219.215L222.349 211.335L223.895 211.184L224.413 219.114L223.377 219.215ZM224.253 222.589C223.68 222.645 223.172 222.228 223.118 221.67C223.065 221.128 223.482 220.621 224.056 220.565C224.613 220.51 225.105 220.929 225.158 221.471C225.212 222.028 224.811 222.534 224.253 222.589Z"
        fill="black" />
    <g filter="url(#filter3_d_6966_2096)">
        <rect x="6.00507" y="434.05" width="375.317" height="70.0592" rx="10"
            transform="rotate(-5 6.00507 434.05)" fill="white" shape-rendering="crispEdges" />
        <path
            d="M40.3779 465.202C39.8295 465.25 39.3432 465.096 38.9189 464.74C38.4939 464.383 38.2573 463.93 38.2094 463.382L37.4243 454.409C37.3967 454.093 37.4413 453.788 37.5582 453.493C37.6744 453.198 37.8491 452.948 38.0824 452.744L43.6721 447.734C43.8432 447.585 44.0256 447.468 44.2192 447.384C44.4128 447.3 44.6176 447.249 44.8336 447.23C45.0496 447.211 45.2603 447.226 45.4655 447.275C45.6707 447.324 45.8705 447.407 46.065 447.524L52.4397 451.488C52.705 451.649 52.9207 451.864 53.087 452.134C53.2527 452.404 53.3493 452.697 53.3769 453.013L54.162 461.986C54.2099 462.535 54.0559 463.021 53.7 463.446C53.3433 463.871 52.8907 464.107 52.3424 464.155L48.3542 464.504L47.7436 457.525L43.7554 457.874L44.3661 464.853L40.3779 465.202Z"
            fill="#3B69D1" />
        <path
            d="M26.9022 486.474L29.3401 477.821L31.5655 477.627L35.4688 485.724L33.6622 485.883L32.67 483.775L29.32 484.068L28.7089 486.316L26.9022 486.474ZM29.7198 482.574L32.0169 482.374L30.5931 479.327L29.7198 482.574ZM39.4662 484.169C40.0645 484.117 40.519 483.8 40.7695 483.356L42.0335 484.162C41.5361 484.953 40.6926 485.509 39.5918 485.605C37.51 485.787 36.1349 484.4 35.981 482.642C35.8271 480.883 36.9406 479.278 39.0224 479.096C40.1231 479 41.0504 479.401 41.6776 480.094L40.5727 481.107C40.2489 480.713 39.7462 480.48 39.1241 480.534C38.131 480.621 37.4682 481.451 37.5603 482.503C37.6535 483.568 38.4493 484.258 39.4662 484.169ZM45.8107 483.614C46.4089 483.562 46.8634 483.245 47.1139 482.801L48.3779 483.606C47.8805 484.397 47.037 484.954 45.9363 485.05C43.8545 485.232 42.4793 483.845 42.3254 482.086C42.1716 480.328 43.285 478.723 45.3668 478.541C46.4676 478.445 47.3948 478.846 48.022 479.539L46.9171 480.552C46.5933 480.158 46.0907 479.925 45.4685 479.979C44.4755 480.066 43.8126 480.895 43.9048 481.948C43.9979 483.013 44.7937 483.703 45.8107 483.614ZM53.3421 481.533L53.0427 478.111L54.5741 477.977L54.8672 481.327C55.0253 483.133 54.0698 484.338 52.299 484.493C50.5283 484.648 49.39 483.626 49.232 481.82L48.9389 478.47L50.4703 478.336L50.7697 481.758C50.8461 482.631 51.3479 483.13 52.1854 483.056C53.0109 482.984 53.4185 482.406 53.3421 481.533ZM62.2494 482.393C61.753 483.196 60.8606 483.744 59.724 483.844C57.5824 484.031 56.2431 482.641 56.0892 480.882C55.9333 479.1 56.9292 477.53 58.9033 477.357C60.5783 477.21 61.7785 478.251 61.9167 479.83C61.946 480.165 61.9253 480.48 61.8953 480.688L57.6718 481.057C57.9138 482.169 58.6475 482.563 59.5927 482.481C60.2507 482.423 60.7999 482.086 61.0853 481.627L62.2494 482.393ZM58.9763 478.604C58.1986 478.672 57.7218 479.148 57.6234 479.952L60.3991 479.71C60.3218 479.101 59.8258 478.53 58.9763 478.604ZM63.8584 476.104C63.32 476.151 62.8256 475.736 62.7785 475.197C62.7314 474.659 63.1462 474.165 63.6846 474.117C64.223 474.07 64.7055 474.486 64.7526 475.025C64.7997 475.563 64.3968 476.056 63.8584 476.104ZM63.7124 483.253L63.1848 477.223L64.7043 477.09L65.2318 483.121L63.7124 483.253ZM67.054 482.961L66.2689 473.988L67.7884 473.855L68.5735 482.828L67.054 482.961Z"
            fill="#3B69D1" />
        <path
            d="M124.531 444.954L127.76 441.105C127.942 440.888 128.167 440.772 128.433 440.757C128.7 440.742 128.942 440.826 129.158 441.008C129.359 441.191 129.47 441.416 129.494 441.682C129.517 441.948 129.446 442.188 129.281 442.404L125.439 447.01C125.257 447.227 125.033 447.347 124.767 447.37C124.501 447.393 124.26 447.314 124.043 447.132L121.712 445.176C121.513 445.009 121.401 444.784 121.377 444.502C121.352 444.219 121.423 443.979 121.59 443.78C121.756 443.581 121.981 443.469 122.264 443.445C122.546 443.42 122.787 443.491 122.986 443.658L124.531 444.954ZM111.118 446.957C110.835 446.981 110.59 446.906 110.383 446.732C110.174 446.558 110.058 446.329 110.033 446.047C110.009 445.764 110.084 445.519 110.258 445.311C110.432 445.103 110.661 444.987 110.943 444.963L117.922 444.352C118.205 444.327 118.45 444.402 118.658 444.576C118.866 444.751 118.982 444.979 119.007 445.262C119.031 445.544 118.957 445.789 118.783 445.997C118.608 446.205 118.379 446.321 118.097 446.346L111.118 446.957ZM125.809 454.111L124.08 456.171C123.913 456.369 123.689 456.481 123.406 456.506C123.124 456.531 122.883 456.46 122.684 456.293C122.486 456.126 122.374 455.901 122.349 455.619C122.324 455.336 122.395 455.096 122.562 454.897L124.291 452.837L122.231 451.108C122.032 450.941 121.92 450.717 121.896 450.434C121.871 450.152 121.942 449.911 122.109 449.712C122.275 449.514 122.5 449.402 122.783 449.377C123.065 449.352 123.306 449.423 123.505 449.59L125.565 451.319L127.293 449.259C127.46 449.06 127.685 448.948 127.967 448.924C128.25 448.899 128.49 448.97 128.689 449.137C128.888 449.303 129 449.528 129.024 449.811C129.049 450.093 128.978 450.334 128.811 450.533L127.083 452.593L129.143 454.321C129.341 454.488 129.453 454.713 129.478 454.995C129.503 455.278 129.432 455.518 129.265 455.717C129.098 455.916 128.873 456.028 128.591 456.052C128.308 456.077 128.068 456.006 127.869 455.839L125.809 454.111ZM111.815 454.933C111.533 454.958 111.288 454.883 111.08 454.708C110.872 454.534 110.756 454.306 110.731 454.023C110.706 453.741 110.781 453.495 110.956 453.287C111.13 453.08 111.359 452.964 111.641 452.939L118.62 452.328C118.903 452.304 119.148 452.378 119.356 452.552C119.564 452.727 119.68 452.956 119.705 453.238C119.729 453.521 119.655 453.766 119.48 453.973C119.306 454.181 119.077 454.298 118.795 454.322L111.815 454.933Z"
            fill="#646464" />
        <path
            d="M97.1384 480.329L96.4056 471.954L97.8414 471.828L100.771 475.828L102.962 471.38L104.398 471.255L105.131 479.63L104.006 479.728L103.405 472.861L101.314 477.07L100.453 477.146L97.6622 473.363L98.263 480.231L97.1384 480.329ZM109.676 472.915C111.614 472.745 113.073 474.125 113.227 475.883C113.381 477.642 112.184 479.254 110.246 479.424C108.295 479.594 106.848 478.214 106.695 476.455C106.541 474.696 107.726 473.086 109.676 472.915ZM110.174 478.465C111.43 478.355 112.259 477.222 112.15 475.978C112.04 474.721 111.028 473.761 109.772 473.871C108.48 473.984 107.65 475.106 107.759 476.362C107.869 477.618 108.882 478.578 110.174 478.465ZM115.126 478.755L114.598 472.725L115.615 472.636L115.675 473.318C116.118 472.737 116.707 472.3 117.604 472.221C118.956 472.103 120.041 472.924 120.191 474.635L120.51 478.284L119.493 478.373L119.177 474.76C119.083 473.683 118.418 473.115 117.485 473.196C116.611 473.273 116.105 473.823 115.778 474.491L116.143 478.666L115.126 478.755ZM125.063 477.054L125.728 476.381C126.193 476.871 126.721 477.126 127.332 477.073C128.002 477.014 128.349 476.574 128.303 476.047C128.185 474.695 125.211 475.438 125.025 473.308C124.942 472.363 125.676 471.515 126.836 471.414C127.698 471.338 128.475 471.68 128.945 472.23L128.292 472.89C127.929 472.463 127.449 472.216 126.923 472.262C126.277 472.319 125.963 472.732 126.004 473.198C126.122 474.55 129.112 473.855 129.292 475.913C129.378 477.038 128.543 477.823 127.418 477.921C126.461 478.005 125.673 477.688 125.063 477.054ZM135.06 474.407L134.758 470.962L135.775 470.873L136.074 474.283C136.232 476.089 135.283 477.233 133.644 477.376C132.017 477.519 130.883 476.557 130.725 474.75L130.427 471.341L131.444 471.252L131.746 474.697C131.849 475.882 132.543 476.508 133.572 476.418C134.577 476.33 135.163 475.592 135.06 474.407ZM138.157 469.085C137.762 469.119 137.411 468.825 137.376 468.43C137.343 468.047 137.637 467.696 138.032 467.661C138.427 467.627 138.766 467.922 138.8 468.305C138.834 468.7 138.552 469.05 138.157 469.085ZM138.307 476.727L137.779 470.697L138.796 470.608L139.324 476.638L138.307 476.727ZM140.037 470.5L141.137 470.404L143.498 475.2L144.99 470.066L146.091 469.97L144.261 476.206L142.921 476.324L140.037 470.5ZM147.714 468.249C147.319 468.283 146.968 467.989 146.934 467.594C146.9 467.211 147.195 466.86 147.59 466.825C147.985 466.79 148.324 467.086 148.357 467.469C148.392 467.864 148.109 468.214 147.714 468.249ZM147.865 475.891L147.337 469.861L148.354 469.772L148.882 475.802L147.865 475.891Z"
            fill="#646464" />
        <g clip-path="url(#clip0_6966_2096)">
            <path
                d="M192.813 444.833L198.82 444.307C199.102 444.282 199.327 444.166 199.493 443.959C199.659 443.752 199.73 443.508 199.705 443.225C199.68 442.943 199.564 442.714 199.357 442.539C199.148 442.365 198.903 442.291 198.621 442.315L192.613 442.841C192.331 442.865 192.107 442.981 191.941 443.188C191.774 443.395 191.704 443.64 191.729 443.923C191.753 444.205 191.869 444.434 192.077 444.608C192.285 444.782 192.53 444.857 192.813 444.833ZM192.551 441.842L202.546 440.967C202.829 440.942 203.053 440.826 203.219 440.619C203.385 440.412 203.456 440.167 203.431 439.885C203.407 439.603 203.29 439.374 203.082 439.199C202.875 439.025 202.63 438.95 202.347 438.975L192.352 439.85C192.069 439.874 191.845 439.99 191.679 440.197C191.513 440.404 191.442 440.649 191.467 440.932C191.492 441.214 191.608 441.443 191.815 441.617C192.023 441.791 192.269 441.866 192.551 441.842ZM192.289 438.85L202.285 437.976C202.567 437.951 202.792 437.836 202.958 437.629C203.124 437.421 203.194 437.176 203.17 436.894C203.145 436.611 203.028 436.383 202.82 436.208C202.613 436.034 202.368 435.959 202.085 435.984L192.09 436.859C191.808 436.883 191.583 436.999 191.417 437.206C191.251 437.413 191.18 437.658 191.205 437.941C191.23 438.223 191.346 438.452 191.554 438.626C191.762 438.801 192.007 438.875 192.289 438.85ZM188.314 450.827L186.955 435.298C186.907 434.75 187.062 434.263 187.418 433.838C187.774 433.414 188.227 433.178 188.775 433.13L204.728 431.734C205.276 431.686 205.763 431.84 206.188 432.196C206.612 432.553 206.848 433.005 206.896 433.554L207.943 445.518C207.991 446.067 207.837 446.553 207.481 446.978C207.124 447.403 206.672 447.639 206.123 447.687L192.165 448.908L190.072 451.402C189.784 451.745 189.429 451.847 189.006 451.708C188.584 451.57 188.353 451.276 188.314 450.827ZM190.099 448.26L191.168 446.986L205.949 445.693L204.902 433.728L188.949 435.124L190.099 448.26Z"
                fill="#646464" />
        </g>
        <path
            d="M174.812 473.534L174.079 465.158L175.515 465.033L178.445 469.032L180.636 464.585L182.071 464.459L182.804 472.834L181.679 472.933L181.079 466.065L178.987 470.275L178.126 470.35L175.336 466.568L175.936 473.435L174.812 473.534ZM190.419 471.167C189.923 471.97 189.068 472.527 187.943 472.626C185.909 472.804 184.522 471.418 184.368 469.659C184.208 467.829 185.256 466.302 187.122 466.139C188.761 465.996 189.927 467.051 190.057 468.535C190.077 468.774 190.061 469.005 190.04 469.175L185.41 469.58C185.573 471.025 186.57 471.818 187.862 471.705C188.64 471.637 189.267 471.22 189.614 470.647L190.419 471.167ZM187.174 467.003C186.181 467.09 185.538 467.737 185.414 468.796L189.027 468.48C188.914 467.598 188.239 466.91 187.174 467.003ZM191.333 471.256L191.998 470.583C192.463 471.073 192.991 471.328 193.601 471.275C194.271 471.216 194.619 470.776 194.573 470.249C194.454 468.897 191.481 469.64 191.295 467.51C191.212 466.565 191.946 465.717 193.106 465.616C193.968 465.54 194.745 465.882 195.215 466.432L194.562 467.092C194.199 466.665 193.719 466.418 193.193 466.464C192.546 466.521 192.233 466.934 192.274 467.4C192.392 468.752 195.381 468.057 195.561 470.115C195.648 471.24 194.812 472.025 193.688 472.123C192.731 472.207 191.943 471.89 191.333 471.256ZM196.591 470.796L197.256 470.123C197.72 470.613 198.249 470.868 198.859 470.815C199.529 470.756 199.876 470.316 199.83 469.789C199.712 468.437 196.739 469.18 196.553 467.05C196.47 466.105 197.204 465.257 198.364 465.156C199.226 465.08 200.003 465.422 200.473 465.972L199.819 466.632C199.457 466.205 198.977 465.958 198.45 466.004C197.804 466.061 197.491 466.474 197.532 466.94C197.65 468.292 200.639 467.597 200.819 469.655C200.906 470.78 200.07 471.565 198.945 471.663C197.988 471.747 197.201 471.43 196.591 470.796ZM204.244 471.127C203.06 471.231 202.201 470.643 202.111 469.614C202.031 468.705 202.668 467.998 203.93 467.671L205.934 467.158L205.898 466.739C205.825 465.901 205.184 465.475 204.323 465.551C203.629 465.611 203.095 465.983 202.769 466.53L201.952 466.011C202.416 465.247 203.227 464.73 204.279 464.638C205.811 464.504 206.799 465.322 206.915 466.65L207.269 470.694L206.252 470.783L206.185 470.017C205.781 470.643 205.022 471.059 204.244 471.127ZM203.136 469.488C203.181 470.003 203.633 470.337 204.339 470.275C205.14 470.205 205.765 469.765 206.103 469.084L205.999 467.899L204.243 468.355C203.43 468.57 203.091 468.974 203.136 469.488ZM208.71 471.665C208.657 471.055 208.913 470.538 209.475 470.067C209.181 469.876 209.009 469.565 208.98 469.242C208.939 468.764 209.155 468.347 209.596 468.007C209.035 467.658 208.67 467.075 208.612 466.405C208.51 465.244 209.334 464.184 210.769 464.058C211.212 464.02 211.615 464.081 211.952 464.208L214.189 464.012L214.267 464.898L212.963 465.012C213.156 465.296 213.27 465.636 213.302 465.995C213.402 467.143 212.591 468.203 211.143 468.33C210.844 468.356 210.553 468.333 210.295 468.283C210.059 468.485 209.935 468.713 209.955 468.94C209.977 469.191 210.124 469.359 210.495 469.327L212.218 469.176C213.809 469.037 214.619 469.749 214.713 470.826C214.824 472.095 213.638 473.151 211.832 473.309C210.049 473.465 208.816 472.873 208.71 471.665ZM211.085 467.527C211.958 467.45 212.408 466.808 212.345 466.078C212.28 465.337 211.725 464.782 210.851 464.859C209.954 464.937 209.516 465.578 209.581 466.32C209.646 467.062 210.188 467.605 211.085 467.527ZM209.693 471.458C209.757 472.188 210.549 472.565 211.746 472.46C213.014 472.349 213.771 471.777 213.702 470.987C213.652 470.413 213.289 469.986 212.212 470.081L210.262 470.251C209.871 470.599 209.651 470.98 209.693 471.458ZM220.962 468.495C220.465 469.298 219.61 469.855 218.485 469.954C216.451 470.132 215.064 468.746 214.91 466.987C214.75 465.157 215.798 463.63 217.664 463.467C219.303 463.324 220.469 464.379 220.599 465.863C220.62 466.102 220.604 466.332 220.582 466.503L215.952 466.908C216.115 468.353 217.112 469.146 218.404 469.032C219.182 468.964 219.809 468.548 220.156 467.975L220.962 468.495ZM217.716 464.331C216.723 464.417 216.08 465.064 215.956 466.124L219.569 465.808C219.456 464.926 218.781 464.237 217.716 464.331ZM221.875 468.584L222.54 467.911C223.005 468.401 223.533 468.656 224.143 468.603C224.813 468.544 225.161 468.104 225.115 467.577C224.996 466.225 222.023 466.968 221.837 464.838C221.754 463.893 222.488 463.045 223.648 462.944C224.51 462.868 225.287 463.21 225.757 463.76L225.104 464.42C224.741 463.993 224.261 463.746 223.735 463.792C223.089 463.848 222.775 464.262 222.816 464.728C222.934 466.08 225.923 465.385 226.104 467.443C226.19 468.568 225.354 469.353 224.23 469.451C223.273 469.535 222.485 469.218 221.875 468.584Z"
            fill="#646464" />
        <g clip-path="url(#clip1_6966_2096)">
            <path
                d="M277.7 440.445C277.899 440.612 278.139 440.683 278.422 440.658C278.704 440.634 278.929 440.522 279.096 440.323C279.263 440.124 279.334 439.884 279.309 439.601C279.284 439.319 279.172 439.094 278.974 438.927L277.103 437.358C277.305 436.988 277.447 436.599 277.529 436.19C277.61 435.781 277.631 435.352 277.592 434.904C277.483 433.658 276.954 432.636 276.006 431.84C275.057 431.044 273.959 430.701 272.713 430.81C271.466 430.919 270.445 431.447 269.648 432.396C268.853 433.345 268.509 434.443 268.618 435.689C268.727 436.935 269.256 437.957 270.205 438.753C271.154 439.549 272.251 439.892 273.498 439.783C273.93 439.745 274.344 439.65 274.741 439.498C275.138 439.346 275.501 439.139 275.829 438.876L277.7 440.445ZM273.323 437.789C272.625 437.85 272.014 437.661 271.49 437.221C270.966 436.781 270.674 436.212 270.613 435.514C270.551 434.816 270.741 434.205 271.181 433.681C271.62 433.157 272.189 432.865 272.887 432.804C273.585 432.743 274.196 432.932 274.72 433.372C275.244 433.812 275.537 434.38 275.598 435.078C275.659 435.776 275.469 436.387 275.03 436.911C274.59 437.435 274.021 437.728 273.323 437.789ZM266.369 444.425C265.82 444.473 265.334 444.319 264.91 443.963C264.485 443.607 264.248 443.154 264.2 442.606L263.154 430.641C263.106 430.093 263.26 429.607 263.617 429.182C263.973 428.757 264.425 428.521 264.973 428.473L280.926 427.077C281.474 427.029 281.961 427.183 282.386 427.54C282.81 427.896 283.046 428.348 283.094 428.897L284.141 440.861C284.189 441.41 284.035 441.896 283.679 442.321C283.322 442.746 282.87 442.982 282.321 443.03L266.369 444.425ZM266.194 442.431L282.147 441.036L281.1 429.071L265.148 430.467L266.194 442.431Z"
                fill="#646464" />
        </g>
        <path
            d="M246.969 467.221L246.236 458.846L248.462 458.651C250.149 458.503 251.27 459.334 251.396 460.769C251.484 461.774 251.035 462.573 250.169 463.01L253.214 466.674L251.886 466.791L249.135 463.318C249.052 463.337 248.957 463.346 248.873 463.353L247.772 463.449L248.094 467.122L246.969 467.221ZM248.593 459.604L247.445 459.704L247.689 462.492L248.837 462.392C249.794 462.308 250.312 461.744 250.233 460.847C250.159 459.997 249.55 459.52 248.593 459.604ZM259.586 465.116C259.089 465.919 258.234 466.476 257.109 466.575C255.075 466.753 253.688 465.367 253.534 463.608C253.374 461.778 254.422 460.251 256.288 460.088C257.927 459.945 259.093 461 259.223 462.484C259.244 462.723 259.228 462.953 259.206 463.124L254.576 463.529C254.739 464.974 255.736 465.766 257.028 465.653C257.806 465.585 258.433 465.169 258.78 464.596L259.586 465.116ZM256.34 460.952C255.347 461.038 254.704 461.685 254.58 462.745L258.193 462.429C258.08 461.547 257.405 460.858 256.34 460.952ZM263.954 465.011C264.696 464.946 265.275 464.534 265.599 463.975L266.454 464.515C265.958 465.318 265.126 465.873 264.026 465.97C262.028 466.144 260.617 464.761 260.463 463.002C260.309 461.243 261.458 459.636 263.456 459.461C264.545 459.366 265.473 459.779 266.101 460.471L265.352 461.152C264.935 460.658 264.294 460.352 263.54 460.418C262.248 460.531 261.416 461.629 261.528 462.909C261.641 464.201 262.65 465.125 263.954 465.011ZM267.936 465.386L267.151 456.413L268.168 456.324L268.485 459.949C268.928 459.368 269.517 458.931 270.414 458.852C271.766 458.734 272.851 459.555 273.001 461.266L273.32 464.915L272.303 465.004L271.987 461.391C271.893 460.314 271.24 459.744 270.295 459.827C269.409 459.905 268.916 460.466 268.588 461.122L268.953 465.297L267.936 465.386ZM280.64 463.274C280.144 464.077 279.288 464.634 278.164 464.733C276.13 464.911 274.743 463.525 274.589 461.766C274.429 459.936 275.477 458.409 277.343 458.246C278.982 458.103 280.147 459.158 280.277 460.642C280.298 460.881 280.282 461.111 280.261 461.282L275.631 461.687C275.793 463.132 276.791 463.924 278.083 463.811C278.861 463.743 279.487 463.327 279.835 462.754L280.64 463.274ZM277.394 459.11C276.401 459.196 275.759 459.843 275.634 460.903L279.248 460.587C279.134 459.705 278.459 459.016 277.394 459.11ZM282.319 464.128L281.791 458.098L282.808 458.009L282.874 458.763C283.271 458.198 283.791 457.802 284.557 457.735C284.748 457.719 284.93 457.727 285.077 457.762L285.164 458.755C284.981 458.723 284.799 458.715 284.56 458.736C283.77 458.805 283.291 459.257 282.974 459.899L283.336 464.039L282.319 464.128ZM289.425 462.783C290.167 462.718 290.746 462.306 291.071 461.747L291.926 462.287C291.429 463.09 290.598 463.645 289.497 463.741C287.499 463.916 286.088 462.532 285.934 460.774C285.78 459.015 286.929 457.407 288.927 457.232C290.016 457.137 290.945 457.55 291.572 458.243L290.823 458.923C290.407 458.429 289.765 458.124 289.011 458.19C287.719 458.303 286.887 459.4 286.999 460.68C287.112 461.973 288.121 462.897 289.425 462.783ZM293.407 463.158L292.622 454.185L293.639 454.096L293.956 457.721C294.4 457.14 294.988 456.702 295.886 456.624C297.238 456.505 298.322 457.327 298.472 459.038L298.791 462.687L297.774 462.776L297.458 459.163C297.364 458.086 296.711 457.516 295.766 457.599C294.881 457.676 294.387 458.238 294.059 458.893L294.424 463.069L293.407 463.158ZM306.111 461.046C305.615 461.849 304.76 462.406 303.635 462.504C301.601 462.682 300.214 461.297 300.06 459.538C299.9 457.707 300.948 456.181 302.814 456.018C304.453 455.874 305.619 456.93 305.748 458.413C305.769 458.652 305.753 458.883 305.732 459.054L301.102 459.459C301.264 460.903 302.262 461.696 303.554 461.583C304.332 461.515 304.959 461.098 305.306 460.525L306.111 461.046ZM302.866 456.881C301.873 456.968 301.23 457.615 301.106 458.675L304.719 458.359C304.606 457.476 303.93 456.788 302.866 456.881Z"
            fill="#646464" />
        <path
            d="M343.334 434.175C342.636 434.237 342.025 434.047 341.501 433.607C340.977 433.168 340.684 432.599 340.623 431.901C340.562 431.203 340.751 430.592 341.191 430.068C341.631 429.544 342.2 429.251 342.898 429.19C343.596 429.129 344.207 429.319 344.731 429.758C345.255 430.198 345.547 430.767 345.608 431.465C345.669 432.163 345.48 432.774 345.04 433.298C344.601 433.822 344.032 434.114 343.334 434.175ZM339.825 440.008C339.277 440.056 338.79 439.902 338.365 439.546C337.941 439.189 337.705 438.737 337.657 438.188L336.436 424.23C336.388 423.682 336.542 423.195 336.898 422.771C337.254 422.346 337.707 422.109 338.255 422.061L339.252 421.974L339.165 420.977C339.14 420.695 339.215 420.449 339.389 420.241C339.564 420.034 339.792 419.918 340.075 419.893C340.357 419.868 340.603 419.943 340.811 420.117C341.018 420.292 341.134 420.52 341.159 420.803L341.246 421.8L349.223 421.102L349.135 420.105C349.111 419.822 349.186 419.577 349.36 419.369C349.534 419.161 349.763 419.045 350.045 419.021C350.328 418.996 350.573 419.071 350.78 419.245C350.988 419.419 351.105 419.648 351.13 419.93L351.217 420.927L352.214 420.84C352.762 420.792 353.249 420.947 353.674 421.303C354.098 421.659 354.334 422.111 354.382 422.66L355.604 436.618C355.652 437.167 355.498 437.653 355.142 438.078C354.785 438.503 354.332 438.739 353.784 438.787L339.825 440.008ZM339.651 438.014L353.609 436.793L352.737 426.822L338.779 428.044L339.651 438.014ZM338.604 426.05L352.563 424.828L352.388 422.834L338.43 424.056L338.604 426.05Z"
            fill="#646464" />
        <path
            d="M319.382 451.723L318.341 451.814L319.552 450.08L320.772 449.973L319.382 451.723ZM317.378 461.061L316.645 452.685L321.144 452.292L321.227 453.249L317.853 453.544L318.088 456.224L320.983 455.971L321.066 456.916L318.17 457.169L318.419 460.005L321.793 459.71L321.876 460.667L317.378 461.061ZM322.162 454.566L323.263 454.469L325.624 459.266L327.116 454.132L328.216 454.036L326.387 460.272L325.047 460.39L322.162 454.566ZM332.349 452.71L331.356 452.797L332.426 450.702L333.575 450.602L332.349 452.71ZM335.17 458.503C334.674 459.306 333.818 459.863 332.694 459.962C330.66 460.14 329.273 458.754 329.119 456.995C328.959 455.165 330.007 453.638 331.873 453.475C333.512 453.332 334.677 454.387 334.807 455.871C334.828 456.11 334.812 456.34 334.791 456.511L330.161 456.916C330.323 458.361 331.321 459.154 332.613 459.04C333.391 458.972 334.017 458.556 334.365 457.983L335.17 458.503ZM331.924 454.339C330.931 454.425 330.289 455.072 330.164 456.132L333.778 455.816C333.664 454.934 332.989 454.245 331.924 454.339ZM336.849 459.357L336.321 453.327L337.338 453.238L337.398 453.92C337.842 453.339 338.43 452.901 339.328 452.823C340.68 452.705 341.764 453.526 341.914 455.237L342.233 458.886L341.216 458.975L340.9 455.362C340.806 454.285 340.141 453.716 339.208 453.798C338.334 453.874 337.828 454.425 337.501 455.093L337.866 459.268L336.849 459.357ZM349.553 457.245C349.057 458.048 348.201 458.605 347.077 458.703C345.043 458.881 343.656 457.496 343.502 455.737C343.342 453.906 344.39 452.38 346.256 452.217C347.895 452.073 349.061 453.129 349.19 454.612C349.211 454.852 349.195 455.082 349.174 455.253L344.544 455.658C344.706 457.102 345.704 457.895 346.996 457.782C347.774 457.714 348.4 457.298 348.748 456.725L349.553 457.245ZM346.308 453.08C345.314 453.167 344.672 453.814 344.548 454.874L348.161 454.558C348.047 453.675 347.372 452.987 346.308 453.08ZM351.232 458.099L350.705 452.069L351.721 451.98L351.779 452.638C352.188 452.071 352.753 451.648 353.591 451.575C354.464 451.499 355.217 451.831 355.655 452.564C356.076 451.864 356.666 451.306 357.707 451.215C358.999 451.102 360.019 451.881 360.163 453.52L360.493 457.289L359.476 457.378L359.149 453.645C359.061 452.64 358.448 452.114 357.587 452.19C356.821 452.257 356.321 452.735 355.988 453.475C356.011 453.606 356.034 453.736 356.047 453.88L356.377 457.649L355.36 457.738L355.033 454.005C354.945 453 354.345 452.474 353.471 452.55C352.646 452.622 352.176 453.182 351.884 453.834L352.249 458.01L351.232 458.099ZM367.815 455.647C367.319 456.45 366.464 457.007 365.339 457.106C363.305 457.284 361.918 455.898 361.764 454.139C361.604 452.309 362.652 450.782 364.518 450.619C366.157 450.476 367.323 451.531 367.452 453.015C367.473 453.254 367.457 453.484 367.436 453.655L362.806 454.06C362.968 455.505 363.966 456.297 365.258 456.184C366.036 456.116 366.663 455.7 367.01 455.127L367.815 455.647ZM364.57 451.483C363.577 451.569 362.934 452.216 362.81 453.276L366.423 452.96C366.31 452.078 365.634 451.389 364.57 451.483ZM369.494 456.501L368.967 450.471L369.984 450.382L370.043 451.064C370.487 450.483 371.075 450.045 371.973 449.967C373.325 449.849 374.409 450.67 374.559 452.381L374.878 456.03L373.861 456.119L373.545 452.506C373.451 451.429 372.786 450.86 371.853 450.942C370.98 451.018 370.473 451.569 370.146 452.236L370.511 456.412L369.494 456.501ZM377.095 453.799L376.825 450.712L375.689 450.811L375.608 449.89L376.745 449.79L376.613 448.283L377.642 448.193L377.774 449.7L379.867 449.517L379.948 450.438L377.854 450.622L378.124 453.708C378.207 454.654 378.709 454.875 379.438 454.811C379.833 454.777 380.104 454.705 380.323 454.589L380.403 455.498C380.126 455.643 379.807 455.719 379.376 455.757C378.036 455.874 377.224 455.27 377.095 453.799Z"
            fill="#646464" />
    </g>
    <defs>
        <filter id="filter0_d_6966_2096" x="244.077" y="40.8675" width="75.7828" height="76.3692"
            filterUnits="userSpaceOnUse" color-interpolation-filters="sRGB">
            <feFlood flood-opacity="0" result="BackgroundImageFix" />
            <feColorMatrix in="SourceAlpha" type="matrix"
                values="0 0 0 0 0 0 0 0 0 0 0 0 0 0 0 0 0 0 127 0" result="hardAlpha" />
            <feOffset dy="4" />
            <feGaussianBlur stdDeviation="6" />
            <feComposite in2="hardAlpha" operator="out" />
            <feColorMatrix type="matrix"
                values="0 0 0 0 0.152941 0 0 0 0 0.286275 0 0 0 0 0.588235 0 0 0 0.12 0" />
            <feBlend mode="normal" in2="BackgroundImageFix" result="effect1_dropShadow_6966_2096" />
            <feBlend mode="normal" in="SourceGraphic" in2="effect1_dropShadow_6966_2096"
                result="shape" />
        </filter>
        <filter id="filter1_d_6966_2096" x="23.6802" y="293.46" width="341.639" height="220.007"
            filterUnits="userSpaceOnUse" color-interpolation-filters="sRGB">
            <feFlood flood-opacity="0" result="BackgroundImageFix" />
            <feColorMatrix in="SourceAlpha" type="matrix"
                values="0 0 0 0 0 0 0 0 0 0 0 0 0 0 0 0 0 0 127 0" result="hardAlpha" />
            <feOffset dy="4" />
            <feGaussianBlur stdDeviation="6" />
            <feComposite in2="hardAlpha" operator="out" />
            <feColorMatrix type="matrix"
                values="0 0 0 0 0.152941 0 0 0 0 0.286275 0 0 0 0 0.588235 0 0 0 0.12 0" />
            <feBlend mode="normal" in2="BackgroundImageFix" result="effect1_dropShadow_6966_2096" />
            <feBlend mode="normal" in="SourceGraphic" in2="effect1_dropShadow_6966_2096"
                result="shape" />
        </filter>
        <filter id="filter2_d_6966_2096" x="138.117" y="118.1" width="40.0338" height="40.0338"
            filterUnits="userSpaceOnUse" color-interpolation-filters="sRGB">
            <feFlood flood-opacity="0" result="BackgroundImageFix" />
            <feColorMatrix in="SourceAlpha" type="matrix"
                values="0 0 0 0 0 0 0 0 0 0 0 0 0 0 0 0 0 0 127 0" result="hardAlpha" />
            <feOffset dy="4" />
            <feGaussianBlur stdDeviation="2" />
            <feComposite in2="hardAlpha" operator="out" />
            <feColorMatrix type="matrix" values="0 0 0 0 0 0 0 0 0 0 0 0 0 0 0 0 0 0 0.25 0" />
            <feBlend mode="normal" in2="BackgroundImageFix" result="effect1_dropShadow_6966_2096" />
            <feBlend mode="normal" in="SourceGraphic" in2="effect1_dropShadow_6966_2096"
                result="shape" />
        </filter>
        <filter id="filter3_d_6966_2096" x="2.00169" y="401.339" width="388.002" height="110.51"
            filterUnits="userSpaceOnUse" color-interpolation-filters="sRGB">
            <feFlood flood-opacity="0" result="BackgroundImageFix" />
            <feColorMatrix in="SourceAlpha" type="matrix"
                values="0 0 0 0 0 0 0 0 0 0 0 0 0 0 0 0 0 0 127 0" result="hardAlpha" />
            <feOffset dy="4" />
            <feGaussianBlur stdDeviation="2" />
            <feComposite in2="hardAlpha" operator="out" />
            <feColorMatrix type="matrix" values="0 0 0 0 0 0 0 0 0 0 0 0 0 0 0 0 0 0 0.25 0" />
            <feBlend mode="normal" in2="BackgroundImageFix" result="effect1_dropShadow_6966_2096" />
            <feBlend mode="normal" in="SourceGraphic" in2="effect1_dropShadow_6966_2096"
                result="shape" />
        </filter>
        <clipPath id="clip0_6966_2096">
            <rect width="24" height="24" fill="white"
                transform="translate(184.612 431.485) scale(1.00085) rotate(-5)" />
        </clipPath>
        <clipPath id="clip1_6966_2096">
            <rect width="24" height="24" fill="white"
                transform="translate(260.636 424.834) scale(1.00085) rotate(-5)" />
        </clipPath>
    </defs>
</svg>
