<svg width="386" height="576" viewBox="0 0 386 576" fill="none" xmlns="http://www.w3.org/2000/svg">
<rect width="313.682" height="418.303" rx="8" transform="matrix(0.995997 -0.0975606 0.0804228 0.997139 1.9538 32.0409)" fill="white"/>
<circle cx="177.434" cy="138.174" r="27.8112" transform="rotate(-95 177.434 138.174)" fill="#E5F6EF"/>
<circle cx="105.558" cy="70.8617" r="27.8112" transform="rotate(-95 105.558 70.8617)" fill="#E5F6EF"/>
<rect x="183.092" y="72.3034" width="18.8621" height="18.8621" transform="rotate(-88.1683 183.092 72.3034)" fill="#E5F6EF"/>
<rect x="81.0616" y="158.312" width="18.8621" height="18.8621" transform="rotate(-82.349 81.0616 158.312)" fill="#E5F6EF"/>
<path d="M139.478 62.3953C115.187 64.5205 97.1232 85.6446 99.2091 109.487C101.295 133.329 122.753 150.995 147.044 148.87C171.335 146.745 189.399 125.62 187.313 101.778C185.228 77.9365 163.77 60.27 139.478 62.3953Z" fill="#0D7F50"/>
<path d="M140.769 116.659C140.513 116.681 140.269 116.662 140.037 116.601C139.806 116.541 139.585 116.423 139.376 116.247L130.379 108.698C129.995 108.376 129.787 107.934 129.753 107.371C129.721 106.809 129.865 106.336 130.187 105.952C130.509 105.569 130.943 105.353 131.488 105.305C132.033 105.258 132.497 105.395 132.881 105.717L140.361 111.993L155.24 94.2607C155.562 93.8771 156.004 93.6607 156.566 93.6116C157.126 93.5625 157.598 93.6989 157.982 94.0208C158.365 94.3427 158.582 94.7839 158.631 95.3444C158.68 95.9062 158.544 96.3789 158.222 96.7625L142.07 116.012C141.894 116.221 141.697 116.375 141.48 116.474C141.263 116.575 141.026 116.636 140.769 116.659Z" fill="white"/>
<path d="M71.4972 219.954L75.5603 205.533L79.2693 205.209L85.7748 218.705L82.7637 218.969L81.1102 215.456L75.5268 215.945L74.5082 219.691L71.4972 219.954ZM76.1931 213.455L80.0217 213.12L77.6485 208.043L76.1931 213.455ZM92.4372 216.113C93.4342 216.026 94.1917 215.497 94.6092 214.757L96.7159 216.1C95.8869 217.419 94.4811 218.345 92.6465 218.506C89.1768 218.809 86.8849 216.498 86.6285 213.567C86.372 210.636 88.2278 207.962 91.6975 207.658C93.532 207.497 95.0774 208.166 96.1228 209.32L94.2812 211.009C93.7416 210.353 92.9039 209.964 91.8669 210.054C90.2119 210.199 89.1071 211.582 89.2606 213.337C89.4159 215.111 90.7422 216.261 92.4372 216.113ZM99.1639 213.837L98.8046 209.729L96.9301 209.893L96.7312 207.619L98.6057 207.455L98.3859 204.943L100.938 204.72L101.158 207.232L104.229 206.963L104.428 209.237L101.357 209.505L101.716 213.613C101.814 214.73 102.451 215.116 103.448 215.029C104.146 214.968 104.597 214.848 104.924 214.679L105.118 216.892C104.638 217.155 104.049 217.307 103.211 217.381C100.699 217.6 99.3785 216.289 99.1639 213.837ZM107.62 204.899C106.722 204.977 105.898 204.286 105.82 203.388C105.741 202.491 106.433 201.667 107.33 201.588C108.227 201.51 109.031 202.203 109.11 203.1C109.188 203.998 108.517 204.82 107.62 204.899ZM107.376 216.815L106.497 206.765L109.029 206.544L109.909 216.594L107.376 216.815ZM116.817 205.46C120.087 205.174 122.532 207.392 122.795 210.403C123.059 213.414 121.037 216.022 117.766 216.308C114.496 216.594 112.052 214.377 111.788 211.366C111.525 208.355 113.547 205.746 116.817 205.46ZM117.597 213.912C119.212 213.77 120.315 212.368 120.163 210.633C120.01 208.878 118.682 207.708 117.066 207.85C115.391 207.996 114.267 209.381 114.42 211.135C114.574 212.89 115.922 214.058 117.597 213.912ZM125.545 215.226L124.666 205.176L127.198 204.954L127.268 205.752C127.906 205.013 128.798 204.412 130.134 204.295C132.308 204.105 134.174 205.449 134.434 208.42L134.957 214.402L132.404 214.626L131.89 208.743C131.773 207.407 130.942 206.636 129.706 206.744C128.429 206.856 127.826 207.772 127.503 208.444L128.077 215.004L125.545 215.226ZM152.317 211.236C151.489 212.574 150.002 213.488 148.108 213.654C144.538 213.966 142.306 211.649 142.05 208.718C141.79 205.747 143.45 203.13 146.74 202.842C149.532 202.598 151.532 204.332 151.762 206.964C151.811 207.523 151.777 208.048 151.726 208.394L144.687 209.01C145.091 210.863 146.313 211.52 147.889 211.382C148.986 211.286 149.901 210.724 150.376 209.959L152.317 211.236ZM146.861 204.921C145.565 205.035 144.771 205.828 144.607 207.168L149.233 206.764C149.104 205.75 148.277 204.798 146.861 204.921ZM154.755 212.67L153.876 202.62L156.408 202.398L156.478 203.196C157.117 202.457 158.008 201.857 159.344 201.74C161.518 201.549 163.384 202.893 163.644 205.864L164.167 211.847L161.615 212.07L161.1 206.187C160.983 204.851 160.152 204.08 158.916 204.188C157.639 204.3 157.036 205.217 156.713 205.888L157.287 212.449L154.755 212.67ZM167.043 211.595L166.163 201.545L168.696 201.323L168.783 202.32C169.382 201.585 170.194 200.991 171.33 200.892C171.669 200.862 171.974 200.896 172.22 200.955L172.438 203.447C172.112 203.396 171.768 203.365 171.309 203.405C170.073 203.514 169.335 204.261 169.012 204.933L169.575 211.374L167.043 211.595ZM183.825 208.479C182.997 209.817 181.51 210.731 179.616 210.897C176.046 211.209 173.814 208.893 173.558 205.962C173.298 202.99 174.958 200.374 178.248 200.086C181.039 199.842 183.04 201.575 183.27 204.208C183.319 204.766 183.284 205.291 183.234 205.637L176.195 206.253C176.599 208.107 177.821 208.763 179.397 208.625C180.493 208.529 181.409 207.967 181.884 207.202L183.825 208.479ZM178.369 202.165C177.073 202.278 176.279 203.071 176.115 204.412L180.741 204.007C180.612 202.993 179.785 202.041 178.369 202.165ZM185.341 211.762C185.254 210.765 185.683 209.924 186.523 209.188C186.089 208.824 185.823 208.304 185.777 207.786C185.707 206.988 185.991 206.321 186.699 205.696C185.765 205.115 185.199 204.159 185.101 203.043C184.93 201.089 186.308 199.381 188.82 199.161C189.598 199.093 190.288 199.173 190.889 199.382L194.558 199.061L194.747 201.214L192.972 201.37C193.099 201.68 193.167 201.995 193.197 202.334C193.37 204.309 192.034 206.033 189.441 206.26C189.102 206.289 188.782 206.297 188.477 206.264C188.275 206.482 188.175 206.712 188.194 206.931C188.229 207.33 188.466 207.511 188.924 207.47L191.457 207.249C193.989 207.027 195.484 208.263 195.648 210.137C195.843 212.371 193.86 214.272 190.729 214.546C187.518 214.827 185.526 213.876 185.341 211.762ZM189.314 204.342C190.371 204.249 190.991 203.532 190.904 202.535C190.817 201.538 190.083 200.959 189.026 201.052C187.929 201.148 187.329 201.863 187.414 202.84C187.501 203.837 188.217 204.438 189.314 204.342ZM187.703 211.194C187.787 212.151 188.756 212.669 190.531 212.514C192.366 212.353 193.243 211.593 193.156 210.596C193.09 209.839 192.584 209.34 191.368 209.447L188.257 209.719C187.91 210.111 187.649 210.576 187.703 211.194ZM197.509 197.034C196.611 197.113 195.787 196.421 195.709 195.524C195.63 194.627 196.322 193.803 197.219 193.724C198.116 193.646 198.921 194.339 198.999 195.236C199.078 196.134 198.406 196.956 197.509 197.034ZM197.265 208.951L196.386 198.901L198.919 198.679L199.798 208.729L197.265 208.951ZM201.694 207.097L203.236 205.435C203.922 206.158 204.709 206.652 205.666 206.568C206.484 206.497 206.861 205.982 206.808 205.383C206.655 203.629 201.907 204.707 201.598 201.178C201.442 199.403 202.821 197.936 204.915 197.753C206.45 197.618 207.911 198.234 208.714 199.148L207.168 200.771C206.594 200.178 205.89 199.717 205.113 199.785C204.315 199.855 203.975 200.327 204.02 200.845C204.17 202.56 208.923 201.541 209.227 205.011C209.372 207.128 207.778 208.433 205.884 208.599C204.089 208.756 202.75 208.15 201.694 207.097ZM212.285 203.94L211.925 199.832L210.051 199.996L209.852 197.723L211.727 197.559L211.507 195.046L214.059 194.823L214.279 197.335L217.35 197.067L217.549 199.34L214.478 199.609L214.837 203.716C214.935 204.833 215.572 205.219 216.569 205.132C217.266 205.071 217.718 204.951 218.045 204.782L218.239 206.995C217.759 207.258 217.17 207.41 216.332 207.484C213.82 207.704 212.499 206.392 212.285 203.94ZM220.497 206.918L219.618 196.868L222.15 196.647L222.237 197.644C222.836 196.908 223.648 196.315 224.785 196.215C225.124 196.186 225.428 196.219 225.675 196.278L225.893 198.771C225.567 198.719 225.222 198.689 224.764 198.729C223.527 198.837 222.789 199.585 222.466 200.256L223.03 206.697L220.497 206.918ZM232.993 194.091L230.561 194.303L232.345 190.812L235.097 190.571L232.993 194.091ZM237.279 203.803C236.452 205.141 234.964 206.055 233.07 206.22C229.501 206.533 227.269 204.216 227.012 201.285C226.752 198.314 228.412 195.697 231.702 195.409C234.494 195.165 236.494 196.899 236.724 199.531C236.773 200.089 236.739 200.615 236.689 200.961L229.65 201.577C230.053 203.43 231.276 204.087 232.851 203.949C233.948 203.853 234.863 203.291 235.339 202.526L237.279 203.803ZM231.824 197.488C230.528 197.602 229.733 198.395 229.569 199.735L234.195 199.33C234.066 198.317 233.24 197.364 231.824 197.488ZM248.749 202.799C247.922 204.137 246.434 205.051 244.54 205.217C240.97 205.529 238.738 203.213 238.482 200.281C238.222 197.31 239.882 194.694 243.172 194.406C245.964 194.161 247.964 195.895 248.194 198.527C248.243 199.086 248.209 199.611 248.159 199.957L241.12 200.573C241.523 202.427 242.746 203.083 244.321 202.945C245.418 202.849 246.333 202.287 246.809 201.522L248.749 202.799ZM243.294 196.485C241.997 196.598 241.203 197.391 241.039 198.732L245.665 198.327C245.536 197.313 244.709 196.361 243.294 196.485ZM257.007 199.203L255.66 189.777L258.571 189.522L258.881 199.039L257.007 199.203ZM258.377 203.845C257.42 203.929 256.553 203.201 256.471 202.264C256.389 201.327 257.097 200.461 258.074 200.376C259.011 200.294 259.878 201.022 259.96 201.959C260.042 202.896 259.315 203.763 258.377 203.845Z" fill="black"/>
<g filter="url(#filter0_d_8452_5960)">
<rect x="38.0321" y="308.361" width="288.243" height="48.0406" rx="24" transform="rotate(-5 38.0321 308.361)" fill="#3B69D1" shape-rendering="crispEdges"/>
<path d="M107.021 331.654C108.297 331.542 109.248 330.832 109.806 329.867L111.713 331.083C110.813 332.56 109.233 333.598 107.207 333.776C103.681 334.084 101.035 331.583 100.756 328.392C100.477 325.202 102.648 322.279 106.174 321.971C108.2 321.793 109.938 322.558 111.078 323.824L109.413 325.368C108.695 324.515 107.636 323.981 106.359 324.092C104.254 324.277 102.898 326.051 103.085 328.188C103.272 330.326 104.915 331.838 107.021 331.654ZM116.521 324.216C119.137 323.987 121.093 325.761 121.303 328.17C121.514 330.579 119.896 332.665 117.28 332.894C114.664 333.123 112.708 331.349 112.498 328.94C112.287 326.531 113.905 324.445 116.521 324.216ZM117.145 330.977C118.437 330.864 119.319 329.742 119.198 328.354C119.075 326.95 118.012 326.014 116.72 326.128C115.38 326.245 114.48 327.352 114.603 328.756C114.726 330.16 115.804 331.094 117.145 330.977ZM123.503 332.028L122.8 323.988L124.826 323.811L124.881 324.449C125.392 323.858 126.106 323.377 127.175 323.284C128.913 323.132 130.406 324.207 130.614 326.584L131.033 331.37L128.991 331.548L128.579 326.842C128.485 325.773 127.821 325.156 126.832 325.243C125.811 325.332 125.328 326.066 125.07 326.603L125.529 331.851L123.503 332.028ZM132.529 330.065L133.763 328.735C134.312 329.314 134.942 329.709 135.707 329.642C136.361 329.585 136.663 329.173 136.621 328.694C136.498 327.291 132.7 328.153 132.453 325.33C132.328 323.91 133.431 322.737 135.106 322.59C136.335 322.483 137.503 322.975 138.146 323.706L136.909 325.004C136.45 324.53 135.887 324.161 135.265 324.216C134.627 324.272 134.354 324.649 134.39 325.064C134.51 326.436 138.313 325.621 138.556 328.397C138.672 330.09 137.397 331.134 135.882 331.267C134.446 331.392 133.375 330.907 132.529 330.065ZM145.616 326.589L145.217 322.027L147.259 321.848L147.65 326.315C147.86 328.724 146.586 330.33 144.225 330.537C141.864 330.743 140.347 329.381 140.136 326.972L139.745 322.506L141.787 322.327L142.186 326.889C142.288 328.054 142.957 328.719 144.074 328.621C145.174 328.525 145.718 327.754 145.616 326.589ZM150.205 329.692L149.158 317.728L151.184 317.55L152.231 329.515L150.205 329.692ZM154.914 326.322L154.627 323.036L153.127 323.167L152.968 321.349L154.467 321.218L154.292 319.208L156.334 319.029L156.509 321.039L158.966 320.824L159.125 322.643L156.668 322.858L156.956 326.144C157.034 327.037 157.543 327.346 158.341 327.276C158.899 327.228 159.261 327.132 159.522 326.996L159.677 328.767C159.294 328.977 158.822 329.099 158.152 329.158C156.142 329.333 155.086 328.285 154.914 326.322ZM168.616 326.763C167.954 327.834 166.764 328.565 165.248 328.698C162.393 328.947 160.607 327.094 160.402 324.749C160.194 322.372 161.522 320.279 164.154 320.049C166.388 319.853 167.988 321.24 168.172 323.346C168.211 323.793 168.184 324.213 168.143 324.49L162.512 324.983C162.835 326.465 163.813 326.991 165.073 326.88C165.951 326.804 166.683 326.354 167.063 325.742L168.616 326.763ZM164.251 321.712C163.215 321.803 162.579 322.437 162.448 323.509L166.149 323.186C166.046 322.375 165.384 321.613 164.251 321.712ZM170.566 327.911L169.863 319.871L171.889 319.693L171.959 320.491C172.438 319.903 173.087 319.428 173.997 319.348C174.268 319.325 174.511 319.351 174.708 319.399L174.883 321.393C174.622 321.351 174.346 321.327 173.98 321.359C172.991 321.446 172.4 322.044 172.141 322.581L172.592 327.734L170.566 327.911ZM181.347 326.968L180.643 318.928L182.669 318.75L182.722 319.356C183.219 318.783 183.87 318.324 184.859 318.237C185.88 318.148 186.812 318.516 187.414 319.332C187.927 318.58 188.64 317.906 189.995 317.788C191.655 317.643 193.063 318.677 193.261 320.942L193.694 325.887L191.652 326.066L191.226 321.2C191.141 320.227 190.562 319.667 189.652 319.747C188.775 319.824 188.35 320.472 188.078 321.042C188.104 321.152 188.113 321.264 188.125 321.391L188.557 326.337L186.515 326.515L186.09 321.65C186.005 320.677 185.425 320.117 184.516 320.196C183.591 320.277 183.172 321.005 182.914 321.542L183.373 326.79L181.347 326.968ZM199.104 316.991C201.72 316.762 203.675 318.536 203.886 320.945C204.097 323.354 202.479 325.44 199.863 325.669C197.247 325.898 195.291 324.124 195.08 321.715C194.87 319.306 196.487 317.22 199.104 316.991ZM199.727 323.752C201.019 323.639 201.902 322.517 201.78 321.129C201.658 319.725 200.595 318.789 199.303 318.902C197.963 319.02 197.063 320.127 197.186 321.531C197.309 322.935 198.387 323.869 199.727 323.752ZM206.086 324.803L205.382 316.763L207.408 316.586L207.464 317.224C207.975 316.633 208.688 316.152 209.757 316.059C211.496 315.907 212.989 316.982 213.197 319.359L213.615 324.144L211.573 324.323L211.162 319.617C211.068 318.548 210.403 317.931 209.414 318.018C208.393 318.107 207.911 318.841 207.652 319.378L208.112 324.626L206.086 324.803ZM222.502 323.608C220.891 323.749 219.709 322.92 219.579 321.437C219.473 320.224 220.335 319.233 222.032 318.795L224.453 318.165L224.435 317.958C224.361 317.112 223.675 316.626 222.75 316.706C221.968 316.775 221.394 317.195 221.015 317.823L219.432 316.82C220.064 315.768 221.191 315.059 222.659 314.93C224.988 314.726 226.306 316.01 226.461 317.78L226.916 322.981L224.89 323.158L224.821 322.376C224.365 323.043 223.443 323.526 222.502 323.608ZM221.581 321.165C221.628 321.707 222.09 322.021 222.776 321.961C223.701 321.88 224.333 321.39 224.676 320.717L224.577 319.585L222.691 320.071C221.858 320.289 221.537 320.67 221.581 321.165ZM232.957 320.845C233.754 320.775 234.36 320.352 234.694 319.761L236.38 320.835C235.716 321.889 234.592 322.631 233.124 322.759C230.348 323.002 228.515 321.153 228.31 318.808C228.104 316.463 229.589 314.324 232.365 314.081C233.832 313.953 235.069 314.487 235.905 315.411L234.432 316.761C234 316.237 233.33 315.925 232.5 315.998C231.176 316.114 230.293 317.22 230.415 318.624C230.54 320.044 231.601 320.963 232.957 320.845ZM238.338 319.024L238.051 315.738L236.551 315.869L236.392 314.05L237.891 313.919L237.716 311.909L239.757 311.73L239.933 313.74L242.39 313.525L242.549 315.344L240.092 315.559L240.38 318.845C240.458 319.738 240.967 320.048 241.765 319.978C242.323 319.929 242.685 319.833 242.946 319.698L243.101 321.468C242.718 321.679 242.246 321.8 241.576 321.859C239.566 322.035 238.51 320.986 238.338 319.024ZM245.103 311.873C244.385 311.936 243.725 311.383 243.663 310.665C243.6 309.947 244.153 309.288 244.871 309.225C245.589 309.163 246.232 309.717 246.295 310.435C246.358 311.153 245.82 311.811 245.103 311.873ZM244.908 321.407L244.204 313.367L246.23 313.189L246.934 321.229L244.908 321.407ZM252.461 312.323C255.077 312.094 257.032 313.868 257.243 316.277C257.454 318.686 255.836 320.772 253.22 321.001C250.604 321.23 248.648 319.456 248.437 317.047C248.227 314.638 249.844 312.552 252.461 312.323ZM253.084 319.084C254.376 318.971 255.259 317.849 255.137 316.461C255.015 315.057 253.952 314.121 252.66 314.234C251.32 314.352 250.42 315.459 250.543 316.863C250.666 318.267 251.744 319.201 253.084 319.084ZM259.443 320.135L258.739 312.095L260.765 311.918L260.821 312.556C261.332 311.965 262.045 311.484 263.114 311.391C264.853 311.239 266.346 312.314 266.554 314.691L266.972 319.476L264.93 319.655L264.519 314.949C264.425 313.88 263.76 313.263 262.771 313.35C261.75 313.439 261.268 314.172 261.01 314.709L261.469 319.958L259.443 320.135Z" fill="white"/>
</g>
<g filter="url(#filter1_d_8452_5960)">
<rect x="44.1566" y="372.626" width="287.243" height="47.0406" rx="23.5" transform="rotate(-5 44.1566 372.626)" stroke="#3B69D1" shape-rendering="crispEdges"/>
<path d="M97.2048 396.812C98.481 396.7 99.4316 395.99 99.9901 395.025L101.897 396.24C100.997 397.717 99.4164 398.756 97.3904 398.933C93.8649 399.242 91.2188 396.74 90.9396 393.55C90.6605 390.359 92.8321 387.437 96.3576 387.128C98.3836 386.951 100.122 387.715 101.262 388.982L99.5965 390.526C98.8789 389.673 97.8194 389.138 96.5432 389.25C94.4375 389.434 93.0817 391.209 93.2687 393.346C93.4557 395.484 95.099 396.996 97.2048 396.812ZM103.763 398.054L103.06 390.014L105.086 389.837L105.156 390.634C105.635 390.046 106.284 389.571 107.194 389.492C107.465 389.468 107.708 389.495 107.905 389.542L108.08 391.536C107.819 391.495 107.543 391.47 107.177 391.503C106.187 391.589 105.597 392.187 105.338 392.724L105.789 397.877L103.763 398.054ZM113.76 387.792L111.814 387.962L113.241 385.169L115.443 384.976L113.76 387.792ZM117.189 395.561C116.527 396.632 115.337 397.363 113.822 397.496C110.966 397.746 109.18 395.892 108.975 393.547C108.767 391.17 110.095 389.077 112.727 388.847C114.961 388.651 116.561 390.038 116.745 392.144C116.784 392.591 116.757 393.011 116.717 393.288L111.085 393.781C111.408 395.264 112.386 395.789 113.647 395.678C114.524 395.602 115.256 395.152 115.637 394.54L117.189 395.561ZM112.825 390.51C111.788 390.601 111.152 391.235 111.021 392.307L114.722 391.984C114.619 391.173 113.957 390.411 112.825 390.51ZM126.365 394.759C125.703 395.829 124.513 396.56 122.997 396.693C120.142 396.943 118.356 395.09 118.151 392.745C117.943 390.368 119.271 388.274 121.903 388.044C124.137 387.849 125.737 389.236 125.921 391.341C125.96 391.788 125.933 392.208 125.892 392.485L120.261 392.978C120.584 394.461 121.562 394.986 122.822 394.876C123.7 394.799 124.432 394.349 124.812 393.737L126.365 394.759ZM122 389.707C120.964 389.798 120.328 390.432 120.197 391.505L123.898 391.181C123.795 390.37 123.133 389.608 122 389.707ZM128.315 395.906L127.612 387.866L129.638 387.689L129.708 388.486C130.187 387.898 130.836 387.423 131.746 387.344C132.017 387.32 132.26 387.347 132.457 387.394L132.632 389.388C132.371 389.347 132.095 389.322 131.729 389.354C130.74 389.441 130.149 390.039 129.89 390.576L130.341 395.729L128.315 395.906ZM144.088 391.022L143.689 386.46L145.73 386.281L146.121 390.748C146.332 393.156 145.058 394.763 142.697 394.969C140.336 395.176 138.818 393.814 138.608 391.405L138.217 386.938L140.259 386.76L140.658 391.322C140.76 392.487 141.429 393.151 142.545 393.054C143.646 392.957 144.19 392.187 144.088 391.022ZM148.677 394.125L147.973 386.085L149.999 385.907L150.055 386.546C150.566 385.954 151.279 385.474 152.348 385.38C154.087 385.228 155.58 386.303 155.788 388.68L156.206 393.466L154.164 393.645L153.753 388.939C153.659 387.87 152.994 387.253 152.005 387.339C150.984 387.429 150.502 388.162 150.243 388.699L150.703 393.948L148.677 394.125ZM165.794 391.309C165.133 392.38 163.943 393.111 162.427 393.243C159.572 393.493 157.786 391.64 157.581 389.295C157.373 386.918 158.701 384.825 161.333 384.594C163.566 384.399 165.166 385.786 165.351 387.892C165.39 388.338 165.362 388.759 165.322 389.036L159.691 389.528C160.014 391.011 160.992 391.536 162.252 391.426C163.129 391.349 163.862 390.899 164.242 390.287L165.794 391.309ZM161.43 386.258C160.393 386.348 159.758 386.983 159.626 388.055L163.327 387.731C163.224 386.92 162.563 386.159 161.43 386.258ZM174.331 392.121C172.72 392.262 171.538 391.433 171.408 389.95C171.302 388.737 172.164 387.746 173.862 387.308L176.282 386.678L176.264 386.471C176.19 385.625 175.504 385.139 174.579 385.22C173.797 385.288 173.223 385.708 172.844 386.336L171.261 385.333C171.893 384.281 173.02 383.572 174.488 383.443C176.817 383.24 178.135 384.523 178.29 386.294L178.745 391.494L176.719 391.671L176.65 390.89C176.194 391.557 175.272 392.039 174.331 392.121ZM173.41 389.678C173.457 390.221 173.919 390.534 174.605 390.474C175.53 390.393 176.162 389.904 176.505 389.231L176.406 388.098L174.52 388.585C173.687 388.802 173.367 389.184 173.41 389.678ZM186.057 387.35L185.658 382.788L187.7 382.609L188.09 387.076C188.301 389.485 187.027 391.091 184.666 391.298C182.305 391.504 180.787 390.142 180.577 387.733L180.186 383.266L182.228 383.088L182.627 387.65C182.729 388.815 183.398 389.48 184.515 389.382C185.615 389.286 186.159 388.515 186.057 387.35ZM191.024 387.462L190.736 384.176L189.237 384.307L189.078 382.488L190.577 382.357L190.401 380.347L192.443 380.169L192.619 382.179L195.076 381.964L195.235 383.782L192.778 383.997L193.066 387.283C193.144 388.177 193.653 388.486 194.451 388.416C195.009 388.367 195.371 388.271 195.632 388.136L195.787 389.907C195.404 390.117 194.932 390.239 194.262 390.297C192.252 390.473 191.196 389.424 191.024 387.462ZM197.594 389.845L196.89 381.805L198.916 381.628L198.986 382.425C199.465 381.837 200.115 381.362 201.024 381.283C201.295 381.259 201.539 381.286 201.736 381.333L201.91 383.327C201.649 383.285 201.374 383.261 201.007 383.293C200.018 383.38 199.427 383.978 199.169 384.515L199.62 389.668L197.594 389.845ZM211.019 387.352C210.357 388.423 209.168 389.154 207.652 389.287C204.797 389.536 203.011 387.683 202.806 385.338C202.598 382.961 203.926 380.868 206.558 380.638C208.791 380.442 210.391 381.829 210.576 383.935C210.615 384.382 210.587 384.802 210.547 385.079L204.916 385.572C205.239 387.054 206.217 387.58 207.477 387.469C208.354 387.393 209.087 386.943 209.467 386.331L211.019 387.352ZM206.655 382.301C205.618 382.392 204.983 383.026 204.851 384.098L208.552 383.775C208.449 382.964 207.788 382.202 206.655 382.301ZM219.556 388.165C217.945 388.306 216.763 387.477 216.633 385.993C216.527 384.781 217.389 383.789 219.087 383.351L221.507 382.722L221.489 382.514C221.415 381.669 220.729 381.182 219.804 381.263C219.022 381.331 218.448 381.751 218.069 382.379L216.486 381.377C217.118 380.325 218.245 379.615 219.713 379.487C222.042 379.283 223.36 380.566 223.515 382.337L223.97 387.537L221.944 387.715L221.875 386.933C221.419 387.6 220.497 388.082 219.556 388.165ZM218.635 385.722C218.682 386.264 219.144 386.577 219.83 386.517C220.755 386.436 221.387 385.947 221.73 385.274L221.631 384.141L219.745 384.628C218.912 384.845 218.592 385.227 218.635 385.722ZM230.011 385.402C230.808 385.332 231.414 384.909 231.748 384.317L233.434 385.391C232.77 386.446 231.646 387.187 230.178 387.316C227.402 387.559 225.569 385.71 225.364 383.365C225.159 381.02 226.643 378.88 229.419 378.638C230.887 378.509 232.123 379.044 232.959 379.967L231.486 381.318C231.054 380.793 230.384 380.482 229.554 380.555C228.23 380.671 227.347 381.777 227.469 383.18C227.594 384.6 228.655 385.52 230.011 385.402ZM235.392 383.58L235.105 380.294L233.605 380.425L233.446 378.607L234.945 378.476L234.77 376.466L236.812 376.287L236.987 378.297L239.444 378.082L239.603 379.901L237.147 380.116L237.434 383.402C237.512 384.295 238.021 384.604 238.819 384.534C239.377 384.486 239.739 384.39 240 384.254L240.155 386.025C239.772 386.235 239.3 386.357 238.63 386.416C236.62 386.591 235.564 385.543 235.392 383.58ZM242.157 376.43C241.439 376.493 240.78 375.94 240.717 375.222C240.654 374.504 241.207 373.845 241.925 373.782C242.643 373.719 243.286 374.274 243.349 374.992C243.412 375.709 242.874 376.367 242.157 376.43ZM241.962 385.963L241.258 377.923L243.284 377.746L243.988 385.786L241.962 385.963ZM249.515 376.879C252.131 376.651 254.086 378.425 254.297 380.833C254.508 383.242 252.89 385.329 250.274 385.558C247.658 385.787 245.702 384.013 245.491 381.604C245.281 379.195 246.898 377.108 249.515 376.879ZM250.138 383.641C251.431 383.528 252.313 382.405 252.191 381.018C252.069 379.614 251.006 378.678 249.714 378.791C248.374 378.908 247.474 380.016 247.597 381.42C247.72 382.823 248.798 383.758 250.138 383.641ZM256.497 384.692L255.793 376.652L257.819 376.474L257.875 377.112C258.386 376.521 259.1 376.041 260.168 375.947C261.907 375.795 263.4 376.87 263.608 379.247L264.026 384.033L261.985 384.212L261.573 379.506C261.479 378.437 260.814 377.82 259.825 377.906C258.804 377.996 258.322 378.729 258.064 379.266L258.523 384.514L256.497 384.692Z" fill="#3B69D1"/>
<path d="M280.917 380.211C280.729 380.227 280.566 380.177 280.427 380.061C280.289 379.945 280.211 379.793 280.195 379.604L279.904 376.281L276.58 376.572C276.392 376.588 276.228 376.538 276.09 376.422C275.951 376.306 275.874 376.153 275.858 375.965C275.841 375.777 275.891 375.613 276.007 375.475C276.123 375.336 276.276 375.259 276.464 375.242L279.788 374.952L279.497 371.628C279.48 371.44 279.53 371.276 279.647 371.137C279.763 370.999 279.915 370.922 280.103 370.905C280.292 370.889 280.455 370.939 280.594 371.055C280.732 371.171 280.81 371.323 280.826 371.512L281.117 374.835L284.44 374.544C284.629 374.528 284.792 374.578 284.93 374.694C285.069 374.81 285.147 374.963 285.163 375.151C285.18 375.339 285.13 375.503 285.013 375.641C284.897 375.78 284.745 375.857 284.557 375.874L281.233 376.165L281.524 379.488C281.54 379.676 281.491 379.84 281.375 379.978C281.258 380.117 281.106 380.194 280.917 380.211Z" fill="#3B69D1"/>
</g>
<g filter="url(#filter2_d_8452_5960)">
<rect x="28.0237" y="438.26" width="320.271" height="68.0575" rx="10" transform="rotate(-5 28.0237 438.26)" fill="white" shape-rendering="crispEdges"/>
<path d="M54.744 468.072L57.7352 467.81L57.2118 461.828L63.194 461.304L63.7174 467.287L66.7085 467.025L65.9234 458.052L59.5487 454.088L53.959 459.098L54.744 468.072ZM54.9185 470.066C54.3701 470.114 53.8838 469.96 53.4595 469.604C53.0344 469.247 52.7979 468.795 52.75 468.246L51.9649 459.273C51.9373 458.957 51.9819 458.652 52.0988 458.357C52.215 458.062 52.3897 457.812 52.623 457.608L58.2127 452.598C58.3838 452.449 58.5662 452.332 58.7598 452.248C58.9534 452.165 59.1582 452.113 59.3742 452.094C59.5902 452.075 59.8009 452.09 60.0061 452.139C60.2113 452.188 60.4111 452.271 60.6055 452.388L66.9803 456.352C67.2455 456.513 67.4613 456.728 67.6276 456.998C67.7932 457.269 67.8899 457.561 67.9175 457.877L68.7026 466.851C68.7505 467.399 68.5965 467.886 68.2406 468.311C67.8839 468.735 67.4313 468.971 66.8829 469.019L61.8978 469.455L61.3744 463.473L59.3803 463.647L59.9037 469.63L54.9185 470.066Z" fill="#646464"/>
<path d="M45.048 489.013L47.2191 481.791L48.4754 481.681L51.8677 488.417L50.8707 488.504L49.8834 486.521L46.6729 486.802L46.045 488.926L45.048 489.013ZM46.9113 485.967L49.5036 485.74L47.9188 482.553L46.9113 485.967ZM55.2686 487.516C55.8868 487.462 56.3691 487.119 56.6398 486.653L57.3523 487.103C56.9387 487.772 56.2457 488.235 55.3284 488.315C53.6634 488.461 52.4875 487.308 52.3593 485.842C52.2311 484.376 53.1889 483.037 54.8539 482.891C55.7612 482.812 56.5348 483.156 57.0575 483.733L56.4339 484.3C56.0865 483.888 55.5518 483.634 54.9237 483.689C53.8469 483.783 53.1533 484.697 53.2466 485.764C53.3409 486.841 54.1818 487.611 55.2686 487.516ZM60.653 487.045C61.2712 486.991 61.7535 486.648 62.0242 486.182L62.7367 486.632C62.323 487.301 61.6301 487.764 60.7128 487.844C59.0478 487.989 57.8719 486.836 57.7437 485.371C57.6154 483.905 58.5732 482.566 60.2383 482.42C61.1456 482.341 61.9192 482.685 62.4419 483.262L61.8183 483.829C61.4709 483.417 60.9362 483.163 60.3081 483.218C59.2313 483.312 58.5377 484.226 58.631 485.293C58.7252 486.37 59.5662 487.14 60.653 487.045ZM67.2825 484.898L67.0313 482.027L67.8788 481.952L68.1274 484.794C68.2591 486.299 67.4684 487.253 66.1025 487.372C64.7465 487.491 63.8024 486.689 63.6706 485.184L63.422 482.342L64.2695 482.268L64.5207 485.14C64.6071 486.127 65.1852 486.649 66.0427 486.574C66.8802 486.5 67.3689 485.885 67.2825 484.898ZM74.3829 485.613C73.9693 486.282 73.2564 486.746 72.3192 486.828C70.6242 486.977 69.4683 485.822 69.3401 484.356C69.2066 482.831 70.0799 481.559 71.6353 481.423C73.0012 481.303 73.9723 482.183 74.0805 483.419C74.0979 483.619 74.0846 483.811 74.0669 483.953L70.2084 484.29C70.3438 485.494 71.1752 486.155 72.252 486.061C72.9001 486.004 73.4223 485.657 73.7121 485.179L74.3829 485.613ZM71.6781 482.142C70.8506 482.215 70.3151 482.754 70.2115 483.637L73.2225 483.374C73.1281 482.638 72.5655 482.065 71.6781 482.142ZM75.6568 479.956C75.3277 479.985 75.035 479.739 75.0062 479.41C74.9783 479.091 75.2239 478.798 75.553 478.769C75.882 478.741 76.1648 478.987 76.1927 479.306C76.2215 479.635 75.9858 479.927 75.6568 479.956ZM75.7819 486.324L75.3423 481.299L76.1898 481.225L76.6294 486.25L75.7819 486.324ZM78.4206 486.094L77.7664 478.616L78.6139 478.542L79.2681 486.019L78.4206 486.094Z" fill="#646464"/>
<path d="M121.888 464.207C121.539 464.237 121.243 463.952 121.262 463.598L121.607 457.199L118.117 457.504C117.24 457.581 117.723 456.785 117.74 456.753C118.802 454.42 120.398 450.965 122.507 446.36C122.591 446.172 122.781 446.044 122.98 446.027C123.329 445.997 123.625 446.282 123.606 446.635L123.262 453.035L126.761 452.729C127.16 452.694 127.396 452.864 127.218 453.352C124.438 459.362 122.826 462.869 122.362 463.874C122.278 464.062 122.098 464.188 121.888 464.207Z" fill="#3B69D1"/>
<path d="M113.698 482.033L114.642 480.996C115.107 481.498 115.694 481.768 116.262 481.718C116.82 481.669 117.133 481.34 117.09 480.842C116.977 479.556 113.837 480.182 113.63 477.819C113.533 476.712 114.371 475.715 115.707 475.598C116.753 475.506 117.592 475.905 118.252 476.561L117.297 477.589C116.842 477.096 116.353 476.787 115.825 476.833C115.326 476.877 115.025 477.225 115.062 477.644C115.172 478.91 118.312 478.274 118.521 480.666C118.616 481.984 117.668 482.861 116.382 482.973C115.205 483.076 114.38 482.717 113.698 482.033ZM123.103 479.994L122.854 477.143L124.13 477.031L124.374 479.823C124.506 481.328 123.71 482.332 122.234 482.461C120.758 482.591 119.81 481.739 119.678 480.234L119.434 477.442L120.71 477.33L120.959 480.182C121.023 480.91 121.441 481.325 122.139 481.264C122.827 481.204 123.167 480.722 123.103 479.994ZM126.093 475.975C125.644 476.015 125.232 475.669 125.193 475.22C125.154 474.771 125.499 474.359 125.948 474.32C126.397 474.281 126.799 474.628 126.838 475.076C126.877 475.525 126.542 475.936 126.093 475.975ZM125.971 481.934L125.532 476.908L126.798 476.798L127.237 481.823L125.971 481.934ZM127.598 476.728L128.954 476.609L130.574 480.084L131.557 476.381L132.923 476.262L131.528 481.447L129.863 481.593L127.598 476.728ZM134.281 475.259C133.833 475.298 133.421 474.952 133.381 474.504C133.342 474.055 133.688 473.643 134.137 473.604C134.585 473.565 134.987 473.911 135.027 474.36C135.066 474.808 134.73 475.22 134.281 475.259ZM134.16 481.217L133.72 476.192L134.986 476.081L135.426 481.106L134.16 481.217Z" fill="#3B69D1"/>
<path d="M182.427 451.878L188.434 451.352C188.717 451.327 188.941 451.211 189.107 451.004C189.273 450.797 189.344 450.552 189.319 450.27C189.294 449.987 189.178 449.759 188.971 449.584C188.763 449.41 188.517 449.335 188.235 449.36L182.228 449.886C181.945 449.91 181.721 450.026 181.555 450.233C181.389 450.44 181.318 450.685 181.343 450.968C181.367 451.25 181.484 451.478 181.691 451.653C181.899 451.827 182.145 451.902 182.427 451.878ZM182.165 448.886L192.161 448.012C192.443 447.987 192.667 447.871 192.833 447.664C193 447.457 193.07 447.212 193.046 446.93C193.021 446.647 192.904 446.419 192.696 446.244C192.489 446.07 192.244 445.995 191.961 446.02L181.966 446.895C181.683 446.919 181.459 447.035 181.293 447.242C181.127 447.449 181.056 447.694 181.081 447.977C181.106 448.259 181.222 448.487 181.429 448.661C181.638 448.836 181.883 448.911 182.165 448.886ZM181.904 445.895L191.899 445.021C192.181 444.996 192.406 444.88 192.572 444.674C192.738 444.466 192.809 444.221 192.784 443.939C192.759 443.656 192.643 443.428 192.435 443.253C192.227 443.079 191.982 443.004 191.7 443.029L181.704 443.903C181.422 443.928 181.197 444.044 181.031 444.251C180.865 444.458 180.795 444.703 180.819 444.985C180.844 445.268 180.96 445.497 181.168 445.671C181.376 445.845 181.621 445.92 181.904 445.895ZM177.928 457.872L176.57 442.343C176.522 441.795 176.676 441.308 177.033 440.883C177.389 440.459 177.841 440.223 178.389 440.175L194.342 438.779C194.89 438.731 195.377 438.885 195.802 439.241C196.226 439.598 196.462 440.05 196.51 440.599L197.557 452.563C197.605 453.112 197.451 453.598 197.095 454.023C196.738 454.448 196.286 454.684 195.737 454.732L181.779 455.953L179.686 458.447C179.398 458.79 179.043 458.892 178.62 458.753C178.198 458.614 177.967 458.321 177.928 457.872ZM179.713 455.305L180.782 454.031L195.563 452.738L194.516 440.773L178.564 442.169L179.713 455.305Z" fill="#646464"/>
<path d="M168.476 478.215L167.865 471.236L169.061 471.131L171.503 474.464L173.329 470.758L174.525 470.653L175.136 477.632L174.199 477.714L173.698 471.991L171.955 475.499L171.237 475.562L168.912 472.41L169.413 478.133L168.476 478.215ZM181.482 476.243C181.068 476.912 180.355 477.376 179.418 477.458C177.723 477.607 176.567 476.452 176.439 474.986C176.306 473.461 177.179 472.189 178.734 472.053C180.1 471.933 181.071 472.813 181.179 474.049C181.197 474.249 181.184 474.441 181.166 474.583L177.307 474.92C177.443 476.124 178.274 476.785 179.351 476.691C179.999 476.634 180.521 476.287 180.811 475.809L181.482 476.243ZM178.777 472.772C177.95 472.845 177.414 473.384 177.31 474.267L180.322 474.004C180.227 473.269 179.665 472.695 178.777 472.772ZM182.243 476.317L182.797 475.756C183.184 476.164 183.625 476.377 184.134 476.333C184.692 476.284 184.981 475.917 184.943 475.478C184.844 474.351 182.367 474.97 182.211 473.195C182.142 472.408 182.754 471.701 183.721 471.617C184.439 471.554 185.087 471.839 185.478 472.297L184.934 472.847C184.631 472.491 184.232 472.285 183.793 472.324C183.254 472.371 182.993 472.715 183.027 473.104C183.126 474.231 185.617 473.651 185.767 475.366C185.839 476.304 185.143 476.958 184.205 477.04C183.408 477.109 182.752 476.845 182.243 476.317ZM186.625 475.934L187.179 475.373C187.566 475.781 188.007 475.994 188.515 475.949C189.073 475.9 189.363 475.533 189.324 475.095C189.226 473.968 186.748 474.587 186.593 472.812C186.524 472.024 187.135 471.318 188.102 471.233C188.82 471.17 189.468 471.455 189.86 471.913L189.315 472.463C189.013 472.108 188.613 471.902 188.174 471.94C187.636 471.987 187.375 472.332 187.409 472.721C187.507 473.847 189.998 473.268 190.148 474.983C190.22 475.921 189.524 476.574 188.587 476.656C187.789 476.726 187.133 476.462 186.625 475.934ZM193.003 476.21C192.016 476.296 191.3 475.806 191.225 474.949C191.158 474.191 191.689 473.602 192.741 473.329L194.411 472.902L194.381 472.553C194.32 471.855 193.786 471.5 193.068 471.562C192.49 471.613 192.045 471.923 191.773 472.379L191.092 471.946C191.479 471.31 192.154 470.879 193.032 470.802C194.308 470.69 195.131 471.372 195.228 472.479L195.523 475.849L194.675 475.923L194.62 475.285C194.283 475.806 193.651 476.153 193.003 476.21ZM192.079 474.844C192.117 475.272 192.493 475.551 193.081 475.5C193.749 475.441 194.27 475.074 194.552 474.507L194.465 473.52L193.001 473.899C192.324 474.079 192.042 474.415 192.079 474.844ZM196.724 476.658C196.68 476.149 196.893 475.719 197.361 475.326C197.116 475.167 196.973 474.908 196.949 474.639C196.915 474.24 197.095 473.893 197.462 473.609C196.995 473.319 196.691 472.833 196.642 472.274C196.557 471.307 197.244 470.423 198.44 470.319C198.809 470.287 199.145 470.337 199.426 470.444L201.29 470.28L201.355 471.018L200.268 471.113C200.429 471.35 200.524 471.633 200.55 471.933C200.634 472.89 199.958 473.773 198.752 473.878C198.502 473.9 198.26 473.881 198.045 473.84C197.849 474.007 197.745 474.197 197.761 474.387C197.78 474.596 197.902 474.736 198.211 474.709L199.647 474.583C200.973 474.467 201.648 475.061 201.727 475.959C201.819 477.016 200.831 477.896 199.326 478.027C197.84 478.157 196.812 477.665 196.724 476.658ZM198.703 473.209C199.431 473.146 199.806 472.61 199.753 472.002C199.699 471.384 199.236 470.922 198.509 470.986C197.761 471.051 197.396 471.586 197.45 472.204C197.504 472.822 197.955 473.275 198.703 473.209ZM197.543 476.486C197.596 477.094 198.257 477.408 199.254 477.32C200.311 477.228 200.942 476.751 200.884 476.093C200.842 475.614 200.54 475.259 199.643 475.337L198.018 475.48C197.691 475.769 197.508 476.087 197.543 476.486ZM206.934 474.016C206.52 474.685 205.807 475.15 204.87 475.232C203.175 475.38 202.019 474.225 201.891 472.76C201.757 471.234 202.631 469.962 204.186 469.826C205.552 469.707 206.523 470.586 206.631 471.822C206.649 472.022 206.635 472.214 206.618 472.356L202.759 472.694C202.895 473.898 203.726 474.558 204.803 474.464C205.451 474.407 205.973 474.06 206.263 473.583L206.934 474.016ZM204.229 470.546C203.401 470.618 202.866 471.157 202.762 472.04L205.773 471.777C205.679 471.042 205.116 470.468 204.229 470.546ZM207.695 474.09L208.249 473.53C208.636 473.938 209.077 474.15 209.585 474.106C210.144 474.057 210.433 473.69 210.395 473.251C210.296 472.125 207.818 472.743 207.663 470.969C207.594 470.181 208.206 469.474 209.173 469.39C209.891 469.327 210.538 469.612 210.93 470.07L210.385 470.62C210.083 470.265 209.683 470.058 209.245 470.097C208.706 470.144 208.445 470.488 208.479 470.877C208.578 472.004 211.069 471.424 211.219 473.139C211.291 474.077 210.594 474.731 209.657 474.813C208.86 474.883 208.203 474.619 207.695 474.09Z" fill="#646464"/>
<path d="M259.649 451.451L253.577 446.356C253.113 446.798 252.567 447.164 251.94 447.454C251.312 447.743 250.633 447.92 249.901 447.984C248.09 448.142 246.503 447.649 245.138 446.505C243.774 445.359 243.012 443.881 242.854 442.07C242.695 440.259 243.189 438.671 244.334 437.306C245.478 435.942 246.956 435.181 248.767 435.022C250.579 434.864 252.167 435.357 253.531 436.501C254.895 437.646 255.657 439.125 255.815 440.936C255.879 441.667 255.823 442.367 255.647 443.035C255.471 443.704 255.206 444.305 254.851 444.838L260.95 449.956C261.148 450.123 261.259 450.339 261.283 450.605C261.306 450.871 261.226 451.112 261.045 451.329C260.878 451.528 260.653 451.639 260.371 451.664C260.088 451.689 259.847 451.618 259.649 451.451ZM249.727 445.99C250.973 445.881 251.995 445.352 252.791 444.403C253.587 443.454 253.93 442.357 253.821 441.11C253.712 439.864 253.183 438.843 252.235 438.046C251.286 437.251 250.188 436.907 248.942 437.016C247.696 437.125 246.674 437.654 245.878 438.602C245.082 439.551 244.739 440.649 244.848 441.895C244.957 443.142 245.486 444.163 246.434 444.96C247.383 445.755 248.481 446.099 249.727 445.99Z" fill="#646464"/>
<path d="M236.706 472.245L236.096 465.266L239.845 464.938L239.914 465.736L237.103 465.982L237.298 468.215L239.711 468.004L239.78 468.792L237.367 469.003L237.574 471.366L240.385 471.12L240.455 471.917L236.706 472.245ZM242.057 471.777L241.617 466.752L242.464 466.678L242.512 467.227C242.853 466.755 243.324 466.402 244.022 466.341C244.75 466.277 245.377 466.554 245.742 467.165C246.093 466.582 246.585 466.117 247.452 466.041C248.529 465.947 249.379 466.596 249.499 467.962L249.774 471.102L248.926 471.176L248.654 468.066C248.581 467.228 248.07 466.791 247.352 466.853C246.714 466.909 246.297 467.307 246.019 467.924C246.039 468.033 246.059 468.142 246.069 468.262L246.344 471.402L245.496 471.476L245.224 468.366C245.151 467.528 244.65 467.09 243.923 467.153C243.235 467.214 242.843 467.68 242.6 468.224L242.904 471.703L242.057 471.777ZM251.696 473.406L251.042 465.928L251.89 465.854L251.942 466.452C252.346 465.904 252.909 465.563 253.657 465.498C255.232 465.36 256.348 466.518 256.476 467.984C256.605 469.45 255.707 470.784 254.131 470.922C253.384 470.987 252.77 470.75 252.277 470.28L252.544 473.331L251.696 473.406ZM253.627 466.304C252.929 466.365 252.35 466.758 252.024 467.389L252.195 469.343C252.637 469.917 253.274 470.193 253.962 470.133C255.029 470.04 255.682 469.129 255.589 468.062C255.496 466.995 254.694 466.211 253.627 466.304ZM258.064 470.377L257.409 462.899L258.257 462.825L258.911 470.303L258.064 470.377ZM262.538 464.721C264.154 464.58 265.369 465.729 265.498 467.195C265.626 468.66 264.628 470.004 263.013 470.145C261.388 470.287 260.182 469.137 260.054 467.671C259.926 466.205 260.913 464.863 262.538 464.721ZM262.953 469.346C264 469.255 264.691 468.31 264.6 467.273C264.509 466.226 263.665 465.426 262.618 465.518C261.541 465.612 260.85 466.547 260.941 467.593C261.033 468.64 261.876 469.441 262.953 469.346ZM266.955 463.219C266.626 463.248 266.333 463.003 266.304 462.674C266.276 462.354 266.522 462.062 266.851 462.033C267.18 462.004 267.463 462.251 267.491 462.57C267.519 462.899 267.284 463.191 266.955 463.219ZM267.08 469.588L266.64 464.563L267.488 464.489L267.927 469.514L267.08 469.588ZM269.081 468.72L269.635 468.159C270.022 468.567 270.463 468.78 270.971 468.735C271.529 468.686 271.819 468.32 271.78 467.881C271.682 466.754 269.204 467.373 269.049 465.598C268.98 464.81 269.591 464.104 270.558 464.019C271.276 463.957 271.924 464.241 272.316 464.699L271.771 465.249C271.469 464.894 271.069 464.688 270.63 464.726C270.092 464.773 269.831 465.118 269.865 465.507C269.963 466.633 272.454 466.054 272.604 467.769C272.677 468.707 271.98 469.36 271.043 469.442C270.245 469.512 269.589 469.248 269.081 468.72Z" fill="#646464"/>
<path d="M314.253 442.856C313.556 442.917 312.945 442.728 312.42 442.288C311.896 441.848 311.604 441.279 311.543 440.581C311.482 439.883 311.671 439.272 312.111 438.748C312.551 438.224 313.119 437.932 313.817 437.871C314.515 437.81 315.126 437.999 315.65 438.439C316.174 438.879 316.467 439.447 316.528 440.145C316.589 440.843 316.4 441.454 315.96 441.978C315.52 442.502 314.951 442.795 314.253 442.856ZM310.745 448.689C310.197 448.737 309.71 448.583 309.285 448.227C308.861 447.87 308.625 447.417 308.577 446.869L307.355 432.91C307.307 432.362 307.461 431.876 307.817 431.451C308.174 431.026 308.627 430.79 309.175 430.742L310.172 430.655L310.085 429.658C310.06 429.375 310.135 429.13 310.309 428.922C310.483 428.714 310.712 428.598 310.995 428.573C311.277 428.549 311.522 428.623 311.73 428.797C311.938 428.972 312.054 429.201 312.079 429.483L312.166 430.48L320.142 429.782L320.055 428.785C320.03 428.503 320.105 428.258 320.28 428.049C320.454 427.842 320.682 427.726 320.965 427.701C321.247 427.676 321.492 427.751 321.7 427.925C321.908 428.1 322.024 428.328 322.049 428.611L322.136 429.608L323.133 429.521C323.682 429.473 324.169 429.627 324.594 429.984C325.018 430.34 325.254 430.792 325.302 431.34L326.523 445.299C326.571 445.847 326.417 446.334 326.061 446.759C325.705 447.183 325.252 447.419 324.704 447.467L310.745 448.689ZM310.571 446.694L324.529 445.473L323.657 435.503L309.698 436.724L310.571 446.694ZM309.524 434.73L323.482 433.509L323.308 431.515L309.349 432.736L309.524 434.73Z" fill="#646464"/>
<path d="M292.764 459.706L291.897 459.781L292.905 458.337L293.922 458.248L292.764 459.706ZM291.094 467.487L290.483 460.508L294.232 460.18L294.302 460.978L291.49 461.224L291.686 463.457L294.098 463.246L294.167 464.033L291.755 464.245L291.961 466.608L294.773 466.362L294.843 467.159L291.094 467.487ZM295.081 462.075L295.998 461.995L297.966 465.992L299.209 461.714L300.126 461.633L298.602 466.83L297.485 466.928L295.081 462.075ZM303.57 460.528L302.742 460.601L303.634 458.855L304.591 458.771L303.57 460.528ZM305.921 465.356C305.507 466.025 304.794 466.489 303.857 466.571C302.162 466.72 301.006 465.565 300.878 464.099C300.745 462.574 301.618 461.302 303.173 461.166C304.539 461.046 305.51 461.926 305.619 463.162C305.636 463.362 305.623 463.554 305.605 463.696L301.746 464.033C301.882 465.237 302.713 465.898 303.79 465.804C304.438 465.747 304.96 465.4 305.25 464.922L305.921 465.356ZM303.216 461.885C302.389 461.958 301.853 462.497 301.75 463.38L304.761 463.117C304.666 462.382 304.104 461.808 303.216 461.885ZM307.32 466.068L306.88 461.042L307.728 460.968L307.778 461.537C308.147 461.052 308.638 460.688 309.385 460.622C310.512 460.524 311.416 461.208 311.541 462.634L311.807 465.675L310.959 465.749L310.696 462.738C310.617 461.841 310.063 461.367 309.286 461.435C308.558 461.499 308.136 461.957 307.863 462.514L308.167 465.993L307.32 466.068ZM317.907 464.307C317.493 464.977 316.78 465.441 315.843 465.523C314.148 465.671 312.992 464.516 312.864 463.051C312.731 461.525 313.604 460.253 315.159 460.117C316.525 459.998 317.496 460.877 317.604 462.114C317.622 462.313 317.609 462.505 317.591 462.647L313.732 462.985C313.868 464.189 314.699 464.849 315.776 464.755C316.424 464.698 316.946 464.351 317.236 463.874L317.907 464.307ZM315.202 460.837C314.375 460.909 313.839 461.448 313.735 462.332L316.746 462.068C316.652 461.333 316.089 460.759 315.202 460.837ZM319.306 465.019L318.866 459.994L319.714 459.92L319.762 460.468C320.102 459.996 320.574 459.644 321.272 459.582C321.999 459.519 322.626 459.795 322.991 460.407C323.342 459.823 323.834 459.358 324.701 459.282C325.778 459.188 326.629 459.837 326.748 461.203L327.023 464.344L326.175 464.418L325.903 461.307C325.83 460.47 325.32 460.032 324.602 460.095C323.964 460.151 323.546 460.549 323.269 461.166C323.288 461.275 323.308 461.384 323.318 461.503L323.593 464.644L322.746 464.718L322.473 461.607C322.4 460.77 321.9 460.331 321.172 460.395C320.484 460.455 320.093 460.921 319.849 461.465L320.153 464.945L319.306 465.019ZM333.125 462.976C332.712 463.645 331.999 464.109 331.062 464.191C329.367 464.34 328.211 463.185 328.082 461.719C327.949 460.194 328.822 458.922 330.378 458.786C331.744 458.666 332.715 459.546 332.823 460.782C332.84 460.982 332.827 461.174 332.809 461.316L328.951 461.653C329.086 462.857 329.918 463.518 330.994 463.424C331.642 463.367 332.165 463.02 332.454 462.542L333.125 462.976ZM330.421 459.505C329.593 459.578 329.057 460.117 328.954 461L331.965 460.737C331.87 460.001 331.308 459.428 330.421 459.505ZM334.524 463.687L334.085 458.662L334.932 458.588L334.982 459.157C335.351 458.672 335.842 458.308 336.59 458.242C337.716 458.144 338.62 458.828 338.745 460.254L339.011 463.295L338.163 463.369L337.9 460.358C337.822 459.461 337.268 458.987 336.49 459.055C335.762 459.118 335.34 459.577 335.067 460.134L335.372 463.613L334.524 463.687ZM340.859 461.435L340.634 458.863L339.686 458.946L339.619 458.178L340.566 458.095L340.456 456.839L341.314 456.764L341.424 458.02L343.169 457.868L343.236 458.635L341.491 458.788L341.716 461.36C341.785 462.148 342.203 462.333 342.811 462.279C343.14 462.251 343.366 462.191 343.548 462.094L343.615 462.852C343.384 462.973 343.118 463.036 342.76 463.067C341.643 463.165 340.966 462.662 340.859 461.435ZM344.305 462.139L344.859 461.578C345.246 461.986 345.687 462.199 346.195 462.154C346.753 462.105 347.043 461.738 347.005 461.3C346.906 460.173 344.428 460.792 344.273 459.017C344.204 458.229 344.815 457.523 345.783 457.438C346.5 457.375 347.148 457.66 347.54 458.118L346.995 458.668C346.693 458.313 346.293 458.107 345.854 458.145C345.316 458.192 345.055 458.537 345.089 458.925C345.187 460.052 347.679 459.472 347.829 461.187C347.901 462.125 347.204 462.779 346.267 462.861C345.469 462.931 344.813 462.667 344.305 462.139Z" fill="#646464"/>
</g>
<defs>
<filter id="filter0_d_8452_5960" x="26.022" y="275.233" width="315.354" height="97.0002" filterUnits="userSpaceOnUse" color-interpolation-filters="sRGB">
<feFlood flood-opacity="0" result="BackgroundImageFix"/>
<feColorMatrix in="SourceAlpha" type="matrix" values="0 0 0 0 0 0 0 0 0 0 0 0 0 0 0 0 0 0 127 0" result="hardAlpha"/>
<feOffset dy="4"/>
<feGaussianBlur stdDeviation="6"/>
<feComposite in2="hardAlpha" operator="out"/>
<feColorMatrix type="matrix" values="0 0 0 0 0.152941 0 0 0 0 0.286275 0 0 0 0 0.588235 0 0 0 0.12 0"/>
<feBlend mode="normal" in2="BackgroundImageFix" result="effect1_dropShadow_8452_5960"/>
<feBlend mode="normal" in="SourceGraphic" in2="effect1_dropShadow_8452_5960" result="shape"/>
</filter>
<filter id="filter1_d_8452_5960" x="31.6048" y="339.043" width="315.354" height="97.0002" filterUnits="userSpaceOnUse" color-interpolation-filters="sRGB">
<feFlood flood-opacity="0" result="BackgroundImageFix"/>
<feColorMatrix in="SourceAlpha" type="matrix" values="0 0 0 0 0 0 0 0 0 0 0 0 0 0 0 0 0 0 127 0" result="hardAlpha"/>
<feOffset dy="4"/>
<feGaussianBlur stdDeviation="6"/>
<feComposite in2="hardAlpha" operator="out"/>
<feColorMatrix type="matrix" values="0 0 0 0 0.152941 0 0 0 0 0.286275 0 0 0 0 0.588235 0 0 0 0.12 0"/>
<feBlend mode="normal" in2="BackgroundImageFix" result="effect1_dropShadow_8452_5960"/>
<feBlend mode="normal" in="SourceGraphic" in2="effect1_dropShadow_8452_5960" result="shape"/>
</filter>
<filter id="filter2_d_8452_5960" x="16.0135" y="406.343" width="349.004" height="119.732" filterUnits="userSpaceOnUse" color-interpolation-filters="sRGB">
<feFlood flood-opacity="0" result="BackgroundImageFix"/>
<feColorMatrix in="SourceAlpha" type="matrix" values="0 0 0 0 0 0 0 0 0 0 0 0 0 0 0 0 0 0 127 0" result="hardAlpha"/>
<feOffset dy="8"/>
<feGaussianBlur stdDeviation="6"/>
<feComposite in2="hardAlpha" operator="out"/>
<feColorMatrix type="matrix" values="0 0 0 0 0.152941 0 0 0 0 0.286275 0 0 0 0 0.588235 0 0 0 0.24 0"/>
<feBlend mode="normal" in2="BackgroundImageFix" result="effect1_dropShadow_8452_5960"/>
<feBlend mode="normal" in="SourceGraphic" in2="effect1_dropShadow_8452_5960" result="shape"/>
</filter>
</defs>
</svg>
