<svg width="352" height="345" viewBox="0 0 352 345" fill="none" xmlns="http://www.w3.org/2000/svg">
<rect x="18.763" y="241.777" width="326.577" height="84.4637" rx="11.4995" transform="rotate(-5 18.763 241.777)" fill="#F1F1F1" stroke="#878787" stroke-width="0.999955" stroke-dasharray="5 5"/>
<g filter="url(#filter0_d_4866_12777)">
<rect y="263.117" width="328.593" height="82.1483" rx="16" transform="rotate(-5 0 263.117)" fill="white"/>
</g>
<path d="M33.6022 301.256L36.1484 301.033L35.7029 295.941L40.7953 295.495L41.2408 300.588L43.7871 300.365L43.1188 292.726L37.6922 289.353L32.9339 293.618L33.6022 301.256ZM33.7507 302.954C33.2839 302.994 32.8699 302.863 32.5087 302.56C32.1469 302.257 31.9455 301.871 31.9047 301.405L31.2364 293.766C31.2129 293.497 31.2509 293.237 31.3504 292.986C31.4493 292.735 31.598 292.523 31.7966 292.349L36.5549 288.084C36.7006 287.957 36.8558 287.858 37.0206 287.786C37.1854 287.715 37.3598 287.671 37.5437 287.655C37.7276 287.639 37.9069 287.652 38.0816 287.694C38.2563 287.735 38.4264 287.806 38.5919 287.906L44.0185 291.279C44.2442 291.416 44.4279 291.6 44.5695 291.83C44.7105 292.06 44.7927 292.309 44.8163 292.578L45.4845 300.217C45.5254 300.683 45.3943 301.098 45.0913 301.459C44.7876 301.821 44.4024 302.022 43.9356 302.063L39.6919 302.434L39.2463 297.341L37.5489 297.49L37.9944 302.582L33.7507 302.954Z" fill="#646464"/>
<path d="M22.7404 320.966L23.7589 320.876L24.4003 318.706L27.6799 318.419L28.6884 320.445L29.7069 320.356L26.2416 313.475L24.9583 313.588L22.7404 320.966ZM24.6439 317.854L25.673 314.367L27.292 317.622L24.6439 317.854ZM33.181 319.436C32.0708 319.534 31.2117 318.747 31.1155 317.647C31.0202 316.557 31.7287 315.623 32.8286 315.526C33.4703 315.47 34.0164 315.73 34.3714 316.151L35.0083 315.572C34.4744 314.982 33.6842 314.63 32.7573 314.711C31.0565 314.86 30.0781 316.229 30.2091 317.726C30.34 319.223 31.5412 320.401 33.2421 320.252C34.1791 320.17 34.8869 319.698 35.3095 319.014L34.5817 318.554C34.3051 319.03 33.8124 319.381 33.181 319.436ZM38.6812 318.955C37.5711 319.052 36.712 318.265 36.6157 317.165C36.5204 316.076 37.2289 315.141 38.3289 315.045C38.9705 314.989 39.5167 315.249 39.8716 315.67L40.5086 315.09C39.9746 314.501 39.1844 314.149 38.2576 314.23C36.5567 314.379 35.5783 315.748 35.7093 317.245C35.8403 318.742 37.0414 319.92 38.7423 319.771C39.6793 319.689 40.3872 319.216 40.8097 318.533L40.0819 318.073C39.8054 318.549 39.3127 318.9 38.6812 318.955ZM45.4534 316.762C45.5416 317.77 45.0424 318.399 44.1869 318.473C43.311 318.55 42.7204 318.017 42.6322 317.009L42.3755 314.075L41.5098 314.151L41.7638 317.054C41.8983 318.592 42.8628 319.41 44.248 319.289C45.6433 319.167 46.451 318.193 46.3164 316.655L46.0625 313.753L45.1967 313.828L45.4534 316.762ZM52.7066 317.492L52.0212 317.049C51.7252 317.537 51.1918 317.891 50.5298 317.949C49.4298 318.046 48.5805 317.371 48.4422 316.141L52.3837 315.796C52.4018 315.651 52.4154 315.455 52.3976 315.251C52.2871 313.988 51.2951 313.09 49.8998 313.212C48.3109 313.351 47.4189 314.65 47.5552 316.208C47.6862 317.706 48.867 318.885 50.5984 318.734C51.5558 318.65 52.284 318.176 52.7066 317.492ZM49.9436 313.947C50.85 313.868 51.4247 314.454 51.5212 315.205L48.4454 315.474C48.5512 314.572 49.0982 314.021 49.9436 313.947ZM54.0078 311.713C54.3439 311.684 54.5846 311.386 54.5552 311.049C54.5267 310.724 54.2379 310.472 53.9018 310.501C53.5657 310.531 53.3147 310.83 53.3432 311.156C53.3726 311.492 53.6717 311.743 54.0078 311.713ZM54.1357 318.219L55.0014 318.143L54.5523 313.01L53.6866 313.086L54.1357 318.219ZM56.8311 317.983L57.6968 317.907L57.0285 310.269L56.1628 310.344L56.8311 317.983Z" fill="#646464"/>
<g clip-path="url(#clip0_4866_12777)">
<path d="M120.412 284.716L123.161 281.439C123.316 281.255 123.507 281.156 123.734 281.143C123.961 281.131 124.167 281.202 124.352 281.357C124.522 281.513 124.617 281.704 124.637 281.93C124.657 282.157 124.596 282.362 124.455 282.545L121.185 286.466C121.03 286.65 120.84 286.753 120.613 286.772C120.387 286.792 120.182 286.725 119.997 286.57L118.012 284.905C117.843 284.763 117.748 284.571 117.727 284.331C117.706 284.09 117.767 283.886 117.909 283.716C118.051 283.547 118.242 283.452 118.482 283.431C118.723 283.41 118.928 283.47 119.097 283.612L120.412 284.716ZM108.994 286.421C108.754 286.442 108.545 286.378 108.368 286.229C108.191 286.081 108.092 285.887 108.071 285.646C108.05 285.406 108.114 285.197 108.263 285.02C108.411 284.843 108.605 284.744 108.846 284.723L114.787 284.203C115.027 284.182 115.236 284.246 115.413 284.394C115.59 284.543 115.689 284.737 115.71 284.978C115.731 285.218 115.667 285.427 115.519 285.603C115.37 285.781 115.176 285.88 114.935 285.901L108.994 286.421ZM121.5 292.51L120.029 294.264C119.887 294.433 119.695 294.528 119.455 294.549C119.214 294.571 119.01 294.51 118.84 294.368C118.671 294.226 118.576 294.035 118.555 293.794C118.534 293.554 118.594 293.349 118.736 293.18L120.208 291.426L118.454 289.955C118.285 289.813 118.19 289.621 118.169 289.381C118.148 289.14 118.208 288.936 118.35 288.766C118.492 288.597 118.684 288.502 118.924 288.481C119.165 288.46 119.369 288.52 119.539 288.662L121.292 290.134L122.764 288.38C122.906 288.211 123.097 288.116 123.337 288.095C123.578 288.074 123.783 288.134 123.952 288.276C124.121 288.418 124.216 288.61 124.237 288.85C124.258 289.09 124.198 289.295 124.056 289.465L122.584 291.218L124.338 292.69C124.507 292.832 124.602 293.023 124.624 293.263C124.645 293.504 124.584 293.709 124.442 293.878C124.3 294.047 124.109 294.142 123.868 294.163C123.628 294.184 123.423 294.124 123.254 293.982L121.5 292.51ZM109.588 293.21C109.348 293.232 109.139 293.168 108.962 293.019C108.785 292.871 108.686 292.676 108.665 292.436C108.644 292.196 108.708 291.987 108.857 291.809C109.005 291.633 109.199 291.534 109.44 291.513L115.381 290.993C115.621 290.972 115.83 291.036 116.007 291.184C116.184 291.333 116.283 291.527 116.304 291.768C116.325 292.008 116.261 292.217 116.113 292.393C115.964 292.571 115.77 292.67 115.529 292.691L109.588 293.21Z" fill="#646464"/>
</g>
<path d="M97.2017 314.764L98.1591 314.68L97.6476 308.834L100.023 312.054L100.756 311.99L102.536 308.406L103.048 314.252L104.005 314.168L103.381 307.039L102.159 307.146L100.294 310.932L97.8002 307.527L96.578 307.634L97.2017 314.764ZM107.875 308.452C106.215 308.597 105.206 309.969 105.337 311.466C105.468 312.963 106.699 314.138 108.359 313.993C110.009 313.848 111.029 312.476 110.898 310.979C110.767 309.482 109.525 308.308 107.875 308.452ZM108.298 313.177C107.198 313.273 106.337 312.456 106.243 311.386C106.149 310.317 106.856 309.362 107.956 309.266C109.026 309.173 109.887 309.99 109.981 311.059C110.074 312.119 109.368 313.084 108.298 313.177ZM112.514 313.424L113.38 313.348L113.069 309.794C113.347 309.225 113.778 308.757 114.522 308.692C115.316 308.622 115.882 309.106 115.962 310.023L116.231 313.099L117.097 313.023L116.825 309.917C116.698 308.46 115.775 307.761 114.624 307.862C113.86 307.929 113.359 308.301 112.981 308.796L112.93 308.215L112.065 308.291L112.514 313.424ZM120.973 311.976C121.493 312.515 122.163 312.785 122.978 312.714C123.935 312.63 124.646 311.962 124.573 311.004C124.419 309.252 121.875 309.844 121.774 308.693C121.739 308.296 122.006 307.945 122.556 307.896C123.004 307.857 123.413 308.068 123.721 308.431L124.278 307.869C123.878 307.401 123.216 307.11 122.483 307.174C121.495 307.261 120.87 307.982 120.941 308.787C121.099 310.6 123.63 309.968 123.731 311.119C123.77 311.567 123.474 311.942 122.904 311.992C122.385 312.037 121.935 311.82 121.539 311.403L120.973 311.976ZM129.483 309.723C129.571 310.731 129.072 311.36 128.216 311.435C127.34 311.511 126.75 310.978 126.662 309.97L126.405 307.036L125.539 307.112L125.793 310.015C125.928 311.553 126.892 312.371 128.277 312.25C129.673 312.128 130.48 311.154 130.346 309.616L130.092 306.714L129.226 306.789L129.483 309.723ZM132.119 305.192C132.455 305.163 132.696 304.864 132.667 304.528C132.638 304.202 132.349 303.951 132.013 303.98C131.677 304.009 131.426 304.308 131.455 304.634C131.484 304.97 131.783 305.221 132.119 305.192ZM132.247 311.698L133.113 311.622L132.664 306.489L131.798 306.564L132.247 311.698ZM133.719 306.396L136.175 311.354L137.316 311.254L138.873 305.945L137.936 306.027L136.666 310.398L134.656 306.314L133.719 306.396ZM140.255 304.48C140.591 304.451 140.832 304.153 140.803 303.816C140.774 303.491 140.485 303.239 140.149 303.268C139.813 303.298 139.562 303.597 139.591 303.922C139.62 304.259 139.919 304.51 140.255 304.48ZM140.383 310.986L141.249 310.91L140.8 305.777L139.934 305.853L140.383 310.986Z" fill="#646464"/>
<path d="M199.458 281.793L204.571 281.345C204.812 281.324 205.003 281.226 205.144 281.049C205.285 280.873 205.346 280.665 205.325 280.424C205.304 280.184 205.205 279.989 205.028 279.84C204.851 279.692 204.642 279.629 204.402 279.65L199.288 280.097C199.047 280.118 198.856 280.217 198.715 280.393C198.574 280.569 198.514 280.778 198.535 281.018C198.556 281.259 198.654 281.453 198.831 281.601C199.008 281.75 199.217 281.814 199.458 281.793ZM199.235 279.247L207.743 278.502C207.984 278.481 208.175 278.382 208.316 278.206C208.458 278.03 208.518 277.821 208.497 277.581C208.476 277.34 208.377 277.146 208.199 276.997C208.023 276.849 207.814 276.785 207.574 276.806L199.065 277.551C198.825 277.572 198.634 277.67 198.492 277.846C198.351 278.023 198.291 278.232 198.312 278.472C198.333 278.713 198.432 278.907 198.608 279.055C198.786 279.204 198.994 279.268 199.235 279.247ZM199.012 276.7L207.521 275.956C207.761 275.935 207.952 275.836 208.094 275.66C208.235 275.484 208.295 275.275 208.274 275.035C208.253 274.794 208.154 274.6 207.977 274.451C207.8 274.303 207.591 274.239 207.351 274.26L198.842 275.005C198.602 275.026 198.411 275.124 198.27 275.3C198.128 275.477 198.068 275.685 198.089 275.926C198.11 276.166 198.209 276.361 198.386 276.51C198.563 276.658 198.772 276.721 199.012 276.7ZM195.628 286.896L194.471 273.677C194.431 273.21 194.562 272.795 194.866 272.434C195.169 272.072 195.554 271.871 196.02 271.831L209.6 270.643C210.067 270.602 210.481 270.733 210.843 271.036C211.204 271.339 211.405 271.725 211.446 272.191L212.337 282.376C212.378 282.843 212.247 283.257 211.944 283.619C211.64 283.98 211.255 284.182 210.788 284.222L198.906 285.262L197.125 287.385C196.879 287.677 196.577 287.764 196.217 287.646C195.858 287.528 195.661 287.278 195.628 286.896ZM197.147 284.71L198.057 283.626L210.64 282.525L209.749 272.34L196.169 273.528L197.147 284.71Z" fill="#646464"/>
<path d="M186.532 305.959L187.489 305.875L186.978 300.029L189.353 303.249L190.086 303.185L191.866 299.601L192.378 305.448L193.335 305.364L192.712 298.234L191.489 298.341L189.624 302.127L187.13 298.723L185.908 298.83L186.532 305.959ZM199.818 303.945L199.133 303.502C198.837 303.99 198.303 304.344 197.641 304.402C196.541 304.498 195.692 303.823 195.554 302.594L199.495 302.249C199.513 302.104 199.527 301.907 199.509 301.704C199.399 300.441 198.407 299.542 197.011 299.664C195.422 299.803 194.53 301.103 194.667 302.661C194.798 304.158 195.978 305.338 197.71 305.186C198.667 305.103 199.395 304.628 199.818 303.945ZM197.055 300.4C197.962 300.32 198.536 300.906 198.633 301.657L195.557 301.926C195.663 301.024 196.21 300.474 197.055 300.4ZM200.596 304.02C201.115 304.56 201.785 304.83 202.6 304.759C203.558 304.675 204.269 304.007 204.195 303.049C204.042 301.297 201.497 301.889 201.397 300.738C201.362 300.341 201.629 299.989 202.179 299.941C202.627 299.902 203.035 300.112 203.344 300.475L203.9 299.914C203.5 299.446 202.839 299.155 202.105 299.219C201.117 299.305 200.493 300.027 200.563 300.832C200.722 302.644 203.253 302.013 203.353 303.163C203.393 303.612 203.097 303.986 202.527 304.036C202.007 304.082 201.557 303.865 201.162 303.448L200.596 304.02ZM205.072 303.629C205.591 304.168 206.261 304.438 207.076 304.367C208.033 304.283 208.745 303.615 208.671 302.657C208.518 300.905 205.973 301.497 205.872 300.347C205.838 299.949 206.104 299.598 206.654 299.549C207.103 299.51 207.511 299.721 207.82 300.084L208.376 299.522C207.976 299.054 207.314 298.763 206.581 298.827C205.593 298.914 204.969 299.635 205.039 300.44C205.198 302.253 207.729 301.621 207.829 302.772C207.868 303.22 207.573 303.595 207.002 303.645C206.483 303.69 206.033 303.473 205.637 303.056L205.072 303.629ZM211.587 303.911C212.249 303.853 212.895 303.499 213.238 302.966L213.295 303.618L214.161 303.542L213.86 300.099C213.761 298.969 212.92 298.273 211.616 298.387C210.72 298.465 210.03 298.905 209.635 299.556L210.331 299.998C210.608 299.532 211.063 299.215 211.654 299.163C212.387 299.099 212.932 299.462 212.994 300.175L213.025 300.532L211.319 300.968C210.245 301.247 209.703 301.849 209.77 302.623C209.847 303.498 210.578 303.999 211.587 303.911ZM210.644 302.515C210.605 302.077 210.893 301.734 211.585 301.55L213.081 301.163L213.169 302.171C212.881 302.751 212.349 303.126 211.667 303.185C211.066 303.238 210.682 302.953 210.644 302.515ZM215.388 304.368C215.478 305.397 216.528 305.9 218.046 305.768C219.584 305.633 220.593 304.734 220.498 303.654C220.418 302.738 219.729 302.131 218.374 302.25L216.907 302.378C216.592 302.405 216.466 302.263 216.448 302.049C216.431 301.855 216.537 301.661 216.737 301.49C216.957 301.532 217.205 301.551 217.459 301.529C218.692 301.421 219.382 300.519 219.297 299.542C219.27 299.236 219.173 298.947 219.008 298.705L220.118 298.608L220.052 297.854L218.148 298.021C217.861 297.912 217.518 297.86 217.141 297.893C215.919 298 215.218 298.903 215.304 299.891C215.354 300.461 215.665 300.957 216.142 301.254C215.767 301.544 215.583 301.899 215.618 302.306C215.642 302.581 215.789 302.845 216.039 303.008C215.561 303.409 215.343 303.849 215.388 304.368ZM217.41 300.846C216.646 300.913 216.185 300.45 216.129 299.819C216.074 299.187 216.447 298.641 217.211 298.575C217.955 298.51 218.427 298.981 218.482 299.613C218.536 300.234 218.153 300.781 217.41 300.846ZM216.225 304.193C216.189 303.785 216.376 303.461 216.709 303.165L218.37 303.02C219.286 302.939 219.595 303.302 219.638 303.791C219.697 304.464 219.052 304.951 217.972 305.045C216.954 305.135 216.279 304.814 216.225 304.193ZM225.817 301.67L225.132 301.227C224.836 301.715 224.303 302.07 223.641 302.127C222.541 302.224 221.691 301.549 221.553 300.319L225.495 299.974C225.513 299.829 225.526 299.633 225.508 299.429C225.398 298.166 224.406 297.268 223.011 297.39C221.422 297.529 220.53 298.828 220.666 300.386C220.797 301.884 221.978 303.063 223.709 302.912C224.667 302.828 225.395 302.354 225.817 301.67ZM223.054 298.125C223.961 298.046 224.535 298.632 224.632 299.383L221.556 299.652C221.662 298.75 222.209 298.199 223.054 298.125Z" fill="#646464"/>
<path d="M290.116 276.11C290.285 276.252 290.49 276.312 290.73 276.291C290.971 276.27 291.162 276.175 291.304 276.006C291.446 275.837 291.506 275.632 291.485 275.391C291.464 275.151 291.369 274.96 291.2 274.818L289.608 273.482C289.78 273.167 289.901 272.836 289.97 272.488C290.039 272.14 290.057 271.775 290.024 271.393C289.931 270.332 289.481 269.462 288.673 268.784C287.866 268.107 286.931 267.815 285.87 267.908C284.809 268 283.94 268.451 283.262 269.258C282.585 270.066 282.292 271 282.385 272.061C282.478 273.122 282.928 273.991 283.735 274.669C284.543 275.347 285.478 275.639 286.539 275.546C286.906 275.514 287.259 275.433 287.597 275.304C287.935 275.175 288.244 274.998 288.524 274.774L290.116 276.11ZM286.39 273.849C285.796 273.901 285.276 273.74 284.83 273.365C284.384 272.991 284.135 272.507 284.083 271.913C284.031 271.318 284.192 270.798 284.566 270.352C284.94 269.906 285.425 269.657 286.019 269.605C286.613 269.553 287.133 269.714 287.579 270.089C288.025 270.463 288.274 270.947 288.326 271.541C288.378 272.135 288.217 272.656 287.843 273.102C287.468 273.548 286.984 273.797 286.39 273.849ZM280.47 279.498C280.003 279.539 279.589 279.408 279.228 279.105C278.866 278.801 278.665 278.416 278.624 277.949L277.733 267.764C277.692 267.298 277.824 266.883 278.127 266.522C278.43 266.16 278.815 265.959 279.282 265.918L292.862 264.73C293.329 264.689 293.743 264.821 294.105 265.124C294.466 265.427 294.667 265.812 294.708 266.279L295.599 276.464C295.64 276.931 295.509 277.345 295.206 277.707C294.902 278.068 294.517 278.269 294.05 278.31L280.47 279.498ZM280.322 277.801L293.901 276.613L293.01 266.428L279.43 267.616L280.322 277.801Z" fill="#3B69D1"/>
<path d="M263.941 298.848L265.387 298.722L265.135 295.839L265.878 295.774L268.035 298.49L269.736 298.341L267.229 295.379C267.933 294.979 268.295 294.3 268.219 293.435C268.103 292.111 267.065 291.391 265.497 291.528L263.317 291.719L263.941 298.848ZM265.683 292.723C266.294 292.669 266.683 293.005 266.73 293.544C266.781 294.125 266.456 294.513 265.844 294.566L265.03 294.637L264.868 292.794L265.683 292.723ZM275.112 297.029L274.121 296.377C273.878 296.768 273.41 297.055 272.85 297.104C272.045 297.174 271.421 296.839 271.215 295.892L274.81 295.578C274.836 295.401 274.853 295.133 274.828 294.847C274.711 293.503 273.689 292.617 272.263 292.742C270.583 292.889 269.735 294.226 269.868 295.743C269.999 297.24 271.139 298.424 272.962 298.264C273.929 298.179 274.689 297.713 275.112 297.029ZM272.325 293.804C273.048 293.741 273.471 294.227 273.537 294.745L271.174 294.952C271.257 294.267 271.663 293.862 272.325 293.804ZM278.693 296.531C277.827 296.607 277.15 296.02 277.07 295.113C276.992 294.217 277.556 293.511 278.402 293.437C278.931 293.39 279.359 293.589 279.635 293.924L280.575 293.062C280.041 292.472 279.252 292.131 278.315 292.213C276.543 292.368 275.595 293.734 275.726 295.231C275.857 296.728 277.028 297.908 278.8 297.753C279.737 297.671 280.455 297.198 280.878 296.525L279.802 295.839C279.589 296.217 279.202 296.487 278.693 296.531ZM281.917 297.275L283.21 297.162L282.917 293.811C283.082 293.469 283.39 293 284.042 292.943C284.684 292.887 285.098 293.282 285.158 293.964L285.421 296.969L286.724 296.855L286.457 293.799C286.324 292.282 285.371 291.595 284.261 291.693C283.579 291.752 283.123 292.059 282.797 292.436L282.542 289.524L281.249 289.637L281.917 297.275ZM292.846 295.478L291.855 294.825C291.612 295.216 291.144 295.503 290.584 295.552C289.78 295.623 289.155 295.287 288.949 294.341L292.544 294.026C292.57 293.849 292.587 293.581 292.562 293.296C292.445 291.952 291.423 291.066 289.997 291.191C288.317 291.338 287.469 292.674 287.602 294.192C287.733 295.689 288.873 296.872 290.696 296.713C291.663 296.628 292.423 296.161 292.846 295.478ZM290.059 292.253C290.783 292.189 291.205 292.676 291.271 293.193L288.908 293.4C288.992 292.715 289.397 292.31 290.059 292.253ZM294.091 296.21L295.385 296.097L295.097 292.807C295.262 292.465 295.639 292.083 296.27 292.027C296.505 292.007 296.68 292.022 296.847 292.049L296.735 290.776C296.61 290.746 296.454 290.728 296.281 290.744C295.701 290.794 295.286 291.097 294.98 291.473L294.935 290.964L293.642 291.077L294.091 296.21ZM300.385 294.633C299.52 294.709 298.842 294.122 298.763 293.215C298.685 292.319 299.249 291.613 300.094 291.539C300.624 291.493 301.052 291.691 301.327 292.026L302.268 291.164C301.734 290.574 300.945 290.233 300.008 290.315C298.236 290.47 297.288 291.836 297.419 293.333C297.55 294.83 298.72 296.01 300.492 295.855C301.429 295.773 302.147 295.3 302.571 294.627L301.495 293.941C301.282 294.319 300.895 294.589 300.385 294.633ZM303.61 295.377L304.903 295.264L304.61 291.913C304.775 291.571 305.083 291.102 305.735 291.045C306.376 290.989 306.791 291.384 306.85 292.066L307.113 295.071L308.417 294.957L308.149 291.901C308.017 290.384 307.064 289.698 305.954 289.795C305.271 289.854 304.816 290.161 304.49 290.539L304.235 287.626L302.941 287.739L303.61 295.377ZM314.538 293.58L313.547 292.928C313.304 293.318 312.837 293.605 312.277 293.654C311.472 293.725 310.848 293.39 310.642 292.443L314.237 292.128C314.262 291.952 314.28 291.683 314.255 291.398C314.137 290.054 313.116 289.168 311.69 289.293C310.009 289.44 309.162 290.776 309.294 292.294C309.425 293.791 310.565 294.974 312.389 294.815C313.356 294.73 314.116 294.263 314.538 293.58ZM311.752 290.355C312.475 290.291 312.897 290.778 312.963 291.296L310.6 291.502C310.684 290.818 311.09 290.413 311.752 290.355Z" fill="#3B69D1"/>
<g filter="url(#filter1_d_4866_12777)">
<rect x="11.0199" y="53.9117" width="223.292" height="65.7508" rx="5.19859" transform="rotate(-5 11.0199 53.9117)" fill="white" shape-rendering="crispEdges"/>
<path d="M31.1454 74.8051C30.9563 72.6433 31.5522 70.7397 32.933 69.0941C34.3138 67.4485 36.0851 66.5311 38.2468 66.342L38.3981 68.0714C36.712 68.2189 35.3331 68.9311 34.2616 70.2081C33.1896 71.4857 32.7273 72.9676 32.8748 74.6538L31.1454 74.8051ZM34.6042 74.5025C34.4996 73.3063 34.832 72.2497 35.6016 71.3325C36.3707 70.416 37.3533 69.9054 38.5494 69.8007L38.7007 71.5301C37.9802 71.5932 37.3897 71.899 36.9295 72.4475C36.4692 72.996 36.2706 73.6306 36.3336 74.3512L34.6042 74.5025ZM27.0814 68.1901C26.6059 68.2317 26.1838 68.0979 25.8152 67.7886C25.4472 67.4798 25.2424 67.0876 25.2008 66.612C25.1591 66.1365 25.2927 65.7144 25.6014 65.3458C25.9108 64.9778 26.3033 64.7729 26.7788 64.7313C27.2544 64.6897 27.6762 64.8233 28.0442 65.1321C28.4128 65.4414 28.6179 65.8338 28.6595 66.3094C28.7011 66.785 28.5673 67.2068 28.2579 67.5749C27.9492 67.9434 27.557 68.1485 27.0814 68.1901ZM24.8656 72.7405L24.6765 70.5788C24.645 70.2185 24.7444 69.9014 24.9749 69.6274C25.2047 69.3528 25.4998 69.1998 25.8601 69.1683L28.4541 68.9413C29.1027 68.8846 29.6433 68.6302 30.076 68.1782C30.5082 67.7268 30.7548 67.1862 30.8159 66.5564L32.5453 66.4051C32.5344 67.2774 32.2842 68.0689 31.7946 68.7798C31.3049 69.4906 30.6679 70.0111 29.8836 70.3411L30.0538 72.2866L24.8656 72.7405ZM40.0193 76.6426C39.5437 76.6843 39.1217 76.5507 38.7531 76.242C38.3851 75.9326 38.1802 75.5401 38.1386 75.0646C38.097 74.589 38.2306 74.1669 38.5393 73.7983C38.8487 73.4303 39.2411 73.2255 39.7167 73.1839C40.1923 73.1423 40.6144 73.2758 40.9829 73.5845C41.351 73.8939 41.5558 74.2864 41.5974 74.762C41.639 75.2375 41.5055 75.6596 41.1967 76.0282C40.8874 76.3962 40.4949 76.601 40.0193 76.6426ZM37.8035 81.1931L37.6333 79.2475C36.8035 79.0587 36.0859 78.6568 35.4802 78.0418C34.8746 77.4268 34.4907 76.6907 34.3286 75.8336L36.058 75.6823C36.2275 76.2919 36.5643 76.7817 37.0683 77.1518C37.5729 77.5212 38.1494 77.6776 38.7979 77.6208L41.392 77.3939C41.7523 77.3623 42.0695 77.4618 42.3435 77.6923C42.618 77.9221 42.771 78.2171 42.8025 78.5774L42.9917 80.7392L37.8035 81.1931Z" fill="#FCBF49"/>
<path d="M54.1549 66.6673C51.2884 66.9181 49.5228 69.2945 49.7498 71.8885C49.9767 74.4826 52.1282 76.5162 54.9946 76.2655C57.8481 76.0158 59.6138 73.6395 59.3868 71.0454C59.1598 68.4513 57.0084 66.4177 54.1549 66.6673ZM54.8437 74.5404C53.1316 74.6902 51.7955 73.4609 51.6435 71.7229C51.4914 69.9848 52.5937 68.5422 54.3058 68.3924C56.005 68.2438 57.3411 69.473 57.4931 71.2111C57.6452 72.9491 56.5428 74.3917 54.8437 74.5404ZM60.054 68.9743L60.1834 70.4529L61.4026 70.3463L61.8451 75.4047L63.5054 75.2595L63.0628 70.201L65.0602 70.0263L64.9309 68.5476L62.9334 68.7224L62.8699 67.996C62.8177 67.3994 63.1468 66.9785 63.7046 66.9297C64.0418 66.9002 64.3114 66.9943 64.5184 67.1199L65.0986 65.6838C64.6642 65.4996 64.1459 65.4012 63.5492 65.4534C61.915 65.5963 61.0917 66.7924 61.2131 68.1802L61.2732 68.8676L60.054 68.9743ZM65.5766 68.4911L65.7059 69.9698L66.9252 69.8631L67.3677 74.9216L69.0279 74.7763L68.5854 69.7178L70.5828 69.5431L70.4534 68.0645L68.456 68.2392L68.3925 67.5129C68.3403 66.9162 68.6694 66.4954 69.2271 66.4466C69.5643 66.4171 69.834 66.5111 70.041 66.6367L70.6211 65.2006C70.1868 65.0164 69.6684 64.918 69.0718 64.9702C67.4375 65.1132 66.6142 66.3092 66.7356 67.697L66.7958 68.3845L65.5766 68.4911ZM72.0699 74.5102L73.7171 74.3661L73.3506 70.1766C73.5607 69.74 74.041 69.2536 74.8451 69.1833C75.1435 69.1572 75.3674 69.1768 75.5794 69.2105L75.4376 67.5892C75.2774 67.5509 75.0794 67.529 74.8589 67.5483C74.1196 67.613 73.5914 67.999 73.202 68.4775L73.1452 67.829L71.498 67.9731L72.0699 74.5102ZM82.9857 72.4834L81.7237 71.6528C81.4143 72.1504 80.819 72.5162 80.1056 72.5786C79.0809 72.6682 78.2855 72.2412 78.0232 71.0356L82.6018 70.635C82.6344 70.41 82.6568 70.0682 82.625 69.705C82.4752 67.9929 81.1741 66.8651 79.3582 67.024C77.2181 67.2112 76.1385 68.9133 76.3076 70.8459C76.4744 72.7525 77.9262 74.2592 80.2479 74.0561C81.4801 73.9483 82.4476 73.3539 82.9857 72.4834ZM79.4374 68.3763C80.3583 68.2958 80.896 68.9153 80.9798 69.5745L77.9707 69.8378C78.0774 68.9658 78.5943 68.4501 79.4374 68.3763ZM83.8295 72.5273C84.5167 73.2121 85.3877 73.6064 86.555 73.5043C87.7872 73.3965 88.8239 72.5477 88.7295 71.1706C88.5321 68.9138 85.4402 69.5763 85.3427 68.4609C85.3132 68.1237 85.5346 67.8167 86.0534 67.7714C86.5593 67.7271 87.0168 68.0269 87.3904 68.4124L88.3959 67.3573C87.8734 66.7626 86.9234 66.3621 85.9247 66.4495C84.5628 66.5687 83.6661 67.5228 83.7671 68.6772C83.9679 70.9729 87.0564 70.2714 87.1562 71.4128C87.1903 71.8019 86.9451 72.137 86.4133 72.1836C85.7907 72.238 85.2791 71.9169 84.8327 71.4462L83.8295 72.5273ZM93.1539 69.372C93.3207 71.2786 94.7207 72.7899 96.783 72.6095C97.665 72.5323 98.2767 72.2043 98.7383 71.6542L98.7837 72.173L100.444 72.0278L99.5928 62.3L97.9326 62.4452L98.2571 66.1547C97.707 65.6932 97.0477 65.4764 96.1657 65.5535C94.1034 65.734 92.9871 67.4653 93.1539 69.372ZM94.879 69.2211C94.7791 68.0797 95.4199 67.1872 96.5353 67.0896C97.2746 67.0249 97.9115 67.2828 98.4047 67.8409L98.5908 69.968C98.202 70.6033 97.6196 70.9679 96.8803 71.0326C95.7648 71.1302 94.9788 70.3625 94.879 69.2211ZM102.831 66.4342L104.008 62.5671L102.141 62.7305L101.3 66.5681L102.831 66.4342ZM106.276 63.7803C106.859 63.7292 107.296 63.1944 107.245 62.6107C107.194 62.027 106.671 61.5761 106.087 61.6272C105.504 61.6783 105.054 62.2143 105.105 62.7979C105.156 63.3816 105.692 63.8314 106.276 63.7803ZM106.117 71.5314L107.764 71.3873L107.193 64.8502L105.545 64.9943L106.117 71.5314ZM109.74 71.2145L111.387 71.0704L111.014 66.8031C111.224 66.3665 111.564 65.7747 112.316 65.7089C113.056 65.6442 113.527 66.0996 113.596 66.8908L113.942 70.8468L115.602 70.7016L115.251 66.6807C115.242 66.577 115.234 66.4862 115.213 66.3965C115.434 65.9328 115.78 65.4059 116.493 65.3435C117.232 65.2788 117.703 65.7342 117.773 66.5254L118.119 70.4814L119.779 70.3362L119.427 66.3153C119.266 64.4735 118.121 63.6327 116.772 63.7507C115.669 63.8472 115.09 64.3945 114.673 65.0061C114.184 64.3431 113.425 64.0435 112.595 64.1161C111.791 64.1865 111.262 64.5595 110.858 65.0261L110.815 64.5333L109.168 64.6774L109.74 71.2145ZM121.659 70.1717L123.306 70.0276L122.933 65.7603C123.143 65.3237 123.483 64.7319 124.236 64.6661C124.975 64.6014 125.446 65.0569 125.515 65.8481L125.861 69.804L127.522 69.6588L127.17 65.638C127.161 65.5342 127.153 65.4434 127.132 65.3537C127.353 64.89 127.699 64.3631 128.412 64.3007C129.151 64.236 129.623 64.6915 129.692 65.4827L130.038 69.4386L131.698 69.2934L131.346 65.2726C131.185 63.4308 130.04 62.5899 128.691 62.708C127.588 62.8044 127.009 63.3518 126.592 63.9633C126.103 63.3003 125.345 63.0007 124.514 63.0733C123.71 63.1437 123.181 63.5168 122.777 63.9834L122.734 63.4905L121.087 63.6346L121.659 70.1717ZM139.503 67.5388L138.241 66.7082C137.932 67.2058 137.337 67.5715 136.623 67.6339C135.599 67.7236 134.803 67.2965 134.541 66.0909L139.119 65.6904C139.152 65.4653 139.174 65.1235 139.143 64.7604C138.993 63.0483 137.692 61.9205 135.876 62.0794C133.736 62.2666 132.656 63.9686 132.825 65.9012C132.992 67.8079 134.444 69.3146 136.766 69.1114C137.998 69.0036 138.965 68.4093 139.503 67.5388ZM135.955 63.4317C136.876 63.3511 137.414 63.9706 137.497 64.6298L134.488 64.8931C134.595 64.0212 135.112 63.5054 135.955 63.4317ZM141.089 68.4718L142.736 68.3276L142.37 64.1382C142.58 63.7016 143.06 63.2152 143.864 63.1448C144.163 63.1187 144.387 63.1384 144.599 63.1721L144.457 61.5508C144.297 61.5125 144.099 61.4906 143.878 61.5099C143.139 61.5746 142.611 61.9606 142.221 62.4391L142.165 61.7906L140.517 61.9347L141.089 68.4718ZM145.705 67.1139C146.392 67.7987 147.263 68.193 148.43 68.0909C149.663 67.9831 150.699 67.1343 150.605 65.7572C150.408 63.5004 147.316 64.1629 147.218 63.0475C147.189 62.7103 147.41 62.4033 147.929 62.358C148.435 62.3137 148.892 62.6135 149.266 62.999L150.271 61.9439C149.749 61.3492 148.799 60.9487 147.8 61.0361C146.438 61.1553 145.542 62.1094 145.643 63.2637C145.843 65.5595 148.932 64.858 149.032 65.9994C149.066 66.3885 148.821 66.7236 148.289 66.7702C147.666 66.8246 147.155 66.5035 146.708 66.0328L145.705 67.1139ZM152.445 59.741C153.028 59.69 153.465 59.1551 153.414 58.5714C153.363 57.9878 152.84 57.5369 152.256 57.5879C151.673 57.639 151.223 58.175 151.274 58.7587C151.325 59.3423 151.861 59.7921 152.445 59.741ZM152.286 67.4921L153.934 67.348L153.362 60.8109L151.714 60.9551L152.286 67.4921ZM158.427 60.1064C156.3 60.2925 154.985 61.989 155.156 63.9475C155.327 65.906 156.917 67.3484 159.045 67.1623C161.172 66.9762 162.487 65.2797 162.316 63.3211C162.144 61.3626 160.554 59.9203 158.427 60.1064ZM158.934 65.6036C157.845 65.6989 156.968 64.9391 156.868 63.7977C156.768 62.6563 157.5 61.7559 158.589 61.6605C159.64 61.5686 160.504 62.3295 160.604 63.4709C160.702 64.5993 159.985 65.5116 158.934 65.6036ZM164.104 66.4582L165.751 66.3141L165.378 62.0468C165.588 61.6102 165.98 61.0139 166.81 60.9413C167.615 60.8709 168.155 61.3726 168.231 62.2416L168.566 66.0679L170.226 65.9226L169.886 62.0315C169.717 60.0989 168.503 59.2248 167.089 59.3485C166.22 59.4246 165.64 59.8151 165.225 60.2958L165.179 59.777L163.532 59.9211L164.104 66.4582Z" fill="#161616"/>
<rect x="28.9184" y="94.1687" width="60.5428" height="13.671" rx="6.82314" transform="rotate(-5 28.9184 94.1687)" fill="#F1F1F1"/>
<rect x="94.4189" y="88.4382" width="41.0129" height="13.671" rx="6.82314" transform="rotate(-5 94.4189 88.4382)" fill="#F1F1F1"/>
<rect x="140.464" y="84.4097" width="82.6768" height="13.671" rx="6.82314" transform="rotate(-5 140.464 84.4097)" fill="#F1F1F1"/>
</g>
<g filter="url(#filter2_d_4866_12777)">
<rect x="25.3421" y="88.4147" width="223.292" height="65.7508" rx="5.19859" transform="rotate(-5 25.3421 88.4147)" fill="white" shape-rendering="crispEdges"/>
<g clip-path="url(#clip1_4866_12777)">
<path d="M39.6522 115.045C39.4649 115.061 39.3046 115.013 39.1714 114.902C39.0382 114.79 38.9634 114.64 38.947 114.453L38.7011 111.643C38.6646 111.225 38.7811 110.855 39.0507 110.534C39.3202 110.212 39.664 110.034 40.0819 109.997L43.13 109.73C43.375 109.709 43.6145 109.75 43.8486 109.853C44.0827 109.956 44.2885 110.108 44.4659 110.31C44.9368 110.879 45.511 111.301 46.1886 111.576C46.8661 111.85 47.5723 111.956 48.3073 111.891C49.0423 111.827 49.7196 111.601 50.3391 111.213C50.9586 110.824 51.4581 110.309 51.8375 109.666C51.9771 109.436 52.1496 109.25 52.3551 109.108C52.5605 108.967 52.7857 108.886 53.0307 108.864L56.0788 108.597C56.4967 108.561 56.8663 108.677 57.1876 108.947C57.5089 109.217 57.6878 109.56 57.7244 109.978L57.9703 112.789C57.9866 112.976 57.939 113.136 57.8272 113.269C57.7154 113.403 57.5658 113.477 57.3785 113.494L53.055 113.872C52.8677 113.888 52.7074 113.841 52.5742 113.729C52.4409 113.617 52.3661 113.468 52.3497 113.28L52.1814 111.356C51.7042 111.877 51.1419 112.297 50.4944 112.615C49.847 112.933 49.1558 113.124 48.4208 113.188C47.6858 113.253 46.9755 113.184 46.2899 112.983C45.6042 112.781 44.974 112.466 44.3992 112.037L44.5675 113.961C44.5839 114.148 44.5362 114.309 44.4244 114.442C44.3126 114.575 44.1631 114.65 43.9757 114.666L39.6522 115.045ZM48.1938 110.594C47.6894 110.638 47.1926 110.562 46.7035 110.365C46.2143 110.168 45.8073 109.874 45.4825 109.481C45.2229 109.17 44.9222 108.927 44.5803 108.754C44.2383 108.581 43.8769 108.474 43.4959 108.435C43.876 107.966 44.5027 107.577 45.3761 107.268C46.2494 106.96 47.0752 106.771 47.8534 106.703C48.6316 106.635 49.4812 106.677 50.4021 106.829C51.323 106.98 52.0113 107.254 52.4671 107.65C52.0987 107.755 51.7612 107.922 51.4546 108.152C51.148 108.383 50.8939 108.673 50.6923 109.025C50.4406 109.468 50.091 109.829 49.6434 110.108C49.1959 110.387 48.7127 110.549 48.1938 110.594ZM41.0304 108.389C40.3675 108.447 39.7853 108.266 39.2837 107.845C38.7822 107.424 38.5025 106.882 38.4445 106.219C38.3865 105.556 38.5679 104.974 38.9887 104.473C39.4095 103.971 39.9514 103.691 40.6143 103.633C41.2773 103.575 41.8595 103.757 42.361 104.178C42.8625 104.598 43.1423 105.14 43.2003 105.803C43.2583 106.466 43.0769 107.048 42.6561 107.55C42.2352 108.051 41.6934 108.331 41.0304 108.389ZM54.8655 107.179C54.2026 107.237 53.6204 107.055 53.1189 106.635C52.6173 106.214 52.3376 105.672 52.2796 105.009C52.2216 104.346 52.403 103.764 52.8238 103.262C53.2446 102.761 53.7865 102.481 54.4495 102.423C55.1124 102.365 55.6946 102.546 56.1961 102.967C56.6976 103.388 56.9774 103.93 57.0354 104.593C57.0934 105.256 56.912 105.838 56.4912 106.34C56.0703 106.841 55.5285 107.121 54.8655 107.179ZM47.721 105.19C47.0581 105.248 46.4759 105.066 45.9743 104.646C45.4728 104.225 45.1931 103.683 45.1351 103.02C45.0771 102.357 45.2585 101.775 45.6793 101.273C46.1001 100.772 46.642 100.492 47.3049 100.434C47.9679 100.376 48.5501 100.558 49.0516 100.978C49.5531 101.399 49.8329 101.941 49.8909 102.604C49.9489 103.267 49.7675 103.849 49.3467 104.351C48.9258 104.852 48.384 105.132 47.721 105.19Z" fill="#15616D"/>
</g>
<path d="M68.4771 101.17C65.6107 101.421 63.8451 103.797 64.072 106.391C64.299 108.986 66.4504 111.019 69.3169 110.768C72.1704 110.519 73.936 108.142 73.709 105.548C73.4821 102.954 71.3306 100.921 68.4771 101.17ZM69.1659 109.043C67.4539 109.193 66.1178 107.964 65.9657 106.226C65.8136 104.488 66.916 103.045 68.6281 102.895C70.3272 102.747 71.6633 103.976 71.8154 105.714C71.9674 107.452 70.8651 108.895 69.1659 109.043ZM74.3762 103.477L74.5056 104.956L75.7248 104.849L76.1674 109.908L77.8276 109.762L77.385 104.704L79.3825 104.529L79.2531 103.051L77.2557 103.225L77.1921 102.499C77.1399 101.902 77.4691 101.481 78.0268 101.433C78.364 101.403 78.6336 101.497 78.8407 101.623L79.4208 100.187C78.9864 100.003 78.4681 99.9041 77.8715 99.9563C76.2372 100.099 75.4139 101.295 75.5353 102.683L75.5955 103.371L74.3762 103.477ZM79.8988 102.994L80.0282 104.473L81.2474 104.366L81.6899 109.425L83.3502 109.279L82.9076 104.221L84.905 104.046L84.7757 102.567L82.7782 102.742L82.7147 102.016C82.6625 101.419 82.9916 100.998 83.5493 100.949C83.8866 100.92 84.1562 101.014 84.3632 101.14L84.9434 99.7035C84.509 99.5194 83.9907 99.4209 83.394 99.4731C81.7598 99.6161 80.9365 100.812 81.0579 102.2L81.118 102.887L79.8988 102.994ZM86.3921 109.013L88.0394 108.869L87.6728 104.68C87.883 104.243 88.3632 103.757 89.1674 103.686C89.4657 103.66 89.6896 103.68 89.9017 103.713L89.7598 102.092C89.5996 102.054 89.4017 102.032 89.1812 102.051C88.4419 102.116 87.9136 102.502 87.5242 102.98L87.4674 102.332L85.8202 102.476L86.3921 109.013ZM97.3079 106.986L96.0459 106.156C95.7366 106.653 95.1412 107.019 94.4278 107.082C93.4032 107.171 92.6078 106.744 92.3455 105.539L96.924 105.138C96.9566 104.913 96.979 104.571 96.9472 104.208C96.7974 102.496 95.4963 101.368 93.6805 101.527C91.5404 101.714 90.4607 103.416 90.6298 105.349C90.7966 107.255 92.2485 108.762 94.5702 108.559C95.8024 108.451 96.7698 107.857 97.3079 106.986ZM93.7596 102.879C94.6805 102.799 95.2183 103.418 95.3021 104.077L92.2929 104.341C92.3996 103.469 92.9165 102.953 93.7596 102.879ZM98.1517 107.03C98.8389 107.715 99.7099 108.109 100.877 108.007C102.109 107.899 103.146 107.051 103.052 105.674C102.854 103.417 99.7625 104.079 99.6649 102.964C99.6354 102.627 99.8569 102.32 100.376 102.274C100.882 102.23 101.339 102.53 101.713 102.915L102.718 101.86C102.196 101.266 101.246 100.865 100.247 100.952C98.8851 101.072 97.9883 102.026 98.0893 103.18C98.2902 105.476 101.379 104.774 101.478 105.916C101.512 106.305 101.267 106.64 100.736 106.687C100.113 106.741 99.6013 106.42 99.155 105.949L98.1517 107.03ZM107.476 103.875C107.643 105.782 109.043 107.293 111.105 107.112C111.987 107.035 112.599 106.707 113.061 106.157L113.106 106.676L114.766 106.531L113.915 96.8029L112.255 96.9481L112.579 100.658C112.029 100.196 111.37 99.9793 110.488 100.056C108.426 100.237 107.309 101.968 107.476 103.875ZM109.201 103.724C109.101 102.583 109.742 101.69 110.858 101.593C111.597 101.528 112.234 101.786 112.727 102.344L112.913 104.471C112.524 105.106 111.942 105.471 111.203 105.536C110.087 105.633 109.301 104.865 109.201 103.724ZM122.666 104.768L121.404 103.937C121.095 104.435 120.499 104.801 119.786 104.863C118.761 104.953 117.966 104.526 117.704 103.32L122.282 102.919C122.315 102.694 122.337 102.353 122.305 101.989C122.156 100.277 120.855 99.1495 119.039 99.3084C116.899 99.4956 115.819 101.198 115.988 103.13C116.155 105.037 117.607 106.544 119.928 106.34C121.161 106.233 122.128 105.638 122.666 104.768ZM119.118 100.661C120.039 100.58 120.576 101.2 120.66 101.859L117.651 102.122C117.758 101.25 118.275 100.734 119.118 100.661ZM127.094 104.498C127.782 105.183 128.653 105.577 129.82 105.475C131.052 105.367 132.089 104.519 131.995 103.141C131.797 100.885 128.705 101.547 128.608 100.432C128.578 100.094 128.8 99.7875 129.318 99.7421C129.824 99.6979 130.282 99.9977 130.655 100.383L131.661 99.3281C131.138 98.7334 130.188 98.3329 129.19 98.4203C127.828 98.5394 126.931 99.4936 127.032 100.648C127.233 102.944 130.321 102.242 130.421 103.384C130.455 103.773 130.21 104.108 129.678 104.154C129.056 104.209 128.544 103.888 128.098 103.417L127.094 104.498ZM139.576 103.288L138.314 102.458C138.004 102.955 137.409 103.321 136.696 103.384C135.671 103.473 134.876 103.046 134.613 101.841L139.192 101.44C139.224 101.215 139.247 100.873 139.215 100.51C139.065 98.7979 137.764 97.6701 135.948 97.829C133.808 98.0162 132.729 99.7183 132.898 101.651C133.064 103.557 134.516 105.064 136.838 104.861C138.07 104.753 139.038 104.159 139.576 103.288ZM136.027 99.1813C136.948 99.1007 137.486 99.7203 137.57 100.379L134.561 100.643C134.667 99.7708 135.184 99.2551 136.027 99.1813ZM141.162 104.221L142.809 104.077L142.442 99.8878C142.653 99.4512 143.133 98.9648 143.937 98.8945C144.235 98.8684 144.459 98.888 144.671 98.9217L144.529 97.3004C144.369 97.2622 144.171 97.2403 143.951 97.2596C143.211 97.3242 142.683 97.7103 142.294 98.1887L142.237 97.5402L140.59 97.6843L141.162 104.221ZM145.255 97.2762L148.2 103.606L150.366 103.416L152.181 96.6702L150.404 96.8257L149.126 101.643L147.018 97.1219L145.255 97.2762ZM153.948 95.3654C154.532 95.3144 154.969 94.7795 154.918 94.1958C154.867 93.6122 154.344 93.1613 153.76 93.2123C153.176 93.2634 152.727 93.7994 152.778 94.3831C152.829 94.9667 153.365 95.4165 153.948 95.3654ZM153.79 103.117L155.437 102.972L154.865 96.4353L153.218 96.5795L153.79 103.117ZM160.438 101.228C159.336 101.324 158.473 100.576 158.372 99.4221C158.272 98.2807 158.991 97.3814 160.067 97.2872C160.742 97.2282 161.287 97.4811 161.638 97.9079L162.835 96.8098C162.155 96.0589 161.15 95.6241 159.957 95.7285C157.7 95.9259 156.493 97.6653 156.66 99.5719C156.827 101.479 158.317 102.982 160.574 102.784C161.768 102.68 162.682 102.077 163.221 101.22L161.851 100.346C161.579 100.828 161.087 101.171 160.438 101.228ZM170.216 100.608L168.954 99.7772C168.644 100.275 168.049 100.64 167.336 100.703C166.311 100.793 165.516 100.365 165.253 99.1599L169.832 98.7593C169.865 98.5343 169.887 98.1925 169.855 97.8293C169.705 96.1173 168.404 94.9895 166.588 95.1483C164.448 95.3356 163.369 97.0376 163.538 98.9702C163.705 100.877 165.156 102.384 167.478 102.18C168.71 102.073 169.678 101.478 170.216 100.608ZM166.668 96.5007C167.588 96.4201 168.126 97.0396 168.21 97.6988L165.201 97.9621C165.308 97.0901 165.824 96.5744 166.668 96.5007ZM178.323 99.6632C177.221 99.7597 176.358 99.0118 176.257 97.8574C176.157 96.716 176.876 95.8167 177.952 95.7225C178.627 95.6635 179.172 95.9164 179.523 96.3431L180.72 95.245C180.04 94.4942 179.035 94.0594 177.842 94.1638C175.585 94.3612 174.378 96.1005 174.545 98.0072C174.712 99.9138 176.202 101.417 178.459 101.22C179.653 101.115 180.567 100.512 181.106 99.655L179.736 98.7816C179.464 99.2628 178.972 99.6065 178.323 99.6632ZM182.587 92.8599C183.171 92.8088 183.608 92.2739 183.557 91.6903C183.506 91.1066 182.983 90.6557 182.399 90.7068C181.815 90.7578 181.365 91.2938 181.417 91.8775C181.468 92.4612 182.004 92.9109 182.587 92.8599ZM182.429 100.611L184.076 100.467L183.504 93.9298L181.857 94.0739L182.429 100.611ZM184.546 93.8387L187.491 100.168L189.657 99.9786L191.472 93.2327L189.695 93.3882L188.417 98.205L186.31 93.6843L184.546 93.8387ZM193.24 91.9279C193.823 91.8768 194.26 91.342 194.209 90.7583C194.158 90.1746 193.635 89.7237 193.051 89.7748C192.468 89.8259 192.018 90.3619 192.069 90.9455C192.12 91.5292 192.656 91.979 193.24 91.9279ZM193.081 99.679L194.729 99.5349L194.157 92.9978L192.509 93.1419L193.081 99.679ZM195.951 96.1344C196.118 98.041 197.505 99.5534 199.58 99.3718C200.462 99.2947 201.073 98.9537 201.534 98.4036L201.86 102.126L203.52 101.981L202.669 92.2531L201.009 92.3983L201.055 92.9301C200.505 92.4685 199.845 92.2388 198.963 92.3159C196.888 92.4975 195.784 94.2277 195.951 96.1344ZM197.663 95.9846C197.563 94.8432 198.204 93.9507 199.32 93.8531C200.059 93.7884 200.71 94.0582 201.204 94.6292L201.386 96.7045C201.036 97.3363 200.43 97.7291 199.665 97.7961C198.549 97.8937 197.763 97.126 197.663 95.9846ZM209.275 95.4131C209.357 96.3599 208.916 96.9867 208.021 97.065C207.113 97.1445 206.569 96.6039 206.486 95.6571L206.161 91.9475L204.501 92.0928L204.819 95.7245C204.99 97.683 206.224 98.7906 208.144 98.6226C210.064 98.4547 211.099 97.1486 210.928 95.19L210.61 91.5583L208.95 91.7036L209.275 95.4131ZM218.931 96.3458L217.669 95.5152C217.36 96.0127 216.764 96.3785 216.051 96.4409C215.026 96.5305 214.231 96.1035 213.968 94.8979L218.547 94.4973C218.58 94.2723 218.602 93.9305 218.57 93.5673C218.42 91.8552 217.119 90.7274 215.303 90.8863C213.163 91.0735 212.084 92.7756 212.253 94.7082C212.42 96.6148 213.871 98.1215 216.193 97.9184C217.425 97.8106 218.393 97.2162 218.931 96.3458ZM215.383 92.2386C216.303 92.1581 216.841 92.7776 216.925 93.4368L213.916 93.7001C214.023 92.8281 214.54 92.3124 215.383 92.2386Z" fill="#161616"/>
<rect x="43.2406" y="128.672" width="60.5428" height="13.671" rx="6.82314" transform="rotate(-5 43.2406 128.672)" fill="#F1F1F1"/>
<rect x="108.741" y="122.941" width="41.0129" height="13.671" rx="6.82314" transform="rotate(-5 108.741 122.941)" fill="#F1F1F1"/>
<rect x="154.786" y="118.913" width="82.6768" height="13.671" rx="6.82314" transform="rotate(-5 154.786 118.913)" fill="#F1F1F1"/>
</g>
<g filter="url(#filter3_d_4866_12777)">
<rect x="39.0128" y="121.615" width="223.292" height="65.7508" rx="5.19859" transform="rotate(-5 39.0128 121.615)" fill="white" shape-rendering="crispEdges"/>
<path d="M62.3375 149.2C62.1502 149.216 61.9899 149.168 61.8567 149.056C61.7235 148.945 61.6487 148.795 61.6323 148.608L61.3486 145.365L56.9819 145.747C56.8522 145.759 56.7275 145.744 56.6078 145.704C56.4881 145.663 56.3812 145.604 56.2872 145.525L54.7356 144.223C54.6259 144.131 54.5444 144.029 54.4911 143.918C54.4377 143.806 54.406 143.693 54.3959 143.577C54.3859 143.462 54.3974 143.345 54.4305 143.226C54.4637 143.107 54.5263 142.992 54.6183 142.883L55.9203 141.331C55.9992 141.237 56.0941 141.16 56.2049 141.099C56.3158 141.039 56.4361 141.003 56.5658 140.991L60.9325 140.609L60.7623 138.664L55.358 139.137C55.0986 139.159 54.867 139.085 54.6632 138.914C54.4595 138.743 54.3463 138.528 54.3236 138.269L54.0739 135.415C54.0512 135.156 54.1254 134.924 54.2963 134.72C54.4673 134.517 54.6825 134.403 54.9419 134.381L60.3462 133.908L60.2327 132.611C60.2164 132.424 60.264 132.263 60.3758 132.13C60.4876 131.997 60.6372 131.922 60.8245 131.906C61.0119 131.889 61.1722 131.937 61.3054 132.049C61.4386 132.161 61.5134 132.31 61.5298 132.497L61.6433 133.794L66.01 133.412C66.1397 133.401 66.2644 133.416 66.3841 133.456C66.5038 133.496 66.6107 133.556 66.7047 133.635L68.2563 134.937C68.366 135.029 68.4475 135.131 68.5008 135.242C68.5541 135.354 68.5858 135.467 68.5959 135.582C68.606 135.698 68.5945 135.815 68.5613 135.934C68.5282 136.053 68.4656 136.167 68.3735 136.277L67.0716 137.829C66.9927 137.923 66.8978 138 66.7869 138.06C66.676 138.121 66.5558 138.157 66.426 138.168L62.0593 138.55L62.2296 140.496L67.6339 140.023C67.8933 140 68.1249 140.074 68.3286 140.245C68.5324 140.416 68.6456 140.632 68.6683 140.891L68.9179 143.744C68.9406 144.004 68.8665 144.235 68.6955 144.439C68.5246 144.643 68.3094 144.756 68.05 144.779L62.6456 145.252L62.9293 148.494C62.9457 148.682 62.898 148.842 62.7862 148.975C62.6745 149.108 62.5249 149.183 62.3375 149.2Z" fill="#5149A8"/>
<path d="M82.1478 134.371C79.2813 134.622 77.5157 136.998 77.7427 139.592C77.9696 142.186 80.1211 144.22 82.9875 143.969C85.841 143.72 87.6067 141.343 87.3797 138.749C87.1527 136.155 85.0013 134.121 82.1478 134.371ZM82.8366 142.244C81.1245 142.394 79.7884 141.165 79.6364 139.427C79.4843 137.689 80.5866 136.246 82.2987 136.096C83.9979 135.947 85.334 137.177 85.486 138.915C85.6381 140.653 84.5357 142.095 82.8366 142.244ZM88.0469 136.678L88.1763 138.157L89.3955 138.05L89.838 143.108L91.4983 142.963L91.0557 137.905L93.0531 137.73L92.9238 136.251L90.9263 136.426L90.8628 135.7C90.8106 135.103 91.1397 134.682 91.6975 134.633C92.0347 134.604 92.3043 134.698 92.5113 134.824L93.0915 133.387C92.6571 133.203 92.1388 133.105 91.5421 133.157C89.9079 133.3 89.0846 134.496 89.206 135.884L89.2661 136.571L88.0469 136.678ZM93.5695 136.195L93.6988 137.673L94.9181 137.567L95.3606 142.625L97.0208 142.48L96.5783 137.422L98.5757 137.247L98.4463 135.768L96.4489 135.943L96.3854 135.217C96.3332 134.62 96.6623 134.199 97.22 134.15C97.5572 134.121 97.8269 134.215 98.0339 134.34L98.614 132.904C98.1797 132.72 97.6613 132.622 97.0647 132.674C95.4304 132.817 94.6071 134.013 94.7285 135.401L94.7887 136.088L93.5695 136.195ZM100.063 142.214L101.71 142.07L101.344 137.88C101.554 137.444 102.034 136.957 102.838 136.887C103.136 136.861 103.36 136.881 103.572 136.914L103.43 135.293C103.27 135.255 103.072 135.233 102.852 135.252C102.113 135.317 101.584 135.703 101.195 136.181L101.138 135.533L99.4909 135.677L100.063 142.214ZM110.979 140.187L109.717 139.357C109.407 139.854 108.812 140.22 108.099 140.282C107.074 140.372 106.278 139.945 106.016 138.739L110.595 138.339C110.627 138.114 110.65 137.772 110.618 137.409C110.468 135.697 109.167 134.569 107.351 134.728C105.211 134.915 104.131 136.617 104.3 138.55C104.467 140.456 105.919 141.963 108.241 141.76C109.473 141.652 110.44 141.058 110.979 140.187ZM107.43 136.08C108.351 135.999 108.889 136.619 108.973 137.278L105.964 137.541C106.07 136.67 106.587 136.154 107.43 136.08ZM111.822 140.231C112.51 140.916 113.381 141.31 114.548 141.208C115.78 141.1 116.817 140.251 116.722 138.874C116.525 136.617 113.433 137.28 113.336 136.165C113.306 135.827 113.528 135.52 114.046 135.475C114.552 135.431 115.01 135.731 115.383 136.116L116.389 135.061C115.866 134.466 114.916 134.066 113.918 134.153C112.556 134.272 111.659 135.227 111.76 136.381C111.961 138.677 115.049 137.975 115.149 139.117C115.183 139.506 114.938 139.841 114.406 139.887C113.784 139.942 113.272 139.621 112.826 139.15L111.822 140.231ZM121.147 137.076C121.314 138.982 122.714 140.494 124.776 140.313C125.658 140.236 126.27 139.908 126.731 139.358L126.777 139.877L128.437 139.731L127.586 130.004L125.926 130.149L126.25 133.858C125.7 133.397 125.041 133.18 124.159 133.257C122.096 133.438 120.98 135.169 121.147 137.076ZM122.872 136.925C122.772 135.783 123.413 134.891 124.528 134.793C125.268 134.729 125.904 134.987 126.398 135.545L126.584 137.672C126.195 138.307 125.613 138.672 124.873 138.736C123.758 138.834 122.972 138.066 122.872 136.925ZM130.824 134.138L132.001 130.271L130.134 130.434L129.293 134.272L130.824 134.138ZM135.348 139.323C136.114 139.256 136.863 138.864 137.234 138.321L137.29 138.957L138.937 138.813L138.567 134.584C138.441 133.145 137.37 132.101 135.476 132.267C134.283 132.372 133.366 132.948 132.853 133.804L134.14 134.619C134.448 134.108 134.915 133.767 135.55 133.711C136.302 133.646 136.86 134.041 136.92 134.729L136.935 134.897L134.967 135.409C133.586 135.765 132.886 136.571 132.972 137.557C133.078 138.763 134.038 139.437 135.348 139.323ZM134.599 137.336C134.564 136.934 134.825 136.624 135.502 136.447L137.036 136.052L137.116 136.972C136.837 137.52 136.323 137.918 135.571 137.983C135.013 138.032 134.638 137.777 134.599 137.336ZM140.823 138.648L142.471 138.504L141.62 128.776L139.972 128.92L140.823 138.648ZM144.652 135.908C144.792 137.503 145.651 138.356 147.285 138.213C147.83 138.166 148.213 138.067 148.525 137.896L148.399 136.456C148.186 136.566 147.893 136.644 147.439 136.684C146.79 136.74 146.376 136.489 146.312 135.763L146.079 133.091L148.076 132.916L147.947 131.437L145.949 131.612L145.806 129.978L144.146 130.123L144.289 131.757L143.07 131.864L143.199 133.343L144.418 133.236L144.652 135.908ZM155.792 136.266L154.53 135.436C154.221 135.933 153.626 136.299 152.912 136.362C151.888 136.451 151.092 136.024 150.83 134.819L155.408 134.418C155.441 134.193 155.463 133.851 155.432 133.488C155.282 131.776 153.981 130.648 152.165 130.807C150.025 130.994 148.945 132.696 149.114 134.629C149.281 136.536 150.733 138.042 153.055 137.839C154.287 137.731 155.254 137.137 155.792 136.266ZM152.244 132.159C153.165 132.079 153.703 132.698 153.787 133.358L150.777 133.621C150.884 132.749 151.401 132.233 152.244 132.159ZM157.378 137.199L159.026 137.055L158.659 132.866C158.869 132.429 159.349 131.943 160.154 131.873C160.452 131.846 160.676 131.866 160.888 131.9L160.746 130.278C160.586 130.24 160.388 130.218 160.167 130.238C159.428 130.302 158.9 130.688 158.51 131.167L158.454 130.518L156.806 130.662L157.378 137.199ZM162.648 136.738L164.295 136.594L163.921 132.327C164.132 131.89 164.524 131.294 165.354 131.222C166.158 131.151 166.699 131.653 166.775 132.522L167.109 136.348L168.77 136.203L168.429 132.312C168.26 130.379 167.047 129.505 165.633 129.629C164.764 129.705 164.184 130.095 163.768 130.576L163.723 130.057L162.076 130.201L162.648 136.738ZM172.499 136.073C173.264 136.006 174.014 135.613 174.385 135.071L174.44 135.707L176.088 135.563L175.718 131.334C175.592 129.895 174.52 128.851 172.627 129.017C171.433 129.121 170.517 129.698 170.003 130.553L171.29 131.369C171.598 130.858 172.065 130.517 172.701 130.461C173.453 130.395 174.01 130.791 174.071 131.478L174.085 131.647L172.117 132.159C170.737 132.515 170.036 133.321 170.123 134.307C170.228 135.513 171.189 136.187 172.499 136.073ZM171.75 134.086C171.715 133.684 171.975 133.374 172.652 133.197L174.186 132.801L174.267 133.722C173.988 134.269 173.474 134.667 172.722 134.733C172.164 134.782 171.789 134.527 171.75 134.086ZM177.974 135.398L179.621 135.253L179.248 130.986C179.458 130.55 179.85 129.953 180.68 129.881C181.484 129.81 182.025 130.312 182.101 131.181L182.436 135.007L184.096 134.862L183.756 130.971C183.586 129.038 182.373 128.164 180.959 128.288C180.09 128.364 179.51 128.754 179.095 129.235L179.049 128.716L177.402 128.86L177.974 135.398ZM188.992 133.127C187.889 133.223 187.027 132.475 186.926 131.321C186.826 130.179 187.544 129.28 188.621 129.186C189.295 129.127 189.84 129.38 190.191 129.807L191.389 128.708C190.709 127.958 189.704 127.523 188.511 127.627C186.254 127.825 185.047 129.564 185.214 131.471C185.38 133.377 186.871 134.881 189.128 134.683C190.321 134.579 191.236 133.976 191.775 133.118L190.405 132.245C190.133 132.726 189.64 133.07 188.992 133.127ZM198.77 132.506L197.508 131.676C197.198 132.173 196.603 132.539 195.889 132.602C194.865 132.691 194.069 132.264 193.807 131.059L198.386 130.658C198.418 130.433 198.441 130.091 198.409 129.728C198.259 128.016 196.958 126.888 195.142 127.047C193.002 127.234 191.922 128.936 192.091 130.869C192.258 132.776 193.71 134.282 196.032 134.079C197.264 133.971 198.231 133.377 198.77 132.506ZM195.221 128.399C196.142 128.319 196.68 128.938 196.764 129.598L193.755 129.861C193.861 128.989 194.378 128.473 195.221 128.399Z" fill="#161616"/>
<rect x="56.9113" y="161.872" width="60.5428" height="13.671" rx="6.82314" transform="rotate(-5 56.9113 161.872)" fill="#F1F1F1"/>
<rect x="122.412" y="156.142" width="41.0129" height="13.671" rx="6.82314" transform="rotate(-5 122.412 156.142)" fill="#F1F1F1"/>
<rect x="168.457" y="152.113" width="82.6768" height="13.671" rx="6.82314" transform="rotate(-5 168.457 152.113)" fill="#F1F1F1"/>
</g>
<g filter="url(#filter4_d_4866_12777)">
<rect x="53.335" y="156.119" width="223.292" height="65.7508" rx="5.19859" transform="rotate(-5 53.335 156.119)" fill="white" shape-rendering="crispEdges"/>
<path d="M73.763 180.471L78.9511 180.017C79.1961 179.995 79.3944 179.894 79.5459 179.714C79.6969 179.534 79.7616 179.321 79.7402 179.076C79.7188 178.831 79.6181 178.633 79.4382 178.482C79.2576 178.331 79.0448 178.266 78.7998 178.287L73.6117 178.741C73.3667 178.763 73.1687 178.864 73.0178 179.044C72.8663 179.224 72.8012 179.437 72.8226 179.682C72.8441 179.927 72.945 180.125 73.1255 180.276C73.3055 180.427 73.518 180.492 73.763 180.471ZM73.4604 177.012L78.6485 176.558C78.8935 176.537 79.0918 176.436 79.2433 176.255C79.3943 176.075 79.459 175.863 79.4376 175.618C79.4161 175.373 79.3154 175.174 79.1355 175.023C78.955 174.872 78.7422 174.807 78.4972 174.829L73.3091 175.283C73.0641 175.304 72.8661 175.405 72.7151 175.585C72.5636 175.765 72.4986 175.978 72.52 176.223C72.5415 176.468 72.6424 176.666 72.8229 176.817C73.0029 176.968 73.2154 177.033 73.4604 177.012ZM71.4715 184.156C70.9959 184.198 70.5741 184.064 70.2061 183.756C69.8375 183.446 69.6324 183.054 69.5908 182.578L68.3804 168.743C68.3388 168.268 68.4726 167.846 68.7819 167.477C69.0907 167.109 69.4829 166.904 69.9585 166.863L76.1627 166.32C76.3932 166.3 76.6169 166.324 76.8338 166.392C77.05 166.46 77.2443 166.566 77.4167 166.711L81.9774 170.538C82.1498 170.683 82.2884 170.855 82.3931 171.057C82.4979 171.258 82.5603 171.474 82.5805 171.705L83.4259 181.368C83.4675 181.843 83.334 182.266 83.0252 182.634C82.7159 183.002 82.3234 183.207 81.8478 183.249L71.4715 184.156ZM76.4652 171.521C76.4867 171.766 76.5876 171.964 76.7681 172.115C76.9481 172.267 77.1606 172.332 77.4056 172.31L80.8644 172.008L76.1626 168.062L76.4652 171.521Z" fill="#2186C7"/>
<path d="M96.47 168.874C93.6036 169.125 91.838 171.501 92.0649 174.095C92.2919 176.69 94.4433 178.723 97.3098 178.472C100.163 178.223 101.929 175.846 101.702 173.252C101.475 170.658 99.3235 168.625 96.47 168.874ZM97.1588 176.747C95.4468 176.897 94.1107 175.668 93.9586 173.93C93.8065 172.192 94.9089 170.749 96.621 170.599C98.3201 170.451 99.6562 171.68 99.8083 173.418C99.9603 175.156 98.858 176.599 97.1588 176.747ZM102.369 171.181L102.499 172.66L103.718 172.553L104.16 177.612L105.82 177.466L105.378 172.408L107.375 172.233L107.246 170.755L105.249 170.929L105.185 170.203C105.133 169.606 105.462 169.185 106.02 169.137C106.357 169.107 106.627 169.201 106.834 169.327L107.414 167.891C106.979 167.706 106.461 167.608 105.864 167.66C104.23 167.803 103.407 168.999 103.528 170.387L103.588 171.075L102.369 171.181ZM107.892 170.698L108.021 172.177L109.24 172.07L109.683 177.128L111.343 176.983L110.9 171.925L112.898 171.75L112.769 170.271L110.771 170.446L110.708 169.72C110.655 169.123 110.985 168.702 111.542 168.653C111.879 168.624 112.149 168.718 112.356 168.844L112.936 167.408C112.502 167.223 111.984 167.125 111.387 167.177C109.753 167.32 108.929 168.516 109.051 169.904L109.111 170.591L107.892 170.698ZM114.385 176.717L116.032 176.573L115.666 172.384C115.876 171.947 116.356 171.461 117.16 171.39C117.459 171.364 117.682 171.384 117.895 171.417L117.753 169.796C117.593 169.758 117.395 169.736 117.174 169.755C116.435 169.82 115.907 170.206 115.517 170.684L115.46 170.036L113.813 170.18L114.385 176.717ZM125.301 174.69L124.039 173.86C123.729 174.357 123.134 174.723 122.421 174.786C121.396 174.875 120.601 174.448 120.338 173.242L124.917 172.842C124.95 172.617 124.972 172.275 124.94 171.912C124.79 170.2 123.489 169.072 121.673 169.231C119.533 169.418 118.454 171.12 118.623 173.053C118.79 174.959 120.241 176.466 122.563 176.263C123.795 176.155 124.763 175.561 125.301 174.69ZM121.752 170.583C122.673 170.503 123.211 171.122 123.295 171.781L120.286 172.045C120.393 171.173 120.909 170.657 121.752 170.583ZM129.63 172.09C129.797 173.996 131.197 175.508 133.259 175.327C134.141 175.25 134.753 174.922 135.214 174.372L135.26 174.891L136.92 174.746L136.069 165.018L134.409 165.163L134.733 168.873C134.183 168.411 133.524 168.194 132.642 168.271C130.579 168.452 129.463 170.183 129.63 172.09ZM131.355 171.939C131.255 170.797 131.896 169.905 133.011 169.807C133.751 169.743 134.387 170.001 134.881 170.559L135.067 172.686C134.678 173.321 134.096 173.686 133.356 173.75C132.241 173.848 131.455 173.08 131.355 171.939ZM139.307 169.152L140.484 165.285L138.617 165.448L137.776 169.286L139.307 169.152ZM147.771 172.724L146.509 171.894C146.2 172.391 145.604 172.757 144.891 172.82C143.866 172.909 143.071 172.482 142.809 171.277L147.387 170.876C147.42 170.651 147.442 170.309 147.41 169.946C147.261 168.234 145.959 167.106 144.144 167.265C142.004 167.452 140.924 169.154 141.093 171.087C141.26 172.994 142.712 174.5 145.033 174.297C146.266 174.189 147.233 173.595 147.771 172.724ZM144.223 168.617C145.144 168.537 145.681 169.156 145.765 169.816L142.756 170.079C142.863 169.207 143.38 168.691 144.223 168.617ZM149.357 173.657L151.004 173.513L150.631 169.246C150.841 168.809 151.181 168.218 151.934 168.152C152.673 168.087 153.144 168.543 153.213 169.334L153.559 173.29L155.22 173.145L154.868 169.124C154.859 169.02 154.851 168.929 154.83 168.839C155.051 168.376 155.397 167.849 156.11 167.786C156.849 167.722 157.321 168.177 157.39 168.968L157.736 172.924L159.396 172.779L159.044 168.758C158.883 166.916 157.738 166.076 156.389 166.194C155.287 166.29 154.707 166.837 154.29 167.449C153.801 166.786 153.043 166.486 152.213 166.559C151.408 166.629 150.879 167.002 150.475 167.469L150.432 166.976L148.785 167.12L149.357 173.657ZM161.555 175.805L163.203 175.661L162.877 171.939C163.427 172.4 164.087 172.63 164.982 172.552C167.058 172.37 168.161 170.64 167.994 168.733C167.827 166.827 166.44 165.314 164.365 165.496C163.47 165.574 162.86 165.915 162.398 166.465L162.351 165.933L160.704 166.078L161.555 175.805ZM164.268 167.073C165.383 166.975 166.182 167.742 166.282 168.883C166.382 170.025 165.728 170.918 164.613 171.016C163.86 171.082 163.223 170.811 162.727 170.227L162.548 168.177C162.909 167.531 163.503 167.14 164.268 167.073ZM169.788 171.87L171.435 171.726L170.584 161.998L168.937 162.142L169.788 171.87ZM175.929 164.484C173.802 164.67 172.486 166.367 172.658 168.325C172.829 170.284 174.419 171.726 176.546 171.54C178.673 171.354 179.989 169.657 179.817 167.699C179.646 165.74 178.056 164.298 175.929 164.484ZM176.436 169.981C175.346 170.077 174.47 169.317 174.37 168.176C174.27 167.034 175.001 166.134 176.091 166.038C177.142 165.946 178.005 166.707 178.105 167.849C178.204 168.977 177.487 169.889 176.436 169.981ZM181.764 163.085C182.348 163.034 182.785 162.499 182.733 161.915C182.682 161.332 182.159 160.881 181.576 160.932C180.992 160.983 180.542 161.519 180.593 162.103C180.644 162.686 181.18 163.136 181.764 163.085ZM181.606 170.836L183.253 170.692L182.681 164.155L181.034 164.299L181.606 170.836Z" fill="#161616"/>
<rect x="71.2335" y="196.376" width="60.5428" height="13.671" rx="6.82314" transform="rotate(-5 71.2335 196.376)" fill="#F1F1F1"/>
<rect x="136.734" y="190.645" width="41.0129" height="13.671" rx="6.82314" transform="rotate(-5 136.734 190.645)" fill="#F1F1F1"/>
<rect x="182.779" y="186.617" width="82.6768" height="13.671" rx="6.82314" transform="rotate(-5 182.779 186.617)" fill="#F1F1F1"/>
</g>
<path d="M269.624 248.622C268.764 244.118 267.92 239.799 267.094 235.48C266.925 234.62 266.807 234.012 266.773 232.899C266.739 232.072 266.706 230.318 267.6 230.469C268.325 230.672 268.814 230.908 269.253 232.376C270.367 236.172 270.906 240.103 271.463 244C271.952 247.441 272.273 250.073 272.526 253.144C272.644 254.578 271.936 255.151 270.62 254.983C269.439 254.831 268.224 254.696 267.094 254.325C263.011 253.009 258.979 251.592 254.913 250.208C254.407 250.039 254.002 249.938 253.428 249.651C252.737 249.297 252.214 249.078 252.416 248.352C252.602 247.661 253.614 247.694 254.12 247.813C258.371 248.707 267.11 250.697 267.6 250.697C266.183 248.487 264.917 246.412 263.534 244.405C253.833 230.469 243.222 217.344 229.624 206.901C218.86 198.634 207.304 191.785 194.701 186.724C193.959 186.42 193.234 186.049 192.542 185.678C191.597 185.188 191.192 184.767 191.412 184.261C191.951 183.366 192.677 183.535 193.267 183.619C194.448 183.771 195.612 184.176 196.743 184.564C211.808 189.912 225.001 198.415 237.131 208.689C249.582 219.234 259.164 232.123 267.684 245.872C268.106 246.615 269.321 248.352 269.624 248.622Z" fill="black"/>
<defs>
<filter id="filter0_d_4866_12777" x="-25.0452" y="215.444" width="384.593" height="160.565" filterUnits="userSpaceOnUse" color-interpolation-filters="sRGB">
<feFlood flood-opacity="0" result="BackgroundImageFix"/>
<feColorMatrix in="SourceAlpha" type="matrix" values="0 0 0 0 0 0 0 0 0 0 0 0 0 0 0 0 0 0 127 0" result="hardAlpha"/>
<feOffset dy="6"/>
<feGaussianBlur stdDeviation="12.5"/>
<feComposite in2="hardAlpha" operator="out"/>
<feColorMatrix type="matrix" values="0 0 0 0 0.196078 0 0 0 0 0.196078 0 0 0 0 0.196078 0 0 0 0.1 0"/>
<feBlend mode="normal" in2="BackgroundImageFix" result="effect1_dropShadow_4866_12777"/>
<feBlend mode="normal" in="SourceGraphic" in2="effect1_dropShadow_4866_12777" result="shape"/>
</filter>
<filter id="filter1_d_4866_12777" x="-5.25507" y="22.0816" width="260.723" height="117.512" filterUnits="userSpaceOnUse" color-interpolation-filters="sRGB">
<feFlood flood-opacity="0" result="BackgroundImageFix"/>
<feColorMatrix in="SourceAlpha" type="matrix" values="0 0 0 0 0 0 0 0 0 0 0 0 0 0 0 0 0 0 127 0" result="hardAlpha"/>
<feOffset dy="3.89894"/>
<feGaussianBlur stdDeviation="8.12279"/>
<feComposite in2="hardAlpha" operator="out"/>
<feColorMatrix type="matrix" values="0 0 0 0 0.196078 0 0 0 0 0.196078 0 0 0 0 0.196078 0 0 0 0.1 0"/>
<feBlend mode="normal" in2="BackgroundImageFix" result="effect1_dropShadow_4866_12777"/>
<feBlend mode="normal" in="SourceGraphic" in2="effect1_dropShadow_4866_12777" result="shape"/>
</filter>
<filter id="filter2_d_4866_12777" x="9.06717" y="56.5846" width="260.723" height="117.512" filterUnits="userSpaceOnUse" color-interpolation-filters="sRGB">
<feFlood flood-opacity="0" result="BackgroundImageFix"/>
<feColorMatrix in="SourceAlpha" type="matrix" values="0 0 0 0 0 0 0 0 0 0 0 0 0 0 0 0 0 0 127 0" result="hardAlpha"/>
<feOffset dy="3.89894"/>
<feGaussianBlur stdDeviation="8.12279"/>
<feComposite in2="hardAlpha" operator="out"/>
<feColorMatrix type="matrix" values="0 0 0 0 0.196078 0 0 0 0 0.196078 0 0 0 0 0.196078 0 0 0 0.1 0"/>
<feBlend mode="normal" in2="BackgroundImageFix" result="effect1_dropShadow_4866_12777"/>
<feBlend mode="normal" in="SourceGraphic" in2="effect1_dropShadow_4866_12777" result="shape"/>
</filter>
<filter id="filter3_d_4866_12777" x="22.7378" y="89.7854" width="260.723" height="117.512" filterUnits="userSpaceOnUse" color-interpolation-filters="sRGB">
<feFlood flood-opacity="0" result="BackgroundImageFix"/>
<feColorMatrix in="SourceAlpha" type="matrix" values="0 0 0 0 0 0 0 0 0 0 0 0 0 0 0 0 0 0 127 0" result="hardAlpha"/>
<feOffset dy="3.89894"/>
<feGaussianBlur stdDeviation="8.12279"/>
<feComposite in2="hardAlpha" operator="out"/>
<feColorMatrix type="matrix" values="0 0 0 0 0.196078 0 0 0 0 0.196078 0 0 0 0 0.196078 0 0 0 0.1 0"/>
<feBlend mode="normal" in2="BackgroundImageFix" result="effect1_dropShadow_4866_12777"/>
<feBlend mode="normal" in="SourceGraphic" in2="effect1_dropShadow_4866_12777" result="shape"/>
</filter>
<filter id="filter4_d_4866_12777" x="37.0601" y="124.289" width="260.723" height="117.512" filterUnits="userSpaceOnUse" color-interpolation-filters="sRGB">
<feFlood flood-opacity="0" result="BackgroundImageFix"/>
<feColorMatrix in="SourceAlpha" type="matrix" values="0 0 0 0 0 0 0 0 0 0 0 0 0 0 0 0 0 0 127 0" result="hardAlpha"/>
<feOffset dy="3.89894"/>
<feGaussianBlur stdDeviation="8.12279"/>
<feComposite in2="hardAlpha" operator="out"/>
<feColorMatrix type="matrix" values="0 0 0 0 0.196078 0 0 0 0 0.196078 0 0 0 0 0.196078 0 0 0 0.1 0"/>
<feBlend mode="normal" in2="BackgroundImageFix" result="effect1_dropShadow_4866_12777"/>
<feBlend mode="normal" in="SourceGraphic" in2="effect1_dropShadow_4866_12777" result="shape"/>
</filter>
<clipPath id="clip0_4866_12777">
<rect width="20.4107" height="20.4107" fill="white" transform="translate(105.78 279.005) scale(1.00181) rotate(-5)"/>
</clipPath>
<clipPath id="clip1_4866_12777">
<rect width="20.7943" height="20.7943" fill="white" transform="translate(36.6262 97.8832) scale(1.00181) rotate(-5)"/>
</clipPath>
</defs>
</svg>
