<svg width="402" height="395" viewBox="0 0 402 395" fill="none" xmlns="http://www.w3.org/2000/svg">
<rect x="42.7225" y="28.9545" width="326" height="314.914" rx="11.5" transform="rotate(-5 42.7225 28.9545)" fill="#F1F1F1" stroke="#878787" stroke-dasharray="5 5"/>
<g filter="url(#filter0_d_1124_7103)">
<rect x="24" y="50.2539" width="328" height="315.663" rx="16" transform="rotate(-5 24 50.2539)" fill="white"/>
</g>
<path d="M62.8161 142.328C63.9075 143.421 65.2267 143.997 67.1075 143.832C69.1636 143.652 70.6793 142.251 70.5271 140.144C70.1924 136.319 65.1739 137.336 64.9968 135.312C64.9383 134.642 65.4196 134.086 66.2166 134.016C67.0614 133.942 67.8434 134.436 68.5708 135.224L70.0974 133.58C69.042 132.532 67.7013 131.895 66.0277 132.041C63.8919 132.228 62.5538 133.823 62.7086 135.592C63.0391 139.37 68.0589 138.368 68.2388 140.424C68.3085 141.221 67.8084 141.747 66.9158 141.825C66.0073 141.905 65.0701 141.473 64.3253 140.67L62.8161 142.328ZM80.1459 141.053L78.595 140.032C78.2149 140.644 77.4833 141.093 76.6066 141.17C75.3474 141.28 74.37 140.755 74.0476 139.274L79.6741 138.781C79.7142 138.505 79.7417 138.085 79.7026 137.639C79.5186 135.535 77.9197 134.149 75.6882 134.344C73.0582 134.574 71.7315 136.666 71.9393 139.041C72.1443 141.384 73.9284 143.235 76.7815 142.986C78.2957 142.853 79.4846 142.123 80.1459 141.053ZM75.7854 136.006C76.9171 135.907 77.578 136.668 77.681 137.478L73.9831 137.802C74.1142 136.73 74.7494 136.096 75.7854 136.006ZM82.0949 142.2L84.1191 142.022L83.6687 136.874C83.9269 136.338 84.5171 135.74 85.5053 135.653C85.8719 135.621 86.1471 135.645 86.4077 135.687L86.2333 133.694C86.0365 133.647 85.7932 133.621 85.5223 133.644C84.6137 133.724 83.9646 134.198 83.486 134.786L83.4163 133.989L81.392 134.166L82.0949 142.2ZM87.1244 133.665L90.7441 141.443L93.4059 141.21L95.6359 132.92L93.4522 133.111L91.8822 139.03L89.2921 133.475L87.1244 133.665ZM104.802 138.896L103.251 137.875C102.871 138.487 102.139 138.936 101.262 139.013C100.003 139.123 99.0258 138.598 98.7034 137.117L104.33 136.624C104.37 136.348 104.397 135.928 104.358 135.482C104.174 133.378 102.575 131.992 100.344 132.187C97.7141 132.417 96.3873 134.509 96.5951 136.884C96.8001 139.227 98.5842 141.078 101.437 140.828C102.952 140.696 104.14 139.966 104.802 138.896ZM100.441 133.849C101.573 133.75 102.234 134.511 102.337 135.321L98.6389 135.645C98.77 134.573 99.4052 133.939 100.441 133.849ZM111.645 136.113C111.747 137.276 111.204 138.047 110.104 138.143C108.988 138.241 108.32 137.576 108.218 136.413L107.819 131.854L105.779 132.033L106.17 136.496C106.38 138.902 107.897 140.263 110.256 140.057C112.615 139.851 113.887 138.246 113.677 135.839L113.286 131.376L111.246 131.554L111.645 136.113ZM116.23 139.213L118.254 139.036L117.804 133.888C118.062 133.351 118.652 132.753 119.641 132.667C120.007 132.635 120.282 132.659 120.543 132.7L120.369 130.708C120.172 130.661 119.928 130.634 119.657 130.658C118.749 130.737 118.1 131.212 117.621 131.8L117.552 131.003L115.527 131.18L116.23 139.213ZM125.075 133.348L125.247 135.308L129.55 134.932L129.379 132.971L125.075 133.348ZM135.049 137.567L137.073 137.39L136.623 132.241C136.881 131.705 137.471 131.107 138.459 131.02C138.826 130.988 139.101 131.013 139.362 131.054L139.187 129.062C138.99 129.015 138.747 128.988 138.476 129.011C137.568 129.091 136.919 129.565 136.44 130.153L136.37 129.356L134.346 129.533L135.049 137.567ZM145.037 127.313L146.719 124.5L144.519 124.692L143.093 127.483L145.037 127.313ZM148.463 135.076L146.912 134.055C146.532 134.667 145.8 135.116 144.924 135.193C143.665 135.303 142.687 134.778 142.365 133.297L147.991 132.805C148.031 132.528 148.059 132.108 148.02 131.662C147.836 129.558 146.237 128.172 144.005 128.367C141.375 128.597 140.049 130.689 140.256 133.064C140.461 135.407 142.246 137.258 145.099 137.009C146.613 136.876 147.802 136.146 148.463 135.076ZM144.103 130.029C145.234 129.93 145.895 130.691 145.998 131.501L142.3 131.825C142.431 130.753 143.067 130.12 144.103 130.029ZM154.068 134.297C152.713 134.415 151.653 133.496 151.529 132.077C151.406 130.675 152.289 129.57 153.612 129.454C154.441 129.381 155.11 129.692 155.542 130.217L157.014 128.867C156.178 127.945 154.943 127.41 153.476 127.538C150.703 127.781 149.22 129.918 149.425 132.262C149.63 134.605 151.462 136.452 154.235 136.209C155.701 136.081 156.825 135.34 157.488 134.286L155.804 133.213C155.47 133.805 154.865 134.227 154.068 134.297ZM166.083 133.534L164.532 132.514C164.152 133.125 163.421 133.575 162.544 133.651C161.285 133.762 160.307 133.237 159.985 131.755L165.611 131.263C165.652 130.986 165.679 130.566 165.64 130.12C165.456 128.016 163.857 126.63 161.626 126.825C158.996 127.056 157.669 129.147 157.877 131.522C158.082 133.865 159.866 135.717 162.719 135.467C164.233 135.335 165.422 134.604 166.083 133.534ZM161.723 128.487C162.854 128.388 163.515 129.15 163.618 129.96L159.92 130.283C160.052 129.212 160.687 128.578 161.723 128.487ZM168.375 138.602L170.4 138.425L169.999 133.85C170.675 134.418 171.487 134.7 172.587 134.604C175.137 134.381 176.493 132.254 176.288 129.911C176.083 127.568 174.378 125.71 171.828 125.933C170.728 126.029 169.978 126.448 169.411 127.124L169.354 126.471L167.329 126.648L168.375 138.602ZM171.709 127.871C173.079 127.751 174.061 128.693 174.184 130.095C174.307 131.498 173.503 132.596 172.133 132.716C171.208 132.797 170.424 132.464 169.815 131.746L169.595 129.228C170.039 128.434 170.768 127.953 171.709 127.871ZM178.652 130.797C178.824 132.757 179.879 133.805 181.888 133.629C182.557 133.571 183.028 133.449 183.411 133.239L183.257 131.47C182.995 131.605 182.634 131.701 182.076 131.75C181.279 131.82 180.771 131.511 180.693 130.618L180.405 127.335L182.86 127.12L182.701 125.303L180.246 125.518L180.071 123.509L178.03 123.688L178.206 125.696L176.708 125.827L176.867 127.644L178.365 127.513L178.652 130.797ZM185.411 123.652C186.128 123.59 186.665 122.932 186.602 122.215C186.54 121.498 185.897 120.944 185.18 121.006C184.462 121.069 183.91 121.728 183.972 122.445C184.035 123.162 184.694 123.715 185.411 123.652ZM185.217 133.178L187.241 133L186.538 124.967L184.514 125.144L185.217 133.178ZM192.763 124.101C190.149 124.33 188.533 126.415 188.743 128.822C188.954 131.228 190.908 133.001 193.522 132.772C196.136 132.543 197.752 130.459 197.541 128.052C197.331 125.645 195.377 123.873 192.763 124.101ZM193.386 130.857C192.047 130.974 190.97 130.04 190.847 128.638C190.724 127.235 191.623 126.128 192.962 126.011C194.253 125.898 195.315 126.833 195.438 128.236C195.559 129.623 194.677 130.744 193.386 130.857ZM199.739 131.907L201.763 131.73L201.305 126.486C201.563 125.949 202.045 125.217 203.065 125.127C204.053 125.041 204.717 125.657 204.811 126.725L205.222 131.427L207.262 131.249L206.844 126.467C206.636 124.092 205.145 123.018 203.408 123.17C202.34 123.263 201.627 123.743 201.116 124.334L201.061 123.697L199.036 123.874L199.739 131.907ZM209.561 131.048L211.585 130.871L211.127 125.627C211.385 125.09 211.867 124.357 212.887 124.268C213.875 124.182 214.539 124.798 214.633 125.866L215.044 130.568L217.084 130.389L216.666 125.608C216.458 123.233 214.967 122.159 213.23 122.311C212.162 122.404 211.449 122.884 210.938 123.475L210.883 122.837L208.858 123.014L209.561 131.048ZM219.578 120.663C220.295 120.6 220.832 119.943 220.769 119.226C220.706 118.509 220.063 117.955 219.346 118.017C218.629 118.08 218.076 118.739 218.139 119.456C218.202 120.173 218.86 120.726 219.578 120.663ZM219.383 130.188L221.407 130.011L220.704 121.978L218.68 122.155L219.383 130.188ZM222.923 128.706C223.767 129.548 224.837 130.032 226.272 129.907C227.786 129.774 229.06 128.731 228.944 127.039C228.702 124.266 224.902 125.08 224.782 123.709C224.746 123.295 225.018 122.918 225.656 122.862C226.277 122.807 226.84 123.176 227.299 123.65L228.534 122.353C227.892 121.622 226.725 121.13 225.497 121.237C223.824 121.384 222.722 122.556 222.846 123.975C223.093 126.796 226.888 125.934 227.011 127.337C227.053 127.815 226.751 128.227 226.098 128.284C225.333 128.351 224.704 127.956 224.156 127.378L222.923 128.706ZM231.388 126.183C231.56 128.143 232.615 129.191 234.624 129.016C235.293 128.957 235.764 128.835 236.147 128.625L235.993 126.856C235.731 126.991 235.37 127.087 234.812 127.136C234.016 127.206 233.507 126.897 233.429 126.004L233.141 122.721L235.596 122.506L235.437 120.689L232.982 120.904L232.807 118.895L230.766 119.074L230.942 121.082L229.444 121.213L229.603 123.03L231.101 122.899L231.388 126.183ZM245.078 126.623L243.528 125.603C243.147 126.214 242.416 126.664 241.539 126.74C240.28 126.85 239.302 126.326 238.98 124.844L244.607 124.352C244.647 124.075 244.674 123.655 244.635 123.209C244.451 121.105 242.852 119.719 240.621 119.914C237.991 120.144 236.664 122.236 236.872 124.611C237.077 126.954 238.861 128.805 241.714 128.556C243.228 128.423 244.417 127.693 245.078 126.623ZM240.718 121.576C241.85 121.477 242.51 122.238 242.613 123.049L238.916 123.372C239.047 122.301 239.682 121.667 240.718 121.576ZM249.397 122.471L249.569 124.432L253.872 124.055L253.701 122.095L249.397 122.471ZM258.474 123.781L263.622 123.331L263.882 126.295L266.033 126.107L265.774 123.142L266.906 123.043L266.736 121.099L265.604 121.198L265.057 114.95L262.539 115.17L258.304 121.836L258.474 123.781ZM260.519 121.643L263.119 117.577L263.452 121.386L260.519 121.643ZM271.811 125.923C275.238 125.623 276.456 123.027 276.152 119.552C275.826 115.822 274.031 113.843 271.13 114.097C268.579 114.32 267.219 116.206 267.403 118.31C267.581 120.35 269.122 121.805 271.337 121.612C272.437 121.515 273.315 121.085 273.977 120.385C274.025 122.597 273.283 123.835 271.673 123.975C270.78 124.053 270.085 123.632 269.444 122.918L267.906 124.433C268.709 125.343 269.962 126.085 271.811 125.923ZM269.611 118.036C269.519 116.984 270.184 116.139 271.332 116.039C272.479 115.938 273.322 116.571 273.736 118.366C273.258 119.147 272.477 119.585 271.569 119.664C270.501 119.757 269.702 119.072 269.611 118.036ZM280.777 119.726L280.949 121.686L285.253 121.31L285.081 119.349L280.777 119.726ZM64.6446 167.818L67.0514 167.607L67.8655 164.613L72.3285 164.223L73.6502 167.03L76.057 166.819L70.857 156.032L67.8923 156.291L64.6446 167.818ZM68.3981 162.623L69.5615 158.297L71.4584 162.355L68.3981 162.623ZM77.9915 166.65L80.0158 166.473L79.557 161.229C79.8152 160.693 80.2972 159.96 81.3173 159.871C82.3055 159.784 82.9698 160.401 83.0632 161.468L83.4746 166.17L85.5148 165.992L85.0964 161.21C84.8886 158.835 83.3974 157.761 81.66 157.913C80.5921 158.007 79.8792 158.487 79.3687 159.077L79.313 158.44L77.2887 158.617L77.9915 166.65ZM87.1391 167.263C87.2869 168.953 88.8793 169.713 91.4454 169.488C93.9479 169.269 95.5334 167.749 95.3773 165.964C95.2462 164.466 94.0516 163.478 92.0273 163.655L90.003 163.833C89.6364 163.865 89.4471 163.721 89.4193 163.402C89.4039 163.227 89.4842 163.043 89.6456 162.868C89.8889 162.895 90.1453 162.889 90.4163 162.865C92.4883 162.684 93.5563 161.305 93.4182 159.727C93.3945 159.456 93.3403 159.204 93.2383 158.956L94.6569 158.832L94.5063 157.111L91.5735 157.367C91.0931 157.2 90.5414 157.136 89.9198 157.191C87.9115 157.366 86.8103 158.731 86.9469 160.293C87.025 161.186 87.4773 161.95 88.2246 162.414C87.658 162.913 87.4317 163.447 87.4874 164.085C87.5237 164.499 87.7367 164.914 88.0833 165.205C87.4121 165.794 87.0694 166.466 87.1391 167.263ZM90.3143 161.332C89.4376 161.409 88.8656 160.929 88.7959 160.132C88.7275 159.351 89.2075 158.779 90.0842 158.702C90.9289 158.628 91.5155 159.091 91.5852 159.888C91.6549 160.685 91.159 161.258 90.3143 161.332ZM89.0267 166.809C88.9835 166.315 89.1919 165.943 89.4696 165.63L91.9561 165.412C92.9284 165.327 93.3327 165.726 93.3857 166.331C93.4554 167.128 92.7537 167.736 91.2873 167.864C89.8687 167.988 89.0937 167.574 89.0267 166.809ZM103.594 163.093L102.043 162.073C101.663 162.684 100.931 163.134 100.054 163.21C98.7951 163.32 97.8176 162.796 97.4953 161.314L103.122 160.822C103.162 160.545 103.189 160.125 103.15 159.679C102.966 157.575 101.367 156.189 99.1359 156.384C96.5059 156.614 95.1792 158.706 95.3869 161.081C95.5919 163.424 97.3761 165.275 100.229 165.026C101.743 164.893 102.932 164.163 103.594 163.093ZM99.2331 158.046C100.365 157.947 101.026 158.708 101.129 159.519L97.4307 159.842C97.5619 158.771 98.197 158.137 99.2331 158.046ZM105.543 164.24L107.567 164.063L107.116 158.914C107.375 158.378 107.965 157.78 108.953 157.694C109.32 157.662 109.595 157.686 109.855 157.727L109.681 155.735C109.484 155.688 109.241 155.661 108.97 155.685C108.061 155.764 107.412 156.238 106.934 156.826L106.864 156.029L104.84 156.206L105.543 164.24ZM111.215 162.571C112.059 163.413 113.13 163.897 114.564 163.772C116.078 163.639 117.352 162.596 117.236 160.904C116.994 158.131 113.194 158.945 113.074 157.574C113.038 157.16 113.31 156.782 113.948 156.727C114.569 156.672 115.132 157.041 115.591 157.514L116.826 156.218C116.184 155.487 115.017 154.995 113.79 155.102C112.116 155.249 111.014 156.421 111.138 157.84C111.385 160.661 115.18 159.799 115.303 161.202C115.345 161.68 115.043 162.092 114.39 162.149C113.625 162.216 112.996 161.821 112.448 161.243L111.215 162.571Z" fill="#161616"/>
<rect x="58.5417" y="245.175" width="130" height="31" rx="15.5" transform="rotate(-5 58.5417 245.175)" fill="#EEF1F8"/>
<path d="M75.3335 259.265C76.0641 259.201 76.6095 258.551 76.5456 257.82C76.4817 257.09 75.8317 256.544 75.1011 256.608C74.3706 256.672 73.8251 257.322 73.8891 258.053C73.953 258.783 74.603 259.329 75.3335 259.265ZM74.7525 252.624C77.5418 252.38 80.2526 254.297 80.542 257.605C80.7268 259.717 79.3169 262.343 76.3198 265.489C76.0866 265.73 75.708 265.764 75.4365 265.567C71.9451 262.988 70.1007 260.646 69.9159 258.534C69.6265 255.227 71.9631 252.868 74.7525 252.624Z" fill="#3B69D1"/>
<path d="M88.1223 261.33L92.9757 260.905L93.2222 263.723L94.4774 263.613L94.2309 260.796L95.3606 260.697L95.2618 259.567L94.1321 259.666L93.6233 253.85L92.1031 253.983L88.0234 260.2L88.1223 261.33ZM89.3623 260.083L92.4876 255.327L92.8769 259.776L89.3623 260.083ZM99.7303 263.434C102.506 263.192 103.573 260.934 103.296 257.768C103 254.379 101.421 252.887 99.1342 253.087C97.0143 253.272 95.9048 254.887 96.0598 256.659C96.2099 258.374 97.5859 259.645 99.4129 259.485C100.501 259.39 101.387 258.919 102.022 258.147C102.179 260.578 101.415 262.135 99.6302 262.291C98.7237 262.37 98.0164 261.996 97.3841 261.194L96.4471 262.049C97.2032 262.981 98.2241 263.566 99.7303 263.434ZM97.3532 256.503C97.2507 255.332 97.9512 254.343 99.2482 254.229C100.476 254.122 101.464 254.823 101.853 256.854C101.356 257.755 100.5 258.252 99.5093 258.338C98.3657 258.438 97.452 257.633 97.3532 256.503ZM107.749 258.278L107.849 259.422L111.614 259.092L111.514 257.948L107.749 258.278ZM115.986 261.731L117.38 261.609L118.259 258.637L122.749 258.244L124.13 261.019L125.525 260.897L120.78 251.474L119.023 251.628L115.986 261.731ZM118.592 257.47L120.001 252.695L122.218 257.153L118.592 257.47ZM127.454 260.728L128.765 260.613L128.051 252.454L134.288 260.13L136.003 259.98L135.149 250.217L133.838 250.332L134.552 258.491L128.315 250.815L126.6 250.965L127.454 260.728ZM143.451 258.373C141.163 258.573 139.378 256.958 139.188 254.783C138.997 252.607 140.419 250.712 142.623 250.519C143.934 250.404 145.064 250.952 145.803 251.843L146.778 250.942C145.78 249.821 144.273 249.138 142.516 249.292C139.461 249.559 137.591 252.112 137.835 254.901C138.079 257.69 140.42 259.875 143.558 259.6C145.385 259.44 146.809 258.529 147.608 257.222L147.275 253.414L143.147 253.776L143.246 254.905L146.063 254.659L146.256 256.862C145.64 257.689 144.664 258.267 143.451 258.373ZM150.376 258.722L155.62 258.264L155.522 257.148L151.589 257.492L151.3 254.187L154.675 253.891L154.579 252.79L151.204 253.085L150.93 249.961L154.863 249.617L154.766 248.501L149.522 248.96L150.376 258.722ZM158.235 258.035L159.546 257.92L159.171 253.639L160.454 253.526C160.552 253.518 160.663 253.508 160.76 253.485L163.967 257.533L165.515 257.398L161.965 253.127C162.974 252.617 163.497 251.686 163.395 250.515C163.248 248.841 161.941 247.873 159.974 248.045L157.38 248.272L158.235 258.035ZM160.128 249.156C161.244 249.058 161.953 249.615 162.039 250.605C162.131 251.651 161.528 252.308 160.412 252.406L159.073 252.523L158.789 249.273L160.128 249.156ZM166.231 255.986C167.175 256.972 168.282 257.423 169.719 257.297C171.448 257.146 172.651 255.958 172.503 254.271C172.219 251.021 167.647 251.927 167.455 249.738C167.382 248.901 167.943 248.247 168.905 248.163C169.742 248.09 170.466 248.491 171.11 249.263L172.024 248.312C171.215 247.413 170.156 246.873 168.789 246.993C167.088 247.142 165.992 248.432 166.119 249.883C166.401 253.104 170.989 252.225 171.182 254.429C171.26 255.321 170.69 256.032 169.602 256.127C168.696 256.206 167.874 255.814 167.129 255.008L166.231 255.986Z" fill="#3B69D1"/>
<rect x="58.5417" y="245.175" width="130" height="31" rx="15.5" transform="rotate(-5 58.5417 245.175)" stroke="#EEF1F8"/>
<rect x="53.5417" y="196.276" width="192" height="31" rx="15.5" transform="rotate(-5 53.5417 196.276)" fill="#EEF1F8"/>
<path d="M71.5483 214.933C72.4918 215.919 73.5993 216.37 75.0358 216.244C76.7652 216.093 77.9683 214.906 77.8207 213.218C77.5364 209.969 72.9639 210.875 72.7724 208.685C72.6992 207.848 73.2603 207.195 74.2227 207.111C75.0595 207.037 75.7831 207.438 76.4269 208.211L77.3415 207.259C76.5321 206.36 75.473 205.821 74.1062 205.94C72.4047 206.089 71.309 207.38 71.4359 208.83C71.7178 212.052 76.3066 211.172 76.4994 213.376C76.5775 214.269 76.0072 214.979 74.9194 215.074C74.0129 215.154 73.1916 214.762 72.4465 213.955L71.5483 214.933ZM86.376 213.819L85.4376 213.212C85.0323 213.88 84.3018 214.366 83.3952 214.445C81.889 214.577 80.726 213.653 80.5365 211.969L85.9339 211.497C85.9587 211.298 85.9773 211.029 85.9529 210.75C85.8016 209.021 84.4432 207.79 82.5325 207.958C80.3569 208.148 79.1353 209.927 79.322 212.061C79.5013 214.111 81.1183 215.726 83.4892 215.519C84.8002 215.404 85.7974 214.755 86.376 213.819ZM82.5925 208.964C83.8338 208.856 84.6207 209.658 84.7528 210.686L80.5409 211.055C80.6858 209.82 81.4349 209.065 82.5925 208.964ZM88.333 214.814L89.5184 214.71L89.0963 209.885C89.4664 209.136 90.0246 208.609 90.9451 208.529C91.224 208.504 91.4357 208.514 91.6497 208.551L91.5485 207.394C91.3762 207.353 91.1646 207.343 90.9414 207.362C90.0488 207.441 89.4427 207.901 88.9803 208.56L88.9035 207.681L87.718 207.785L88.333 214.814ZM92.4465 207.371L95.809 214.16L97.371 214.023L99.5035 206.754L98.2204 206.866L96.4814 212.85L93.7296 207.259L92.4465 207.371ZM107.609 211.961L106.671 211.355C106.266 212.023 105.535 212.508 104.629 212.587C103.122 212.719 101.959 211.795 101.77 210.111L107.167 209.639C107.192 209.44 107.211 209.171 107.186 208.892C107.035 207.163 105.677 205.933 103.766 206.1C101.59 206.29 100.369 208.069 100.555 210.203C100.735 212.254 102.352 213.869 104.723 213.661C106.034 213.547 107.031 212.897 107.609 211.961ZM103.826 207.107C105.067 206.998 105.854 207.8 105.986 208.829L101.774 209.197C101.919 207.962 102.668 207.208 103.826 207.107ZM114.089 209.525C114.21 210.906 113.526 211.767 112.355 211.869C111.155 211.974 110.347 211.244 110.226 209.863L109.874 205.847L108.689 205.95L109.037 209.925C109.221 212.031 110.542 213.152 112.438 212.986C114.349 212.819 115.455 211.486 115.271 209.38L114.923 205.405L113.738 205.509L114.089 209.525ZM117.874 212.23L119.06 212.126L118.638 207.3C119.008 206.551 119.566 206.025 120.487 205.944C120.765 205.92 120.977 205.929 121.191 205.967L121.09 204.809C120.918 204.768 120.706 204.758 120.483 204.778C119.59 204.856 118.984 205.317 118.522 205.975L118.445 205.097L117.259 205.2L117.874 212.23ZM125.538 207.385L125.639 208.529L129.404 208.199L129.304 207.056L125.538 207.385ZM134.654 210.762L135.84 210.658L135.417 205.832C135.787 205.083 136.346 204.557 137.266 204.476C137.545 204.452 137.757 204.461 137.971 204.499L137.87 203.341C137.697 203.3 137.486 203.29 137.263 203.31C136.37 203.388 135.764 203.849 135.301 204.507L135.225 203.629L134.039 203.732L134.654 210.762ZM142.633 201.856L144.062 199.398L142.723 199.515L141.475 201.958L142.633 201.856ZM145.922 208.609L144.984 208.003C144.578 208.671 143.848 209.156 142.941 209.235C141.435 209.367 140.272 208.443 140.083 206.759L145.48 206.287C145.505 206.088 145.523 205.819 145.499 205.541C145.348 203.811 143.989 202.581 142.079 202.748C139.903 202.938 138.681 204.718 138.868 206.851C139.047 208.902 140.664 210.517 143.035 210.309C144.346 210.195 145.343 209.545 145.922 208.609ZM142.138 203.755C143.38 203.646 144.167 204.448 144.299 205.477L140.087 205.845C140.232 204.61 140.981 203.856 142.138 203.755ZM151.014 208.487C149.494 208.62 148.318 207.542 148.186 206.036C148.055 204.544 149.025 203.264 150.532 203.133C151.41 203.056 152.158 203.412 152.644 203.988L153.516 203.195C152.785 202.387 151.703 201.906 150.434 202.017C148.105 202.221 146.765 204.095 146.945 206.145C147.124 208.195 148.769 209.808 151.098 209.604C152.381 209.492 153.35 208.845 153.929 207.909L152.932 207.279C152.554 207.931 151.879 208.411 151.014 208.487ZM161.53 207.244L160.592 206.637C160.187 207.305 159.456 207.791 158.55 207.87C157.043 208.002 155.88 207.078 155.691 205.394L161.088 204.921C161.113 204.723 161.132 204.454 161.107 204.175C160.956 202.446 159.598 201.215 157.687 201.382C155.511 201.573 154.29 203.352 154.476 205.486C154.656 207.536 156.273 209.151 158.644 208.944C159.955 208.829 160.952 208.18 161.53 207.244ZM157.747 202.389C158.988 202.28 159.775 203.083 159.907 204.111L155.695 204.48C155.84 203.244 156.589 202.49 157.747 202.389ZM163.787 211.67L164.973 211.566L164.6 207.298C165.289 207.955 166.148 208.287 167.194 208.196C169.397 208.003 170.653 206.136 170.474 204.086C170.295 202.036 168.733 200.416 166.53 200.609C165.484 200.7 164.696 201.177 164.131 201.943L164.058 201.106L162.872 201.21L163.787 211.67ZM166.488 201.737C167.98 201.606 169.102 202.703 169.233 204.195C169.363 205.687 168.449 206.962 166.957 207.092C165.994 207.176 165.103 206.791 164.485 205.987L164.246 203.254C164.702 202.371 165.512 201.822 166.488 201.737ZM172.784 205.051C172.934 206.766 173.881 207.47 175.443 207.334C175.945 207.29 176.316 207.201 176.639 207.032L176.546 205.972C176.291 206.107 175.975 206.191 175.515 206.231C174.664 206.306 174.079 206.047 173.983 204.946L173.668 201.347L176.109 201.134L176.015 200.06L173.574 200.274L173.421 198.516L172.221 198.621L172.375 200.378L171.05 200.494L171.144 201.568L172.469 201.452L172.784 205.051ZM178.267 198.022C178.727 197.982 179.057 197.573 179.016 197.113C178.977 196.667 178.582 196.322 178.122 196.362C177.661 196.403 177.318 196.812 177.357 197.258C177.397 197.719 177.807 198.062 178.267 198.022ZM178.442 206.931L179.627 206.827L179.012 199.798L177.827 199.901L178.442 206.931ZM184.701 199.019C182.428 199.218 181.046 201.095 181.226 203.146C181.405 205.196 183.092 206.805 185.365 206.606C187.624 206.408 189.02 204.53 188.841 202.479C188.661 200.429 186.961 198.821 184.701 199.019ZM185.281 205.489C183.775 205.621 182.595 204.501 182.467 203.037C182.339 201.573 183.307 200.265 184.813 200.133C186.277 200.005 187.457 201.125 187.585 202.589C187.712 204.04 186.746 205.361 185.281 205.489ZM191.054 205.827L192.239 205.724L191.813 200.856C192.195 200.078 192.785 199.436 193.804 199.347C194.891 199.252 195.666 199.915 195.776 201.17L196.144 205.382L197.33 205.278L196.958 201.024C196.783 199.03 195.519 198.073 193.943 198.21C192.897 198.302 192.211 198.812 191.694 199.489L191.624 198.694L190.439 198.798L191.054 205.827ZM199.716 205.069L200.902 204.966L200.476 200.098C200.857 199.32 201.448 198.678 202.466 198.589C203.554 198.494 204.328 199.157 204.438 200.412L204.807 204.624L205.992 204.52L205.62 200.267C205.445 198.272 204.181 197.315 202.605 197.453C201.559 197.544 200.873 198.054 200.356 198.731L200.287 197.937L199.101 198.04L199.716 205.069ZM208.203 195.403C208.663 195.363 208.993 194.954 208.953 194.494C208.914 194.048 208.518 193.703 208.058 193.743C207.598 193.783 207.254 194.193 207.293 194.639C207.333 195.1 207.743 195.443 208.203 195.403ZM208.378 204.312L209.564 204.208L208.949 197.179L207.763 197.282L208.378 204.312ZM211.178 203.097C211.889 203.836 212.806 204.205 213.922 204.108C215.233 203.993 216.207 203.079 216.106 201.766C215.896 199.367 212.412 200.178 212.274 198.602C212.226 198.058 212.592 197.577 213.345 197.511C213.959 197.457 214.518 197.745 214.941 198.242L215.703 197.473C215.155 196.832 214.248 196.434 213.244 196.522C211.891 196.64 211.036 197.628 211.133 198.73C211.35 201.213 214.816 200.347 214.954 201.923C215.007 202.537 214.602 203.05 213.821 203.119C213.11 203.181 212.494 202.883 211.952 202.312L211.178 203.097ZM218.451 201.055C218.601 202.771 219.548 203.475 221.11 203.338C221.612 203.294 221.984 203.206 222.306 203.037L222.214 201.977C221.958 202.112 221.642 202.195 221.182 202.236C220.331 202.31 219.747 202.052 219.65 200.95L219.336 197.352L221.776 197.139L221.682 196.065L219.242 196.278L219.088 194.521L217.888 194.626L218.042 196.383L216.717 196.499L216.811 197.573L218.136 197.457L218.451 201.055ZM230.12 201.243L229.181 200.636C228.776 201.304 228.046 201.79 227.139 201.869C225.633 202.001 224.47 201.077 224.28 199.393L229.678 198.921C229.703 198.722 229.721 198.453 229.697 198.174C229.546 196.445 228.187 195.214 226.276 195.382C224.101 195.572 222.879 197.351 223.066 199.485C223.245 201.535 224.862 203.15 227.233 202.943C228.544 202.828 229.541 202.179 230.12 201.243ZM226.336 196.388C227.578 196.28 228.365 197.082 228.497 198.11L224.285 198.479C224.43 197.244 225.179 196.49 226.336 196.388Z" fill="#274996"/>
<rect x="53.5417" y="196.276" width="192" height="31" rx="15.5" transform="rotate(-5 53.5417 196.276)" stroke="#EEF1F8"/>
<line x1="61.7659" y1="294.308" x2="356.734" y2="268.502" stroke="#F1F1F1"/>
<rect x="38.4093" y="81.2753" width="96.5372" height="31" rx="15.5" transform="rotate(-5 38.4093 81.2753)" fill="white"/>
<path d="M66.6807 100.384L71.9246 99.9255L71.827 98.8097L67.8941 99.1538L67.6049 95.8485L70.98 95.5532L70.8836 94.4514L67.5085 94.7467L67.2352 91.6226L71.1681 91.2785L71.0705 90.1628L65.8265 90.6216L66.6807 100.384ZM74.1647 99.7295L75.3502 99.6258L74.9244 94.7584C75.2654 93.9978 75.8126 93.3456 76.7749 93.2614C77.793 93.1723 78.4932 93.7856 78.5957 94.9571L78.9763 99.3085L80.1618 99.2048L79.7775 94.8116C79.7628 94.6442 79.7355 94.492 79.7081 94.3398C80.0963 93.4767 80.68 92.9197 81.5726 92.8416C82.5768 92.7538 83.2908 93.3659 83.3933 94.5374L83.774 98.8888L84.9595 98.7851L84.5751 94.3919C84.408 92.4811 83.2183 91.5734 81.7121 91.7052C80.4987 91.8113 79.8108 92.4617 79.32 93.2776C78.8096 92.4229 77.9325 92.0358 76.9144 92.1249C75.9381 92.2103 75.2786 92.7037 74.8023 93.3637L74.7352 92.5966L73.5498 92.7003L74.1647 99.7295ZM87.6489 102.007L88.8344 101.903L88.461 97.6355C89.1508 98.2919 90.0091 98.6244 91.0551 98.5328C93.2587 98.3401 94.5148 96.4735 94.3354 94.4233C94.156 92.3731 92.5949 90.753 90.3913 90.9458C89.3453 91.0373 88.5578 91.5138 87.9925 92.28L87.9192 91.4432L86.7338 91.5469L87.6489 102.007ZM90.3494 92.0738C91.8417 91.9432 92.9636 93.0396 93.0941 94.5319C93.2247 96.0242 92.3103 97.2987 90.818 97.4293C89.8557 97.5135 88.9647 97.1277 88.3463 96.3245L88.1071 93.591C88.5639 92.7078 89.3732 92.1592 90.3494 92.0738ZM96.5558 97.7705L97.7412 97.6668L96.8261 87.2068L95.6406 87.3105L96.5558 97.7705ZM102.815 89.8589C100.542 90.0578 99.1602 91.9353 99.3395 93.9855C99.5189 96.0357 101.206 97.6448 103.479 97.4459C105.738 97.2482 107.134 95.3695 106.954 93.3193C106.775 91.2691 105.074 89.6612 102.815 89.8589ZM103.395 96.3289C101.889 96.4607 100.709 95.3413 100.581 93.8769C100.453 92.4125 101.42 91.1052 102.927 90.9734C104.391 90.8453 105.571 91.9647 105.699 93.4291C105.826 94.8796 104.86 96.2008 103.395 96.3289ZM108.993 87.7585C109.453 87.7182 109.783 87.3099 109.742 86.8497C109.703 86.4034 109.308 86.0586 108.847 86.0988C108.387 86.1391 108.044 86.5486 108.083 86.9949C108.123 87.4551 108.532 87.7987 108.993 87.7585ZM109.168 96.6671L110.353 96.5634L109.738 89.5343L108.553 89.638L109.168 96.6671Z" fill="#4A526D"/>
<rect x="38.4093" y="81.2753" width="96.5372" height="31" rx="15.5" transform="rotate(-5 38.4093 81.2753)" stroke="#4A526D"/>
<rect x="239.162" y="287.823" width="124.405" height="39" rx="19.5" transform="rotate(-5 239.162 287.823)" fill="#3B69D1"/>
<path fill-rule="evenodd" clip-rule="evenodd" d="M272.219 303.836L271.87 299.851L273.199 299.735L273.547 303.72L277.532 303.371L277.648 304.699L273.663 305.048L274.012 309.033L272.684 309.149L272.335 305.164L268.35 305.513L268.234 304.184L272.219 303.836Z" fill="white"/>
<path d="M289.718 308.997L291.823 308.813L292.536 306.193L296.441 305.851L297.597 308.308L299.703 308.124L295.153 298.684L292.559 298.911L289.718 308.997ZM293.002 304.452L294.02 300.667L295.68 304.217L293.002 304.452ZM301.538 299.643C302.152 299.59 302.636 299.013 302.581 298.386C302.526 297.758 301.95 297.275 301.336 297.328C300.708 297.383 300.225 297.96 300.28 298.587C300.334 299.215 300.911 299.698 301.538 299.643ZM303.233 308.574L302.552 300.791L300.781 300.946L301.462 308.729C301.533 309.538 301.141 309.881 300.444 309.942C299.956 309.985 299.616 309.958 299.384 309.88L299.52 311.428C299.882 311.551 300.293 311.585 300.878 311.534C302.649 311.379 303.387 310.331 303.233 308.574ZM307.999 300.034C305.712 300.234 304.298 302.058 304.482 304.164C304.666 306.27 306.376 307.821 308.663 307.621C310.95 307.421 312.365 305.597 312.18 303.491C311.996 301.385 310.286 299.834 307.999 300.034ZM308.544 305.945C307.373 306.047 306.43 305.23 306.323 304.003C306.215 302.776 307.002 301.807 308.174 301.705C309.303 301.606 310.232 302.424 310.339 303.652C310.446 304.865 309.674 305.846 308.544 305.945ZM318.468 303.418C318.557 304.436 318.082 305.11 317.119 305.195C316.143 305.28 315.558 304.699 315.469 303.681L315.12 299.692L313.335 299.848L313.677 303.753C313.861 305.859 315.188 307.05 317.252 306.869C319.316 306.689 320.43 305.284 320.246 303.178L319.904 299.273L318.119 299.43L318.468 303.418ZM322.81 303.516C322.96 305.232 323.884 306.149 325.641 305.995C326.227 305.944 326.639 305.837 326.974 305.653L326.839 304.105C326.61 304.224 326.295 304.308 325.806 304.35C325.109 304.411 324.664 304.141 324.596 303.36L324.344 300.487L326.492 300.299L326.353 298.709L324.205 298.897L324.051 297.14L322.266 297.296L322.42 299.053L321.109 299.168L321.248 300.758L322.559 300.643L322.81 303.516ZM334.789 303.902L333.432 303.009C333.099 303.544 332.459 303.937 331.692 304.004C330.59 304.1 329.735 303.641 329.453 302.345L334.376 301.914C334.411 301.672 334.435 301.305 334.401 300.914C334.24 299.073 332.841 297.86 330.889 298.031C328.587 298.233 327.426 300.063 327.608 302.141C327.788 304.191 329.349 305.811 331.845 305.593C333.17 305.477 334.21 304.838 334.789 303.902ZM330.974 299.485C331.964 299.399 332.542 300.065 332.632 300.774L329.397 301.057C329.511 300.119 330.067 299.565 330.974 299.485ZM336.494 304.905L338.266 304.75L337.872 300.245C338.097 299.776 338.614 299.253 339.479 299.177C339.799 299.149 340.04 299.17 340.268 299.206L340.116 297.463C339.943 297.422 339.73 297.398 339.493 297.419C338.698 297.489 338.13 297.904 337.712 298.418L337.651 297.721L335.879 297.876L336.494 304.905Z" fill="white"/>
<rect x="239.162" y="287.823" width="124.405" height="39" rx="19.5" transform="rotate(-5 239.162 287.823)" stroke="#3B69D1"/>
<path d="M77.3107 326.241C77.3746 326.972 78.0246 327.517 78.7552 327.453L84.0682 326.989C84.7988 326.925 85.3442 326.275 85.2803 325.544L84.6992 318.903C84.6353 318.172 83.9853 317.627 83.2548 317.691L77.9417 318.156C77.2112 318.219 76.6658 318.869 76.7297 319.6L77.3107 326.241ZM84.4087 315.582L82.7484 315.727L82.2356 315.297C82.1056 315.188 81.9265 315.13 81.7539 315.145L78.9778 315.388C78.8051 315.403 78.6388 315.491 78.5298 315.621L78.0995 316.134L76.4392 316.279C76.0739 316.311 75.8012 316.636 75.8331 317.002C75.8651 317.367 76.1901 317.64 76.5554 317.608L84.5249 316.91C84.8902 316.878 85.1629 316.553 85.1309 316.188C85.099 315.823 84.774 315.55 84.4087 315.582Z" fill="#3B69D1"/>
<path d="M100.221 325.022C101.312 326.115 102.631 326.69 104.512 326.526C106.568 326.346 108.084 324.944 107.931 322.837C107.597 319.012 102.578 320.029 102.401 318.005C102.343 317.336 102.824 316.78 103.621 316.71C104.466 316.636 105.248 317.13 105.975 317.917L107.502 316.274C106.446 315.226 105.106 314.588 103.432 314.735C101.296 314.922 99.9582 316.516 100.113 318.286C100.443 322.063 105.463 321.062 105.643 323.118C105.713 323.915 105.213 324.441 104.32 324.519C103.412 324.598 102.475 324.166 101.73 323.364L100.221 325.022ZM115.257 321.763C115.358 322.926 114.816 323.697 113.716 323.793C112.6 323.891 111.932 323.226 111.83 322.063L111.431 317.504L109.391 317.683L109.781 322.146C109.992 324.552 111.508 325.913 113.867 325.707C116.226 325.501 117.499 323.896 117.289 321.489L116.898 317.026L114.858 317.204L115.257 321.763ZM120.185 328.784L122.209 328.607L121.809 324.033C122.485 324.6 123.297 324.882 124.396 324.786C126.947 324.563 128.302 322.436 128.097 320.093C127.892 317.75 126.188 315.892 123.638 316.115C122.538 316.211 121.788 316.63 121.22 317.306L121.163 316.653L119.139 316.83L120.185 328.784ZM123.518 318.053C124.889 317.933 125.871 318.875 125.993 320.278C126.116 321.68 125.313 322.778 123.942 322.898C123.018 322.979 122.234 322.646 121.625 321.929L121.404 319.41C121.849 318.616 122.578 318.135 123.518 318.053ZM130.645 327.869L132.669 327.692L132.269 323.117C132.945 323.685 133.757 323.967 134.856 323.871C137.407 323.648 138.762 321.521 138.557 319.178C138.352 316.835 136.648 314.977 134.098 315.2C132.998 315.296 132.248 315.715 131.68 316.391L131.623 315.738L129.599 315.915L130.645 327.869ZM133.978 317.138C135.349 317.018 136.331 317.96 136.454 319.362C136.576 320.765 135.773 321.863 134.402 321.983C133.478 322.064 132.694 321.731 132.085 321.013L131.864 318.495C132.309 317.701 133.038 317.22 133.978 317.138ZM140.762 323.033L142.786 322.856L142.336 317.707C142.594 317.171 143.184 316.573 144.172 316.487C144.539 316.455 144.814 316.479 145.075 316.52L144.9 314.528C144.703 314.481 144.46 314.454 144.189 314.478C143.281 314.557 142.632 315.031 142.153 315.619L142.083 314.822L140.059 315L140.762 323.033ZM147.432 312.941C148.149 312.878 148.686 312.221 148.623 311.504C148.56 310.787 147.917 310.232 147.2 310.295C146.483 310.358 145.93 311.017 145.993 311.734C146.056 312.451 146.714 313.004 147.432 312.941ZM147.237 322.466L149.261 322.289L148.559 314.256L146.534 314.433L147.237 322.466ZM151.689 322.077L153.713 321.9L153.254 316.656C153.513 316.119 153.931 315.392 154.855 315.311C155.764 315.232 156.343 315.791 156.428 316.764L156.853 321.625L158.893 321.447L158.461 316.505C158.45 316.378 158.44 316.266 158.414 316.156C158.686 315.586 159.111 314.939 159.988 314.862C160.896 314.783 161.475 315.342 161.56 316.315L161.985 321.176L164.026 320.998L163.593 316.056C163.395 313.793 161.988 312.76 160.33 312.905C158.975 313.023 158.263 313.696 157.751 314.447C157.15 313.633 156.218 313.265 155.198 313.354C154.21 313.44 153.559 313.899 153.063 314.472L153.01 313.866L150.986 314.044L151.689 322.077ZM173.617 318.841L172.067 317.821C171.686 318.432 170.955 318.882 170.078 318.958C168.819 319.068 167.841 318.544 167.519 317.062L173.146 316.57C173.186 316.293 173.213 315.873 173.174 315.427C172.99 313.323 171.391 311.937 169.16 312.132C166.53 312.362 165.203 314.454 165.411 316.829C165.616 319.172 167.4 321.024 170.253 320.774C171.767 320.641 172.956 319.911 173.617 318.841ZM169.257 313.794C170.389 313.695 171.049 314.456 171.152 315.267L167.455 315.59C167.586 314.519 168.221 313.885 169.257 313.794ZM175.566 319.988L177.591 319.811L177.14 314.662C177.398 314.126 177.989 313.528 178.977 313.442C179.343 313.41 179.619 313.434 179.879 313.475L179.705 311.483C179.508 311.436 179.265 311.409 178.994 311.433C178.085 311.512 177.436 311.986 176.958 312.574L176.888 311.777L174.864 311.955L175.566 319.988Z" fill="#3B69D1"/>
<path d="M210.339 293.857L213.128 325.736" stroke="#F1F1F1"/>
<defs>
<filter id="filter0_d_1124_7103" x="-1" y="2.66699" width="404.264" height="393.049" filterUnits="userSpaceOnUse" color-interpolation-filters="sRGB">
<feFlood flood-opacity="0" result="BackgroundImageFix"/>
<feColorMatrix in="SourceAlpha" type="matrix" values="0 0 0 0 0 0 0 0 0 0 0 0 0 0 0 0 0 0 127 0" result="hardAlpha"/>
<feOffset dy="6"/>
<feGaussianBlur stdDeviation="12.5"/>
<feComposite in2="hardAlpha" operator="out"/>
<feColorMatrix type="matrix" values="0 0 0 0 0.196078 0 0 0 0 0.196078 0 0 0 0 0.196078 0 0 0 0.1 0"/>
<feBlend mode="normal" in2="BackgroundImageFix" result="effect1_dropShadow_1124_7103"/>
<feBlend mode="normal" in="SourceGraphic" in2="effect1_dropShadow_1124_7103" result="shape"/>
</filter>
</defs>
</svg>
