<svg width="352" height="372" viewBox="0 0 352 372" fill="none" xmlns="http://www.w3.org/2000/svg">
<rect x="50.6598" y="98.1026" width="257.364" height="179.174" rx="11.4995" transform="rotate(-5 50.6598 98.1026)" fill="#F1F1F1" stroke="#878787" stroke-width="0.999955" stroke-dasharray="5 5"/>
<g filter="url(#filter0_d_5297_13148)">
<rect x="40.0062" y="88.0033" width="252.342" height="177.248" rx="5.88462" transform="rotate(-5 40.0062 88.0033)" fill="white" shape-rendering="crispEdges"/>
<path d="M56.3064 117.7L58.5702 117.502L58.1754 112.991L59.5943 112.867C62.0493 112.652 63.4376 111.262 63.2577 109.205C63.0764 107.133 61.4677 106.004 59.0127 106.219L55.3301 106.541L56.3064 117.7ZM59.2729 108.092C60.2294 108.008 60.8535 108.532 60.9274 109.377C61.0069 110.286 60.4818 110.894 59.5253 110.977L58.0109 111.11L57.7584 108.224L59.2729 108.092ZM66.5221 107.426L67.5339 105.586L68.8496 107.222L70.6191 107.067L68.7456 104.564L66.1631 104.79L64.7526 107.58L66.5221 107.426ZM67.517 116.961C68.4576 116.878 69.3792 116.396 69.8349 115.73L69.9033 116.511L71.9278 116.334L71.4732 111.137C71.3184 109.367 70.0014 108.085 67.6739 108.289C66.2073 108.417 65.0806 109.126 64.4497 110.177L66.0313 111.179C66.4101 110.552 66.9838 110.132 67.765 110.064C68.6896 109.983 69.3747 110.469 69.4486 111.314L69.4667 111.521L67.048 112.15C65.3514 112.588 64.4903 113.579 64.5963 114.791C64.726 116.273 65.9069 117.101 67.517 116.961ZM66.5966 114.519C66.5534 114.025 66.8734 113.644 67.7057 113.426L69.5908 112.94L69.6899 114.072C69.3471 114.744 68.7152 115.233 67.7906 115.314C67.1051 115.374 66.644 115.061 66.5966 114.519ZM74.4997 113.153C74.6713 115.114 75.7268 116.162 77.7354 115.986C78.405 115.928 78.8763 115.806 79.2595 115.596L79.1046 113.826C78.8434 113.962 78.4823 114.058 77.9244 114.106C77.1273 114.176 76.6184 113.867 76.5402 112.975L76.2529 109.691L78.7079 109.476L78.5489 107.658L76.0939 107.873L75.9182 105.865L73.8777 106.043L74.0534 108.052L72.5549 108.183L72.7139 110L74.2124 109.869L74.4997 113.153ZM81.2596 106.008C81.977 105.945 82.5138 105.288 82.451 104.57C82.3883 103.853 81.7454 103.299 81.0281 103.361C80.3107 103.424 79.7579 104.083 79.8207 104.8C79.8834 105.518 80.5422 106.07 81.2596 106.008ZM81.065 115.534L83.0896 115.357L82.3866 107.323L80.3621 107.5L81.065 115.534ZM84.6052 114.052C85.4499 114.894 86.5204 115.378 87.9551 115.253C89.4696 115.12 90.7437 114.077 90.6278 112.385C90.3851 109.611 86.585 110.425 86.465 109.054C86.4288 108.64 86.701 108.262 87.3387 108.207C87.9604 108.152 88.5227 108.521 88.9818 108.995L90.2177 107.698C89.5755 106.967 88.408 106.475 87.1805 106.582C85.5066 106.728 84.4044 107.901 84.5285 109.32C84.7754 112.142 88.5713 111.279 88.694 112.682C88.7359 113.161 88.4346 113.572 87.781 113.63C87.0158 113.697 86.3869 113.302 85.8383 112.723L84.6052 114.052ZM91.782 113.424C92.6267 114.266 93.6972 114.75 95.1319 114.625C96.6464 114.492 97.9205 113.449 97.8046 111.757C97.5619 108.983 93.7618 109.797 93.6419 108.426C93.6056 108.012 93.8778 107.635 94.5155 107.579C95.1372 107.524 95.6995 107.893 96.1587 108.367L97.3945 107.07C96.7523 106.339 95.5848 105.847 94.3573 105.954C92.6834 106.101 91.5812 107.273 91.7054 108.692C91.9522 111.514 95.7481 110.652 95.8709 112.054C95.9127 112.533 95.6114 112.945 94.9578 113.002C94.1926 113.069 93.5637 112.674 93.0151 112.095L91.782 113.424ZM100.066 104.362C100.783 104.3 101.32 103.642 101.257 102.925C101.194 102.207 100.552 101.653 99.8342 101.716C99.1168 101.779 98.564 102.438 98.6268 103.155C98.6895 103.872 99.3483 104.425 100.066 104.362ZM99.8711 113.889L101.896 113.712L101.193 105.677L99.1682 105.854L99.8711 113.889ZM111.606 111.545L110.055 110.524C109.675 111.136 108.943 111.585 108.066 111.662C106.807 111.772 105.829 111.247 105.507 109.766L111.134 109.273C111.174 108.997 111.202 108.577 111.163 108.13C110.979 106.026 109.379 104.64 107.148 104.835C104.517 105.065 103.19 107.157 103.398 109.532C103.603 111.876 105.388 113.728 108.241 113.478C109.756 113.346 110.945 112.615 111.606 111.545ZM107.245 106.497C108.377 106.398 109.038 107.16 109.141 107.97L105.442 108.293C105.573 107.222 106.209 106.588 107.245 106.497ZM113.555 112.692L115.58 112.515L115.129 107.366C115.388 106.829 115.978 106.231 116.966 106.145C117.333 106.113 117.608 106.137 117.869 106.178L117.694 104.185C117.498 104.138 117.254 104.112 116.983 104.135C116.075 104.215 115.425 104.689 114.947 105.277L114.877 104.48L112.852 104.657L113.555 112.692Z" fill="#161616"/>
<rect x="56.1464" y="134.782" width="140.503" height="23.8883" rx="5.88462" transform="rotate(-5 56.1464 134.782)" fill="#FFD88D"/>
<g clip-path="url(#clip0_5297_13148)">
<path d="M66.0369 146.116L64.7583 145.711C64.5387 145.64 64.399 145.496 64.339 145.28C64.2791 145.063 64.3234 144.867 64.472 144.689L65.8876 143.002C66.0213 142.843 66.1912 142.722 66.3973 142.638C66.6033 142.554 66.8139 142.523 67.0292 142.546L67.7994 142.626C67.4127 143.177 67.0955 143.703 66.8479 144.204C66.6007 144.706 66.3303 145.343 66.0369 146.116ZM73.0742 140.454C73.1638 140.446 73.2489 140.457 73.3297 140.486C73.4101 140.516 73.4857 140.561 73.5566 140.621C73.6274 140.68 73.6825 140.747 73.7218 140.821C73.7612 140.896 73.7848 140.978 73.7926 141.068C73.8419 141.818 73.7329 142.589 73.4656 143.379C73.1983 144.17 72.7972 144.884 72.2622 145.522C71.8163 146.053 71.3977 146.473 71.0062 146.782C70.6148 147.092 70.0825 147.432 69.4092 147.802C69.2765 147.88 69.1398 147.912 68.9993 147.9C68.8587 147.887 68.7397 147.84 68.6423 147.759L67.3681 146.701C67.2707 146.619 67.2057 146.508 67.173 146.367C67.14 146.226 67.1501 146.084 67.2031 145.94C67.4357 145.222 67.6761 144.641 67.9245 144.196C68.1728 143.752 68.5162 143.269 68.9546 142.746C69.4896 142.109 70.1231 141.588 70.8551 141.183C71.5868 140.779 72.3265 140.535 73.0742 140.454ZM70.4123 144.354C70.5894 144.503 70.798 144.567 71.038 144.546C71.2784 144.525 71.4729 144.426 71.6215 144.249C71.7701 144.071 71.8339 143.863 71.8129 143.622C71.7919 143.382 71.6928 143.188 71.5157 143.039C71.3386 142.891 71.1299 142.827 70.8895 142.848C70.6494 142.869 70.4551 142.968 70.3065 143.145C70.1578 143.322 70.094 143.531 70.115 143.771C70.1361 144.011 70.2351 144.206 70.4123 144.354ZM69.4252 148.97C70.1349 148.547 70.7174 148.17 71.1725 147.839C71.6277 147.508 72.0929 147.104 72.5682 146.627L72.781 147.372C72.8402 147.58 72.8465 147.793 72.7999 148.01C72.7533 148.228 72.6631 148.416 72.5294 148.576L71.1138 150.263C70.9652 150.44 70.7791 150.518 70.5557 150.496C70.3323 150.475 70.1665 150.362 70.0584 150.158L69.4252 148.97ZM64.9047 148.369C65.1945 148.023 65.5653 147.829 66.017 147.785C66.4684 147.742 66.8669 147.865 67.2122 148.155C67.5576 148.444 67.7479 148.815 67.7832 149.267C67.8189 149.72 67.6918 150.119 67.402 150.464C67.2014 150.703 66.86 150.928 66.3779 151.139C65.8957 151.349 65.1707 151.55 64.2028 151.741C64.2231 150.755 64.2951 150.006 64.4188 149.494C64.5421 148.983 64.7041 148.608 64.9047 148.369Z" fill="#161616"/>
</g>
<path d="M79.4345 148.75L83.4361 148.4L83.349 147.405L80.5171 147.653L80.3277 145.488L82.7492 145.276L82.6621 144.281L80.2406 144.493L80.0629 142.461L82.8948 142.213L82.8077 141.218L78.8061 141.568L79.4345 148.75ZM85.0199 148.262L86.0767 148.169L85.7715 144.681C85.9988 144.206 86.3809 143.728 87.0888 143.666C87.8276 143.601 88.3221 144.054 88.3939 144.875L88.6624 147.943L89.7294 147.85L89.4574 144.741C89.3264 143.243 88.3869 142.549 87.248 142.649C86.5093 142.714 86.0223 143.056 85.6683 143.501L85.6243 142.998L84.5675 143.09L85.0199 148.262ZM91.5233 145.883C91.6337 147.145 92.3255 147.726 93.5362 147.62C93.9364 147.585 94.2192 147.509 94.4565 147.384L94.3748 146.451C94.1964 146.539 93.964 146.6 93.6151 146.631C93.0405 146.681 92.6514 146.488 92.5904 145.79L92.3785 143.369L94.092 143.219L94.0085 142.264L92.295 142.414L92.1819 141.122L91.1148 141.215L91.228 142.508L90.2532 142.593L90.3367 143.547L91.3114 143.462L91.5233 145.883ZM95.7212 147.325L96.7781 147.233L96.4765 143.785C96.7046 143.321 97.1051 142.934 97.7617 142.877C97.9772 142.858 98.1441 142.874 98.3118 142.901L98.2211 141.865C98.0842 141.835 97.9276 141.818 97.7634 141.833C97.1273 141.888 96.7009 142.215 96.3768 142.647L96.3256 142.062L95.2688 142.154L95.7212 147.325ZM104.164 145.739L103.34 145.191C103.06 145.649 102.561 145.972 101.935 146.027C100.94 146.114 100.201 145.589 100.031 144.467L103.848 144.133C103.875 143.976 103.885 143.737 103.865 143.501C103.75 142.188 102.741 141.294 101.315 141.418C99.6731 141.562 98.7967 142.89 98.9323 144.439C99.0643 145.947 100.233 147.137 102.019 146.981C102.983 146.897 103.738 146.428 104.164 145.739ZM101.371 142.303C102.203 142.23 102.716 142.785 102.793 143.429L100.013 143.673C100.107 142.858 100.602 142.37 101.371 142.303ZM105.742 148.992L106.798 148.9L106.531 145.842C107.013 146.275 107.591 146.494 108.34 146.428C109.961 146.286 110.865 144.915 110.733 143.407C110.601 141.898 109.473 140.705 107.852 140.847C107.103 140.912 106.572 141.227 106.172 141.738L106.125 141.204L105.068 141.297L105.742 148.992ZM107.805 141.853C108.8 141.766 109.536 142.488 109.625 143.504C109.713 144.519 109.115 145.358 108.119 145.445C107.452 145.503 106.861 145.245 106.431 144.703L106.272 142.877C106.592 142.28 107.128 141.913 107.805 141.853ZM112.274 145.877L113.331 145.785L113.03 142.337C113.258 141.873 113.658 141.486 114.315 141.429C114.53 141.41 114.697 141.426 114.865 141.453L114.774 140.417C114.637 140.387 114.481 140.37 114.316 140.384C113.68 140.44 113.254 140.767 112.93 141.198L112.879 140.613L111.822 140.706L112.274 145.877ZM116.373 139.15C116.763 139.116 117.063 138.759 117.028 138.369C116.994 137.979 116.637 137.679 116.247 137.713C115.858 137.747 115.558 138.105 115.592 138.494C115.626 138.884 115.983 139.184 116.373 139.15ZM116.393 145.517L117.449 145.424L116.997 140.253L115.94 140.346L116.393 145.517ZM118.541 144.595C119.075 145.138 119.752 145.43 120.624 145.354C121.588 145.269 122.356 144.592 122.277 143.575C122.122 141.8 119.618 142.371 119.528 141.335C119.497 140.986 119.718 140.677 120.211 140.634C120.642 140.596 121.023 140.821 121.333 141.166L121.996 140.478C121.584 140.017 120.884 139.706 120.125 139.773C119.089 139.863 118.43 140.603 118.504 141.455C118.664 143.281 121.165 142.68 121.257 143.727C121.291 144.117 121.041 144.449 120.538 144.493C120.025 144.537 119.59 144.296 119.214 143.895L118.541 144.595ZM128.282 143.629L127.459 143.081C127.178 143.539 126.679 143.862 126.053 143.917C125.058 144.004 124.319 143.479 124.149 142.357L127.966 142.023C127.993 141.866 128.003 141.627 127.983 141.391C127.868 140.078 126.859 139.184 125.433 139.308C123.791 139.452 122.915 140.78 123.05 142.329C123.182 143.837 124.351 145.027 126.137 144.871C127.101 144.787 127.856 144.318 128.282 143.629ZM125.49 140.193C126.321 140.12 126.835 140.675 126.912 141.319L124.131 141.562C124.225 140.748 124.72 140.26 125.49 140.193ZM133.844 144.145C134.48 144.09 135.102 143.746 135.431 143.262L135.483 143.847L136.539 143.754L136.241 140.338C136.141 139.199 135.3 138.445 133.904 138.567C132.981 138.648 132.276 139.103 131.868 139.759L132.711 140.295C132.972 139.848 133.391 139.553 133.955 139.504C134.622 139.445 135.128 139.794 135.184 140.43L135.207 140.697L133.559 141.12C132.477 141.401 131.921 142.018 131.989 142.798C132.069 143.711 132.818 144.235 133.844 144.145ZM133.053 142.664C133.019 142.274 133.261 141.973 133.898 141.804L135.273 141.446L135.351 142.338C135.086 142.858 134.61 143.21 133.964 143.266C133.43 143.313 133.088 143.064 133.053 142.664ZM140.548 142.607C139.543 142.695 138.757 141.989 138.668 140.963C138.579 139.947 139.229 139.104 140.224 139.017C140.819 138.965 141.316 139.211 141.638 139.586L142.414 138.877C141.886 138.282 141.081 137.939 140.137 138.022C138.403 138.174 137.427 139.551 137.559 141.06C137.691 142.568 138.891 143.755 140.625 143.604C141.579 143.52 142.303 143.043 142.719 142.366L141.832 141.802C141.58 142.228 141.133 142.556 140.548 142.607ZM146.049 142.126C145.044 142.214 144.258 141.507 144.169 140.481C144.08 139.466 144.73 138.623 145.725 138.536C146.32 138.484 146.817 138.73 147.139 139.105L147.915 138.396C147.387 137.801 146.582 137.458 145.638 137.541C143.904 137.692 142.928 139.07 143.06 140.578C143.192 142.087 144.392 143.274 146.126 143.122C147.08 143.039 147.804 142.562 148.22 141.885L147.333 141.321C147.081 141.746 146.634 142.075 146.049 142.126ZM152.714 140.106C152.792 140.999 152.356 141.574 151.566 141.644C150.756 141.714 150.237 141.222 150.159 140.33L149.9 137.375L148.833 137.468L149.087 140.372C149.223 141.921 150.196 142.766 151.653 142.639C153.1 142.512 153.912 141.511 153.776 139.961L153.522 137.058L152.455 137.151L152.714 140.106ZM160.176 140.839L159.352 140.29C159.072 140.749 158.573 141.072 157.947 141.127C156.952 141.214 156.213 140.689 156.043 139.567L159.859 139.233C159.887 139.075 159.897 138.837 159.876 138.601C159.762 137.287 158.753 136.393 157.327 136.518C155.685 136.662 154.809 137.989 154.944 139.539C155.076 141.047 156.245 142.237 158.03 142.081C158.995 141.996 159.75 141.527 160.176 140.839ZM157.383 137.402C158.214 137.33 158.728 137.884 158.805 138.529L156.025 138.772C156.119 137.957 156.614 137.47 157.383 137.402ZM161.513 135.201C161.903 135.166 162.203 134.809 162.169 134.419C162.135 134.03 161.777 133.73 161.388 133.764C160.998 133.798 160.698 134.155 160.732 134.545C160.766 134.935 161.123 135.235 161.513 135.201ZM161.533 141.568L162.589 141.475L162.137 136.304L161.08 136.396L161.533 141.568ZM164.318 141.324L165.375 141.232L164.702 133.536L163.645 133.629L164.318 141.324ZM167.104 141.08L168.161 140.988L167.487 133.292L166.431 133.385L167.104 141.08ZM171.329 140.866C171.965 140.81 172.586 140.466 172.916 139.982L172.967 140.567L174.024 140.475L173.725 137.058C173.626 135.919 172.784 135.166 171.389 135.288C170.466 135.369 169.761 135.823 169.353 136.479L170.196 137.015C170.457 136.569 170.876 136.274 171.44 136.224C172.107 136.166 172.613 136.514 172.669 137.151L172.692 137.417L171.044 137.841C169.962 138.121 169.406 138.739 169.474 139.518C169.554 140.432 170.303 140.955 171.329 140.866ZM170.538 139.384C170.504 138.994 170.746 138.694 171.383 138.524L172.757 138.166L172.836 139.059C172.571 139.578 172.095 139.93 171.449 139.987C170.915 140.033 170.573 139.784 170.538 139.384ZM175.681 140.33L176.738 140.237L176.433 136.749C176.66 136.274 177.042 135.796 177.75 135.734C178.489 135.669 178.983 136.122 179.055 136.943L179.323 140.011L180.39 139.918L180.118 136.809C179.987 135.311 179.048 134.618 177.909 134.717C177.17 134.782 176.683 135.124 176.329 135.569L176.285 135.066L175.228 135.159L175.681 140.33ZM182.184 137.952C182.295 139.214 182.987 139.794 184.197 139.688C184.597 139.653 184.88 139.577 185.117 139.453L185.036 138.519C184.857 138.607 184.625 138.669 184.276 138.699C183.702 138.749 183.312 138.556 183.251 137.858L183.04 135.437L184.753 135.287L184.67 134.333L182.956 134.483L182.843 133.19L181.776 133.283L181.889 134.576L180.914 134.661L180.998 135.615L181.972 135.53L182.184 137.952ZM190.877 138.153L190.054 137.604C189.773 138.063 189.274 138.386 188.648 138.441C187.653 138.528 186.914 138.003 186.744 136.881L190.561 136.547C190.588 136.389 190.598 136.151 190.578 135.915C190.463 134.601 189.454 133.707 188.028 133.832C186.386 133.976 185.51 135.303 185.645 136.853C185.777 138.361 186.946 139.551 188.732 139.395C189.696 139.31 190.451 138.841 190.877 138.153ZM188.085 134.716C188.916 134.643 189.43 135.198 189.507 135.843L186.726 136.086C186.82 135.271 187.315 134.784 188.085 134.716Z" fill="#161616"/>
<rect x="56.1464" y="134.782" width="140.503" height="23.8883" rx="5.88462" transform="rotate(-5 56.1464 134.782)" stroke="#161616"/>
<rect x="59.2744" y="170.536" width="120.019" height="13.6484" rx="6.82314" transform="rotate(-5 59.2744 170.536)" fill="#F1F1F1"/>
<rect x="60.9172" y="189.312" width="180.028" height="13.6484" rx="6.82314" transform="rotate(-5 60.9172 189.312)" fill="#F1F1F1"/>
<rect x="62.5595" y="208.088" width="120.019" height="13.6484" rx="6.82314" transform="rotate(-5 62.5595 208.088)" fill="#F1F1F1"/>
</g>
<path d="M52.4242 44.8468L45.8954 39.3684C45.7534 39.2493 45.6488 39.116 45.5816 38.9685C45.5134 38.821 45.4718 38.6602 45.4565 38.4862C45.4413 38.3122 45.4544 38.1467 45.4959 37.9896C45.5366 37.8326 45.6164 37.6832 45.7355 37.5412L51.2139 31.0124C51.4322 30.7522 51.7263 30.6059 52.0961 30.5735C52.4659 30.5412 52.7809 30.6342 53.0411 30.8525C53.3013 31.0708 53.4476 31.3649 53.4799 31.7347C53.5123 32.1045 53.4193 32.4195 53.2009 32.6797L48.5562 38.215L54.0916 42.8597C54.3518 43.0781 54.4981 43.3721 54.5304 43.7419C54.5628 44.1117 54.4698 44.4267 54.2514 44.6869C54.0331 44.9471 53.739 45.0934 53.3692 45.1258C52.9995 45.1581 52.6845 45.0651 52.4242 44.8468Z" fill="#3B69D1"/>
<path d="M74.4448 41.2524L79.6131 40.8002C83.7854 40.4352 86.3398 37.1628 86.029 33.6107C85.7182 30.0586 82.6344 27.2795 78.4622 27.6445L73.2938 28.0967L74.4448 41.2524ZM78.7119 30.0656C81.1551 29.8519 83.0795 31.5015 83.2851 33.8508C83.489 36.1812 81.8818 38.1588 79.4386 38.3725L76.9014 38.5945L76.1747 30.2876L78.7119 30.0656ZM93.4602 28.5291L95.4425 25.212L92.8489 25.4389L91.1673 28.7297L93.4602 28.5291ZM97.4993 37.6825L95.6707 36.479C95.2225 37.1999 94.3598 37.7299 93.3262 37.8204C91.8414 37.9503 90.6889 37.3314 90.3088 35.5845L96.9431 35.0041C96.9903 34.6781 97.0227 34.1828 96.9767 33.6566C96.7596 31.1758 94.8744 29.5416 92.2432 29.7718C89.1422 30.0431 87.5779 32.5094 87.8229 35.3097C88.0646 38.0724 90.1683 40.2555 93.5324 39.9612C95.3178 39.805 96.7196 38.9438 97.4993 37.6825ZM92.3579 31.7313C93.6922 31.6146 94.4715 32.5123 94.5929 33.4675L90.2327 33.8489C90.3873 32.5855 91.1363 31.8382 92.3579 31.7313ZM100.078 35.5253C100.28 37.8369 101.525 39.0726 103.893 38.8654C104.682 38.7964 105.238 38.6531 105.689 38.4053L105.507 36.3191C105.199 36.4786 104.773 36.5916 104.115 36.6492C103.176 36.7314 102.576 36.3672 102.484 35.3148L102.145 31.4432L105.039 31.19L104.852 29.0475L101.957 29.3007L101.75 26.9327L99.3446 27.1432L99.5517 29.5112L97.7851 29.6658L97.9726 31.8083L99.7392 31.6537L100.078 35.5253ZM110.511 38.3811C111.62 38.2841 112.707 37.7156 113.244 36.93L113.324 37.8509L115.711 37.6421L115.175 31.5152C114.993 29.4291 113.44 27.9174 110.696 28.1574C108.967 28.3087 107.639 29.1445 106.895 30.3837L108.76 31.5652C109.206 30.8254 109.883 30.3307 110.804 30.2501C111.894 30.1548 112.701 30.728 112.788 31.7241L112.81 31.9684L109.958 32.7102C107.958 33.2261 106.943 34.3944 107.068 35.8227C107.221 37.5705 108.613 38.5471 110.511 38.3811ZM109.426 35.5028C109.375 34.9202 109.752 34.4705 110.734 34.2142L112.956 33.641L113.073 34.9754C112.669 35.7683 111.924 36.3448 110.834 36.4401C110.026 36.5108 109.482 36.1418 109.426 35.5028ZM118.674 26.1717C119.52 26.0977 120.153 25.3227 120.079 24.477C120.005 23.6312 119.247 22.9779 118.401 23.0519C117.555 23.1259 116.904 23.9025 116.978 24.7483C117.052 25.594 117.828 26.2457 118.674 26.1717ZM118.445 37.4029L120.831 37.1941L120.003 27.722L117.616 27.9308L118.445 37.4029ZM123.694 36.9437L126.08 36.7349L124.847 22.6394L122.46 22.8482L123.694 36.9437ZM127.867 35.1961C128.863 36.1884 130.125 36.7598 131.817 36.6118C133.602 36.4556 135.104 35.2258 134.967 33.2303C134.681 29.9602 130.201 30.9203 130.06 29.304C130.017 28.8153 130.338 28.3706 131.09 28.3049C131.823 28.2407 132.486 28.6751 133.027 29.2338L134.484 27.7049C133.727 26.8432 132.35 26.2629 130.903 26.3895C128.93 26.5622 127.631 27.9447 127.777 29.6174C128.068 32.9439 132.543 31.9274 132.688 33.5813C132.737 34.1451 132.382 34.6307 131.611 34.6981C130.709 34.777 129.968 34.3116 129.321 33.6296L127.867 35.1961ZM141.378 30.6242C141.62 33.3869 143.648 35.5766 146.637 35.3152C147.915 35.2034 148.801 34.7281 149.47 33.9311L149.536 34.6828L151.941 34.4723L150.708 20.3769L148.303 20.5874L148.773 25.9624C147.976 25.2936 147.02 24.9795 145.742 25.0913C142.754 25.3527 141.137 27.8615 141.378 30.6242ZM143.878 30.4055C143.733 28.7516 144.662 27.4584 146.278 27.317C147.349 27.2232 148.272 27.597 148.987 28.4056L149.256 31.4878C148.693 32.4083 147.849 32.9366 146.778 33.0303C145.161 33.1717 144.023 32.0594 143.878 30.4055ZM163.388 31.918L161.56 30.7144C161.111 31.4354 160.249 31.9654 159.215 32.0558C157.73 32.1857 156.578 31.5669 156.198 29.82L162.832 29.2396C162.879 28.9135 162.912 28.4183 162.866 27.8921C162.649 25.4113 160.763 23.7771 158.132 24.0073C155.031 24.2786 153.467 26.7448 153.712 29.5451C153.953 32.3078 156.057 34.491 159.421 34.1967C161.207 34.0405 162.609 33.1793 163.388 31.918ZM158.247 25.9668C159.581 25.8501 160.36 26.7477 160.482 27.7029L156.122 28.0844C156.276 26.821 157.025 26.0737 158.247 25.9668ZM170.752 32.8266L173.139 32.6178L171.905 18.5224L169.519 18.7312L170.752 32.8266ZM176.598 24.5128L178.305 18.9094L175.598 19.1462L174.38 24.7068L176.598 24.5128ZM183.926 21.7506C180.844 22.0203 178.938 24.4785 179.186 27.3164C179.435 30.1543 181.739 32.2442 184.821 31.9745C187.903 31.7049 189.809 29.2466 189.561 26.4088C189.312 23.5709 187.008 21.481 183.926 21.7506ZM184.661 29.716C183.082 29.8541 181.812 28.7532 181.667 27.0993C181.522 25.4455 182.582 24.1407 184.161 24.0026C185.683 23.8694 186.935 24.9719 187.08 26.6258C187.223 28.2609 186.183 29.5828 184.661 29.716ZM190.048 21.5938L190.235 23.7363L192.002 23.5818L192.643 30.9114L195.049 30.7009L194.408 23.3713L197.302 23.1181L197.114 20.9756L194.22 21.2288L194.128 20.1763C194.052 19.3118 194.529 18.7019 195.338 18.6312C195.826 18.5885 196.217 18.7247 196.517 18.9068L197.357 16.8259C196.728 16.559 195.977 16.4164 195.112 16.492C192.744 16.6992 191.551 18.4322 191.727 20.4432L191.815 21.4392L190.048 21.5938ZM198.05 20.8937L198.237 23.0362L200.004 22.8817L200.645 30.2113L203.051 30.0008L202.41 22.6712L205.304 22.418L205.117 20.2755L202.222 20.5287L202.13 19.4762C202.055 18.6117 202.531 18.0018 203.34 17.9311C203.828 17.8884 204.219 18.0246 204.519 18.2067L205.36 16.1258C204.73 15.8589 203.979 15.7163 203.115 15.7919C200.747 15.9991 199.554 17.7321 199.73 19.7431L199.817 20.7391L198.05 20.8937ZM207.459 29.6152L209.846 29.4064L209.314 23.3359C209.619 22.7033 210.315 21.9985 211.48 21.8966C211.912 21.8588 212.237 21.8872 212.544 21.9361L212.338 19.5868C212.106 19.5314 211.82 19.4997 211.5 19.5276C210.429 19.6213 209.663 20.1807 209.099 20.8739L209.017 19.9342L206.63 20.1431L207.459 29.6152ZM223.276 26.6785L221.447 25.475C220.999 26.1959 220.136 26.7259 219.102 26.8164C217.618 26.9463 216.465 26.3275 216.085 24.5806L222.719 24.0001C222.767 23.6741 222.799 23.1788 222.753 22.6526C222.536 20.1718 220.651 18.5377 218.019 18.7679C214.918 19.0392 213.354 21.5054 213.599 24.3057C213.841 27.0684 215.945 29.2515 219.309 28.9572C221.094 28.801 222.496 27.9398 223.276 26.6785ZM218.134 20.7274C219.468 20.6106 220.248 21.5083 220.369 22.4635L216.009 22.8449C216.164 21.5815 216.913 20.8342 218.134 20.7274ZM76.346 54.9743C77.1917 54.9003 77.8246 54.1253 77.7506 53.2796C77.6767 52.4339 76.9188 51.7805 76.0731 51.8545C75.2273 51.9285 74.5757 52.7052 74.6496 53.5509C74.7236 54.3966 75.5003 55.0483 76.346 54.9743ZM76.1166 66.2056L78.5034 65.9967L77.6747 56.5246L75.2879 56.7334L76.1166 66.2056ZM81.3657 65.7463L83.7525 65.5375L83.2116 59.3543C83.516 58.7216 84.0091 57.8642 85.0992 57.7688C86.1704 57.6751 86.8531 58.335 86.9534 59.4814L87.4549 65.2136L89.8606 65.0031L89.3508 59.177C89.3377 59.0266 89.3262 58.8951 89.2959 58.7652C89.6158 58.0933 90.1172 57.3298 91.1508 57.2394C92.2221 57.1456 92.9048 57.8055 93.0051 58.952L93.5066 64.6841L95.9122 64.4737L95.4025 58.6475C95.169 55.9788 93.5095 54.7605 91.5549 54.9315C89.9575 55.0712 89.1178 55.8643 88.5136 56.7504C87.8046 55.7898 86.7061 55.3557 85.5033 55.4609C84.3381 55.5629 83.571 56.1034 82.9863 56.7795L82.9238 56.0653L80.537 56.2742L81.3657 65.7463ZM98.6363 64.2353L101.023 64.0265L100.482 57.8433C100.787 57.2107 101.28 56.3532 102.37 56.2578C103.441 56.1641 104.124 56.824 104.224 57.9704L104.726 63.7026L107.131 63.4921L106.621 57.666C106.608 57.5157 106.597 57.3841 106.566 57.2542C106.886 56.5823 107.388 55.8188 108.421 55.7284C109.493 55.6347 110.175 56.2946 110.276 57.441L110.777 63.1731L113.183 62.9627L112.673 57.1366C112.44 54.4678 110.78 53.2495 108.826 53.4205C107.228 53.5602 106.388 54.3533 105.784 55.2395C105.075 54.2789 103.977 53.8447 102.774 53.9499C101.609 54.0519 100.842 54.5924 100.257 55.2685L100.194 54.5544L97.8076 54.7632L98.6363 64.2353ZM124.492 60.4203L122.664 59.2168C122.216 59.9378 121.353 60.4677 120.319 60.5582C118.835 60.6881 117.682 60.0693 117.302 58.3224L123.936 57.7419C123.983 57.4159 124.016 56.9206 123.97 56.3944C123.753 53.9136 121.868 52.2795 119.236 52.5097C116.135 52.781 114.571 55.2472 114.816 58.0475C115.058 60.8102 117.161 62.9934 120.526 62.699C122.311 62.5428 123.713 61.6816 124.492 60.4203ZM119.351 54.4692C120.685 54.3524 121.465 55.2501 121.586 56.2053L117.226 56.5867C117.38 55.3233 118.129 54.576 119.351 54.4692ZM126.79 61.7722L129.177 61.5633L128.646 55.4929C128.951 54.8602 129.647 54.1555 130.812 54.0535C131.244 54.0157 131.568 54.0442 131.876 54.093L131.67 51.7438C131.438 51.6883 131.151 51.6566 130.832 51.6846C129.761 51.7783 128.995 52.3376 128.431 53.0309L128.349 52.0912L125.962 52.3L126.79 61.7722ZM133.479 59.8046C134.474 60.7969 135.736 61.3682 137.428 61.2203C139.213 61.0641 140.715 59.8343 140.579 57.8388C140.293 54.5687 135.813 55.5287 135.671 53.9125C135.628 53.4238 135.949 52.9791 136.701 52.9133C137.434 52.8492 138.097 53.2836 138.638 53.8423L140.095 52.3134C139.338 51.4517 137.962 50.8714 136.515 50.998C134.541 51.1707 133.242 52.5532 133.388 54.2258C133.679 57.5524 138.154 56.5359 138.299 58.1898C138.348 58.7536 137.993 59.2392 137.223 59.3066C136.32 59.3855 135.579 58.9201 134.932 58.2381L133.479 59.8046ZM143.244 49.1215C144.09 49.0475 144.723 48.2725 144.649 47.4267C144.575 46.581 143.817 45.9277 142.971 46.0017C142.126 46.0757 141.474 46.8523 141.548 47.698C141.622 48.5438 142.399 49.1954 143.244 49.1215ZM143.015 60.3527L145.402 60.1439L144.573 50.6717L142.186 50.8806L143.015 60.3527ZM151.913 49.6508C148.831 49.9205 146.925 52.3787 147.173 55.2166C147.421 58.0545 149.725 60.1444 152.807 59.8747C155.89 59.6051 157.796 57.1468 157.547 54.309C157.299 51.4711 154.995 49.3812 151.913 49.6508ZM152.648 57.6162C151.069 57.7543 149.799 56.6534 149.654 54.9995C149.509 53.3457 150.569 52.0409 152.148 51.9028C153.67 51.7696 154.922 52.8721 155.067 54.526C155.21 56.1611 154.17 57.483 152.648 57.6162ZM160.139 58.8546L162.526 58.6457L161.985 52.4625C162.289 51.8299 162.857 50.9658 164.06 50.8606C165.225 50.7587 166.009 51.4855 166.119 52.7447L166.604 58.2889L169.009 58.0785L168.516 52.4403C168.271 49.64 166.513 48.3735 164.464 48.5527C163.205 48.6629 162.365 49.2288 161.763 49.9254L161.697 49.1736L159.31 49.3824L160.139 58.8546Z" fill="#3B69D1"/>
<g filter="url(#filter1_d_5297_13148)">
<rect x="110.168" y="221.103" width="127.02" height="48.0075" rx="24" transform="rotate(-5 110.168 221.103)" fill="#3B69D1" shape-rendering="crispEdges"/>
<path d="M143.303 247.512C141.198 247.696 139.556 246.186 139.369 244.049C139.182 241.913 140.537 240.14 142.642 239.956C143.917 239.844 144.976 240.378 145.693 241.231L147.357 239.688C146.218 238.422 144.481 237.659 142.456 237.836C138.933 238.144 136.763 241.065 137.042 244.253C137.321 247.441 139.965 249.941 143.488 249.633C145.513 249.455 147.093 248.418 147.991 246.941L146.086 245.727C145.528 246.691 144.578 247.401 143.303 247.512ZM152.796 240.08C150.182 240.308 148.565 242.393 148.776 244.801C148.986 247.208 150.94 248.981 153.555 248.752C156.169 248.523 157.786 246.438 157.575 244.031C157.365 241.624 155.41 239.851 152.796 240.08ZM153.419 246.836C152.08 246.953 151.003 246.019 150.88 244.617C150.757 243.214 151.656 242.107 152.995 241.99C154.287 241.877 155.348 242.812 155.471 244.215C155.592 245.602 154.711 246.723 153.419 246.836ZM159.773 247.887L161.798 247.709L161.339 242.465C161.597 241.928 162.079 241.195 163.1 241.106C164.088 241.019 164.752 241.636 164.846 242.704L165.257 247.407L167.298 247.228L166.879 242.446C166.672 240.07 165.18 238.996 163.442 239.148C162.374 239.242 161.661 239.722 161.151 240.312L161.095 239.675L159.07 239.852L159.773 247.887ZM169.85 244.049C170.022 246.01 171.077 247.058 173.086 246.882C173.756 246.824 174.227 246.702 174.61 246.492L174.455 244.723C174.194 244.858 173.833 244.954 173.275 245.003C172.478 245.072 171.969 244.763 171.891 243.871L171.603 240.587L174.058 240.372L173.899 238.555L171.444 238.769L171.269 236.761L169.228 236.939L169.404 238.948L167.905 239.079L168.064 240.896L169.563 240.765L169.85 244.049ZM178.7 246.472C179.641 246.389 180.562 245.907 181.018 245.241L181.086 246.022L183.111 245.845L182.656 240.648C182.501 238.878 181.185 237.596 178.857 237.8C177.39 237.928 176.264 238.637 175.633 239.688L177.214 240.69C177.593 240.063 178.167 239.643 178.948 239.575C179.873 239.494 180.558 239.98 180.632 240.825L180.65 241.032L178.231 241.661C176.535 242.099 175.673 243.09 175.779 244.301C175.909 245.784 177.09 246.612 178.7 246.472ZM177.78 244.03C177.737 243.536 178.057 243.155 178.889 242.937L180.774 242.451L180.873 243.583C180.53 244.255 179.898 244.744 178.974 244.825C178.288 244.885 177.827 244.572 177.78 244.03ZM189.148 243.71C187.793 243.829 186.732 242.91 186.608 241.491C186.486 240.088 187.369 238.983 188.692 238.867C189.521 238.794 190.191 239.105 190.622 239.63L192.094 238.28C191.258 237.357 190.023 236.823 188.556 236.951C185.783 237.194 184.299 239.331 184.504 241.675C184.709 244.018 186.541 245.866 189.315 245.623C190.782 245.495 191.906 244.754 192.568 243.7L190.884 242.627C190.55 243.218 189.945 243.64 189.148 243.71ZM194.525 241.89C194.697 243.851 195.753 244.899 197.761 244.724C198.431 244.665 198.902 244.544 199.285 244.333L199.13 242.564C198.869 242.699 198.508 242.795 197.95 242.844C197.153 242.913 196.644 242.605 196.566 241.712L196.279 238.428L198.734 238.213L198.575 236.396L196.12 236.611L195.944 234.602L193.903 234.78L194.079 236.789L192.581 236.92L192.74 238.738L194.238 238.606L194.525 241.89ZM208.218 242.331L206.666 241.31C206.286 241.922 205.555 242.371 204.678 242.448C203.418 242.558 202.441 242.033 202.118 240.551L207.746 240.059C207.786 239.782 207.813 239.362 207.774 238.916C207.59 236.812 205.991 235.426 203.759 235.621C201.129 235.851 199.802 237.943 200.01 240.318C200.215 242.662 201.999 244.513 204.853 244.264C206.367 244.131 207.556 243.401 208.218 242.331ZM203.856 237.283C204.988 237.184 205.649 237.945 205.752 238.756L202.054 239.079C202.185 238.008 202.82 237.374 203.856 237.283ZM210.167 243.478L212.191 243.301L211.741 238.151C211.999 237.615 212.589 237.017 213.578 236.93C213.944 236.898 214.22 236.923 214.48 236.964L214.306 234.971C214.109 234.924 213.866 234.897 213.595 234.921C212.686 235.001 212.037 235.475 211.558 236.063L211.489 235.266L209.464 235.443L210.167 243.478Z" fill="white"/>
<rect x="110.709" y="221.558" width="126.02" height="47.0075" rx="23.5" transform="rotate(-5 110.709 221.558)" stroke="#3B69D1" shape-rendering="crispEdges"/>
</g>
<path d="M260.255 227.173C264.752 226.314 269.064 225.472 273.376 224.647C274.235 224.478 274.841 224.36 275.953 224.327C276.778 224.293 278.53 224.259 278.378 225.152C278.176 225.876 277.94 226.365 276.475 226.803C272.685 227.914 268.761 228.453 264.87 229.009C261.434 229.497 258.807 229.817 255.741 230.07C254.309 230.188 253.737 229.481 253.905 228.167C254.057 226.988 254.192 225.775 254.562 224.647C255.876 220.571 257.291 216.545 258.672 212.486C258.84 211.981 258.941 211.577 259.228 211.004C259.581 210.313 259.8 209.791 260.525 209.993C261.215 210.179 261.181 211.189 261.063 211.694C260.171 215.939 258.183 224.663 258.183 225.152C260.39 223.737 262.461 222.474 264.466 221.093C278.378 211.408 291.482 200.814 301.908 187.239C310.161 176.493 316.999 164.955 322.052 152.374C322.355 151.633 322.725 150.908 323.096 150.218C323.584 149.275 324.005 148.87 324.511 149.089C325.403 149.628 325.235 150.353 325.151 150.942C324.999 152.121 324.595 153.283 324.208 154.412C318.868 169.452 310.379 182.624 300.122 194.734C289.595 207.164 276.727 216.73 263 225.236C262.259 225.657 260.525 226.87 260.255 227.173Z" fill="black"/>
<g filter="url(#filter2_d_5297_13148)">
<g clip-path="url(#clip1_5297_13148)">
<rect x="2.00031" y="295.554" width="341.682" height="69.4215" rx="16" transform="rotate(-5 2.00031 295.554)" fill="white"/>
<path d="M48.7239 315.214C48.4838 315.235 48.2756 315.171 48.0992 315.023C47.9224 314.875 47.8234 314.681 47.8024 314.441C47.7814 314.201 47.8451 313.992 47.9936 313.815C48.1415 313.639 48.3355 313.54 48.5756 313.519L54.507 313.001C54.7471 312.98 54.9556 313.043 55.1324 313.191C55.3088 313.339 55.4075 313.534 55.4285 313.774C55.4495 314.014 55.386 314.222 55.2381 314.398C55.0896 314.575 54.8954 314.674 54.6553 314.695L48.7239 315.214ZM49.3169 321.993C49.0769 322.014 48.8686 321.95 48.6923 321.802C48.5154 321.654 48.4165 321.46 48.3955 321.22C48.3745 320.98 48.4382 320.771 48.5867 320.594C48.7346 320.418 48.9286 320.319 49.1687 320.298L55.1001 319.779C55.3401 319.758 55.5486 319.822 55.7255 319.97C55.9019 320.118 56.0005 320.312 56.0215 320.552C56.0425 320.793 55.9791 321.001 55.8311 321.177C55.6827 321.354 55.4884 321.453 55.2483 321.474L49.3169 321.993ZM59.5603 315.376L57.5791 313.714C57.4102 313.572 57.3152 313.381 57.2942 313.141C57.2732 312.901 57.3336 312.696 57.4753 312.527C57.6171 312.358 57.808 312.263 58.0481 312.242C58.2882 312.221 58.4927 312.282 58.6616 312.424L59.9747 313.525L62.7196 310.254C62.8743 310.07 63.0648 309.971 63.2914 309.958C63.518 309.946 63.7234 310.017 63.9077 310.172C64.0779 310.327 64.1729 310.518 64.1927 310.744C64.2124 310.97 64.152 311.175 64.0115 311.358L60.7466 315.272C60.5919 315.457 60.4016 315.559 60.1757 315.578C59.9497 315.598 59.7446 315.531 59.5603 315.376ZM60.1534 322.155L58.1722 320.492C58.0033 320.351 57.9083 320.16 57.8873 319.92C57.8663 319.68 57.9267 319.475 58.0684 319.306C58.2102 319.137 58.4011 319.042 58.6412 319.021C58.8812 319 59.0857 319.061 59.2547 319.202L60.5678 320.304L63.3127 317.033C63.4673 316.849 63.6579 316.75 63.8845 316.737C64.1111 316.725 64.3165 316.796 64.5008 316.95C64.671 317.106 64.7659 317.297 64.7857 317.523C64.8055 317.749 64.7451 317.954 64.6046 318.137L61.3396 322.051C61.185 322.235 60.9947 322.337 60.7687 322.357C60.5428 322.377 60.3377 322.309 60.1534 322.155Z" fill="#646464"/>
<path d="M36.8035 343.12L37.7593 343.037L37.2487 337.2L39.6201 340.415L40.3522 340.351L42.1294 336.773L42.64 342.61L43.5958 342.526L42.9731 335.408L41.7529 335.515L39.891 339.295L37.401 335.896L36.1808 336.003L36.8035 343.12ZM47.4589 336.819C45.8015 336.964 44.7942 338.333 44.9249 339.828C45.0557 341.322 46.2854 342.496 47.9428 342.351C49.59 342.207 50.6075 340.837 50.4767 339.342C50.3459 337.847 49.1061 336.675 47.4589 336.819ZM47.8818 341.536C46.7836 341.632 45.9233 340.816 45.8299 339.749C45.7365 338.681 46.442 337.728 47.5402 337.632C48.6078 337.538 49.4682 338.354 49.5616 339.422C49.6541 340.48 48.9494 341.443 47.8818 341.536ZM52.0903 341.783L52.9546 341.707L52.6442 338.159C52.9224 337.591 53.3528 337.123 54.095 337.058C54.8881 336.989 55.453 337.472 55.533 338.387L55.8017 341.458L56.666 341.383L56.3947 338.281C56.2674 336.827 55.3457 336.129 54.1967 336.23C53.4341 336.296 52.9338 336.668 52.557 337.162L52.5063 336.583L51.642 336.658L52.0903 341.783ZM60.5358 340.337C61.0543 340.876 61.7233 341.145 62.5368 341.074C63.4926 340.99 64.2027 340.324 64.1293 339.367C63.9762 337.618 61.4357 338.209 61.3352 337.06C61.3005 336.664 61.5669 336.312 62.116 336.264C62.5634 336.225 62.9711 336.435 63.2795 336.798L63.8349 336.237C63.4354 335.77 62.7748 335.479 62.0427 335.543C61.0564 335.63 60.4329 336.35 60.5032 337.153C60.6616 338.963 63.1883 338.332 63.2889 339.481C63.328 339.929 63.0329 340.303 62.4635 340.353C61.9449 340.398 61.4956 340.181 61.1006 339.765L60.5358 340.337ZM69.0313 338.088C69.1193 339.094 68.621 339.722 67.7668 339.797C66.8924 339.873 66.3028 339.341 66.2147 338.334L65.9585 335.406L65.0942 335.481L65.3477 338.379C65.4821 339.915 66.445 340.732 67.8278 340.611C69.2209 340.489 70.0272 339.517 69.8929 337.981L69.6393 335.084L68.7751 335.159L69.0313 338.088ZM71.6634 333.564C71.9989 333.535 72.2392 333.237 72.2099 332.902C72.1814 332.576 71.893 332.325 71.5575 332.354C71.2219 332.384 70.9714 332.682 70.9999 333.008C71.0292 333.343 71.3278 333.594 71.6634 333.564ZM71.791 340.059L72.6553 339.984L72.2069 334.859L71.3427 334.935L71.791 340.059ZM73.2609 334.767L75.7123 339.716L76.8511 339.617L78.4059 334.317L77.4704 334.398L76.2026 338.761L74.1963 334.685L73.2609 334.767ZM79.7859 332.854C80.1215 332.824 80.3618 332.527 80.3324 332.191C80.304 331.866 80.0156 331.614 79.68 331.644C79.3445 331.673 79.094 331.972 79.1224 332.297C79.1518 332.632 79.4504 332.883 79.7859 332.854ZM79.9136 339.349L80.7779 339.273L80.3295 334.148L79.4652 334.224L79.9136 339.349Z" fill="#646464"/>
<g clip-path="url(#clip2_5297_13148)">
<path d="M133.467 312.069L138.572 311.623C138.812 311.602 139.002 311.503 139.144 311.327C139.285 311.151 139.345 310.943 139.324 310.703C139.303 310.463 139.204 310.269 139.028 310.12C138.851 309.972 138.642 309.909 138.402 309.93L133.297 310.377C133.057 310.398 132.866 310.496 132.725 310.672C132.584 310.848 132.524 311.056 132.545 311.296C132.566 311.536 132.665 311.73 132.841 311.878C133.018 312.027 133.226 312.09 133.467 312.069ZM133.244 309.527L141.739 308.784C141.979 308.763 142.169 308.665 142.311 308.488C142.452 308.313 142.512 308.105 142.491 307.865C142.47 307.625 142.371 307.43 142.194 307.282C142.018 307.134 141.809 307.07 141.569 307.091L133.075 307.835C132.835 307.856 132.644 307.954 132.503 308.13C132.362 308.306 132.302 308.514 132.323 308.754C132.344 308.994 132.442 309.188 132.619 309.336C132.796 309.485 133.004 309.548 133.244 309.527ZM133.022 306.985L141.516 306.242C141.756 306.221 141.947 306.123 142.088 305.947C142.229 305.771 142.289 305.563 142.268 305.323C142.247 305.083 142.148 304.888 141.971 304.74C141.795 304.592 141.587 304.528 141.347 304.549L132.852 305.293C132.612 305.314 132.422 305.412 132.28 305.588C132.139 305.764 132.079 305.972 132.1 306.212C132.121 306.452 132.22 306.647 132.396 306.795C132.573 306.943 132.782 307.006 133.022 306.985ZM129.643 317.164L128.489 303.967C128.448 303.501 128.579 303.087 128.882 302.726C129.185 302.365 129.569 302.165 130.035 302.124L143.592 300.938C144.058 300.897 144.472 301.028 144.833 301.33C145.194 301.633 145.395 302.018 145.435 302.484L146.325 312.652C146.366 313.118 146.235 313.532 145.932 313.893C145.629 314.254 145.245 314.454 144.779 314.495L132.916 315.533L131.137 317.652C130.893 317.944 130.59 318.031 130.231 317.913C129.873 317.795 129.677 317.545 129.643 317.164ZM131.16 314.982L132.068 313.899L144.63 312.8L143.741 302.632L130.183 303.818L131.16 314.982Z" fill="#646464"/>
</g>
<path d="M118.129 336.005L119.085 335.922L118.575 330.085L120.946 333.3L121.678 333.236L123.455 329.658L123.966 335.495L124.922 335.411L124.299 328.293L123.079 328.4L121.217 332.18L118.727 328.781L117.507 328.888L118.129 336.005ZM131.394 333.994L130.709 333.552C130.414 334.039 129.881 334.393 129.22 334.451C128.122 334.547 127.274 333.873 127.136 332.645L131.071 332.301C131.089 332.156 131.103 331.96 131.085 331.757C130.975 330.496 129.985 329.599 128.591 329.721C127.005 329.86 126.115 331.157 126.251 332.713C126.382 334.207 127.56 335.385 129.289 335.234C130.245 335.15 130.972 334.677 131.394 333.994ZM128.635 330.455C129.54 330.376 130.114 330.961 130.21 331.711L127.139 331.979C127.245 331.079 127.791 330.529 128.635 330.455ZM132.17 334.07C132.689 334.609 133.358 334.878 134.171 334.807C135.127 334.723 135.837 334.056 135.764 333.1C135.611 331.351 133.07 331.942 132.97 330.793C132.935 330.396 133.201 330.045 133.75 329.997C134.198 329.958 134.606 330.168 134.914 330.531L135.469 329.97C135.07 329.503 134.409 329.212 133.677 329.276C132.691 329.362 132.067 330.083 132.138 330.886C132.296 332.696 134.823 332.065 134.923 333.214C134.962 333.662 134.667 334.036 134.098 334.086C133.579 334.131 133.13 333.914 132.735 333.498L132.17 334.07ZM136.639 333.679C137.157 334.218 137.826 334.487 138.64 334.416C139.595 334.332 140.305 333.665 140.232 332.709C140.079 330.96 137.539 331.551 137.438 330.402C137.403 330.005 137.67 329.654 138.219 329.606C138.666 329.567 139.074 329.777 139.382 330.14L139.938 329.579C139.538 329.112 138.878 328.821 138.145 328.885C137.159 328.971 136.536 329.692 136.606 330.495C136.764 332.305 139.291 331.674 139.392 332.823C139.431 333.271 139.136 333.645 138.566 333.695C138.048 333.74 137.598 333.523 137.203 333.107L136.639 333.679ZM143.143 333.96C143.804 333.902 144.449 333.549 144.792 333.017L144.849 333.668L145.713 333.592L145.412 330.155C145.314 329.026 144.474 328.331 143.173 328.445C142.278 328.524 141.589 328.963 141.195 329.612L141.889 330.054C142.166 329.589 142.62 329.272 143.21 329.221C143.942 329.157 144.486 329.519 144.548 330.231L144.579 330.587L142.876 331.023C141.804 331.301 141.262 331.901 141.329 332.674C141.406 333.549 142.136 334.048 143.143 333.96ZM142.201 332.567C142.163 332.13 142.451 331.787 143.142 331.604L144.634 331.217L144.722 332.224C144.435 332.802 143.904 333.176 143.223 333.236C142.623 333.289 142.24 333.004 142.201 332.567ZM146.938 334.417C147.028 335.444 148.076 335.947 149.591 335.814C151.126 335.68 152.134 334.782 152.04 333.704C151.96 332.789 151.271 332.184 149.919 332.302L148.455 332.43C148.14 332.458 148.014 332.315 147.996 332.101C147.979 331.908 148.085 331.714 148.285 331.543C148.504 331.585 148.752 331.605 149.006 331.583C150.236 331.475 150.926 330.574 150.84 329.598C150.814 329.293 150.717 329.005 150.552 328.763L151.66 328.666L151.595 327.913L149.693 328.08C149.407 327.972 149.064 327.92 148.688 327.953C147.468 328.059 146.768 328.961 146.854 329.947C146.904 330.516 147.214 331.012 147.691 331.308C147.316 331.597 147.132 331.951 147.168 332.358C147.192 332.633 147.338 332.897 147.588 333.059C147.111 333.459 146.893 333.899 146.938 334.417ZM148.956 330.9C148.194 330.967 147.733 330.505 147.678 329.875C147.623 329.245 147.995 328.7 148.758 328.633C149.5 328.568 149.972 329.039 150.027 329.669C150.081 330.29 149.699 330.835 148.956 330.9ZM147.773 334.242C147.738 333.835 147.924 333.511 148.257 333.216L149.915 333.071C150.83 332.991 151.138 333.353 151.181 333.841C151.239 334.512 150.596 334.999 149.518 335.093C148.501 335.182 147.827 334.862 147.773 334.242ZM157.35 331.723L156.666 331.281C156.37 331.768 155.838 332.122 155.177 332.18C154.079 332.276 153.231 331.602 153.093 330.375L157.028 330.03C157.046 329.885 157.059 329.689 157.042 329.486C156.931 328.225 155.941 327.328 154.548 327.45C152.962 327.589 152.071 328.886 152.207 330.442C152.338 331.937 153.517 333.114 155.245 332.963C156.201 332.879 156.928 332.406 157.35 331.723ZM154.592 328.184C155.497 328.105 156.07 328.69 156.167 329.44L153.096 329.708C153.202 328.808 153.748 328.258 154.592 328.184ZM158.127 331.799C158.645 332.338 159.314 332.607 160.128 332.536C161.083 332.452 161.793 331.786 161.72 330.829C161.567 329.08 159.027 329.671 158.926 328.522C158.891 328.125 159.158 327.774 159.707 327.726C160.154 327.687 160.562 327.897 160.87 328.26L161.426 327.699C161.026 327.232 160.366 326.941 159.633 327.005C158.647 327.092 158.024 327.812 158.094 328.615C158.252 330.425 160.779 329.794 160.88 330.943C160.919 331.391 160.624 331.765 160.054 331.815C159.536 331.86 159.086 331.643 158.691 331.227L158.127 331.799Z" fill="#646464"/>
<g clip-path="url(#clip3_5297_13148)">
<path d="M225.278 306.62C225.447 306.762 225.651 306.822 225.891 306.801C226.131 306.78 226.322 306.685 226.464 306.516C226.606 306.347 226.666 306.143 226.645 305.903C226.624 305.662 226.529 305.472 226.36 305.33L224.771 303.996C224.942 303.682 225.063 303.351 225.132 303.004C225.201 302.656 225.219 302.292 225.186 301.911C225.093 300.851 224.644 299.983 223.838 299.306C223.031 298.63 222.098 298.338 221.039 298.431C219.98 298.524 219.112 298.973 218.435 299.779C217.759 300.586 217.467 301.519 217.56 302.578C217.652 303.637 218.102 304.505 218.908 305.182C219.714 305.858 220.647 306.15 221.706 306.057C222.073 306.025 222.426 305.944 222.763 305.815C223.1 305.686 223.409 305.51 223.688 305.286L225.278 306.62ZM221.558 304.362C220.965 304.414 220.446 304.253 220 303.88C219.555 303.506 219.306 303.023 219.254 302.429C219.202 301.836 219.363 301.317 219.737 300.872C220.111 300.426 220.594 300.178 221.187 300.126C221.781 300.074 222.3 300.235 222.745 300.608C223.191 300.982 223.439 301.466 223.491 302.059C223.543 302.652 223.382 303.171 223.008 303.617C222.635 304.062 222.151 304.311 221.558 304.362ZM215.648 310.002C215.182 310.043 214.768 309.912 214.408 309.61C214.047 309.307 213.846 308.922 213.805 308.456L212.915 298.288C212.874 297.822 213.006 297.409 213.309 297.048C213.611 296.687 213.996 296.486 214.462 296.445L228.019 295.259C228.485 295.218 228.899 295.349 229.26 295.652C229.621 295.955 229.821 296.339 229.862 296.805L230.752 306.973C230.792 307.439 230.662 307.853 230.359 308.214C230.056 308.575 229.671 308.776 229.205 308.816L215.648 310.002Z" fill="#3B69D1"/>
</g>
<path d="M198.975 328.932L200.419 328.806L200.167 325.928L200.91 325.863L203.063 328.574L204.761 328.426L202.258 325.469C202.961 325.069 203.322 324.392 203.246 323.528C203.131 322.206 202.094 321.487 200.529 321.624L198.353 321.814L198.975 328.932ZM200.715 322.817C201.325 322.763 201.713 323.098 201.76 323.637C201.811 324.217 201.486 324.604 200.876 324.657L200.062 324.728L199.901 322.888L200.715 322.817ZM210.128 327.116L209.138 326.465C208.896 326.855 208.429 327.142 207.87 327.191C207.067 327.261 206.443 326.926 206.238 325.981L209.827 325.667C209.852 325.491 209.87 325.223 209.845 324.938C209.728 323.596 208.708 322.712 207.284 322.836C205.606 322.983 204.76 324.317 204.893 325.832C205.023 327.327 206.161 328.508 207.982 328.349C208.948 328.265 209.706 327.799 210.128 327.116ZM207.346 323.896C208.068 323.833 208.49 324.319 208.555 324.836L206.196 325.042C206.28 324.359 206.685 323.954 207.346 323.896ZM213.703 326.619C212.839 326.695 212.163 326.108 212.083 325.203C212.005 324.309 212.568 323.603 213.412 323.53C213.941 323.483 214.368 323.682 214.643 324.016L215.582 323.155C215.049 322.567 214.261 322.226 213.326 322.308C211.557 322.463 210.61 323.826 210.741 325.321C210.872 326.815 212.041 327.994 213.81 327.839C214.745 327.757 215.462 327.285 215.885 326.613L214.811 325.928C214.598 326.305 214.212 326.575 213.703 326.619ZM216.922 327.362L218.213 327.249L217.921 323.904C218.085 323.561 218.393 323.094 219.043 323.037C219.684 322.981 220.098 323.375 220.157 324.056L220.42 327.056L221.721 326.942L221.454 323.892C221.322 322.377 220.37 321.691 219.262 321.788C218.581 321.848 218.126 322.154 217.8 322.531L217.546 319.623L216.255 319.736L216.922 327.362ZM227.833 325.567L226.843 324.916C226.601 325.306 226.134 325.593 225.575 325.642C224.772 325.712 224.148 325.377 223.942 324.432L227.532 324.118C227.557 323.942 227.575 323.674 227.55 323.389C227.432 322.047 226.412 321.163 224.989 321.287C223.311 321.434 222.465 322.768 222.597 324.283C222.728 325.778 223.866 326.959 225.686 326.8C226.652 326.716 227.411 326.25 227.833 325.567ZM225.051 322.347C225.773 322.284 226.194 322.77 226.26 323.287L223.901 323.493C223.985 322.81 224.39 322.405 225.051 322.347ZM229.076 326.299L230.367 326.186L230.08 322.901C230.245 322.559 230.621 322.178 231.252 322.123C231.485 322.102 231.661 322.118 231.827 322.144L231.716 320.873C231.59 320.843 231.435 320.826 231.262 320.841C230.683 320.892 230.269 321.194 229.963 321.569L229.919 321.061L228.628 321.174L229.076 326.299ZM235.36 324.724C234.496 324.8 233.819 324.214 233.74 323.309C233.662 322.414 234.225 321.709 235.069 321.635C235.598 321.589 236.025 321.787 236.3 322.121L237.239 321.261C236.706 320.672 235.918 320.331 234.983 320.413C233.214 320.568 232.267 321.931 232.398 323.426C232.529 324.921 233.697 326.099 235.467 325.944C236.402 325.863 237.119 325.39 237.542 324.718L236.468 324.033C236.255 324.41 235.868 324.68 235.36 324.724ZM238.579 325.467L239.87 325.354L239.577 322.009C239.742 321.667 240.05 321.199 240.7 321.142C241.341 321.086 241.755 321.48 241.814 322.162L242.077 325.161L243.378 325.047L243.111 321.997C242.979 320.482 242.027 319.797 240.919 319.894C240.238 319.953 239.783 320.259 239.457 320.636L239.203 317.728L237.912 317.841L238.579 325.467ZM249.489 323.673L248.5 323.021C248.258 323.411 247.791 323.698 247.232 323.747C246.428 323.817 245.805 323.483 245.599 322.537L249.188 322.223C249.214 322.047 249.232 321.779 249.207 321.494C249.089 320.152 248.069 319.268 246.646 319.393C244.968 319.539 244.122 320.874 244.254 322.389C244.385 323.883 245.523 325.065 247.343 324.905C248.309 324.821 249.068 324.355 249.489 323.673ZM246.708 320.453C247.43 320.39 247.851 320.875 247.917 321.392L245.558 321.598C245.642 320.915 246.047 320.511 246.708 320.453Z" fill="#3B69D1"/>
<path d="M298.607 302.958L296.684 301.482C295.143 300.294 293.694 299.062 292.338 297.786C290.981 296.51 290.224 294.982 290.069 293.203C289.938 291.706 290.337 290.412 291.266 289.32C292.195 288.228 293.408 287.617 294.905 287.486C295.738 287.413 296.501 287.517 297.195 287.798C297.888 288.079 298.456 288.385 298.897 288.716C299.275 288.313 299.781 287.913 300.415 287.516C301.049 287.119 301.782 286.884 302.616 286.811C304.113 286.68 305.413 287.072 306.518 287.986C307.622 288.899 308.24 290.105 308.371 291.602C308.527 293.381 308.048 295.017 306.933 296.509C305.818 298.001 304.612 299.458 303.313 300.881L301.657 302.691C301.269 303.138 300.779 303.387 300.185 303.439C299.592 303.491 299.066 303.33 298.607 302.958ZM298.046 291.181C297.77 290.793 297.376 290.439 296.864 290.121C296.353 289.803 295.765 289.673 295.101 289.731C294.226 289.808 293.523 290.154 292.994 290.77C292.464 291.385 292.237 292.131 292.314 293.006C292.381 293.769 292.716 294.544 293.318 295.331C293.921 296.117 294.627 296.877 295.438 297.61C296.25 298.343 297.077 299.018 297.921 299.635C298.765 300.251 299.453 300.763 299.987 301.172C300.442 300.677 301.031 300.053 301.755 299.3C302.479 298.546 303.177 297.737 303.849 296.874C304.52 296.012 305.084 295.141 305.541 294.261C305.998 293.382 306.192 292.561 306.126 291.798C306.049 290.922 305.697 290.227 305.068 289.713C304.44 289.199 303.688 288.98 302.812 289.057C302.148 289.115 301.589 289.345 301.132 289.748C300.677 290.151 300.354 290.567 300.164 290.996C300.069 291.204 299.93 291.369 299.749 291.492C299.567 291.614 299.378 291.684 299.18 291.701C298.968 291.72 298.762 291.685 298.562 291.596C298.362 291.506 298.19 291.368 298.046 291.181Z" fill="#646464"/>
<path d="M285.873 321.329L286.829 321.246L286.547 318.023L289.007 317.807L288.937 317.004L286.477 317.219L286.277 314.942L289.145 314.691L289.073 313.877L285.25 314.212L285.873 321.329ZM292.119 320.926C292.78 320.869 293.425 320.515 293.768 319.983L293.825 320.634L294.689 320.558L294.389 317.121C294.29 315.993 293.451 315.298 292.149 315.412C291.254 315.49 290.565 315.929 290.171 316.578L290.866 317.02C291.142 316.555 291.596 316.239 292.186 316.187C292.918 316.123 293.462 316.485 293.524 317.197L293.556 317.553L291.852 317.989C290.78 318.267 290.238 318.868 290.306 319.64C290.382 320.515 291.113 321.015 292.119 320.926ZM291.178 319.533C291.139 319.096 291.427 318.753 292.118 318.57L293.611 318.183L293.699 319.19C293.411 319.768 292.881 320.143 292.199 320.202C291.599 320.255 291.216 319.971 291.178 319.533ZM295.153 315.354L297.604 320.303L298.743 320.204L300.298 314.904L299.362 314.985L298.094 319.348L296.088 315.272L295.153 315.354ZM303.598 314.41C301.941 314.555 300.934 315.924 301.064 317.418C301.195 318.913 302.425 320.086 304.082 319.941C305.73 319.797 306.747 318.427 306.616 316.933C306.485 315.438 305.246 314.266 303.598 314.41ZM304.021 319.127C302.923 319.223 302.063 318.407 301.969 317.339C301.876 316.272 302.582 315.318 303.68 315.222C304.747 315.129 305.608 315.945 305.701 317.013C305.794 318.07 305.089 319.034 304.021 319.127ZM308.23 319.374L309.094 319.298L308.786 315.78C309.056 315.234 309.463 314.85 310.134 314.791C310.338 314.773 310.492 314.78 310.648 314.807L310.574 313.963C310.449 313.934 310.294 313.927 310.132 313.941C309.481 313.998 309.039 314.333 308.702 314.814L308.646 314.173L307.781 314.249L308.23 319.374ZM312.144 312.525C312.479 312.496 312.719 312.198 312.69 311.862C312.662 311.537 312.373 311.286 312.038 311.315C311.702 311.344 311.452 311.643 311.48 311.968C311.509 312.304 311.808 312.554 312.144 312.525ZM312.271 319.02L313.136 318.944L312.687 313.82L311.823 313.895L312.271 319.02ZM314.312 318.134C314.83 318.673 315.5 318.942 316.313 318.871C317.269 318.788 317.979 318.121 317.905 317.164C317.752 315.415 315.212 316.007 315.111 314.858C315.077 314.461 315.343 314.11 315.892 314.062C316.34 314.023 316.747 314.233 317.056 314.595L317.611 314.034C317.212 313.567 316.551 313.277 315.819 313.341C314.833 313.427 314.209 314.148 314.279 314.951C314.438 316.761 316.965 316.13 317.065 317.279C317.104 317.726 316.809 318.1 316.24 318.15C315.721 318.196 315.272 317.979 314.877 317.562L314.312 318.134Z" fill="#646464"/>
</g>
</g>
<defs>
<filter id="filter0_d_5297_13148" x="21.6139" y="52.0321" width="303.615" height="235.351" filterUnits="userSpaceOnUse" color-interpolation-filters="sRGB">
<feFlood flood-opacity="0" result="BackgroundImageFix"/>
<feColorMatrix in="SourceAlpha" type="matrix" values="0 0 0 0 0 0 0 0 0 0 0 0 0 0 0 0 0 0 127 0" result="hardAlpha"/>
<feOffset dy="4.41346"/>
<feGaussianBlur stdDeviation="9.19471"/>
<feComposite in2="hardAlpha" operator="out"/>
<feColorMatrix type="matrix" values="0 0 0 0 0.196078 0 0 0 0 0.196078 0 0 0 0 0.196078 0 0 0 0.1 0"/>
<feBlend mode="normal" in2="BackgroundImageFix" result="effect1_dropShadow_5297_13148"/>
<feBlend mode="normal" in="SourceGraphic" in2="effect1_dropShadow_5297_13148" result="shape"/>
</filter>
<filter id="filter1_d_5297_13148" x="98.1657" y="202.031" width="154.724" height="82.899" filterUnits="userSpaceOnUse" color-interpolation-filters="sRGB">
<feFlood flood-opacity="0" result="BackgroundImageFix"/>
<feColorMatrix in="SourceAlpha" type="matrix" values="0 0 0 0 0 0 0 0 0 0 0 0 0 0 0 0 0 0 127 0" result="hardAlpha"/>
<feOffset dy="4"/>
<feGaussianBlur stdDeviation="6"/>
<feComposite in2="hardAlpha" operator="out"/>
<feColorMatrix type="matrix" values="0 0 0 0 0.152941 0 0 0 0 0.286275 0 0 0 0 0.588235 0 0 0 0.12 0"/>
<feBlend mode="normal" in2="BackgroundImageFix" result="effect1_dropShadow_5297_13148"/>
<feBlend mode="normal" in="SourceGraphic" in2="effect1_dropShadow_5297_13148" result="shape"/>
</filter>
<filter id="filter2_d_5297_13148" x="-23.0036" y="246.772" width="396.441" height="148.945" filterUnits="userSpaceOnUse" color-interpolation-filters="sRGB">
<feFlood flood-opacity="0" result="BackgroundImageFix"/>
<feColorMatrix in="SourceAlpha" type="matrix" values="0 0 0 0 0 0 0 0 0 0 0 0 0 0 0 0 0 0 127 0" result="hardAlpha"/>
<feOffset dy="6"/>
<feGaussianBlur stdDeviation="12.5"/>
<feComposite in2="hardAlpha" operator="out"/>
<feColorMatrix type="matrix" values="0 0 0 0 0.196078 0 0 0 0 0.196078 0 0 0 0 0.196078 0 0 0 0.1 0"/>
<feBlend mode="normal" in2="BackgroundImageFix" result="effect1_dropShadow_5297_13148"/>
<feBlend mode="normal" in="SourceGraphic" in2="effect1_dropShadow_5297_13148" result="shape"/>
</filter>
<clipPath id="clip0_5297_13148">
<rect width="11.7692" height="11.7692" fill="white" transform="translate(62.5376 140.305) rotate(-5)"/>
</clipPath>
<clipPath id="clip1_5297_13148">
<rect x="2.00031" y="295.554" width="341.682" height="69.4215" rx="16" transform="rotate(-5 2.00031 295.554)" fill="white"/>
</clipPath>
<clipPath id="clip2_5297_13148">
<rect width="20.4107" height="20.4107" fill="white" transform="translate(126.498 300.726) rotate(-5)"/>
</clipPath>
<clipPath id="clip3_5297_13148">
<rect width="20.4107" height="20.4107" fill="white" transform="translate(210.776 293.352) rotate(-5)"/>
</clipPath>
</defs>
</svg>
