<svg width="452" height="657" viewBox="0 0 452 657" fill="none" xmlns="http://www.w3.org/2000/svg">
<rect x="0.537093" y="0.450169" width="302.549" height="463.692" rx="12.5" transform="matrix(0.996309 -0.0974112 0.0778769 0.997749 29.2926 40.6694)" fill="#F1F1F1" stroke="#878787" stroke-dasharray="5.51 5.51"/>
<rect width="313.682" height="430.696" rx="8" transform="matrix(0.996315 -0.0973101 0.0779533 0.99774 3.05331 57.1155)" fill="white"/>
<path d="M30.5277 107.671L26.4129 108.055L29.6635 103.408L34.3206 102.973L30.5277 107.671ZM24.0029 132.733L22.1682 110.382L35.1825 109.166L35.4918 112.934L27.007 113.727L27.4421 119.027L34.651 118.353L34.9602 122.121L27.7513 122.794L28.2231 128.542L36.7079 127.749L37.0172 131.517L24.0029 132.733ZM37.6535 115.241L41.9916 114.836L47.1137 125.94L50.3169 114.058L54.6869 113.65L50.1386 130.291L44.8117 130.788L37.6535 115.241ZM66.188 110.001L62.2964 110.365L65.1787 104.754L69.5806 104.343L66.188 110.001ZM72.9582 125.52C71.6241 127.672 69.2383 129.149 66.208 129.433C60.4983 129.966 56.949 126.276 56.5637 121.582C56.1732 116.825 58.8492 112.617 64.1124 112.126C68.5781 111.708 71.7616 114.467 72.1076 118.682C72.181 119.576 72.1215 120.418 72.0385 120.973L60.7786 122.025C61.4077 124.991 63.3574 126.031 65.8773 125.796C67.6317 125.632 69.0999 124.722 69.8668 123.492L72.9582 125.52ZM64.2892 115.455C62.2159 115.649 60.9386 116.926 60.665 119.076L68.0653 118.384C67.8679 116.762 66.554 115.243 64.2892 115.455ZM76.8446 127.795L75.5236 111.703L79.5747 111.324L79.6795 112.601C80.7068 111.411 82.1379 110.441 84.275 110.242C87.7519 109.917 90.7236 112.052 91.1141 116.81L91.9003 126.388L87.8174 126.77L87.0443 117.351C86.8687 115.211 85.5465 113.984 83.5688 114.168C81.5273 114.359 80.5555 115.833 80.0333 116.912L80.8956 127.417L76.8446 127.795ZM111.086 121.957C109.752 124.109 107.366 125.587 104.336 125.87C98.6261 126.403 95.0768 122.713 94.6916 118.02C94.3011 113.262 96.9771 109.055 102.24 108.563C106.706 108.146 109.889 110.905 110.235 115.119C110.309 116.013 110.249 116.855 110.166 117.41L98.9064 118.462C99.5356 121.428 101.485 122.468 104.005 122.233C105.76 122.069 107.228 121.16 107.995 119.93L111.086 121.957ZM102.417 111.892C100.344 112.086 99.0665 113.364 98.7929 115.513L106.193 114.821C105.996 113.199 104.682 111.681 102.417 111.892ZM114.972 124.233L113.651 108.14L117.703 107.762L117.802 108.975C118.8 107.82 120.106 106.893 122.084 106.709C124.125 106.518 125.985 107.245 127.179 108.871C128.212 107.359 129.644 106.002 132.355 105.749C135.672 105.439 138.477 107.494 138.849 112.027L139.661 121.926L135.578 122.307L134.779 112.569C134.619 110.621 133.467 109.506 131.649 109.676C129.894 109.84 129.037 111.143 128.488 112.288C128.538 112.508 128.557 112.732 128.578 112.987L129.39 122.885L125.307 123.267L124.508 113.528C124.348 111.581 123.196 110.466 121.378 110.636C119.528 110.808 118.683 112.271 118.161 113.349L119.023 123.854L114.972 124.233ZM158.87 117.492C157.536 119.644 155.151 121.122 152.12 121.405C146.411 121.938 142.861 118.248 142.476 113.555C142.085 108.797 144.761 104.59 150.025 104.098C154.49 103.681 157.674 106.44 158.02 110.654C158.093 111.548 158.034 112.391 157.951 112.945L146.691 113.997C147.32 116.963 149.27 118.003 151.79 117.768C153.544 117.604 155.012 116.695 155.779 115.465L158.87 117.492ZM150.202 107.428C148.128 107.621 146.851 108.899 146.577 111.048L153.978 110.356C153.78 108.734 152.466 107.216 150.202 107.428ZM162.757 119.768L161.436 103.675L165.487 103.297L165.592 104.574C166.619 103.384 168.05 102.414 170.187 102.214C173.664 101.889 176.636 104.024 177.026 108.782L177.813 118.361L173.73 118.742L172.957 109.323C172.781 107.184 171.459 105.956 169.481 106.141C167.44 106.332 166.468 107.806 165.946 108.884L166.808 119.389L162.757 119.768ZM182.951 111.961L182.411 105.383L179.413 105.663L179.114 102.023L182.112 101.743L181.782 97.7201L185.865 97.3386L186.195 101.362L191.108 100.903L191.406 104.543L186.494 105.002L187.034 111.579C187.181 113.367 188.195 113.98 189.79 113.831C190.907 113.727 191.63 113.531 192.154 113.256L192.445 116.801C191.676 117.226 190.732 117.475 189.393 117.6C185.373 117.976 183.273 115.888 182.951 111.961ZM194.462 114.456L196.942 111.779C198.033 112.932 199.286 113.716 200.818 113.573C202.125 113.451 202.732 112.622 202.654 111.664C202.423 108.854 194.822 110.626 194.358 104.975C194.125 102.133 196.342 99.7701 199.691 99.4572C202.147 99.2277 204.477 100.2 205.754 101.658L203.268 104.271C202.355 103.327 201.234 102.595 199.99 102.711C198.714 102.83 198.166 103.589 198.234 104.419C198.459 107.165 206.068 105.489 206.524 111.045C206.738 114.435 204.179 116.541 201.149 116.824C198.278 117.092 196.142 116.133 194.462 114.456Z" fill="#3B69D1"/>
<g filter="url(#filter0_d_5794_13997)">
<rect width="48" height="48" rx="24" transform="matrix(0.996807 -0.0931408 0.0819033 0.997793 254.583 77.0023)" fill="#3B69D1" shape-rendering="crispEdges"/>
<path d="M280.472 98.7139C282.675 98.5081 284.312 96.5553 284.131 94.3502C283.95 92.1451 282.02 90.5258 279.817 90.7316C277.614 90.9374 275.976 92.8902 276.157 95.0953C276.338 97.3005 278.269 98.9198 280.472 98.7139ZM279.98 92.7272C281.077 92.6247 282.048 93.4389 282.138 94.5365C282.228 95.6341 281.405 96.6159 280.308 96.7184C279.212 96.8208 278.241 96.0066 278.151 94.9091C278.061 93.8115 278.884 92.8296 279.98 92.7272ZM280.554 99.7117C277.892 99.9604 272.689 101.794 272.907 104.448L273.071 106.444C273.116 106.992 273.601 107.399 274.149 107.348L288.105 106.044C288.653 105.993 289.065 105.502 289.02 104.953L288.856 102.958C288.638 100.304 283.215 99.463 280.554 99.7117ZM286.944 104.142L274.982 105.26L274.901 104.272C275.042 103.535 278.026 101.959 280.718 101.707C283.409 101.456 286.605 102.454 286.862 103.144L286.944 104.142Z" fill="white"/>
<rect x="0.539355" y="0.452326" width="47" height="47" rx="23.5" transform="matrix(0.996807 -0.0931408 0.0819033 0.997793 254.548 77.0535)" stroke="#3B69D1" shape-rendering="crispEdges"/>
</g>
<g filter="url(#filter1_d_5794_13997)">
<rect x="22.0253" y="158.021" width="301.781" height="388.446" rx="8" transform="rotate(-5 22.0253 158.021)" fill="white" shape-rendering="crispEdges"/>
<path d="M60.0001 191.179L53.9264 186.083C53.4626 186.525 52.9168 186.891 52.2889 187.181C51.661 187.47 50.9813 187.647 50.2499 187.711C48.4381 187.869 46.85 187.376 45.4855 186.231C44.1204 185.086 43.3586 183.607 43.2001 181.795C43.0415 179.984 43.535 178.395 44.6805 177.03C45.8254 175.665 47.3038 174.904 49.1156 174.746C50.9274 174.587 52.5159 175.08 53.881 176.225C55.2455 177.371 56.0069 178.849 56.1655 180.661C56.2295 181.392 56.1734 182.092 55.9975 182.761C55.8215 183.43 55.5558 184.031 55.2005 184.564L61.3013 189.684C61.5002 189.85 61.6112 190.067 61.6345 190.333C61.6578 190.599 61.5784 190.84 61.3964 191.057C61.2295 191.256 61.0048 191.368 60.7222 191.392C60.4397 191.417 60.199 191.346 60.0001 191.179ZM50.0754 185.716C51.3221 185.607 52.3438 185.078 53.1404 184.13C53.9364 183.18 54.2799 182.082 54.1708 180.836C54.0617 179.589 53.5328 178.567 52.5841 177.771C51.6348 176.975 50.5368 176.631 49.2901 176.74C48.0434 176.849 47.0218 177.378 46.2251 178.327C45.4291 179.276 45.0857 180.374 45.1947 181.621C45.3038 182.868 45.8327 183.889 46.7814 184.686C47.7307 185.482 48.8287 185.825 50.0754 185.716Z" fill="#3B69D1"/>
<path d="M75.3907 184.088C75.6197 186.705 76.676 188.671 78.5676 190.258L77.2361 191.581C75.0837 189.952 73.6607 187.472 73.3801 184.264C73.0967 181.025 74.179 178.325 75.9098 176.421L77.4507 177.492C75.9203 179.299 75.1631 181.487 75.3907 184.088ZM79.6741 188.152L79.5038 186.205L83.0041 182.104C83.789 181.151 84.2785 180.497 84.1989 179.587C84.118 178.662 83.4322 178.175 82.5546 178.252C81.4854 178.345 80.8884 179.057 80.3845 180.098L78.5357 179.182C79.3431 177.568 80.6477 176.489 82.5945 176.319C84.5413 176.148 86.214 177.256 86.3815 179.171C86.5156 180.703 85.6135 181.972 84.606 183.137L82.1368 185.974L87.2272 185.529L87.3975 187.476L79.6741 188.152ZM90.9024 182.763C90.6734 180.146 89.6157 178.165 87.7096 176.595L89.041 175.272C91.1761 176.886 92.615 179.365 92.897 182.589C93.1805 185.828 92.1127 188.51 90.3673 190.432L88.8264 189.361C90.3887 187.552 91.1299 185.364 90.9024 182.763ZM103.35 184.472C104.148 184.402 104.754 183.98 105.088 183.388L106.774 184.462C106.11 185.517 104.985 186.259 103.517 186.387C100.741 186.63 98.9066 184.781 98.7014 182.435C98.4961 180.089 99.9812 177.949 102.758 177.706C104.226 177.578 105.463 178.113 106.299 179.037L104.825 180.388C104.394 179.863 103.723 179.551 102.893 179.624C101.569 179.74 100.685 180.846 100.808 182.251C100.932 183.671 101.993 184.591 103.35 184.472ZM108.401 185.638L107.697 177.596L109.724 177.418L109.794 178.216C110.273 177.628 110.923 177.153 111.832 177.073C112.104 177.049 112.347 177.076 112.544 177.123L112.719 179.118C112.458 179.077 112.182 179.052 111.815 179.085C110.826 179.171 110.235 179.77 109.977 180.307L110.428 185.461L108.401 185.638ZM115.079 175.535C114.361 175.598 113.701 175.044 113.638 174.326C113.575 173.608 114.129 172.949 114.847 172.886C115.565 172.823 116.208 173.378 116.271 174.096C116.334 174.814 115.797 175.472 115.079 175.535ZM114.884 185.071L114.18 177.029L116.207 176.851L116.91 184.894L114.884 185.071ZM119.594 181.7L119.307 178.413L117.807 178.544L117.648 176.725L119.148 176.594L118.972 174.583L121.014 174.405L121.19 176.415L123.648 176.2L123.807 178.019L121.349 178.234L121.637 181.522C121.715 182.415 122.225 182.724 123.022 182.655C123.581 182.606 123.942 182.51 124.204 182.374L124.359 184.146C123.975 184.356 123.504 184.478 122.833 184.536C120.823 184.712 119.766 183.663 119.594 181.7ZM127.764 174.554L125.618 172.072L127.82 171.88L129.695 174.385L127.764 174.554ZM133.3 182.141C132.638 183.212 131.448 183.944 129.932 184.076C127.076 184.326 125.289 182.472 125.084 180.127C124.876 177.749 126.204 175.655 128.837 175.425C131.071 175.229 132.672 176.617 132.856 178.723C132.895 179.17 132.868 179.59 132.828 179.867L127.195 180.36C127.518 181.843 128.496 182.369 129.757 182.258C130.634 182.182 131.367 181.732 131.747 181.119L133.3 182.141ZM128.935 177.088C127.897 177.179 127.262 177.814 127.13 178.886L130.832 178.562C130.729 177.751 130.068 176.989 128.935 177.088ZM135.251 183.289L134.548 175.247L136.574 175.069L136.644 175.867C137.123 175.279 137.773 174.804 138.683 174.724C138.954 174.7 139.198 174.727 139.395 174.774L139.569 176.769C139.308 176.728 139.033 176.703 138.666 176.735C137.676 176.822 137.086 177.42 136.827 177.958L137.278 183.112L135.251 183.289ZM148.681 180.796C148.019 181.867 146.829 182.598 145.313 182.73C142.456 182.98 140.67 181.127 140.465 178.781C140.257 176.403 141.585 174.309 144.218 174.079C146.452 173.884 148.053 175.271 148.237 177.377C148.276 177.824 148.249 178.245 148.209 178.522L142.576 179.014C142.898 180.498 143.877 181.023 145.138 180.913C146.015 180.836 146.748 180.386 147.128 179.774L148.681 180.796ZM144.315 175.743C143.278 175.833 142.642 176.468 142.511 177.541L146.213 177.217C146.11 176.406 145.448 175.644 144.315 175.743ZM149.719 180.85L150.953 179.52C151.502 180.099 152.132 180.494 152.898 180.427C153.552 180.37 153.854 179.957 153.812 179.478C153.689 178.074 149.889 178.937 149.642 176.113C149.518 174.693 150.621 173.519 152.297 173.372C153.526 173.265 154.694 173.757 155.337 174.489L154.1 175.787C153.64 175.313 153.078 174.944 152.455 174.998C151.817 175.054 151.544 175.432 151.581 175.847C151.701 177.219 155.505 176.404 155.748 179.181C155.864 180.875 154.588 181.919 153.072 182.052C151.636 182.177 150.565 181.692 149.719 180.85ZM164.404 180.98C162.792 181.121 161.61 180.292 161.48 178.808C161.374 177.595 162.236 176.603 163.935 176.165L166.356 175.535L166.338 175.328C166.264 174.482 165.578 173.995 164.652 174.076C163.87 174.144 163.296 174.565 162.917 175.193L161.334 174.19C161.965 173.137 163.093 172.428 164.561 172.299C166.891 172.095 168.209 173.379 168.364 175.15L168.819 180.352L166.793 180.53L166.724 179.748C166.268 180.415 165.346 180.897 164.404 180.98ZM163.483 178.536C163.53 179.078 163.992 179.392 164.678 179.332C165.603 179.251 166.236 178.761 166.579 178.088L166.48 176.955L164.593 177.442C163.76 177.659 163.439 178.041 163.483 178.536ZM174.862 178.216C175.66 178.146 176.266 177.723 176.6 177.131L178.286 178.206C177.623 179.261 176.498 180.002 175.03 180.131C172.253 180.374 170.419 178.524 170.214 176.178C170.008 173.833 171.494 171.693 174.27 171.45C175.738 171.321 176.975 171.856 177.811 172.78L176.338 174.131C175.906 173.606 175.236 173.295 174.406 173.367C173.081 173.483 172.197 174.59 172.32 175.994C172.444 177.414 173.506 178.334 174.862 178.216ZM180.245 176.394L179.958 173.107L178.458 173.238L178.298 171.419L179.798 171.288L179.622 169.277L181.665 169.098L181.841 171.109L184.298 170.894L184.457 172.713L182 172.928L182.288 176.215C182.366 177.109 182.875 177.418 183.673 177.348C184.232 177.299 184.593 177.204 184.855 177.068L185.01 178.839C184.626 179.05 184.154 179.171 183.484 179.23C181.473 179.406 180.417 178.357 180.245 176.394ZM187.012 169.242C186.294 169.304 185.634 168.751 185.571 168.033C185.508 167.315 186.062 166.655 186.78 166.593C187.498 166.53 188.141 167.085 188.204 167.803C188.267 168.521 187.73 169.179 187.012 169.242ZM186.817 178.778L186.113 170.735L188.14 170.558L188.843 178.6L186.817 178.778ZM189.581 170.432L191.081 170.301L191.007 169.455C190.857 167.747 191.87 166.276 193.881 166.1C194.615 166.036 195.253 166.157 195.787 166.384L195.073 168.15C194.819 167.996 194.487 167.88 194.072 167.916C193.386 167.976 192.981 168.494 193.045 169.228L193.123 170.122L195.581 169.907L195.74 171.726L193.282 171.941L193.827 178.164L191.784 178.343L191.24 172.12L189.74 172.251L189.581 170.432ZM196.594 176.749L197.828 175.419C198.377 175.998 199.007 176.393 199.773 176.326C200.427 176.268 200.729 175.856 200.687 175.377C200.564 173.973 196.764 174.836 196.517 172.012C196.393 170.592 197.496 169.418 199.172 169.271C200.401 169.164 201.569 169.656 202.212 170.388L200.975 171.686C200.515 171.212 199.952 170.843 199.33 170.897C198.692 170.953 198.419 171.331 198.456 171.746C198.576 173.118 202.38 172.303 202.623 175.079C202.739 176.774 201.463 177.818 199.947 177.951C198.511 178.076 197.44 177.591 196.594 176.749Z" fill="#161616"/>
<path d="M297.434 165.03C297.301 165.042 297.174 165.032 297.054 165C296.934 164.969 296.82 164.908 296.712 164.817L291.695 160.608C291.496 160.441 291.389 160.22 291.374 159.945C291.358 159.67 291.433 159.433 291.6 159.234C291.767 159.036 291.992 158.924 292.274 158.899C292.557 158.874 292.798 158.945 292.997 159.112L297.226 162.662L300.799 158.404C300.965 158.206 301.186 158.098 301.462 158.082C301.736 158.067 301.973 158.143 302.172 158.309C302.371 158.476 302.483 158.701 302.507 158.984C302.532 159.266 302.461 159.507 302.294 159.706L298.108 164.695C298.017 164.803 297.915 164.883 297.802 164.935C297.69 164.987 297.567 165.019 297.434 165.03Z" fill="#161616"/>
<path d="M50.0525 225.105L48.9747 226.02L47.4861 224.075L46.3577 226.248L45.1376 225.535L46.5367 223.515L44.1219 223.116L44.4341 221.722L46.7956 222.431L46.4224 220.004L47.8426 219.88L47.8967 222.335L50.083 221.227L50.6326 222.546L48.3399 223.358L50.0525 225.105Z" fill="#161616"/>
<path d="M58.2186 230.228L57.2413 219.057L59.0605 218.898L59.8911 228.393L64.2954 228.008L64.442 229.683L58.2186 230.228ZM69.2843 220.834C71.9013 220.605 73.8284 222.414 74.0364 224.792C74.2444 227.169 72.6608 229.286 70.0438 229.515C67.4427 229.742 65.4997 227.934 65.2917 225.557C65.0837 223.179 66.6832 221.061 69.2843 220.834ZM69.9243 227.965C71.4403 227.833 72.447 226.474 72.313 224.942C72.1762 223.379 70.9516 222.248 69.4357 222.38C67.8878 222.516 66.8797 223.858 67.0151 225.406C67.1505 226.954 68.3764 228.101 69.9243 227.965ZM80.1786 227.068C81.0882 226.989 81.7831 226.478 82.1755 225.816L83.5546 226.692C82.9071 227.746 81.7821 228.488 80.298 228.617C77.6012 228.853 75.7352 227.007 75.53 224.661C75.3248 222.315 76.8418 220.173 79.5386 219.937C81.0067 219.808 82.2593 220.342 83.0799 221.267L81.8739 222.369C81.3727 221.786 80.5995 221.404 79.674 221.484C78.1261 221.62 77.1152 222.93 77.2534 224.51C77.393 226.106 78.6148 227.205 80.1786 227.068ZM87.5015 227.907C85.9057 228.046 84.741 227.232 84.6168 225.812C84.5107 224.599 85.3754 223.639 87.0577 223.202L89.6211 222.544L89.5848 222.129C89.4982 221.14 88.7111 220.597 87.6739 220.688C86.7962 220.765 86.145 221.224 85.7394 221.919L84.4283 221.085C85.0627 220.064 86.1585 219.357 87.5947 219.232C89.7649 219.042 91.0734 220.214 91.2284 221.985L91.6933 227.299L90.0497 227.443L89.9701 226.533C89.457 227.286 88.4908 227.82 87.5015 227.907ZM86.2708 225.603C86.3252 226.225 86.8576 226.612 87.6874 226.54C88.6927 226.452 89.4327 225.905 89.8444 225.097L89.723 223.709L87.5849 224.266C86.5949 224.529 86.2177 224.996 86.2708 225.603ZM94.2696 227.074L93.2226 215.105L94.8662 214.962L95.9133 226.93L94.2696 227.074ZM98.5716 216.792C97.9652 216.845 97.4099 216.379 97.3569 215.773C97.3038 215.166 97.7698 214.611 98.3762 214.558C98.9826 214.505 99.5379 214.971 99.5909 215.577C99.644 216.184 99.178 216.739 98.5716 216.792ZM98.6018 226.695L97.8982 218.652L99.5418 218.508L100.245 226.551L98.6018 226.695ZM101.944 225.26L102.99 224.172C103.575 224.796 104.251 225.171 105.049 225.101C105.831 225.033 106.22 224.517 106.167 223.91C106.024 222.282 102.135 223.218 101.886 220.377C101.77 219.053 102.795 217.902 104.407 217.761C105.588 217.658 106.675 218.141 107.317 218.857L106.285 219.928C105.804 219.391 105.21 219.041 104.54 219.1C103.774 219.167 103.43 219.647 103.478 220.19C103.619 221.802 107.513 220.914 107.754 223.675C107.876 225.256 106.682 226.309 105.182 226.44C103.826 226.559 102.773 226.104 101.944 225.26ZM112.201 225.746C110.605 225.886 109.441 225.071 109.316 223.651C109.21 222.438 110.075 221.478 111.757 221.041L114.321 220.383L114.284 219.968C114.198 218.979 113.411 218.436 112.374 218.527C111.496 218.604 110.845 219.063 110.439 219.758L109.128 218.924C109.762 217.903 110.858 217.197 112.294 217.071C114.465 216.881 115.773 218.053 115.928 219.824L116.393 225.138L114.749 225.282L114.67 224.372C114.157 225.125 113.191 225.659 112.201 225.746ZM110.97 223.442C111.025 224.064 111.557 224.452 112.387 224.379C113.392 224.291 114.132 223.744 114.544 222.936L114.423 221.548L112.285 222.105C111.295 222.368 110.917 222.835 110.97 223.442ZM119.204 222.078L118.874 218.312L117.358 218.445L117.229 216.961L118.744 216.828L118.569 214.818L120.228 214.672L120.404 216.683L123.069 216.45L123.199 217.934L120.534 218.167L120.863 221.933C120.958 223.018 121.563 223.319 122.457 223.241C123 223.193 123.361 223.097 123.639 222.96L123.766 224.413C123.397 224.606 122.957 224.725 122.334 224.779C120.451 224.944 119.375 224.041 119.204 222.078ZM125.702 214.418C125.096 214.472 124.541 214.006 124.488 213.399C124.435 212.793 124.901 212.238 125.507 212.184C126.113 212.131 126.669 212.597 126.722 213.204C126.775 213.81 126.309 214.365 125.702 214.418ZM125.733 224.321L125.029 216.278L126.673 216.135L127.376 224.177L125.733 224.321ZM133.067 215.253C135.684 215.025 137.611 216.834 137.819 219.211C138.027 221.589 136.444 223.705 133.827 223.934C131.226 224.162 129.283 222.354 129.075 219.976C128.867 217.599 130.466 215.481 133.067 215.253ZM133.707 222.385C135.223 222.252 136.23 220.894 136.096 219.362C135.959 217.798 134.735 216.667 133.219 216.8C131.671 216.935 130.663 218.278 130.798 219.826C130.933 221.374 132.159 222.52 133.707 222.385ZM140.225 223.053L139.522 215.01L141.165 214.867L141.234 215.649C141.784 214.957 142.541 214.425 143.69 214.324C145.462 214.169 146.923 215.247 147.127 217.577L147.55 222.412L145.89 222.557L145.473 217.786C145.361 216.509 144.592 215.805 143.443 215.905C142.342 216.002 141.748 216.745 141.394 217.484L141.869 222.909L140.225 223.053Z" fill="#161616"/>
<path d="M48.274 264.921L49.1732 263.942C49.9191 264.749 50.7414 265.141 51.6489 265.062C52.738 264.967 53.3089 264.255 53.2308 263.362C53.0377 261.156 48.4436 262.036 48.1615 258.811C48.0344 257.358 49.1314 256.067 50.8348 255.918C52.2032 255.798 53.2635 256.338 54.0738 257.238L53.1582 258.191C52.5137 257.417 51.7892 257.016 50.9514 257.089C49.988 257.173 49.4261 257.828 49.4994 258.665C49.6912 260.858 54.2689 259.951 54.5535 263.204C54.7014 264.893 53.4969 266.082 51.7655 266.234C50.3273 266.359 49.2185 265.908 48.274 264.921ZM59.8259 257.044L58.667 257.146L59.9163 254.701L61.2567 254.584L59.8259 257.044ZM63.1187 263.805C62.5394 264.742 61.5411 265.392 60.2286 265.507C57.8549 265.715 56.2361 264.098 56.0566 262.045C55.8697 259.909 57.0926 258.128 59.2708 257.937C61.1837 257.77 62.5437 259.001 62.6952 260.733C62.7196 261.012 62.7009 261.281 62.6761 261.48L57.2725 261.953C57.4622 263.639 58.6265 264.564 60.1345 264.432C61.0421 264.353 61.7734 263.867 62.1792 263.198L63.1187 263.805ZM59.3309 258.945C58.172 259.046 57.422 259.801 57.2769 261.038L61.4937 260.669C61.3614 259.64 60.5735 258.836 59.3309 258.945ZM65.0779 264.802L64.1617 254.329L65.3486 254.226L66.2648 264.698L65.0779 264.802ZM74.9271 262.772C74.3478 263.709 73.3494 264.359 72.0369 264.474C69.6633 264.682 68.0445 263.065 67.8649 261.012C67.678 258.876 68.901 257.095 71.0792 256.904C72.9921 256.737 74.352 257.968 74.5035 259.7C74.5279 259.979 74.5092 260.248 74.4845 260.447L69.0809 260.92C69.2706 262.606 70.4349 263.531 71.9429 263.399C72.8504 263.32 73.5817 262.833 73.9875 262.165L74.9271 262.772ZM71.1392 257.912C69.9803 258.013 69.2303 258.768 69.0853 260.005L73.302 259.636C73.1697 258.606 72.3819 257.803 71.1392 257.912ZM80.025 262.65C80.8907 262.574 81.5662 262.093 81.9453 261.441L82.9431 262.071C82.3638 263.008 81.3934 263.656 80.1088 263.768C77.777 263.972 76.1303 262.357 75.9507 260.305C75.7712 258.252 77.1125 256.376 79.4443 256.172C80.7149 256.061 81.7982 256.543 82.5302 257.351L81.657 258.145C81.1704 257.569 80.4216 257.212 79.542 257.289C78.034 257.421 77.0627 258.702 77.1934 260.196C77.3254 261.704 78.5031 262.783 80.025 262.65ZM84.8433 260.695L84.5282 257.092L83.2017 257.208L83.1076 256.133L84.4341 256.017L84.2802 254.258L85.481 254.153L85.6349 255.912L88.0784 255.698L88.1724 256.773L85.729 256.987L86.0441 260.589C86.1406 261.693 86.726 261.951 87.5777 261.876C88.0385 261.836 88.3548 261.752 88.6103 261.617L88.7031 262.678C88.3802 262.847 88.0081 262.936 87.5055 262.98C85.9416 263.117 84.9936 262.412 84.8433 260.695ZM90.3328 253.658C89.872 253.698 89.4621 253.354 89.4217 252.893C89.3827 252.447 89.7267 252.037 90.1874 251.996C90.6482 251.956 91.0442 252.301 91.0833 252.748C91.1236 253.209 90.7936 253.618 90.3328 253.658ZM90.5081 262.577L89.8924 255.539L91.0793 255.436L91.6949 262.473L90.5081 262.577ZM96.7747 254.656C99.0366 254.458 100.739 256.068 100.919 258.12C101.098 260.173 99.7012 262.054 97.4392 262.252C95.1633 262.451 93.4747 260.84 93.2951 258.787C93.1155 256.735 94.4987 254.855 96.7747 254.656ZM97.3554 261.133C98.8215 261.005 99.7892 259.682 99.6621 258.23C99.5338 256.764 98.3524 255.643 96.8863 255.772C95.3784 255.904 94.4095 257.213 94.5378 258.679C94.666 260.145 95.8475 261.265 97.3554 261.133ZM103.135 261.472L102.519 254.435L103.706 254.331L103.775 255.127C104.293 254.448 104.98 253.938 106.027 253.846C107.605 253.708 108.871 254.667 109.045 256.664L109.418 260.922L108.231 261.026L107.862 256.809C107.752 255.553 106.976 254.889 105.887 254.984C104.868 255.073 104.277 255.716 103.895 256.495L104.321 261.368L103.135 261.472ZM111.807 260.713L111.191 253.676L112.378 253.572L112.448 254.368C112.965 253.69 113.652 253.179 114.699 253.088C116.277 252.95 117.543 253.908 117.717 255.905L118.09 260.164L116.903 260.267L116.534 256.051C116.424 254.794 115.649 254.13 114.56 254.226C113.54 254.315 112.949 254.957 112.567 255.736L112.994 260.609L111.807 260.713ZM126.633 258.248C126.054 259.185 125.055 259.836 123.743 259.95C121.369 260.158 119.75 258.541 119.571 256.488C119.384 254.352 120.607 252.571 122.785 252.38C124.698 252.213 126.058 253.445 126.209 255.176C126.234 255.455 126.215 255.724 126.19 255.923L120.787 256.396C120.976 258.082 122.141 259.007 123.649 258.875C124.556 258.796 125.288 258.31 125.693 257.641L126.633 258.248ZM122.845 253.388C121.686 253.489 120.936 254.245 120.791 255.481L125.008 255.112C124.876 254.083 124.088 253.279 122.845 253.388ZM127.965 259.3L127.871 258.224L131.59 252.975L127.541 253.329L127.447 252.254L132.948 251.773L133.042 252.848L129.309 258.099L133.568 257.726L133.662 258.801L127.965 259.3ZM143.988 254.859L143.636 250.838L144.823 250.734L145.171 254.713C145.355 256.821 144.248 258.156 142.335 258.324C140.436 258.49 139.114 257.368 138.929 255.259L138.581 251.28L139.768 251.176L140.12 255.197C140.241 256.579 141.05 257.311 142.251 257.206C143.424 257.103 144.108 256.241 143.988 254.859ZM147.777 257.566L147.162 250.529L148.348 250.425L148.418 251.221C148.935 250.543 149.622 250.032 150.67 249.941C152.247 249.803 153.513 250.761 153.688 252.758L154.06 257.017L152.874 257.12L152.505 252.904C152.395 251.647 151.619 250.983 150.53 251.079C149.511 251.168 148.92 251.81 148.538 252.589L148.964 257.462L147.777 257.566ZM162.603 255.101C162.024 256.038 161.026 256.689 159.713 256.803C157.339 257.011 155.721 255.394 155.541 253.341C155.354 251.205 156.577 249.424 158.755 249.233C160.668 249.066 162.028 250.298 162.18 252.029C162.204 252.308 162.185 252.577 162.161 252.776L156.757 253.249C156.947 254.935 158.111 255.86 159.619 255.728C160.527 255.649 161.258 255.163 161.664 254.494L162.603 255.101ZM158.815 250.241C157.657 250.342 156.907 251.098 156.761 252.334L160.978 251.965C160.846 250.936 160.058 250.132 158.815 250.241ZM166.649 248.824L167.934 248.712L170.689 254.31L172.43 248.318L173.714 248.206L171.579 255.484L170.015 255.621L166.649 248.824ZM175.609 246.197C175.148 246.237 174.738 245.893 174.698 245.433C174.659 244.986 175.003 244.576 175.464 244.536C175.925 244.495 176.321 244.84 176.36 245.287C176.4 245.748 176.07 246.157 175.609 246.197ZM175.784 255.116L175.169 248.079L176.356 247.975L176.971 255.012L175.784 255.116ZM179.48 254.793L178.564 244.321L179.75 244.217L180.667 254.689L179.48 254.793ZM183.175 254.469L182.259 243.997L183.446 243.893L184.362 254.366L183.175 254.469ZM193.024 252.44C192.445 253.377 191.446 254.027 190.134 254.142C187.76 254.35 186.141 252.733 185.962 250.68C185.775 248.544 186.998 246.762 189.176 246.572C191.089 246.405 192.449 247.636 192.6 249.368C192.625 249.647 192.606 249.916 192.581 250.115L187.178 250.588C187.368 252.274 188.532 253.199 190.04 253.067C190.947 252.987 191.679 252.501 192.085 251.833L193.024 252.44ZM189.236 247.58C188.077 247.681 187.327 248.436 187.182 249.673L191.399 249.304C191.267 248.274 190.479 247.471 189.236 247.58ZM197.838 249.641C197.659 247.588 198.916 245.72 201.122 245.527C202.17 245.435 203.029 245.768 203.72 246.425L203.346 242.152L204.533 242.049L205.449 252.521L204.262 252.625L204.189 251.787C203.623 252.554 202.834 253.031 201.787 253.122C199.581 253.315 198.018 251.693 197.838 249.641ZM199.095 249.531C199.226 251.025 200.335 252.124 201.829 251.993C202.806 251.908 203.63 251.357 204.075 250.488L203.833 247.724C203.215 246.933 202.323 246.547 201.36 246.632C199.866 246.762 198.964 248.037 199.095 249.531ZM209.881 252.33C208.498 252.451 207.496 251.765 207.391 250.564C207.298 249.503 208.042 248.678 209.514 248.296L211.853 247.697L211.81 247.209C211.725 246.231 210.978 245.734 209.972 245.822C209.163 245.893 208.539 246.327 208.159 246.965L207.206 246.359C207.747 245.468 208.693 244.864 209.922 244.757C211.709 244.601 212.862 245.555 212.997 247.105L213.41 251.824L212.223 251.928L212.145 251.034C211.674 251.765 210.788 252.251 209.881 252.33ZM208.588 250.417C208.64 251.017 209.167 251.407 209.991 251.335C210.926 251.254 211.655 250.74 212.05 249.945L211.929 248.563L209.879 249.094C208.93 249.346 208.535 249.817 208.588 250.417ZM215.791 251.616L215.175 244.579L216.362 244.475L216.432 245.271C216.949 244.592 217.636 244.082 218.683 243.99C220.261 243.852 221.527 244.811 221.702 246.808L222.074 251.066L220.887 251.17L220.519 246.953C220.409 245.697 219.633 245.033 218.544 245.128C217.525 245.217 216.934 245.86 216.552 246.639L216.978 251.512L215.791 251.616ZM223.625 249.96L224.4 249.174C224.943 249.746 225.56 250.044 226.272 249.981C227.054 249.913 227.459 249.399 227.405 248.785C227.267 247.207 223.798 248.073 223.58 245.588C223.484 244.485 224.34 243.495 225.694 243.377C226.699 243.289 227.607 243.688 228.155 244.329L227.392 245.1C226.969 244.602 226.409 244.313 225.795 244.367C225.041 244.433 224.675 244.915 224.723 245.46C224.861 247.038 228.349 246.226 228.559 248.628C228.66 249.941 227.685 250.857 226.373 250.971C225.256 251.069 224.337 250.699 223.625 249.96ZM234.417 249.986L233.501 239.514L234.688 239.41L235.604 249.882L234.417 249.986ZM240.042 249.691C238.66 249.812 237.657 249.126 237.552 247.925C237.459 246.864 238.203 246.039 239.675 245.657L242.015 245.058L241.972 244.57C241.887 243.592 241.14 243.095 240.134 243.183C239.324 243.254 238.701 243.688 238.321 244.326L237.367 243.72C237.908 242.829 238.855 242.226 240.083 242.118C241.87 241.962 243.023 242.916 243.159 244.466L243.572 249.185L242.385 249.289L242.307 248.396C241.836 249.126 240.95 249.612 240.042 249.691ZM238.749 247.778C238.802 248.379 239.328 248.769 240.152 248.697C241.088 248.615 241.817 248.101 242.211 247.306L242.091 245.924L240.041 246.455C239.092 246.707 238.697 247.178 238.749 247.778ZM245.044 245.511C244.865 243.458 246.122 241.59 248.329 241.397C249.376 241.305 250.235 241.638 250.927 242.309L250.852 241.457L252.039 241.353L252.955 251.826L251.769 251.929L251.393 247.643C250.829 248.424 250.04 248.901 248.993 248.992C246.787 249.185 245.224 247.563 245.044 245.511ZM246.287 245.402C246.418 246.896 247.541 247.994 249.021 247.864C250.012 247.778 250.823 247.228 251.28 246.344L251.04 243.608C250.421 242.803 249.529 242.417 248.552 242.503C247.072 242.632 246.156 243.908 246.287 245.402ZM259.807 244.726L259.456 240.705L260.642 240.601L260.991 244.58C261.175 246.689 260.068 248.024 258.155 248.191C256.256 248.357 254.934 247.235 254.749 245.126L254.401 241.147L255.588 241.043L255.94 245.064C256.061 246.447 256.87 247.178 258.071 247.073C259.244 246.97 259.928 246.108 259.807 244.726ZM269.751 245.727C269.172 246.664 268.173 247.314 266.861 247.429C264.487 247.637 262.868 246.02 262.689 243.967C262.502 241.831 263.725 240.05 265.903 239.859C267.816 239.692 269.176 240.923 269.327 242.655C269.352 242.934 269.333 243.203 269.308 243.402L263.905 243.875C264.095 245.561 265.259 246.486 266.767 246.354C267.674 246.275 268.406 245.789 268.811 245.12L269.751 245.727ZM265.963 240.867C264.804 240.968 264.054 241.723 263.909 242.96L268.126 242.591C267.994 241.562 267.206 240.758 265.963 240.867ZM271.71 246.724L270.794 236.252L271.981 236.148L272.897 246.62L271.71 246.724ZM275.405 246.4L274.489 235.928L275.676 235.824L276.592 246.296L275.405 246.4ZM285.255 244.371C284.675 245.308 283.677 245.958 282.364 246.073C279.991 246.28 278.372 244.663 278.192 242.611C278.005 240.475 279.228 238.693 281.407 238.503C283.32 238.335 284.679 239.567 284.831 241.298C284.855 241.578 284.837 241.847 284.812 242.046L279.408 242.519C279.598 244.204 280.762 245.13 282.27 244.998C283.178 244.918 283.909 244.432 284.315 243.764L285.255 244.371ZM281.467 239.511C280.308 239.612 279.558 240.367 279.413 241.604L283.629 241.235C283.497 240.205 282.709 239.402 281.467 239.511ZM49.2553 283.214L50.5399 283.102L53.2949 288.7L55.0359 282.708L56.3205 282.596L54.1855 289.874L52.6217 290.011L49.2553 283.214ZM60.853 281.918C63.115 281.72 64.8176 283.33 64.9971 285.382C65.1767 287.435 63.7795 289.316 61.5176 289.514C59.2417 289.713 57.5531 288.102 57.3735 286.049C57.1939 283.997 58.5771 282.117 60.853 281.918ZM61.4338 288.396C62.8999 288.267 63.8675 286.944 63.7405 285.492C63.6122 284.026 62.4308 282.906 60.9647 283.034C59.4568 283.166 58.4879 284.475 58.6162 285.941C58.7444 287.407 59.9258 288.527 61.4338 288.396ZM71.85 285.289L71.4982 281.268L72.685 281.164L73.0332 285.144C73.2177 287.252 72.1104 288.587 70.1975 288.754C68.2986 288.921 66.9763 287.798 66.7918 285.69L66.4437 281.71L67.6305 281.606L67.9823 285.628C68.1033 287.01 68.9129 287.741 70.1137 287.636C71.2866 287.534 71.971 286.672 71.85 285.289ZM74.7742 287.102L75.5496 286.316C76.0921 286.888 76.709 287.186 77.4211 287.123C78.203 287.055 78.6083 286.541 78.5546 285.927C78.4165 284.349 74.9468 285.215 74.7293 282.73C74.6328 281.627 75.4889 280.638 76.8433 280.519C77.8486 280.431 78.7559 280.83 79.3044 281.472L78.5417 282.242C78.1183 281.744 77.5584 281.455 76.944 281.509C76.19 281.575 75.8242 282.057 75.8718 282.602C76.0099 284.18 79.4985 283.368 79.7086 285.77C79.8095 287.083 78.8343 287.999 77.5218 288.114C76.4048 288.211 75.4861 287.841 74.7742 287.102ZM88.7324 286.007C89.5981 285.931 90.2735 285.45 90.6526 284.798L91.6504 285.428C91.0712 286.365 90.1007 287.013 88.8162 287.125C86.4844 287.329 84.8377 285.715 84.6581 283.662C84.4785 281.61 85.8198 279.734 88.1516 279.53C89.4222 279.419 90.5056 279.901 91.2375 280.709L90.3643 281.503C89.8778 280.926 89.129 280.57 88.2493 280.647C86.7414 280.779 85.7701 282.06 85.9008 283.554C86.0327 285.062 87.2105 286.14 88.7324 286.007ZM93.3795 286.445L92.4633 275.973L93.6501 275.869L94.0203 280.1C94.5378 279.421 95.2247 278.911 96.2719 278.819C97.8497 278.681 99.1154 279.64 99.2901 281.636L99.6627 285.895L98.4759 285.999L98.107 281.782C97.997 280.526 97.2354 279.861 96.1323 279.957C95.0991 280.047 94.5233 280.703 94.14 281.468L94.5663 286.341L93.3795 286.445ZM108.206 283.98C107.626 284.917 106.628 285.567 105.315 285.682C102.942 285.89 101.323 284.273 101.143 282.22C100.957 280.084 102.179 278.302 104.358 278.112C106.271 277.945 107.631 279.176 107.782 280.908C107.806 281.187 107.788 281.456 107.763 281.655L102.359 282.128C102.549 283.814 103.713 284.739 105.221 284.607C106.129 284.527 106.86 284.041 107.266 283.373L108.206 283.98ZM104.418 279.12C103.259 279.221 102.509 279.976 102.364 281.213L106.581 280.844C106.448 279.814 105.66 279.011 104.418 279.12ZM110.165 284.976L109.549 277.939L110.736 277.835L110.813 278.715C111.276 278.055 111.883 277.594 112.776 277.516C113 277.496 113.212 277.506 113.384 277.547L113.485 278.706C113.271 278.669 113.059 278.659 112.78 278.684C111.858 278.764 111.299 279.291 110.929 280.041L111.352 284.872L110.165 284.976ZM118.458 283.407C119.323 283.331 119.999 282.85 120.378 282.197L121.376 282.828C120.797 283.765 119.826 284.412 118.542 284.525C116.21 284.729 114.563 283.114 114.383 281.062C114.204 279.009 115.545 277.133 117.877 276.929C119.148 276.818 120.231 277.3 120.963 278.108L120.09 278.902C119.603 278.326 118.854 277.969 117.975 278.046C116.467 278.178 115.495 279.459 115.626 280.953C115.758 282.461 116.936 283.54 118.458 283.407ZM123.105 283.844L122.189 273.372L123.375 273.268L123.746 277.499C124.263 276.821 124.95 276.31 125.997 276.219C127.575 276.081 128.841 277.039 129.016 279.036L129.388 283.294L128.201 283.398L127.832 279.182C127.722 277.925 126.961 277.26 125.858 277.356C124.824 277.447 124.249 278.102 123.865 278.867L124.292 283.74L123.105 283.844ZM137.931 281.379C137.352 282.316 136.353 282.966 135.041 283.081C132.667 283.289 131.048 281.672 130.869 279.619C130.682 277.483 131.905 275.702 134.083 275.511C135.996 275.344 137.356 276.576 137.507 278.307C137.532 278.586 137.513 278.855 137.488 279.054L132.085 279.527C132.274 281.213 133.439 282.138 134.947 282.006C135.854 281.927 136.586 281.441 136.991 280.772L137.931 281.379ZM134.143 276.519C132.984 276.62 132.234 277.375 132.089 278.612L136.306 278.243C136.174 277.214 135.386 276.41 134.143 276.519ZM139.263 282.431L139.169 281.355L142.888 276.106L138.839 276.46L138.745 275.385L144.247 274.903L144.341 275.979L140.607 281.23L144.866 280.857L144.96 281.932L139.263 282.431ZM155.286 277.99L154.934 273.968L156.121 273.865L156.469 277.844C156.653 279.952 155.546 281.287 153.633 281.455C151.734 281.621 150.412 280.498 150.227 278.39L149.879 274.411L151.066 274.307L151.418 278.328C151.539 279.71 152.349 280.442 153.549 280.336C154.722 280.234 155.407 279.372 155.286 277.99ZM159.075 280.697L158.46 273.66L159.646 273.556L159.716 274.352C160.234 273.674 160.921 273.163 161.968 273.072C163.546 272.934 164.811 273.892 164.986 275.889L165.359 280.147L164.172 280.251L163.803 276.035C163.693 274.778 162.917 274.114 161.828 274.209C160.809 274.299 160.218 274.941 159.836 275.72L160.262 280.593L159.075 280.697ZM174.372 271.142L173.213 271.244L174.462 268.799L175.803 268.682L174.372 271.142ZM177.665 277.903C177.085 278.84 176.087 279.49 174.775 279.605C172.401 279.813 170.782 278.196 170.603 276.143C170.416 274.007 171.639 272.226 173.817 272.035C175.73 271.868 177.09 273.099 177.241 274.831C177.266 275.11 177.247 275.379 177.222 275.578L171.819 276.051C172.008 277.737 173.173 278.662 174.681 278.53C175.588 278.451 176.319 277.964 176.725 277.296L177.665 277.903ZM173.877 273.043C172.718 273.144 171.968 273.899 171.823 275.136L176.04 274.767C175.907 273.737 175.12 272.934 173.877 273.043ZM177.92 271.957L179.204 271.845L181.959 277.443L183.7 271.452L184.985 271.339L182.85 278.617L181.286 278.754L177.92 271.957ZM189.807 269.792L188.648 269.893L189.898 267.448L191.238 267.331L189.807 269.792ZM193.1 276.553C192.521 277.49 191.523 278.14 190.21 278.255C187.836 278.462 186.218 276.845 186.038 274.793C185.851 272.656 187.074 270.875 189.252 270.685C191.165 270.517 192.525 271.749 192.677 273.48C192.701 273.76 192.682 274.028 192.658 274.228L187.254 274.7C187.444 276.386 188.608 277.311 190.116 277.18C191.024 277.1 191.755 276.614 192.161 275.945L193.1 276.553ZM189.312 271.692C188.153 271.794 187.403 272.549 187.258 273.785L191.475 273.417C191.343 272.387 190.555 271.584 189.312 271.692ZM195.059 277.549L194.444 270.512L195.631 270.408L195.7 271.204C196.218 270.525 196.905 270.015 197.952 269.923C199.53 269.785 200.795 270.744 200.97 272.741L201.343 276.999L200.156 277.103L199.787 272.886C199.677 271.63 198.901 270.966 197.812 271.061C196.793 271.15 196.202 271.793 195.82 272.572L196.246 277.445L195.059 277.549ZM209.885 275.084C209.306 276.021 208.308 276.671 206.995 276.786C204.622 276.994 203.003 275.377 202.823 273.324C202.636 271.188 203.859 269.407 206.038 269.216C207.95 269.049 209.31 270.28 209.462 272.012C209.486 272.291 209.468 272.56 209.443 272.759L204.039 273.232C204.229 274.918 205.393 275.843 206.901 275.711C207.809 275.632 208.54 275.146 208.946 274.477L209.885 275.084ZM206.098 270.224C204.939 270.325 204.189 271.08 204.044 272.317L208.26 271.948C208.128 270.918 207.34 270.115 206.098 270.224ZM211.845 276.08L211.229 269.043L212.416 268.939L212.483 269.707C212.96 269.047 213.62 268.553 214.597 268.467C215.617 268.378 216.495 268.765 217.006 269.621C217.497 268.804 218.186 268.153 219.401 268.047C220.909 267.915 222.1 268.824 222.267 270.737L222.652 275.135L221.465 275.239L221.084 270.882C220.981 269.71 220.266 269.097 219.261 269.185C218.367 269.263 217.783 269.821 217.394 270.685C217.422 270.837 217.449 270.989 217.464 271.157L217.849 275.555L216.662 275.659L216.281 271.303C216.178 270.13 215.477 269.516 214.458 269.605C213.494 269.689 212.947 270.342 212.605 271.104L213.031 275.977L211.845 276.08ZM231.198 273.22C230.618 274.157 229.62 274.807 228.308 274.922C225.934 275.129 224.315 273.512 224.136 271.46C223.949 269.323 225.172 267.542 227.35 267.351C229.263 267.184 230.623 268.416 230.774 270.147C230.799 270.426 230.78 270.695 230.755 270.895L225.352 271.367C225.541 273.053 226.706 273.978 228.214 273.846C229.121 273.767 229.852 273.281 230.258 272.612L231.198 273.22ZM227.41 268.359C226.251 268.461 225.501 269.216 225.356 270.452L229.573 270.083C229.44 269.054 228.653 268.25 227.41 268.359ZM233.157 274.216L232.541 267.179L233.728 267.075L233.798 267.871C234.315 267.192 235.002 266.682 236.049 266.59C237.627 266.452 238.893 267.411 239.068 269.408L239.44 273.666L238.253 273.77L237.884 269.553C237.774 268.297 236.999 267.633 235.91 267.728C234.89 267.817 234.299 268.46 233.917 269.239L234.344 274.112L233.157 274.216ZM242.028 271.062L241.712 267.46L240.386 267.576L240.292 266.501L241.618 266.385L241.464 264.625L242.665 264.52L242.819 266.279L245.263 266.066L245.357 267.141L242.913 267.355L243.228 270.957C243.325 272.06 243.91 272.318 244.762 272.244C245.223 272.204 245.539 272.12 245.795 271.985L245.887 273.046C245.564 273.215 245.192 273.304 244.69 273.348C243.126 273.484 242.178 272.779 242.028 271.062Z" fill="#161616"/>
<rect x="51.788" y="308.675" width="268.744" height="47.0551" rx="7.5" transform="rotate(-5 51.788 308.675)" fill="white"/>
<path d="M71.5526 337.598L70.5754 326.428L72.8413 326.23L73.6385 335.341L77.8832 334.97L78.0633 337.029L71.5526 337.598ZM83.3193 338.418C82.8767 339.791 82.0397 340.701 80.5078 340.835C79.8855 340.889 79.4462 340.831 79.0493 340.705L78.8929 338.918C79.158 339.007 79.548 339.053 79.8991 339.023C80.6969 338.953 81.1679 338.638 81.4318 337.795L81.7851 336.687L77.6998 328.956L79.9498 328.759L82.6252 333.976L84.37 328.373L86.5083 328.186L83.3193 338.418ZM91.3618 327.439C93.9788 327.21 95.9349 328.985 96.1458 331.394C96.3566 333.804 94.7383 335.891 92.1212 336.12C89.5042 336.349 87.5481 334.575 87.3373 332.165C87.1264 329.756 88.7448 327.668 91.3618 327.439ZM91.9856 334.203C93.2782 334.089 94.1608 332.967 94.0394 331.579C93.9165 330.174 92.8538 329.238 91.5612 329.351C90.2208 329.469 89.3208 330.577 89.4436 331.981C89.5665 333.385 90.6452 334.32 91.9856 334.203ZM98.346 335.254L97.6424 327.211L99.669 327.034L99.7248 327.672C100.236 327.081 100.95 326.601 102.019 326.507C103.758 326.355 105.251 327.43 105.459 329.808L105.878 334.595L103.835 334.774L103.424 330.066C103.33 328.997 102.665 328.38 101.676 328.467C100.654 328.556 100.172 329.29 99.9133 329.827L100.373 335.077L98.346 335.254ZM115.049 322.215C117.986 321.958 119.581 324.392 119.875 327.743C120.168 331.094 119.019 333.767 116.083 334.024C113.146 334.281 111.551 331.848 111.258 328.497C110.964 325.146 112.113 322.472 115.049 322.215ZM115.224 324.21C113.804 324.334 113.254 325.958 113.46 328.304C113.666 330.666 114.488 332.153 115.908 332.029C117.312 331.906 117.862 330.282 117.656 327.937C117.45 325.575 116.628 324.087 115.224 324.21ZM124.078 332.987L123.294 324.035L121.095 325.546L119.892 324.107L123.164 321.811L125.255 321.628L126.232 332.798L124.078 332.987ZM134.775 327.629C135.004 330.246 136.061 332.212 137.952 333.799L136.621 335.121C134.468 333.493 133.045 331.012 132.765 327.805C132.481 324.565 133.564 321.866 135.294 319.962L136.835 321.033C135.305 322.839 134.548 325.028 134.775 327.629ZM142.49 319.815C144.357 319.651 145.596 320.395 146.415 321.304L144.875 322.822C144.234 322.106 143.538 321.685 142.66 321.761C141.048 321.902 140.289 323.143 140.336 325.341C141 324.656 141.879 324.226 142.98 324.129C145.198 323.935 146.74 325.392 146.919 327.435C147.103 329.541 145.741 331.429 143.188 331.652C140.283 331.907 138.486 329.925 138.159 326.191C137.855 322.712 139.075 320.113 142.49 319.815ZM142.748 326.079C141.839 326.159 141.088 326.578 140.579 327.378C140.993 329.175 141.837 329.809 142.97 329.71C144.15 329.607 144.8 328.762 144.708 327.709C144.617 326.671 143.818 325.986 142.748 326.079ZM151.956 330.885C150.105 331.047 148.85 330.305 148.047 329.394L149.587 327.877C150.228 328.592 150.924 329.014 151.818 328.936C153.43 328.795 154.173 327.556 154.124 325.341C153.462 326.042 152.583 326.473 151.482 326.569C149.264 326.763 147.722 325.306 147.543 323.264C147.359 321.157 148.721 319.269 151.274 319.046C154.178 318.792 155.976 320.773 156.302 324.507C156.607 327.986 155.387 330.585 151.956 330.885ZM149.754 322.99C149.845 324.027 150.644 324.713 151.714 324.619C152.623 324.54 153.405 324.102 153.883 323.32C153.469 321.523 152.625 320.89 151.476 320.99C150.327 321.091 149.662 321.937 149.754 322.99ZM161.27 318.172C164.206 317.915 165.802 320.348 166.095 323.699C166.388 327.05 165.239 329.723 162.303 329.98C159.367 330.237 157.771 327.804 157.478 324.453C157.185 321.102 158.334 318.428 161.27 318.172ZM161.444 320.166C160.024 320.291 159.475 321.914 159.68 324.26C159.887 326.622 160.708 328.11 162.128 327.985C163.533 327.863 164.082 326.239 163.877 323.893C163.67 321.531 162.849 320.043 161.444 320.166ZM170.978 317.322C173.915 317.065 175.51 319.498 175.803 322.85C176.097 326.201 174.948 328.874 172.011 329.131C169.075 329.388 167.48 326.954 167.186 323.603C166.893 320.252 168.042 317.579 170.978 317.322ZM171.153 319.317C169.733 319.441 169.183 321.065 169.389 323.411C169.595 325.772 170.417 327.26 171.837 327.136C173.241 327.013 173.791 325.389 173.585 323.044C173.379 320.682 172.557 319.194 171.153 319.317ZM180.007 328.094L179.223 319.141L177.024 320.652L175.821 319.214L179.093 316.918L181.184 316.735L182.161 327.905L180.007 328.094ZM186.55 323.131C186.321 320.514 185.263 318.533 183.357 316.963L184.688 315.64C186.823 317.254 188.262 319.733 188.544 322.957C188.828 326.196 187.76 328.878 186.015 330.8L184.474 329.729C186.036 327.92 186.777 325.732 186.55 323.131Z" fill="#161616"/>
<rect x="51.788" y="308.675" width="268.744" height="47.0551" rx="7.5" transform="rotate(-5 51.788 308.675)" stroke="#3B69D1"/>
<path d="M63.1391 389.033L64.372 387.687C65.187 388.548 66.1267 388.997 67.1001 388.912C68.2012 388.815 68.785 388.137 68.7027 387.196C68.5002 384.882 63.347 385.895 63.0203 382.161C62.8709 380.454 64.1683 378.925 66.1949 378.748C67.8066 378.607 69.0676 379.236 70.0589 380.275L68.8087 381.607C68.0748 380.754 67.2628 380.295 66.3532 380.374C65.3798 380.459 64.8091 381.104 64.8831 381.95C65.0842 384.248 70.236 383.218 70.5655 386.984C70.7081 388.982 69.2705 390.378 67.2759 390.552C65.5205 390.706 64.2332 390.143 63.1391 389.033ZM80.2821 387.774C79.6201 388.845 78.4458 389.575 76.9458 389.706C74.1692 389.949 72.3511 388.098 72.1459 385.753C71.935 383.343 73.298 381.278 75.8512 381.055C78.0693 380.861 79.6381 382.251 79.8168 384.294C79.8489 384.661 79.8331 385.032 79.7903 385.277L73.8541 385.796C74.1194 387.542 75.2681 388.358 76.816 388.222C77.7894 388.137 78.5655 387.635 79.0015 386.922L80.2821 387.774ZM75.9394 382.43C74.7426 382.535 73.9728 383.293 73.8264 384.56L78.1508 384.182C78.031 383.18 77.2319 382.317 75.9394 382.43ZM86.0042 387.354C86.9138 387.275 87.6087 386.764 88.0011 386.102L89.3802 386.978C88.7327 388.032 87.6077 388.774 86.1237 388.903C83.4269 389.139 81.5609 387.293 81.3557 384.947C81.1504 382.601 82.6674 380.458 85.3642 380.223C86.8323 380.094 88.0849 380.628 88.9055 381.553L87.6996 382.655C87.1983 382.072 86.4252 381.689 85.4996 381.77C83.9518 381.906 82.9408 383.216 83.0791 384.796C83.2187 386.392 84.4404 387.491 86.0042 387.354ZM91.4627 385.301L91.1332 381.535L89.6173 381.667L89.4875 380.183L91.0034 380.051L90.8275 378.04L92.4871 377.895L92.663 379.906L95.3279 379.672L95.4577 381.156L92.7928 381.39L93.1223 385.156C93.2172 386.241 93.8224 386.541 94.716 386.463C95.2586 386.416 95.62 386.32 95.8975 386.183L96.0245 387.635C95.6555 387.828 95.2157 387.947 94.5933 388.002C92.7104 388.166 91.6344 387.264 91.4627 385.301ZM104.982 385.613C104.32 386.684 103.146 387.414 101.646 387.545C98.8689 387.788 97.0508 385.937 96.8456 383.592C96.6348 381.182 97.9978 379.117 100.551 378.894C102.769 378.7 104.338 380.09 104.517 382.133C104.549 382.5 104.533 382.871 104.49 383.116L98.5538 383.635C98.8191 385.381 99.9678 386.197 101.516 386.061C102.489 385.976 103.265 385.474 103.701 384.761L104.982 385.613ZM100.639 380.269C99.4423 380.374 98.6725 381.132 98.5261 382.399L102.851 382.021C102.731 381.019 101.932 380.156 100.639 380.269ZM112.139 382.833L111.737 378.237L113.397 378.092L113.792 382.608C114.002 385.017 112.74 386.575 110.49 386.772C108.224 386.97 106.71 385.655 106.499 383.246L106.104 378.73L107.764 378.584L108.166 383.18C108.287 384.568 109.094 385.334 110.354 385.224C111.583 385.116 112.26 384.221 112.139 382.833ZM116.598 385.916L115.894 377.873L117.538 377.729L117.618 378.639C118.122 377.968 118.785 377.459 119.774 377.373C120.029 377.351 120.273 377.377 120.486 377.423L120.627 379.035C120.366 378.993 120.107 378.968 119.772 378.997C118.75 379.086 118.128 379.688 117.773 380.41L118.242 385.772L116.598 385.916ZM126.314 381.014C126.109 378.668 127.514 376.535 130.051 376.313C131.2 376.212 132.098 376.552 132.831 377.211L132.416 372.472L134.092 372.325L135.139 384.293L133.464 384.44L133.392 383.626C132.785 384.403 131.96 384.893 130.811 384.994C128.273 385.216 126.519 383.359 126.314 381.014ZM128.053 380.861C128.191 382.441 129.335 383.563 130.883 383.428C131.92 383.337 132.77 382.764 133.239 381.871L132.985 378.967C132.317 378.141 131.399 377.755 130.394 377.843C128.846 377.978 127.915 379.282 128.053 380.861ZM137.997 377.242L136.481 377.374L137.482 372.833L139.349 372.669L137.997 377.242ZM143.786 383.778C142.19 383.918 141.026 383.103 140.902 381.683C140.795 380.47 141.66 379.51 143.342 379.074L145.906 378.415L145.87 378C145.783 377.011 144.996 376.469 143.959 376.559C143.081 376.636 142.43 377.095 142.024 377.79L140.713 376.956C141.347 375.936 142.443 375.229 143.879 375.103C146.05 374.913 147.358 376.085 147.513 377.856L147.978 383.17L146.334 383.314L146.255 382.404C145.742 383.157 144.776 383.692 143.786 383.778ZM142.556 381.474C142.61 382.096 143.142 382.484 143.972 382.411C144.977 382.323 145.717 381.776 146.129 380.968L146.008 379.58L143.87 380.137C142.88 380.4 142.502 380.868 142.556 381.474ZM154.213 381.387C155.122 381.307 155.817 380.796 156.21 380.135L157.589 381.011C156.941 382.064 155.816 382.806 154.332 382.936C151.636 383.172 149.77 381.325 149.564 378.979C149.359 376.634 150.876 374.491 153.573 374.255C155.041 374.127 156.294 374.66 157.114 375.585L155.908 376.688C155.407 376.105 154.634 375.722 153.708 375.803C152.16 375.938 151.149 377.249 151.288 378.829C151.427 380.424 152.649 381.523 154.213 381.387ZM159.671 379.333L159.342 375.567L157.826 375.7L157.696 374.216L159.212 374.083L159.036 372.073L160.696 371.927L160.872 373.938L163.537 373.705L163.666 375.189L161.001 375.422L161.331 379.188C161.426 380.273 162.031 380.574 162.925 380.496C163.467 380.448 163.829 380.352 164.106 380.216L164.233 381.668C163.864 381.861 163.424 381.98 162.802 382.034C160.919 382.199 159.843 381.296 159.671 379.333ZM166.17 371.674C165.564 371.727 165.008 371.261 164.955 370.654C164.902 370.048 165.368 369.493 165.974 369.44C166.581 369.387 167.136 369.853 167.189 370.459C167.242 371.065 166.776 371.621 166.17 371.674ZM166.2 381.576L165.497 373.533L167.14 373.39L167.844 381.432L166.2 381.576ZM168.648 373.258L170.419 373.103L173.328 379.151L175.127 372.691L176.914 372.535L174.57 380.844L172.383 381.035L168.648 373.258ZM179.073 370.545C178.467 370.598 177.911 370.132 177.858 369.525C177.805 368.919 178.271 368.364 178.878 368.311C179.484 368.258 180.039 368.724 180.092 369.33C180.145 369.936 179.679 370.492 179.073 370.545ZM179.103 380.447L178.4 372.405L180.043 372.261L180.747 380.303L179.103 380.447ZM183.67 377.234L183.34 373.468L181.824 373.6L181.695 372.116L183.211 371.984L183.035 369.973L184.694 369.828L184.87 371.838L187.535 371.605L187.665 373.089L185 373.323L185.329 377.088C185.424 378.174 186.03 378.474 186.923 378.396C187.466 378.349 187.827 378.253 188.105 378.116L188.232 379.568C187.863 379.761 187.423 379.88 186.8 379.935C184.917 380.099 183.842 379.196 183.67 377.234ZM193.568 369.791L191.972 369.931L193.4 367.137L195.219 366.977L193.568 369.791ZM197.189 377.546C196.527 378.617 195.353 379.347 193.853 379.478C191.076 379.721 189.258 377.87 189.053 375.525C188.842 373.115 190.205 371.05 192.758 370.827C194.976 370.633 196.545 372.023 196.724 374.066C196.756 374.433 196.74 374.804 196.697 375.049L190.761 375.568C191.026 377.314 192.175 378.13 193.723 377.994C194.696 377.909 195.472 377.407 195.908 376.694L197.189 377.546ZM192.846 372.202C191.649 372.307 190.88 373.065 190.733 374.332L195.058 373.954C194.938 372.952 194.139 372.089 192.846 372.202Z" fill="#161616"/>
<rect x="60.5128" y="408.409" width="268.744" height="55.0643" rx="7.5" transform="rotate(-5 60.5128 408.409)" fill="white"/>
<rect x="76.976" y="418.526" width="245.281" height="32.0368" rx="8" transform="rotate(-5 76.976 418.526)" fill="#EEF1F8"/>
<path d="M87.1817 439.743L90.1384 429.636L92.2608 429.45L96.9277 438.89L95.2103 439.041L93.9376 436.394L89.679 436.767L88.8852 439.594L87.1817 439.743ZM90.0898 435.352L93.2873 435.072L91.3266 430.995L90.0898 435.352ZM98.7376 438.732L98.1219 431.695L99.5601 431.569L99.6297 432.365C100.071 431.777 100.651 431.333 101.517 431.257C101.74 431.237 101.953 431.261 102.14 431.301L102.263 432.711C102.035 432.675 101.808 432.653 101.514 432.678C100.621 432.756 100.076 433.282 99.7653 433.915L100.176 438.606L98.7376 438.732ZM104.929 435.728L104.64 432.433L103.314 432.549L103.2 431.25L104.527 431.134L104.373 429.375L105.825 429.248L105.979 431.007L108.311 430.803L108.424 432.102L106.093 432.306L106.381 435.601C106.464 436.551 106.993 436.814 107.775 436.745C108.25 436.704 108.566 436.62 108.809 436.5L108.92 437.771C108.597 437.94 108.213 438.044 107.668 438.091C106.02 438.235 105.079 437.445 104.929 435.728ZM120.658 435.66C120.078 436.598 119.051 437.236 117.738 437.351C115.309 437.564 113.718 435.944 113.538 433.891C113.354 431.783 114.547 429.976 116.781 429.781C118.721 429.611 120.094 430.828 120.251 432.615C120.279 432.936 120.265 433.261 120.227 433.475L115.033 433.93C115.265 435.457 116.27 436.171 117.625 436.052C118.477 435.978 119.156 435.539 119.537 434.914L120.658 435.66ZM116.858 430.984C115.811 431.076 115.137 431.74 115.009 432.848L118.793 432.517C118.688 431.64 117.989 430.885 116.858 430.984ZM122.682 434.175L122.394 430.88L121.067 430.996L120.954 429.697L122.28 429.581L122.126 427.822L123.578 427.695L123.732 429.454L126.064 429.25L126.178 430.549L123.846 430.753L124.134 434.048C124.217 434.997 124.747 435.26 125.529 435.192C126.003 435.151 126.32 435.067 126.563 434.947L126.674 436.217C126.351 436.386 125.966 436.49 125.421 436.538C123.774 436.682 122.832 435.892 122.682 434.175ZM132.493 435.779L131.638 426.005L137.084 425.528L137.202 426.883L133.348 427.22L133.59 429.984L136.886 429.696L137.004 431.051L133.709 431.339L134.085 435.639L132.493 435.779ZM141.208 435.227C139.812 435.349 138.792 434.637 138.684 433.394C138.591 432.333 139.347 431.493 140.82 431.111L143.062 430.535L143.031 430.172C142.955 429.306 142.266 428.832 141.359 428.911C140.591 428.978 140.021 429.38 139.666 429.988L138.519 429.258C139.074 428.365 140.033 427.747 141.289 427.637C143.188 427.47 144.333 428.496 144.469 430.046L144.876 434.695L143.437 434.821L143.368 434.025C142.919 434.684 142.074 435.152 141.208 435.227ZM140.131 433.211C140.179 433.756 140.644 434.095 141.37 434.031C142.25 433.954 142.898 433.476 143.258 432.769L143.152 431.554L141.281 432.041C140.415 432.272 140.085 432.68 140.131 433.211ZM150.331 433.135C151.127 433.065 151.735 432.618 152.078 432.039L153.285 432.806C152.818 433.578 152.052 434.152 151.06 434.393L150.006 436.498L148.554 436.625L149.634 434.49C147.704 434.307 146.422 432.844 146.264 431.028C146.084 428.976 147.411 427.101 149.771 426.895C151.056 426.782 152.152 427.249 152.87 428.059L151.815 429.023C151.376 428.513 150.699 428.178 149.89 428.249C148.535 428.367 147.651 429.514 147.772 430.896C147.894 432.293 148.963 433.254 150.331 433.135ZM157.243 426.241C159.533 426.041 161.219 427.624 161.401 429.704C161.583 431.784 160.197 433.636 157.908 433.837C155.632 434.036 153.932 432.454 153.75 430.373C153.568 428.293 154.967 426.44 157.243 426.241ZM157.803 432.481C159.13 432.365 160.01 431.176 159.893 429.836C159.773 428.468 158.702 427.478 157.376 427.594C156.021 427.713 155.139 428.887 155.257 430.242C155.376 431.596 156.449 432.599 157.803 432.481ZM163.506 433.065L162.891 426.028L164.329 425.902L164.389 426.587C164.87 425.982 165.533 425.516 166.538 425.428C168.088 425.292 169.367 426.235 169.545 428.274L169.915 432.505L168.463 432.632L168.098 428.457C168 427.34 167.327 426.723 166.322 426.811C165.358 426.896 164.838 427.546 164.529 428.192L164.944 432.94L163.506 433.065ZM172.151 432.309L171.535 425.272L172.974 425.146L173.033 425.83C173.515 425.225 174.178 424.759 175.183 424.671C176.733 424.536 178.012 425.479 178.19 427.518L178.56 431.748L177.108 431.875L176.743 427.701C176.645 426.584 175.972 425.967 174.967 426.055C174.003 426.139 173.483 426.79 173.174 427.436L173.589 432.183L172.151 432.309ZM182.755 431.592C181.359 431.715 180.34 431.002 180.231 429.759C180.138 428.698 180.895 427.858 182.367 427.476L184.61 426.9L184.578 426.537C184.502 425.671 183.814 425.197 182.906 425.276C182.138 425.343 181.568 425.745 181.213 426.353L180.066 425.623C180.621 424.73 181.58 424.112 182.837 424.002C184.736 423.836 185.881 424.861 186.016 426.411L186.423 431.06L184.985 431.186L184.915 430.39C184.466 431.049 183.621 431.517 182.755 431.592ZM181.678 429.576C181.726 430.121 182.192 430.46 182.918 430.396C183.797 430.319 184.445 429.841 184.805 429.134L184.699 427.919L182.828 428.406C181.962 428.637 181.632 429.046 181.678 429.576ZM188.033 432.186C187.971 431.474 188.271 430.885 188.885 430.339C188.554 430.1 188.368 429.737 188.336 429.374C188.287 428.815 188.513 428.345 189.025 427.92C188.37 427.513 187.959 426.832 187.89 426.05C187.772 424.696 188.721 423.487 190.439 423.337C190.969 423.29 191.439 423.348 191.846 423.495L194.443 423.268L194.55 424.496L193.168 424.617C193.319 424.9 193.418 425.229 193.448 425.564C193.567 426.932 192.619 428.155 190.874 428.307C190.567 428.334 190.284 428.317 190.013 428.284C189.806 428.485 189.699 428.706 189.717 428.915C189.743 429.208 189.911 429.362 190.288 429.329L192.201 429.162C194.016 429.003 195.005 429.859 195.116 431.13C195.25 432.652 193.87 433.926 191.733 434.113C189.569 434.303 188.159 433.624 188.033 432.186ZM190.791 427.203C191.699 427.124 192.177 426.477 192.107 425.681C192.039 424.899 191.457 424.359 190.549 424.438C189.642 424.518 189.162 425.151 189.231 425.933C189.3 426.729 189.884 427.282 190.791 427.203ZM189.385 431.871C189.453 432.653 190.276 433.059 191.603 432.943C192.999 432.821 193.761 432.205 193.689 431.381C193.637 430.781 193.246 430.337 192.171 430.431L189.937 430.626C189.573 430.968 189.341 431.368 189.385 431.871ZM202.375 428.511C201.796 429.448 200.768 430.087 199.456 430.202C197.026 430.414 195.436 428.795 195.256 426.742C195.072 424.634 196.264 422.827 198.498 422.632C200.439 422.462 201.812 423.678 201.968 425.465C201.996 425.787 201.982 426.111 201.945 426.326L196.751 426.78C196.983 428.308 197.988 429.022 199.342 428.903C200.194 428.829 200.873 428.389 201.255 427.765L202.375 428.511ZM198.575 423.835C197.528 423.926 196.855 424.59 196.726 425.699L200.51 425.368C200.405 424.491 199.706 423.736 198.575 423.835ZM207.119 425.704C206.939 423.652 208.169 421.785 210.389 421.591C211.394 421.503 212.18 421.8 212.821 422.377L212.459 418.23L213.925 418.102L214.841 428.574L213.375 428.702L213.313 427.99C212.781 428.67 212.059 429.099 211.054 429.187C208.833 429.381 207.298 427.757 207.119 425.704ZM208.641 425.571C208.762 426.953 209.762 427.935 211.117 427.817C212.024 427.737 212.768 427.236 213.178 426.454L212.956 423.913C212.372 423.19 211.569 422.853 210.689 422.93C209.335 423.048 208.52 424.189 208.641 425.571ZM217.341 422.404L216.015 422.52L216.891 418.546L218.525 418.403L217.341 422.404ZM222.843 420.502C225.133 420.301 226.819 421.884 227.001 423.965C227.183 426.045 225.798 427.897 223.508 428.097C221.232 428.296 219.532 426.715 219.35 424.634C219.168 422.554 220.567 420.701 222.843 420.502ZM223.403 426.742C224.73 426.626 225.611 425.437 225.493 424.097C225.374 422.728 224.302 421.739 222.976 421.855C221.621 421.973 220.739 423.148 220.858 424.502C220.976 425.857 222.049 426.86 223.403 426.742ZM233.618 423.892L233.266 419.871L234.718 419.744L235.064 423.696C235.248 425.804 234.144 427.167 232.175 427.339C230.192 427.513 228.867 426.362 228.683 424.254L228.337 420.302L229.789 420.175L230.141 424.197C230.248 425.411 230.953 426.081 232.056 425.985C233.132 425.891 233.724 425.107 233.618 423.892ZM235.953 419.636L237.502 419.5L240.048 424.793L241.621 419.14L243.185 419.003L241.134 426.274L239.221 426.441L235.953 419.636ZM245.101 425.927L244.485 418.89L245.923 418.764L245.993 419.56C246.434 418.972 247.014 418.528 247.88 418.452C248.103 418.432 248.317 418.456 248.503 418.496L248.626 419.906C248.398 419.87 248.171 419.847 247.878 419.873C246.984 419.951 246.439 420.477 246.129 421.109L246.539 425.801L245.101 425.927ZM252.337 425.505C250.941 425.627 249.922 424.914 249.813 423.671C249.72 422.61 250.477 421.77 251.949 421.388L254.192 420.812L254.16 420.449C254.084 419.583 253.396 419.109 252.488 419.188C251.72 419.256 251.15 419.657 250.795 420.265L249.648 419.535C250.203 418.643 251.162 418.024 252.419 417.914C254.318 417.748 255.463 418.773 255.598 420.323L256.005 424.973L254.567 425.099L254.497 424.303C254.048 424.961 253.203 425.429 252.337 425.505ZM251.26 423.489C251.308 424.033 251.774 424.372 252.5 424.309C253.379 424.232 254.027 423.753 254.387 423.046L254.281 421.831L252.41 422.319C251.544 422.549 251.214 422.958 251.26 423.489ZM257.615 426.098C257.553 425.386 257.853 424.797 258.467 424.251C258.136 424.013 257.95 423.649 257.918 423.286C257.869 422.727 258.095 422.257 258.607 421.833C257.952 421.426 257.541 420.744 257.472 419.962C257.354 418.608 258.303 417.399 260.021 417.249C260.551 417.203 261.021 417.26 261.427 417.407L264.025 417.18L264.132 418.409L262.75 418.53C262.901 418.812 263 419.141 263.03 419.476C263.149 420.844 262.201 422.067 260.456 422.22C260.148 422.247 259.866 422.229 259.595 422.197C259.388 422.398 259.28 422.618 259.299 422.827C259.324 423.121 259.493 423.275 259.87 423.242L261.783 423.074C263.598 422.916 264.587 423.772 264.698 425.042C264.831 426.564 263.452 427.839 261.315 428.026C259.151 428.215 257.741 427.536 257.615 426.098ZM260.373 421.115C261.281 421.036 261.759 420.389 261.689 419.593C261.621 418.811 261.039 418.271 260.131 418.351C259.224 418.43 258.744 419.063 258.813 419.845C258.882 420.641 259.465 421.195 260.373 421.115ZM258.966 425.783C259.035 426.565 259.858 426.971 261.185 426.855C262.581 426.733 263.343 426.118 263.271 425.294C263.219 424.693 262.828 424.249 261.753 424.343L259.519 424.539C259.155 424.88 258.922 425.28 258.966 425.783ZM271.957 422.423C271.378 423.361 270.35 423.999 269.038 424.114C266.608 424.327 265.017 422.707 264.838 420.654C264.653 418.546 265.846 416.739 268.08 416.544C270.021 416.374 271.394 417.591 271.55 419.378C271.578 419.699 271.564 420.024 271.527 420.238L266.333 420.693C266.565 422.22 267.57 422.934 268.924 422.815C269.776 422.741 270.455 422.302 270.837 421.677L271.957 422.423ZM268.157 417.747C267.11 417.839 266.436 418.503 266.308 419.611L270.092 419.28C269.987 418.403 269.288 417.648 268.157 417.747ZM272.937 422.492L273.853 421.54C274.365 422.086 274.956 422.414 275.654 422.353C276.339 422.293 276.679 421.842 276.632 421.311C276.508 419.887 273.104 420.705 272.887 418.22C272.785 417.061 273.682 416.054 275.092 415.93C276.126 415.84 277.077 416.263 277.639 416.889L276.736 417.827C276.315 417.357 275.795 417.051 275.209 417.102C274.539 417.161 274.238 417.581 274.279 418.056C274.403 419.466 277.81 418.689 278.021 421.105C278.128 422.489 277.083 423.41 275.771 423.525C274.584 423.629 273.663 423.231 272.937 422.492ZM282.891 419.075C282.712 417.022 283.941 415.156 286.161 414.962C287.167 414.874 287.952 415.171 288.594 415.748L288.231 411.601L289.697 411.473L290.613 421.945L289.147 422.073L289.085 421.361C288.553 422.041 287.831 422.47 286.826 422.558C284.606 422.752 283.071 421.128 282.891 419.075ZM284.413 418.942C284.534 420.324 285.535 421.306 286.889 421.187C287.797 421.108 288.541 420.607 288.951 419.825L288.728 417.284C288.144 416.561 287.341 416.224 286.461 416.3C285.107 416.419 284.292 417.56 284.413 418.942ZM293.114 415.775L291.787 415.891L292.664 411.917L294.297 411.774L293.114 415.775ZM298.18 421.494C296.783 421.616 295.764 420.903 295.656 419.661C295.563 418.6 296.319 417.76 297.791 417.377L300.034 416.801L300.003 416.438C299.927 415.573 299.238 415.098 298.33 415.178C297.563 415.245 296.993 415.646 296.638 416.254L295.491 415.525C296.046 414.632 297.005 414.013 298.261 413.903C300.16 413.737 301.305 414.763 301.441 416.313L301.847 420.962L300.409 421.088L300.34 420.292C299.891 420.95 299.045 421.418 298.18 421.494ZM297.103 419.478C297.15 420.022 297.616 420.361 298.342 420.298C299.222 420.221 299.869 419.742 300.23 419.035L300.123 417.821L298.253 418.308C297.386 418.538 297.056 418.947 297.103 419.478ZM304.102 420.765L303.486 413.728L304.924 413.602L304.994 414.398C305.435 413.81 306.015 413.366 306.881 413.29C307.104 413.27 307.317 413.294 307.504 413.334L307.627 414.744C307.399 414.708 307.172 414.686 306.879 414.711C305.985 414.789 305.44 415.315 305.129 415.948L305.54 420.639L304.102 420.765ZM310.293 417.761L310.005 414.466L308.678 414.582L308.565 413.283L309.891 413.167L309.737 411.408L311.189 411.281L311.343 413.04L313.675 412.836L313.788 414.135L311.457 414.339L311.745 417.634C311.828 418.583 312.358 418.847 313.14 418.778C313.614 418.737 313.93 418.653 314.173 418.533L314.284 419.804C313.962 419.973 313.577 420.077 313.032 420.124C311.385 420.268 310.443 419.478 310.293 417.761Z" fill="#3B69D1"/>
<rect x="60.5128" y="408.409" width="268.744" height="55.0643" rx="7.5" transform="rotate(-5 60.5128 408.409)" stroke="#3B69D1"/>
<rect x="66.7954" y="480.217" width="268.744" height="47.0551" rx="23.5" transform="rotate(-5 66.7954 480.217)" fill="#3B69D1"/>
<path d="M160.891 502.637L159.914 491.467L163.329 491.168C165.786 490.953 167.413 492.081 167.594 494.156C167.713 495.512 167.146 496.575 166.044 497.202L169.971 501.843L167.306 502.076L163.927 497.821L162.762 497.923L163.157 502.439L160.891 502.637ZM163.621 493.04L162.345 493.152L162.597 496.04L163.874 495.928C164.831 495.845 165.341 495.237 165.261 494.328C165.187 493.482 164.579 492.956 163.621 493.04ZM178.394 499.787C177.732 500.858 176.541 501.59 175.025 501.722C172.169 501.972 170.383 500.119 170.178 497.773C169.97 495.395 171.298 493.301 173.931 493.071C176.165 492.875 177.766 494.263 177.95 496.369C177.989 496.816 177.961 497.236 177.921 497.513L172.288 498.006C172.611 499.489 173.59 500.015 174.85 499.905C175.728 499.828 176.46 499.378 176.841 498.766L178.394 499.787ZM174.028 494.735C172.991 494.825 172.355 495.46 172.224 496.532L175.926 496.209C175.823 495.398 175.161 494.635 174.028 494.735ZM184.005 499.007C184.802 498.937 185.409 498.514 185.743 497.922L187.429 498.997C186.765 500.052 185.64 500.794 184.172 500.922C181.396 501.165 179.561 499.315 179.356 496.97C179.151 494.624 180.636 492.484 183.413 492.241C184.881 492.113 186.117 492.648 186.954 493.571L185.48 494.922C185.048 494.397 184.378 494.086 183.548 494.159C182.224 494.275 181.34 495.381 181.463 496.785C181.587 498.206 182.648 499.126 184.005 499.007ZM189.056 500.173L188.009 488.205L190.035 488.028L190.435 492.592C190.946 492 191.66 491.52 192.729 491.426C194.468 491.274 195.961 492.349 196.169 494.727L196.588 499.514L194.545 499.693L194.133 494.985C194.04 493.916 193.391 493.298 192.386 493.386C191.364 493.475 190.882 494.209 190.623 494.746L191.083 499.996L189.056 500.173ZM206.179 497.357C205.517 498.428 204.327 499.159 202.811 499.291C199.954 499.541 198.168 497.688 197.963 495.342C197.755 492.964 199.083 490.87 201.716 490.64C203.95 490.444 205.551 491.832 205.735 493.938C205.774 494.385 205.747 494.806 205.707 495.082L200.074 495.575C200.396 497.059 201.375 497.584 202.636 497.474C203.513 497.397 204.246 496.947 204.626 496.335L206.179 497.357ZM201.813 492.304C200.776 492.394 200.14 493.029 200.009 494.102L203.711 493.778C203.608 492.967 202.946 492.205 201.813 492.304ZM208.13 498.504L207.426 490.462L209.453 490.285L209.523 491.082C210.002 490.494 210.652 490.019 211.561 489.939C211.833 489.916 212.076 489.943 212.273 489.99L212.448 491.984C212.187 491.943 211.911 491.919 211.544 491.951C210.555 492.037 209.964 492.636 209.706 493.173L210.157 498.327L208.13 498.504ZM217.992 496.034C218.79 495.964 219.396 495.541 219.73 494.949L221.416 496.024C220.753 497.078 219.628 497.82 218.16 497.949C215.383 498.191 213.549 496.342 213.344 493.996C213.138 491.65 214.623 489.511 217.4 489.268C218.868 489.139 220.105 489.674 220.941 490.598L219.468 491.949C219.036 491.424 218.365 491.113 217.536 491.185C216.211 491.301 215.327 492.408 215.45 493.812C215.574 495.232 216.636 496.152 217.992 496.034ZM223.043 497.2L221.996 485.232L224.023 485.054L224.422 489.618C224.933 489.027 225.647 488.546 226.716 488.453C228.455 488.3 229.948 489.376 230.156 491.753L230.575 496.541L228.533 496.719L228.121 492.012C228.027 490.943 227.378 490.324 226.373 490.412C225.352 490.502 224.869 491.235 224.611 491.772L225.07 497.022L223.043 497.2ZM240.166 494.383C239.504 495.454 238.314 496.185 236.798 496.318C233.942 496.568 232.155 494.714 231.95 492.368C231.742 489.991 233.071 487.897 235.703 487.666C237.938 487.471 239.538 488.858 239.723 490.965C239.762 491.412 239.734 491.832 239.694 492.109L234.061 492.602C234.384 494.085 235.362 494.61 236.623 494.5C237.501 494.423 238.233 493.973 238.614 493.361L240.166 494.383ZM235.801 489.33C234.764 489.421 234.128 490.055 233.996 491.128L237.699 490.804C237.595 489.993 236.934 489.231 235.801 489.33ZM242.118 495.531L241.414 487.488L243.44 487.311L243.51 488.109C243.989 487.52 244.639 487.045 245.549 486.966C245.82 486.942 246.064 486.969 246.261 487.016L246.435 489.011C246.174 488.969 245.899 488.945 245.532 488.977C244.543 489.064 243.952 489.662 243.693 490.199L244.144 495.354L242.118 495.531Z" fill="#EEF1F8"/>
<rect x="66.7954" y="480.217" width="268.744" height="47.0551" rx="23.5" transform="rotate(-5 66.7954 480.217)" stroke="#3B69D1"/>
</g>
<g clip-path="url(#clip0_5794_13997)">
<path d="M364.964 478.462C367.375 474.28 369.669 470.254 371.979 466.243C372.436 465.44 372.759 464.874 373.521 463.995C374.078 463.335 375.296 461.967 376.016 462.855C376.544 463.637 376.829 464.24 376.191 465.739C374.519 469.599 372.22 473.067 369.96 476.523C367.962 479.573 366.385 481.859 364.433 484.421C363.521 485.618 362.456 485.443 361.357 484.177C360.371 483.041 359.342 481.888 358.559 480.627C355.714 476.094 352.988 471.528 350.206 466.958C349.858 466.391 349.555 465.964 349.227 465.249C348.839 464.381 348.511 463.762 349.215 463.383C349.879 463.015 350.793 463.916 351.178 464.443C354.48 468.801 361.158 477.873 361.611 478.296C361.872 475.384 362.178 472.707 362.326 469.978C363.263 450.957 362.779 431.766 357.619 412.042C353.534 396.429 347.706 381.212 339.635 366.457C339.164 365.583 338.756 364.673 338.379 363.792C337.853 362.602 337.778 361.93 338.341 361.733C339.478 361.517 340.03 362.273 340.517 362.848C341.503 363.984 342.293 365.3 343.064 366.573C353.213 383.676 359.38 401.569 363.3 419.896C367.326 438.706 367.024 456.827 365.125 474.686C364.988 475.617 364.875 477.993 364.964 478.462Z" fill="black"/>
</g>
<g filter="url(#filter2_d_5794_13997)">
<rect x="54.062" y="550.638" width="333.187" height="70.0804" rx="8" transform="rotate(-5 54.062 550.638)" fill="white" shape-rendering="crispEdges"/>
<path d="M84.0618 580.172L87.0538 579.91L86.5303 573.926L92.5143 573.403L93.0379 579.387L96.0299 579.125L95.2446 570.149L88.8679 566.184L83.2765 571.196L84.0618 580.172ZM84.2363 582.167C83.6878 582.215 83.2013 582.061 82.7769 581.704C82.3517 581.348 82.1151 580.895 82.0671 580.347L81.2818 571.37C81.2542 571.055 81.2988 570.749 81.4157 570.454C81.532 570.159 81.7068 569.91 81.9401 569.705L87.5315 564.693C87.7027 564.544 87.8851 564.428 88.0788 564.344C88.2724 564.26 88.4773 564.209 88.6934 564.19C88.9095 564.171 89.1202 564.186 89.3254 564.235C89.5307 564.284 89.7306 564.367 89.9251 564.484L96.3018 568.448C96.5671 568.609 96.7829 568.825 96.9493 569.095C97.115 569.366 97.2116 569.659 97.2393 569.974L98.0246 578.95C98.0725 579.499 97.9185 579.986 97.5624 580.411C97.2056 580.835 96.7529 581.072 96.2044 581.12L91.2177 581.556L90.6942 575.572L88.6995 575.746L89.223 581.73L84.2363 582.167Z" fill="#646464"/>
<path d="M71.0521 603.42L73.6583 594.75L75.1663 594.618L79.2383 602.703L78.0415 602.808L76.8564 600.428L73.0027 600.765L72.2489 603.315L71.0521 603.42ZM73.2889 599.763L76.4006 599.491L74.4981 595.665L73.2889 599.763ZM83.3206 601.623C84.0627 601.558 84.6416 601.145 84.9666 600.586L85.8218 601.127C85.3253 601.93 84.4935 602.485 83.3924 602.581C81.3938 602.756 79.9823 601.372 79.8284 599.613C79.6745 597.853 80.8242 596.245 82.8228 596.071C83.9119 595.975 84.8405 596.388 85.4679 597.081L84.7194 597.762C84.3024 597.268 83.6606 596.962 82.9066 597.028C81.614 597.141 80.7815 598.239 80.8935 599.52C81.0066 600.812 82.0161 601.737 83.3206 601.623ZM89.7839 601.057C90.5259 600.992 91.1048 600.58 91.4298 600.021L92.285 600.561C91.7885 601.364 90.9567 601.919 89.8557 602.016C87.857 602.191 86.4455 600.807 86.2916 599.047C86.1377 597.288 87.2874 595.68 89.2861 595.505C90.3751 595.41 91.3037 595.823 91.9311 596.516L91.1827 597.196C90.7656 596.702 90.1238 596.397 89.3698 596.463C88.0773 596.576 87.2447 597.674 87.3568 598.954C87.4698 600.247 88.4793 601.171 89.7839 601.057ZM97.7417 598.48L97.4401 595.033L98.4574 594.944L98.7558 598.355C98.9139 600.162 97.9649 601.306 96.3252 601.45C94.6976 601.592 93.5642 600.63 93.4061 598.823L93.1077 595.412L94.125 595.323L94.4265 598.77C94.5302 599.955 95.2242 600.581 96.2534 600.491C97.2588 600.403 97.8454 599.665 97.7417 598.48ZM106.265 599.338C105.768 600.141 104.913 600.698 103.788 600.797C101.753 600.975 100.365 599.589 100.211 597.829C100.051 595.998 101.1 594.472 102.967 594.308C104.606 594.165 105.772 595.221 105.902 596.705C105.923 596.944 105.907 597.174 105.885 597.345L101.254 597.75C101.416 599.195 102.414 599.988 103.707 599.875C104.485 599.807 105.112 599.391 105.459 598.818L106.265 599.338ZM103.018 595.172C102.025 595.259 101.382 595.906 101.258 596.966L104.872 596.65C104.758 595.767 104.083 595.079 103.018 595.172ZM107.794 592.547C107.399 592.582 107.047 592.287 107.013 591.892C106.979 591.509 107.274 591.158 107.669 591.123C108.064 591.089 108.404 591.384 108.437 591.767C108.472 592.162 108.189 592.513 107.794 592.547ZM107.944 600.192L107.416 594.16L108.434 594.071L108.961 600.103L107.944 600.192ZM111.111 599.915L110.326 590.939L111.343 590.85L112.129 599.826L111.111 599.915Z" fill="#646464"/>
<path d="M159.998 562.65L163.228 558.799C163.41 558.582 163.635 558.466 163.901 558.451C164.168 558.436 164.41 558.52 164.627 558.702C164.827 558.885 164.939 559.11 164.962 559.376C164.985 559.642 164.914 559.883 164.749 560.098L160.906 564.706C160.724 564.923 160.5 565.043 160.234 565.066C159.968 565.089 159.727 565.01 159.51 564.828L157.178 562.871C156.979 562.704 156.867 562.48 156.843 562.197C156.818 561.914 156.889 561.674 157.056 561.475C157.223 561.276 157.447 561.164 157.73 561.139C158.012 561.115 158.253 561.186 158.452 561.353L159.998 562.65ZM146.581 564.652C146.298 564.677 146.053 564.602 145.845 564.427C145.637 564.253 145.521 564.025 145.496 563.742C145.471 563.46 145.546 563.214 145.721 563.006C145.895 562.799 146.123 562.683 146.406 562.658L153.387 562.047C153.67 562.022 153.915 562.097 154.124 562.271C154.331 562.446 154.447 562.675 154.472 562.957C154.497 563.24 154.422 563.485 154.248 563.692C154.073 563.9 153.845 564.017 153.562 564.042L146.581 564.652ZM161.276 571.809L159.547 573.869C159.38 574.068 159.156 574.18 158.873 574.205C158.59 574.229 158.35 574.158 158.151 573.991C157.952 573.825 157.84 573.6 157.815 573.317C157.791 573.035 157.862 572.794 158.029 572.595L159.758 570.534L157.697 568.805C157.498 568.638 157.386 568.414 157.362 568.131C157.337 567.849 157.408 567.608 157.575 567.409C157.742 567.21 157.967 567.098 158.249 567.074C158.532 567.049 158.772 567.12 158.971 567.287L161.032 569.016L162.761 566.955C162.928 566.756 163.153 566.645 163.435 566.62C163.718 566.595 163.959 566.666 164.157 566.833C164.356 567 164.468 567.225 164.493 567.507C164.517 567.79 164.446 568.031 164.28 568.229L162.55 570.29L164.611 572.019C164.81 572.186 164.922 572.411 164.946 572.693C164.971 572.976 164.9 573.217 164.733 573.416C164.566 573.614 164.342 573.726 164.059 573.751C163.777 573.776 163.536 573.705 163.337 573.538L161.276 571.809ZM147.279 572.631C146.996 572.656 146.751 572.581 146.543 572.406C146.335 572.232 146.219 572.004 146.194 571.721C146.169 571.439 146.244 571.193 146.419 570.985C146.593 570.777 146.822 570.661 147.104 570.637L154.085 570.026C154.368 570.001 154.613 570.076 154.822 570.25C155.029 570.425 155.145 570.653 155.17 570.936C155.195 571.218 155.12 571.463 154.946 571.671C154.771 571.879 154.543 571.996 154.26 572.02L147.279 572.631Z" fill="#646464"/>
<path d="M132.598 598.035L131.865 589.657L133.301 589.532L136.232 593.532L138.424 589.084L139.86 588.958L140.593 597.336L139.468 597.434L138.867 590.564L136.775 594.775L135.913 594.851L133.122 591.067L133.723 597.937L132.598 598.035ZM145.14 590.619C147.078 590.449 148.538 591.829 148.692 593.588C148.846 595.347 147.648 596.96 145.709 597.129C143.758 597.3 142.311 595.919 142.157 594.16C142.003 592.4 143.189 590.789 145.14 590.619ZM145.637 596.171C146.894 596.061 147.724 594.927 147.615 593.682C147.505 592.426 146.492 591.465 145.235 591.575C143.943 591.688 143.112 592.81 143.222 594.067C143.332 595.323 144.345 596.284 145.637 596.171ZM150.591 596.461L150.063 590.429L151.081 590.34L151.14 591.022C151.584 590.441 152.173 590.003 153.07 589.925C154.423 589.806 155.508 590.628 155.657 592.34L155.977 595.99L154.959 596.079L154.643 592.464C154.549 591.387 153.884 590.818 152.951 590.9C152.077 590.976 151.57 591.527 151.243 592.195L151.608 596.372L150.591 596.461ZM160.532 594.759L161.196 594.086C161.661 594.576 162.19 594.831 162.8 594.778C163.471 594.719 163.818 594.279 163.772 593.752C163.654 592.4 160.68 593.142 160.493 591.012C160.41 590.066 161.144 589.218 162.305 589.117C163.167 589.041 163.944 589.383 164.415 589.933L163.761 590.593C163.398 590.167 162.918 589.919 162.391 589.966C161.745 590.022 161.432 590.435 161.472 590.902C161.591 592.255 164.581 591.559 164.761 593.617C164.848 594.743 164.012 595.528 162.887 595.626C161.929 595.71 161.142 595.393 160.532 594.759ZM170.531 592.112L170.229 588.665L171.247 588.576L171.545 591.987C171.703 593.794 170.754 594.938 169.114 595.082C167.487 595.224 166.353 594.262 166.195 592.455L165.897 589.044L166.914 588.955L167.216 592.402C167.319 593.586 168.013 594.213 169.043 594.123C170.048 594.035 170.635 593.296 170.531 592.112ZM173.629 586.787C173.234 586.822 172.883 586.527 172.848 586.132C172.814 585.749 173.109 585.398 173.504 585.363C173.899 585.329 174.239 585.625 174.272 586.008C174.307 586.403 174.024 586.753 173.629 586.787ZM173.779 594.432L173.251 588.4L174.269 588.311L174.796 594.343L173.779 594.432ZM175.509 588.203L176.61 588.106L178.972 592.905L180.464 587.769L181.565 587.673L179.735 593.911L178.395 594.028L175.509 588.203ZM183.189 585.951C182.794 585.986 182.443 585.691 182.408 585.296C182.375 584.913 182.67 584.561 183.065 584.527C183.46 584.492 183.799 584.788 183.833 585.171C183.867 585.566 183.584 585.917 183.189 585.951ZM183.34 593.596L182.812 587.564L183.829 587.475L184.357 593.507L183.34 593.596Z" fill="#646464"/>
<g clip-path="url(#clip1_5794_13997)">
<path d="M217.391 563.482L223.399 562.957C223.682 562.932 223.906 562.816 224.072 562.608C224.239 562.402 224.309 562.157 224.285 561.874C224.26 561.592 224.144 561.363 223.936 561.188C223.728 561.014 223.483 560.939 223.2 560.964L217.191 561.49C216.908 561.515 216.684 561.63 216.518 561.837C216.352 562.045 216.281 562.29 216.306 562.572C216.331 562.855 216.447 563.083 216.654 563.257C216.863 563.432 217.108 563.507 217.391 563.482ZM217.129 560.49L227.127 559.616C227.41 559.591 227.634 559.475 227.8 559.267C227.966 559.061 228.037 558.816 228.012 558.533C227.987 558.251 227.871 558.022 227.663 557.847C227.455 557.673 227.21 557.598 226.928 557.623L216.929 558.498C216.647 558.523 216.422 558.638 216.256 558.845C216.09 559.053 216.019 559.298 216.044 559.58C216.069 559.863 216.185 560.091 216.393 560.265C216.601 560.44 216.846 560.515 217.129 560.49ZM216.867 557.498L226.865 556.624C227.148 556.599 227.372 556.483 227.538 556.276C227.704 556.069 227.775 555.824 227.75 555.541C227.726 555.259 227.609 555.03 227.401 554.855C227.193 554.681 226.948 554.606 226.666 554.631L216.668 555.506C216.385 555.531 216.161 555.646 215.994 555.853C215.828 556.061 215.758 556.306 215.782 556.588C215.807 556.871 215.923 557.1 216.131 557.274C216.339 557.448 216.584 557.523 216.867 557.498ZM212.89 569.479L211.531 553.945C211.483 553.397 211.638 552.91 211.994 552.485C212.351 552.06 212.803 551.824 213.351 551.776L229.309 550.38C229.857 550.332 230.344 550.486 230.769 550.842C231.194 551.199 231.43 551.652 231.478 552.2L232.525 564.168C232.573 564.717 232.419 565.204 232.063 565.629C231.706 566.053 231.253 566.289 230.705 566.337L216.742 567.559L214.649 570.054C214.361 570.397 214.005 570.499 213.582 570.36C213.16 570.221 212.93 569.928 212.89 569.479ZM214.676 566.911L215.745 565.636L230.53 564.343L229.483 552.375L213.526 553.771L214.676 566.911Z" fill="#646464"/>
</g>
<path d="M202.014 591.962L201.282 583.584L202.718 583.459L205.648 587.459L207.84 583.01L209.276 582.885L210.009 591.262L208.884 591.361L208.283 584.491L206.191 588.702L205.33 588.778L202.538 584.994L203.139 591.864L202.014 591.962ZM217.627 589.595C217.13 590.398 216.275 590.956 215.15 591.054C213.115 591.232 211.727 589.846 211.574 588.087C211.413 586.255 212.462 584.729 214.329 584.565C215.968 584.422 217.134 585.478 217.264 586.962C217.285 587.201 217.269 587.432 217.247 587.602L212.616 588.007C212.778 589.452 213.776 590.245 215.069 590.132C215.847 590.064 216.474 589.648 216.822 589.075L217.627 589.595ZM214.38 585.429C213.387 585.516 212.744 586.163 212.62 587.223L216.234 586.907C216.121 586.025 215.445 585.336 214.38 585.429ZM218.541 589.684L219.206 589.011C219.671 589.501 220.199 589.756 220.81 589.703C221.48 589.644 221.827 589.203 221.781 588.677C221.663 587.324 218.689 588.067 218.502 585.937C218.42 584.991 219.154 584.143 220.314 584.042C221.176 583.966 221.954 584.308 222.424 584.858L221.77 585.518C221.407 585.092 220.927 584.844 220.401 584.89C219.755 584.947 219.441 585.36 219.482 585.827C219.6 587.179 222.59 586.484 222.77 588.542C222.857 589.668 222.021 590.453 220.896 590.551C219.939 590.635 219.151 590.318 218.541 589.684ZM223.8 589.224L224.465 588.551C224.93 589.041 225.459 589.296 226.069 589.242C226.739 589.184 227.087 588.743 227.041 588.217C226.922 586.864 223.948 587.607 223.762 585.477C223.679 584.531 224.413 583.683 225.574 583.581C226.436 583.506 227.213 583.848 227.683 584.398L227.03 585.058C226.667 584.632 226.187 584.384 225.66 584.43C225.014 584.487 224.7 584.9 224.741 585.367C224.859 586.719 227.85 586.023 228.03 588.082C228.116 589.208 227.28 589.993 226.155 590.091C225.198 590.175 224.411 589.858 223.8 589.224ZM231.456 589.555C230.271 589.659 229.412 589.071 229.322 588.041C229.242 587.132 229.88 586.425 231.141 586.097L233.147 585.584L233.11 585.165C233.037 584.327 232.396 583.901 231.535 583.977C230.84 584.037 230.306 584.41 229.98 584.957L229.163 584.437C229.627 583.673 230.438 583.156 231.491 583.064C233.023 582.93 234.011 583.748 234.127 585.076L234.481 589.121L233.464 589.21L233.397 588.445C232.993 589.071 232.234 589.487 231.456 589.555ZM230.348 587.915C230.393 588.43 230.844 588.764 231.55 588.703C232.352 588.632 232.977 588.192 233.315 587.511L233.211 586.326L231.454 586.781C230.641 586.997 230.303 587.401 230.348 587.915ZM235.923 590.093C235.87 589.482 236.126 588.966 236.688 588.494C236.394 588.303 236.222 587.992 236.193 587.669C236.152 587.19 236.368 586.774 236.809 586.434C236.248 586.085 235.883 585.501 235.825 584.831C235.723 583.67 236.547 582.609 237.983 582.484C238.426 582.445 238.829 582.506 239.166 582.634L241.404 582.438L241.481 583.323L240.177 583.438C240.37 583.722 240.485 584.062 240.516 584.421C240.617 585.57 239.805 586.63 238.357 586.756C238.057 586.783 237.766 586.76 237.508 586.71C237.273 586.911 237.148 587.139 237.168 587.367C237.19 587.618 237.337 587.786 237.708 587.754L239.432 587.603C241.023 587.464 241.834 588.177 241.928 589.254C242.039 590.522 240.853 591.579 239.046 591.737C237.262 591.893 236.029 591.302 235.923 590.093ZM238.298 585.953C239.172 585.877 239.622 585.235 239.559 584.505C239.494 583.763 238.939 583.208 238.065 583.285C237.167 583.363 236.729 584.004 236.794 584.746C236.859 585.488 237.401 586.032 238.298 585.953ZM236.906 589.886C236.97 590.616 237.763 590.993 238.959 590.888C240.228 590.777 240.986 590.205 240.917 589.415C240.867 588.84 240.504 588.414 239.426 588.508L237.476 588.679C237.084 589.026 236.864 589.407 236.906 589.886ZM248.178 586.922C247.682 587.725 246.826 588.283 245.701 588.381C243.666 588.559 242.279 587.173 242.125 585.414C241.965 583.583 243.013 582.056 244.88 581.892C246.52 581.749 247.685 582.805 247.815 584.289C247.836 584.528 247.82 584.759 247.799 584.929L243.167 585.335C243.33 586.78 244.328 587.573 245.62 587.46C246.398 587.391 247.025 586.975 247.373 586.402L248.178 586.922ZM244.931 582.756C243.938 582.843 243.295 583.49 243.171 584.55L246.785 584.234C246.672 583.352 245.997 582.663 244.931 582.756Z" fill="#646464"/>
<g clip-path="url(#clip2_5794_13997)">
<path d="M292.64 559.939C292.839 560.106 293.079 560.177 293.362 560.152C293.645 560.127 293.869 560.016 294.036 559.817C294.203 559.618 294.274 559.377 294.249 559.095C294.225 558.812 294.113 558.587 293.914 558.421L292.043 556.851C292.245 556.481 292.387 556.092 292.468 555.683C292.55 555.274 292.571 554.845 292.532 554.396C292.423 553.149 291.894 552.128 290.945 551.331C289.996 550.535 288.898 550.192 287.651 550.301C286.404 550.41 285.383 550.939 284.586 551.887C283.79 552.837 283.447 553.935 283.556 555.181C283.665 556.428 284.194 557.45 285.142 558.246C286.092 559.042 287.19 559.386 288.436 559.277C288.869 559.239 289.283 559.144 289.68 558.992C290.077 558.84 290.44 558.632 290.769 558.369L292.64 559.939ZM288.262 557.282C287.564 557.343 286.953 557.154 286.428 556.714C285.904 556.274 285.611 555.705 285.55 555.007C285.489 554.309 285.679 553.697 286.119 553.173C286.558 552.649 287.127 552.356 287.826 552.295C288.524 552.234 289.135 552.424 289.659 552.863C290.183 553.303 290.476 553.872 290.537 554.57C290.598 555.269 290.409 555.88 289.969 556.404C289.529 556.928 288.96 557.221 288.262 557.282ZM281.305 563.92C280.757 563.968 280.27 563.814 279.846 563.458C279.421 563.101 279.184 562.649 279.136 562.1L278.089 550.132C278.041 549.584 278.195 549.097 278.552 548.673C278.908 548.248 279.361 548.011 279.909 547.963L295.867 546.567C296.415 546.519 296.902 546.673 297.327 547.03C297.752 547.386 297.988 547.839 298.036 548.387L299.083 560.355C299.131 560.904 298.977 561.39 298.621 561.816C298.264 562.24 297.811 562.476 297.263 562.524L281.305 563.92ZM281.131 561.926L297.088 560.53L296.041 548.562L280.084 549.958L281.131 561.926Z" fill="#646464"/>
</g>
<path d="M261.9 586.723L261.167 578.345L263.393 578.15C265.08 578.003 266.202 578.833 266.328 580.269C266.416 581.275 265.967 582.074 265.101 582.511L268.147 586.176L266.819 586.292L264.066 582.819C263.984 582.838 263.888 582.846 263.804 582.854L262.703 582.95L263.025 586.624L261.9 586.723ZM263.524 579.103L262.375 579.204L262.619 581.993L263.768 581.892C264.726 581.808 265.243 581.244 265.165 580.347C265.09 579.497 264.482 579.02 263.524 579.103ZM274.52 584.618C274.023 585.421 273.168 585.978 272.043 586.076C270.008 586.254 268.621 584.868 268.467 583.109C268.307 581.278 269.355 579.751 271.222 579.588C272.861 579.444 274.027 580.5 274.157 581.984C274.178 582.223 274.162 582.454 274.141 582.625L269.509 583.03C269.672 584.475 270.67 585.268 271.962 585.155C272.74 585.087 273.367 584.67 273.715 584.097L274.52 584.618ZM271.273 580.452C270.28 580.538 269.637 581.186 269.513 582.246L273.127 581.929C273.014 581.047 272.338 580.358 271.273 580.452ZM278.89 584.513C279.632 584.448 280.211 584.035 280.536 583.476L281.391 584.016C280.894 584.82 280.063 585.375 278.962 585.471C276.963 585.646 275.551 584.262 275.397 582.503C275.244 580.743 276.393 579.135 278.392 578.96C279.481 578.865 280.41 579.278 281.037 579.971L280.289 580.652C279.871 580.158 279.23 579.852 278.476 579.918C277.183 580.031 276.351 581.129 276.463 582.409C276.576 583.702 277.585 584.627 278.89 584.513ZM282.873 584.888L282.088 575.912L283.105 575.823L283.422 579.449C283.866 578.867 284.455 578.43 285.352 578.352C286.705 578.233 287.789 579.055 287.939 580.766L288.259 584.417L287.241 584.506L286.925 580.891C286.831 579.814 286.178 579.244 285.232 579.327C284.347 579.404 283.853 579.966 283.525 580.622L283.89 584.799L282.873 584.888ZM295.581 582.775C295.084 583.578 294.229 584.135 293.104 584.234C291.069 584.412 289.682 583.026 289.528 581.266C289.368 579.435 290.416 577.909 292.283 577.745C293.922 577.602 295.088 578.657 295.218 580.142C295.239 580.381 295.223 580.611 295.202 580.782L290.57 581.187C290.733 582.632 291.731 583.425 293.023 583.312C293.801 583.244 294.428 582.828 294.776 582.254L295.581 582.775ZM292.334 578.609C291.341 578.696 290.698 579.343 290.574 580.403L294.188 580.087C294.075 579.204 293.399 578.516 292.334 578.609ZM297.26 583.629L296.733 577.597L297.75 577.508L297.816 578.262C298.213 577.697 298.733 577.301 299.499 577.234C299.69 577.218 299.872 577.226 300.02 577.261L300.107 578.255C299.923 578.222 299.741 578.214 299.502 578.235C298.712 578.304 298.233 578.756 297.915 579.399L298.278 583.54L297.26 583.629ZM304.369 582.283C305.111 582.219 305.69 581.806 306.015 581.247L306.87 581.787C306.373 582.59 305.541 583.146 304.44 583.242C302.442 583.417 301.03 582.033 300.876 580.274C300.722 578.514 301.872 576.906 303.871 576.731C304.96 576.636 305.888 577.049 306.516 577.742L305.767 578.423C305.35 577.928 304.709 577.623 303.955 577.689C302.662 577.802 301.829 578.9 301.942 580.18C302.055 581.473 303.064 582.398 304.369 582.283ZM308.352 582.659L307.567 573.683L308.584 573.594L308.901 577.22C309.345 576.638 309.933 576.201 310.831 576.122C312.183 576.004 313.268 576.826 313.418 578.537L313.737 582.187L312.72 582.276L312.404 578.662C312.31 577.585 311.657 577.015 310.711 577.098C309.826 577.175 309.332 577.737 309.004 578.393L309.369 582.57L308.352 582.659ZM321.06 580.546C320.563 581.349 319.708 581.906 318.583 582.005C316.548 582.183 315.161 580.797 315.007 579.037C314.846 577.206 315.895 575.679 317.762 575.516C319.401 575.373 320.567 576.428 320.697 577.912C320.718 578.152 320.702 578.382 320.681 578.553L316.049 578.958C316.211 580.403 317.209 581.196 318.502 581.083C319.28 581.015 319.907 580.598 320.255 580.025L321.06 580.546ZM317.813 576.38C316.82 576.467 316.177 577.114 316.053 578.174L319.667 577.858C319.554 576.975 318.878 576.287 317.813 576.38Z" fill="#646464"/>
<path d="M352.371 554.186C351.673 554.247 351.061 554.057 350.537 553.617C350.013 553.178 349.72 552.609 349.659 551.91C349.598 551.212 349.788 550.601 350.227 550.077C350.667 549.553 351.236 549.26 351.934 549.199C352.633 549.138 353.244 549.327 353.768 549.767C354.292 550.207 354.585 550.776 354.646 551.474C354.707 552.172 354.518 552.783 354.078 553.308C353.638 553.832 353.069 554.125 352.371 554.186ZM348.861 560.02C348.313 560.068 347.826 559.914 347.401 559.558C346.976 559.201 346.74 558.748 346.692 558.2L345.471 544.237C345.423 543.689 345.577 543.202 345.933 542.778C346.29 542.352 346.742 542.116 347.291 542.068L348.288 541.981L348.201 540.983C348.176 540.701 348.251 540.455 348.425 540.247C348.6 540.04 348.828 539.923 349.111 539.899C349.393 539.874 349.639 539.949 349.847 540.123C350.055 540.298 350.171 540.526 350.195 540.809L350.283 541.806L358.261 541.108L358.174 540.111C358.149 539.828 358.224 539.583 358.399 539.375C358.573 539.167 358.802 539.051 359.084 539.026C359.367 539.001 359.612 539.076 359.819 539.25C360.028 539.425 360.144 539.654 360.169 539.936L360.256 540.934L361.253 540.846C361.802 540.798 362.289 540.953 362.714 541.309C363.138 541.666 363.375 542.118 363.423 542.666L364.644 556.629C364.692 557.178 364.538 557.665 364.182 558.09C363.825 558.514 363.373 558.75 362.824 558.798L348.861 560.02ZM348.687 558.025L362.65 556.804L361.777 546.83L347.814 548.052L348.687 558.025Z" fill="#3B69D1"/>
<path d="M328.694 571.714L327.15 571.849L328.361 570.115L330.109 569.962L328.694 571.714ZM326.294 581.089L325.562 572.711L330.444 572.284L330.568 573.696L327.385 573.975L327.558 575.961L330.263 575.725L330.387 577.137L327.682 577.374L327.87 579.528L331.054 579.249L331.177 580.662L326.294 581.089ZM331.384 574.565L333.012 574.423L334.956 578.594L336.135 574.15L337.775 574.006L336.101 580.231L334.102 580.406L331.384 574.565ZM342.085 572.664L340.625 572.792L341.696 570.697L343.347 570.552L342.085 572.664ZM344.657 578.493C344.161 579.297 343.268 579.845 342.131 579.944C339.989 580.132 338.649 578.742 338.495 576.982C338.339 575.199 339.335 573.629 341.31 573.456C342.986 573.309 344.186 574.35 344.324 575.93C344.354 576.265 344.333 576.58 344.303 576.788L340.078 577.157C340.32 578.27 341.054 578.664 342 578.581C342.658 578.524 343.207 578.186 343.493 577.727L344.657 578.493ZM341.383 574.704C340.605 574.772 340.128 575.248 340.03 576.052L342.806 575.809C342.729 575.201 342.233 574.629 341.383 574.704ZM346.121 579.354L345.593 573.322L347.113 573.189L347.155 573.668C347.538 573.225 348.073 572.864 348.875 572.794C350.18 572.68 351.299 573.486 351.456 575.27L351.77 578.86L350.238 578.994L349.929 575.463C349.859 574.662 349.36 574.199 348.618 574.264C347.852 574.331 347.49 574.881 347.296 575.284L347.641 579.221L346.121 579.354ZM358.963 577.242C358.466 578.045 357.574 578.593 356.437 578.693C354.294 578.88 352.955 577.49 352.801 575.731C352.645 573.948 353.641 572.377 355.616 572.204C357.291 572.058 358.492 573.098 358.63 574.678C358.659 575.013 358.639 575.329 358.609 575.536L354.384 575.906C354.626 577.018 355.36 577.412 356.305 577.33C356.964 577.272 357.513 576.935 357.798 576.475L358.963 577.242ZM355.689 573.452C354.911 573.52 354.434 573.996 354.335 574.801L357.112 574.558C357.035 573.949 356.538 573.378 355.689 573.452ZM360.426 578.103L359.899 572.071L361.418 571.938L361.458 572.393C361.831 571.962 362.319 571.618 363.061 571.553C363.827 571.486 364.527 571.762 364.978 572.374C365.363 571.81 365.898 571.305 366.915 571.216C368.16 571.107 369.216 571.883 369.365 573.582L369.69 577.292L368.158 577.426L367.838 573.776C367.774 573.046 367.34 572.626 366.658 572.685C365.999 572.743 365.68 573.229 365.476 573.657C365.496 573.74 365.503 573.824 365.511 573.919L365.836 577.629L364.304 577.763L363.985 574.113C363.921 573.383 363.486 572.963 362.804 573.023C362.11 573.083 361.796 573.629 361.602 574.032L361.946 577.97L360.426 578.103ZM376.892 575.673C376.395 576.476 375.502 577.025 374.365 577.124C372.223 577.312 370.883 575.922 370.73 574.162C370.574 572.379 371.57 570.808 373.544 570.636C375.22 570.489 376.421 571.53 376.559 573.11C376.588 573.445 376.567 573.76 376.537 573.968L372.313 574.337C372.555 575.45 373.289 575.844 374.234 575.761C374.892 575.703 375.442 575.366 375.727 574.907L376.892 575.673ZM373.617 571.884C372.84 571.952 372.363 572.427 372.264 573.232L375.041 572.989C374.963 572.381 374.467 571.809 373.617 571.884ZM378.355 576.534L377.827 570.502L379.347 570.369L379.389 570.848C379.772 570.404 380.308 570.044 381.11 569.974C382.414 569.86 383.534 570.666 383.69 572.449L384.004 576.04L382.472 576.174L382.163 572.643C382.093 571.841 381.594 571.379 380.852 571.444C380.086 571.511 379.724 572.061 379.53 572.464L379.875 576.401L378.355 576.534ZM385.92 573.653L385.704 571.188L384.579 571.286L384.46 569.922L385.585 569.823L385.453 568.316L386.985 568.181L387.117 569.689L388.96 569.528L389.079 570.893L387.236 571.054L387.452 573.519C387.511 574.189 387.893 574.421 388.491 574.369C388.91 574.332 389.181 574.26 389.377 574.159L389.494 575.487C389.206 575.645 388.852 575.736 388.349 575.78C386.841 575.912 386.049 575.125 385.92 573.653Z" fill="#3B69D1"/>
</g>
<defs>
<filter id="filter0_d_5794_13997" x="242.569" y="64.5223" width="75.8057" height="76.3924" filterUnits="userSpaceOnUse" color-interpolation-filters="sRGB">
<feFlood flood-opacity="0" result="BackgroundImageFix"/>
<feColorMatrix in="SourceAlpha" type="matrix" values="0 0 0 0 0 0 0 0 0 0 0 0 0 0 0 0 0 0 127 0" result="hardAlpha"/>
<feOffset dy="4"/>
<feGaussianBlur stdDeviation="6"/>
<feComposite in2="hardAlpha" operator="out"/>
<feColorMatrix type="matrix" values="0 0 0 0 0.152941 0 0 0 0 0.286275 0 0 0 0 0.588235 0 0 0 0.12 0"/>
<feBlend mode="normal" in2="BackgroundImageFix" result="effect1_dropShadow_5794_13997"/>
<feBlend mode="normal" in="SourceGraphic" in2="effect1_dropShadow_5794_13997" result="shape"/>
</filter>
<filter id="filter1_d_5794_13997" x="10.0115" y="123.71" width="358.516" height="437.297" filterUnits="userSpaceOnUse" color-interpolation-filters="sRGB">
<feFlood flood-opacity="0" result="BackgroundImageFix"/>
<feColorMatrix in="SourceAlpha" type="matrix" values="0 0 0 0 0 0 0 0 0 0 0 0 0 0 0 0 0 0 127 0" result="hardAlpha"/>
<feOffset dy="4"/>
<feGaussianBlur stdDeviation="6"/>
<feComposite in2="hardAlpha" operator="out"/>
<feColorMatrix type="matrix" values="0 0 0 0 0.152941 0 0 0 0 0.286275 0 0 0 0 0.588235 0 0 0 0.12 0"/>
<feBlend mode="normal" in2="BackgroundImageFix" result="effect1_dropShadow_5794_13997"/>
<feBlend mode="normal" in="SourceGraphic" in2="effect1_dropShadow_5794_13997" result="shape"/>
</filter>
<filter id="filter2_d_5794_13997" x="50.0574" y="521.598" width="346.036" height="106.862" filterUnits="userSpaceOnUse" color-interpolation-filters="sRGB">
<feFlood flood-opacity="0" result="BackgroundImageFix"/>
<feColorMatrix in="SourceAlpha" type="matrix" values="0 0 0 0 0 0 0 0 0 0 0 0 0 0 0 0 0 0 127 0" result="hardAlpha"/>
<feOffset dy="4"/>
<feGaussianBlur stdDeviation="2"/>
<feComposite in2="hardAlpha" operator="out"/>
<feColorMatrix type="matrix" values="0 0 0 0 0 0 0 0 0 0 0 0 0 0 0 0 0 0 0.25 0"/>
<feBlend mode="normal" in2="BackgroundImageFix" result="effect1_dropShadow_5794_13997"/>
<feBlend mode="normal" in="SourceGraphic" in2="effect1_dropShadow_5794_13997" result="shape"/>
</filter>
<clipPath id="clip0_5794_13997">
<rect width="101.33" height="122.979" fill="white" transform="translate(430.541 428.383) scale(1.00115) rotate(133.013)"/>
</clipPath>
<clipPath id="clip1_5794_13997">
<rect width="24" height="24" fill="white" transform="translate(209.187 550.13) scale(1.00115) rotate(-5)"/>
</clipPath>
<clipPath id="clip2_5794_13997">
<rect width="24" height="24" fill="white" transform="translate(275.571 544.323) scale(1.00115) rotate(-5)"/>
</clipPath>
</defs>
</svg>
