<svg width="352" height="345" viewBox="0 0 352 345" fill="none" xmlns="http://www.w3.org/2000/svg">
<rect x="5.9973" y="244.393" width="341.068" height="72.3423" rx="11.4995" transform="rotate(-5 5.9973 244.393)" fill="#F1F1F1" stroke="#878787" stroke-width="0.999955" stroke-dasharray="5 5"/>
<g filter="url(#filter0_d_4866_12777)">
<g clip-path="url(#clip0_4866_12777)">
<rect x="0.33361" y="264.043" width="337.071" height="69.5362" rx="16" transform="rotate(-5 0.33361 264.043)" fill="white"/>
<path d="M42.3474 284.154C42.1069 284.175 41.8984 284.111 41.7217 283.962C41.5446 283.814 41.4455 283.62 41.4244 283.38C41.4034 283.139 41.4672 282.93 41.6159 282.753C41.7641 282.576 41.9584 282.478 42.1989 282.457L48.1401 281.937C48.3806 281.916 48.5894 281.979 48.7666 282.127C48.9432 282.276 49.042 282.471 49.0631 282.711C49.0841 282.952 49.0206 283.16 48.8724 283.337C48.7237 283.514 48.5291 283.613 48.2886 283.634L42.3474 284.154ZM42.9415 290.944C42.701 290.965 42.4924 290.901 42.3158 290.752C42.1386 290.604 42.0395 290.41 42.0185 290.169C41.9974 289.929 42.0613 289.72 42.21 289.543C42.3581 289.366 42.5525 289.268 42.793 289.246L48.7341 288.727C48.9746 288.706 49.1834 288.769 49.3606 288.917C49.5372 289.066 49.6361 289.261 49.6571 289.501C49.6782 289.742 49.6146 289.95 49.4664 290.127C49.3177 290.304 49.1231 290.403 48.8826 290.424L42.9415 290.944ZM53.2017 284.316L51.2173 282.651C51.0481 282.509 50.953 282.318 50.9319 282.077C50.9109 281.837 50.9713 281.632 51.1133 281.463C51.2553 281.294 51.4466 281.198 51.687 281.177C51.9275 281.156 52.1324 281.217 52.3016 281.359L53.6168 282.463L56.3663 279.186C56.5212 279.001 56.7121 278.902 56.939 278.889C57.166 278.877 57.3718 278.948 57.5564 279.103C57.7268 279.259 57.8219 279.45 57.8417 279.677C57.8615 279.903 57.8011 280.108 57.6603 280.291L54.39 284.212C54.2351 284.397 54.0445 284.499 53.8181 284.519C53.5918 284.539 53.3863 284.471 53.2017 284.316ZM53.7958 291.106L51.8113 289.441C51.6421 289.299 51.547 289.108 51.526 288.867C51.5049 288.627 51.5654 288.422 51.7074 288.253C51.8494 288.084 52.0406 287.988 52.2811 287.967C52.5216 287.946 52.7264 288.007 52.8956 288.149L54.2109 289.252L56.9603 285.976C57.1152 285.791 57.3061 285.692 57.533 285.679C57.76 285.667 57.9658 285.738 58.1504 285.893C58.3209 286.049 58.416 286.24 58.4358 286.467C58.4556 286.693 58.3951 286.898 58.2544 287.081L54.984 291.002C54.8291 291.187 54.6385 291.289 54.4122 291.309C54.1858 291.329 53.9804 291.261 53.7958 291.106Z" fill="#646464"/>
<path d="M30.4073 312.106L31.3647 312.023L30.8533 306.176L33.2286 309.396L33.9619 309.332L35.742 305.749L36.2535 311.595L37.2108 311.511L36.5871 304.382L35.3649 304.489L33.4999 308.275L31.0058 304.87L29.7836 304.977L30.4073 312.106ZM41.0803 305.795C39.4202 305.94 38.4112 307.311 38.5422 308.808C38.6732 310.306 39.9049 311.481 41.565 311.335C43.215 311.191 44.2341 309.819 44.1031 308.322C43.9722 306.825 42.7303 305.65 41.0803 305.795ZM41.5039 310.52C40.404 310.616 39.5422 309.798 39.4487 308.729C39.3551 307.66 40.0618 306.705 41.1618 306.609C42.2312 306.515 43.0929 307.333 43.1865 308.402C43.2792 309.461 42.5734 310.426 41.5039 310.52ZM45.7194 310.767L46.5852 310.691L46.2742 307.136C46.5529 306.568 46.9839 306.099 47.7274 306.034C48.5219 305.965 49.0876 306.449 49.1678 307.366L49.4369 310.441L50.3026 310.366L50.0309 307.259C49.9034 305.803 48.9802 305.104 47.8293 305.204C47.0654 305.271 46.5643 305.643 46.1869 306.138L46.1361 305.558L45.2703 305.633L45.7194 310.767ZM54.1789 309.318C54.6982 309.858 55.3683 310.128 56.1831 310.056C57.1405 309.973 57.8518 309.305 57.7782 308.347C57.625 306.595 55.0803 307.187 54.9796 306.036C54.9448 305.639 55.2117 305.287 55.7617 305.239C56.2098 305.2 56.6182 305.41 56.9271 305.773L57.4834 305.212C57.0833 304.744 56.4215 304.453 55.6882 304.517C54.7003 304.603 54.0758 305.325 54.1462 306.13C54.3048 307.942 56.8358 307.311 56.9365 308.461C56.9757 308.91 56.68 309.284 56.1097 309.334C55.5903 309.38 55.1402 309.162 54.7445 308.746L54.1789 309.318ZM62.6883 307.065C62.7766 308.074 62.2774 308.702 61.4218 308.777C60.5459 308.854 59.9553 308.32 59.8671 307.312L59.6105 304.379L58.7448 304.455L58.9987 307.357C59.1333 308.895 60.0978 309.714 61.4829 309.593C62.8783 309.471 63.6859 308.497 63.5514 306.959L63.2974 304.056L62.4317 304.132L62.6883 307.065ZM65.3248 302.535C65.6609 302.505 65.9016 302.207 65.8722 301.871C65.8437 301.545 65.5548 301.293 65.2187 301.323C64.8826 301.352 64.6317 301.651 64.6602 301.977C64.6896 302.313 64.9887 302.564 65.3248 302.535ZM65.4527 309.04L66.3184 308.965L65.8693 303.831L65.0036 303.907L65.4527 309.04ZM66.9249 303.739L69.3804 308.697L70.5212 308.597L72.0785 303.288L71.1415 303.37L69.8715 307.74L67.8619 303.657L66.9249 303.739ZM73.4608 301.823C73.7969 301.793 74.0376 301.495 74.0082 301.159C73.9797 300.833 73.6908 300.581 73.3547 300.611C73.0186 300.64 72.7677 300.939 72.7962 301.265C72.8256 301.601 73.1247 301.852 73.4608 301.823ZM73.5886 308.328L74.4543 308.253L74.0053 303.12L73.1395 303.195L73.5886 308.328Z" fill="#646464"/>
<g clip-path="url(#clip1_4866_12777)">
<path d="M126.318 281.084L131.432 280.637C131.672 280.616 131.863 280.517 132.005 280.34C132.146 280.164 132.206 279.956 132.185 279.715C132.164 279.475 132.065 279.28 131.889 279.132C131.712 278.983 131.503 278.92 131.262 278.941L126.149 279.388C125.908 279.409 125.717 279.508 125.576 279.684C125.434 279.86 125.374 280.069 125.395 280.309C125.416 280.55 125.515 280.744 125.692 280.892C125.869 281.041 126.078 281.105 126.318 281.084ZM126.096 278.538L134.604 277.793C134.845 277.772 135.036 277.673 135.177 277.497C135.318 277.321 135.378 277.113 135.357 276.872C135.336 276.632 135.237 276.437 135.06 276.288C134.883 276.14 134.675 276.077 134.434 276.098L125.926 276.842C125.685 276.863 125.494 276.962 125.353 277.138C125.212 277.314 125.152 277.523 125.173 277.763C125.194 278.004 125.292 278.198 125.469 278.346C125.646 278.495 125.855 278.559 126.096 278.538ZM125.873 275.991L134.381 275.247C134.622 275.226 134.813 275.128 134.954 274.952C135.096 274.775 135.156 274.566 135.135 274.326C135.114 274.085 135.015 273.891 134.837 273.742C134.661 273.594 134.452 273.53 134.212 273.551L125.703 274.296C125.463 274.317 125.272 274.415 125.13 274.591C124.989 274.768 124.929 274.977 124.95 275.217C124.971 275.457 125.07 275.652 125.246 275.801C125.423 275.949 125.632 276.013 125.873 275.991ZM122.489 286.187L121.332 272.968C121.291 272.501 121.423 272.087 121.726 271.725C122.029 271.364 122.414 271.163 122.881 271.122L136.461 269.934C136.928 269.893 137.342 270.024 137.704 270.327C138.065 270.631 138.266 271.016 138.307 271.483L139.198 281.668C139.239 282.134 139.108 282.549 138.805 282.91C138.501 283.272 138.116 283.473 137.649 283.514L125.767 284.553L123.985 286.676C123.74 286.968 123.437 287.055 123.078 286.937C122.718 286.819 122.522 286.569 122.489 286.187ZM124.008 284.001L124.918 282.917L137.5 281.816L136.609 271.631L123.03 272.819L124.008 284.001Z" fill="#646464"/>
</g>
<path d="M110.956 305.059L111.913 304.975L111.402 299.129L113.777 302.349L114.51 302.285L116.29 298.702L116.802 304.548L117.759 304.464L117.135 297.335L115.913 297.442L114.048 301.227L111.554 297.823L110.332 297.93L110.956 305.059ZM124.242 303.045L123.557 302.602C123.261 303.09 122.727 303.444 122.065 303.502C120.965 303.599 120.116 302.924 119.978 301.694L123.919 301.349C123.937 301.204 123.951 301.008 123.933 300.804C123.823 299.541 122.831 298.643 121.435 298.765C119.846 298.904 118.954 300.203 119.091 301.761C119.222 303.258 120.402 304.438 122.134 304.287C123.091 304.203 123.819 303.729 124.242 303.045ZM121.479 299.5C122.385 299.42 122.96 300.006 123.057 300.757L119.981 301.027C120.087 300.124 120.634 299.574 121.479 299.5ZM125.02 303.121C125.539 303.66 126.209 303.93 127.024 303.859C127.981 303.775 128.693 303.107 128.619 302.149C128.466 300.397 125.921 300.989 125.821 299.838C125.786 299.441 126.053 299.089 126.603 299.041C127.051 299.002 127.459 299.213 127.768 299.576L128.324 299.014C127.924 298.546 127.262 298.255 126.529 298.319C125.541 298.405 124.917 299.127 124.987 299.932C125.146 301.745 127.677 301.113 127.777 302.264C127.817 302.712 127.521 303.087 126.951 303.136C126.431 303.182 125.981 302.965 125.585 302.548L125.02 303.121ZM129.496 302.729C130.015 303.269 130.685 303.538 131.5 303.467C132.457 303.383 133.169 302.716 133.095 301.757C132.942 300.006 130.397 300.598 130.296 299.447C130.262 299.05 130.528 298.698 131.078 298.65C131.526 298.61 131.935 298.821 132.244 299.184L132.8 298.622C132.4 298.154 131.738 297.863 131.005 297.927C130.017 298.014 129.393 298.736 129.463 299.54C129.622 301.353 132.152 300.721 132.253 301.872C132.292 302.32 131.997 302.695 131.426 302.745C130.907 302.79 130.457 302.573 130.061 302.156L129.496 302.729ZM136.011 303.011C136.673 302.953 137.319 302.599 137.662 302.066L137.719 302.718L138.585 302.642L138.284 299.199C138.185 298.069 137.344 297.373 136.04 297.487C135.144 297.565 134.454 298.005 134.059 298.656L134.755 299.098C135.032 298.632 135.487 298.315 136.078 298.264C136.811 298.199 137.356 298.562 137.418 299.275L137.449 299.632L135.743 300.068C134.669 300.347 134.126 300.949 134.194 301.723C134.271 302.599 135.002 303.099 136.011 303.011ZM135.067 301.616C135.029 301.178 135.317 300.834 136.009 300.651L137.505 300.263L137.593 301.271C137.305 301.851 136.773 302.226 136.091 302.285C135.49 302.338 135.106 302.054 135.067 301.616ZM139.812 303.469C139.902 304.497 140.952 305.001 142.469 304.868C144.007 304.733 145.017 303.834 144.922 302.755C144.842 301.838 144.153 301.231 142.798 301.35L141.331 301.478C141.016 301.506 140.89 301.363 140.872 301.149C140.855 300.955 140.961 300.761 141.161 300.59C141.381 300.632 141.629 300.652 141.883 300.629C143.116 300.521 143.806 299.619 143.721 298.642C143.694 298.336 143.597 298.047 143.432 297.805L144.542 297.708L144.476 296.954L142.572 297.121C142.285 297.012 141.942 296.96 141.565 296.993C140.343 297.1 139.642 298.003 139.728 298.991C139.778 299.561 140.088 300.058 140.566 300.355C140.191 300.644 140.007 300.999 140.042 301.406C140.066 301.681 140.213 301.945 140.463 302.108C139.985 302.509 139.767 302.949 139.812 303.469ZM141.834 299.946C141.07 300.013 140.609 299.55 140.553 298.919C140.498 298.287 140.871 297.742 141.635 297.675C142.378 297.61 142.851 298.082 142.906 298.713C142.96 299.334 142.577 299.881 141.834 299.946ZM140.649 303.293C140.613 302.885 140.8 302.561 141.133 302.265L142.794 302.12C143.71 302.04 144.019 302.403 144.062 302.891C144.121 303.564 143.476 304.051 142.396 304.146C141.378 304.235 140.703 303.914 140.649 303.293ZM150.241 300.77L149.556 300.327C149.26 300.815 148.727 301.17 148.064 301.228C146.965 301.324 146.115 300.649 145.977 299.419L149.918 299.074C149.936 298.929 149.95 298.733 149.932 298.529C149.822 297.266 148.83 296.368 147.434 296.49C145.846 296.629 144.954 297.928 145.09 299.487C145.221 300.984 146.402 302.163 148.133 302.012C149.09 301.928 149.819 301.454 150.241 300.77ZM147.478 297.225C148.385 297.146 148.959 297.732 149.056 298.483L145.98 298.752C146.086 297.85 146.633 297.299 147.478 297.225ZM151.019 300.846C151.538 301.386 152.209 301.655 153.023 301.584C153.981 301.5 154.692 300.833 154.618 299.874C154.465 298.122 151.92 298.715 151.82 297.564C151.785 297.166 152.052 296.815 152.602 296.767C153.05 296.727 153.458 296.938 153.767 297.301L154.324 296.739C153.924 296.271 153.262 295.98 152.528 296.044C151.541 296.131 150.916 296.853 150.986 297.657C151.145 299.47 153.676 298.838 153.777 299.989C153.816 300.437 153.52 300.812 152.95 300.862C152.43 300.907 151.98 300.69 151.585 300.273L151.019 300.846Z" fill="#646464"/>
<path d="M214.068 275.994C214.238 276.136 214.442 276.196 214.683 276.175C214.923 276.154 215.115 276.059 215.257 275.89C215.399 275.721 215.459 275.516 215.438 275.275C215.417 275.035 215.322 274.844 215.153 274.702L213.56 273.366C213.732 273.051 213.853 272.72 213.922 272.372C213.992 272.024 214.01 271.659 213.976 271.277C213.884 270.216 213.433 269.346 212.626 268.668C211.818 267.991 210.884 267.699 209.823 267.792C208.762 267.884 207.892 268.334 207.214 269.142C206.537 269.95 206.245 270.884 206.338 271.945C206.43 273.006 206.881 273.875 207.688 274.553C208.496 275.231 209.43 275.523 210.491 275.43C210.859 275.398 211.212 275.317 211.549 275.188C211.887 275.059 212.196 274.882 212.476 274.658L214.068 275.994ZM210.343 273.733C209.749 273.785 209.228 273.624 208.782 273.249C208.336 272.875 208.087 272.391 208.035 271.797C207.983 271.202 208.144 270.682 208.519 270.236C208.893 269.79 209.377 269.541 209.971 269.489C210.565 269.437 211.086 269.598 211.532 269.973C211.978 270.347 212.227 270.831 212.279 271.425C212.331 272.019 212.17 272.54 211.795 272.986C211.421 273.432 210.937 273.681 210.343 273.733ZM204.423 279.382C203.956 279.423 203.542 279.292 203.181 278.989C202.819 278.685 202.617 278.3 202.577 277.833L201.686 267.648C201.645 267.181 201.776 266.767 202.08 266.406C202.383 266.044 202.768 265.843 203.235 265.802L216.814 264.614C217.281 264.573 217.696 264.705 218.057 265.008C218.419 265.311 218.62 265.696 218.66 266.163L219.551 276.348C219.592 276.815 219.461 277.229 219.158 277.591C218.854 277.952 218.469 278.153 218.002 278.194L204.423 279.382ZM204.274 277.685L217.854 276.497L216.963 266.312L203.383 267.5L204.274 277.685Z" fill="#3B69D1"/>
<path d="M187.722 298.343L189.168 298.217L188.916 295.334L189.66 295.269L191.816 297.985L193.517 297.836L191.011 294.874C191.714 294.474 192.076 293.795 192 292.93C191.884 291.606 190.846 290.886 189.278 291.023L187.098 291.214L187.722 298.343ZM189.465 292.218C190.076 292.164 190.464 292.5 190.511 293.04C190.562 293.62 190.237 294.008 189.626 294.061L188.811 294.132L188.65 292.289L189.465 292.218ZM198.893 296.524L197.902 295.872C197.659 296.263 197.192 296.55 196.631 296.599C195.827 296.669 195.202 296.334 194.996 295.387L198.592 295.073C198.617 294.896 198.635 294.628 198.61 294.343C198.492 292.998 197.471 292.113 196.045 292.237C194.364 292.384 193.516 293.721 193.649 295.238C193.78 296.736 194.92 297.919 196.743 297.759C197.711 297.674 198.47 297.208 198.893 296.524ZM196.107 293.299C196.83 293.236 197.252 293.722 197.318 294.24L194.955 294.447C195.039 293.762 195.445 293.357 196.107 293.299ZM202.474 296.026C201.609 296.102 200.931 295.515 200.852 294.608C200.773 293.712 201.338 293.006 202.183 292.932C202.713 292.885 203.141 293.084 203.416 293.419L204.357 292.557C203.823 291.967 203.033 291.626 202.096 291.708C200.324 291.863 199.376 293.229 199.507 294.726C199.638 296.223 200.809 297.403 202.581 297.248C203.518 297.166 204.236 296.693 204.66 296.02L203.584 295.334C203.37 295.712 202.984 295.982 202.474 296.026ZM205.698 296.77L206.992 296.657L206.699 293.306C206.864 292.964 207.172 292.495 207.823 292.438C208.465 292.382 208.879 292.777 208.939 293.459L209.202 296.464L210.506 296.35L210.238 293.294C210.106 291.777 209.153 291.09 208.042 291.188C207.36 291.247 206.905 291.554 206.578 291.931L206.324 289.019L205.03 289.132L205.698 296.77ZM216.627 294.973L215.636 294.32C215.393 294.711 214.926 294.998 214.366 295.047C213.561 295.118 212.936 294.782 212.73 293.836L216.326 293.521C216.351 293.345 216.369 293.076 216.344 292.791C216.226 291.447 215.205 290.561 213.779 290.686C212.098 290.833 211.25 292.169 211.383 293.687C211.514 295.184 212.654 296.367 214.477 296.208C215.445 296.123 216.205 295.656 216.627 294.973ZM213.841 291.748C214.564 291.684 214.986 292.171 215.052 292.688L212.689 292.895C212.773 292.211 213.179 291.806 213.841 291.748ZM217.872 295.705L219.166 295.592L218.878 292.302C219.043 291.96 219.42 291.578 220.052 291.522C220.286 291.502 220.462 291.517 220.628 291.544L220.517 290.271C220.391 290.241 220.236 290.223 220.063 290.239C219.482 290.289 219.067 290.593 218.761 290.968L218.717 290.459L217.423 290.572L217.872 295.705ZM224.167 294.128C223.301 294.204 222.624 293.617 222.544 292.71C222.466 291.814 223.03 291.108 223.876 291.034C224.405 290.988 224.833 291.186 225.109 291.521L226.049 290.659C225.515 290.069 224.726 289.728 223.789 289.81C222.017 289.965 221.069 291.331 221.2 292.828C221.331 294.325 222.502 295.506 224.274 295.351C225.211 295.269 225.929 294.795 226.352 294.122L225.276 293.436C225.063 293.814 224.676 294.084 224.167 294.128ZM227.391 294.873L228.684 294.759L228.391 291.409C228.556 291.066 228.864 290.597 229.516 290.54C230.158 290.484 230.572 290.879 230.632 291.561L230.895 294.566L232.198 294.452L231.931 291.396C231.798 289.879 230.845 289.193 229.735 289.29C229.053 289.349 228.597 289.656 228.271 290.034L228.016 287.121L226.723 287.234L227.391 294.873ZM238.32 293.075L237.329 292.423C237.086 292.813 236.618 293.101 236.058 293.15C235.254 293.22 234.629 292.885 234.423 291.938L238.018 291.623C238.044 291.447 238.061 291.178 238.036 290.893C237.919 289.549 236.897 288.663 235.471 288.788C233.791 288.935 232.943 290.271 233.076 291.789C233.207 293.286 234.347 294.469 236.17 294.31C237.137 294.225 237.897 293.758 238.32 293.075ZM235.533 289.85C236.257 289.787 236.679 290.273 236.745 290.791L234.382 290.997C234.466 290.313 234.871 289.908 235.533 289.85Z" fill="#3B69D1"/>
<path d="M289.908 272.117L287.983 270.639C286.439 269.448 284.988 268.214 283.629 266.936C282.27 265.658 281.512 264.128 281.356 262.346C281.225 260.846 281.625 259.55 282.555 258.456C283.486 257.363 284.701 256.75 286.2 256.619C287.035 256.546 287.799 256.65 288.494 256.932C289.188 257.213 289.757 257.52 290.199 257.852C290.577 257.448 291.084 257.047 291.719 256.65C292.354 256.252 293.089 256.017 293.924 255.944C295.423 255.812 296.726 256.204 297.832 257.12C298.939 258.035 299.558 259.242 299.689 260.742C299.845 262.524 299.365 264.162 298.248 265.657C297.132 267.152 295.923 268.611 294.622 270.037L292.963 271.849C292.575 272.297 292.084 272.546 291.49 272.598C290.895 272.65 290.368 272.49 289.908 272.117ZM289.346 260.321C289.07 259.932 288.676 259.578 288.163 259.259C287.651 258.94 287.062 258.81 286.397 258.868C285.52 258.945 284.816 259.292 284.286 259.908C283.755 260.525 283.528 261.272 283.605 262.149C283.672 262.913 284.007 263.689 284.611 264.477C285.214 265.265 285.922 266.026 286.734 266.76C287.547 267.495 288.376 268.171 289.222 268.788C290.066 269.405 290.756 269.919 291.291 270.328C291.746 269.832 292.337 269.207 293.061 268.452C293.787 267.697 294.486 266.888 295.159 266.023C295.831 265.159 296.396 264.287 296.854 263.406C297.311 262.525 297.506 261.702 297.44 260.938C297.363 260.061 297.01 259.365 296.38 258.85C295.751 258.335 294.998 258.116 294.121 258.193C293.456 258.251 292.895 258.482 292.438 258.885C291.982 259.288 291.659 259.705 291.468 260.135C291.372 260.343 291.234 260.509 291.052 260.632C290.87 260.754 290.68 260.824 290.482 260.842C290.27 260.86 290.064 260.825 289.863 260.736C289.663 260.646 289.491 260.508 289.346 260.321Z" fill="#646464"/>
<path d="M277.153 290.519L278.111 290.435L277.828 287.206L280.293 286.991L280.223 286.186L277.758 286.402L277.558 284.12L280.43 283.869L280.359 283.054L276.53 283.389L277.153 290.519ZM283.41 290.115C284.072 290.057 284.718 289.703 285.062 289.17L285.119 289.822L285.984 289.746L285.683 286.304C285.584 285.173 284.743 284.477 283.44 284.591C282.544 284.669 281.853 285.11 281.459 285.76L282.154 286.202C282.432 285.736 282.886 285.419 283.477 285.368C284.21 285.304 284.755 285.666 284.818 286.379L284.849 286.736L283.142 287.173C282.068 287.451 281.526 288.053 281.594 288.827C281.67 289.703 282.402 290.203 283.41 290.115ZM282.467 288.72C282.429 288.282 282.717 287.938 283.409 287.755L284.904 287.367L284.992 288.376C284.704 288.955 284.173 289.33 283.49 289.39C282.889 289.442 282.505 289.158 282.467 288.72ZM286.448 284.533L288.904 289.491L290.045 289.391L291.602 284.082L290.665 284.164L289.395 288.534L287.385 284.451L286.448 284.533ZM294.908 283.588C293.248 283.733 292.239 285.104 292.37 286.601C292.501 288.098 293.733 289.274 295.393 289.128C297.043 288.984 298.062 287.612 297.931 286.115C297.8 284.618 296.558 283.443 294.908 283.588ZM295.332 288.313C294.232 288.409 293.37 287.591 293.276 286.522C293.183 285.453 293.89 284.498 294.99 284.402C296.059 284.308 296.921 285.126 297.014 286.195C297.107 287.254 296.401 288.219 295.332 288.313ZM299.547 288.56L300.413 288.484L300.105 284.96C300.375 284.413 300.783 284.028 301.455 283.969C301.658 283.952 301.813 283.959 301.969 283.986L301.895 283.141C301.77 283.111 301.615 283.104 301.452 283.118C300.8 283.175 300.358 283.511 300.02 283.992L299.964 283.351L299.098 283.426L299.547 288.56ZM303.467 281.7C303.804 281.67 304.044 281.372 304.015 281.036C303.986 280.71 303.697 280.458 303.361 280.488C303.025 280.517 302.774 280.816 302.803 281.142C302.832 281.478 303.131 281.729 303.467 281.7ZM303.595 288.205L304.461 288.13L304.012 282.996L303.146 283.072L303.595 288.205ZM305.639 287.318C306.159 287.858 306.829 288.128 307.644 288.056C308.601 287.973 309.312 287.305 309.239 286.347C309.086 284.595 306.541 285.187 306.44 284.036C306.405 283.639 306.672 283.287 307.222 283.239C307.67 283.2 308.079 283.41 308.388 283.773L308.944 283.212C308.544 282.744 307.882 282.453 307.149 282.517C306.161 282.603 305.536 283.325 305.607 284.13C305.765 285.942 308.296 285.311 308.397 286.461C308.436 286.91 308.141 287.284 307.57 287.334C307.051 287.38 306.601 287.162 306.205 286.746L305.639 287.318Z" fill="#646464"/>
</g>
</g>
<g filter="url(#filter1_d_4866_12777)">
<rect x="11.0199" y="43.8937" width="223.292" height="65.7508" rx="5.19859" transform="rotate(-5 11.0199 43.8937)" fill="white" shape-rendering="crispEdges"/>
<path d="M31.1454 64.7871C30.9563 62.6253 31.5522 60.7216 32.933 59.076C34.3138 57.4304 36.0851 56.5131 38.2468 56.3239L38.3981 58.0533C36.712 58.2009 35.3331 58.9131 34.2616 60.1901C33.1896 61.4677 32.7273 62.9496 32.8748 64.6358L31.1454 64.7871ZM34.6042 64.4845C34.4996 63.2883 34.832 62.2316 35.6016 61.3145C36.3707 60.398 37.3533 59.8874 38.5494 59.7827L38.7007 61.5121C37.9802 61.5752 37.3897 61.8809 36.9295 62.4295C36.4692 62.978 36.2706 63.6126 36.3336 64.3331L34.6042 64.4845ZM27.0814 58.1721C26.6059 58.2137 26.1838 58.0799 25.8152 57.7706C25.4472 57.4618 25.2424 57.0696 25.2008 56.594C25.1591 56.1184 25.2927 55.6964 25.6014 55.3278C25.9108 54.9598 26.3033 54.7549 26.7788 54.7133C27.2544 54.6717 27.6762 54.8053 28.0442 55.1141C28.4128 55.4234 28.6179 55.8158 28.6595 56.2914C28.7011 56.767 28.5673 57.1888 28.2579 57.5568C27.9492 57.9254 27.557 58.1305 27.0814 58.1721ZM24.8656 62.7225L24.6765 60.5608C24.645 60.2005 24.7444 59.8834 24.9749 59.6094C25.2047 59.3348 25.4998 59.1818 25.8601 59.1503L28.4541 58.9233C29.1027 58.8666 29.6433 58.6122 30.076 58.1602C30.5082 57.7088 30.7548 57.1682 30.8159 56.5384L32.5453 56.3871C32.5344 57.2594 32.2842 58.0509 31.7946 58.7618C31.3049 59.4726 30.6679 59.993 29.8836 60.3231L30.0538 62.2686L24.8656 62.7225ZM40.0193 66.6246C39.5437 66.6662 39.1217 66.5327 38.7531 66.2239C38.3851 65.9146 38.1802 65.5221 38.1386 65.0465C38.097 64.571 38.2306 64.1489 38.5393 63.7803C38.8487 63.4123 39.2411 63.2075 39.7167 63.1658C40.1923 63.1242 40.6144 63.2578 40.9829 63.5665C41.351 63.8759 41.5558 64.2684 41.5974 64.7439C41.639 65.2195 41.5055 65.6416 41.1967 66.0102C40.8874 66.3782 40.4949 66.583 40.0193 66.6246ZM37.8035 71.1751L37.6333 69.2295C36.8035 69.0407 36.0859 68.6388 35.4802 68.0238C34.8746 67.4087 34.4907 66.6727 34.3286 65.8155L36.058 65.6642C36.2275 66.2738 36.5643 66.7637 37.0683 67.1337C37.5729 67.5032 38.1494 67.6595 38.7979 67.6028L41.392 67.3758C41.7523 67.3443 42.0695 67.4438 42.3435 67.6742C42.618 67.9041 42.771 68.1991 42.8025 68.5594L42.9917 70.7211L37.8035 71.1751Z" fill="#FCBF49"/>
<path d="M54.1549 56.6494C51.2884 56.9002 49.5228 59.2765 49.7498 61.8706C49.9767 64.4647 52.1282 66.4983 54.9946 66.2475C57.8481 65.9979 59.6138 63.6215 59.3868 61.0274C59.1598 58.4334 57.0084 56.3997 54.1549 56.6494ZM54.8437 64.5224C53.1316 64.6722 51.7955 63.4429 51.6435 61.7049C51.4914 59.9669 52.5937 58.5242 54.3058 58.3745C56.005 58.2258 57.3411 59.4551 57.4931 61.1931C57.6452 62.9312 56.5428 64.3738 54.8437 64.5224ZM60.054 58.9563L60.1834 60.435L61.4026 60.3283L61.8451 65.3868L63.5054 65.2415L63.0628 60.1831L65.0602 60.0083L64.9309 58.5297L62.9334 58.7044L62.8699 57.9781C62.8177 57.3814 63.1468 56.9606 63.7046 56.9118C64.0418 56.8823 64.3114 56.9763 64.5184 57.1019L65.0986 55.6658C64.6642 55.4816 64.1459 55.3832 63.5492 55.4354C61.915 55.5784 61.0917 56.7744 61.2131 58.1622L61.2732 58.8497L60.054 58.9563ZM65.5766 58.4732L65.7059 59.9518L66.9252 59.8451L67.3677 64.9036L69.0279 64.7584L68.5854 59.6999L70.5828 59.5251L70.4534 58.0465L68.456 58.2213L68.3925 57.4949C68.3403 56.8983 68.6694 56.4774 69.2271 56.4286C69.5643 56.3991 69.834 56.4931 70.041 56.6188L70.6211 55.1826C70.1868 54.9985 69.6684 54.9 69.0718 54.9522C67.4375 55.0952 66.6142 56.2912 66.7356 57.6791L66.7958 58.3665L65.5766 58.4732ZM72.0699 64.4922L73.7171 64.3481L73.3506 60.1587C73.5607 59.722 74.041 59.2357 74.8451 59.1653C75.1435 59.1392 75.3674 59.1588 75.5794 59.1925L75.4376 57.5712C75.2774 57.533 75.0794 57.5111 74.8589 57.5304C74.1196 57.5951 73.5914 57.9811 73.202 58.4595L73.1452 57.811L71.498 57.9551L72.0699 64.4922ZM82.9857 62.4655L81.7237 61.6349C81.4143 62.1325 80.819 62.4982 80.1056 62.5606C79.0809 62.6503 78.2855 62.2232 78.0232 61.0176L82.6018 60.617C82.6344 60.392 82.6568 60.0502 82.625 59.6871C82.4752 57.975 81.1741 56.8472 79.3582 57.006C77.2181 57.1933 76.1385 58.8953 76.3076 60.8279C76.4744 62.7346 77.9262 64.2412 80.2479 64.0381C81.4801 63.9303 82.4476 63.336 82.9857 62.4655ZM79.4374 58.3584C80.3583 58.2778 80.896 58.8973 80.9798 59.5565L77.9707 59.8198C78.0774 58.9479 78.5943 58.4321 79.4374 58.3584ZM83.8295 62.5093C84.5167 63.1941 85.3877 63.5885 86.555 63.4863C87.7872 63.3785 88.8239 62.5298 88.7295 61.1527C88.5321 58.8958 85.4402 59.5584 85.3427 58.4429C85.3132 58.1057 85.5346 57.7988 86.0534 57.7534C86.5593 57.7091 87.0168 58.0089 87.3904 58.3945L88.3959 57.3393C87.8734 56.7446 86.9234 56.3442 85.9247 56.4316C84.5628 56.5507 83.6661 57.5048 83.7671 58.6592C83.9679 60.955 87.0564 60.2535 87.1562 61.3949C87.1903 61.784 86.9451 62.1191 86.4133 62.1656C85.7907 62.2201 85.2791 61.8989 84.8327 61.4282L83.8295 62.5093ZM93.1539 59.354C93.3207 61.2607 94.7207 62.7719 96.783 62.5915C97.665 62.5143 98.2767 62.1863 98.7383 61.6362L98.7837 62.1551L100.444 62.0098L99.5928 52.282L97.9326 52.4272L98.2571 56.1368C97.707 55.6752 97.0477 55.4584 96.1657 55.5356C94.1034 55.716 92.9871 57.4474 93.1539 59.354ZM94.879 59.2031C94.7791 58.0617 95.4199 57.1692 96.5353 57.0716C97.2746 57.0069 97.9115 57.2649 98.4047 57.8229L98.5908 59.9501C98.202 60.5853 97.6196 60.9499 96.8803 61.0146C95.7648 61.1122 94.9788 60.3445 94.879 59.2031ZM102.831 56.4163L104.008 52.5492L102.141 52.7126L101.3 56.5502L102.831 56.4163ZM106.276 53.7623C106.859 53.7113 107.296 53.1764 107.245 52.5928C107.194 52.0091 106.671 51.5582 106.087 51.6093C105.504 51.6603 105.054 52.1963 105.105 52.78C105.156 53.3637 105.692 53.8134 106.276 53.7623ZM106.117 61.5135L107.764 61.3693L107.193 54.8323L105.545 54.9764L106.117 61.5135ZM109.74 61.1965L111.387 61.0524L111.014 56.7851C111.224 56.3485 111.564 55.7568 112.316 55.6909C113.056 55.6263 113.527 56.0817 113.596 56.8729L113.942 60.8289L115.602 60.6836L115.251 56.6628C115.242 56.559 115.234 56.4682 115.213 56.3786C115.434 55.9149 115.78 55.388 116.493 55.3255C117.232 55.2609 117.703 55.7163 117.773 56.5075L118.119 60.4635L119.779 60.3182L119.427 56.2974C119.266 54.4556 118.121 53.6148 116.772 53.7328C115.669 53.8292 115.09 54.3766 114.673 54.9881C114.184 54.3252 113.425 54.0256 112.595 54.0982C111.791 54.1685 111.262 54.5416 110.858 55.0082L110.815 54.5153L109.168 54.6594L109.74 61.1965ZM121.659 60.1537L123.306 60.0096L122.933 55.7424C123.143 55.3057 123.483 54.714 124.236 54.6482C124.975 54.5835 125.446 55.0389 125.515 55.8301L125.861 59.7861L127.522 59.6408L127.17 55.62C127.161 55.5162 127.153 55.4254 127.132 55.3358C127.353 54.8721 127.699 54.3452 128.412 54.2828C129.151 54.2181 129.623 54.6735 129.692 55.4647L130.038 59.4207L131.698 59.2754L131.346 55.2546C131.185 53.4128 130.04 52.572 128.691 52.69C127.588 52.7864 127.009 53.3338 126.592 53.9453C126.103 53.2824 125.345 52.9828 124.514 53.0554C123.71 53.1257 123.181 53.4988 122.777 53.9654L122.734 53.4725L121.087 53.6166L121.659 60.1537ZM139.503 57.5208L138.241 56.6902C137.932 57.1878 137.337 57.5536 136.623 57.616C135.599 57.7056 134.803 57.2786 134.541 56.073L139.119 55.6724C139.152 55.4474 139.174 55.1056 139.143 54.7424C138.993 53.0303 137.692 51.9025 135.876 52.0614C133.736 52.2486 132.656 53.9507 132.825 55.8833C132.992 57.7899 134.444 59.2966 136.766 59.0935C137.998 58.9857 138.965 58.3913 139.503 57.5208ZM135.955 53.4137C136.876 53.3332 137.414 53.9527 137.497 54.6119L134.488 54.8751C134.595 54.0032 135.112 53.4875 135.955 53.4137ZM141.089 58.4538L142.736 58.3097L142.37 54.1202C142.58 53.6836 143.06 53.1972 143.864 53.1269C144.163 53.1008 144.387 53.1204 144.599 53.1541L144.457 51.5328C144.297 51.4946 144.099 51.4727 143.878 51.492C143.139 51.5567 142.611 51.9427 142.221 52.4211L142.165 51.7726L140.517 51.9167L141.089 58.4538ZM145.705 57.0959C146.392 57.7807 147.263 58.1751 148.43 58.0729C149.663 57.9651 150.699 57.1164 150.605 55.7392C150.408 53.4824 147.316 54.145 147.218 53.0295C147.189 52.6923 147.41 52.3854 147.929 52.34C148.435 52.2957 148.892 52.5955 149.266 52.9811L150.271 51.9259C149.749 51.3312 148.799 50.9308 147.8 51.0181C146.438 51.1373 145.542 52.0914 145.643 53.2458C145.843 55.5416 148.932 54.8401 149.032 55.9815C149.066 56.3706 148.821 56.7057 148.289 56.7522C147.666 56.8067 147.155 56.4855 146.708 56.0148L145.705 57.0959ZM152.445 49.7231C153.028 49.672 153.465 49.1371 153.414 48.5535C153.363 47.9698 152.84 47.5189 152.256 47.57C151.673 47.621 151.223 48.157 151.274 48.7407C151.325 49.3244 151.861 49.7741 152.445 49.7231ZM152.286 57.4742L153.934 57.3301L153.362 50.793L151.714 50.9371L152.286 57.4742ZM158.427 50.0884C156.3 50.2745 154.985 51.971 155.156 53.9296C155.327 55.8881 156.917 57.3304 159.045 57.1443C161.172 56.9582 162.487 55.2617 162.316 53.3032C162.144 51.3446 160.554 49.9023 158.427 50.0884ZM158.934 55.5856C157.845 55.6809 156.968 54.9212 156.868 53.7798C156.768 52.6384 157.5 51.7379 158.589 51.6426C159.64 51.5507 160.504 52.3116 160.604 53.453C160.702 54.5814 159.985 55.4937 158.934 55.5856ZM164.104 56.4403L165.751 56.2961L165.378 52.0289C165.588 51.5923 165.98 50.996 166.81 50.9233C167.615 50.853 168.155 51.3546 168.231 52.2236L168.566 56.0499L170.226 55.9047L169.886 52.0135C169.717 50.0809 168.503 49.2069 167.089 49.3306C166.22 49.4066 165.64 49.7972 165.225 50.2779L165.179 49.7591L163.532 49.9032L164.104 56.4403Z" fill="#161616"/>
<rect x="28.9184" y="84.1508" width="60.5428" height="13.671" rx="6.82314" transform="rotate(-5 28.9184 84.1508)" fill="#F1F1F1"/>
<rect x="94.4189" y="78.4203" width="41.0129" height="13.671" rx="6.82314" transform="rotate(-5 94.4189 78.4203)" fill="#F1F1F1"/>
<rect x="140.464" y="74.3919" width="82.6768" height="13.671" rx="6.82314" transform="rotate(-5 140.464 74.3919)" fill="#F1F1F1"/>
</g>
<g filter="url(#filter2_d_4866_12777)">
<rect x="25.3421" y="78.3967" width="223.292" height="65.7508" rx="5.19859" transform="rotate(-5 25.3421 78.3967)" fill="white" shape-rendering="crispEdges"/>
<g clip-path="url(#clip2_4866_12777)">
<path d="M39.6522 105.027C39.4649 105.043 39.3046 104.995 39.1714 104.884C39.0382 104.772 38.9634 104.622 38.947 104.435L38.7011 101.625C38.6646 101.207 38.7811 100.837 39.0507 100.516C39.3202 100.195 39.664 100.016 40.0819 99.979L43.13 99.7124C43.375 99.6909 43.6145 99.7317 43.8486 99.8346C44.0827 99.9376 44.2885 100.09 44.4659 100.293C44.9368 100.861 45.511 101.283 46.1886 101.558C46.8661 101.832 47.5723 101.938 48.3073 101.873C49.0423 101.809 49.7196 101.583 50.3391 101.195C50.9586 100.806 51.4581 100.291 51.8375 99.6476C51.9771 99.4176 52.1496 99.2318 52.3551 99.0904C52.5605 98.949 52.7857 98.8676 53.0307 98.8461L56.0788 98.5795C56.4967 98.5429 56.8663 98.6594 57.1876 98.929C57.5089 99.1986 57.6878 99.5424 57.7244 99.9603L57.9703 102.771C57.9866 102.958 57.939 103.118 57.8272 103.251C57.7154 103.385 57.5658 103.459 57.3785 103.476L53.055 103.854C52.8677 103.87 52.7074 103.823 52.5742 103.711C52.4409 103.599 52.3661 103.45 52.3497 103.262L52.1814 101.338C51.7042 101.859 51.1419 102.279 50.4944 102.597C49.847 102.915 49.1558 103.106 48.4208 103.17C47.6858 103.235 46.9755 103.166 46.2899 102.965C45.6042 102.763 44.974 102.448 44.3992 102.019L44.5675 103.943C44.5839 104.131 44.5362 104.291 44.4244 104.424C44.3126 104.557 44.1631 104.632 43.9757 104.648L39.6522 105.027ZM48.1938 100.576C47.6894 100.62 47.1926 100.544 46.7035 100.347C46.2143 100.15 45.8073 99.8557 45.4825 99.463C45.2229 99.1517 44.9222 98.9093 44.5803 98.7359C44.2383 98.5625 43.8769 98.4562 43.4959 98.4169C43.876 97.948 44.5027 97.5592 45.3761 97.2504C46.2494 96.9417 47.0752 96.7533 47.8534 96.6852C48.6316 96.6171 49.4812 96.6589 50.4021 96.8107C51.323 96.9625 52.0113 97.2363 52.4671 97.6321C52.0987 97.7369 51.7612 97.9044 51.4546 98.1345C51.148 98.3646 50.8939 98.6555 50.6923 99.0072C50.4406 99.4503 50.091 99.8113 49.6434 100.09C49.1959 100.369 48.7127 100.531 48.1938 100.576ZM41.0304 98.3712C40.3675 98.4292 39.7853 98.2478 39.2837 97.827C38.7822 97.4062 38.5025 96.8643 38.4445 96.2014C38.3865 95.5384 38.5679 94.9562 38.9887 94.4547C39.4095 93.9532 39.9514 93.6734 40.6143 93.6154C41.2773 93.5574 41.8595 93.7388 42.361 94.1597C42.8625 94.5805 43.1423 95.1224 43.2003 95.7853C43.2583 96.4482 43.0769 97.0305 42.6561 97.532C42.2352 98.0335 41.6934 98.3132 41.0304 98.3712ZM54.8655 97.1608C54.2026 97.2188 53.6204 97.0374 53.1189 96.6166C52.6173 96.1958 52.3376 95.6539 52.2796 94.991C52.2216 94.328 52.403 93.7458 52.8238 93.2443C53.2446 92.7428 53.7865 92.463 54.4495 92.405C55.1124 92.347 55.6946 92.5284 56.1961 92.9492C56.6976 93.3701 56.9774 93.9119 57.0354 94.5749C57.0934 95.2378 56.912 95.82 56.4912 96.3216C56.0703 96.8231 55.5285 97.1028 54.8655 97.1608ZM47.721 95.172C47.0581 95.23 46.4759 95.0485 45.9743 94.6277C45.4728 94.2069 45.1931 93.665 45.1351 93.0021C45.0771 92.3392 45.2585 91.7569 45.6793 91.2554C46.1001 90.7539 46.642 90.4741 47.3049 90.4161C47.9679 90.3581 48.5501 90.5395 49.0516 90.9604C49.5531 91.3812 49.8329 91.9231 49.8909 92.586C49.9489 93.2489 49.7675 93.8312 49.3467 94.3327C48.9258 94.8342 48.384 95.114 47.721 95.172Z" fill="#15616D"/>
</g>
<path d="M68.4771 91.1523C65.6107 91.4031 63.8451 93.7794 64.072 96.3735C64.299 98.9676 66.4504 101.001 69.3169 100.75C72.1704 100.501 73.936 98.1245 73.709 95.5304C73.4821 92.9363 71.3306 90.9027 68.4771 91.1523ZM69.1659 99.0254C67.4539 99.1752 66.1178 97.9459 65.9657 96.2078C65.8136 94.4698 66.916 93.0272 68.6281 92.8774C70.3272 92.7287 71.6633 93.958 71.8154 95.6961C71.9674 97.4341 70.8651 98.8767 69.1659 99.0254ZM74.3762 93.4593L74.5056 94.9379L75.7248 94.8312L76.1674 99.8897L77.8276 99.7445L77.385 94.686L79.3825 94.5112L79.2531 93.0326L77.2557 93.2074L77.1921 92.481C77.1399 91.8844 77.4691 91.4635 78.0268 91.4147C78.364 91.3852 78.6336 91.4792 78.8407 91.6049L79.4208 90.1687C78.9864 89.9846 78.4681 89.8861 77.8715 89.9383C76.2372 90.0813 75.4139 91.2773 75.5353 92.6652L75.5955 93.3526L74.3762 93.4593ZM79.8988 92.9761L80.0282 94.4547L81.2474 94.3481L81.6899 99.4065L83.3502 99.2613L82.9076 94.2028L84.905 94.0281L84.7757 92.5495L82.7782 92.7242L82.7147 91.9979C82.6625 91.4012 82.9916 90.9803 83.5493 90.9315C83.8866 90.902 84.1562 90.9961 84.3632 91.1217L84.9434 89.6856C84.509 89.5014 83.9907 89.403 83.394 89.4552C81.7598 89.5982 80.9365 90.7942 81.0579 92.182L81.118 92.8695L79.8988 92.9761ZM86.3921 98.9952L88.0394 98.851L87.6728 94.6616C87.883 94.225 88.3632 93.7386 89.1674 93.6682C89.4657 93.6421 89.6896 93.6618 89.9017 93.6955L89.7598 92.0742C89.5996 92.0359 89.4017 92.014 89.1812 92.0333C88.4419 92.098 87.9136 92.484 87.5242 92.9625L87.4674 92.314L85.8202 92.4581L86.3921 98.9952ZM97.3079 96.9684L96.0459 96.1378C95.7366 96.6354 95.1412 97.0012 94.4278 97.0636C93.4032 97.1532 92.6078 96.7262 92.3455 95.5206L96.924 95.12C96.9566 94.8949 96.979 94.5532 96.9472 94.19C96.7974 92.4779 95.4963 91.3501 93.6805 91.509C91.5404 91.6962 90.4607 93.3983 90.6298 95.3308C90.7966 97.2375 92.2485 98.7442 94.5702 98.5411C95.8024 98.4333 96.7698 97.8389 97.3079 96.9684ZM93.7596 92.8613C94.6805 92.7807 95.2183 93.4003 95.3021 94.0595L92.2929 94.3227C92.3996 93.4508 92.9165 92.9351 93.7596 92.8613ZM98.1517 97.0122C98.8389 97.6971 99.7099 98.0914 100.877 97.9893C102.109 97.8815 103.146 97.0327 103.052 95.6556C102.854 93.3987 99.7625 94.0613 99.6649 92.9459C99.6354 92.6086 99.8569 92.3017 100.376 92.2563C100.882 92.2121 101.339 92.5119 101.713 92.8974L102.718 91.8423C102.196 91.2476 101.246 90.8471 100.247 90.9345C98.8851 91.0536 97.9883 92.0078 98.0893 93.1621C98.2902 95.4579 101.379 94.7564 101.478 95.8978C101.512 96.2869 101.267 96.622 100.736 96.6686C100.113 96.723 99.6013 96.4018 99.155 95.9312L98.1517 97.0122ZM107.476 93.857C107.643 95.7636 109.043 97.2749 111.105 97.0944C111.987 97.0173 112.599 96.6893 113.061 96.1392L113.106 96.658L114.766 96.5128L113.915 86.7849L112.255 86.9302L112.579 90.6397C112.029 90.1781 111.37 89.9614 110.488 90.0385C108.426 90.219 107.309 91.9503 107.476 93.857ZM109.201 93.7061C109.101 92.5647 109.742 91.6721 110.858 91.5746C111.597 91.5099 112.234 91.7678 112.727 92.3259L112.913 94.453C112.524 95.0883 111.942 95.4529 111.203 95.5176C110.087 95.6151 109.301 94.8475 109.201 93.7061ZM122.666 94.7499L121.404 93.9193C121.095 94.4168 120.499 94.7826 119.786 94.845C118.761 94.9347 117.966 94.5076 117.704 93.302L122.282 92.9014C122.315 92.6764 122.337 92.3346 122.305 91.9715C122.156 90.2594 120.855 89.1316 119.039 89.2904C116.899 89.4777 115.819 91.1797 115.988 93.1123C116.155 95.0189 117.607 96.5256 119.928 96.3225C121.161 96.2147 122.128 95.6204 122.666 94.7499ZM119.118 90.6428C120.039 90.5622 120.576 91.1817 120.66 91.8409L117.651 92.1042C117.758 91.2323 118.275 90.7165 119.118 90.6428ZM127.094 94.4801C127.782 95.1649 128.653 95.5592 129.82 95.4571C131.052 95.3493 132.089 94.5006 131.995 93.1234C131.797 90.8666 128.705 91.5292 128.608 90.4137C128.578 90.0765 128.8 89.7696 129.318 89.7242C129.824 89.6799 130.282 89.9797 130.655 90.3653L131.661 89.3101C131.138 88.7154 130.188 88.315 129.19 88.4023C127.828 88.5215 126.931 89.4756 127.032 90.63C127.233 92.9257 130.321 92.2242 130.421 93.3656C130.455 93.7547 130.21 94.0899 129.678 94.1364C129.056 94.1909 128.544 93.8697 128.098 93.399L127.094 94.4801ZM139.576 93.2705L138.314 92.4399C138.004 92.9374 137.409 93.3032 136.696 93.3656C135.671 93.4553 134.876 93.0282 134.613 91.8226L139.192 91.422C139.224 91.197 139.247 90.8552 139.215 90.492C139.065 88.78 137.764 87.6522 135.948 87.811C133.808 87.9983 132.729 89.7003 132.898 91.6329C133.064 93.5395 134.516 95.0462 136.838 94.8431C138.07 94.7353 139.038 94.1409 139.576 93.2705ZM136.027 89.1634C136.948 89.0828 137.486 89.7023 137.57 90.3615L134.561 90.6248C134.667 89.7528 135.184 89.2371 136.027 89.1634ZM141.162 94.2034L142.809 94.0593L142.442 89.8699C142.653 89.4333 143.133 88.9469 143.937 88.8765C144.235 88.8504 144.459 88.87 144.671 88.9038L144.529 87.2825C144.369 87.2442 144.171 87.2223 143.951 87.2416C143.211 87.3063 142.683 87.6923 142.294 88.1708L142.237 87.5222L140.59 87.6663L141.162 94.2034ZM145.255 87.2582L148.2 93.5877L150.366 93.3982L152.181 86.6523L150.404 86.8077L149.126 91.6246L147.018 87.1039L145.255 87.2582ZM153.948 85.3475C154.532 85.2964 154.969 84.7616 154.918 84.1779C154.867 83.5942 154.344 83.1433 153.76 83.1944C153.176 83.2455 152.727 83.7815 152.778 84.3651C152.829 84.9488 153.365 85.3985 153.948 85.3475ZM153.79 93.0986L155.437 92.9545L154.865 86.4174L153.218 86.5615L153.79 93.0986ZM160.438 91.21C159.336 91.3065 158.473 90.5585 158.372 89.4042C158.272 88.2628 158.991 87.3634 160.067 87.2693C160.742 87.2103 161.287 87.4632 161.638 87.8899L162.835 86.7918C162.155 86.041 161.15 85.6061 159.957 85.7105C157.7 85.908 156.493 87.6473 156.66 89.554C156.827 91.4606 158.317 92.9639 160.574 92.7665C161.768 92.6621 162.682 92.0593 163.221 91.2018L161.851 90.3284C161.579 90.8096 161.087 91.1533 160.438 91.21ZM170.216 90.5898L168.954 89.7592C168.644 90.2568 168.049 90.6225 167.336 90.685C166.311 90.7746 165.516 90.3475 165.253 89.1419L169.832 88.7414C169.865 88.5163 169.887 88.1746 169.855 87.8114C169.705 86.0993 168.404 84.9715 166.588 85.1304C164.448 85.3176 163.369 87.0196 163.538 88.9522C163.705 90.8589 165.156 92.3656 167.478 92.1624C168.71 92.0546 169.678 91.4603 170.216 90.5898ZM166.668 86.4827C167.588 86.4021 168.126 87.0216 168.21 87.6809L165.201 87.9441C165.308 87.0722 165.824 86.5565 166.668 86.4827ZM178.323 89.6453C177.221 89.7417 176.358 88.9938 176.257 87.8394C176.157 86.698 176.876 85.7987 177.952 85.7045C178.627 85.6455 179.172 85.8985 179.523 86.3252L180.72 85.2271C180.04 84.4763 179.035 84.0414 177.842 84.1458C175.585 84.3433 174.378 86.0826 174.545 87.9892C174.712 89.8959 176.202 91.3992 178.459 91.2017C179.653 91.0973 180.567 90.4945 181.106 89.637L179.736 88.7636C179.464 89.2448 178.972 89.5885 178.323 89.6453ZM182.587 82.8419C183.171 82.7908 183.608 82.256 183.557 81.6723C183.506 81.0886 182.983 80.6378 182.399 80.6888C181.815 80.7399 181.365 81.2759 181.417 81.8596C181.468 82.4432 182.004 82.893 182.587 82.8419ZM182.429 90.593L184.076 90.4489L183.504 83.9118L181.857 84.0559L182.429 90.593ZM184.546 83.8207L187.491 90.1501L189.657 89.9606L191.472 83.2147L189.695 83.3702L188.417 88.1871L186.31 83.6664L184.546 83.8207ZM193.24 81.9099C193.823 81.8589 194.26 81.324 194.209 80.7403C194.158 80.1567 193.635 79.7058 193.051 79.7569C192.468 79.8079 192.018 80.3439 192.069 80.9276C192.12 81.5112 192.656 81.961 193.24 81.9099ZM193.081 89.6611L194.729 89.5169L194.157 82.9798L192.509 83.124L193.081 89.6611ZM195.951 86.1164C196.118 88.0231 197.505 89.5354 199.58 89.3539C200.462 89.2767 201.073 88.9358 201.534 88.3857L201.86 92.1082L203.52 91.9629L202.669 82.2351L201.009 82.3804L201.055 82.9121C200.505 82.4506 199.845 82.2208 198.963 82.298C196.888 82.4795 195.784 84.2098 195.951 86.1164ZM197.663 85.9666C197.563 84.8252 198.204 83.9327 199.32 83.8351C200.059 83.7704 200.71 84.0402 201.204 84.6113L201.386 86.6865C201.036 87.3184 200.43 87.7112 199.665 87.7781C198.549 87.8757 197.763 87.108 197.663 85.9666ZM209.275 85.3951C209.357 86.342 208.916 86.9688 208.021 87.0471C207.113 87.1265 206.569 86.586 206.486 85.6391L206.161 81.9296L204.501 82.0748L204.819 85.7065C204.99 87.6651 206.224 88.7726 208.144 88.6046C210.064 88.4367 211.099 87.1306 210.928 85.1721L210.61 81.5403L208.95 81.6856L209.275 85.3951ZM218.931 86.3278L217.669 85.4972C217.36 85.9948 216.764 86.3605 216.051 86.4229C215.026 86.5126 214.231 86.0855 213.968 84.8799L218.547 84.4794C218.58 84.2543 218.602 83.9125 218.57 83.5494C218.42 81.8373 217.119 80.7095 215.303 80.8684C213.163 81.0556 212.084 82.7576 212.253 84.6902C212.42 86.5969 213.871 88.1036 216.193 87.9004C217.425 87.7926 218.393 87.1983 218.931 86.3278ZM215.383 82.2207C216.303 82.1401 216.841 82.7596 216.925 83.4188L213.916 83.6821C214.023 82.8102 214.54 82.2944 215.383 82.2207Z" fill="#161616"/>
<rect x="43.2406" y="118.654" width="60.5428" height="13.671" rx="6.82314" transform="rotate(-5 43.2406 118.654)" fill="#F1F1F1"/>
<rect x="108.741" y="112.923" width="41.0129" height="13.671" rx="6.82314" transform="rotate(-5 108.741 112.923)" fill="#F1F1F1"/>
<rect x="154.786" y="108.895" width="82.6768" height="13.671" rx="6.82314" transform="rotate(-5 154.786 108.895)" fill="#F1F1F1"/>
</g>
<g filter="url(#filter3_d_4866_12777)">
<rect x="39.0128" y="111.598" width="223.292" height="65.7508" rx="5.19859" transform="rotate(-5 39.0128 111.598)" fill="white" shape-rendering="crispEdges"/>
<path d="M62.3375 139.181C62.1502 139.198 61.9899 139.15 61.8567 139.038C61.7235 138.927 61.6487 138.777 61.6323 138.59L61.3486 135.347L56.9819 135.729C56.8522 135.74 56.7275 135.726 56.6078 135.686C56.4881 135.645 56.3812 135.586 56.2872 135.507L54.7356 134.205C54.6259 134.113 54.5444 134.011 54.4911 133.899C54.4377 133.788 54.406 133.675 54.3959 133.559C54.3859 133.444 54.3974 133.327 54.4305 133.208C54.4637 133.089 54.5263 132.974 54.6183 132.865L55.9203 131.313C55.9992 131.219 56.0941 131.142 56.2049 131.081C56.3158 131.021 56.4361 130.985 56.5658 130.973L60.9325 130.591L60.7623 128.646L55.358 129.118C55.0986 129.141 54.867 129.067 54.6632 128.896C54.4595 128.725 54.3463 128.51 54.3236 128.251L54.0739 125.397C54.0512 125.138 54.1254 124.906 54.2963 124.702C54.4673 124.499 54.6825 124.385 54.9419 124.363L60.3462 123.89L60.2327 122.593C60.2164 122.405 60.264 122.245 60.3758 122.112C60.4876 121.979 60.6372 121.904 60.8245 121.888C61.0119 121.871 61.1722 121.919 61.3054 122.031C61.4386 122.142 61.5134 122.292 61.5298 122.479L61.6433 123.776L66.01 123.394C66.1397 123.383 66.2644 123.397 66.3841 123.438C66.5038 123.478 66.6107 123.538 66.7047 123.617L68.2563 124.919C68.366 125.011 68.4475 125.112 68.5008 125.224C68.5541 125.336 68.5858 125.449 68.5959 125.564C68.606 125.68 68.5945 125.797 68.5613 125.916C68.5282 126.035 68.4656 126.149 68.3735 126.259L67.0716 127.811C66.9927 127.905 66.8978 127.982 66.7869 128.042C66.676 128.103 66.5558 128.139 66.426 128.15L62.0593 128.532L62.2296 130.478L67.6339 130.005C67.8933 129.982 68.1249 130.056 68.3286 130.227C68.5324 130.398 68.6456 130.613 68.6683 130.873L68.9179 133.726C68.9406 133.986 68.8665 134.217 68.6955 134.421C68.5246 134.625 68.3094 134.738 68.05 134.761L62.6456 135.234L62.9293 138.476C62.9457 138.664 62.898 138.824 62.7862 138.957C62.6745 139.09 62.5249 139.165 62.3375 139.181Z" fill="#5149A8"/>
<path d="M82.1478 124.353C79.2813 124.604 77.5157 126.98 77.7427 129.574C77.9696 132.168 80.1211 134.202 82.9875 133.951C85.841 133.702 87.6067 131.325 87.3797 128.731C87.1527 126.137 85.0013 124.103 82.1478 124.353ZM82.8366 132.226C81.1245 132.376 79.7884 131.147 79.6364 129.409C79.4843 127.671 80.5866 126.228 82.2987 126.078C83.9979 125.93 85.334 127.159 85.486 128.897C85.6381 130.635 84.5357 132.078 82.8366 132.226ZM88.0469 126.66L88.1763 128.139L89.3955 128.032L89.838 133.09L91.4983 132.945L91.0557 127.887L93.0531 127.712L92.9238 126.233L90.9263 126.408L90.8628 125.682C90.8106 125.085 91.1397 124.664 91.6975 124.615C92.0347 124.586 92.3043 124.68 92.5113 124.806L93.0915 123.37C92.6571 123.185 92.1388 123.087 91.5421 123.139C89.9079 123.282 89.0846 124.478 89.206 125.866L89.2661 126.553L88.0469 126.66ZM93.5695 126.177L93.6988 127.656L94.9181 127.549L95.3606 132.607L97.0208 132.462L96.5783 127.404L98.5757 127.229L98.4463 125.75L96.4489 125.925L96.3854 125.199C96.3332 124.602 96.6623 124.181 97.22 124.132C97.5572 124.103 97.8269 124.197 98.0339 124.323L98.614 122.886C98.1797 122.702 97.6613 122.604 97.0647 122.656C95.4304 122.799 94.6071 123.995 94.7285 125.383L94.7887 126.07L93.5695 126.177ZM100.063 132.196L101.71 132.052L101.344 127.862C101.554 127.426 102.034 126.939 102.838 126.869C103.136 126.843 103.36 126.863 103.572 126.896L103.43 125.275C103.27 125.237 103.072 125.215 102.852 125.234C102.113 125.299 101.584 125.685 101.195 126.163L101.138 125.515L99.4909 125.659L100.063 132.196ZM110.979 130.169L109.717 129.339C109.407 129.836 108.812 130.202 108.099 130.264C107.074 130.354 106.278 129.927 106.016 128.721L110.595 128.321C110.627 128.096 110.65 127.754 110.618 127.391C110.468 125.679 109.167 124.551 107.351 124.71C105.211 124.897 104.131 126.599 104.3 128.532C104.467 130.438 105.919 131.945 108.241 131.742C109.473 131.634 110.44 131.04 110.979 130.169ZM107.43 126.062C108.351 125.982 108.889 126.601 108.973 127.26L105.964 127.524C106.07 126.652 106.587 126.136 107.43 126.062ZM111.822 130.213C112.51 130.898 113.381 131.292 114.548 131.19C115.78 131.082 116.817 130.234 116.722 128.856C116.525 126.6 113.433 127.262 113.336 126.147C113.306 125.809 113.528 125.503 114.046 125.457C114.552 125.413 115.01 125.713 115.383 126.098L116.389 125.043C115.866 124.448 114.916 124.048 113.918 124.135C112.556 124.254 111.659 125.209 111.76 126.363C111.961 128.659 115.049 127.957 115.149 129.099C115.183 129.488 114.938 129.823 114.406 129.869C113.784 129.924 113.272 129.603 112.826 129.132L111.822 130.213ZM121.147 127.058C121.314 128.964 122.714 130.476 124.776 130.295C125.658 130.218 126.27 129.89 126.731 129.34L126.777 129.859L128.437 129.714L127.586 119.986L125.926 120.131L126.25 123.841C125.7 123.379 125.041 123.162 124.159 123.239C122.096 123.42 120.98 125.151 121.147 127.058ZM122.872 126.907C122.772 125.765 123.413 124.873 124.528 124.775C125.268 124.711 125.904 124.969 126.398 125.527L126.584 127.654C126.195 128.289 125.613 128.654 124.873 128.718C123.758 128.816 122.972 128.048 122.872 126.907ZM130.824 124.12L132.001 120.253L130.134 120.416L129.293 124.254L130.824 124.12ZM135.348 129.305C136.114 129.238 136.863 128.846 137.234 128.303L137.29 128.939L138.937 128.795L138.567 124.567C138.441 123.127 137.37 122.083 135.476 122.249C134.283 122.354 133.366 122.93 132.853 123.786L134.14 124.601C134.448 124.09 134.915 123.749 135.55 123.693C136.302 123.628 136.86 124.023 136.92 124.711L136.935 124.879L134.967 125.391C133.586 125.747 132.886 126.554 132.972 127.539C133.078 128.746 134.038 129.42 135.348 129.305ZM134.599 127.318C134.564 126.916 134.825 126.606 135.502 126.429L137.036 126.034L137.116 126.955C136.837 127.502 136.323 127.9 135.571 127.965C135.013 128.014 134.638 127.759 134.599 127.318ZM140.823 128.63L142.471 128.486L141.62 118.758L139.972 118.902L140.823 128.63ZM144.652 125.89C144.792 127.485 145.651 128.338 147.285 128.195C147.83 128.148 148.213 128.049 148.525 127.878L148.399 126.438C148.186 126.548 147.893 126.626 147.439 126.666C146.79 126.722 146.376 126.471 146.312 125.745L146.079 123.073L148.076 122.898L147.947 121.42L145.949 121.594L145.806 119.96L144.146 120.105L144.289 121.74L143.07 121.846L143.199 123.325L144.418 123.218L144.652 125.89ZM155.792 126.249L154.53 125.418C154.221 125.915 153.626 126.281 152.912 126.344C151.888 126.433 151.092 126.006 150.83 124.801L155.408 124.4C155.441 124.175 155.463 123.833 155.432 123.47C155.282 121.758 153.981 120.63 152.165 120.789C150.025 120.976 148.945 122.678 149.114 124.611C149.281 126.518 150.733 128.024 153.055 127.821C154.287 127.713 155.254 127.119 155.792 126.249ZM152.244 122.141C153.165 122.061 153.703 122.68 153.787 123.34L150.777 123.603C150.884 122.731 151.401 122.215 152.244 122.141ZM157.378 127.181L159.026 127.037L158.659 122.848C158.869 122.411 159.349 121.925 160.154 121.855C160.452 121.828 160.676 121.848 160.888 121.882L160.746 120.261C160.586 120.222 160.388 120.2 160.167 120.22C159.428 120.284 158.9 120.67 158.51 121.149L158.454 120.5L156.806 120.644L157.378 127.181ZM162.648 126.72L164.295 126.576L163.921 122.309C164.132 121.872 164.524 121.276 165.354 121.204C166.158 121.133 166.699 121.635 166.775 122.504L167.109 126.33L168.77 126.185L168.429 122.294C168.26 120.361 167.047 119.487 165.633 119.611C164.764 119.687 164.184 120.077 163.768 120.558L163.723 120.039L162.076 120.183L162.648 126.72ZM172.499 126.055C173.264 125.988 174.014 125.595 174.385 125.053L174.44 125.689L176.088 125.545L175.718 121.316C175.592 119.877 174.52 118.833 172.627 118.999C171.433 119.103 170.517 119.68 170.003 120.535L171.29 121.351C171.598 120.84 172.065 120.499 172.701 120.443C173.453 120.377 174.01 120.773 174.071 121.46L174.085 121.629L172.117 122.141C170.737 122.497 170.036 123.303 170.123 124.289C170.228 125.495 171.189 126.169 172.499 126.055ZM171.75 124.068C171.715 123.666 171.975 123.356 172.652 123.179L174.186 122.783L174.267 123.704C173.988 124.251 173.474 124.649 172.722 124.715C172.164 124.764 171.789 124.509 171.75 124.068ZM177.974 125.38L179.621 125.235L179.248 120.968C179.458 120.532 179.85 119.935 180.68 119.863C181.484 119.792 182.025 120.294 182.101 121.163L182.436 124.989L184.096 124.844L183.756 120.953C183.586 119.02 182.373 118.146 180.959 118.27C180.09 118.346 179.51 118.736 179.095 119.217L179.049 118.698L177.402 118.843L177.974 125.38ZM188.992 123.109C187.889 123.205 187.027 122.457 186.926 121.303C186.826 120.161 187.544 119.262 188.621 119.168C189.295 119.109 189.84 119.362 190.191 119.789L191.389 118.691C190.709 117.94 189.704 117.505 188.511 117.609C186.254 117.807 185.047 119.546 185.214 121.453C185.38 123.359 186.871 124.863 189.128 124.665C190.321 124.561 191.236 123.958 191.775 123.1L190.405 122.227C190.133 122.708 189.64 123.052 188.992 123.109ZM198.77 122.489L197.508 121.658C197.198 122.155 196.603 122.521 195.889 122.584C194.865 122.673 194.069 122.246 193.807 121.041L198.386 120.64C198.418 120.415 198.441 120.073 198.409 119.71C198.259 117.998 196.958 116.87 195.142 117.029C193.002 117.216 191.922 118.918 192.091 120.851C192.258 122.758 193.71 124.264 196.032 124.061C197.264 123.953 198.231 123.359 198.77 122.489ZM195.221 118.381C196.142 118.301 196.68 118.92 196.764 119.58L193.755 119.843C193.861 118.971 194.378 118.455 195.221 118.381Z" fill="#161616"/>
<rect x="56.9113" y="151.855" width="60.5428" height="13.671" rx="6.82314" transform="rotate(-5 56.9113 151.855)" fill="#F1F1F1"/>
<rect x="122.412" y="146.124" width="41.0129" height="13.671" rx="6.82314" transform="rotate(-5 122.412 146.124)" fill="#F1F1F1"/>
<rect x="168.457" y="142.096" width="82.6768" height="13.671" rx="6.82314" transform="rotate(-5 168.457 142.096)" fill="#F1F1F1"/>
</g>
<g filter="url(#filter4_d_4866_12777)">
<rect x="53.335" y="146.1" width="223.292" height="65.7508" rx="5.19859" transform="rotate(-5 53.335 146.1)" fill="white" shape-rendering="crispEdges"/>
<path d="M73.763 170.453L78.9511 169.999C79.1961 169.977 79.3944 169.876 79.5459 169.696C79.6969 169.516 79.7616 169.303 79.7402 169.058C79.7188 168.813 79.6181 168.615 79.4382 168.464C79.2576 168.313 79.0448 168.248 78.7998 168.269L73.6117 168.723C73.3667 168.745 73.1687 168.846 73.0178 169.026C72.8663 169.206 72.8012 169.419 72.8226 169.664C72.8441 169.909 72.945 170.107 73.1255 170.257C73.3055 170.409 73.518 170.474 73.763 170.453ZM73.4604 166.994L78.6485 166.54C78.8935 166.518 79.0918 166.417 79.2433 166.237C79.3943 166.057 79.459 165.845 79.4376 165.6C79.4161 165.355 79.3154 165.156 79.1355 165.005C78.955 164.854 78.7422 164.789 78.4972 164.811L73.3091 165.264C73.0641 165.286 72.8661 165.387 72.7151 165.566C72.5636 165.747 72.4986 165.96 72.52 166.205C72.5415 166.45 72.6424 166.648 72.8229 166.799C73.0029 166.95 73.2154 167.015 73.4604 166.994ZM71.4715 174.138C70.9959 174.18 70.5741 174.046 70.2061 173.738C69.8375 173.428 69.6324 173.036 69.5908 172.56L68.3804 158.725C68.3388 158.25 68.4726 157.827 68.7819 157.459C69.0907 157.091 69.4829 156.886 69.9585 156.844L76.1627 156.302C76.3932 156.281 76.6169 156.305 76.8338 156.374C77.05 156.442 77.2443 156.548 77.4167 156.693L81.9774 160.52C82.1498 160.664 82.2884 160.837 82.3931 161.038C82.4979 161.24 82.5603 161.456 82.5805 161.687L83.4259 171.35C83.4675 171.825 83.334 172.247 83.0252 172.616C82.7159 172.984 82.3234 173.189 81.8478 173.231L71.4715 174.138ZM76.4652 161.503C76.4867 161.748 76.5876 161.946 76.7681 162.097C76.9481 162.248 77.1606 162.314 77.4056 162.292L80.8644 161.989L76.1626 158.044L76.4652 161.503Z" fill="#2186C7"/>
<path d="M96.47 158.856C93.6036 159.107 91.838 161.483 92.0649 164.077C92.2919 166.671 94.4433 168.705 97.3098 168.454C100.163 168.205 101.929 165.828 101.702 163.234C101.475 160.64 99.3235 158.606 96.47 158.856ZM97.1588 166.729C95.4468 166.879 94.1107 165.65 93.9586 163.912C93.8065 162.174 94.9089 160.731 96.621 160.581C98.3201 160.432 99.6562 161.662 99.8083 163.4C99.9603 165.138 98.858 166.58 97.1588 166.729ZM102.369 161.163L102.499 162.642L103.718 162.535L104.16 167.593L105.82 167.448L105.378 162.39L107.375 162.215L107.246 160.736L105.249 160.911L105.185 160.185C105.133 159.588 105.462 159.167 106.02 159.118C106.357 159.089 106.627 159.183 106.834 159.309L107.414 157.872C106.979 157.688 106.461 157.59 105.864 157.642C104.23 157.785 103.407 158.981 103.528 160.369L103.588 161.056L102.369 161.163ZM107.892 160.68L108.021 162.158L109.24 162.052L109.683 167.11L111.343 166.965L110.9 161.907L112.898 161.732L112.769 160.253L110.771 160.428L110.708 159.702C110.655 159.105 110.985 158.684 111.542 158.635C111.879 158.606 112.149 158.7 112.356 158.825L112.936 157.389C112.502 157.205 111.984 157.107 111.387 157.159C109.753 157.302 108.929 158.498 109.051 159.886L109.111 160.573L107.892 160.68ZM114.385 166.699L116.032 166.555L115.666 162.365C115.876 161.929 116.356 161.442 117.16 161.372C117.459 161.346 117.682 161.365 117.895 161.399L117.753 159.778C117.593 159.74 117.395 159.718 117.174 159.737C116.435 159.802 115.907 160.188 115.517 160.666L115.46 160.018L113.813 160.162L114.385 166.699ZM125.301 164.672L124.039 163.842C123.729 164.339 123.134 164.705 122.421 164.767C121.396 164.857 120.601 164.43 120.338 163.224L124.917 162.824C124.95 162.599 124.972 162.257 124.94 161.894C124.79 160.182 123.489 159.054 121.673 159.213C119.533 159.4 118.454 161.102 118.623 163.035C118.79 164.941 120.241 166.448 122.563 166.245C123.795 166.137 124.763 165.543 125.301 164.672ZM121.752 160.565C122.673 160.484 123.211 161.104 123.295 161.763L120.286 162.026C120.393 161.155 120.909 160.639 121.752 160.565ZM126.145 164.716C126.832 165.401 127.703 165.795 128.87 165.693C130.102 165.585 131.139 164.736 131.045 163.359C130.847 161.102 127.755 161.765 127.658 160.65C127.628 160.312 127.85 160.005 128.369 159.96C128.874 159.916 129.332 160.216 129.705 160.601L130.711 159.546C130.188 158.951 129.239 158.551 128.24 158.638C126.878 158.757 125.981 159.711 126.082 160.866C126.283 163.162 129.371 162.46 129.471 163.602C129.505 163.991 129.26 164.326 128.728 164.372C128.106 164.427 127.594 164.106 127.148 163.635L126.145 164.716ZM135.469 161.561C135.636 163.467 137.036 164.979 139.098 164.798C139.98 164.721 140.592 164.393 141.053 163.843L141.099 164.362L142.759 164.216L141.908 154.489L140.248 154.634L140.572 158.343C140.022 157.882 139.363 157.665 138.481 157.742C136.419 157.923 135.302 159.654 135.469 161.561ZM137.194 161.41C137.094 160.268 137.735 159.376 138.85 159.278C139.59 159.214 140.227 159.472 140.72 160.03L140.906 162.157C140.517 162.792 139.935 163.157 139.195 163.221C138.08 163.319 137.294 162.551 137.194 161.41ZM145.146 158.623L146.324 154.756L144.456 154.919L143.615 158.757L145.146 158.623ZM153.61 162.195L152.348 161.365C152.039 161.862 151.444 162.228 150.73 162.291C149.706 162.38 148.91 161.953 148.648 160.748L153.226 160.347C153.259 160.122 153.281 159.78 153.25 159.417C153.1 157.705 151.799 156.577 149.983 156.736C147.843 156.923 146.763 158.625 146.932 160.558C147.099 162.464 148.551 163.971 150.873 163.768C152.105 163.66 153.072 163.066 153.61 162.195ZM150.062 158.088C150.983 158.008 151.521 158.627 151.604 159.286L148.595 159.55C148.702 158.678 149.219 158.162 150.062 158.088ZM155.196 163.128L156.843 162.984L156.47 158.717C156.68 158.28 157.021 157.689 157.773 157.623C158.512 157.558 158.983 158.014 159.053 158.805L159.399 162.761L161.059 162.615L160.707 158.595C160.698 158.491 160.69 158.4 160.669 158.31C160.89 157.847 161.236 157.32 161.949 157.257C162.689 157.193 163.16 157.648 163.229 158.439L163.575 162.395L165.235 162.25L164.884 158.229C164.722 156.387 163.577 155.547 162.228 155.665C161.126 155.761 160.546 156.308 160.129 156.92C159.64 156.257 158.882 155.957 158.052 156.03C157.248 156.1 156.718 156.473 156.315 156.94L156.272 156.447L154.624 156.591L155.196 163.128ZM167.395 165.276L169.042 165.132L168.716 161.41C169.266 161.871 169.927 162.101 170.822 162.023C172.897 161.841 174 160.111 173.833 158.204C173.667 156.298 172.28 154.785 170.204 154.967C169.309 155.045 168.699 155.386 168.237 155.936L168.191 155.404L166.543 155.548L167.395 165.276ZM170.107 156.544C171.222 156.446 172.021 157.213 172.121 158.354C172.221 159.495 171.567 160.389 170.452 160.487C169.7 160.553 169.062 160.282 168.566 159.698L168.387 157.648C168.749 157.002 169.342 156.611 170.107 156.544ZM175.627 161.341L177.274 161.197L176.423 151.469L174.776 151.613L175.627 161.341ZM181.768 153.955C179.641 154.141 178.326 155.838 178.497 157.796C178.668 159.755 180.258 161.197 182.385 161.011C184.513 160.825 185.828 159.128 185.657 157.17C185.485 155.211 183.895 153.769 181.768 153.955ZM182.275 159.452C181.186 159.548 180.309 158.788 180.209 157.646C180.109 156.505 180.841 155.605 181.93 155.509C182.981 155.417 183.845 156.178 183.944 157.32C184.043 158.448 183.326 159.36 182.275 159.452ZM187.603 152.556C188.187 152.505 188.624 151.97 188.573 151.386C188.522 150.803 187.999 150.352 187.415 150.403C186.831 150.454 186.381 150.99 186.433 151.573C186.484 152.157 187.02 152.607 187.603 152.556ZM187.445 160.307L189.092 160.163L188.52 153.626L186.873 153.77L187.445 160.307Z" fill="#161616"/>
<rect x="71.2335" y="186.358" width="60.5428" height="13.671" rx="6.82314" transform="rotate(-5 71.2335 186.358)" fill="#F1F1F1"/>
<rect x="136.734" y="180.627" width="41.0129" height="13.671" rx="6.82314" transform="rotate(-5 136.734 180.627)" fill="#F1F1F1"/>
<rect x="182.779" y="176.598" width="82.6768" height="13.671" rx="6.82314" transform="rotate(-5 182.779 176.598)" fill="#F1F1F1"/>
</g>
<path d="M204.507 247.231C203.646 242.727 202.803 238.408 201.976 234.089C201.807 233.229 201.689 232.621 201.656 231.508C201.622 230.681 201.588 228.927 202.482 229.078C203.208 229.281 203.697 229.517 204.136 230.985C205.249 234.781 205.789 238.712 206.346 242.609C206.835 246.05 207.155 248.682 207.408 251.753C207.527 253.187 206.818 253.76 205.502 253.592C204.321 253.44 203.106 253.305 201.976 252.934C197.893 251.618 193.861 250.201 189.795 248.817C189.289 248.649 188.884 248.547 188.311 248.261C187.619 247.906 187.096 247.687 187.299 246.961C187.484 246.27 188.496 246.304 189.003 246.422C193.254 247.316 201.993 249.306 202.482 249.306C201.065 247.096 199.8 245.021 198.416 243.014C188.716 229.078 178.104 215.953 164.506 205.51C153.743 197.243 142.186 190.394 129.584 185.333C128.842 185.029 128.116 184.658 127.424 184.287C126.48 183.797 126.075 183.376 126.294 182.87C126.834 181.975 127.559 182.144 128.15 182.228C129.331 182.38 130.495 182.785 131.625 183.173C146.691 188.521 159.884 197.024 172.014 207.298C184.464 217.843 194.047 230.732 202.567 244.481C202.988 245.224 204.203 246.961 204.507 247.231Z" fill="black"/>
<defs>
<filter id="filter0_d_4866_12777" x="-24.7116" y="215.631" width="391.94" height="148.74" filterUnits="userSpaceOnUse" color-interpolation-filters="sRGB">
<feFlood flood-opacity="0" result="BackgroundImageFix"/>
<feColorMatrix in="SourceAlpha" type="matrix" values="0 0 0 0 0 0 0 0 0 0 0 0 0 0 0 0 0 0 127 0" result="hardAlpha"/>
<feOffset dy="6"/>
<feGaussianBlur stdDeviation="12.5"/>
<feComposite in2="hardAlpha" operator="out"/>
<feColorMatrix type="matrix" values="0 0 0 0 0.196078 0 0 0 0 0.196078 0 0 0 0 0.196078 0 0 0 0.1 0"/>
<feBlend mode="normal" in2="BackgroundImageFix" result="effect1_dropShadow_4866_12777"/>
<feBlend mode="normal" in="SourceGraphic" in2="effect1_dropShadow_4866_12777" result="shape"/>
</filter>
<filter id="filter1_d_4866_12777" x="-5.25507" y="12.0636" width="260.723" height="117.512" filterUnits="userSpaceOnUse" color-interpolation-filters="sRGB">
<feFlood flood-opacity="0" result="BackgroundImageFix"/>
<feColorMatrix in="SourceAlpha" type="matrix" values="0 0 0 0 0 0 0 0 0 0 0 0 0 0 0 0 0 0 127 0" result="hardAlpha"/>
<feOffset dy="3.89894"/>
<feGaussianBlur stdDeviation="8.12279"/>
<feComposite in2="hardAlpha" operator="out"/>
<feColorMatrix type="matrix" values="0 0 0 0 0.196078 0 0 0 0 0.196078 0 0 0 0 0.196078 0 0 0 0.1 0"/>
<feBlend mode="normal" in2="BackgroundImageFix" result="effect1_dropShadow_4866_12777"/>
<feBlend mode="normal" in="SourceGraphic" in2="effect1_dropShadow_4866_12777" result="shape"/>
</filter>
<filter id="filter2_d_4866_12777" x="9.06717" y="46.5665" width="260.723" height="117.512" filterUnits="userSpaceOnUse" color-interpolation-filters="sRGB">
<feFlood flood-opacity="0" result="BackgroundImageFix"/>
<feColorMatrix in="SourceAlpha" type="matrix" values="0 0 0 0 0 0 0 0 0 0 0 0 0 0 0 0 0 0 127 0" result="hardAlpha"/>
<feOffset dy="3.89894"/>
<feGaussianBlur stdDeviation="8.12279"/>
<feComposite in2="hardAlpha" operator="out"/>
<feColorMatrix type="matrix" values="0 0 0 0 0.196078 0 0 0 0 0.196078 0 0 0 0 0.196078 0 0 0 0.1 0"/>
<feBlend mode="normal" in2="BackgroundImageFix" result="effect1_dropShadow_4866_12777"/>
<feBlend mode="normal" in="SourceGraphic" in2="effect1_dropShadow_4866_12777" result="shape"/>
</filter>
<filter id="filter3_d_4866_12777" x="22.7378" y="79.7673" width="260.723" height="117.512" filterUnits="userSpaceOnUse" color-interpolation-filters="sRGB">
<feFlood flood-opacity="0" result="BackgroundImageFix"/>
<feColorMatrix in="SourceAlpha" type="matrix" values="0 0 0 0 0 0 0 0 0 0 0 0 0 0 0 0 0 0 127 0" result="hardAlpha"/>
<feOffset dy="3.89894"/>
<feGaussianBlur stdDeviation="8.12279"/>
<feComposite in2="hardAlpha" operator="out"/>
<feColorMatrix type="matrix" values="0 0 0 0 0.196078 0 0 0 0 0.196078 0 0 0 0 0.196078 0 0 0 0.1 0"/>
<feBlend mode="normal" in2="BackgroundImageFix" result="effect1_dropShadow_4866_12777"/>
<feBlend mode="normal" in="SourceGraphic" in2="effect1_dropShadow_4866_12777" result="shape"/>
</filter>
<filter id="filter4_d_4866_12777" x="37.0601" y="114.27" width="260.723" height="117.512" filterUnits="userSpaceOnUse" color-interpolation-filters="sRGB">
<feFlood flood-opacity="0" result="BackgroundImageFix"/>
<feColorMatrix in="SourceAlpha" type="matrix" values="0 0 0 0 0 0 0 0 0 0 0 0 0 0 0 0 0 0 127 0" result="hardAlpha"/>
<feOffset dy="3.89894"/>
<feGaussianBlur stdDeviation="8.12279"/>
<feComposite in2="hardAlpha" operator="out"/>
<feColorMatrix type="matrix" values="0 0 0 0 0.196078 0 0 0 0 0.196078 0 0 0 0 0.196078 0 0 0 0.1 0"/>
<feBlend mode="normal" in2="BackgroundImageFix" result="effect1_dropShadow_4866_12777"/>
<feBlend mode="normal" in="SourceGraphic" in2="effect1_dropShadow_4866_12777" result="shape"/>
</filter>
<clipPath id="clip0_4866_12777">
<rect x="0.33361" y="264.043" width="337.071" height="69.5362" rx="16" transform="rotate(-5 0.33361 264.043)" fill="white"/>
</clipPath>
<clipPath id="clip1_4866_12777">
<rect width="20.4107" height="20.4107" fill="white" transform="translate(119.338 269.721) scale(1.00181) rotate(-5)"/>
</clipPath>
<clipPath id="clip2_4866_12777">
<rect width="20.7943" height="20.7943" fill="white" transform="translate(36.6262 87.8652) scale(1.00181) rotate(-5)"/>
</clipPath>
</defs>
</svg>
