<svg width="352" height="372" viewBox="0 0 352 372" fill="none" xmlns="http://www.w3.org/2000/svg">
<rect x="19.7331" y="268.995" width="327.17" height="72.2213" rx="11.4995" transform="rotate(-5 19.7331 268.995)" fill="#F1F1F1" stroke="#878787" stroke-width="0.999955" stroke-dasharray="5 5"/>
<g filter="url(#filter0_d_4866_12752)">
<g clip-path="url(#clip0_4866_12752)">
<rect x="2.7431" y="288.964" width="341.682" height="69.8235" rx="16" transform="rotate(-5 2.7431 288.964)" fill="white"/>
<path d="M36.3196 309.774C36.0795 309.795 35.8713 309.731 35.695 309.583C35.5181 309.435 35.4191 309.241 35.3981 309.001C35.3771 308.761 35.4409 308.552 35.5893 308.375C35.7373 308.199 35.9313 308.1 36.1713 308.079L42.1027 307.56C42.3428 307.539 42.5513 307.603 42.7282 307.751C42.9045 307.899 43.0032 308.094 43.0242 308.334C43.0452 308.574 42.9817 308.782 42.8338 308.958C42.6853 309.135 42.4911 309.234 42.251 309.255L36.3196 309.774ZM36.9127 316.553C36.6726 316.574 36.4644 316.51 36.288 316.361C36.1111 316.214 36.0122 316.02 35.9912 315.78C35.9702 315.539 36.0339 315.331 36.1824 315.154C36.3303 314.978 36.5243 314.879 36.7644 314.858L42.6958 314.339C42.9359 314.318 43.1443 314.382 43.3212 314.529C43.4976 314.678 43.5963 314.872 43.6173 315.112C43.6383 315.352 43.5748 315.561 43.4269 315.737C43.2784 315.914 43.0841 316.013 42.8441 316.034L36.9127 316.553ZM47.156 309.936L45.1749 308.274C45.0059 308.132 44.911 307.941 44.8899 307.701C44.8689 307.461 44.9293 307.256 45.0711 307.087C45.2128 306.918 45.4037 306.823 45.6438 306.802C45.8839 306.781 46.0884 306.842 46.2574 306.983L47.5705 308.085L50.3153 304.814C50.47 304.63 50.6606 304.531 50.8871 304.518C51.1137 304.506 51.3192 304.577 51.5035 304.731C51.6736 304.887 51.7686 305.078 51.7884 305.304C51.8081 305.53 51.7478 305.735 51.6073 305.918L48.3423 309.832C48.1877 310.016 47.9974 310.118 47.7714 310.138C47.5454 310.158 47.3403 310.091 47.156 309.936ZM47.7491 316.715L45.7679 315.052C45.599 314.91 45.504 314.72 45.483 314.479C45.462 314.239 45.5224 314.035 45.6641 313.866C45.8059 313.697 45.9968 313.602 46.2369 313.581C46.477 313.56 46.6815 313.62 46.8504 313.762L48.1635 314.864L50.9084 311.593C51.063 311.408 51.2536 311.31 51.4802 311.297C51.7068 311.284 51.9122 311.356 52.0965 311.51C52.2667 311.666 52.3617 311.857 52.3814 312.083C52.4012 312.309 52.3408 312.513 52.2003 312.696L48.9354 316.611C48.7807 316.795 48.5904 316.897 48.3645 316.917C48.1385 316.937 47.9334 316.869 47.7491 316.715Z" fill="#646464"/>
<path d="M24.6493 338.062L25.6051 337.978L25.0944 332.142L27.4659 335.356L28.198 335.292L29.9751 331.715L30.4858 337.551L31.4416 337.467L30.8188 330.35L29.5987 330.457L27.7367 334.236L25.2467 330.837L24.0266 330.944L24.6493 338.062ZM35.3046 331.761C33.6472 331.906 32.6399 333.274 32.7707 334.769C32.9015 336.264 34.1312 337.437 35.7886 337.292C37.4358 337.148 38.4533 335.778 38.3225 334.283C38.1917 332.789 36.9519 331.617 35.3046 331.761ZM35.7276 336.478C34.6294 336.574 33.7691 335.758 33.6757 334.69C33.5823 333.622 34.2878 332.669 35.386 332.573C36.4536 332.48 37.3139 333.296 37.4074 334.364C37.4999 335.421 36.7952 336.384 35.7276 336.478ZM39.9361 336.724L40.8004 336.649L40.4899 333.1C40.7682 332.533 41.1985 332.065 41.9408 332C42.7339 331.93 43.2987 332.414 43.3788 333.329L43.6475 336.4L44.5118 336.324L44.2404 333.223C44.1132 331.769 43.1915 331.071 42.0425 331.171C41.2799 331.238 40.7796 331.609 40.4028 332.104L40.352 331.524L39.4878 331.6L39.9361 336.724ZM48.3816 335.278C48.9 335.817 49.5691 336.086 50.3825 336.015C51.3383 335.932 52.0485 335.265 51.975 334.308C51.822 332.559 49.2815 333.151 49.181 332.002C49.1463 331.605 49.4127 331.254 49.9618 331.206C50.4092 331.167 50.8169 331.377 51.1252 331.739L51.6807 331.178C51.2812 330.711 50.6205 330.421 49.8884 330.485C48.9021 330.571 48.2787 331.292 48.349 332.095C48.5073 333.905 51.0341 333.274 51.1346 334.423C51.1738 334.87 50.8786 335.244 50.3092 335.294C49.7906 335.34 49.3413 335.123 48.9463 334.706L48.3816 335.278ZM56.877 333.029C56.9651 334.036 56.4667 334.663 55.6126 334.738C54.7382 334.815 54.1485 334.282 54.0605 333.275L53.8043 330.347L52.94 330.423L53.1935 333.321C53.3278 334.856 54.2907 335.673 55.6736 335.552C57.0666 335.43 57.873 334.458 57.7386 332.923L57.4851 330.025L56.6208 330.101L56.877 333.029ZM59.5091 328.506C59.8447 328.476 60.085 328.179 60.0557 327.843C60.0272 327.518 59.7388 327.266 59.4033 327.296C59.0677 327.325 58.8172 327.624 58.8457 327.949C58.875 328.285 59.1736 328.535 59.5091 328.506ZM59.6368 335.001L60.5011 334.925L60.0527 329.8L59.1884 329.876L59.6368 335.001ZM61.1066 329.708L63.5581 334.658L64.6969 334.558L66.2517 329.258L65.3162 329.34L64.0483 333.703L62.0421 329.626L61.1066 329.708ZM67.6317 327.795C67.9672 327.766 68.2076 327.468 68.1782 327.132C68.1497 326.807 67.8614 326.556 67.5258 326.585C67.1903 326.614 66.9397 326.913 66.9682 327.238C66.9976 327.574 67.2961 327.824 67.6317 327.795ZM67.7593 334.29L68.6236 334.214L68.1753 329.09L67.311 329.165L67.7593 334.29Z" fill="#646464"/>
<g clip-path="url(#clip1_4866_12752)">
<path d="M103.63 308.154L108.735 307.708C108.975 307.687 109.166 307.588 109.307 307.412C109.448 307.236 109.508 307.028 109.487 306.788C109.466 306.548 109.367 306.354 109.191 306.205C109.014 306.057 108.806 305.994 108.566 306.015L103.46 306.462C103.22 306.483 103.03 306.581 102.889 306.757C102.747 306.933 102.687 307.141 102.708 307.381C102.729 307.621 102.828 307.815 103.004 307.963C103.181 308.112 103.39 308.175 103.63 308.154ZM103.407 305.612L111.902 304.869C112.142 304.848 112.333 304.75 112.474 304.573C112.615 304.398 112.675 304.19 112.654 303.95C112.633 303.709 112.534 303.515 112.357 303.367C112.181 303.219 111.973 303.155 111.733 303.176L103.238 303.92C102.998 303.941 102.807 304.039 102.666 304.215C102.525 304.391 102.465 304.599 102.486 304.839C102.507 305.079 102.606 305.273 102.782 305.421C102.959 305.57 103.167 305.633 103.407 305.612ZM103.185 303.07L111.68 302.327C111.92 302.306 112.11 302.208 112.252 302.032C112.393 301.856 112.453 301.648 112.432 301.408C112.411 301.167 112.312 300.973 112.135 300.825C111.959 300.677 111.75 300.613 111.51 300.634L103.016 301.378C102.776 301.399 102.585 301.497 102.444 301.673C102.303 301.849 102.243 302.057 102.264 302.297C102.285 302.537 102.383 302.731 102.56 302.88C102.737 303.028 102.945 303.091 103.185 303.07ZM99.8065 313.249L98.6519 300.052C98.6111 299.586 98.7423 299.172 99.0454 298.811C99.3479 298.45 99.7322 298.249 100.198 298.209L113.756 297.023C114.222 296.982 114.635 297.113 114.997 297.415C115.357 297.718 115.558 298.103 115.599 298.569L116.488 308.737C116.529 309.203 116.398 309.617 116.096 309.978C115.792 310.339 115.408 310.539 114.942 310.58L103.079 311.618L101.301 313.737C101.056 314.029 100.754 314.116 100.395 313.998C100.036 313.88 99.8398 313.63 99.8065 313.249ZM101.323 311.067L102.232 309.984L114.794 308.885L113.904 298.717L100.347 299.903L101.323 311.067Z" fill="#646464"/>
</g>
<path d="M87.942 332.524L88.8978 332.441L88.3872 326.604L90.7586 329.819L91.4907 329.755L93.2679 326.177L93.7785 332.014L94.7343 331.93L94.1116 324.812L92.8914 324.919L91.0295 328.699L88.5395 325.3L87.3193 325.406L87.942 332.524ZM101.206 330.513L100.522 330.071C100.227 330.558 99.6941 330.912 99.0331 330.97C97.935 331.066 97.0871 330.392 96.949 329.164L100.884 328.82C100.902 328.675 100.916 328.479 100.898 328.276C100.788 327.015 99.7972 326.118 98.4042 326.24C96.818 326.379 95.9273 327.676 96.0635 329.232C96.1942 330.726 97.3731 331.904 99.1016 331.753C100.057 331.669 100.784 331.196 101.206 330.513ZM98.4479 326.974C99.3529 326.895 99.9266 327.48 100.023 328.23L96.9522 328.498C97.0578 327.598 97.6039 327.048 98.4479 326.974ZM101.983 330.589C102.501 331.127 103.17 331.397 103.984 331.326C104.94 331.242 105.65 330.575 105.576 329.619C105.423 327.87 102.883 328.461 102.782 327.312C102.748 326.915 103.014 326.564 103.563 326.516C104.01 326.477 104.418 326.687 104.727 327.05L105.282 326.489C104.883 326.022 104.222 325.731 103.49 325.795C102.503 325.881 101.88 326.602 101.95 327.405C102.109 329.215 104.635 328.584 104.736 329.733C104.775 330.181 104.48 330.555 103.911 330.605C103.392 330.65 102.943 330.433 102.548 330.017L101.983 330.589ZM106.451 330.198C106.97 330.736 107.639 331.006 108.452 330.935C109.408 330.851 110.118 330.184 110.045 329.228C109.892 327.479 107.351 328.07 107.251 326.921C107.216 326.524 107.482 326.173 108.031 326.125C108.479 326.086 108.887 326.296 109.195 326.659L109.75 326.098C109.351 325.631 108.69 325.34 107.958 325.404C106.972 325.49 106.348 326.211 106.419 327.014C106.577 328.824 109.104 328.193 109.204 329.342C109.243 329.79 108.948 330.164 108.379 330.214C107.86 330.259 107.411 330.042 107.016 329.626L106.451 330.198ZM112.955 330.479C113.616 330.421 114.262 330.068 114.605 329.536L114.661 330.187L115.526 330.111L115.225 326.674C115.126 325.545 114.287 324.85 112.985 324.964C112.091 325.043 111.401 325.482 111.007 326.131L111.702 326.572C111.979 326.108 112.433 325.791 113.022 325.74C113.755 325.676 114.298 326.038 114.361 326.75L114.392 327.106L112.688 327.542C111.616 327.82 111.075 328.42 111.142 329.193C111.219 330.068 111.949 330.567 112.955 330.479ZM112.014 329.086C111.976 328.649 112.263 328.306 112.954 328.123L114.447 327.736L114.535 328.743C114.248 329.321 113.717 329.695 113.036 329.755C112.436 329.807 112.052 329.523 112.014 329.086ZM116.751 330.936C116.841 331.963 117.889 332.466 119.404 332.333C120.939 332.199 121.947 331.301 121.852 330.223C121.772 329.308 121.084 328.702 119.732 328.821L118.268 328.949C117.952 328.976 117.827 328.834 117.808 328.62C117.792 328.427 117.898 328.233 118.098 328.062C118.317 328.104 118.564 328.124 118.818 328.102C120.049 327.994 120.738 327.093 120.653 326.117C120.626 325.812 120.529 325.524 120.365 325.282L121.473 325.185L121.407 324.432L119.506 324.599C119.22 324.491 118.877 324.439 118.501 324.472C117.281 324.578 116.581 325.48 116.667 326.466C116.717 327.035 117.027 327.531 117.503 327.827C117.129 328.116 116.945 328.47 116.981 328.877C117.005 329.152 117.151 329.415 117.4 329.578C116.923 329.978 116.705 330.418 116.751 330.936ZM118.769 327.419C118.006 327.486 117.546 327.024 117.491 326.394C117.436 325.763 117.808 325.219 118.571 325.152C119.313 325.087 119.784 325.558 119.84 326.188C119.894 326.809 119.511 327.354 118.769 327.419ZM117.586 330.761C117.55 330.354 117.737 330.03 118.07 329.735L119.727 329.59C120.642 329.51 120.951 329.872 120.993 330.36C121.052 331.031 120.408 331.518 119.33 331.612C118.314 331.701 117.64 331.381 117.586 330.761ZM127.163 328.242L126.479 327.8C126.183 328.287 125.65 328.641 124.99 328.699C123.891 328.795 123.044 328.121 122.905 326.894L126.84 326.549C126.858 326.404 126.872 326.208 126.854 326.005C126.744 324.744 125.754 323.847 124.361 323.969C122.774 324.108 121.884 325.405 122.02 326.961C122.151 328.455 123.329 329.633 125.058 329.482C126.014 329.398 126.741 328.925 127.163 328.242ZM124.404 324.703C125.309 324.624 125.883 325.209 125.979 325.959L122.909 326.227C123.014 325.327 123.56 324.777 124.404 324.703ZM127.939 328.318C128.458 328.857 129.127 329.126 129.94 329.055C130.896 328.971 131.606 328.304 131.533 327.348C131.38 325.599 128.839 326.19 128.739 325.041C128.704 324.644 128.97 324.293 129.519 324.245C129.967 324.206 130.375 324.416 130.683 324.779L131.238 324.218C130.839 323.751 130.178 323.46 129.446 323.524C128.46 323.61 127.836 324.331 127.907 325.134C128.065 326.944 130.592 326.313 130.692 327.462C130.731 327.91 130.436 328.284 129.867 328.334C129.348 328.379 128.899 328.162 128.504 327.746L127.939 328.318Z" fill="#646464"/>
<path d="M174.714 304.518C174.882 304.66 175.087 304.72 175.327 304.699C175.567 304.678 175.758 304.583 175.9 304.414C176.042 304.245 176.102 304.041 176.081 303.801C176.06 303.561 175.965 303.37 175.796 303.228L174.207 301.894C174.378 301.58 174.499 301.25 174.568 300.902C174.637 300.555 174.655 300.19 174.622 299.809C174.529 298.75 174.08 297.882 173.274 297.205C172.467 296.528 171.534 296.237 170.475 296.329C169.416 296.422 168.548 296.871 167.871 297.677C167.195 298.484 166.903 299.417 166.996 300.476C167.088 301.535 167.538 302.403 168.344 303.08C169.15 303.756 170.083 304.048 171.142 303.955C171.509 303.923 171.862 303.843 172.199 303.714C172.536 303.584 172.845 303.408 173.124 303.184L174.714 304.518ZM170.994 302.261C170.401 302.313 169.882 302.152 169.436 301.778C168.991 301.404 168.742 300.921 168.69 300.328C168.638 299.735 168.799 299.215 169.173 298.77C169.547 298.325 170.03 298.076 170.623 298.024C171.217 297.972 171.736 298.133 172.181 298.507C172.627 298.881 172.875 299.364 172.927 299.957C172.979 300.55 172.818 301.069 172.444 301.515C172.071 301.96 171.587 302.209 170.994 302.261ZM165.084 307.901C164.618 307.942 164.204 307.811 163.844 307.508C163.483 307.205 163.282 306.82 163.241 306.354L162.351 296.186C162.31 295.72 162.442 295.307 162.745 294.946C163.047 294.585 163.432 294.384 163.898 294.343L177.455 293.157C177.921 293.116 178.335 293.248 178.696 293.551C179.057 293.853 179.257 294.238 179.298 294.704L180.188 304.872C180.228 305.338 180.098 305.751 179.795 306.113C179.492 306.473 179.107 306.674 178.641 306.715L165.084 307.901ZM164.936 306.206L178.493 305.02L177.603 294.852L164.046 296.038L164.936 306.206Z" fill="#3B69D1"/>
<path d="M149.107 327.173L150.551 327.047L150.299 324.169L151.042 324.104L153.195 326.815L154.893 326.667L152.39 323.71C153.093 323.31 153.454 322.633 153.378 321.769C153.263 320.447 152.226 319.728 150.66 319.865L148.484 320.055L149.107 327.173ZM150.847 321.058C151.457 321.004 151.845 321.339 151.892 321.878C151.943 322.458 151.618 322.845 151.008 322.898L150.194 322.969L150.033 321.129L150.847 321.058ZM160.26 325.357L159.27 324.706C159.028 325.096 158.561 325.383 158.002 325.432C157.199 325.502 156.575 325.167 156.369 324.222L159.959 323.908C159.984 323.732 160.002 323.464 159.977 323.179C159.86 321.837 158.84 320.953 157.416 321.077C155.738 321.224 154.892 322.558 155.024 324.073C155.155 325.568 156.293 326.749 158.113 326.59C159.079 326.505 159.838 326.039 160.26 325.357ZM157.478 322.137C158.2 322.074 158.622 322.56 158.687 323.077L156.328 323.283C156.412 322.599 156.817 322.195 157.478 322.137ZM163.835 324.86C162.971 324.935 162.294 324.349 162.215 323.444C162.137 322.549 162.7 321.844 163.544 321.771C164.073 321.724 164.5 321.923 164.775 322.257L165.714 321.396C165.181 320.808 164.393 320.467 163.458 320.549C161.689 320.703 160.742 322.067 160.873 323.562C161.004 325.056 162.173 326.235 163.942 326.08C164.877 325.998 165.594 325.526 166.017 324.853L164.943 324.169C164.73 324.546 164.343 324.815 163.835 324.86ZM167.054 325.603L168.345 325.49L168.052 322.145C168.217 321.802 168.525 321.335 169.175 321.278C169.816 321.222 170.23 321.616 170.289 322.297L170.552 325.297L171.853 325.183L171.586 322.133C171.454 320.617 170.502 319.932 169.394 320.029C168.713 320.089 168.258 320.395 167.932 320.772L167.678 317.864L166.387 317.977L167.054 325.603ZM177.965 323.808L176.975 323.157C176.733 323.547 176.266 323.834 175.707 323.883C174.903 323.953 174.28 323.618 174.074 322.673L177.664 322.359C177.689 322.183 177.707 321.915 177.682 321.63C177.564 320.288 176.544 319.404 175.121 319.528C173.443 319.675 172.597 321.009 172.729 322.524C172.86 324.019 173.998 325.2 175.818 325.041C176.784 324.956 177.543 324.491 177.965 323.808ZM175.183 320.588C175.905 320.525 176.326 321.011 176.392 321.528L174.033 321.734C174.117 321.05 174.522 320.646 175.183 320.588ZM179.208 324.54L180.499 324.427L180.212 321.142C180.377 320.8 180.753 320.419 181.383 320.364C181.617 320.343 181.793 320.358 181.959 320.385L181.848 319.114C181.722 319.084 181.567 319.067 181.394 319.082C180.815 319.133 180.401 319.435 180.095 319.81L180.051 319.302L178.759 319.415L179.208 324.54ZM185.492 322.965C184.628 323.041 183.951 322.454 183.872 321.549C183.794 320.655 184.357 319.95 185.201 319.876C185.73 319.83 186.157 320.028 186.432 320.362L187.371 319.502C186.838 318.913 186.05 318.572 185.115 318.654C183.345 318.809 182.399 320.172 182.53 321.667C182.661 323.162 183.829 324.34 185.599 324.185C186.534 324.103 187.251 323.631 187.674 322.959L186.599 322.274C186.387 322.651 186 322.921 185.492 322.965ZM188.711 323.708L190.002 323.595L189.709 320.25C189.874 319.908 190.181 319.44 190.832 319.383C191.473 319.327 191.886 319.721 191.946 320.403L192.208 323.402L193.51 323.288L193.243 320.238C193.111 318.723 192.159 318.038 191.051 318.135C190.37 318.194 189.915 318.5 189.589 318.877L189.335 315.969L188.043 316.082L188.711 323.708ZM199.621 321.913L198.632 321.262C198.389 321.652 197.923 321.939 197.364 321.988C196.56 322.058 195.937 321.723 195.731 320.778L199.32 320.464C199.346 320.288 199.363 320.02 199.339 319.735C199.221 318.393 198.201 317.509 196.778 317.633C195.1 317.78 194.254 319.115 194.386 320.63C194.517 322.124 195.655 323.305 197.475 323.146C198.441 323.062 199.199 322.596 199.621 321.913ZM196.84 318.694C197.562 318.63 197.983 319.116 198.049 319.633L195.69 319.839C195.774 319.156 196.179 318.751 196.84 318.694Z" fill="#3B69D1"/>
<path d="M234.33 302.056L232.408 300.58C230.867 299.392 229.418 298.16 228.062 296.884C226.705 295.608 225.948 294.08 225.793 292.301C225.662 290.804 226.061 289.509 226.99 288.418C227.919 287.326 229.132 286.715 230.629 286.584C231.462 286.511 232.225 286.615 232.919 286.896C233.612 287.177 234.18 287.483 234.621 287.814C234.999 287.411 235.505 287.011 236.139 286.614C236.773 286.217 237.506 285.982 238.34 285.909C239.837 285.778 241.137 286.17 242.242 287.083C243.346 287.997 243.964 289.202 244.095 290.699C244.251 292.479 243.771 294.115 242.657 295.607C241.542 297.099 240.335 298.556 239.037 299.979L237.381 301.789C236.993 302.236 236.503 302.485 235.909 302.537C235.316 302.589 234.79 302.428 234.33 302.056ZM233.77 290.279C233.494 289.891 233.1 289.537 232.588 289.219C232.077 288.901 231.489 288.771 230.825 288.829C229.95 288.906 229.247 289.252 228.717 289.868C228.188 290.483 227.961 291.229 228.038 292.104C228.105 292.867 228.439 293.642 229.042 294.428C229.644 295.215 230.351 295.975 231.162 296.708C231.973 297.441 232.801 298.116 233.645 298.733C234.489 299.349 235.177 299.861 235.711 300.27C236.166 299.775 236.755 299.151 237.479 298.398C238.203 297.644 238.901 296.835 239.573 295.972C240.244 295.11 240.808 294.239 241.265 293.359C241.722 292.48 241.916 291.659 241.85 290.896C241.773 290.02 241.421 289.325 240.792 288.811C240.164 288.297 239.412 288.078 238.536 288.155C237.872 288.213 237.312 288.443 236.856 288.846C236.401 289.249 236.078 289.665 235.888 290.094C235.792 290.302 235.654 290.467 235.473 290.59C235.291 290.712 235.102 290.782 234.904 290.799C234.692 290.818 234.486 290.783 234.286 290.694C234.086 290.604 233.914 290.466 233.77 290.279Z" fill="#646464"/>
<path d="M221.27 320.86L222.225 320.776L221.943 317.553L224.404 317.337L224.334 316.534L221.873 316.749L221.674 314.472L224.541 314.221L224.47 313.407L220.647 313.742L221.27 320.86ZM227.516 320.457C228.177 320.399 228.822 320.045 229.165 319.513L229.222 320.164L230.086 320.088L229.785 316.651C229.687 315.523 228.847 314.828 227.546 314.942C226.651 315.02 225.962 315.459 225.568 316.109L226.262 316.55C226.539 316.085 226.993 315.769 227.583 315.717C228.315 315.653 228.859 316.015 228.921 316.727L228.952 317.083L227.249 317.519C226.177 317.797 225.635 318.398 225.703 319.171C225.779 320.045 226.509 320.545 227.516 320.457ZM226.574 319.064C226.536 318.626 226.824 318.283 227.515 318.1L229.007 317.713L229.096 318.72C228.808 319.298 228.277 319.673 227.596 319.732C226.996 319.785 226.613 319.501 226.574 319.064ZM230.549 314.884L233.001 319.833L234.14 319.734L235.694 314.434L234.759 314.515L233.491 318.878L231.485 314.802L230.549 314.884ZM238.995 313.94C237.338 314.085 236.33 315.454 236.461 316.949C236.592 318.443 237.822 319.616 239.479 319.471C241.126 319.327 242.144 317.958 242.013 316.463C241.882 314.968 240.642 313.796 238.995 313.94ZM239.418 318.657C238.32 318.753 237.459 317.937 237.366 316.869C237.273 315.802 237.978 314.849 239.076 314.753C240.144 314.659 241.004 315.475 241.098 316.543C241.19 317.6 240.486 318.564 239.418 318.657ZM243.627 318.904L244.491 318.828L244.183 315.31C244.453 314.764 244.86 314.38 245.531 314.321C245.734 314.303 245.889 314.31 246.045 314.338L245.971 313.494C245.845 313.464 245.691 313.457 245.528 313.471C244.878 313.528 244.436 313.864 244.098 314.344L244.042 313.703L243.178 313.779L243.627 318.904ZM247.54 312.055C247.876 312.026 248.116 311.728 248.087 311.392C248.058 311.067 247.77 310.816 247.434 310.845C247.099 310.874 246.848 311.173 246.877 311.498C246.906 311.834 247.205 312.084 247.54 312.055ZM247.668 318.55L248.532 318.474L248.084 313.35L247.22 313.425L247.668 318.55ZM249.709 317.665C250.227 318.203 250.896 318.473 251.71 318.401C252.665 318.318 253.376 317.651 253.302 316.694C253.149 314.945 250.609 315.537 250.508 314.388C250.473 313.991 250.74 313.64 251.289 313.592C251.736 313.553 252.144 313.763 252.452 314.125L253.008 313.564C252.608 313.097 251.948 312.807 251.216 312.871C250.229 312.957 249.606 313.678 249.676 314.481C249.834 316.291 252.361 315.66 252.462 316.809C252.501 317.256 252.206 317.63 251.636 317.68C251.118 317.726 250.668 317.509 250.273 317.093L249.709 317.665Z" fill="#646464"/>
<path d="M297.433 293.333C296.84 293.385 296.321 293.224 295.876 292.851C295.43 292.477 295.181 291.993 295.13 291.4C295.078 290.807 295.239 290.288 295.612 289.843C295.986 289.397 296.469 289.148 297.063 289.097C297.656 289.045 298.175 289.206 298.62 289.579C299.066 289.953 299.314 290.436 299.366 291.03C299.418 291.623 299.257 292.142 298.884 292.587C298.51 293.033 298.026 293.281 297.433 293.333ZM294.452 298.29C293.986 298.331 293.572 298.2 293.211 297.898C292.85 297.594 292.649 297.21 292.609 296.744L291.571 284.881C291.53 284.415 291.661 284.002 291.964 283.641C292.267 283.28 292.651 283.079 293.117 283.038L293.965 282.964L293.89 282.117C293.869 281.877 293.933 281.668 294.081 281.491C294.229 281.315 294.424 281.216 294.664 281.195C294.904 281.174 295.112 281.238 295.289 281.385C295.465 281.534 295.564 281.728 295.585 281.968L295.659 282.816L302.438 282.223L302.364 281.375C302.343 281.135 302.407 280.927 302.555 280.75C302.703 280.573 302.897 280.475 303.137 280.454C303.377 280.433 303.585 280.496 303.762 280.644C303.939 280.793 304.038 280.987 304.059 281.227L304.133 282.074L304.98 282C305.446 281.959 305.86 282.091 306.221 282.394C306.582 282.696 306.782 283.081 306.823 283.547L307.861 295.409C307.902 295.875 307.771 296.289 307.468 296.65C307.165 297.011 306.78 297.212 306.314 297.252L294.452 298.29ZM294.303 296.596L306.166 295.558L305.425 287.084L293.562 288.122L294.303 296.596Z" fill="#646464"/>
<path d="M274.755 308.393L275.937 306.907L274.899 306.998L273.871 308.471L274.755 308.393ZM273.052 316.329L276.875 315.995L276.804 315.181L273.937 315.432L273.726 313.022L276.186 312.807L276.116 312.004L273.655 312.219L273.456 309.942L276.324 309.691L276.252 308.877L272.429 309.212L273.052 316.329ZM277.118 310.81L279.57 315.759L280.709 315.659L282.263 310.36L281.328 310.441L280.06 314.804L278.054 310.728L277.118 310.81ZM285.775 309.233L286.817 307.441L285.841 307.526L284.931 309.306L285.775 309.233ZM288.173 314.156L287.489 313.714C287.193 314.201 286.661 314.555 286 314.613C284.902 314.709 284.054 314.035 283.916 312.807L287.851 312.463C287.869 312.318 287.882 312.122 287.865 311.919C287.754 310.658 286.764 309.761 285.371 309.883C283.785 310.021 282.894 311.319 283.03 312.874C283.161 314.369 284.34 315.547 286.068 315.395C287.024 315.312 287.751 314.838 288.173 314.156ZM285.415 310.617C286.32 310.537 286.893 311.122 286.99 311.872L283.919 312.141C284.025 311.24 284.571 310.69 285.415 310.617ZM289.6 314.882L290.464 314.806L290.154 311.257C290.432 310.69 290.862 310.222 291.605 310.157C292.398 310.088 292.963 310.571 293.043 311.486L293.311 314.557L294.176 314.481L293.904 311.38C293.777 309.926 292.855 309.228 291.706 309.328C290.944 309.395 290.443 309.767 290.067 310.261L290.016 309.681L289.152 309.757L289.6 314.882ZM300.397 313.087L299.712 312.644C299.417 313.131 298.884 313.485 298.224 313.543C297.125 313.639 296.277 312.965 296.139 311.738L300.074 311.393C300.092 311.248 300.106 311.053 300.088 310.849C299.978 309.588 298.988 308.691 297.595 308.813C296.008 308.952 295.118 310.249 295.254 311.805C295.385 313.3 296.563 314.477 298.292 314.326C299.248 314.242 299.975 313.769 300.397 313.087ZM297.638 309.547C298.543 309.468 299.117 310.053 299.213 310.803L296.143 311.071C296.248 310.171 296.794 309.621 297.638 309.547ZM301.823 313.812L302.688 313.737L302.377 310.188C302.626 309.633 303.025 309.158 303.726 309.096C304.469 309.032 304.979 309.479 305.054 310.333L305.331 313.505L306.196 313.43L305.915 310.227C305.905 310.105 305.885 309.994 305.865 309.883C306.148 309.253 306.573 308.847 307.224 308.79C307.956 308.726 308.477 309.173 308.552 310.027L308.829 313.199L309.694 313.124L309.413 309.921C309.291 308.528 308.424 307.866 307.326 307.962C306.441 308.039 305.94 308.514 305.582 309.108C305.21 308.485 304.57 308.203 303.828 308.268C303.116 308.33 302.636 308.69 302.288 309.171L302.239 308.612L301.375 308.687L301.823 313.812ZM315.917 311.729L315.233 311.287C314.937 311.773 314.405 312.127 313.744 312.185C312.646 312.281 311.798 311.608 311.66 310.38L315.595 310.036C315.613 309.891 315.626 309.695 315.608 309.491C315.498 308.231 314.508 307.334 313.115 307.455C311.529 307.594 310.638 308.891 310.774 310.447C310.905 311.942 312.084 313.119 313.812 312.968C314.768 312.885 315.495 312.411 315.917 311.729ZM313.158 308.189C314.063 308.11 314.637 308.695 314.734 309.445L311.663 309.714C311.768 308.813 312.315 308.263 313.158 308.189ZM317.344 312.454L318.208 312.379L317.897 308.83C318.176 308.263 318.606 307.795 319.348 307.73C320.141 307.66 320.706 308.144 320.786 309.059L321.055 312.13L321.919 312.054L321.648 308.953C321.521 307.499 320.599 306.801 319.45 306.901C318.687 306.968 318.187 307.34 317.81 307.834L317.76 307.254L316.895 307.33L317.344 312.454ZM323.804 310.158C323.913 311.408 324.603 311.922 325.742 311.822C326.108 311.79 326.379 311.725 326.614 311.602L326.547 310.829C326.361 310.928 326.13 310.989 325.795 311.018C325.175 311.072 324.748 310.884 324.678 310.081L324.448 307.458L326.228 307.302L326.159 306.519L324.38 306.675L324.268 305.394L323.393 305.47L323.506 306.751L322.54 306.836L322.608 307.619L323.574 307.534L323.804 310.158ZM327.318 310.875C327.837 311.413 328.506 311.683 329.319 311.612C330.275 311.528 330.985 310.861 330.912 309.905C330.759 308.156 328.218 308.747 328.118 307.598C328.083 307.201 328.349 306.85 328.899 306.802C329.346 306.763 329.754 306.973 330.062 307.335L330.617 306.775C330.218 306.307 329.557 306.017 328.825 306.081C327.839 306.167 327.215 306.888 327.286 307.691C327.444 309.501 329.971 308.87 330.071 310.019C330.11 310.466 329.815 310.841 329.246 310.89C328.727 310.936 328.278 310.719 327.883 310.303L327.318 310.875Z" fill="#646464"/>
</g>
</g>
<g filter="url(#filter1_d_4866_12752)">
<rect x="11.0017" y="61.4356" width="222.924" height="65.6424" rx="5.19859" transform="rotate(-5 11.0017 61.4356)" fill="white" shape-rendering="crispEdges"/>
<path d="M31.0941 82.2945C30.9052 80.1363 31.5001 78.2358 32.8787 76.5929C34.2572 74.95 36.0256 74.0342 38.1837 73.8454L38.3348 75.5719C36.6514 75.7192 35.2749 76.4302 34.2051 77.7051C33.1348 78.9806 32.6733 80.4601 32.8206 82.1435L31.0941 82.2945ZM34.5471 81.9924C34.4427 80.7982 34.7746 79.7433 35.5429 78.8277C36.3107 77.9127 37.2917 77.4029 38.4858 77.2984L38.6369 79.025C37.9175 79.0879 37.3281 79.3932 36.8685 79.9408C36.409 80.4884 36.2107 81.122 36.2737 81.8413L34.5471 81.9924ZM27.0368 75.6905C26.562 75.732 26.1406 75.5984 25.7726 75.2896C25.4052 74.9813 25.2007 74.5898 25.1592 74.115C25.1177 73.6402 25.251 73.2188 25.5592 72.8508C25.8681 72.4834 26.2599 72.2789 26.7347 72.2374C27.2095 72.1959 27.6306 72.3292 27.9979 72.6375C28.366 72.9463 28.5707 73.3381 28.6123 73.8129C28.6538 74.2877 28.5201 74.7088 28.2113 75.0762C27.9031 75.4442 27.5116 75.6489 27.0368 75.6905ZM24.8246 80.2334L24.6358 78.0752C24.6043 77.7155 24.7036 77.3989 24.9337 77.1253C25.1631 76.8513 25.4577 76.6985 25.8174 76.667L28.4072 76.4404C29.0547 76.3838 29.5944 76.1298 30.0264 75.6786C30.4578 75.2279 30.7041 74.6882 30.765 74.0595L32.4916 73.9084C32.4808 74.7792 32.231 75.5695 31.7421 76.2792C31.2533 76.9888 30.6173 77.5084 29.8343 77.8379L30.0042 79.7802L24.8246 80.2334ZM39.9533 84.129C39.4785 84.1706 39.0571 84.0372 38.6892 83.729C38.3218 83.4202 38.1173 83.0284 38.0757 82.5536C38.0342 82.0788 38.1675 81.6574 38.4758 81.2894C38.7846 80.922 39.1764 80.7175 39.6512 80.676C40.126 80.6344 40.5474 80.7678 40.9154 81.076C41.2828 81.3848 41.4873 81.7767 41.5288 82.2515C41.5703 82.7263 41.437 83.1476 41.1288 83.5156C40.8199 83.883 40.4281 84.0875 39.9533 84.129ZM37.7411 88.672L37.5712 86.7296C36.7428 86.5411 36.0263 86.1399 35.4217 85.5259C34.8171 84.9119 34.4338 84.177 34.272 83.3213L35.9985 83.1702C36.1677 83.7788 36.5039 84.2679 37.0072 84.6373C37.5109 85.0062 38.0865 85.1623 38.7339 85.1056L41.3238 84.879C41.6834 84.8476 42.0001 84.9469 42.2736 85.1769C42.5477 85.4064 42.7005 85.7009 42.7319 86.0606L42.9208 88.2188L37.7411 88.672Z" fill="#FCBF49"/>
<path d="M54.0656 74.1703C51.2039 74.4206 49.4411 76.793 49.6677 79.3828C49.8943 81.9726 52.0422 84.0029 54.9039 83.7525C57.7527 83.5033 59.5154 81.1309 59.2888 78.5411C59.0623 75.9513 56.9144 73.921 54.0656 74.1703ZM54.7533 82.0303C53.044 82.1799 51.7101 80.9526 51.5583 79.2174C51.4065 77.4823 52.507 76.042 54.2163 75.8925C55.9126 75.7441 57.2465 76.9713 57.3983 78.7065C57.5501 80.4417 56.4496 81.8819 54.7533 82.0303ZM59.955 76.4734L60.0841 77.9496L61.3013 77.8431L61.7431 82.8932L63.4006 82.7482L62.9588 77.6981L64.9529 77.5236L64.8238 76.0474L62.8296 76.2219L62.7662 75.4968C62.7141 74.9011 63.0427 74.4809 63.5995 74.4322C63.9362 74.4027 64.2053 74.4966 64.412 74.6221L64.9912 73.1883C64.5576 73.0044 64.0401 72.9062 63.4444 72.9583C61.8129 73.101 60.9909 74.2951 61.1121 75.6806L61.1722 76.3669L59.955 76.4734ZM65.4684 75.991L65.5976 77.4672L66.8148 77.3607L67.2566 82.4109L68.9141 82.2659L68.4722 77.2157L70.4664 77.0413L70.3372 75.5651L68.3431 75.7395L68.2796 75.0144C68.2275 74.4187 68.5561 73.9986 69.1129 73.9498C69.4496 73.9204 69.7188 74.0143 69.9255 74.1397L70.5046 72.7059C70.071 72.5221 69.5535 72.4238 68.9579 72.4759C67.3263 72.6187 66.5044 73.8127 66.6256 75.1983L66.6856 75.8846L65.4684 75.991ZM71.951 82.0002L73.5955 81.8563L73.2296 77.6737C73.4394 77.2378 73.9188 76.7523 74.7217 76.682C75.0195 76.656 75.243 76.6756 75.4548 76.7092L75.3131 75.0906C75.1532 75.0524 74.9556 75.0305 74.7355 75.0498C73.9974 75.1144 73.47 75.4998 73.0812 75.9774L73.0246 75.33L71.38 75.4738L71.951 82.0002ZM82.8488 79.9768L81.5889 79.1475C81.28 79.6443 80.6857 80.0094 79.9735 80.0718C78.9505 80.1613 78.1564 79.7349 77.8945 78.5313L82.4655 78.1314C82.4981 77.9067 82.5204 77.5655 82.4887 77.2029C82.3392 75.4937 81.0402 74.3677 79.2274 74.5263C77.0908 74.7133 76.0129 76.4125 76.1817 78.3419C76.3482 80.2454 77.7977 81.7496 80.1156 81.5468C81.3457 81.4392 82.3116 80.8458 82.8488 79.9768ZM79.3063 75.8764C80.2257 75.796 80.7626 76.4145 80.8463 77.0726L77.8421 77.3354C77.9486 76.4649 78.4646 75.9501 79.3063 75.8764ZM83.6912 80.0205C84.3773 80.7042 85.2468 81.0979 86.4122 80.9959C87.6424 80.8883 88.6774 80.041 88.5832 78.6661C88.386 76.413 85.2993 77.0745 85.2019 75.9608C85.1724 75.6242 85.3935 75.3178 85.9115 75.2725C86.4165 75.2283 86.8733 75.5276 87.2462 75.9125L88.2501 74.8591C87.7284 74.2654 86.7801 73.8656 85.783 73.9528C84.4234 74.0717 83.5281 75.0243 83.6289 76.1768C83.8294 78.4687 86.9128 77.7684 87.0125 78.9079C87.0464 79.2964 86.8017 79.6309 86.2708 79.6774C85.6492 79.7318 85.1384 79.4111 84.6928 78.9412L83.6912 80.0205ZM93.0003 76.8705C93.1668 78.774 94.5645 80.2827 96.6234 80.1026C97.5039 80.0255 98.1146 79.6981 98.5754 79.1489L98.6207 79.6669L100.278 79.5218L99.4286 69.8101L97.7711 69.9551L98.0951 73.6585C97.5459 73.1977 96.8876 72.9813 96.0071 73.0583C93.9482 73.2384 92.8337 74.9669 93.0003 76.8705ZM94.7225 76.7198C94.6228 75.5803 95.2625 74.6892 96.3761 74.5918C97.1142 74.5272 97.75 74.7847 98.2424 75.3419L98.4282 77.4655C98.04 78.0997 97.4586 78.4637 96.7205 78.5283C95.6069 78.6257 94.8222 77.8593 94.7225 76.7198ZM102.661 73.9375L103.837 70.0768L101.972 70.2399L101.133 74.0712L102.661 73.9375ZM106.1 71.288C106.683 71.237 107.119 70.703 107.068 70.1203C107.017 69.5376 106.495 69.0875 105.912 69.1384C105.33 69.1894 104.88 69.7245 104.931 70.3072C104.982 70.8899 105.518 71.339 106.1 71.288ZM105.942 79.0263L107.587 78.8824L107.016 72.3561L105.371 72.5L105.942 79.0263ZM109.559 78.7099L111.203 78.566L110.831 74.3058C111.04 73.8699 111.38 73.2791 112.131 73.2134C112.869 73.1488 113.34 73.6035 113.409 74.3934L113.754 78.3428L115.412 78.1978L115.061 74.1836C115.052 74.08 115.044 73.9894 115.023 73.8999C115.243 73.437 115.589 72.9109 116.301 72.8486C117.039 72.784 117.509 73.2387 117.578 74.0286L117.924 77.978L119.581 77.833L119.23 73.8188C119.069 71.9801 117.926 71.1406 116.579 71.2585C115.479 71.3548 114.9 71.9012 114.484 72.5117C113.995 71.8499 113.238 71.5508 112.41 71.6233C111.607 71.6935 111.078 72.0659 110.675 72.5318L110.632 72.0397L108.988 72.1836L109.559 78.7099ZM121.458 77.6688L123.103 77.525L122.73 73.2647C122.94 72.8288 123.28 72.238 124.031 72.1723C124.769 72.1078 125.239 72.5624 125.308 73.3523L125.654 77.3018L127.311 77.1568L126.96 73.1426C126.951 73.039 126.943 72.9483 126.922 72.8588C127.143 72.3959 127.488 71.8698 128.2 71.8075C128.938 71.743 129.409 72.1976 129.478 72.9875L129.823 76.937L131.481 76.792L131.13 72.7778C130.969 70.939 129.825 70.0996 128.479 70.2174C127.378 70.3137 126.799 70.8601 126.383 71.4707C125.895 70.8088 125.138 70.5097 124.309 70.5822C123.506 70.6524 122.978 71.0249 122.575 71.4907L122.532 70.9986L120.887 71.1425L121.458 77.6688ZM139.273 75.0403L138.013 74.211C137.704 74.7078 137.11 75.073 136.398 75.1353C135.375 75.2248 134.581 74.7984 134.319 73.5948L138.89 73.1949C138.922 72.9702 138.945 72.629 138.913 72.2664C138.764 70.5572 137.465 69.4312 135.652 69.5898C133.515 69.7768 132.437 71.476 132.606 73.4054C132.773 75.3089 134.222 76.8131 136.54 76.6103C137.77 76.5027 138.736 75.9093 139.273 75.0403ZM135.731 70.9399C136.65 70.8595 137.187 71.478 137.271 72.1361L134.266 72.3989C134.373 71.5285 134.889 71.0136 135.731 70.9399ZM140.857 75.9717L142.501 75.8278L142.135 71.6453C142.345 71.2094 142.824 70.7238 143.627 70.6536C143.925 70.6275 144.149 70.6471 144.36 70.6808L144.219 69.0621C144.059 69.0239 143.861 69.0021 143.641 69.0214C142.903 69.0859 142.376 69.4713 141.987 69.949L141.93 69.3015L140.286 69.4454L140.857 75.9717ZM145.465 74.616C146.151 75.2997 147.02 75.6934 148.186 75.5914C149.416 75.4838 150.451 74.6365 150.357 73.2616C150.159 71.0085 147.073 71.67 146.975 70.5564C146.946 70.2197 147.167 69.9133 147.685 69.868C148.19 69.8238 148.647 70.1231 149.02 70.508L150.024 69.4546C149.502 68.8609 148.553 68.4611 147.556 68.5483C146.197 68.6673 145.302 69.6198 145.402 70.7723C145.603 73.0643 148.686 72.3639 148.786 73.5034C148.82 73.8919 148.575 74.2265 148.044 74.2729C147.423 74.3273 146.912 74.0066 146.466 73.5367L145.465 74.616ZM152.193 67.2554C152.776 67.2044 153.212 66.6704 153.161 66.0877C153.11 65.505 152.588 65.0549 152.005 65.1058C151.422 65.1568 150.973 65.6919 151.024 66.2746C151.075 66.8573 151.611 67.3064 152.193 67.2554ZM152.035 74.9937L153.68 74.8498L153.109 68.3235L151.464 68.4674L152.035 74.9937ZM158.166 67.6201C156.042 67.8059 154.729 69.4996 154.9 71.4549C155.071 73.4102 156.659 74.8502 158.782 74.6644C160.906 74.4786 162.219 72.7849 162.048 70.8296C161.877 68.8743 160.29 67.4343 158.166 67.6201ZM158.672 73.1082C157.584 73.2034 156.709 72.4449 156.609 71.3054C156.51 70.1659 157.24 69.2669 158.328 69.1717C159.377 69.08 160.239 69.8396 160.339 70.9791C160.437 72.1057 159.721 73.0165 158.672 73.1082ZM163.833 73.9615L165.478 73.8176L165.105 69.5574C165.315 69.1215 165.707 68.5262 166.535 68.4537C167.338 68.3834 167.878 68.8842 167.954 69.7518L168.288 73.5718L169.945 73.4268L169.606 69.542C169.437 67.6126 168.225 66.74 166.814 66.8635C165.946 66.9394 165.367 67.3293 164.952 67.8093L164.907 67.2913L163.262 67.4352L163.833 73.9615Z" fill="#161616"/>
<rect x="28.8707" y="101.626" width="60.443" height="13.6484" rx="6.82314" transform="rotate(-5 28.8707 101.626)" fill="#F1F1F1"/>
<rect x="94.2632" y="95.9053" width="40.9452" height="13.6484" rx="6.82314" transform="rotate(-5 94.2632 95.9053)" fill="#F1F1F1"/>
<rect x="140.232" y="91.8835" width="82.5404" height="13.6484" rx="6.82314" transform="rotate(-5 140.232 91.8835)" fill="#F1F1F1"/>
</g>
<g filter="url(#filter2_d_4866_12752)">
<rect x="25.3003" y="95.8817" width="222.924" height="65.6424" rx="5.19859" transform="rotate(-5 25.3003 95.8817)" fill="white" shape-rendering="crispEdges"/>
<g clip-path="url(#clip2_4866_12752)">
<path d="M39.5868 122.468C39.3998 122.484 39.2398 122.436 39.1068 122.325C38.9738 122.213 38.8991 122.064 38.8827 121.877L38.6373 119.071C38.6008 118.654 38.7171 118.285 38.9862 117.964C39.2554 117.644 39.5986 117.465 40.0158 117.428L43.0588 117.162C43.3034 117.141 43.5426 117.181 43.7763 117.284C44.01 117.387 44.2154 117.539 44.3926 117.741C44.8627 118.309 45.436 118.73 46.1124 119.004C46.7888 119.279 47.4939 119.384 48.2276 119.32C48.9614 119.255 49.6376 119.03 50.2561 118.642C50.8746 118.254 51.3732 117.74 51.752 117.098C51.8913 116.868 52.0636 116.682 52.2687 116.541C52.4738 116.4 52.6987 116.319 52.9433 116.297L55.9863 116.031C56.4035 115.995 56.7725 116.111 57.0933 116.38C57.414 116.649 57.5927 116.992 57.6292 117.41L57.8746 120.215C57.891 120.402 57.8434 120.562 57.7318 120.695C57.6202 120.828 57.4709 120.903 57.2838 120.919L52.9675 121.297C52.7805 121.313 52.6204 121.266 52.4874 121.154C52.3544 121.043 52.2798 120.893 52.2634 120.706L52.0954 118.786C51.6189 119.306 51.0575 119.724 50.4112 120.042C49.7648 120.359 49.0747 120.55 48.3409 120.615C47.6072 120.679 46.898 120.61 46.2135 120.409C45.529 120.208 44.8998 119.893 44.3259 119.465L44.494 121.386C44.5103 121.573 44.4627 121.733 44.3511 121.866C44.2395 121.999 44.0902 122.074 43.9032 122.09L39.5868 122.468ZM48.1143 118.025C47.6108 118.069 47.1148 117.993 46.6264 117.796C46.1381 117.6 45.7317 117.305 45.4075 116.913C45.1483 116.602 44.8481 116.361 44.5067 116.187C44.1654 116.014 43.8045 115.908 43.4241 115.869C43.8036 115.401 44.4293 115.013 45.3012 114.704C46.1731 114.396 46.9975 114.208 47.7745 114.14C48.5514 114.072 49.3996 114.114 50.319 114.265C51.2383 114.417 51.9255 114.69 52.3805 115.085C52.0128 115.19 51.6758 115.357 51.3697 115.587C51.0636 115.817 50.8099 116.107 50.6087 116.458C50.3574 116.901 50.0084 117.261 49.5615 117.539C49.1147 117.818 48.6323 117.979 48.1143 118.025ZM40.9627 115.823C40.3009 115.881 39.7196 115.7 39.2189 115.28C38.7183 114.86 38.439 114.319 38.3811 113.657C38.3232 112.995 38.5043 112.414 38.9244 111.913C39.3445 111.413 39.8855 111.133 40.5473 111.075C41.2092 111.017 41.7905 111.199 42.2911 111.619C42.7918 112.039 43.0711 112.58 43.129 113.242C43.1869 113.903 43.0058 114.485 42.5857 114.985C42.1656 115.486 41.6246 115.765 40.9627 115.823ZM54.775 114.615C54.1132 114.673 53.5319 114.492 53.0312 114.072C52.5306 113.651 52.2513 113.11 52.1934 112.449C52.1354 111.787 52.3166 111.205 52.7367 110.705C53.1568 110.204 53.6978 109.925 54.3596 109.867C55.0215 109.809 55.6027 109.99 56.1034 110.41C56.6041 110.83 56.8834 111.371 56.9413 112.033C56.9992 112.695 56.8181 113.276 56.398 113.777C55.9779 114.278 55.4369 114.557 54.775 114.615ZM47.6423 112.629C46.9805 112.687 46.3992 112.506 45.8985 112.086C45.3978 111.666 45.1185 111.125 45.0606 110.463C45.0027 109.801 45.1838 109.22 45.604 108.719C46.0241 108.219 46.5651 107.939 47.2269 107.881C47.8888 107.823 48.47 108.005 48.9707 108.425C49.4714 108.845 49.7507 109.386 49.8086 110.048C49.8665 110.709 49.6854 111.291 49.2653 111.791C48.8451 112.292 48.3041 112.571 47.6423 112.629Z" fill="#15616D"/>
</g>
<path d="M68.3642 108.616C65.5025 108.867 63.7398 111.239 63.9663 113.829C64.1929 116.419 66.3408 118.449 69.2025 118.199C72.0513 117.949 73.814 115.577 73.5875 112.987C73.3609 110.397 71.213 108.367 68.3642 108.616ZM69.0519 116.476C67.3426 116.626 66.0087 115.399 65.8569 113.663C65.7051 111.928 66.8056 110.488 68.5149 110.339C70.2112 110.19 71.5451 111.417 71.6969 113.153C71.8487 114.888 70.7482 116.328 69.0519 116.476ZM74.2536 110.919L74.3827 112.396L75.5999 112.289L76.0418 117.339L77.6992 117.194L77.2574 112.144L79.2515 111.97L79.1224 110.493L77.1282 110.668L77.0648 109.943C77.0127 109.347 77.3413 108.927 77.8981 108.878C78.2348 108.849 78.5039 108.943 78.7106 109.068L79.2898 107.634C78.8562 107.45 78.3387 107.352 77.743 107.404C76.1115 107.547 75.2895 108.741 75.4107 110.127L75.4708 110.813L74.2536 110.919ZM79.767 110.437L79.8962 111.913L81.1134 111.807L81.5552 116.857L83.2127 116.712L82.7708 111.662L84.765 111.487L84.6358 110.011L82.6417 110.186L82.5783 109.46C82.5261 108.865 82.8547 108.445 83.4115 108.396C83.7482 108.366 84.0174 108.46 84.2241 108.586L84.8032 107.152C84.3696 106.968 83.8521 106.87 83.2565 106.922C81.6249 107.065 80.803 108.259 80.9242 109.644L80.9842 110.331L79.767 110.437ZM86.2496 116.446L87.8942 116.302L87.5282 112.12C87.738 111.684 88.2175 111.198 89.0203 111.128C89.3181 111.102 89.5417 111.122 89.7534 111.155L89.6118 109.537C89.4518 109.498 89.2542 109.477 89.0341 109.496C88.296 109.56 87.7686 109.946 87.3798 110.423L87.3232 109.776L85.6787 109.92L86.2496 116.446ZM97.1474 114.423L95.8875 113.594C95.5786 114.09 94.9843 114.455 94.2721 114.518C93.2491 114.607 92.455 114.181 92.1931 112.977L96.7641 112.577C96.7967 112.353 96.819 112.012 96.7873 111.649C96.6378 109.94 95.3388 108.814 93.526 108.972C91.3894 109.159 90.3115 110.859 90.4803 112.788C90.6468 114.691 92.0963 116.196 94.4142 115.993C95.6443 115.885 96.6102 115.292 97.1474 114.423ZM93.6049 110.322C94.5243 110.242 95.0612 110.861 95.1449 111.519L92.1407 111.781C92.2472 110.911 92.7633 110.396 93.6049 110.322ZM97.9898 114.467C98.6759 115.15 99.5454 115.544 100.711 115.442C101.941 115.334 102.976 114.487 102.882 113.112C102.685 110.859 99.5979 111.52 99.5005 110.407C99.471 110.07 99.6922 109.764 100.21 109.718C100.715 109.674 101.172 109.974 101.545 110.359L102.549 109.305C102.027 108.711 101.079 108.312 100.082 108.399C98.722 108.518 97.8267 109.47 97.9275 110.623C98.128 112.915 101.211 112.214 101.311 113.354C101.345 113.742 101.1 114.077 100.569 114.123C99.9478 114.178 99.437 113.857 98.9914 113.387L97.9898 114.467ZM107.299 111.316C107.465 113.22 108.863 114.729 110.922 114.549C111.802 114.472 112.413 114.144 112.874 113.595L112.919 114.113L114.577 113.968L113.727 104.256L112.07 104.401L112.394 108.105C111.844 107.644 111.186 107.427 110.306 107.504C108.247 107.684 107.132 109.413 107.299 111.316ZM109.021 111.166C108.921 110.026 109.561 109.135 110.675 109.038C111.413 108.973 112.049 109.231 112.541 109.788L112.727 111.912C112.339 112.546 111.757 112.91 111.019 112.974C109.905 113.072 109.121 112.305 109.021 111.166ZM122.464 112.208L121.204 111.379C120.895 111.875 120.301 112.241 119.588 112.303C118.565 112.392 117.771 111.966 117.509 110.762L122.081 110.363C122.113 110.138 122.135 109.797 122.104 109.434C121.954 107.725 120.655 106.599 118.842 106.757C116.706 106.944 115.628 108.644 115.797 110.573C115.963 112.477 117.413 113.981 119.731 113.778C120.961 113.67 121.927 113.077 122.464 112.208ZM118.921 108.108C119.841 108.027 120.378 108.646 120.461 109.304L117.457 109.567C117.564 108.696 118.08 108.181 118.921 108.108ZM126.885 111.939C127.571 112.622 128.44 113.016 129.606 112.914C130.836 112.806 131.871 111.959 131.777 110.584C131.58 108.331 128.493 108.993 128.396 107.879C128.366 107.542 128.587 107.236 129.105 107.19C129.61 107.146 130.067 107.446 130.44 107.831L131.444 106.777C130.922 106.183 129.974 105.784 128.977 105.871C127.617 105.99 126.722 106.942 126.823 108.095C127.023 110.387 130.106 109.686 130.206 110.826C130.24 111.214 129.995 111.549 129.464 111.595C128.843 111.65 128.332 111.329 127.886 110.859L126.885 111.939ZM139.346 110.731L138.086 109.902C137.777 110.398 137.182 110.764 136.47 110.826C135.447 110.915 134.653 110.489 134.391 109.285L138.962 108.886C138.995 108.661 139.017 108.32 138.985 107.957C138.836 106.248 137.537 105.122 135.724 105.281C133.588 105.467 132.51 107.167 132.678 109.096C132.845 111 134.294 112.504 136.612 112.301C137.842 112.193 138.808 111.6 139.346 110.731ZM135.803 106.631C136.722 106.55 137.259 107.169 137.343 107.827L134.339 108.09C134.445 107.219 134.961 106.704 135.803 106.631ZM140.929 111.662L142.573 111.518L142.208 107.336C142.417 106.9 142.897 106.414 143.7 106.344C143.997 106.318 144.221 106.338 144.433 106.371L144.291 104.753C144.131 104.715 143.933 104.693 143.713 104.712C142.975 104.777 142.448 105.162 142.059 105.64L142.002 104.992L140.358 105.136L140.929 111.662ZM145.015 104.729L147.956 111.048L150.118 110.858L151.93 104.124L150.156 104.279L148.88 109.088L146.776 104.575L145.015 104.729ZM153.695 102.821C154.277 102.77 154.713 102.236 154.662 101.653C154.611 101.071 154.089 100.621 153.507 100.671C152.924 100.722 152.475 101.258 152.526 101.84C152.577 102.423 153.112 102.872 153.695 102.821ZM153.537 110.559L155.181 110.415L154.61 103.889L152.966 104.033L153.537 110.559ZM160.174 108.674C159.073 108.77 158.212 108.023 158.111 106.871C158.011 105.732 158.728 104.834 159.803 104.74C160.477 104.681 161.021 104.933 161.371 105.359L162.567 104.263C161.888 103.513 160.884 103.079 159.693 103.183C157.44 103.381 156.235 105.117 156.401 107.021C156.568 108.924 158.056 110.425 160.309 110.228C161.501 110.124 162.414 109.522 162.952 108.666L161.584 107.794C161.313 108.274 160.821 108.617 160.174 108.674ZM169.935 108.055L168.675 107.225C168.366 107.722 167.772 108.087 167.06 108.15C166.037 108.239 165.243 107.813 164.981 106.609L169.552 106.209C169.584 105.985 169.607 105.643 169.575 105.281C169.425 103.572 168.127 102.446 166.314 102.604C164.177 102.791 163.099 104.49 163.268 106.42C163.435 108.323 164.884 109.828 167.202 109.625C168.432 109.517 169.398 108.924 169.935 108.055ZM166.393 103.954C167.312 103.874 167.849 104.492 167.933 105.151L164.928 105.413C165.035 104.543 165.551 104.028 166.393 103.954ZM178.029 107.112C176.928 107.208 176.067 106.461 175.966 105.309C175.867 104.169 176.584 103.272 177.659 103.177C178.332 103.119 178.876 103.371 179.226 103.797L180.422 102.701C179.743 101.951 178.74 101.517 177.549 101.621C175.296 101.818 174.09 103.555 174.257 105.458C174.423 107.362 175.912 108.863 178.165 108.666C179.356 108.561 180.269 107.96 180.808 107.103L179.439 106.232C179.168 106.712 178.676 107.055 178.029 107.112ZM182.286 100.32C182.869 100.269 183.305 99.7346 183.254 99.1519C183.203 98.5692 182.681 98.1191 182.098 98.17C181.515 98.221 181.066 98.7561 181.117 99.3388C181.168 99.9215 181.703 100.371 182.286 100.32ZM182.128 108.058L183.773 107.914L183.202 101.388L181.557 101.532L182.128 108.058ZM184.241 101.297L187.182 107.616L189.345 107.427L191.156 100.692L189.382 100.847L188.107 105.656L186.002 101.143L184.241 101.297ZM192.921 99.3891C193.504 99.3382 193.94 98.8042 193.889 98.2215C193.838 97.6388 193.316 97.1886 192.733 97.2396C192.15 97.2906 191.701 97.8257 191.752 98.4084C191.803 98.9911 192.338 99.4401 192.921 99.3891ZM192.763 107.127L194.407 106.984L193.836 100.457L192.192 100.601L192.763 107.127ZM195.628 103.589C195.794 105.492 197.179 107.002 199.251 106.821C200.132 106.744 200.741 106.403 201.202 105.854L201.527 109.571L203.185 109.426L202.335 99.7138L200.677 99.8588L200.724 100.39C200.175 99.9289 199.515 99.6995 198.635 99.7765C196.563 99.9578 195.461 101.685 195.628 103.589ZM197.337 103.439C197.237 102.3 197.877 101.409 198.991 101.311C199.729 101.247 200.379 101.516 200.872 102.086L201.054 104.158C200.704 104.789 200.099 105.181 199.335 105.248C198.222 105.345 197.437 104.579 197.337 103.439ZM208.929 102.869C209.012 103.814 208.571 104.44 207.678 104.518C206.771 104.597 206.228 104.057 206.145 103.112L205.821 99.4087L204.164 99.5538L204.481 103.179C204.652 105.135 205.884 106.24 207.801 106.073C209.717 105.905 210.751 104.601 210.58 102.646L210.263 99.0202L208.605 99.1652L208.929 102.869ZM218.57 103.8L217.31 102.97C217.001 103.467 216.407 103.832 215.694 103.895C214.672 103.984 213.877 103.558 213.616 102.354L218.187 101.954C218.219 101.73 218.241 101.388 218.21 101.026C218.06 99.3166 216.761 98.1907 214.948 98.3493C212.812 98.5362 211.734 100.235 211.903 102.165C212.069 104.068 213.519 105.573 215.837 105.37C217.067 105.262 218.033 104.669 218.57 103.8ZM215.027 99.6994C215.947 99.6189 216.484 100.237 216.567 100.896L213.563 101.158C213.67 100.288 214.186 99.773 215.027 99.6994Z" fill="#161616"/>
<rect x="43.1693" y="136.072" width="60.443" height="13.6484" rx="6.82314" transform="rotate(-5 43.1693 136.072)" fill="#F1F1F1"/>
<rect x="108.562" y="130.351" width="40.9452" height="13.6484" rx="6.82314" transform="rotate(-5 108.562 130.351)" fill="#F1F1F1"/>
<rect x="154.531" y="126.329" width="82.5404" height="13.6484" rx="6.82314" transform="rotate(-5 154.531 126.329)" fill="#F1F1F1"/>
</g>
<g filter="url(#filter3_d_4866_12752)">
<rect x="38.9484" y="129.028" width="222.924" height="65.6424" rx="5.19859" transform="rotate(-5 38.9484 129.028)" fill="white" shape-rendering="crispEdges"/>
<path d="M62.2347 156.566C62.0477 156.583 61.8877 156.535 61.7547 156.423C61.6217 156.312 61.547 156.162 61.5306 155.975L61.2474 152.738L56.8879 153.12C56.7584 153.131 56.6339 153.116 56.5144 153.076C56.3949 153.036 56.2882 152.976 56.1943 152.898L54.6453 151.598C54.5358 151.506 54.4544 151.404 54.4012 151.293C54.3479 151.182 54.3163 151.068 54.3062 150.953C54.2961 150.838 54.3077 150.721 54.3408 150.602C54.3738 150.483 54.4363 150.369 54.5282 150.26L55.828 148.711C55.9068 148.617 56.0015 148.54 56.1122 148.479C56.2229 148.419 56.343 148.383 56.4725 148.372L60.832 147.99L60.6621 146.048L55.2667 146.52C55.0077 146.542 54.7765 146.468 54.5731 146.298C54.3697 146.127 54.2566 145.912 54.234 145.653L53.9847 142.805C53.9621 142.546 54.0361 142.314 54.2068 142.111C54.3774 141.908 54.5923 141.795 54.8513 141.772L60.2467 141.3L60.1334 140.005C60.117 139.818 60.1646 139.658 60.2762 139.525C60.3878 139.392 60.5372 139.317 60.7242 139.301C60.9112 139.284 61.0713 139.332 61.2043 139.444C61.3373 139.555 61.4119 139.705 61.4283 139.892L61.5416 141.187L65.9011 140.805C66.0306 140.794 66.1551 140.808 66.2746 140.849C66.3941 140.889 66.5008 140.948 66.5947 141.027L68.1437 142.327C68.2532 142.419 68.3346 142.52 68.3878 142.632C68.4411 142.743 68.4727 142.856 68.4828 142.971C68.4928 143.087 68.4813 143.204 68.4482 143.322C68.4151 143.441 68.3527 143.555 68.2607 143.665L66.961 145.214C66.8822 145.308 66.7875 145.385 66.6768 145.445C66.5661 145.506 66.446 145.542 66.3165 145.553L61.957 145.935L62.1269 147.877L67.5223 147.405C67.7813 147.382 68.0125 147.456 68.2159 147.627C68.4193 147.798 68.5324 148.012 68.555 148.271L68.8043 151.12C68.8269 151.379 68.7529 151.61 68.5822 151.814C68.4115 152.017 68.1967 152.13 67.9377 152.153L62.5423 152.625L62.8255 155.862C62.8419 156.049 62.7943 156.209 62.6827 156.342C62.5711 156.475 62.4218 156.55 62.2347 156.566Z" fill="#5149A8"/>
<path d="M82.0123 141.762C79.1506 142.013 77.3879 144.385 77.6144 146.975C77.841 149.565 79.9889 151.595 82.8507 151.345C85.6994 151.095 87.4622 148.723 87.2356 146.133C87.009 143.543 84.8611 141.513 82.0123 141.762ZM82.7 149.622C80.9907 149.772 79.6568 148.545 79.505 146.809C79.3532 145.074 80.4537 143.634 82.163 143.485C83.8593 143.336 85.1932 144.563 85.345 146.299C85.4968 148.034 84.3963 149.474 82.7 149.622ZM87.9017 144.065L88.0308 145.542L89.248 145.435L89.6899 150.485L91.3473 150.34L90.9055 145.29L92.8997 145.116L92.7705 143.639L90.7764 143.814L90.7129 143.089C90.6608 142.493 90.9894 142.073 91.5462 142.024C91.8829 141.995 92.1521 142.089 92.3588 142.214L92.9379 140.78C92.5043 140.596 91.9868 140.498 91.3912 140.55C89.7596 140.693 88.9376 141.887 89.0588 143.273L89.1189 143.959L87.9017 144.065ZM93.4151 143.583L93.5443 145.059L94.7615 144.953L95.2033 150.003L96.8608 149.858L96.419 144.808L98.4131 144.633L98.284 143.157L96.2898 143.332L96.2264 142.606C96.1743 142.011 96.5028 141.591 97.0597 141.542C97.3963 141.512 97.6655 141.606 97.8722 141.732L98.4514 140.298C98.0177 140.114 97.5003 140.016 96.9046 140.068C95.273 140.211 94.4511 141.405 94.5723 142.79L94.6323 143.477L93.4151 143.583ZM99.8977 149.592L101.542 149.448L101.176 145.266C101.386 144.83 101.866 144.344 102.668 144.274C102.966 144.248 103.19 144.268 103.401 144.301L103.26 142.683C103.1 142.644 102.902 142.623 102.682 142.642C101.944 142.706 101.417 143.092 101.028 143.569L100.971 142.922L99.3268 143.066L99.8977 149.592ZM110.796 147.569L109.536 146.74C109.227 147.236 108.632 147.602 107.92 147.664C106.897 147.753 106.103 147.327 105.841 146.123L110.412 145.723C110.445 145.499 110.467 145.158 110.435 144.795C110.286 143.086 108.987 141.96 107.174 142.118C105.037 142.305 103.96 144.005 104.128 145.934C104.295 147.837 105.744 149.342 108.062 149.139C109.292 149.031 110.258 148.438 110.796 147.569ZM107.253 143.468C108.172 143.388 108.709 144.007 108.793 144.665L105.789 144.927C105.895 144.057 106.411 143.542 107.253 143.468ZM111.638 147.613C112.324 148.296 113.194 148.69 114.359 148.588C115.589 148.48 116.624 147.633 116.53 146.258C116.333 144.005 113.246 144.667 113.149 143.553C113.119 143.216 113.34 142.91 113.858 142.865C114.363 142.82 114.82 143.12 115.193 143.505L116.197 142.451C115.675 141.857 114.727 141.458 113.73 141.545C112.37 141.664 111.475 142.616 111.576 143.769C111.776 146.061 114.859 145.36 114.959 146.5C114.993 146.888 114.748 147.223 114.218 147.269C113.596 147.324 113.085 147.003 112.64 146.533L111.638 147.613ZM120.947 144.463C121.114 146.366 122.511 147.875 124.57 147.695C125.451 147.618 126.061 147.29 126.522 146.741L126.567 147.259L128.225 147.114L127.375 137.402L125.718 137.547L126.042 141.251C125.493 140.79 124.834 140.573 123.954 140.65C121.895 140.83 120.78 142.559 120.947 144.463ZM122.669 144.312C122.57 143.172 123.209 142.281 124.323 142.184C125.061 142.119 125.697 142.377 126.189 142.934L126.375 145.058C125.987 145.692 125.405 146.056 124.667 146.12C123.554 146.218 122.769 145.451 122.669 144.312ZM130.608 141.53L131.784 137.669L129.919 137.832L129.08 141.663L130.608 141.53ZM135.125 146.706C135.889 146.639 136.638 146.247 137.008 145.706L137.063 146.341L138.708 146.197L138.339 141.975C138.213 140.538 137.143 139.496 135.253 139.662C134.061 139.766 133.146 140.342 132.634 141.196L133.918 142.01C134.226 141.5 134.692 141.159 135.326 141.104C136.078 141.038 136.634 141.433 136.694 142.119L136.709 142.288L134.744 142.799C133.366 143.154 132.667 143.959 132.753 144.943C132.858 146.147 133.817 146.82 135.125 146.706ZM134.377 144.723C134.342 144.321 134.602 144.012 135.278 143.835L136.81 143.44L136.89 144.359C136.612 144.906 136.098 145.303 135.347 145.369C134.791 145.417 134.416 145.163 134.377 144.723ZM140.591 146.032L142.236 145.888L141.386 136.176L139.741 136.32L140.591 146.032ZM144.414 143.297C144.553 144.889 145.41 145.741 147.042 145.598C147.586 145.551 147.969 145.452 148.28 145.281L148.154 143.844C147.942 143.954 147.649 144.031 147.195 144.071C146.548 144.128 146.135 143.877 146.071 143.152L145.838 140.484L147.832 140.31L147.703 138.834L145.709 139.008L145.566 137.376L143.908 137.521L144.051 139.153L142.834 139.26L142.963 140.736L144.18 140.629L144.414 143.297ZM155.535 143.655L154.275 142.825C153.967 143.322 153.372 143.687 152.66 143.75C151.637 143.839 150.843 143.413 150.581 142.209L155.152 141.809C155.185 141.585 155.207 141.243 155.175 140.881C155.026 139.171 153.727 138.046 151.914 138.204C149.777 138.391 148.7 140.09 148.868 142.02C149.035 143.923 150.484 145.427 152.802 145.225C154.032 145.117 154.998 144.524 155.535 143.655ZM151.993 139.554C152.912 139.474 153.449 140.092 153.533 140.75L150.529 141.013C150.635 140.143 151.151 139.628 151.993 139.554ZM157.119 144.586L158.763 144.442L158.397 140.26C158.607 139.824 159.087 139.338 159.889 139.268C160.187 139.242 160.411 139.261 160.623 139.295L160.481 137.676C160.321 137.638 160.123 137.616 159.903 137.636C159.165 137.7 158.638 138.086 158.249 138.563L158.192 137.916L156.548 138.06L157.119 144.586ZM162.379 144.126L164.024 143.982L163.651 139.722C163.861 139.286 164.252 138.69 165.081 138.618C165.884 138.548 166.424 139.049 166.5 139.916L166.834 143.736L168.491 143.591L168.151 139.706C167.983 137.777 166.771 136.904 165.36 137.028C164.492 137.104 163.913 137.494 163.498 137.974L163.453 137.456L161.808 137.599L162.379 144.126ZM172.214 143.461C172.978 143.394 173.727 143.003 174.097 142.461L174.153 143.096L175.797 142.952L175.428 138.73C175.302 137.293 174.232 136.252 172.342 136.417C171.151 136.521 170.235 137.097 169.723 137.951L171.008 138.765C171.315 138.255 171.781 137.914 172.416 137.859C173.167 137.793 173.723 138.188 173.783 138.874L173.798 139.043L171.833 139.554C170.455 139.909 169.756 140.714 169.842 141.698C169.947 142.903 170.907 143.575 172.214 143.461ZM171.467 141.478C171.432 141.076 171.692 140.767 172.368 140.59L173.899 140.195L173.979 141.115C173.701 141.661 173.188 142.058 172.437 142.124C171.88 142.172 171.505 141.918 171.467 141.478ZM177.68 142.787L179.325 142.643L178.952 138.383C179.162 137.947 179.554 137.352 180.382 137.279C181.185 137.209 181.725 137.71 181.801 138.577L182.135 142.397L183.792 142.252L183.452 138.368C183.284 136.438 182.072 135.566 180.661 135.689C179.793 135.765 179.214 136.155 178.799 136.635L178.754 136.117L177.109 136.261L177.68 142.787ZM188.68 140.52C187.579 140.616 186.718 139.87 186.617 138.717C186.518 137.578 187.235 136.68 188.31 136.586C188.983 136.527 189.527 136.779 189.878 137.205L191.073 136.109C190.395 135.359 189.391 134.925 188.2 135.03C185.947 135.227 184.742 136.963 184.908 138.867C185.075 140.77 186.563 142.271 188.816 142.074C190.007 141.97 190.92 141.368 191.459 140.512L190.091 139.64C189.819 140.12 189.328 140.463 188.68 140.52ZM198.442 139.901L197.182 139.072C196.873 139.568 196.279 139.933 195.566 139.996C194.543 140.085 193.749 139.659 193.487 138.455L198.058 138.055C198.091 137.831 198.113 137.49 198.082 137.127C197.932 135.418 196.633 134.292 194.82 134.45C192.684 134.637 191.606 136.336 191.775 138.266C191.941 140.169 193.391 141.674 195.708 141.471C196.939 141.363 197.904 140.77 198.442 139.901ZM194.899 135.8C195.819 135.72 196.356 136.338 196.439 136.997L193.435 137.259C193.542 136.389 194.058 135.874 194.899 135.8Z" fill="#161616"/>
<rect x="56.8174" y="169.218" width="60.443" height="13.6484" rx="6.82314" transform="rotate(-5 56.8174 169.218)" fill="#F1F1F1"/>
<rect x="122.21" y="163.497" width="40.9452" height="13.6484" rx="6.82314" transform="rotate(-5 122.21 163.497)" fill="#F1F1F1"/>
<rect x="168.179" y="159.476" width="82.5404" height="13.6484" rx="6.82314" transform="rotate(-5 168.179 159.476)" fill="#F1F1F1"/>
</g>
<g filter="url(#filter4_d_4866_12752)">
<rect x="53.2471" y="163.474" width="222.924" height="65.6424" rx="5.19859" transform="rotate(-5 53.2471 163.474)" fill="white" shape-rendering="crispEdges"/>
<path d="M73.6413 187.786L78.8209 187.333C79.0655 187.311 79.2634 187.21 79.4147 187.03C79.5654 186.851 79.6301 186.638 79.6087 186.394C79.5873 186.149 79.4868 185.952 79.3071 185.801C79.1269 185.65 78.9145 185.585 78.6699 185.606L73.4903 186.059C73.2457 186.081 73.048 186.181 72.8974 186.362C72.7461 186.541 72.6811 186.753 72.7025 186.998C72.7239 187.243 72.8247 187.44 73.0049 187.591C73.1846 187.742 73.3967 187.807 73.6413 187.786ZM73.3392 184.333L78.5188 183.88C78.7634 183.858 78.9613 183.757 79.1126 183.577C79.2633 183.397 79.328 183.185 79.3066 182.941C79.2852 182.696 79.1846 182.498 79.005 182.347C78.8248 182.196 78.6124 182.132 78.3678 182.153L73.1882 182.606C72.9436 182.628 72.7459 182.728 72.5952 182.908C72.4439 183.088 72.379 183.3 72.4004 183.545C72.4218 183.79 72.5226 183.987 72.7028 184.138C72.8825 184.289 73.0946 184.354 73.3392 184.333ZM71.3536 191.465C70.8788 191.507 70.4577 191.374 70.0903 191.065C69.7223 190.757 69.5176 190.365 69.476 189.89L68.2676 176.078C68.2261 175.603 68.3597 175.181 68.6685 174.813C68.9768 174.446 69.3683 174.242 69.8431 174.2L76.037 173.658C76.2672 173.638 76.4906 173.662 76.707 173.73C76.9229 173.798 77.1169 173.904 77.289 174.049L81.8422 177.869C82.0143 178.014 82.1526 178.186 82.2572 178.387C82.3618 178.588 82.4242 178.804 82.4443 179.034L83.2883 188.682C83.3299 189.156 83.1965 189.578 82.8883 189.946C82.5794 190.313 82.1876 190.518 81.7128 190.559L71.3536 191.465ZM76.3391 178.851C76.3605 179.096 76.4613 179.293 76.6415 179.444C76.8212 179.595 77.0333 179.66 77.2779 179.639L80.731 179.337L76.037 175.398L76.3391 178.851Z" fill="#2186C7"/>
<path d="M96.3109 176.208C93.4492 176.459 91.6865 178.831 91.9131 181.421C92.1396 184.011 94.2875 186.041 97.1493 185.791C99.9981 185.541 101.761 183.169 101.534 180.579C101.308 177.989 99.1597 175.959 96.3109 176.208ZM96.9986 184.068C95.2893 184.218 93.9554 182.991 93.8036 181.256C93.6518 179.52 94.7523 178.08 96.4616 177.931C98.1579 177.782 99.4918 179.009 99.6436 180.745C99.7954 182.48 98.6949 183.92 96.9986 184.068ZM102.2 178.511L102.329 179.988L103.547 179.881L103.988 184.931L105.646 184.786L105.204 179.736L107.198 179.562L107.069 178.086L105.075 178.26L105.012 177.535C104.959 176.939 105.288 176.519 105.845 176.47C106.181 176.441 106.451 176.535 106.657 176.66L107.237 175.226C106.803 175.043 106.285 174.944 105.69 174.996C104.058 175.139 103.236 176.333 103.357 177.719L103.418 178.405L102.2 178.511ZM107.714 178.029L107.843 179.505L109.06 179.399L109.502 184.449L111.159 184.304L110.718 179.254L112.712 179.079L112.583 177.603L110.588 177.778L110.525 177.052C110.473 176.457 110.801 176.037 111.358 175.988C111.695 175.958 111.964 176.052 112.171 176.178L112.75 174.744C112.316 174.56 111.799 174.462 111.203 174.514C109.572 174.657 108.75 175.851 108.871 177.236L108.931 177.923L107.714 178.029ZM114.196 184.038L115.841 183.894L115.475 179.712C115.685 179.276 116.164 178.79 116.967 178.72C117.265 178.694 117.488 178.714 117.7 178.747L117.558 177.129C117.399 177.09 117.201 177.069 116.981 177.088C116.243 177.152 115.715 177.538 115.327 178.016L115.27 177.368L113.625 177.512L114.196 184.038ZM125.094 182.015L123.834 181.186C123.525 181.682 122.931 182.048 122.219 182.11C121.196 182.199 120.402 181.773 120.14 180.569L124.711 180.169C124.743 179.945 124.766 179.604 124.734 179.241C124.584 177.532 123.286 176.406 121.473 176.564C119.336 176.751 118.258 178.451 118.427 180.38C118.594 182.283 120.043 183.788 122.361 183.585C123.591 183.477 124.557 182.884 125.094 182.015ZM121.552 177.915C122.471 177.834 123.008 178.453 123.092 179.111L120.087 179.374C120.194 178.503 120.71 177.988 121.552 177.915ZM129.416 179.419C129.583 181.322 130.98 182.831 133.039 182.651C133.92 182.574 134.53 182.246 134.991 181.697L135.036 182.215L136.694 182.07L135.844 172.358L134.187 172.503L134.511 176.207C133.962 175.746 133.303 175.529 132.423 175.606C130.364 175.787 129.249 177.515 129.416 179.419ZM131.138 179.268C131.039 178.128 131.678 177.237 132.792 177.14C133.53 177.075 134.166 177.333 134.658 177.89L134.844 180.014C134.456 180.648 133.874 181.012 133.136 181.076C132.023 181.174 131.238 180.407 131.138 179.268ZM139.077 176.486L140.253 172.625L138.388 172.788L137.549 176.619L139.077 176.486ZM147.527 180.052L146.267 179.223C145.959 179.72 145.364 180.085 144.652 180.147C143.629 180.237 142.835 179.81 142.573 178.607L147.144 178.207C147.177 177.982 147.199 177.641 147.167 177.278C147.018 175.569 145.719 174.443 143.906 174.602C141.769 174.789 140.691 176.488 140.86 178.417C141.027 180.321 142.476 181.825 144.794 181.622C146.024 181.515 146.99 180.921 147.527 180.052ZM143.985 175.952C144.904 175.871 145.441 176.49 145.525 177.148L142.521 177.411C142.627 176.54 143.143 176.026 143.985 175.952ZM149.111 180.984L150.755 180.84L150.382 176.58C150.592 176.144 150.932 175.553 151.683 175.487C152.421 175.423 152.892 175.877 152.961 176.667L153.306 180.617L154.964 180.472L154.612 176.457C154.603 176.354 154.595 176.263 154.575 176.174C154.795 175.711 155.14 175.185 155.853 175.122C156.591 175.058 157.061 175.512 157.13 176.302L157.476 180.252L159.133 180.107L158.782 176.093C158.621 174.254 157.478 173.414 156.131 173.532C155.03 173.629 154.452 174.175 154.036 174.785C153.547 174.124 152.79 173.824 151.961 173.897C151.159 173.967 150.63 174.34 150.227 174.806L150.184 174.313L148.54 174.457L149.111 180.984ZM161.289 183.128L162.933 182.984L162.608 179.268C163.157 179.729 163.817 179.958 164.71 179.88C166.782 179.699 167.884 177.971 167.717 176.068C167.551 174.164 166.166 172.654 164.094 172.836C163.201 172.914 162.591 173.254 162.13 173.803L162.084 173.272L160.439 173.416L161.289 183.128ZM163.997 174.41C165.11 174.312 165.908 175.078 166.008 176.217C166.108 177.357 165.455 178.249 164.341 178.346C163.59 178.412 162.953 178.142 162.459 177.559L162.28 175.513C162.641 174.868 163.233 174.477 163.997 174.41ZM169.508 179.199L171.152 179.055L170.303 169.343L168.658 169.487L169.508 179.199ZM175.639 171.826C173.515 172.011 172.202 173.705 172.373 175.66C172.544 177.616 174.131 179.056 176.255 178.87C178.379 178.684 179.692 176.99 179.521 175.035C179.35 173.08 177.762 171.64 175.639 171.826ZM176.145 177.314C175.057 177.409 174.182 176.65 174.082 175.511C173.982 174.371 174.713 173.472 175.801 173.377C176.849 173.285 177.712 174.045 177.811 175.185C177.91 176.311 177.194 177.222 176.145 177.314ZM181.464 170.429C182.047 170.378 182.483 169.844 182.432 169.261C182.381 168.678 181.859 168.228 181.276 168.279C180.693 168.33 180.244 168.865 180.295 169.448C180.346 170.031 180.882 170.48 181.464 170.429ZM181.306 178.167L182.951 178.023L182.38 171.497L180.735 171.641L181.306 178.167Z" fill="#161616"/>
<rect x="71.116" y="203.664" width="60.443" height="13.6484" rx="6.82314" transform="rotate(-5 71.116 203.664)" fill="#F1F1F1"/>
<rect x="136.509" y="197.943" width="40.9452" height="13.6484" rx="6.82314" transform="rotate(-5 136.509 197.943)" fill="#F1F1F1"/>
<rect x="182.478" y="193.921" width="82.5404" height="13.6484" rx="6.82314" transform="rotate(-5 182.478 193.921)" fill="#F1F1F1"/>
</g>
<path d="M165.163 279.829C164.304 275.332 163.462 271.02 162.637 266.708C162.468 265.849 162.351 265.243 162.317 264.131C162.283 263.306 162.25 261.554 163.142 261.706C163.866 261.908 164.355 262.144 164.793 263.609C165.904 267.399 166.443 271.323 166.999 275.214C167.488 278.65 167.808 281.277 168.06 284.343C168.178 285.774 167.471 286.347 166.157 286.179C164.978 286.027 163.765 285.892 162.637 285.522C158.561 284.208 154.535 282.793 150.476 281.412C149.971 281.244 149.567 281.142 148.994 280.856C148.304 280.502 147.781 280.283 147.984 279.559C148.169 278.869 149.179 278.902 149.685 279.02C153.929 279.913 162.654 281.9 163.142 281.9C161.727 279.694 160.464 277.622 159.083 275.618C149.398 261.706 138.804 248.602 125.229 238.176C114.483 229.923 102.946 223.085 90.364 218.032C89.6229 217.729 88.8987 217.358 88.2081 216.988C87.2649 216.499 86.8607 216.078 87.0797 215.573C87.6186 214.68 88.3429 214.849 88.9324 214.933C90.1114 215.085 91.2735 215.489 92.402 215.876C107.443 221.215 120.614 229.704 132.724 239.962C145.154 250.488 154.721 263.356 163.226 277.083C163.647 277.824 164.86 279.559 165.163 279.829Z" fill="black"/>
<defs>
<filter id="filter0_d_4866_12752" x="-22.2608" y="240.181" width="396.475" height="149.345" filterUnits="userSpaceOnUse" color-interpolation-filters="sRGB">
<feFlood flood-opacity="0" result="BackgroundImageFix"/>
<feColorMatrix in="SourceAlpha" type="matrix" values="0 0 0 0 0 0 0 0 0 0 0 0 0 0 0 0 0 0 127 0" result="hardAlpha"/>
<feOffset dy="6"/>
<feGaussianBlur stdDeviation="12.5"/>
<feComposite in2="hardAlpha" operator="out"/>
<feColorMatrix type="matrix" values="0 0 0 0 0.196078 0 0 0 0 0.196078 0 0 0 0 0.196078 0 0 0 0.1 0"/>
<feBlend mode="normal" in2="BackgroundImageFix" result="effect1_dropShadow_4866_12752"/>
<feBlend mode="normal" in="SourceGraphic" in2="effect1_dropShadow_4866_12752" result="shape"/>
</filter>
<filter id="filter1_d_4866_12752" x="-5.2464" y="29.658" width="260.293" height="117.318" filterUnits="userSpaceOnUse" color-interpolation-filters="sRGB">
<feFlood flood-opacity="0" result="BackgroundImageFix"/>
<feColorMatrix in="SourceAlpha" type="matrix" values="0 0 0 0 0 0 0 0 0 0 0 0 0 0 0 0 0 0 127 0" result="hardAlpha"/>
<feOffset dy="3.89894"/>
<feGaussianBlur stdDeviation="8.12279"/>
<feComposite in2="hardAlpha" operator="out"/>
<feColorMatrix type="matrix" values="0 0 0 0 0.196078 0 0 0 0 0.196078 0 0 0 0 0.196078 0 0 0 0.1 0"/>
<feBlend mode="normal" in2="BackgroundImageFix" result="effect1_dropShadow_4866_12752"/>
<feBlend mode="normal" in="SourceGraphic" in2="effect1_dropShadow_4866_12752" result="shape"/>
</filter>
<filter id="filter2_d_4866_12752" x="9.05221" y="64.104" width="260.293" height="117.318" filterUnits="userSpaceOnUse" color-interpolation-filters="sRGB">
<feFlood flood-opacity="0" result="BackgroundImageFix"/>
<feColorMatrix in="SourceAlpha" type="matrix" values="0 0 0 0 0 0 0 0 0 0 0 0 0 0 0 0 0 0 127 0" result="hardAlpha"/>
<feOffset dy="3.89894"/>
<feGaussianBlur stdDeviation="8.12279"/>
<feComposite in2="hardAlpha" operator="out"/>
<feColorMatrix type="matrix" values="0 0 0 0 0.196078 0 0 0 0 0.196078 0 0 0 0 0.196078 0 0 0 0.1 0"/>
<feBlend mode="normal" in2="BackgroundImageFix" result="effect1_dropShadow_4866_12752"/>
<feBlend mode="normal" in="SourceGraphic" in2="effect1_dropShadow_4866_12752" result="shape"/>
</filter>
<filter id="filter3_d_4866_12752" x="22.7003" y="97.2501" width="260.293" height="117.318" filterUnits="userSpaceOnUse" color-interpolation-filters="sRGB">
<feFlood flood-opacity="0" result="BackgroundImageFix"/>
<feColorMatrix in="SourceAlpha" type="matrix" values="0 0 0 0 0 0 0 0 0 0 0 0 0 0 0 0 0 0 127 0" result="hardAlpha"/>
<feOffset dy="3.89894"/>
<feGaussianBlur stdDeviation="8.12279"/>
<feComposite in2="hardAlpha" operator="out"/>
<feColorMatrix type="matrix" values="0 0 0 0 0.196078 0 0 0 0 0.196078 0 0 0 0 0.196078 0 0 0 0.1 0"/>
<feBlend mode="normal" in2="BackgroundImageFix" result="effect1_dropShadow_4866_12752"/>
<feBlend mode="normal" in="SourceGraphic" in2="effect1_dropShadow_4866_12752" result="shape"/>
</filter>
<filter id="filter4_d_4866_12752" x="36.9989" y="131.696" width="260.293" height="117.318" filterUnits="userSpaceOnUse" color-interpolation-filters="sRGB">
<feFlood flood-opacity="0" result="BackgroundImageFix"/>
<feColorMatrix in="SourceAlpha" type="matrix" values="0 0 0 0 0 0 0 0 0 0 0 0 0 0 0 0 0 0 127 0" result="hardAlpha"/>
<feOffset dy="3.89894"/>
<feGaussianBlur stdDeviation="8.12279"/>
<feComposite in2="hardAlpha" operator="out"/>
<feColorMatrix type="matrix" values="0 0 0 0 0.196078 0 0 0 0 0.196078 0 0 0 0 0.196078 0 0 0 0.1 0"/>
<feBlend mode="normal" in2="BackgroundImageFix" result="effect1_dropShadow_4866_12752"/>
<feBlend mode="normal" in="SourceGraphic" in2="effect1_dropShadow_4866_12752" result="shape"/>
</filter>
<clipPath id="clip0_4866_12752">
<rect x="2.7431" y="288.964" width="341.682" height="69.8235" rx="16" transform="rotate(-5 2.7431 288.964)" fill="white"/>
</clipPath>
<clipPath id="clip1_4866_12752">
<rect width="20.4107" height="20.4107" fill="white" transform="translate(96.661 296.81) rotate(-5)"/>
</clipPath>
<clipPath id="clip2_4866_12752">
<rect width="20.7943" height="20.7943" fill="white" transform="translate(36.5657 105.335) rotate(-5)"/>
</clipPath>
</defs>
</svg>
