<svg width="470" height="292" viewBox="0 0 470 292" fill="none" xmlns="http://www.w3.org/2000/svg">
<g clip-path="url(#clip0_1218_6684)">
<g clip-path="url(#clip1_1218_6684)">
<g clip-path="url(#clip2_1218_6684)">
<g clip-path="url(#clip3_1218_6684)">
<rect width="366.384" height="675.945" transform="translate(13.5908 -380.729) rotate(-5)" fill="#F1F1F1"/>
<rect x="47.749" y="-78.5566" width="270" height="80" rx="8" transform="rotate(-5 47.749 -78.5566)" fill="white"/>
<path d="M61.0984 16.5619C63.5531 16.3471 64.9501 18.5016 65.2039 21.4025C65.4577 24.3034 64.456 26.6677 62.0014 26.8825C59.5746 27.0948 58.1636 24.9416 57.9098 22.0406C57.656 19.1397 58.6717 16.7742 61.0984 16.5619ZM61.2149 17.7322C59.6528 17.8688 58.9928 19.6411 59.1929 21.9284C59.393 24.2156 60.3508 25.8464 61.9128 25.7097C63.4609 25.5743 64.107 23.8032 63.9069 21.516C63.7068 19.2287 62.763 17.5967 61.2149 17.7322ZM69.8353 26.1971C68.329 26.3289 67.3081 25.7436 66.5521 24.812L67.4891 23.957C68.1214 24.759 68.8287 25.1328 69.7352 25.0534C71.5204 24.8973 72.2837 23.3408 72.1271 20.9092C71.492 21.6815 70.6057 22.1525 69.5179 22.2477C67.6908 22.4076 66.3148 21.1367 66.1648 19.4212C66.0098 17.65 67.1193 16.0351 69.2392 15.8497C71.5264 15.6496 73.1045 17.1417 73.401 20.5307C73.678 23.6967 72.6107 25.9543 69.8353 26.1971ZM67.4581 19.2659C67.557 20.3956 68.4706 21.201 69.6143 21.1009C70.6045 21.0143 71.4605 20.5178 71.9579 19.617C71.5693 17.5852 70.5805 16.8847 69.3532 16.9921C68.0561 17.1055 67.3556 18.0944 67.4581 19.2659ZM75.9554 19.9278C75.4533 19.9717 75.0135 19.6027 74.9708 19.1145C74.928 18.6264 75.2983 18.2005 75.8004 18.1566C76.3025 18.1127 76.7272 18.469 76.7699 18.9571C76.8126 19.4453 76.4575 19.8839 75.9554 19.9278ZM76.4422 25.4926C75.9402 25.5365 75.5015 25.1814 75.4588 24.6932C75.4161 24.2051 75.7852 23.7653 76.2873 23.7213C76.7894 23.6774 77.2152 24.0477 77.258 24.5358C77.3007 25.024 76.9443 25.4486 76.4422 25.4926ZM81.5148 24.8942L80.7717 16.4006L78.3136 18.021L77.5939 17.1846L80.6467 15.1327L81.9019 15.0229L82.7561 24.7856L81.5148 24.8942ZM85.4365 24.5511L85.3377 23.4214L88.3454 19.7292C89.3841 18.4297 89.8525 17.8407 89.7622 16.8086C89.6731 15.7905 88.8827 15.2694 87.8925 15.356C86.8604 15.4463 86.2361 16.0209 85.7473 17.0193L84.6603 16.482C85.3467 15.1712 86.3711 14.3508 87.8913 14.2178C89.5231 14.0751 90.9128 15.0215 91.0519 16.6115C91.1678 17.9364 90.3898 19.0023 89.3256 20.3321L86.8858 23.286L91.8648 22.8503L91.9636 23.98L85.4365 24.5511Z" fill="#646464"/>
<rect x="143.589" y="87.5225" width="270" height="56" rx="8" transform="rotate(-5 143.589 87.5225)" fill="#3B69D1"/>
<path d="M169.162 119.327C170.661 119.196 171.824 118.355 172.478 117.206L173.755 118.026C172.856 119.501 171.294 120.554 169.285 120.729C165.795 121.035 163.183 118.533 162.904 115.345C162.625 112.157 164.763 109.24 168.253 108.934C170.262 108.759 171.984 109.54 173.124 110.821L172.01 111.85C171.166 110.832 169.874 110.206 168.376 110.337C165.858 110.557 164.232 112.723 164.45 115.21C164.667 117.696 166.644 119.547 169.162 119.327ZM176 112.882L174.741 112.992L175.722 108.602L177.268 108.467L176 112.882ZM186.386 117.579C185.725 118.649 184.585 119.391 183.087 119.522C180.377 119.759 178.529 117.913 178.324 115.57C178.111 113.131 179.507 111.098 181.993 110.88C184.177 110.689 185.73 112.095 185.902 114.072C185.93 114.39 185.909 114.698 185.881 114.925L179.712 115.465C179.929 117.389 181.258 118.445 182.979 118.295C184.015 118.204 184.85 117.649 185.313 116.886L186.386 117.579ZM182.062 112.031C180.739 112.146 179.883 113.008 179.717 114.42L184.531 113.999C184.38 112.824 183.481 111.907 182.062 112.031ZM187.603 117.697L188.488 116.801C189.108 117.453 189.812 117.793 190.625 117.722C191.518 117.644 191.98 117.057 191.919 116.356C191.761 114.555 187.8 115.544 187.552 112.707C187.442 111.448 188.419 110.318 189.965 110.183C191.113 110.082 192.149 110.538 192.775 111.27L191.904 112.149C191.421 111.581 190.782 111.252 190.08 111.313C189.22 111.388 188.802 111.939 188.856 112.561C189.014 114.362 192.996 113.435 193.236 116.177C193.351 117.676 192.238 118.721 190.74 118.852C189.465 118.964 188.416 118.542 187.603 117.697ZM195.916 115.364L195.556 111.252L194.042 111.384L193.934 110.157L195.449 110.024L195.273 108.016L196.644 107.896L196.819 109.904L199.609 109.66L199.716 110.888L196.927 111.132L197.287 115.244C197.397 116.503 198.065 116.798 199.037 116.713C199.563 116.667 199.924 116.571 200.216 116.417L200.322 117.628C199.953 117.821 199.529 117.923 198.955 117.973C197.17 118.129 196.087 117.324 195.916 115.364ZM205.722 116.112L206.607 115.216C207.226 115.868 207.93 116.208 208.743 116.137C209.636 116.059 210.098 115.472 210.037 114.771C209.879 112.97 205.919 113.959 205.67 111.122C205.56 109.862 206.538 108.733 208.084 108.598C209.231 108.497 210.267 108.953 210.893 109.685L210.022 110.564C209.539 109.996 208.9 109.667 208.199 109.728C207.338 109.803 206.92 110.354 206.975 110.975C207.132 112.776 211.115 111.85 211.354 114.591C211.47 116.091 210.356 117.136 208.858 117.267C207.583 117.379 206.534 116.957 205.722 116.112ZM219.039 112.586L218.637 107.996L219.992 107.877L220.389 112.42C220.6 114.826 219.336 116.35 217.152 116.542C214.984 116.731 213.475 115.45 213.265 113.043L212.867 108.5L214.222 108.382L214.624 112.972C214.762 114.55 215.686 115.385 217.057 115.265C218.395 115.148 219.177 114.164 219.039 112.586ZM223.708 119.598L222.662 107.643L224.017 107.525L224.1 108.481C224.747 107.606 225.647 107.061 226.842 106.957C229.36 106.736 231.144 108.588 231.349 110.931C231.554 113.274 230.119 115.407 227.601 115.627C226.405 115.732 225.424 115.352 224.636 114.602L225.063 119.479L223.708 119.598ZM226.794 108.246C225.678 108.343 224.754 108.97 224.231 109.98L224.505 113.104C225.212 114.022 226.23 114.462 227.33 114.366C229.035 114.217 230.08 112.76 229.931 111.055C229.782 109.349 228.5 108.096 226.794 108.246ZM240.99 112.802C240.329 113.871 239.189 114.614 237.691 114.745C234.981 114.982 233.133 113.136 232.928 110.793C232.715 108.354 234.111 106.321 236.597 106.103C238.781 105.912 240.333 107.318 240.506 109.294C240.534 109.613 240.513 109.92 240.485 110.148L234.316 110.687C234.533 112.612 235.862 113.668 237.583 113.517C238.619 113.427 239.454 112.872 239.917 112.109L240.99 112.802ZM236.666 107.253C235.343 107.369 234.487 108.231 234.321 109.643L239.135 109.222C238.984 108.046 238.084 107.129 236.666 107.253ZM243.226 113.939L242.524 105.906L243.878 105.787L243.966 106.791C244.495 106.038 245.187 105.512 246.207 105.423C246.463 105.401 246.704 105.412 246.901 105.459L247.017 106.781C246.772 106.739 246.53 106.728 246.212 106.756C245.16 106.848 244.522 107.45 244.099 108.306L244.581 113.821L243.226 113.939ZM253.858 113.009L253.155 104.976L254.51 104.857L254.586 105.734C255.131 104.979 255.884 104.416 257 104.318C258.164 104.216 259.166 104.659 259.749 105.635C260.31 104.703 261.096 103.96 262.483 103.838C264.205 103.688 265.564 104.725 265.755 106.909L266.195 111.93L264.84 112.048L264.405 107.075C264.287 105.736 263.471 105.037 262.324 105.137C261.304 105.226 260.637 105.863 260.193 106.849C260.224 107.023 260.255 107.197 260.272 107.389L260.711 112.409L259.357 112.528L258.922 107.555C258.804 106.216 258.004 105.515 256.841 105.617C255.741 105.713 255.116 106.458 254.726 107.328L255.212 112.89L253.858 113.009ZM275.95 109.743C275.289 110.813 274.149 111.555 272.651 111.686C269.941 111.923 268.093 110.077 267.888 107.734C267.675 105.295 269.071 103.262 271.558 103.044C273.741 102.853 275.294 104.259 275.467 106.236C275.494 106.555 275.473 106.862 275.445 107.089L269.276 107.629C269.493 109.553 270.822 110.609 272.543 110.459C273.58 110.368 274.414 109.813 274.878 109.05L275.95 109.743ZM271.626 104.195C270.303 104.311 269.447 105.172 269.281 106.584L274.095 106.163C273.944 104.988 273.045 104.071 271.626 104.195ZM278.187 110.88L277.484 102.847L278.839 102.729L278.926 103.733C279.455 102.98 280.148 102.453 281.168 102.364C281.423 102.342 281.665 102.353 281.861 102.4L281.977 103.723C281.733 103.68 281.491 103.669 281.172 103.697C280.12 103.789 279.482 104.391 279.059 105.247L279.541 110.762L278.187 110.88ZM287.653 109.089C288.642 109.002 289.413 108.453 289.845 107.708L290.985 108.428C290.323 109.497 289.215 110.237 287.749 110.365C285.087 110.598 283.207 108.755 283.002 106.412C282.797 104.069 284.329 101.927 286.99 101.694C288.441 101.567 289.678 102.118 290.513 103.04L289.516 103.947C288.961 103.289 288.106 102.881 287.102 102.969C285.381 103.12 284.272 104.582 284.421 106.288C284.572 108.009 285.916 109.241 287.653 109.089ZM292.758 99.4068C292.232 99.4528 291.764 99.0601 291.718 98.5341C291.674 98.0241 292.066 97.5561 292.592 97.5101C293.118 97.464 293.57 97.8581 293.615 98.3682C293.661 98.8942 293.284 99.3608 292.758 99.4068ZM292.958 109.588L292.255 101.555L293.61 101.436L294.313 109.47L292.958 109.588ZM301.65 105.551L300.704 97.6677L302.25 97.5324L302.686 105.461L301.65 105.551ZM302.492 108.931C301.918 108.981 301.416 108.559 301.367 108.001C301.319 107.459 301.741 106.957 302.315 106.906C302.873 106.858 303.36 107.281 303.407 107.823C303.456 108.381 303.05 108.882 302.492 108.931Z" fill="#F1F1F1"/>
<path d="M323.411 143.985C325.866 143.77 327.263 145.924 327.517 148.825C327.77 151.726 326.769 154.091 324.314 154.305C321.887 154.518 320.476 152.364 320.222 149.463C319.969 146.563 320.984 144.197 323.411 143.985ZM323.527 145.155C321.965 145.292 321.305 147.064 321.505 149.351C321.706 151.638 322.663 153.269 324.225 153.133C325.773 152.997 326.42 151.226 326.219 148.939C326.019 146.652 325.076 145.02 323.527 145.155ZM332.148 153.62C330.642 153.752 329.621 153.166 328.865 152.235L329.802 151.38C330.434 152.182 331.141 152.556 332.048 152.476C333.833 152.32 334.596 150.764 334.44 148.332C333.805 149.104 332.918 149.575 331.83 149.671C330.003 149.83 328.627 148.559 328.477 146.844C328.322 145.073 329.432 143.458 331.552 143.272C333.839 143.072 335.417 144.565 335.714 147.954C335.991 151.119 334.923 153.377 332.148 153.62ZM329.771 146.689C329.87 147.818 330.783 148.624 331.927 148.524C332.917 148.437 333.773 147.941 334.27 147.04C333.882 145.008 332.893 144.308 331.666 144.415C330.369 144.528 329.668 145.517 329.771 146.689ZM338.268 147.351C337.766 147.395 337.326 147.026 337.283 146.537C337.241 146.049 337.611 145.623 338.113 145.579C338.615 145.535 339.04 145.892 339.082 146.38C339.125 146.868 338.77 147.307 338.268 147.351ZM338.755 152.915C338.253 152.959 337.814 152.604 337.771 152.116C337.729 151.628 338.098 151.188 338.6 151.144C339.102 151.1 339.528 151.471 339.571 151.959C339.613 152.447 339.257 152.871 338.755 152.915ZM340.507 149.769L340.408 148.639L344.487 142.422L346.008 142.289L346.516 148.105L347.646 148.006L347.745 149.135L346.615 149.234L346.862 152.052L345.606 152.161L345.36 149.344L340.507 149.769ZM341.747 148.522L345.261 148.214L344.872 143.765L341.747 148.522ZM351.904 141.492C354.358 141.277 355.755 143.432 356.009 146.333C356.263 149.233 355.261 151.598 352.807 151.812C350.38 152.025 348.969 149.872 348.715 146.971C348.461 144.07 349.477 141.704 351.904 141.492ZM352.02 142.662C350.458 142.799 349.798 144.571 349.998 146.858C350.198 149.146 351.156 150.776 352.718 150.64C354.266 150.504 354.912 148.733 354.712 146.446C354.512 144.159 353.568 142.527 352.02 142.662ZM360.351 146.698L364.116 146.368L364.216 147.512L360.451 147.841L360.351 146.698ZM369.759 150.048L368.905 140.286L370.579 140.139L373.994 144.801L376.548 139.617L378.222 139.47L379.076 149.233L377.765 149.348L377.064 141.342L374.627 146.25L373.623 146.337L370.37 141.928L371.07 149.934L369.759 150.048ZM384.374 141.406C386.634 141.208 388.334 142.816 388.514 144.866C388.693 146.916 387.297 148.795 385.038 148.993C382.765 149.191 381.078 147.582 380.899 145.532C380.719 143.482 382.101 141.604 384.374 141.406ZM384.954 147.876C386.419 147.748 387.385 146.426 387.258 144.976C387.13 143.511 385.95 142.392 384.486 142.52C382.98 142.652 382.012 143.959 382.14 145.424C382.268 146.888 383.448 148.007 384.954 147.876ZM389.888 144.746C389.708 142.696 390.965 140.829 393.168 140.636C394.214 140.545 395.072 140.877 395.762 141.534L395.389 137.266L396.574 137.162L397.489 147.622L396.304 147.726L396.231 146.889C395.665 147.655 394.878 148.132 393.832 148.223C391.628 148.416 390.067 146.796 389.888 144.746ZM391.143 144.636C391.274 146.128 392.381 147.226 393.874 147.095C394.85 147.01 395.673 146.46 396.117 145.592L395.876 142.831C395.259 142.041 394.368 141.656 393.405 141.74C391.913 141.87 391.012 143.144 391.143 144.636ZM399.813 138.495C399.353 138.535 398.944 138.192 398.903 137.731C398.864 137.285 399.208 136.876 399.668 136.835C400.128 136.795 400.524 137.14 400.563 137.586C400.603 138.046 400.274 138.455 399.813 138.495ZM399.988 147.404L399.373 140.374L400.559 140.271L401.174 147.3L399.988 147.404ZM402.144 140.132L403.469 140.016L403.393 139.151C403.263 137.659 404.131 136.501 405.665 136.367C406.307 136.311 406.839 136.447 407.249 136.636L406.805 137.672C406.523 137.5 406.192 137.403 405.787 137.438C404.992 137.508 404.51 138.098 404.59 139.019L404.668 139.911L407.109 139.698L407.203 140.772L404.762 140.985L405.283 146.94L404.084 147.045L403.563 141.09L402.238 141.206L402.144 140.132ZM408.993 137.692C408.533 137.732 408.123 137.388 408.083 136.928C408.044 136.482 408.388 136.072 408.848 136.032C409.308 135.992 409.704 136.337 409.743 136.783C409.783 137.243 409.453 137.652 408.993 137.692ZM409.168 146.6L408.553 139.571L409.739 139.468L410.354 146.497L409.168 146.6ZM415.717 137.82L414.559 137.922L415.807 135.479L417.146 135.362L415.717 137.82ZM419.006 144.573C418.427 145.509 417.43 146.159 416.119 146.273C413.748 146.481 412.131 144.866 411.952 142.815C411.765 140.682 412.987 138.902 415.163 138.712C417.073 138.545 418.432 139.775 418.583 141.504C418.607 141.783 418.589 142.052 418.564 142.251L413.167 142.723C413.356 144.407 414.519 145.331 416.025 145.199C416.932 145.12 417.662 144.635 418.068 143.967L419.006 144.573ZM415.223 139.719C414.065 139.82 413.316 140.574 413.171 141.809L417.383 141.441C417.251 140.412 416.464 139.61 415.223 139.719Z" fill="#646464"/>
<rect width="375" height="72" transform="translate(61.8545 220.351) rotate(-5)" fill="white"/>
<rect x="79.3815" y="231.366" width="282" height="47" rx="9.5" transform="rotate(-5 79.3815 231.366)" fill="white"/>
<rect x="79.3815" y="231.366" width="282" height="47" rx="9.5" transform="rotate(-5 79.3815 231.366)" stroke="#646464"/>
<path d="M96.9354 249.204L98.5293 249.064L103.23 258.37L106.244 248.389L107.838 248.25L104.351 259.798L102.374 259.971L96.9354 249.204ZM112.731 250.649C115.313 250.423 117.257 252.26 117.462 254.603C117.667 256.946 116.072 259.094 113.49 259.319C110.892 259.547 108.964 257.708 108.759 255.365C108.554 253.022 110.133 250.876 112.731 250.649ZM113.394 258.043C115.068 257.897 116.172 256.387 116.027 254.729C115.881 253.055 114.532 251.776 112.859 251.922C111.137 252.073 110.031 253.567 110.178 255.241C110.324 256.914 111.673 258.194 113.394 258.043ZM120.093 255.706L119.734 251.594L118.219 251.726L118.112 250.499L119.626 250.367L119.451 248.358L120.821 248.238L120.997 250.247L123.786 250.003L123.894 251.23L121.104 251.474L121.464 255.586C121.574 256.845 122.243 257.14 123.215 257.055C123.741 257.009 124.102 256.913 124.394 256.759L124.5 257.971C124.131 258.164 123.706 258.265 123.132 258.315C121.347 258.471 120.265 257.667 120.093 255.706ZM126.56 257.855L125.857 249.821L127.212 249.703L127.3 250.707C127.828 249.954 128.521 249.428 129.541 249.339C129.796 249.316 130.038 249.327 130.235 249.374L130.351 250.697C130.106 250.654 129.864 250.643 129.545 250.671C128.493 250.763 127.855 251.365 127.432 252.221L127.915 257.736L126.56 257.855ZM139.438 255.395C138.776 256.465 137.637 257.207 136.138 257.338C133.429 257.575 131.581 255.729 131.376 253.386C131.163 250.947 132.559 248.914 135.045 248.696C137.229 248.505 138.781 249.911 138.954 251.888C138.982 252.207 138.961 252.514 138.932 252.741L132.764 253.281C132.981 255.205 134.31 256.261 136.031 256.111C137.067 256.02 137.902 255.465 138.365 254.702L139.438 255.395ZM135.114 249.847C133.791 249.963 132.935 250.824 132.769 252.236L137.583 251.815C137.432 250.64 136.532 249.723 135.114 249.847ZM145.97 256.157L145.267 248.123L146.622 248.005L146.699 248.881C147.243 248.127 147.997 247.563 149.113 247.466C150.276 247.364 151.279 247.806 151.862 248.783C152.423 247.851 153.209 247.107 154.596 246.986C156.317 246.835 157.677 247.873 157.868 250.056L158.307 255.077L156.952 255.196L156.517 250.223C156.4 248.884 155.584 248.184 154.436 248.285C153.416 248.374 152.749 249.011 152.306 249.997C152.337 250.171 152.368 250.345 152.385 250.536L152.824 255.557L151.469 255.676L151.034 250.702C150.917 249.364 150.117 248.663 148.953 248.764C147.854 248.861 147.228 249.606 146.838 250.475L147.325 256.038L145.97 256.157ZM168.063 252.891C167.401 253.96 166.262 254.703 164.764 254.834C162.054 255.071 160.206 253.225 160.001 250.882C159.788 248.443 161.184 246.41 163.67 246.192C165.854 246.001 167.406 247.407 167.579 249.383C167.607 249.702 167.586 250.009 167.558 250.237L161.389 250.776C161.606 252.701 162.935 253.757 164.656 253.606C165.692 253.516 166.527 252.961 166.99 252.198L168.063 252.891ZM163.739 247.342C162.416 247.458 161.56 248.32 161.394 249.732L166.208 249.311C166.057 248.135 165.157 247.218 163.739 247.342ZM169.28 253.009L170.165 252.112C170.785 252.765 171.489 253.105 172.302 253.034C173.194 252.956 173.657 252.369 173.596 251.668C173.438 249.867 169.477 250.856 169.229 248.019C169.119 246.759 170.096 245.63 171.642 245.495C172.79 245.394 173.825 245.85 174.452 246.582L173.581 247.461C173.098 246.893 172.458 246.564 171.757 246.625C170.896 246.7 170.479 247.251 170.533 247.872C170.691 249.673 174.673 248.747 174.913 251.488C175.028 252.988 173.915 254.033 172.417 254.164C171.142 254.276 170.093 253.853 169.28 253.009ZM176.285 252.396L177.17 251.5C177.789 252.152 178.493 252.492 179.306 252.421C180.199 252.343 180.661 251.756 180.6 251.055C180.443 249.254 176.482 250.243 176.233 247.406C176.123 246.147 177.101 245.017 178.647 244.882C179.794 244.781 180.83 245.237 181.456 245.969L180.585 246.848C180.102 246.28 179.463 245.951 178.762 246.012C177.901 246.087 177.483 246.638 177.538 247.259C177.695 249.061 181.678 248.134 181.917 250.876C182.033 252.375 180.919 253.42 179.421 253.551C178.146 253.663 177.097 253.241 176.285 252.396ZM186.48 252.837C184.902 252.975 183.758 252.192 183.638 250.821C183.532 249.61 184.381 248.668 186.061 248.232L188.732 247.549L188.683 246.991C188.586 245.875 187.733 245.307 186.585 245.408C185.661 245.489 184.949 245.985 184.515 246.713L183.427 246.022C184.044 245.004 185.124 244.315 186.527 244.192C188.567 244.014 189.883 245.103 190.038 246.873L190.509 252.26L189.154 252.378L189.065 251.358C188.528 252.192 187.516 252.747 186.48 252.837ZM185.004 250.654C185.064 251.339 185.665 251.784 186.606 251.702C187.674 251.609 188.506 251.022 188.956 250.115L188.818 248.537L186.478 249.143C185.395 249.431 184.944 249.968 185.004 250.654ZM192.43 253.553C192.359 252.741 192.7 252.052 193.448 251.425C193.056 251.17 192.827 250.756 192.79 250.326C192.734 249.688 193.023 249.133 193.609 248.68C192.862 248.215 192.377 247.439 192.299 246.546C192.163 245 193.26 243.587 195.173 243.42C195.763 243.368 196.3 243.45 196.748 243.619L199.729 243.359L199.832 244.538L198.095 244.69C198.353 245.069 198.505 245.521 198.547 246C198.681 247.53 197.599 248.941 195.671 249.11C195.272 249.145 194.884 249.115 194.541 249.048C194.227 249.317 194.061 249.62 194.088 249.923C194.117 250.258 194.313 250.482 194.807 250.438L197.103 250.238C199.222 250.052 200.301 251.002 200.427 252.436C200.575 254.126 198.995 255.533 196.588 255.743C194.213 255.951 192.571 255.163 192.43 253.553ZM195.593 248.041C196.757 247.939 197.357 247.083 197.272 246.111C197.185 245.123 196.446 244.385 195.282 244.486C194.087 244.591 193.503 245.445 193.59 246.433C193.676 247.422 194.398 248.145 195.593 248.041ZM193.739 253.278C193.824 254.251 194.88 254.753 196.473 254.613C198.163 254.465 199.172 253.702 199.08 252.65C199.013 251.885 198.53 251.317 197.096 251.443L194.497 251.67C193.976 252.133 193.683 252.641 193.739 253.278ZM208.751 249.331C208.09 250.401 206.95 251.143 205.452 251.274C202.742 251.511 200.894 249.665 200.689 247.322C200.476 244.883 201.872 242.85 204.359 242.632C206.542 242.441 208.095 243.847 208.268 245.824C208.295 246.143 208.274 246.45 208.246 246.677L202.077 247.217C202.294 249.141 203.623 250.197 205.344 250.047C206.381 249.956 207.215 249.401 207.679 248.638L208.751 249.331ZM204.427 243.783C203.104 243.898 202.248 244.76 202.082 246.172L206.896 245.751C206.745 244.576 205.846 243.659 204.427 243.783ZM211.643 250.588C211.069 250.638 210.568 250.232 210.519 249.674C210.47 249.116 210.892 248.614 211.466 248.563C212.039 248.513 212.526 248.936 212.575 249.494C212.624 250.052 212.217 250.537 211.643 250.588ZM215.939 250.212C215.365 250.262 214.864 249.856 214.815 249.298C214.766 248.74 215.188 248.238 215.762 248.188C216.336 248.137 216.822 248.561 216.871 249.118C216.92 249.676 216.513 250.162 215.939 250.212ZM220.235 249.836C219.661 249.886 219.16 249.48 219.111 248.922C219.062 248.365 219.484 247.862 220.058 247.812C220.632 247.761 221.118 248.185 221.167 248.743C221.216 249.3 220.809 249.786 220.235 249.836Z" fill="#161616"/>
<rect x="372.717" y="205.2" width="48" height="48" rx="16" transform="rotate(-5 372.717 205.2)" fill="#3B69D1"/>
<path d="M399.327 233.991C399.045 234.015 398.8 233.94 398.593 233.766C398.385 233.592 398.269 233.364 398.244 233.082L397.808 228.101L392.827 228.536C392.545 228.561 392.3 228.486 392.092 228.312C391.885 228.138 391.769 227.91 391.744 227.627C391.719 227.345 391.794 227.1 391.968 226.892C392.142 226.685 392.371 226.569 392.653 226.544L397.634 226.108L397.198 221.127C397.173 220.845 397.248 220.6 397.423 220.392C397.597 220.185 397.825 220.069 398.107 220.044C398.389 220.019 398.635 220.094 398.842 220.268C399.05 220.442 399.166 220.671 399.191 220.953L399.626 225.934L404.607 225.498C404.89 225.473 405.134 225.548 405.342 225.722C405.55 225.896 405.666 226.125 405.691 226.407C405.715 226.689 405.64 226.934 405.466 227.142C405.292 227.349 405.064 227.466 404.782 227.49L399.801 227.926L400.236 232.907C400.261 233.189 400.186 233.434 400.013 233.642C399.838 233.85 399.61 233.966 399.327 233.991Z" fill="white"/>
</g>
</g>
</g>
</g>
<defs>
<clipPath id="clip0_1218_6684">
<rect width="470" height="292" fill="white"/>
</clipPath>
<clipPath id="clip1_1218_6684">
<rect width="470.221" height="292.137" fill="white" transform="translate(-12 31.9824) rotate(-5)"/>
</clipPath>
<clipPath id="clip2_1218_6684">
<rect width="372.057" height="362.673" fill="white" transform="translate(46.5908 32.427) rotate(-5)"/>
</clipPath>
<clipPath id="clip3_1218_6684">
<rect width="366.384" height="675.945" fill="white" transform="translate(13.5908 -380.729) rotate(-5)"/>
</clipPath>
</defs>
</svg>
