<svg width="352" height="372" viewBox="0 0 352 372" fill="none" xmlns="http://www.w3.org/2000/svg">
<path d="M61.4682 13.3065C59.7148 13.3065 58.4656 14.5053 58.4656 16.1466V16.1578C58.4656 17.6927 59.5524 18.8242 61.1041 18.8242C62.2132 18.8242 62.919 18.2585 63.2159 17.6199H63.328C63.328 17.6815 63.3224 17.7431 63.3224 17.8047C63.2607 19.3508 62.7174 20.6056 61.4346 20.6056C60.7231 20.6056 60.2246 20.2359 60.0117 19.6701L59.9949 19.6141H58.5721L58.5833 19.6757C58.841 20.9137 59.9501 21.7932 61.4346 21.7932C63.468 21.7932 64.6948 20.1799 64.6948 17.4574V17.4462C64.6948 14.5333 63.1935 13.3065 61.4682 13.3065ZM61.4626 17.7151C60.5439 17.7151 59.8773 17.0429 59.8773 16.1074V16.0962C59.8773 15.1943 60.5887 14.4829 61.4794 14.4829C62.3757 14.4829 63.0759 15.2055 63.0759 16.1298V16.141C63.0759 17.0541 62.3757 17.7151 61.4626 17.7151Z" fill="#161616"/>
<path d="M67.0085 16.3539C67.5239 16.3539 67.8992 15.9617 67.8992 15.4688C67.8992 14.9702 67.5239 14.5837 67.0085 14.5837C66.4988 14.5837 66.1178 14.9702 66.1178 15.4688C66.1178 15.9617 66.4988 16.3539 67.0085 16.3539ZM67.0085 20.5104C67.5239 20.5104 67.8992 20.1238 67.8992 19.6253C67.8992 19.1267 67.5239 18.7402 67.0085 18.7402C66.4988 18.7402 66.1178 19.1267 66.1178 19.6253C66.1178 20.1238 66.4988 20.5104 67.0085 20.5104Z" fill="#161616"/>
<path d="M73.2435 21.5915H74.6271V20.0398H75.7139V18.8466H74.6271V13.5082H72.5825C71.4845 15.1775 70.3362 17.0373 69.2887 18.8578V20.0398H73.2435V21.5915ZM70.6331 18.8803V18.7962C71.4173 17.4238 72.3528 15.9281 73.1819 14.6621H73.2659V18.8803H70.6331Z" fill="#161616"/>
<path d="M78.8343 21.5915H80.2795V13.5082H78.8399L76.728 14.9926V16.3539L78.739 14.931H78.8343V21.5915Z" fill="#161616"/>
<rect opacity="0.35" x="289.859" y="13.8158" width="16.0614" height="7.90331" rx="1.65686" stroke="black" stroke-width="0.764706"/>
<path opacity="0.4" d="M307.068 16.2379V19.2972C307.683 19.0381 308.084 18.4353 308.084 17.7675C308.084 17.0997 307.683 16.497 307.068 16.2379Z" fill="black"/>
<rect x="291.006" y="14.9631" width="13.7668" height="5.60872" rx="1.01961" fill="black"/>
<path fill-rule="evenodd" clip-rule="evenodd" d="M279.789 15.1785C281.49 15.1786 283.127 15.8318 284.36 17.0032C284.453 17.0937 284.601 17.0925 284.693 17.0007L285.58 16.1056C285.627 16.059 285.653 15.9959 285.652 15.9302C285.652 15.8646 285.625 15.8018 285.578 15.7557C282.342 12.6565 277.236 12.6565 273.999 15.7557C273.952 15.8017 273.925 15.8645 273.925 15.9302C273.925 15.9958 273.95 16.059 273.997 16.1056L274.884 17.0007C274.976 17.0927 275.124 17.0938 275.217 17.0032C276.451 15.8318 278.087 15.1785 279.789 15.1785ZM279.789 18.0907C280.724 18.0907 281.625 18.4378 282.318 19.0648C282.412 19.1538 282.56 19.1519 282.651 19.0605L283.538 18.1654C283.584 18.1184 283.61 18.0547 283.61 17.9886C283.609 17.9224 283.582 17.8592 283.534 17.8132C281.424 15.8519 278.156 15.8519 276.045 17.8132C275.998 17.8592 275.971 17.9224 275.97 17.9886C275.969 18.0548 275.995 18.1185 276.042 18.1654L276.929 19.0605C277.02 19.1519 277.168 19.1538 277.261 19.0648C277.954 18.4383 278.855 18.0911 279.789 18.0907ZM281.565 20.0501C281.566 20.1165 281.54 20.1805 281.493 20.2269L279.959 21.7734C279.914 21.8189 279.853 21.8445 279.789 21.8445C279.725 21.8445 279.664 21.8189 279.619 21.7734L278.085 20.2269C278.037 20.1804 278.011 20.1164 278.013 20.05C278.014 19.9837 278.043 19.9208 278.092 19.8763C279.072 19.0486 280.506 19.0486 281.486 19.8763C281.535 19.9209 281.564 19.9837 281.565 20.0501Z" fill="black"/>
<path fill-rule="evenodd" clip-rule="evenodd" d="M269.336 13.6883H268.571C268.149 13.6883 267.807 14.0307 267.807 14.4531V21.0816C267.807 21.504 268.149 21.8464 268.571 21.8464H269.336C269.759 21.8464 270.101 21.504 270.101 21.0816V14.4531C270.101 14.0307 269.759 13.6883 269.336 13.6883ZM265.002 15.4729H265.767C266.19 15.4729 266.532 15.8153 266.532 16.2377V21.0816C266.532 21.504 266.19 21.8464 265.767 21.8464H265.002C264.58 21.8464 264.238 21.504 264.238 21.0816V16.2377C264.238 15.8153 264.58 15.4729 265.002 15.4729ZM262.198 17.2575H261.433C261.011 17.2575 260.668 17.5999 260.668 18.0223V21.0816C260.668 21.504 261.011 21.8465 261.433 21.8465H262.198C262.62 21.8465 262.963 21.504 262.963 21.0816V18.0223C262.963 17.5999 262.62 17.2575 262.198 17.2575ZM258.629 18.7872H257.864C257.442 18.7872 257.099 19.1296 257.099 19.552V21.0816C257.099 21.504 257.442 21.8465 257.864 21.8465H258.629C259.051 21.8465 259.394 21.504 259.394 21.0816V19.552C259.394 19.1296 259.051 18.7872 258.629 18.7872Z" fill="black"/>
<rect x="33.0051" y="33.6522" width="286.045" height="55.0674" rx="16" fill="#F1F1F1"/>
<path d="M47.7148 71.8347L51.1233 71.8347L51.1233 59.7848L54.8679 66.0738L57.2683 66.0738L61.0128 59.7848L61.0128 71.8347L64.4214 71.8347L64.4214 55.032L60.1727 55.032L56.0681 62.0891L51.9634 55.032L47.7148 55.032L47.7148 71.8347ZM74.2997 59.2567C70.3631 59.2567 67.6746 62.1611 67.6746 65.7857C67.6746 69.4103 70.3631 72.3147 74.2997 72.3147C78.2363 72.3147 80.9247 69.4103 80.9247 65.7857C80.9247 62.1611 78.2363 59.2567 74.2997 59.2567ZM74.3477 69.4343C72.3314 69.4343 70.8431 67.898 70.8431 65.7857C70.8431 63.6734 72.3314 62.1371 74.3477 62.1371C76.292 62.1371 77.7562 63.6734 77.7562 65.7857C77.7562 67.874 76.292 69.4343 74.3477 69.4343ZM83.7052 71.8347L86.7537 71.8347L86.7537 63.9374C87.2097 63.1693 88.0259 62.1371 89.5621 62.1371C91.0503 62.1371 91.9625 63.1453 91.9625 64.7535L91.9625 71.8347L95.035 71.8347L95.035 64.6335C95.035 61.057 92.9466 59.2567 90.3302 59.2567C88.722 59.2567 87.5938 59.8808 86.7537 60.6969L86.7537 59.7368L83.7052 59.7368L83.7052 71.8347ZM104.966 77.7396L108.015 77.7396L108.015 70.8505C108.951 71.7866 110.127 72.3147 111.783 72.3147C115.624 72.3147 117.928 69.3143 117.928 65.7857C117.928 62.2572 115.624 59.2567 111.783 59.2567C110.127 59.2567 108.951 59.7848 108.015 60.7209L108.015 59.7368L104.966 59.7368L104.966 77.7396ZM111.351 62.1371C113.416 62.1371 114.76 63.6734 114.76 65.7857C114.76 67.898 113.416 69.4343 111.351 69.4343C109.959 69.4343 108.831 68.8342 108.015 67.682L108.015 63.8894C108.783 62.7612 109.935 62.1371 111.351 62.1371ZM120.719 71.8347L123.767 71.8347L123.767 64.0814C124.223 63.3133 125.183 62.4972 126.672 62.4972C127.224 62.4972 127.632 62.5692 128.016 62.6652L128.016 59.6648C127.728 59.5687 127.368 59.4967 126.96 59.4967C125.592 59.4967 124.559 60.1208 123.767 60.937L123.767 59.7368L120.719 59.7368L120.719 71.8347ZM135.715 59.2567C131.779 59.2567 129.09 62.1611 129.09 65.7857C129.09 69.4103 131.779 72.3147 135.715 72.3147C139.652 72.3147 142.341 69.4103 142.341 65.7857C142.341 62.1611 139.652 59.2567 135.715 59.2567ZM135.763 69.4343C133.747 69.4343 132.259 67.898 132.259 65.7857C132.259 63.6734 133.747 62.1371 135.763 62.1371C137.708 62.1371 139.172 63.6734 139.172 65.7857C139.172 67.874 137.708 69.4343 135.763 69.4343ZM143.492 59.7368L143.492 62.4732L145.748 62.4732L145.748 71.8347L148.821 71.8347L148.821 62.4732L152.518 62.4732L152.518 59.7368L148.821 59.7368L148.821 58.3926C148.821 57.2884 149.493 56.5683 150.525 56.5683C151.149 56.5683 151.629 56.7843 151.989 57.0483L153.286 54.504C152.518 54.0959 151.581 53.8318 150.477 53.8318C147.453 53.8318 145.748 55.8962 145.748 58.4646L145.748 59.7368L143.492 59.7368ZM156.338 57.6244C157.419 57.6244 158.307 56.7123 158.307 55.6321C158.307 54.552 157.419 53.6398 156.338 53.6398C155.258 53.6398 154.346 54.552 154.346 55.6321C154.346 56.7123 155.258 57.6244 156.338 57.6244ZM154.802 71.8347L157.851 71.8347L157.851 59.7368L154.802 59.7368L154.802 71.8347ZM161.506 71.8347L164.555 71.8347L164.555 53.8318L161.506 53.8318L161.506 71.8347Z" fill="#3B69D1"/>
<g filter="url(#filter0_d_5297_13116)">
<rect x="270.101" y="42.8301" width="36.7116" height="36.7116" rx="18.3529" fill="#3B69D1" shape-rendering="crispEdges"/>
<path d="M288.456 61.1859C290.146 61.1859 291.515 59.8169 291.515 58.1266C291.515 56.4364 290.146 55.0673 288.456 55.0673C286.766 55.0673 285.397 56.4364 285.397 58.1266C285.397 59.8169 286.766 61.1859 288.456 61.1859ZM288.456 56.597C289.297 56.597 289.986 57.2853 289.986 58.1266C289.986 58.9679 289.297 59.6563 288.456 59.6563C287.615 59.6563 286.926 58.9679 286.926 58.1266C286.926 57.2853 287.615 56.597 288.456 56.597ZM288.456 61.9508C286.414 61.9508 282.337 62.9756 282.337 65.0101V66.5397C282.337 66.9604 282.682 67.3045 283.102 67.3045H293.81C294.23 67.3045 294.575 66.9604 294.575 66.5397V65.0101C294.575 62.9756 290.498 61.9508 288.456 61.9508ZM293.045 65.7749H283.867V65.0177C284.02 64.467 286.391 63.4804 288.456 63.4804C290.521 63.4804 292.892 64.467 293.045 65.0101V65.7749Z" fill="white"/>
<rect x="270.483" y="43.2125" width="35.9469" height="35.9469" rx="17.9706" stroke="#3B69D1" stroke-width="0.764706" shape-rendering="crispEdges"/>
</g>
<rect x="31.0968" y="128.205" width="288.376" height="194.086" rx="10.4713" transform="rotate(-5.5659 31.0968 128.205)" fill="#F1F1F1" stroke="#878787" stroke-width="0.910548" stroke-dasharray="4.55 4.55"/>
<g filter="url(#filter1_d_5297_13116)">
<rect x="15.2529" y="115.791" width="289.058" height="193.399" rx="6.70175" transform="rotate(-5.56962 15.2529 115.791)" fill="#3B69D1" shape-rendering="crispEdges"/>
<path d="M37.4944 153.435L42.0808 152.988C45.7833 152.627 48.0232 149.698 47.7158 146.546C47.4084 143.393 44.6449 140.952 40.9424 141.313L36.356 141.761L37.4944 153.435ZM41.1855 143.462C43.3537 143.25 45.0775 144.698 45.2808 146.783C45.4825 148.851 44.0725 150.622 41.9044 150.833L39.6529 151.053L38.934 143.681L41.1855 143.462ZM54.2711 141.967L56.0025 139.003L53.701 139.227L52.2364 142.165L54.2711 141.967ZM57.9395 150.061L56.3047 149.008C55.9129 149.652 55.1514 150.131 54.2342 150.22C52.9166 150.349 51.8875 149.809 51.5345 148.261L57.4218 147.687C57.4608 147.397 57.4853 146.957 57.4397 146.49C57.225 144.288 55.5362 142.853 53.2013 143.081C50.4494 143.349 49.0817 145.554 49.3241 148.039C49.5631 150.49 51.4509 152.411 54.4362 152.12C56.0206 151.965 57.2581 151.188 57.9395 150.061ZM53.3204 144.821C54.5045 144.705 55.2045 145.495 55.3208 146.343L51.4516 146.72C51.5777 145.597 52.2363 144.926 53.3204 144.821ZM63.8008 149.186C62.3831 149.324 61.2633 148.373 61.1186 146.889C60.9755 145.421 61.8887 144.254 63.273 144.119C64.1402 144.035 64.8448 144.353 65.302 144.898L66.8295 143.469C65.9448 142.512 64.6456 141.965 63.1112 142.115C60.2092 142.398 58.678 144.652 58.9171 147.103C59.1562 149.555 61.094 151.471 63.9959 151.188C65.5303 151.038 66.6994 150.25 67.3824 149.14L65.6077 148.033C65.2644 148.656 64.6347 149.105 63.8008 149.186ZM71.9217 141.256C69.1865 141.522 67.5154 143.722 67.7609 146.241C68.0065 148.759 70.0712 150.595 72.8064 150.328C75.5416 150.062 77.2127 147.861 76.9671 145.343C76.7216 142.825 74.6568 140.989 71.9217 141.256ZM72.6446 148.324C71.2437 148.46 70.1055 147.494 69.9624 146.026C69.8193 144.559 70.7492 143.39 72.1502 143.254C73.5011 143.122 74.6225 144.09 74.7657 145.558C74.9071 147.009 73.9955 148.192 72.6446 148.324ZM84.4914 145.182C84.6101 146.399 84.0495 147.212 82.8988 147.324C81.7313 147.438 81.0244 146.749 80.9056 145.531L80.4405 140.762L78.3057 140.97L78.7611 145.64C79.0067 148.158 80.6089 149.568 83.0772 149.327C85.5456 149.086 86.862 147.392 86.6164 144.874L86.161 140.204L84.0263 140.412L84.4914 145.182ZM87.4352 140.08L91.3069 148.188L94.0921 147.916L96.3412 139.211L94.0563 139.434L92.4737 145.649L89.7034 139.858L87.4352 140.08ZM98.495 147.487L100.613 147.28L100.088 141.893C100.353 141.329 100.964 140.696 101.998 140.596C102.382 140.558 102.67 140.581 102.944 140.621L102.74 138.537C102.534 138.489 102.279 138.464 101.995 138.491C101.045 138.584 100.37 139.088 99.8747 139.708L99.7934 138.874L97.6753 139.081L98.495 147.487ZM112.517 144.739L110.882 143.686C110.491 144.33 109.729 144.808 108.812 144.898C107.494 145.026 106.465 144.487 106.112 142.939L111.999 142.365C112.039 142.075 112.063 141.635 112.017 141.168C111.803 138.966 110.114 137.531 107.779 137.759C105.027 138.027 103.659 140.232 103.902 142.717C104.141 145.168 106.029 147.089 109.014 146.798C110.598 146.643 111.836 145.866 112.517 144.739ZM107.898 139.498C109.082 139.383 109.782 140.173 109.899 141.021L106.029 141.398C106.155 140.274 106.814 139.604 107.898 139.498ZM114.123 145.963L121.161 145.276L120.975 143.375L116.589 143.803L120.41 138.783L120.224 136.882L113.436 137.544L113.622 139.445L117.758 139.042L113.937 144.061L114.123 145.963ZM126.85 140.479C127.089 142.93 128.91 144.857 131.562 144.599C132.696 144.488 133.479 144.058 134.066 143.344L134.131 144.012L136.266 143.803L135.046 131.295L132.912 131.503L133.377 136.273C132.663 135.686 131.811 135.415 130.677 135.526C128.026 135.785 126.611 138.027 126.85 140.479ZM129.068 140.262C128.925 138.795 129.738 137.638 131.173 137.498C132.123 137.405 132.946 137.729 133.588 138.441L133.855 141.176C133.363 141.999 132.618 142.475 131.667 142.568C130.233 142.708 129.211 141.73 129.068 140.262ZM146.41 141.434L144.776 140.381C144.384 141.025 143.622 141.503 142.705 141.593C141.388 141.721 140.358 141.182 140.005 139.634L145.893 139.06C145.932 138.77 145.956 138.329 145.911 137.862C145.696 135.661 144.007 134.226 141.672 134.454C138.92 134.722 137.553 136.926 137.795 139.411C138.034 141.863 139.922 143.784 142.907 143.492C144.492 143.338 145.729 142.561 146.41 141.434ZM141.791 136.193C142.975 136.078 143.675 136.868 143.792 137.715L139.923 138.093C140.049 136.969 140.707 136.299 141.791 136.193ZM152.959 142.176L155.077 141.969L154.542 136.482C154.807 135.917 155.304 135.145 156.371 135.041C157.405 134.94 158.107 135.579 158.216 136.696L158.696 141.616L160.831 141.408L160.343 136.405C160.1 133.92 158.527 132.81 156.71 132.987C155.592 133.096 154.851 133.606 154.322 134.23L154.257 133.563L152.139 133.77L152.959 142.176ZM166.386 132.044C163.651 132.311 161.98 134.511 162.226 137.029C162.471 139.547 164.536 141.383 167.271 141.117C170.006 140.85 171.677 138.65 171.432 136.131C171.186 133.613 169.121 131.777 166.386 132.044ZM167.109 139.112C165.708 139.249 164.57 138.282 164.427 136.814C164.284 135.347 165.214 134.179 166.615 134.042C167.966 133.91 169.087 134.878 169.23 136.346C169.372 137.797 168.46 138.98 167.109 139.112ZM178.956 135.97C179.075 137.188 178.514 138 177.363 138.112C176.196 138.226 175.489 137.537 175.37 136.32L174.905 131.55L172.77 131.758L173.226 136.428C173.471 138.946 175.074 140.356 177.542 140.115C180.01 139.874 181.327 138.18 181.081 135.662L180.626 130.992L178.491 131.2L178.956 135.97ZM181.9 130.868L185.772 138.976L188.557 138.704L190.806 129.999L188.521 130.222L186.938 136.438L184.168 130.647L181.9 130.868ZM200.467 136.162L198.832 135.109C198.44 135.754 197.679 136.232 196.762 136.321C195.444 136.45 194.415 135.911 194.062 134.362L199.949 133.788C199.988 133.498 200.013 133.058 199.967 132.591C199.753 130.39 198.064 128.955 195.729 129.182C192.977 129.451 191.609 131.655 191.852 134.14C192.091 136.592 193.978 138.512 196.964 138.221C198.548 138.067 199.786 137.289 200.467 136.162ZM195.848 130.922C197.032 130.806 197.732 131.597 197.848 132.444L193.979 132.821C194.105 131.698 194.764 131.028 195.848 130.922ZM204.799 137.373C205.783 137.277 206.743 136.762 207.213 136.06L207.293 136.877L209.411 136.671L208.881 131.234C208.7 129.382 207.308 128.053 204.873 128.291C203.338 128.44 202.166 129.195 201.516 130.302L203.183 131.335C203.573 130.674 204.169 130.228 204.987 130.149C205.954 130.054 206.676 130.556 206.762 131.44L206.784 131.657L204.257 132.341C202.486 132.817 201.594 133.863 201.718 135.131C201.869 136.682 203.114 137.537 204.799 137.373ZM203.809 134.826C203.759 134.309 204.09 133.906 204.96 133.67L206.928 133.141L207.044 134.325C206.692 135.033 206.035 135.552 205.068 135.646C204.351 135.716 203.865 135.393 203.809 134.826ZM217.019 132.258C217.137 133.476 216.577 134.288 215.426 134.4C214.259 134.514 213.552 133.826 213.433 132.608L212.968 127.838L210.833 128.046L211.288 132.716C211.534 135.234 213.136 136.644 215.605 136.403C218.073 136.163 219.389 134.468 219.144 131.95L218.688 127.28L216.554 127.488L217.019 132.258ZM223.126 135.333L224.736 132.331L226.912 134.964L229.33 134.728L225.94 130.698L228.36 126.337L225.925 126.575L224.443 129.329L222.456 126.913L220.038 127.149L223.239 130.962L220.691 135.571L223.126 135.333ZM38.9855 173.388L41.1036 173.181L40.5685 167.694C40.8334 167.13 41.2638 166.364 42.2311 166.269C43.1817 166.177 43.7939 166.757 43.8931 167.774L44.3892 172.861L46.5239 172.653L46.0198 167.482C46.0067 167.349 45.9954 167.232 45.9673 167.117C46.2456 166.518 46.6841 165.835 47.6014 165.746C48.552 165.653 49.1642 166.233 49.2634 167.25L49.7594 172.337L51.8942 172.129L51.39 166.959C51.1591 164.59 49.6744 163.523 47.9399 163.692C46.5223 163.83 45.7836 164.542 45.2547 165.335C44.6165 164.488 43.637 164.112 42.5696 164.216C41.5356 164.317 40.8591 164.804 40.3457 165.409L40.2839 164.775L38.1658 164.982L38.9855 173.388ZM58.2484 161.677L59.9798 158.713L57.6782 158.938L56.2137 161.875L58.2484 161.677ZM61.9168 169.771L60.282 168.718C59.8902 169.362 59.1287 169.841 58.2114 169.93C56.8939 170.059 55.8648 169.519 55.5118 167.971L61.399 167.397C61.4381 167.107 61.4625 166.667 61.417 166.2C61.2023 163.998 59.5135 162.564 57.1785 162.791C54.4267 163.06 53.059 165.264 53.3013 167.749C53.5404 170.201 55.4282 172.121 58.4135 171.83C59.9979 171.675 61.2354 170.898 61.9168 169.771ZM57.2977 164.531C58.4818 164.415 59.1818 165.206 59.2981 166.053L55.4288 166.43C55.555 165.307 56.2136 164.636 57.2977 164.531ZM64.1879 167.832C64.388 169.884 65.5041 170.97 67.6055 170.765C68.306 170.697 68.7982 170.565 69.1973 170.341L69.0167 168.489C68.7446 168.634 68.3675 168.738 67.7838 168.795C66.9499 168.876 66.4138 168.558 66.3227 167.624L65.9877 164.188L68.5561 163.938L68.3707 162.037L65.8023 162.287L65.5973 160.186L63.4626 160.394L63.6675 162.495L62.0998 162.648L62.2852 164.549L63.8529 164.397L64.1879 167.832ZM71.1918 160.28C71.9423 160.207 72.4976 159.513 72.4244 158.762C72.3512 158.012 71.6723 157.438 70.9218 157.511C70.1713 157.585 69.5993 158.28 69.6725 159.031C69.7457 159.781 70.4413 160.353 71.1918 160.28ZM71.0872 170.257L73.2053 170.051L72.3856 161.645L70.2675 161.852L71.0872 170.257ZM83.3505 167.681L81.7157 166.628C81.3239 167.272 80.5624 167.751 79.6451 167.84C78.3276 167.969 77.2985 167.429 76.9454 165.881L82.8327 165.307C82.8718 165.017 82.8962 164.577 82.8507 164.11C82.636 161.908 80.9471 160.473 78.6122 160.701C75.8604 160.97 74.4927 163.174 74.735 165.659C74.9741 168.11 76.8619 170.031 79.8472 169.74C81.4316 169.585 82.6691 168.808 83.3505 167.681ZM78.7313 162.441C79.9155 162.325 80.6155 163.115 80.7318 163.963L76.8625 164.34C76.9887 163.217 77.6473 162.546 78.7313 162.441ZM85.4035 168.861L87.5216 168.655L86.9962 163.268C87.2611 162.703 87.8729 162.071 88.9069 161.97C89.2905 161.933 89.5789 161.955 89.8523 161.996L89.649 159.911C89.4423 159.864 89.1873 159.838 88.9038 159.866C87.9531 159.959 87.2783 160.462 86.7832 161.083L86.7019 160.249L84.5838 160.456L85.4035 168.861ZM91.3263 167.055C92.2195 167.927 93.3455 168.423 94.8465 168.277C96.4309 168.123 97.7542 167.017 97.6151 165.246C97.3322 162.344 93.3616 163.236 93.2217 161.802C93.1794 161.368 93.4605 160.971 94.1276 160.905C94.7781 160.842 95.3707 161.222 95.8564 161.713L97.137 160.343C96.4569 159.584 95.2293 159.081 93.9451 159.206C92.1939 159.377 91.052 160.616 91.1968 162.1C91.4846 165.052 95.4503 164.11 95.5935 165.578C95.6422 166.078 95.331 166.513 94.6472 166.579C93.8467 166.657 93.1841 166.25 92.6036 165.65L91.3263 167.055ZM111.902 164.897L110.267 163.844C109.875 164.488 109.114 164.967 108.196 165.056C106.879 165.184 105.85 164.645 105.497 163.097L111.384 162.523C111.423 162.233 111.447 161.793 111.402 161.326C111.187 159.124 109.498 157.689 107.163 157.917C104.411 158.185 103.044 160.39 103.286 162.875C103.525 165.326 105.413 167.247 108.398 166.956C109.983 166.801 111.22 166.024 111.902 164.897ZM107.282 159.656C108.467 159.541 109.167 160.331 109.283 161.179L105.414 161.556C105.54 160.432 106.198 159.762 107.282 159.656ZM114.173 162.958C114.373 165.009 115.489 166.096 117.59 165.891C118.291 165.823 118.783 165.69 119.182 165.466L119.002 163.615C118.729 163.759 118.352 163.864 117.769 163.92C116.935 164.002 116.399 163.684 116.307 162.75L115.972 159.314L118.541 159.064L118.355 157.162L115.787 157.413L115.582 155.311L113.447 155.52L113.652 157.621L112.085 157.774L112.27 159.675L113.838 159.522L114.173 162.958ZM125.567 164.945L127.685 164.738L127.16 159.351C127.425 158.787 128.037 158.154 129.071 158.054C129.454 158.016 129.743 158.039 130.016 158.079L129.813 155.995C129.606 155.947 129.351 155.922 129.068 155.949C128.117 156.042 127.442 156.546 126.947 157.166L126.866 156.332L124.748 156.539L125.567 164.945ZM139.589 162.197L137.955 161.144C137.563 161.788 136.801 162.267 135.884 162.356C134.567 162.484 133.537 161.945 133.184 160.397L139.072 159.823C139.111 159.533 139.135 159.093 139.09 158.626C138.875 156.424 137.186 154.989 134.851 155.217C132.099 155.485 130.732 157.69 130.974 160.175C131.213 162.626 133.101 164.547 136.086 164.256C137.671 164.101 138.908 163.324 139.589 162.197ZM134.97 156.956C136.154 156.841 136.854 157.631 136.971 158.479L133.102 158.856C133.228 157.732 133.886 157.062 134.97 156.956ZM141.861 160.258C142.061 162.309 143.177 163.396 145.278 163.191C145.979 163.123 146.471 162.99 146.87 162.766L146.689 160.915C146.417 161.059 146.04 161.164 145.456 161.22C144.623 161.302 144.086 160.984 143.995 160.05L143.66 156.614L146.229 156.364L146.043 154.462L143.475 154.713L143.27 152.611L141.135 152.82L141.34 154.921L139.772 155.074L139.958 156.975L141.526 156.822L141.861 160.258ZM148.76 162.683L150.878 162.476L150.353 157.089C150.618 156.525 151.229 155.893 152.263 155.792C152.647 155.755 152.935 155.777 153.209 155.818L153.005 153.733C152.799 153.686 152.544 153.66 152.26 153.688C151.31 153.78 150.635 154.284 150.14 154.905L150.058 154.071L147.94 154.277L148.76 162.683ZM158.327 152.928C155.592 153.194 153.921 155.395 154.167 157.913C154.412 160.431 156.477 162.267 159.212 162C161.947 161.734 163.618 159.534 163.373 157.015C163.127 154.497 161.063 152.661 158.327 152.928ZM159.05 159.996C157.649 160.132 156.511 159.166 156.368 157.698C156.225 156.231 157.155 155.062 158.556 154.926C159.907 154.794 161.028 155.762 161.171 157.23C161.313 158.681 160.401 159.864 159.05 159.996ZM170.897 156.854C171.016 158.071 170.455 158.884 169.305 158.996C168.137 159.11 167.43 158.421 167.311 157.204L166.846 152.434L164.712 152.642L165.167 157.312C165.412 159.83 167.015 161.24 169.483 160.999C171.951 160.758 173.268 159.064 173.022 156.546L172.567 151.876L170.432 152.084L170.897 156.854ZM173.841 151.752L177.713 159.86L180.498 159.588L182.747 150.883L180.462 151.106L178.879 157.321L176.109 151.53L173.841 151.752ZM192.408 157.046L190.773 155.993C190.382 156.638 189.62 157.116 188.703 157.205C187.385 157.334 186.356 156.794 186.003 155.246L191.89 154.672C191.93 154.382 191.954 153.942 191.908 153.475C191.694 151.273 190.005 149.839 187.67 150.066C184.918 150.335 183.55 152.539 183.793 155.024C184.032 157.476 185.92 159.396 188.905 159.105C190.489 158.95 191.727 158.173 192.408 157.046ZM187.789 151.806C188.973 151.69 189.673 152.481 189.79 153.328L185.92 153.705C186.046 152.582 186.705 151.911 187.789 151.806ZM194.014 158.27L201.052 157.584L200.866 155.682L196.48 156.11L200.301 151.091L200.115 149.189L193.327 149.851L193.513 151.753L197.649 151.349L193.828 156.369L194.014 158.27ZM205.731 148.642L209.603 156.75L212.388 156.478L214.637 147.773L212.352 147.996L210.769 154.212L207.999 148.421L205.731 148.642ZM219.843 146.929C217.108 147.196 215.437 149.396 215.683 151.914C215.928 154.433 217.993 156.268 220.728 156.002C223.463 155.735 225.134 153.535 224.889 151.016C224.643 148.498 222.579 146.662 219.843 146.929ZM220.566 153.997C219.165 154.134 218.027 153.167 217.884 151.7C217.741 150.232 218.671 149.064 220.072 148.927C221.423 148.795 222.544 149.763 222.687 151.231C222.829 152.682 221.917 153.865 220.566 153.997ZM226.101 153.912C226.994 154.785 228.12 155.281 229.621 155.134C231.206 154.98 232.529 153.874 232.39 152.103C232.107 149.201 228.136 150.094 227.997 148.659C227.954 148.226 228.235 147.828 228.903 147.763C229.553 147.699 230.146 148.079 230.631 148.571L231.912 147.2C231.232 146.441 230.004 145.938 228.72 146.063C226.969 146.234 225.827 147.473 225.972 148.958C226.26 151.91 230.225 150.967 230.368 152.435C230.417 152.935 230.106 153.37 229.422 153.437C228.622 153.515 227.959 153.108 227.379 152.508L226.101 153.912ZM41.024 194.292L43.1421 194.085L42.607 188.598C42.8719 188.034 43.3023 187.268 44.2696 187.173C45.2202 187.081 45.8324 187.661 45.9316 188.678L46.4276 193.765L48.5624 193.557L48.0582 188.387C48.0452 188.253 48.0338 188.136 48.0058 188.021C48.284 187.422 48.7226 186.739 49.6399 186.65C50.5905 186.557 51.2027 187.137 51.3019 188.154L51.7979 193.241L53.9327 193.033L53.4285 187.863C53.1976 185.495 51.7129 184.427 49.9784 184.596C48.5608 184.735 47.822 185.446 47.2932 186.239C46.655 185.392 45.6755 185.016 44.6081 185.12C43.5741 185.221 42.8976 185.708 42.3842 186.313L42.3224 185.68L40.2043 185.886L41.024 194.292ZM60.2869 182.581L62.0183 179.617L59.7167 179.842L58.2522 182.779L60.2869 182.581ZM63.9552 190.675L62.3205 189.622C61.9287 190.267 61.1672 190.745 60.2499 190.834C58.9324 190.963 57.9032 190.423 57.5502 188.875L63.4375 188.301C63.4766 188.011 63.501 187.571 63.4555 187.104C63.2408 184.902 61.5519 183.468 59.217 183.695C56.4652 183.964 55.0975 186.168 55.3398 188.653C55.5789 191.105 57.4667 193.025 60.452 192.734C62.0364 192.58 63.2738 191.802 63.9552 190.675ZM59.3361 185.435C60.5203 185.319 61.2203 186.11 61.3366 186.957L57.4673 187.334C57.5935 186.211 58.2521 185.54 59.3361 185.435ZM66.2264 188.736C66.4264 190.788 67.5426 191.874 69.644 191.669C70.3445 191.601 70.8367 191.469 71.2357 191.245L71.0552 189.393C70.7831 189.538 70.406 189.642 69.8223 189.699C68.9884 189.78 68.4523 189.462 68.3612 188.528L68.0261 185.092L70.5945 184.842L70.4091 182.941L67.8407 183.191L67.6358 181.09L65.5011 181.298L65.706 183.399L64.1383 183.552L64.3237 185.454L65.8914 185.301L66.2264 188.736ZM73.2303 181.184C73.9808 181.111 74.536 180.417 74.4629 179.666C74.3897 178.916 73.7108 178.342 72.9603 178.415C72.2098 178.489 71.6378 179.184 71.711 179.935C71.7842 180.685 72.4797 181.257 73.2303 181.184ZM73.1257 191.161L75.2438 190.955L74.4241 182.549L72.306 182.756L73.1257 191.161ZM85.3889 188.585L83.7541 187.532C83.3624 188.176 82.6009 188.655 81.6836 188.744C80.366 188.873 79.3369 188.333 78.9839 186.785L84.8712 186.211C84.9103 185.921 84.9347 185.481 84.8892 185.014C84.6745 182.812 82.9856 181.378 80.6507 181.605C77.8989 181.874 76.5312 184.078 76.7735 186.563C77.0126 189.015 78.9003 190.935 81.8857 190.644C83.4701 190.489 84.7075 189.712 85.3889 188.585ZM80.7698 183.345C81.9539 183.229 82.654 184.02 82.7703 184.867L78.901 185.244C79.0272 184.121 79.6858 183.45 80.7698 183.345ZM87.4419 189.765L89.56 189.559L89.0347 184.172C89.2996 183.607 89.9114 182.975 90.9454 182.874C91.329 182.837 91.6174 182.859 91.8908 182.9L91.6875 180.815C91.4808 180.768 91.2258 180.742 90.9422 180.77C89.9916 180.863 89.3167 181.366 88.8217 181.987L88.7404 181.153L86.6223 181.36L87.4419 189.765ZM93.3648 187.959C94.258 188.831 95.384 189.328 96.885 189.181C98.4694 189.027 99.7927 187.921 99.6536 186.15C99.3706 183.248 95.4001 184.14 95.2602 182.706C95.2179 182.272 95.499 181.875 96.1661 181.81C96.8166 181.746 97.4092 182.126 97.8949 182.618L99.1755 181.247C98.4954 180.488 97.2677 179.985 95.9836 180.11C94.2324 180.281 93.0905 181.52 93.2352 183.005C93.5231 185.957 97.4888 185.014 97.6319 186.482C97.6807 186.982 97.3695 187.417 96.6857 187.483C95.8852 187.561 95.2226 187.155 94.6421 186.555L93.3648 187.959ZM104.481 179.618L104.667 181.519L106.234 181.367L106.869 187.871L109.003 187.663L108.369 181.158L110.937 180.908L110.752 179.007L108.184 179.257L108.093 178.323C108.018 177.556 108.436 177.01 109.153 176.94C109.587 176.898 109.935 177.015 110.203 177.175L110.931 175.319C110.37 175.087 109.702 174.967 108.934 175.042C106.833 175.247 105.789 176.797 105.963 178.581L106.049 179.465L104.481 179.618ZM114.917 187.339C115.901 187.243 116.861 186.728 117.331 186.026L117.411 186.843L119.529 186.636L118.998 181.199C118.818 179.348 117.426 178.019 114.991 178.257C113.456 178.406 112.284 179.16 111.634 180.268L113.301 181.3C113.691 180.639 114.287 180.194 115.104 180.114C116.072 180.02 116.794 180.522 116.88 181.406L116.901 181.623L114.375 182.307C112.603 182.783 111.712 183.829 111.836 185.097C111.987 186.648 113.232 187.503 114.917 187.339ZM113.927 184.792C113.877 184.275 114.208 183.872 115.077 183.636L117.046 183.107L117.162 184.291C116.81 184.999 116.153 185.518 115.186 185.612C114.469 185.682 113.983 185.359 113.927 184.792ZM119.852 178.119L123.724 186.227L126.509 185.956L128.758 177.251L126.473 177.474L124.891 183.689L122.12 177.898L119.852 178.119ZM133.965 176.406C131.23 176.673 129.558 178.873 129.804 181.392C130.05 183.91 132.114 185.746 134.849 185.479C137.585 185.212 139.256 183.012 139.01 180.494C138.765 177.975 136.7 176.14 133.965 176.406ZM134.688 183.475C133.287 183.611 132.149 182.645 132.005 181.177C131.862 179.709 132.792 178.541 134.193 178.404C135.544 178.273 136.666 179.241 136.809 180.709C136.95 182.16 136.039 183.343 134.688 183.475ZM141.352 184.508L143.47 184.302L142.945 178.915C143.21 178.35 143.821 177.718 144.855 177.617C145.239 177.58 145.527 177.602 145.801 177.643L145.597 175.558C145.391 175.511 145.136 175.485 144.852 175.513C143.902 175.606 143.227 176.109 142.732 176.73L142.65 175.896L140.532 176.103L141.352 184.508ZM148.232 173.87C148.982 173.797 149.538 173.103 149.464 172.353C149.391 171.602 148.712 171.028 147.962 171.102C147.211 171.175 146.639 171.87 146.713 172.621C146.786 173.371 147.481 173.943 148.232 173.87ZM148.127 183.848L150.245 183.641L149.426 175.235L147.308 175.442L148.127 183.848ZM151.819 182.259C152.712 183.131 153.838 183.627 155.339 183.481C156.923 183.327 158.247 182.221 158.108 180.45C157.825 177.548 153.854 178.44 153.714 177.006C153.672 176.572 153.953 176.174 154.62 176.109C155.271 176.046 155.863 176.426 156.349 176.917L157.63 175.547C156.949 174.788 155.722 174.285 154.438 174.41C152.686 174.581 151.545 175.82 151.689 177.304C151.977 180.256 155.943 179.314 156.086 180.782C156.135 181.282 155.824 181.716 155.14 181.783C154.339 181.861 153.677 181.454 153.096 180.854L151.819 182.259ZM165.123 178.402L166.691 178.249L166.352 170.285L163.917 170.522L165.123 178.402ZM166.309 182.277C167.093 182.2 167.695 181.468 167.619 180.684C167.542 179.9 166.81 179.298 166.026 179.375C165.209 179.454 164.624 180.185 164.7 180.969C164.777 181.753 165.509 182.355 166.309 182.277Z" fill="white"/>
<path d="M44.7081 229.862L49.7248 229.373L49.6207 228.306L45.8582 228.672L45.5498 225.51L48.7787 225.195L48.6759 224.141L45.447 224.456L45.1556 221.468L48.9181 221.101L48.814 220.033L43.7973 220.523L44.7081 229.862ZM52.3729 229.115L54.0288 226.205L56.2155 228.74L57.5097 228.614L54.6885 225.373L56.6805 221.906L55.373 222.034L53.8671 224.686L51.8773 222.375L50.5831 222.501L53.1941 225.519L51.052 229.243L52.3729 229.115ZM59.3411 231.749L60.4752 231.638L60.0771 227.555C60.7438 228.177 61.5688 228.487 62.5694 228.39C64.6775 228.184 65.8625 226.385 65.6712 224.424C65.4799 222.462 63.9697 220.926 61.8616 221.132C60.861 221.229 60.1115 221.693 59.5775 222.432L59.4994 221.631L58.3653 221.742L59.3411 231.749ZM61.8323 222.212C63.2599 222.073 64.3445 223.112 64.4837 224.539C64.623 225.967 63.7596 227.196 62.3319 227.335C61.4113 227.425 60.5545 227.064 59.9548 226.301L59.6998 223.686C60.1287 222.836 60.8984 222.303 61.8323 222.212ZM67.8291 227.607L68.9632 227.497L67.9873 217.49L66.8532 217.601L67.8291 227.607ZM73.747 219.973C71.5722 220.185 70.2672 221.996 70.4585 223.957C70.6497 225.918 72.28 227.443 74.4548 227.231C76.6163 227.02 77.9346 225.208 77.7434 223.246C77.5521 221.285 75.9085 219.762 73.747 219.973ZM74.3641 226.162C72.9231 226.303 71.7826 225.242 71.646 223.841C71.5093 222.44 72.4235 221.179 73.8645 221.039C75.2654 220.902 76.406 221.963 76.5426 223.364C76.6779 224.751 75.765 226.025 74.3641 226.162ZM79.8945 226.431L81.0286 226.32L80.5784 221.704C80.9256 220.983 81.4551 220.473 82.3357 220.388C82.6026 220.362 82.8053 220.369 83.0106 220.403L82.9026 219.295C82.7373 219.257 82.5346 219.25 82.3211 219.271C81.4672 219.354 80.8912 219.801 80.4548 220.436L80.3728 219.596L79.2387 219.706L79.8945 226.431ZM90.663 224.263L89.7586 223.691C89.3769 224.334 88.6821 224.806 87.8148 224.891C86.3739 225.031 85.2515 224.158 85.0541 222.547L90.2176 222.043C90.2394 221.853 90.2547 221.595 90.2286 221.329C90.0673 219.674 88.7549 218.509 86.927 218.687C84.8456 218.89 83.6929 220.605 83.892 222.647C84.0833 224.608 85.6468 226.139 87.915 225.918C89.1692 225.796 90.1178 225.165 90.663 224.263ZM86.994 219.651C88.1815 219.535 88.9426 220.296 89.0789 221.279L85.0496 221.672C85.1765 220.488 85.8866 219.759 86.994 219.651ZM91.947 225.256L97.3907 224.725L97.2905 223.697L93.2211 224.094L96.7418 219.037L96.6416 218.009L91.3847 218.522L91.4849 219.549L95.3542 219.172L91.8469 224.228L91.947 225.256ZM102.827 224.195L103.961 224.084L102.985 214.077L101.851 214.188L102.827 224.195ZM112.227 222.16L111.323 221.588C110.941 222.232 110.246 222.703 109.379 222.788C107.938 222.928 106.816 222.055 106.618 220.444L111.782 219.941C111.803 219.75 111.819 219.493 111.793 219.226C111.631 217.571 110.319 216.406 108.491 216.584C106.41 216.787 105.257 218.503 105.456 220.544C105.647 222.505 107.211 224.037 109.479 223.815C110.733 223.693 111.682 223.062 112.227 222.16ZM108.558 217.548C109.745 217.432 110.507 218.193 110.643 219.176L106.614 219.569C106.741 218.385 107.451 217.656 108.558 217.548ZM113.248 222.249C113.936 222.95 114.818 223.295 115.885 223.191C117.139 223.068 118.063 222.184 117.954 220.928C117.731 218.633 114.402 219.443 114.255 217.935C114.204 217.415 114.549 216.95 115.27 216.88C115.857 216.822 116.395 217.093 116.805 217.565L117.527 216.821C116.996 216.213 116.125 215.84 115.164 215.934C113.87 216.06 113.061 217.014 113.163 218.068C113.395 220.443 116.705 219.582 116.852 221.089C116.909 221.676 116.527 222.172 115.78 222.245C115.099 222.311 114.506 222.032 113.982 221.491L113.248 222.249ZM123.57 222.172L124.704 222.061L124.25 217.405C124.569 216.673 125.087 216.044 126.007 215.954C126.981 215.859 127.658 216.439 127.767 217.56L128.173 221.723L129.307 221.612L128.897 217.41C128.881 217.249 128.854 217.104 128.826 216.959C129.19 216.128 129.743 215.59 130.597 215.506C131.558 215.413 132.247 215.992 132.357 217.113L132.763 221.275L133.897 221.165L133.487 216.962C133.309 215.134 132.161 214.276 130.72 214.417C129.559 214.53 128.907 215.159 128.444 215.945C127.948 215.132 127.104 214.769 126.13 214.864C125.196 214.955 124.569 215.434 124.12 216.071L124.048 215.337L122.914 215.447L123.57 222.172ZM138.838 212.817L140.183 210.45L138.902 210.575L137.731 212.925L138.838 212.817ZM142.052 219.252L141.147 218.68C140.766 219.323 140.071 219.795 139.204 219.88C137.763 220.02 136.64 219.146 136.443 217.536L141.606 217.032C141.628 216.842 141.643 216.584 141.617 216.317C141.456 214.663 140.144 213.498 138.316 213.676C136.234 213.879 135.082 215.594 135.281 217.636C135.472 219.597 137.036 221.128 139.304 220.907C140.558 220.785 141.507 220.153 142.052 219.252ZM138.383 214.639C139.57 214.524 140.331 215.284 140.468 216.268L136.438 216.661C136.565 215.477 137.275 214.747 138.383 214.639ZM144.063 217.897C144.223 219.538 145.136 220.203 146.631 220.058C147.111 220.011 147.466 219.922 147.773 219.758L147.674 218.744C147.431 218.875 147.13 218.959 146.689 219.001C145.875 219.081 145.313 218.839 145.21 217.785L144.875 214.343L147.21 214.115L147.109 213.088L144.774 213.316L144.611 211.634L143.463 211.746L143.627 213.428L142.36 213.551L142.46 214.578L143.727 214.455L144.063 217.897ZM149.246 211.115C149.686 211.072 149.998 210.678 149.955 210.238C149.914 209.811 149.532 209.484 149.091 209.527C148.651 209.57 148.326 209.966 148.368 210.393C148.41 210.833 148.806 211.158 149.246 211.115ZM149.499 219.643L150.633 219.533L149.977 212.808L148.843 212.919L149.499 219.643ZM158.899 217.609L157.995 217.037C157.613 217.68 156.918 218.152 156.051 218.237C154.61 218.377 153.488 217.503 153.29 215.893L158.454 215.389C158.475 215.199 158.491 214.941 158.465 214.674C158.303 213.02 156.991 211.855 155.163 212.033C153.082 212.236 151.929 213.951 152.128 215.993C152.319 217.954 153.883 219.485 156.151 219.264C157.405 219.142 158.354 218.511 158.899 217.609ZM155.23 212.996C156.418 212.881 157.179 213.642 157.315 214.625L153.286 215.018C153.413 213.834 154.123 213.104 155.23 212.996ZM160.782 218.543L161.916 218.433L161.466 213.816C161.813 213.095 162.343 212.586 163.223 212.5C163.49 212.474 163.693 212.481 163.898 212.515L163.79 211.407C163.625 211.37 163.422 211.362 163.209 211.383C162.355 211.467 161.779 211.913 161.343 212.549L161.261 211.708L160.126 211.819L160.782 218.543ZM165.275 217.176C165.963 217.876 166.845 218.221 167.912 218.117C169.167 217.995 170.091 217.11 169.982 215.855C169.758 213.56 166.429 214.369 166.282 212.862C166.231 212.341 166.577 211.877 167.297 211.806C167.884 211.749 168.422 212.02 168.832 212.492L169.554 211.748C169.023 211.14 168.152 210.767 167.191 210.86C165.897 210.986 165.088 211.941 165.191 212.995C165.422 215.37 168.732 214.508 168.879 216.016C168.937 216.603 168.554 217.098 167.807 217.171C167.126 217.238 166.533 216.959 166.009 216.417L165.275 217.176ZM174.695 213.792C174.887 215.753 176.397 217.29 178.505 217.084C179.505 216.987 180.255 216.523 180.788 215.771L181.187 219.867L182.321 219.756L181.345 209.749L180.211 209.86L180.291 210.674C179.623 210.039 178.798 209.728 177.797 209.826C175.689 210.032 174.504 211.831 174.695 213.792ZM175.883 213.676C175.744 212.249 176.607 211.02 178.021 210.882C178.955 210.791 179.812 211.152 180.412 211.915L180.667 214.53C180.238 215.38 179.468 215.913 178.521 216.005C177.107 216.143 176.022 215.104 175.883 213.676ZM188.807 212.901C188.936 214.222 188.289 215.053 187.169 215.162C186.021 215.274 185.24 214.582 185.111 213.261L184.736 209.419L183.602 209.529L183.973 213.332C184.17 215.347 185.445 216.407 187.259 216.231C189.087 216.052 190.134 214.765 189.937 212.75L189.566 208.948L188.432 209.058L188.807 212.901ZM192.205 206.926C192.645 206.883 192.957 206.489 192.914 206.049C192.872 205.622 192.49 205.295 192.05 205.338C191.61 205.381 191.284 205.777 191.326 206.204C191.369 206.644 191.764 206.969 192.205 206.926ZM192.457 215.454L193.591 215.344L192.936 208.619L191.801 208.73L192.457 215.454ZM202.602 213.657C201.147 213.799 200.011 212.778 199.87 211.337C199.731 209.91 200.648 208.675 202.089 208.535C202.929 208.453 203.649 208.787 204.12 209.333L204.947 208.566C204.239 207.8 203.199 207.349 201.985 207.467C199.756 207.685 198.491 209.492 198.683 211.453C198.874 213.414 200.464 214.943 202.692 214.726C203.92 214.606 204.842 213.977 205.387 213.075L204.427 212.482C204.07 213.11 203.429 213.576 202.602 213.657ZM209.177 206.766C207.002 206.978 205.697 208.789 205.888 210.75C206.079 212.712 207.71 214.236 209.884 214.024C212.046 213.813 213.364 212.001 213.173 210.04C212.982 208.079 211.338 206.555 209.177 206.766ZM209.794 212.956C208.353 213.096 207.212 212.035 207.076 210.635C206.939 209.234 207.853 207.973 209.294 207.832C210.695 207.696 211.836 208.756 211.972 210.157C212.108 211.545 211.195 212.819 209.794 212.956ZM215.324 213.224L216.458 213.114L216.008 208.497C216.355 207.777 216.885 207.267 217.765 207.181C218.032 207.155 218.235 207.162 218.44 207.196L218.332 206.089C218.167 206.051 217.964 206.044 217.751 206.065C216.897 206.148 216.321 206.595 215.884 207.23L215.802 206.389L214.668 206.5L215.324 213.224ZM220.627 212.707L221.761 212.597L221.311 207.98C221.658 207.259 222.188 206.75 223.068 206.664C223.335 206.638 223.538 206.645 223.743 206.679L223.635 205.572C223.47 205.534 223.267 205.527 223.054 205.547C222.2 205.631 221.624 206.078 221.187 206.713L221.105 205.872L219.971 205.983L220.627 212.707ZM231.396 210.539L230.491 209.967C230.11 210.611 229.415 211.083 228.548 211.167C227.107 211.308 225.984 210.434 225.787 208.823L230.95 208.32C230.972 208.129 230.987 207.872 230.961 207.605C230.8 205.95 229.488 204.785 227.66 204.964C225.578 205.167 224.426 206.882 224.625 208.923C224.816 210.885 226.38 212.416 228.648 212.195C229.902 212.072 230.851 211.441 231.396 210.539ZM227.727 205.927C228.914 205.811 229.675 206.572 229.812 207.555L225.782 207.948C225.909 206.764 226.619 206.035 227.727 205.927ZM232.417 210.628C233.104 211.329 233.987 211.674 235.054 211.57C236.308 211.448 237.232 210.563 237.123 209.307C236.899 207.012 233.571 207.822 233.424 206.314C233.373 205.794 233.718 205.329 234.439 205.259C235.026 205.202 235.564 205.472 235.974 205.944L236.696 205.2C236.165 204.592 235.294 204.219 234.333 204.313C233.039 204.439 232.229 205.394 232.332 206.448C232.564 208.823 235.874 207.961 236.021 209.469C236.078 210.056 235.695 210.551 234.948 210.624C234.268 210.69 233.675 210.411 233.151 209.87L232.417 210.628ZM239.462 214.184L240.596 214.073L240.198 209.991C240.865 210.613 241.69 210.923 242.691 210.825C244.799 210.62 245.984 208.82 245.792 206.859C245.601 204.898 244.091 203.361 241.983 203.567C240.982 203.665 240.233 204.128 239.699 204.867L239.621 204.067L238.486 204.177L239.462 214.184ZM241.953 204.647C243.381 204.508 244.466 205.547 244.605 206.975C244.744 208.402 243.881 209.632 242.453 209.771C241.532 209.861 240.676 209.5 240.076 208.736L239.821 206.121C240.25 205.271 241.02 204.738 241.953 204.647ZM250.402 202.746C248.228 202.958 246.923 204.769 247.114 206.73C247.305 208.692 248.935 210.216 251.11 210.004C253.272 209.793 254.59 207.981 254.399 206.02C254.207 204.058 252.564 202.535 250.402 202.746ZM251.019 208.935C249.578 209.076 248.438 208.015 248.301 206.614C248.165 205.213 249.079 203.952 250.52 203.812C251.921 203.675 253.061 204.736 253.198 206.137C253.333 207.525 252.42 208.799 251.019 208.935ZM256.55 209.204L257.684 209.094L257.23 204.437C257.588 203.688 258.147 203.068 259.121 202.973C260.162 202.872 260.91 203.499 261.027 204.7L261.42 208.729L262.554 208.619L262.157 204.549C261.971 202.641 260.751 201.737 259.244 201.884C258.243 201.981 257.591 202.476 257.102 203.13L257.028 202.369L255.894 202.48L256.55 209.204ZM263.935 205.09C264.126 207.051 265.636 208.588 267.745 208.382C268.745 208.284 269.495 207.821 270.029 207.082L270.107 207.882L271.241 207.772L270.265 197.765L269.131 197.876L269.529 201.958C268.862 201.336 268.037 201.026 267.037 201.124C264.929 201.329 263.744 203.129 263.935 205.09ZM265.136 204.973C264.997 203.545 265.847 202.317 267.274 202.178C268.195 202.088 269.052 202.449 269.65 203.199L269.908 205.841C269.491 206.676 268.708 207.211 267.774 207.302C266.346 207.441 265.275 206.4 265.136 204.973ZM279.501 205.848L278.597 205.276C278.215 205.92 277.52 206.392 276.653 206.476C275.212 206.617 274.089 205.743 273.892 204.132L279.056 203.629C279.077 203.438 279.093 203.181 279.067 202.914C278.905 201.259 277.593 200.094 275.765 200.273C273.684 200.476 272.531 202.191 272.73 204.232C272.921 206.194 274.485 207.725 276.753 207.504C278.007 207.381 278.956 206.75 279.501 205.848ZM275.832 201.236C277.019 201.12 277.781 201.881 277.917 202.864L273.888 203.257C274.014 202.073 274.725 201.344 275.832 201.236ZM281.384 206.783L282.518 206.672L282.064 202.015C282.422 201.267 282.981 200.646 283.955 200.551C284.996 200.45 285.744 201.077 285.861 202.278L286.254 206.308L287.388 206.197L286.991 202.128C286.805 200.22 285.586 199.315 284.078 199.462C283.077 199.56 282.425 200.054 281.937 200.708L281.863 199.947L280.728 200.058L281.384 206.783ZM289.838 203.682C289.998 205.323 290.911 205.988 292.406 205.842C292.886 205.796 293.241 205.707 293.548 205.542L293.449 204.528C293.206 204.66 292.905 204.743 292.464 204.786C291.651 204.865 291.088 204.624 290.985 203.57L290.65 200.128L292.985 199.9L292.884 198.873L290.55 199.1L290.386 197.419L289.238 197.531L289.402 199.212L288.135 199.336L288.235 200.363L289.502 200.24L289.838 203.682ZM47.5708 241.815L48.6649 241.708L47.0613 239.629L45.7938 239.752L47.5708 241.815ZM48.2154 249.807C49.0827 249.722 49.9255 249.249 50.3688 248.546L50.452 249.4L51.5861 249.289L51.1464 244.78C51.002 243.299 49.8904 242.397 48.1825 242.563C47.0084 242.678 46.1093 243.264 45.6003 244.122L46.5179 244.692C46.8756 244.078 47.4675 243.657 48.2414 243.581C49.202 243.488 49.9212 243.956 50.0123 244.89L50.0578 245.357L47.8261 245.952C46.4219 246.331 45.7183 247.127 45.8171 248.141C45.929 249.289 46.8945 249.935 48.2154 249.807ZM46.9607 247.989C46.9047 247.416 47.278 246.962 48.183 246.712L50.1385 246.184L50.2673 247.505C49.8973 248.269 49.2051 248.767 48.3111 248.854C47.5239 248.931 47.0166 248.563 46.9607 247.989ZM55.7877 242.091L59.0719 248.559L60.5662 248.414L62.5389 241.433L61.3114 241.553L59.7033 247.299L57.0152 241.972L55.7877 242.091ZM66.8674 240.741C64.6926 240.953 63.3876 242.764 63.5788 244.726C63.7701 246.687 65.4004 248.212 67.5752 248C69.7366 247.789 71.055 245.977 70.8638 244.015C70.6725 242.054 69.0289 240.531 66.8674 240.741ZM67.4845 246.931C66.0435 247.071 64.9029 246.011 64.7663 244.61C64.6297 243.209 65.5439 241.948 66.9848 241.807C68.3858 241.671 69.5263 242.731 69.6629 244.132C69.7983 245.52 68.8854 246.794 67.4845 246.931ZM72.0222 246.367C72.7101 247.068 73.5923 247.413 74.6596 247.309C75.9138 247.186 76.8377 246.302 76.7288 245.046C76.505 242.751 73.1762 243.561 73.0292 242.053C72.9785 241.533 73.3238 241.068 74.0442 240.998C74.6313 240.941 75.1695 241.211 75.5792 241.683L76.3014 240.939C75.7706 240.331 74.8992 239.958 73.9385 240.052C72.6443 240.178 71.8349 241.132 71.9377 242.187C72.1693 244.561 75.4795 243.7 75.6266 245.208C75.6838 245.795 75.3011 246.29 74.5539 246.363C73.8735 246.429 73.2806 246.15 72.7563 245.609L72.0222 246.367ZM85.3614 245.188C83.9071 245.329 82.7704 244.309 82.6299 242.868C82.4907 241.44 83.4074 240.206 84.8484 240.065C85.689 239.984 86.4085 240.317 86.8793 240.864L87.7069 240.097C86.9992 239.33 85.9585 238.88 84.7443 238.998C82.5162 239.215 81.2512 241.022 81.4424 242.984C81.6337 244.945 83.224 246.474 85.4521 246.256C86.6796 246.137 87.6016 245.508 88.1467 244.606L87.1864 244.013C86.83 244.64 86.1886 245.107 85.3614 245.188ZM95.4188 243.897L94.5144 243.325C94.1327 243.969 93.4379 244.44 92.5706 244.525C91.1297 244.666 90.0073 243.792 89.8099 242.181L94.9734 241.678C94.9952 241.487 95.0105 241.23 94.9844 240.963C94.8231 239.308 93.5107 238.143 91.6828 238.321C89.6014 238.524 88.4487 240.24 88.6478 242.281C88.8391 244.242 90.4026 245.774 92.6708 245.552C93.925 245.43 94.8736 244.799 95.4188 243.897ZM91.7498 239.285C92.9373 239.169 93.6984 239.93 93.8347 240.913L89.8054 241.306C89.9323 240.122 90.6424 239.393 91.7498 239.285ZM97.302 244.831L98.4361 244.721L97.982 240.064C98.34 239.316 98.8991 238.695 99.8731 238.6C100.914 238.499 101.662 239.126 101.779 240.327L102.172 244.356L103.306 244.246L102.909 240.177C102.723 238.269 101.504 237.364 99.9958 237.511C98.9952 237.608 98.343 238.103 97.8545 238.757L97.7803 237.996L96.6463 238.107L97.302 244.831ZM105.756 241.731C105.916 243.372 106.829 244.037 108.324 243.891C108.804 243.844 109.159 243.756 109.466 243.591L109.367 242.577C109.124 242.709 108.823 242.792 108.382 242.835C107.568 242.914 107.006 242.673 106.903 241.619L106.568 238.177L108.903 237.949L108.802 236.921L106.467 237.149L106.304 235.468L105.156 235.58L105.32 237.261L104.052 237.385L104.153 238.412L105.42 238.288L105.756 241.731ZM111.192 243.477L112.326 243.366L111.875 238.75C112.223 238.029 112.752 237.52 113.633 237.434C113.9 237.408 114.102 237.415 114.308 237.449L114.2 236.341C114.034 236.304 113.832 236.296 113.618 236.317C112.764 236.4 112.188 236.847 111.752 237.482L111.67 236.642L110.536 236.752L111.192 243.477ZM121.96 241.309L121.056 240.737C120.674 241.38 119.979 241.852 119.112 241.937C117.671 242.077 116.549 241.204 116.351 239.593L121.515 239.09C121.536 238.899 121.552 238.641 121.526 238.375C121.364 236.72 120.052 235.555 118.224 235.733C116.143 235.936 114.99 237.652 115.189 239.693C115.38 241.654 116.944 243.185 119.212 242.964C120.466 242.842 121.415 242.211 121.96 241.309ZM118.291 236.697C119.479 236.581 120.24 237.342 120.376 238.325L116.347 238.718C116.474 237.534 117.184 236.805 118.291 236.697ZM122.981 241.398C123.669 242.099 124.551 242.444 125.618 242.339C126.873 242.217 127.796 241.332 127.688 240.077C127.464 237.782 124.135 238.592 123.988 237.084C123.937 236.564 124.283 236.099 125.003 236.029C125.59 235.971 126.128 236.242 126.538 236.714L127.26 235.97C126.729 235.362 125.858 234.989 124.897 235.083C123.603 235.209 122.794 236.163 122.896 237.217C123.128 239.592 126.438 238.731 126.585 240.238C126.643 240.825 126.26 241.321 125.513 241.393C124.832 241.46 124.239 241.181 123.715 240.639L122.981 241.398ZM132.401 238.014C132.592 239.976 134.103 241.512 136.211 241.307C137.211 241.209 137.961 240.745 138.495 240.006L138.573 240.807L139.707 240.696L138.731 230.69L137.597 230.8L137.995 234.883C137.329 234.261 136.504 233.951 135.503 234.048C133.395 234.254 132.21 236.053 132.401 238.014ZM133.602 237.897C133.463 236.47 134.313 235.242 135.74 235.103C136.661 235.013 137.518 235.374 138.116 236.124L138.374 238.765C137.957 239.601 137.174 240.135 136.24 240.226C134.812 240.365 133.741 239.325 133.602 237.897ZM142.028 234.651L143.054 230.941L141.759 231.068L140.974 234.754L142.028 234.651ZM145.546 231.574C145.986 231.531 146.298 231.137 146.255 230.697C146.213 230.27 145.831 229.943 145.391 229.986C144.951 230.029 144.625 230.425 144.667 230.851C144.71 231.292 145.105 231.617 145.546 231.574ZM145.798 240.102L146.932 239.992L146.277 233.267L145.142 233.378L145.798 240.102ZM149.329 239.758L150.463 239.647L150.009 234.991C150.367 234.242 150.926 233.622 151.9 233.527C152.941 233.425 153.689 234.053 153.806 235.254L154.199 239.283L155.333 239.172L154.936 235.103C154.75 233.195 153.531 232.29 152.023 232.437C151.022 232.535 150.37 233.03 149.882 233.683L149.808 232.923L148.673 233.033L149.329 239.758ZM157.783 236.657C157.943 238.298 158.857 238.964 160.351 238.818C160.831 238.771 161.186 238.683 161.493 238.518L161.395 237.504C161.151 237.635 160.85 237.719 160.409 237.762C159.596 237.841 159.033 237.599 158.93 236.545L158.595 233.103L160.93 232.875L160.83 231.848L158.495 232.076L158.331 230.395L157.183 230.506L157.347 232.188L156.08 232.311L156.18 233.339L157.447 233.215L157.783 236.657ZM165.744 230.291L167.089 227.924L165.808 228.049L164.637 230.399L165.744 230.291ZM168.958 236.726L168.053 236.154C167.672 236.797 166.977 237.269 166.11 237.354C164.669 237.494 163.546 236.621 163.349 235.01L168.512 234.507C168.534 234.316 168.55 234.058 168.523 233.792C168.362 232.137 167.05 230.972 165.222 231.15C163.14 231.353 161.988 233.069 162.187 235.11C162.378 237.071 163.942 238.602 166.21 238.381C167.464 238.259 168.413 237.628 168.958 236.726ZM165.289 232.114C166.476 231.998 167.237 232.759 167.374 233.742L163.344 234.135C163.471 232.951 164.181 232.222 165.289 232.114ZM170.841 237.66L171.975 237.55L171.525 232.933C171.872 232.212 172.402 231.703 173.282 231.617C173.549 231.591 173.752 231.598 173.957 231.632L173.849 230.525C173.684 230.487 173.481 230.48 173.268 230.5C172.414 230.584 171.838 231.03 171.401 231.666L171.319 230.825L170.185 230.936L170.841 237.66ZM176.688 229.224L177.672 227.431L178.97 229.002L179.984 228.903L178.38 226.823L176.846 226.973L175.661 229.324L176.688 229.224ZM181.61 235.492L180.705 234.92C180.323 235.564 179.629 236.036 178.761 236.12C177.32 236.261 176.198 235.387 176.001 233.776L181.164 233.273C181.186 233.082 181.201 232.825 181.175 232.558C181.014 230.903 179.702 229.738 177.874 229.917C175.792 230.12 174.64 231.835 174.839 233.876C175.03 235.837 176.593 237.369 178.862 237.147C180.116 237.025 181.064 236.394 181.61 235.492ZM177.941 230.88C179.128 230.764 179.889 231.525 180.026 232.508L175.996 232.901C176.123 231.717 176.833 230.988 177.941 230.88ZM183.621 234.138C183.781 235.779 184.694 236.444 186.189 236.298C186.669 236.251 187.024 236.163 187.331 235.998L187.232 234.984C186.989 235.116 186.687 235.199 186.247 235.242C185.433 235.321 184.871 235.08 184.768 234.026L184.432 230.583L186.767 230.356L186.667 229.328L184.332 229.556L184.168 227.875L183.021 227.987L183.185 229.668L181.917 229.792L182.018 230.819L183.285 230.695L183.621 234.138ZM189.919 235.948C190.399 235.901 190.736 235.491 190.691 235.024C190.645 234.557 190.234 234.207 189.754 234.253C189.273 234.3 188.924 234.725 188.97 235.192C189.015 235.659 189.439 235.995 189.919 235.948Z" fill="white"/>
<path d="M205.016 262.844L209.406 262.416L209.315 261.482L206.022 261.803L205.753 259.036L208.578 258.761L208.488 257.838L205.663 258.114L205.408 255.499L208.7 255.178L208.609 254.244L204.219 254.672L205.016 262.844ZM211.281 262.233L212.273 262.136L211.876 258.062C212.189 257.407 212.678 256.864 213.531 256.781C214.441 256.692 215.096 257.241 215.198 258.292L215.542 261.817L216.534 261.721L216.187 258.16C216.024 256.49 214.957 255.699 213.638 255.827C212.762 255.913 212.192 256.346 211.764 256.918L211.699 256.252L210.707 256.349L211.281 262.233ZM220.97 260.475C221.571 261.088 222.343 261.39 223.277 261.299C224.375 261.192 225.183 260.418 225.088 259.319C224.892 257.311 221.979 258.019 221.851 256.7C221.806 256.245 222.108 255.838 222.739 255.777C223.253 255.727 223.723 255.964 224.082 256.377L224.714 255.726C224.249 255.193 223.487 254.867 222.646 254.949C221.514 255.059 220.806 255.895 220.896 256.817C221.098 258.895 223.995 258.141 224.123 259.46C224.173 259.974 223.839 260.407 223.185 260.471C222.589 260.529 222.071 260.285 221.612 259.811L220.97 260.475ZM228.447 260.724C229.206 260.65 229.943 260.236 230.331 259.621L230.404 260.368L231.396 260.271L231.012 256.325C230.885 255.03 229.913 254.24 228.418 254.386C227.391 254.486 226.604 254.999 226.159 255.75L226.962 256.249C227.275 255.712 227.793 255.343 228.47 255.277C229.31 255.195 229.94 255.605 230.019 256.422L230.059 256.831L228.106 257.351C226.878 257.683 226.262 258.38 226.349 259.267C226.446 260.271 227.291 260.837 228.447 260.724ZM227.349 259.134C227.3 258.632 227.627 258.235 228.419 258.016L230.13 257.555L230.242 258.71C229.919 259.378 229.313 259.815 228.531 259.891C227.842 259.958 227.398 259.636 227.349 259.134ZM231.869 254.285L234.743 259.945L236.05 259.818L237.777 253.709L236.702 253.814L235.295 258.842L232.943 254.181L231.869 254.285ZM241.564 253.104C239.661 253.29 238.519 254.874 238.686 256.591C238.854 258.307 240.28 259.641 242.183 259.455C244.075 259.271 245.228 257.685 245.061 255.969C244.893 254.253 243.455 252.92 241.564 253.104ZM242.104 258.52C240.843 258.643 239.845 257.715 239.725 256.489C239.606 255.263 240.406 254.16 241.667 254.037C242.892 253.918 243.89 254.846 244.01 256.071C244.128 257.286 243.33 258.401 242.104 258.52ZM246.722 251.293C247.107 251.256 247.38 250.911 247.342 250.525C247.306 250.152 246.972 249.866 246.587 249.904C246.201 249.941 245.917 250.287 245.953 250.661C245.991 251.046 246.337 251.331 246.722 251.293ZM246.943 258.755L247.935 258.659L247.361 252.775L246.369 252.871L246.943 258.755ZM250.033 258.454L251.025 258.357L250.631 254.318C250.935 253.687 251.398 253.241 252.169 253.166C252.402 253.143 252.58 253.15 252.759 253.179L252.665 252.21C252.52 252.177 252.343 252.171 252.156 252.189C251.409 252.262 250.905 252.653 250.523 253.209L250.451 252.473L249.459 252.57L250.033 258.454ZM258.099 260.567L259.092 260.47L258.743 256.897C259.327 257.442 260.049 257.713 260.924 257.628C262.769 257.448 263.806 255.873 263.638 254.157C263.471 252.441 262.149 251.097 260.305 251.277C259.429 251.362 258.774 251.768 258.306 252.414L258.238 251.714L257.246 251.811L258.099 260.567ZM260.279 252.222C261.528 252.1 262.477 253.009 262.599 254.259C262.721 255.508 261.966 256.583 260.716 256.705C259.911 256.784 259.161 256.468 258.636 255.8L258.413 253.512C258.789 252.768 259.462 252.302 260.279 252.222ZM265.526 256.943L266.519 256.846L265.665 248.091L264.673 248.187L265.526 256.943ZM272.468 253.721C272.581 254.876 272.015 255.603 271.034 255.699C270.03 255.797 269.347 255.192 269.234 254.036L268.906 250.674L267.914 250.77L268.238 254.098C268.41 255.861 269.526 256.789 271.114 256.634C272.713 256.478 273.629 255.352 273.457 253.589L273.132 250.262L272.14 250.358L272.468 253.721ZM274.93 255.213C275.532 255.826 276.304 256.128 277.238 256.037C278.335 255.93 279.144 255.156 279.048 254.057C278.852 252.049 275.94 252.757 275.811 251.438C275.767 250.983 276.069 250.576 276.699 250.515C277.213 250.465 277.684 250.702 278.042 251.115L278.674 250.464C278.21 249.931 277.447 249.605 276.607 249.687C275.474 249.797 274.766 250.633 274.856 251.555C275.059 253.633 277.955 252.879 278.084 254.198C278.134 254.712 277.799 255.145 277.145 255.209C276.55 255.267 276.031 255.023 275.572 254.549L274.93 255.213Z" fill="white"/>
<path d="M287.913 254.7C287.726 254.563 287.621 254.377 287.598 254.141C287.575 253.905 287.642 253.702 287.799 253.532L291.138 249.923L287.165 247.028C286.978 246.892 286.873 246.705 286.85 246.469C286.827 246.233 286.894 246.03 287.051 245.86C287.208 245.691 287.419 245.593 287.685 245.567C287.95 245.541 288.176 245.596 288.363 245.732L293.049 249.148C293.151 249.222 293.226 249.306 293.275 249.399C293.323 249.493 293.353 249.595 293.364 249.706C293.375 249.818 293.365 249.924 293.336 250.025C293.306 250.126 293.249 250.223 293.163 250.315L289.225 254.572C289.068 254.741 288.857 254.839 288.591 254.865C288.326 254.891 288.1 254.836 287.913 254.7Z" fill="white"/>
</g>
<defs>
<filter id="filter0_d_5297_13116" x="260.923" y="36.7115" width="55.0676" height="55.0674" filterUnits="userSpaceOnUse" color-interpolation-filters="sRGB">
<feFlood flood-opacity="0" result="BackgroundImageFix"/>
<feColorMatrix in="SourceAlpha" type="matrix" values="0 0 0 0 0 0 0 0 0 0 0 0 0 0 0 0 0 0 127 0" result="hardAlpha"/>
<feOffset dy="3.05882"/>
<feGaussianBlur stdDeviation="4.58824"/>
<feComposite in2="hardAlpha" operator="out"/>
<feColorMatrix type="matrix" values="0 0 0 0 0.152941 0 0 0 0 0.286275 0 0 0 0 0.588235 0 0 0 0.12 0"/>
<feBlend mode="normal" in2="BackgroundImageFix" result="effect1_dropShadow_5297_13116"/>
<feBlend mode="normal" in="SourceGraphic" in2="effect1_dropShadow_5297_13116" result="shape"/>
</filter>
<filter id="filter1_d_5297_13116" x="-5.69338" y="71.8177" width="348.356" height="262.433" filterUnits="userSpaceOnUse" color-interpolation-filters="sRGB">
<feFlood flood-opacity="0" result="BackgroundImageFix"/>
<feColorMatrix in="SourceAlpha" type="matrix" values="0 0 0 0 0 0 0 0 0 0 0 0 0 0 0 0 0 0 127 0" result="hardAlpha"/>
<feOffset dy="5.02632"/>
<feGaussianBlur stdDeviation="10.4715"/>
<feComposite in2="hardAlpha" operator="out"/>
<feColorMatrix type="matrix" values="0 0 0 0 0.196078 0 0 0 0 0.196078 0 0 0 0 0.196078 0 0 0 0.1 0"/>
<feBlend mode="normal" in2="BackgroundImageFix" result="effect1_dropShadow_5297_13116"/>
<feBlend mode="normal" in="SourceGraphic" in2="effect1_dropShadow_5297_13116" result="shape"/>
</filter>
</defs>
</svg>
