<svg width="352" height="372" viewBox="0 0 352 372" fill="none" xmlns="http://www.w3.org/2000/svg">
<path d="M61.4682 13.3066C59.7148 13.3066 58.4656 14.5053 58.4656 16.1467V16.1579C58.4656 17.6927 59.5524 18.8243 61.1041 18.8243C62.2132 18.8243 62.919 18.2585 63.2159 17.6199H63.328C63.328 17.6815 63.3224 17.7432 63.3224 17.8048C63.2607 19.3509 62.7174 20.6056 61.4346 20.6056C60.7231 20.6056 60.2246 20.2359 60.0117 19.6702L59.9949 19.6141H58.5721L58.5833 19.6758C58.841 20.9137 59.9501 21.7932 61.4346 21.7932C63.468 21.7932 64.6948 20.1799 64.6948 17.4575V17.4463C64.6948 14.5334 63.1935 13.3066 61.4682 13.3066ZM61.4626 17.7151C60.5439 17.7151 59.8773 17.0429 59.8773 16.1074V16.0962C59.8773 15.1944 60.5887 14.4829 61.4794 14.4829C62.3757 14.4829 63.0759 15.2056 63.0759 16.1299V16.1411C63.0759 17.0541 62.3757 17.7151 61.4626 17.7151Z" fill="#161616"/>
<path d="M67.0085 16.3539C67.5239 16.3539 67.8992 15.9618 67.8992 15.4688C67.8992 14.9703 67.5239 14.5838 67.0085 14.5838C66.4988 14.5838 66.1178 14.9703 66.1178 15.4688C66.1178 15.9618 66.4988 16.3539 67.0085 16.3539ZM67.0085 20.5104C67.5239 20.5104 67.8992 20.1239 67.8992 19.6253C67.8992 19.1268 67.5239 18.7403 67.0085 18.7403C66.4988 18.7403 66.1178 19.1268 66.1178 19.6253C66.1178 20.1239 66.4988 20.5104 67.0085 20.5104Z" fill="#161616"/>
<path d="M73.2435 21.5916H74.6271V20.0399H75.7139V18.8467H74.6271V13.5082H72.5825C71.4845 15.1776 70.3362 17.0373 69.2887 18.8579V20.0399H73.2435V21.5916ZM70.6331 18.8803V18.7963C71.4173 17.4239 72.3528 15.9282 73.1819 14.6622H73.2659V18.8803H70.6331Z" fill="#161616"/>
<path d="M78.8343 21.5916H80.2795V13.5082H78.8399L76.728 14.9927V16.3539L78.739 14.9311H78.8343V21.5916Z" fill="#161616"/>
<rect opacity="0.35" x="289.859" y="13.8159" width="16.0614" height="7.90331" rx="1.65686" stroke="black" stroke-width="0.764706"/>
<path opacity="0.4" d="M307.068 16.2379V19.2972C307.683 19.0381 308.084 18.4354 308.084 17.7676C308.084 17.0998 307.683 16.497 307.068 16.2379Z" fill="black"/>
<rect x="291.006" y="14.9632" width="13.7668" height="5.60872" rx="1.01961" fill="black"/>
<path fill-rule="evenodd" clip-rule="evenodd" d="M279.789 15.1786C281.49 15.1787 283.127 15.8319 284.36 17.0033C284.453 17.0937 284.601 17.0926 284.693 17.0007L285.58 16.1056C285.627 16.0591 285.653 15.9959 285.652 15.9303C285.652 15.8646 285.625 15.8018 285.578 15.7558C282.342 12.6565 277.236 12.6565 273.999 15.7558C273.952 15.8018 273.925 15.8646 273.925 15.9302C273.925 15.9959 273.95 16.059 273.997 16.1056L274.884 17.0007C274.976 17.0927 275.124 17.0939 275.217 17.0033C276.451 15.8318 278.087 15.1786 279.789 15.1786ZM279.789 18.0908C280.724 18.0907 281.625 18.4379 282.318 19.0649C282.412 19.1539 282.56 19.1519 282.651 19.0605L283.538 18.1654C283.584 18.1185 283.61 18.0548 283.61 17.9886C283.609 17.9224 283.582 17.8593 283.534 17.8133C281.424 15.852 278.156 15.852 276.045 17.8133C275.998 17.8593 275.971 17.9225 275.97 17.9887C275.969 18.0549 275.995 18.1186 276.042 18.1654L276.929 19.0605C277.02 19.1519 277.168 19.1539 277.261 19.0649C277.954 18.4383 278.855 18.0912 279.789 18.0908ZM281.565 20.0502C281.566 20.1165 281.54 20.1805 281.493 20.227L279.959 21.7735C279.914 21.8189 279.853 21.8445 279.789 21.8445C279.725 21.8445 279.664 21.8189 279.619 21.7735L278.085 20.227C278.037 20.1805 278.011 20.1165 278.013 20.0501C278.014 19.9837 278.043 19.9209 278.092 19.8764C279.072 19.0486 280.506 19.0486 281.486 19.8764C281.535 19.9209 281.564 19.9838 281.565 20.0502Z" fill="black"/>
<path fill-rule="evenodd" clip-rule="evenodd" d="M269.336 13.6883H268.571C268.149 13.6883 267.807 14.0308 267.807 14.4532V21.0816C267.807 21.504 268.149 21.8465 268.571 21.8465H269.336C269.759 21.8465 270.101 21.504 270.101 21.0816V14.4532C270.101 14.0308 269.759 13.6883 269.336 13.6883ZM265.002 15.473H265.767C266.19 15.473 266.532 15.8154 266.532 16.2378V21.0817C266.532 21.5041 266.19 21.8465 265.767 21.8465H265.002C264.58 21.8465 264.238 21.5041 264.238 21.0817V16.2378C264.238 15.8154 264.58 15.473 265.002 15.473ZM262.198 17.2576H261.433C261.011 17.2576 260.668 17.6 260.668 18.0224V21.0817C260.668 21.5041 261.011 21.8465 261.433 21.8465H262.198C262.62 21.8465 262.963 21.5041 262.963 21.0817V18.0224C262.963 17.6 262.62 17.2576 262.198 17.2576ZM258.629 18.7872H257.864C257.442 18.7872 257.099 19.1297 257.099 19.5521V21.0817C257.099 21.5041 257.442 21.8465 257.864 21.8465H258.629C259.051 21.8465 259.394 21.5041 259.394 21.0817V19.5521C259.394 19.1297 259.051 18.7872 258.629 18.7872Z" fill="black"/>
<rect x="33.0051" y="33.6523" width="286.045" height="55.0674" rx="16" fill="#F1F1F1"/>
<path d="M47.7148 71.8347L51.1233 71.8347L51.1233 65.0417L52.8756 65.0417L57.3643 71.8347L61.3729 71.8347L56.1161 64.3936C57.8444 63.6014 58.8285 62.0892 58.8285 60.0489C58.8285 56.9284 56.5482 55.0321 52.8516 55.0321L47.7148 55.0321L47.7148 71.8347ZM53.0436 57.8645C54.4838 57.8645 55.324 58.7287 55.324 60.0009C55.324 61.3691 54.4838 62.2092 53.0436 62.2092L51.1233 62.2092L51.1233 57.8645L53.0436 57.8645ZM74.2147 69.8664L72.0304 68.1381C71.3823 69.0023 70.2301 69.5784 68.9099 69.5784C67.0136 69.5784 65.6214 68.6662 65.3333 66.4099L73.8067 66.4099C73.9027 66.0018 73.9987 65.3777 73.9987 64.7056C73.9987 61.5371 71.7903 59.2568 68.4298 59.2568C64.4692 59.2568 62.2128 62.2092 62.2128 65.7858C62.2128 69.3143 64.6372 72.3148 68.9339 72.3148C71.2142 72.3148 73.0865 71.3786 74.2147 69.8664ZM68.3578 61.7531C70.0621 61.7531 70.9502 62.9773 70.9982 64.2015L65.4293 64.2015C65.7654 62.6173 66.7976 61.7531 68.3578 61.7531ZM82.6927 69.4343C80.6524 69.4343 79.1882 67.9221 79.1882 65.7858C79.1882 63.6734 80.6524 62.1372 82.6447 62.1372C83.8929 62.1372 84.8531 62.6893 85.4291 63.5294L87.8055 61.7051C86.6773 60.2169 84.9011 59.2568 82.6927 59.2568C78.5161 59.2568 76.0197 62.2572 76.0197 65.7858C76.0197 69.3143 78.5161 72.3148 82.6927 72.3148C84.9011 72.3148 86.6773 71.3546 87.8055 69.8664L85.4291 68.0421C84.8531 68.8823 83.8929 69.4343 82.6927 69.4343ZM90.0812 71.8347L93.1297 71.8347L93.1297 63.9375C93.5857 63.1694 94.4019 62.1372 95.9381 62.1372C97.4503 62.1372 98.3385 63.1454 98.3385 64.7536L98.3385 71.8347L101.411 71.8347L101.411 64.6336C101.411 61.057 99.3226 59.2568 96.7062 59.2568C95.098 59.2568 93.9698 59.8809 93.1297 60.697L93.1297 53.8319L90.0812 53.8319L90.0812 71.8347ZM116.01 69.8664L113.826 68.1381C113.178 69.0023 112.026 69.5784 110.705 69.5784C108.809 69.5784 107.417 68.6662 107.129 66.4099L115.602 66.4099C115.698 66.0018 115.794 65.3777 115.794 64.7056C115.794 61.5371 113.586 59.2568 110.225 59.2568C106.265 59.2568 104.008 62.2092 104.008 65.7858C104.008 69.3143 106.433 72.3148 110.729 72.3148C113.01 72.3148 114.882 71.3786 116.01 69.8664ZM110.153 61.7531C111.858 61.7531 112.746 62.9773 112.794 64.2015L107.225 64.2015C107.561 62.6173 108.593 61.7531 110.153 61.7531ZM118.773 71.8347L121.822 71.8347L121.822 64.0815C122.278 63.3134 123.238 62.4973 124.726 62.4973C125.278 62.4973 125.686 62.5693 126.07 62.6653L126.07 59.6648C125.782 59.5688 125.422 59.4968 125.014 59.4968C123.646 59.4968 122.614 60.1209 121.822 60.937L121.822 59.7368L118.773 59.7368L118.773 71.8347ZM133.818 69.4343C131.778 69.4343 130.313 67.9221 130.313 65.7858C130.313 63.6734 131.778 62.1372 133.77 62.1372C135.018 62.1372 135.978 62.6893 136.554 63.5294L138.931 61.7051C137.802 60.2169 136.026 59.2568 133.818 59.2568C129.641 59.2568 127.145 62.2572 127.145 65.7858C127.145 69.3143 129.641 72.3148 133.818 72.3148C136.026 72.3148 137.802 71.3546 138.931 69.8664L136.554 68.0421C135.978 68.8823 135.018 69.4343 133.818 69.4343ZM141.206 71.8347L144.255 71.8347L144.255 63.9375C144.711 63.1694 145.527 62.1372 147.063 62.1372C148.575 62.1372 149.464 63.1454 149.464 64.7536L149.464 71.8347L152.536 71.8347L152.536 64.6336C152.536 61.057 150.448 59.2568 147.831 59.2568C146.223 59.2568 145.095 59.8809 144.255 60.697L144.255 53.8319L141.206 53.8319L141.206 71.8347ZM167.135 69.8664L164.951 68.1381C164.303 69.0023 163.151 69.5784 161.831 69.5784C159.934 69.5784 158.542 68.6662 158.254 66.4099L166.727 66.4099C166.823 66.0018 166.919 65.3777 166.919 64.7056C166.919 61.5371 164.711 59.2568 161.351 59.2568C157.39 59.2568 155.134 62.2092 155.134 65.7858C155.134 69.3143 157.558 72.3148 161.855 72.3148C164.135 72.3148 166.007 71.3786 167.135 69.8664ZM161.279 61.7531C162.983 61.7531 163.871 62.9773 163.919 64.2015L158.35 64.2015C158.686 62.6173 159.718 61.7531 161.279 61.7531Z" fill="#3B69D1"/>
<g filter="url(#filter0_d_5297_13091)">
<rect x="270.101" y="42.8302" width="36.7116" height="36.7116" rx="18.3529" fill="#3B69D1" shape-rendering="crispEdges"/>
<path d="M288.456 61.186C290.146 61.186 291.515 59.817 291.515 58.1267C291.515 56.4364 290.146 55.0674 288.456 55.0674C286.766 55.0674 285.397 56.4364 285.397 58.1267C285.397 59.817 286.766 61.186 288.456 61.186ZM288.456 56.597C289.297 56.597 289.986 57.2854 289.986 58.1267C289.986 58.968 289.297 59.6563 288.456 59.6563C287.615 59.6563 286.926 58.968 286.926 58.1267C286.926 57.2854 287.615 56.597 288.456 56.597ZM288.456 61.9508C286.414 61.9508 282.337 62.9757 282.337 65.0101V66.5398C282.337 66.9604 282.682 67.3046 283.102 67.3046H293.81C294.23 67.3046 294.575 66.9604 294.575 66.5398V65.0101C294.575 62.9757 290.498 61.9508 288.456 61.9508ZM293.045 65.7749H283.867V65.0178C284.02 64.4671 286.391 63.4805 288.456 63.4805C290.521 63.4805 292.892 64.4671 293.045 65.0101V65.7749Z" fill="white"/>
<rect x="270.483" y="43.2126" width="35.9469" height="35.9469" rx="17.9706" stroke="#3B69D1" stroke-width="0.764706" shape-rendering="crispEdges"/>
</g>
<rect x="48.8016" y="163.786" width="270.161" height="129.585" rx="11.4995" transform="rotate(-5 48.8016 163.786)" fill="#F1F1F1" stroke="#878787" stroke-width="0.999955" stroke-dasharray="5 5"/>
<path d="M35.1372 134.85L39.3478 134.482C42.7758 134.182 44.8876 131.458 44.6288 128.499C44.37 125.541 41.8172 123.225 38.3892 123.525L34.1785 123.893L35.1372 134.85ZM38.5383 124.868C40.9801 124.654 42.9091 126.331 43.1105 128.632C43.3104 130.917 41.7032 132.919 39.2613 133.133L36.4908 133.375L35.7677 125.11L38.5383 124.868ZM54.3183 131.863L53.2651 131.182C52.8102 131.932 51.9904 132.476 50.9729 132.565C49.2824 132.713 47.9771 131.676 47.7645 129.786L53.8222 129.256C53.85 129.033 53.8709 128.732 53.8435 128.418C53.6737 126.477 52.1491 125.097 50.0047 125.284C47.5628 125.498 46.1918 127.495 46.4013 129.89C46.6026 132.191 48.4174 134.004 51.0784 133.771C52.5497 133.642 53.6689 132.913 54.3183 131.863ZM50.072 126.414C51.4651 126.292 52.3483 127.193 52.4966 128.347L47.7694 128.761C47.932 127.374 48.7728 126.528 50.072 126.414ZM56.5147 132.98L57.8452 132.863L57.3714 127.447C57.7868 126.607 58.4133 126.016 59.4464 125.925C59.7594 125.898 59.997 125.909 60.2373 125.951L60.1236 124.651C59.9303 124.605 59.6927 124.594 59.4423 124.616C58.4405 124.704 57.7602 125.221 57.2413 125.96L57.155 124.974L55.8245 125.091L56.5147 132.98ZM62.7362 132.435L64.0667 132.319L63.5887 126.856C64.017 125.983 64.6795 125.262 65.8222 125.162C67.0431 125.055 67.9127 125.8 68.0359 127.208L68.4495 131.936L69.78 131.819L69.3623 127.045C69.1665 124.807 67.7475 123.732 65.9788 123.887C64.8048 123.989 64.0347 124.562 63.4545 125.322L63.3764 124.43L62.0459 124.546L62.7362 132.435ZM72.2616 121.586C72.7781 121.541 73.1481 121.083 73.1029 120.566C73.0591 120.065 72.6152 119.678 72.0986 119.724C71.5821 119.769 71.1964 120.228 71.2402 120.729C71.2854 121.246 71.745 121.631 72.2616 121.586ZM72.4581 131.585L73.7886 131.468L73.0984 123.579L71.7679 123.696L72.4581 131.585ZM78.4462 121.85L79.7298 121.737L77.8745 119.281L76.3875 119.411L78.4462 121.85ZM83.4995 129.31L82.4463 128.629C81.9913 129.379 81.1715 129.923 80.1541 130.012C78.4635 130.16 77.1583 129.123 76.9456 127.233L83.0033 126.703C83.0311 126.48 83.0521 126.179 83.0247 125.865C82.8549 123.924 81.3303 122.544 79.1858 122.731C76.744 122.945 75.3729 124.942 75.5825 127.337C75.7838 129.638 77.5985 131.451 80.2595 131.218C81.7309 131.089 82.8501 130.36 83.4995 129.31ZM79.2531 123.861C80.6462 123.739 81.5294 124.64 81.6777 125.794L76.9505 126.208C77.1131 124.821 77.9539 123.975 79.2531 123.861ZM85.6959 130.427L87.0264 130.31L86.5525 124.894C86.9679 124.054 87.5944 123.462 88.6275 123.372C88.9406 123.345 89.1781 123.355 89.4184 123.398L89.3047 122.098C89.1114 122.052 88.8739 122.041 88.6234 122.063C87.6217 122.151 86.9413 122.668 86.4224 123.407L86.3362 122.421L85.0057 122.538L85.6959 130.427ZM98.3423 128.011L97.2891 127.33C96.8341 128.08 96.0143 128.625 94.9969 128.714C93.3063 128.862 92.0011 127.825 91.7884 125.935L97.8461 125.405C97.8739 125.181 97.8949 124.88 97.8675 124.567C97.6976 122.626 96.1731 121.245 94.0286 121.433C91.5868 121.646 90.2157 123.643 90.4253 126.038C90.6266 128.339 92.4413 130.152 95.1023 129.919C96.5737 129.79 97.6929 129.062 98.3423 128.011ZM94.0959 122.562C95.489 122.441 96.3722 123.341 96.5205 124.495L91.7933 124.909C91.9559 123.523 92.7967 122.676 94.0959 122.562ZM104.758 128.759L106.088 128.643L105.614 123.227C106.03 122.386 106.656 121.795 107.689 121.704C108.002 121.677 108.24 121.688 108.48 121.73L108.366 120.431C108.173 120.384 107.936 120.374 107.685 120.396C106.683 120.483 106.003 121 105.484 121.74L105.398 120.753L104.067 120.87L104.758 128.759ZM117.404 126.343L116.351 125.663C115.896 126.412 115.076 126.957 114.059 127.046C112.368 127.194 111.063 126.157 110.85 124.267L116.908 123.737C116.936 123.514 116.957 123.212 116.929 122.899C116.759 120.958 115.235 119.577 113.09 119.765C110.649 119.979 109.277 121.976 109.487 124.37C109.688 126.671 111.503 128.484 114.164 128.251C115.635 128.123 116.755 127.394 117.404 126.343ZM113.158 120.895C114.551 120.773 115.434 121.674 115.582 122.828L110.855 123.241C111.018 121.855 111.858 121.008 113.158 120.895ZM123.119 126.206C121.413 126.355 120.093 125.146 119.945 123.456C119.798 121.781 120.887 120.345 122.578 120.197C123.564 120.111 124.403 120.51 124.949 121.157L125.928 120.267C125.107 119.36 123.893 118.82 122.468 118.945C119.854 119.173 118.35 121.276 118.552 123.577C118.753 125.878 120.599 127.688 123.213 127.46C124.653 127.334 125.741 126.608 126.39 125.557L125.272 124.851C124.847 125.582 124.09 126.121 123.119 126.206ZM128.329 126.697L129.659 126.58L129.181 121.117C129.611 120.26 130.257 119.525 131.415 119.424C132.651 119.315 133.505 120.061 133.629 121.47L134.042 126.197L135.373 126.081L134.955 121.306C134.759 119.068 133.34 117.993 131.571 118.148C130.397 118.251 129.627 118.823 129.047 119.583L128.632 114.841L127.302 114.957L128.329 126.697ZM144.95 123.933L143.896 123.253C143.441 124.002 142.622 124.547 141.604 124.636C139.914 124.784 138.608 123.747 138.396 121.857L144.453 121.327C144.481 121.104 144.502 120.802 144.475 120.489C144.305 118.548 142.78 117.167 140.636 117.355C138.194 117.569 136.823 119.566 137.033 121.961C137.234 124.262 139.049 126.074 141.71 125.842C143.181 125.713 144.3 124.984 144.95 123.933ZM140.703 118.485C142.096 118.363 142.98 119.264 143.128 120.418L138.401 120.831C138.563 119.445 139.404 118.599 140.703 118.485ZM147.146 125.05L148.476 124.934L148.003 119.518C148.418 118.677 149.045 118.086 150.078 117.996C150.391 117.969 150.628 117.979 150.869 118.021L150.755 116.722C150.562 116.676 150.324 116.665 150.074 116.687C149.072 116.775 148.391 117.292 147.873 118.031L147.786 117.045L146.456 117.161L147.146 125.05ZM156.443 123.291C154.737 123.44 153.416 122.231 153.268 120.54C153.122 118.865 154.211 117.429 155.901 117.281C156.887 117.195 157.727 117.595 158.272 118.241L159.251 117.351C158.431 116.445 157.216 115.905 155.792 116.029C153.178 116.258 151.674 118.361 151.875 120.662C152.077 122.963 153.923 124.773 156.537 124.544C157.977 124.418 159.065 123.692 159.714 122.642L158.596 121.935C158.171 122.666 157.413 123.206 156.443 123.291ZM161.652 123.781L162.983 123.665L162.505 118.202C162.935 117.344 163.58 116.61 164.739 116.508C165.975 116.4 166.829 117.146 166.952 118.554L167.366 123.281L168.696 123.165L168.279 118.391C168.083 116.153 166.664 115.078 164.895 115.233C163.721 115.335 162.951 115.908 162.371 116.668L161.956 111.925L160.625 112.042L161.652 123.781ZM178.273 121.018L177.22 120.337C176.765 121.087 175.945 121.632 174.928 121.721C173.237 121.869 171.932 120.832 171.719 118.942L177.777 118.412C177.805 118.188 177.826 117.887 177.798 117.574C177.629 115.633 176.104 114.252 173.96 114.44C171.518 114.653 170.147 116.65 170.356 119.045C170.558 121.346 172.372 123.159 175.033 122.926C176.505 122.797 177.624 122.069 178.273 121.018ZM174.027 115.569C175.42 115.448 176.303 116.348 176.452 117.502L171.724 117.916C171.887 116.529 172.728 115.683 174.027 115.569Z" fill="black"/>
<g filter="url(#filter1_d_5297_13091)">
<rect x="34.4018" y="146.453" width="269.474" height="133.598" rx="6.28412" transform="rotate(-5 34.4018 146.453)" fill="white" shape-rendering="crispEdges"/>
<rect x="48.0133" y="157.806" width="69.5791" height="25.2881" rx="6.28412" transform="rotate(-5 48.0133 157.806)" fill="#FFD88D"/>
<path d="M57.1049 174.221L58.354 174.112L57.683 166.442L56.4338 166.551L57.1049 174.221ZM60.4586 173.928L61.5872 173.829L61.2612 170.104C61.483 169.609 61.8572 169.091 62.5584 169.03C63.2816 168.966 63.7621 169.41 63.833 170.221L64.1292 173.607L65.2688 173.507L64.9687 170.077C64.9591 169.968 64.9505 169.869 64.9309 169.772C65.1807 169.22 65.5716 168.766 66.2291 168.708C66.9413 168.646 67.4327 169.089 67.5036 169.9L67.7998 173.285L68.9394 173.186L68.6393 169.756C68.5061 168.233 67.5495 167.522 66.399 167.623C65.4458 167.706 64.9372 168.203 64.5578 168.788C64.1497 168.162 63.4845 167.878 62.7284 167.944C61.9943 168.008 61.5062 168.36 61.1491 168.822L61.104 168.307L59.9755 168.405L60.4586 173.928ZM70.6881 173.033L71.8166 172.934L71.4907 169.209C71.7125 168.714 72.0866 168.196 72.7879 168.135C73.5111 168.071 73.9915 168.515 74.0625 169.326L74.3587 172.712L75.4982 172.612L75.1982 169.182C75.1886 169.073 75.1799 168.974 75.1604 168.877C75.4102 168.325 75.8011 167.871 76.4585 167.813C77.1707 167.751 77.6621 168.194 77.7331 169.005L78.0293 172.391L79.1688 172.291L78.8688 168.861C78.7355 167.338 77.779 166.627 76.6285 166.728C75.6752 166.811 75.1667 167.308 74.7873 167.893C74.3791 167.267 73.7139 166.983 72.9579 167.049C72.2238 167.113 71.7356 167.465 71.3785 167.927L71.3335 167.412L70.2049 167.51L70.6881 173.033ZM85.8244 170.803L84.9451 170.218C84.6457 170.708 84.1127 171.052 83.4444 171.111C82.3815 171.204 81.5928 170.643 81.4106 169.445L85.4866 169.088C85.5161 168.92 85.5269 168.665 85.5049 168.413C85.3822 167.011 84.305 166.056 82.7819 166.189C81.0288 166.343 80.0929 167.76 80.2377 169.415C80.3786 171.026 81.627 172.297 83.5335 172.13C84.5635 172.04 85.3698 171.539 85.8244 170.803ZM82.8424 167.133C83.73 167.056 84.2786 167.648 84.3609 168.337L81.3916 168.596C81.4921 167.726 82.0207 167.205 82.8424 167.133ZM87.2735 171.582L88.402 171.483L88.0799 167.801C88.3236 167.305 88.7512 166.893 89.4525 166.831C89.6826 166.811 89.8608 166.829 90.0399 166.857L89.9431 165.75C89.7968 165.719 89.6296 165.701 89.4543 165.716C88.7749 165.775 88.3197 166.124 87.9735 166.585L87.9189 165.961L86.7903 166.059L87.2735 171.582ZM91.0554 170.467C91.625 171.046 92.3479 171.359 93.2792 171.277C94.3092 171.187 95.1292 170.464 95.0453 169.378C94.8794 167.483 92.2056 168.092 92.1088 166.985C92.0762 166.613 92.3123 166.283 92.8383 166.237C93.2985 166.197 93.7059 166.437 94.0363 166.806L94.7448 166.07C94.3043 165.579 93.5576 165.247 92.7468 165.317C91.6401 165.414 90.9364 166.205 91.016 167.114C91.1866 169.064 93.8575 168.422 93.9553 169.54C93.9917 169.956 93.7246 170.311 93.1877 170.358C92.6399 170.406 92.1757 170.148 91.7739 169.72L91.0554 170.467ZM96.5727 163.967C96.989 163.931 97.309 163.549 97.2726 163.133C97.2361 162.716 96.8548 162.397 96.4385 162.433C96.0221 162.469 95.7021 162.851 95.7386 163.267C95.775 163.683 96.1563 164.003 96.5727 163.967ZM96.5934 170.766L97.722 170.668L97.2388 165.145L96.1103 165.244L96.5934 170.766ZM101.63 164.54C99.8437 164.697 98.7454 166.151 98.8882 167.783C99.031 169.416 100.365 170.657 102.151 170.501C103.948 170.344 105.036 168.891 104.893 167.258C104.75 165.625 103.427 164.383 101.63 164.54ZM102.069 169.437C101.006 169.53 100.165 168.743 100.072 167.68C99.9786 166.617 100.671 165.695 101.734 165.602C102.775 165.511 103.615 166.288 103.709 167.361C103.801 168.413 103.11 169.346 102.069 169.437ZM106.545 169.896L107.673 169.797L107.347 166.072C107.59 165.565 107.998 165.054 108.754 164.988C109.543 164.919 110.071 165.403 110.148 166.279L110.434 169.555L111.574 169.456L111.283 166.136C111.144 164.536 110.14 163.796 108.924 163.902C108.135 163.971 107.615 164.337 107.237 164.812L107.19 164.275L106.062 164.373L106.545 169.896Z" fill="#161616"/>
<rect x="48.0133" y="157.806" width="69.5791" height="25.2881" rx="6.28412" transform="rotate(-5 48.0133 157.806)" stroke="#161616"/>
<path d="M54.4134 212.389L56.6361 212.195L56.2486 207.765L57.6417 207.643C60.0522 207.432 61.4154 206.067 61.2388 204.048C61.0607 202.013 59.4812 200.905 57.0706 201.116L53.4548 201.432L54.4134 212.389ZM57.3261 202.955C58.2653 202.872 58.8781 203.387 58.9507 204.216C59.0288 205.108 58.5132 205.706 57.574 205.788L56.087 205.918L55.8391 203.085L57.3261 202.955ZM64.4441 202.3L65.4375 200.494L66.7295 202.1L68.467 201.948L66.6274 199.491L64.0916 199.713L62.7067 202.452L64.4441 202.3ZM65.421 211.663C66.3445 211.582 67.2494 211.108 67.6969 210.454L67.764 211.221L69.752 211.047L69.3055 205.944C69.1535 204.207 67.8604 202.948 65.5751 203.148C64.135 203.274 63.0287 203.97 62.4092 205.002L63.9622 205.986C64.3341 205.37 64.8975 204.958 65.6645 204.891C66.5723 204.811 67.245 205.289 67.3176 206.118L67.3354 206.322L64.9604 206.94C63.2946 207.369 62.4491 208.342 62.5532 209.532C62.6805 210.988 63.84 211.801 65.421 211.663ZM64.5172 209.266C64.4748 208.78 64.789 208.406 65.6063 208.192L67.4573 207.715L67.5545 208.826C67.218 209.487 66.5975 209.967 65.6896 210.046C65.0166 210.105 64.5638 209.798 64.5172 209.266ZM72.2773 207.924C72.4457 209.849 73.4821 210.879 75.4544 210.706C76.1118 210.649 76.5746 210.529 76.9508 210.323L76.7988 208.585C76.5423 208.718 76.1878 208.812 75.6399 208.86C74.8573 208.929 74.3575 208.625 74.2809 207.749L73.9987 204.524L76.4093 204.313L76.2532 202.529L73.8426 202.74L73.6701 200.768L71.6665 200.943L71.839 202.915L70.3677 203.044L70.5238 204.828L71.9952 204.7L72.2773 207.924ZM78.9147 200.908C79.6191 200.847 80.1462 200.201 80.0846 199.497C80.023 198.792 79.3918 198.248 78.6874 198.31C77.983 198.371 77.4403 199.018 77.5019 199.723C77.5635 200.427 78.2104 200.97 78.9147 200.908ZM78.7237 210.262L80.7116 210.088L80.0214 202.199L78.0335 202.373L78.7237 210.262ZM82.1998 208.807C83.0292 209.633 84.0803 210.109 85.489 209.986C86.9761 209.856 88.2272 208.832 88.1133 207.17C87.875 204.446 84.1437 205.246 84.026 203.899C83.9904 203.492 84.2576 203.122 84.8837 203.067C85.4942 203.014 86.0464 203.376 86.4972 203.841L87.7107 202.568C87.0801 201.85 85.9337 201.367 84.7284 201.472C83.0849 201.616 82.0026 202.767 82.1245 204.16C82.3669 206.931 86.0941 206.084 86.2146 207.462C86.2557 207.931 85.9598 208.336 85.3181 208.392C84.5667 208.458 83.9492 208.07 83.4106 207.502L82.1998 208.807ZM89.2467 208.19C90.0761 209.017 91.1272 209.493 92.5359 209.369C94.023 209.239 95.274 208.215 95.1602 206.553C94.9219 203.829 91.1906 204.629 91.0728 203.283C91.0372 202.876 91.3045 202.506 91.9306 202.451C92.5411 202.397 93.0933 202.759 93.5441 203.224L94.7576 201.951C94.127 201.233 92.9806 200.75 91.7753 200.856C90.1317 200.999 89.0495 202.151 89.1714 203.544C89.4138 206.314 93.141 205.468 93.2615 206.845C93.3026 207.315 93.0067 207.719 92.3649 207.776C91.6136 207.841 90.9961 207.454 90.4575 206.886L89.2467 208.19ZM97.3803 199.293C98.0847 199.231 98.6118 198.586 98.5502 197.881C98.4886 197.177 97.8574 196.633 97.153 196.694C96.4486 196.756 95.9059 197.403 95.9675 198.107C96.0291 198.811 96.676 199.354 97.3803 199.293ZM97.1893 208.647L99.1772 208.473L98.487 200.584L96.4991 200.758L97.1893 208.647ZM108.712 206.345L107.189 205.343C106.815 205.943 106.097 206.385 105.236 206.46C103.999 206.568 103.04 206.053 102.723 204.598L108.248 204.115C108.288 203.843 108.315 203.431 108.276 202.992C108.096 200.926 106.526 199.565 104.334 199.757C101.751 199.983 100.448 202.037 100.652 204.369C100.854 206.67 102.606 208.488 105.408 208.243C106.895 208.113 108.062 207.396 108.712 206.345ZM104.43 201.389C105.541 201.292 106.19 202.039 106.291 202.835L102.66 203.152C102.788 202.1 103.412 201.478 104.43 201.389ZM110.626 207.471L112.614 207.297L112.171 202.241C112.425 201.715 113.004 201.128 113.975 201.043C114.335 201.011 114.605 201.035 114.861 201.076L114.69 199.119C114.497 199.073 114.258 199.046 113.992 199.07C113.099 199.148 112.462 199.614 111.992 200.191L111.923 199.408L109.936 199.582L110.626 207.471Z" fill="#161616"/>
<path d="M60.7995 231.84C61.0865 231.815 61.3233 231.691 61.5099 231.468C61.6962 231.246 61.7768 230.992 61.7517 230.705C61.7266 230.418 61.603 230.181 61.381 229.994C61.1586 229.808 60.9039 229.728 60.6169 229.753C60.3299 229.778 60.0933 229.901 59.907 230.123C59.7203 230.346 59.6396 230.601 59.6647 230.888C59.6898 231.174 59.8135 231.411 60.0359 231.597C60.258 231.784 60.5125 231.865 60.7995 231.84ZM61.2389 236.862C61.1693 236.868 61.0986 236.861 61.0267 236.841C60.9549 236.821 60.891 236.791 60.835 236.752C59.4672 235.742 58.4282 234.783 57.7181 233.877C57.0079 232.971 56.6163 232.101 56.5432 231.266C56.4291 229.961 56.7579 228.885 57.5295 228.038C58.3008 227.191 59.2386 226.719 60.343 226.622C61.4474 226.525 62.453 226.827 63.3597 227.528C64.2667 228.228 64.7773 229.231 64.8915 230.535C64.9645 231.37 64.73 232.296 64.188 233.311C63.6459 234.327 62.7891 235.451 61.6176 236.684C61.5693 236.732 61.5114 236.772 61.4442 236.804C61.3769 236.837 61.3084 236.856 61.2389 236.862Z" fill="#646464"/>
<path d="M71.7995 235.395L72.8294 235.305L72.5351 231.941L73.7514 231.835C75.2853 231.701 76.1658 230.785 76.0507 229.47C75.9357 228.155 74.9086 227.395 73.3746 227.529L71.1284 227.725L71.7995 235.395ZM73.4732 228.403C74.3498 228.327 74.9179 228.763 74.986 229.541C75.0579 230.363 74.5731 230.88 73.6966 230.956L72.4584 231.065L72.2351 228.512L73.4732 228.403ZM76.3683 234.996L77.464 234.9L78.154 232.565L81.6822 232.256L82.7672 234.436L83.8629 234.34L80.1349 226.937L78.7543 227.058L76.3683 234.996ZM78.4161 231.648L79.5232 227.896L81.2649 231.398L78.4161 231.648ZM85.3781 234.207L86.4081 234.117L86.1138 230.753L87.1218 230.665C87.1985 230.658 87.2862 230.651 87.3619 230.633L89.8814 233.813L91.0977 233.707L88.3089 230.351C89.1019 229.951 89.5127 229.219 89.4321 228.299C89.3171 226.984 88.29 226.224 86.7451 226.359L84.7071 226.537L85.3781 234.207ZM86.8656 227.232C87.7422 227.155 88.2993 227.592 88.3674 228.37C88.4393 229.192 87.9655 229.708 87.0889 229.785L86.0371 229.877L85.8137 227.324L86.8656 227.232ZM92.3975 233.593L93.4274 233.503L92.7564 225.833L91.7264 225.923L92.3975 233.593ZM95.1916 232.289C95.9328 233.063 96.803 233.417 97.9315 233.319C99.2902 233.2 100.235 232.267 100.119 230.941C99.8961 228.388 96.3038 229.1 96.1533 227.38C96.0958 226.722 96.5366 226.209 97.2927 226.143C97.9501 226.085 98.5186 226.4 99.0244 227.007L99.743 226.26C99.107 225.553 98.275 225.129 97.2012 225.223C95.8644 225.34 95.0036 226.354 95.1033 227.494C95.3247 230.025 98.9299 229.334 99.0814 231.065C99.1427 231.766 98.6947 232.325 97.8401 232.399C97.1278 232.462 96.4826 232.154 95.8972 231.52L95.1916 232.289ZM106.64 232.347L107.615 232.262L106.944 224.592L105.958 224.678L103.559 226.29L104.125 226.947L106.056 225.674L106.64 232.347ZM109.06 229.905L112.873 229.571L113.067 231.785L114.053 231.699L113.859 229.485L114.747 229.408L114.669 228.52L113.781 228.598L113.382 224.029L112.187 224.133L108.982 229.018L109.06 229.905ZM110.034 228.926L112.49 225.189L112.795 228.684L110.034 228.926Z" fill="#161616"/>
<path d="M197.928 243.167L201.667 250.568L203.025 250.45L205.422 242.511L204.327 242.607L202.255 249.468L199.023 243.071L197.928 243.167ZM208.786 244.16C207 244.316 205.915 245.791 206.056 247.402C206.197 249.013 207.522 250.277 209.308 250.121C211.083 249.965 212.179 248.489 212.038 246.879C211.897 245.268 210.561 244.005 208.786 244.16ZM209.242 249.243C208.059 249.347 207.132 248.467 207.031 247.317C206.93 246.166 207.691 245.139 208.874 245.036C210.024 244.935 210.951 245.815 211.052 246.965C211.152 248.105 210.392 249.143 209.242 249.243ZM213.64 242.51C214.001 242.478 214.26 242.158 214.228 241.796C214.198 241.445 213.887 241.174 213.525 241.206C213.164 241.238 212.894 241.559 212.925 241.91C212.956 242.272 213.278 242.542 213.64 242.51ZM213.777 249.509L214.708 249.427L214.225 243.905L213.294 243.987L213.777 249.509ZM216.677 249.255L217.608 249.174L217.277 245.383C217.567 244.794 218.006 244.38 218.729 244.317C218.948 244.298 219.114 244.305 219.283 244.335L219.203 243.425C219.068 243.393 218.901 243.386 218.726 243.401C218.025 243.462 217.549 243.824 217.185 244.342L217.125 243.651L216.194 243.733L216.677 249.255ZM223.985 248.616L224.916 248.534L224.198 240.317L223.266 240.398L223.985 248.616ZM231.714 247.023L230.977 246.547C230.658 247.071 230.085 247.453 229.372 247.515C228.189 247.619 227.275 246.893 227.126 245.57L231.367 245.199C231.386 245.042 231.401 244.831 231.382 244.612C231.263 243.254 230.196 242.287 228.695 242.418C226.985 242.568 226.026 243.966 226.172 245.642C226.313 247.253 227.583 248.522 229.446 248.359C230.476 248.269 231.26 247.759 231.714 247.023ZM228.742 243.209C229.717 243.124 230.335 243.754 230.439 244.562L227.13 244.852C227.244 243.881 227.832 243.289 228.742 243.209ZM232.551 247.105C233.11 247.685 233.831 247.975 234.707 247.899C235.737 247.808 236.502 247.09 236.423 246.059C236.258 244.175 233.521 244.812 233.412 243.573C233.375 243.146 233.662 242.768 234.254 242.716C234.736 242.674 235.175 242.9 235.507 243.291L236.106 242.686C235.676 242.183 234.964 241.87 234.175 241.939C233.112 242.032 232.44 242.808 232.516 243.674C232.686 245.624 235.409 244.944 235.518 246.183C235.56 246.665 235.242 247.068 234.628 247.122C234.069 247.171 233.585 246.937 233.159 246.488L232.551 247.105ZM241.02 247.125L241.951 247.044L241.62 243.253C241.91 242.664 242.349 242.251 243.072 242.187C243.291 242.168 243.458 242.176 243.626 242.205L243.546 241.296C243.411 241.263 243.245 241.256 243.069 241.271C242.368 241.333 241.892 241.694 241.529 242.212L241.468 241.522L240.537 241.603L241.02 247.125ZM247.288 240.129L248.411 238.198L247.359 238.29L246.379 240.209L247.288 240.129ZM249.872 245.435L249.135 244.958C248.817 245.483 248.243 245.864 247.531 245.927C246.347 246.03 245.434 245.304 245.285 243.981L249.525 243.61C249.545 243.454 249.559 243.243 249.54 243.024C249.421 241.665 248.354 240.698 246.853 240.83C245.144 240.979 244.184 242.377 244.331 244.054C244.471 245.664 245.742 246.933 247.604 246.77C248.634 246.68 249.418 246.17 249.872 245.435ZM246.9 241.621C247.875 241.535 248.493 242.166 248.597 242.974L245.288 243.263C245.402 242.293 245.991 241.7 246.9 241.621ZM250.709 245.516C251.268 246.096 251.989 246.387 252.866 246.31C253.895 246.22 254.661 245.501 254.582 244.471C254.417 242.586 251.679 243.223 251.571 241.985C251.533 241.557 251.82 241.179 252.412 241.127C252.894 241.085 253.334 241.312 253.666 241.702L254.264 241.098C253.834 240.594 253.122 240.281 252.333 240.35C251.27 240.443 250.598 241.22 250.674 242.085C250.845 244.036 253.568 243.356 253.676 244.594C253.718 245.076 253.4 245.479 252.786 245.533C252.228 245.582 251.744 245.348 251.318 244.9L250.709 245.516ZM259.864 243.092C259.959 244.177 259.422 244.853 258.501 244.934C257.559 245.016 256.924 244.442 256.829 243.358L256.553 240.202L255.621 240.283L255.895 243.406C256.039 245.061 257.077 245.942 258.567 245.811C260.068 245.68 260.937 244.632 260.792 242.978L260.519 239.855L259.588 239.936L259.864 243.092ZM262.838 245.217L263.769 245.135L263.05 236.917L262.119 236.999L262.838 245.217ZM265.893 243.083C266.011 244.431 266.755 244.984 267.982 244.877C268.377 244.842 268.669 244.773 268.922 244.64L268.849 243.807C268.649 243.913 268.401 243.979 268.039 244.011C267.371 244.069 266.911 243.867 266.836 243.001L266.588 240.174L268.506 240.006L268.432 239.163L266.515 239.33L266.394 237.95L265.451 238.032L265.572 239.413L264.531 239.504L264.605 240.348L265.646 240.257L265.893 243.083ZM271.853 244.582C272.565 244.52 273.261 244.139 273.63 243.566L273.692 244.267L274.623 244.186L274.299 240.482C274.192 239.266 273.288 238.517 271.885 238.64C270.921 238.724 270.179 239.197 269.754 239.897L270.502 240.373C270.801 239.872 271.29 239.531 271.925 239.475C272.714 239.406 273.3 239.797 273.368 240.564L273.401 240.947L271.565 241.417C270.41 241.717 269.826 242.364 269.899 243.197C269.982 244.139 270.768 244.677 271.853 244.582ZM270.839 243.081C270.797 242.61 271.107 242.241 271.852 242.043L273.461 241.626L273.555 242.711C273.246 243.335 272.674 243.738 271.94 243.802C271.293 243.859 270.88 243.553 270.839 243.081ZM276.647 242.143C276.765 243.49 277.509 244.044 278.736 243.936C279.131 243.902 279.423 243.832 279.676 243.699L279.603 242.867C279.403 242.972 279.154 243.038 278.793 243.07C278.125 243.128 277.665 242.926 277.589 242.06L277.342 239.233L279.26 239.065L279.186 238.222L277.268 238.39L277.147 237.009L276.205 237.091L276.326 238.472L275.285 238.563L275.359 239.407L276.4 239.316L276.647 242.143ZM280.435 242.915C280.993 243.496 281.714 243.786 282.591 243.709C283.621 243.619 284.386 242.901 284.307 241.87C284.142 239.985 281.404 240.622 281.296 239.384C281.259 238.957 281.546 238.578 282.137 238.527C282.62 238.484 283.059 238.711 283.391 239.101L283.99 238.497C283.559 237.994 282.847 237.681 282.058 237.75C280.996 237.843 280.324 238.619 280.399 239.485C280.57 241.435 283.293 240.755 283.401 241.993C283.443 242.475 283.125 242.879 282.512 242.932C281.953 242.981 281.469 242.748 281.043 242.299L280.435 242.915Z" fill="#161616"/>
<path d="M291.771 242.421C291.615 242.29 291.527 242.114 291.508 241.892C291.488 241.67 291.544 241.482 291.675 241.325L294.46 238.006L291.141 235.221C290.985 235.09 290.897 234.914 290.878 234.692C290.858 234.47 290.914 234.281 291.045 234.125C291.176 233.969 291.352 233.881 291.574 233.862C291.796 233.843 291.985 233.898 292.141 234.029L296.056 237.314C296.141 237.386 296.204 237.466 296.245 237.554C296.285 237.643 296.31 237.739 296.319 237.843C296.328 237.948 296.32 238.047 296.296 238.141C296.271 238.235 296.223 238.325 296.152 238.41L292.866 242.325C292.736 242.481 292.559 242.569 292.337 242.588C292.116 242.608 291.927 242.552 291.771 242.421Z" fill="#161616"/>
</g>
<defs>
<filter id="filter0_d_5297_13091" x="260.923" y="36.7116" width="55.0676" height="55.0674" filterUnits="userSpaceOnUse" color-interpolation-filters="sRGB">
<feFlood flood-opacity="0" result="BackgroundImageFix"/>
<feColorMatrix in="SourceAlpha" type="matrix" values="0 0 0 0 0 0 0 0 0 0 0 0 0 0 0 0 0 0 127 0" result="hardAlpha"/>
<feOffset dy="3.05882"/>
<feGaussianBlur stdDeviation="4.58824"/>
<feComposite in2="hardAlpha" operator="out"/>
<feColorMatrix type="matrix" values="0 0 0 0 0.152941 0 0 0 0 0.286275 0 0 0 0 0.588235 0 0 0 0.12 0"/>
<feBlend mode="normal" in2="BackgroundImageFix" result="effect1_dropShadow_5297_13091"/>
<feBlend mode="normal" in="SourceGraphic" in2="effect1_dropShadow_5297_13091" result="shape"/>
</filter>
<filter id="filter1_d_5297_13091" x="24.9742" y="116.682" width="298.947" height="175.431" filterUnits="userSpaceOnUse" color-interpolation-filters="sRGB">
<feFlood flood-opacity="0" result="BackgroundImageFix"/>
<feColorMatrix in="SourceAlpha" type="matrix" values="0 0 0 0 0 0 0 0 0 0 0 0 0 0 0 0 0 0 127 0" result="hardAlpha"/>
<feOffset dy="3.14206"/>
<feGaussianBlur stdDeviation="4.71309"/>
<feComposite in2="hardAlpha" operator="out"/>
<feColorMatrix type="matrix" values="0 0 0 0 0.152941 0 0 0 0 0.286275 0 0 0 0 0.588235 0 0 0 0.12 0"/>
<feBlend mode="normal" in2="BackgroundImageFix" result="effect1_dropShadow_5297_13091"/>
<feBlend mode="normal" in="SourceGraphic" in2="effect1_dropShadow_5297_13091" result="shape"/>
</filter>
</defs>
</svg>
