<svg width="352" height="372" viewBox="0 0 352 372" fill="none" xmlns="http://www.w3.org/2000/svg">
<rect x="18.733" y="268.995" width="326.036" height="84.3227" rx="11.4995" transform="rotate(-5 18.733 268.995)" fill="#F1F1F1" stroke="#878787" stroke-width="0.999955" stroke-dasharray="5 5"/>
<g filter="url(#filter0_d_4866_12579)">
<rect y="290.299" width="328.051" height="82.0128" rx="16" transform="rotate(-5 0 290.299)" fill="white"/>
</g>
<path d="M29.5447 328.375L32.0867 328.153L31.6419 323.069L36.7259 322.624L37.1707 327.708L39.7128 327.486L39.0456 319.859L33.6279 316.491L28.8775 320.749L29.5447 328.375ZM29.6929 330.07C29.2269 330.111 28.8136 329.98 28.453 329.677C28.0918 329.374 27.8908 328.989 27.85 328.523L27.1828 320.897C27.1593 320.629 27.1972 320.37 27.2966 320.119C27.3953 319.868 27.5438 319.656 27.7421 319.482L32.4925 315.224C32.638 315.098 32.793 314.999 32.9575 314.928C33.122 314.856 33.2961 314.813 33.4797 314.797C33.6632 314.781 33.8422 314.793 34.0167 314.835C34.1911 314.877 34.3609 314.947 34.5261 315.047L39.9438 318.415C40.1692 318.552 40.3526 318.735 40.4939 318.964C40.6346 319.194 40.7168 319.443 40.7402 319.711L41.4074 327.337C41.4482 327.803 41.3173 328.217 41.0148 328.578C40.7117 328.939 40.3271 329.139 39.861 329.18L35.6243 329.551L35.1795 324.467L33.4848 324.615L33.9296 329.699L29.6929 330.07Z" fill="#646464"/>
<path d="M18.7018 348.052L19.7186 347.963L20.359 345.796L23.6331 345.51L24.64 347.533L25.6568 347.444L22.1972 340.574L20.916 340.686L18.7018 348.052ZM20.6021 344.945L21.6295 341.464L23.2458 344.714L20.6021 344.945ZM29.1251 346.525C28.0168 346.622 27.1592 345.837 27.0631 344.739C26.9679 343.651 27.6752 342.718 28.7734 342.622C29.414 342.566 29.9592 342.825 30.3136 343.245L30.9495 342.667C30.4164 342.078 29.6275 341.727 28.7022 341.808C27.0041 341.957 26.0273 343.323 26.1581 344.818C26.2889 346.312 27.4881 347.488 29.1861 347.34C30.1216 347.258 30.8283 346.786 31.2501 346.104L30.5235 345.645C30.2474 346.12 29.7556 346.47 29.1251 346.525ZM34.6163 346.045C33.508 346.142 32.6503 345.356 32.5542 344.258C32.4591 343.17 33.1664 342.237 34.2645 342.141C34.9051 342.085 35.4504 342.345 35.8047 342.765L36.4406 342.187C35.9076 341.598 35.1187 341.247 34.1934 341.328C32.4953 341.476 31.5185 342.843 31.6493 344.337C31.7801 345.832 32.9792 347.008 34.6773 346.859C35.6128 346.777 36.3195 346.306 36.7413 345.623L36.0147 345.164C35.7386 345.639 35.2467 345.99 34.6163 346.045ZM41.3773 343.855C41.4654 344.862 40.967 345.489 40.1129 345.564C39.2384 345.641 38.6488 345.108 38.5607 344.101L38.3045 341.173L37.4402 341.249L37.6938 344.147C37.8281 345.682 38.791 346.499 40.1739 346.378C41.5669 346.257 42.3732 345.284 42.2389 343.749L41.9854 340.851L41.1211 340.927L41.3773 343.855ZM48.6185 344.584L47.9343 344.142C47.6388 344.629 47.1063 344.983 46.4453 345.041C45.3472 345.137 44.4993 344.463 44.3612 343.235L48.2962 342.891C48.3143 342.746 48.3279 342.55 48.3101 342.347C48.1998 341.086 47.2094 340.189 45.8164 340.311C44.2301 340.45 43.3395 341.747 43.4756 343.303C43.6064 344.797 44.7853 345.975 46.5138 345.824C47.4696 345.74 48.1967 345.267 48.6185 344.584ZM45.8601 341.045C46.765 340.966 47.3388 341.551 47.4351 342.3L44.3643 342.569C44.47 341.669 45.0161 341.119 45.8601 341.045ZM49.9176 338.815C50.2531 338.786 50.4935 338.488 50.4641 338.152C50.4357 337.827 50.1473 337.575 49.8117 337.605C49.4762 337.634 49.2257 337.933 49.2541 338.258C49.2835 338.594 49.582 338.844 49.9176 338.815ZM50.0453 345.31L50.9095 345.234L50.4612 340.11L49.5969 340.185L50.0453 345.31ZM52.7362 345.074L53.6005 344.999L52.9333 337.373L52.069 337.448L52.7362 345.074Z" fill="#646464"/>
<path d="M101.21 312.862L103.955 309.591C104.11 309.407 104.301 309.308 104.527 309.295C104.754 309.283 104.959 309.354 105.143 309.508C105.314 309.664 105.409 309.855 105.428 310.081C105.448 310.307 105.388 310.512 105.247 310.695L101.982 314.609C101.828 314.793 101.637 314.895 101.411 314.915C101.185 314.935 100.98 314.867 100.796 314.713L98.8149 313.05C98.6459 312.909 98.551 312.718 98.53 312.478C98.5089 312.238 98.5693 312.033 98.7111 311.864C98.8528 311.695 99.0437 311.6 99.2838 311.579C99.5239 311.558 99.7284 311.619 99.8974 311.76L101.21 312.862ZM89.8113 314.564C89.5713 314.585 89.363 314.521 89.1867 314.373C89.0098 314.225 88.9109 314.031 88.8899 313.791C88.8689 313.551 88.9326 313.342 89.081 313.165C89.229 312.989 89.423 312.89 89.6631 312.869L95.5944 312.35C95.8345 312.329 96.043 312.393 96.2199 312.541C96.3962 312.689 96.4949 312.883 96.5159 313.124C96.5369 313.364 96.4735 313.572 96.3255 313.748C96.1771 313.925 95.9828 314.024 95.7427 314.045L89.8113 314.564ZM102.297 320.644L100.828 322.395C100.686 322.563 100.495 322.658 100.255 322.679C100.015 322.7 99.8104 322.64 99.6414 322.498C99.4725 322.357 99.3775 322.166 99.3565 321.926C99.3355 321.685 99.3959 321.481 99.5377 321.312L101.007 319.561L99.256 318.092C99.087 317.95 98.992 317.759 98.971 317.519C98.95 317.279 99.0104 317.075 99.1522 316.906C99.2939 316.737 99.4848 316.642 99.7249 316.621C99.965 316.6 100.17 316.66 100.338 316.802L102.089 318.271L103.558 316.52C103.7 316.351 103.891 316.256 104.131 316.235C104.371 316.214 104.576 316.275 104.745 316.417C104.914 316.558 105.009 316.749 105.03 316.989C105.051 317.229 104.99 317.434 104.848 317.603L103.379 319.354L105.13 320.823C105.299 320.965 105.394 321.155 105.415 321.396C105.436 321.636 105.376 321.84 105.234 322.009C105.092 322.178 104.901 322.273 104.661 322.294C104.421 322.315 104.217 322.255 104.048 322.113L102.297 320.644ZM90.4044 321.343C90.1643 321.364 89.9561 321.3 89.7797 321.151C89.6029 321.003 89.5039 320.81 89.4829 320.569C89.4619 320.329 89.5256 320.121 89.6741 319.944C89.822 319.768 90.016 319.669 90.2561 319.648L96.1875 319.129C96.4276 319.108 96.6361 319.171 96.8129 319.319C96.9893 319.468 97.088 319.662 97.109 319.902C97.13 320.142 97.0665 320.351 96.9186 320.527C96.7701 320.704 96.5759 320.803 96.3358 320.824L90.4044 321.343Z" fill="#646464"/>
<path d="M78.0389 342.861L78.9947 342.777L78.4841 336.94L80.8555 340.155L81.5876 340.091L83.3648 336.513L83.8754 342.35L84.8312 342.266L84.2085 335.149L82.9883 335.255L81.1264 339.035L78.6364 335.636L77.4162 335.743L78.0389 342.861ZM88.6943 336.559C87.0369 336.704 86.0296 338.073 86.1604 339.568C86.2911 341.063 87.5208 342.236 89.1782 342.091C90.8254 341.947 91.8429 340.577 91.7121 339.082C91.5814 337.588 90.3415 336.415 88.6943 336.559ZM89.1172 341.277C88.0191 341.373 87.1587 340.557 87.0653 339.489C86.9719 338.421 87.6775 337.468 88.7756 337.372C89.8433 337.279 90.7036 338.095 90.797 339.162C90.8895 340.22 90.1849 341.183 89.1172 341.277ZM93.3258 341.523L94.1901 341.448L93.8796 337.899C94.1578 337.331 94.5882 336.863 95.3305 336.799C96.1236 336.729 96.6884 337.213 96.7685 338.128L97.0371 341.198L97.9014 341.123L97.6301 338.022C97.5029 336.567 96.5811 335.869 95.4321 335.97C94.6695 336.037 94.1693 336.408 93.7924 336.902L93.7417 336.323L92.8774 336.398L93.3258 341.523ZM101.771 340.077C102.29 340.616 102.959 340.885 103.772 340.814C104.728 340.73 105.438 340.064 105.365 339.107C105.212 337.358 102.671 337.949 102.571 336.8C102.536 336.404 102.802 336.053 103.351 336.005C103.799 335.965 104.207 336.176 104.515 336.538L105.07 335.977C104.671 335.51 104.01 335.219 103.278 335.284C102.292 335.37 101.668 336.09 101.739 336.894C101.897 338.704 104.424 338.073 104.524 339.222C104.563 339.669 104.268 340.043 103.699 340.093C103.18 340.138 102.731 339.922 102.336 339.505L101.771 340.077ZM110.267 337.828C110.355 338.835 109.856 339.462 109.002 339.537C108.128 339.613 107.538 339.081 107.45 338.074L107.194 335.146L106.33 335.221L106.583 338.119C106.717 339.655 107.68 340.472 109.063 340.351C110.456 340.229 111.263 339.257 111.128 337.722L110.875 334.824L110.01 334.899L110.267 337.828ZM112.899 333.305C113.234 333.275 113.475 332.978 113.445 332.642C113.417 332.317 113.128 332.065 112.793 332.095C112.457 332.124 112.207 332.422 112.235 332.748C112.265 333.083 112.563 333.334 112.899 333.305ZM113.026 339.8L113.891 339.724L113.442 334.599L112.578 334.675L113.026 339.8ZM114.496 334.507L116.948 339.456L118.087 339.357L119.641 334.057L118.706 334.139L117.438 338.502L115.432 334.425L114.496 334.507ZM121.021 332.594C121.357 332.565 121.597 332.267 121.568 331.931C121.539 331.606 121.251 331.355 120.915 331.384C120.58 331.413 120.329 331.712 120.358 332.037C120.387 332.373 120.686 332.623 121.021 332.594ZM121.149 339.089L122.013 339.013L121.565 333.889L120.701 333.964L121.149 339.089Z" fill="#646464"/>
<g clip-path="url(#clip0_4866_12579)">
<path d="M157.122 312.944L162.227 312.498C162.467 312.477 162.658 312.378 162.799 312.202C162.94 312.026 163 311.818 162.979 311.578C162.958 311.338 162.86 311.144 162.683 310.995C162.506 310.847 162.298 310.784 162.058 310.805L156.953 311.252C156.713 311.273 156.522 311.371 156.381 311.547C156.24 311.723 156.18 311.931 156.201 312.171C156.222 312.411 156.32 312.605 156.497 312.753C156.674 312.902 156.882 312.965 157.122 312.944ZM156.9 310.402L165.394 309.659C165.634 309.638 165.825 309.54 165.966 309.363C166.107 309.188 166.167 308.98 166.146 308.74C166.125 308.5 166.026 308.305 165.849 308.157C165.673 308.009 165.465 307.945 165.225 307.966L156.73 308.71C156.49 308.731 156.3 308.829 156.158 309.005C156.017 309.181 155.957 309.389 155.978 309.629C155.999 309.869 156.098 310.063 156.274 310.211C156.451 310.36 156.66 310.423 156.9 310.402ZM156.677 307.86L165.172 307.117C165.412 307.096 165.603 306.998 165.744 306.822C165.885 306.646 165.945 306.438 165.924 306.198C165.903 305.958 165.804 305.763 165.627 305.615C165.451 305.467 165.243 305.403 165.002 305.424L156.508 306.168C156.268 306.189 156.077 306.287 155.936 306.463C155.795 306.639 155.735 306.847 155.756 307.087C155.777 307.327 155.876 307.522 156.052 307.67C156.229 307.818 156.437 307.881 156.677 307.86ZM153.299 318.039L152.144 304.842C152.103 304.376 152.234 303.962 152.538 303.601C152.84 303.24 153.224 303.04 153.69 302.999L167.248 301.813C167.714 301.772 168.128 301.903 168.489 302.205C168.849 302.508 169.05 302.893 169.091 303.359L169.98 313.527C170.021 313.993 169.89 314.407 169.588 314.768C169.285 315.129 168.9 315.329 168.434 315.37L156.571 316.408L154.793 318.527C154.548 318.819 154.246 318.906 153.887 318.788C153.528 318.67 153.332 318.42 153.299 318.039ZM154.815 315.857L155.724 314.774L168.286 313.675L167.396 303.507L153.839 304.693L154.815 315.857Z" fill="#646464"/>
</g>
<path d="M144.217 337.071L145.173 336.987L144.662 331.151L147.034 334.365L147.766 334.301L149.543 330.724L150.054 336.56L151.009 336.476L150.387 329.359L149.167 329.465L147.305 333.245L144.815 329.846L143.594 329.953L144.217 337.071ZM157.481 335.06L156.797 334.618C156.502 335.104 155.969 335.458 155.308 335.516C154.21 335.612 153.362 334.939 153.224 333.711L157.159 333.367C157.177 333.222 157.191 333.026 157.173 332.822C157.063 331.562 156.072 330.665 154.679 330.786C153.093 330.925 152.202 332.222 152.339 333.778C152.469 335.273 153.648 336.45 155.377 336.299C156.333 336.216 157.06 335.742 157.481 335.06ZM154.723 331.52C155.628 331.441 156.202 332.026 156.298 332.776L153.227 333.045C153.333 332.144 153.879 331.594 154.723 331.52ZM158.258 335.135C158.776 335.674 159.446 335.943 160.259 335.872C161.215 335.788 161.925 335.122 161.851 334.165C161.698 332.416 159.158 333.007 159.057 331.858C159.023 331.462 159.289 331.111 159.838 331.063C160.286 331.023 160.693 331.234 161.002 331.596L161.557 331.035C161.158 330.568 160.497 330.277 159.765 330.342C158.779 330.428 158.155 331.148 158.225 331.952C158.384 333.762 160.911 333.131 161.011 334.28C161.05 334.727 160.755 335.101 160.186 335.151C159.667 335.196 159.218 334.98 158.823 334.563L158.258 335.135ZM162.726 334.744C163.245 335.283 163.914 335.552 164.727 335.481C165.683 335.398 166.393 334.731 166.32 333.774C166.167 332.025 163.626 332.616 163.526 331.467C163.491 331.071 163.757 330.72 164.307 330.672C164.754 330.632 165.162 330.843 165.47 331.205L166.025 330.644C165.626 330.177 164.965 329.887 164.233 329.951C163.247 330.037 162.624 330.757 162.694 331.561C162.852 333.371 165.379 332.74 165.479 333.889C165.519 334.336 165.223 334.71 164.654 334.76C164.135 334.805 163.686 334.589 163.291 334.172L162.726 334.744ZM169.231 335.026C169.892 334.968 170.537 334.614 170.88 334.082L170.937 334.733L171.801 334.657L171.5 331.221C171.401 330.092 170.562 329.397 169.26 329.511C168.366 329.589 167.677 330.028 167.283 330.678L167.977 331.119C168.254 330.654 168.708 330.338 169.298 330.286C170.03 330.222 170.574 330.584 170.636 331.296L170.667 331.652L168.963 332.088C167.891 332.366 167.35 332.967 167.417 333.74C167.494 334.614 168.224 335.114 169.231 335.026ZM168.289 333.633C168.251 333.195 168.538 332.853 169.229 332.669L170.722 332.282L170.81 333.289C170.523 333.868 169.992 334.242 169.311 334.301C168.711 334.354 168.327 334.07 168.289 333.633ZM173.026 335.483C173.116 336.51 174.164 337.012 175.679 336.88C177.214 336.745 178.222 335.848 178.128 334.77C178.047 333.855 177.359 333.249 176.007 333.367L174.543 333.495C174.227 333.523 174.102 333.38 174.084 333.167C174.067 332.973 174.173 332.78 174.373 332.609C174.592 332.651 174.839 332.67 175.094 332.648C176.324 332.54 177.014 331.64 176.928 330.664C176.901 330.359 176.804 330.07 176.64 329.828L177.748 329.731L177.682 328.979L175.781 329.145C175.495 329.037 175.152 328.985 174.776 329.018C173.556 329.125 172.856 330.026 172.942 331.012C172.992 331.582 173.302 332.077 173.779 332.374C173.404 332.663 173.22 333.017 173.256 333.424C173.28 333.698 173.426 333.962 173.676 334.125C173.198 334.525 172.981 334.964 173.026 335.483ZM175.044 331.966C174.281 332.033 173.821 331.571 173.766 330.94C173.711 330.31 174.083 329.765 174.846 329.698C175.588 329.633 176.06 330.104 176.115 330.735C176.169 331.355 175.786 331.901 175.044 331.966ZM173.861 335.307C173.825 334.9 174.012 334.577 174.345 334.281L176.002 334.136C176.918 334.056 177.226 334.418 177.269 334.906C177.327 335.578 176.683 336.064 175.606 336.159C174.589 336.247 173.915 335.927 173.861 335.307ZM183.438 332.789L182.754 332.347C182.458 332.834 181.926 333.188 181.265 333.245C180.167 333.341 179.319 332.668 179.181 331.44L183.116 331.096C183.134 330.951 183.147 330.755 183.129 330.551C183.019 329.291 182.029 328.394 180.636 328.516C179.049 328.654 178.159 329.952 178.295 331.507C178.426 333.002 179.605 334.18 181.333 334.028C182.289 333.945 183.016 333.471 183.438 332.789ZM180.679 329.249C181.584 329.17 182.158 329.755 182.254 330.505L179.184 330.774C179.289 329.873 179.835 329.323 180.679 329.249Z" fill="#646464"/>
<path d="M228.629 309.271C228.798 309.413 229.003 309.473 229.243 309.452C229.483 309.431 229.674 309.336 229.815 309.168C229.957 308.999 230.018 308.794 229.997 308.554C229.976 308.314 229.881 308.123 229.712 307.981L228.122 306.647C228.294 306.334 228.414 306.003 228.484 305.655C228.553 305.308 228.571 304.943 228.537 304.562C228.445 303.503 227.995 302.635 227.189 301.958C226.383 301.282 225.45 300.99 224.391 301.083C223.332 301.175 222.464 301.625 221.787 302.431C221.11 303.237 220.819 304.17 220.911 305.229C221.004 306.288 221.453 307.156 222.259 307.833C223.066 308.509 223.999 308.801 225.058 308.709C225.425 308.676 225.777 308.596 226.114 308.467C226.452 308.338 226.76 308.161 227.04 307.938L228.629 309.271ZM224.91 307.014C224.317 307.066 223.797 306.905 223.352 306.531C222.906 306.157 222.658 305.674 222.606 305.081C222.554 304.488 222.715 303.969 223.089 303.523C223.462 303.078 223.946 302.829 224.539 302.777C225.132 302.725 225.651 302.886 226.097 303.26C226.542 303.634 226.791 304.117 226.843 304.71C226.895 305.303 226.734 305.823 226.36 306.268C225.986 306.713 225.503 306.962 224.91 307.014ZM218.999 312.654C218.533 312.695 218.12 312.564 217.759 312.261C217.398 311.958 217.197 311.574 217.156 311.108L216.267 300.939C216.226 300.473 216.357 300.06 216.66 299.699C216.963 299.338 217.347 299.137 217.813 299.097L231.371 297.91C231.837 297.87 232.25 298.001 232.612 298.304C232.972 298.606 233.173 298.991 233.214 299.457L234.103 309.625C234.144 310.091 234.013 310.505 233.711 310.866C233.407 311.226 233.023 311.427 232.557 311.468L218.999 312.654ZM218.851 310.959L232.409 309.773L231.519 299.605L217.962 300.791L218.851 310.959Z" fill="#646464"/>
<path d="M202.643 331.959L203.599 331.876L203.326 328.754L204.261 328.672C204.333 328.666 204.414 328.659 204.484 328.642L206.822 331.594L207.951 331.495L205.363 328.381C206.099 328.009 206.48 327.33 206.405 326.476C206.299 325.256 205.345 324.551 203.912 324.676L202.02 324.842L202.643 331.959ZM204.024 325.486C204.837 325.415 205.354 325.82 205.417 326.542C205.484 327.305 205.044 327.784 204.231 327.855L203.255 327.94L203.047 325.571L204.024 325.486ZM213.365 330.171L212.681 329.728C212.386 330.215 211.853 330.569 211.192 330.627C210.094 330.723 209.246 330.05 209.108 328.822L213.043 328.478C213.061 328.333 213.075 328.137 213.057 327.933C212.947 326.672 211.956 325.776 210.563 325.897C208.977 326.036 208.087 327.333 208.223 328.889C208.353 330.384 209.532 331.561 211.261 331.41C212.217 331.327 212.944 330.853 213.365 330.171ZM210.607 326.631C211.512 326.552 212.086 327.137 212.182 327.887L209.111 328.156C209.217 327.255 209.763 326.705 210.607 326.631ZM217.078 330.082C215.97 330.178 215.112 329.393 215.016 328.295C214.921 327.207 215.628 326.274 216.726 326.178C217.367 326.122 217.912 326.382 218.266 326.801L218.902 326.223C218.369 325.635 217.58 325.283 216.655 325.364C214.957 325.513 213.98 326.879 214.111 328.374C214.242 329.869 215.441 331.044 217.139 330.896C218.074 330.814 218.781 330.342 219.203 329.66L218.476 329.201C218.2 329.676 217.708 330.026 217.078 330.082ZM220.462 330.4L221.326 330.325L221.016 326.776C221.295 326.219 221.714 325.741 222.467 325.676C223.27 325.605 223.825 326.09 223.905 327.005L224.173 330.076L225.038 330L224.766 326.899C224.639 325.445 223.718 324.747 222.569 324.847C221.806 324.914 221.306 325.285 220.929 325.779L220.659 322.699L219.795 322.774L220.462 330.4ZM231.259 328.605L230.575 328.163C230.279 328.65 229.747 329.004 229.086 329.062C227.988 329.158 227.14 328.484 227.002 327.256L230.937 326.912C230.955 326.767 230.968 326.571 230.95 326.368C230.84 325.107 229.85 324.21 228.457 324.332C226.871 324.471 225.98 325.768 226.116 327.324C226.247 328.818 227.426 329.996 229.154 329.845C230.11 329.761 230.837 329.288 231.259 328.605ZM228.501 325.066C229.405 324.987 229.979 325.572 230.076 326.321L227.005 326.59C227.11 325.689 227.657 325.14 228.501 325.066ZM232.686 329.331L233.55 329.255L233.242 325.737C233.512 325.191 233.919 324.807 234.59 324.748C234.793 324.73 234.948 324.737 235.104 324.765L235.03 323.921C234.904 323.891 234.75 323.884 234.587 323.898C233.937 323.955 233.495 324.291 233.158 324.771L233.102 324.13L232.237 324.206L232.686 329.331ZM238.725 328.188C237.617 328.285 236.759 327.499 236.663 326.401C236.568 325.313 237.275 324.38 238.373 324.284C239.014 324.228 239.559 324.488 239.913 324.907L240.549 324.329C240.016 323.741 239.227 323.39 238.302 323.471C236.604 323.619 235.627 324.985 235.758 326.48C235.889 327.975 237.088 329.151 238.786 329.002C239.721 328.92 240.428 328.449 240.85 327.766L240.123 327.307C239.847 327.782 239.355 328.133 238.725 328.188ZM242.109 328.506L242.973 328.431L242.663 324.882C242.942 324.325 243.361 323.848 244.114 323.782C244.917 323.712 245.472 324.196 245.552 325.111L245.82 328.182L246.685 328.106L246.413 325.005C246.286 323.551 245.364 322.853 244.215 322.953C243.453 323.02 242.953 323.392 242.576 323.886L242.306 320.805L241.442 320.88L242.109 328.506ZM252.906 326.711L252.222 326.269C251.926 326.756 251.394 327.11 250.733 327.168C249.635 327.264 248.787 326.59 248.648 325.363L252.584 325.018C252.602 324.873 252.615 324.677 252.597 324.474C252.487 323.213 251.497 322.316 250.104 322.438C248.517 322.577 247.627 323.874 247.763 325.43C247.894 326.924 249.073 328.102 250.801 327.951C251.757 327.867 252.484 327.394 252.906 326.711ZM250.147 323.172C251.052 323.093 251.626 323.678 251.722 324.428L248.652 324.696C248.757 323.796 249.303 323.246 250.147 323.172Z" fill="#646464"/>
<g clip-path="url(#clip1_4866_12579)">
<path d="M287.375 303.683C286.781 303.735 286.262 303.574 285.817 303.201C285.371 302.827 285.123 302.344 285.071 301.75C285.019 301.157 285.18 300.638 285.554 300.193C285.927 299.747 286.411 299.499 287.004 299.447C287.597 299.395 288.116 299.556 288.562 299.929C289.007 300.303 289.256 300.787 289.308 301.38C289.359 301.973 289.199 302.492 288.825 302.938C288.451 303.383 287.968 303.632 287.375 303.683ZM284.393 308.64C283.927 308.681 283.513 308.55 283.152 308.248C282.791 307.945 282.591 307.56 282.55 307.094L281.512 295.231C281.471 294.765 281.602 294.352 281.905 293.991C282.208 293.63 282.593 293.429 283.059 293.388L283.906 293.314L283.832 292.467C283.811 292.227 283.874 292.018 284.022 291.841C284.171 291.665 284.365 291.566 284.605 291.545C284.845 291.524 285.054 291.588 285.23 291.736C285.407 291.884 285.505 292.078 285.526 292.318L285.601 293.166L292.379 292.573L292.305 291.725C292.284 291.485 292.348 291.277 292.496 291.1C292.644 290.924 292.838 290.825 293.078 290.804C293.318 290.783 293.527 290.846 293.703 290.994C293.88 291.143 293.979 291.337 294 291.577L294.074 292.424L294.921 292.35C295.387 292.31 295.801 292.441 296.162 292.744C296.523 293.046 296.724 293.431 296.764 293.897L297.802 305.76C297.843 306.226 297.712 306.639 297.409 307C297.106 307.361 296.722 307.562 296.256 307.602L284.393 308.64ZM284.245 306.946L296.107 305.908L295.366 297.434L283.503 298.472L284.245 306.946Z" fill="#3B69D1"/>
</g>
<path d="M267.19 318.525L268.391 317.037L266.907 317.167L265.878 318.64L267.19 318.525ZM265.151 326.491L269.299 326.128L269.194 324.928L266.49 325.164L266.33 323.334L268.628 323.133L268.523 321.933L266.225 322.134L266.077 320.446L268.782 320.21L268.677 319.01L264.528 319.373L265.151 326.491ZM269.475 320.948L271.784 325.91L273.482 325.762L274.905 320.473L273.512 320.595L272.51 324.371L270.858 320.827L269.475 320.948ZM278.567 319.333L279.639 317.539L278.236 317.661L277.326 319.442L278.567 319.333ZM280.752 324.285L279.763 323.634C279.52 324.024 279.053 324.311 278.494 324.36C277.691 324.43 277.067 324.096 276.862 323.15L280.451 322.836C280.477 322.66 280.494 322.392 280.469 322.107C280.352 320.765 279.332 319.881 277.908 320.006C276.231 320.152 275.384 321.487 275.517 323.002C275.647 324.496 276.786 325.678 278.606 325.518C279.572 325.434 280.33 324.968 280.752 324.285ZM277.97 321.066C278.692 321.003 279.114 321.488 279.179 322.005L276.82 322.211C276.904 321.528 277.309 321.124 277.97 321.066ZM281.995 325.017L283.287 324.904L282.994 321.559C283.159 321.216 283.466 320.749 284.117 320.692C284.747 320.637 285.171 321.03 285.231 321.711L285.493 324.711L286.795 324.597L286.528 321.547C286.395 320.032 285.444 319.346 284.336 319.443C283.654 319.503 283.199 319.809 282.874 320.186L282.838 319.779L281.547 319.892L281.995 325.017ZM292.906 323.222L291.917 322.571C291.674 322.961 291.207 323.248 290.648 323.297C289.845 323.367 289.221 323.032 289.016 322.087L292.605 321.773C292.631 321.597 292.648 321.329 292.623 321.044C292.506 319.702 291.486 318.818 290.062 318.942C288.385 319.089 287.538 320.423 287.671 321.938C287.801 323.433 288.94 324.614 290.76 324.455C291.726 324.37 292.484 323.905 292.906 323.222ZM290.124 320.002C290.846 319.939 291.268 320.425 291.334 320.942L288.975 321.148C289.058 320.465 289.463 320.06 290.124 320.002ZM294.149 323.954L295.441 323.841L295.148 320.495C295.313 320.153 295.579 319.689 296.169 319.637C296.749 319.587 297.118 319.944 297.172 320.564L297.444 323.665L298.745 323.551L298.47 320.399C298.462 320.318 298.456 320.247 298.44 320.177C298.613 319.813 298.884 319.4 299.443 319.351C300.023 319.3 300.392 319.657 300.447 320.278L300.718 323.379L302.019 323.265L301.744 320.113C301.617 318.669 300.719 318.01 299.662 318.102C298.798 318.178 298.343 318.607 298.017 319.086C297.633 318.567 297.039 318.332 296.388 318.389C295.757 318.444 295.342 318.736 295.026 319.102L294.992 318.716L293.701 318.829L294.149 323.954ZM308.138 321.889L307.149 321.238C306.906 321.628 306.44 321.915 305.88 321.964C305.077 322.034 304.454 321.7 304.248 320.754L307.837 320.44C307.863 320.264 307.88 319.996 307.855 319.711C307.738 318.369 306.718 317.485 305.295 317.61C303.617 317.756 302.77 319.091 302.903 320.606C303.034 322.1 304.172 323.282 305.992 323.122C306.958 323.038 307.716 322.572 308.138 321.889ZM305.357 318.67C306.079 318.607 306.5 319.092 306.566 319.609L304.207 319.815C304.29 319.132 304.696 318.728 305.357 318.67ZM309.382 322.621L310.673 322.508L310.38 319.163C310.545 318.82 310.852 318.353 311.503 318.296C312.134 318.241 312.557 318.634 312.617 319.315L312.879 322.315L314.181 322.201L313.914 319.151C313.781 317.636 312.83 316.95 311.722 317.047C311.041 317.107 310.586 317.413 310.26 317.79L310.225 317.383L308.933 317.496L309.382 322.621ZM315.809 320.173C315.918 321.424 316.592 322.093 317.873 321.98C318.3 321.943 318.6 321.866 318.845 321.731L318.746 320.603C318.579 320.689 318.349 320.75 317.993 320.781C317.485 320.826 317.16 320.629 317.11 320.059L316.927 317.965L318.493 317.828L318.392 316.669L316.826 316.806L316.714 315.524L315.412 315.638L315.524 316.92L314.568 317.003L314.67 318.162L315.626 318.079L315.809 320.173Z" fill="#3B69D1"/>
<g filter="url(#filter1_d_4866_12579)">
<rect x="73.0114" y="116.488" width="223.427" height="105.699" rx="5.21032" transform="rotate(-5 73.0114 116.488)" fill="white" shape-rendering="crispEdges"/>
<rect x="84.3022" y="125.962" width="60.43" height="21.2136" rx="5.21032" transform="rotate(-5 84.3022 125.962)" fill="#CEF0F1"/>
<path d="M92.037 139.949L95.5801 139.639L95.503 138.758L92.9956 138.977L92.8279 137.06L94.9719 136.872L94.8948 135.991L92.7508 136.179L92.5934 134.38L95.1008 134.161L95.0237 133.279L91.4807 133.589L92.037 139.949ZM95.7765 135.008L97.9032 139.435L99.1478 139.327L100.482 134.596L99.4649 134.685L98.441 138.363L96.7849 134.92L95.7765 135.008ZM102.702 133.67L103.61 133.59L102.533 132.165L101.498 132.255L102.702 133.67ZM105.735 138L105.006 137.514C104.758 137.92 104.316 138.206 103.762 138.255C102.881 138.332 102.227 137.867 102.076 136.873L105.455 136.578C105.48 136.438 105.489 136.227 105.47 136.018C105.369 134.855 104.475 134.064 103.213 134.174C101.759 134.301 100.983 135.477 101.103 136.849C101.22 138.184 102.255 139.238 103.836 139.1C104.69 139.025 105.358 138.609 105.735 138ZM103.263 134.957C103.999 134.893 104.454 135.384 104.522 135.955L102.06 136.17C102.143 135.449 102.581 135.017 103.263 134.957ZM106.937 138.645L107.872 138.563L107.602 135.474C107.803 135.054 108.142 134.631 108.769 134.576C109.423 134.519 109.861 134.92 109.924 135.647L110.162 138.363L111.107 138.28L110.866 135.528C110.75 134.201 109.918 133.587 108.909 133.676C108.255 133.733 107.824 134.036 107.511 134.43L107.472 133.985L106.536 134.066L106.937 138.645ZM116.63 137.046L115.901 136.561C115.652 136.967 115.211 137.253 114.656 137.301C113.775 137.379 113.121 136.914 112.97 135.92L116.35 135.625C116.374 135.485 116.383 135.274 116.365 135.065C116.263 133.902 115.37 133.11 114.107 133.221C112.654 133.348 111.878 134.524 111.998 135.895C112.115 137.231 113.15 138.285 114.73 138.146C115.584 138.072 116.253 137.656 116.63 137.046ZM114.157 134.004C114.893 133.939 115.348 134.431 115.416 135.001L112.954 135.217C113.038 134.495 113.476 134.063 114.157 134.004ZM117.831 137.692L118.767 137.61L118.497 134.521C118.681 134.112 118.991 133.682 119.572 133.631C120.172 133.578 120.57 133.946 120.629 134.619L120.875 137.426L121.819 137.343L121.571 134.5C121.563 134.409 121.556 134.327 121.539 134.246C121.747 133.788 122.071 133.412 122.616 133.365C123.206 133.313 123.614 133.68 123.672 134.352L123.918 137.159L124.863 137.077L124.614 134.233C124.504 132.97 123.711 132.381 122.757 132.464C121.966 132.533 121.545 132.946 121.23 133.431C120.892 132.911 120.34 132.676 119.713 132.73C119.105 132.784 118.7 133.075 118.404 133.458L118.366 133.031L117.431 133.113L117.831 137.692ZM130.381 135.843L129.652 135.358C129.404 135.764 128.962 136.05 128.408 136.098C127.527 136.176 126.873 135.711 126.722 134.717L130.101 134.421C130.126 134.282 130.135 134.071 130.116 133.862C130.015 132.699 129.121 131.907 127.859 132.018C126.405 132.145 125.629 133.321 125.749 134.692C125.866 136.028 126.901 137.082 128.482 136.943C129.336 136.869 130.004 136.453 130.381 135.843ZM127.909 132.801C128.645 132.736 129.1 133.228 129.168 133.798L126.706 134.014C126.789 133.292 127.227 132.86 127.909 132.801ZM131.583 136.489L132.518 136.407L132.248 133.318C132.449 132.898 132.788 132.475 133.415 132.42C134.069 132.363 134.507 132.764 134.57 133.49L134.808 136.207L135.753 136.124L135.512 133.371C135.396 132.045 134.564 131.431 133.555 131.519C132.901 131.577 132.47 131.88 132.157 132.273L132.118 131.828L131.182 131.91L131.583 136.489ZM137.341 134.383C137.439 135.501 138.051 136.015 139.123 135.921C139.477 135.89 139.728 135.822 139.938 135.712L139.866 134.885C139.708 134.963 139.502 135.018 139.193 135.045C138.684 135.089 138.34 134.918 138.286 134.3L138.098 132.156L139.615 132.024L139.541 131.179L138.024 131.312L137.924 130.167L136.979 130.25L137.079 131.394L136.216 131.47L136.29 132.315L137.153 132.239L137.341 134.383Z" fill="#161616"/>
<rect x="84.3022" y="125.962" width="60.43" height="21.2136" rx="5.21032" transform="rotate(-5 84.3022 125.962)" stroke="#161616"/>
<path d="M88.4617 167.527C89.3504 168.417 90.4245 168.885 91.9559 168.751C93.6301 168.605 94.8642 167.464 94.7403 165.748C94.4678 162.633 90.3816 163.462 90.2374 161.814C90.1897 161.268 90.5816 160.816 91.2305 160.759C91.9184 160.699 92.5551 161.101 93.1474 161.742L94.3904 160.404C93.5311 159.551 92.4395 159.031 91.0768 159.151C89.3377 159.303 88.2481 160.601 88.3742 162.042C88.6433 165.118 92.7306 164.302 92.8771 165.977C92.9339 166.626 92.5267 167.053 91.7999 167.117C91.0601 167.182 90.297 166.83 89.6906 166.177L88.4617 167.527ZM98.3133 168.13C99.0791 168.063 99.8294 167.67 100.2 167.128L100.256 167.763L101.904 167.619L101.534 163.388C101.408 161.948 100.336 160.904 98.4411 161.07C97.2471 161.174 96.3299 161.751 95.8162 162.607L97.1038 163.423C97.4122 162.912 97.8793 162.57 98.5152 162.515C99.268 162.449 99.8257 162.845 99.8859 163.533L99.9006 163.701L97.9315 164.214C96.5503 164.57 95.8493 165.377 95.9356 166.363C96.0412 167.57 97.0025 168.244 98.3133 168.13ZM97.564 166.142C97.5288 165.74 97.7894 165.429 98.467 165.252L100.002 164.856L100.082 165.778C99.8033 166.325 99.2888 166.723 98.5361 166.789C97.978 166.838 97.6026 166.583 97.564 166.142ZM103.792 167.454L105.44 167.31L104.588 157.576L102.94 157.72L103.792 167.454ZM109.936 160.064C107.808 160.25 106.492 161.948 106.663 163.907C106.835 165.867 108.426 167.31 110.554 167.124C112.682 166.938 113.999 165.24 113.827 163.281C113.656 161.321 112.065 159.878 109.936 160.064ZM110.444 165.564C109.353 165.66 108.476 164.9 108.376 163.758C108.276 162.615 109.008 161.714 110.098 161.619C111.15 161.527 112.014 162.288 112.114 163.43C112.213 164.56 111.495 165.472 110.444 165.564ZM115.617 166.42L117.265 166.275L116.891 162.006C117.102 161.569 117.494 160.972 118.325 160.899C119.129 160.829 119.67 161.331 119.746 162.2L120.081 166.029L121.742 165.884L121.402 161.99C121.233 160.056 120.018 159.182 118.604 159.306C117.734 159.382 117.154 159.773 116.738 160.254L116.693 159.734L115.044 159.879L115.617 166.42ZM126.359 162.184C126.526 164.092 127.926 165.604 129.99 165.424C130.872 165.346 131.485 165.018 131.946 164.468L131.992 164.987L133.653 164.842L132.801 155.108L131.14 155.253L131.465 158.965C130.915 158.503 130.255 158.286 129.372 158.363C127.309 158.544 126.192 160.276 126.359 162.184ZM128.085 162.033C127.985 160.891 128.626 159.998 129.742 159.9C130.482 159.836 131.119 160.094 131.613 160.652L131.799 162.781C131.41 163.416 130.827 163.781 130.087 163.846C128.971 163.943 128.185 163.175 128.085 162.033ZM141.558 163.078L140.295 162.247C139.985 162.744 139.39 163.11 138.676 163.173C137.651 163.263 136.855 162.835 136.592 161.629L141.174 161.228C141.206 161.003 141.229 160.661 141.197 160.298C141.047 158.584 139.745 157.456 137.928 157.615C135.787 157.802 134.706 159.505 134.876 161.439C135.043 163.347 136.495 164.855 138.818 164.651C140.051 164.543 141.019 163.949 141.558 163.078ZM138.007 158.968C138.929 158.887 139.467 159.507 139.551 160.167L136.54 160.43C136.647 159.558 137.164 159.042 138.007 158.968ZM142.402 163.122C143.09 163.807 143.961 164.201 145.129 164.099C146.362 163.991 147.399 163.142 147.305 161.764C147.108 159.506 144.014 160.169 143.916 159.053C143.887 158.715 144.108 158.408 144.627 158.363C145.134 158.318 145.591 158.618 145.965 159.004L146.971 157.948C146.448 157.353 145.498 156.953 144.499 157.04C143.136 157.159 142.239 158.114 142.34 159.269C142.541 161.566 145.631 160.864 145.731 162.006C145.765 162.396 145.52 162.731 144.987 162.778C144.365 162.832 143.853 162.511 143.406 162.04L142.402 163.122ZM154.345 163.227C155.111 163.16 155.861 162.768 156.232 162.225L156.288 162.861L157.936 162.717L157.566 158.486C157.44 157.046 156.368 156.002 154.473 156.167C153.279 156.272 152.362 156.849 151.848 157.705L153.136 158.521C153.444 158.01 153.911 157.668 154.547 157.613C155.3 157.547 155.858 157.943 155.918 158.63L155.933 158.799L153.964 159.311C152.582 159.668 151.881 160.474 151.968 161.461C152.073 162.668 153.035 163.342 154.345 163.227ZM153.596 161.24C153.561 160.837 153.821 160.527 154.499 160.35L156.034 159.954L156.114 160.876C155.835 161.423 155.321 161.821 154.568 161.887C154.01 161.936 153.635 161.681 153.596 161.24ZM159.824 162.552L161.472 162.408L161.105 158.216C161.316 157.779 161.796 157.292 162.601 157.222C162.899 157.196 163.123 157.215 163.335 157.249L163.193 155.627C163.033 155.589 162.835 155.567 162.614 155.586C161.875 155.651 161.346 156.037 160.957 156.516L160.9 155.867L159.252 156.011L159.824 162.552ZM165.733 159.629C165.873 161.225 166.732 162.078 168.368 161.935C168.913 161.888 169.296 161.789 169.608 161.617L169.482 160.177C169.27 160.287 168.976 160.365 168.522 160.405C167.873 160.462 167.458 160.21 167.395 159.483L167.161 156.81L169.159 156.635L169.03 155.155L167.031 155.33L166.888 153.695L165.227 153.84L165.37 155.476L164.15 155.582L164.28 157.062L165.5 156.955L165.733 159.629ZM171.237 153.812C171.821 153.76 172.258 153.225 172.207 152.641C172.156 152.057 171.632 151.606 171.048 151.657C170.464 151.708 170.014 152.245 170.065 152.829C170.116 153.413 170.653 153.863 171.237 153.812ZM171.078 161.567L172.727 161.423L172.154 154.882L170.506 155.026L171.078 161.567ZM173.96 160.361C174.648 161.046 175.52 161.44 176.688 161.338C177.921 161.23 178.958 160.381 178.864 159.003C178.666 156.745 175.572 157.408 175.475 156.292C175.445 155.954 175.667 155.647 176.186 155.602C176.692 155.557 177.15 155.857 177.524 156.243L178.53 155.187C178.007 154.592 177.056 154.192 176.057 154.279C174.694 154.398 173.797 155.353 173.898 156.508C174.099 158.805 177.189 158.103 177.289 159.245C177.323 159.635 177.078 159.97 176.546 160.017C175.923 160.071 175.411 159.75 174.964 159.279L173.96 160.361ZM182.355 160.777C183.121 160.71 183.871 160.317 184.242 159.775L184.298 160.411L185.946 160.267L185.576 156.036C185.45 154.595 184.378 153.551 182.483 153.717C181.289 153.821 180.372 154.399 179.858 155.254L181.146 156.07C181.454 155.559 181.921 155.218 182.557 155.162C183.31 155.096 183.867 155.492 183.928 156.18L183.942 156.349L181.973 156.861C180.592 157.217 179.891 158.024 179.977 159.01C180.083 160.217 181.044 160.892 182.355 160.777ZM181.606 158.789C181.571 158.387 181.831 158.076 182.509 157.899L184.043 157.504L184.124 158.425C183.845 158.973 183.331 159.371 182.578 159.437C182.02 159.485 181.644 159.231 181.606 158.789ZM187.833 160.101L189.482 159.957L189.108 155.687C189.318 155.251 189.711 154.654 190.541 154.581C191.346 154.511 191.887 155.013 191.963 155.882L192.298 159.711L193.959 159.566L193.619 155.672C193.449 153.738 192.235 152.864 190.82 152.987C189.951 153.064 189.37 153.454 188.955 153.935L188.909 153.416L187.261 153.56L187.833 160.101ZM195.177 158.504C195.865 159.19 196.736 159.584 197.904 159.482C199.137 159.374 200.174 158.525 200.08 157.147C199.882 154.889 196.789 155.552 196.691 154.436C196.661 154.098 196.883 153.791 197.402 153.746C197.908 153.701 198.366 154.001 198.74 154.387L199.746 153.331C199.223 152.736 198.273 152.335 197.273 152.423C195.911 152.542 195.013 153.497 195.114 154.652C195.315 156.949 198.406 156.247 198.506 157.389C198.54 157.779 198.294 158.114 197.762 158.16C197.139 158.215 196.627 157.894 196.181 157.423L195.177 158.504ZM204.507 155.347C204.674 157.255 206.075 158.767 208.138 158.587C209.021 158.509 209.633 158.181 210.095 157.631L210.14 158.15L211.801 158.005L210.95 148.271L209.289 148.416L209.613 152.128C209.063 151.666 208.403 151.449 207.521 151.526C205.457 151.707 204.34 153.439 204.507 155.347ZM206.233 155.196C206.133 154.054 206.774 153.161 207.89 153.063C208.63 152.999 209.267 153.257 209.761 153.815L209.947 155.944C209.558 156.579 208.975 156.944 208.236 157.009C207.119 157.106 206.333 156.338 206.233 155.196ZM217.839 154.625C217.921 155.573 217.479 156.2 216.584 156.278C215.675 156.358 215.131 155.817 215.048 154.87L214.723 151.158L213.062 151.303L213.38 154.937C213.552 156.897 214.786 158.005 216.707 157.837C218.628 157.669 219.664 156.362 219.493 154.402L219.175 150.768L217.514 150.914L217.839 154.625ZM231.792 152.96C231.625 151.052 230.237 149.539 228.161 149.721C227.265 149.799 226.654 150.14 226.192 150.691L225.867 146.966L224.218 147.11L225.07 156.844L226.718 156.699L226.672 156.167C227.222 156.629 227.883 156.859 228.778 156.781C230.855 156.599 231.959 154.868 231.792 152.96ZM228.063 151.298C229.18 151.201 229.979 151.968 230.079 153.11C230.179 154.252 229.525 155.146 228.409 155.244C227.669 155.309 227.017 155.039 226.523 154.467L226.341 152.391C226.691 151.759 227.298 151.365 228.063 151.298ZM236.107 149.025C233.978 149.212 232.662 150.909 232.834 152.869C233.005 154.829 234.596 156.272 236.724 156.086C238.853 155.899 240.169 154.202 239.998 152.242C239.826 150.282 238.235 148.839 236.107 149.025ZM236.614 154.526C235.524 154.621 234.647 153.861 234.547 152.719C234.447 151.577 235.179 150.676 236.269 150.581C237.32 150.489 238.184 151.25 238.284 152.392C238.383 153.521 237.665 154.434 236.614 154.526ZM241.945 147.625C242.529 147.574 242.966 147.039 242.915 146.455C242.864 145.871 242.341 145.42 241.757 145.471C241.173 145.522 240.723 146.058 240.774 146.642C240.825 147.226 241.361 147.676 241.945 147.625ZM241.787 155.381L243.435 155.237L242.863 148.696L241.215 148.84L241.787 155.381ZM244.669 154.174C245.357 154.86 246.228 155.254 247.396 155.152C248.629 155.044 249.667 154.195 249.572 152.817C249.375 150.559 246.281 151.222 246.183 150.105C246.154 149.768 246.375 149.461 246.894 149.416C247.401 149.371 247.858 149.671 248.232 150.057L249.238 149.001C248.715 148.406 247.765 148.005 246.766 148.093C245.403 148.212 244.506 149.167 244.607 150.322C244.808 152.619 247.898 151.917 247.998 153.059C248.032 153.449 247.787 153.784 247.255 153.83C246.632 153.885 246.12 153.564 245.673 153.093L244.669 154.174Z" fill="#161616"/>
<g clip-path="url(#clip2_4866_12579)">
<path d="M93.6693 188.188C93.3664 188.214 93.1013 188.132 92.874 187.941C92.6466 187.751 92.5196 187.504 92.4931 187.201C92.4666 186.898 92.5488 186.633 92.7396 186.406C92.9304 186.178 93.1772 186.051 93.48 186.025C93.7829 185.998 94.048 186.08 94.2754 186.271C94.5027 186.462 94.6297 186.709 94.6562 187.012C94.6827 187.315 94.6005 187.58 94.4097 187.807C94.2189 188.034 93.9721 188.161 93.6693 188.188ZM92.147 190.719C91.9091 190.739 91.6979 190.673 91.5135 190.518C91.3294 190.363 91.2269 190.167 91.2061 189.929L90.6762 183.873C90.6554 183.635 90.7222 183.424 90.8767 183.239C91.0315 183.055 91.2278 182.952 91.4657 182.932L91.8983 182.894L91.8605 182.461C91.8498 182.339 91.8822 182.232 91.9577 182.142C92.0335 182.052 92.1327 182.001 92.2553 181.991C92.3778 181.98 92.4843 182.012 92.5746 182.088C92.6646 182.164 92.715 182.263 92.7257 182.385L92.7636 182.818L96.2244 182.515L96.1866 182.083C96.1759 181.96 96.2084 181.854 96.2842 181.763C96.3597 181.673 96.4588 181.623 96.5813 181.612C96.7039 181.601 96.8102 181.634 96.9002 181.709C96.9905 181.785 97.0411 181.884 97.0518 182.007L97.0896 182.44L97.5223 182.402C97.7602 182.381 97.9714 182.448 98.1558 182.603C98.3399 182.757 98.4423 182.953 98.4632 183.191L98.993 189.248C99.0139 189.486 98.947 189.697 98.7926 189.881C98.6378 190.065 98.4415 190.168 98.2035 190.189L92.147 190.719ZM92.0713 189.853L98.1278 189.323L97.7493 184.997L91.6928 185.527L92.0713 189.853Z" fill="#161616"/>
</g>
<path d="M103.514 189.381L107.829 189.003L107.75 188.104L104.643 188.376L106.162 186.586C106.808 185.806 107.314 185.103 107.238 184.24C107.146 183.177 106.221 182.553 105.14 182.647C104.095 182.739 103.395 183.313 102.94 184.185L103.802 184.614C104.104 183.992 104.482 183.602 105.127 183.546C105.709 183.495 106.175 183.802 106.228 184.41C106.281 185.01 105.985 185.393 105.406 186.103L103.435 188.481L103.514 189.381ZM110.533 182.175C108.907 182.318 108.244 183.85 108.41 185.748C108.577 187.647 109.495 189.04 111.121 188.898C112.747 188.756 113.401 187.225 113.235 185.326C113.068 183.428 112.159 182.033 110.533 182.175ZM110.614 183.102C111.532 183.022 112.083 183.99 112.208 185.416C112.332 186.833 111.958 187.891 111.04 187.972C110.113 188.053 109.562 187.085 109.437 185.658C109.313 184.241 109.687 183.183 110.614 183.102ZM114.102 190.258L115.047 190.175L116.429 181.385L115.484 181.468L114.102 190.258ZM119.307 181.408C117.681 181.55 117.019 183.082 117.185 184.981C117.351 186.879 118.269 188.273 119.895 188.131C121.522 187.988 122.175 186.457 122.009 184.559C121.843 182.66 120.933 181.266 119.307 181.408ZM119.388 182.334C120.306 182.254 120.857 183.222 120.982 184.648C121.106 186.066 120.732 187.124 119.814 187.204C118.888 187.285 118.336 186.317 118.211 184.891C118.087 183.474 118.462 182.416 119.388 182.334ZM124.592 187.527L125.582 187.441L125.026 181.081L124.054 181.167L122.111 182.499L122.681 183.163L124.125 182.186L124.592 187.527ZM127.001 189.129L127.946 189.047L129.329 180.256L128.384 180.339L127.001 189.129ZM130.635 187.008L134.95 186.63L134.872 185.731L131.765 186.003L133.283 184.213C133.929 183.433 134.435 182.73 134.36 181.867C134.267 180.804 133.342 180.18 132.261 180.275C131.217 180.366 130.516 180.94 130.062 181.813L130.923 182.241C131.226 181.619 131.603 181.229 132.248 181.173C132.83 181.122 133.296 181.429 133.349 182.038C133.402 182.637 133.106 183.02 132.527 183.73L130.556 186.108L130.635 187.008ZM137.654 179.803C136.028 179.945 135.366 181.477 135.532 183.375C135.698 185.274 136.616 186.668 138.242 186.525C139.869 186.383 140.522 184.852 140.356 182.953C140.19 181.055 139.28 179.66 137.654 179.803ZM137.735 180.729C138.653 180.649 139.204 181.617 139.329 183.043C139.453 184.46 139.079 185.519 138.161 185.599C137.235 185.68 136.683 184.712 136.558 183.286C136.434 181.868 136.809 180.81 137.735 180.729ZM141.494 186.058L145.81 185.68L145.731 184.781L142.624 185.053L144.143 183.263C144.788 182.483 145.294 181.78 145.219 180.917C145.126 179.854 144.202 179.23 143.121 179.324C142.076 179.416 141.375 179.99 140.921 180.863L141.782 181.291C142.085 180.669 142.463 180.279 143.108 180.223C143.689 180.172 144.155 180.479 144.209 181.088C144.261 181.687 143.965 182.07 143.386 182.78L141.416 185.158L141.494 186.058ZM150.996 183.432C150.933 182.715 150.499 182.139 149.78 181.882C150.271 181.528 150.498 180.986 150.446 180.386C150.356 179.36 149.462 178.77 148.327 178.869C147.355 178.954 146.711 179.45 146.313 180.235L147.175 180.663C147.421 180.129 147.787 179.813 148.341 179.765C148.922 179.714 149.378 180.004 149.428 180.576C149.477 181.139 149.083 181.549 148.438 181.606L147.484 181.689L147.562 182.579L148.625 182.486C149.388 182.42 149.917 182.813 149.975 183.476C150.036 184.175 149.536 184.64 148.819 184.703C148.146 184.762 147.648 184.503 147.214 183.836L146.389 184.449C146.974 185.276 147.761 185.693 148.906 185.593C150.205 185.479 151.099 184.613 150.996 183.432Z" fill="#161616"/>
<path d="M96.6463 207.26C96.8842 207.24 97.0805 207.137 97.2353 206.953C97.3898 206.769 97.4566 206.557 97.4358 206.32C97.415 206.082 97.3125 205.885 97.1284 205.731C96.944 205.576 96.7328 205.509 96.4949 205.53C96.2569 205.551 96.0607 205.653 95.9062 205.837C95.7515 206.022 95.6845 206.233 95.7054 206.471C95.7262 206.709 95.8288 206.905 96.0132 207.06C96.1973 207.214 96.4083 207.281 96.6463 207.26ZM97.0106 211.424C96.9529 211.429 96.8942 211.424 96.8347 211.407C96.7751 211.39 96.7221 211.366 96.6757 211.334C95.5416 210.496 94.6802 209.701 94.0914 208.95C93.5025 208.199 93.1778 207.477 93.1173 206.785C93.0227 205.703 93.2952 204.811 93.935 204.108C94.5745 203.406 95.3521 203.015 96.2678 202.934C97.1835 202.854 98.0172 203.105 98.769 203.685C99.521 204.266 99.9444 205.097 100.039 206.179C100.1 206.871 99.9051 207.638 99.4557 208.481C99.0063 209.323 98.2959 210.255 97.3246 211.277C97.2845 211.317 97.2365 211.35 97.1808 211.377C97.125 211.403 97.0682 211.419 97.0106 211.424Z" fill="#646464"/>
<path d="M104.984 208.698L108.146 208.421L108.306 210.256L109.124 210.185L108.963 208.349L109.699 208.285L109.635 207.549L108.899 207.614L108.568 203.825L107.577 203.912L104.92 207.962L104.984 208.698ZM105.792 207.885L107.828 204.787L108.081 207.685L105.792 207.885ZM110.378 208.226L113.54 207.949L113.7 209.784L114.518 209.713L114.357 207.878L115.093 207.813L115.029 207.077L114.293 207.142L113.962 203.353L112.971 203.44L110.314 207.49L110.378 208.226ZM111.186 207.413L113.222 204.315L113.475 207.213L111.186 207.413ZM117.822 206.705L117.887 207.45L120.34 207.235L120.275 206.49L117.822 206.705ZM123.95 208.887L124.804 208.813L124.339 203.498L128.402 208.498L129.519 208.4L128.963 202.041L128.109 202.116L128.574 207.43L124.512 202.43L123.394 202.528L123.95 208.887ZM132.565 208.262C133.156 208.21 133.732 207.894 134.039 207.419L134.09 208L134.862 207.933L134.593 204.862C134.505 203.854 133.755 203.233 132.592 203.335C131.793 203.404 131.177 203.797 130.825 204.377L131.445 204.771C131.693 204.356 132.098 204.073 132.625 204.027C133.279 203.97 133.765 204.294 133.821 204.93L133.849 205.248L132.327 205.637C131.369 205.886 130.885 206.422 130.945 207.113C131.014 207.894 131.666 208.341 132.565 208.262ZM131.724 207.017C131.69 206.627 131.947 206.32 132.564 206.156L133.898 205.811L133.977 206.71C133.72 207.227 133.246 207.562 132.637 207.615C132.101 207.662 131.758 207.408 131.724 207.017ZM136.411 207.797L137.183 207.73L136.906 204.559C137.154 204.052 137.539 203.634 138.202 203.576C138.911 203.514 139.415 203.946 139.487 204.764L139.727 207.507L140.499 207.44L140.257 204.669C140.143 203.37 139.32 202.746 138.293 202.836C137.612 202.895 137.165 203.227 136.828 203.669L136.783 203.151L136.01 203.219L136.411 207.797ZM142.183 205.745C142.28 206.863 142.897 207.321 143.915 207.232C144.242 207.204 144.484 207.146 144.694 207.036L144.634 206.346C144.467 206.433 144.262 206.488 143.962 206.514C143.408 206.563 143.027 206.395 142.964 205.677L142.759 203.333L144.349 203.194L144.287 202.494L142.698 202.633L142.597 201.489L141.816 201.557L141.916 202.702L141.053 202.777L141.114 203.477L141.978 203.401L142.183 205.745ZM149.784 205.867L149.172 205.472C148.908 205.907 148.433 206.224 147.842 206.275C146.861 206.361 146.103 205.759 145.98 204.662L149.496 204.355C149.512 204.225 149.524 204.05 149.508 203.868C149.41 202.742 148.525 201.941 147.28 202.049C145.863 202.173 145.067 203.332 145.189 204.722C145.306 206.058 146.359 207.11 147.903 206.975C148.757 206.9 149.407 206.477 149.784 205.867ZM147.319 202.705C148.128 202.634 148.64 203.157 148.726 203.827L145.983 204.067C146.077 203.262 146.565 202.771 147.319 202.705ZM150.477 205.935C150.941 206.416 151.538 206.657 152.265 206.593C153.119 206.519 153.754 205.923 153.688 205.068C153.551 203.506 151.282 204.034 151.192 203.007C151.161 202.653 151.399 202.339 151.889 202.296C152.289 202.261 152.653 202.449 152.929 202.773L153.425 202.272C153.068 201.854 152.478 201.595 151.824 201.652C150.943 201.729 150.386 202.373 150.448 203.091C150.59 204.708 152.847 204.144 152.937 205.17C152.972 205.57 152.708 205.905 152.2 205.949C151.736 205.99 151.335 205.796 150.982 205.424L150.477 205.935Z" fill="#161616"/>
</g>
<g filter="url(#filter2_d_4866_12579)">
<rect x="45.007" y="95.4848" width="223.427" height="105.699" rx="5.21032" transform="rotate(-5 45.007 95.4848)" fill="white" shape-rendering="crispEdges"/>
<rect x="56.2978" y="104.959" width="60.43" height="21.2136" rx="5.21032" transform="rotate(-5 56.2978 104.959)" fill="#CEF0F1"/>
<path d="M64.0327 118.945L67.5757 118.635L67.4987 117.754L64.9913 117.974L64.8235 116.057L66.9676 115.869L66.8905 114.988L64.7465 115.175L64.5891 113.377L67.0965 113.157L67.0194 112.276L63.4763 112.586L64.0327 118.945ZM67.7721 114.005L69.8988 118.432L71.1434 118.323L72.478 113.593L71.4606 113.682L70.4367 117.36L68.7805 113.916L67.7721 114.005ZM74.6972 112.666L75.6057 112.587L74.5289 111.161L73.4933 111.252L74.6972 112.666ZM77.7308 116.996L77.0018 116.511C76.7535 116.917 76.3116 117.203 75.7575 117.251C74.8763 117.328 74.2223 116.864 74.0712 115.87L77.4508 115.574C77.4752 115.435 77.4842 115.224 77.4659 115.015C77.3642 113.852 76.471 113.06 75.2082 113.171C73.7547 113.298 72.9787 114.474 73.0987 115.845C73.2156 117.181 74.2506 118.235 75.8314 118.096C76.6854 118.022 77.3539 117.606 77.7308 116.996ZM75.2584 113.954C75.9943 113.889 76.4492 114.38 76.5174 114.951L74.0555 115.167C74.1388 114.445 74.5771 114.013 75.2584 113.954ZM78.9323 117.642L79.868 117.56L79.5978 114.471C79.799 114.051 80.1373 113.628 80.7642 113.573C81.4183 113.516 81.8561 113.917 81.9197 114.643L82.1574 117.36L83.1022 117.277L82.8614 114.524C82.7453 113.198 81.9135 112.584 80.9051 112.672C80.251 112.73 79.8198 113.033 79.5064 113.426L79.4674 112.981L78.5317 113.063L78.9323 117.642ZM88.6254 116.043L87.8964 115.558C87.6481 115.964 87.2063 116.25 86.6521 116.298C85.7709 116.375 85.1169 115.911 84.9659 114.917L88.3454 114.621C88.3698 114.482 88.3788 114.271 88.3605 114.062C88.2588 112.899 87.3657 112.107 86.1029 112.218C84.6493 112.345 83.8733 113.52 83.9934 114.892C84.1102 116.228 85.1453 117.281 86.726 117.143C87.58 117.068 88.2485 116.653 88.6254 116.043ZM86.1531 113.001C86.8889 112.936 87.3438 113.427 87.4121 113.998L84.9501 114.213C85.0335 113.492 85.4717 113.06 86.1531 113.001ZM89.8269 116.689L90.7626 116.607L90.4924 113.518C90.6763 113.108 90.9865 112.678 91.5679 112.628C92.1675 112.575 92.5659 112.943 92.6247 113.615L92.8703 116.422L93.8151 116.34L93.5664 113.496C93.5584 113.405 93.5513 113.324 93.535 113.243C93.7422 112.785 94.0663 112.409 94.6113 112.361C95.2019 112.31 95.6093 112.677 95.6681 113.349L95.9137 116.156L96.8585 116.074L96.6098 113.23C96.4993 111.967 95.7062 111.378 94.7523 111.461C93.9619 111.53 93.5403 111.942 93.2257 112.428C92.8873 111.908 92.3357 111.672 91.7089 111.727C91.1002 111.78 90.6955 112.072 90.3994 112.455L90.3621 112.028L89.4263 112.11L89.8269 116.689ZM102.377 114.84L101.648 114.355C101.4 114.761 100.958 115.047 100.403 115.095C99.5223 115.172 98.8683 114.708 98.7172 113.714L102.097 113.418C102.121 113.279 102.13 113.067 102.112 112.858C102.01 111.696 101.117 110.904 99.8542 111.015C98.4007 111.142 97.6247 112.317 97.7447 113.689C97.8616 115.025 98.8966 116.078 100.477 115.94C101.331 115.865 102 115.45 102.377 114.84ZM99.9044 111.797C100.64 111.733 101.095 112.224 101.163 112.795L98.7015 113.01C98.7848 112.289 99.2231 111.857 99.9044 111.797ZM103.578 115.486L104.514 115.404L104.244 112.315C104.445 111.895 104.783 111.471 105.41 111.416C106.064 111.359 106.502 111.76 106.566 112.487L106.803 115.203L107.748 115.121L107.507 112.368C107.391 111.042 106.56 110.428 105.551 110.516C104.897 110.573 104.466 110.877 104.152 111.27L104.113 110.825L103.178 110.907L103.578 115.486ZM109.336 113.38C109.434 114.497 110.047 115.011 111.119 114.917C111.473 114.886 111.723 114.819 111.934 114.709L111.861 113.882C111.703 113.96 111.498 114.015 111.189 114.042C110.68 114.086 110.335 113.915 110.281 113.297L110.094 111.153L111.611 111.02L111.537 110.176L110.02 110.308L109.92 109.164L108.975 109.246L109.075 110.391L108.212 110.466L108.286 111.311L109.149 111.236L109.336 113.38Z" fill="#161616"/>
<rect x="56.2978" y="104.959" width="60.43" height="21.2136" rx="5.21032" transform="rotate(-5 56.2978 104.959)" stroke="#161616"/>
<path d="M60.4574 146.524C61.346 147.414 62.4201 147.882 63.9516 147.748C65.6258 147.601 66.8598 146.46 66.7359 144.745C66.4634 141.63 62.3772 142.458 62.233 140.81C62.1853 140.265 62.5773 139.812 63.2262 139.756C63.914 139.695 64.5508 140.097 65.1431 140.739L66.3861 139.401C65.5267 138.547 64.4351 138.028 63.0724 138.147C61.3333 138.3 60.2438 139.598 60.3698 141.039C60.6389 144.114 64.7263 143.299 64.8727 144.973C64.9295 145.622 64.5223 146.05 63.7955 146.114C63.0558 146.179 62.2927 145.827 61.6863 145.174L60.4574 146.524ZM70.309 147.126C71.0747 147.059 71.825 146.667 72.196 146.124L72.2517 146.76L73.8999 146.616L73.5298 142.385C73.4037 140.945 72.3316 139.901 70.4367 140.066C69.2427 140.171 68.3255 140.748 67.8119 141.604L69.0995 142.42C69.4079 141.909 69.8749 141.567 70.5109 141.511C71.2636 141.446 71.8213 141.841 71.8815 142.529L71.8963 142.698L69.9272 143.21C68.5459 143.567 67.8449 144.373 67.9312 145.36C68.0368 146.567 68.9982 147.241 70.309 147.126ZM69.5597 145.139C69.5245 144.736 69.785 144.426 70.4627 144.249L71.9973 143.853L72.078 144.775C71.7989 145.322 71.2845 145.72 70.5317 145.786C69.9737 145.835 69.5983 145.58 69.5597 145.139ZM75.7873 146.451L77.4356 146.307L76.584 136.573L74.9357 136.717L75.7873 146.451ZM81.9319 139.061C79.8035 139.247 78.4873 140.944 78.6588 142.904C78.8302 144.864 80.4212 146.307 82.5496 146.121C84.678 145.935 85.9942 144.237 85.8228 142.277C85.6513 140.318 84.0604 138.874 81.9319 139.061ZM82.4393 144.561C81.3491 144.657 80.4718 143.896 80.3719 142.754C80.272 141.612 81.004 140.711 82.0941 140.616C83.1454 140.524 84.0097 141.285 84.1096 142.427C84.2084 143.556 83.4906 144.469 82.4393 144.561ZM87.6122 145.416L89.2605 145.272L88.8869 141.002C89.0972 140.565 89.4896 139.969 90.3202 139.896C91.1249 139.826 91.6657 140.328 91.7418 141.197L92.0768 145.026L93.738 144.88L93.3973 140.987C93.2282 139.053 92.0139 138.179 90.5993 138.302C89.7297 138.378 89.1493 138.769 88.7336 139.25L88.6882 138.731L87.04 138.875L87.6122 145.416ZM98.3543 141.181C98.5212 143.089 99.922 144.601 101.986 144.42C102.868 144.343 103.48 144.015 103.942 143.465L103.987 143.984L105.649 143.838L104.797 134.105L103.136 134.25L103.461 137.962C102.91 137.5 102.25 137.283 101.368 137.36C99.3043 137.541 98.1874 139.273 98.3543 141.181ZM100.08 141.03C99.9805 139.888 100.622 138.995 101.738 138.897C102.477 138.832 103.115 139.091 103.608 139.649L103.794 141.777C103.405 142.413 102.823 142.778 102.083 142.843C100.967 142.94 100.18 142.172 100.08 141.03ZM113.553 142.074L112.291 141.243C111.981 141.741 111.385 142.107 110.672 142.17C109.646 142.259 108.85 141.832 108.588 140.626L113.169 140.225C113.202 140 113.224 139.658 113.192 139.294C113.043 137.581 111.741 136.453 109.924 136.612C107.782 136.799 106.702 138.502 106.871 140.436C107.038 142.344 108.491 143.851 110.814 143.648C112.047 143.54 113.015 142.945 113.553 142.074ZM110.003 137.965C110.924 137.884 111.462 138.504 111.546 139.164L108.535 139.427C108.642 138.555 109.159 138.039 110.003 137.965ZM114.398 142.118C115.085 142.804 115.957 143.198 117.125 143.096C118.358 142.988 119.395 142.139 119.301 140.761C119.103 138.503 116.009 139.166 115.912 138.049C115.882 137.712 116.104 137.405 116.623 137.359C117.129 137.315 117.587 137.615 117.961 138.001L118.967 136.945C118.444 136.35 117.494 135.949 116.494 136.037C115.132 136.156 114.234 137.111 114.335 138.266C114.536 140.563 117.627 139.861 117.726 141.003C117.761 141.392 117.515 141.728 116.983 141.774C116.36 141.829 115.848 141.507 115.402 141.037L114.398 142.118ZM126.341 142.224C127.107 142.157 127.857 141.765 128.228 141.222L128.284 141.858L129.932 141.714L129.562 137.483C129.436 136.042 128.364 134.998 126.469 135.164C125.275 135.269 124.358 135.846 123.844 136.702L125.132 137.517C125.44 137.007 125.907 136.665 126.543 136.609C127.296 136.543 127.853 136.939 127.914 137.627L127.928 137.796L125.959 138.308C124.578 138.664 123.877 139.471 123.963 140.457C124.069 141.664 125.03 142.339 126.341 142.224ZM125.592 140.237C125.557 139.834 125.817 139.524 126.495 139.347L128.029 138.951L128.11 139.872C127.831 140.42 127.317 140.818 126.564 140.884C126.006 140.933 125.63 140.678 125.592 140.237ZM131.819 141.549L133.468 141.405L133.101 137.213C133.311 136.776 133.792 136.289 134.596 136.219C134.895 136.192 135.119 136.212 135.331 136.246L135.189 134.624C135.029 134.585 134.831 134.563 134.61 134.583C133.87 134.647 133.342 135.034 132.952 135.512L132.895 134.863L131.247 135.008L131.819 141.549ZM137.729 138.625C137.869 140.222 138.728 141.075 140.363 140.932C140.908 140.884 141.292 140.785 141.604 140.614L141.478 139.174C141.265 139.284 140.971 139.362 140.517 139.402C139.868 139.458 139.454 139.207 139.39 138.48L139.156 135.807L141.155 135.632L141.026 134.152L139.027 134.327L138.884 132.692L137.223 132.837L137.366 134.472L136.146 134.579L136.275 136.059L137.495 135.952L137.729 138.625ZM143.232 132.808C143.816 132.757 144.253 132.222 144.202 131.638C144.151 131.054 143.628 130.603 143.044 130.654C142.46 130.705 142.01 131.241 142.061 131.825C142.112 132.409 142.648 132.859 143.232 132.808ZM143.074 140.564L144.722 140.42L144.15 133.879L142.502 134.023L143.074 140.564ZM145.956 139.357C146.644 140.043 147.515 140.437 148.683 140.335C149.916 140.227 150.954 139.378 150.859 138C150.662 135.742 147.568 136.405 147.47 135.288C147.441 134.951 147.662 134.644 148.181 134.598C148.688 134.554 149.145 134.854 149.519 135.24L150.525 134.184C150.002 133.589 149.052 133.188 148.053 133.276C146.69 133.395 145.793 134.35 145.894 135.505C146.095 137.802 149.185 137.1 149.285 138.242C149.319 138.631 149.074 138.967 148.542 139.013C147.919 139.068 147.407 138.746 146.96 138.276L145.956 139.357ZM154.351 139.774C155.116 139.707 155.867 139.314 156.238 138.772L156.293 139.408L157.942 139.263L157.572 135.032C157.445 133.592 156.373 132.548 154.479 132.714C153.285 132.818 152.367 133.395 151.854 134.251L153.141 135.067C153.45 134.556 153.917 134.214 154.553 134.159C155.305 134.093 155.863 134.489 155.923 135.177L155.938 135.345L153.969 135.858C152.588 136.214 151.887 137.021 151.973 138.007C152.079 139.214 153.04 139.888 154.351 139.774ZM153.601 137.786C153.566 137.384 153.827 137.073 154.504 136.896L156.039 136.5L156.12 137.422C155.841 137.969 155.326 138.367 154.574 138.433C154.015 138.482 153.64 138.227 153.601 137.786ZM159.829 139.098L161.477 138.954L161.104 134.684C161.314 134.247 161.706 133.651 162.537 133.578C163.342 133.508 163.883 134.009 163.959 134.879L164.294 138.708L165.955 138.562L165.614 134.669C165.445 132.735 164.231 131.86 162.816 131.984C161.947 132.06 161.366 132.451 160.951 132.932L160.905 132.413L159.257 132.557L159.829 139.098ZM167.173 137.501C167.86 138.186 168.732 138.581 169.9 138.479C171.133 138.371 172.17 137.522 172.076 136.144C171.878 133.885 168.784 134.548 168.687 133.432C168.657 133.095 168.879 132.788 169.398 132.742C169.904 132.698 170.362 132.998 170.736 133.384L171.742 132.328C171.219 131.733 170.268 131.332 169.269 131.42C167.906 131.539 167.009 132.494 167.11 133.649C167.311 135.946 170.401 135.244 170.501 136.386C170.535 136.775 170.29 137.111 169.758 137.157C169.135 137.212 168.623 136.89 168.176 136.419L167.173 137.501ZM176.503 134.344C176.67 136.252 178.07 137.764 180.134 137.583C181.016 137.506 181.629 137.178 182.09 136.627L182.136 137.147L183.797 137.001L182.945 127.268L181.284 127.413L181.609 131.125C181.059 130.663 180.399 130.446 179.516 130.523C177.453 130.704 176.336 132.436 176.503 134.344ZM178.229 134.193C178.129 133.051 178.77 132.158 179.886 132.06C180.626 131.995 181.263 132.253 181.757 132.812L181.943 134.94C181.554 135.576 180.971 135.941 180.231 136.005C179.115 136.103 178.329 135.335 178.229 134.193ZM189.834 133.622C189.917 134.57 189.475 135.197 188.58 135.275C187.671 135.355 187.127 134.814 187.044 133.866L186.719 130.155L185.058 130.3L185.376 133.934C185.547 135.893 186.782 137.002 188.703 136.834C190.624 136.666 191.66 135.359 191.489 133.399L191.171 129.765L189.509 129.91L189.834 133.622ZM203.788 131.957C203.621 130.049 202.233 128.536 200.156 128.717C199.261 128.796 198.65 129.137 198.188 129.687L197.862 125.963L196.214 126.107L197.066 135.84L198.714 135.696L198.667 135.164C199.218 135.626 199.879 135.856 200.774 135.778C202.851 135.596 203.955 133.865 203.788 131.957ZM200.059 130.295C201.175 130.198 201.975 130.965 202.075 132.107C202.174 133.249 201.52 134.143 200.404 134.241C199.664 134.305 199.013 134.035 198.518 133.464L198.337 131.387C198.687 130.755 199.293 130.362 200.059 130.295ZM208.102 128.022C205.974 128.208 204.658 129.906 204.829 131.866C205.001 133.825 206.592 135.269 208.72 135.082C210.848 134.896 212.165 133.199 211.993 131.239C211.822 129.279 210.231 127.836 208.102 128.022ZM208.61 133.523C207.52 133.618 206.642 132.858 206.542 131.716C206.442 130.574 207.174 129.673 208.265 129.577C209.316 129.485 210.18 130.247 210.28 131.389C210.379 132.518 209.661 133.431 208.61 133.523ZM213.941 126.622C214.525 126.571 214.962 126.036 214.911 125.452C214.86 124.868 214.337 124.417 213.753 124.468C213.169 124.519 212.719 125.055 212.77 125.639C212.821 126.223 213.357 126.673 213.941 126.622ZM213.783 134.378L215.431 134.234L214.859 127.693L213.21 127.837L213.783 134.378ZM216.665 133.171C217.352 133.856 218.224 134.251 219.392 134.149C220.625 134.041 221.662 133.192 221.568 131.814C221.37 129.555 218.277 130.218 218.179 129.102C218.149 128.765 218.371 128.458 218.89 128.412C219.396 128.368 219.854 128.668 220.228 129.054L221.234 127.998C220.711 127.403 219.761 127.002 218.761 127.09C217.399 127.209 216.501 128.164 216.602 129.319C216.803 131.616 219.894 130.914 219.994 132.056C220.028 132.445 219.782 132.781 219.25 132.827C218.627 132.882 218.115 132.56 217.669 132.089L216.665 133.171Z" fill="#161616"/>
<g clip-path="url(#clip3_4866_12579)">
<path d="M65.6649 167.185C65.3621 167.211 65.097 167.129 64.8696 166.938C64.6422 166.747 64.5153 166.5 64.4888 166.198C64.4623 165.895 64.5444 165.63 64.7352 165.402C64.926 165.175 65.1729 165.048 65.4757 165.022C65.7785 164.995 66.0436 165.077 66.271 165.268C66.4984 165.459 66.6253 165.706 66.6518 166.008C66.6783 166.311 66.5962 166.576 66.4054 166.804C66.2146 167.031 65.9677 167.158 65.6649 167.185ZM64.1426 169.715C63.9047 169.736 63.6936 169.669 63.5092 169.515C63.325 169.36 63.2226 169.164 63.2017 168.926L62.6719 162.869C62.651 162.631 62.7179 162.42 62.8724 162.236C63.0271 162.052 63.2234 161.949 63.4614 161.928L63.894 161.891L63.8561 161.458C63.8454 161.335 63.8778 161.229 63.9533 161.139C64.0291 161.049 64.1283 160.998 64.2509 160.987C64.3735 160.977 64.4799 161.009 64.5702 161.085C64.6603 161.16 64.7106 161.26 64.7214 161.382L64.7592 161.815L68.2201 161.512L68.1822 161.079C68.1715 160.957 68.204 160.85 68.2798 160.76C68.3554 160.67 68.4544 160.62 68.577 160.609C68.6996 160.598 68.8058 160.631 68.8959 160.706C68.9862 160.782 69.0367 160.881 69.0474 161.004L69.0853 161.436L69.5179 161.398C69.7558 161.378 69.967 161.445 70.1514 161.599C70.3355 161.754 70.438 161.95 70.4588 162.188L70.9887 168.245C71.0095 168.482 70.9427 168.694 70.7882 168.878C70.6335 169.062 70.4371 169.165 70.1992 169.185L64.1426 169.715ZM64.067 168.85L70.1235 168.32L69.745 163.994L63.6885 164.524L64.067 168.85Z" fill="#161616"/>
</g>
<path d="M75.5096 168.377L79.8248 168L79.7461 167.1L76.6391 167.372L78.1578 165.583C78.8036 164.803 79.3096 164.099 79.2341 163.236C79.1411 162.173 78.2169 161.549 77.1358 161.644C76.0911 161.735 75.3906 162.309 74.936 163.182L75.7974 163.61C76.1 162.989 76.4778 162.599 77.1228 162.542C77.7043 162.491 78.1705 162.798 78.2238 163.407C78.2763 164.007 77.9802 164.39 77.4015 165.099L75.4309 167.478L75.5096 168.377ZM82.5286 161.172C80.9024 161.314 80.24 162.846 80.4061 164.745C80.5723 166.644 81.4906 168.037 83.1168 167.895C84.7429 167.753 85.3963 166.222 85.2302 164.323C85.064 162.424 84.1548 161.03 82.5286 161.172ZM82.6097 162.099C83.5272 162.019 84.0788 162.986 84.2036 164.413C84.3276 165.83 83.9533 166.888 83.0357 166.968C82.1091 167.049 81.5575 166.082 81.4327 164.655C81.3087 163.238 81.683 162.18 82.6097 162.099ZM86.0974 169.254L87.0423 169.172L88.4245 160.382L87.4797 160.464L86.0974 169.254ZM91.3029 160.405C89.6767 160.547 89.0143 162.079 89.1804 163.977C89.3465 165.876 90.2649 167.27 91.891 167.127C93.5172 166.985 94.1705 165.454 94.0044 163.555C93.8383 161.657 92.929 160.262 91.3029 160.405ZM91.3839 161.331C92.3015 161.251 92.8531 162.219 92.9778 163.645C93.1018 165.062 92.7275 166.12 91.81 166.201C90.8833 166.282 90.3318 165.314 90.207 163.888C90.083 162.47 90.4573 161.412 91.3839 161.331ZM96.5875 166.524L97.5777 166.438L97.0214 160.078L96.0493 160.163L94.1062 161.496L94.6769 162.16L96.1201 161.182L96.5875 166.524ZM98.9971 168.126L99.9419 168.043L101.324 159.253L100.379 159.336L98.9971 168.126ZM102.631 166.005L106.946 165.627L106.867 164.728L103.76 165L105.279 163.21C105.925 162.43 106.431 161.727 106.355 160.864C106.262 159.801 105.338 159.177 104.257 159.271C103.212 159.363 102.512 159.937 102.057 160.809L102.919 161.238C103.221 160.616 103.599 160.226 104.244 160.169C104.826 160.119 105.292 160.426 105.345 161.034C105.398 161.634 105.101 162.017 104.523 162.727L102.552 165.105L102.631 166.005ZM109.65 158.799C108.024 158.942 107.361 160.473 107.527 162.372C107.694 164.271 108.612 165.664 110.238 165.522C111.864 165.38 112.518 163.849 112.351 161.95C112.185 160.051 111.276 158.657 109.65 158.799ZM109.731 159.726C110.648 159.646 111.2 160.614 111.325 162.04C111.449 163.457 111.075 164.515 110.157 164.596C109.23 164.677 108.679 163.709 108.554 162.282C108.43 160.865 108.804 159.807 109.731 159.726ZM113.49 165.055L117.805 164.677L117.727 163.778L114.62 164.049L116.138 162.26C116.784 161.48 117.29 160.777 117.215 159.914C117.122 158.851 116.197 158.227 115.116 158.321C114.071 158.413 113.371 158.987 112.916 159.859L113.778 160.287C114.08 159.666 114.458 159.276 115.103 159.219C115.685 159.169 116.151 159.476 116.204 160.084C116.257 160.684 115.961 161.067 115.382 161.777L113.411 164.155L113.49 165.055ZM122.992 162.429C122.929 161.711 122.494 161.136 121.776 160.878C122.267 160.524 122.494 159.983 122.442 159.383C122.352 158.356 121.458 157.766 120.322 157.866C119.35 157.951 118.707 158.446 118.309 159.232L119.17 159.66C119.416 159.126 119.782 158.81 120.337 158.762C120.918 158.711 121.374 159 121.424 159.573C121.473 160.136 121.079 160.546 120.434 160.602L119.48 160.686L119.558 161.576L120.62 161.483C121.384 161.416 121.912 161.809 121.97 162.473C122.032 163.172 121.532 163.637 120.814 163.7C120.142 163.759 119.643 163.5 119.21 162.833L118.385 163.445C118.97 164.273 119.757 164.689 120.901 164.589C122.2 164.476 123.095 163.61 122.992 162.429Z" fill="#161616"/>
<path d="M68.6419 186.257C68.8798 186.236 69.0762 186.134 69.2309 185.949C69.3854 185.765 69.4522 185.554 69.4314 185.316C69.4106 185.078 69.3081 184.882 69.124 184.727C68.9396 184.573 68.7285 184.506 68.4905 184.527C68.2526 184.548 68.0564 184.65 67.9019 184.834C67.7471 185.019 67.6802 185.23 67.701 185.468C67.7218 185.706 67.8244 185.902 68.0088 186.056C68.1929 186.211 68.404 186.278 68.6419 186.257ZM69.0062 190.421C68.9485 190.426 68.8899 190.42 68.8303 190.404C68.7707 190.387 68.7178 190.363 68.6713 190.33C67.5373 189.492 66.6758 188.698 66.087 187.947C65.4982 187.195 65.1735 186.473 65.1129 185.781C65.0183 184.7 65.2909 183.808 65.9307 183.105C66.5701 182.403 67.3477 182.011 68.2634 181.931C69.1791 181.851 70.0128 182.101 70.7646 182.682C71.5167 183.263 71.94 184.094 72.0346 185.176C72.0952 185.868 71.9008 186.635 71.4514 187.477C71.0019 188.319 70.2916 189.252 69.3202 190.274C69.2801 190.314 69.2322 190.347 69.1764 190.373C69.1206 190.4 69.0639 190.416 69.0062 190.421Z" fill="#646464"/>
<path d="M78.5213 189.409L81.318 183.497L81.2536 182.762L76.8384 183.148L76.9028 183.884L80.4459 183.574L77.5765 189.491L78.5213 189.409ZM82.7188 186.002L84.4631 185.85C85.3534 185.772 85.9141 186.217 85.9785 186.953C86.0461 187.725 85.4961 188.24 84.6966 188.31C84.0062 188.37 83.4538 188.126 83.0012 187.451L82.3224 187.959C82.9051 188.76 83.6799 189.14 84.7701 189.045C86.042 188.934 86.9184 188.07 86.8119 186.852C86.7134 185.726 85.9332 184.97 84.4342 185.101L83.5167 185.182L83.4627 183.31L86.1791 183.072L86.1147 182.336L82.6171 182.642L82.7188 186.002ZM89.6933 185.712L89.7585 186.457L92.2114 186.243L92.1462 185.498L89.6933 185.712ZM95.8219 187.895L96.6759 187.82L96.4319 185.031L97.4403 184.943C98.7122 184.832 99.4421 184.072 99.3468 182.982C99.2514 181.892 98.3998 181.261 97.1279 181.373L95.2656 181.536L95.8219 187.895ZM97.2097 182.098C97.9365 182.034 98.4075 182.396 98.464 183.041C98.5236 183.722 98.1217 184.151 97.3949 184.215L96.3683 184.304L96.1831 182.188L97.2097 182.098ZM101.926 187.489C102.517 187.437 103.093 187.122 103.399 186.646L103.45 187.228L104.223 187.16L103.954 184.089C103.866 183.081 103.116 182.46 101.953 182.562C101.153 182.632 100.538 183.024 100.186 183.604L100.806 183.999C101.053 183.583 101.459 183.301 101.986 183.255C102.64 183.197 103.126 183.521 103.182 184.157L103.209 184.475L101.687 184.864C100.73 185.113 100.246 185.65 100.306 186.34C100.374 187.121 101.027 187.568 101.926 187.489ZM101.085 186.244C101.051 185.854 101.308 185.548 101.925 185.384L103.259 185.038L103.337 185.938C103.081 186.454 102.606 186.789 101.998 186.842C101.462 186.889 101.119 186.635 101.085 186.244ZM105.772 187.025L106.544 186.957L106.269 183.814C106.51 183.326 106.874 182.983 107.473 182.93C107.655 182.914 107.793 182.92 107.932 182.945L107.866 182.191C107.754 182.164 107.616 182.158 107.471 182.171C106.889 182.221 106.495 182.521 106.193 182.951L106.143 182.378L105.371 182.446L105.772 187.025ZM109.268 180.906C109.568 180.879 109.783 180.613 109.757 180.314C109.731 180.023 109.474 179.798 109.174 179.825C108.874 179.851 108.65 180.117 108.676 180.408C108.702 180.708 108.969 180.932 109.268 180.906ZM109.383 186.709L110.155 186.641L109.754 182.062L108.982 182.13L109.383 186.709ZM111.206 185.917C111.669 186.399 112.267 186.639 112.994 186.576C113.848 186.501 114.482 185.905 114.416 185.051C114.28 183.488 112.01 184.016 111.92 182.99C111.889 182.635 112.127 182.322 112.618 182.279C113.017 182.244 113.382 182.432 113.657 182.755L114.153 182.254C113.797 181.837 113.206 181.577 112.552 181.634C111.671 181.712 111.114 182.355 111.177 183.073C111.318 184.69 113.576 184.126 113.666 185.153C113.701 185.553 113.437 185.887 112.928 185.932C112.465 185.972 112.063 185.778 111.71 185.406L111.206 185.917Z" fill="#161616"/>
</g>
<g filter="url(#filter3_d_4866_12579)">
<rect x="17.0026" y="74.4816" width="223.427" height="105.699" rx="5.21032" transform="rotate(-5 17.0026 74.4816)" fill="white" shape-rendering="crispEdges"/>
<rect x="28.2935" y="83.9557" width="60.43" height="21.2136" rx="5.21032" transform="rotate(-5 28.2935 83.9557)" fill="#CEF0F1"/>
<path d="M36.0283 97.9422L39.5714 97.6322L39.4943 96.751L36.9869 96.9703L36.8192 95.0535L38.9632 94.8659L38.8861 93.9847L36.7421 94.1722L36.5847 92.3734L39.0921 92.1541L39.015 91.2729L35.472 91.5828L36.0283 97.9422ZM39.7678 93.0012L41.8945 97.429L43.1391 97.3201L44.4737 92.5895L43.4562 92.6785L42.4323 96.3566L40.7762 92.913L39.7678 93.0012ZM46.6929 91.663L47.6013 91.5835L46.5246 90.1581L45.4889 90.2487L46.6929 91.663ZM49.7264 95.9931L48.9974 95.5076C48.7492 95.9138 48.3073 96.1996 47.7531 96.2481C46.8719 96.3252 46.2179 95.8606 46.0669 94.8669L49.4464 94.5712C49.4708 94.4318 49.4798 94.2204 49.4615 94.0115C49.3598 92.8486 48.4667 92.0571 47.2039 92.1676C45.7503 92.2947 44.9743 93.4703 45.0944 94.8421C45.2112 96.1776 46.2463 97.2313 47.827 97.093C48.681 97.0183 49.3495 96.6028 49.7264 95.9931ZM47.2541 92.9505C47.9899 92.8861 48.4448 93.3772 48.5131 93.948L46.0511 94.1634C46.1345 93.442 46.5727 93.0101 47.2541 92.9505ZM50.9279 96.6386L51.8637 96.5568L51.5934 93.4679C51.7947 93.0475 52.133 92.6243 52.7598 92.5695C53.4139 92.5122 53.8518 92.9133 53.9154 93.6401L54.153 96.3565L55.0978 96.2738L54.857 93.5211C54.741 92.1947 53.9092 91.5809 52.9007 91.6692C52.2466 91.7264 51.8154 92.0296 51.502 92.4232L51.4631 91.978L50.5273 92.0599L50.9279 96.6386ZM60.6211 95.0399L59.892 94.5545C59.6438 94.9607 59.2019 95.2465 58.6478 95.295C57.7665 95.3721 57.1125 94.9075 56.9615 93.9137L60.3411 93.618C60.3655 93.4786 60.3744 93.2673 60.3562 93.0583C60.2544 91.8955 59.3613 91.1039 58.0985 91.2144C56.6449 91.3416 55.869 92.5172 55.989 93.889C56.1058 95.2244 57.1409 96.2781 58.7217 96.1398C59.5756 96.0651 60.2442 95.6496 60.6211 95.0399ZM58.1487 91.9973C58.8846 91.9329 59.3395 92.4241 59.4077 92.9948L56.9457 93.2102C57.0291 92.4889 57.4673 92.0569 58.1487 91.9973ZM61.8226 95.6855L62.7583 95.6036L62.4881 92.5148C62.6719 92.1051 62.9822 91.6751 63.5636 91.6243C64.1632 91.5718 64.5615 91.9397 64.6204 92.612L64.866 95.4192L65.8108 95.3365L65.562 92.493C65.5541 92.4022 65.5469 92.3204 65.5307 92.2394C65.7378 91.7819 66.0619 91.4057 66.607 91.358C67.1975 91.3063 67.6049 91.6735 67.6638 92.3457L67.9094 95.1529L68.8542 95.0703L68.6054 92.2267C68.4949 90.964 67.7018 90.3742 66.7479 90.4577C65.9576 90.5268 65.5359 90.9391 65.2213 91.4243C64.8829 90.9046 64.3314 90.6691 63.7045 90.724C63.0958 90.7772 62.6911 91.0689 62.3951 91.4519L62.3577 91.0249L61.422 91.1067L61.8226 95.6855ZM74.3724 93.8368L73.6434 93.3514C73.3952 93.7576 72.9533 94.0434 72.3991 94.0919C71.5179 94.169 70.8639 93.7044 70.7129 92.7106L74.0924 92.415C74.1168 92.2755 74.1258 92.0642 74.1075 91.8552C74.0058 90.6924 73.1127 89.9009 71.8499 90.0113C70.3963 90.1385 69.6203 91.3141 69.7404 92.6859C69.8572 94.0213 70.8923 95.0751 72.473 94.9368C73.327 94.862 73.9955 94.4465 74.3724 93.8368ZM71.9001 90.7942C72.6359 90.7298 73.0908 91.221 73.1591 91.7917L70.6971 92.0071C70.7805 91.2858 71.2187 90.8538 71.9001 90.7942ZM75.5739 94.4824L76.5097 94.4005L76.2394 91.3117C76.4407 90.8913 76.779 90.4681 77.4058 90.4132C78.0599 90.356 78.4978 90.7571 78.5614 91.4839L78.799 94.2002L79.7438 94.1176L79.503 91.3649C79.387 90.0385 78.5552 89.4247 77.5467 89.5129C76.8926 89.5701 76.4615 89.8733 76.148 90.2669L76.1091 89.8218L75.1733 89.9037L75.5739 94.4824ZM81.3321 92.3766C81.4299 93.494 82.0424 94.008 83.1144 93.9142C83.4687 93.8832 83.7191 93.8155 83.9292 93.7056L83.8569 92.8789C83.6989 92.9568 83.4932 93.0114 83.1843 93.0384C82.6755 93.083 82.331 92.9117 82.277 92.2939L82.0894 90.1499L83.6065 90.0172L83.5326 89.1723L82.0155 89.305L81.9153 88.1604L80.9705 88.243L81.0706 89.3877L80.2076 89.4632L80.2815 90.3081L81.1446 90.2326L81.3321 92.3766Z" fill="#161616"/>
<rect x="28.2935" y="83.9557" width="60.43" height="21.2136" rx="5.21032" transform="rotate(-5 28.2935 83.9557)" stroke="#161616"/>
<path d="M32.453 125.52C33.3417 126.41 34.4158 126.879 35.9472 126.745C37.6214 126.598 38.8555 125.457 38.7316 123.742C38.4591 120.627 34.3729 121.455 34.2287 119.807C34.181 119.262 34.5729 118.809 35.2218 118.752C35.9097 118.692 36.5464 119.094 37.1387 119.735L38.3817 118.397C37.5224 117.544 36.4308 117.025 35.0681 117.144C33.329 117.296 32.2394 118.595 32.3655 120.035C32.6346 123.111 36.7219 122.296 36.8684 123.97C36.9252 124.619 36.518 125.047 35.7912 125.111C35.0514 125.175 34.2883 124.824 33.6819 124.17L32.453 125.52ZM42.3046 126.123C43.0704 126.056 43.8207 125.664 44.1917 125.121L44.2473 125.757L45.8956 125.613L45.5254 121.382C45.3994 119.941 44.3272 118.897 42.4324 119.063C41.2384 119.168 40.3211 119.745 39.8075 120.6L41.0951 121.416C41.4035 120.905 41.8706 120.564 42.5065 120.508C43.2592 120.442 43.817 120.838 43.8772 121.526L43.8919 121.695L41.9228 122.207C40.5416 122.563 39.8406 123.37 39.9269 124.356C40.0325 125.563 40.9938 126.238 42.3046 126.123ZM41.5553 124.135C41.5201 123.733 41.7807 123.423 42.4583 123.246L43.993 122.85L44.0736 123.771C43.7946 124.319 43.2801 124.717 42.5274 124.783C41.9693 124.832 41.5939 124.577 41.5553 124.135ZM47.783 125.448L49.4312 125.303L48.5796 115.57L46.9314 115.714L47.783 125.448ZM53.9276 118.057C51.7991 118.244 50.483 119.941 50.6544 121.901C50.8259 123.861 52.4168 125.304 54.5453 125.118C56.6737 124.931 57.9899 123.234 57.8184 121.274C57.647 119.314 56.056 117.871 53.9276 118.057ZM54.435 123.558C53.3448 123.653 52.4675 122.893 52.3675 121.751C52.2676 120.609 52.9996 119.708 54.0898 119.613C55.141 119.521 56.0054 120.282 56.1053 121.424C56.2041 122.553 55.4862 123.466 54.435 123.558ZM59.6079 124.413L61.2561 124.269L60.8826 119.999C61.0928 119.562 61.4853 118.965 62.3159 118.893C63.1205 118.822 63.6614 119.324 63.7375 120.194L64.0724 124.022L65.7336 123.877L65.393 119.984C65.2238 118.05 64.0095 117.175 62.5949 117.299C61.7254 117.375 61.1449 117.766 60.7293 118.247L60.6839 117.728L59.0356 117.872L59.6079 124.413ZM70.3499 120.178C70.5168 122.086 71.9177 123.598 73.9812 123.417C74.8637 123.34 75.4758 123.012 75.9377 122.461L75.9831 122.98L77.6443 122.835L76.7927 113.101L75.1315 113.247L75.4562 116.959C74.9058 116.497 74.246 116.28 73.3635 116.357C71.3 116.537 70.183 118.27 70.3499 120.178ZM72.076 120.027C71.9761 118.885 72.6172 117.992 73.7334 117.894C74.4731 117.829 75.1104 118.087 75.6039 118.646L75.7901 120.774C75.401 121.41 74.8183 121.775 74.0786 121.839C72.9624 121.937 72.176 121.169 72.076 120.027ZM85.5491 121.071L84.2863 120.24C83.9767 120.738 83.381 121.104 82.6672 121.166C81.642 121.256 80.8461 120.829 80.5836 119.622L85.1649 119.222C85.1975 118.996 85.2199 118.654 85.1881 118.291C85.0382 116.578 83.7364 115.449 81.9194 115.608C79.778 115.796 78.6977 117.499 78.8669 119.433C79.0338 121.34 80.4865 122.848 82.8097 122.645C84.0426 122.537 85.0106 121.942 85.5491 121.071ZM81.9986 116.962C82.92 116.881 83.4581 117.501 83.542 118.16L80.531 118.424C80.6378 117.551 81.155 117.035 81.9986 116.962ZM86.3933 121.115C87.081 121.8 87.9525 122.195 89.1205 122.093C90.3535 121.985 91.3908 121.135 91.2964 119.758C91.0988 117.499 88.0051 118.162 87.9074 117.046C87.8779 116.709 88.0995 116.402 88.6187 116.356C89.1248 116.312 89.5826 116.612 89.9564 116.998L90.9625 115.942C90.4397 115.347 89.4892 114.946 88.4899 115.034C87.1272 115.153 86.2299 116.108 86.3309 117.263C86.5319 119.56 89.6222 118.858 89.7221 120C89.7562 120.389 89.5109 120.725 88.9788 120.771C88.3558 120.826 87.8438 120.504 87.3972 120.033L86.3933 121.115ZM98.3367 121.221C99.1024 121.154 99.8527 120.761 100.224 120.219L100.279 120.855L101.928 120.711L101.557 116.48C101.431 115.039 100.359 113.995 98.4645 114.161C97.2705 114.265 96.3532 114.843 95.8396 115.698L97.1272 116.514C97.4356 116.003 97.9027 115.662 98.5386 115.606C99.2913 115.54 99.8491 115.936 99.9092 116.624L99.924 116.793L97.9549 117.305C96.5737 117.661 95.8727 118.468 95.959 119.454C96.0646 120.661 97.0259 121.336 98.3367 121.221ZM97.5874 119.233C97.5522 118.831 97.8127 118.52 98.4904 118.343L100.025 117.948L100.106 118.869C99.8266 119.417 99.3122 119.815 98.5595 119.881C98.0014 119.929 97.626 119.675 97.5874 119.233ZM103.815 120.545L105.463 120.401L105.097 116.209C105.307 115.772 105.787 115.286 106.592 115.215C106.89 115.189 107.115 115.209 107.327 115.243L107.185 113.62C107.024 113.582 106.826 113.56 106.606 113.579C105.866 113.644 105.337 114.03 104.948 114.509L104.891 113.86L103.243 114.004L103.815 120.545ZM109.725 117.622C109.864 119.218 110.724 120.072 112.359 119.929C112.904 119.881 113.288 119.782 113.6 119.611L113.474 118.17C113.261 118.281 112.967 118.359 112.513 118.398C111.864 118.455 111.45 118.204 111.386 117.477L111.152 114.803L113.151 114.628L113.021 113.149L111.023 113.324L110.88 111.689L109.218 111.834L109.361 113.469L108.141 113.576L108.271 115.055L109.491 114.949L109.725 117.622ZM115.228 111.805C115.812 111.754 116.249 111.219 116.198 110.635C116.147 110.051 115.624 109.6 115.04 109.651C114.456 109.702 114.006 110.238 114.057 110.822C114.108 111.406 114.644 111.856 115.228 111.805ZM115.07 119.561L116.718 119.417L116.146 112.876L114.497 113.02L115.07 119.561ZM117.952 118.354C118.639 119.039 119.511 119.434 120.679 119.332C121.912 119.224 122.949 118.374 122.855 116.997C122.657 114.738 119.564 115.401 119.466 114.285C119.436 113.948 119.658 113.641 120.177 113.595C120.683 113.551 121.141 113.851 121.515 114.237L122.521 113.181C121.998 112.586 121.048 112.185 120.048 112.273C118.686 112.392 117.788 113.346 117.889 114.502C118.09 116.799 121.181 116.097 121.281 117.239C121.315 117.628 121.069 117.964 120.537 118.01C119.914 118.065 119.402 117.743 118.956 117.272L117.952 118.354ZM126.346 118.77C127.112 118.703 127.862 118.311 128.233 117.768L128.289 118.404L129.937 118.26L129.567 114.029C129.441 112.589 128.369 111.545 126.474 111.71C125.28 111.815 124.363 112.392 123.849 113.248L125.137 114.064C125.445 113.553 125.912 113.211 126.548 113.156C127.301 113.09 127.859 113.485 127.919 114.173L127.934 114.342L125.965 114.854C124.583 115.211 123.882 116.017 123.969 117.004C124.074 118.211 125.036 118.885 126.346 118.77ZM125.597 116.783C125.562 116.38 125.822 116.07 126.5 115.893L128.035 115.497L128.115 116.419C127.836 116.966 127.322 117.364 126.569 117.43C126.011 117.479 125.636 117.224 125.597 116.783ZM131.825 118.095L133.473 117.951L133.099 113.681C133.31 113.244 133.702 112.647 134.533 112.575C135.337 112.504 135.878 113.006 135.954 113.876L136.289 117.704L137.95 117.559L137.61 113.666C137.441 111.732 136.226 110.857 134.812 110.981C133.942 111.057 133.362 111.448 132.946 111.929L132.901 111.41L131.252 111.554L131.825 118.095ZM139.168 116.498C139.856 117.183 140.727 117.578 141.895 117.475C143.128 117.368 144.166 116.518 144.071 115.14C143.874 112.882 140.78 113.545 140.682 112.429C140.653 112.092 140.874 111.784 141.394 111.739C141.9 111.695 142.357 111.995 142.731 112.38L143.737 111.325C143.215 110.73 142.264 110.329 141.265 110.416C139.902 110.536 139.005 111.49 139.106 112.645C139.307 114.943 142.397 114.241 142.497 115.383C142.531 115.772 142.286 116.107 141.754 116.154C141.131 116.208 140.619 115.887 140.172 115.416L139.168 116.498ZM148.498 113.341C148.665 115.248 150.066 116.761 152.13 116.58C153.012 116.503 153.624 116.175 154.086 115.624L154.131 116.143L155.793 115.998L154.941 106.264L153.28 106.41L153.605 110.121C153.054 109.66 152.394 109.443 151.512 109.52C149.448 109.7 148.331 111.433 148.498 113.341ZM150.224 113.19C150.124 112.048 150.766 111.154 151.882 111.057C152.621 110.992 153.259 111.25 153.752 111.809L153.938 113.937C153.549 114.573 152.967 114.937 152.227 115.002C151.111 115.1 150.324 114.332 150.224 113.19ZM161.83 112.619C161.913 113.566 161.471 114.193 160.575 114.272C159.667 114.351 159.122 113.81 159.04 112.863L158.715 109.151L157.054 109.297L157.371 112.93C157.543 114.89 158.778 115.998 160.698 115.83C162.619 115.662 163.656 114.355 163.484 112.396L163.166 108.762L161.505 108.907L161.83 112.619ZM175.783 110.953C175.616 109.046 174.229 107.532 172.152 107.714C171.257 107.792 170.646 108.134 170.184 108.684L169.858 104.959L168.21 105.103L169.061 114.837L170.709 114.693L170.663 114.161C171.213 114.623 171.874 114.853 172.77 114.774C174.846 114.593 175.95 112.861 175.783 110.953ZM172.055 109.292C173.171 109.194 173.97 109.961 174.07 111.103C174.17 112.245 173.516 113.14 172.4 113.237C171.66 113.302 171.009 113.032 170.514 112.461L170.332 110.384C170.683 109.752 171.289 109.359 172.055 109.292ZM180.098 107.019C177.97 107.205 176.653 108.903 176.825 110.862C176.996 112.822 178.587 114.265 180.716 114.079C182.844 113.893 184.16 112.195 183.989 110.236C183.817 108.276 182.226 106.833 180.098 107.019ZM180.605 112.519C179.515 112.615 178.638 111.855 178.538 110.712C178.438 109.57 179.17 108.669 180.26 108.574C181.311 108.482 182.176 109.243 182.276 110.385C182.374 111.515 181.657 112.427 180.605 112.519ZM185.937 105.619C186.521 105.568 186.958 105.033 186.907 104.449C186.856 103.864 186.332 103.413 185.748 103.464C185.164 103.516 184.714 104.052 184.765 104.636C184.816 105.22 185.353 105.67 185.937 105.619ZM185.778 113.375L187.427 113.23L186.854 106.689L185.206 106.834L185.778 113.375ZM188.66 112.168C189.348 112.853 190.22 113.248 191.388 113.145C192.621 113.038 193.658 112.188 193.563 110.81C193.366 108.552 190.272 109.215 190.175 108.099C190.145 107.762 190.367 107.454 190.886 107.409C191.392 107.365 191.85 107.665 192.223 108.05L193.23 106.995C192.707 106.4 191.756 105.999 190.757 106.086C189.394 106.206 188.497 107.16 188.598 108.315C188.799 110.613 191.889 109.911 191.989 111.053C192.023 111.442 191.778 111.777 191.246 111.824C190.623 111.878 190.111 111.557 189.664 111.086L188.66 112.168Z" fill="#161616"/>
<g clip-path="url(#clip4_4866_12579)">
<path d="M37.6606 146.181C37.3577 146.208 37.0926 146.126 36.8652 145.935C36.6379 145.744 36.5109 145.497 36.4844 145.194C36.4579 144.892 36.5401 144.626 36.7309 144.399C36.9217 144.172 37.1685 144.045 37.4713 144.018C37.7741 143.992 38.0393 144.074 38.2666 144.265C38.494 144.456 38.621 144.702 38.6475 145.005C38.674 145.308 38.5918 145.573 38.401 145.8C38.2102 146.028 37.9634 146.155 37.6606 146.181ZM36.1383 148.712C35.9004 148.733 35.6892 148.666 35.5048 148.512C35.3207 148.357 35.2182 148.16 35.1974 147.923L34.6675 141.866C34.6467 141.628 34.7135 141.417 34.868 141.233C35.0227 141.049 35.2191 140.946 35.457 140.925L35.8896 140.887L35.8518 140.455C35.8411 140.332 35.8735 140.226 35.949 140.135C36.0248 140.045 36.124 139.995 36.2465 139.984C36.3691 139.973 36.4756 140.006 36.5659 140.081C36.6559 140.157 36.7063 140.256 36.717 140.379L36.7548 140.812L40.2157 140.509L40.1779 140.076C40.1671 139.954 40.1997 139.847 40.2755 139.757C40.351 139.667 40.4501 139.616 40.5726 139.606C40.6952 139.595 40.8015 139.627 40.8915 139.703C40.9818 139.779 41.0324 139.878 41.0431 140L41.0809 140.433L41.5135 140.395C41.7515 140.374 41.9627 140.441 42.1471 140.596C42.3312 140.751 42.4336 140.947 42.4545 141.185L42.9843 147.241C43.0051 147.479 42.9383 147.69 42.7839 147.875C42.6291 148.059 42.4327 148.161 42.1948 148.182L36.1383 148.712ZM36.0626 147.847L42.1191 147.317L41.7406 142.991L35.6841 143.521L36.0626 147.847Z" fill="#161616"/>
</g>
<path d="M47.5052 147.374L51.8205 146.997L51.7418 146.097L48.6348 146.369L50.1534 144.579C50.7993 143.8 51.3053 143.096 51.2298 142.233C51.1368 141.17 50.2125 140.546 49.1314 140.641C48.0867 140.732 47.3863 141.306 46.9317 142.179L47.793 142.607C48.0957 141.986 48.4735 141.595 49.1185 141.539C49.6999 141.488 50.1662 141.795 50.2194 142.404C50.2719 143.004 49.9758 143.386 49.3971 144.096L47.4265 146.475L47.5052 147.374ZM54.4355 140.177C53.1001 140.294 52.4326 141.139 52.512 142.048C52.5653 142.656 52.9179 143.129 53.5322 143.35C52.7863 143.717 52.4216 144.363 52.4908 145.153C52.5877 146.261 53.5247 147.031 55.0237 146.899C56.5318 146.768 57.3118 145.848 57.2149 144.74C57.1457 143.949 56.6746 143.377 55.8852 143.144C56.4428 142.821 56.708 142.294 56.6547 141.685C56.5752 140.777 55.7801 140.059 54.4355 140.177ZM54.6898 142.873C54.0447 142.93 53.5951 142.603 53.5466 142.049C53.4989 141.504 53.8751 141.095 54.5292 141.038C55.1379 140.985 55.5884 141.321 55.6361 141.866C55.6846 142.42 55.2984 142.82 54.6898 142.873ZM54.9565 146.027C54.1389 146.098 53.573 145.699 53.5134 145.018C53.453 144.327 53.9378 143.8 54.7554 143.728C55.5549 143.658 56.1239 144.094 56.1843 144.784C56.2431 145.456 55.7559 145.957 54.9565 146.027ZM58.0044 148.259L58.9492 148.176L60.3314 139.386L59.3866 139.469L58.0044 148.259ZM63.2098 139.409C61.5836 139.551 60.9212 141.083 61.0873 142.982C61.2534 144.881 62.1718 146.274 63.798 146.132C65.4241 145.99 66.0775 144.459 65.9113 142.56C65.7452 140.661 64.836 139.267 63.2098 139.409ZM63.2909 140.336C64.2084 140.255 64.76 141.223 64.8848 142.65C65.0088 144.067 64.6345 145.125 63.7169 145.205C62.7902 145.286 62.2387 144.318 62.1139 142.892C61.9899 141.475 62.3642 140.417 63.2909 140.336ZM67.0499 145.664L71.3652 145.287L71.2865 144.387L68.1795 144.659L69.6981 142.869C70.3439 142.09 70.85 141.386 70.7745 140.523C70.6815 139.46 69.7572 138.836 68.6761 138.931C67.6314 139.022 66.9309 139.596 66.4764 140.469L67.3377 140.897C67.6403 140.276 68.0182 139.886 68.6632 139.829C69.2446 139.778 69.7109 140.085 69.7641 140.694C69.8166 141.294 69.5205 141.676 68.9418 142.386L66.9712 144.765L67.0499 145.664ZM72.1905 147.018L73.1353 146.935L74.5175 138.145L73.5727 138.228L72.1905 147.018ZM75.8241 144.897L80.1394 144.519L80.0607 143.62L76.9537 143.891L78.4724 142.102C79.1182 141.322 79.6242 140.619 79.5487 139.756C79.4557 138.693 78.5315 138.069 77.4504 138.163C76.4056 138.255 75.7052 138.829 75.2506 139.701L76.112 140.129C76.4146 139.508 76.7924 139.118 77.4374 139.061C78.0189 139.011 78.4851 139.318 78.5384 139.926C78.5908 140.526 78.2948 140.909 77.7161 141.619L75.7455 143.997L75.8241 144.897ZM82.8432 137.691C81.217 137.834 80.5546 139.365 80.7207 141.264C80.8869 143.163 81.8052 144.556 83.4314 144.414C85.0575 144.272 85.7109 142.741 85.5447 140.842C85.3786 138.943 84.4694 137.549 82.8432 137.691ZM82.9243 138.618C83.8418 138.538 84.3934 139.506 84.5182 140.932C84.6422 142.349 84.2679 143.407 83.3503 143.487C82.4236 143.569 81.8721 142.601 81.7473 141.174C81.6233 139.757 81.9976 138.699 82.9243 138.618ZM86.6833 143.947L90.9986 143.569L90.9199 142.67L87.8129 142.941L89.3315 141.152C89.9774 140.372 90.4834 139.669 90.4079 138.805C90.3149 137.743 89.3906 137.119 88.3095 137.213C87.2648 137.305 86.5643 137.878 86.1098 138.751L86.9711 139.179C87.2737 138.558 87.6516 138.168 88.2966 138.111C88.878 138.061 89.3443 138.368 89.3975 138.976C89.45 139.576 89.1539 139.959 88.5752 140.669L86.6046 143.047L86.6833 143.947ZM96.1851 141.321C96.1223 140.603 95.6875 140.028 94.9693 139.77C95.4601 139.416 95.6873 138.875 95.6348 138.275C95.545 137.248 94.6512 136.658 93.5156 136.758C92.5435 136.843 91.9003 137.338 91.5022 138.124L92.3635 138.552C92.6097 138.018 92.9757 137.702 93.5299 137.654C94.1113 137.603 94.5669 137.892 94.617 138.465C94.6663 139.028 94.2719 139.438 93.6269 139.494L92.673 139.578L92.7509 140.468L93.8138 140.375C94.5769 140.308 95.1056 140.701 95.1637 141.365C95.2249 142.064 94.7254 142.529 94.0077 142.592C93.3354 142.65 92.8368 142.392 92.4031 141.725L91.5779 142.337C92.1629 143.165 92.95 143.581 94.0947 143.481C95.3938 143.368 96.2884 142.502 96.1851 141.321Z" fill="#161616"/>
<path d="M40.6376 165.254C40.8755 165.233 41.0718 165.131 41.2266 164.946C41.3811 164.762 41.4479 164.551 41.4271 164.313C41.4063 164.075 41.3038 163.879 41.1197 163.724C40.9353 163.57 40.7241 163.503 40.4862 163.524C40.2482 163.544 40.052 163.647 39.8975 163.831C39.7428 164.015 39.6758 164.226 39.6966 164.464C39.7175 164.702 39.8201 164.899 40.0045 165.053C40.1886 165.208 40.3996 165.275 40.6376 165.254ZM41.0018 169.418C40.9442 169.423 40.8855 169.417 40.826 169.4C40.7664 169.384 40.7134 169.359 40.667 169.327C39.5329 168.489 38.6715 167.695 38.0827 166.943C37.4938 166.192 37.1691 165.47 37.1086 164.778C37.0139 163.697 37.2865 162.804 37.9263 162.102C38.5658 161.399 39.3434 161.008 40.2591 160.928C41.1748 160.848 42.0085 161.098 42.7603 161.679C43.5123 162.26 43.9357 163.091 44.0303 164.172C44.0909 164.865 43.8964 165.632 43.447 166.474C42.9976 167.316 42.2872 168.248 41.3159 169.27C41.2758 169.31 41.2278 169.344 41.172 169.37C41.1163 169.397 41.0595 169.413 41.0018 169.418Z" fill="#646464"/>
<path d="M51.2257 161.752C49.4178 161.91 48.7316 163.38 48.9121 165.442C49.1052 167.65 50.1331 168.622 51.623 168.492C52.9948 168.372 53.7266 167.319 53.6257 166.165C53.5279 165.048 52.6316 164.22 51.4324 164.325C50.7329 164.386 50.1556 164.693 49.7411 165.187C49.649 163.611 50.1371 162.598 51.2999 162.496C51.8813 162.446 52.3421 162.689 52.763 163.211L53.3643 162.654C52.8627 162.048 52.2068 161.666 51.2257 161.752ZM51.3696 165.072C52.1146 165.007 52.7097 165.531 52.7741 166.267C52.8409 167.03 52.3937 167.674 51.5397 167.748C50.7312 167.819 50.1052 167.361 49.8513 166.029C50.1852 165.45 50.7337 165.127 51.3696 165.072ZM56.6256 168.054C58.4335 167.896 59.1287 166.425 58.9483 164.363C58.7552 162.155 57.7272 161.183 56.2373 161.314C54.8564 161.435 54.1337 162.486 54.2347 163.64C54.3324 164.758 55.2288 165.586 56.4189 165.481C57.1275 165.419 57.7048 165.113 58.1185 164.61C58.2205 166.193 57.7233 167.207 56.5605 167.309C55.9699 167.361 55.5092 167.117 55.0974 166.595L54.487 167.152C54.9795 167.759 55.6445 168.14 56.6256 168.054ZM55.0772 163.539C55.0104 162.776 55.4667 162.132 56.3116 162.058C57.1111 161.988 57.7552 162.444 58.0083 163.768C57.6843 164.355 57.1267 164.678 56.4817 164.734C55.7367 164.8 55.1416 164.275 55.0772 163.539ZM61.8487 164.695L61.9138 165.44L64.3667 165.225L64.3016 164.481L61.8487 164.695ZM67.9773 166.878L71.3931 166.579L71.3248 165.798L68.7629 166.022L68.2749 160.444L67.4209 160.518L67.9773 166.878ZM73.9456 167.472L75.8555 161.575L75.0378 161.646L73.8346 165.367L71.9854 161.913L71.1314 161.988L73.5117 166.384L73.2305 167.251C73.0436 167.835 72.6953 168.04 72.2319 168.08C72.0139 168.099 71.801 168.072 71.6212 168.005L71.6816 168.696C71.8902 168.778 72.1213 168.804 72.4302 168.777C73.2024 168.709 73.6944 168.263 73.9456 167.472ZM78.7749 161.136C77.2941 161.266 76.3942 162.489 76.511 163.824C76.6278 165.16 77.7265 166.208 79.2073 166.078C80.6791 165.95 81.5881 164.726 81.4713 163.39C81.3544 162.055 80.2467 161.007 78.7749 161.136ZM79.1528 165.351C78.1717 165.437 77.403 164.707 77.3195 163.754C77.2361 162.8 77.8665 161.948 78.8476 161.862C79.8015 161.779 80.5702 162.508 80.6537 163.462C80.7363 164.407 80.1067 165.267 79.1528 165.351ZM82.913 165.571L83.6852 165.503L83.4078 162.333C83.6564 161.826 84.0409 161.408 84.7041 161.35C85.4127 161.288 85.9174 161.72 85.9889 162.537L86.2289 165.281L87.0011 165.213L86.7587 162.443C86.6451 161.143 85.8215 160.52 84.795 160.61C84.1136 160.669 83.6666 161.001 83.3299 161.443L83.2846 160.925L82.5124 160.992L82.913 165.571Z" fill="#161616"/>
</g>
<path d="M276.285 269.242C275.355 264.374 274.443 259.707 273.55 255.04C273.368 254.11 273.24 253.453 273.204 252.25C273.167 251.357 273.131 249.461 274.097 249.625C274.881 249.844 275.41 250.099 275.884 251.685C277.087 255.787 277.671 260.035 278.272 264.247C278.801 267.966 279.147 270.81 279.421 274.129C279.548 275.678 278.783 276.298 277.361 276.116C276.084 275.952 274.772 275.806 273.55 275.405C269.138 273.983 264.781 272.451 260.387 270.956C259.84 270.774 259.402 270.664 258.782 270.355C258.035 269.972 257.469 269.735 257.688 268.951C257.889 268.203 258.983 268.24 259.53 268.367C264.124 269.334 273.568 271.485 274.097 271.485C272.566 269.097 271.198 266.854 269.703 264.684C259.22 249.625 247.752 235.44 233.057 224.155C221.425 215.221 208.936 207.819 195.317 202.349C194.514 202.021 193.73 201.62 192.983 201.219C191.962 200.69 191.524 200.234 191.761 199.687C192.345 198.721 193.129 198.903 193.767 198.994C195.043 199.159 196.301 199.596 197.523 200.015C213.804 205.795 228.061 214.984 241.17 226.087C254.625 237.482 264.981 251.411 274.188 266.271C274.644 267.073 275.957 268.951 276.285 269.242Z" fill="black"/>
<defs>
<filter id="filter0_d_4866_12579" x="-25.0039" y="242.705" width="383.958" height="160.3" filterUnits="userSpaceOnUse" color-interpolation-filters="sRGB">
<feFlood flood-opacity="0" result="BackgroundImageFix"/>
<feColorMatrix in="SourceAlpha" type="matrix" values="0 0 0 0 0 0 0 0 0 0 0 0 0 0 0 0 0 0 127 0" result="hardAlpha"/>
<feOffset dy="6"/>
<feGaussianBlur stdDeviation="12.5"/>
<feComposite in2="hardAlpha" operator="out"/>
<feColorMatrix type="matrix" values="0 0 0 0 0.196078 0 0 0 0 0.196078 0 0 0 0 0.196078 0 0 0 0.1 0"/>
<feBlend mode="normal" in2="BackgroundImageFix" result="effect1_dropShadow_4866_12579"/>
<feBlend mode="normal" in="SourceGraphic" in2="effect1_dropShadow_4866_12579" result="shape"/>
</filter>
<filter id="filter1_d_4866_12579" x="65.1947" y="91.804" width="247.423" height="140.403" filterUnits="userSpaceOnUse" color-interpolation-filters="sRGB">
<feFlood flood-opacity="0" result="BackgroundImageFix"/>
<feColorMatrix in="SourceAlpha" type="matrix" values="0 0 0 0 0 0 0 0 0 0 0 0 0 0 0 0 0 0 127 0" result="hardAlpha"/>
<feOffset dy="2.60516"/>
<feGaussianBlur stdDeviation="3.90774"/>
<feComposite in2="hardAlpha" operator="out"/>
<feColorMatrix type="matrix" values="0 0 0 0 0.152941 0 0 0 0 0.286275 0 0 0 0 0.588235 0 0 0 0.12 0"/>
<feBlend mode="normal" in2="BackgroundImageFix" result="effect1_dropShadow_4866_12579"/>
<feBlend mode="normal" in="SourceGraphic" in2="effect1_dropShadow_4866_12579" result="shape"/>
</filter>
<filter id="filter2_d_4866_12579" x="37.1903" y="70.8007" width="247.423" height="140.403" filterUnits="userSpaceOnUse" color-interpolation-filters="sRGB">
<feFlood flood-opacity="0" result="BackgroundImageFix"/>
<feColorMatrix in="SourceAlpha" type="matrix" values="0 0 0 0 0 0 0 0 0 0 0 0 0 0 0 0 0 0 127 0" result="hardAlpha"/>
<feOffset dy="2.60516"/>
<feGaussianBlur stdDeviation="3.90774"/>
<feComposite in2="hardAlpha" operator="out"/>
<feColorMatrix type="matrix" values="0 0 0 0 0.152941 0 0 0 0 0.286275 0 0 0 0 0.588235 0 0 0 0.12 0"/>
<feBlend mode="normal" in2="BackgroundImageFix" result="effect1_dropShadow_4866_12579"/>
<feBlend mode="normal" in="SourceGraphic" in2="effect1_dropShadow_4866_12579" result="shape"/>
</filter>
<filter id="filter3_d_4866_12579" x="9.18595" y="49.7974" width="247.423" height="140.403" filterUnits="userSpaceOnUse" color-interpolation-filters="sRGB">
<feFlood flood-opacity="0" result="BackgroundImageFix"/>
<feColorMatrix in="SourceAlpha" type="matrix" values="0 0 0 0 0 0 0 0 0 0 0 0 0 0 0 0 0 0 127 0" result="hardAlpha"/>
<feOffset dy="2.60516"/>
<feGaussianBlur stdDeviation="3.90774"/>
<feComposite in2="hardAlpha" operator="out"/>
<feColorMatrix type="matrix" values="0 0 0 0 0.152941 0 0 0 0 0.286275 0 0 0 0 0.588235 0 0 0 0.12 0"/>
<feBlend mode="normal" in2="BackgroundImageFix" result="effect1_dropShadow_4866_12579"/>
<feBlend mode="normal" in="SourceGraphic" in2="effect1_dropShadow_4866_12579" result="shape"/>
</filter>
<clipPath id="clip0_4866_12579">
<rect width="20.4107" height="20.4107" fill="white" transform="translate(150.153 301.601) rotate(-5)"/>
</clipPath>
<clipPath id="clip1_4866_12579">
<rect width="20.4107" height="20.4107" fill="white" transform="translate(278.525 290.369) rotate(-5)"/>
</clipPath>
<clipPath id="clip2_4866_12579">
<rect width="10.4206" height="10.4206" fill="white" transform="translate(89.1516 181.39) rotate(-5)"/>
</clipPath>
<clipPath id="clip3_4866_12579">
<rect width="10.4206" height="10.4206" fill="white" transform="translate(61.1472 160.387) rotate(-5)"/>
</clipPath>
<clipPath id="clip4_4866_12579">
<rect width="10.4206" height="10.4206" fill="white" transform="translate(33.1429 139.384) rotate(-5)"/>
</clipPath>
</defs>
</svg>
