<svg width="352" height="372" viewBox="0 0 352 372" fill="none" xmlns="http://www.w3.org/2000/svg">
<rect x="50.6598" y="98.1026" width="257.364" height="179.174" rx="11.4995" transform="rotate(-5 50.6598 98.1026)" fill="#F1F1F1" stroke="#878787" stroke-width="0.999955" stroke-dasharray="5 5"/>
<g filter="url(#filter0_d_5297_13075)">
<rect x="40.0062" y="88.0033" width="252.342" height="177.248" rx="5.88462" transform="rotate(-5 40.0062 88.0033)" fill="white" shape-rendering="crispEdges"/>
<path d="M56.3065 117.7L58.5702 117.502L58.1755 112.991L59.5943 112.867C62.0493 112.652 63.4376 111.262 63.2577 109.205C63.0764 107.133 61.4677 106.004 59.0127 106.219L55.3302 106.541L56.3065 117.7ZM59.2729 108.092C60.2294 108.008 60.8535 108.532 60.9274 109.377C61.0069 110.285 60.4818 110.894 59.5253 110.977L58.0109 111.11L57.7584 108.224L59.2729 108.092ZM66.5222 107.426L67.5339 105.586L68.8496 107.222L70.6191 107.067L68.7456 104.564L66.1631 104.79L64.7526 107.58L66.5222 107.426ZM67.517 116.961C68.4576 116.878 69.3792 116.396 69.8349 115.73L69.9033 116.511L71.9278 116.334L71.4732 111.137C71.3184 109.367 70.0014 108.085 67.6739 108.289C66.2073 108.417 65.0806 109.126 64.4497 110.177L66.0313 111.179C66.4101 110.552 66.9838 110.132 67.765 110.064C68.6896 109.983 69.3747 110.469 69.4486 111.314L69.4667 111.521L67.048 112.15C65.3514 112.588 64.4903 113.579 64.5963 114.791C64.726 116.273 65.9069 117.101 67.517 116.961ZM66.5966 114.519C66.5534 114.025 66.8734 113.644 67.7058 113.426L69.5908 112.94L69.6899 114.072C69.3471 114.744 68.7152 115.233 67.7906 115.314C67.1051 115.374 66.644 115.061 66.5966 114.519ZM74.4997 113.153C74.6713 115.114 75.7268 116.162 77.7354 115.986C78.405 115.928 78.8763 115.806 79.2595 115.596L79.1046 113.826C78.8434 113.962 78.4823 114.058 77.9244 114.106C77.1273 114.176 76.6184 113.867 76.5403 112.975L76.2529 109.691L78.708 109.476L78.549 107.658L76.0939 107.873L75.9182 105.865L73.8777 106.043L74.0534 108.052L72.5549 108.183L72.7139 110L74.2124 109.869L74.4997 113.153ZM81.2596 106.008C81.977 105.945 82.5138 105.288 82.451 104.57C82.3883 103.853 81.7454 103.299 81.0281 103.361C80.3107 103.424 79.7579 104.083 79.8207 104.8C79.8834 105.518 80.5422 106.07 81.2596 106.008ZM81.065 115.534L83.0896 115.357L82.3866 107.323L80.3621 107.5L81.065 115.534ZM84.6052 114.052C85.4499 114.894 86.5204 115.378 87.9551 115.253C89.4696 115.12 90.7437 114.077 90.6278 112.385C90.3851 109.611 86.585 110.425 86.4651 109.054C86.4288 108.64 86.701 108.262 87.3387 108.207C87.9604 108.152 88.5227 108.521 88.9818 108.995L90.2177 107.698C89.5755 106.967 88.408 106.475 87.1805 106.582C85.5066 106.728 84.4044 107.901 84.5285 109.32C84.7754 112.142 88.5713 111.279 88.694 112.682C88.7359 113.161 88.4346 113.572 87.781 113.63C87.0158 113.697 86.3869 113.302 85.8383 112.723L84.6052 114.052ZM91.782 113.424C92.6267 114.266 93.6972 114.75 95.132 114.625C96.6464 114.492 97.9206 113.449 97.8046 111.757C97.5619 108.983 93.7618 109.797 93.6419 108.426C93.6056 108.012 93.8778 107.635 94.5155 107.579C95.1372 107.524 95.6996 107.893 96.1587 108.367L97.3945 107.07C96.7523 106.339 95.5848 105.847 94.3573 105.954C92.6834 106.101 91.5813 107.273 91.7054 108.692C91.9522 111.514 95.7481 110.652 95.8709 112.054C95.9127 112.533 95.6114 112.945 94.9578 113.002C94.1926 113.069 93.5637 112.674 93.0151 112.095L91.782 113.424ZM100.066 104.362C100.783 104.3 101.32 103.642 101.257 102.925C101.194 102.207 100.552 101.653 99.8342 101.716C99.1168 101.779 98.564 102.438 98.6268 103.155C98.6895 103.872 99.3483 104.425 100.066 104.362ZM99.8711 113.889L101.896 113.712L101.193 105.677L99.1682 105.854L99.8711 113.889ZM111.606 111.545L110.055 110.524C109.675 111.136 108.943 111.585 108.066 111.662C106.807 111.772 105.829 111.247 105.507 109.766L111.134 109.273C111.174 108.997 111.202 108.577 111.163 108.13C110.979 106.026 109.38 104.64 107.148 104.835C104.517 105.065 103.19 107.157 103.398 109.532C103.603 111.876 105.388 113.728 108.241 113.478C109.756 113.346 110.945 112.615 111.606 111.545ZM107.245 106.497C108.377 106.398 109.038 107.16 109.141 107.97L105.442 108.293C105.573 107.222 106.209 106.588 107.245 106.497ZM113.555 112.692L115.58 112.515L115.129 107.366C115.388 106.829 115.978 106.231 116.966 106.145C117.333 106.113 117.608 106.137 117.869 106.178L117.694 104.185C117.498 104.138 117.254 104.112 116.983 104.135C116.075 104.215 115.425 104.689 114.947 105.277L114.877 104.48L112.852 104.657L113.555 112.692Z" fill="#161616"/>
<rect x="56.1464" y="134.782" width="140.503" height="23.8883" rx="5.88462" transform="rotate(-5 56.1464 134.782)" fill="#FFD88D"/>
<g clip-path="url(#clip0_5297_13075)">
<path d="M66.0369 146.116L64.7583 145.711C64.5387 145.64 64.399 145.496 64.339 145.28C64.2791 145.063 64.3234 144.867 64.472 144.69L65.8876 143.003C66.0213 142.843 66.1912 142.722 66.3973 142.638C66.6033 142.554 66.8139 142.524 67.0292 142.546L67.7994 142.626C67.4127 143.177 67.0955 143.703 66.8479 144.205C66.6007 144.706 66.3304 145.343 66.0369 146.116ZM73.0742 140.454C73.1638 140.446 73.249 140.457 73.3297 140.487C73.4101 140.517 73.4857 140.561 73.5566 140.621C73.6274 140.68 73.6825 140.747 73.7218 140.821C73.7612 140.896 73.7848 140.978 73.7926 141.068C73.8419 141.818 73.7329 142.589 73.4656 143.379C73.1983 144.17 72.7972 144.884 72.2622 145.522C71.8163 146.053 71.3977 146.473 71.0062 146.782C70.6148 147.092 70.0825 147.432 69.4092 147.802C69.2765 147.88 69.1398 147.912 68.9993 147.9C68.8587 147.888 68.7397 147.84 68.6423 147.759L67.3681 146.701C67.2707 146.619 67.2057 146.508 67.173 146.367C67.14 146.226 67.1501 146.084 67.2031 145.94C67.4357 145.222 67.6762 144.641 67.9245 144.196C68.1728 143.752 68.5162 143.269 68.9546 142.747C69.4896 142.109 70.1231 141.588 70.8551 141.183C71.5868 140.779 72.3265 140.536 73.0742 140.454ZM70.4123 144.354C70.5894 144.503 70.798 144.567 71.038 144.546C71.2784 144.525 71.4729 144.426 71.6215 144.249C71.7702 144.072 71.8339 143.863 71.8129 143.622C71.7919 143.382 71.6929 143.188 71.5157 143.039C71.3386 142.891 71.1299 142.827 70.8895 142.848C70.6494 142.869 70.4551 142.968 70.3065 143.145C70.1579 143.322 70.094 143.531 70.115 143.771C70.1361 144.011 70.2352 144.206 70.4123 144.354ZM69.4253 148.97C70.1349 148.547 70.7174 148.17 71.1725 147.839C71.6277 147.508 72.0929 147.104 72.5682 146.628L72.781 147.372C72.8402 147.58 72.8465 147.793 72.7999 148.01C72.7533 148.228 72.6631 148.416 72.5294 148.576L71.1138 150.263C70.9652 150.44 70.7791 150.518 70.5557 150.496C70.3323 150.475 70.1665 150.362 70.0584 150.158L69.4253 148.97ZM64.9047 148.369C65.1945 148.023 65.5653 147.829 66.017 147.785C66.4685 147.742 66.8669 147.865 67.2122 148.155C67.5576 148.444 67.7479 148.815 67.7832 149.268C67.8189 149.72 67.6918 150.119 67.402 150.464C67.2014 150.703 66.86 150.928 66.3779 151.139C65.8957 151.349 65.1707 151.55 64.2028 151.741C64.2231 150.755 64.2951 150.006 64.4188 149.494C64.5421 148.983 64.7041 148.608 64.9047 148.369Z" fill="#161616"/>
</g>
<path d="M79.4345 148.75L83.4361 148.4L83.349 147.405L80.5171 147.653L80.3277 145.488L82.7492 145.276L82.6621 144.281L80.2406 144.493L80.0629 142.461L82.8948 142.213L82.8077 141.218L78.8061 141.568L79.4345 148.75ZM85.0199 148.262L86.0767 148.169L85.7715 144.681C85.9988 144.206 86.3809 143.728 87.0888 143.666C87.8276 143.601 88.3221 144.054 88.394 144.875L88.6624 147.943L89.7295 147.85L89.4575 144.741C89.3264 143.243 88.3869 142.549 87.248 142.649C86.5093 142.714 86.0223 143.056 85.6683 143.501L85.6243 142.998L84.5675 143.09L85.0199 148.262ZM91.5233 145.883C91.6337 147.145 92.3255 147.726 93.5363 147.62C93.9364 147.585 94.2192 147.509 94.4565 147.384L94.3748 146.451C94.1964 146.539 93.964 146.6 93.6151 146.631C93.0406 146.681 92.6514 146.488 92.5904 145.79L92.3785 143.369L94.092 143.219L94.0086 142.264L92.295 142.414L92.1819 141.122L91.1149 141.215L91.228 142.508L90.2532 142.593L90.3367 143.547L91.3114 143.462L91.5233 145.883ZM95.7213 147.325L96.7781 147.233L96.4765 143.785C96.7046 143.321 97.1051 142.934 97.7617 142.877C97.9772 142.858 98.1441 142.874 98.3118 142.901L98.2212 141.865C98.0842 141.835 97.9276 141.818 97.7634 141.833C97.1273 141.888 96.7009 142.215 96.3768 142.647L96.3257 142.062L95.2688 142.154L95.7213 147.325ZM104.164 145.739L103.34 145.191C103.06 145.649 102.561 145.972 101.935 146.027C100.94 146.114 100.201 145.589 100.031 144.467L103.848 144.133C103.875 143.976 103.885 143.737 103.865 143.501C103.75 142.188 102.741 141.294 101.315 141.418C99.6731 141.562 98.7968 142.89 98.9323 144.439C99.0643 145.947 100.233 147.137 102.019 146.981C102.983 146.897 103.738 146.428 104.164 145.739ZM101.371 142.303C102.203 142.23 102.716 142.785 102.793 143.429L100.013 143.673C100.107 142.858 100.602 142.37 101.371 142.303ZM105.742 148.992L106.798 148.9L106.531 145.842C107.013 146.275 107.591 146.494 108.34 146.428C109.961 146.286 110.865 144.915 110.733 143.407C110.601 141.898 109.473 140.705 107.852 140.847C107.103 140.912 106.572 141.227 106.172 141.738L106.125 141.204L105.068 141.297L105.742 148.992ZM107.805 141.853C108.801 141.766 109.536 142.488 109.625 143.504C109.713 144.519 109.115 145.358 108.119 145.445C107.452 145.503 106.861 145.245 106.431 144.703L106.272 142.877C106.592 142.28 107.128 141.913 107.805 141.853ZM112.274 145.877L113.331 145.785L113.03 142.337C113.258 141.873 113.658 141.486 114.315 141.429C114.53 141.41 114.697 141.426 114.865 141.453L114.774 140.417C114.637 140.387 114.481 140.37 114.316 140.384C113.68 140.44 113.254 140.767 112.93 141.198L112.879 140.613L111.822 140.706L112.274 145.877ZM116.373 139.15C116.763 139.116 117.063 138.759 117.029 138.369C116.994 137.979 116.637 137.679 116.247 137.713C115.858 137.747 115.558 138.105 115.592 138.494C115.626 138.884 115.983 139.184 116.373 139.15ZM116.393 145.517L117.449 145.424L116.997 140.253L115.94 140.346L116.393 145.517ZM118.541 144.595C119.075 145.138 119.752 145.43 120.624 145.354C121.588 145.269 122.356 144.592 122.277 143.575C122.122 141.8 119.618 142.371 119.528 141.335C119.497 140.986 119.718 140.677 120.211 140.634C120.642 140.596 121.023 140.821 121.333 141.166L121.996 140.478C121.584 140.017 120.884 139.706 120.125 139.773C119.089 139.863 118.43 140.603 118.504 141.455C118.664 143.281 121.165 142.68 121.257 143.727C121.291 144.117 121.041 144.449 120.538 144.493C120.025 144.537 119.59 144.296 119.214 143.895L118.541 144.595ZM128.282 143.629L127.459 143.081C127.178 143.539 126.679 143.862 126.053 143.917C125.058 144.004 124.319 143.479 124.149 142.357L127.966 142.023C127.993 141.866 128.003 141.627 127.983 141.391C127.868 140.078 126.859 139.184 125.433 139.308C123.791 139.452 122.915 140.78 123.05 142.329C123.182 143.837 124.351 145.027 126.137 144.871C127.101 144.787 127.856 144.318 128.282 143.629ZM125.49 140.193C126.321 140.12 126.835 140.675 126.912 141.319L124.131 141.562C124.225 140.748 124.72 140.26 125.49 140.193ZM133.844 144.145C134.48 144.09 135.102 143.746 135.431 143.262L135.483 143.847L136.539 143.754L136.241 140.338C136.141 139.199 135.3 138.445 133.904 138.567C132.981 138.648 132.276 139.103 131.868 139.759L132.711 140.295C132.972 139.848 133.391 139.553 133.955 139.504C134.622 139.445 135.128 139.794 135.184 140.43L135.207 140.697L133.559 141.12C132.477 141.401 131.921 142.018 131.989 142.798C132.069 143.711 132.818 144.235 133.844 144.145ZM133.053 142.664C133.019 142.274 133.261 141.973 133.898 141.804L135.273 141.446L135.351 142.338C135.086 142.858 134.61 143.21 133.964 143.266C133.43 143.313 133.088 143.064 133.053 142.664ZM140.548 142.607C139.543 142.695 138.757 141.989 138.668 140.963C138.579 139.947 139.229 139.104 140.224 139.017C140.819 138.965 141.316 139.211 141.638 139.586L142.414 138.877C141.886 138.282 141.081 137.939 140.137 138.022C138.403 138.174 137.427 139.551 137.559 141.06C137.691 142.568 138.891 143.755 140.625 143.604C141.579 143.52 142.303 143.043 142.719 142.366L141.832 141.802C141.58 142.228 141.133 142.556 140.548 142.607ZM146.049 142.126C145.044 142.214 144.258 141.507 144.169 140.481C144.08 139.466 144.73 138.623 145.725 138.536C146.32 138.484 146.817 138.73 147.139 139.105L147.915 138.396C147.387 137.801 146.582 137.458 145.638 137.541C143.904 137.692 142.928 139.07 143.06 140.578C143.192 142.087 144.392 143.274 146.126 143.122C147.08 143.039 147.804 142.562 148.22 141.885L147.333 141.321C147.081 141.746 146.634 142.075 146.049 142.126ZM152.714 140.106C152.792 140.999 152.356 141.574 151.566 141.644C150.756 141.714 150.237 141.222 150.159 140.33L149.9 137.375L148.833 137.468L149.087 140.372C149.223 141.921 150.196 142.766 151.653 142.639C153.1 142.512 153.912 141.511 153.776 139.961L153.522 137.058L152.455 137.151L152.714 140.106ZM160.176 140.839L159.352 140.29C159.072 140.749 158.573 141.072 157.947 141.127C156.952 141.214 156.213 140.689 156.043 139.567L159.859 139.233C159.887 139.075 159.897 138.837 159.876 138.601C159.762 137.287 158.753 136.393 157.327 136.518C155.685 136.662 154.809 137.989 154.944 139.539C155.076 141.047 156.245 142.237 158.03 142.081C158.995 141.996 159.75 141.527 160.176 140.839ZM157.383 137.402C158.214 137.33 158.728 137.884 158.805 138.529L156.025 138.772C156.119 137.957 156.614 137.47 157.383 137.402ZM161.513 135.201C161.903 135.166 162.203 134.809 162.169 134.419C162.135 134.03 161.777 133.73 161.388 133.764C160.998 133.798 160.698 134.155 160.732 134.545C160.766 134.935 161.123 135.235 161.513 135.201ZM161.533 141.568L162.589 141.475L162.137 136.304L161.08 136.396L161.533 141.568ZM164.318 141.324L165.375 141.232L164.702 133.536L163.645 133.629L164.318 141.324ZM167.104 141.08L168.161 140.988L167.487 133.292L166.431 133.385L167.104 141.08ZM171.329 140.866C171.965 140.81 172.586 140.466 172.916 139.982L172.967 140.567L174.024 140.475L173.725 137.058C173.626 135.919 172.784 135.166 171.389 135.288C170.466 135.369 169.761 135.823 169.353 136.479L170.196 137.015C170.457 136.569 170.876 136.273 171.44 136.224C172.107 136.166 172.613 136.514 172.669 137.151L172.692 137.417L171.044 137.841C169.962 138.121 169.406 138.739 169.474 139.518C169.554 140.432 170.303 140.955 171.329 140.866ZM170.538 139.384C170.504 138.994 170.746 138.694 171.383 138.524L172.757 138.166L172.836 139.059C172.571 139.578 172.095 139.93 171.449 139.987C170.915 140.033 170.573 139.784 170.538 139.384ZM175.681 140.33L176.738 140.237L176.433 136.749C176.66 136.274 177.042 135.796 177.75 135.734C178.489 135.669 178.983 136.122 179.055 136.943L179.323 140.011L180.39 139.918L180.118 136.809C179.987 135.311 179.048 134.618 177.909 134.717C177.17 134.782 176.683 135.124 176.329 135.569L176.285 135.066L175.228 135.159L175.681 140.33ZM182.184 137.952C182.295 139.214 182.987 139.794 184.197 139.688C184.597 139.653 184.88 139.577 185.118 139.453L185.036 138.519C184.857 138.607 184.625 138.669 184.276 138.699C183.702 138.749 183.312 138.556 183.251 137.858L183.04 135.437L184.753 135.287L184.67 134.333L182.956 134.483L182.843 133.19L181.776 133.283L181.889 134.576L180.914 134.661L180.998 135.615L181.972 135.53L182.184 137.952ZM190.877 138.153L190.054 137.604C189.773 138.063 189.274 138.386 188.648 138.441C187.653 138.528 186.914 138.003 186.744 136.881L190.561 136.547C190.588 136.389 190.598 136.151 190.578 135.915C190.463 134.601 189.454 133.707 188.028 133.832C186.386 133.976 185.51 135.303 185.645 136.853C185.777 138.361 186.946 139.551 188.732 139.395C189.696 139.31 190.451 138.841 190.877 138.153ZM188.085 134.716C188.916 134.643 189.43 135.198 189.507 135.843L186.726 136.086C186.82 135.271 187.315 134.784 188.085 134.716Z" fill="#161616"/>
<rect x="56.1464" y="134.782" width="140.503" height="23.8883" rx="5.88462" transform="rotate(-5 56.1464 134.782)" stroke="#161616"/>
<rect x="59.2744" y="170.536" width="120.019" height="13.6484" rx="6.82314" transform="rotate(-5 59.2744 170.536)" fill="#F1F1F1"/>
<rect x="60.9172" y="189.312" width="180.028" height="13.6484" rx="6.82314" transform="rotate(-5 60.9172 189.312)" fill="#F1F1F1"/>
<rect x="62.5595" y="208.088" width="120.019" height="13.6484" rx="6.82314" transform="rotate(-5 62.5595 208.088)" fill="#F1F1F1"/>
</g>
<path d="M52.4243 44.8469L45.8954 39.3685C45.7535 39.2494 45.6489 39.1161 45.5816 38.9686C45.5134 38.8211 45.4718 38.6603 45.4565 38.4863C45.4413 38.3123 45.4545 38.1468 45.4959 37.9897C45.5366 37.8327 45.6164 37.6833 45.7355 37.5413L51.2139 31.0125C51.4322 30.7522 51.7263 30.606 52.0961 30.5736C52.4659 30.5413 52.7809 30.6343 53.0411 30.8526C53.3013 31.0709 53.4476 31.365 53.4799 31.7348C53.5123 32.1046 53.4193 32.4196 53.2009 32.6798L48.5562 38.2151L54.0916 42.8598C54.3518 43.0782 54.4981 43.3722 54.5304 43.742C54.5628 44.1118 54.4698 44.4268 54.2514 44.687C54.0331 44.9472 53.739 45.0935 53.3692 45.1259C52.9995 45.1582 52.6845 45.0652 52.4243 44.8469Z" fill="#3B69D1"/>
<path d="M74.4448 41.2524L79.6131 40.8002C83.7854 40.4352 86.3398 37.1628 86.029 33.6107C85.7182 30.0586 82.6344 27.2795 78.4622 27.6445L73.2938 28.0967L74.4448 41.2524ZM78.7119 30.0656C81.1551 29.8519 83.0796 31.5015 83.2851 33.8508C83.489 36.1812 81.8818 38.1588 79.4386 38.3725L76.9014 38.5945L76.1747 30.2876L78.7119 30.0656ZM93.4602 28.5291L95.4425 25.212L92.8489 25.4389L91.1673 28.7297L93.4602 28.5291ZM97.4994 37.6825L95.6707 36.479C95.2225 37.1999 94.3598 37.7299 93.3262 37.8204C91.8414 37.9503 90.6889 37.3315 90.3088 35.5846L96.9431 35.0041C96.9903 34.6781 97.0227 34.1828 96.9767 33.6566C96.7597 31.1758 94.8744 29.5417 92.2433 29.7718C89.1423 30.0432 87.5779 32.5094 87.8229 35.3097C88.0646 38.0724 90.1683 40.2555 93.5324 39.9612C95.3178 39.805 96.7196 38.9438 97.4994 37.6825ZM92.3579 31.7314C93.6922 31.6146 94.4715 32.5123 94.5929 33.4675L90.2327 33.8489C90.3873 32.5855 91.1363 31.8382 92.3579 31.7314ZM100.078 35.5253C100.28 37.8369 101.525 39.0726 103.893 38.8654C104.682 38.7964 105.238 38.6531 105.689 38.4053L105.507 36.3191C105.199 36.4786 104.773 36.5916 104.115 36.6492C103.176 36.7314 102.576 36.3673 102.484 35.3148L102.145 31.4432L105.039 31.19L104.852 29.0475L101.957 29.3007L101.75 26.9327L99.3446 27.1432L99.5517 29.5112L97.7851 29.6658L97.9726 31.8083L99.7392 31.6537L100.078 35.5253ZM110.511 38.3811C111.62 38.2841 112.707 37.7156 113.244 36.93L113.324 37.8509L115.711 37.6421L115.175 31.5152C114.993 29.4291 113.44 27.9174 110.696 28.1574C108.967 28.3087 107.639 29.1445 106.895 30.3838L108.76 31.5652C109.206 30.8254 109.883 30.3307 110.804 30.2501C111.894 30.1548 112.701 30.728 112.788 31.7241L112.81 31.9684L109.958 32.7102C107.958 33.2261 106.943 34.3944 107.068 35.8227C107.221 37.5706 108.613 38.5471 110.511 38.3811ZM109.426 35.5028C109.375 34.9202 109.753 34.4705 110.734 34.2142L112.956 33.641L113.073 34.9754C112.669 35.7683 111.924 36.3448 110.834 36.4401C110.026 36.5108 109.482 36.1418 109.426 35.5028ZM118.674 26.1717C119.52 26.0977 120.153 25.3227 120.079 24.477C120.005 23.6312 119.247 22.9779 118.401 23.0519C117.555 23.1259 116.904 23.9025 116.978 24.7483C117.052 25.594 117.828 26.2457 118.674 26.1717ZM118.445 37.4029L120.831 37.1941L120.003 27.722L117.616 27.9308L118.445 37.4029ZM123.694 36.9437L126.08 36.7349L124.847 22.6394L122.46 22.8482L123.694 36.9437ZM127.867 35.1961C128.863 36.1884 130.125 36.7598 131.817 36.6118C133.602 36.4556 135.104 35.2258 134.967 33.2303C134.681 29.9602 130.201 30.9203 130.06 29.304C130.017 28.8154 130.338 28.3706 131.09 28.3049C131.823 28.2407 132.486 28.6751 133.027 29.2338L134.484 27.7049C133.727 26.8432 132.35 26.2629 130.903 26.3895C128.93 26.5622 127.631 27.9447 127.777 29.6174C128.068 32.9439 132.543 31.9274 132.688 33.5813C132.737 34.1451 132.382 34.6307 131.611 34.6981C130.709 34.777 129.968 34.3116 129.321 33.6296L127.867 35.1961ZM141.378 30.6242C141.62 33.3869 143.649 35.5766 146.637 35.3152C147.915 35.2034 148.801 34.7281 149.47 33.9311L149.536 34.6828L151.941 34.4723L150.708 20.3769L148.303 20.5874L148.773 25.9624C147.976 25.2936 147.02 24.9795 145.742 25.0913C142.754 25.3527 141.137 27.8615 141.378 30.6242ZM143.878 30.4055C143.733 28.7516 144.662 27.4584 146.278 27.317C147.349 27.2232 148.272 27.597 148.987 28.4056L149.256 31.4878C148.693 32.4083 147.849 32.9366 146.778 33.0303C145.161 33.1717 144.023 32.0594 143.878 30.4055ZM163.388 31.918L161.56 30.7144C161.111 31.4354 160.249 31.9654 159.215 32.0558C157.73 32.1857 156.578 31.5669 156.198 29.82L162.832 29.2396C162.879 28.9135 162.912 28.4183 162.866 27.8921C162.649 25.4113 160.763 23.7771 158.132 24.0073C155.031 24.2786 153.467 26.7448 153.712 29.5451C153.953 32.3078 156.057 34.491 159.421 34.1967C161.207 34.0405 162.609 33.1793 163.388 31.918ZM158.247 25.9668C159.581 25.8501 160.36 26.7477 160.482 27.7029L156.122 28.0844C156.276 26.821 157.025 26.0737 158.247 25.9668ZM170.752 32.8266L173.139 32.6178L171.906 18.5224L169.519 18.7312L170.752 32.8266ZM176.598 24.5128L178.305 18.9094L175.598 19.1462L174.38 24.7068L176.598 24.5128ZM183.926 21.7506C180.844 22.0203 178.938 24.4785 179.186 27.3164C179.435 30.1543 181.739 32.2442 184.821 31.9745C187.903 31.7049 189.809 29.2466 189.561 26.4088C189.312 23.5709 187.008 21.481 183.926 21.7506ZM184.661 29.716C183.082 29.8541 181.812 28.7532 181.667 27.0994C181.522 25.4455 182.582 24.1407 184.161 24.0026C185.683 23.8694 186.935 24.9719 187.08 26.6258C187.223 28.2609 186.183 29.5828 184.661 29.716ZM190.048 21.5938L190.235 23.7363L192.002 23.5818L192.643 30.9114L195.049 30.7009L194.408 23.3713L197.302 23.1181L197.114 20.9756L194.22 21.2288L194.128 20.1763C194.052 19.3118 194.529 18.7019 195.338 18.6312C195.826 18.5885 196.217 18.7247 196.517 18.9068L197.357 16.8259C196.728 16.559 195.977 16.4164 195.113 16.492C192.744 16.6992 191.552 18.4322 191.727 20.4432L191.815 21.4392L190.048 21.5938ZM198.05 20.8937L198.238 23.0362L200.004 22.8817L200.645 30.2113L203.051 30.0008L202.41 22.6712L205.304 22.418L205.117 20.2755L202.222 20.5287L202.13 19.4762C202.055 18.6117 202.532 18.0018 203.34 17.9311C203.828 17.8884 204.219 18.0247 204.519 18.2067L205.36 16.1258C204.73 15.8589 203.979 15.7163 203.115 15.7919C200.747 15.9991 199.554 17.7321 199.73 19.7431L199.817 20.7391L198.05 20.8937ZM207.459 29.6152L209.846 29.4064L209.315 23.3359C209.619 22.7033 210.315 21.9985 211.48 21.8966C211.912 21.8588 212.237 21.8872 212.544 21.9361L212.339 19.5868C212.106 19.5314 211.82 19.4997 211.5 19.5276C210.429 19.6213 209.663 20.1807 209.099 20.8739L209.017 19.9342L206.63 20.1431L207.459 29.6152ZM223.276 26.6785L221.447 25.475C220.999 26.1959 220.136 26.7259 219.102 26.8164C217.618 26.9463 216.465 26.3275 216.085 24.5806L222.719 24.0001C222.767 23.6741 222.799 23.1788 222.753 22.6526C222.536 20.1718 220.651 18.5377 218.02 18.7679C214.919 19.0392 213.354 21.5054 213.599 24.3057C213.841 27.0684 215.945 29.2515 219.309 28.9572C221.094 28.801 222.496 27.9398 223.276 26.6785ZM218.134 20.7274C219.469 20.6106 220.248 21.5083 220.369 22.4635L216.009 22.8449C216.164 21.5815 216.913 20.8342 218.134 20.7274ZM76.346 54.9743C77.1917 54.9003 77.8246 54.1253 77.7506 53.2796C77.6767 52.4339 76.9188 51.7805 76.0731 51.8545C75.2273 51.9285 74.5757 52.7052 74.6496 53.5509C74.7236 54.3966 75.5003 55.0483 76.346 54.9743ZM76.1166 66.2056L78.5034 65.9967L77.6747 56.5246L75.2879 56.7334L76.1166 66.2056ZM81.3657 65.7463L83.7525 65.5375L83.2116 59.3543C83.516 58.7216 84.0092 57.8642 85.0992 57.7688C86.1705 57.6751 86.8531 58.335 86.9534 59.4814L87.4549 65.2136L89.8606 65.0031L89.3508 59.177C89.3377 59.0266 89.3262 58.8951 89.2959 58.7652C89.6158 58.0933 90.1172 57.3298 91.1508 57.2394C92.2221 57.1456 92.9048 57.8055 93.0051 58.952L93.5066 64.6841L95.9122 64.4737L95.4025 58.6475C95.169 55.9788 93.5095 54.7605 91.5549 54.9315C89.9575 55.0712 89.1178 55.8643 88.5136 56.7505C87.8046 55.7898 86.7061 55.3557 85.5033 55.4609C84.3381 55.5629 83.571 56.1034 82.9863 56.7795L82.9238 56.0654L80.537 56.2742L81.3657 65.7463ZM98.6363 64.2353L101.023 64.0265L100.482 57.8433C100.787 57.2107 101.28 56.3532 102.37 56.2578C103.441 56.1641 104.124 56.824 104.224 57.9704L104.726 63.7026L107.131 63.4921L106.621 57.666C106.608 57.5157 106.597 57.3841 106.566 57.2542C106.886 56.5823 107.388 55.8188 108.421 55.7284C109.493 55.6347 110.175 56.2946 110.276 57.441L110.777 63.1731L113.183 62.9627L112.673 57.1366C112.44 54.4678 110.78 53.2495 108.826 53.4205C107.228 53.5602 106.388 54.3533 105.784 55.2395C105.075 54.2789 103.977 53.8447 102.774 53.9499C101.609 54.0519 100.842 54.5924 100.257 55.2685L100.194 54.5544L97.8076 54.7632L98.6363 64.2353ZM124.492 60.4203L122.664 59.2168C122.216 59.9378 121.353 60.4677 120.319 60.5582C118.835 60.6881 117.682 60.0693 117.302 58.3224L123.936 57.7419C123.983 57.4159 124.016 56.9206 123.97 56.3944C123.753 53.9136 121.868 52.2795 119.236 52.5097C116.135 52.781 114.571 55.2472 114.816 58.0475C115.058 60.8102 117.161 62.9934 120.526 62.699C122.311 62.5428 123.713 61.6816 124.492 60.4203ZM119.351 54.4692C120.685 54.3524 121.465 55.2501 121.586 56.2053L117.226 56.5867C117.38 55.3233 118.129 54.576 119.351 54.4692ZM126.791 61.7722L129.177 61.5633L128.646 55.4929C128.951 54.8603 129.647 54.1555 130.812 54.0535C131.244 54.0157 131.568 54.0442 131.876 54.093L131.67 51.7438C131.438 51.6883 131.151 51.6566 130.832 51.6846C129.761 51.7783 128.995 52.3376 128.431 53.0309L128.349 52.0912L125.962 52.3L126.791 61.7722ZM133.479 59.8046C134.474 60.7969 135.736 61.3683 137.428 61.2203C139.213 61.0641 140.715 59.8343 140.579 57.8388C140.293 54.5687 135.813 55.5287 135.671 53.9125C135.628 53.4238 135.949 52.9791 136.701 52.9133C137.434 52.8492 138.097 53.2836 138.638 53.8423L140.095 52.3134C139.338 51.4517 137.962 50.8714 136.515 50.998C134.541 51.1707 133.242 52.5532 133.388 54.2258C133.679 57.5524 138.154 56.5359 138.299 58.1898C138.348 58.7536 137.993 59.2392 137.223 59.3066C136.32 59.3855 135.579 58.9201 134.932 58.2381L133.479 59.8046ZM143.244 49.1215C144.09 49.0475 144.723 48.2725 144.649 47.4267C144.575 46.581 143.817 45.9277 142.971 46.0017C142.126 46.0757 141.474 46.8523 141.548 47.698C141.622 48.5438 142.399 49.1955 143.244 49.1215ZM143.015 60.3527L145.402 60.1439L144.573 50.6717L142.186 50.8806L143.015 60.3527ZM151.913 49.6508C148.831 49.9205 146.925 52.3787 147.173 55.2166C147.421 58.0545 149.725 60.1444 152.807 59.8747C155.89 59.6051 157.796 57.1468 157.547 54.309C157.299 51.4711 154.995 49.3812 151.913 49.6508ZM152.648 57.6162C151.069 57.7543 149.799 56.6534 149.654 54.9995C149.509 53.3457 150.569 52.0409 152.148 51.9028C153.67 51.7696 154.922 52.8721 155.067 54.526C155.21 56.1611 154.17 57.483 152.648 57.6162ZM160.139 58.8546L162.526 58.6458L161.985 52.4625C162.289 51.8299 162.857 50.9659 164.06 50.8606C165.225 50.7587 166.009 51.4855 166.119 52.7447L166.604 58.2889L169.009 58.0785L168.516 52.4403C168.271 49.64 166.513 48.3735 164.464 48.5527C163.205 48.6629 162.365 49.2288 161.763 49.9254L161.697 49.1736L159.31 49.3824L160.139 58.8546Z" fill="#3B69D1"/>
<g filter="url(#filter1_d_5297_13075)">
<rect x="110.168" y="221.103" width="127.02" height="48.0075" rx="24" transform="rotate(-5 110.168 221.103)" fill="#3B69D1" shape-rendering="crispEdges"/>
<path d="M143.303 247.512C141.198 247.696 139.556 246.186 139.369 244.049C139.182 241.913 140.537 240.14 142.642 239.956C143.917 239.844 144.976 240.378 145.693 241.231L147.357 239.688C146.218 238.422 144.481 237.659 142.456 237.836C138.933 238.144 136.763 241.065 137.042 244.253C137.321 247.441 139.965 249.941 143.488 249.633C145.513 249.455 147.093 248.418 147.991 246.941L146.086 245.727C145.528 246.691 144.578 247.401 143.303 247.512ZM152.796 240.08C150.182 240.308 148.565 242.393 148.776 244.801C148.986 247.208 150.94 248.981 153.555 248.752C156.169 248.523 157.786 246.438 157.575 244.031C157.365 241.624 155.41 239.851 152.796 240.08ZM153.419 246.836C152.08 246.953 151.003 246.019 150.88 244.617C150.757 243.214 151.656 242.107 152.995 241.99C154.287 241.877 155.348 242.812 155.471 244.215C155.592 245.602 154.711 246.723 153.419 246.836ZM159.773 247.887L161.798 247.709L161.339 242.465C161.597 241.928 162.079 241.195 163.1 241.106C164.088 241.019 164.752 241.636 164.846 242.704L165.257 247.407L167.298 247.228L166.879 242.446C166.672 240.07 165.18 238.996 163.442 239.148C162.374 239.242 161.661 239.722 161.151 240.312L161.095 239.675L159.07 239.852L159.773 247.887ZM169.85 244.049C170.022 246.01 171.077 247.058 173.086 246.882C173.756 246.824 174.227 246.702 174.61 246.492L174.455 244.723C174.194 244.858 173.833 244.954 173.275 245.003C172.478 245.072 171.969 244.763 171.891 243.871L171.603 240.587L174.058 240.372L173.899 238.555L171.444 238.769L171.269 236.761L169.228 236.939L169.404 238.948L167.905 239.079L168.064 240.896L169.563 240.765L169.85 244.049ZM178.7 246.472C179.641 246.389 180.562 245.907 181.018 245.241L181.086 246.022L183.111 245.845L182.656 240.648C182.502 238.878 181.185 237.596 178.857 237.8C177.39 237.928 176.264 238.637 175.633 239.688L177.214 240.69C177.593 240.063 178.167 239.643 178.948 239.575C179.873 239.494 180.558 239.98 180.632 240.825L180.65 241.032L178.231 241.661C176.535 242.099 175.673 243.09 175.779 244.301C175.909 245.784 177.09 246.612 178.7 246.472ZM177.78 244.03C177.737 243.536 178.057 243.155 178.889 242.937L180.774 242.451L180.873 243.583C180.53 244.255 179.898 244.744 178.974 244.825C178.288 244.885 177.827 244.572 177.78 244.03ZM189.148 243.71C187.793 243.829 186.732 242.91 186.608 241.491C186.486 240.088 187.369 238.983 188.692 238.867C189.521 238.794 190.191 239.105 190.622 239.63L192.094 238.28C191.259 237.357 190.023 236.823 188.556 236.951C185.783 237.194 184.299 239.331 184.504 241.675C184.709 244.018 186.541 245.866 189.315 245.623C190.782 245.495 191.906 244.754 192.568 243.7L190.884 242.627C190.55 243.218 189.945 243.64 189.148 243.71ZM194.525 241.89C194.697 243.851 195.753 244.899 197.761 244.724C198.431 244.665 198.902 244.544 199.285 244.333L199.13 242.564C198.869 242.699 198.508 242.795 197.95 242.844C197.153 242.913 196.644 242.605 196.566 241.712L196.279 238.428L198.734 238.213L198.575 236.396L196.12 236.611L195.944 234.602L193.903 234.78L194.079 236.789L192.581 236.92L192.74 238.738L194.238 238.606L194.525 241.89ZM208.218 242.331L206.667 241.31C206.286 241.922 205.555 242.371 204.678 242.448C203.418 242.558 202.441 242.033 202.118 240.551L207.746 240.059C207.786 239.782 207.813 239.362 207.774 238.916C207.59 236.812 205.991 235.426 203.759 235.621C201.129 235.851 199.802 237.943 200.01 240.318C200.215 242.662 201.999 244.513 204.853 244.264C206.367 244.131 207.556 243.401 208.218 242.331ZM203.856 237.283C204.988 237.184 205.649 237.945 205.752 238.756L202.054 239.079C202.185 238.008 202.82 237.374 203.856 237.283ZM210.167 243.478L212.191 243.301L211.741 238.151C211.999 237.615 212.589 237.017 213.578 236.93C213.945 236.898 214.22 236.923 214.48 236.964L214.306 234.971C214.109 234.924 213.866 234.897 213.595 234.921C212.686 235.001 212.037 235.475 211.558 236.063L211.489 235.266L209.464 235.443L210.167 243.478Z" fill="white"/>
<rect x="110.709" y="221.558" width="126.02" height="47.0075" rx="23.5" transform="rotate(-5 110.709 221.558)" stroke="#3B69D1" shape-rendering="crispEdges"/>
</g>
<g filter="url(#filter2_d_5297_13075)">
<g clip-path="url(#clip1_5297_13075)">
<rect x="0.0175809" y="290.839" width="341.682" height="69.4215" rx="16" transform="rotate(-5 0.0175809 290.839)" fill="white"/>
<path d="M34.6206 311.559C34.3805 311.58 34.1723 311.517 33.996 311.368C33.8191 311.22 33.7202 311.026 33.6991 310.786C33.6781 310.546 33.7419 310.338 33.8903 310.161C34.0383 309.984 34.2323 309.886 34.4724 309.865L40.4037 309.346C40.6438 309.325 40.8523 309.388 41.0292 309.536C41.2055 309.685 41.3042 309.879 41.3252 310.119C41.3462 310.359 41.2827 310.567 41.1348 310.744C40.9864 310.921 40.7921 311.019 40.552 311.04L34.6206 311.559ZM35.2137 318.338C34.9736 318.359 34.7654 318.295 34.589 318.147C34.4122 317.999 34.3132 317.805 34.2922 317.565C34.2712 317.325 34.3349 317.116 34.4834 316.939C34.6313 316.763 34.8253 316.664 35.0654 316.643L40.9968 316.125C41.2369 316.104 41.4454 316.167 41.6222 316.315C41.7986 316.463 41.8973 316.658 41.9183 316.898C41.9393 317.138 41.8758 317.346 41.7279 317.522C41.5794 317.699 41.3851 317.798 41.1451 317.819L35.2137 318.338ZM45.457 311.721L43.4759 310.059C43.3069 309.917 43.212 309.726 43.191 309.486C43.17 309.246 43.2303 309.042 43.3721 308.873C43.5138 308.704 43.7048 308.609 43.9448 308.588C44.1849 308.567 44.3894 308.627 44.5584 308.769L45.8715 309.871L48.6163 306.599C48.771 306.415 48.9616 306.317 49.1881 306.304C49.4147 306.291 49.6202 306.362 49.8045 306.517C49.9746 306.673 50.0696 306.864 50.0894 307.09C50.1092 307.316 50.0488 307.52 49.9083 307.703L46.6433 311.618C46.4887 311.802 46.2984 311.904 46.0724 311.924C45.8465 311.943 45.6413 311.876 45.457 311.721ZM46.0501 318.5L44.0689 316.838C43.9 316.696 43.805 316.505 43.784 316.265C43.763 316.025 43.8234 315.82 43.9651 315.651C44.1069 315.482 44.2978 315.387 44.5379 315.366C44.778 315.345 44.9825 315.406 45.1514 315.548L46.4645 316.649L49.2094 313.378C49.3641 313.194 49.5546 313.095 49.7812 313.082C50.0078 313.07 50.2132 313.141 50.3975 313.296C50.5677 313.451 50.6627 313.642 50.6825 313.868C50.7022 314.094 50.6418 314.299 50.5013 314.482L47.2364 318.396C47.0817 318.581 46.8914 318.683 46.6655 318.702C46.4395 318.722 46.2344 318.655 46.0501 318.5Z" fill="#646464"/>
<path d="M22.7007 339.465L23.6565 339.382L23.1459 333.545L25.5173 336.76L26.2494 336.696L28.0266 333.118L28.5372 338.955L29.493 338.871L28.8703 331.754L27.6501 331.86L25.7882 335.64L23.2982 332.241L22.078 332.348L22.7007 339.465ZM33.3561 333.164C31.6987 333.309 30.6914 334.678 30.8222 336.173C30.9529 337.668 32.1826 338.841 33.84 338.696C35.4873 338.552 36.5047 337.182 36.3739 335.687C36.2432 334.193 35.0033 333.02 33.3561 333.164ZM33.779 337.881C32.6809 337.978 31.8205 337.161 31.7271 336.094C31.6337 335.026 32.3393 334.073 33.4374 333.977C34.5051 333.884 35.3654 334.7 35.4588 335.767C35.5513 336.825 34.8467 337.788 33.779 337.881ZM37.9876 338.128L38.8519 338.052L38.5414 334.504C38.8196 333.936 39.25 333.468 39.9923 333.403C40.7854 333.334 41.3502 333.817 41.4303 334.733L41.6989 337.803L42.5632 337.728L42.2919 334.626C42.1647 333.172 41.2429 332.474 40.094 332.575C39.3313 332.642 38.8311 333.013 38.4542 333.507L38.4035 332.928L37.5392 333.003L37.9876 338.128ZM46.4331 336.682C46.9515 337.221 47.6206 337.49 48.434 337.419C49.3898 337.335 50.0999 336.669 50.0265 335.712C49.8735 333.963 47.333 334.554 47.2324 333.405C47.1977 333.009 47.4642 332.658 48.0132 332.609C48.4606 332.57 48.8684 332.781 49.1767 333.143L49.7321 332.582C49.3327 332.115 48.672 331.824 47.9399 331.888C46.9536 331.975 46.3302 332.695 46.4004 333.499C46.5588 335.308 49.0856 334.678 49.1861 335.827C49.2252 336.274 48.9301 336.648 48.3607 336.698C47.8421 336.743 47.3928 336.526 46.9978 336.11L46.4331 336.682ZM54.9285 334.433C55.0166 335.439 54.5182 336.067 53.6641 336.142C52.7896 336.218 52.2 335.686 52.1119 334.679L51.8557 331.751L50.9914 331.826L51.245 334.724C51.3793 336.26 52.3422 337.077 53.7251 336.956C55.1181 336.834 55.9244 335.862 55.7901 334.327L55.5366 331.429L54.6723 331.504L54.9285 334.433ZM57.5606 329.909C57.8961 329.88 58.1365 329.582 58.1071 329.247C58.0787 328.922 57.7903 328.67 57.4547 328.699C57.1192 328.729 56.8686 329.027 56.8971 329.353C56.9265 329.688 57.225 329.939 57.5606 329.909ZM57.6882 336.404L58.5525 336.329L58.1042 331.204L57.2399 331.28L57.6882 336.404ZM59.1581 331.112L61.6095 336.061L62.7484 335.962L64.3031 330.662L63.3677 330.744L62.0998 335.107L60.0935 331.03L59.1581 331.112ZM65.6831 329.199C66.0187 329.169 66.259 328.872 66.2297 328.536C66.2012 328.211 65.9128 327.959 65.5773 327.989C65.2417 328.018 64.9912 328.317 65.0197 328.642C65.049 328.978 65.3476 329.228 65.6831 329.199ZM65.8108 335.694L66.6751 335.618L66.2267 330.493L65.3624 330.569L65.8108 335.694Z" fill="#646464"/>
<g clip-path="url(#clip2_5297_13075)">
<path d="M101.649 309.964L106.754 309.518C106.994 309.497 107.185 309.398 107.326 309.222C107.467 309.046 107.527 308.838 107.506 308.598C107.485 308.358 107.386 308.164 107.21 308.015C107.033 307.867 106.824 307.804 106.584 307.825L101.479 308.272C101.239 308.293 101.048 308.391 100.907 308.567C100.766 308.743 100.706 308.951 100.727 309.191C100.748 309.431 100.847 309.625 101.023 309.773C101.2 309.922 101.409 309.985 101.649 309.964ZM101.426 307.422L109.921 306.679C110.161 306.658 110.352 306.56 110.493 306.383C110.634 306.208 110.694 306 110.673 305.76C110.652 305.52 110.553 305.325 110.376 305.177C110.2 305.029 109.991 304.965 109.751 304.986L101.257 305.73C101.017 305.751 100.826 305.849 100.685 306.025C100.544 306.201 100.484 306.409 100.505 306.649C100.526 306.889 100.624 307.083 100.801 307.231C100.978 307.38 101.186 307.443 101.426 307.422ZM101.204 304.88L109.698 304.137C109.939 304.116 110.129 304.018 110.27 303.842C110.411 303.666 110.471 303.458 110.45 303.218C110.429 302.978 110.33 302.783 110.154 302.635C109.977 302.487 109.769 302.423 109.529 302.444L101.034 303.188C100.794 303.209 100.604 303.307 100.463 303.483C100.321 303.659 100.261 303.867 100.282 304.107C100.303 304.347 100.402 304.542 100.578 304.69C100.755 304.838 100.964 304.901 101.204 304.88ZM97.8252 315.059L96.6706 301.862C96.6298 301.396 96.761 300.982 97.0641 300.621C97.3667 300.26 97.751 300.06 98.217 300.019L111.774 298.833C112.241 298.792 112.654 298.923 113.015 299.225C113.376 299.528 113.577 299.913 113.617 300.379L114.507 310.547C114.548 311.013 114.417 311.427 114.114 311.788C113.811 312.149 113.427 312.349 112.961 312.39L101.098 313.428L99.3195 315.547C99.0746 315.839 98.7725 315.926 98.4133 315.808C98.0546 315.69 97.8586 315.44 97.8252 315.059ZM99.342 312.877L100.251 311.794L112.812 310.695L111.923 300.527L98.3653 301.713L99.342 312.877Z" fill="#646464"/>
</g>
<path d="M86.3114 333.9L87.2672 333.817L86.7566 327.98L89.128 331.195L89.8601 331.131L91.6373 327.553L92.1479 333.39L93.1037 333.306L92.481 326.188L91.2608 326.295L89.3989 330.075L86.9089 326.676L85.6887 326.783L86.3114 333.9ZM99.5757 331.889L98.8915 331.447C98.596 331.934 98.0635 332.288 97.4025 332.346C96.3044 332.442 95.4565 331.768 95.3184 330.54L99.2534 330.196C99.2715 330.051 99.2851 329.855 99.2673 329.652C99.157 328.391 98.1666 327.494 96.7736 327.616C95.1873 327.755 94.2967 329.052 94.4328 330.608C94.5636 332.102 95.7425 333.28 97.471 333.129C98.4268 333.045 99.1539 332.572 99.5757 331.889ZM96.8173 328.35C97.7222 328.271 98.296 328.856 98.3923 329.606L95.3215 329.874C95.4272 328.974 95.9733 328.424 96.8173 328.35ZM100.352 331.965C100.871 332.504 101.54 332.773 102.353 332.702C103.309 332.618 104.019 331.951 103.946 330.995C103.793 329.246 101.252 329.837 101.152 328.688C101.117 328.291 101.383 327.94 101.932 327.892C102.38 327.853 102.788 328.063 103.096 328.426L103.651 327.865C103.252 327.398 102.591 327.107 101.859 327.171C100.873 327.257 100.249 327.978 100.32 328.781C100.478 330.591 103.005 329.96 103.105 331.109C103.144 331.557 102.849 331.931 102.28 331.981C101.761 332.026 101.312 331.809 100.917 331.393L100.352 331.965ZM104.821 331.574C105.339 332.113 106.008 332.382 106.822 332.311C107.777 332.227 108.488 331.56 108.414 330.604C108.261 328.855 105.721 329.446 105.62 328.297C105.585 327.9 105.852 327.549 106.401 327.501C106.848 327.462 107.256 327.672 107.564 328.035L108.12 327.474C107.72 327.007 107.06 326.716 106.328 326.78C105.341 326.866 104.718 327.587 104.788 328.39C104.946 330.2 107.473 329.569 107.574 330.718C107.613 331.166 107.318 331.54 106.748 331.59C106.23 331.635 105.78 331.418 105.385 331.002L104.821 331.574ZM111.325 331.855C111.986 331.797 112.631 331.444 112.974 330.912L113.031 331.563L113.895 331.487L113.594 328.05C113.496 326.921 112.656 326.226 111.355 326.34C110.46 326.419 109.771 326.858 109.377 327.507L110.071 327.949C110.348 327.484 110.802 327.167 111.392 327.116C112.124 327.052 112.668 327.414 112.73 328.126L112.761 328.482L111.058 328.918C109.986 329.196 109.444 329.796 109.512 330.569C109.588 331.444 110.318 331.943 111.325 331.855ZM110.383 330.462C110.345 330.025 110.633 329.682 111.324 329.499L112.816 329.112L112.905 330.119C112.617 330.697 112.086 331.071 111.405 331.131C110.805 331.184 110.422 330.899 110.383 330.462ZM115.12 332.312C115.21 333.339 116.258 333.842 117.773 333.709C119.309 333.575 120.316 332.677 120.222 331.599C120.142 330.684 119.453 330.079 118.101 330.197L116.637 330.325C116.322 330.353 116.197 330.21 116.178 329.996C116.161 329.803 116.267 329.609 116.467 329.438C116.686 329.48 116.934 329.5 117.188 329.478C118.418 329.37 119.108 328.469 119.022 327.493C118.996 327.188 118.899 326.9 118.734 326.658L119.842 326.561L119.777 325.808L117.875 325.975C117.589 325.867 117.246 325.815 116.87 325.848C115.65 325.954 114.95 326.856 115.037 327.842C115.086 328.411 115.396 328.907 115.873 329.203C115.499 329.492 115.314 329.846 115.35 330.253C115.374 330.528 115.52 330.792 115.77 330.954C115.293 331.354 115.075 331.794 115.12 332.312ZM117.138 328.795C116.376 328.862 115.915 328.4 115.86 327.77C115.805 327.14 116.177 326.595 116.94 326.528C117.682 326.463 118.154 326.934 118.209 327.564C118.263 328.185 117.881 328.73 117.138 328.795ZM115.955 332.137C115.92 331.73 116.107 331.406 116.439 331.111L118.097 330.966C119.012 330.886 119.32 331.248 119.363 331.736C119.422 332.407 118.778 332.894 117.7 332.988C116.683 333.077 116.01 332.757 115.955 332.137ZM125.532 329.618L124.848 329.176C124.552 329.663 124.02 330.017 123.359 330.075C122.261 330.171 121.413 329.497 121.275 328.27L125.21 327.925C125.228 327.78 125.241 327.584 125.224 327.381C125.113 326.12 124.123 325.223 122.73 325.345C121.144 325.484 120.253 326.781 120.389 328.337C120.52 329.832 121.699 331.009 123.427 330.858C124.383 330.774 125.11 330.301 125.532 329.618ZM122.774 326.079C123.679 326 124.252 326.585 124.349 327.335L121.278 327.603C121.384 326.703 121.93 326.153 122.774 326.079ZM126.309 329.694C126.827 330.233 127.496 330.502 128.31 330.431C129.265 330.347 129.976 329.681 129.902 328.724C129.749 326.975 127.209 327.566 127.108 326.417C127.073 326.02 127.34 325.669 127.889 325.621C128.336 325.582 128.744 325.792 129.052 326.155L129.608 325.594C129.208 325.127 128.548 324.836 127.816 324.9C126.829 324.987 126.206 325.707 126.276 326.51C126.434 328.32 128.961 327.689 129.062 328.838C129.101 329.286 128.806 329.66 128.236 329.71C127.718 329.755 127.268 329.538 126.873 329.122L126.309 329.694Z" fill="#646464"/>
<path d="M175.438 306.091C175.607 306.233 175.812 306.294 176.052 306.273C176.292 306.252 176.483 306.157 176.625 305.988C176.766 305.819 176.827 305.614 176.806 305.374C176.785 305.134 176.69 304.943 176.521 304.801L174.931 303.468C175.103 303.154 175.223 302.823 175.293 302.475C175.362 302.128 175.38 301.763 175.346 301.382C175.254 300.323 174.804 299.455 173.998 298.778C173.192 298.102 172.259 297.81 171.2 297.903C170.141 297.995 169.273 298.445 168.596 299.251C167.92 300.057 167.628 300.99 167.72 302.049C167.813 303.108 168.262 303.976 169.068 304.653C169.875 305.33 170.808 305.621 171.867 305.529C172.234 305.497 172.586 305.416 172.923 305.287C173.261 305.158 173.569 304.981 173.849 304.758L175.438 306.091ZM171.719 303.834C171.126 303.886 170.606 303.725 170.161 303.351C169.716 302.978 169.467 302.494 169.415 301.901C169.363 301.308 169.524 300.789 169.898 300.343C170.272 299.898 170.755 299.649 171.348 299.597C171.941 299.545 172.46 299.706 172.906 300.08C173.351 300.454 173.6 300.937 173.652 301.53C173.704 302.123 173.543 302.643 173.169 303.088C172.795 303.534 172.312 303.782 171.719 303.834ZM165.809 309.474C165.342 309.515 164.929 309.384 164.569 309.081C164.207 308.778 164.006 308.394 163.966 307.928L163.076 297.76C163.035 297.294 163.166 296.88 163.47 296.52C163.772 296.158 164.156 295.957 164.622 295.917L178.18 294.73C178.646 294.69 179.059 294.821 179.421 295.124C179.781 295.427 179.982 295.811 180.023 296.277L180.912 306.445C180.953 306.911 180.822 307.325 180.52 307.686C180.217 308.046 179.832 308.247 179.366 308.288L165.809 309.474Z" fill="#3B69D1"/>
<path d="M149.136 328.404L150.58 328.277L150.328 325.4L151.07 325.335L153.224 328.046L154.922 327.898L152.419 324.94C153.122 324.541 153.483 323.864 153.407 322.999C153.291 321.678 152.255 320.959 150.689 321.096L148.513 321.286L149.136 328.404ZM150.876 322.288C151.486 322.235 151.874 322.57 151.921 323.109C151.971 323.688 151.647 324.076 151.037 324.129L150.223 324.2L150.062 322.36L150.876 322.288ZM160.289 326.588L159.299 325.937C159.057 326.327 158.59 326.614 158.031 326.662C157.227 326.733 156.604 326.398 156.398 325.453L159.988 325.139C160.013 324.962 160.031 324.694 160.006 324.41C159.888 323.068 158.868 322.183 157.445 322.308C155.767 322.455 154.921 323.789 155.053 325.304C155.184 326.799 156.322 327.98 158.142 327.821C159.108 327.736 159.867 327.27 160.289 326.588ZM157.507 323.368C158.229 323.305 158.65 323.791 158.716 324.307L156.357 324.514C156.441 323.83 156.846 323.426 157.507 323.368ZM163.864 326.091C163 326.166 162.323 325.58 162.244 324.675C162.166 323.78 162.729 323.075 163.573 323.001C164.102 322.955 164.529 323.153 164.804 323.488L165.743 322.627C165.21 322.038 164.422 321.698 163.487 321.779C161.717 321.934 160.771 323.298 160.902 324.792C161.033 326.287 162.201 327.466 163.971 327.311C164.906 327.229 165.623 326.756 166.046 326.084L164.971 325.4C164.759 325.777 164.372 326.046 163.864 326.091ZM167.083 326.834L168.374 326.721L168.081 323.375C168.246 323.033 168.553 322.566 169.204 322.509C169.845 322.453 170.258 322.847 170.318 323.528L170.58 326.528L171.882 326.414L171.615 323.363C171.483 321.848 170.531 321.163 169.423 321.26C168.742 321.32 168.287 321.626 167.961 322.003L167.707 319.095L166.415 319.208L167.083 326.834ZM177.993 325.039L177.004 324.388C176.761 324.778 176.295 325.065 175.736 325.114C174.932 325.184 174.309 324.849 174.103 323.904L177.692 323.59C177.718 323.413 177.735 323.146 177.711 322.861C177.593 321.519 176.573 320.634 175.15 320.759C173.472 320.906 172.626 322.24 172.758 323.755C172.889 325.25 174.027 326.431 175.847 326.272C176.813 326.187 177.571 325.721 177.993 325.039ZM175.212 321.819C175.934 321.756 176.355 322.242 176.421 322.758L174.062 322.965C174.146 322.281 174.551 321.877 175.212 321.819ZM179.237 325.77L180.528 325.657L180.241 322.373C180.405 322.031 180.782 321.649 181.412 321.594C181.646 321.574 181.822 321.589 181.988 321.616L181.877 320.345C181.751 320.315 181.596 320.298 181.423 320.313C180.844 320.363 180.429 320.666 180.124 321.041L180.08 320.533L178.788 320.646L179.237 325.77ZM185.521 324.196C184.656 324.272 183.98 323.685 183.901 322.78C183.823 321.885 184.386 321.18 185.23 321.107C185.759 321.06 186.186 321.259 186.461 321.593L187.4 320.732C186.867 320.144 186.079 319.803 185.144 319.885C183.374 320.039 182.428 321.403 182.559 322.898C182.69 324.392 183.858 325.571 185.627 325.416C186.563 325.334 187.28 324.862 187.703 324.189L186.628 323.505C186.415 323.882 186.029 324.151 185.521 324.196ZM188.739 324.939L190.031 324.826L189.738 321.481C189.903 321.138 190.21 320.671 190.861 320.614C191.502 320.558 191.915 320.952 191.975 321.633L192.237 324.633L193.539 324.519L193.272 321.469C193.139 319.954 192.188 319.268 191.08 319.365C190.398 319.425 189.944 319.731 189.618 320.108L189.364 317.2L188.072 317.313L188.739 324.939ZM199.65 323.144L198.661 322.493C198.418 322.883 197.952 323.17 197.392 323.219C196.589 323.289 195.966 322.954 195.76 322.009L199.349 321.695C199.375 321.519 199.392 321.251 199.367 320.966C199.25 319.624 198.23 318.74 196.806 318.864C195.129 319.011 194.282 320.345 194.415 321.86C194.546 323.355 195.684 324.536 197.504 324.377C198.47 324.293 199.228 323.827 199.65 323.144ZM196.868 319.924C197.59 319.861 198.012 320.347 198.078 320.864L195.719 321.07C195.802 320.387 196.208 319.982 196.868 319.924Z" fill="#3B69D1"/>
<path d="M231.361 303.953L229.439 302.477C227.897 301.289 226.448 300.056 225.092 298.78C223.735 297.505 222.979 295.977 222.823 294.198C222.692 292.701 223.091 291.406 224.02 290.315C224.949 289.223 226.162 288.612 227.659 288.481C228.492 288.408 229.256 288.512 229.949 288.793C230.642 289.073 231.21 289.38 231.652 289.711C232.029 289.308 232.535 288.908 233.169 288.511C233.803 288.114 234.537 287.879 235.37 287.806C236.867 287.675 238.168 288.066 239.272 288.98C240.377 289.894 240.994 291.099 241.125 292.596C241.281 294.376 240.802 296.011 239.687 297.503C238.573 298.996 237.366 300.453 236.067 301.876L234.411 303.686C234.023 304.132 233.533 304.382 232.94 304.433C232.347 304.485 231.82 304.325 231.361 303.953ZM230.8 292.176C230.524 291.788 230.13 291.434 229.619 291.116C229.107 290.798 228.519 290.668 227.856 290.726C226.98 290.803 226.277 291.149 225.748 291.764C225.218 292.38 224.992 293.125 225.068 294.001C225.135 294.764 225.47 295.538 226.073 296.325C226.675 297.112 227.381 297.872 228.192 298.605C229.004 299.338 229.832 300.013 230.676 300.63C231.519 301.246 232.208 301.758 232.741 302.167C233.196 301.672 233.785 301.048 234.509 300.294C235.233 299.541 235.931 298.732 236.603 297.869C237.274 297.006 237.838 296.135 238.295 295.256C238.752 294.376 238.947 293.555 238.88 292.793C238.803 291.917 238.451 291.222 237.822 290.708C237.194 290.194 236.442 289.975 235.566 290.052C234.903 290.11 234.343 290.34 233.887 290.742C233.431 291.145 233.109 291.562 232.918 291.991C232.823 292.198 232.684 292.364 232.503 292.487C232.322 292.609 232.132 292.679 231.934 292.696C231.722 292.715 231.516 292.679 231.316 292.59C231.116 292.501 230.944 292.363 230.8 292.176Z" fill="#646464"/>
<path d="M218.627 322.324L219.583 322.24L219.301 319.017L221.762 318.802L221.691 317.999L219.231 318.214L219.031 315.936L221.899 315.685L221.828 314.872L218.004 315.206L218.627 322.324ZM224.873 321.921C225.534 321.863 226.18 321.51 226.522 320.978L226.579 321.628L227.444 321.553L227.143 318.116C227.044 316.987 226.205 316.292 224.903 316.406C224.008 316.484 223.319 316.924 222.925 317.573L223.62 318.014C223.897 317.55 224.351 317.233 224.94 317.182C225.672 317.118 226.216 317.48 226.279 318.192L226.31 318.547L224.606 318.983C223.534 319.262 222.992 319.862 223.06 320.635C223.137 321.51 223.867 322.009 224.873 321.921ZM223.932 320.528C223.894 320.091 224.181 319.748 224.872 319.565L226.365 319.178L226.453 320.185C226.166 320.763 225.635 321.137 224.953 321.197C224.354 321.249 223.97 320.965 223.932 320.528ZM227.907 316.348L230.358 321.298L231.497 321.198L233.052 315.898L232.116 315.98L230.848 320.343L228.842 316.266L227.907 316.348ZM236.353 315.404C234.695 315.549 233.688 316.918 233.819 318.413C233.949 319.908 235.179 321.081 236.836 320.936C238.484 320.792 239.501 319.422 239.37 317.927C239.24 316.433 238 315.26 236.353 315.404ZM236.775 320.122C235.677 320.218 234.817 319.402 234.724 318.334C234.63 317.266 235.336 316.313 236.434 316.217C237.502 316.124 238.362 316.94 238.455 318.007C238.548 319.065 237.843 320.028 236.775 320.122ZM240.984 320.368L241.848 320.293L241.541 316.774C241.81 316.228 242.217 315.844 242.888 315.786C243.092 315.768 243.246 315.775 243.402 315.802L243.328 314.958C243.203 314.928 243.048 314.921 242.886 314.935C242.235 314.992 241.793 315.328 241.456 315.808L241.4 315.168L240.536 315.243L240.984 320.368ZM244.898 313.52C245.233 313.49 245.474 313.193 245.444 312.857C245.416 312.532 245.127 312.28 244.792 312.31C244.456 312.339 244.206 312.637 244.234 312.963C244.264 313.298 244.562 313.549 244.898 313.52ZM245.025 320.015L245.89 319.939L245.441 314.814L244.577 314.89L245.025 320.015ZM247.066 319.129C247.585 319.668 248.254 319.937 249.067 319.866C250.023 319.782 250.733 319.116 250.66 318.159C250.507 316.41 247.966 317.001 247.866 315.852C247.831 315.456 248.097 315.104 248.646 315.056C249.094 315.017 249.502 315.227 249.81 315.59L250.365 315.029C249.966 314.562 249.305 314.271 248.573 314.335C247.587 314.422 246.963 315.142 247.034 315.945C247.192 317.755 249.719 317.124 249.819 318.273C249.858 318.721 249.563 319.095 248.994 319.145C248.475 319.19 248.026 318.973 247.631 318.557L247.066 319.129Z" fill="#646464"/>
<path d="M293.832 295.285C293.239 295.337 292.719 295.176 292.274 294.802C291.829 294.429 291.58 293.945 291.528 293.352C291.476 292.759 291.637 292.24 292.011 291.794C292.384 291.349 292.868 291.1 293.461 291.048C294.054 290.997 294.573 291.158 295.019 291.531C295.464 291.905 295.713 292.388 295.765 292.982C295.817 293.575 295.656 294.094 295.282 294.539C294.908 294.985 294.425 295.233 293.832 295.285ZM290.85 300.242C290.384 300.283 289.97 300.152 289.609 299.849C289.249 299.546 289.048 299.162 289.007 298.696L287.969 286.833C287.928 286.367 288.059 285.954 288.362 285.593C288.665 285.232 289.05 285.031 289.516 284.99L290.363 284.916L290.289 284.069C290.268 283.828 290.331 283.62 290.479 283.443C290.628 283.267 290.822 283.168 291.062 283.147C291.302 283.126 291.511 283.189 291.687 283.337C291.864 283.486 291.963 283.68 291.984 283.92L292.058 284.768L298.836 284.175L298.762 283.327C298.741 283.087 298.805 282.879 298.953 282.702C299.101 282.525 299.295 282.427 299.535 282.406C299.776 282.385 299.984 282.448 300.16 282.596C300.337 282.745 300.436 282.939 300.457 283.179L300.531 284.026L301.378 283.952C301.844 283.911 302.258 284.043 302.619 284.346C302.98 284.648 303.181 285.032 303.221 285.499L304.259 297.361C304.3 297.827 304.169 298.241 303.867 298.602C303.563 298.963 303.179 299.163 302.713 299.204L290.85 300.242ZM290.702 298.547L302.565 297.51L301.823 289.036L289.96 290.074L290.702 298.547Z" fill="#646464"/>
<path d="M271.183 309.939L272.364 308.453L271.327 308.543L270.298 310.017L271.183 309.939ZM269.48 317.875L273.303 317.541L273.232 316.727L270.364 316.978L270.153 314.568L272.614 314.353L272.544 313.55L270.083 313.765L269.884 311.487L272.751 311.236L272.68 310.423L268.857 310.757L269.48 317.875ZM273.546 312.355L275.998 317.305L277.136 317.205L278.691 311.905L277.756 311.987L276.488 316.35L274.482 312.274L273.546 312.355ZM282.203 310.778L283.245 308.986L282.269 309.072L281.359 310.852L282.203 310.778ZM284.601 315.702L283.917 315.26C283.621 315.746 283.089 316.1 282.428 316.158C281.329 316.254 280.482 315.581 280.343 314.353L284.279 314.009C284.297 313.864 284.31 313.668 284.292 313.464C284.182 312.204 283.192 311.307 281.799 311.428C280.212 311.567 279.322 312.864 279.458 314.42C279.589 315.915 280.768 317.092 282.496 316.941C283.452 316.858 284.179 316.384 284.601 315.702ZM281.842 312.162C282.747 312.083 283.321 312.668 283.417 313.418L280.347 313.687C280.452 312.786 280.998 312.236 281.842 312.162ZM286.028 316.427L286.892 316.352L286.581 312.803C286.86 312.236 287.29 311.768 288.032 311.703C288.825 311.633 289.39 312.117 289.47 313.032L289.739 316.103L290.603 316.027L290.332 312.926C290.205 311.472 289.283 310.774 288.134 310.874C287.371 310.941 286.871 311.313 286.494 311.807L286.444 311.227L285.579 311.303L286.028 316.427ZM296.824 314.632L296.14 314.19C295.845 314.677 295.312 315.031 294.651 315.089C293.553 315.185 292.705 314.511 292.567 313.283L296.502 312.939C296.52 312.794 296.534 312.598 296.516 312.395C296.406 311.134 295.415 310.237 294.022 310.359C292.436 310.498 291.545 311.795 291.681 313.351C291.812 314.845 292.991 316.023 294.72 315.872C295.675 315.788 296.403 315.315 296.824 314.632ZM294.066 311.093C294.971 311.014 295.545 311.599 295.641 312.349L292.57 312.617C292.676 311.717 293.222 311.167 294.066 311.093ZM298.251 315.358L299.115 315.282L298.805 311.734C299.054 311.179 299.453 310.704 300.154 310.642C300.896 310.577 301.407 311.024 301.482 311.879L301.759 315.051L302.623 314.975L302.343 311.772C302.332 311.65 302.313 311.539 302.293 311.428C302.576 310.799 303.001 310.393 303.652 310.336C304.384 310.272 304.905 310.718 304.979 311.573L305.257 314.745L306.121 314.669L305.841 311.466C305.719 310.073 304.852 309.412 303.754 309.508C302.869 309.585 302.367 310.059 302.01 310.654C301.638 310.031 300.998 309.749 300.256 309.814C299.544 309.876 299.063 310.236 298.716 310.717L298.667 310.158L297.803 310.233L298.251 315.358ZM312.345 313.274L311.66 312.832C311.365 313.319 310.832 313.673 310.171 313.731C309.073 313.827 308.225 313.153 308.087 311.926L312.022 311.581C312.04 311.436 312.054 311.24 312.036 311.037C311.926 309.776 310.935 308.879 309.542 309.001C307.956 309.14 307.066 310.437 307.202 311.993C307.333 313.488 308.511 314.665 310.24 314.514C311.196 314.43 311.923 313.957 312.345 313.274ZM309.586 309.735C310.491 309.656 311.065 310.241 311.161 310.991L308.09 311.259C308.196 310.359 308.742 309.809 309.586 309.735ZM313.771 314L314.636 313.924L314.325 310.376C314.603 309.808 315.034 309.34 315.776 309.275C316.569 309.206 317.134 309.689 317.214 310.605L317.483 313.675L318.347 313.6L318.076 310.498C317.948 309.044 317.027 308.346 315.878 308.447C315.115 308.514 314.615 308.885 314.238 309.379L314.187 308.8L313.323 308.875L313.771 314ZM320.231 311.703C320.341 312.954 321.031 313.467 322.17 313.368C322.536 313.336 322.807 313.271 323.042 313.148L322.974 312.375C322.788 312.473 322.558 312.535 322.223 312.564C321.602 312.618 321.176 312.43 321.106 311.627L320.876 309.003L322.656 308.848L322.587 308.065L320.808 308.221L320.696 306.939L319.821 307.016L319.933 308.297L318.967 308.382L319.036 309.164L320.002 309.08L320.231 311.703ZM323.746 312.42C324.264 312.959 324.934 313.228 325.747 313.157C326.703 313.074 327.413 312.407 327.339 311.45C327.186 309.701 324.646 310.293 324.545 309.144C324.511 308.747 324.777 308.396 325.326 308.348C325.774 308.309 326.181 308.519 326.49 308.881L327.045 308.32C326.646 307.853 325.985 307.563 325.253 307.627C324.267 307.713 323.643 308.434 323.713 309.237C323.872 311.047 326.399 310.416 326.499 311.565C326.538 312.012 326.243 312.386 325.674 312.436C325.155 312.482 324.706 312.265 324.311 311.848L323.746 312.42Z" fill="#646464"/>
</g>
</g>
<path d="M260.255 227.173C264.752 226.314 269.064 225.472 273.376 224.647C274.235 224.478 274.841 224.36 275.953 224.327C276.778 224.293 278.53 224.259 278.378 225.152C278.176 225.876 277.94 226.365 276.475 226.803C272.685 227.914 268.761 228.453 264.87 229.009C261.434 229.497 258.807 229.817 255.741 230.07C254.309 230.188 253.737 229.481 253.905 228.167C254.057 226.988 254.192 225.775 254.562 224.647C255.876 220.571 257.291 216.545 258.672 212.486C258.84 211.981 258.941 211.577 259.228 211.004C259.581 210.313 259.8 209.791 260.525 209.993C261.215 210.179 261.181 211.189 261.064 211.694C260.171 215.939 258.183 224.664 258.183 225.152C260.39 223.737 262.461 222.474 264.466 221.093C278.378 211.408 291.482 200.814 301.908 187.239C310.161 176.493 316.999 164.955 322.052 152.374C322.355 151.633 322.725 150.908 323.096 150.218C323.584 149.275 324.005 148.87 324.511 149.089C325.403 149.628 325.235 150.353 325.151 150.942C324.999 152.121 324.595 153.283 324.208 154.412C318.868 169.453 310.38 182.624 300.122 194.734C289.595 207.164 276.727 216.731 263 225.236C262.259 225.657 260.525 226.87 260.255 227.173Z" fill="black"/>
<defs>
<filter id="filter0_d_5297_13075" x="21.6139" y="52.0321" width="303.615" height="235.351" filterUnits="userSpaceOnUse" color-interpolation-filters="sRGB">
<feFlood flood-opacity="0" result="BackgroundImageFix"/>
<feColorMatrix in="SourceAlpha" type="matrix" values="0 0 0 0 0 0 0 0 0 0 0 0 0 0 0 0 0 0 127 0" result="hardAlpha"/>
<feOffset dy="4.41346"/>
<feGaussianBlur stdDeviation="9.19471"/>
<feComposite in2="hardAlpha" operator="out"/>
<feColorMatrix type="matrix" values="0 0 0 0 0.196078 0 0 0 0 0.196078 0 0 0 0 0.196078 0 0 0 0.1 0"/>
<feBlend mode="normal" in2="BackgroundImageFix" result="effect1_dropShadow_5297_13075"/>
<feBlend mode="normal" in="SourceGraphic" in2="effect1_dropShadow_5297_13075" result="shape"/>
</filter>
<filter id="filter1_d_5297_13075" x="98.1657" y="202.031" width="154.724" height="82.899" filterUnits="userSpaceOnUse" color-interpolation-filters="sRGB">
<feFlood flood-opacity="0" result="BackgroundImageFix"/>
<feColorMatrix in="SourceAlpha" type="matrix" values="0 0 0 0 0 0 0 0 0 0 0 0 0 0 0 0 0 0 127 0" result="hardAlpha"/>
<feOffset dy="4"/>
<feGaussianBlur stdDeviation="6"/>
<feComposite in2="hardAlpha" operator="out"/>
<feColorMatrix type="matrix" values="0 0 0 0 0.152941 0 0 0 0 0.286275 0 0 0 0 0.588235 0 0 0 0.12 0"/>
<feBlend mode="normal" in2="BackgroundImageFix" result="effect1_dropShadow_5297_13075"/>
<feBlend mode="normal" in="SourceGraphic" in2="effect1_dropShadow_5297_13075" result="shape"/>
</filter>
<filter id="filter2_d_5297_13075" x="-24.9863" y="242.056" width="396.441" height="148.945" filterUnits="userSpaceOnUse" color-interpolation-filters="sRGB">
<feFlood flood-opacity="0" result="BackgroundImageFix"/>
<feColorMatrix in="SourceAlpha" type="matrix" values="0 0 0 0 0 0 0 0 0 0 0 0 0 0 0 0 0 0 127 0" result="hardAlpha"/>
<feOffset dy="6"/>
<feGaussianBlur stdDeviation="12.5"/>
<feComposite in2="hardAlpha" operator="out"/>
<feColorMatrix type="matrix" values="0 0 0 0 0.196078 0 0 0 0 0.196078 0 0 0 0 0.196078 0 0 0 0.1 0"/>
<feBlend mode="normal" in2="BackgroundImageFix" result="effect1_dropShadow_5297_13075"/>
<feBlend mode="normal" in="SourceGraphic" in2="effect1_dropShadow_5297_13075" result="shape"/>
</filter>
<clipPath id="clip0_5297_13075">
<rect width="11.7692" height="11.7692" fill="white" transform="translate(62.5376 140.305) rotate(-5)"/>
</clipPath>
<clipPath id="clip1_5297_13075">
<rect x="0.0175809" y="290.839" width="341.682" height="69.4215" rx="16" transform="rotate(-5 0.0175809 290.839)" fill="white"/>
</clipPath>
<clipPath id="clip2_5297_13075">
<rect width="20.4107" height="20.4107" fill="white" transform="translate(94.6798 298.621) rotate(-5)"/>
</clipPath>
</defs>
</svg>
