<svg width="388" height="232" viewBox="0 0 388 232" fill="none" xmlns="http://www.w3.org/2000/svg">
<g id="img_new_recherche suggere">
<g id="Group 2">
<rect id="Rectangle 234" x="42.7223" y="28.9544" width="326" height="150.284" rx="11.5" transform="rotate(-5 42.7223 28.9544)" fill="#F1F1F1" stroke="#878787" stroke-dasharray="5 5"/>
<g id="Contrat Engagement Jeune" filter="url(#filter0_d_3723_11393)">
<rect x="24" y="50.2542" width="328" height="152" rx="16" transform="rotate(-5 24 50.2542)" fill="white"/>
</g>
</g>
<g id="event_card">
<rect x="42" y="90.4507" width="297.639" height="52" rx="16" transform="rotate(-5.11156 42 90.4507)" fill="white"/>
<g id="add_alert">
<path id="Vector" d="M74.1813 124.72C75.2769 124.622 76.084 123.656 75.986 122.56L72.0219 122.915C72.1199 124.011 73.0856 124.818 74.1813 124.72ZM80.6188 118.12L80.0843 112.144C79.7858 108.807 77.1857 106.229 73.9976 105.831L73.8934 104.666C73.8194 103.839 73.0924 103.231 72.2657 103.305C71.439 103.379 70.8314 104.106 70.9053 104.933L71.0096 106.098C67.9426 107.055 65.8415 110.055 66.14 113.391L66.6745 119.367L65.5046 120.767C64.9332 121.451 65.4677 122.487 66.3542 122.408L81.4638 121.056C82.3503 120.977 82.7023 119.861 82.0187 119.29L80.6188 118.12ZM76.2793 114.502L74.2872 114.68L74.4654 116.672C74.5144 117.22 74.1063 117.709 73.5585 117.758C73.0107 117.807 72.5224 117.398 72.4734 116.851L72.2952 114.859L70.3031 115.037C69.7553 115.086 69.267 114.678 69.218 114.13L69.2171 114.12C69.1681 113.572 69.5762 113.084 70.124 113.035L72.1161 112.857L71.9379 110.865C71.8889 110.317 72.297 109.828 72.8448 109.779C73.3926 109.73 73.8809 110.139 73.9299 110.686L74.1081 112.678L76.1002 112.5C76.648 112.451 77.1363 112.859 77.1853 113.407L77.1862 113.417C77.2352 113.965 76.8271 114.453 76.2793 114.502Z" fill="#950EFF"/>
</g>
<path id="Vos recherches sugger&#195;&#169;es" d="M97.0898 107.41L102.311 118.188L105.275 117.922L108.5 106.389L106.094 106.604L103.575 115.617L99.4961 107.195L97.0898 107.41ZM113.203 108.796C110.589 109.03 108.977 111.117 109.192 113.524C109.407 115.93 111.365 117.699 113.978 117.465C116.592 117.231 118.204 115.143 117.989 112.737C117.774 110.331 115.816 108.562 113.203 108.796ZM113.839 115.55C112.5 115.67 111.421 114.738 111.296 113.336C111.17 111.933 112.067 110.825 113.406 110.705C114.696 110.59 115.76 111.523 115.885 112.925C116.009 114.312 115.13 115.434 113.839 115.55ZM119.124 115.511C119.97 116.351 121.042 116.833 122.476 116.705C123.99 116.57 125.262 115.524 125.143 113.832C124.895 111.059 121.097 111.881 120.974 110.51C120.937 110.096 121.208 109.718 121.846 109.661C122.467 109.606 123.03 109.973 123.49 110.446L124.724 109.147C124.08 108.417 122.912 107.927 121.685 108.037C120.011 108.187 118.912 109.361 119.038 110.78C119.291 113.6 123.084 112.731 123.21 114.133C123.253 114.611 122.952 115.024 122.299 115.082C121.534 115.151 120.904 114.757 120.355 114.18L119.124 115.511ZM131.508 115.576L133.532 115.395L133.072 110.247C133.329 109.71 133.918 109.111 134.906 109.023C135.273 108.99 135.548 109.014 135.808 109.055L135.63 107.063C135.433 107.016 135.19 106.99 134.919 107.014C134.011 107.095 133.362 107.571 132.885 108.16L132.814 107.363L130.79 107.544L131.508 115.576ZM144.918 113.059L143.365 112.041C142.986 112.654 142.255 113.104 141.379 113.183C140.12 113.295 139.141 112.773 138.816 111.292L144.441 110.788C144.481 110.512 144.508 110.092 144.468 109.646C144.28 107.542 142.678 106.159 140.447 106.359C137.817 106.594 136.495 108.688 136.707 111.063C136.917 113.405 138.704 115.253 141.557 114.998C143.071 114.863 144.258 114.13 144.918 113.059ZM140.547 108.02C141.679 107.919 142.341 108.679 142.446 109.489L138.749 109.82C138.878 108.748 139.511 108.113 140.547 108.02ZM150.521 112.269C149.166 112.39 148.104 111.473 147.977 110.055C147.852 108.652 148.733 107.545 150.055 107.427C150.884 107.353 151.554 107.662 151.987 108.186L153.456 106.834C152.619 105.913 151.382 105.381 149.916 105.512C147.143 105.76 145.664 107.9 145.874 110.243C146.083 112.585 147.919 114.429 150.692 114.181C152.158 114.05 153.28 113.307 153.941 112.252L152.255 111.182C151.922 111.774 151.317 112.197 150.521 112.269ZM155.568 113.424L157.592 113.243L157.123 107.999C157.381 107.462 157.861 106.729 158.881 106.637C159.885 106.548 160.535 107.164 160.63 108.232L161.051 112.933L163.09 112.751L162.663 107.97C162.45 105.595 160.957 104.524 159.22 104.679C158.152 104.775 157.44 105.256 156.931 105.848L156.523 101.29L154.499 101.471L155.568 113.424ZM172.666 110.577L171.113 109.559C170.734 110.171 170.004 110.622 169.127 110.701C167.868 110.813 166.89 110.29 166.565 108.81L172.19 108.306C172.23 108.03 172.256 107.61 172.216 107.163C172.028 105.06 170.427 103.677 168.195 103.877C165.566 104.112 164.243 106.206 164.456 108.58C164.665 110.923 166.453 112.771 169.306 112.516C170.82 112.381 172.007 111.648 172.666 110.577ZM168.296 105.538C169.427 105.437 170.09 106.197 170.194 107.007L166.497 107.338C166.626 106.266 167.26 105.631 168.296 105.538ZM174.617 111.72L176.641 111.539L176.181 106.391C176.438 105.854 177.027 105.255 178.015 105.167C178.382 105.134 178.657 105.158 178.918 105.199L178.739 103.207C178.542 103.16 178.299 103.133 178.028 103.158C177.12 103.239 176.472 103.715 175.994 104.303L175.923 103.507L173.899 103.688L174.617 111.72ZM184.463 109.233C183.109 109.354 182.047 108.437 181.92 107.018C181.794 105.616 182.675 104.509 183.998 104.391C184.827 104.317 185.497 104.626 185.929 105.15L187.399 103.797C186.561 102.876 185.325 102.344 183.859 102.475C181.086 102.724 179.607 104.864 179.816 107.206C180.026 109.549 181.861 111.393 184.634 111.145C186.1 111.014 187.223 110.271 187.883 109.216L186.197 108.146C185.865 108.738 185.26 109.161 184.463 109.233ZM189.511 110.387L191.535 110.206L191.066 104.963C191.323 104.426 191.804 103.692 192.824 103.601C193.828 103.511 194.477 104.128 194.573 105.196L194.993 109.897L197.033 109.715L196.605 104.934C196.393 102.559 194.9 101.488 193.163 101.643C192.095 101.739 191.383 102.22 190.874 102.812L190.466 98.254L188.442 98.4351L189.511 110.387ZM206.609 107.541L205.056 106.523C204.677 107.135 203.946 107.586 203.07 107.665C201.811 107.777 200.832 107.254 200.507 105.773L206.133 105.27C206.172 104.993 206.199 104.573 206.159 104.127C205.971 102.024 204.369 100.641 202.138 100.84C199.509 101.076 198.186 103.17 198.398 105.544C198.608 107.887 200.396 109.735 203.248 109.48C204.762 109.344 205.95 108.612 206.609 107.541ZM202.239 102.502C203.37 102.401 204.032 103.161 204.137 103.971L200.44 104.301C200.569 103.23 201.203 102.595 202.239 102.502ZM207.646 107.593C208.492 108.432 209.563 108.915 210.998 108.787C212.512 108.651 213.783 107.606 213.664 105.914C213.416 103.141 209.618 103.962 209.496 102.592C209.459 102.177 209.73 101.8 210.367 101.743C210.989 101.687 211.552 102.054 212.012 102.527L213.245 101.228C212.602 100.499 211.433 100.009 210.206 100.119C208.533 100.268 207.433 101.443 207.56 102.861C207.812 105.682 211.606 104.813 211.731 106.215C211.774 106.693 211.474 107.106 210.82 107.164C210.055 107.232 209.426 106.839 208.876 106.262L207.646 107.593ZM219.225 106.557C220.071 107.397 221.142 107.879 222.576 107.751C224.09 107.615 225.362 106.57 225.243 104.878C224.995 102.105 221.197 102.927 221.074 101.556C221.037 101.142 221.309 100.764 221.946 100.707C222.568 100.651 223.131 101.019 223.591 101.492L224.824 100.193C224.18 99.4631 223.012 98.9732 221.785 99.083C220.112 99.2326 219.012 100.407 219.139 101.826C219.391 104.646 223.185 103.777 223.31 105.179C223.353 105.657 223.052 106.07 222.399 106.128C221.634 106.197 221.005 105.803 220.455 105.226L219.225 106.557ZM232.293 103.059C232.397 104.222 231.856 104.993 230.756 105.092C229.641 105.191 228.971 104.528 228.867 103.365L228.459 98.8072L226.42 98.9897L226.819 103.452C227.034 105.858 228.553 107.216 230.912 107.005C233.27 106.794 234.54 105.187 234.325 102.78L233.926 98.3182L231.886 98.5007L232.293 103.059ZM236.104 107.633C236.255 109.322 237.849 110.079 240.415 109.85C242.917 109.626 244.499 108.103 244.34 106.318C244.206 104.82 243.009 103.835 240.985 104.016L238.961 104.197C238.595 104.23 238.405 104.086 238.377 103.767C238.361 103.592 238.441 103.408 238.602 103.233C238.845 103.26 239.102 103.253 239.373 103.228C241.444 103.043 242.51 101.663 242.369 100.085C242.344 99.8141 242.29 99.562 242.187 99.3141L243.605 99.1873L243.452 97.4661L240.519 97.7284C240.039 97.5626 239.487 97.4995 238.865 97.5551C236.857 97.7347 235.759 99.102 235.898 100.664C235.978 101.556 236.432 102.319 237.18 102.782C236.615 103.282 236.389 103.817 236.446 104.454C236.483 104.868 236.697 105.283 237.044 105.573C236.374 106.163 236.033 106.836 236.104 107.633ZM239.268 101.696C238.391 101.774 237.818 101.295 237.747 100.498C237.677 99.7176 238.156 99.1446 239.032 99.0662C239.877 98.9907 240.465 99.4522 240.536 100.249C240.607 101.046 240.112 101.62 239.268 101.696ZM237.991 107.175C237.947 106.681 238.154 106.309 238.431 105.995L240.918 105.773C241.89 105.686 242.295 106.083 242.349 106.689C242.42 107.486 241.72 108.095 240.253 108.226C238.835 108.353 238.059 107.94 237.991 107.175ZM245.115 106.827C245.266 108.516 246.86 109.273 249.426 109.044C251.928 108.82 253.51 107.297 253.351 105.512C253.217 104.014 252.02 103.029 249.996 103.21L247.972 103.391C247.606 103.424 247.416 103.28 247.388 102.961C247.372 102.786 247.452 102.602 247.613 102.427C247.856 102.454 248.113 102.447 248.384 102.422C250.455 102.237 251.521 100.857 251.379 99.279C251.355 99.0081 251.301 98.756 251.198 98.5081L252.616 98.3812L252.462 96.6601L249.53 96.9224C249.049 96.7566 248.498 96.6935 247.876 96.7491C245.868 96.9287 244.77 98.296 244.909 99.8578C244.989 100.75 245.443 101.513 246.191 101.976C245.625 102.476 245.4 103.011 245.457 103.648C245.494 104.062 245.708 104.477 246.055 104.767C245.385 105.357 245.044 106.03 245.115 106.827ZM248.279 100.89C247.402 100.968 246.829 100.489 246.758 99.6924C246.688 98.9115 247.167 98.3386 248.043 98.2602C248.888 98.1846 249.475 98.6461 249.547 99.4429C249.618 100.24 249.123 100.814 248.279 100.89ZM247.002 106.369C246.958 105.875 247.165 105.503 247.442 105.189L249.928 104.967C250.901 104.88 251.306 105.277 251.36 105.883C251.431 106.68 250.73 107.289 249.264 107.42C247.846 107.547 247.07 107.134 247.002 106.369ZM261.561 102.625L260.008 101.607C259.629 102.22 258.899 102.671 258.022 102.749C256.763 102.862 255.785 102.339 255.46 100.858L261.085 100.355C261.125 100.078 261.151 99.6579 261.111 99.2117C260.923 97.1081 259.322 95.7253 257.091 95.9248C254.461 96.16 253.138 98.2542 253.351 100.629C253.56 102.971 255.348 104.819 258.201 104.564C259.715 104.429 260.902 103.696 261.561 102.625ZM257.191 97.5865C258.322 97.4853 258.985 98.2453 259.089 99.0552L255.392 99.3859C255.521 98.3142 256.155 97.6792 257.191 97.5865ZM263.512 103.768L265.536 103.587L265.076 98.4394C265.333 97.9023 265.922 97.3035 266.91 97.2151C267.277 97.1823 267.552 97.2059 267.813 97.2468L267.634 95.2548C267.437 95.2081 267.194 95.1817 266.923 95.2059C266.015 95.2872 265.367 95.7628 264.889 96.3517L264.818 95.5549L262.794 95.7359L263.512 103.768ZM273.481 93.4948L275.157 90.6783L272.958 90.8751L271.537 93.6688L273.481 93.4948ZM276.922 101.251L275.369 100.233C274.99 100.846 274.259 101.297 273.383 101.375C272.124 101.488 271.145 100.965 270.82 99.4837L276.446 98.9805C276.485 98.7039 276.512 98.2839 276.472 97.8377C276.284 95.7341 274.682 94.3512 272.451 94.5508C269.822 94.786 268.499 96.8802 268.711 99.2547C268.921 101.597 270.709 103.445 273.561 103.19C275.075 103.055 276.263 102.322 276.922 101.251ZM272.552 96.2125C273.683 96.1113 274.345 96.8713 274.45 97.6812L270.753 98.0119C270.882 96.9401 271.516 96.3051 272.552 96.2125ZM286.088 100.431L284.536 99.4135C284.157 100.026 283.426 100.477 282.549 100.555C281.29 100.668 280.312 100.145 279.987 98.6638L285.612 98.1606C285.652 97.884 285.678 97.4639 285.638 97.0177C285.45 94.9141 283.849 93.5313 281.618 93.7309C278.988 93.9661 277.665 96.0602 277.878 98.4348C278.087 100.777 279.875 102.625 282.728 102.37C284.242 102.235 285.429 101.502 286.088 100.431ZM281.718 95.3925C282.85 95.2913 283.512 96.0513 283.616 96.8612L279.919 97.1919C280.048 96.1202 280.682 95.4852 281.718 95.3925ZM287.125 100.483C287.972 101.323 289.043 101.805 290.477 101.677C291.991 101.542 293.263 100.496 293.144 98.8041C292.896 96.0312 289.098 96.8528 288.975 95.4823C288.938 95.068 289.21 94.6903 289.847 94.6333C290.469 94.5777 291.031 94.945 291.491 95.4179L292.725 94.1188C292.081 93.3893 290.913 92.8994 289.686 93.0092C288.012 93.1588 286.913 94.3335 287.039 95.7518C287.292 98.5726 291.085 97.7031 291.211 99.1055C291.254 99.5836 290.953 99.996 290.3 100.054C289.535 100.123 288.905 99.7294 288.356 99.1521L287.125 100.483Z" fill="#161616"/>
<g id="chevron_right">
<path id="Vector_2" d="M309.851 89.994C309.497 90.4171 309.553 91.0446 309.976 91.3983L314.187 94.9172L310.668 99.1275C310.314 99.5507 310.37 100.178 310.793 100.532C311.217 100.886 311.844 100.829 312.198 100.406L316.361 95.4256C316.714 95.0024 316.658 94.3749 316.235 94.0212L311.254 89.8584C310.842 89.5137 310.204 89.5708 309.851 89.994Z" fill="#3B69D1"/>
</g>
</g>
</g>
<defs>
<filter id="filter0_d_3723_11393" x="-1" y="2.66711" width="390" height="230.009" filterUnits="userSpaceOnUse" color-interpolation-filters="sRGB">
<feFlood flood-opacity="0" result="BackgroundImageFix"/>
<feColorMatrix in="SourceAlpha" type="matrix" values="0 0 0 0 0 0 0 0 0 0 0 0 0 0 0 0 0 0 127 0" result="hardAlpha"/>
<feOffset dy="6"/>
<feGaussianBlur stdDeviation="12.5"/>
<feComposite in2="hardAlpha" operator="out"/>
<feColorMatrix type="matrix" values="0 0 0 0 0.196078 0 0 0 0 0.196078 0 0 0 0 0.196078 0 0 0 0.1 0"/>
<feBlend mode="normal" in2="BackgroundImageFix" result="effect1_dropShadow_3723_11393"/>
<feBlend mode="normal" in="SourceGraphic" in2="effect1_dropShadow_3723_11393" result="shape"/>
</filter>
</defs>
</svg>
