<svg width="470" height="292" viewBox="0 0 470 292" fill="none" xmlns="http://www.w3.org/2000/svg">
<g clip-path="url(#clip0_1218_6683)">
<g clip-path="url(#clip1_1218_6683)">
<g clip-path="url(#clip2_1218_6683)">
<g clip-path="url(#clip3_1218_6683)">
<rect width="375" height="743" transform="translate(-8.67188 -415.734) rotate(-5)" fill="white"/>
<rect x="122.323" y="14.4858" width="270" height="56" rx="8" transform="rotate(-5 122.323 14.4858)" fill="#3B69D1"/>
<path d="M146.988 35.8978C150.462 35.5938 153.074 38.0956 153.353 41.2835C153.632 44.4713 151.494 47.3887 148.02 47.6927C144.529 47.9981 141.917 45.4962 141.638 42.3084C141.359 39.1206 143.497 36.2032 146.988 35.8978ZM147.897 46.2901C150.399 46.0711 152.025 43.9052 151.807 41.4187C151.59 38.9322 149.613 37.0815 147.11 37.3004C144.592 37.5207 142.967 39.6866 143.184 42.1731C143.402 44.6596 145.378 46.5104 147.897 46.2901ZM161.381 42.7333L160.979 38.1429L162.334 38.0243L162.731 42.567C162.942 44.9738 161.678 46.4977 159.494 46.6888C157.327 46.8784 155.817 45.5971 155.607 43.1903L155.209 38.6477L156.564 38.5291L156.966 43.1196C157.104 44.6976 158.028 45.5322 159.399 45.4123C160.738 45.2951 161.519 44.3113 161.381 42.7333ZM165.507 35.6427C164.981 35.6888 164.513 35.2961 164.467 34.7701C164.422 34.26 164.815 33.792 165.341 33.746C165.867 33.7 166.319 34.0941 166.363 34.6041C166.41 35.1301 166.033 35.5967 165.507 35.6427ZM165.707 45.824L165.004 37.7907L166.359 37.6722L167.062 45.7055L165.707 45.824ZM170.674 47.9592L169.415 48.0694L170.4 43.727L171.946 43.5917L170.674 47.9592ZM178.517 44.7033L177.814 36.67L179.169 36.5514L179.246 37.4281C179.79 36.6738 180.544 36.1099 181.66 36.0123C182.823 35.9105 183.826 36.3528 184.409 37.3297C184.97 36.3973 185.756 35.6539 187.143 35.5326C188.864 35.382 190.224 36.4195 190.415 38.6031L190.854 43.6239L189.499 43.7425L189.064 38.7695C188.947 37.4306 188.131 36.731 186.983 36.8314C185.963 36.9207 185.296 37.5573 184.853 38.5437C184.884 38.7176 184.915 38.8916 184.932 39.0828L185.371 44.1036L184.016 44.2222L183.581 39.2492C183.464 37.9103 182.664 37.2094 181.5 37.3112C180.401 37.4074 179.775 38.1527 179.385 39.022L179.872 44.5847L178.517 44.7033ZM200.61 41.4374C199.948 42.5071 198.809 43.2492 197.311 43.3803C194.601 43.6174 192.753 41.7714 192.548 39.4284C192.335 36.9897 193.731 34.9563 196.217 34.7387C198.401 34.5477 199.953 35.9537 200.126 37.9302C200.154 38.2489 200.133 38.556 200.105 38.7833L193.936 39.323C194.153 41.2474 195.482 42.3036 197.203 42.153C198.239 42.0624 199.074 41.5075 199.537 40.7442L200.61 41.4374ZM196.286 35.8891C194.963 36.0049 194.107 36.8668 193.941 38.2786L198.755 37.8574C198.604 36.6821 197.704 35.765 196.286 35.8891ZM202.846 42.5748L202.143 34.5415L203.498 34.4229L203.586 35.4271C204.115 34.6742 204.807 34.1478 205.827 34.0585C206.082 34.0362 206.324 34.0472 206.521 34.0942L206.637 35.4172C206.392 35.3743 206.15 35.3634 205.832 35.3912C204.78 35.4833 204.142 36.0852 203.719 36.9413L204.201 42.4562L202.846 42.5748ZM212.313 40.7829C213.301 40.6964 214.072 40.1471 214.505 39.4026L215.644 40.122C214.983 41.1917 213.875 41.9311 212.409 42.0594C209.747 42.2923 207.867 40.4491 207.662 38.106C207.457 35.763 208.988 33.6214 211.65 33.3885C213.101 33.2616 214.337 33.8119 215.173 34.7346L214.176 35.6409C213.621 34.9828 212.766 34.5758 211.762 34.6636C210.04 34.8142 208.931 36.2764 209.081 37.9819C209.231 39.7033 210.576 40.9349 212.313 40.7829ZM217.418 31.1011C216.892 31.1471 216.424 30.7544 216.378 30.2284C216.333 29.7184 216.726 29.2504 217.252 29.2044C217.778 29.1583 218.23 29.5524 218.275 30.0625C218.321 30.5885 217.944 31.0551 217.418 31.1011ZM217.618 41.2824L216.915 33.2491L218.27 33.1306L218.973 41.1639L217.618 41.2824ZM226.31 37.2455L225.363 29.362L226.909 29.2267L227.346 37.1548L226.31 37.2455ZM227.152 40.625C226.578 40.6752 226.075 40.2534 226.027 39.6955C225.979 39.1536 226.401 38.6509 226.975 38.6007C227.533 38.5519 228.019 38.9751 228.067 39.517C228.116 40.0749 227.71 40.5762 227.152 40.625Z" fill="white"/>
<path d="M305.497 70.6549C307.951 70.4402 309.348 72.5946 309.602 75.4955C309.856 78.3965 308.854 80.7608 306.399 80.9755C303.973 81.1878 302.562 79.0346 302.308 76.1337C302.054 73.2328 303.07 70.8673 305.497 70.6549ZM305.613 71.8253C304.051 71.9619 303.391 73.7342 303.591 76.0214C303.791 78.3087 304.749 79.9394 306.311 79.8028C307.859 79.6673 308.505 77.8963 308.305 75.609C308.105 73.3218 307.161 71.6898 305.613 71.8253ZM314.233 80.2901C312.727 80.4219 311.706 79.8367 310.95 78.905L311.887 78.0501C312.52 78.852 313.227 79.2258 314.133 79.1465C315.919 78.9903 316.682 77.4339 316.525 75.0023C315.89 75.7746 315.004 76.2456 313.916 76.3408C312.089 76.5006 310.713 75.2297 310.563 73.5143C310.408 71.743 311.517 70.1282 313.637 69.9427C315.925 69.7426 317.503 71.2348 317.799 74.6238C318.076 77.7897 317.009 80.0473 314.233 80.2901ZM311.856 73.359C311.955 74.4886 312.869 75.2941 314.012 75.194C315.003 75.1074 315.859 74.6109 316.356 73.7101C315.967 71.6782 314.979 70.9778 313.751 71.0851C312.454 71.1986 311.754 72.1874 311.856 73.359ZM320.353 74.0209C319.851 74.0648 319.412 73.6957 319.369 73.2076C319.326 72.7195 319.696 72.2936 320.199 72.2497C320.701 72.2057 321.125 72.5621 321.168 73.0502C321.211 73.5383 320.856 73.977 320.353 74.0209ZM320.84 79.5856C320.338 79.6296 319.9 79.2744 319.857 78.7863C319.814 78.2982 320.183 77.8583 320.685 77.8144C321.187 77.7705 321.613 78.1408 321.656 78.6289C321.699 79.117 321.342 79.5417 320.84 79.5856ZM330.013 75.9162C330.168 77.6875 328.836 79.0126 326.87 79.1846C325.182 79.3322 324.007 78.7465 323.112 77.5178L324.154 76.738C324.848 77.7594 325.669 78.1513 326.757 78.0561C327.97 77.95 328.815 77.1594 328.711 75.9739C328.615 74.8721 327.766 74.1734 326.483 74.2856L324.824 74.4308L324.725 73.3012L326.189 73.173C327.305 73.0754 327.958 72.3438 327.875 71.3954C327.788 70.4052 327 69.912 325.996 69.9998C325.117 70.0767 324.473 70.5828 324.087 71.4738L322.985 70.9238C323.582 69.7191 324.558 68.9873 325.981 68.8628C327.668 68.7152 329.013 69.6235 329.148 71.1715C329.231 72.1199 328.856 72.9679 328.059 73.5013C329.229 73.8627 329.914 74.7865 330.013 75.9162ZM331.728 78.4785L331.629 77.3488L334.637 73.6566C335.675 72.3572 336.144 71.7681 336.053 70.736C335.964 69.7179 335.174 69.1968 334.184 69.2835C333.152 69.3738 332.527 69.9484 332.039 70.9468L330.952 70.4095C331.638 69.0987 332.662 68.2782 334.183 68.1452C335.814 68.0025 337.204 68.949 337.343 70.5389C337.459 71.8638 336.681 72.9297 335.617 74.2595L333.177 77.2134L338.156 76.7778L338.255 77.9075L331.728 78.4785ZM342.518 73.3606L346.284 73.0312L346.384 74.1748L342.618 74.5042L342.518 73.3606ZM351.926 76.7114L351.072 66.9486L356.316 66.4899L356.414 67.6056L352.481 67.9497L352.754 71.0738L356.129 70.7785L356.226 71.8803L352.851 72.1755L353.14 75.4809L357.073 75.1368L357.17 76.2526L351.926 76.7114ZM359.411 76.0566L358.796 69.0274L359.981 68.9237L360.051 69.7187C360.568 69.0411 361.254 68.5313 362.3 68.4398C363.876 68.3019 365.14 69.2594 365.314 71.2538L365.687 75.5075L364.501 75.6112L364.133 71.3993C364.023 70.1441 363.248 69.4811 362.16 69.5763C361.142 69.6654 360.552 70.3072 360.17 71.0855L360.596 75.9529L359.411 76.0566ZM366.33 68.3683L367.613 68.256L370.365 73.8475L372.104 67.8631L373.387 67.7509L371.254 75.0204L369.692 75.1571L366.33 68.3683ZM377.914 67.0737C380.174 66.876 381.874 68.4839 382.053 70.5341C382.233 72.5843 380.837 74.4631 378.578 74.6607C376.305 74.8596 374.618 73.2505 374.439 71.2003C374.259 69.1502 375.641 67.2726 377.914 67.0737ZM378.494 73.5438C379.959 73.4157 380.925 72.0944 380.798 70.6439C380.67 69.1795 379.49 68.0601 378.026 68.1882C376.519 68.32 375.552 69.6273 375.68 71.0917C375.808 72.5561 376.988 73.6756 378.494 73.5438ZM386.749 75.3793C386.363 76.5936 385.608 77.278 384.422 77.3817C383.948 77.4232 383.593 77.384 383.273 77.2574L383.18 76.1974C383.456 76.2998 383.783 76.3415 384.118 76.3122C384.829 76.2499 385.364 75.9361 385.651 75.0397L386.083 73.709L382.428 66.9598L383.739 66.8451L386.578 72.1479L388.425 66.4352L389.681 66.3253L386.749 75.3793ZM394.452 64.7836L393.294 64.8849L394.542 62.4428L395.881 62.3257L394.452 64.7836ZM397.741 71.5367C397.162 72.4727 396.165 73.122 394.854 73.2367C392.483 73.4442 390.866 71.8289 390.687 69.7788C390.5 67.6449 391.722 65.8657 393.898 65.6753C395.808 65.5082 397.167 66.7385 397.318 68.4679C397.342 68.7468 397.324 69.0154 397.299 69.2144L391.902 69.6866C392.091 71.3705 393.254 72.2946 394.76 72.1628C395.667 72.0835 396.397 71.598 396.803 70.9301L397.741 71.5367ZM393.958 66.6819C392.8 66.7832 392.051 67.5374 391.906 68.7727L396.118 68.4042C395.986 67.3758 395.199 66.5733 393.958 66.6819Z" fill="#646464"/>
<rect width="375" height="72" transform="translate(38.3926 122.211) rotate(-5)" fill="white"/>
<rect x="55.9196" y="133.225" width="282" height="47" rx="9.5" transform="rotate(-5 55.9196 133.225)" fill="white"/>
<rect x="55.9196" y="133.225" width="282" height="47" rx="9.5" transform="rotate(-5 55.9196 133.225)" stroke="#646464"/>
<path d="M73.4735 151.063L75.0674 150.924L79.7683 160.229L82.7819 150.249L84.3758 150.109L80.889 161.657L78.9126 161.83L73.4735 151.063ZM89.2694 152.508C91.8515 152.282 93.7951 154.12 94 156.463C94.205 158.806 92.6101 160.953 90.028 161.179C87.4299 161.406 85.5023 159.567 85.2973 157.224C85.0923 154.881 86.6713 152.735 89.2694 152.508ZM89.9324 159.902C91.606 159.756 92.7106 158.246 92.5655 156.588C92.4191 154.915 91.0705 153.635 89.3969 153.782C87.6754 153.932 86.5694 155.426 86.7159 157.1C86.8623 158.774 88.2109 160.053 89.9324 159.902ZM96.6316 157.565L96.2718 153.453L94.7576 153.586L94.6502 152.358L96.1644 152.226L95.9887 150.218L97.3595 150.098L97.5352 152.106L100.325 151.862L100.432 153.089L97.6425 153.333L98.0023 157.446C98.1125 158.705 98.7807 159 99.753 158.915C100.279 158.869 100.64 158.773 100.932 158.619L101.038 159.83C100.669 160.023 100.244 160.124 99.6705 160.175C97.8853 160.331 96.8031 159.526 96.6316 157.565ZM103.098 159.714L102.395 151.681L103.75 151.562L103.838 152.566C104.366 151.813 105.059 151.287 106.079 151.198C106.334 151.175 106.576 151.186 106.773 151.233L106.889 152.556C106.644 152.514 106.402 152.503 106.083 152.531C105.031 152.623 104.393 153.224 103.971 154.081L104.453 159.595L103.098 159.714ZM115.976 157.254C115.315 158.324 114.175 159.066 112.677 159.197C109.967 159.434 108.119 157.588 107.914 155.245C107.701 152.807 109.097 150.773 111.583 150.556C113.767 150.365 115.319 151.771 115.492 153.747C115.52 154.066 115.499 154.373 115.471 154.6L109.302 155.14C109.519 157.064 110.848 158.121 112.569 157.97C113.605 157.879 114.44 157.324 114.903 156.561L115.976 157.254ZM111.652 151.706C110.329 151.822 109.473 152.684 109.307 154.096L114.121 153.674C113.97 152.499 113.07 151.582 111.652 151.706ZM122.508 158.016L121.806 149.983L123.16 149.864L123.237 150.741C123.781 149.986 124.535 149.423 125.651 149.325C126.814 149.223 127.817 149.665 128.4 150.642C128.961 149.71 129.747 148.967 131.134 148.845C132.855 148.695 134.215 149.732 134.406 151.916L134.845 156.937L133.49 157.055L133.055 152.082C132.938 150.743 132.122 150.044 130.975 150.144C129.954 150.233 129.287 150.87 128.844 151.856C128.875 152.03 128.906 152.204 128.923 152.395L129.362 157.416L128.007 157.535L127.572 152.562C127.455 151.223 126.655 150.522 125.491 150.624C124.392 150.72 123.766 151.465 123.377 152.335L123.863 157.897L122.508 158.016ZM144.601 154.75C143.94 155.82 142.8 156.562 141.302 156.693C138.592 156.93 136.744 155.084 136.539 152.741C136.326 150.302 137.722 148.269 140.208 148.051C142.392 147.86 143.944 149.266 144.117 151.243C144.145 151.562 144.124 151.869 144.096 152.096L137.927 152.636C138.144 154.56 139.473 155.616 141.194 155.466C142.23 155.375 143.065 154.82 143.528 154.057L144.601 154.75ZM140.277 149.202C138.954 149.317 138.098 150.179 137.932 151.591L142.746 151.17C142.595 149.995 141.695 149.078 140.277 149.202ZM145.818 154.868L146.703 153.972C147.323 154.624 148.027 154.964 148.84 154.893C149.732 154.815 150.195 154.228 150.134 153.527C149.976 151.726 146.015 152.715 145.767 149.878C145.657 148.619 146.634 147.489 148.18 147.354C149.328 147.253 150.363 147.709 150.99 148.441L150.119 149.32C149.636 148.752 148.996 148.423 148.295 148.484C147.434 148.559 147.017 149.11 147.071 149.732C147.229 151.533 151.211 150.606 151.451 153.348C151.566 154.847 150.453 155.892 148.955 156.023C147.68 156.135 146.631 155.713 145.818 154.868ZM152.823 154.255L153.708 153.359C154.327 154.011 155.031 154.351 155.844 154.28C156.737 154.202 157.2 153.616 157.138 152.914C156.981 151.113 153.02 152.102 152.771 149.265C152.661 148.006 153.639 146.876 155.185 146.741C156.332 146.641 157.368 147.096 157.994 147.828L157.123 148.708C156.64 148.139 156.001 147.81 155.3 147.871C154.439 147.947 154.021 148.497 154.076 149.119C154.233 150.92 158.216 149.993 158.456 152.735C158.571 154.234 157.458 155.279 155.959 155.411C154.684 155.522 153.635 155.1 152.823 154.255ZM163.018 154.697C161.44 154.835 160.296 154.051 160.176 152.681C160.07 151.469 160.919 150.528 162.599 150.092L165.27 149.408L165.221 148.85C165.124 147.735 164.271 147.167 163.123 147.267C162.199 147.348 161.487 147.844 161.053 148.573L159.965 147.881C160.582 146.863 161.662 146.174 163.065 146.052C165.105 145.873 166.421 146.963 166.576 148.732L167.047 154.119L165.693 154.238L165.603 153.218C165.066 154.052 164.054 154.606 163.018 154.697ZM161.542 152.513C161.602 153.198 162.204 153.644 163.144 153.561C164.212 153.468 165.044 152.881 165.495 151.974L165.356 150.396L163.016 151.003C161.933 151.29 161.482 151.827 161.542 152.513ZM168.968 155.413C168.897 154.6 169.238 153.911 169.986 153.284C169.594 153.029 169.366 152.615 169.328 152.185C169.272 151.548 169.561 150.992 170.148 150.539C169.4 150.075 168.915 149.298 168.837 148.406C168.701 146.859 169.798 145.446 171.711 145.279C172.301 145.227 172.838 145.309 173.286 145.479L176.267 145.218L176.37 146.397L174.633 146.549C174.891 146.928 175.043 147.381 175.085 147.859C175.219 149.389 174.138 150.801 172.209 150.969C171.81 151.004 171.422 150.974 171.079 150.908C170.765 151.176 170.599 151.48 170.626 151.782C170.655 152.117 170.851 152.341 171.345 152.298L173.641 152.097C175.761 151.911 176.839 152.861 176.965 154.296C177.113 155.985 175.533 157.392 173.127 157.603C170.752 157.81 169.109 157.023 168.968 155.413ZM172.131 149.9C173.295 149.798 173.895 148.943 173.81 147.97C173.723 146.982 172.984 146.244 171.82 146.346C170.625 146.45 170.041 147.304 170.128 148.293C170.214 149.281 170.936 150.005 172.131 149.9ZM170.277 155.138C170.362 156.11 171.418 156.612 173.012 156.472C174.701 156.325 175.71 155.562 175.618 154.51C175.551 153.745 175.068 153.177 173.634 153.302L171.036 153.529C170.514 153.993 170.221 154.5 170.277 155.138ZM185.289 151.19C184.628 152.26 183.488 153.002 181.99 153.133C179.28 153.37 177.432 151.524 177.227 149.181C177.014 146.742 178.41 144.709 180.897 144.492C183.08 144.3 184.633 145.707 184.806 147.683C184.834 148.002 184.812 148.309 184.784 148.536L178.615 149.076C178.832 151 180.161 152.056 181.883 151.906C182.919 151.815 183.753 151.26 184.217 150.497L185.289 151.19ZM180.965 145.642C179.642 145.758 178.786 146.62 178.62 148.031L183.434 147.61C183.283 146.435 182.384 145.518 180.965 145.642ZM188.181 152.447C187.607 152.497 187.106 152.091 187.057 151.533C187.008 150.976 187.43 150.473 188.004 150.423C188.578 150.372 189.064 150.796 189.113 151.354C189.162 151.911 188.755 152.397 188.181 152.447ZM192.477 152.071C191.903 152.121 191.402 151.715 191.353 151.158C191.304 150.6 191.726 150.097 192.3 150.047C192.874 149.997 193.36 150.42 193.409 150.978C193.458 151.536 193.051 152.021 192.477 152.071ZM196.773 151.695C196.199 151.745 195.698 151.34 195.649 150.782C195.6 150.224 196.022 149.721 196.596 149.671C197.17 149.621 197.656 150.044 197.705 150.602C197.754 151.16 197.347 151.645 196.773 151.695Z" fill="#161616"/>
<rect x="349.255" y="107.06" width="48" height="48" rx="16" transform="rotate(-5 349.255 107.06)" fill="#3B69D1"/>
<path d="M375.865 135.85C375.583 135.875 375.338 135.8 375.131 135.625C374.923 135.451 374.807 135.223 374.782 134.941L374.346 129.96L369.365 130.396C369.083 130.42 368.838 130.345 368.63 130.171C368.423 129.997 368.307 129.769 368.282 129.487C368.257 129.204 368.332 128.959 368.506 128.751C368.68 128.544 368.909 128.428 369.191 128.403L374.172 127.967L373.736 122.986C373.712 122.704 373.786 122.459 373.961 122.251C374.135 122.044 374.363 121.928 374.645 121.903C374.927 121.878 375.173 121.953 375.381 122.127C375.588 122.301 375.704 122.53 375.729 122.812L376.164 127.793L381.145 127.357C381.428 127.333 381.672 127.407 381.88 127.581C382.088 127.756 382.204 127.984 382.229 128.266C382.253 128.549 382.178 128.793 382.004 129.001C381.83 129.209 381.602 129.325 381.32 129.35L376.339 129.785L376.774 134.766C376.799 135.049 376.725 135.293 376.551 135.501C376.376 135.709 376.148 135.825 375.865 135.85Z" fill="white"/>
<g filter="url(#filter0_i_1218_6683)">
<rect width="375" height="68" transform="translate(44.667 193.937) rotate(-5)" fill="white"/>
<path d="M76.1817 209.941L81.5549 213.988L82.2356 221.768L80.2432 221.943L79.7203 215.966L73.7431 216.488L74.2661 222.466L72.2737 222.64L71.593 214.86L76.1817 209.941ZM75.9473 207.261L66.7698 217.099L69.7583 216.837L70.4556 224.807L76.4328 224.284L75.9098 218.307L77.9022 218.132L78.4251 224.109L84.4023 223.586L83.7051 215.617L86.6936 215.355L75.9473 207.261Z" fill="#646464"/>
<path d="M61.6769 244.647L63.8462 237.431L65.1014 237.321L68.4909 244.051L67.4947 244.138L66.5082 242.157L63.3005 242.437L62.6731 244.56L61.6769 244.647ZM63.5387 241.603L66.1288 241.377L64.5453 238.193L63.5387 241.603ZM71.8889 243.151C72.5066 243.097 72.9885 242.754 73.2589 242.289L73.9708 242.738C73.5575 243.407 72.8652 243.869 71.9487 243.949C70.285 244.095 69.1102 242.943 68.982 241.478C68.8539 240.014 69.8109 238.676 71.4746 238.53C72.3811 238.451 73.154 238.795 73.6763 239.371L73.0533 239.938C72.7061 239.526 72.1719 239.272 71.5443 239.327C70.4684 239.421 69.7754 240.335 69.8687 241.401C69.9628 242.477 70.8031 243.246 71.8889 243.151ZM77.2688 242.681C77.8864 242.627 78.3683 242.283 78.6388 241.818L79.3507 242.268C78.9374 242.936 78.245 243.398 77.3285 243.479C75.6649 243.624 74.49 242.472 74.3619 241.008C74.2338 239.543 75.1908 238.205 76.8544 238.059C77.7609 237.98 78.5339 238.324 79.0561 238.901L78.4331 239.467C78.0859 239.056 77.5517 238.801 76.9241 238.856C75.8482 238.95 75.1552 239.864 75.2485 240.93C75.3426 242.006 76.1829 242.776 77.2688 242.681ZM83.8927 240.535L83.6417 237.666L84.4884 237.592L84.7368 240.431C84.8684 241.936 84.0784 242.888 82.7137 243.007C81.3588 243.126 80.4154 242.325 80.2838 240.821L80.0354 237.982L80.8822 237.908L81.1332 240.777C81.2195 241.763 81.7972 242.285 82.6539 242.21C83.4907 242.136 83.979 241.522 83.8927 240.535ZM90.9871 241.25C90.5738 241.918 89.8615 242.382 88.9251 242.464C87.2316 242.612 86.0766 241.458 85.9485 239.994C85.8151 238.47 86.6877 237.199 88.2418 237.063C89.6065 236.944 90.5768 237.822 90.6849 239.058C90.7023 239.257 90.689 239.449 90.6713 239.591L86.816 239.928C86.9514 241.131 87.7821 241.791 88.858 241.697C89.5055 241.64 90.0273 241.294 90.3168 240.816L90.9871 241.25ZM88.2846 237.782C87.4577 237.854 86.9227 238.393 86.8192 239.275L89.8277 239.012C89.7333 238.278 89.1712 237.704 88.2846 237.782ZM92.2598 235.597C91.9311 235.626 91.6386 235.381 91.6098 235.052C91.5819 234.733 91.8274 234.441 92.1561 234.412C92.4849 234.383 92.7674 234.629 92.7953 234.948C92.8241 235.277 92.5886 235.568 92.2598 235.597ZM92.3849 241.961L91.9457 236.94L92.7924 236.866L93.2317 241.886L92.3849 241.961ZM95.0213 241.73L94.3677 234.258L95.2144 234.184L95.8681 241.656L95.0213 241.73Z" fill="#646464"/>
<path d="M150.017 205.976L153.244 202.13C153.426 201.913 153.65 201.797 153.916 201.782C154.183 201.767 154.424 201.851 154.641 202.033C154.841 202.216 154.953 202.44 154.976 202.706C154.999 202.972 154.928 203.212 154.763 203.427L150.925 208.029C150.743 208.246 150.519 208.366 150.253 208.389C149.988 208.412 149.747 208.333 149.53 208.151L147.201 206.197C147.002 206.03 146.89 205.806 146.866 205.524C146.841 205.241 146.912 205.001 147.079 204.802C147.245 204.604 147.47 204.492 147.752 204.467C148.034 204.443 148.275 204.514 148.473 204.68L150.017 205.976ZM136.616 207.976C136.333 208.001 136.088 207.926 135.881 207.751C135.673 207.578 135.557 207.35 135.532 207.067C135.507 206.785 135.582 206.54 135.757 206.332C135.931 206.125 136.159 206.009 136.441 205.984L143.415 205.374C143.697 205.349 143.942 205.424 144.15 205.598C144.357 205.772 144.473 206.001 144.498 206.283C144.523 206.565 144.448 206.81 144.274 207.017C144.1 207.225 143.871 207.342 143.589 207.366L136.616 207.976ZM151.294 215.124L149.567 217.183C149.401 217.381 149.176 217.493 148.894 217.517C148.612 217.542 148.371 217.471 148.173 217.305C147.974 217.138 147.862 216.913 147.838 216.631C147.813 216.349 147.884 216.108 148.051 215.91L149.778 213.851L147.719 212.124C147.521 211.958 147.409 211.733 147.384 211.451C147.36 211.169 147.431 210.928 147.597 210.73C147.764 210.531 147.988 210.419 148.271 210.395C148.553 210.37 148.793 210.441 148.992 210.608L151.05 212.335L152.778 210.276C152.944 210.078 153.169 209.966 153.451 209.941C153.733 209.917 153.974 209.988 154.172 210.154C154.371 210.321 154.482 210.546 154.507 210.828C154.532 211.11 154.461 211.35 154.294 211.549L152.567 213.607L154.625 215.335C154.824 215.501 154.936 215.726 154.96 216.008C154.985 216.29 154.914 216.531 154.747 216.729C154.581 216.928 154.356 217.04 154.074 217.064C153.792 217.089 153.551 217.018 153.353 216.851L151.294 215.124ZM137.313 215.946C137.031 215.971 136.786 215.896 136.578 215.721C136.37 215.547 136.254 215.319 136.229 215.037C136.205 214.755 136.28 214.509 136.454 214.301C136.628 214.094 136.856 213.978 137.138 213.953L144.112 213.343C144.394 213.319 144.639 213.393 144.847 213.567C145.054 213.742 145.17 213.97 145.195 214.252C145.22 214.535 145.145 214.779 144.971 214.987C144.797 215.195 144.568 215.311 144.286 215.336L137.313 215.946Z" fill="#646464"/>
<path d="M137.488 237.051L138.13 236.352C138.662 236.928 139.248 237.208 139.896 237.151C140.673 237.084 141.08 236.576 141.024 235.939C140.887 234.365 137.609 234.993 137.408 232.691C137.317 231.655 138.1 230.734 139.315 230.627C140.291 230.542 141.048 230.927 141.626 231.569L140.973 232.249C140.513 231.697 139.996 231.411 139.398 231.463C138.711 231.523 138.31 231.99 138.362 232.588C138.499 234.152 141.765 233.505 141.968 235.826C142.074 237.031 141.214 237.879 139.979 237.987C138.953 238.077 138.162 237.755 137.488 237.051ZM146.997 235.014L146.746 232.145L147.593 232.071L147.841 234.91C147.973 236.415 147.183 237.367 145.818 237.487C144.463 237.605 143.52 236.804 143.388 235.3L143.14 232.461L143.987 232.387L144.238 235.256C144.324 236.242 144.901 236.764 145.758 236.689C146.595 236.616 147.083 236.001 146.997 235.014ZM149.576 230.583C149.247 230.612 148.954 230.366 148.926 230.037C148.898 229.719 149.143 229.426 149.472 229.397C149.801 229.369 150.083 229.615 150.111 229.934C150.14 230.262 149.904 230.554 149.576 230.583ZM149.701 236.946L149.262 231.925L150.108 231.851L150.548 236.872L149.701 236.946ZM151.141 231.761L152.057 231.681L154.023 235.675L155.265 231.4L156.182 231.32L154.658 236.512L153.543 236.61L151.141 231.761ZM157.534 229.887C157.205 229.915 156.912 229.67 156.884 229.341C156.856 229.022 157.101 228.73 157.43 228.701C157.759 228.672 158.041 228.919 158.069 229.237C158.098 229.566 157.862 229.858 157.534 229.887ZM157.659 236.25L157.219 231.229L158.066 231.155L158.505 236.176L157.659 236.25Z" fill="#646464"/>
<g clip-path="url(#clip4_1218_6683)">
<path d="M219.487 205.745L225.489 205.22C225.771 205.195 225.995 205.079 226.161 204.872C226.327 204.666 226.398 204.421 226.373 204.139C226.348 203.857 226.232 203.628 226.025 203.454C225.817 203.28 225.572 203.205 225.29 203.23L219.288 203.755C219.005 203.78 218.781 203.895 218.615 204.102C218.449 204.309 218.379 204.554 218.403 204.836C218.428 205.118 218.544 205.347 218.751 205.52C218.959 205.695 219.205 205.77 219.487 205.745ZM219.225 202.757L229.212 201.883C229.494 201.858 229.719 201.742 229.884 201.535C230.05 201.328 230.121 201.084 230.096 200.802C230.072 200.519 229.955 200.291 229.747 200.117C229.54 199.943 229.295 199.868 229.013 199.893L219.026 200.766C218.744 200.791 218.52 200.907 218.354 201.113C218.188 201.321 218.117 201.565 218.142 201.848C218.167 202.13 218.283 202.358 218.49 202.532C218.698 202.706 218.943 202.781 219.225 202.757ZM218.964 199.768L228.951 198.894C229.233 198.87 229.457 198.754 229.623 198.547C229.789 198.34 229.86 198.095 229.835 197.813C229.81 197.531 229.694 197.303 229.486 197.128C229.279 196.954 229.034 196.879 228.752 196.904L218.765 197.778C218.482 197.803 218.258 197.918 218.092 198.125C217.926 198.332 217.856 198.577 217.881 198.859C217.905 199.141 218.021 199.37 218.229 199.544C218.437 199.718 218.682 199.793 218.964 199.768ZM214.992 211.735L213.634 196.219C213.586 195.671 213.741 195.185 214.097 194.76C214.453 194.336 214.904 194.1 215.452 194.052L231.391 192.658C231.939 192.61 232.426 192.764 232.85 193.119C233.274 193.476 233.51 193.928 233.558 194.476L234.604 206.43C234.652 206.978 234.498 207.464 234.142 207.889C233.786 208.313 233.334 208.549 232.786 208.597L218.839 209.817L216.748 212.309C216.461 212.652 216.105 212.754 215.683 212.615C215.261 212.476 215.031 212.183 214.992 211.735Z" fill="#3B69D1"/>
</g>
<path d="M205.267 232.085L204.657 225.111L206.42 224.957L208.38 227.737L209.827 224.659L211.59 224.505L212.2 231.478L210.786 231.602L210.348 226.601L209.023 229.347L208.026 229.434L206.244 226.96L206.682 231.961L205.267 232.085ZM218.46 230.107C218.047 230.776 217.304 231.232 216.357 231.315C214.574 231.471 213.459 230.314 213.331 228.849C213.201 227.365 214.03 226.058 215.674 225.914C217.069 225.792 218.068 226.658 218.183 227.973C218.208 228.252 218.19 228.515 218.165 228.687L214.649 228.995C214.85 229.921 215.461 230.249 216.248 230.18C216.796 230.132 217.253 229.851 217.491 229.469L218.46 230.107ZM215.735 226.953C215.087 227.009 214.69 227.405 214.608 228.075L216.92 227.873C216.855 227.367 216.442 226.891 215.735 226.953ZM219.108 230.141L219.879 229.311C220.222 229.672 220.615 229.919 221.093 229.877C221.501 229.841 221.689 229.584 221.663 229.285C221.587 228.408 219.215 228.947 219.06 227.184C218.983 226.297 219.671 225.564 220.717 225.473C221.485 225.406 222.214 225.713 222.615 226.17L221.843 226.98C221.556 226.684 221.205 226.454 220.816 226.488C220.418 226.523 220.248 226.759 220.27 227.018C220.345 227.874 222.72 227.365 222.872 229.099C222.944 230.157 222.148 230.808 221.202 230.891C220.305 230.97 219.636 230.667 219.108 230.141ZM223.593 229.748L224.364 228.918C224.706 229.28 225.099 229.526 225.578 229.484C225.986 229.449 226.174 229.191 226.148 228.892C226.071 228.016 223.699 228.555 223.545 226.791C223.468 225.905 224.156 225.172 225.202 225.08C225.969 225.013 226.699 225.321 227.1 225.778L226.328 226.588C226.041 226.292 225.69 226.062 225.301 226.096C224.903 226.131 224.733 226.366 224.755 226.625C224.83 227.482 227.205 226.973 227.357 228.706C227.429 229.764 226.633 230.416 225.686 230.499C224.79 230.577 224.121 230.274 223.593 229.748ZM230.037 230.068C229.031 230.156 228.293 229.638 228.212 228.712C228.145 227.955 228.683 227.336 229.744 227.062L231.255 226.669L231.244 226.539C231.198 226.011 230.769 225.708 230.192 225.758C229.703 225.801 229.345 226.063 229.108 226.455L228.12 225.829C228.514 225.172 229.218 224.729 230.135 224.649C231.589 224.522 232.412 225.323 232.509 226.429L232.793 229.676L231.528 229.787L231.485 229.299C231.2 229.715 230.624 230.017 230.037 230.068ZM229.462 228.542C229.491 228.881 229.779 229.077 230.208 229.039C230.785 228.989 231.18 228.683 231.394 228.263L231.333 227.556L230.155 227.859C229.634 227.995 229.434 228.234 229.462 228.542ZM233.82 230.47C233.777 229.972 233.991 229.551 234.411 229.183C234.194 229.002 234.061 228.742 234.038 228.483C234.003 228.085 234.145 227.751 234.499 227.439C234.032 227.149 233.749 226.672 233.7 226.114C233.615 225.137 234.303 224.284 235.558 224.174C235.947 224.14 236.292 224.181 236.592 224.285L238.425 224.124L238.519 225.2L237.632 225.278C237.696 225.433 237.73 225.591 237.745 225.76C237.831 226.746 237.164 227.608 235.869 227.721C235.699 227.736 235.539 227.74 235.387 227.723C235.286 227.832 235.236 227.947 235.245 228.056C235.263 228.256 235.381 228.346 235.61 228.326L236.875 228.215C238.141 228.104 238.887 228.722 238.969 229.658C239.067 230.774 238.076 231.724 236.512 231.861C234.908 232.001 233.913 231.526 233.82 230.47ZM235.805 226.763C236.333 226.717 236.643 226.358 236.599 225.86C236.556 225.362 236.189 225.073 235.661 225.119C235.113 225.167 234.813 225.524 234.856 226.013C234.899 226.511 235.257 226.811 235.805 226.763ZM235 230.186C235.042 230.664 235.526 230.923 236.413 230.845C237.329 230.765 237.768 230.385 237.724 229.887C237.691 229.509 237.439 229.26 236.831 229.313L235.277 229.449C235.103 229.645 234.973 229.877 235 230.186ZM244.104 227.864C243.691 228.532 242.948 228.989 242.002 229.071C240.218 229.227 239.103 228.07 238.975 226.606C238.845 225.122 239.675 223.814 241.318 223.67C242.713 223.548 243.712 224.415 243.827 225.73C243.852 226.009 243.835 226.271 243.81 226.444L240.293 226.752C240.494 227.678 241.105 228.006 241.892 227.937C242.44 227.889 242.898 227.608 243.135 227.226L244.104 227.864ZM241.379 224.709C240.732 224.766 240.335 225.162 240.253 225.832L242.564 225.629C242.499 225.123 242.086 224.647 241.379 224.709ZM244.752 227.897L245.523 227.067C245.866 227.428 246.259 227.675 246.737 227.633C247.145 227.598 247.334 227.34 247.308 227.041C247.231 226.165 244.859 226.703 244.705 224.94C244.627 224.054 245.316 223.321 246.362 223.229C247.129 223.162 247.858 223.47 248.26 223.926L247.487 224.737C247.201 224.441 246.849 224.21 246.461 224.244C246.062 224.279 245.892 224.515 245.915 224.774C245.99 225.631 248.364 225.122 248.516 226.855C248.588 227.913 247.792 228.565 246.846 228.648C245.949 228.726 245.28 228.423 244.752 227.897Z" fill="#3B69D1"/>
<path d="M310.34 204.121L304.274 199.03C303.81 199.472 303.265 199.838 302.638 200.127C302.011 200.416 301.332 200.592 300.601 200.656C298.792 200.815 297.205 200.322 295.843 199.178C294.479 198.034 293.718 196.557 293.56 194.747C293.401 192.938 293.894 191.351 295.038 189.987C296.182 188.625 297.659 187.864 299.468 187.706C301.278 187.547 302.865 188.04 304.228 189.183C305.591 190.328 306.352 191.805 306.51 193.614C306.574 194.345 306.518 195.044 306.342 195.712C306.167 196.38 305.901 196.98 305.546 197.513L311.64 202.627C311.839 202.793 311.95 203.009 311.973 203.275C311.996 203.541 311.917 203.782 311.735 203.999C311.568 204.197 311.344 204.309 311.062 204.334C310.78 204.358 310.539 204.287 310.34 204.121ZM300.427 198.664C301.672 198.555 302.693 198.027 303.489 197.079C304.284 196.131 304.627 195.034 304.518 193.789C304.409 192.544 303.881 191.523 302.933 190.727C301.985 189.932 300.888 189.589 299.643 189.698C298.397 189.807 297.377 190.335 296.581 191.283C295.786 192.231 295.443 193.328 295.552 194.573C295.661 195.818 296.189 196.839 297.137 197.635C298.085 198.43 299.182 198.773 300.427 198.664Z" fill="#646464"/>
<path d="M280.777 225.478L280.166 218.505L282.019 218.343C283.424 218.22 284.358 218.911 284.462 220.107C284.536 220.943 284.162 221.609 283.441 221.973L285.977 225.023L284.871 225.12L282.58 222.229C282.511 222.245 282.432 222.252 282.362 222.258L281.445 222.338L281.713 225.396L280.777 225.478ZM282.129 219.136L281.173 219.22L281.376 221.541L282.332 221.457C283.129 221.388 283.56 220.918 283.494 220.171C283.432 219.464 282.926 219.067 282.129 219.136ZM291.281 223.726C290.868 224.395 290.156 224.859 289.219 224.94C287.526 225.089 286.371 223.935 286.243 222.47C286.109 220.946 286.982 219.675 288.536 219.539C289.901 219.42 290.871 220.299 290.979 221.534C290.997 221.733 290.983 221.925 290.966 222.067L287.11 222.405C287.246 223.607 288.076 224.268 289.152 224.173C289.8 224.117 290.322 223.77 290.611 223.293L291.281 223.726ZM288.579 220.258C287.752 220.331 287.217 220.869 287.114 221.752L290.122 221.489C290.028 220.754 289.466 220.181 288.579 220.258ZM294.919 223.639C295.536 223.585 296.018 223.241 296.289 222.776L297.001 223.226C296.587 223.894 295.895 224.356 294.978 224.437C293.315 224.582 292.14 223.43 292.012 221.966C291.884 220.501 292.841 219.163 294.504 219.017C295.411 218.938 296.184 219.282 296.706 219.859L296.083 220.425C295.736 220.014 295.202 219.759 294.574 219.814C293.498 219.908 292.805 220.822 292.898 221.888C292.993 222.964 293.833 223.734 294.919 223.639ZM298.234 223.951L297.581 216.48L298.427 216.405L298.691 219.424C299.061 218.94 299.551 218.576 300.298 218.51C301.424 218.412 302.327 219.096 302.451 220.52L302.717 223.559L301.87 223.633L301.607 220.624C301.529 219.728 300.985 219.253 300.198 219.322C299.461 219.387 299.05 219.854 298.777 220.4L299.081 223.877L298.234 223.951ZM308.812 222.192C308.399 222.861 307.687 223.325 306.75 223.407C305.057 223.555 303.902 222.401 303.774 220.937C303.64 219.413 304.513 218.142 306.067 218.006C307.432 217.886 308.402 218.765 308.51 220C308.527 220.2 308.514 220.392 308.496 220.534L304.641 220.871C304.776 222.074 305.607 222.734 306.683 222.64C307.331 222.583 307.852 222.236 308.142 221.759L308.812 222.192ZM306.11 218.725C305.283 218.797 304.748 219.336 304.644 220.218L307.653 219.955C307.558 219.22 306.996 218.647 306.11 218.725ZM310.21 222.903L309.771 217.882L310.617 217.808L310.672 218.436C311.003 217.965 311.436 217.636 312.073 217.581C312.233 217.567 312.384 217.574 312.507 217.603L312.579 218.43C312.426 218.403 312.275 218.396 312.076 218.414C311.418 218.471 311.02 218.847 310.755 219.382L311.057 222.829L310.21 222.903ZM316.127 221.783C316.744 221.729 317.226 221.386 317.497 220.921L318.209 221.37C317.795 222.039 317.103 222.501 316.187 222.581C314.523 222.727 313.348 221.575 313.22 220.11C313.092 218.646 314.049 217.307 315.712 217.162C316.619 217.083 317.392 217.426 317.914 218.003L317.291 218.57C316.944 218.158 316.41 217.904 315.782 217.959C314.706 218.053 314.013 218.967 314.106 220.033C314.201 221.109 315.041 221.878 316.127 221.783ZM319.442 222.096L318.789 214.624L319.635 214.55L319.899 217.568C320.269 217.084 320.759 216.72 321.506 216.655C322.632 216.556 323.535 217.24 323.659 218.665L323.925 221.703L323.078 221.777L322.815 218.769C322.737 217.872 322.193 217.398 321.406 217.467C320.669 217.531 320.258 217.999 319.985 218.545L320.289 222.021L319.442 222.096ZM330.02 220.337C329.607 221.005 328.895 221.469 327.958 221.551C326.265 221.699 325.11 220.546 324.982 219.081C324.848 217.557 325.721 216.286 327.275 216.15C328.64 216.031 329.61 216.91 329.718 218.145C329.735 218.344 329.722 218.536 329.704 218.678L325.849 219.015C325.984 220.218 326.815 220.878 327.891 220.784C328.539 220.728 329.06 220.381 329.35 219.904L330.02 220.337ZM327.318 216.869C326.491 216.942 325.956 217.48 325.852 218.363L328.861 218.099C328.766 217.365 328.204 216.792 327.318 216.869Z" fill="#646464"/>
<path d="M378.598 194.334C377.901 194.395 377.291 194.206 376.767 193.767C376.243 193.327 375.951 192.759 375.89 192.062C375.829 191.364 376.018 190.754 376.458 190.23C376.897 189.707 377.465 189.414 378.163 189.353C378.86 189.292 379.47 189.482 379.994 189.921C380.518 190.36 380.81 190.929 380.871 191.626C380.932 192.323 380.743 192.934 380.303 193.457C379.864 193.981 379.296 194.273 378.598 194.334ZM375.093 200.162C374.545 200.21 374.059 200.056 373.634 199.7C373.21 199.344 372.974 198.892 372.926 198.344L371.706 184.397C371.658 183.849 371.812 183.363 372.168 182.939C372.524 182.515 372.976 182.278 373.524 182.231L374.52 182.143L374.433 181.147C374.408 180.865 374.483 180.62 374.657 180.412C374.832 180.205 375.06 180.089 375.342 180.064C375.624 180.039 375.87 180.114 376.078 180.288C376.285 180.462 376.401 180.691 376.426 180.973L376.513 181.969L384.482 181.272L384.395 180.276C384.37 179.993 384.445 179.748 384.62 179.54C384.794 179.333 385.022 179.217 385.304 179.192C385.586 179.168 385.831 179.242 386.038 179.416C386.246 179.591 386.363 179.819 386.387 180.101L386.475 181.098L387.471 181.01C388.019 180.962 388.505 181.117 388.93 181.473C389.354 181.829 389.59 182.281 389.638 182.828L390.858 196.775C390.906 197.323 390.752 197.809 390.396 198.234C390.04 198.658 389.588 198.894 389.04 198.942L375.093 200.162ZM374.919 198.17L388.865 196.949L387.994 186.988L374.047 188.208L374.919 198.17ZM373.873 186.215L387.819 184.995L387.645 183.003L373.698 184.223L373.873 186.215Z" fill="#646464"/>
<path d="M357.127 211.17L356.26 211.245L357.268 209.802L358.284 209.713L357.127 211.17ZM355.458 218.945L354.848 211.971L358.594 211.644L358.664 212.441L355.854 212.686L356.05 214.918L358.46 214.707L358.529 215.494L356.118 215.705L356.325 218.066L359.134 217.82L359.204 218.617L355.458 218.945ZM359.442 213.537L360.359 213.457L362.324 217.451L363.567 213.176L364.483 213.096L362.96 218.288L361.844 218.386L359.442 213.537ZM367.924 211.992L367.097 212.064L367.988 210.32L368.944 210.236L367.924 211.992ZM370.273 216.815C369.86 217.484 369.147 217.948 368.211 218.03C366.517 218.178 365.362 217.024 365.234 215.56C365.101 214.036 365.974 212.765 367.528 212.629C368.892 212.509 369.863 213.388 369.971 214.623C369.988 214.823 369.975 215.014 369.957 215.157L366.102 215.494C366.237 216.697 367.068 217.357 368.144 217.263C368.791 217.206 369.313 216.859 369.603 216.382L370.273 216.815ZM367.57 213.348C366.744 213.42 366.208 213.959 366.105 214.841L369.113 214.578C369.019 213.843 368.457 213.27 367.57 213.348ZM371.671 217.526L371.231 212.505L372.078 212.431L372.128 212.999C372.497 212.515 372.987 212.151 373.734 212.086C374.86 211.987 375.763 212.671 375.888 214.096L376.154 217.134L375.307 217.208L375.044 214.2C374.965 213.303 374.412 212.829 373.635 212.897C372.908 212.961 372.486 213.42 372.213 213.975L372.517 217.452L371.671 217.526ZM382.249 215.768C381.835 216.436 381.123 216.9 380.187 216.982C378.493 217.13 377.338 215.976 377.21 214.512C377.077 212.988 377.949 211.717 379.503 211.581C380.868 211.462 381.838 212.34 381.946 213.576C381.964 213.775 381.951 213.967 381.933 214.109L378.078 214.446C378.213 215.649 379.044 216.309 380.12 216.215C380.767 216.158 381.289 215.811 381.578 215.334L382.249 215.768ZM379.546 212.3C378.719 212.372 378.184 212.911 378.081 213.793L381.089 213.53C380.995 212.796 380.433 212.222 379.546 212.3ZM383.646 216.478L383.207 211.458L384.054 211.384L384.102 211.932C384.442 211.46 384.913 211.108 385.611 211.047C386.338 210.983 386.964 211.259 387.329 211.87C387.679 211.287 388.171 210.823 389.037 210.747C390.113 210.653 390.963 211.301 391.082 212.666L391.357 215.804L390.51 215.878L390.238 212.77C390.165 211.933 389.655 211.496 388.938 211.559C388.3 211.614 387.883 212.012 387.606 212.629C387.626 212.737 387.645 212.846 387.656 212.966L387.93 216.104L387.083 216.178L386.811 213.07C386.738 212.233 386.238 211.795 385.511 211.858C384.824 211.919 384.433 212.384 384.189 212.928L384.493 216.404L383.646 216.478ZM397.454 214.437C397.041 215.106 396.329 215.57 395.392 215.652C393.699 215.8 392.544 214.646 392.416 213.182C392.282 211.657 393.155 210.387 394.709 210.251C396.074 210.131 397.044 211.01 397.152 212.245C397.169 212.445 397.156 212.636 397.138 212.779L393.283 213.116C393.419 214.319 394.249 214.979 395.325 214.885C395.973 214.828 396.494 214.481 396.784 214.004L397.454 214.437ZM394.752 210.97C393.925 211.042 393.39 211.581 393.286 212.463L396.295 212.2C396.2 211.465 395.638 210.892 394.752 210.97ZM398.852 215.148L398.413 210.127L399.26 210.053L399.309 210.621C399.678 210.137 400.169 209.773 400.916 209.708C402.041 209.609 402.944 210.293 403.069 211.718L403.335 214.756L402.488 214.83L402.225 211.822C402.147 210.925 401.593 210.451 400.816 210.519C400.089 210.583 399.667 211.042 399.395 211.597L399.699 215.074L398.852 215.148ZM405.181 212.898L404.956 210.328L404.01 210.411L403.943 209.644L404.889 209.561L404.779 208.306L405.636 208.231L405.746 209.486L407.489 209.333L407.556 210.1L405.813 210.253L406.038 212.823C406.107 213.61 406.524 213.794 407.132 213.741C407.461 213.712 407.686 213.653 407.869 213.556L407.935 214.313C407.704 214.434 407.439 214.497 407.08 214.529C405.965 214.626 405.288 214.123 405.181 212.898ZM408.625 213.601L409.178 213.04C409.565 213.448 410.005 213.66 410.513 213.616C411.071 213.567 411.36 213.201 411.322 212.762C411.223 211.637 408.748 212.255 408.593 210.481C408.524 209.694 409.134 208.989 410.101 208.904C410.818 208.841 411.465 209.126 411.857 209.584L411.313 210.133C411.01 209.778 410.611 209.572 410.173 209.61C409.635 209.658 409.374 210.002 409.408 210.39C409.506 211.516 411.995 210.937 412.145 212.65C412.217 213.587 411.521 214.241 410.585 214.322C409.788 214.392 409.132 214.128 408.625 213.601Z" fill="#646464"/>
</g>
<rect x="-8.67188" y="-415.734" width="375" height="612" transform="rotate(-5 -8.67188 -415.734)" fill="#343434" fill-opacity="0.6"/>
<path d="M35.6533 102.374C34.498 89.1696 44.2658 77.5288 57.4702 76.3736L383.226 47.8737C396.43 46.7184 408.071 56.4862 409.226 69.6906L428.662 291.842L55.089 324.525L35.6533 102.374Z" fill="white"/>
<path d="M35.6533 102.374C34.498 89.1696 44.2658 77.5288 57.4702 76.3736L383.226 47.8737C396.43 46.7184 408.071 56.4862 409.226 69.6906L412.712 109.538L39.1395 142.222L35.6533 102.374Z" fill="white"/>
<rect x="34.2588" y="86.4349" width="375" height="40" rx="16" transform="rotate(-5 34.2588 86.4349)" fill="white"/>
<path d="M64.0175 105.313L59.5632 110.621C59.3966 110.82 59.1721 110.932 58.8898 110.956C58.6076 110.981 58.3672 110.91 58.1685 110.743C57.9699 110.577 57.8583 110.352 57.8336 110.07C57.8089 109.788 57.8799 109.547 58.0465 109.349L62.5008 104.04L57.1924 99.5861C56.9938 99.4194 56.8821 99.195 56.8574 98.9127C56.8327 98.6304 56.9037 98.39 57.0704 98.1914C57.237 97.9928 57.4615 97.8811 57.7438 97.8564C58.026 97.8317 58.2664 97.9027 58.4651 98.0694L63.7735 102.524L68.2278 97.2152C68.3944 97.0166 68.6189 96.905 68.9011 96.8803C69.1834 96.8556 69.4238 96.9266 69.6224 97.0932C69.821 97.2599 69.9327 97.4843 69.9574 97.7666C69.9821 98.0489 69.9111 98.2893 69.7445 98.4879L65.2902 103.796L70.5986 108.251C70.7972 108.417 70.9088 108.642 70.9335 108.924C70.9582 109.206 70.8873 109.447 70.7206 109.645C70.5539 109.844 70.3295 109.956 70.0472 109.98C69.765 110.005 69.5245 109.934 69.3259 109.767L64.0175 105.313Z" fill="#161616"/>
<path d="M71.8139 171.485C71.4486 171.517 71.1245 171.415 70.8416 171.177C70.5588 170.94 70.4013 170.639 70.3694 170.273L69.6721 162.304C69.6402 161.938 69.7429 161.614 69.9802 161.332C70.2176 161.049 70.5189 160.891 70.8842 160.859L76.8614 160.336C77.2266 160.304 77.5507 160.407 77.8336 160.644C78.1165 160.882 78.2739 161.183 78.3058 161.548L79.0031 169.518C79.035 169.883 78.9323 170.207 78.695 170.49C78.4576 170.773 78.1563 170.93 77.791 170.962L71.8139 171.485ZM71.6976 170.157L77.6748 169.634L76.9776 161.665L71.0004 162.188L71.6976 170.157ZM69.3898 174.374C69.0245 174.406 68.7004 174.304 68.4175 174.066C68.1347 173.829 67.9772 173.527 67.9453 173.162L67.1318 163.864L68.4601 163.748L69.2735 173.046L76.579 172.407L76.6952 173.735L69.3898 174.374Z" fill="#161616"/>
<path d="M96.4637 170.525C97.7388 170.414 98.6886 169.704 99.2467 168.74L101.152 169.955C100.253 171.43 98.6734 172.468 96.6492 172.645C93.1266 172.953 90.4828 170.454 90.2039 167.266C89.925 164.079 92.0947 161.158 95.6172 160.85C97.6415 160.673 99.3787 161.437 100.517 162.702L98.8534 164.245C98.1364 163.392 97.0778 162.859 95.8027 162.97C93.6987 163.154 92.3441 164.927 92.531 167.063C92.7178 169.199 94.3597 170.709 96.4637 170.525ZM105.956 163.094C108.57 162.865 110.524 164.637 110.734 167.044C110.945 169.451 109.328 171.536 106.714 171.765C104.1 171.993 102.146 170.221 101.936 167.814C101.725 165.407 103.342 163.322 105.956 163.094ZM106.579 169.849C107.87 169.736 108.751 168.615 108.63 167.228C108.507 165.826 107.446 164.891 106.155 165.004C104.816 165.121 103.917 166.227 104.04 167.63C104.162 169.033 105.24 169.966 106.579 169.849ZM113.275 174.82L112.229 162.866L114.253 162.689L114.31 163.343C114.878 162.666 115.628 162.247 116.728 162.151C119.278 161.928 120.983 163.787 121.188 166.13C121.393 168.473 120.037 170.599 117.486 170.822C116.387 170.918 115.575 170.636 114.899 170.069L115.299 174.643L113.275 174.82ZM116.608 164.089C115.668 164.171 114.939 164.653 114.495 165.446L114.715 167.965C115.324 168.683 116.108 169.015 117.032 168.935C118.403 168.815 119.206 167.716 119.084 166.314C118.961 164.911 117.979 163.969 116.608 164.089ZM123.586 160.459C122.869 160.522 122.211 159.969 122.148 159.252C122.085 158.535 122.638 157.876 123.355 157.813C124.072 157.75 124.715 158.305 124.778 159.022C124.84 159.739 124.304 160.396 123.586 160.459ZM123.392 169.984L122.689 161.951L124.713 161.774L125.416 169.807L123.392 169.984ZM135.125 167.641C134.464 168.71 133.275 169.441 131.761 169.573C128.908 169.823 127.123 167.971 126.918 165.628C126.711 163.253 128.037 161.162 130.667 160.932C132.899 160.737 134.498 162.122 134.682 164.226C134.721 164.673 134.693 165.093 134.653 165.369L129.027 165.861C129.349 167.343 130.327 167.868 131.586 167.758C132.462 167.681 133.194 167.231 133.574 166.62L135.125 167.641ZM130.765 162.594C129.729 162.684 129.093 163.318 128.962 164.389L132.66 164.066C132.557 163.256 131.896 162.495 130.765 162.594ZM137.074 168.787L136.371 160.754L138.395 160.577L138.465 161.374C138.944 160.786 139.593 160.311 140.501 160.232C140.772 160.208 141.016 160.235 141.212 160.282L141.387 162.275C141.126 162.233 140.851 162.209 140.484 162.241C139.496 162.328 138.906 162.925 138.648 163.462L139.098 168.61L137.074 168.787Z" fill="#161616"/>
<path d="M83.0083 220.647L79.9417 218.104L80.7902 217.093C81.0225 216.816 81.3242 216.662 81.6952 216.629C82.0658 216.597 82.3895 216.697 82.6663 216.929L83.6775 217.778C83.9543 218.01 84.114 218.306 84.1566 218.665C84.1991 219.023 84.1042 219.341 83.8719 219.618L83.0083 220.647ZM73.5487 229.555C73.3606 229.572 73.1974 229.522 73.0591 229.405C72.9205 229.289 72.843 229.137 72.8265 228.949L72.6624 227.073C72.6546 226.984 72.6637 226.897 72.6897 226.812C72.7156 226.725 72.7589 226.646 72.8195 226.574L79.0615 219.135L82.131 221.711L75.889 229.15C75.8284 229.222 75.7581 229.278 75.6782 229.319C75.5979 229.359 75.5135 229.383 75.4249 229.391L73.5487 229.555Z" fill="#161616"/>
<path d="M96.5291 228.548L95.553 217.391L98.3742 217.144L101.51 221.592L103.825 216.667L106.647 216.42L107.623 227.578L105.359 227.776L104.659 219.774L102.538 224.168L100.944 224.307L98.0925 220.349L98.7925 228.35L96.5291 228.548ZM113.451 218.652C116.066 218.423 118.019 220.196 118.23 222.602C118.441 225.009 116.824 227.094 114.21 227.323C111.596 227.551 109.642 225.779 109.432 223.372C109.221 220.965 110.837 218.881 113.451 218.652ZM114.075 225.407C115.366 225.294 116.247 224.173 116.126 222.786C116.003 221.384 114.942 220.449 113.651 220.562C112.312 220.679 111.413 221.785 111.536 223.188C111.658 224.591 112.736 225.524 114.075 225.407ZM119.58 222.484C119.375 220.141 120.747 218.014 123.281 217.792C124.365 217.697 125.176 217.963 125.852 218.531L125.453 213.972L127.493 213.794L128.539 225.748L126.499 225.926L126.443 225.289C125.876 225.965 125.124 226.368 124.04 226.463C121.506 226.684 119.785 224.827 119.58 222.484ZM121.7 222.299C121.823 223.701 122.789 224.645 124.16 224.525C125.068 224.445 125.784 223.997 126.262 223.217L126.033 220.603C125.427 219.917 124.644 219.6 123.736 219.679C122.365 219.799 121.578 220.896 121.7 222.299ZM131.16 216.01C130.443 216.073 129.784 215.52 129.721 214.803C129.659 214.086 130.211 213.427 130.929 213.364C131.646 213.302 132.289 213.856 132.351 214.573C132.414 215.29 131.877 215.948 131.16 216.01ZM130.966 225.536L130.263 217.502L132.287 217.325L132.99 225.358L130.966 225.536ZM133.726 217.199L135.225 217.068L135.151 216.223C135.001 214.518 136.013 213.048 138.022 212.872C138.755 212.808 139.392 212.929 139.925 213.156L139.213 214.92C138.958 214.766 138.627 214.65 138.212 214.687C137.527 214.747 137.123 215.264 137.187 215.997L137.265 216.89L139.719 216.675L139.878 218.492L137.424 218.707L137.968 224.923L135.927 225.101L135.384 218.885L133.885 219.016L133.726 217.199ZM142.134 215.05C141.417 215.113 140.758 214.56 140.695 213.843C140.632 213.126 141.185 212.467 141.902 212.404C142.62 212.342 143.262 212.896 143.325 213.613C143.388 214.33 142.851 214.988 142.134 215.05ZM141.939 224.575L141.236 216.542L143.261 216.365L143.964 224.398L141.939 224.575ZM153.672 222.232C153.011 223.302 151.822 224.032 150.308 224.165C147.455 224.414 145.671 222.563 145.466 220.22C145.258 217.845 146.585 215.753 149.215 215.523C151.446 215.328 153.045 216.714 153.229 218.818C153.268 219.264 153.241 219.684 153.201 219.96L147.574 220.453C147.897 221.934 148.874 222.459 150.133 222.349C151.01 222.272 151.741 221.823 152.122 221.211L153.672 222.232ZM149.312 217.185C148.276 217.275 147.641 217.909 147.51 218.981L151.208 218.657C151.105 217.847 150.444 217.086 149.312 217.185ZM155.621 223.378L154.919 215.345L156.943 215.168L157.013 215.965C157.491 215.377 158.14 214.903 159.049 214.823C159.32 214.799 159.563 214.826 159.76 214.873L159.934 216.866C159.674 216.824 159.398 216.8 159.032 216.832C158.044 216.919 157.453 217.516 157.195 218.053L157.646 223.201L155.621 223.378Z" fill="#161616"/>
<path d="M80.422 285.168C80.0568 285.2 79.7328 285.097 79.4502 284.86C79.1671 284.622 79.0095 284.321 78.9776 283.956L78.2222 275.322C78.0341 275.339 77.8707 275.289 77.732 275.173C77.5938 275.057 77.5165 274.904 77.5 274.716C77.4835 274.528 77.5333 274.365 77.6492 274.226C77.7656 274.088 77.9179 274.01 78.106 273.994L80.7625 273.761C80.7461 273.573 80.796 273.41 80.9124 273.271C81.0283 273.133 81.1804 273.056 81.3686 273.039L84.0251 272.807C84.2133 272.79 84.3767 272.84 84.5153 272.956C84.6535 273.072 84.7309 273.225 84.7473 273.413L87.4038 273.18C87.592 273.164 87.7552 273.214 87.8934 273.33C88.032 273.446 88.1096 273.598 88.1261 273.786C88.1425 273.975 88.0926 274.138 87.9762 274.277C87.8603 274.415 87.7082 274.492 87.52 274.509L88.2754 283.142C88.3074 283.508 88.2048 283.832 87.9677 284.115C87.7301 284.398 87.4286 284.555 87.0633 284.587L80.422 285.168ZM81.4598 281.731C81.4763 281.919 81.5538 282.071 81.6924 282.187C81.8307 282.304 81.9939 282.353 82.182 282.337C82.3702 282.321 82.5225 282.243 82.6388 282.104C82.7548 281.966 82.8045 281.803 82.788 281.615L82.3813 276.966C82.3649 276.778 82.2875 276.625 82.1493 276.509C82.0107 276.393 81.8473 276.343 81.6591 276.36C81.4709 276.376 81.3189 276.454 81.2029 276.592C81.0865 276.73 81.0366 276.894 81.0531 277.082L81.4598 281.731ZM84.1163 281.499C84.1328 281.687 84.2103 281.839 84.3489 281.955C84.4872 282.071 84.6504 282.121 84.8385 282.105C85.0267 282.088 85.179 282.011 85.2953 281.872C85.4113 281.734 85.461 281.571 85.4446 281.382L85.0378 276.733C85.0214 276.545 84.944 276.393 84.8058 276.277C84.6672 276.161 84.5038 276.111 84.3156 276.127C84.1274 276.144 83.9754 276.221 83.8594 276.359C83.7431 276.498 83.6931 276.661 83.7096 276.85L84.1163 281.499Z" fill="#D31140"/>
<path d="M100.271 282.877L101.78 281.219C102.525 282.021 103.462 282.453 104.37 282.374C105.263 282.296 105.763 281.77 105.693 280.973C105.513 278.917 100.494 279.918 100.163 276.141C100.008 274.372 101.346 272.777 103.482 272.59C105.156 272.444 106.496 273.081 107.552 274.129L106.025 275.773C105.298 274.985 104.516 274.491 103.671 274.565C102.874 274.635 102.393 275.191 102.451 275.86C102.628 277.885 107.647 276.867 107.982 280.693C108.134 282.799 106.618 284.201 104.562 284.381C102.681 284.545 101.362 283.97 100.271 282.877ZM115.307 279.618L114.908 275.06L116.948 274.881L117.339 279.344C117.549 281.751 116.276 283.356 113.917 283.562C111.558 283.769 110.042 282.408 109.831 280.001L109.441 275.538L111.481 275.359L111.88 279.918C111.982 281.082 112.65 281.746 113.766 281.648C114.866 281.552 115.409 280.782 115.307 279.618ZM120.235 286.639L119.189 274.685L121.213 274.508L121.27 275.161C121.838 274.485 122.588 274.066 123.688 273.97C126.238 273.747 127.942 275.606 128.147 277.949C128.352 280.292 126.997 282.418 124.446 282.641C123.347 282.737 122.535 282.455 121.859 281.888L122.259 286.462L120.235 286.639ZM123.568 275.908C122.628 275.99 121.899 276.472 121.454 277.265L121.675 279.784C122.284 280.501 123.068 280.834 123.992 280.754C125.363 280.634 126.166 279.535 126.044 278.133C125.921 276.73 124.939 275.788 123.568 275.908ZM130.695 285.724L129.649 273.77L131.673 273.593L131.73 274.246C132.298 273.57 133.048 273.151 134.148 273.055C136.698 272.832 138.403 274.691 138.608 277.034C138.813 279.377 137.457 281.503 134.906 281.726C133.807 281.822 132.995 281.54 132.319 280.973L132.719 285.547L130.695 285.724ZM134.028 274.993C133.088 275.075 132.359 275.557 131.915 276.35L132.135 278.869C132.744 279.586 133.528 279.919 134.452 279.838C135.823 279.718 136.626 278.62 136.504 277.218C136.381 275.815 135.399 274.873 134.028 274.993ZM140.812 280.888L140.109 272.855L142.133 272.678L142.203 273.475C142.682 272.887 143.331 272.412 144.239 272.333C144.51 272.309 144.753 272.336 144.95 272.383L145.125 274.375C144.864 274.334 144.589 274.31 144.222 274.342C143.234 274.428 142.644 275.026 142.386 275.563L142.836 280.711L140.812 280.888ZM147.482 270.796C146.764 270.859 146.106 270.306 146.043 269.589C145.98 268.872 146.533 268.213 147.25 268.151C147.967 268.088 148.61 268.642 148.673 269.359C148.736 270.076 148.199 270.734 147.482 270.796ZM147.287 280.322L146.584 272.288L148.609 272.111L149.311 280.145L147.287 280.322ZM151.739 279.932L151.036 271.899L153.06 271.722L153.113 272.327C153.609 271.754 154.26 271.296 155.248 271.209C156.268 271.12 157.2 271.488 157.801 272.303C158.313 271.551 159.026 270.879 160.38 270.76C162.038 270.615 163.445 271.648 163.643 273.912L164.076 278.853L162.036 279.031L161.61 274.17C161.525 273.198 160.946 272.638 160.038 272.717C159.161 272.794 158.736 273.442 158.464 274.011C158.49 274.122 158.5 274.233 158.511 274.361L158.943 279.302L156.903 279.48L156.478 274.619C156.393 273.647 155.814 273.087 154.905 273.166C153.981 273.247 153.563 273.975 153.304 274.511L153.763 279.755L151.739 279.932ZM173.667 276.697C173.006 277.766 171.817 278.497 170.303 278.629C167.45 278.879 165.666 277.027 165.461 274.684C165.253 272.309 166.58 270.218 169.21 269.988C171.441 269.792 173.04 271.178 173.224 273.282C173.263 273.729 173.236 274.149 173.196 274.425L167.569 274.917C167.892 276.399 168.869 276.924 170.128 276.814C171.005 276.737 171.736 276.287 172.117 275.676L173.667 276.697ZM169.307 271.649C168.271 271.74 167.636 272.374 167.505 273.445L171.203 273.122C171.1 272.312 170.439 271.55 169.307 271.649ZM175.616 277.843L174.914 269.81L176.938 269.633L177.008 270.43C177.486 269.842 178.135 269.367 179.044 269.288C179.315 269.264 179.558 269.291 179.755 269.338L179.929 271.33C179.669 271.289 179.393 271.265 179.027 271.297C178.039 271.383 177.448 271.981 177.19 272.518L177.641 277.666L175.616 277.843Z" fill="#D31140"/>
</g>
</g>
</g>
</g>
<defs>
<filter id="filter0_i_1218_6683" x="44.667" y="161.253" width="379.5" height="100.425" filterUnits="userSpaceOnUse" color-interpolation-filters="sRGB">
<feFlood flood-opacity="0" result="BackgroundImageFix"/>
<feBlend mode="normal" in="SourceGraphic" in2="BackgroundImageFix" result="shape"/>
<feColorMatrix in="SourceAlpha" type="matrix" values="0 0 0 0 0 0 0 0 0 0 0 0 0 0 0 0 0 0 127 0" result="hardAlpha"/>
<feOffset dy="1"/>
<feComposite in2="hardAlpha" operator="arithmetic" k2="-1" k3="1"/>
<feColorMatrix type="matrix" values="0 0 0 0 0.462745 0 0 0 0 0.482353 0 0 0 0 0.658824 0 0 0 0.2 0"/>
<feBlend mode="normal" in2="shape" result="effect1_innerShadow_1218_6683"/>
</filter>
<clipPath id="clip0_1218_6683">
<rect width="470" height="292" fill="white"/>
</clipPath>
<clipPath id="clip1_1218_6683">
<rect width="470.221" height="292.137" fill="white" transform="translate(6.93652 47.8457) rotate(-5)"/>
</clipPath>
<clipPath id="clip2_1218_6683">
<rect width="376.793" height="468.017" fill="white" transform="translate(29.7676 39.6483) rotate(-5)"/>
</clipPath>
<clipPath id="clip3_1218_6683">
<rect width="375" height="743" fill="white" transform="translate(-8.67188 -415.734) rotate(-5)"/>
</clipPath>
<clipPath id="clip4_1218_6683">
<rect width="24" height="24" fill="white" transform="translate(211.293 192.409) rotate(-5)"/>
</clipPath>
</defs>
</svg>
