<svg width="355" height="174" viewBox="0 0 355 174" fill="none" xmlns="http://www.w3.org/2000/svg">
<rect x="18.7378" y="28.965" width="326.123" height="124.363" rx="11.4995" transform="rotate(-5 18.7378 28.965)" fill="#F1F1F1" stroke="#878787" stroke-width="0.999955" stroke-dasharray="5 5"/>
<g filter="url(#filter0_d_4866_12432)">
<g clip-path="url(#clip0_4866_12432)">
<rect y="50.2752" width="328.138" height="124.052" rx="16" transform="rotate(-5 0 50.2752)" fill="white"/>
<path d="M46.8628 75.6041C45.1157 75.7569 43.9755 77.0603 44.1185 78.6958L44.1195 78.707C44.2533 80.2364 45.4349 81.2692 46.981 81.134C48.0863 81.0373 48.7403 80.412 48.9804 79.7498L49.0921 79.74C49.0974 79.8014 49.0972 79.8633 49.1026 79.9247C49.176 81.4707 48.7439 82.7684 47.4657 82.8802C46.7568 82.9422 46.2278 82.6173 45.9663 82.0721L45.9447 82.0177L44.5269 82.1418L44.5434 82.2022C44.9081 83.4133 46.09 84.193 47.5692 84.0636C49.5954 83.8863 50.6772 82.1718 50.4399 79.459L50.4389 79.4478C50.185 76.5452 48.5821 75.4536 46.8628 75.6041ZM47.2416 79.9975C46.3262 80.0776 45.6033 79.4659 45.5218 78.5337L45.5208 78.5225C45.4422 77.6238 46.089 76.8529 46.9766 76.7753C47.8697 76.6971 48.6304 77.3562 48.711 78.2772L48.712 78.2883C48.7916 79.1982 48.1514 79.9179 47.2416 79.9975Z" fill="#161616"/>
<path d="M52.6492 78.1576C53.1628 78.1127 53.5026 77.6892 53.4596 77.198C53.4161 76.7012 53.0084 76.3488 52.4949 76.3937C51.987 76.4382 51.6411 76.8565 51.6845 77.3533C51.7275 77.8445 52.1413 78.202 52.6492 78.1576ZM53.0116 82.2994C53.5251 82.2545 53.8654 81.8366 53.822 81.3398C53.7785 80.843 53.3708 80.4906 52.8573 80.5355C52.3493 80.5799 52.0034 80.9983 52.0469 81.4951C52.0904 81.9919 52.5036 82.3438 53.0116 82.2994Z" fill="#161616"/>
<path d="M59.3187 82.8331L60.6975 82.7125L60.5622 81.1663L61.6451 81.0716L61.541 79.8826L60.4582 79.9774L59.9928 74.6578L57.9554 74.8361C57.0068 76.5952 56.0247 78.5485 55.1396 80.4539L55.2426 81.6317L59.1834 81.2869L59.3187 82.8331ZM56.4812 80.3591L56.4739 80.2753C57.1357 78.8394 57.9375 77.2675 58.6532 75.9337L58.737 75.9264L59.1047 80.1295L56.4812 80.3591Z" fill="#161616"/>
<path d="M64.8897 82.3457L66.3298 82.2197L65.6251 74.1651L64.1906 74.2906L62.2156 75.9539L62.3343 77.3103L64.2141 75.7172L64.309 75.7089L64.8897 82.3457Z" fill="#161616"/>
<rect opacity="0.35" x="274.489" y="56.2006" width="16.0659" height="7.9056" rx="1.65686" transform="rotate(-5 274.489 56.2006)" stroke="black" stroke-width="0.764706"/>
<path opacity="0.4" d="M291.848 57.1138L292.114 60.1623C292.705 59.8504 293.051 59.2149 292.993 58.5495C292.935 57.8841 292.483 57.3183 291.848 57.1138Z" fill="black"/>
<rect x="275.732" y="57.244" width="13.7705" height="5.6102" rx="1.01961" transform="rotate(-5 275.732 57.244)" fill="black"/>
<path fill-rule="evenodd" clip-rule="evenodd" d="M264.574 58.4367C266.269 58.2884 267.957 58.7967 269.288 59.8564C269.388 59.9385 269.536 59.9244 269.619 59.8249L270.426 58.8556C270.468 58.8051 270.488 58.74 270.482 58.6746C270.476 58.6092 270.444 58.5489 270.393 58.5071C266.898 55.701 261.81 56.1462 258.855 59.5166C258.812 59.5666 258.791 59.6314 258.796 59.6969C258.801 59.7624 258.833 59.823 258.883 59.8654L259.846 60.68C259.945 60.7636 260.093 60.7518 260.177 60.6535C261.304 59.3786 262.878 58.585 264.574 58.4367ZM264.828 61.3385C265.759 61.2569 266.688 61.5243 267.433 62.0887C267.534 62.1692 267.681 62.1544 267.764 62.0553L268.57 61.0861C268.612 61.0352 268.632 60.9695 268.626 60.9036C268.62 60.8377 268.587 60.7772 268.535 60.7355C266.262 58.9651 263.005 59.25 261.073 61.3883C261.03 61.4383 261.008 61.5037 261.013 61.5697C261.019 61.6357 261.05 61.6969 261.101 61.7395L262.062 62.5542C262.161 62.6373 262.308 62.6264 262.394 62.5295C263.029 61.8448 263.897 61.4203 264.828 61.3385ZM266.768 63.1361C266.776 63.2021 266.755 63.2681 266.712 63.3186L265.318 64.9933C265.278 65.0425 265.219 65.0733 265.155 65.0789C265.091 65.0845 265.028 65.0643 264.979 65.023L263.316 63.6157C263.265 63.5735 263.233 63.5119 263.229 63.4457C263.224 63.3794 263.248 63.3143 263.293 63.2657C264.197 62.3555 265.626 62.2304 266.674 62.9698C266.727 63.0099 266.761 63.07 266.768 63.1361Z" fill="black"/>
<path fill-rule="evenodd" clip-rule="evenodd" d="M254.028 57.8629L253.266 57.9296C252.845 57.9664 252.533 58.3375 252.57 58.7584L253.148 65.3634C253.185 65.7843 253.556 66.0957 253.977 66.0588L254.739 65.9922C255.16 65.9553 255.471 65.5843 255.434 65.1634L254.857 58.5584C254.82 58.1375 254.449 57.8261 254.028 57.8629ZM249.865 60.019L250.627 59.9524C251.048 59.9155 251.419 60.2269 251.456 60.6478L251.878 65.4745C251.915 65.8954 251.604 66.2665 251.183 66.3033L250.42 66.37C250 66.4068 249.629 66.0955 249.592 65.6746L249.169 60.8478C249.133 60.4269 249.444 60.0559 249.865 60.019ZM247.226 62.0418L246.464 62.1084C246.043 62.1453 245.731 62.5163 245.768 62.9372L246.035 65.9857C246.072 66.4066 246.443 66.718 246.864 66.6811L247.626 66.6145C248.047 66.5776 248.358 66.2066 248.321 65.7857L248.055 62.7372C248.018 62.3163 247.647 62.0049 247.226 62.0418ZM243.803 63.8772L243.041 63.9439C242.62 63.9807 242.308 64.3518 242.345 64.7727L242.478 66.2969C242.515 66.7178 242.886 67.0292 243.307 66.9923L244.069 66.9257C244.49 66.8888 244.802 66.5178 244.765 66.0969L244.631 64.5726C244.595 64.1517 244.224 63.8404 243.803 63.8772Z" fill="black"/>
<rect x="20.2746" y="98.3591" width="286.12" height="55.0819" rx="16" transform="rotate(-5 20.2746 98.3591)" fill="#F1F1F1"/>
<g filter="url(#filter1_d_4866_12432)">
<rect x="257.331" y="86.8348" width="36.7213" height="36.7213" rx="18.3529" transform="rotate(-5 257.331 86.8348)" fill="#3B69D1" shape-rendering="crispEdges"/>
<path d="M277.222 103.526C278.906 103.378 280.151 101.895 280.004 100.21C279.856 98.5261 278.373 97.2812 276.688 97.4286C275.004 97.5759 273.759 99.0595 273.907 100.744C274.054 102.428 275.538 103.673 277.222 103.526ZM276.822 98.9528C277.66 98.8795 278.406 99.5054 278.479 100.344C278.553 101.182 277.927 101.928 277.089 102.001C276.25 102.075 275.504 101.449 275.431 100.61C275.358 99.7721 275.983 99.0262 276.822 98.9528ZM277.289 104.288C275.254 104.466 271.281 105.842 271.458 107.869L271.592 109.394C271.628 109.813 272.001 110.126 272.42 110.089L283.09 109.156C283.509 109.119 283.822 108.746 283.786 108.327L283.652 106.803C283.475 104.775 279.323 104.11 277.289 104.288ZM282.195 107.698L273.049 108.498L272.983 107.744C273.088 107.182 275.364 105.992 277.422 105.812C279.48 105.632 281.928 106.408 282.128 106.936L282.195 107.698Z" fill="white"/>
<rect x="257.745" y="87.1823" width="35.9566" height="35.9566" rx="17.9706" transform="rotate(-5 257.745 87.1823)" stroke="#3B69D1" stroke-width="0.764706" shape-rendering="crispEdges"/>
</g>
</g>
</g>
<defs>
<filter id="filter0_d_4866_12432" x="-25.0105" y="2.66811" width="387.722" height="202.2" filterUnits="userSpaceOnUse" color-interpolation-filters="sRGB">
<feFlood flood-opacity="0" result="BackgroundImageFix"/>
<feColorMatrix in="SourceAlpha" type="matrix" values="0 0 0 0 0 0 0 0 0 0 0 0 0 0 0 0 0 0 127 0" result="hardAlpha"/>
<feOffset dy="6"/>
<feGaussianBlur stdDeviation="12.5"/>
<feComposite in2="hardAlpha" operator="out"/>
<feColorMatrix type="matrix" values="0 0 0 0 0.196078 0 0 0 0 0.196078 0 0 0 0 0.196078 0 0 0 0.1 0"/>
<feBlend mode="normal" in2="BackgroundImageFix" result="effect1_dropShadow_4866_12432"/>
<feBlend mode="normal" in="SourceGraphic" in2="effect1_dropShadow_4866_12432" result="shape"/>
</filter>
<filter id="filter1_d_4866_12432" x="248.15" y="77.514" width="58.1425" height="58.1427" filterUnits="userSpaceOnUse" color-interpolation-filters="sRGB">
<feFlood flood-opacity="0" result="BackgroundImageFix"/>
<feColorMatrix in="SourceAlpha" type="matrix" values="0 0 0 0 0 0 0 0 0 0 0 0 0 0 0 0 0 0 127 0" result="hardAlpha"/>
<feOffset dy="3.05882"/>
<feGaussianBlur stdDeviation="4.58824"/>
<feComposite in2="hardAlpha" operator="out"/>
<feColorMatrix type="matrix" values="0 0 0 0 0.152941 0 0 0 0 0.286275 0 0 0 0 0.588235 0 0 0 0.12 0"/>
<feBlend mode="normal" in2="BackgroundImageFix" result="effect1_dropShadow_4866_12432"/>
<feBlend mode="normal" in="SourceGraphic" in2="effect1_dropShadow_4866_12432" result="shape"/>
</filter>
<clipPath id="clip0_4866_12432">
<rect y="50.2752" width="328.138" height="124.052" rx="16" transform="rotate(-5 0 50.2752)" fill="white"/>
</clipPath>
</defs>
</svg>
