<svg width="352" height="372" viewBox="0 0 352 372" fill="none" xmlns="http://www.w3.org/2000/svg">
<rect x="54.5016" y="32.4082" width="251.429" height="250.83" rx="10.4713" transform="rotate(-5 54.5016 32.4082)" fill="#F1F1F1" stroke="#878787" stroke-width="0.910548" stroke-dasharray="4.55 4.55"/>
<g filter="url(#filter0_d_5297_13132)">
<rect x="39.0061" y="22.0034" width="252.342" height="248.934" rx="5.88462" transform="rotate(-5 39.0061 22.0034)" fill="white" shape-rendering="crispEdges"/>
<rect x="52.0081" y="32.9136" width="228.338" height="236.958" rx="8" transform="rotate(-5 52.0081 32.9136)" fill="white"/>
<path d="M62.8435 54.9312L64.5177 54.7848L63.9999 48.8663L66.1093 51.7943L67.2883 51.6912L68.8572 48.4414L69.375 54.3598L71.0492 54.2133L70.3272 45.9605L68.2404 46.1431L66.5276 49.7857L64.2083 46.4959L62.1215 46.6784L62.8435 54.9312ZM75.3605 47.611C73.427 47.7802 72.2314 49.3223 72.3871 51.1025C72.5429 52.8828 73.9881 54.1938 75.9217 54.0247C77.8552 53.8555 79.0508 52.3134 78.8951 50.5332C78.7393 48.7529 77.294 47.4419 75.3605 47.611ZM75.8215 52.6078C74.8311 52.6945 74.0341 52.0039 73.9434 50.9664C73.8526 49.9289 74.5176 49.1104 75.5079 49.0238C76.4629 48.9402 77.248 49.6318 77.3388 50.6693C77.4286 51.695 76.7764 52.5243 75.8215 52.6078ZM80.6391 51.1884C80.7659 52.6386 81.5466 53.4137 83.0321 53.2838C83.5272 53.2405 83.8758 53.1506 84.1592 52.9951L84.0447 51.6864C83.8515 51.7865 83.5844 51.8574 83.1718 51.8935C82.5823 51.9451 82.2059 51.7166 82.1482 51.0564L81.9357 48.6277L83.7513 48.4689L83.6337 47.1248L81.8181 47.2837L81.6881 45.7982L80.179 45.9302L80.309 47.4157L79.2008 47.5127L79.3183 48.8567L80.4266 48.7597L80.6391 51.1884ZM84.9004 52.1343C85.5251 52.7568 86.3168 53.1152 87.3779 53.0224C88.4979 52.9244 89.4402 52.1529 89.3544 50.9011C89.175 48.8497 86.3646 49.452 86.2759 48.4381C86.2491 48.1315 86.4504 47.8526 86.922 47.8113C87.3818 47.7711 87.7976 48.0436 88.1372 48.394L89.0512 47.4349C88.5762 46.8944 87.7128 46.5304 86.805 46.6098C85.567 46.7181 84.7519 47.5854 84.8437 48.6347C85.0263 50.7214 87.8336 50.0838 87.9243 51.1213C87.9553 51.475 87.7325 51.7796 87.2491 51.8219C86.6832 51.8714 86.2181 51.5794 85.8124 51.1516L84.9004 52.1343ZM96.8104 50.7715C95.8083 50.8592 95.0241 50.1794 94.9323 49.1301C94.8415 48.0926 95.4947 47.2751 96.4733 47.1895C97.0863 47.1359 97.5816 47.3658 97.9007 47.7537L98.9895 46.7555C98.3714 46.0731 97.4577 45.6778 96.3731 45.7727C94.3216 45.9522 93.2244 47.5332 93.3761 49.2662C93.5277 50.9993 94.8828 52.3658 96.9342 52.1863C98.0188 52.0914 98.85 51.5435 99.3402 50.764L98.0946 49.9701C97.8478 50.4075 97.3999 50.72 96.8104 50.7715ZM100.542 51.633L102.04 51.502L101.266 42.6597L99.7689 42.7907L100.542 51.633ZM109.221 49.8996L108.074 49.1446C107.793 49.5969 107.252 49.9293 106.603 49.9861C105.672 50.0675 104.949 49.6794 104.71 48.5835L108.872 48.2194C108.902 48.0148 108.922 47.7042 108.893 47.3741C108.757 45.8178 107.575 44.7927 105.924 44.9371C103.979 45.1073 102.997 46.6544 103.151 48.4111C103.303 50.1441 104.622 51.5137 106.733 51.329C107.853 51.2311 108.732 50.6908 109.221 49.8996ZM105.996 46.1663C106.833 46.0931 107.322 46.6562 107.398 47.2554L104.663 47.4947C104.76 46.7022 105.23 46.2334 105.996 46.1663ZM109.412 44.8695L109.53 46.2136L110.638 46.1166L111.04 50.7146L112.549 50.5826L112.147 45.9846L113.962 45.8257L113.845 44.4817L112.029 44.6405L111.972 43.9803C111.924 43.438 112.223 43.0554 112.73 43.0111C113.037 42.9843 113.282 43.0697 113.47 43.1839L113.997 41.8785C113.602 41.7111 113.131 41.6217 112.589 41.6691C111.104 41.7991 110.355 42.8862 110.466 44.1477L110.52 44.7726L109.412 44.8695ZM114.593 49.5365C115.218 50.159 116.01 50.5174 117.071 50.4246C118.191 50.3266 119.133 49.5551 119.048 48.3033C118.868 46.2519 116.058 46.8542 115.969 45.8403C115.942 45.5337 116.143 45.2548 116.615 45.2135C117.075 45.1733 117.491 45.4458 117.83 45.7962L118.744 44.8371C118.269 44.2966 117.406 43.9326 116.498 44.012C115.26 44.1203 114.445 44.9876 114.537 46.0368C114.719 48.1236 117.527 47.486 117.617 48.5235C117.648 48.8772 117.426 49.1818 116.942 49.2241C116.376 49.2736 115.911 48.9816 115.505 48.5538L114.593 49.5365Z" fill="#161616"/>
<rect x="63.1521" y="68.2013" width="212.286" height="34.7647" rx="5.54668" transform="rotate(-5 63.1521 68.2013)" fill="white"/>
<rect x="63.1521" y="68.2013" width="212.286" height="34.7647" rx="5.54668" transform="rotate(-5 63.1521 68.2013)" stroke="#3B69D1" stroke-width="0.739558"/>
<path d="M71.7151 120.341L75.5614 128.32L77.7542 128.128L80.1565 119.602L78.3763 119.758L76.5 126.42L73.4953 120.185L71.7151 120.341ZM83.6313 121.389C81.6978 121.558 80.5022 123.1 80.6579 124.88C80.8137 126.661 82.2589 127.972 84.1925 127.802C86.126 127.633 87.3216 126.091 87.1659 124.311C87.0101 122.531 85.5649 121.22 83.6313 121.389ZM84.0923 126.386C83.1019 126.472 82.3049 125.782 82.2142 124.744C82.1234 123.707 82.7884 122.888 83.7787 122.802C84.7337 122.718 85.5188 123.41 85.6096 124.447C85.6994 125.473 85.0472 126.302 84.0923 126.386ZM88.0017 126.364C88.6264 126.987 89.4181 127.345 90.4791 127.252C91.5992 127.154 92.5415 126.383 92.4557 125.131C92.2762 123.08 89.4659 123.682 89.3772 122.668C89.3503 122.362 89.5516 122.083 90.0232 122.041C90.483 122.001 90.8989 122.274 91.2385 122.624L92.1525 121.665C91.6775 121.124 90.814 120.76 89.9062 120.84C88.6683 120.948 87.8532 121.815 87.945 122.865C88.1276 124.952 90.9348 124.314 91.0256 125.351C91.0566 125.705 90.8337 126.01 90.3504 126.052C89.7844 126.102 89.3193 125.81 88.9136 125.382L88.0017 126.364ZM97.4155 129.331L98.9127 129.2L98.6167 125.816C99.1167 126.235 99.7171 126.444 100.531 126.373C102.417 126.208 103.42 124.635 103.268 122.902C103.117 121.169 101.856 119.794 99.9695 119.959C99.156 120.031 98.601 120.341 98.1814 120.841L98.1391 120.357L96.6419 120.488L97.4155 129.331ZM99.8811 121.393C100.895 121.304 101.621 122.001 101.712 123.038C101.803 124.076 101.209 124.888 100.195 124.977C99.5108 125.037 98.9309 124.79 98.4806 124.26L98.3176 122.397C98.6464 121.81 99.1855 121.454 99.8811 121.393ZM104.899 125.753L106.396 125.622L106.063 121.814C106.254 121.417 106.69 120.975 107.421 120.911C107.692 120.888 107.896 120.905 108.089 120.936L107.96 119.462C107.814 119.428 107.634 119.408 107.434 119.425C106.762 119.484 106.282 119.835 105.928 120.27L105.876 119.68L104.379 119.811L104.899 125.753ZM112.287 118.169L113.531 116.088L111.904 116.231L110.849 118.295L112.287 118.169ZM114.821 123.911L113.674 123.156C113.393 123.608 112.851 123.941 112.203 123.998C111.272 124.079 110.549 123.691 110.31 122.595L114.472 122.231C114.502 122.026 114.522 121.716 114.493 121.386C114.357 119.829 113.174 118.804 111.524 118.949C109.578 119.119 108.597 120.666 108.751 122.423C108.902 124.156 110.222 125.525 112.332 125.341C113.452 125.243 114.332 124.702 114.821 123.911ZM111.596 120.178C112.433 120.105 112.921 120.668 112.998 121.267L110.262 121.506C110.359 120.714 110.829 120.245 111.596 120.178ZM115.012 118.881L115.129 120.225L116.237 120.128L116.64 124.726L118.149 124.594L117.747 119.996L119.562 119.837L119.445 118.493L117.629 118.652L117.571 117.992C117.524 117.45 117.823 117.067 118.33 117.023C118.636 116.996 118.881 117.081 119.07 117.195L119.597 115.89C119.202 115.723 118.731 115.633 118.189 115.681C116.703 115.811 115.955 116.898 116.065 118.159L116.12 118.784L115.012 118.881ZM123.616 117.178L124.86 115.097L123.233 115.239L122.178 117.304L123.616 117.178ZM126.15 122.92L125.003 122.165C124.722 122.617 124.181 122.95 123.532 123.006C122.601 123.088 121.878 122.7 121.639 121.604L125.801 121.24C125.831 121.035 125.851 120.725 125.822 120.394C125.686 118.838 124.503 117.813 122.853 117.957C120.908 118.128 119.926 119.675 120.08 121.431C120.231 123.164 121.551 124.534 123.662 124.349C124.782 124.251 125.661 123.711 126.15 122.92ZM122.925 119.187C123.762 119.113 124.251 119.677 124.327 120.276L121.592 120.515C121.689 119.723 122.158 119.254 122.925 119.187ZM127.592 123.768L129.089 123.637L128.756 119.829C128.947 119.432 129.383 118.99 130.114 118.926C130.385 118.902 130.589 118.92 130.782 118.951L130.653 117.477C130.507 117.442 130.327 117.422 130.127 117.44C129.455 117.499 128.975 117.85 128.621 118.284L128.569 117.695L127.072 117.826L127.592 123.768ZM137.514 121.926L136.367 121.171C136.085 121.623 135.544 121.955 134.896 122.012C133.964 122.094 133.241 121.706 133.003 120.61L137.165 120.246C137.194 120.041 137.215 119.73 137.186 119.4C137.05 117.844 135.867 116.819 134.217 116.963C132.271 117.133 131.29 118.681 131.444 120.437C131.595 122.17 132.915 123.54 135.025 123.355C136.145 123.257 137.025 122.717 137.514 121.926ZM134.288 118.192C135.126 118.119 135.614 118.682 135.691 119.282L132.955 119.521C133.052 118.728 133.522 118.26 134.288 118.192ZM138.955 122.774L140.453 122.643L140.113 118.764C140.304 118.367 140.661 117.825 141.415 117.759C142.146 117.695 142.638 118.151 142.707 118.941L143.011 122.419L144.52 122.287L144.211 118.75C144.057 116.993 142.954 116.199 141.669 116.311C140.879 116.38 140.352 116.735 139.974 117.172L139.933 116.701L138.436 116.832L138.955 122.774ZM148.97 120.71C147.968 120.797 147.184 120.117 147.092 119.068C147.001 118.031 147.655 117.213 148.633 117.128C149.246 117.074 149.742 117.304 150.061 117.692L151.149 116.694C150.531 116.011 149.618 115.616 148.533 115.711C146.482 115.89 145.384 117.471 145.536 119.204C145.688 120.937 147.043 122.304 149.094 122.124C150.179 122.029 151.01 121.482 151.5 120.702L150.255 119.908C150.008 120.346 149.56 120.658 148.97 120.71ZM157.858 120.146L156.711 119.391C156.43 119.843 155.889 120.176 155.24 120.232C154.309 120.314 153.586 119.926 153.347 118.83L157.509 118.466C157.539 118.261 157.559 117.95 157.53 117.62C157.394 116.064 156.211 115.039 154.561 115.183C152.615 115.354 151.634 116.901 151.788 118.657C151.939 120.39 153.259 121.76 155.369 121.575C156.489 121.477 157.369 120.937 157.858 120.146ZM154.633 116.413C155.47 116.339 155.959 116.902 156.035 117.502L153.3 117.741C153.396 116.948 153.866 116.48 154.633 116.413ZM158.625 120.186C159.25 120.808 160.041 121.167 161.102 121.074C162.222 120.976 163.165 120.204 163.079 118.953C162.899 116.901 160.089 117.503 160 116.489C159.974 116.183 160.175 115.904 160.646 115.863C161.106 115.822 161.522 116.095 161.862 116.445L162.776 115.486C162.301 114.946 161.437 114.582 160.529 114.661C159.292 114.769 158.476 115.637 158.568 116.686C158.751 118.773 161.558 118.135 161.649 119.173C161.68 119.526 161.457 119.831 160.974 119.873C160.408 119.923 159.943 119.631 159.537 119.203L158.625 120.186ZM167.785 120.251L169.282 120.121L168.943 116.242C169.134 115.845 169.443 115.307 170.127 115.247C170.799 115.188 171.227 115.602 171.29 116.321L171.605 119.917L173.114 119.785L172.794 116.13C172.786 116.036 172.779 115.954 172.76 115.872C172.96 115.451 173.275 114.972 173.923 114.915C174.595 114.856 175.024 115.27 175.087 115.989L175.401 119.585L176.91 119.453L176.59 115.798C176.444 114.124 175.403 113.36 174.177 113.467C173.175 113.555 172.648 114.052 172.269 114.608C171.824 114.006 171.135 113.733 170.381 113.799C169.65 113.863 169.168 114.202 168.802 114.626L168.762 114.178L167.265 114.309L167.785 120.251ZM181.471 112.116L182.715 110.035L181.088 110.178L180.033 112.242L181.471 112.116ZM184.005 117.858L182.858 117.103C182.577 117.556 182.035 117.888 181.387 117.945C180.456 118.026 179.733 117.638 179.494 116.542L183.656 116.178C183.686 115.974 183.706 115.663 183.677 115.333C183.541 113.777 182.358 112.751 180.708 112.896C178.762 113.066 177.781 114.613 177.935 116.37C178.086 118.103 179.406 119.472 181.516 119.288C182.636 119.19 183.516 118.65 184.005 117.858ZM180.78 114.125C181.617 114.052 182.106 114.615 182.182 115.214L179.446 115.453C179.543 114.661 180.013 114.192 180.78 114.125ZM185.623 116.505C185.749 117.955 186.53 118.73 188.015 118.6C188.511 118.557 188.859 118.467 189.143 118.312L189.028 117.003C188.835 117.103 188.568 117.174 188.155 117.21C187.566 117.262 187.189 117.033 187.132 116.373L186.919 113.944L188.735 113.785L188.617 112.441L186.802 112.6L186.672 111.115L185.162 111.247L185.292 112.732L184.184 112.829L184.302 114.173L185.41 114.076L185.623 116.505ZM190.622 111.221C191.152 111.174 191.549 110.688 191.503 110.157C191.457 109.627 190.981 109.217 190.451 109.263C189.92 109.31 189.511 109.797 189.558 110.328C189.604 110.858 190.091 111.267 190.622 111.221ZM190.478 118.266L191.975 118.135L191.455 112.193L189.958 112.324L190.478 118.266ZM199.157 116.533L198.009 115.778C197.728 116.23 197.187 116.562 196.539 116.619C195.607 116.701 194.884 116.312 194.646 115.217L198.808 114.852C198.837 114.648 198.858 114.337 198.829 114.007C198.693 112.451 197.51 111.426 195.859 111.57C193.914 111.74 192.933 113.287 193.086 115.044C193.238 116.777 194.558 118.147 196.668 117.962C197.788 117.864 198.667 117.324 199.157 116.533ZM195.931 112.799C196.768 112.726 197.257 113.289 197.333 113.889L194.598 114.128C194.695 113.335 195.165 112.866 195.931 112.799ZM200.598 117.381L202.095 117.25L201.762 113.442C201.953 113.045 202.39 112.603 203.121 112.539C203.392 112.515 203.595 112.533 203.788 112.563L203.659 111.09C203.514 111.055 203.334 111.035 203.133 111.053C202.461 111.111 201.981 111.462 201.627 111.897L201.576 111.308L200.078 111.439L200.598 117.381ZM204.794 116.146C205.418 116.769 206.21 117.127 207.271 117.035C208.391 116.937 209.333 116.165 209.248 114.913C209.068 112.862 206.258 113.464 206.169 112.45C206.142 112.144 206.344 111.865 206.815 111.823C207.275 111.783 207.691 112.056 208.03 112.406L208.944 111.447C208.47 110.907 207.606 110.542 206.698 110.622C205.46 110.73 204.645 111.597 204.737 112.647C204.92 114.734 207.727 114.096 207.818 115.133C207.849 115.487 207.626 115.792 207.142 115.834C206.576 115.884 206.111 115.592 205.706 115.164L204.794 116.146Z" fill="black"/>
<path d="M71.0793 160.075L69.5564 160.208C69.3599 160.225 69.207 160.15 69.0976 159.982C68.9879 159.814 68.9832 159.643 69.0835 159.47L72.2935 153.868C72.3653 153.746 72.4647 153.657 72.5918 153.6C72.7189 153.544 72.8541 153.534 72.9976 153.571C73.1411 153.608 73.251 153.685 73.3272 153.802C73.4034 153.919 73.4395 154.048 73.4353 154.188L73.3206 157.404L75.2241 157.237C75.437 157.218 75.5947 157.3 75.6973 157.48C75.7996 157.661 75.7883 157.839 75.6635 158.015L72.0463 163.208C71.9656 163.322 71.8612 163.401 71.733 163.445C71.6049 163.49 71.4769 163.488 71.3491 163.442C71.2213 163.395 71.1174 163.316 71.0376 163.203C70.9575 163.09 70.9195 162.964 70.9237 162.823L71.0793 160.075Z" fill="#646464"/>
<path d="M84.9682 162.394L86.1472 162.291L86.8896 159.779L90.6859 159.447L91.8534 161.792L93.0324 161.689L89.021 153.724L87.5355 153.854L84.9682 162.394ZM87.1716 158.792L88.3628 154.756L90.2369 158.524L87.1716 158.792ZM94.4628 154.02C94.8518 153.986 95.1305 153.641 95.0965 153.252C95.0635 152.874 94.7291 152.583 94.34 152.617C93.951 152.651 93.6605 152.997 93.6935 153.375C93.7275 153.764 94.0737 154.054 94.4628 154.02ZM94.6108 161.551L95.6129 161.463L95.0931 155.521L94.0909 155.609L94.6108 161.551ZM96.964 158.351C97.1157 160.084 98.4354 161.454 100.298 161.291C101.182 161.214 101.848 160.811 102.326 160.163L102.388 160.87L103.39 160.783L102.616 151.94L101.614 152.028L101.93 155.636C101.347 155.081 100.621 154.8 99.737 154.877C97.8742 155.04 96.8124 156.618 96.964 158.351ZM98.0251 158.258C97.9148 156.997 98.6759 155.92 99.9374 155.81C100.751 155.739 101.504 156.065 102.026 156.732L102.23 159.067C101.855 159.8 101.159 160.265 100.334 160.337C99.072 160.448 98.1355 159.52 98.0251 158.258ZM110.699 159.157L109.905 158.645C109.563 159.209 108.945 159.62 108.179 159.687C106.906 159.798 105.923 159.017 105.762 157.593L110.325 157.194C110.346 157.026 110.362 156.799 110.341 156.563C110.213 155.101 109.065 154.061 107.45 154.202C105.61 154.363 104.578 155.867 104.736 157.671C104.887 159.404 106.254 160.77 108.258 160.594C109.367 160.497 110.21 159.949 110.699 159.157ZM107.5 155.053C108.55 154.962 109.215 155.64 109.327 156.509L105.766 156.821C105.889 155.777 106.522 155.139 107.5 155.053ZM111.383 156.555L111.467 157.522L114.65 157.243L114.566 156.277L111.383 156.555ZM116.418 162.565L117.42 162.478L117.104 158.87C117.687 159.425 118.413 159.706 119.297 159.629C121.16 159.466 122.222 157.888 122.07 156.155C121.918 154.422 120.599 153.052 118.736 153.215C117.852 153.292 117.186 153.695 116.708 154.343L116.646 153.635L115.644 153.723L116.418 162.565ZM118.701 154.169C119.962 154.058 120.91 154.985 121.021 156.247C121.131 157.508 120.358 158.585 119.097 158.696C118.283 158.767 117.53 158.441 117.007 157.762L116.805 155.451C117.191 154.705 117.875 154.241 118.701 154.169ZM124.491 151.999L125.375 150.425L126.507 151.822L127.403 151.744L126.005 149.894L124.65 150.013L123.583 152.078L124.491 151.999ZM125.473 159.017C126.239 158.95 126.988 158.54 127.385 157.923L127.451 158.678L128.453 158.59L128.104 154.605C127.99 153.296 127.017 152.491 125.508 152.623C124.47 152.713 123.671 153.223 123.214 153.976L124.019 154.487C124.34 153.948 124.867 153.582 125.551 153.522C126.399 153.447 127.03 153.867 127.102 154.693L127.138 155.105L125.163 155.611C123.92 155.933 123.292 156.63 123.37 157.526C123.459 158.54 124.306 159.119 125.473 159.017ZM124.381 157.402C124.337 156.895 124.67 156.497 125.472 156.285L127.202 155.836L127.305 157.004C126.971 157.674 126.356 158.108 125.566 158.177C124.87 158.238 124.426 157.909 124.381 157.402ZM130.631 156.392C130.758 157.842 131.559 158.437 132.879 158.322C133.303 158.284 133.618 158.209 133.89 158.067L133.812 157.171C133.596 157.285 133.329 157.356 132.94 157.39C132.221 157.453 131.727 157.234 131.645 156.303L131.379 153.261L133.442 153.081L133.363 152.173L131.3 152.353L131.17 150.868L130.156 150.957L130.286 152.442L129.166 152.54L129.245 153.448L130.365 153.35L130.631 156.392ZM135.266 150.45C135.655 150.416 135.934 150.071 135.9 149.682C135.867 149.305 135.533 149.013 135.144 149.047C134.754 149.081 134.464 149.427 134.497 149.805C134.531 150.194 134.877 150.484 135.266 150.45ZM135.414 157.981L136.416 157.893L135.897 151.951L134.894 152.039L135.414 157.981ZM137.781 156.954C138.382 157.579 139.157 157.891 140.101 157.809C141.209 157.712 142.032 156.939 141.947 155.829C141.77 153.802 138.824 154.487 138.707 153.155C138.667 152.695 138.976 152.288 139.613 152.232C140.132 152.187 140.604 152.43 140.962 152.851L141.606 152.2C141.143 151.659 140.377 151.322 139.528 151.396C138.384 151.496 137.661 152.332 137.743 153.263C137.926 155.361 140.856 154.63 140.973 155.962C141.018 156.481 140.676 156.915 140.016 156.973C139.414 157.025 138.893 156.774 138.435 156.291L137.781 156.954ZM142.962 156.501C143.563 157.126 144.338 157.438 145.282 157.355C146.39 157.258 147.213 156.485 147.128 155.376C146.951 153.348 144.005 154.034 143.888 152.701C143.848 152.242 144.157 151.834 144.794 151.779C145.313 151.733 145.785 151.977 146.143 152.397L146.787 151.747C146.324 151.205 145.558 150.868 144.709 150.943C143.565 151.043 142.842 151.878 142.924 152.81C143.107 154.908 146.037 154.177 146.154 155.509C146.199 156.028 145.857 156.462 145.197 156.519C144.595 156.572 144.074 156.32 143.616 155.838L142.962 156.501ZM148.748 149.271C149.138 149.237 149.416 148.891 149.382 148.502C149.349 148.125 149.015 147.834 148.626 147.868C148.237 147.902 147.946 148.248 147.979 148.625C148.013 149.014 148.359 149.305 148.748 149.271ZM148.897 156.801L149.899 156.714L149.379 150.772L148.377 150.859L148.897 156.801ZM157.213 155.088L156.42 154.575C156.077 155.14 155.459 155.55 154.693 155.617C153.42 155.729 152.437 154.947 152.277 153.524L156.839 153.125C156.86 152.957 156.876 152.729 156.855 152.494C156.727 151.032 155.579 149.992 153.964 150.133C152.125 150.294 151.092 151.798 151.25 153.602C151.401 155.335 152.768 156.7 154.773 156.525C155.881 156.428 156.724 155.879 157.213 155.088ZM154.014 150.984C155.064 150.892 155.729 151.571 155.841 152.44L152.28 152.751C152.403 151.707 153.036 151.07 154.014 150.984ZM158.867 155.929L159.869 155.841L159.512 151.762C159.825 151.129 160.297 150.684 161.075 150.616C161.311 150.595 161.49 150.603 161.671 150.635L161.585 149.656C161.44 149.622 161.261 149.613 161.072 149.63C160.318 149.696 159.805 150.085 159.414 150.642L159.349 149.899L158.347 149.987L158.867 155.929Z" fill="black"/>
<path d="M74.7112 201.588L73.1883 201.722C72.9918 201.739 72.8389 201.663 72.7295 201.496C72.6198 201.328 72.6151 201.157 72.7154 200.983L75.9254 195.381C75.9972 195.26 76.0967 195.17 76.2237 195.114C76.3508 195.057 76.486 195.048 76.6295 195.085C76.773 195.122 76.8829 195.199 76.9591 195.316C77.0354 195.433 77.0714 195.562 77.0672 195.702L76.9525 198.917L78.856 198.751C79.0689 198.732 79.2266 198.813 79.3292 198.994C79.4315 199.175 79.4202 199.353 79.2954 199.529L75.6783 204.721C75.5975 204.836 75.4931 204.915 75.3649 204.959C75.2368 205.003 75.1088 205.002 74.981 204.956C74.8532 204.909 74.7494 204.829 74.6695 204.717C74.5894 204.604 74.5514 204.478 74.5556 204.337L74.7112 201.588Z" fill="#646464"/>
<path d="M93.1515 202.702C91.2888 202.865 89.8265 201.496 89.6656 199.657C89.5047 197.818 90.707 196.216 92.5698 196.053C93.678 195.956 94.6333 196.419 95.2575 197.172L96.0819 196.411C95.2387 195.463 93.9645 194.885 92.479 195.015C89.8971 195.241 88.3157 197.399 88.522 199.757C88.7283 202.115 90.6603 203.966 93.2423 203.74C94.7278 203.61 95.8834 202.831 96.5482 201.74L95.6041 201.133C95.1201 201.983 94.2598 202.605 93.1515 202.702ZM100.322 196.658C98.4 196.826 97.2321 198.413 97.3837 200.146C97.5353 201.879 98.9611 203.239 100.883 203.071C102.793 202.904 103.973 201.316 103.821 199.583C103.669 197.85 102.232 196.491 100.322 196.658ZM100.812 202.127C99.5389 202.238 98.5413 201.292 98.433 200.054C98.3247 198.816 99.1428 197.711 100.416 197.6C101.654 197.491 102.652 198.438 102.76 199.676C102.867 200.902 102.05 202.019 100.812 202.127ZM105.692 202.413L106.694 202.325L106.334 198.211C106.657 197.553 107.156 197.01 108.016 196.935C108.936 196.854 109.591 197.415 109.684 198.476L109.995 202.036L110.997 201.949L110.683 198.353C110.535 196.667 109.466 195.858 108.134 195.974C107.25 196.051 106.67 196.482 106.233 197.055L106.174 196.383L105.172 196.471L105.692 202.413ZM111.716 195.898L111.796 196.806L112.916 196.708L113.356 201.742L114.37 201.654L113.93 196.619L115.993 196.439L115.914 195.531L113.85 195.712L113.784 194.957C113.716 194.179 114.124 193.68 114.796 193.621C115.138 193.591 115.418 193.674 115.657 193.819L116.032 192.943C115.685 192.783 115.235 192.668 114.693 192.715C113.396 192.829 112.662 193.808 112.773 195.069L112.836 195.8L111.716 195.898ZM117.506 193.835C117.895 193.801 118.174 193.456 118.14 193.067C118.107 192.69 117.773 192.398 117.384 192.432C116.994 192.467 116.704 192.813 116.737 193.19C116.771 193.579 117.117 193.87 117.506 193.835ZM117.654 201.366L118.656 201.279L118.137 195.337L117.134 195.424L117.654 201.366ZM120.021 200.34C120.622 200.964 121.397 201.276 122.341 201.194C123.449 201.097 124.272 200.324 124.187 199.215C124.01 197.187 121.064 197.872 120.947 196.54C120.907 196.08 121.216 195.673 121.853 195.617C122.372 195.572 122.844 195.816 123.202 196.236L123.846 195.586C123.383 195.044 122.617 194.707 121.768 194.781C120.624 194.881 119.901 195.717 119.983 196.648C120.166 198.747 123.096 198.015 123.213 199.348C123.258 199.866 122.916 200.3 122.256 200.358C121.654 200.41 121.133 200.159 120.675 199.676L120.021 200.34ZM131.083 199.205L130.289 198.693C129.947 199.257 129.329 199.668 128.563 199.735C127.29 199.846 126.306 199.065 126.146 197.641L130.709 197.242C130.73 197.074 130.746 196.847 130.725 196.611C130.597 195.149 129.449 194.109 127.834 194.251C125.994 194.412 124.962 195.916 125.12 197.719C125.271 199.453 126.638 200.818 128.642 200.643C129.75 200.546 130.593 199.997 131.083 199.205ZM127.884 195.102C128.934 195.01 129.599 195.688 129.71 196.557L126.15 196.869C126.272 195.825 126.906 195.187 127.884 195.102ZM136.56 197.146C136.662 198.313 136.084 199.041 135.094 199.128C134.08 199.216 133.397 198.599 133.294 197.432L132.997 194.036L131.995 194.124L132.289 197.484C132.445 199.264 133.561 200.212 135.165 200.072C136.78 199.931 137.715 198.803 137.559 197.023L137.265 193.663L136.263 193.751L136.56 197.146ZM139.76 199.432L140.762 199.345L140.405 195.265C140.718 194.632 141.19 194.187 141.968 194.119C142.204 194.098 142.383 194.106 142.564 194.138L142.478 193.159C142.333 193.125 142.154 193.117 141.965 193.133C141.211 193.199 140.698 193.588 140.307 194.145L140.242 193.403L139.24 193.49L139.76 199.432Z" fill="black"/>
<path d="M78.3431 243.102L76.8202 243.235C76.6237 243.253 76.4708 243.177 76.3614 243.009C76.2517 242.842 76.247 242.671 76.3473 242.497L79.5573 236.895C79.6291 236.773 79.7286 236.684 79.8556 236.627C79.9827 236.571 80.118 236.561 80.2614 236.598C80.4049 236.635 80.5148 236.712 80.591 236.829C80.6673 236.946 80.7033 237.075 80.6991 237.216L80.5844 240.431L82.4879 240.265C82.7008 240.246 82.8585 240.327 82.9611 240.508C83.0634 240.689 83.0521 240.867 82.9273 241.043L79.3102 246.235C79.2294 246.349 79.125 246.429 78.9969 246.473C78.8687 246.517 78.7407 246.516 78.6129 246.469C78.4851 246.423 78.3813 246.343 78.3014 246.23C78.2213 246.118 78.1833 245.991 78.1875 245.851L78.3431 243.102Z" fill="#646464"/>
<path d="M96.7834 244.216C94.9207 244.379 93.4585 243.01 93.2976 241.171C93.1366 239.332 94.3389 237.73 96.2017 237.567C97.3099 237.47 98.2652 237.932 98.8894 238.686L99.7138 237.925C98.8706 236.977 97.5964 236.399 96.1109 236.529C93.529 236.755 91.9477 238.913 92.1539 241.271C92.3602 243.629 94.2923 245.479 96.8742 245.253C98.3597 245.123 99.5153 244.345 100.18 243.253L99.236 242.647C98.752 243.497 97.8917 244.119 96.7834 244.216ZM101.898 244.576L102.9 244.489L102.54 240.374C102.863 239.728 103.35 239.175 104.222 239.098C105.153 239.017 105.797 239.578 105.889 240.639L106.201 244.2L107.203 244.112L106.888 240.516C106.741 238.83 105.672 238.021 104.34 238.138C103.456 238.215 102.876 238.646 102.439 239.219L102.126 235.646L101.124 235.734L101.898 244.576ZM111.391 237.521C109.47 237.689 108.302 239.276 108.453 241.009C108.605 242.742 110.031 244.102 111.952 243.934C113.862 243.767 115.042 242.179 114.89 240.446C114.739 238.713 113.301 237.354 111.391 237.521ZM111.882 242.99C110.608 243.101 109.611 242.155 109.503 240.917C109.394 239.679 110.212 238.574 111.486 238.463C112.724 238.354 113.721 239.301 113.829 240.539C113.937 241.765 113.12 242.882 111.882 242.99ZM119.492 242.324C118.207 242.437 117.213 241.526 117.101 240.252C116.991 238.991 117.811 237.909 119.084 237.798C119.827 237.733 120.459 238.034 120.87 238.521L121.608 237.85C120.99 237.168 120.075 236.761 119.002 236.855C117.033 237.027 115.901 238.611 116.052 240.344C116.204 242.077 117.594 243.441 119.563 243.268C120.648 243.174 121.467 242.627 121.956 241.835L121.114 241.303C120.794 241.854 120.223 242.26 119.492 242.324ZM125.357 236.299C123.435 236.467 122.267 238.054 122.419 239.787C122.571 241.52 123.996 242.881 125.918 242.712C127.828 242.545 129.008 240.957 128.856 239.224C128.705 237.491 127.267 236.132 125.357 236.299ZM125.847 241.768C124.574 241.88 123.577 240.933 123.468 239.695C123.36 238.457 124.178 237.352 125.451 237.241C126.689 237.133 127.687 238.079 127.795 239.317C127.902 240.543 127.085 241.66 125.847 241.768ZM130.727 242.054L131.729 241.966L130.956 233.124L129.954 233.212L130.727 242.054ZM135.477 241.805C136.243 241.738 136.992 241.328 137.389 240.711L137.455 241.465L138.457 241.378L138.109 237.393C137.994 236.084 137.021 235.278 135.512 235.41C134.474 235.501 133.675 236.011 133.218 236.763L134.023 237.275C134.345 236.736 134.871 236.369 135.555 236.31C136.403 236.235 137.034 236.655 137.106 237.481L137.142 237.893L135.167 238.399C133.924 238.721 133.296 239.418 133.374 240.314C133.463 241.328 134.31 241.907 135.477 241.805ZM134.385 240.19C134.341 239.683 134.674 239.285 135.476 239.073L137.206 238.624L137.309 239.791C136.975 240.462 136.36 240.896 135.57 240.965C134.874 241.026 134.43 240.697 134.385 240.19ZM140.635 239.18C140.762 240.63 141.563 241.225 142.883 241.109C143.307 241.072 143.622 240.997 143.894 240.855L143.816 239.959C143.6 240.072 143.333 240.143 142.944 240.177C142.225 240.24 141.731 240.022 141.649 239.091L141.383 236.049L143.446 235.869L143.367 234.961L141.304 235.141L141.174 233.656L140.16 233.744L140.29 235.23L139.17 235.328L139.249 236.236L140.369 236.138L140.635 239.18ZM145.27 233.238C145.659 233.204 145.938 232.859 145.904 232.47C145.871 232.092 145.537 231.801 145.148 231.835C144.759 231.869 144.468 232.215 144.501 232.592C144.535 232.982 144.881 233.272 145.27 233.238ZM145.418 240.769L146.42 240.681L145.901 234.739L144.898 234.827L145.418 240.769ZM153.735 239.055L152.941 238.542C152.599 239.107 151.981 239.517 151.215 239.584C149.942 239.696 148.958 238.915 148.798 237.491L153.361 237.092C153.382 236.924 153.398 236.697 153.377 236.461C153.249 234.999 152.101 233.959 150.486 234.1C148.646 234.261 147.614 235.765 147.772 237.569C147.923 239.302 149.29 240.668 151.294 240.492C152.403 240.395 153.246 239.846 153.735 239.055ZM150.536 234.951C151.586 234.859 152.251 235.538 152.363 236.407L148.802 236.719C148.924 235.674 149.558 235.037 150.536 234.951ZM155.389 239.896L156.391 239.809L156.034 235.73C156.347 235.096 156.819 234.651 157.597 234.583C157.833 234.562 158.012 234.57 158.193 234.602L158.107 233.624C157.962 233.589 157.783 233.581 157.594 233.597C156.839 233.663 156.327 234.053 155.936 234.61L155.871 233.867L154.869 233.954L155.389 239.896Z" fill="black"/>
</g>
<g filter="url(#filter1_d_5297_13132)">
<g clip-path="url(#clip0_5297_13132)">
<rect x="2.00031" y="273.836" width="341.682" height="69.4215" rx="16" transform="rotate(-5 2.00031 273.836)" fill="white"/>
<path d="M36.6034 294.557C36.3633 294.578 36.1551 294.514 35.9787 294.365C35.8018 294.218 35.7029 294.024 35.6819 293.783C35.6609 293.543 35.7246 293.335 35.8731 293.158C36.021 292.982 36.215 292.883 36.4551 292.862L42.3865 292.343C42.6266 292.322 42.835 292.386 43.0119 292.533C43.1883 292.682 43.2869 292.876 43.3079 293.116C43.3289 293.356 43.2655 293.565 43.1175 293.741C42.9691 293.918 42.7748 294.017 42.5347 294.038L36.6034 294.557ZM37.1964 301.335C36.9563 301.356 36.7481 301.293 36.5718 301.144C36.3949 300.996 36.2959 300.802 36.2749 300.562C36.2539 300.322 36.3177 300.114 36.4661 299.937C36.6141 299.76 36.8081 299.662 37.0481 299.641L42.9795 299.122C43.2196 299.101 43.4281 299.164 43.605 299.312C43.7813 299.461 43.88 299.655 43.901 299.895C43.922 300.135 43.8585 300.343 43.7106 300.52C43.5621 300.697 43.3679 300.795 43.1278 300.816L37.1964 301.335ZM47.4398 294.719L45.4586 293.056C45.2897 292.914 45.1947 292.724 45.1737 292.483C45.1527 292.243 45.2131 292.039 45.3548 291.87C45.4966 291.701 45.6875 291.606 45.9276 291.585C46.1676 291.564 46.3722 291.624 46.5411 291.766L47.8542 292.868L50.5991 289.597C50.7537 289.412 50.9443 289.314 51.1709 289.301C51.3975 289.288 51.6029 289.359 51.7872 289.514C51.9574 289.67 52.0524 289.861 52.0721 290.087C52.0919 290.313 52.0315 290.517 51.891 290.7L48.626 294.615C48.4714 294.799 48.2811 294.901 48.0551 294.921C47.8292 294.941 47.6241 294.873 47.4398 294.719ZM48.0328 301.497L46.0517 299.835C45.8827 299.693 45.7878 299.502 45.7667 299.262C45.7457 299.022 45.8061 298.818 45.9479 298.649C46.0896 298.48 46.2805 298.385 46.5206 298.364C46.7607 298.343 46.9652 298.403 47.1342 298.545L48.4473 299.647L51.1921 296.375C51.3468 296.191 51.5374 296.093 51.7639 296.08C51.9905 296.067 52.196 296.138 52.3803 296.293C52.5504 296.449 52.6454 296.64 52.6652 296.866C52.685 297.092 52.6246 297.296 52.4841 297.479L49.2191 301.394C49.0645 301.578 48.8742 301.68 48.6482 301.7C48.4222 301.719 48.2171 301.652 48.0328 301.497Z" fill="#646464"/>
<path d="M24.6835 322.463L25.6393 322.379L25.1286 316.543L27.5 319.757L28.2321 319.693L30.0093 316.116L30.5199 321.952L31.4757 321.868L30.853 314.751L29.6329 314.858L27.7709 318.637L25.2809 315.238L24.0607 315.345L24.6835 322.463ZM35.3388 316.162C33.6814 316.307 32.6741 317.676 32.8049 319.17C32.9357 320.665 34.1654 321.838 35.8228 321.693C37.47 321.549 38.4874 320.179 38.3567 318.684C38.2259 317.19 36.986 316.018 35.3388 316.162ZM35.7618 320.879C34.6636 320.975 33.8033 320.159 33.7099 319.091C33.6164 318.023 34.322 317.07 35.4201 316.974C36.4878 316.881 37.3481 317.697 37.4415 318.765C37.5341 319.822 36.8294 320.785 35.7618 320.879ZM39.9703 321.125L40.8346 321.05L40.5241 317.501C40.8024 316.934 41.2327 316.466 41.975 316.401C42.7681 316.331 43.3329 316.815 43.413 317.73L43.6817 320.801L44.5459 320.725L44.2746 317.624C44.1474 316.17 43.2257 315.472 42.0767 315.572C41.3141 315.639 40.8138 316.011 40.4369 316.505L40.3862 315.925L39.5219 316.001L39.9703 321.125ZM48.4158 319.679C48.9342 320.218 49.6033 320.487 50.4167 320.416C51.3725 320.333 52.0827 319.666 52.0092 318.709C51.8562 316.96 49.3157 317.552 49.2152 316.403C49.1805 316.006 49.4469 315.655 49.996 315.607C50.4434 315.568 50.8511 315.778 51.1594 316.14L51.7149 315.579C51.3154 315.112 50.6547 314.822 49.9226 314.886C48.9363 314.972 48.3129 315.693 48.3832 316.496C48.5415 318.306 51.0683 317.675 51.1688 318.824C51.208 319.271 50.9128 319.645 50.3434 319.695C49.8248 319.741 49.3755 319.524 48.9805 319.107L48.4158 319.679ZM56.9112 317.43C56.9993 318.437 56.5009 319.064 55.6468 319.139C54.7723 319.216 54.1827 318.683 54.0947 317.676L53.8385 314.748L52.9742 314.824L53.2277 317.722C53.362 319.257 54.3249 320.074 55.7078 319.953C57.1008 319.831 57.9072 318.859 57.7728 317.324L57.5193 314.426L56.655 314.502L56.9112 317.43ZM59.5433 312.907C59.8789 312.877 60.1192 312.58 60.0898 312.244C60.0614 311.919 59.773 311.667 59.4374 311.697C59.1019 311.726 58.8514 312.025 58.8798 312.35C58.9092 312.686 59.2078 312.936 59.5433 312.907ZM59.671 319.402L60.5353 319.326L60.0869 314.201L59.2226 314.277L59.671 319.402ZM61.1408 314.109L63.5923 319.059L64.7311 318.959L66.2859 313.659L65.3504 313.741L64.0825 318.104L62.0763 314.027L61.1408 314.109ZM67.6659 312.196C68.0014 312.167 68.2418 311.869 68.2124 311.534C68.1839 311.208 67.8955 310.957 67.56 310.986C67.2245 311.015 66.9739 311.314 67.0024 311.639C67.0318 311.975 67.3303 312.225 67.6659 312.196ZM67.7935 318.691L68.6578 318.615L68.2095 313.491L67.3452 313.566L67.7935 318.691Z" fill="#646464"/>
<g clip-path="url(#clip1_5297_13132)">
<path d="M103.631 292.962L108.737 292.515C108.977 292.494 109.167 292.395 109.308 292.219C109.45 292.043 109.51 291.836 109.489 291.595C109.468 291.355 109.369 291.161 109.193 291.013C109.016 290.865 108.807 290.801 108.567 290.822L103.462 291.269C103.222 291.29 103.031 291.388 102.89 291.564C102.749 291.74 102.689 291.948 102.71 292.189C102.731 292.429 102.83 292.623 103.006 292.771C103.183 292.919 103.391 292.983 103.631 292.962ZM103.409 290.42L111.904 289.677C112.144 289.656 112.334 289.557 112.475 289.381C112.617 289.205 112.677 288.997 112.656 288.757C112.635 288.517 112.536 288.323 112.359 288.174C112.182 288.026 111.974 287.963 111.734 287.984L103.24 288.727C102.999 288.748 102.809 288.846 102.668 289.022C102.527 289.198 102.466 289.406 102.488 289.647C102.509 289.887 102.607 290.081 102.783 290.229C102.96 290.377 103.169 290.441 103.409 290.42ZM103.187 287.878L111.681 287.135C111.921 287.114 112.112 287.015 112.253 286.839C112.394 286.663 112.454 286.455 112.433 286.215C112.412 285.975 112.313 285.781 112.136 285.632C111.96 285.484 111.752 285.421 111.512 285.442L103.017 286.185C102.777 286.206 102.586 286.304 102.445 286.48C102.304 286.656 102.244 286.864 102.265 287.104C102.286 287.345 102.385 287.539 102.561 287.687C102.738 287.835 102.946 287.899 103.187 287.878ZM99.808 298.056L98.6533 284.859C98.6126 284.393 98.7437 283.979 99.0468 283.618C99.3494 283.258 99.7337 283.057 100.2 283.016L113.757 281.83C114.223 281.789 114.637 281.92 114.998 282.223C115.359 282.526 115.559 282.91 115.6 283.376L116.49 293.544C116.531 294.01 116.4 294.424 116.097 294.785C115.794 295.146 115.409 295.347 114.943 295.387L103.081 296.425L101.302 298.545C101.057 298.836 100.755 298.923 100.396 298.805C100.037 298.687 99.8413 298.438 99.808 298.056ZM101.325 295.874L102.233 294.792L114.795 293.693L113.905 283.525L100.348 284.711L101.325 295.874Z" fill="#646464"/>
</g>
<path d="M88.2941 316.898L89.2499 316.814L88.7393 310.977L91.1107 314.192L91.8428 314.128L93.62 310.55L94.1306 316.387L95.0864 316.303L94.4637 309.186L93.2435 309.292L91.3816 313.072L88.8916 309.673L87.6714 309.78L88.2941 316.898ZM101.558 314.887L100.874 314.444C100.579 314.931 100.046 315.285 99.3853 315.343C98.2871 315.439 97.4392 314.765 97.3011 313.538L101.236 313.193C101.254 313.048 101.268 312.853 101.25 312.649C101.14 311.388 100.149 310.491 98.7563 310.613C97.1701 310.752 96.2795 312.049 96.4156 313.605C96.5463 315.1 97.7252 316.277 99.4538 316.126C100.41 316.042 101.137 315.569 101.558 314.887ZM98.8 311.347C99.705 311.268 100.279 311.853 100.375 312.603L97.3043 312.872C97.4099 311.971 97.9561 311.421 98.8 311.347ZM102.335 314.962C102.853 315.501 103.523 315.77 104.336 315.699C105.292 315.615 106.002 314.949 105.928 313.992C105.775 312.243 103.235 312.834 103.134 311.685C103.1 311.289 103.366 310.937 103.915 310.889C104.363 310.85 104.77 311.061 105.079 311.423L105.634 310.862C105.235 310.395 104.574 310.104 103.842 310.168C102.856 310.255 102.232 310.975 102.302 311.778C102.461 313.588 104.988 312.958 105.088 314.107C105.127 314.554 104.832 314.928 104.263 314.978C103.744 315.023 103.295 314.806 102.9 314.39L102.335 314.962ZM106.803 314.571C107.322 315.11 107.991 315.379 108.804 315.308C109.76 315.224 110.47 314.558 110.397 313.601C110.244 311.852 107.703 312.443 107.603 311.294C107.568 310.898 107.834 310.547 108.384 310.499C108.831 310.459 109.239 310.67 109.547 311.032L110.102 310.471C109.703 310.004 109.042 309.713 108.31 309.777C107.324 309.864 106.701 310.584 106.771 311.388C106.929 313.197 109.456 312.567 109.556 313.716C109.596 314.163 109.3 314.537 108.731 314.587C108.212 314.632 107.763 314.415 107.368 313.999L106.803 314.571ZM113.308 314.853C113.969 314.795 114.614 314.441 114.957 313.909L115.014 314.56L115.878 314.484L115.577 311.047C115.478 309.919 114.639 309.224 113.337 309.338C112.443 309.416 111.754 309.855 111.36 310.505L112.054 310.946C112.331 310.481 112.785 310.165 113.375 310.113C114.107 310.049 114.651 310.411 114.713 311.123L114.744 311.479L113.04 311.915C111.968 312.193 111.427 312.794 111.494 313.567C111.571 314.441 112.301 314.941 113.308 314.853ZM112.366 313.46C112.328 313.022 112.615 312.679 113.306 312.496L114.799 312.109L114.887 313.116C114.6 313.694 114.069 314.069 113.388 314.128C112.788 314.181 112.404 313.897 112.366 313.46ZM117.103 315.309C117.193 316.336 118.241 316.839 119.756 316.706C121.291 316.572 122.299 315.675 122.205 314.597C122.124 313.682 121.436 313.076 120.084 313.194L118.62 313.322C118.304 313.35 118.179 313.207 118.161 312.994C118.144 312.8 118.25 312.607 118.45 312.435C118.669 312.478 118.916 312.497 119.171 312.475C120.401 312.367 121.091 311.467 121.005 310.491C120.978 310.186 120.881 309.897 120.717 309.655L121.825 309.558L121.759 308.806L119.858 308.972C119.572 308.864 119.229 308.812 118.853 308.845C117.633 308.952 116.933 309.853 117.019 310.839C117.069 311.409 117.379 311.904 117.856 312.201C117.481 312.489 117.297 312.844 117.333 313.25C117.357 313.525 117.503 313.789 117.753 313.951C117.275 314.352 117.058 314.791 117.103 315.309ZM119.121 311.793C118.358 311.859 117.898 311.398 117.843 310.767C117.788 310.137 118.16 309.592 118.923 309.525C119.665 309.46 120.137 309.931 120.192 310.562C120.246 311.182 119.863 311.728 119.121 311.793ZM117.938 315.134C117.902 314.727 118.089 314.403 118.422 314.108L120.079 313.963C120.995 313.883 121.303 314.245 121.346 314.733C121.404 315.404 120.76 315.891 119.683 315.985C118.666 316.074 117.992 315.754 117.938 315.134ZM127.515 312.616L126.831 312.174C126.535 312.66 126.003 313.014 125.342 313.072C124.244 313.168 123.396 312.495 123.258 311.267L127.193 310.923C127.211 310.778 127.224 310.582 127.206 310.378C127.096 309.118 126.106 308.221 124.713 308.342C123.126 308.481 122.236 309.778 122.372 311.334C122.503 312.829 123.682 314.006 125.41 313.855C126.366 313.772 127.093 313.298 127.515 312.616ZM124.756 309.076C125.661 308.997 126.235 309.582 126.331 310.332L123.261 310.601C123.366 309.7 123.912 309.15 124.756 309.076ZM128.291 312.691C128.81 313.23 129.479 313.499 130.292 313.428C131.248 313.344 131.958 312.678 131.885 311.721C131.732 309.972 129.191 310.563 129.091 309.414C129.056 309.018 129.323 308.667 129.872 308.619C130.319 308.579 130.727 308.79 131.035 309.152L131.591 308.591C131.191 308.124 130.53 307.833 129.798 307.897C128.812 307.984 128.189 308.704 128.259 309.508C128.417 311.318 130.944 310.687 131.044 311.836C131.084 312.283 130.788 312.657 130.219 312.707C129.7 312.752 129.251 312.536 128.856 312.119L128.291 312.691Z" fill="#646464"/>
<path d="M177.421 289.089C177.59 289.23 177.794 289.291 178.035 289.27C178.275 289.249 178.466 289.154 178.607 288.985C178.749 288.816 178.809 288.611 178.788 288.371C178.767 288.131 178.672 287.94 178.504 287.799L176.914 286.465C177.086 286.151 177.206 285.82 177.275 285.473C177.345 285.125 177.363 284.761 177.329 284.379C177.237 283.32 176.787 282.452 175.981 281.775C175.175 281.099 174.242 280.807 173.183 280.9C172.123 280.993 171.255 281.442 170.579 282.248C169.902 283.055 169.61 283.987 169.703 285.047C169.796 286.106 170.245 286.974 171.051 287.651C171.858 288.327 172.791 288.619 173.85 288.526C174.217 288.494 174.569 288.413 174.906 288.284C175.244 288.155 175.552 287.979 175.831 287.755L177.421 289.089ZM173.701 286.831C173.108 286.883 172.589 286.722 172.144 286.349C171.698 285.975 171.45 285.491 171.398 284.898C171.346 284.305 171.507 283.786 171.881 283.341C172.254 282.895 172.738 282.646 173.331 282.595C173.924 282.543 174.443 282.704 174.889 283.077C175.334 283.451 175.583 283.934 175.635 284.528C175.686 285.121 175.525 285.64 175.152 286.085C174.778 286.531 174.295 286.779 173.701 286.831ZM167.791 292.471C167.325 292.512 166.912 292.381 166.551 292.079C166.19 291.776 165.989 291.391 165.948 290.925L165.059 280.757C165.018 280.291 165.149 279.877 165.452 279.517C165.755 279.156 166.139 278.955 166.605 278.914L180.163 277.728C180.629 277.687 181.042 277.818 181.403 278.121C181.764 278.424 181.965 278.808 182.006 279.274L182.895 289.442C182.936 289.908 182.805 290.322 182.502 290.683C182.199 291.044 181.815 291.244 181.349 291.285L167.791 292.471Z" fill="#3B69D1"/>
<path d="M151.119 311.401L152.563 311.275L152.311 308.397L153.053 308.332L155.206 311.043L156.904 310.895L154.402 307.938C155.105 307.538 155.465 306.861 155.39 305.997C155.274 304.675 154.238 303.956 152.672 304.093L150.496 304.283L151.119 311.401ZM152.858 305.286C153.468 305.232 153.856 305.567 153.903 306.106C153.954 306.686 153.629 307.073 153.019 307.126L152.206 307.197L152.045 305.357L152.858 305.286ZM162.271 309.585L161.282 308.934C161.039 309.324 160.573 309.611 160.013 309.66C159.21 309.73 158.587 309.395 158.381 308.45L161.97 308.136C161.996 307.96 162.013 307.692 161.989 307.407C161.871 306.065 160.851 305.181 159.428 305.305C157.75 305.452 156.903 306.786 157.036 308.301C157.167 309.796 158.305 310.977 160.125 310.818C161.091 310.734 161.849 310.268 162.271 309.585ZM159.49 306.365C160.212 306.302 160.633 306.788 160.699 307.305L158.34 307.511C158.423 306.828 158.829 306.423 159.49 306.365ZM165.847 309.088C164.982 309.164 164.306 308.577 164.227 307.672C164.149 306.777 164.712 306.072 165.556 305.999C166.085 305.952 166.512 306.151 166.787 306.485L167.726 305.624C167.193 305.036 166.405 304.695 165.469 304.777C163.7 304.931 162.754 306.295 162.885 307.79C163.015 309.284 164.184 310.463 165.953 310.308C166.889 310.226 167.606 309.754 168.028 309.081L166.954 308.397C166.741 308.774 166.355 309.043 165.847 309.088ZM169.065 309.831L170.357 309.718L170.064 306.373C170.229 306.03 170.536 305.563 171.187 305.506C171.828 305.45 172.241 305.844 172.301 306.525L172.563 309.525L173.865 309.411L173.598 306.361C173.465 304.846 172.514 304.16 171.406 304.257C170.724 304.317 170.27 304.623 169.944 305L169.689 302.092L168.398 302.205L169.065 309.831ZM179.976 308.036L178.987 307.385C178.744 307.775 178.277 308.062 177.718 308.111C176.915 308.181 176.291 307.846 176.086 306.901L179.675 306.587C179.701 306.411 179.718 306.143 179.693 305.858C179.576 304.516 178.556 303.632 177.132 303.756C175.455 303.903 174.608 305.237 174.741 306.752C174.872 308.247 176.01 309.428 177.83 309.269C178.796 309.185 179.554 308.719 179.976 308.036ZM177.194 304.816C177.916 304.753 178.338 305.239 178.404 305.756L176.045 305.962C176.128 305.279 176.533 304.874 177.194 304.816ZM181.219 308.768L182.511 308.655L182.223 305.37C182.388 305.028 182.765 304.647 183.395 304.592C183.629 304.571 183.804 304.587 183.971 304.613L183.859 303.342C183.734 303.312 183.579 303.295 183.406 303.31C182.826 303.361 182.412 303.663 182.107 304.038L182.062 303.53L180.771 303.643L181.219 308.768ZM187.503 307.193C186.639 307.269 185.963 306.683 185.884 305.778C185.805 304.883 186.369 304.178 187.213 304.104C187.741 304.058 188.169 304.256 188.444 304.59L189.383 303.73C188.85 303.141 188.062 302.8 187.126 302.882C185.357 303.037 184.411 304.4 184.541 305.895C184.672 307.39 185.841 308.568 187.61 308.413C188.546 308.332 189.262 307.859 189.685 307.187L188.611 306.502C188.398 306.879 188.012 307.149 187.503 307.193ZM190.722 307.936L192.014 307.823L191.721 304.478C191.886 304.136 192.193 303.668 192.844 303.611C193.484 303.555 193.898 303.949 193.958 304.631L194.22 307.63L195.522 307.516L195.255 304.466C195.122 302.951 194.171 302.266 193.062 302.363C192.381 302.422 191.926 302.728 191.601 303.105L191.346 300.197L190.055 300.31L190.722 307.936ZM201.633 306.141L200.644 305.49C200.401 305.88 199.934 306.167 199.375 306.216C198.572 306.286 197.948 305.952 197.743 305.006L201.332 304.692C201.357 304.516 201.375 304.248 201.35 303.963C201.233 302.621 200.213 301.737 198.789 301.862C197.111 302.008 196.265 303.343 196.398 304.858C196.528 306.352 197.667 307.534 199.487 307.374C200.453 307.29 201.211 306.824 201.633 306.141ZM198.851 302.922C199.573 302.859 199.995 303.344 200.06 303.861L197.701 304.067C197.785 303.384 198.19 302.98 198.851 302.922Z" fill="#3B69D1"/>
<path d="M233.343 286.95L231.421 285.474C229.88 284.286 228.431 283.054 227.075 281.778C225.718 280.502 224.961 278.974 224.806 277.195C224.675 275.698 225.074 274.404 226.003 273.312C226.932 272.22 228.145 271.609 229.642 271.478C230.475 271.405 231.238 271.509 231.932 271.79C232.625 272.071 233.193 272.377 233.634 272.708C234.012 272.305 234.518 271.905 235.152 271.508C235.786 271.111 236.519 270.876 237.353 270.803C238.85 270.672 240.15 271.064 241.255 271.977C242.359 272.891 242.977 274.097 243.108 275.594C243.264 277.373 242.784 279.009 241.67 280.501C240.555 281.993 239.349 283.45 238.05 284.873L236.394 286.683C236.006 287.13 235.516 287.379 234.922 287.431C234.329 287.483 233.803 287.322 233.343 286.95ZM232.783 275.173C232.507 274.785 232.113 274.431 231.601 274.113C231.09 273.795 230.502 273.665 229.838 273.723C228.963 273.8 228.26 274.146 227.731 274.762C227.201 275.377 226.974 276.123 227.051 276.998C227.118 277.761 227.452 278.536 228.055 279.323C228.657 280.109 229.364 280.869 230.175 281.602C230.986 282.335 231.814 283.01 232.658 283.627C233.502 284.243 234.19 284.755 234.724 285.164C235.179 284.669 235.768 284.045 236.492 283.292C237.216 282.538 237.914 281.729 238.586 280.866C239.257 280.004 239.821 279.133 240.278 278.253C240.735 277.374 240.929 276.553 240.863 275.79C240.786 274.914 240.434 274.219 239.805 273.705C239.177 273.191 238.425 272.972 237.549 273.049C236.885 273.107 236.325 273.337 235.869 273.74C235.414 274.143 235.091 274.559 234.901 274.988C234.805 275.196 234.667 275.361 234.486 275.484C234.304 275.606 234.115 275.676 233.917 275.693C233.705 275.712 233.499 275.677 233.299 275.588C233.099 275.498 232.927 275.36 232.783 275.173Z" fill="#646464"/>
<path d="M220.61 305.321L221.566 305.238L221.284 302.014L223.744 301.799L223.674 300.996L221.213 301.211L221.014 298.934L223.882 298.683L223.81 297.869L219.987 298.204L220.61 305.321ZM226.856 304.918C227.517 304.861 228.162 304.507 228.505 303.975L228.562 304.626L229.426 304.55L229.126 301.113C229.027 299.985 228.187 299.29 226.886 299.403C225.991 299.482 225.302 299.921 224.908 300.57L225.602 301.012C225.879 300.547 226.333 300.23 226.923 300.179C227.655 300.115 228.199 300.477 228.261 301.189L228.293 301.545L226.589 301.981C225.517 302.259 224.975 302.86 225.043 303.632C225.119 304.507 225.849 305.006 226.856 304.918ZM225.915 303.525C225.876 303.088 226.164 302.745 226.855 302.562L228.348 302.175L228.436 303.182C228.148 303.76 227.617 304.135 226.936 304.194C226.336 304.247 225.953 303.963 225.915 303.525ZM229.889 299.346L232.341 304.295L233.48 304.195L235.035 298.895L234.099 298.977L232.831 303.34L230.825 299.264L229.889 299.346ZM238.335 298.402C236.678 298.547 235.671 299.916 235.801 301.41C235.932 302.905 237.162 304.078 238.819 303.933C240.466 303.789 241.484 302.419 241.353 300.925C241.222 299.43 239.983 298.258 238.335 298.402ZM238.758 303.119C237.66 303.215 236.8 302.399 236.706 301.331C236.613 300.264 237.318 299.31 238.417 299.214C239.484 299.121 240.345 299.937 240.438 301.005C240.531 302.062 239.826 303.025 238.758 303.119ZM242.967 303.365L243.831 303.29L243.523 299.772C243.793 299.225 244.2 298.842 244.871 298.783C245.075 298.765 245.229 298.772 245.385 298.799L245.311 297.955C245.186 297.925 245.031 297.918 244.869 297.933C244.218 297.99 243.776 298.325 243.439 298.806L243.383 298.165L242.518 298.241L242.967 303.365ZM246.881 296.517C247.216 296.487 247.456 296.19 247.427 295.854C247.399 295.529 247.11 295.277 246.775 295.307C246.439 295.336 246.189 295.635 246.217 295.96C246.246 296.296 246.545 296.546 246.881 296.517ZM247.008 303.012L247.872 302.936L247.424 297.812L246.56 297.887L247.008 303.012ZM249.049 302.126C249.567 302.665 250.236 302.934 251.05 302.863C252.006 302.78 252.716 302.113 252.642 301.156C252.489 299.407 249.949 299.998 249.848 298.849C249.814 298.453 250.08 298.102 250.629 298.054C251.077 298.015 251.484 298.225 251.793 298.587L252.348 298.026C251.949 297.559 251.288 297.269 250.556 297.333C249.57 297.419 248.946 298.139 249.016 298.943C249.175 300.753 251.701 300.122 251.802 301.271C251.841 301.718 251.546 302.092 250.977 302.142C250.458 302.187 250.009 301.971 249.614 301.554L249.049 302.126Z" fill="#646464"/>
<path d="M295.814 278.282C295.221 278.334 294.702 278.173 294.257 277.8C293.811 277.426 293.563 276.943 293.511 276.349C293.459 275.756 293.62 275.237 293.993 274.792C294.367 274.346 294.851 274.098 295.444 274.046C296.037 273.994 296.556 274.155 297.002 274.529C297.447 274.902 297.696 275.386 297.747 275.979C297.799 276.572 297.638 277.091 297.265 277.537C296.891 277.982 296.408 278.231 295.814 278.282ZM292.833 283.239C292.367 283.28 291.953 283.149 291.592 282.847C291.231 282.544 291.031 282.159 290.99 281.693L289.952 269.83C289.911 269.364 290.042 268.951 290.345 268.59C290.648 268.229 291.032 268.028 291.498 267.987L292.346 267.913L292.272 267.066C292.251 266.826 292.314 266.617 292.462 266.44C292.61 266.264 292.805 266.165 293.045 266.144C293.285 266.123 293.493 266.187 293.67 266.335C293.847 266.483 293.945 266.677 293.966 266.918L294.04 267.765L300.819 267.172L300.745 266.324C300.724 266.084 300.788 265.876 300.936 265.699C301.084 265.523 301.278 265.424 301.518 265.403C301.758 265.382 301.966 265.445 302.143 265.593C302.32 265.742 302.419 265.936 302.44 266.176L302.514 267.024L303.361 266.949C303.827 266.909 304.241 267.04 304.602 267.343C304.963 267.645 305.163 268.03 305.204 268.496L306.242 280.359C306.283 280.825 306.152 281.238 305.849 281.599C305.546 281.96 305.162 282.161 304.696 282.202L292.833 283.239ZM292.684 281.545L304.547 280.507L303.806 272.033L291.943 273.071L292.684 281.545Z" fill="#646464"/>
<path d="M273.166 292.936L274.347 291.45L273.31 291.541L272.281 293.014L273.166 292.936ZM271.462 300.872L275.286 300.538L275.214 299.724L272.347 299.975L272.136 297.565L274.597 297.35L274.527 296.547L272.066 296.762L271.867 294.485L274.734 294.234L274.663 293.42L270.84 293.755L271.462 300.872ZM275.529 295.353L277.98 300.302L279.119 300.202L280.674 294.903L279.738 294.984L278.471 299.347L276.464 295.271L275.529 295.353ZM284.186 293.776L285.228 291.984L284.251 292.069L283.342 293.849L284.186 293.776ZM286.584 298.699L285.899 298.257C285.604 298.744 285.071 299.098 284.41 299.156C283.312 299.252 282.464 298.578 282.326 297.35L286.261 297.006C286.279 296.861 286.293 296.665 286.275 296.462C286.165 295.201 285.174 294.304 283.781 294.426C282.195 294.564 281.305 295.862 281.441 297.417C281.571 298.912 282.75 300.09 284.479 299.938C285.435 299.855 286.162 299.381 286.584 298.699ZM283.825 295.16C284.73 295.08 285.304 295.665 285.4 296.415L282.329 296.684C282.435 295.783 282.981 295.233 283.825 295.16ZM288.01 299.425L288.875 299.349L288.564 295.8C288.842 295.233 289.273 294.765 290.015 294.7C290.808 294.631 291.373 295.114 291.453 296.029L291.722 299.1L292.586 299.024L292.315 295.923C292.187 294.469 291.266 293.771 290.117 293.871C289.354 293.938 288.854 294.31 288.477 294.804L288.426 294.224L287.562 294.3L288.01 299.425ZM298.807 297.63L298.123 297.187C297.827 297.674 297.295 298.028 296.634 298.086C295.536 298.182 294.688 297.508 294.55 296.281L298.485 295.936C298.503 295.791 298.516 295.596 298.499 295.392C298.388 294.131 297.398 293.234 296.005 293.356C294.419 293.495 293.528 294.792 293.664 296.348C293.795 297.843 294.974 299.02 296.702 298.869C297.658 298.785 298.385 298.312 298.807 297.63ZM296.049 294.09C296.954 294.011 297.527 294.596 297.624 295.346L294.553 295.614C294.659 294.714 295.205 294.164 296.049 294.09ZM300.234 298.355L301.098 298.28L300.788 294.731C301.036 294.176 301.435 293.701 302.137 293.639C302.879 293.575 303.39 294.022 303.464 294.876L303.742 298.048L304.606 297.973L304.326 294.77C304.315 294.648 304.295 294.537 304.275 294.426C304.558 293.796 304.984 293.39 305.635 293.333C306.367 293.269 306.887 293.716 306.962 294.57L307.24 297.742L308.104 297.667L307.824 294.464C307.702 293.071 306.835 292.409 305.736 292.505C304.852 292.582 304.35 293.057 303.992 293.651C303.62 293.028 302.981 292.746 302.239 292.811C301.527 292.873 301.046 293.233 300.699 293.714L300.65 293.155L299.785 293.23L300.234 298.355ZM314.327 296.272L313.643 295.83C313.348 296.316 312.815 296.67 312.154 296.728C311.056 296.824 310.208 296.151 310.07 294.923L314.005 294.579C314.023 294.434 314.037 294.238 314.019 294.034C313.909 292.774 312.918 291.877 311.525 291.998C309.939 292.137 309.048 293.434 309.184 294.99C309.315 296.485 310.494 297.662 312.223 297.511C313.178 297.428 313.905 296.954 314.327 296.272ZM311.569 292.732C312.474 292.653 313.048 293.238 313.144 293.988L310.073 294.257C310.179 293.356 310.725 292.806 311.569 292.732ZM315.754 296.997L316.618 296.922L316.308 293.373C316.586 292.806 317.017 292.338 317.759 292.273C318.552 292.203 319.117 292.687 319.197 293.602L319.465 296.673L320.33 296.597L320.058 293.496C319.931 292.042 319.009 291.344 317.86 291.444C317.098 291.511 316.598 291.883 316.221 292.377L316.17 291.797L315.306 291.873L315.754 296.997ZM322.214 294.701C322.323 295.951 323.014 296.465 324.153 296.365C324.519 296.333 324.79 296.268 325.025 296.145L324.957 295.372C324.771 295.471 324.541 295.532 324.205 295.561C323.585 295.615 323.159 295.427 323.088 294.624L322.859 292.001L324.638 291.845L324.57 291.062L322.79 291.218L322.678 289.937L321.804 290.013L321.916 291.294L320.95 291.379L321.018 292.162L321.984 292.077L322.214 294.701ZM325.729 295.418C326.247 295.956 326.916 296.226 327.73 296.155C328.686 296.071 329.396 295.404 329.322 294.448C329.169 292.699 326.629 293.29 326.528 292.141C326.493 291.744 326.76 291.393 327.309 291.345C327.756 291.306 328.164 291.516 328.472 291.878L329.028 291.318C328.628 290.85 327.968 290.56 327.236 290.624C326.249 290.71 325.626 291.431 325.696 292.234C325.854 294.044 328.381 293.413 328.482 294.562C328.521 295.009 328.226 295.384 327.656 295.433C327.138 295.479 326.689 295.262 326.293 294.846L325.729 295.418Z" fill="#646464"/>
</g>
</g>
<g clip-path="url(#clip2_5297_13132)">
<path d="M226.523 142.195C229.647 145.542 232.658 148.741 235.654 151.95C236.255 152.587 236.678 153.037 237.299 153.959C237.767 154.64 238.729 156.104 237.893 156.451C237.173 156.666 236.634 156.727 235.482 155.721C232.522 153.107 229.974 150.074 227.43 147.078C225.185 144.432 223.513 142.379 221.666 139.92C220.803 138.772 221.096 137.91 222.297 137.352C223.376 136.852 224.474 136.32 225.626 136.032C229.775 134.971 233.935 134.022 238.105 133.027C238.623 132.9 239.019 132.77 239.656 132.707C240.429 132.638 240.987 132.545 241.202 133.266C241.413 133.949 240.54 134.459 240.05 134.628C235.983 136.136 227.542 139.105 227.129 139.365C229.502 140.478 231.675 141.557 233.912 142.517C249.522 149.125 265.47 154.565 282.514 156.15C296.005 157.404 309.411 157.04 322.75 154.609C323.539 154.47 324.349 154.397 325.131 154.343C326.189 154.253 326.756 154.394 326.84 154.938C326.86 155.981 326.157 156.225 325.613 156.467C324.535 156.968 323.336 157.245 322.175 157.519C306.603 161.019 290.934 160.858 275.221 158.634C259.092 156.354 244.139 150.566 229.625 143.486C228.874 143.083 226.923 142.262 226.523 142.195Z" fill="black"/>
</g>
<defs>
<filter id="filter0_d_5297_13132" x="20.6138" y="-13.9678" width="309.863" height="306.765" filterUnits="userSpaceOnUse" color-interpolation-filters="sRGB">
<feFlood flood-opacity="0" result="BackgroundImageFix"/>
<feColorMatrix in="SourceAlpha" type="matrix" values="0 0 0 0 0 0 0 0 0 0 0 0 0 0 0 0 0 0 127 0" result="hardAlpha"/>
<feOffset dy="4.41346"/>
<feGaussianBlur stdDeviation="9.19471"/>
<feComposite in2="hardAlpha" operator="out"/>
<feColorMatrix type="matrix" values="0 0 0 0 0.196078 0 0 0 0 0.196078 0 0 0 0 0.196078 0 0 0 0.1 0"/>
<feBlend mode="normal" in2="BackgroundImageFix" result="effect1_dropShadow_5297_13132"/>
<feBlend mode="normal" in="SourceGraphic" in2="effect1_dropShadow_5297_13132" result="shape"/>
</filter>
<filter id="filter1_d_5297_13132" x="-23.0036" y="225.054" width="396.441" height="148.945" filterUnits="userSpaceOnUse" color-interpolation-filters="sRGB">
<feFlood flood-opacity="0" result="BackgroundImageFix"/>
<feColorMatrix in="SourceAlpha" type="matrix" values="0 0 0 0 0 0 0 0 0 0 0 0 0 0 0 0 0 0 127 0" result="hardAlpha"/>
<feOffset dy="6"/>
<feGaussianBlur stdDeviation="12.5"/>
<feComposite in2="hardAlpha" operator="out"/>
<feColorMatrix type="matrix" values="0 0 0 0 0.196078 0 0 0 0 0.196078 0 0 0 0 0.196078 0 0 0 0.1 0"/>
<feBlend mode="normal" in2="BackgroundImageFix" result="effect1_dropShadow_5297_13132"/>
<feBlend mode="normal" in="SourceGraphic" in2="effect1_dropShadow_5297_13132" result="shape"/>
</filter>
<clipPath id="clip0_5297_13132">
<rect x="2.00031" y="273.836" width="341.682" height="69.4215" rx="16" transform="rotate(-5 2.00031 273.836)" fill="white"/>
</clipPath>
<clipPath id="clip1_5297_13132">
<rect width="20.4107" height="20.4107" fill="white" transform="translate(96.6625 281.618) rotate(-5)"/>
</clipPath>
<clipPath id="clip2_5297_13132">
<rect width="97" height="97" fill="white" transform="translate(258.801 213.809) rotate(-122.212)"/>
</clipPath>
</defs>
</svg>
