<svg width="402" height="395" viewBox="0 0 402 395" fill="none" xmlns="http://www.w3.org/2000/svg">
<g id="img_new_recherche_suggere">
<rect id="Rectangle 234" x="42.7223" y="28.9544" width="326" height="314.914" rx="11.5" transform="rotate(-5 42.7223 28.9544)" fill="#F1F1F1" stroke="#878787" stroke-dasharray="5 5"/>
<g id="Contrat Engagement Jeune" filter="url(#filter0_d_3723_11380)">
<rect x="24" y="50.254" width="328" height="315.663" rx="16" transform="rotate(-5 24 50.254)" fill="white"/>
</g>
<g id="Group 53">
<g id="Frame 111">
<g id="Frame 110">
<path id="Titre" d="M62.816 142.328C63.9074 143.421 65.2265 143.996 67.1074 143.832C69.1635 143.652 70.6791 142.25 70.5269 140.144C70.1923 136.318 65.1738 137.336 64.9967 135.311C64.9382 134.642 65.4195 134.086 66.2165 134.016C67.0612 133.942 67.8433 134.436 68.5707 135.223L70.0973 133.58C69.0419 132.532 67.7012 131.895 66.0276 132.041C63.8918 132.228 62.5537 133.823 62.7085 135.592C63.039 139.369 68.0588 138.368 68.2387 140.424C68.3084 141.221 67.8083 141.747 66.9157 141.825C66.0072 141.904 65.07 141.472 64.3252 140.67L62.816 142.328ZM80.1458 141.053L78.5949 140.032C78.2148 140.644 77.4831 141.093 76.6065 141.17C75.3473 141.28 74.3698 140.755 74.0475 139.274L79.674 138.781C79.7141 138.505 79.7416 138.085 79.7025 137.638C79.5184 135.534 77.9196 134.149 75.6881 134.344C73.0581 134.574 71.7314 136.665 71.9392 139.04C72.1441 141.383 73.9283 143.235 76.7814 142.985C78.2956 142.853 79.4845 142.122 80.1458 141.053ZM75.7853 136.006C76.917 135.907 77.5778 136.668 77.6808 137.478L73.983 137.802C74.1141 136.73 74.7492 136.096 75.7853 136.006ZM82.0947 142.199L84.119 142.022L83.6686 136.874C83.9268 136.337 84.517 135.74 85.5052 135.653C85.8718 135.621 86.1469 135.645 86.4075 135.687L86.2332 133.694C86.0364 133.647 85.7931 133.62 85.5221 133.644C84.6136 133.723 83.9645 134.198 83.4859 134.786L83.4162 133.989L81.3919 134.166L82.0947 142.199ZM87.1243 133.664L90.7439 141.443L93.4058 141.21L95.6358 132.92L93.4521 133.111L91.882 139.03L89.292 133.475L87.1243 133.664ZM104.802 138.896L103.251 137.875C102.871 138.486 102.139 138.936 101.262 139.013C100.003 139.123 99.0257 138.598 98.7033 137.116L104.33 136.624C104.37 136.348 104.397 135.928 104.358 135.481C104.174 133.377 102.575 131.991 100.344 132.187C97.7139 132.417 96.3872 134.508 96.595 136.883C96.8 139.226 98.5841 141.078 101.437 140.828C102.951 140.696 104.14 139.965 104.802 138.896ZM100.441 133.849C101.573 133.749 102.234 134.511 102.337 135.321L98.6388 135.644C98.7699 134.573 99.4051 133.939 100.441 133.849ZM111.645 136.113C111.747 137.276 111.204 138.046 110.104 138.143C108.988 138.24 108.32 137.576 108.218 136.412L107.819 131.854L105.779 132.032L106.169 136.495C106.38 138.902 107.896 140.263 110.255 140.057C112.614 139.85 113.887 138.245 113.677 135.839L113.286 131.376L111.246 131.554L111.645 136.113ZM116.23 139.213L118.254 139.036L117.804 133.887C118.062 133.351 118.652 132.753 119.64 132.667C120.007 132.635 120.282 132.659 120.543 132.7L120.368 130.708C120.172 130.661 119.928 130.634 119.657 130.658C118.749 130.737 118.1 131.211 117.621 131.799L117.551 131.002L115.527 131.18L116.23 139.213ZM125.075 133.348L125.247 135.308L129.55 134.932L129.379 132.971L125.075 133.348ZM135.049 137.566L137.073 137.389L136.623 132.241C136.881 131.704 137.471 131.107 138.459 131.02C138.826 130.988 139.101 131.012 139.362 131.054L139.187 129.061C138.99 129.014 138.747 128.987 138.476 129.011C137.568 129.091 136.918 129.565 136.44 130.153L136.37 129.356L134.346 129.533L135.049 137.566ZM145.037 127.313L146.719 124.5L144.519 124.692L143.093 127.483L145.037 127.313ZM148.463 135.076L146.912 134.055C146.532 134.667 145.8 135.116 144.924 135.193C143.664 135.303 142.687 134.778 142.365 133.297L147.991 132.804C148.031 132.528 148.059 132.108 148.02 131.661C147.836 129.557 146.237 128.172 144.005 128.367C141.375 128.597 140.049 130.688 140.256 133.063C140.461 135.406 142.245 137.258 145.099 137.008C146.613 136.876 147.802 136.146 148.463 135.076ZM144.102 130.029C145.234 129.93 145.895 130.691 145.998 131.501L142.3 131.825C142.431 130.753 143.066 130.119 144.102 130.029ZM154.067 134.296C152.713 134.415 151.652 133.496 151.528 132.077C151.406 130.675 152.289 129.569 153.612 129.454C154.44 129.381 155.11 129.692 155.541 130.216L157.013 128.867C156.178 127.944 154.943 127.41 153.476 127.538C150.703 127.781 149.219 129.918 149.424 132.261C149.629 134.604 151.461 136.452 154.235 136.209C155.701 136.081 156.825 135.34 157.488 134.286L155.804 133.213C155.47 133.804 154.864 134.227 154.067 134.296ZM166.083 133.534L164.532 132.514C164.152 133.125 163.421 133.574 162.544 133.651C161.285 133.761 160.307 133.237 159.985 131.755L165.611 131.263C165.651 130.986 165.679 130.566 165.64 130.12C165.456 128.016 163.857 126.63 161.625 126.825C158.995 127.055 157.669 129.147 157.877 131.522C158.081 133.865 159.866 135.716 162.719 135.467C164.233 135.334 165.422 134.604 166.083 133.534ZM161.723 128.487C162.854 128.388 163.515 129.149 163.618 129.959L159.92 130.283C160.051 129.211 160.687 128.578 161.723 128.487ZM168.375 138.602L170.399 138.425L169.999 133.85C170.675 134.417 171.487 134.7 172.587 134.603C175.137 134.38 176.493 132.254 176.288 129.911C176.083 127.568 174.378 125.709 171.828 125.933C170.728 126.029 169.978 126.448 169.411 127.124L169.354 126.47L167.329 126.647L168.375 138.602ZM171.709 127.87C173.079 127.75 174.061 128.692 174.184 130.095C174.307 131.498 173.503 132.596 172.132 132.716C171.208 132.797 170.424 132.464 169.815 131.746L169.595 129.228C170.039 128.434 170.768 127.953 171.709 127.87ZM178.652 130.796C178.824 132.757 179.879 133.805 181.887 133.629C182.557 133.571 183.028 133.449 183.411 133.239L183.256 131.47C182.995 131.605 182.634 131.701 182.076 131.75C181.279 131.819 180.771 131.51 180.692 130.618L180.405 127.334L182.86 127.12L182.701 125.303L180.246 125.517L180.07 123.509L178.03 123.688L178.206 125.696L176.708 125.827L176.867 127.644L178.365 127.513L178.652 130.796ZM185.411 123.652C186.128 123.589 186.665 122.932 186.602 122.215C186.54 121.498 185.897 120.943 185.18 121.006C184.462 121.069 183.91 121.728 183.972 122.445C184.035 123.162 184.694 123.715 185.411 123.652ZM185.216 133.177L187.241 133L186.538 124.967L184.514 125.144L185.216 133.177ZM192.763 124.101C190.149 124.33 188.532 126.415 188.743 128.821C188.954 131.228 190.907 133.001 193.521 132.772C196.135 132.543 197.752 130.458 197.541 128.052C197.331 125.645 195.377 123.872 192.763 124.101ZM193.386 130.856C192.047 130.974 190.97 130.04 190.847 128.637C190.724 127.235 191.623 126.128 192.962 126.011C194.253 125.898 195.315 126.833 195.437 128.236C195.559 129.622 194.677 130.743 193.386 130.856ZM199.739 131.907L201.763 131.73L201.305 126.486C201.563 125.949 202.045 125.216 203.065 125.127C204.053 125.041 204.717 125.657 204.811 126.725L205.222 131.427L207.262 131.249L206.844 126.467C206.636 124.092 205.145 123.018 203.408 123.17C202.34 123.263 201.627 123.743 201.116 124.334L201.061 123.696L199.036 123.873L199.739 131.907ZM209.561 131.047L211.585 130.87L211.126 125.626C211.385 125.09 211.867 124.357 212.887 124.268C213.875 124.181 214.539 124.798 214.633 125.866L215.044 130.568L217.084 130.389L216.666 125.607C216.458 123.233 214.967 122.158 213.229 122.31C212.162 122.404 211.449 122.884 210.938 123.475L210.882 122.837L208.858 123.014L209.561 131.047ZM219.577 120.663C220.295 120.6 220.831 119.943 220.769 119.226C220.706 118.508 220.063 117.954 219.346 118.017C218.629 118.08 218.076 118.738 218.139 119.456C218.201 120.173 218.86 120.726 219.577 120.663ZM219.383 130.188L221.407 130.011L220.704 121.978L218.68 122.155L219.383 130.188ZM222.922 128.706C223.767 129.548 224.837 130.032 226.272 129.907C227.786 129.774 229.06 128.731 228.944 127.039C228.701 124.265 224.902 125.08 224.782 123.709C224.746 123.294 225.018 122.917 225.656 122.862C226.277 122.807 226.839 123.176 227.298 123.649L228.534 122.353C227.892 121.622 226.725 121.13 225.497 121.237C223.824 121.384 222.722 122.556 222.846 123.975C223.093 126.796 226.888 125.934 227.011 127.336C227.053 127.815 226.751 128.226 226.098 128.284C225.333 128.351 224.704 127.956 224.155 127.377L222.922 128.706ZM231.388 126.183C231.56 128.143 232.615 129.191 234.623 129.015C235.293 128.957 235.764 128.835 236.147 128.625L235.992 126.856C235.731 126.991 235.37 127.087 234.812 127.136C234.015 127.205 233.507 126.897 233.428 126.004L233.141 122.721L235.596 122.506L235.437 120.689L232.982 120.904L232.807 118.895L230.766 119.074L230.942 121.082L229.444 121.213L229.603 123.03L231.101 122.899L231.388 126.183ZM245.078 126.623L243.527 125.602C243.147 126.214 242.416 126.663 241.539 126.74C240.28 126.85 239.302 126.325 238.98 124.844L244.606 124.352C244.647 124.075 244.674 123.655 244.635 123.209C244.451 121.105 242.852 119.719 240.621 119.914C237.991 120.144 236.664 122.236 236.872 124.611C237.077 126.954 238.861 128.805 241.714 128.556C243.228 128.423 244.417 127.693 245.078 126.623ZM240.718 121.576C241.849 121.477 242.51 122.238 242.613 123.048L238.915 123.372C239.047 122.3 239.682 121.667 240.718 121.576ZM249.397 122.471L249.569 124.431L253.872 124.055L253.701 122.094L249.397 122.471ZM258.474 123.781L263.622 123.33L263.881 126.295L266.033 126.107L265.774 123.142L266.906 123.043L266.735 121.098L265.604 121.197L265.057 114.949L262.539 115.17L258.304 121.836L258.474 123.781ZM260.519 121.642L263.119 117.576L263.452 121.386L260.519 121.642ZM271.811 125.922C275.238 125.623 276.456 123.027 276.152 119.552C275.826 115.822 274.03 113.843 271.13 114.097C268.579 114.32 267.218 116.206 267.403 118.31C267.581 120.35 269.122 121.805 271.337 121.611C272.437 121.515 273.315 121.085 273.976 120.385C274.025 122.597 273.282 123.834 271.673 123.975C270.78 124.053 270.085 123.632 269.444 122.917L267.906 124.433C268.708 125.343 269.962 126.084 271.811 125.922ZM269.611 118.036C269.519 116.984 270.184 116.139 271.332 116.039C272.479 115.938 273.322 116.571 273.736 118.366C273.258 119.147 272.477 119.584 271.568 119.664C270.5 119.757 269.702 119.072 269.611 118.036ZM280.777 119.725L280.949 121.686L285.252 121.309L285.081 119.349L280.777 119.725ZM64.6445 167.818L67.0513 167.607L67.8654 164.613L72.3284 164.222L73.6501 167.03L76.0569 166.819L70.8569 156.031L67.8922 156.291L64.6445 167.818ZM68.398 162.623L69.5614 158.297L71.4583 162.355L68.398 162.623ZM77.9914 166.65L80.0157 166.473L79.5569 161.229C79.8151 160.692 80.2971 159.96 81.3172 159.87C82.3054 159.784 82.9696 160.4 83.0631 161.468L83.4744 166.17L85.5147 165.992L85.0963 161.21C84.8885 158.835 83.3972 157.761 81.6599 157.913C80.592 158.006 79.8791 158.486 79.3686 159.077L79.3128 158.44L77.2886 158.617L77.9914 166.65ZM87.139 167.263C87.2868 168.953 88.8791 169.713 91.4453 169.488C93.9478 169.269 95.5333 167.749 95.3771 165.964C95.2461 164.466 94.0514 163.478 92.0272 163.655L90.0029 163.832C89.6363 163.864 89.447 163.72 89.4191 163.402C89.4038 163.226 89.4841 163.043 89.6455 162.868C89.8887 162.895 90.1452 162.888 90.4161 162.865C92.4882 162.683 93.5562 161.305 93.4181 159.727C93.3944 159.456 93.3402 159.204 93.2382 158.956L94.6568 158.832L94.5062 157.11L91.5734 157.367C91.093 157.2 90.5413 157.136 89.9197 157.19C87.9114 157.366 86.8102 158.731 86.9468 160.293C87.0249 161.186 87.4772 161.949 88.2245 162.414C87.6579 162.913 87.4315 163.447 87.4873 164.085C87.5236 164.499 87.7365 164.914 88.0832 165.205C87.412 165.794 87.0693 166.466 87.139 167.263ZM90.3141 161.332C89.4375 161.408 88.8655 160.928 88.7958 160.131C88.7274 159.35 89.2074 158.778 90.0841 158.702C90.9288 158.628 91.5154 159.09 91.5851 159.887C91.6548 160.684 91.1589 161.258 90.3141 161.332ZM89.0266 166.809C88.9834 166.315 89.1918 165.943 89.4695 165.63L91.956 165.412C92.9283 165.327 93.3326 165.725 93.3855 166.331C93.4553 167.128 92.7535 167.735 91.2872 167.864C89.8686 167.988 89.0935 167.574 89.0266 166.809ZM103.593 163.093L102.043 162.072C101.662 162.684 100.931 163.133 100.054 163.21C98.795 163.32 97.8175 162.795 97.4952 161.314L103.122 160.822C103.162 160.545 103.189 160.125 103.15 159.679C102.966 157.575 101.367 156.189 99.1357 156.384C96.5058 156.614 95.179 158.706 95.3868 161.081C95.5918 163.424 97.376 165.275 100.229 165.026C101.743 164.893 102.932 164.163 103.593 163.093ZM99.233 158.046C100.365 157.947 101.025 158.708 101.128 159.518L97.4306 159.842C97.5617 158.77 98.1969 158.137 99.233 158.046ZM105.542 164.24L107.567 164.062L107.116 158.914C107.374 158.378 107.965 157.78 108.953 157.693C109.319 157.661 109.595 157.685 109.855 157.727L109.681 155.734C109.484 155.687 109.241 155.661 108.97 155.684C108.061 155.764 107.412 156.238 106.934 156.826L106.864 156.029L104.84 156.206L105.542 164.24ZM111.215 162.571C112.059 163.412 113.129 163.897 114.564 163.771C116.078 163.639 117.352 162.596 117.236 160.904C116.994 158.13 113.194 158.945 113.074 157.574C113.038 157.159 113.31 156.782 113.948 156.726C114.569 156.672 115.131 157.04 115.59 157.514L116.826 156.218C116.184 155.487 115.017 154.995 113.789 155.102C112.116 155.248 111.014 156.421 111.138 157.84C111.385 160.661 115.18 159.799 115.303 161.201C115.345 161.679 115.043 162.091 114.39 162.148C113.625 162.215 112.996 161.821 112.447 161.242L111.215 162.571Z" fill="#161616"/>
<g id="tag">
<rect x="58.5417" y="245.174" width="122" height="31" rx="15.5" transform="rotate(-5 58.5417 245.174)" fill="#EEF1F8"/>
<g id="place">
<path id="Vector" d="M75.3335 259.265C76.0641 259.201 76.6095 258.551 76.5456 257.82C76.4817 257.09 75.8317 256.544 75.1011 256.608C74.3706 256.672 73.8251 257.322 73.8891 258.053C73.953 258.783 74.603 259.329 75.3335 259.265ZM74.7525 252.623C77.5418 252.379 80.2526 254.297 80.542 257.604C80.7268 259.716 79.3169 262.342 76.3198 265.489C76.0866 265.73 75.708 265.763 75.4365 265.566C71.9451 262.987 70.1007 260.646 69.9159 258.534C69.6265 255.227 71.9631 252.867 74.7525 252.623Z" fill="#3B69D1"/>
</g>
<path id="data_tag" d="M88.1224 261.33L92.9758 260.905L93.2223 263.722L94.4775 263.613L94.231 260.795L95.3607 260.697L95.2619 259.567L94.1322 259.666L93.6234 253.85L92.1032 253.983L88.0235 260.2L88.1224 261.33ZM89.3624 260.083L92.4878 255.327L92.877 259.776L89.3624 260.083ZM99.7304 263.434C102.506 263.191 103.573 260.934 103.296 257.768C103 254.379 101.422 252.887 99.1343 253.087C97.0144 253.272 95.9049 254.887 96.0599 256.658C96.21 258.374 97.586 259.645 99.413 259.485C100.501 259.39 101.387 258.919 102.022 258.146C102.179 260.578 101.416 262.134 99.6304 262.291C98.7238 262.37 98.0166 261.996 97.3843 261.194L96.4472 262.049C97.2033 262.981 98.2242 263.566 99.7304 263.434ZM97.3533 256.503C97.2508 255.331 97.9513 254.343 99.2483 254.229C100.476 254.122 101.464 254.822 101.853 256.854C101.356 257.755 100.5 258.251 99.5094 258.338C98.3658 258.438 97.4521 257.633 97.3533 256.503ZM107.749 258.278L107.849 259.421L111.614 259.092L111.514 257.948L107.749 258.278ZM115.986 261.731L117.38 261.609L118.259 258.637L122.75 258.244L124.131 261.018L125.525 260.896L120.78 251.474L119.023 251.628L115.986 261.731ZM118.592 257.47L120.001 252.695L122.218 257.152L118.592 257.47ZM127.454 260.728L128.765 260.613L128.051 252.454L134.288 260.13L136.003 259.98L135.149 250.217L133.838 250.332L134.552 258.49L128.315 250.815L126.6 250.965L127.454 260.728ZM143.451 258.372C141.164 258.573 139.378 256.958 139.188 254.782C138.997 252.607 140.42 250.711 142.623 250.519C143.934 250.404 145.064 250.952 145.803 251.843L146.778 250.942C145.78 249.821 144.273 249.138 142.516 249.291C139.461 249.559 137.591 252.111 137.835 254.901C138.079 257.69 140.42 259.874 143.558 259.6C145.385 259.44 146.809 258.528 147.608 257.222L147.275 253.414L143.147 253.775L143.246 254.905L146.063 254.659L146.256 256.862C145.64 257.689 144.664 258.266 143.451 258.372ZM150.376 258.722L155.62 258.263L155.522 257.148L151.589 257.492L151.3 254.186L154.675 253.891L154.579 252.789L151.204 253.085L150.93 249.961L154.863 249.616L154.766 248.501L149.522 248.959L150.376 258.722ZM158.235 258.035L159.546 257.92L159.171 253.638L160.454 253.526C160.552 253.517 160.663 253.508 160.76 253.485L163.967 257.533L165.515 257.398L161.965 253.127C162.975 252.617 163.497 251.686 163.395 250.514C163.248 248.841 161.941 247.873 159.975 248.045L157.381 248.272L158.235 258.035ZM160.128 249.156C161.244 249.058 161.953 249.615 162.04 250.605C162.131 251.651 161.528 252.308 160.412 252.405L159.073 252.523L158.789 249.273L160.128 249.156Z" fill="#3B69D1"/>
<rect x="58.5417" y="245.174" width="122" height="31" rx="15.5" transform="rotate(-5 58.5417 245.174)" stroke="#EEF1F8"/>
</g>
<g id="tag_2">
<rect x="53.5417" y="196.276" width="192" height="31" rx="15.5" transform="rotate(-5 53.5417 196.276)" fill="#EEF1F8"/>
<path id="data_tag_2" d="M71.5484 214.933C72.4919 215.919 73.5994 216.37 75.036 216.244C76.7653 216.093 77.9684 214.906 77.8208 213.218C77.5365 209.968 72.9641 210.874 72.7725 208.685C72.6993 207.848 73.2605 207.195 74.2228 207.11C75.0596 207.037 75.7832 207.438 76.4271 208.21L77.3416 207.259C76.5322 206.36 75.4731 205.82 74.1063 205.94C72.4048 206.089 71.3091 207.379 71.436 208.83C71.7179 212.051 76.3067 211.172 76.4995 213.376C76.5776 214.268 76.0074 214.979 74.9195 215.074C74.013 215.153 73.1917 214.761 72.4466 213.955L71.5484 214.933ZM86.3761 213.819L85.4377 213.212C85.0324 213.88 84.3019 214.366 83.3954 214.445C81.8891 214.577 80.7262 213.652 80.5367 211.969L85.9341 211.496C85.9588 211.297 85.9775 211.029 85.9531 210.75C85.8018 209.02 84.4434 207.79 82.5327 207.957C80.357 208.148 79.1354 209.927 79.3221 212.061C79.5015 214.111 81.1184 215.726 83.4893 215.519C84.8003 215.404 85.7975 214.755 86.3761 213.819ZM82.5926 208.964C83.8339 208.855 84.6208 209.658 84.753 210.686L80.541 211.055C80.6859 209.819 81.435 209.065 82.5926 208.964ZM88.3331 214.814L89.5186 214.71L89.0964 209.885C89.4665 209.135 90.0247 208.609 90.9452 208.528C91.2241 208.504 91.4358 208.513 91.6499 208.551L91.5486 207.393C91.3763 207.352 91.1647 207.343 90.9416 207.362C90.049 207.44 89.4428 207.901 88.9805 208.56L88.9036 207.681L87.7181 207.785L88.3331 214.814ZM92.4466 207.371L95.8091 214.16L97.3711 214.023L99.5036 206.754L98.2205 206.866L96.4815 212.85L93.7297 207.259L92.4466 207.371ZM107.609 211.961L106.671 211.354C106.266 212.022 105.535 212.508 104.629 212.587C103.122 212.719 101.959 211.795 101.77 210.111L107.167 209.639C107.192 209.44 107.211 209.171 107.186 208.892C107.035 207.163 105.677 205.932 103.766 206.1C101.59 206.29 100.369 208.069 100.555 210.203C100.735 212.253 102.352 213.868 104.723 213.661C106.034 213.546 107.031 212.897 107.609 211.961ZM103.826 207.106C105.067 206.998 105.854 207.8 105.986 208.829L101.774 209.197C101.919 207.962 102.668 207.208 103.826 207.106ZM114.089 209.525C114.21 210.906 113.526 211.767 112.355 211.869C111.155 211.974 110.347 211.244 110.226 209.863L109.875 205.846L108.689 205.95L109.037 209.925C109.221 212.031 110.542 213.152 112.439 212.986C114.349 212.819 115.455 211.485 115.271 209.379L114.923 205.405L113.738 205.508L114.089 209.525ZM117.875 212.229L119.06 212.126L118.638 207.3C119.008 206.551 119.566 206.024 120.487 205.944C120.766 205.919 120.977 205.929 121.191 205.966L121.09 204.809C120.918 204.768 120.706 204.758 120.483 204.778C119.59 204.856 118.984 205.316 118.522 205.975L118.445 205.096L117.26 205.2L117.875 212.229ZM125.539 207.385L125.639 208.529L129.404 208.199L129.304 207.055L125.539 207.385ZM134.654 210.761L135.84 210.658L135.417 205.832C135.788 205.083 136.346 204.556 137.266 204.476C137.545 204.451 137.757 204.461 137.971 204.498L137.87 203.341C137.697 203.3 137.486 203.29 137.263 203.31C136.37 203.388 135.764 203.848 135.302 204.507L135.225 203.628L134.039 203.732L134.654 210.761ZM142.633 201.856L144.062 199.398L142.723 199.515L141.475 201.957L142.633 201.856ZM145.922 208.609L144.984 208.003C144.578 208.67 143.848 209.156 142.941 209.235C141.435 209.367 140.272 208.443 140.083 206.759L145.48 206.287C145.505 206.088 145.523 205.819 145.499 205.54C145.348 203.811 143.989 202.581 142.079 202.748C139.903 202.938 138.681 204.717 138.868 206.851C139.047 208.901 140.664 210.517 143.035 210.309C144.346 210.194 145.343 209.545 145.922 208.609ZM142.139 203.754C143.38 203.646 144.167 204.448 144.299 205.477L140.087 205.845C140.232 204.61 140.981 203.856 142.139 203.754ZM151.014 208.487C149.494 208.62 148.318 207.542 148.186 206.036C148.055 204.544 149.026 203.264 150.532 203.132C151.41 203.056 152.158 203.412 152.644 203.988L153.517 203.195C152.785 202.387 151.703 201.906 150.434 202.017C148.105 202.22 146.765 204.094 146.945 206.145C147.124 208.195 148.769 209.808 151.098 209.604C152.381 209.491 153.35 208.845 153.929 207.909L152.932 207.279C152.554 207.931 151.879 208.411 151.014 208.487ZM161.53 207.244L160.592 206.637C160.187 207.305 159.456 207.79 158.55 207.87C157.043 208.001 155.88 207.077 155.691 205.393L161.088 204.921C161.113 204.722 161.132 204.454 161.107 204.175C160.956 202.445 159.598 201.215 157.687 201.382C155.511 201.573 154.29 203.352 154.476 205.486C154.656 207.536 156.273 209.151 158.644 208.944C159.955 208.829 160.952 208.18 161.53 207.244ZM157.747 202.389C158.988 202.28 159.775 203.083 159.907 204.111L155.695 204.48C155.84 203.244 156.589 202.49 157.747 202.389ZM163.788 211.67L164.973 211.566L164.6 207.298C165.29 207.955 166.148 208.287 167.194 208.196C169.397 208.003 170.653 206.136 170.474 204.086C170.295 202.036 168.734 200.416 166.53 200.609C165.484 200.7 164.697 201.176 164.131 201.943L164.058 201.106L162.872 201.21L163.788 211.67ZM166.488 201.736C167.98 201.606 169.102 202.702 169.233 204.195C169.363 205.687 168.449 206.961 166.957 207.092C165.994 207.176 165.103 206.79 164.485 205.987L164.246 203.254C164.703 202.37 165.512 201.822 166.488 201.736ZM172.784 205.05C172.934 206.766 173.881 207.47 175.443 207.333C175.945 207.289 176.317 207.201 176.639 207.032L176.546 205.972C176.291 206.107 175.975 206.191 175.515 206.231C174.664 206.305 174.08 206.047 173.983 204.945L173.668 201.347L176.109 201.134L176.015 200.06L173.574 200.273L173.421 198.516L172.221 198.621L172.375 200.378L171.05 200.494L171.144 201.568L172.469 201.452L172.784 205.05ZM178.267 198.022C178.727 197.981 179.057 197.573 179.017 197.113C178.978 196.667 178.582 196.322 178.122 196.362C177.661 196.402 177.318 196.812 177.357 197.258C177.397 197.718 177.807 198.062 178.267 198.022ZM178.442 206.93L179.627 206.827L179.013 199.798L177.827 199.901L178.442 206.93ZM184.701 199.019C182.428 199.218 181.046 201.095 181.226 203.145C181.405 205.196 183.092 206.805 185.365 206.606C187.625 206.408 189.02 204.529 188.841 202.479C188.661 200.429 186.961 198.821 184.701 199.019ZM185.281 205.489C183.775 205.621 182.595 204.501 182.467 203.037C182.339 201.572 183.307 200.265 184.813 200.133C186.277 200.005 187.457 201.125 187.586 202.589C187.712 204.039 186.746 205.361 185.281 205.489ZM191.054 205.827L192.239 205.723L191.814 200.856C192.195 200.078 192.786 199.436 193.804 199.347C194.892 199.251 195.666 199.914 195.776 201.17L196.145 205.382L197.33 205.278L196.958 201.024C196.783 199.03 195.519 198.072 193.943 198.21C192.897 198.302 192.211 198.811 191.694 199.489L191.624 198.694L190.439 198.798L191.054 205.827ZM199.716 205.069L200.902 204.965L200.476 200.098C200.857 199.32 201.448 198.678 202.466 198.589C203.554 198.494 204.328 199.157 204.438 200.412L204.807 204.624L205.992 204.52L205.62 200.266C205.446 198.272 204.181 197.314 202.605 197.452C201.559 197.544 200.873 198.054 200.356 198.731L200.287 197.936L199.101 198.04L199.716 205.069ZM208.203 195.403C208.664 195.362 208.993 194.954 208.953 194.494C208.914 194.048 208.518 193.703 208.058 193.743C207.598 193.783 207.254 194.193 207.293 194.639C207.334 195.099 207.743 195.443 208.203 195.403ZM208.378 204.311L209.564 204.208L208.949 197.178L207.763 197.282L208.378 204.311ZM211.178 203.097C211.889 203.836 212.806 204.205 213.922 204.107C215.233 203.993 216.207 203.078 216.106 201.766C215.897 199.367 212.412 200.178 212.274 198.602C212.226 198.058 212.592 197.576 213.345 197.511C213.959 197.457 214.518 197.745 214.941 198.242L215.703 197.473C215.155 196.832 214.249 196.434 213.244 196.522C211.892 196.64 211.036 197.628 211.133 198.73C211.35 201.212 214.816 200.347 214.954 201.923C215.007 202.537 214.603 203.05 213.822 203.118C213.11 203.181 212.494 202.883 211.952 202.312L211.178 203.097ZM218.451 201.055C218.601 202.77 219.548 203.475 221.11 203.338C221.612 203.294 221.984 203.205 222.306 203.037L222.214 201.977C221.958 202.111 221.643 202.195 221.182 202.235C220.332 202.31 219.747 202.052 219.65 200.95L219.336 197.352L221.776 197.138L221.682 196.064L219.242 196.278L219.088 194.521L217.889 194.626L218.042 196.383L216.717 196.499L216.811 197.573L218.136 197.457L218.451 201.055ZM230.12 201.243L229.182 200.636C228.776 201.304 228.046 201.79 227.139 201.869C225.633 202.001 224.47 201.076 224.281 199.393L229.678 198.92C229.703 198.721 229.721 198.453 229.697 198.174C229.546 196.445 228.187 195.214 226.277 195.381C224.101 195.572 222.879 197.351 223.066 199.485C223.245 201.535 224.862 203.15 227.233 202.943C228.544 202.828 229.541 202.179 230.12 201.243ZM226.337 196.388C227.578 196.279 228.365 197.082 228.497 198.11L224.285 198.479C224.43 197.243 225.179 196.489 226.337 196.388Z" fill="#274996"/>
<rect x="53.5417" y="196.276" width="192" height="31" rx="15.5" transform="rotate(-5 53.5417 196.276)" stroke="#EEF1F8"/>
</g>
</g>
</g>
<line id="Line 5" x1="61.766" y1="294.308" x2="356.734" y2="268.502" stroke="#F1F1F1"/>
<g id="job_tag">
<rect x="38.4094" y="81.2753" width="96.5372" height="31" rx="15.5" transform="rotate(-5 38.4094 81.2753)" fill="white"/>
<path id="Label job tag" d="M66.6807 100.384L71.9246 99.9252L71.827 98.8095L67.8941 99.1536L67.6049 95.8482L70.98 95.5529L70.8836 94.4511L67.5085 94.7464L67.2352 91.6223L71.1681 91.2783L71.0705 90.1625L65.8265 90.6213L66.6807 100.384ZM74.1647 99.7292L75.3502 99.6255L74.9244 94.7581C75.2654 93.9975 75.8126 93.3453 76.7749 93.2611C77.793 93.1721 78.4932 93.7854 78.5957 94.9569L78.9763 99.3083L80.1618 99.2046L79.7775 94.8113C79.7628 94.644 79.7355 94.4918 79.7081 94.3396C80.0963 93.4765 80.68 92.9195 81.5726 92.8414C82.5768 92.7535 83.2908 93.3656 83.3933 94.5372L83.774 98.8885L84.9595 98.7848L84.5751 94.3916C84.408 92.4809 83.2183 91.5731 81.7121 91.7049C80.4987 91.8111 79.8108 92.4615 79.32 93.2774C78.8096 92.4226 77.9325 92.0356 76.9144 92.1247C75.9381 92.2101 75.2786 92.7034 74.8023 93.3634L74.7352 92.5964L73.5498 92.7001L74.1647 99.7292ZM87.6489 102.007L88.8344 101.903L88.461 97.6353C89.1508 98.2916 90.0091 98.6241 91.0551 98.5326C93.2587 98.3398 94.5148 96.4732 94.3354 94.4231C94.156 92.3729 92.5949 90.7528 90.3913 90.9456C89.3453 91.0371 88.5578 91.5135 87.9925 92.2797L87.9192 91.4429L86.7338 91.5466L87.6489 102.007ZM90.3494 92.0735C91.8417 91.943 92.9636 93.0394 93.0941 94.5317C93.2247 96.024 92.3103 97.2985 90.818 97.4291C89.8557 97.5133 88.9647 97.1274 88.3463 96.3243L88.1071 93.5907C88.5639 92.7076 89.3732 92.1589 90.3494 92.0735ZM96.5558 97.7703L97.7412 97.6666L96.8261 87.2065L95.6406 87.3102L96.5558 97.7703ZM102.815 89.8586C100.542 90.0575 99.1602 91.9351 99.3395 93.9853C99.5189 96.0354 101.206 97.6445 103.479 97.4457C105.738 97.248 107.134 95.3692 106.954 93.319C106.775 91.2689 105.074 89.661 102.815 89.8586ZM103.395 96.3287C101.889 96.4605 100.709 95.3411 100.581 93.8767C100.453 92.4123 101.42 91.1049 102.927 90.9732C104.391 90.845 105.571 91.9644 105.699 93.4289C105.826 94.8793 104.86 96.2006 103.395 96.3287ZM108.993 87.7582C109.453 87.718 109.783 87.3097 109.742 86.8494C109.703 86.4032 109.308 86.0583 108.847 86.0986C108.387 86.1388 108.044 86.5484 108.083 86.9946C108.123 87.4549 108.532 87.7985 108.993 87.7582ZM109.168 96.6669L110.353 96.5632L109.738 89.534L108.553 89.6377L109.168 96.6669Z" fill="#4A526D"/>
<rect x="38.4094" y="81.2753" width="96.5372" height="31" rx="15.5" transform="rotate(-5 38.4094 81.2753)" stroke="#4A526D"/>
</g>
<g id="button_webapp">
<rect x="239.162" y="287.823" width="124.405" height="39" rx="19.5" transform="rotate(-5 239.162 287.823)" fill="#3B69D1"/>
<g id="add">
<path id="Ic&#195;&#180;ne" fill-rule="evenodd" clip-rule="evenodd" d="M272.219 303.836L271.871 299.851L273.199 299.735L273.547 303.719L277.532 303.371L277.648 304.699L273.664 305.048L274.012 309.032L272.684 309.149L272.335 305.164L268.351 305.513L268.234 304.184L272.219 303.836Z" fill="white"/>
</g>
<path id="Button Label" d="M289.718 308.997L291.823 308.813L292.536 306.193L296.441 305.851L297.597 308.308L299.703 308.123L295.153 298.684L292.559 298.911L289.718 308.997ZM293.002 304.451L294.02 300.666L295.68 304.217L293.002 304.451ZM301.538 299.643C302.152 299.589 302.636 299.013 302.581 298.386C302.526 297.758 301.95 297.274 301.336 297.328C300.708 297.383 300.225 297.959 300.28 298.587C300.334 299.214 300.911 299.698 301.538 299.643ZM303.233 308.573L302.552 300.791L300.781 300.946L301.462 308.728C301.533 309.537 301.141 309.881 300.444 309.942C299.956 309.984 299.616 309.958 299.384 309.88L299.52 311.428C299.882 311.551 300.293 311.585 300.878 311.534C302.649 311.379 303.387 310.331 303.233 308.573ZM307.999 300.034C305.712 300.234 304.298 302.058 304.482 304.164C304.666 306.27 306.376 307.821 308.663 307.621C310.95 307.42 312.365 305.596 312.18 303.49C311.996 301.384 310.286 299.833 307.999 300.034ZM308.544 305.945C307.373 306.047 306.43 305.23 306.323 304.003C306.215 302.775 307.002 301.807 308.174 301.705C309.303 301.606 310.232 302.424 310.339 303.651C310.446 304.865 309.674 305.846 308.544 305.945ZM318.468 303.418C318.557 304.436 318.082 305.11 317.119 305.194C316.143 305.28 315.558 304.699 315.469 303.68L315.12 299.692L313.335 299.848L313.677 303.753C313.861 305.859 315.188 307.05 317.252 306.869C319.316 306.689 320.43 305.284 320.246 303.178L319.904 299.273L318.119 299.429L318.468 303.418ZM322.81 303.516C322.96 305.231 323.884 306.148 325.641 305.995C326.227 305.943 326.639 305.837 326.974 305.653L326.839 304.105C326.61 304.223 326.295 304.307 325.806 304.35C325.109 304.411 324.664 304.141 324.596 303.36L324.344 300.487L326.492 300.299L326.353 298.709L324.205 298.897L324.051 297.14L322.266 297.296L322.42 299.053L321.109 299.168L321.248 300.758L322.559 300.643L322.81 303.516ZM334.789 303.901L333.432 303.008C333.099 303.543 332.459 303.937 331.692 304.004C330.59 304.1 329.735 303.641 329.453 302.345L334.376 301.914C334.411 301.672 334.435 301.304 334.401 300.914C334.24 299.073 332.841 297.86 330.889 298.031C328.587 298.232 327.426 300.062 327.608 302.141C327.788 304.191 329.349 305.811 331.845 305.592C333.17 305.476 334.21 304.837 334.789 303.901ZM330.974 299.485C331.964 299.398 332.542 300.065 332.632 300.773L329.397 301.057C329.511 300.119 330.067 299.564 330.974 299.485ZM336.494 304.905L338.266 304.75L337.872 300.245C338.097 299.775 338.614 299.252 339.479 299.177C339.799 299.149 340.04 299.17 340.268 299.206L340.116 297.463C339.943 297.422 339.73 297.398 339.493 297.419C338.698 297.488 338.13 297.903 337.712 298.418L337.651 297.72L335.879 297.875L336.494 304.905Z" fill="white"/>
<rect x="239.162" y="287.823" width="124.405" height="39" rx="19.5" transform="rotate(-5 239.162 287.823)" stroke="#3B69D1"/>
</g>
<g id="button_webapp_2">
<g id="delete">
<path id="Vector_2" d="M77.3106 326.242C77.3745 326.972 78.0245 327.518 78.7551 327.454L84.0681 326.989C84.7986 326.925 85.3441 326.275 85.2801 325.545L84.6991 318.903C84.6352 318.173 83.9852 317.627 83.2546 317.691L77.9416 318.156C77.2111 318.22 76.6656 318.87 76.7295 319.601L77.3106 326.242ZM84.4086 315.583L82.7483 315.728L82.2355 315.298C82.1055 315.189 81.9264 315.131 81.7537 315.146L78.9777 315.389C78.805 315.404 78.6387 315.492 78.5296 315.622L78.0994 316.135L76.439 316.28C76.0738 316.312 75.801 316.637 75.833 317.002C75.865 317.367 76.19 317.64 76.5552 317.608L84.5248 316.911C84.8901 316.879 85.1628 316.554 85.1308 316.189C85.0989 315.823 84.7739 315.551 84.4086 315.583Z" fill="#3B69D1"/>
</g>
<path id="Button Label_2" d="M100.221 325.022C101.312 326.115 102.631 326.69 104.512 326.525C106.568 326.345 108.084 324.944 107.932 322.837C107.597 319.012 102.578 320.029 102.401 318.005C102.343 317.335 102.824 316.779 103.621 316.71C104.466 316.636 105.248 317.129 105.975 317.917L107.502 316.274C106.447 315.226 105.106 314.588 103.432 314.735C101.296 314.921 99.9583 316.516 100.113 318.285C100.444 322.063 105.463 321.062 105.643 323.118C105.713 323.915 105.213 324.44 104.32 324.518C103.412 324.598 102.475 324.166 101.73 323.364L100.221 325.022ZM115.257 321.763C115.359 322.926 114.816 323.696 113.716 323.793C112.6 323.89 111.932 323.226 111.83 322.063L111.431 317.504L109.391 317.682L109.781 322.145C109.992 324.552 111.508 325.913 113.867 325.707C116.226 325.5 117.499 323.895 117.289 321.489L116.898 317.026L114.858 317.204L115.257 321.763ZM120.185 328.784L122.209 328.607L121.809 324.032C122.485 324.6 123.297 324.882 124.396 324.786C126.947 324.563 128.303 322.436 128.098 320.093C127.893 317.75 126.188 315.892 123.638 316.115C122.538 316.211 121.788 316.63 121.22 317.306L121.163 316.652L119.139 316.83L120.185 328.784ZM123.518 318.053C124.889 317.933 125.871 318.875 125.994 320.277C126.116 321.68 125.313 322.778 123.942 322.898C123.018 322.979 122.234 322.646 121.625 321.928L121.405 319.41C121.849 318.616 122.578 318.135 123.518 318.053ZM130.645 327.869L132.669 327.692L132.269 323.117C132.945 323.684 133.757 323.967 134.856 323.87C137.407 323.647 138.763 321.521 138.558 319.178C138.353 316.835 136.648 314.976 134.098 315.2C132.998 315.296 132.248 315.715 131.681 316.391L131.623 315.737L129.599 315.914L130.645 327.869ZM133.978 317.137C135.349 317.017 136.331 317.959 136.454 319.362C136.576 320.765 135.773 321.863 134.402 321.983C133.478 322.064 132.694 321.731 132.085 321.013L131.865 318.495C132.309 317.701 133.038 317.22 133.978 317.137ZM140.762 323.033L142.786 322.856L142.336 317.707C142.594 317.171 143.184 316.573 144.172 316.486C144.539 316.454 144.814 316.478 145.075 316.52L144.9 314.528C144.704 314.481 144.46 314.454 144.189 314.477C143.281 314.557 142.632 315.031 142.153 315.619L142.083 314.822L140.059 314.999L140.762 323.033ZM147.432 312.941C148.149 312.878 148.686 312.221 148.623 311.504C148.56 310.786 147.918 310.232 147.2 310.295C146.483 310.358 145.93 311.016 145.993 311.734C146.056 312.451 146.714 313.004 147.432 312.941ZM147.237 322.466L149.261 322.289L148.559 314.256L146.534 314.433L147.237 322.466ZM151.689 322.077L153.713 321.9L153.254 316.656C153.513 316.119 153.931 315.392 154.855 315.311C155.764 315.231 156.343 315.791 156.428 316.763L156.853 321.625L158.893 321.446L158.461 316.505C158.45 316.378 158.44 316.266 158.415 316.156C158.686 315.586 159.111 314.939 159.988 314.862C160.896 314.782 161.475 315.342 161.56 316.314L161.986 321.176L164.026 320.997L163.594 316.056C163.396 313.793 161.988 312.76 160.33 312.905C158.976 313.023 158.264 313.696 157.751 314.447C157.15 313.633 156.218 313.264 155.198 313.354C154.21 313.44 153.559 313.898 153.063 314.472L153.01 313.866L150.986 314.043L151.689 322.077ZM173.618 318.841L172.067 317.82C171.686 318.432 170.955 318.881 170.078 318.958C168.819 319.068 167.842 318.543 167.519 317.062L173.146 316.57C173.186 316.293 173.213 315.873 173.174 315.427C172.99 313.323 171.391 311.937 169.16 312.132C166.53 312.362 165.203 314.454 165.411 316.829C165.616 319.172 167.4 321.023 170.253 320.774C171.767 320.641 172.956 319.911 173.618 318.841ZM169.257 313.794C170.389 313.695 171.05 314.456 171.153 315.266L167.455 315.59C167.586 314.518 168.221 313.885 169.257 313.794ZM175.566 319.988L177.591 319.81L177.14 314.662C177.399 314.126 177.989 313.528 178.977 313.441C179.344 313.409 179.619 313.433 179.879 313.475L179.705 311.483C179.508 311.436 179.265 311.409 178.994 311.432C178.085 311.512 177.436 311.986 176.958 312.574L176.888 311.777L174.864 311.954L175.566 319.988Z" fill="#3B69D1"/>
</g>
<path id="Vector 13" d="M210.339 293.857L213.128 325.736" stroke="#F1F1F1"/>
</g>
</g>
<defs>
<filter id="filter0_d_3723_11380" x="-1" y="2.66699" width="404.264" height="393.049" filterUnits="userSpaceOnUse" color-interpolation-filters="sRGB">
<feFlood flood-opacity="0" result="BackgroundImageFix"/>
<feColorMatrix in="SourceAlpha" type="matrix" values="0 0 0 0 0 0 0 0 0 0 0 0 0 0 0 0 0 0 127 0" result="hardAlpha"/>
<feOffset dy="6"/>
<feGaussianBlur stdDeviation="12.5"/>
<feComposite in2="hardAlpha" operator="out"/>
<feColorMatrix type="matrix" values="0 0 0 0 0.196078 0 0 0 0 0.196078 0 0 0 0 0.196078 0 0 0 0.1 0"/>
<feBlend mode="normal" in2="BackgroundImageFix" result="effect1_dropShadow_3723_11380"/>
<feBlend mode="normal" in="SourceGraphic" in2="effect1_dropShadow_3723_11380" result="shape"/>
</filter>
</defs>
</svg>
