<svg width="470" height="292" viewBox="0 0 470 292" fill="none" xmlns="http://www.w3.org/2000/svg">
    <g clip-path="url(#clip0_1180_3780)">
        <path
            d="M57.2839 43.9555C56.8521 39.5731 60.0759 35.6413 64.4619 35.2013L362.696 5.28281C367.021 4.84899 370.852 7.97618 371.289 12.2959L397.546 272.092C397.991 276.498 394.74 280.451 390.328 280.87L91.2862 309.261C86.9685 309.671 83.1589 306.536 82.734 302.224L57.2839 43.9555Z"
            fill="#F1F1F1" />
        <g clip-path="url(#clip1_1180_3780)">
            <g filter="url(#filter0_d_1180_3780)">
                <rect x="122.156" y="56.4758" width="234.196" height="45.6329" rx="7.16925"
                    transform="rotate(-5.77179 122.156 56.4758)" stroke="#73758D" stroke-width="0.9559"
                    stroke-dasharray="7.65 7.65" shape-rendering="crispEdges" />
            </g>
            <path
                d="M89.7087 128.729L90.9755 128.601L93.1168 132.904L94.3422 128.261L95.6204 128.132L94.022 134.104L92.4585 134.262L89.7087 128.729ZM102.285 132.323C101.821 133.097 100.987 133.631 99.9143 133.739C97.9285 133.94 96.6088 132.632 96.4392 130.954C96.2651 129.231 97.2211 127.739 99.0471 127.555C100.633 127.394 101.77 128.375 101.918 129.836C101.944 130.098 101.937 130.364 101.908 130.54L97.6628 130.969C97.8696 132.216 98.7 132.789 99.807 132.678C100.503 132.607 101.054 132.24 101.359 131.725L102.285 132.323ZM99.1235 128.539C98.2675 128.625 97.7237 129.176 97.6311 130.084L100.724 129.772C100.628 129.055 100.048 128.445 99.1235 128.539ZM103.807 133.115L103.225 127.363L104.401 127.244L104.457 127.803C104.845 127.303 105.382 126.914 106.204 126.831C107.471 126.703 108.527 127.461 108.696 129.127L109.045 132.585L107.858 132.705L107.513 129.293C107.421 128.38 106.863 127.883 106.042 127.966C105.254 128.046 104.836 128.584 104.59 129.116L104.982 132.996L103.807 133.115ZM111.48 132.478C111.001 132.526 110.586 132.188 110.539 131.72C110.493 131.263 110.83 130.837 111.309 130.789C111.777 130.741 112.193 131.091 112.239 131.548C112.286 132.016 111.948 132.43 111.48 132.478Z"
                fill="#161616" />
            <path
                d="M100.026 149.839L99.7457 143.872L106.091 143.23L106.279 145.087L101.896 145.53L101.999 147.764L102.821 147.681C105.651 147.395 107.03 148.562 107.239 150.632C107.459 152.808 105.89 154.319 103.699 154.54C101.72 154.74 100.324 154.005 99.2862 152.558L100.97 151.265C101.697 152.375 102.479 152.819 103.514 152.714C104.564 152.608 105.247 151.909 105.147 150.92C105.045 149.916 104.241 149.413 102.917 149.546L100.026 149.839Z"
                fill="#161616" />
            <g filter="url(#filter1_d_1180_3780)">
                <rect x="127.856" y="117.618" width="235.151" height="131.472" rx="7.6472"
                    transform="rotate(-5.77179 127.856 117.618)" fill="white" shape-rendering="crispEdges" />
                <rect x="144.611" y="131.297" width="72.4124" height="23.6472" rx="7.6472"
                    transform="rotate(-5.77179 144.611 131.297)" fill="#F4E5FF" />
                <g clip-path="url(#clip2_1180_3780)">
                    <path
                        d="M159.402 144.568C158.959 144.612 158.568 144.497 158.231 144.222C157.893 143.946 157.702 143.586 157.657 143.143C157.612 142.699 157.728 142.308 158.003 141.971C158.279 141.633 158.638 141.442 159.082 141.397C159.526 141.353 159.916 141.468 160.254 141.743C160.591 142.019 160.782 142.378 160.827 142.822C160.872 143.266 160.757 143.657 160.481 143.994C160.206 144.332 159.846 144.523 159.402 144.568ZM157.219 148.311C156.87 148.346 156.559 148.252 156.285 148.029C156.012 147.806 155.858 147.52 155.823 147.171L154.925 138.295C154.89 137.946 154.984 137.635 155.207 137.362C155.43 137.088 155.716 136.934 156.065 136.898L156.699 136.834L156.635 136.2C156.617 136.021 156.662 135.864 156.771 135.73C156.881 135.596 157.025 135.52 157.205 135.502C157.385 135.484 157.542 135.529 157.676 135.638C157.809 135.748 157.885 135.892 157.903 136.072L157.967 136.706L163.04 136.193L162.976 135.559C162.957 135.38 163.003 135.223 163.112 135.089C163.221 134.955 163.366 134.879 163.545 134.861C163.725 134.843 163.882 134.889 164.015 134.998C164.149 135.107 164.225 135.252 164.244 135.431L164.308 136.065L164.942 136.001C165.29 135.966 165.602 136.06 165.875 136.283C166.148 136.507 166.303 136.792 166.338 137.141L167.235 146.018C167.27 146.366 167.177 146.678 166.954 146.951C166.73 147.224 166.444 147.379 166.095 147.414L157.219 148.311ZM157.091 147.043L165.967 146.146L165.326 139.805L156.45 140.703L157.091 147.043ZM156.322 139.435L165.198 138.537L165.07 137.269L156.193 138.167L156.322 139.435Z"
                        fill="#5149A8" />
                </g>
                <path
                    d="M173.104 145.326L175.32 137.031L177.443 136.817L181.275 144.5L179.552 144.674L178.577 142.674L175.382 142.997L174.827 145.152L173.104 145.326ZM175.744 141.566L177.935 141.344L176.536 138.453L175.744 141.566ZM182.334 142.271L182.096 139.92L181.023 140.029L180.892 138.728L181.965 138.619L181.819 137.181L183.28 137.034L183.426 138.472L185.183 138.294L185.315 139.595L183.557 139.773L183.795 142.124C183.859 142.763 184.227 142.979 184.798 142.922C185.197 142.881 185.455 142.809 185.641 142.71L185.769 143.976C185.496 144.131 185.16 144.223 184.68 144.271C183.242 144.416 182.476 143.675 182.334 142.271ZM192.152 142.455C191.688 143.228 190.843 143.763 189.759 143.873C187.716 144.079 186.419 142.769 186.249 141.092C186.078 139.391 187.008 137.879 188.892 137.689C190.489 137.527 191.649 138.505 191.801 140.012C191.833 140.331 191.818 140.633 191.792 140.831L187.763 141.238C188.008 142.297 188.714 142.664 189.616 142.573C190.244 142.51 190.764 142.18 191.03 141.738L192.152 142.455ZM188.977 138.879C188.235 138.954 187.786 139.415 187.703 140.184L190.35 139.916C190.269 139.337 189.788 138.797 188.977 138.879ZM193.56 143.258L192.695 134.699L194.144 134.552L195.01 143.112L193.56 143.258ZM196.795 136.106C196.282 136.158 195.804 135.768 195.752 135.254C195.7 134.741 196.09 134.263 196.604 134.211C197.117 134.159 197.583 134.55 197.635 135.064C197.687 135.578 197.309 136.054 196.795 136.106ZM196.748 142.936L196.166 137.184L197.616 137.037L198.197 142.789L196.748 142.936ZM205.136 141.143C204.672 141.916 203.827 142.451 202.743 142.561C200.7 142.767 199.403 141.457 199.234 139.779C199.062 138.079 199.993 136.567 201.876 136.376C203.473 136.215 204.633 137.193 204.785 138.699C204.818 139.019 204.802 139.32 204.776 139.519L200.747 139.926C200.993 140.985 201.698 141.352 202.6 141.261C203.228 141.197 203.748 140.868 204.014 140.426L205.136 141.143ZM201.961 137.567C201.22 137.642 200.77 138.102 200.687 138.871L203.334 138.604C203.253 138.024 202.772 137.485 201.961 137.567ZM206.544 141.946L205.963 136.194L207.412 136.047L207.47 136.618C207.807 136.192 208.268 135.845 208.919 135.78C209.113 135.76 209.287 135.777 209.429 135.809L209.573 137.235C209.386 137.208 209.188 137.194 208.926 137.22C208.218 137.292 207.801 137.726 207.621 138.113L207.994 141.799L206.544 141.946Z"
                    fill="#5149A8" />
                <path
                    d="M151.335 195.535L154.291 184.475L157.121 184.189L162.231 194.434L159.933 194.666L158.633 191.999L154.373 192.43L153.633 195.303L151.335 195.535ZM154.856 190.521L157.778 190.226L155.912 186.371L154.856 190.521ZM163.642 191.462L163.326 188.328L161.895 188.472L161.72 186.738L163.15 186.593L162.956 184.676L164.904 184.479L165.098 186.396L167.441 186.159L167.617 187.894L165.273 188.131L165.59 191.265C165.676 192.118 166.167 192.406 166.927 192.329C167.46 192.276 167.804 192.179 168.052 192.047L168.223 193.736C167.859 193.942 167.41 194.064 166.771 194.128C164.854 194.322 163.832 193.334 163.642 191.462ZM176.733 191.707C176.115 192.738 174.988 193.452 173.542 193.598C170.818 193.873 169.089 192.126 168.863 189.889C168.634 187.622 169.875 185.606 172.386 185.352C174.516 185.137 176.062 186.441 176.265 188.449C176.309 188.875 176.288 189.277 176.253 189.542L170.881 190.085C171.209 191.497 172.15 191.986 173.352 191.864C174.189 191.78 174.882 191.341 175.238 190.751L176.733 191.707ZM172.5 186.939C171.511 187.039 170.912 187.653 170.801 188.679L174.331 188.322C174.222 187.549 173.581 186.83 172.5 186.939ZM178.611 192.778L177.457 181.365L179.39 181.17L180.543 192.583L178.611 192.778ZM182.924 183.241C182.239 183.311 181.603 182.791 181.533 182.106C181.464 181.421 181.984 180.785 182.669 180.715C183.354 180.646 183.975 181.168 184.044 181.852C184.113 182.537 183.609 183.172 182.924 183.241ZM182.861 192.348L182.086 184.679L184.018 184.484L184.793 192.153L182.861 192.348ZM194.045 189.957C193.427 190.988 192.3 191.702 190.854 191.848C188.131 192.123 186.401 190.376 186.175 188.139C185.946 185.872 187.187 183.856 189.698 183.602C191.829 183.387 193.375 184.691 193.578 186.699C193.621 187.126 193.6 187.527 193.565 187.792L188.194 188.335C188.521 189.747 189.462 190.236 190.664 190.115C191.501 190.03 192.194 189.591 192.55 189.002L194.045 189.957ZM189.812 185.189C188.823 185.289 188.224 185.903 188.113 186.929L191.643 186.572C191.534 185.799 190.893 185.08 189.812 185.189ZM195.923 191.028L195.148 183.359L197.08 183.163L197.157 183.924C197.607 183.356 198.221 182.894 199.089 182.807C199.347 182.78 199.58 182.803 199.769 182.845L199.961 184.748C199.712 184.711 199.448 184.692 199.098 184.727C198.155 184.823 197.599 185.401 197.359 185.918L197.855 190.833L195.923 191.028ZM206.41 187.139L206.093 184.005L204.663 184.149L204.488 182.415L205.918 182.27L205.724 180.353L207.672 180.156L207.866 182.073L210.209 181.836L210.384 183.571L208.041 183.808L208.358 186.943C208.444 187.795 208.934 188.083 209.695 188.006C210.228 187.953 210.572 187.856 210.82 187.724L210.99 189.413C210.627 189.619 210.178 189.741 209.539 189.805C207.621 189.999 206.599 189.011 206.41 187.139ZM219.501 187.384C218.883 188.415 217.756 189.129 216.31 189.275C213.586 189.55 211.857 187.803 211.631 185.566C211.402 183.299 212.643 181.283 215.154 181.029C217.284 180.814 218.83 182.118 219.033 184.126C219.076 184.553 219.055 184.954 219.021 185.219L213.649 185.762C213.976 187.174 214.917 187.663 216.119 187.542C216.956 187.457 217.65 187.018 218.005 186.429L219.501 187.384ZM215.268 182.616C214.279 182.716 213.68 183.33 213.568 184.356L217.099 183.999C216.99 183.226 216.348 182.507 215.268 182.616ZM220.493 187.422L221.654 186.137C222.186 186.682 222.792 187.052 223.522 186.978C224.146 186.915 224.429 186.517 224.383 186.061C224.247 184.722 220.631 185.594 220.358 182.901C220.222 181.547 221.26 180.412 222.858 180.25C224.029 180.132 225.151 180.587 225.774 181.278L224.61 182.533C224.165 182.086 223.623 181.741 223.03 181.801C222.421 181.862 222.166 182.226 222.206 182.622C222.338 183.931 225.959 183.104 226.227 185.751C226.359 187.367 225.155 188.381 223.709 188.527C222.34 188.665 221.311 188.216 220.493 187.422ZM228.552 184.901L228.235 181.767L226.805 181.911L226.629 180.177L228.06 180.032L227.866 178.115L229.814 177.918L230.007 179.835L232.351 179.598L232.526 181.333L230.183 181.57L230.5 184.705C230.586 185.557 231.076 185.845 231.837 185.768C232.369 185.715 232.713 185.618 232.961 185.486L233.132 187.175C232.768 187.381 232.32 187.503 231.681 187.567C229.763 187.761 228.741 186.773 228.552 184.901ZM238.023 182.899C237.797 180.662 239.08 178.611 241.5 178.366C242.535 178.261 243.313 178.506 243.966 179.039L243.526 174.687L245.474 174.49L246.627 185.903L244.68 186.1L244.618 185.491C244.085 186.144 243.371 186.539 242.337 186.644C239.917 186.889 238.249 185.136 238.023 182.899ZM240.047 182.694C240.182 184.033 241.117 184.923 242.426 184.79C243.293 184.703 243.972 184.265 244.418 183.513L244.166 181.017C243.578 180.37 242.826 180.077 241.958 180.164C240.65 180.297 239.911 181.355 240.047 182.694ZM255.879 183.707C255.26 184.738 254.133 185.452 252.688 185.598C249.964 185.873 248.235 184.126 248.009 181.889C247.78 179.622 249.021 177.606 251.532 177.352C253.662 177.137 255.208 178.441 255.411 180.449C255.454 180.875 255.433 181.277 255.398 181.542L250.027 182.085C250.354 183.497 251.295 183.986 252.497 183.865C253.334 183.78 254.028 183.341 254.383 182.752L255.879 183.707ZM251.646 178.939C250.657 179.039 250.058 179.653 249.946 180.679L253.477 180.322C253.368 179.549 252.726 178.83 251.646 178.939ZM261.076 183.32L262.237 182.035C262.769 182.58 263.375 182.949 264.105 182.876C264.729 182.813 265.012 182.415 264.966 181.959C264.83 180.619 261.214 181.492 260.942 178.799C260.805 177.445 261.843 176.31 263.441 176.148C264.612 176.03 265.735 176.485 266.358 177.175L265.193 178.431C264.748 177.984 264.206 177.639 263.613 177.699C263.004 177.76 262.749 178.124 262.789 178.52C262.921 179.829 266.542 179.001 266.81 181.649C266.943 183.265 265.738 184.279 264.293 184.425C262.923 184.563 261.894 184.114 261.076 183.32ZM275.717 181.702C275.099 182.733 273.972 183.446 272.526 183.592C269.802 183.868 268.073 182.121 267.847 179.884C267.618 177.617 268.859 175.601 271.37 175.347C273.5 175.131 275.046 176.436 275.249 178.444C275.292 178.87 275.272 179.272 275.237 179.537L269.865 180.08C270.193 181.492 271.134 181.981 272.336 181.859C273.173 181.775 273.866 181.336 274.222 180.746L275.717 181.702ZM271.484 176.934C270.495 177.034 269.896 177.648 269.785 178.674L273.315 178.317C273.206 177.544 272.565 176.825 271.484 176.934ZM276.709 181.74L277.87 180.454C278.402 181 279.008 181.369 279.738 181.295C280.362 181.232 280.645 180.835 280.599 180.378C280.463 179.039 276.847 179.912 276.575 177.219C276.438 175.864 277.476 174.73 279.074 174.568C280.245 174.45 281.368 174.905 281.991 175.595L280.826 176.851C280.381 176.404 279.839 176.059 279.246 176.119C278.637 176.18 278.382 176.544 278.422 176.94C278.554 178.248 282.175 177.421 282.443 180.069C282.575 181.685 281.371 182.698 279.926 182.845C278.556 182.983 277.527 182.534 276.709 181.74ZM283.559 181.048L284.721 179.762C285.252 180.308 285.858 180.677 286.589 180.603C287.213 180.54 287.495 180.142 287.449 179.686C287.314 178.347 283.697 179.22 283.425 176.526C283.288 175.172 284.327 174.037 285.924 173.876C287.096 173.757 288.218 174.213 288.841 174.903L287.677 176.158C287.232 175.711 286.69 175.366 286.096 175.426C285.488 175.488 285.232 175.852 285.272 176.247C285.405 177.556 289.026 176.729 289.293 179.377C289.426 180.993 288.222 182.006 286.776 182.152C285.407 182.291 284.377 181.841 283.559 181.048ZM291.359 172.281C290.674 172.35 290.038 171.83 289.968 171.146C289.899 170.461 290.419 169.824 291.104 169.755C291.789 169.686 292.41 170.207 292.479 170.892C292.548 171.577 292.044 172.212 291.359 172.281ZM291.296 181.388L290.521 173.719L292.453 173.523L293.228 181.192L291.296 181.388ZM298.392 172.615C300.887 172.363 302.778 174.032 303.01 176.33C303.242 178.628 301.724 180.641 299.229 180.893C296.733 181.146 294.843 179.477 294.61 177.179C294.378 174.881 295.896 172.868 298.392 172.615ZM299.074 179.064C300.307 178.94 301.135 177.857 301.001 176.533C300.866 175.194 299.839 174.314 298.607 174.438C297.329 174.568 296.484 175.637 296.619 176.976C296.754 178.315 297.796 179.194 299.074 179.064ZM305.16 179.986L304.385 172.317L306.318 172.122L306.379 172.73C306.86 172.159 307.535 171.691 308.554 171.588C310.213 171.421 311.652 172.428 311.881 174.695L312.343 179.26L310.395 179.457L309.941 174.968C309.838 173.949 309.195 173.368 308.252 173.463C307.278 173.562 306.827 174.269 306.587 174.785L307.093 179.791L305.16 179.986Z"
                    fill="#161616" />
                <path
                    d="M160.912 216.6C157.412 216.954 154.865 220.081 155.219 223.581C155.573 227.08 158.694 229.634 162.194 229.281C165.7 228.926 168.253 225.799 167.9 222.299C167.546 218.799 164.418 216.246 160.912 216.6ZM162.072 228.012C159.27 228.295 156.77 226.255 156.487 223.452C156.204 220.65 158.244 218.151 161.047 217.867C163.849 217.584 166.348 219.625 166.632 222.427C166.915 225.229 164.875 227.729 162.072 228.012ZM161.099 219.784L161.061 219.787C160.808 219.813 160.625 220.037 160.651 220.29L160.954 223.283C160.976 223.505 161.111 223.702 161.319 223.797L164.11 225.109C164.339 225.214 164.611 225.123 164.716 224.894C164.827 224.665 164.729 224.387 164.494 224.283L161.893 223.073L161.602 220.194C161.576 219.94 161.353 219.758 161.099 219.784Z"
                    fill="#646464" />
                <path
                    d="M176.066 226.488L175.388 219.777L173.589 221.031L172.86 220.205L175.281 218.496L176.502 218.373L177.31 226.362L176.066 226.488ZM181.341 217.665C183.384 217.458 184.551 219.197 184.792 221.582C185.033 223.967 184.238 225.904 182.195 226.11C180.152 226.317 178.973 224.58 178.732 222.194C178.491 219.809 179.298 217.871 181.341 217.665ZM181.459 218.829C180.295 218.947 179.842 220.284 180.022 222.064C180.203 223.856 180.913 225.064 182.077 224.946C183.23 224.83 183.683 223.493 183.503 221.712C183.322 219.92 182.612 218.712 181.459 218.829ZM186.55 225.439L185.685 216.88L186.86 216.761L187.2 220.128C187.588 219.628 188.125 219.239 188.947 219.156C190.225 219.027 191.27 219.786 191.439 221.452L191.788 224.91L190.601 225.03L190.256 221.618C190.164 220.705 189.607 220.207 188.785 220.291C187.997 220.37 187.59 220.907 187.333 221.44L187.725 225.321L186.55 225.439ZM195.25 216.259C197.293 216.052 198.46 217.791 198.702 220.176C198.943 222.561 198.147 224.498 196.104 224.704C194.061 224.911 192.883 223.174 192.641 220.788C192.4 218.403 193.207 216.465 195.25 216.259ZM195.368 217.423C194.204 217.541 193.751 218.878 193.931 220.658C194.112 222.45 194.822 223.658 195.986 223.54C197.139 223.424 197.592 222.087 197.412 220.306C197.231 218.514 196.521 217.306 195.368 217.423ZM202.183 215.558C204.226 215.352 205.393 217.09 205.634 219.475C205.875 221.86 205.079 223.797 203.036 224.004C200.993 224.21 199.815 222.473 199.574 220.088C199.333 217.702 200.14 215.765 202.183 215.558ZM202.3 216.722C201.136 216.84 200.683 218.177 200.863 219.957C201.044 221.749 201.755 222.957 202.919 222.839C204.071 222.723 204.524 221.386 204.344 219.606C204.163 217.814 203.453 216.606 202.3 216.722ZM209.061 219.636L212.142 219.325L212.257 220.466L209.176 220.777L209.061 219.636ZM218.061 222.243L217.383 215.532L215.584 216.786L214.855 215.961L217.276 214.252L218.497 214.128L219.305 222.117L218.061 222.243ZM223.087 221.735L222.409 215.024L220.61 216.278L219.881 215.453L222.303 213.744L223.524 213.62L224.331 221.609L223.087 221.735ZM226.728 221.378L225.863 212.819L227.038 212.7L227.379 216.067C227.766 215.566 228.303 215.178 229.125 215.095C230.403 214.965 231.449 215.724 231.617 217.391L231.966 220.849L230.78 220.969L230.435 217.556C230.342 216.643 229.785 216.146 228.963 216.229C228.176 216.309 227.769 216.846 227.511 217.379L227.904 221.259L226.728 221.378ZM235.429 212.198C237.472 211.991 238.639 213.729 238.88 216.115C239.121 218.5 238.325 220.437 236.282 220.643C234.239 220.85 233.061 219.113 232.82 216.727C232.579 214.342 233.386 212.404 235.429 212.198ZM235.546 213.362C234.382 213.479 233.929 214.817 234.109 216.597C234.29 218.389 235.001 219.597 236.165 219.479C237.317 219.363 237.77 218.025 237.59 216.245C237.409 214.453 236.699 213.245 235.546 213.362ZM242.361 211.497C244.404 211.291 245.571 213.029 245.812 215.414C246.053 217.799 245.257 219.736 243.215 219.942C241.172 220.149 239.993 218.412 239.752 216.027C239.511 213.641 240.318 211.704 242.361 211.497ZM242.479 212.661C241.315 212.779 240.862 214.116 241.042 215.896C241.223 217.688 241.933 218.896 243.097 218.778C244.25 218.662 244.702 217.325 244.523 215.544C244.341 213.753 243.631 212.545 242.479 212.661Z"
                    fill="#646464" />
                <path
                    d="M269.894 216.697C271.064 215.383 271.911 214.212 272.437 213.182C272.963 212.152 273.188 211.262 273.112 210.511C272.996 209.36 272.533 208.453 271.724 207.793C270.916 207.133 269.978 206.857 268.91 206.965C267.843 207.073 266.979 207.531 266.319 208.34C265.659 209.148 265.387 210.129 265.504 211.28C265.579 212.031 265.978 212.858 266.699 213.762C267.42 214.666 268.485 215.644 269.894 216.697ZM270.021 217.95C269.873 217.964 269.722 217.953 269.569 217.915C269.416 217.877 269.276 217.811 269.149 217.717C268.398 217.153 267.728 216.596 267.138 216.047C266.549 215.498 266.049 214.959 265.638 214.429C265.227 213.9 264.902 213.383 264.664 212.878C264.426 212.374 264.284 211.884 264.235 211.409C264.075 209.823 264.457 208.509 265.382 207.466C266.307 206.422 267.44 205.832 268.782 205.697C270.124 205.561 271.353 205.912 272.468 206.749C273.582 207.587 274.22 208.798 274.38 210.383C274.428 210.859 274.386 211.367 274.254 211.909C274.122 212.451 273.908 213.022 273.611 213.623C273.314 214.225 272.932 214.853 272.464 215.509C271.997 216.165 271.452 216.844 270.829 217.548C270.723 217.665 270.599 217.758 270.457 217.825C270.314 217.893 270.169 217.935 270.021 217.95ZM269.423 212.037C269.772 212.002 270.058 211.848 270.281 211.574C270.504 211.301 270.598 210.99 270.563 210.641C270.528 210.292 270.373 210.006 270.1 209.783C269.827 209.56 269.515 209.466 269.167 209.501C268.818 209.536 268.532 209.691 268.309 209.964C268.086 210.237 267.992 210.549 268.027 210.897C268.062 211.246 268.216 211.532 268.49 211.755C268.763 211.978 269.074 212.072 269.423 212.037Z"
                    fill="#646464" />
                <path
                    d="M282.572 215.734L281.765 207.745L283.066 207.613L283.752 214.404L286.902 214.085L287.023 215.284L282.572 215.734ZM290.405 208.901C292.277 208.711 293.674 209.988 293.846 211.689C294.018 213.389 292.904 214.92 291.033 215.109C289.172 215.297 287.764 214.021 287.592 212.321C287.42 210.62 288.545 209.089 290.405 208.901ZM290.932 214.001C292.016 213.891 292.724 212.909 292.613 211.813C292.5 210.695 291.613 209.897 290.528 210.007C289.421 210.118 288.712 211.089 288.824 212.196C288.936 213.303 289.825 214.113 290.932 214.001ZM298.266 213.26C298.916 213.194 299.409 212.821 299.684 212.344L300.68 212.958C300.226 213.719 299.428 214.261 298.366 214.368C296.438 214.563 295.084 213.258 294.914 211.581C294.745 209.903 295.81 208.354 297.739 208.159C298.789 208.053 299.691 208.423 300.287 209.078L299.434 209.879C299.07 209.466 298.513 209.199 297.851 209.266C296.744 209.378 296.032 210.326 296.147 211.456C296.262 212.598 297.147 213.373 298.266 213.26ZM303.517 213.79C302.376 213.905 301.534 213.333 301.432 212.317C301.344 211.45 301.954 210.754 303.154 210.425L304.983 209.929L304.953 209.632C304.882 208.925 304.313 208.544 303.571 208.619C302.944 208.682 302.482 209.017 302.198 209.519L301.251 208.934C301.695 208.198 302.473 207.681 303.5 207.577C305.053 207.42 306.001 208.247 306.129 209.513L306.513 213.314L305.338 213.433L305.272 212.782C304.912 213.326 304.225 213.718 303.517 213.79ZM302.614 212.151C302.659 212.597 303.044 212.869 303.637 212.809C304.356 212.736 304.881 212.337 305.168 211.755L305.068 210.762L303.542 211.181C302.836 211.38 302.57 211.718 302.614 212.151ZM308.356 213.128L307.49 204.568L308.666 204.449L309.531 213.009L308.356 213.128ZM311.337 205.724C310.903 205.768 310.501 205.44 310.457 205.006C310.413 204.572 310.742 204.17 311.175 204.126C311.609 204.083 312.011 204.411 312.055 204.845C312.099 205.278 311.771 205.68 311.337 205.724ZM311.454 212.814L310.873 207.062L312.048 206.944L312.63 212.696L311.454 212.814ZM313.833 211.755L314.572 210.966C314.997 211.407 315.484 211.669 316.055 211.611C316.614 211.555 316.888 211.181 316.844 210.748C316.726 209.584 313.95 210.291 313.745 208.259C313.649 207.312 314.372 206.478 315.524 206.362C316.369 206.276 317.152 206.612 317.619 207.118L316.89 207.895C316.54 207.516 316.112 207.271 315.633 207.319C315.085 207.374 314.843 207.722 314.883 208.11C314.999 209.262 317.779 208.589 317.978 210.564C318.081 211.695 317.236 212.46 316.163 212.569C315.193 212.667 314.435 212.352 313.833 211.755ZM321.182 212.004C320.041 212.119 319.199 211.547 319.097 210.532C319.009 209.664 319.619 208.968 320.819 208.64L322.648 208.143L322.618 207.847C322.547 207.139 321.978 206.758 321.236 206.833C320.609 206.897 320.147 207.232 319.863 207.733L318.916 207.149C319.361 206.412 320.138 205.895 321.166 205.791C322.718 205.635 323.666 206.461 323.794 207.728L324.178 211.528L323.003 211.647L322.937 210.997C322.577 211.54 321.89 211.932 321.182 212.004ZM320.279 210.366C320.324 210.811 320.709 211.083 321.302 211.023C322.021 210.951 322.546 210.552 322.833 209.969L322.733 208.976L321.207 209.396C320.501 209.594 320.235 209.932 320.279 210.366ZM326.161 209.31L325.889 206.617L324.805 206.726L324.698 205.665L325.782 205.555L325.636 204.117L326.823 203.997L326.969 205.435L328.875 205.243L328.982 206.304L327.076 206.497L327.348 209.19C327.427 209.966 327.863 210.176 328.502 210.111C328.89 210.072 329.148 210 329.345 209.899L329.45 210.938C329.188 211.079 328.874 211.169 328.429 211.214C327.082 211.35 326.303 210.714 326.161 209.31ZM330.741 203.763C330.307 203.807 329.905 203.478 329.861 203.045C329.817 202.611 330.145 202.209 330.579 202.165C331.013 202.121 331.415 202.45 331.459 202.883C331.503 203.317 331.174 203.719 330.741 203.763ZM330.858 210.853L330.276 205.101L331.452 204.982L332.033 210.734L330.858 210.853ZM336.022 204.29C337.894 204.101 339.291 205.377 339.463 207.078C339.635 208.778 338.521 210.309 336.65 210.498C334.789 210.686 333.381 209.411 333.209 207.71C333.037 206.01 334.162 204.478 336.022 204.29ZM336.549 209.39C337.633 209.28 338.341 208.298 338.23 207.202C338.117 206.084 337.23 205.286 336.145 205.396C335.038 205.507 334.33 206.478 334.441 207.585C334.553 208.692 335.442 209.502 336.549 209.39ZM341.223 209.805L340.641 204.053L341.817 203.935L341.873 204.494C342.261 203.993 342.798 203.605 343.62 203.522C344.887 203.394 345.943 204.152 346.112 205.818L346.461 209.276L345.274 209.396L344.929 205.983C344.837 205.07 344.28 204.573 343.458 204.656C342.67 204.736 342.252 205.274 342.006 205.806L342.398 209.687L341.223 209.805Z"
                    fill="#646464" />
            </g>
            <g filter="url(#filter2_d_1180_3780)">
                <rect x="141.847" y="256.032" width="235.151" height="100.178" rx="7.6472"
                    transform="rotate(-5.77179 141.847 256.032)" fill="white" shape-rendering="crispEdges" />
                <rect x="158.602" y="269.71" width="73.4124" height="23.6472" rx="7.6472"
                    transform="rotate(-5.77179 158.602 269.71)" fill="#EEF1F8" />
                <g clip-path="url(#clip3_1180_3780)">
                    <path
                        d="M175.89 276.004L175.762 274.736L173.226 274.992L173.354 276.26L175.89 276.004ZM169.742 278.547L170.319 284.253C170.354 284.602 170.668 284.858 171.017 284.823L179.893 283.926C180.242 283.89 180.499 283.576 180.463 283.228L179.887 277.521C179.851 277.173 179.537 276.916 179.189 276.951L170.312 277.849C169.963 277.884 169.707 278.198 169.742 278.547ZM179.694 275.619C180.398 275.548 181.02 276.055 181.091 276.759L181.796 283.733C181.867 284.437 181.359 285.059 180.656 285.13L170.511 286.155C169.807 286.226 169.186 285.719 169.115 285.015L168.416 278.04C168.345 277.336 168.846 276.716 169.55 276.645L172.086 276.388L171.958 275.12C171.887 274.416 172.394 273.795 173.098 273.724L175.634 273.468C176.338 273.396 176.959 273.904 177.03 274.607L177.158 275.875L179.694 275.619Z"
                        fill="#3B69D1" />
                </g>
                <path
                    d="M188.098 283.638L187.291 275.649L191.947 275.179L192.083 276.525L189.047 276.832L189.239 278.727L191.818 278.466L191.954 279.813L189.375 280.073L189.583 282.128L192.618 281.821L192.754 283.168L188.098 283.638ZM194.421 282.999L193.84 277.247L195.289 277.101L195.333 277.534C195.683 277.118 196.145 276.784 196.853 276.712C197.583 276.638 198.254 276.893 198.693 277.471C199.053 276.928 199.557 276.439 200.527 276.341C201.714 276.221 202.733 276.948 202.897 278.568L203.255 282.106L201.794 282.254L201.442 278.773C201.372 278.077 200.951 277.681 200.301 277.747C199.673 277.81 199.374 278.279 199.185 278.69C199.205 278.769 199.213 278.848 199.222 278.94L199.58 282.478L198.119 282.625L197.767 279.145C197.697 278.448 197.276 278.053 196.626 278.118C195.964 278.185 195.671 278.711 195.491 279.098L195.871 282.853L194.421 282.999ZM205.193 284.747L204.328 276.187L205.777 276.041L205.824 276.508C206.224 276.018 206.758 275.711 207.546 275.631C209.372 275.447 210.611 276.762 210.781 278.44C210.951 280.118 209.999 281.655 208.173 281.84C207.386 281.919 206.801 281.725 206.311 281.325L206.642 284.6L205.193 284.747ZM207.479 277.021C206.805 277.09 206.287 277.442 205.977 278.015L206.159 279.818C206.602 280.327 207.167 280.558 207.829 280.491C208.811 280.392 209.376 279.597 209.275 278.592C209.173 277.588 208.46 276.922 207.479 277.021ZM212.398 281.182L211.533 272.623L212.983 272.476L213.848 281.036L212.398 281.182ZM217.721 274.603C219.592 274.414 221.01 275.665 221.184 277.389C221.358 279.112 220.22 280.622 218.348 280.811C216.476 281 215.059 279.749 214.884 278.025C214.71 276.302 215.849 274.792 217.721 274.603ZM218.233 279.439C219.157 279.346 219.778 278.534 219.678 277.541C219.576 276.537 218.806 275.877 217.882 275.97C216.923 276.067 216.289 276.869 216.391 277.873C216.492 278.877 217.274 279.536 218.233 279.439ZM222.844 273.301C222.331 273.353 221.853 272.963 221.801 272.449C221.75 271.936 222.139 271.458 222.653 271.406C223.166 271.354 223.633 271.745 223.685 272.259C223.736 272.773 223.358 273.249 222.844 273.301ZM222.797 280.131L222.216 274.379L223.665 274.232L224.246 279.984L222.797 280.131Z"
                    fill="#3B69D1" />
                <rect x="239.25" y="261.559" width="52.2944" height="23.6472" rx="11.8236"
                    transform="rotate(-5.77179 239.25 261.559)" fill="#DFFDFF" />
                <rect x="239.25" y="261.559" width="52.2944" height="23.6472" rx="11.8236"
                    transform="rotate(-5.77179 239.25 261.559)" stroke="#4A526D" />
                <path
                    d="M251.223 268.495L249.595 267.104L251.261 266.935L252.707 268.346L251.223 268.495ZM248.722 277.511L250.939 269.216L253.061 269.001L256.893 276.685L255.17 276.859L254.195 274.859L251 275.182L250.445 277.336L248.722 277.511ZM251.362 273.75L253.554 273.529L252.155 270.638L251.362 273.75ZM259.72 270.588L260.793 270.48L260.732 269.875C260.608 268.654 261.319 267.59 262.757 267.445C263.282 267.392 263.74 267.472 264.125 267.629L263.631 268.902C263.447 268.793 263.208 268.714 262.912 268.744C262.421 268.793 262.136 269.168 262.189 269.693L262.253 270.332L264.011 270.154L264.143 271.455L262.385 271.633L262.835 276.084L261.374 276.232L260.924 271.781L259.851 271.889L259.72 270.588ZM266.882 275.848C265.729 275.964 264.875 275.382 264.768 274.321C264.68 273.453 265.288 272.735 266.499 272.405L268.227 271.93L268.212 271.782C268.151 271.177 267.655 270.835 266.993 270.902C266.434 270.959 266.027 271.265 265.761 271.718L264.618 271.015C265.06 270.256 265.861 269.737 266.911 269.631C268.577 269.462 269.533 270.369 269.661 271.635L270.037 275.356L268.588 275.502L268.531 274.943C268.211 275.425 267.555 275.78 266.882 275.848ZM266.199 274.107C266.238 274.495 266.571 274.715 267.062 274.665C267.724 274.598 268.172 274.242 268.411 273.756L268.33 272.946L266.983 273.313C266.389 273.477 266.163 273.753 266.199 274.107ZM271.745 268.358C271.231 268.41 270.753 268.02 270.702 267.507C270.65 266.993 271.04 266.516 271.553 266.464C272.067 266.412 272.533 266.803 272.585 267.316C272.637 267.83 272.258 268.306 271.745 268.358ZM271.697 275.188L271.116 269.436L272.565 269.29L273.146 275.042L271.697 275.188ZM274.885 274.866L274.303 269.114L275.753 268.968L275.81 269.538C276.148 269.112 276.608 268.766 277.259 268.7C277.453 268.68 277.628 268.697 277.769 268.729L277.913 270.156C277.726 270.129 277.529 270.114 277.266 270.14C276.559 270.212 276.141 270.646 275.961 271.033L276.334 274.72L274.885 274.866ZM284.477 272.951C284.013 273.724 283.168 274.259 282.084 274.369C280.041 274.575 278.744 273.265 278.574 271.588C278.402 269.887 279.333 268.375 281.216 268.185C282.814 268.023 283.974 269.001 284.126 270.508C284.158 270.827 284.143 271.129 284.117 271.327L280.088 271.734C280.333 272.793 281.039 273.16 281.941 273.069C282.568 273.006 283.088 272.676 283.355 272.234L284.477 272.951ZM281.302 269.375C280.56 269.45 280.111 269.911 280.027 270.68L282.675 270.412C282.593 269.833 282.112 269.293 281.302 269.375Z"
                    fill="#274996" />
            </g>
        </g>
        <path
            d="M86.2945 87.5991L84.892 71L89.084 70.5891L93.723 77.1636L97.1839 69.795L101.376 69.3841L102.778 85.9831L99.4154 86.3128L98.4096 74.4089L95.2398 80.9839L92.8714 81.2161L88.6518 75.3655L89.6576 87.2694L86.2945 87.5991ZM111.475 72.6021C115.359 72.2213 118.254 74.8305 118.557 78.4112C118.86 81.9918 116.449 85.1212 112.565 85.5019C108.681 85.8827 105.786 83.2735 105.483 79.6928C105.181 76.1121 107.591 72.9828 111.475 72.6021ZM112.372 82.6517C114.291 82.4637 115.605 80.7807 115.431 78.7177C115.254 76.6309 113.681 75.2549 111.763 75.443C109.774 75.638 108.433 77.2996 108.61 79.3863C108.786 81.4731 110.383 82.8467 112.372 82.6517ZM121.805 84.1179L120.796 72.1666L123.803 71.8717L123.884 72.8202C124.644 71.9327 125.705 71.2071 127.292 71.0515C129.874 70.7984 132.085 72.3749 132.383 75.9081L132.984 83.022L129.953 83.3192L129.362 76.3239C129.227 74.7351 128.243 73.8274 126.775 73.9714C125.259 74.1199 124.54 75.2185 124.154 76.0215L124.813 83.823L121.805 84.1179ZM141.595 80.4325L143.432 78.4353C144.244 79.2882 145.177 79.8662 146.314 79.7548C147.285 79.6596 147.734 79.0417 147.674 78.3303C147.498 76.2436 141.856 77.5856 141.501 73.3884C141.323 71.278 142.965 69.5151 145.452 69.2713C147.275 69.0925 149.007 69.8074 149.958 70.8857L148.117 72.8355C147.437 72.1371 146.603 71.5972 145.68 71.6877C144.732 71.7806 144.327 72.3464 144.379 72.9629C144.551 75.0022 150.199 73.7313 150.547 77.8574C150.712 80.3756 148.815 81.9483 146.565 82.1688C144.434 82.3778 142.846 81.6727 141.595 80.4325ZM161.034 75.06L160.461 68.2781L163.492 67.981L164.053 74.6206C164.356 78.2012 162.458 80.6109 158.953 80.9545C155.448 81.2981 153.201 79.2948 152.898 75.7141L152.337 69.0745L155.369 68.7773L155.942 75.5592C156.088 77.2903 157.078 78.2691 158.736 78.1066C160.37 77.9464 161.18 76.7911 161.034 75.06ZM168.161 65.4192C167.096 65.5237 166.12 64.7108 166.029 63.6437C165.939 62.5767 166.763 61.5873 167.829 61.4829C168.895 61.3784 169.847 62.1936 169.937 63.2606C170.027 64.3277 169.227 65.3147 168.161 65.4192ZM167.832 79.6059L166.822 67.6545L169.83 67.3597L170.84 79.311L167.832 79.6059ZM171.732 67.1732L174.953 66.8575L178.776 75.09L181.134 66.2515L184.379 65.9334L181.031 78.312L177.076 78.6997L171.732 67.1732ZM187.613 63.5124C186.547 63.6168 185.571 62.804 185.481 61.7369C185.391 60.6698 186.214 59.6805 187.28 59.576C188.346 59.4715 189.298 60.2867 189.389 61.3538C189.479 62.4209 188.679 63.4079 187.613 63.5124ZM187.283 77.699L186.273 65.7477L189.281 65.4528L190.291 77.4042L187.283 77.699Z"
            fill="#3B69D1" />
        <rect x="312.892" y="32.366" width="47.5949" height="47.5949" rx="23.7975" transform="rotate(-5 312.892 32.366)"
            fill="#3B69D1" />
        <path
            d="M338.673 53.9988C337.586 54.0938 336.622 53.7883 335.781 53.0823C334.939 52.3762 334.471 51.4799 334.376 50.3933C334.281 49.3067 334.586 48.3427 335.292 47.5013C335.999 46.6598 336.895 46.1915 337.981 46.0965C339.068 46.0014 340.032 46.3069 340.873 47.013C341.715 47.7191 342.183 48.6154 342.278 49.702C342.373 50.7885 342.068 51.7525 341.362 52.594C340.656 53.4355 339.759 53.9037 338.673 53.9988ZM331.289 60.6169L331.22 59.8266C331.171 59.2669 331.27 58.7398 331.517 58.2454C331.764 57.751 332.115 57.3594 332.571 57.0707C333.547 56.4711 334.551 55.9976 335.582 55.6502C336.614 55.3028 337.673 55.0816 338.759 54.9866C339.846 54.8915 340.927 54.9255 342.003 55.0885C343.079 55.2515 344.15 55.5435 345.215 55.9646C345.714 56.1697 346.128 56.4943 346.457 56.9383C346.786 57.3823 346.975 57.8842 347.024 58.4439L347.094 59.2342C347.141 59.7774 346.988 60.2594 346.635 60.6802C346.282 61.1009 345.834 61.335 345.291 61.3826L333.437 62.4196C332.894 62.4671 332.412 62.3144 331.991 61.9614C331.571 61.6083 331.337 61.1602 331.289 60.6169ZM333.265 60.444L345.118 59.407L345.049 58.6168C345.033 58.4357 344.973 58.275 344.87 58.1347C344.766 57.9945 344.637 57.8897 344.482 57.8204C343.554 57.4536 342.627 57.1987 341.702 57.0557C340.777 56.9127 339.854 56.8815 338.932 56.9621C338.01 57.0428 337.106 57.2339 336.22 57.5353C335.334 57.8368 334.466 58.2487 333.616 58.771C333.475 58.8663 333.366 58.9919 333.288 59.148C333.21 59.3041 333.18 59.4727 333.195 59.6538L333.265 60.444ZM338.5 52.0232C339.043 51.9757 339.491 51.7415 339.844 51.3208C340.197 50.9001 340.35 50.4181 340.303 49.8748C340.255 49.3315 340.021 48.8833 339.6 48.5303C339.18 48.1773 338.698 48.0245 338.154 48.0721C337.611 48.1196 337.163 48.3537 336.81 48.7744C336.457 49.1952 336.304 49.6772 336.352 50.2205C336.399 50.7638 336.633 51.2119 337.054 51.565C337.475 51.918 337.957 52.0707 338.5 52.0232Z"
            fill="white" />
        <path
            d="M287.725 63.6493C287.033 63.7098 286.428 63.5222 285.909 63.0865C285.39 62.6509 285.1 62.0873 285.039 61.3959C284.979 60.7044 285.166 60.0991 285.602 59.5799C286.038 59.0607 286.601 58.7708 287.293 58.7103C287.984 58.6498 288.589 58.8374 289.109 59.2731C289.628 59.7087 289.918 60.2723 289.978 60.9638C290.039 61.6552 289.851 62.2605 289.415 62.7797C288.98 63.2989 288.416 63.5888 287.725 63.6493ZM278.686 68.4214C278.143 68.469 277.661 68.3162 277.24 67.9632C276.82 67.6101 276.586 67.162 276.538 66.6187L275.328 52.7897C275.281 52.2464 275.433 51.7644 275.786 51.3436C276.139 50.9229 276.588 50.6888 277.131 50.6412L278.119 50.5548L277.946 48.5792L279.921 48.4064L280.094 50.382L287.997 49.6906L287.824 47.715L289.799 47.5422L289.972 49.5178L290.96 49.4314C291.503 49.3838 291.985 49.5366 292.406 49.8896C292.827 50.2426 293.061 50.6908 293.108 51.2341L294.318 65.0631C294.366 65.6064 294.213 66.0884 293.86 66.5091C293.507 66.9299 293.059 67.164 292.515 67.2115L278.686 68.4214ZM278.514 66.4458L292.343 65.236L291.478 55.3581L277.649 56.568L278.514 66.4458ZM277.477 54.5924L291.306 53.3825L291.133 51.4069L277.304 52.6168L277.477 54.5924Z"
            fill="#3B69D1" />
        <g filter="url(#filter3_d_1180_3780)">
            <rect width="315.328" height="68" rx="10"
                transform="matrix(0.996081 -0.088447 0.0858831 0.996305 78 245.89)" fill="white"
                shape-rendering="crispEdges" />
            <path
                d="M109.488 261.857L114.855 265.898L115.525 273.68L113.533 273.857L113.018 267.879L107.041 268.409L107.557 274.387L105.565 274.564L104.894 266.783L109.488 261.857ZM109.257 259.177L100.069 269.029L103.057 268.763L103.744 276.734L109.721 276.203L109.205 270.225L111.198 270.048L111.713 276.026L117.689 275.495L117.002 267.525L119.99 267.26L109.257 259.177Z"
                fill="#646464" />
            <path
                d="M94.9431 296.59L97.121 289.369L98.3761 289.258L101.756 295.985L100.76 296.073L99.7765 294.093L96.5691 294.377L95.9392 296.501L94.9431 296.59ZM96.8083 293.543L99.3981 293.313L97.819 290.13L96.8083 293.543ZM105.155 295.081C105.772 295.026 106.255 294.682 106.526 294.216L107.237 294.665C106.823 295.334 106.13 295.797 105.213 295.879C103.55 296.026 102.377 294.876 102.251 293.411C102.124 291.947 103.083 290.606 104.746 290.459C105.653 290.378 106.425 290.721 106.946 291.297L106.323 291.865C105.976 291.454 105.443 291.2 104.815 291.256C103.739 291.351 103.045 292.266 103.137 293.332C103.23 294.408 104.069 295.177 105.155 295.081ZM110.534 294.603C111.152 294.548 111.634 294.204 111.905 293.738L112.616 294.187C112.202 294.857 111.509 295.32 110.593 295.401C108.929 295.549 107.756 294.398 107.63 292.933C107.504 291.469 108.462 290.129 110.125 289.981C111.032 289.901 111.804 290.244 112.326 290.82L111.702 291.387C111.355 290.976 110.822 290.722 110.194 290.778C109.118 290.874 108.424 291.789 108.516 292.855C108.609 293.931 109.448 294.7 110.534 294.603ZM117.159 292.449L116.912 289.579L117.758 289.504L118.003 292.344C118.133 293.848 117.342 294.802 115.977 294.923C114.623 295.043 113.68 294.243 113.551 292.739L113.306 289.9L114.153 289.824L114.4 292.694C114.485 293.68 115.062 294.201 115.918 294.125C116.755 294.051 117.244 293.435 117.159 292.449ZM124.251 293.154C123.837 293.823 123.124 294.288 122.188 294.371C120.495 294.522 119.341 293.369 119.215 291.905C119.084 290.38 119.958 289.108 121.512 288.97C122.876 288.849 123.845 289.727 123.952 290.962C123.969 291.161 123.955 291.353 123.937 291.495L120.083 291.838C120.216 293.041 121.046 293.7 122.122 293.604C122.769 293.547 123.291 293.199 123.581 292.722L124.251 293.154ZM121.553 289.689C120.727 289.763 120.191 290.302 120.087 291.185L123.095 290.918C123.001 290.183 122.44 289.61 121.553 289.689ZM125.531 287.499C125.202 287.528 124.91 287.283 124.881 286.954C124.854 286.635 125.1 286.342 125.428 286.313C125.757 286.284 126.039 286.53 126.067 286.849C126.095 287.178 125.859 287.47 125.531 287.499ZM125.648 293.863L125.215 288.842L126.061 288.767L126.494 293.788L125.648 293.863ZM128.284 293.629L127.64 286.157L128.486 286.082L129.13 293.554L128.284 293.629Z"
                fill="#646464" />
            <path
                d="M171.151 271.752C170.802 271.783 170.507 271.498 170.526 271.145L170.878 264.749L167.392 265.058C166.515 265.136 166.999 264.34 167.016 264.309C168.08 261.976 169.679 258.521 171.791 253.916C171.875 253.728 172.065 253.6 172.264 253.583C172.613 253.552 172.909 253.837 172.889 254.19L172.537 260.586L176.033 260.275C176.432 260.24 176.667 260.41 176.488 260.898C173.704 266.907 172.089 270.414 171.624 271.419C171.54 271.607 171.36 271.734 171.151 271.752Z"
                fill="#3B69D1" />
            <path
                d="M152.286 291.498L151.684 284.524L153.447 284.368L155.403 287.145L156.854 284.065L158.617 283.908L159.218 290.883L157.804 291.008L157.373 286.007L156.044 288.755L155.048 288.843L153.269 286.371L153.7 291.373L152.286 291.498ZM162.867 285.298C164.501 285.153 165.721 286.259 165.85 287.764C165.98 289.268 164.968 290.573 163.335 290.718C161.701 290.863 160.482 289.756 160.352 288.252C160.222 286.748 161.234 285.443 162.867 285.298ZM163.251 289.521C164.058 289.449 164.61 288.747 164.535 287.881C164.46 287.004 163.797 286.42 162.99 286.492C162.154 286.566 161.591 287.259 161.667 288.135C161.742 289.012 162.415 289.595 163.251 289.521ZM167.22 290.172L166.788 285.151L168.053 285.038L168.087 285.437C168.406 285.067 168.852 284.767 169.52 284.707C170.605 284.611 171.536 285.281 171.664 286.766L171.922 289.755L170.647 289.868L170.394 286.929C170.336 286.261 169.921 285.876 169.304 285.931C168.666 285.988 168.365 286.446 168.203 286.782L168.485 290.06L167.22 290.172ZM175.542 288.7L176.314 287.869C176.656 288.23 177.048 288.476 177.527 288.434C177.935 288.397 178.124 288.14 178.098 287.841C178.022 286.964 175.65 287.506 175.498 285.743C175.422 284.856 176.111 284.122 177.157 284.029C177.924 283.961 178.653 284.268 179.054 284.724L178.28 285.536C177.994 285.24 177.643 285.01 177.255 285.044C176.856 285.08 176.686 285.316 176.708 285.575C176.782 286.432 179.157 285.92 179.306 287.653C179.377 288.711 178.58 289.364 177.634 289.448C176.738 289.528 176.069 289.226 175.542 288.7ZM183.715 286.519L183.47 283.669L184.745 283.556L184.985 286.346C185.115 287.85 184.318 288.855 182.844 288.986C181.37 289.116 180.423 288.267 180.294 286.762L180.053 283.973L181.328 283.86L181.574 286.709C181.636 287.436 182.054 287.851 182.751 287.789C183.438 287.728 183.778 287.246 183.715 286.519ZM186.707 282.498C186.259 282.538 185.848 282.193 185.809 281.745C185.77 281.297 186.116 280.884 186.564 280.845C187.013 280.805 187.414 281.151 187.452 281.599C187.491 282.047 187.155 282.459 186.707 282.498ZM186.578 288.453L186.145 283.432L187.41 283.32L187.843 288.341L186.578 288.453ZM188.21 283.248L189.565 283.128L191.179 286.599L192.164 282.897L193.529 282.776L192.129 287.96L190.466 288.108L188.21 283.248ZM194.888 281.772C194.439 281.812 194.028 281.467 193.99 281.019C193.951 280.57 194.297 280.158 194.745 280.118C195.193 280.078 195.594 280.424 195.633 280.873C195.672 281.321 195.336 281.732 194.888 281.772ZM194.759 287.727L194.326 282.705L195.591 282.593L196.024 287.614L194.759 287.727Z"
                fill="#3B69D1" />
            <g clip-path="url(#clip4_1180_3780)">
                <path
                    d="M230.476 259.457L236.477 258.924C236.759 258.899 236.984 258.783 237.15 258.575C237.316 258.368 237.387 258.124 237.363 257.841C237.338 257.559 237.222 257.331 237.015 257.156C236.808 256.983 236.563 256.909 236.281 256.934L230.279 257.467C229.997 257.492 229.773 257.608 229.607 257.814C229.44 258.022 229.37 258.267 229.394 258.549C229.418 258.831 229.534 259.059 229.741 259.233C229.949 259.407 230.194 259.482 230.476 259.457ZM230.218 256.468L240.204 255.581C240.486 255.556 240.71 255.44 240.876 255.232C241.043 255.026 241.114 254.781 241.089 254.499C241.065 254.216 240.949 253.988 240.741 253.814C240.534 253.64 240.289 253.566 240.007 253.591L230.022 254.478C229.739 254.503 229.515 254.619 229.349 254.825C229.183 255.033 229.112 255.278 229.136 255.56C229.161 255.842 229.276 256.07 229.483 256.244C229.691 256.418 229.936 256.493 230.218 256.468ZM229.961 253.479L239.946 252.592C240.228 252.567 240.453 252.451 240.619 252.245C240.785 252.037 240.856 251.792 240.832 251.51C240.807 251.228 240.691 250.999 240.483 250.825C240.276 250.651 240.032 250.577 239.75 250.602L229.764 251.489C229.482 251.514 229.257 251.63 229.091 251.837C228.925 252.044 228.854 252.289 228.879 252.571C228.903 252.854 229.019 253.082 229.226 253.256C229.433 253.43 229.678 253.504 229.961 253.479ZM225.974 265.454L224.637 249.936C224.589 249.388 224.744 248.902 225.101 248.476C225.457 248.052 225.909 247.815 226.457 247.767L242.394 246.351C242.942 246.303 243.428 246.456 243.852 246.811C244.276 247.167 244.511 247.619 244.558 248.167L245.589 260.123C245.636 260.671 245.482 261.157 245.125 261.583C244.769 262.007 244.316 262.244 243.768 262.292L229.823 263.531L227.73 266.026C227.442 266.369 227.086 266.471 226.664 266.333C226.243 266.195 226.013 265.902 225.974 265.454ZM227.76 262.886L228.83 261.611L243.597 260.3L242.566 248.344L226.629 249.759L227.76 262.886Z"
                    fill="#646464" />
            </g>
            <path
                d="M216.507 285.796L215.905 278.822L217.101 278.715L219.535 282.043L221.364 278.337L222.559 278.231L223.16 285.205L222.224 285.288L221.731 279.569L219.986 283.077L219.269 283.141L216.95 279.994L217.443 285.713L216.507 285.796ZM229.502 283.809C229.087 284.478 228.375 284.943 227.438 285.026C225.745 285.176 224.592 284.024 224.466 282.559C224.334 281.035 225.208 279.762 226.762 279.624C228.127 279.503 229.096 280.381 229.202 281.616C229.219 281.816 229.206 282.008 229.188 282.15L225.333 282.492C225.467 283.695 226.297 284.354 227.372 284.259C228.02 284.201 228.542 283.854 228.832 283.376L229.502 283.809ZM226.804 280.344C225.977 280.417 225.442 280.957 225.337 281.839L228.345 281.572C228.252 280.837 227.691 280.265 226.804 280.344ZM230.262 283.882L230.816 283.32C231.202 283.728 231.642 283.94 232.15 283.895C232.708 283.845 232.998 283.478 232.96 283.04C232.863 281.914 230.387 282.535 230.234 280.762C230.166 279.975 230.778 279.268 231.744 279.182C232.461 279.118 233.108 279.402 233.499 279.86L232.954 280.41C232.652 280.055 232.253 279.85 231.815 279.889C231.277 279.936 231.016 280.281 231.049 280.669C231.146 281.795 233.635 281.213 233.783 282.926C233.854 283.864 233.157 284.518 232.221 284.601C231.424 284.672 230.769 284.409 230.262 283.882ZM234.639 283.493L235.193 282.932C235.58 283.339 236.019 283.551 236.527 283.506C237.085 283.456 237.375 283.089 237.337 282.651C237.24 281.525 234.764 282.147 234.611 280.373C234.544 279.586 235.155 278.879 236.121 278.793C236.838 278.73 237.485 279.014 237.876 279.471L237.331 280.021C237.03 279.667 236.63 279.461 236.192 279.5C235.654 279.548 235.393 279.892 235.426 280.281C235.523 281.407 238.013 280.824 238.16 282.538C238.231 283.475 237.535 284.129 236.598 284.212C235.802 284.283 235.147 284.02 234.639 283.493ZM241.01 283.761C240.024 283.848 239.309 283.359 239.235 282.503C239.17 281.745 239.701 281.156 240.752 280.882L242.421 280.453L242.391 280.104C242.331 279.407 241.799 279.052 241.081 279.116C240.504 279.167 240.059 279.478 239.787 279.934L239.107 279.502C239.494 278.865 240.169 278.434 241.046 278.356C242.321 278.243 243.142 278.923 243.238 280.029L243.528 283.396L242.681 283.472L242.626 282.834C242.29 283.356 241.657 283.703 241.01 283.761ZM240.089 282.397C240.126 282.825 240.502 283.103 241.089 283.051C241.757 282.991 242.277 282.624 242.559 282.057L242.474 281.07L241.012 281.451C240.335 281.632 240.053 281.968 240.089 282.397ZM244.727 284.203C244.683 283.695 244.897 283.265 245.365 282.872C245.12 282.713 244.978 282.454 244.954 282.185C244.92 281.787 245.101 281.44 245.468 281.156C245.001 280.866 244.699 280.381 244.65 279.823C244.567 278.857 245.254 277.972 246.449 277.866C246.818 277.834 247.153 277.884 247.433 277.99L249.296 277.824L249.36 278.562L248.274 278.658C248.435 278.895 248.529 279.177 248.555 279.476C248.638 280.433 247.961 281.316 246.756 281.423C246.507 281.445 246.264 281.427 246.05 281.385C245.854 281.553 245.749 281.743 245.766 281.933C245.784 282.142 245.906 282.282 246.215 282.254L247.649 282.127C248.974 282.009 249.648 282.602 249.725 283.499C249.816 284.555 248.828 285.436 247.324 285.569C245.84 285.701 244.814 285.21 244.727 284.203ZM246.708 280.755C247.435 280.69 247.811 280.155 247.758 279.547C247.705 278.929 247.244 278.468 246.517 278.533C245.77 278.599 245.404 279.134 245.457 279.751C245.511 280.369 245.961 280.821 246.708 280.755ZM245.545 284.03C245.598 284.638 246.257 284.951 247.253 284.863C248.309 284.769 248.94 284.291 248.883 283.634C248.842 283.155 248.541 282.801 247.644 282.88L246.02 283.024C245.694 283.314 245.511 283.632 245.545 284.03ZM254.929 281.551C254.515 282.22 253.802 282.685 252.866 282.768C251.172 282.918 250.019 281.766 249.893 280.301C249.762 278.777 250.635 277.505 252.189 277.367C253.554 277.246 254.523 278.123 254.629 279.359C254.647 279.558 254.633 279.75 254.615 279.892L250.76 280.234C250.894 281.437 251.724 282.096 252.8 282.001C253.447 281.943 253.969 281.596 254.259 281.118L254.929 281.551ZM252.231 278.086C251.405 278.159 250.869 278.699 250.764 279.581L253.772 279.314C253.679 278.58 253.118 278.007 252.231 278.086ZM255.689 281.624L256.243 281.063C256.63 281.47 257.069 281.682 257.577 281.637C258.135 281.587 258.425 281.22 258.387 280.782C258.29 279.656 255.814 280.277 255.661 278.504C255.594 277.717 256.205 277.01 257.171 276.924C257.888 276.861 258.535 277.145 258.926 277.602L258.381 278.152C258.08 277.797 257.68 277.592 257.242 277.631C256.704 277.679 256.443 278.023 256.476 278.412C256.573 279.537 259.063 278.955 259.21 280.669C259.281 281.606 258.585 282.26 257.648 282.343C256.852 282.414 256.197 282.151 255.689 281.624Z"
                fill="#646464" />
            <path
                d="M306.452 259.035L300.393 253.951C299.93 254.394 299.384 254.76 298.757 255.05C298.129 255.34 297.45 255.518 296.72 255.583C294.91 255.743 293.325 255.253 291.964 254.111C290.602 252.968 289.843 251.492 289.687 249.682C289.531 247.872 290.026 246.284 291.172 244.919C292.317 243.554 293.794 242.791 295.603 242.631C297.413 242.47 298.999 242.961 300.36 244.103C301.722 245.245 302.48 246.722 302.636 248.532C302.699 249.262 302.642 249.962 302.466 250.63C302.289 251.298 302.023 251.899 301.668 252.433L307.754 257.539C307.952 257.706 308.063 257.922 308.086 258.188C308.108 258.453 308.029 258.695 307.847 258.912C307.68 259.11 307.455 259.222 307.173 259.247C306.891 259.272 306.651 259.202 306.452 259.035ZM296.548 253.59C297.793 253.479 298.814 252.95 299.611 252.001C300.407 251.051 300.751 249.954 300.644 248.709C300.537 247.463 300.01 246.443 299.063 245.648C298.116 244.854 297.02 244.513 295.775 244.623C294.53 244.734 293.509 245.264 292.712 246.212C291.916 247.162 291.572 248.259 291.679 249.505C291.787 250.75 292.314 251.77 293.26 252.565C294.207 253.359 295.303 253.701 296.548 253.59Z"
                fill="#646464" />
            <path
                d="M283.508 279.846L282.907 272.872L286.652 272.54L286.721 273.337L283.912 273.586L284.104 275.818L286.515 275.604L286.582 276.391L284.172 276.605L284.375 278.966L287.184 278.717L287.253 279.514L283.508 279.846ZM288.853 279.372L288.42 274.35L289.267 274.275L289.314 274.823C289.655 274.351 290.126 273.998 290.823 273.936C291.551 273.871 292.177 274.147 292.54 274.757C292.891 274.174 293.383 273.709 294.25 273.632C295.326 273.536 296.174 274.184 296.292 275.549L296.563 278.687L295.716 278.762L295.448 275.654C295.376 274.817 294.866 274.38 294.149 274.444C293.512 274.5 293.094 274.899 292.816 275.516C292.836 275.625 292.855 275.733 292.866 275.853L293.136 278.991L292.289 279.066L292.021 275.958C291.949 275.121 291.45 274.684 290.723 274.748C290.035 274.809 289.644 275.276 289.4 275.819L289.7 279.296L288.853 279.372ZM298.48 280.986L297.836 273.514L298.683 273.439L298.734 274.037C299.139 273.489 299.702 273.148 300.449 273.081C302.022 272.942 303.136 274.098 303.262 275.562C303.388 277.027 302.49 278.362 300.916 278.501C300.169 278.568 299.556 278.331 299.064 277.863L299.327 280.911L298.48 280.986ZM300.418 273.887C299.72 273.949 299.142 274.342 298.815 274.973L298.983 276.926C299.424 277.499 300.06 277.774 300.748 277.713C301.813 277.618 302.467 276.707 302.376 275.641C302.284 274.575 301.484 273.793 300.418 273.887ZM304.845 277.952L304.201 270.479L305.047 270.404L305.691 277.876L304.845 277.952ZM309.322 272.293C310.935 272.15 312.148 273.297 312.275 274.762C312.401 276.227 311.403 277.57 309.789 277.713C308.165 277.858 306.962 276.709 306.836 275.245C306.71 273.78 307.698 272.438 309.322 272.293ZM309.73 276.915C310.776 276.823 311.468 275.878 311.378 274.842C311.288 273.795 310.446 272.997 309.4 273.09C308.325 273.185 307.632 274.12 307.723 275.166C307.813 276.212 308.654 277.011 309.73 276.915ZM313.735 270.787C313.407 270.816 313.114 270.571 313.086 270.243C313.059 269.924 313.304 269.631 313.633 269.602C313.962 269.572 314.244 269.818 314.271 270.137C314.3 270.466 314.064 270.758 313.735 270.787ZM313.852 277.152L313.419 272.13L314.266 272.055L314.699 277.077L313.852 277.152ZM315.852 276.282L316.406 275.72C316.793 276.128 317.232 276.34 317.74 276.295C318.298 276.245 318.588 275.878 318.55 275.44C318.453 274.314 315.977 274.935 315.824 273.162C315.756 272.375 316.368 271.668 317.334 271.582C318.051 271.518 318.698 271.802 319.089 272.259L318.544 272.81C318.243 272.455 317.843 272.25 317.405 272.289C316.867 272.336 316.606 272.681 316.639 273.069C316.736 274.195 319.226 273.613 319.373 275.326C319.444 276.264 318.748 276.918 317.811 277.001C317.014 277.072 316.359 276.809 315.852 276.282Z"
                fill="#646464" />
            <path
                d="M359.847 250.479C359.15 250.541 358.539 250.353 358.016 249.914C357.494 249.475 357.202 248.907 357.142 248.21C357.082 247.512 357.272 246.901 357.712 246.377C358.152 245.853 358.72 245.56 359.417 245.498C360.115 245.436 360.725 245.624 361.248 246.063C361.771 246.502 362.062 247.07 362.122 247.767C362.182 248.465 361.992 249.076 361.553 249.6C361.113 250.124 360.544 250.417 359.847 250.479ZM356.335 256.313C355.787 256.361 355.301 256.208 354.877 255.853C354.453 255.497 354.218 255.045 354.171 254.497L352.969 240.549C352.921 240.001 353.076 239.514 353.432 239.09C353.789 238.665 354.241 238.428 354.789 238.379L355.785 238.291L355.699 237.294C355.675 237.012 355.75 236.767 355.924 236.559C356.099 236.351 356.327 236.235 356.609 236.21C356.892 236.185 357.136 236.259 357.344 236.433C357.551 236.607 357.667 236.835 357.691 237.118L357.777 238.114L365.746 237.406L365.66 236.41C365.636 236.128 365.711 235.882 365.886 235.674C366.06 235.467 366.288 235.35 366.57 235.325C366.852 235.3 367.097 235.374 367.304 235.548C367.512 235.722 367.628 235.951 367.652 236.233L367.738 237.229L368.734 237.141C369.282 237.092 369.768 237.246 370.192 237.602C370.615 237.957 370.851 238.409 370.898 238.957L372.1 252.905C372.148 253.453 371.993 253.939 371.637 254.365C371.28 254.789 370.828 255.026 370.28 255.074L356.335 256.313ZM356.163 254.32L370.108 253.082L369.249 243.119L355.304 244.357L356.163 254.32ZM355.132 242.364L369.078 241.126L368.906 239.134L354.961 240.372L355.132 242.364Z"
                fill="#646464" />
            <path
                d="M338.36 267.346L337.493 267.423L338.503 265.978L339.519 265.887L338.36 267.346ZM336.681 275.125L336.08 268.15L339.826 267.818L339.894 268.615L337.085 268.864L337.278 271.096L339.688 270.882L339.756 271.669L337.346 271.883L337.549 274.244L340.358 273.995L340.427 274.792L336.681 275.125ZM340.671 269.711L341.588 269.629L343.548 273.621L344.795 269.344L345.712 269.263L344.182 274.459L343.066 274.558L340.671 269.711ZM349.153 268.154L348.326 268.228L349.219 266.482L350.176 266.397L349.153 268.154ZM351.495 272.976C351.081 273.645 350.369 274.11 349.432 274.193C347.739 274.344 346.586 273.191 346.46 271.726C346.328 270.202 347.202 268.93 348.756 268.792C350.121 268.671 351.09 269.548 351.196 270.784C351.213 270.983 351.2 271.175 351.182 271.317L347.327 271.659C347.461 272.862 348.29 273.522 349.366 273.426C350.014 273.369 350.536 273.021 350.826 272.543L351.495 272.976ZM348.798 269.511C347.971 269.584 347.435 270.124 347.331 271.007L350.339 270.739C350.246 270.005 349.684 269.432 348.798 269.511ZM352.892 273.685L352.459 268.664L353.306 268.589L353.355 269.157C353.725 268.672 354.215 268.307 354.962 268.241C356.088 268.141 356.99 268.824 357.112 270.248L357.374 273.287L356.528 273.362L356.268 270.354C356.191 269.457 355.638 268.984 354.861 269.053C354.134 269.117 353.712 269.577 353.439 270.133L353.739 273.61L352.892 273.685ZM363.47 271.913C363.056 272.582 362.343 273.047 361.407 273.13C359.713 273.28 358.56 272.128 358.434 270.663C358.302 269.139 359.176 267.867 360.73 267.729C362.095 267.607 363.064 268.485 363.17 269.721C363.188 269.92 363.174 270.112 363.156 270.254L359.301 270.596C359.435 271.799 360.265 272.458 361.341 272.363C361.988 272.305 362.51 271.958 362.8 271.48L363.47 271.913ZM360.772 268.448C359.946 268.521 359.41 269.061 359.305 269.943L362.313 269.676C362.22 268.942 361.659 268.369 360.772 268.448ZM364.866 272.622L364.434 267.601L365.28 267.525L365.327 268.073C365.668 267.601 366.14 267.248 366.837 267.186C367.564 267.122 368.19 267.397 368.554 268.008C368.905 267.424 369.397 266.959 370.263 266.882C371.339 266.787 372.188 267.434 372.306 268.799L372.576 271.937L371.729 272.013L371.461 268.904C371.389 268.067 370.88 267.63 370.163 267.694C369.525 267.751 369.108 268.149 368.83 268.766C368.849 268.875 368.869 268.984 368.879 269.103L369.15 272.242L368.303 272.317L368.035 269.208C367.963 268.371 367.463 267.934 366.736 267.998C366.049 268.059 365.658 268.526 365.413 269.07L365.713 272.547L364.866 272.622ZM378.674 270.563C378.26 271.232 377.547 271.697 376.611 271.78C374.917 271.93 373.764 270.778 373.638 269.313C373.506 267.789 374.38 266.517 375.934 266.379C377.299 266.257 378.268 267.135 378.374 268.371C378.391 268.57 378.378 268.762 378.36 268.904L374.505 269.246C374.639 270.449 375.469 271.108 376.544 271.013C377.192 270.955 377.714 270.608 378.004 270.13L378.674 270.563ZM375.976 267.098C375.149 267.171 374.614 267.711 374.509 268.593L377.517 268.326C377.424 267.592 376.863 267.019 375.976 267.098ZM380.07 271.272L379.637 266.251L380.484 266.175L380.533 266.743C380.903 266.259 381.393 265.894 382.14 265.827C383.266 265.728 384.168 266.41 384.291 267.835L384.553 270.874L383.706 270.949L383.447 267.94C383.369 267.044 382.817 266.571 382.04 266.64C381.313 266.704 380.89 267.163 380.617 267.72L380.917 271.197L380.07 271.272ZM386.401 269.013L386.179 266.443L385.233 266.527L385.167 265.76L386.113 265.676L386.005 264.42L386.861 264.344L386.969 265.599L388.713 265.445L388.779 266.212L387.036 266.367L387.257 268.937C387.325 269.724 387.742 269.908 388.35 269.854C388.679 269.825 388.904 269.765 389.087 269.668L389.152 270.425C388.922 270.546 388.656 270.61 388.297 270.642C387.182 270.741 386.506 270.239 386.401 269.013ZM389.842 269.711L390.396 269.15C390.783 269.558 391.223 269.77 391.731 269.725C392.288 269.675 392.578 269.308 392.54 268.87C392.443 267.744 389.967 268.365 389.814 266.592C389.747 265.805 390.358 265.098 391.324 265.012C392.042 264.948 392.688 265.232 393.079 265.689L392.534 266.24C392.233 265.885 391.834 265.68 391.395 265.718C390.857 265.766 390.596 266.111 390.63 266.499C390.727 267.625 393.216 267.043 393.363 268.756C393.434 269.694 392.738 270.348 391.802 270.431C391.005 270.502 390.35 270.239 389.842 269.711Z"
                fill="#646464" />
        </g>
    </g>
    <defs>
        <filter id="filter0_d_1180_3780" x="109.633" y="24.4" width="262.645" height="94.001"
            filterUnits="userSpaceOnUse" color-interpolation-filters="sRGB">
            <feFlood flood-opacity="0" result="BackgroundImageFix" />
            <feColorMatrix in="SourceAlpha" type="matrix" values="0 0 0 0 0 0 0 0 0 0 0 0 0 0 0 0 0 0 127 0"
                result="hardAlpha" />
            <feOffset dy="4" />
            <feGaussianBlur stdDeviation="6" />
            <feComposite in2="hardAlpha" operator="out" />
            <feColorMatrix type="matrix" values="0 0 0 0 0.152941 0 0 0 0 0.286275 0 0 0 0 0.588235 0 0 0 0.12 0" />
            <feBlend mode="normal" in2="BackgroundImageFix" result="effect1_dropShadow_1180_3780" />
            <feBlend mode="normal" in="SourceGraphic" in2="effect1_dropShadow_1180_3780" result="shape" />
        </filter>
        <filter id="filter1_d_1180_3780" x="115.856" y="85.9695" width="271.181" height="178.454"
            filterUnits="userSpaceOnUse" color-interpolation-filters="sRGB">
            <feFlood flood-opacity="0" result="BackgroundImageFix" />
            <feColorMatrix in="SourceAlpha" type="matrix" values="0 0 0 0 0 0 0 0 0 0 0 0 0 0 0 0 0 0 127 0"
                result="hardAlpha" />
            <feOffset dy="4" />
            <feGaussianBlur stdDeviation="6" />
            <feComposite in2="hardAlpha" operator="out" />
            <feColorMatrix type="matrix" values="0 0 0 0 0.152941 0 0 0 0 0.286275 0 0 0 0 0.588235 0 0 0 0.12 0" />
            <feBlend mode="normal" in2="BackgroundImageFix" result="effect1_dropShadow_1180_3780" />
            <feBlend mode="normal" in="SourceGraphic" in2="effect1_dropShadow_1180_3780" result="shape" />
        </filter>
        <filter id="filter2_d_1180_3780" x="129.847" y="224.383" width="268.034" height="147.318"
            filterUnits="userSpaceOnUse" color-interpolation-filters="sRGB">
            <feFlood flood-opacity="0" result="BackgroundImageFix" />
            <feColorMatrix in="SourceAlpha" type="matrix" values="0 0 0 0 0 0 0 0 0 0 0 0 0 0 0 0 0 0 127 0"
                result="hardAlpha" />
            <feOffset dy="4" />
            <feGaussianBlur stdDeviation="6" />
            <feComposite in2="hardAlpha" operator="out" />
            <feColorMatrix type="matrix" values="0 0 0 0 0.152941 0 0 0 0 0.286275 0 0 0 0 0.588235 0 0 0 0.12 0" />
            <feBlend mode="normal" in2="BackgroundImageFix" result="effect1_dropShadow_1180_3780" />
            <feBlend mode="normal" in="SourceGraphic" in2="effect1_dropShadow_1180_3780" result="shape" />
        </filter>
        <filter id="filter3_d_1180_3780" x="66" y="214" width="343.933" height="119.639" filterUnits="userSpaceOnUse"
            color-interpolation-filters="sRGB">
            <feFlood flood-opacity="0" result="BackgroundImageFix" />
            <feColorMatrix in="SourceAlpha" type="matrix" values="0 0 0 0 0 0 0 0 0 0 0 0 0 0 0 0 0 0 127 0"
                result="hardAlpha" />
            <feOffset dy="8" />
            <feGaussianBlur stdDeviation="6" />
            <feComposite in2="hardAlpha" operator="out" />
            <feColorMatrix type="matrix" values="0 0 0 0 0.152941 0 0 0 0 0.286275 0 0 0 0 0.588235 0 0 0 0.24 0" />
            <feBlend mode="normal" in2="BackgroundImageFix" result="effect1_dropShadow_1180_3780" />
            <feBlend mode="normal" in="SourceGraphic" in2="effect1_dropShadow_1180_3780" result="shape" />
        </filter>
        <clipPath id="clip0_1180_3780">
            <rect width="470" height="292" fill="white" />
        </clipPath>
        <clipPath id="clip1_1180_3780">
            <rect width="278.784" height="278.518" fill="white"
                transform="translate(87.8516 121.17) rotate(-5.77179)" />
        </clipPath>
        <clipPath id="clip2_1180_3780">
            <rect width="15.2944" height="15.2944" fill="white"
                transform="translate(152.64 134.683) rotate(-5.77179)" />
        </clipPath>
        <clipPath id="clip3_1180_3780">
            <rect width="15.2944" height="15.2944" fill="white"
                transform="translate(166.63 273.097) rotate(-5.77179)" />
        </clipPath>
        <clipPath id="clip4_1180_3780">
            <rect width="24" height="24" fill="white"
                transform="matrix(0.996081 -0.088447 0.0858831 0.996305 222.301 246.128)" />
        </clipPath>
    </defs>
</svg>
