<svg width="352" height="372" viewBox="0 0 352 372" fill="none" xmlns="http://www.w3.org/2000/svg">
<rect x="54.5016" y="32.4082" width="251.429" height="250.83" rx="10.4713" transform="rotate(-5 54.5016 32.4082)" fill="#F1F1F1" stroke="#878787" stroke-width="0.910548" stroke-dasharray="4.55 4.55"/>
<g filter="url(#filter0_d_5297_13164)">
<rect x="39.0061" y="22.0034" width="252.342" height="248.934" rx="5.88462" transform="rotate(-5 39.0061 22.0034)" fill="white" shape-rendering="crispEdges"/>
<rect x="52.0081" y="32.9136" width="228.338" height="236.958" rx="8" transform="rotate(-5 52.0081 32.9136)" fill="white"/>
<path d="M62.8435 54.9312L64.5177 54.7848L63.9999 48.8663L66.1093 51.7943L67.2883 51.6912L68.8572 48.4414L69.375 54.3598L71.0492 54.2133L70.3271 45.9605L68.2404 46.1431L66.5276 49.7857L64.2083 46.4959L62.1215 46.6784L62.8435 54.9312ZM75.3605 47.611C73.427 47.7802 72.2314 49.3223 72.3871 51.1025C72.5429 52.8828 73.9881 54.1938 75.9216 54.0247C77.8552 53.8555 79.0508 52.3134 78.8951 50.5332C78.7393 48.7529 77.294 47.4419 75.3605 47.611ZM75.8214 52.6078C74.8311 52.6945 74.0341 52.0039 73.9434 50.9664C73.8526 49.9289 74.5175 49.1104 75.5079 49.0237C76.4629 48.9402 77.248 49.6318 77.3388 50.6693C77.4285 51.695 76.7764 52.5243 75.8214 52.6078ZM80.6391 51.1884C80.7659 52.6386 81.5465 53.4137 83.0321 53.2838C83.5272 53.2405 83.8758 53.1506 84.1592 52.9951L84.0447 51.6864C83.8515 51.7865 83.5844 51.8574 83.1718 51.8935C82.5823 51.945 82.2059 51.7166 82.1481 51.0564L81.9357 48.6277L83.7513 48.4689L83.6337 47.1248L81.8181 47.2837L81.6881 45.7982L80.179 45.9302L80.309 47.4157L79.2008 47.5127L79.3183 48.8567L80.4266 48.7597L80.6391 51.1884ZM84.9004 52.1343C85.5251 52.7568 86.3168 53.1152 87.3779 53.0224C88.4979 52.9244 89.4402 52.1529 89.3544 50.9011C89.175 48.8497 86.3646 49.452 86.2759 48.4381C86.249 48.1315 86.4504 47.8526 86.9219 47.8113C87.3817 47.7711 87.7976 48.0436 88.1372 48.394L89.0512 47.4349C88.5762 46.8944 87.7128 46.5304 86.8049 46.6098C85.567 46.7181 84.7519 47.5854 84.8437 48.6346C85.0263 50.7214 87.8336 50.0838 87.9243 51.1213C87.9553 51.475 87.7324 51.7796 87.2491 51.8219C86.6832 51.8714 86.2181 51.5794 85.8124 51.1516L84.9004 52.1343ZM96.8104 50.7715C95.8083 50.8592 95.0241 50.1794 94.9323 49.1301C94.8415 48.0926 95.4947 47.2751 96.4732 47.1895C97.0863 47.1359 97.5816 47.3658 97.9007 47.7537L98.9895 46.7555C98.3714 46.0731 97.4577 45.6778 96.3731 45.7727C94.3216 45.9522 93.2244 47.5331 93.3761 49.2662C93.5277 50.9993 94.8828 52.3658 96.9342 52.1863C98.0188 52.0914 98.85 51.5435 99.3402 50.764L98.0946 49.9701C97.8477 50.4075 97.3999 50.72 96.8104 50.7715ZM100.542 51.633L102.04 51.502L101.266 42.6597L99.7689 42.7907L100.542 51.633ZM109.221 49.8996L108.074 49.1446C107.793 49.5969 107.252 49.9293 106.603 49.986C105.672 50.0675 104.949 49.6793 104.71 48.5835L108.872 48.2194C108.902 48.0148 108.922 47.7042 108.893 47.3741C108.757 45.8178 107.574 44.7927 105.924 44.9371C103.979 45.1073 102.997 46.6544 103.151 48.411C103.303 50.1441 104.622 51.5137 106.733 51.329C107.853 51.2311 108.732 50.6908 109.221 49.8996ZM105.996 46.1663C106.833 46.0931 107.322 46.6562 107.398 47.2554L104.663 47.4947C104.76 46.7021 105.23 46.2334 105.996 46.1663ZM109.412 44.8695L109.53 46.2136L110.638 46.1166L111.04 50.7146L112.549 50.5826L112.147 45.9846L113.962 45.8257L113.845 44.4817L112.029 44.6405L111.971 43.9803C111.924 43.438 112.223 43.0554 112.73 43.0111C113.037 42.9842 113.282 43.0697 113.47 43.1839L113.997 41.8785C113.602 41.7111 113.131 41.6217 112.589 41.6691C111.103 41.7991 110.355 42.8862 110.466 44.1477L110.52 44.7726L109.412 44.8695ZM114.593 49.5365C115.218 50.159 116.01 50.5174 117.071 50.4246C118.191 50.3266 119.133 49.5551 119.048 48.3033C118.868 46.2519 116.058 46.8542 115.969 45.8403C115.942 45.5337 116.143 45.2548 116.615 45.2135C117.075 45.1733 117.491 45.4458 117.83 45.7962L118.744 44.8371C118.269 44.2966 117.406 43.9326 116.498 44.012C115.26 44.1203 114.445 44.9876 114.537 46.0368C114.719 48.1236 117.527 47.486 117.617 48.5235C117.648 48.8772 117.426 49.1818 116.942 49.2241C116.376 49.2736 115.911 48.9816 115.505 48.5538L114.593 49.5365Z" fill="#161616"/>
<rect x="63.1521" y="68.2013" width="212.286" height="34.7647" rx="5.54668" transform="rotate(-5 63.1521 68.2013)" fill="white"/>
<rect x="63.1521" y="68.2013" width="212.286" height="34.7647" rx="5.54668" transform="rotate(-5 63.1521 68.2013)" stroke="#3B69D1" stroke-width="0.739558"/>
<path d="M71.715 120.341L75.5614 128.32L77.7542 128.128L80.1565 119.602L78.3762 119.758L76.5 126.42L73.4953 120.185L71.715 120.341ZM83.6313 121.389C81.6978 121.558 80.5022 123.1 80.6579 124.88C80.8137 126.661 82.2589 127.972 84.1924 127.802C86.126 127.633 87.3216 126.091 87.1659 124.311C87.0101 122.531 85.5648 121.22 83.6313 121.389ZM84.0922 126.386C83.1019 126.472 82.3049 125.782 82.2142 124.744C82.1234 123.707 82.7883 122.888 83.7787 122.802C84.7337 122.718 85.5188 123.41 85.6096 124.447C85.6993 125.473 85.0472 126.302 84.0922 126.386ZM88.0017 126.364C88.6264 126.987 89.4181 127.345 90.4791 127.252C91.5992 127.154 92.5415 126.383 92.4557 125.131C92.2762 123.08 89.4658 123.682 89.3771 122.668C89.3503 122.362 89.5516 122.083 90.0232 122.041C90.483 122.001 90.8989 122.274 91.2384 122.624L92.1525 121.665C91.6775 121.124 90.814 120.76 89.9062 120.84C88.6683 120.948 87.8532 121.815 87.945 122.865C88.1276 124.952 90.9348 124.314 91.0256 125.351C91.0566 125.705 90.8337 126.01 90.3503 126.052C89.7844 126.101 89.3193 125.81 88.9136 125.382L88.0017 126.364ZM97.4154 129.33L98.9127 129.2L98.6167 125.816C99.1167 126.235 99.7171 126.444 100.531 126.373C102.417 126.208 103.42 124.635 103.268 122.902C103.117 121.169 101.856 119.794 99.9695 119.959C99.156 120.031 98.601 120.341 98.1814 120.841L98.1391 120.357L96.6418 120.488L97.4154 129.33ZM99.8811 121.393C100.895 121.304 101.621 122.001 101.712 123.038C101.803 124.076 101.209 124.888 100.195 124.977C99.5108 125.037 98.9309 124.79 98.4806 124.26L98.3176 122.397C98.6464 121.81 99.1855 121.454 99.8811 121.393ZM104.899 125.753L106.396 125.622L106.063 121.814C106.254 121.417 106.69 120.975 107.421 120.911C107.692 120.888 107.896 120.905 108.089 120.936L107.96 119.462C107.814 119.428 107.634 119.408 107.434 119.425C106.762 119.484 106.282 119.835 105.928 120.27L105.876 119.68L104.379 119.811L104.899 125.753ZM112.287 118.169L113.531 116.088L111.904 116.23L110.849 118.295L112.287 118.169ZM114.821 123.911L113.674 123.156C113.393 123.608 112.851 123.941 112.203 123.998C111.272 124.079 110.549 123.691 110.31 122.595L114.472 122.231C114.502 122.026 114.522 121.716 114.493 121.386C114.357 119.829 113.174 118.804 111.524 118.949C109.578 119.119 108.597 120.666 108.751 122.423C108.902 124.156 110.222 125.525 112.332 125.341C113.452 125.243 114.332 124.702 114.821 123.911ZM111.596 120.178C112.433 120.105 112.921 120.668 112.998 121.267L110.262 121.506C110.359 120.714 110.829 120.245 111.596 120.178ZM115.012 118.881L115.129 120.225L116.237 120.128L116.64 124.726L118.149 124.594L117.747 119.996L119.562 119.837L119.445 118.493L117.629 118.652L117.571 117.992C117.524 117.45 117.823 117.067 118.33 117.023C118.636 116.996 118.881 117.081 119.07 117.195L119.597 115.89C119.202 115.723 118.731 115.633 118.189 115.681C116.703 115.811 115.955 116.898 116.065 118.159L116.12 118.784L115.012 118.881ZM123.616 117.178L124.86 115.097L123.233 115.239L122.178 117.304L123.616 117.178ZM126.15 122.92L125.003 122.165C124.722 122.617 124.181 122.95 123.532 123.006C122.601 123.088 121.878 122.7 121.639 121.604L125.801 121.24C125.831 121.035 125.851 120.725 125.822 120.394C125.686 118.838 124.503 117.813 122.853 117.957C120.908 118.128 119.926 119.675 120.08 121.431C120.231 123.164 121.551 124.534 123.662 124.349C124.782 124.251 125.661 123.711 126.15 122.92ZM122.925 119.187C123.762 119.113 124.251 119.677 124.327 120.276L121.592 120.515C121.689 119.722 122.158 119.254 122.925 119.187ZM127.592 123.768L129.089 123.637L128.756 119.829C128.947 119.432 129.383 118.99 130.114 118.926C130.385 118.902 130.589 118.92 130.782 118.951L130.653 117.477C130.507 117.442 130.327 117.422 130.127 117.44C129.455 117.499 128.975 117.85 128.621 118.284L128.569 117.695L127.072 117.826L127.592 123.768ZM137.514 121.926L136.367 121.171C136.085 121.623 135.544 121.955 134.896 122.012C133.964 122.094 133.241 121.705 133.003 120.61L137.165 120.246C137.194 120.041 137.215 119.73 137.186 119.4C137.05 117.844 135.867 116.819 134.217 116.963C132.271 117.133 131.29 118.681 131.444 120.437C131.595 122.17 132.915 123.54 135.025 123.355C136.145 123.257 137.025 122.717 137.514 121.926ZM134.288 118.192C135.126 118.119 135.614 118.682 135.691 119.282L132.955 119.521C133.052 118.728 133.522 118.26 134.288 118.192ZM138.955 122.774L140.453 122.643L140.113 118.764C140.304 118.367 140.661 117.825 141.415 117.759C142.146 117.695 142.638 118.151 142.707 118.941L143.011 122.419L144.52 122.287L144.211 118.75C144.057 116.993 142.954 116.199 141.669 116.311C140.879 116.38 140.352 116.735 139.974 117.172L139.933 116.701L138.436 116.832L138.955 122.774ZM148.97 120.71C147.968 120.797 147.184 120.117 147.092 119.068C147.001 118.031 147.655 117.213 148.633 117.128C149.246 117.074 149.742 117.304 150.061 117.692L151.149 116.694C150.531 116.011 149.618 115.616 148.533 115.711C146.482 115.89 145.384 117.471 145.536 119.204C145.688 120.937 147.043 122.304 149.094 122.124C150.179 122.029 151.01 121.482 151.5 120.702L150.255 119.908C150.008 120.346 149.56 120.658 148.97 120.71ZM157.858 120.146L156.711 119.391C156.43 119.843 155.889 120.176 155.24 120.232C154.309 120.314 153.586 119.926 153.347 118.83L157.509 118.466C157.539 118.261 157.559 117.95 157.53 117.62C157.394 116.064 156.211 115.039 154.561 115.183C152.615 115.354 151.634 116.901 151.788 118.657C151.939 120.39 153.259 121.76 155.369 121.575C156.489 121.477 157.369 120.937 157.858 120.146ZM154.633 116.413C155.47 116.339 155.959 116.902 156.035 117.502L153.3 117.741C153.396 116.948 153.866 116.48 154.633 116.413ZM158.625 120.186C159.25 120.808 160.041 121.167 161.102 121.074C162.222 120.976 163.165 120.204 163.079 118.952C162.899 116.901 160.089 117.503 160 116.489C159.974 116.183 160.175 115.904 160.646 115.863C161.106 115.822 161.522 116.095 161.862 116.445L162.776 115.486C162.301 114.946 161.437 114.582 160.529 114.661C159.292 114.769 158.476 115.637 158.568 116.686C158.751 118.773 161.558 118.135 161.649 119.173C161.68 119.526 161.457 119.831 160.974 119.873C160.408 119.923 159.943 119.631 159.537 119.203L158.625 120.186ZM167.785 120.251L169.282 120.12L168.943 116.242C169.134 115.845 169.443 115.307 170.127 115.247C170.799 115.188 171.227 115.602 171.29 116.321L171.605 119.917L173.114 119.785L172.794 116.13C172.786 116.036 172.779 115.954 172.76 115.872C172.96 115.451 173.275 114.972 173.923 114.915C174.595 114.856 175.024 115.27 175.087 115.989L175.401 119.585L176.91 119.453L176.59 115.798C176.444 114.124 175.403 113.36 174.177 113.467C173.175 113.555 172.648 114.052 172.269 114.608C171.824 114.006 171.135 113.733 170.381 113.799C169.65 113.863 169.168 114.202 168.802 114.626L168.762 114.178L167.265 114.309L167.785 120.251ZM181.471 112.116L182.715 110.035L181.088 110.178L180.033 112.242L181.471 112.116ZM184.005 117.858L182.858 117.103C182.577 117.556 182.035 117.888 181.387 117.945C180.456 118.026 179.733 117.638 179.494 116.542L183.656 116.178C183.686 115.974 183.706 115.663 183.677 115.333C183.541 113.777 182.358 112.751 180.708 112.896C178.762 113.066 177.781 114.613 177.935 116.37C178.086 118.103 179.406 119.472 181.516 119.288C182.636 119.19 183.516 118.649 184.005 117.858ZM180.78 114.125C181.617 114.052 182.105 114.615 182.182 115.214L179.446 115.453C179.543 114.661 180.013 114.192 180.78 114.125ZM185.622 116.505C185.749 117.955 186.53 118.73 188.015 118.6C188.511 118.557 188.859 118.467 189.143 118.312L189.028 117.003C188.835 117.103 188.568 117.174 188.155 117.21C187.566 117.262 187.189 117.033 187.132 116.373L186.919 113.944L188.735 113.785L188.617 112.441L186.802 112.6L186.672 111.115L185.162 111.247L185.292 112.732L184.184 112.829L184.302 114.173L185.41 114.076L185.622 116.505ZM190.622 111.221C191.152 111.174 191.549 110.688 191.503 110.157C191.457 109.627 190.981 109.217 190.451 109.263C189.92 109.31 189.511 109.797 189.558 110.328C189.604 110.858 190.091 111.267 190.622 111.221ZM190.478 118.266L191.975 118.135L191.455 112.193L189.958 112.324L190.478 118.266ZM199.157 116.533L198.009 115.778C197.728 116.23 197.187 116.562 196.539 116.619C195.607 116.701 194.884 116.312 194.646 115.217L198.808 114.852C198.837 114.648 198.858 114.337 198.829 114.007C198.693 112.451 197.51 111.426 195.859 111.57C193.914 111.74 192.933 113.287 193.086 115.044C193.238 116.777 194.558 118.147 196.668 117.962C197.788 117.864 198.667 117.324 199.157 116.533ZM195.931 112.799C196.768 112.726 197.257 113.289 197.333 113.889L194.598 114.128C194.695 113.335 195.165 112.866 195.931 112.799ZM200.598 117.381L202.095 117.25L201.762 113.442C201.953 113.045 202.39 112.603 203.121 112.539C203.392 112.515 203.595 112.533 203.788 112.563L203.659 111.09C203.514 111.055 203.334 111.035 203.133 111.053C202.461 111.111 201.981 111.462 201.627 111.897L201.576 111.308L200.078 111.439L200.598 117.381ZM204.794 116.146C205.418 116.769 206.21 117.127 207.271 117.034C208.391 116.937 209.333 116.165 209.248 114.913C209.068 112.862 206.258 113.464 206.169 112.45C206.142 112.144 206.344 111.865 206.815 111.823C207.275 111.783 207.691 112.056 208.03 112.406L208.944 111.447C208.469 110.907 207.606 110.542 206.698 110.622C205.46 110.73 204.645 111.597 204.737 112.647C204.92 114.734 207.727 114.096 207.818 115.133C207.849 115.487 207.626 115.792 207.142 115.834C206.576 115.884 206.111 115.592 205.706 115.164L204.794 116.146Z" fill="black"/>
<path d="M71.0792 160.075L69.5564 160.208C69.3599 160.225 69.207 160.15 69.0976 159.982C68.9879 159.814 68.9832 159.643 69.0834 159.47L72.2934 153.868C72.3653 153.746 72.4647 153.657 72.5918 153.6C72.7188 153.544 72.8541 153.534 72.9976 153.571C73.1411 153.608 73.251 153.685 73.3272 153.802C73.4034 153.919 73.4395 154.048 73.4353 154.188L73.3206 157.404L75.2241 157.237C75.437 157.218 75.5947 157.299 75.6973 157.48C75.7996 157.661 75.7883 157.839 75.6634 158.015L72.0463 163.208C71.9656 163.322 71.8612 163.401 71.733 163.445C71.6049 163.49 71.4769 163.488 71.3491 163.442C71.2213 163.395 71.1174 163.316 71.0376 163.203C70.9575 163.09 70.9195 162.964 70.9237 162.823L71.0792 160.075Z" fill="#646464"/>
<path d="M84.9682 162.394L86.1471 162.291L86.8896 159.779L90.6859 159.447L91.8534 161.792L93.0323 161.689L89.021 153.724L87.5355 153.854L84.9682 162.394ZM87.1716 158.792L88.3628 154.756L90.2369 158.524L87.1716 158.792ZM94.4628 154.02C94.8518 153.986 95.1305 153.641 95.0965 153.252C95.0635 152.874 94.7291 152.583 94.34 152.617C93.951 152.651 93.6605 152.997 93.6935 153.375C93.7275 153.764 94.0737 154.054 94.4628 154.02ZM94.6108 161.551L95.6129 161.463L95.0931 155.521L94.0909 155.609L94.6108 161.551ZM96.964 158.351C97.1157 160.084 98.4354 161.454 100.298 161.291C101.182 161.213 101.848 160.811 102.326 160.163L102.388 160.87L103.39 160.783L102.616 151.94L101.614 152.028L101.93 155.636C101.347 155.081 100.621 154.8 99.737 154.877C97.8742 155.04 96.8124 156.618 96.964 158.351ZM98.0251 158.258C97.9147 156.997 98.6759 155.92 99.9374 155.81C100.751 155.739 101.504 156.065 102.026 156.732L102.23 159.067C101.855 159.8 101.159 160.265 100.334 160.337C99.072 160.448 98.1355 159.52 98.0251 158.258ZM110.699 159.157L109.905 158.645C109.563 159.209 108.945 159.62 108.179 159.687C106.906 159.798 105.923 159.017 105.762 157.593L110.325 157.194C110.346 157.026 110.362 156.799 110.341 156.563C110.213 155.101 109.065 154.061 107.45 154.202C105.61 154.363 104.578 155.867 104.736 157.671C104.887 159.404 106.254 160.77 108.258 160.594C109.367 160.497 110.21 159.949 110.699 159.157ZM107.5 155.053C108.55 154.962 109.215 155.64 109.327 156.509L105.766 156.821C105.888 155.777 106.522 155.139 107.5 155.053ZM111.383 156.555L111.467 157.522L114.65 157.243L114.566 156.277L111.383 156.555ZM116.418 162.565L117.42 162.478L117.104 158.87C117.687 159.425 118.413 159.706 119.297 159.629C121.16 159.466 122.222 157.888 122.07 156.155C121.918 154.422 120.599 153.052 118.736 153.215C117.852 153.292 117.186 153.695 116.708 154.343L116.646 153.635L115.644 153.723L116.418 162.565ZM118.701 154.169C119.962 154.058 120.91 154.985 121.021 156.247C121.131 157.508 120.358 158.585 119.097 158.696C118.283 158.767 117.53 158.441 117.007 157.762L116.805 155.451C117.191 154.705 117.875 154.241 118.701 154.169ZM124.491 151.999L125.375 150.425L126.507 151.822L127.403 151.744L126.005 149.894L124.65 150.013L123.583 152.078L124.491 151.999ZM125.473 159.017C126.239 158.95 126.988 158.54 127.385 157.923L127.451 158.678L128.453 158.59L128.104 154.605C127.99 153.296 127.017 152.491 125.508 152.623C124.47 152.713 123.671 153.223 123.214 153.976L124.019 154.487C124.34 153.948 124.867 153.582 125.551 153.522C126.399 153.447 127.03 153.867 127.102 154.693L127.138 155.105L125.163 155.611C123.92 155.933 123.292 156.63 123.37 157.526C123.459 158.54 124.306 159.119 125.473 159.017ZM124.381 157.402C124.337 156.895 124.67 156.497 125.472 156.285L127.202 155.836L127.305 157.004C126.971 157.674 126.356 158.108 125.566 158.177C124.87 158.238 124.426 157.909 124.381 157.402ZM130.631 156.392C130.758 157.842 131.559 158.437 132.879 158.322C133.303 158.284 133.618 158.209 133.89 158.067L133.812 157.171C133.596 157.285 133.329 157.356 132.94 157.39C132.221 157.453 131.727 157.234 131.645 156.303L131.379 153.261L133.442 153.081L133.363 152.173L131.3 152.353L131.17 150.868L130.156 150.957L130.286 152.442L129.166 152.54L129.245 153.448L130.365 153.35L130.631 156.392ZM135.266 150.45C135.655 150.416 135.934 150.071 135.9 149.682C135.867 149.305 135.533 149.013 135.144 149.047C134.754 149.081 134.464 149.427 134.497 149.805C134.531 150.194 134.877 150.484 135.266 150.45ZM135.414 157.981L136.416 157.893L135.897 151.951L134.894 152.039L135.414 157.981ZM137.781 156.954C138.382 157.579 139.157 157.891 140.101 157.809C141.209 157.712 142.032 156.939 141.947 155.829C141.77 153.802 138.824 154.487 138.707 153.155C138.667 152.695 138.976 152.288 139.613 152.232C140.131 152.187 140.604 152.43 140.962 152.851L141.606 152.2C141.143 151.659 140.377 151.322 139.528 151.396C138.384 151.496 137.661 152.332 137.743 153.263C137.926 155.361 140.856 154.63 140.973 155.962C141.018 156.481 140.676 156.915 140.016 156.973C139.414 157.025 138.893 156.774 138.435 156.291L137.781 156.954ZM142.962 156.501C143.563 157.126 144.338 157.438 145.282 157.355C146.39 157.258 147.213 156.485 147.128 155.376C146.951 153.348 144.005 154.034 143.888 152.701C143.848 152.242 144.157 151.834 144.794 151.779C145.313 151.733 145.785 151.977 146.143 152.397L146.787 151.747C146.324 151.205 145.558 150.868 144.709 150.943C143.565 151.043 142.842 151.878 142.924 152.81C143.107 154.908 146.037 154.177 146.154 155.509C146.199 156.028 145.857 156.462 145.197 156.519C144.595 156.572 144.074 156.32 143.616 155.838L142.962 156.501ZM148.748 149.271C149.138 149.237 149.416 148.891 149.382 148.502C149.349 148.125 149.015 147.834 148.626 147.868C148.237 147.902 147.946 148.248 147.979 148.625C148.013 149.014 148.359 149.305 148.748 149.271ZM148.897 156.801L149.899 156.714L149.379 150.772L148.377 150.859L148.897 156.801ZM157.213 155.088L156.42 154.575C156.077 155.14 155.459 155.55 154.693 155.617C153.42 155.729 152.437 154.947 152.276 153.524L156.839 153.125C156.86 152.957 156.876 152.729 156.855 152.494C156.727 151.032 155.579 149.992 153.964 150.133C152.125 150.294 151.092 151.798 151.25 153.602C151.401 155.335 152.768 156.7 154.772 156.525C155.881 156.428 156.724 155.879 157.213 155.088ZM154.014 150.984C155.064 150.892 155.729 151.57 155.841 152.44L152.28 152.751C152.403 151.707 153.036 151.07 154.014 150.984ZM158.867 155.929L159.869 155.841L159.512 151.762C159.825 151.129 160.297 150.684 161.075 150.616C161.311 150.595 161.49 150.603 161.671 150.635L161.585 149.656C161.44 149.622 161.261 149.613 161.072 149.63C160.318 149.696 159.805 150.085 159.414 150.642L159.349 149.899L158.347 149.987L158.867 155.929Z" fill="black"/>
<path d="M74.7112 201.588L73.1883 201.722C72.9918 201.739 72.8389 201.663 72.7295 201.495C72.6198 201.328 72.6151 201.157 72.7154 200.983L75.9254 195.381C75.9972 195.26 76.0966 195.17 76.2237 195.114C76.3508 195.057 76.486 195.048 76.6295 195.085C76.773 195.122 76.8829 195.199 76.9591 195.316C77.0354 195.433 77.0714 195.562 77.0672 195.702L76.9525 198.917L78.856 198.751C79.0689 198.732 79.2266 198.813 79.3292 198.994C79.4315 199.175 79.4202 199.353 79.2954 199.529L75.6783 204.721C75.5975 204.836 75.4931 204.915 75.3649 204.959C75.2368 205.003 75.1088 205.002 74.981 204.956C74.8532 204.909 74.7493 204.829 74.6695 204.716C74.5894 204.604 74.5514 204.477 74.5556 204.337L74.7112 201.588Z" fill="#646464"/>
<path d="M93.1515 202.702C91.2887 202.865 89.8265 201.496 89.6656 199.657C89.5047 197.818 90.707 196.216 92.5698 196.053C93.678 195.956 94.6333 196.419 95.2575 197.172L96.0819 196.411C95.2387 195.463 93.9645 194.885 92.479 195.015C89.8971 195.241 88.3157 197.399 88.522 199.757C88.7283 202.115 90.6603 203.966 93.2423 203.74C94.7278 203.61 95.8833 202.831 96.5481 201.74L95.6041 201.133C95.1201 201.983 94.2598 202.605 93.1515 202.702ZM100.322 196.658C98.4 196.826 97.2321 198.413 97.3837 200.146C97.5353 201.879 98.9611 203.239 100.883 203.071C102.793 202.904 103.973 201.316 103.821 199.583C103.669 197.85 102.232 196.49 100.322 196.658ZM100.812 202.127C99.5388 202.238 98.5413 201.292 98.433 200.054C98.3247 198.816 99.1428 197.711 100.416 197.6C101.654 197.491 102.652 198.438 102.76 199.676C102.867 200.902 102.05 202.019 100.812 202.127ZM105.692 202.413L106.694 202.325L106.334 198.211C106.657 197.553 107.156 197.01 108.016 196.935C108.936 196.854 109.591 197.415 109.684 198.476L109.995 202.036L110.997 201.949L110.683 198.353C110.535 196.667 109.466 195.858 108.134 195.974C107.25 196.051 106.67 196.482 106.233 197.055L106.174 196.383L105.172 196.471L105.692 202.413ZM111.716 195.898L111.796 196.806L112.916 196.708L113.356 201.742L114.37 201.654L113.93 196.619L115.993 196.439L115.914 195.531L113.85 195.712L113.784 194.957C113.716 194.179 114.124 193.68 114.796 193.621C115.138 193.591 115.418 193.674 115.657 193.819L116.032 192.943C115.685 192.783 115.235 192.668 114.693 192.715C113.396 192.829 112.662 193.808 112.772 195.069L112.836 195.8L111.716 195.898ZM117.506 193.835C117.895 193.801 118.174 193.456 118.14 193.067C118.107 192.69 117.773 192.398 117.384 192.432C116.994 192.467 116.704 192.813 116.737 193.19C116.771 193.579 117.117 193.869 117.506 193.835ZM117.654 201.366L118.656 201.279L118.137 195.337L117.134 195.424L117.654 201.366ZM120.021 200.34C120.622 200.964 121.397 201.276 122.341 201.194C123.449 201.097 124.272 200.324 124.187 199.215C124.01 197.187 121.064 197.872 120.947 196.54C120.907 196.08 121.216 195.673 121.853 195.617C122.371 195.572 122.844 195.816 123.202 196.236L123.846 195.586C123.383 195.044 122.617 194.707 121.768 194.781C120.624 194.881 119.901 195.717 119.983 196.648C120.166 198.747 123.096 198.015 123.213 199.347C123.258 199.866 122.916 200.3 122.256 200.358C121.654 200.41 121.133 200.159 120.675 199.676L120.021 200.34ZM131.083 199.205L130.289 198.693C129.947 199.257 129.329 199.668 128.563 199.735C127.29 199.846 126.306 199.065 126.146 197.641L130.709 197.242C130.73 197.074 130.746 196.847 130.725 196.611C130.597 195.149 129.449 194.109 127.834 194.251C125.994 194.412 124.962 195.916 125.12 197.719C125.271 199.453 126.638 200.818 128.642 200.643C129.75 200.546 130.593 199.997 131.083 199.205ZM127.884 195.102C128.934 195.01 129.599 195.688 129.71 196.557L126.15 196.869C126.272 195.825 126.906 195.187 127.884 195.102ZM136.56 197.146C136.662 198.313 136.084 199.041 135.094 199.128C134.08 199.216 133.397 198.599 133.294 197.432L132.997 194.036L131.995 194.124L132.289 197.484C132.445 199.264 133.561 200.212 135.165 200.072C136.78 199.931 137.715 198.803 137.559 197.023L137.265 193.663L136.263 193.751L136.56 197.146ZM139.76 199.432L140.762 199.345L140.405 195.265C140.718 194.632 141.19 194.187 141.968 194.119C142.204 194.098 142.383 194.106 142.564 194.138L142.478 193.159C142.333 193.125 142.154 193.117 141.965 193.133C141.211 193.199 140.698 193.588 140.307 194.145L140.242 193.403L139.24 193.49L139.76 199.432Z" fill="black"/>
<path d="M78.3431 243.102L76.8202 243.235C76.6237 243.253 76.4708 243.177 76.3614 243.009C76.2517 242.842 76.247 242.671 76.3473 242.497L79.5573 236.895C79.6291 236.773 79.7286 236.684 79.8556 236.627C79.9827 236.571 80.118 236.561 80.2614 236.598C80.4049 236.635 80.5148 236.712 80.591 236.829C80.6673 236.946 80.7033 237.075 80.6991 237.216L80.5844 240.431L82.4879 240.265C82.7008 240.246 82.8585 240.327 82.9611 240.508C83.0634 240.689 83.0521 240.867 82.9273 241.043L79.3102 246.235C79.2294 246.349 79.125 246.429 78.9968 246.473C78.8687 246.517 78.7407 246.516 78.6129 246.469C78.4851 246.423 78.3813 246.343 78.3014 246.23C78.2213 246.118 78.1833 245.991 78.1875 245.851L78.3431 243.102Z" fill="#646464"/>
<path d="M96.7834 244.216C94.9207 244.379 93.4585 243.01 93.2975 241.171C93.1366 239.332 94.3389 237.73 96.2017 237.567C97.3099 237.47 98.2652 237.932 98.8894 238.686L99.7138 237.925C98.8706 236.977 97.5964 236.399 96.1109 236.529C93.529 236.755 91.9476 238.913 92.1539 241.271C92.3602 243.629 94.2923 245.479 96.8742 245.253C98.3597 245.123 99.5153 244.345 100.18 243.254L99.236 242.647C98.752 243.497 97.8917 244.119 96.7834 244.216ZM101.898 244.576L102.9 244.489L102.54 240.374C102.863 239.728 103.35 239.175 104.222 239.098C105.153 239.017 105.797 239.578 105.889 240.639L106.201 244.2L107.203 244.112L106.888 240.516C106.741 238.83 105.672 238.021 104.34 238.138C103.456 238.215 102.876 238.646 102.439 239.219L102.126 235.646L101.124 235.734L101.898 244.576ZM111.391 237.521C109.47 237.689 108.302 239.276 108.453 241.009C108.605 242.742 110.031 244.102 111.952 243.934C113.862 243.767 115.042 242.179 114.89 240.446C114.739 238.713 113.301 237.354 111.391 237.521ZM111.882 242.99C110.608 243.101 109.611 242.155 109.503 240.917C109.394 239.679 110.212 238.574 111.486 238.463C112.724 238.355 113.721 239.301 113.829 240.539C113.937 241.765 113.12 242.882 111.882 242.99ZM119.492 242.324C118.207 242.437 117.213 241.526 117.101 240.252C116.991 238.991 117.811 237.909 119.084 237.798C119.827 237.733 120.459 238.034 120.87 238.521L121.608 237.85C120.99 237.168 120.075 236.761 119.002 236.855C117.033 237.027 115.901 238.611 116.052 240.344C116.204 242.077 117.594 243.441 119.563 243.268C120.648 243.174 121.467 242.627 121.956 241.835L121.114 241.303C120.794 241.854 120.223 242.26 119.492 242.324ZM125.357 236.299C123.435 236.467 122.267 238.054 122.419 239.787C122.571 241.52 123.996 242.881 125.918 242.712C127.828 242.545 129.008 240.957 128.856 239.224C128.705 237.491 127.267 236.132 125.357 236.299ZM125.847 241.768C124.574 241.88 123.577 240.933 123.468 239.695C123.36 238.457 124.178 237.352 125.451 237.241C126.689 237.133 127.687 238.079 127.795 239.317C127.902 240.543 127.085 241.66 125.847 241.768ZM130.727 242.054L131.729 241.966L130.956 233.124L129.954 233.212L130.727 242.054ZM135.477 241.805C136.243 241.738 136.992 241.328 137.389 240.711L137.455 241.465L138.457 241.378L138.108 237.393C137.994 236.084 137.021 235.278 135.512 235.41C134.474 235.501 133.675 236.011 133.218 236.763L134.023 237.275C134.344 236.736 134.871 236.369 135.555 236.31C136.403 236.235 137.034 236.655 137.106 237.481L137.142 237.893L135.167 238.399C133.924 238.721 133.296 239.418 133.374 240.314C133.463 241.328 134.31 241.907 135.477 241.805ZM134.385 240.19C134.341 239.683 134.674 239.285 135.476 239.073L137.206 238.624L137.309 239.791C136.975 240.462 136.36 240.896 135.57 240.965C134.874 241.026 134.43 240.697 134.385 240.19ZM140.635 239.18C140.762 240.63 141.563 241.225 142.883 241.109C143.307 241.072 143.622 240.997 143.894 240.855L143.816 239.959C143.6 240.073 143.333 240.143 142.944 240.177C142.225 240.24 141.731 240.022 141.649 239.091L141.383 236.049L143.446 235.869L143.367 234.961L141.304 235.141L141.174 233.656L140.16 233.744L140.29 235.23L139.17 235.328L139.249 236.236L140.369 236.138L140.635 239.18ZM145.27 233.238C145.659 233.204 145.938 232.859 145.904 232.47C145.871 232.092 145.537 231.801 145.148 231.835C144.758 231.869 144.468 232.215 144.501 232.592C144.535 232.982 144.881 233.272 145.27 233.238ZM145.418 240.769L146.42 240.681L145.901 234.739L144.898 234.827L145.418 240.769ZM153.735 239.055L152.941 238.542C152.599 239.107 151.981 239.517 151.215 239.584C149.942 239.696 148.958 238.915 148.798 237.491L153.361 237.092C153.382 236.924 153.398 236.697 153.377 236.461C153.249 234.999 152.101 233.959 150.486 234.1C148.646 234.261 147.614 235.765 147.772 237.569C147.923 239.302 149.29 240.668 151.294 240.492C152.403 240.395 153.246 239.846 153.735 239.055ZM150.536 234.951C151.586 234.859 152.251 235.538 152.363 236.407L148.802 236.719C148.924 235.674 149.558 235.037 150.536 234.951ZM155.389 239.896L156.391 239.809L156.034 235.73C156.347 235.096 156.819 234.651 157.597 234.583C157.833 234.562 158.012 234.57 158.193 234.602L158.107 233.624C157.962 233.589 157.783 233.581 157.594 233.597C156.839 233.663 156.327 234.053 155.936 234.61L155.871 233.867L154.869 233.954L155.389 239.896Z" fill="black"/>
</g>
<g clip-path="url(#clip0_5297_13164)">
<path d="M226.523 142.195C229.647 145.542 232.658 148.741 235.654 151.95C236.255 152.587 236.678 153.037 237.299 153.959C237.767 154.64 238.729 156.104 237.893 156.451C237.173 156.666 236.634 156.727 235.482 155.721C232.522 153.107 229.974 150.074 227.43 147.078C225.185 144.432 223.513 142.379 221.666 139.92C220.803 138.772 221.096 137.91 222.297 137.352C223.376 136.852 224.474 136.32 225.626 136.032C229.775 134.971 233.935 134.022 238.105 133.027C238.623 132.9 239.019 132.77 239.656 132.707C240.428 132.638 240.987 132.545 241.202 133.266C241.413 133.949 240.54 134.459 240.05 134.628C235.983 136.136 227.542 139.105 227.129 139.365C229.502 140.478 231.675 141.557 233.912 142.517C249.522 149.125 265.47 154.565 282.514 156.15C296.005 157.404 309.411 157.04 322.75 154.609C323.539 154.47 324.349 154.397 325.131 154.343C326.189 154.253 326.756 154.394 326.84 154.938C326.859 155.981 326.157 156.224 325.613 156.467C324.535 156.968 323.336 157.245 322.175 157.519C306.603 161.019 290.934 160.858 275.22 158.634C259.092 156.354 244.139 150.566 229.625 143.486C228.874 143.083 226.923 142.262 226.523 142.195Z" fill="black"/>
</g>
<g filter="url(#filter1_d_5297_13164)">
<g clip-path="url(#clip1_5297_13164)">
<rect x="2.00031" y="297.554" width="341.682" height="69.4215" rx="16" transform="rotate(-5 2.00031 297.554)" fill="white"/>
<path d="M48.7239 317.214C48.4838 317.235 48.2756 317.172 48.0992 317.023C47.9224 316.875 47.8234 316.681 47.8024 316.441C47.7814 316.201 47.8451 315.993 47.9936 315.816C48.1415 315.639 48.3355 315.541 48.5756 315.52L54.507 315.001C54.7471 314.98 54.9556 315.043 55.1324 315.191C55.3088 315.34 55.4075 315.534 55.4285 315.774C55.4495 316.014 55.386 316.222 55.2381 316.399C55.0896 316.576 54.8954 316.675 54.6553 316.696L48.7239 317.214ZM49.3169 323.993C49.0769 324.014 48.8686 323.95 48.6923 323.802C48.5154 323.654 48.4165 323.46 48.3955 323.22C48.3745 322.98 48.4382 322.771 48.5867 322.594C48.7346 322.418 48.9286 322.32 49.1687 322.299L55.1001 321.78C55.3401 321.759 55.5486 321.822 55.7255 321.97C55.9019 322.118 56.0005 322.313 56.0215 322.553C56.0425 322.793 55.9791 323.001 55.8311 323.177C55.6827 323.354 55.4884 323.453 55.2483 323.474L49.3169 323.993ZM59.5603 317.376L57.5791 315.714C57.4102 315.572 57.3152 315.381 57.2942 315.141C57.2732 314.901 57.3336 314.697 57.4753 314.528C57.6171 314.359 57.808 314.264 58.0481 314.243C58.2882 314.222 58.4927 314.282 58.6616 314.424L59.9747 315.526L62.7196 312.255C62.8743 312.07 63.0648 311.972 63.2914 311.959C63.518 311.946 63.7234 312.017 63.9077 312.172C64.0779 312.328 64.1729 312.519 64.1927 312.745C64.2124 312.971 64.152 313.175 64.0115 313.358L60.7466 317.273C60.5919 317.457 60.4016 317.559 60.1757 317.579C59.9497 317.598 59.7446 317.531 59.5603 317.376ZM60.1534 324.155L58.1722 322.493C58.0033 322.351 57.9083 322.16 57.8873 321.92C57.8663 321.68 57.9267 321.475 58.0684 321.306C58.2102 321.138 58.4011 321.043 58.6412 321.022C58.8812 321.001 59.0857 321.061 59.2547 321.203L60.5678 322.304L63.3127 319.033C63.4673 318.849 63.6579 318.75 63.8845 318.737C64.1111 318.725 64.3165 318.796 64.5008 318.951C64.671 319.107 64.7659 319.297 64.7857 319.523C64.8055 319.749 64.7451 319.954 64.6046 320.137L61.3396 324.051C61.185 324.236 60.9947 324.338 60.7687 324.357C60.5428 324.377 60.3377 324.31 60.1534 324.155Z" fill="#646464"/>
<path d="M36.8035 345.121L37.7593 345.037L37.2487 339.2L39.6201 342.415L40.3522 342.351L42.1294 338.773L42.64 344.61L43.5958 344.526L42.9731 337.409L41.7529 337.515L39.891 341.295L37.401 337.896L36.1808 338.003L36.8035 345.121ZM47.4589 338.82C45.8015 338.965 44.7942 340.333 44.9249 341.828C45.0557 343.323 46.2854 344.496 47.9428 344.351C49.59 344.207 50.6075 342.837 50.4767 341.342C50.3459 339.848 49.1061 338.675 47.4589 338.82ZM47.8818 343.537C46.7836 343.633 45.9233 342.817 45.8299 341.749C45.7365 340.681 46.442 339.728 47.5402 339.632C48.6078 339.539 49.4682 340.355 49.5616 341.422C49.6541 342.48 48.9494 343.443 47.8818 343.537ZM52.0903 343.783L52.9546 343.708L52.6442 340.159C52.9224 339.592 53.3528 339.124 54.095 339.059C54.8881 338.989 55.453 339.473 55.533 340.388L55.8017 343.458L56.666 343.383L56.3947 340.282C56.2674 338.828 55.3457 338.13 54.1967 338.23C53.4341 338.297 52.9338 338.668 52.557 339.162L52.5063 338.583L51.642 338.658L52.0903 343.783ZM60.5358 342.337C61.0543 342.876 61.7233 343.145 62.5368 343.074C63.4926 342.991 64.2027 342.324 64.1293 341.367C63.9762 339.618 61.4357 340.209 61.3352 339.06C61.3005 338.664 61.5669 338.313 62.116 338.265C62.5634 338.226 62.9711 338.436 63.2795 338.798L63.8349 338.237C63.4354 337.77 62.7748 337.48 62.0427 337.544C61.0564 337.63 60.4329 338.35 60.5032 339.154C60.6616 340.964 63.1883 340.333 63.2889 341.482C63.328 341.929 63.0329 342.303 62.4635 342.353C61.9449 342.398 61.4956 342.182 61.1006 341.765L60.5358 342.337ZM69.0313 340.088C69.1193 341.095 68.621 341.722 67.7668 341.797C66.8924 341.873 66.3028 341.341 66.2147 340.334L65.9585 337.406L65.0942 337.482L65.3477 340.379C65.4821 341.915 66.445 342.732 67.8278 342.611C69.2209 342.489 70.0272 341.517 69.8929 339.982L69.6393 337.084L68.7751 337.16L69.0313 340.088ZM71.6634 335.565C71.9989 335.535 72.2392 335.238 72.2099 334.902C72.1814 334.577 71.893 334.325 71.5575 334.355C71.2219 334.384 70.9714 334.683 70.9999 335.008C71.0292 335.343 71.3278 335.594 71.6634 335.565ZM71.791 342.06L72.6553 341.984L72.2069 336.859L71.3427 336.935L71.791 342.06ZM73.2609 336.767L75.7123 341.717L76.8511 341.617L78.4059 336.317L77.4704 336.399L76.2026 340.762L74.1963 336.685L73.2609 336.767ZM79.7859 334.854C80.1215 334.825 80.3618 334.527 80.3324 334.191C80.304 333.866 80.0156 333.615 79.68 333.644C79.3445 333.673 79.094 333.972 79.1224 334.297C79.1518 334.633 79.4504 334.883 79.7859 334.854ZM79.9136 341.349L80.7779 341.273L80.3295 336.149L79.4652 336.224L79.9136 341.349Z" fill="#646464"/>
<g clip-path="url(#clip2_5297_13164)">
<path d="M133.467 314.07L138.572 313.623C138.812 313.602 139.002 313.503 139.144 313.327C139.285 313.151 139.345 312.944 139.324 312.704C139.303 312.463 139.204 312.269 139.028 312.121C138.851 311.973 138.642 311.909 138.402 311.93L133.297 312.377C133.057 312.398 132.866 312.496 132.725 312.672C132.584 312.848 132.524 313.056 132.545 313.297C132.566 313.537 132.665 313.731 132.841 313.879C133.018 314.027 133.226 314.091 133.467 314.07ZM133.244 311.528L141.739 310.785C141.979 310.764 142.169 310.665 142.311 310.489C142.452 310.313 142.512 310.105 142.491 309.865C142.47 309.625 142.371 309.431 142.194 309.282C142.018 309.134 141.809 309.071 141.569 309.092L133.075 309.835C132.835 309.856 132.644 309.954 132.503 310.13C132.362 310.306 132.302 310.514 132.323 310.755C132.344 310.995 132.442 311.189 132.619 311.337C132.796 311.485 133.004 311.549 133.244 311.528ZM133.022 308.986L141.516 308.243C141.756 308.222 141.947 308.123 142.088 307.947C142.229 307.771 142.289 307.563 142.268 307.323C142.247 307.083 142.148 306.889 141.971 306.74C141.795 306.592 141.587 306.529 141.347 306.55L132.852 307.293C132.612 307.314 132.422 307.412 132.28 307.588C132.139 307.764 132.079 307.972 132.1 308.213C132.121 308.453 132.22 308.647 132.396 308.795C132.573 308.943 132.782 309.007 133.022 308.986ZM129.643 319.164L128.489 305.967C128.448 305.501 128.579 305.087 128.882 304.726C129.185 304.366 129.569 304.165 130.035 304.124L143.592 302.938C144.058 302.897 144.472 303.028 144.833 303.331C145.194 303.634 145.395 304.018 145.435 304.484L146.325 314.652C146.366 315.119 146.235 315.532 145.932 315.893C145.629 316.254 145.245 316.455 144.779 316.495L132.916 317.533L131.137 319.653C130.893 319.944 130.59 320.031 130.231 319.913C129.873 319.795 129.677 319.546 129.643 319.164ZM131.16 316.982L132.068 315.9L144.63 314.801L143.741 304.633L130.183 305.819L131.16 316.982Z" fill="#646464"/>
</g>
<path d="M118.129 338.006L119.085 337.922L118.575 332.085L120.946 335.3L121.678 335.236L123.455 331.658L123.966 337.495L124.922 337.411L124.299 330.294L123.079 330.4L121.217 334.18L118.727 330.781L117.507 330.888L118.129 338.006ZM131.394 335.995L130.709 335.552C130.414 336.039 129.881 336.393 129.22 336.451C128.122 336.547 127.274 335.873 127.136 334.646L131.071 334.302C131.089 334.157 131.103 333.961 131.085 333.757C130.975 332.496 129.985 331.599 128.591 331.721C127.005 331.86 126.115 333.157 126.251 334.713C126.382 336.208 127.56 337.385 129.289 337.234C130.245 337.15 130.972 336.677 131.394 335.995ZM128.635 332.455C129.54 332.376 130.114 332.961 130.21 333.711L127.139 333.98C127.245 333.079 127.791 332.529 128.635 332.455ZM132.17 336.07C132.689 336.609 133.358 336.878 134.171 336.807C135.127 336.723 135.837 336.057 135.764 335.1C135.611 333.351 133.07 333.942 132.97 332.793C132.935 332.397 133.201 332.046 133.75 331.997C134.198 331.958 134.606 332.169 134.914 332.531L135.469 331.97C135.07 331.503 134.409 331.212 133.677 331.276C132.691 331.363 132.067 332.083 132.138 332.887C132.296 334.696 134.823 334.066 134.923 335.215C134.962 335.662 134.667 336.036 134.098 336.086C133.579 336.131 133.13 335.914 132.735 335.498L132.17 336.07ZM136.639 335.679C137.157 336.218 137.826 336.487 138.64 336.416C139.595 336.332 140.305 335.666 140.232 334.709C140.079 332.96 137.539 333.551 137.438 332.402C137.403 332.006 137.67 331.655 138.219 331.607C138.666 331.567 139.074 331.778 139.382 332.14L139.938 331.579C139.538 331.112 138.878 330.821 138.145 330.885C137.159 330.972 136.536 331.692 136.606 332.496C136.764 334.306 139.291 333.675 139.392 334.824C139.431 335.271 139.136 335.645 138.566 335.695C138.048 335.74 137.598 335.524 137.203 335.107L136.639 335.679ZM143.143 335.961C143.804 335.903 144.449 335.549 144.792 335.017L144.849 335.668L145.713 335.592L145.412 332.155C145.314 331.027 144.474 330.332 143.173 330.446C142.278 330.524 141.589 330.963 141.195 331.613L141.889 332.054C142.166 331.589 142.62 331.273 143.21 331.221C143.942 331.157 144.486 331.519 144.548 332.231L144.579 332.587L142.876 333.023C141.804 333.301 141.262 333.902 141.329 334.675C141.406 335.549 142.136 336.049 143.143 335.961ZM142.201 334.568C142.163 334.13 142.451 333.788 143.142 333.604L144.634 333.217L144.722 334.224C144.435 334.802 143.904 335.177 143.223 335.236C142.623 335.289 142.24 335.005 142.201 334.568ZM146.938 336.417C147.028 337.444 148.076 337.947 149.591 337.814C151.126 337.68 152.134 336.783 152.04 335.705C151.96 334.79 151.271 334.184 149.919 334.302L148.455 334.43C148.14 334.458 148.014 334.315 147.996 334.102C147.979 333.908 148.085 333.715 148.285 333.543C148.504 333.586 148.752 333.605 149.006 333.583C150.236 333.475 150.926 332.575 150.84 331.599C150.814 331.294 150.717 331.005 150.552 330.763L151.66 330.666L151.595 329.914L149.693 330.08C149.407 329.972 149.064 329.92 148.688 329.953C147.468 330.06 146.768 330.961 146.854 331.947C146.904 332.517 147.214 333.012 147.691 333.309C147.316 333.597 147.132 333.952 147.168 334.358C147.192 334.633 147.338 334.897 147.588 335.059C147.111 335.46 146.893 335.899 146.938 336.417ZM148.956 332.901C148.194 332.967 147.733 332.506 147.678 331.875C147.623 331.245 147.995 330.7 148.758 330.633C149.5 330.568 149.972 331.039 150.027 331.67C150.081 332.29 149.699 332.836 148.956 332.901ZM147.773 336.242C147.738 335.835 147.924 335.512 148.257 335.216L149.915 335.071C150.83 334.991 151.138 335.353 151.181 335.841C151.239 336.512 150.596 336.999 149.518 337.093C148.501 337.182 147.827 336.862 147.773 336.242ZM157.35 333.724L156.666 333.282C156.37 333.768 155.838 334.122 155.177 334.18C154.079 334.276 153.231 333.603 153.093 332.375L157.028 332.031C157.046 331.886 157.059 331.69 157.042 331.486C156.931 330.226 155.941 329.329 154.548 329.45C152.962 329.589 152.071 330.886 152.207 332.442C152.338 333.937 153.517 335.114 155.245 334.963C156.201 334.88 156.928 334.406 157.35 333.724ZM154.592 330.184C155.497 330.105 156.07 330.69 156.167 331.44L153.096 331.709C153.202 330.808 153.748 330.258 154.592 330.184ZM158.127 333.799C158.645 334.338 159.314 334.607 160.128 334.536C161.083 334.452 161.793 333.786 161.72 332.829C161.567 331.08 159.027 331.671 158.926 330.522C158.891 330.126 159.158 329.775 159.707 329.727C160.154 329.687 160.562 329.898 160.87 330.26L161.426 329.699C161.026 329.232 160.366 328.941 159.633 329.006C158.647 329.092 158.024 329.812 158.094 330.616C158.252 332.426 160.779 331.795 160.88 332.944C160.919 333.391 160.624 333.765 160.054 333.815C159.536 333.86 159.086 333.644 158.691 333.227L158.127 333.799Z" fill="#646464"/>
<g clip-path="url(#clip3_5297_13164)">
<path d="M225.278 308.62C225.447 308.762 225.651 308.822 225.891 308.801C226.131 308.78 226.322 308.685 226.464 308.516C226.606 308.347 226.666 308.143 226.645 307.903C226.624 307.663 226.529 307.472 226.36 307.33L224.771 305.996C224.942 305.682 225.063 305.352 225.132 305.004C225.201 304.657 225.219 304.292 225.186 303.911C225.093 302.852 224.644 301.984 223.838 301.307C223.031 300.631 222.098 300.339 221.039 300.431C219.98 300.524 219.112 300.973 218.435 301.779C217.759 302.586 217.467 303.519 217.56 304.578C217.652 305.637 218.102 306.505 218.908 307.182C219.714 307.858 220.647 308.15 221.706 308.057C222.073 308.025 222.426 307.945 222.763 307.816C223.1 307.686 223.409 307.51 223.688 307.286L225.278 308.62ZM221.558 306.363C220.965 306.415 220.446 306.254 220 305.88C219.555 305.506 219.306 305.023 219.254 304.43C219.202 303.837 219.363 303.317 219.737 302.872C220.111 302.427 220.594 302.178 221.187 302.126C221.781 302.074 222.3 302.235 222.745 302.609C223.191 302.983 223.439 303.466 223.491 304.059C223.543 304.652 223.382 305.171 223.008 305.617C222.635 306.062 222.151 306.311 221.558 306.363ZM215.648 312.003C215.182 312.044 214.768 311.913 214.408 311.61C214.047 311.307 213.846 310.922 213.805 310.456L212.915 300.288C212.874 299.822 213.006 299.409 213.309 299.048C213.611 298.687 213.996 298.486 214.462 298.445L228.019 297.259C228.485 297.218 228.899 297.35 229.26 297.653C229.621 297.955 229.821 298.34 229.862 298.806L230.752 308.974C230.792 309.44 230.662 309.853 230.359 310.215C230.056 310.575 229.671 310.776 229.205 310.817L215.648 312.003Z" fill="#3B69D1"/>
</g>
<path d="M198.975 330.932L200.419 330.806L200.167 327.929L200.91 327.864L203.063 330.575L204.761 330.426L202.258 327.469C202.961 327.069 203.322 326.392 203.246 325.528C203.131 324.206 202.094 323.487 200.529 323.624L198.353 323.815L198.975 330.932ZM200.715 324.817C201.325 324.764 201.713 325.099 201.76 325.638C201.811 326.217 201.486 326.604 200.876 326.658L200.062 326.729L199.901 324.888L200.715 324.817ZM210.128 329.117L209.138 328.465C208.896 328.855 208.429 329.142 207.87 329.191C207.067 329.261 206.443 328.927 206.238 327.981L209.827 327.667C209.852 327.491 209.87 327.223 209.845 326.938C209.728 325.596 208.708 324.712 207.284 324.837C205.606 324.983 204.76 326.318 204.893 327.833C205.023 329.327 206.161 330.509 207.982 330.349C208.948 330.265 209.706 329.799 210.128 329.117ZM207.346 325.897C208.068 325.834 208.49 326.319 208.555 326.836L206.196 327.042C206.28 326.359 206.685 325.955 207.346 325.897ZM213.703 328.619C212.839 328.695 212.163 328.109 212.083 327.204C212.005 326.309 212.568 325.604 213.412 325.53C213.941 325.484 214.368 325.682 214.643 326.017L215.582 325.156C215.049 324.567 214.261 324.226 213.326 324.308C211.557 324.463 210.61 325.826 210.741 327.321C210.872 328.816 212.041 329.994 213.81 329.839C214.745 329.758 215.462 329.285 215.885 328.613L214.811 327.928C214.598 328.305 214.212 328.575 213.703 328.619ZM216.922 329.362L218.213 329.249L217.921 325.904C218.085 325.562 218.393 325.094 219.043 325.037C219.684 324.981 220.098 325.375 220.157 326.057L220.42 329.056L221.721 328.942L221.454 325.892C221.322 324.377 220.37 323.692 219.262 323.789C218.581 323.848 218.126 324.154 217.8 324.531L217.546 321.623L216.255 321.736L216.922 329.362ZM227.833 327.568L226.843 326.916C226.601 327.306 226.134 327.593 225.575 327.642C224.772 327.712 224.148 327.378 223.942 326.432L227.532 326.118C227.557 325.942 227.575 325.674 227.55 325.389C227.432 324.047 226.412 323.163 224.989 323.288C223.311 323.434 222.465 324.769 222.597 326.284C222.728 327.778 223.866 328.96 225.686 328.8C226.652 328.716 227.411 328.25 227.833 327.568ZM225.051 324.348C225.773 324.285 226.194 324.77 226.26 325.287L223.901 325.493C223.985 324.81 224.39 324.406 225.051 324.348ZM229.076 328.299L230.367 328.186L230.08 324.902C230.245 324.559 230.621 324.178 231.252 324.123C231.485 324.102 231.661 324.118 231.827 324.144L231.716 322.873C231.59 322.843 231.435 322.826 231.262 322.841C230.683 322.892 230.269 323.195 229.963 323.57L229.919 323.061L228.628 323.174L229.076 328.299ZM235.36 326.725C234.496 326.8 233.819 326.214 233.74 325.309C233.662 324.414 234.225 323.709 235.069 323.635C235.598 323.589 236.025 323.787 236.3 324.122L237.239 323.261C236.706 322.672 235.918 322.331 234.983 322.413C233.214 322.568 232.267 323.932 232.398 325.426C232.529 326.921 233.697 328.1 235.467 327.945C236.402 327.863 237.119 327.39 237.542 326.718L236.468 326.033C236.255 326.411 235.868 326.68 235.36 326.725ZM238.579 327.468L239.87 327.355L239.577 324.009C239.742 323.667 240.05 323.2 240.7 323.143C241.341 323.087 241.755 323.481 241.814 324.162L242.077 327.162L243.378 327.048L243.111 323.997C242.979 322.482 242.027 321.797 240.919 321.894C240.238 321.954 239.783 322.26 239.457 322.637L239.203 319.729L237.912 319.841L238.579 327.468ZM249.489 325.673L248.5 325.022C248.258 325.412 247.791 325.698 247.232 325.747C246.428 325.818 245.805 325.483 245.599 324.538L249.188 324.224C249.214 324.047 249.232 323.779 249.207 323.495C249.089 322.153 248.069 321.268 246.646 321.393C244.968 321.54 244.122 322.874 244.254 324.389C244.385 325.884 245.523 327.065 247.343 326.906C248.309 326.821 249.068 326.355 249.489 325.673ZM246.708 322.453C247.43 322.39 247.851 322.876 247.917 323.392L245.558 323.599C245.642 322.915 246.047 322.511 246.708 322.453Z" fill="#3B69D1"/>
<path d="M298.607 304.958L296.684 303.483C295.143 302.294 293.694 301.062 292.338 299.786C290.981 298.51 290.224 296.983 290.069 295.203C289.938 293.706 290.337 292.412 291.266 291.32C292.195 290.229 293.408 289.617 294.905 289.486C295.738 289.413 296.501 289.517 297.195 289.798C297.888 290.079 298.456 290.385 298.897 290.717C299.275 290.314 299.781 289.914 300.415 289.517C301.049 289.12 301.782 288.885 302.616 288.812C304.113 288.681 305.413 289.072 306.518 289.986C307.622 290.9 308.24 292.105 308.371 293.602C308.527 295.381 308.048 297.017 306.933 298.509C305.818 300.001 304.612 301.459 303.313 302.881L301.657 304.691C301.269 305.138 300.779 305.387 300.185 305.439C299.592 305.491 299.066 305.331 298.607 304.958ZM298.046 293.182C297.77 292.793 297.376 292.44 296.864 292.121C296.353 291.804 295.765 291.674 295.101 291.732C294.226 291.808 293.523 292.154 292.994 292.77C292.464 293.386 292.237 294.131 292.314 295.007C292.381 295.769 292.716 296.544 293.318 297.331C293.921 298.118 294.627 298.878 295.438 299.61C296.25 300.344 297.077 301.019 297.921 301.635C298.765 302.251 299.453 302.764 299.987 303.172C300.442 302.677 301.031 302.053 301.755 301.3C302.479 300.546 303.177 299.738 303.849 298.875C304.52 298.012 305.084 297.141 305.541 296.262C305.998 295.382 306.192 294.561 306.126 293.798C306.049 292.923 305.697 292.228 305.068 291.714C304.44 291.199 303.688 290.981 302.812 291.057C302.148 291.115 301.589 291.345 301.132 291.748C300.677 292.151 300.354 292.567 300.164 292.996C300.069 293.204 299.93 293.369 299.749 293.492C299.567 293.614 299.378 293.684 299.18 293.702C298.968 293.72 298.762 293.685 298.562 293.596C298.362 293.506 298.19 293.368 298.046 293.182Z" fill="#646464"/>
<path d="M285.873 323.33L286.829 323.246L286.547 320.023L289.007 319.808L288.937 319.004L286.477 319.22L286.277 316.942L289.145 316.691L289.073 315.878L285.25 316.212L285.873 323.33ZM292.119 322.927C292.78 322.869 293.425 322.515 293.768 321.983L293.825 322.634L294.689 322.558L294.389 319.122C294.29 317.993 293.451 317.298 292.149 317.412C291.254 317.49 290.565 317.93 290.171 318.579L290.866 319.02C291.142 318.555 291.596 318.239 292.186 318.187C292.918 318.123 293.462 318.486 293.524 319.197L293.556 319.553L291.852 319.989C290.78 320.267 290.238 320.868 290.306 321.641C290.382 322.515 291.113 323.015 292.119 322.927ZM291.178 321.534C291.139 321.097 291.427 320.754 292.118 320.57L293.611 320.184L293.699 321.19C293.411 321.769 292.881 322.143 292.199 322.203C291.599 322.255 291.216 321.971 291.178 321.534ZM295.153 317.354L297.604 322.303L298.743 322.204L300.298 316.904L299.362 316.986L298.094 321.349L296.088 317.272L295.153 317.354ZM303.598 316.41C301.941 316.555 300.934 317.924 301.064 319.419C301.195 320.913 302.425 322.087 304.082 321.942C305.73 321.798 306.747 320.428 306.616 318.933C306.485 317.438 305.246 316.266 303.598 316.41ZM304.021 321.127C302.923 321.223 302.063 320.407 301.969 319.34C301.876 318.272 302.582 317.319 303.68 317.223C304.747 317.129 305.608 317.945 305.701 319.013C305.794 320.071 305.089 321.034 304.021 321.127ZM308.23 321.374L309.094 321.298L308.786 317.78C309.056 317.234 309.463 316.85 310.134 316.791C310.338 316.773 310.492 316.78 310.648 316.808L310.574 315.964C310.449 315.934 310.294 315.927 310.132 315.941C309.481 315.998 309.039 316.334 308.702 316.814L308.646 316.174L307.781 316.249L308.23 321.374ZM312.144 314.525C312.479 314.496 312.719 314.198 312.69 313.863C312.662 313.537 312.373 313.286 312.038 313.315C311.702 313.345 311.452 313.643 311.48 313.969C311.509 314.304 311.808 314.555 312.144 314.525ZM312.271 321.02L313.136 320.945L312.687 315.82L311.823 315.896L312.271 321.02ZM314.312 320.135C314.83 320.673 315.5 320.943 316.313 320.872C317.269 320.788 317.979 320.121 317.905 319.165C317.752 317.416 315.212 318.007 315.111 316.858C315.077 316.461 315.343 316.11 315.892 316.062C316.34 316.023 316.747 316.233 317.056 316.596L317.611 316.035C317.212 315.568 316.551 315.277 315.819 315.341C314.833 315.427 314.209 316.148 314.279 316.951C314.438 318.761 316.965 318.13 317.065 319.279C317.104 319.727 316.809 320.101 316.24 320.151C315.721 320.196 315.272 319.979 314.877 319.563L314.312 320.135Z" fill="#646464"/>
</g>
</g>
<defs>
<filter id="filter0_d_5297_13164" x="20.6138" y="-13.9678" width="309.863" height="306.765" filterUnits="userSpaceOnUse" color-interpolation-filters="sRGB">
<feFlood flood-opacity="0" result="BackgroundImageFix"/>
<feColorMatrix in="SourceAlpha" type="matrix" values="0 0 0 0 0 0 0 0 0 0 0 0 0 0 0 0 0 0 127 0" result="hardAlpha"/>
<feOffset dy="4.41346"/>
<feGaussianBlur stdDeviation="9.19471"/>
<feComposite in2="hardAlpha" operator="out"/>
<feColorMatrix type="matrix" values="0 0 0 0 0.196078 0 0 0 0 0.196078 0 0 0 0 0.196078 0 0 0 0.1 0"/>
<feBlend mode="normal" in2="BackgroundImageFix" result="effect1_dropShadow_5297_13164"/>
<feBlend mode="normal" in="SourceGraphic" in2="effect1_dropShadow_5297_13164" result="shape"/>
</filter>
<filter id="filter1_d_5297_13164" x="-23.0036" y="248.772" width="396.441" height="148.945" filterUnits="userSpaceOnUse" color-interpolation-filters="sRGB">
<feFlood flood-opacity="0" result="BackgroundImageFix"/>
<feColorMatrix in="SourceAlpha" type="matrix" values="0 0 0 0 0 0 0 0 0 0 0 0 0 0 0 0 0 0 127 0" result="hardAlpha"/>
<feOffset dy="6"/>
<feGaussianBlur stdDeviation="12.5"/>
<feComposite in2="hardAlpha" operator="out"/>
<feColorMatrix type="matrix" values="0 0 0 0 0.196078 0 0 0 0 0.196078 0 0 0 0 0.196078 0 0 0 0.1 0"/>
<feBlend mode="normal" in2="BackgroundImageFix" result="effect1_dropShadow_5297_13164"/>
<feBlend mode="normal" in="SourceGraphic" in2="effect1_dropShadow_5297_13164" result="shape"/>
</filter>
<clipPath id="clip0_5297_13164">
<rect width="97" height="97" fill="white" transform="translate(258.801 213.809) rotate(-122.212)"/>
</clipPath>
<clipPath id="clip1_5297_13164">
<rect x="2.00031" y="297.554" width="341.682" height="69.4215" rx="16" transform="rotate(-5 2.00031 297.554)" fill="white"/>
</clipPath>
<clipPath id="clip2_5297_13164">
<rect width="20.4107" height="20.4107" fill="white" transform="translate(126.498 302.726) rotate(-5)"/>
</clipPath>
<clipPath id="clip3_5297_13164">
<rect width="20.4107" height="20.4107" fill="white" transform="translate(210.776 295.352) rotate(-5)"/>
</clipPath>
</defs>
</svg>
