<svg width="352" height="372" viewBox="0 0 352 372" fill="none" xmlns="http://www.w3.org/2000/svg">
<rect x="24.1751" y="123.935" width="306.95" height="200.637" rx="12.9695" transform="rotate(-5 24.1751 123.935)" fill="#F1F1F1" stroke="#878787" stroke-width="1.12778" stroke-dasharray="5.64 5.64"/>
<path d="M4.09211 83.7981L7.35891 83.5123L12.8726 94.9546L16.3156 82.7287L19.5824 82.4429L15.1742 98.0886L11.1502 98.4407L4.09211 83.7981ZM25.9588 85.7219C29.5069 85.4115 32.159 87.8172 32.4448 91.084C32.7306 94.3509 30.5365 97.1806 26.9885 97.491C23.4404 97.8014 20.7883 95.3957 20.5025 92.1289C20.2167 88.862 22.4108 86.0323 25.9588 85.7219ZM26.8046 94.8911C28.557 94.7378 29.7537 93.2161 29.589 91.3339C29.4225 89.4301 27.9816 88.1609 26.2292 88.3142C24.4119 88.4732 23.1917 89.9752 23.3583 91.879C23.5248 93.7828 24.9873 95.0501 26.8046 94.8911ZM35.6451 92.2865L35.2552 87.8298L33.2215 88.0077L33.0057 85.5413L35.0394 85.3634L34.8009 82.6375L37.5701 82.3952L37.8086 85.1211L41.1403 84.8297L41.3561 87.296L38.0244 87.5875L38.4143 92.0442C38.5203 93.2557 39.211 93.6749 40.2927 93.5803C41.0499 93.514 41.5399 93.3839 41.8944 93.2003L42.1045 95.6017C41.5845 95.887 40.9449 96.052 40.0363 96.1315C37.3103 96.37 35.8779 94.9475 35.6451 92.2865ZM44.5549 95.5182L43.6009 84.6144L46.3485 84.374L46.4431 85.4557C47.0927 84.6577 47.9738 84.0138 49.2069 83.9059C49.5747 83.8737 49.9049 83.9103 50.1721 83.9741L50.4087 86.6784C50.055 86.6221 49.6815 86.5894 49.1839 86.6329C47.8426 86.7503 47.0416 87.5616 46.6911 88.2898L47.3024 95.2778L44.5549 95.5182ZM62.7623 92.1376C61.8647 93.5896 60.251 94.5809 58.1957 94.7607C54.3232 95.0996 51.9015 92.5864 51.6232 89.4061C51.3412 86.1826 53.142 83.3436 56.7117 83.0313C59.7406 82.7663 61.9107 84.6475 62.1606 87.5032C62.2136 88.109 62.1763 88.6791 62.1219 89.0544L54.4849 89.7226C54.9225 91.7335 56.2492 92.4458 57.9583 92.2963C59.1482 92.1922 60.1412 91.5821 60.6572 90.7522L62.7623 92.1376ZM56.8437 85.287C55.4374 85.41 54.5753 86.2703 54.3973 87.7246L59.4165 87.2855C59.2767 86.1859 58.3797 85.1526 56.8437 85.287ZM71.7044 98.5057L70.2848 82.2798L73.0324 82.0395L73.11 82.9265C73.8799 82.0089 74.8984 81.4402 76.3912 81.3096C79.8527 81.0068 82.1662 83.5294 82.4444 86.7096C82.7227 89.8899 80.8824 92.7759 77.4208 93.0788C75.9281 93.2094 74.8263 92.8262 73.9088 92.0562L74.452 98.2653L71.7044 98.5057ZM76.2289 83.9398C74.9525 84.0515 73.9632 84.7048 73.3599 85.7822L73.6589 89.2005C74.4853 90.1746 75.5495 90.6265 76.8043 90.5167C78.6649 90.3539 79.7552 88.8633 79.5887 86.9595C79.4221 85.0557 78.0895 83.777 76.2289 83.9398ZM85.4364 91.9415L84.4825 81.0377L87.23 80.7973L87.3247 81.8791C87.9743 81.081 88.8553 80.4371 90.0885 80.3292C90.4563 80.2971 90.7865 80.3336 91.0537 80.3974L91.2903 83.1017C90.9365 83.0455 90.5631 83.0127 90.0655 83.0563C88.7242 83.1736 87.9231 83.9849 87.5726 84.7132L88.184 91.7011L85.4364 91.9415ZM97.9611 79.4225C101.509 79.1121 104.161 81.5179 104.447 84.7847C104.733 88.0515 102.539 90.8812 98.9908 91.1916C95.4427 91.5021 92.7906 89.0963 92.5048 85.8295C92.219 82.5627 94.413 79.7329 97.9611 79.4225ZM98.8069 88.5917C100.559 88.4384 101.756 86.9167 101.591 85.0345C101.425 83.1307 99.9839 81.8615 98.2315 82.0148C96.4142 82.1738 95.194 83.6758 95.3606 85.5796C95.5271 87.4835 96.9896 88.7507 98.8069 88.5917ZM112.582 87.3866C113.664 87.2919 114.486 86.7186 114.939 85.916L117.224 87.3728C116.325 88.8031 114.799 89.8086 112.809 89.9827C109.045 90.312 106.558 87.8046 106.28 84.6243C106.002 81.444 108.015 78.5429 111.779 78.2135C113.77 78.0394 115.446 78.7647 116.581 80.0171L114.583 81.8487C113.997 81.1369 113.088 80.715 111.963 80.8135C110.168 80.9706 108.969 82.4706 109.136 84.3745C109.304 86.2999 110.743 87.5474 112.582 87.3866ZM119.43 88.9674L118.011 72.7415L120.758 72.5012L121.3 78.6886C121.993 77.8868 122.96 77.2353 124.41 77.1085C126.768 76.9022 128.792 78.3601 129.074 81.5837L129.642 88.074L126.873 88.3163L126.314 81.9341C126.188 80.4846 125.308 79.646 123.945 79.7652C122.56 79.8864 121.906 80.881 121.555 81.6093L122.178 88.727L119.43 88.9674ZM135.862 87.8568C133.677 88.048 132.075 86.9238 131.899 84.9118C131.755 83.2675 132.923 81.9227 135.226 81.3289L138.508 80.4749L138.484 80.1936C138.383 79.047 137.454 78.3871 136.199 78.4969C135.139 78.5897 134.36 79.1592 133.846 80.0108L131.7 78.6507C132.556 77.2242 134.085 76.2621 136.075 76.0879C139.234 75.8116 141.021 77.5518 141.231 79.9532L141.848 87.0061L139.101 87.2465L139.008 86.1864C138.39 87.0907 137.139 87.7451 135.862 87.8568ZM134.613 84.5435C134.678 85.279 135.303 85.7039 136.234 85.6225C137.488 85.5127 138.346 84.8491 138.811 83.9364L138.677 82.4003L136.119 83.0602C134.989 83.3552 134.555 83.8728 134.613 84.5435ZM145.259 73.8021C144.285 73.8872 143.391 73.1371 143.306 72.1635C143.221 71.19 143.971 70.2959 144.945 70.2107C145.918 70.1256 146.79 70.8777 146.876 71.8512C146.961 72.8248 146.232 73.7169 145.259 73.8021ZM144.995 86.7308L144.041 75.827L146.788 75.5867L147.742 86.4904L144.995 86.7308ZM151.037 86.2022L150.083 75.2984L152.831 75.058L152.906 75.9234C153.599 75.1216 154.567 74.4701 156.016 74.3433C158.375 74.137 160.399 75.5949 160.681 78.8184L161.249 85.3088L158.479 85.5511L157.921 79.1689C157.794 77.7194 156.893 76.8827 155.551 77C154.167 77.1211 153.512 78.1158 153.162 78.8441L153.785 85.9618L151.037 86.2022ZM170.2 84.5257L169.246 73.6219L171.993 73.3815L172.088 74.4632C172.738 73.6652 173.619 73.0213 174.852 72.9134C175.22 72.8812 175.55 72.9178 175.817 72.9816L176.054 75.6859C175.7 75.6296 175.326 75.5969 174.829 75.6404C173.487 75.7578 172.686 76.5691 172.336 77.2974L172.947 84.2853L170.2 84.5257ZM188.407 81.1451C187.51 82.5971 185.896 83.5884 183.841 83.7683C179.968 84.1071 177.546 81.5939 177.268 78.4136C176.986 75.1901 178.787 72.3511 182.357 72.0388C185.385 71.7739 187.556 73.655 187.805 76.5107C187.858 77.1165 187.821 77.6866 187.767 78.0619L180.13 78.7301C180.567 80.741 181.894 81.4533 183.603 81.3038C184.793 81.1997 185.786 80.5896 186.302 79.7597L188.407 81.1451ZM182.489 74.2945C181.082 74.4175 180.22 75.2778 180.042 76.7321L185.061 76.293C184.922 75.1934 184.025 74.1601 182.489 74.2945ZM191.052 82.7013L190.098 71.7975L192.846 71.5571L192.922 72.4225C193.615 71.6207 194.582 70.9692 196.032 70.8424C198.39 70.6361 200.414 72.094 200.696 75.3176L201.264 81.8079L198.495 82.0502L197.936 75.668C197.81 74.2185 196.908 73.3818 195.567 73.4991C194.182 73.6203 193.528 74.6149 193.177 75.3432L193.8 82.4609L191.052 82.7013ZM203.128 76.1512C202.85 72.9709 204.712 70.083 208.152 69.7821C209.623 69.6534 210.723 70.0149 211.64 70.7849L211.099 64.5974L213.868 64.3551L215.288 80.581L212.518 80.8233L212.443 79.9579C211.673 80.8754 210.652 81.4225 209.181 81.5512C205.741 81.8522 203.406 79.3315 203.128 76.1512ZM206.005 75.8995C206.172 77.8033 207.483 79.0838 209.344 78.921C210.577 78.8131 211.548 78.2049 212.197 77.1454L211.886 73.5973C211.064 72.6665 210.001 72.2362 208.768 72.3441C206.908 72.5069 205.839 73.9956 206.005 75.8995ZM228.465 77.6405C227.567 79.0925 225.953 80.0839 223.898 80.2637C220.026 80.6025 217.604 78.0893 217.326 74.9091C217.044 71.6855 218.844 68.8466 222.414 68.5343C225.443 68.2693 227.613 70.1504 227.863 73.0062C227.916 73.6119 227.879 74.182 227.824 74.5573L220.187 75.2255C220.625 77.2364 221.952 77.9488 223.661 77.7992C224.851 77.6951 225.844 77.085 226.36 76.2551L228.465 77.6405ZM222.546 70.7899C221.14 70.9129 220.278 71.7732 220.1 73.2276L225.119 72.7884C224.979 71.6889 224.082 70.6555 222.546 70.7899ZM230.529 79.2475L230.314 76.7812L235.33 70.3255L229.964 70.7949L229.749 68.3286L238.554 67.5582L238.77 70.0245L233.754 76.4802L239.443 75.9824L239.659 78.4487L230.529 79.2475ZM240.707 71.4464L246.549 70.9354L246.781 73.5964L240.94 74.1075L240.707 71.4464ZM246.493 66.8636L249.436 66.6062L252.951 74.1466L255.082 66.1122L258.046 65.8529L255.019 77.1049L251.406 77.421L246.493 66.8636ZM264.804 64.8256C268.352 64.5152 271.005 66.921 271.29 70.1878C271.576 73.4546 269.382 76.2843 265.834 76.5947C262.286 76.9052 259.634 74.4994 259.348 71.2326C259.062 67.9658 261.256 65.136 264.804 64.8256ZM265.65 73.9948C267.403 73.8415 268.599 72.3198 268.435 70.4376C268.268 68.5338 266.827 67.2646 265.075 67.4179C263.258 67.5769 262.037 69.0789 262.204 70.9827C262.37 72.8866 263.833 74.1538 265.65 73.9948ZM281.043 70.0757L280.502 63.8882L283.271 63.6459L283.801 69.7036C284.087 72.9704 282.359 75.149 279.157 75.4291C275.955 75.7092 273.897 73.8619 273.611 70.5951L273.081 64.5374L275.851 64.2952L276.392 70.4826C276.53 72.0619 277.437 72.9636 278.952 72.8311C280.445 72.7005 281.182 71.655 281.043 70.0757ZM286.092 72.795L287.766 70.9918C288.51 71.7768 289.364 72.3126 290.402 72.2217C291.289 72.1441 291.698 71.5851 291.641 70.9361C291.475 69.0323 286.323 70.2024 285.988 66.3731C285.82 64.4476 287.315 62.8561 289.587 62.6574C291.253 62.5116 292.837 63.1796 293.709 64.1716L292.032 65.9315C291.409 65.2884 290.645 64.7884 289.802 64.8622C288.936 64.9379 288.567 65.4498 288.616 66.0123C288.779 67.8729 293.936 66.7677 294.265 70.5321C294.423 72.8292 292.694 74.2448 290.638 74.4247C288.691 74.595 287.238 73.9373 286.092 72.795Z" fill="#3B69D1"/>
<g filter="url(#filter0_d_5455_13534)">
<rect x="6.79012" y="118.375" width="310.374" height="189.647" rx="7.23792" transform="rotate(-5 6.79012 118.375)" fill="white" shape-rendering="crispEdges"/>
<rect x="22.4752" y="131.537" width="71.487" height="29.2425" rx="7.23792" transform="rotate(-5 22.4752 131.537)" fill="#EEF1F8"/>
<path d="M32.7604 150.334L31.9875 141.5L36.9094 141.069L37.0165 142.293L33.5333 142.598L33.7519 145.097L36.7303 144.836L36.8374 146.06L33.859 146.321L34.092 148.984L37.5751 148.679L37.6822 149.903L32.7604 150.334ZM39.6303 149.733L39.0738 143.372L40.3737 143.258L40.4278 143.877C40.8632 143.33 41.4622 142.909 42.3708 142.829C43.7716 142.707 44.9272 143.559 45.0884 145.402L45.4229 149.226L44.1104 149.341L43.7803 145.567C43.692 144.558 43.0837 144.001 42.175 144.08C41.3042 144.156 40.8343 144.744 40.5547 145.328L40.9301 149.619L39.6303 149.733ZM47.6293 146.807L47.3687 143.829L46.1698 143.934L46.0671 142.76L47.266 142.655L47.1269 141.065L48.4394 140.95L48.5785 142.541L50.6861 142.356L50.7888 143.53L48.6812 143.714L48.9418 146.693C49.0169 147.551 49.4955 147.789 50.2022 147.727C50.6313 147.689 50.9171 147.613 51.1366 147.505L51.237 148.654C50.9452 148.806 50.5974 148.9 50.1052 148.943C48.616 149.074 47.7651 148.36 47.6293 146.807ZM52.7927 148.581L52.2362 142.221L53.5361 142.107L53.599 142.826C53.9976 142.295 54.522 141.893 55.3045 141.825C55.5064 141.807 55.699 141.829 55.8675 141.865L55.979 143.139C55.7726 143.107 55.5674 143.086 55.3024 143.11C54.4947 143.18 54.0022 143.656 53.7216 144.227L54.0925 148.467L52.7927 148.581ZM63.1768 146.63C62.6532 147.477 61.7245 148.054 60.5383 148.158C58.3424 148.35 56.9045 146.886 56.7422 145.031C56.5754 143.125 57.6534 141.492 59.6726 141.316C61.4268 141.162 62.6675 142.262 62.8088 143.877C62.8342 144.167 62.8217 144.461 62.7878 144.655L58.0931 145.065C58.3029 146.446 59.2114 147.091 60.4356 146.984C61.2054 146.917 61.8192 146.52 62.1641 145.955L63.1768 146.63ZM59.7423 142.403C58.7958 142.486 58.187 143.086 58.0712 144.088L61.4913 143.789C61.3965 142.996 60.7645 142.314 59.7423 142.403ZM65.0066 145.287L64.746 142.309L63.5471 142.414L63.4444 141.24L64.6433 141.135L64.5042 139.545L65.8167 139.43L65.9558 141.02L68.0634 140.836L68.1661 142.01L66.0585 142.194L66.3191 145.172C66.3942 146.03 66.8728 146.268 67.5795 146.207C68.0086 146.169 68.2944 146.093 68.5139 145.985L68.6143 147.133C68.3225 147.286 67.9747 147.38 67.4825 147.423C65.9933 147.553 65.1424 146.839 65.0066 145.287ZM70.1461 139.229C69.6665 139.271 69.2273 138.903 69.1854 138.423C69.1434 137.944 69.5119 137.505 69.9915 137.463C70.4711 137.421 70.9102 137.789 70.9522 138.269C70.9942 138.748 70.6257 139.187 70.1461 139.229ZM70.17 147.061L69.6135 140.7L70.9134 140.587L71.4698 146.947L70.17 147.061ZM79.2478 145.224C78.7242 146.071 77.7955 146.648 76.6092 146.752C74.4133 146.944 72.9754 145.48 72.8131 143.625C72.6464 141.719 73.7243 140.086 75.7435 139.91C77.4977 139.756 78.7384 140.856 78.8798 142.471C78.9051 142.761 78.8927 143.055 78.8588 143.249L74.1641 143.659C74.3739 145.04 75.2824 145.685 76.5065 145.578C77.2763 145.511 77.8901 145.114 78.235 144.549L79.2478 145.224ZM75.8132 140.997C74.8667 141.08 74.258 141.68 74.1422 142.682L77.5622 142.383C77.4674 141.59 76.8355 140.908 75.8132 140.997ZM80.9168 146.121L80.3603 139.76L81.6602 139.646L81.7143 140.265C82.1497 139.718 82.7487 139.297 83.6573 139.217C85.0582 139.095 86.2137 139.947 86.3749 141.79L86.7094 145.614L85.3969 145.729L85.0668 141.955C84.9785 140.946 84.3702 140.388 83.4615 140.468C82.5908 140.544 82.1208 141.132 81.8413 141.716L82.2167 146.007L80.9168 146.121Z" fill="#3B69D1"/>
<path d="M37.9032 185.91L37.9032 185.909L37.8973 185.907C37.7556 185.84 37.6604 185.702 37.6463 185.54L37.274 181.285C37.2643 181.174 37.3434 181.08 37.455 181.07L37.5091 181.065C37.6207 181.055 37.715 181.134 37.7248 181.246L38.0828 185.339L38.1052 185.595L38.3372 185.707L42.0071 187.475L42.0071 187.475L42.0141 187.478C42.1096 187.522 42.1519 187.639 42.1027 187.737L42.1026 187.737L42.0984 187.745C42.0593 187.827 41.949 187.878 41.8383 187.826L37.9032 185.91ZM29.4987 185.853C29.085 181.126 32.5776 176.955 37.3041 176.541C42.0404 176.127 46.2124 179.628 46.626 184.355C47.0395 189.082 43.5388 193.254 38.8025 193.669C34.0761 194.082 29.9123 190.581 29.4987 185.853ZM30.4001 185.775C30.7705 190.008 34.4994 193.137 38.7327 192.766C42.9659 192.396 46.0949 188.667 45.7245 184.434C45.3542 180.201 41.6252 177.072 37.3919 177.442C33.1587 177.812 30.0297 181.541 30.4001 185.775Z" fill="#3B69D1" stroke="#3B69D1" stroke-width="0.904739"/>
<path d="M53.3041 188.791L56.0522 179.648L57.6423 179.509L61.9362 188.035L60.6742 188.146L59.4245 185.635L55.3609 185.991L54.5661 188.68L53.3041 188.791ZM55.6627 184.934L58.9439 184.647L56.9378 180.614L55.6627 184.934ZM67.5212 184.8L67.2032 181.165L68.276 181.071L68.5906 184.668C68.7574 186.574 67.7566 187.78 66.0276 187.932C64.3113 188.082 63.1162 187.067 62.9494 185.162L62.6348 181.565L63.7075 181.471L64.0255 185.106C64.1348 186.355 64.8666 187.016 65.9519 186.921C67.012 186.828 67.6305 186.049 67.5212 184.8ZM70.7754 179.187C70.359 179.223 69.9884 178.912 69.952 178.496C69.9166 178.092 70.2276 177.722 70.644 177.685C71.0479 177.65 71.4184 177.961 71.4538 178.365C71.4902 178.781 71.1793 179.152 70.7754 179.187ZM72.0921 187.986C72.2334 189.601 71.5128 190.377 70.0867 190.501C69.6324 190.541 69.2872 190.52 68.9859 190.42L68.902 189.461C69.138 189.542 69.4453 189.566 69.8618 189.529C70.619 189.463 71.111 189.127 71.0194 188.08L70.39 180.886L71.4627 180.793L72.0921 187.986ZM76.6105 180.088C78.6549 179.909 80.1938 181.364 80.3561 183.219C80.5184 185.074 79.2556 186.774 77.2111 186.953C75.154 187.133 73.6278 185.677 73.4655 183.822C73.3032 181.967 74.5534 180.268 76.6105 180.088ZM77.1354 185.943C78.4605 185.827 79.3351 184.631 79.2203 183.319C79.1043 181.993 78.0365 180.981 76.7114 181.096C75.3484 181.216 74.4728 182.399 74.5887 183.724C74.7046 185.049 75.7724 186.062 77.1354 185.943ZM86.55 183.135L86.232 179.5L87.3047 179.407L87.6194 183.003C87.7861 184.909 86.7853 186.116 85.0564 186.267C83.34 186.417 82.1449 185.403 81.9782 183.497L81.6635 179.9L82.7362 179.806L83.0542 183.441C83.1635 184.69 83.8953 185.351 84.9807 185.256C86.0408 185.163 86.6593 184.384 86.55 183.135ZM89.9753 185.582L89.4188 179.222L90.4915 179.128L90.5611 179.923C90.9794 179.327 91.5279 178.91 92.3356 178.839C92.5375 178.822 92.7291 178.83 92.8849 178.868L92.9766 179.915C92.7828 179.881 92.5913 179.872 92.3389 179.895C91.506 179.967 91.0009 180.444 90.666 181.122L91.048 185.488L89.9753 185.582ZM93.7883 182.044C93.626 180.189 94.7626 178.5 96.7566 178.325C97.7031 178.243 98.4797 178.543 99.1039 179.137L98.7661 175.276L99.8388 175.182L100.667 184.647L99.5942 184.741L99.5279 183.983C99.0163 184.677 98.3038 185.108 97.3572 185.191C95.3633 185.365 93.9506 183.899 93.7883 182.044ZM94.9241 181.945C95.0423 183.295 96.0448 184.288 97.3951 184.17C98.2785 184.093 99.0234 183.595 99.4252 182.81L99.2066 180.311C98.6482 179.597 97.8419 179.248 96.9711 179.324C95.6208 179.442 94.806 180.594 94.9241 181.945ZM102.917 178.956L101.92 179.044L102.697 175.568L103.921 175.46L102.917 178.956ZM106.428 184.143L105.6 174.678L106.673 174.584L107.007 178.408C107.475 177.795 108.096 177.333 109.043 177.25C110.469 177.126 111.613 177.992 111.771 179.797L112.107 183.646L111.035 183.74L110.701 179.928C110.602 178.793 109.913 178.192 108.916 178.279C107.982 178.361 107.462 178.953 107.116 179.644L107.501 184.049L106.428 184.143ZM118.458 180.344L118.14 176.709L119.212 176.615L119.527 180.212C119.694 182.117 118.693 183.324 116.964 183.475C115.248 183.625 114.053 182.611 113.886 180.705L113.571 177.109L114.644 177.015L114.962 180.649C115.071 181.899 115.803 182.56 116.888 182.465C117.948 182.372 118.567 181.593 118.458 180.344ZM121.725 174.729C121.308 174.766 120.938 174.455 120.901 174.038C120.866 173.635 121.177 173.264 121.593 173.228C122.01 173.191 122.368 173.503 122.403 173.907C122.439 174.324 122.141 174.693 121.725 174.729ZM121.883 182.791L121.326 176.43L122.399 176.336L122.956 182.697L121.883 182.791ZM129.835 174.668L128.175 172.703L129.374 172.598L130.87 174.578L129.835 174.668ZM130.369 182.226C129.119 182.336 128.213 181.715 128.118 180.63C128.034 179.671 128.707 178.925 130.037 178.58L132.152 178.039L132.113 177.597C132.036 176.714 131.36 176.264 130.452 176.344C129.72 176.408 129.157 176.801 128.813 177.377L127.951 176.83C128.44 176.024 129.295 175.479 130.406 175.381C132.021 175.24 133.063 176.103 133.186 177.504L133.559 181.769L132.486 181.863L132.415 181.055C131.99 181.716 131.189 182.155 130.369 182.226ZM129.2 180.497C129.248 181.04 129.724 181.393 130.468 181.327C131.314 181.253 131.973 180.789 132.329 180.071L132.22 178.822L130.367 179.302C129.51 179.529 129.153 179.955 129.2 180.497ZM140.968 181.121L140.295 173.435L138.071 174.902L137.42 174.145L140.182 172.288L141.318 172.189L142.091 181.023L140.968 181.121ZM146.784 171.456C149.006 171.262 150.27 173.211 150.499 175.836C150.729 178.461 149.823 180.601 147.601 180.795C145.406 180.987 144.129 179.039 143.899 176.414C143.669 173.789 144.589 171.648 146.784 171.456ZM146.89 172.515C145.476 172.639 144.879 174.242 145.06 176.312C145.241 178.382 146.108 179.857 147.521 179.734C148.922 179.611 149.507 178.009 149.326 175.939C149.145 173.869 148.291 172.392 146.89 172.515ZM152.509 180.111L151.681 170.646L152.754 170.552L153.088 174.376C153.556 173.763 154.177 173.302 155.123 173.219C156.549 173.094 157.693 173.961 157.851 175.765L158.188 179.614L157.115 179.708L156.782 175.897C156.682 174.761 155.994 174.16 154.997 174.247C154.063 174.329 153.543 174.921 153.196 175.613L153.582 180.017L152.509 180.111ZM162.19 170.108C164.411 169.914 165.675 171.863 165.905 174.488C166.135 177.113 165.228 179.253 163.007 179.447C160.811 179.639 159.534 177.691 159.305 175.066C159.075 172.441 159.994 170.3 162.19 170.108ZM162.295 171.167C160.882 171.291 160.285 172.895 160.466 174.964C160.647 177.034 161.513 178.51 162.927 178.386C164.328 178.263 164.912 176.661 164.731 174.591C164.55 172.521 163.696 171.045 162.295 171.167ZM169.843 169.439C172.064 169.244 173.329 171.194 173.558 173.819C173.788 176.444 172.881 178.583 170.66 178.778C168.464 178.97 167.188 177.021 166.958 174.396C166.728 171.771 167.647 169.631 169.843 169.439ZM169.949 170.498C168.535 170.621 167.938 172.225 168.119 174.295C168.3 176.364 169.167 177.84 170.58 177.716C171.981 177.594 172.566 175.991 172.385 173.921C172.204 171.852 171.349 170.375 169.949 170.498Z" fill="#3B69D1"/>
<path d="M31.801 221.03L30.9177 210.934L34.0043 210.664C36.2254 210.469 37.6953 211.489 37.8593 213.364C37.9666 214.59 37.4547 215.55 36.4579 216.117L40.0077 220.312L37.5991 220.523L34.5449 216.677L33.492 216.769L33.8491 220.851L31.801 221.03ZM34.2685 212.356L33.1147 212.457L33.3431 215.067L34.4969 214.966C35.3623 214.89 35.823 214.341 35.751 213.519C35.6842 212.755 35.1339 212.28 34.2685 212.356ZM47.6204 218.454C47.022 219.422 45.9463 220.083 44.5761 220.203C41.9944 220.429 40.3799 218.753 40.1944 216.633C40.0064 214.484 41.207 212.591 43.5868 212.383C45.606 212.207 47.0528 213.461 47.2193 215.365C47.2547 215.768 47.2298 216.148 47.1935 216.399L42.1022 216.844C42.3939 218.185 43.2784 218.66 44.4178 218.56C45.2111 218.491 45.8731 218.084 46.2171 217.531L47.6204 218.454ZM43.6747 213.887C42.7372 213.969 42.1625 214.543 42.0438 215.512L45.39 215.219C45.2968 214.486 44.6988 213.797 43.6747 213.887ZM49.384 219.492L48.748 212.222L50.5798 212.062L50.6302 212.639C51.0921 212.105 51.7372 211.67 52.7036 211.586C54.2757 211.448 55.6251 212.42 55.8131 214.569L56.1917 218.896L54.3455 219.058L53.9733 214.803C53.8887 213.836 53.2877 213.279 52.3934 213.357C51.4704 213.438 51.0342 214.101 50.8006 214.586L51.2157 219.331L49.384 219.492ZM57.4344 215.125C57.2489 213.005 58.4902 211.079 60.7835 210.879C61.7642 210.793 62.4975 211.034 63.1092 211.547L62.7483 207.422L64.5944 207.261L65.5408 218.078L63.6947 218.24L63.6442 217.663C63.1309 218.274 62.4507 218.639 61.4699 218.725C59.1767 218.926 57.6199 217.245 57.4344 215.125ZM59.3527 214.957C59.4637 216.226 60.3377 217.08 61.5781 216.971C62.4002 216.899 63.0478 216.494 63.4801 215.788L63.2732 213.422C62.7248 212.802 62.0166 212.515 61.1945 212.587C59.9541 212.695 59.2416 213.688 59.3527 214.957ZM74.3255 216.118C73.7271 217.086 72.6513 217.747 71.2812 217.867C68.6994 218.092 67.085 216.417 66.8995 214.297C66.7115 212.148 67.912 210.255 70.2918 210.047C72.311 209.87 73.7578 211.124 73.9244 213.028C73.9597 213.432 73.9348 213.812 73.8986 214.062L68.8073 214.508C69.099 215.848 69.9835 216.323 71.1229 216.224C71.9161 216.154 72.5782 215.747 72.9222 215.194L74.3255 216.118ZM70.3798 211.551C69.4423 211.633 68.8675 212.206 68.7489 213.176L72.095 212.883C72.0018 212.15 71.4038 211.461 70.3798 211.551ZM75.702 217.189L75.5582 215.545L78.9022 211.241L75.3253 211.554L75.1814 209.91L81.0516 209.396L81.1954 211.04L77.8514 215.344L81.6447 215.012L81.7885 216.657L75.702 217.189ZM82.4873 211.988L86.3815 211.648L86.5367 213.422L82.6425 213.762L82.4873 211.988ZM86.3446 208.933L88.3061 208.762L90.6498 213.788L92.0705 208.432L94.0465 208.259L92.0286 215.761L89.62 215.971L86.3446 208.933ZM98.552 207.574C100.917 207.368 102.685 208.971 102.876 211.149C103.066 213.327 101.604 215.214 99.2384 215.421C96.8731 215.628 95.105 214.024 94.9145 211.846C94.7239 209.668 96.1866 207.781 98.552 207.574ZM99.1159 213.687C100.284 213.585 101.082 212.571 100.972 211.316C100.861 210.047 99.9005 209.2 98.7323 209.303C97.5207 209.409 96.7073 210.41 96.8183 211.679C96.9293 212.948 97.9043 213.793 99.1159 213.687ZM109.378 211.075L109.017 206.95L110.863 206.788L111.217 210.826C111.407 213.004 110.255 214.457 108.121 214.643C105.986 214.83 104.614 213.599 104.423 211.421L104.07 207.382L105.916 207.221L106.277 211.346C106.369 212.399 106.974 213 107.984 212.911C108.979 212.824 109.47 212.127 109.378 211.075ZM112.744 212.887L113.859 211.685C114.356 212.209 114.925 212.566 115.617 212.505C116.208 212.453 116.481 212.081 116.443 211.648C116.332 210.379 112.898 211.159 112.674 208.606C112.562 207.322 113.559 206.261 115.074 206.129C116.184 206.032 117.241 206.477 117.822 207.138L116.704 208.312C116.288 207.883 115.779 207.55 115.217 207.599C114.64 207.649 114.394 207.991 114.426 208.366C114.535 209.606 117.973 208.869 118.193 211.379C118.298 212.91 117.145 213.854 115.775 213.974C114.477 214.087 113.508 213.649 112.744 212.887ZM127.314 211.22C128.035 211.157 128.583 210.775 128.885 210.24L130.409 211.211C129.809 212.165 128.792 212.835 127.465 212.951C124.956 213.171 123.298 211.499 123.113 209.379C122.927 207.259 124.269 205.324 126.779 205.105C128.106 204.989 129.224 205.472 129.98 206.307L128.648 207.528C128.257 207.054 127.651 206.773 126.901 206.838C125.704 206.943 124.905 207.943 125.016 209.212C125.129 210.496 126.088 211.328 127.314 211.22ZM134.398 204.438C136.764 204.231 138.532 205.835 138.722 208.013C138.913 210.191 137.45 212.077 135.085 212.284C132.719 212.491 130.951 210.888 130.761 208.71C130.57 206.532 132.033 204.645 134.398 204.438ZM134.962 210.551C136.13 210.449 136.928 209.434 136.818 208.18C136.707 206.91 135.747 206.064 134.578 206.167C133.367 206.273 132.553 207.274 132.665 208.543C132.776 209.812 133.751 210.657 134.962 210.551ZM140.711 211.502L140.075 204.232L141.907 204.072L141.957 204.649C142.419 204.114 143.064 203.68 144.03 203.596C145.602 203.458 146.952 204.43 147.14 206.579L147.518 210.906L145.672 211.067L145.3 206.813C145.216 205.846 144.614 205.289 143.72 205.367C142.797 205.448 142.361 206.111 142.127 206.596L142.543 211.341L140.711 211.502ZM148.872 209.727L149.987 208.524C150.484 209.048 151.053 209.405 151.745 209.344C152.336 209.293 152.609 208.92 152.571 208.487C152.46 207.218 149.026 207.998 148.802 205.445C148.69 204.162 149.687 203.101 151.202 202.968C152.312 202.871 153.369 203.316 153.95 203.978L152.831 205.151C152.416 204.722 151.907 204.389 151.345 204.438C150.768 204.489 150.522 204.83 150.554 205.205C150.663 206.445 154.101 205.708 154.321 208.218C154.425 209.749 153.273 210.693 151.903 210.813C150.604 210.927 149.636 210.488 148.872 209.727ZM162.751 208.382C162.152 209.349 161.077 210.01 159.706 210.13C157.125 210.356 155.51 208.681 155.325 206.561C155.137 204.412 156.337 202.519 158.717 202.311C160.736 202.134 162.183 203.388 162.35 205.292C162.385 205.696 162.36 206.076 162.324 206.326L157.233 206.772C157.524 208.112 158.409 208.587 159.548 208.487C160.341 208.418 161.003 208.011 161.347 207.458L162.751 208.382ZM158.805 203.814C157.868 203.896 157.293 204.47 157.174 205.44L160.52 205.147C160.427 204.414 159.829 203.725 158.805 203.814ZM164.69 200.8C164.041 200.857 163.445 200.356 163.389 199.707C163.332 199.058 163.832 198.462 164.481 198.406C165.13 198.349 165.712 198.85 165.768 199.499C165.825 200.148 165.34 200.743 164.69 200.8ZM164.514 209.419L163.878 202.15L165.71 201.99L166.346 209.259L164.514 209.419ZM168.543 209.067L167.596 198.249L169.428 198.089L170.374 208.906L168.543 209.067ZM172.571 208.714L171.625 197.897L173.456 197.737L174.403 208.554L172.571 208.714ZM183.188 206.594C182.59 207.561 181.514 208.222 180.144 208.342C177.562 208.568 175.948 206.893 175.762 204.773C175.574 202.624 176.775 200.731 179.154 200.523C181.174 200.346 182.62 201.6 182.787 203.504C182.822 203.908 182.797 204.288 182.761 204.538L177.67 204.983C177.962 206.324 178.846 206.799 179.985 206.699C180.779 206.63 181.441 206.223 181.785 205.67L183.188 206.594ZM179.242 202.026C178.305 202.108 177.73 202.682 177.611 203.652L180.958 203.359C180.864 202.626 180.266 201.937 179.242 202.026ZM184.952 207.631L184.316 200.362L186.147 200.202L186.211 200.923C186.644 200.391 187.231 199.961 188.053 199.889C188.298 199.868 188.518 199.892 188.697 199.935L188.854 201.738C188.618 201.7 188.369 201.678 188.038 201.707C187.143 201.786 186.609 202.327 186.376 202.812L186.783 207.471L184.952 207.631Z" fill="#161616"/>
<path d="M34.1784 249.172L33.4055 240.338L38.1506 239.923L38.239 240.933L34.6801 241.244L34.9274 244.071L37.9815 243.804L38.0687 244.801L35.0146 245.068L35.3646 249.068L34.1784 249.172ZM41.9308 248.672C40.6814 248.781 39.7752 248.161 39.6802 247.076C39.5963 246.117 40.2686 245.371 41.5991 245.026L43.7136 244.485L43.675 244.043C43.5977 243.16 42.9225 242.71 42.0139 242.79C41.2819 242.854 40.7186 243.246 40.3748 243.823L39.513 243.275C40.0021 242.47 40.8573 241.924 41.9678 241.827C43.5832 241.686 44.6251 242.548 44.7477 243.949L45.1209 248.215L44.0482 248.309L43.9775 247.501C43.552 248.161 42.7511 248.6 41.9308 248.672ZM40.7622 246.943C40.8097 247.486 41.2856 247.838 42.0302 247.773C42.8758 247.699 43.5345 247.235 43.8914 246.517L43.7821 245.267L41.9293 245.747C41.0717 245.975 40.7148 246.4 40.7622 246.943ZM47.1145 239.965C46.698 240.002 46.3274 239.691 46.291 239.274C46.2557 238.87 46.5666 238.5 46.9831 238.463C47.3995 238.427 47.7575 238.739 47.7928 239.143C47.8292 239.559 47.5309 239.929 47.1145 239.965ZM47.2729 248.027L46.7164 241.666L47.7891 241.572L48.3456 247.933L47.2729 248.027ZM49.8058 246.927L50.5067 246.218C50.997 246.734 51.5547 247.003 52.1983 246.947C52.905 246.885 53.2713 246.421 53.2227 245.866C53.098 244.439 49.9619 245.223 49.7653 242.976C49.6781 241.979 50.4519 241.085 51.676 240.978C52.5847 240.898 53.4047 241.259 53.9005 241.839L53.2111 242.535C52.8284 242.085 52.3223 241.824 51.7671 241.873C51.0856 241.932 50.7549 242.368 50.798 242.86C50.9227 244.286 54.0759 243.553 54.2658 245.723C54.357 246.911 53.4756 247.738 52.2893 247.842C51.2797 247.93 50.4493 247.596 49.8058 246.927ZM58.4089 240.389C60.4533 240.21 61.9922 241.665 62.1545 243.52C62.3168 245.375 61.054 247.075 59.0095 247.254C56.9524 247.434 55.4262 245.978 55.2639 244.123C55.1016 242.268 56.3518 240.569 58.4089 240.389ZM58.9338 246.243C60.2589 246.127 61.1335 244.932 61.0187 243.619C60.9027 242.294 59.8349 241.281 58.5098 241.397C57.1469 241.516 56.2712 242.699 56.3871 244.025C56.503 245.35 57.5708 246.363 58.9338 246.243ZM64.1572 246.549L63.6008 240.189L64.6735 240.095L64.7364 240.814C65.2042 240.201 65.8251 239.74 66.7716 239.657C68.1977 239.532 69.3417 240.399 69.4995 242.203L69.8363 246.052L68.7636 246.146L68.4301 242.335C68.3308 241.199 67.6297 240.599 66.6454 240.685C65.7241 240.766 65.1899 241.347 64.8446 242.051L65.23 246.455L64.1572 246.549ZM71.2379 245.052L71.9387 244.343C72.429 244.859 72.9867 245.128 73.6303 245.072C74.337 245.01 74.7033 244.546 74.6548 243.99C74.53 242.564 71.3939 243.347 71.1974 241.101C71.1101 240.104 71.8839 239.21 73.1081 239.103C74.0167 239.023 74.8367 239.384 75.3325 239.964L74.6431 240.66C74.2604 240.21 73.7544 239.949 73.1991 239.998C72.5176 240.057 72.1869 240.493 72.23 240.985C72.3548 242.411 75.5079 241.678 75.6978 243.848C75.789 245.036 74.9076 245.863 73.7213 245.967C72.7117 246.055 71.8813 245.721 71.2379 245.052ZM80.9923 245.076L80.1642 235.611L81.2369 235.518L82.065 244.983L80.9923 245.076ZM89.8944 243.242C89.3708 244.089 88.4684 244.677 87.2821 244.781C85.1367 244.968 83.6736 243.507 83.5113 241.651C83.3423 239.721 84.4477 238.111 86.4165 237.938C88.1454 237.787 89.3746 238.9 89.5115 240.465C89.5336 240.718 89.5167 240.961 89.4943 241.141L84.6103 241.568C84.7818 243.092 85.8341 243.928 87.1971 243.809C88.0174 243.737 88.6784 243.298 89.0452 242.693L89.8944 243.242ZM86.4707 238.849C85.4233 238.941 84.7454 239.623 84.6143 240.741L88.4256 240.408C88.306 239.477 87.5939 238.751 86.4707 238.849ZM95.3383 246.95L94.5102 237.485L95.5829 237.391L95.6492 238.148C96.1608 237.455 96.8733 237.023 97.8198 236.941C99.8138 236.766 101.226 238.232 101.389 240.087C101.551 241.943 100.414 243.632 98.4205 243.806C97.474 243.889 96.6974 243.588 96.0731 242.994L96.411 246.856L95.3383 246.95ZM97.782 237.961C96.8985 238.039 96.1663 238.535 95.7529 239.334L95.9694 241.808C96.5289 242.535 97.3352 242.884 98.2059 242.807C99.5563 242.689 100.384 241.536 100.266 240.186C100.147 238.835 99.1323 237.843 97.782 237.961ZM105.784 236.244C107.828 236.065 109.367 237.52 109.529 239.375C109.692 241.23 108.429 242.93 106.384 243.109C104.327 243.289 102.801 241.833 102.639 239.978C102.476 238.123 103.727 236.424 105.784 236.244ZM106.309 242.099C107.634 241.983 108.508 240.787 108.393 239.475C108.277 238.149 107.21 237.137 105.885 237.252C104.522 237.372 103.646 238.555 103.762 239.88C103.878 241.205 104.946 242.218 106.309 242.099ZM111.374 234.343C110.957 234.38 110.587 234.069 110.55 233.652C110.515 233.249 110.826 232.878 111.242 232.842C111.659 232.805 112.017 233.117 112.052 233.521C112.088 233.937 111.79 234.307 111.374 234.343ZM111.532 242.405L110.976 236.044L112.048 235.95L112.605 242.311L111.532 242.405ZM114.872 242.112L114.315 235.752L115.388 235.658L115.451 236.377C115.919 235.764 116.54 235.303 117.486 235.22C118.912 235.095 120.056 235.962 120.214 237.766L120.551 241.616L119.478 241.709L119.145 237.898C119.045 236.762 118.344 236.162 117.36 236.248C116.439 236.329 115.905 236.91 115.559 237.614L115.945 242.019L114.872 242.112ZM122.89 239.262L122.605 236.006L121.406 236.111L121.321 235.139L122.52 235.034L122.381 233.444L123.466 233.349L123.605 234.939L125.814 234.746L125.899 235.718L123.69 235.911L123.975 239.167C124.062 240.164 124.591 240.397 125.361 240.33C125.777 240.294 126.063 240.218 126.294 240.096L126.378 241.055C126.086 241.208 125.75 241.288 125.296 241.328C123.882 241.451 123.025 240.814 122.89 239.262Z" fill="#646464"/>
<path d="M220.129 260.623L221.391 260.512L225.113 267.88L227.499 259.978L228.761 259.868L226 269.011L224.435 269.148L220.129 260.623ZM232.635 261.767C234.68 261.588 236.219 263.043 236.381 264.898C236.543 266.753 235.28 268.453 233.236 268.632C231.179 268.812 229.653 267.356 229.49 265.501C229.328 263.646 230.578 261.947 232.635 261.767ZM233.16 267.621C234.485 267.505 235.36 266.31 235.245 264.997C235.129 263.672 234.061 262.659 232.736 262.775C231.373 262.895 230.498 264.078 230.613 265.403C230.729 266.728 231.797 267.741 233.16 267.621ZM238.225 259.866C237.809 259.903 237.438 259.592 237.402 259.175C237.366 258.771 237.677 258.401 238.094 258.364C238.51 258.328 238.868 258.64 238.904 259.044C238.94 259.46 238.642 259.83 238.225 259.866ZM238.384 267.927L237.827 261.567L238.9 261.473L239.456 267.834L238.384 267.927ZM241.724 267.635L241.167 261.275L242.24 261.181L242.309 261.976C242.728 261.38 243.276 260.963 244.084 260.892C244.286 260.875 244.477 260.883 244.633 260.921L244.725 261.968C244.531 261.934 244.34 261.925 244.087 261.948C243.254 262.02 242.749 262.497 242.414 263.175L242.796 267.541L241.724 267.635ZM250.141 266.899L249.313 257.434L250.386 257.34L251.214 266.805L250.141 266.899ZM259.043 265.064C258.52 265.911 257.617 266.499 256.431 266.603C254.285 266.791 252.822 265.329 252.66 263.474C252.491 261.543 253.596 259.933 255.565 259.761C257.294 259.609 258.523 260.723 258.66 262.288C258.682 262.54 258.665 262.783 258.643 262.963L253.759 263.39C253.931 264.914 254.983 265.75 256.346 265.631C257.166 265.559 257.827 265.12 258.194 264.516L259.043 265.064ZM255.619 260.672C254.572 260.763 253.894 261.446 253.763 262.563L257.574 262.23C257.455 261.299 256.743 260.573 255.619 260.672ZM263.395 262.535C263.232 260.679 264.369 258.99 266.363 258.816C267.309 258.733 268.086 259.034 268.71 259.628L268.372 255.766L269.445 255.672L270.273 265.137L269.2 265.231L269.134 264.474C268.623 265.167 267.91 265.599 266.963 265.681C264.969 265.856 263.557 264.39 263.395 262.535ZM264.53 262.435C264.648 263.786 265.651 264.779 267.001 264.661C267.885 264.583 268.63 264.086 269.031 263.3L268.813 260.802C268.254 260.088 267.448 259.738 266.577 259.815C265.227 259.933 264.412 261.085 264.53 262.435ZM275.12 257.287L274.073 257.378L275.202 255.169L276.414 255.063L275.12 257.287ZM278.097 263.398C277.573 264.244 276.671 264.832 275.484 264.936C273.339 265.124 271.876 263.662 271.713 261.807C271.545 259.876 272.65 258.266 274.619 258.094C276.348 257.942 277.577 259.056 277.714 260.621C277.736 260.873 277.719 261.116 277.696 261.296L272.812 261.723C272.984 263.247 274.036 264.083 275.399 263.964C276.22 263.892 276.881 263.453 277.247 262.849L278.097 263.398ZM274.673 259.005C273.625 259.096 272.948 259.779 272.816 260.896L276.628 260.563C276.508 259.632 275.796 258.906 274.673 259.005ZM280.01 262.136L279.725 258.881L278.526 258.985L278.441 258.014L279.64 257.909L279.501 256.319L280.586 256.224L280.725 257.814L282.934 257.621L283.019 258.592L280.81 258.786L281.095 262.042C281.182 263.039 281.711 263.272 282.481 263.205C282.898 263.168 283.184 263.092 283.414 262.97L283.498 263.93C283.207 264.082 282.87 264.163 282.416 264.202C281.002 264.326 280.146 263.689 280.01 262.136ZM286.874 263.863C285.625 263.972 284.719 263.352 284.624 262.267C284.54 261.308 285.212 260.562 286.543 260.217L288.657 259.676L288.618 259.234C288.541 258.351 287.866 257.901 286.957 257.981C286.225 258.045 285.662 258.437 285.318 259.014L284.456 258.467C284.945 257.661 285.801 257.115 286.911 257.018C288.527 256.877 289.569 257.74 289.691 259.14L290.064 263.406L288.992 263.5L288.921 262.692C288.495 263.352 287.695 263.791 286.874 263.863ZM285.706 262.134C285.753 262.677 286.229 263.029 286.974 262.964C287.819 262.89 288.478 262.426 288.835 261.708L288.725 260.458L286.873 260.938C286.015 261.166 285.658 261.591 285.706 262.134ZM292.058 255.156C291.641 255.193 291.271 254.882 291.234 254.465C291.199 254.062 291.51 253.691 291.926 253.655C292.343 253.618 292.701 253.93 292.736 254.334C292.773 254.751 292.474 255.12 292.058 255.156ZM292.216 263.218L291.66 256.857L292.733 256.763L293.289 263.124L292.216 263.218ZM295.556 262.925L294.728 253.46L295.801 253.367L296.629 262.832L295.556 262.925Z" fill="#161616"/>
<path d="M306.113 261.94C305.933 261.789 305.832 261.586 305.81 261.33C305.788 261.075 305.852 260.857 306.003 260.678L309.211 256.855L305.387 253.646C305.208 253.496 305.107 253.293 305.084 253.037C305.062 252.782 305.126 252.564 305.277 252.384C305.428 252.205 305.631 252.104 305.886 252.081C306.142 252.059 306.359 252.123 306.539 252.274L311.048 256.058C311.146 256.14 311.219 256.232 311.266 256.334C311.313 256.436 311.341 256.547 311.352 256.667C311.362 256.787 311.353 256.902 311.325 257.01C311.297 257.119 311.241 257.222 311.159 257.32L307.375 261.829C307.224 262.009 307.021 262.11 306.766 262.132C306.51 262.155 306.293 262.091 306.113 261.94Z" fill="#161616"/>
</g>
<defs>
<filter id="filter0_d_5455_13534" x="-4.06844" y="84.0855" width="347.439" height="237.693" filterUnits="userSpaceOnUse" color-interpolation-filters="sRGB">
<feFlood flood-opacity="0" result="BackgroundImageFix"/>
<feColorMatrix in="SourceAlpha" type="matrix" values="0 0 0 0 0 0 0 0 0 0 0 0 0 0 0 0 0 0 127 0" result="hardAlpha"/>
<feOffset dy="3.61896"/>
<feGaussianBlur stdDeviation="5.42844"/>
<feComposite in2="hardAlpha" operator="out"/>
<feColorMatrix type="matrix" values="0 0 0 0 0.152941 0 0 0 0 0.286275 0 0 0 0 0.588235 0 0 0 0.12 0"/>
<feBlend mode="normal" in2="BackgroundImageFix" result="effect1_dropShadow_5455_13534"/>
<feBlend mode="normal" in="SourceGraphic" in2="effect1_dropShadow_5455_13534" result="shape"/>
</filter>
</defs>
</svg>
