<svg width="351" height="551" viewBox="0 0 351 551" fill="none"
    xmlns="http://www.w3.org/2000/svg">
    <g filter="url(#filter0_d_5487_14152)">
        <rect x="15" y="476.543" width="327.496" height="70" rx="8" transform="rotate(-5 15 476.543)" fill="white" shape-rendering="crispEdges"/>
        <path d="M44.6114 508.082C44.0635 508.13 43.5775 507.976 43.1536 507.621C42.7289 507.264 42.4926 506.812 42.4447 506.264L41.6603 497.299C41.6327 496.983 41.6772 496.678 41.794 496.383C41.9101 496.089 42.0847 495.839 42.3178 495.635L47.9027 490.629C48.0738 490.48 48.256 490.364 48.4494 490.28C48.6428 490.196 48.8475 490.145 49.0633 490.126C49.2791 490.107 49.4896 490.122 49.6946 490.171C49.8997 490.22 50.0993 490.303 50.2936 490.42L56.663 494.38C56.928 494.541 57.1436 494.756 57.3097 495.026C57.4752 495.296 57.5718 495.589 57.5994 495.904L58.3838 504.87C58.4317 505.418 58.2778 505.904 57.9222 506.329C57.5658 506.753 57.1136 506.989 56.5657 507.037L52.5809 507.385L51.9708 500.412L47.9861 500.76L48.5961 507.734L44.6114 508.082Z" fill="#3B69D1"/>
        <path d="M31.1471 529.337L33.5829 520.692L35.8064 520.497L39.7064 528.588L37.9013 528.746L36.91 526.64L33.5628 526.933L32.9522 529.179L31.1471 529.337ZM33.9622 525.441L36.2575 525.24L34.8348 522.196L33.9622 525.441ZM43.7005 527.034C44.2982 526.982 44.7523 526.665 45.0026 526.221L46.2656 527.026C45.7686 527.817 44.9258 528.372 43.826 528.468C41.7459 528.65 40.3719 527.265 40.2182 525.508C40.0644 523.75 41.177 522.147 43.257 521.965C44.3568 521.869 45.2833 522.27 45.91 522.962L44.806 523.974C44.4825 523.581 43.9802 523.347 43.3586 523.402C42.3664 523.489 41.7041 524.318 41.7962 525.37C41.8892 526.433 42.6843 527.123 43.7005 527.034ZM50.0395 526.479C50.6373 526.427 51.0914 526.11 51.3417 525.667L52.6046 526.472C52.1076 527.262 51.2648 527.818 50.165 527.914C48.085 528.096 46.711 526.71 46.5573 524.953C46.4035 523.196 47.516 521.593 49.5961 521.411C50.6959 521.314 51.6223 521.715 52.249 522.407L51.145 523.419C50.8215 523.026 50.3193 522.793 49.6977 522.847C48.7055 522.934 48.0432 523.763 48.1352 524.815C48.2283 525.879 49.0234 526.568 50.0395 526.479ZM57.5646 524.4L57.2654 520.981L58.7956 520.847L59.0884 524.194C59.2464 525.999 58.2917 527.203 56.5224 527.358C54.7532 527.512 53.6159 526.492 53.4579 524.687L53.1651 521.339L54.6953 521.205L54.9944 524.624C55.0707 525.497 55.5721 525.995 56.4089 525.922C57.2337 525.85 57.6409 525.272 57.5646 524.4ZM66.4644 525.259C65.9684 526.061 65.0768 526.609 63.9411 526.709C61.8013 526.896 60.4632 525.507 60.3094 523.75C60.1536 521.969 61.1486 520.4 63.1211 520.227C64.7947 520.081 65.9939 521.12 66.1319 522.698C66.1612 523.033 66.1406 523.348 66.1106 523.555L61.8907 523.925C62.1324 525.036 62.8655 525.429 63.8099 525.347C64.4674 525.289 65.0161 524.952 65.3012 524.494L66.4644 525.259ZM63.194 521.474C62.417 521.542 61.9406 522.017 61.8423 522.821L64.6157 522.578C64.5384 521.97 64.0428 521.4 63.194 521.474ZM68.072 518.975C67.5341 519.022 67.0401 518.608 66.993 518.07C66.9459 517.532 67.3605 517.038 67.8984 516.991C68.4364 516.944 68.9184 517.359 68.9655 517.897C69.0125 518.435 68.61 518.928 68.072 518.975ZM67.9261 526.119L67.399 520.094L68.9172 519.961L69.4443 525.986L67.9261 526.119ZM71.2649 525.827L70.4805 516.861L71.9987 516.728L72.7831 525.694L71.2649 525.827Z" fill="#3B69D1"/>
        <path d="M119.228 488.68L122.455 484.834C122.637 484.618 122.861 484.502 123.127 484.486C123.394 484.472 123.635 484.555 123.852 484.737C124.052 484.92 124.164 485.145 124.187 485.411C124.21 485.676 124.139 485.917 123.974 486.132L120.136 490.734C119.954 490.951 119.73 491.071 119.464 491.094C119.199 491.117 118.958 491.038 118.741 490.856L116.412 488.901C116.213 488.735 116.101 488.51 116.077 488.228C116.052 487.946 116.123 487.705 116.29 487.507C116.456 487.308 116.681 487.197 116.963 487.172C117.245 487.147 117.486 487.218 117.684 487.385L119.228 488.68ZM105.826 490.681C105.544 490.706 105.299 490.631 105.092 490.456C104.884 490.282 104.768 490.054 104.743 489.772C104.718 489.49 104.793 489.244 104.968 489.036C105.142 488.829 105.37 488.713 105.652 488.688L112.626 488.078C112.908 488.054 113.153 488.128 113.361 488.302C113.568 488.477 113.684 488.705 113.709 488.987C113.734 489.27 113.659 489.514 113.485 489.722C113.31 489.93 113.082 490.046 112.8 490.071L105.826 490.681ZM120.505 497.829L118.778 499.887C118.611 500.086 118.387 500.197 118.105 500.222C117.823 500.247 117.582 500.176 117.383 500.009C117.185 499.842 117.073 499.618 117.048 499.336C117.024 499.053 117.095 498.813 117.261 498.614L118.989 496.556L116.93 494.829C116.732 494.662 116.62 494.438 116.595 494.155C116.571 493.873 116.642 493.633 116.808 493.434C116.975 493.236 117.199 493.124 117.482 493.099C117.764 493.075 118.004 493.145 118.203 493.312L120.261 495.039L121.988 492.981C122.155 492.782 122.38 492.671 122.662 492.646C122.944 492.621 123.185 492.692 123.383 492.859C123.582 493.026 123.693 493.25 123.718 493.532C123.743 493.815 123.672 494.055 123.505 494.254L121.778 496.312L123.836 498.039C124.035 498.206 124.147 498.43 124.171 498.713C124.196 498.995 124.125 499.235 123.958 499.434C123.792 499.632 123.567 499.744 123.285 499.769C123.003 499.793 122.762 499.722 122.564 499.556L120.505 497.829ZM106.524 498.65C106.241 498.675 105.997 498.6 105.789 498.426C105.581 498.252 105.465 498.024 105.44 497.741C105.416 497.459 105.491 497.214 105.665 497.006C105.839 496.799 106.067 496.683 106.349 496.658L113.323 496.048C113.605 496.023 113.85 496.098 114.058 496.272C114.265 496.446 114.381 496.675 114.406 496.957C114.431 497.239 114.356 497.484 114.182 497.691C114.008 497.899 113.779 498.016 113.497 498.04L106.524 498.65Z" fill="#646464"/>
        <path d="M91.859 524.025L91.1269 515.657L92.5614 515.532L95.4889 519.528L97.6779 515.084L99.1124 514.958L99.8445 523.327L98.7208 523.425L98.1205 516.563L96.0311 520.769L95.1704 520.844L92.3824 517.065L92.9827 523.927L91.859 524.025ZM104.386 516.617C106.323 516.448 107.78 517.826 107.934 519.583C108.088 521.34 106.892 522.951 104.955 523.12C103.007 523.291 101.561 521.912 101.407 520.154C101.253 518.397 102.438 516.788 104.386 516.617ZM104.883 522.163C106.139 522.053 106.967 520.921 106.858 519.677C106.749 518.422 105.737 517.463 104.482 517.572C103.191 517.685 102.361 518.806 102.471 520.061C102.581 521.316 103.592 522.276 104.883 522.163ZM109.831 522.453L109.304 516.428L110.32 516.339L110.38 517.02C110.823 516.439 111.411 516.003 112.308 515.924C113.659 515.806 114.742 516.627 114.892 518.336L115.211 521.982L114.195 522.071L113.879 518.461C113.785 517.385 113.121 516.817 112.188 516.898C111.316 516.975 110.81 517.525 110.482 518.192L110.847 522.364L109.831 522.453ZM119.76 520.753L120.424 520.081C120.889 520.57 121.417 520.825 122.027 520.771C122.696 520.713 123.043 520.273 122.997 519.747C122.879 518.396 119.908 519.138 119.722 517.01C119.639 516.066 120.372 515.219 121.532 515.117C122.393 515.042 123.169 515.383 123.639 515.933L122.986 516.592C122.624 516.166 122.144 515.919 121.618 515.965C120.973 516.021 120.659 516.434 120.7 516.9C120.818 518.251 123.805 517.556 123.985 519.612C124.072 520.737 123.237 521.521 122.113 521.619C121.157 521.703 120.37 521.386 119.76 520.753ZM129.748 518.108L129.447 514.666L130.463 514.577L130.761 517.984C130.919 519.789 129.971 520.932 128.333 521.075C126.708 521.217 125.576 520.256 125.418 518.451L125.12 515.044L126.136 514.955L126.437 518.398C126.54 519.582 127.234 520.208 128.262 520.118C129.266 520.03 129.852 519.292 129.748 518.108ZM132.843 512.79C132.448 512.825 132.097 512.53 132.063 512.136C132.029 511.753 132.324 511.402 132.718 511.368C133.113 511.333 133.452 511.629 133.485 512.011C133.52 512.406 133.237 512.756 132.843 512.79ZM132.993 520.426L132.466 514.401L133.482 514.313L134.009 520.338L132.993 520.426ZM134.721 514.204L135.821 514.108L138.179 518.901L139.67 513.771L140.77 513.675L138.942 519.906L137.603 520.023L134.721 514.204ZM142.392 511.955C141.998 511.989 141.647 511.695 141.612 511.3C141.579 510.918 141.873 510.567 142.268 510.532C142.662 510.498 143.001 510.793 143.035 511.176C143.069 511.57 142.787 511.92 142.392 511.955ZM142.542 519.591L142.015 513.566L143.031 513.477L143.558 519.502L142.542 519.591Z" fill="#646464"/>
        <g clip-path="url(#clip0_5487_14152)">
            <path d="M175.498 489.605L181.5 489.08C181.782 489.055 182.006 488.939 182.172 488.732C182.338 488.525 182.408 488.281 182.384 487.998C182.359 487.716 182.243 487.488 182.036 487.313C181.828 487.139 181.583 487.065 181.3 487.089L175.298 487.614C175.016 487.639 174.792 487.755 174.626 487.961C174.46 488.169 174.39 488.413 174.414 488.696C174.439 488.978 174.555 489.206 174.762 489.38C174.97 489.554 175.215 489.629 175.498 489.605ZM175.236 486.616L185.223 485.742C185.505 485.718 185.729 485.602 185.895 485.394C186.061 485.188 186.132 484.943 186.107 484.661C186.082 484.379 185.966 484.15 185.758 483.976C185.551 483.802 185.306 483.727 185.024 483.752L175.037 484.626C174.755 484.651 174.53 484.766 174.365 484.973C174.199 485.18 174.128 485.425 174.153 485.707C174.177 485.989 174.293 486.217 174.501 486.391C174.709 486.566 174.954 486.641 175.236 486.616ZM174.975 483.627L184.961 482.754C185.244 482.729 185.468 482.613 185.634 482.407C185.8 482.2 185.87 481.955 185.846 481.673C185.821 481.39 185.705 481.162 185.497 480.987C185.289 480.813 185.045 480.739 184.762 480.764L174.775 481.637C174.493 481.662 174.269 481.778 174.103 481.984C173.937 482.191 173.867 482.436 173.891 482.718C173.916 483.001 174.032 483.229 174.239 483.404C174.447 483.578 174.692 483.652 174.975 483.627ZM171.002 495.594L169.645 480.078C169.597 479.531 169.751 479.044 170.108 478.62C170.463 478.196 170.915 477.96 171.463 477.912L187.402 476.517C187.95 476.469 188.436 476.623 188.861 476.979C189.285 477.335 189.521 477.787 189.569 478.335L190.615 490.29C190.663 490.838 190.509 491.324 190.153 491.748C189.797 492.172 189.345 492.408 188.797 492.456L174.85 493.677L172.759 496.168C172.471 496.511 172.116 496.613 171.694 496.474C171.272 496.336 171.042 496.042 171.002 495.594ZM172.786 493.029L173.854 491.756L188.622 490.464L187.577 478.51L171.637 479.904L172.786 493.029Z" fill="#646464"/>
        </g>
        <path d="M160.139 518.051L159.407 509.683L160.842 509.558L163.769 513.554L165.958 509.11L167.393 508.985L168.125 517.353L167.001 517.451L166.401 510.589L164.311 514.795L163.451 514.871L160.663 511.091L161.263 517.953L160.139 518.051ZM175.734 515.687C175.238 516.49 174.383 517.046 173.259 517.145C171.227 517.322 169.841 515.938 169.687 514.181C169.527 512.352 170.574 510.826 172.439 510.663C174.077 510.52 175.241 511.575 175.371 513.057C175.392 513.296 175.376 513.526 175.355 513.697L170.728 514.102C170.891 515.545 171.888 516.337 173.179 516.224C173.956 516.156 174.582 515.74 174.929 515.167L175.734 515.687ZM172.491 511.526C171.498 511.613 170.856 512.259 170.732 513.318L174.342 513.002C174.229 512.121 173.555 511.433 172.491 511.526ZM176.647 515.776L177.311 515.104C177.775 515.593 178.303 515.848 178.913 515.795C179.582 515.736 179.929 515.296 179.883 514.77C179.765 513.419 176.794 514.161 176.608 512.033C176.526 511.089 177.259 510.242 178.418 510.14C179.279 510.065 180.056 510.407 180.525 510.956L179.872 511.615C179.51 511.189 179.03 510.942 178.504 510.988C177.859 511.044 177.546 511.457 177.586 511.924C177.705 513.274 180.691 512.579 180.871 514.636C180.958 515.76 180.123 516.544 178.999 516.642C178.043 516.726 177.256 516.409 176.647 515.776ZM181.9 515.316L182.564 514.644C183.028 515.133 183.557 515.388 184.166 515.335C184.836 515.276 185.183 514.837 185.137 514.311C185.018 512.96 182.048 513.701 181.862 511.574C181.779 510.629 182.512 509.782 183.672 509.681C184.532 509.605 185.309 509.947 185.779 510.496L185.126 511.156C184.763 510.729 184.284 510.482 183.758 510.528C183.112 510.585 182.799 510.998 182.84 511.464C182.958 512.815 185.945 512.12 186.125 514.176C186.211 515.301 185.376 516.084 184.252 516.183C183.296 516.266 182.509 515.95 181.9 515.316ZM189.547 515.647C188.363 515.751 187.505 515.163 187.415 514.135C187.335 513.227 187.972 512.521 189.233 512.194L191.236 511.681L191.199 511.263C191.126 510.426 190.486 510 189.625 510.075C188.932 510.136 188.398 510.508 188.073 511.054L187.257 510.535C187.72 509.772 188.53 509.256 189.582 509.164C191.112 509.03 192.099 509.847 192.215 511.174L192.569 515.214L191.552 515.303L191.485 514.538C191.082 515.164 190.324 515.579 189.547 515.647ZM188.44 514.01C188.485 514.524 188.936 514.858 189.641 514.796C190.442 514.726 191.066 514.286 191.404 513.606L191.3 512.422L189.545 512.877C188.733 513.092 188.395 513.495 188.44 514.01ZM194.009 516.184C193.956 515.575 194.212 515.058 194.773 514.588C194.479 514.397 194.307 514.086 194.279 513.764C194.237 513.286 194.454 512.869 194.894 512.529C194.333 512.181 193.969 511.598 193.91 510.929C193.809 509.769 194.632 508.71 196.066 508.584C196.509 508.545 196.911 508.607 197.248 508.734L199.483 508.538L199.561 509.423L198.258 509.537C198.451 509.821 198.565 510.16 198.597 510.519C198.697 511.667 197.886 512.725 196.44 512.852C196.141 512.878 195.85 512.855 195.592 512.806C195.357 513.007 195.232 513.235 195.252 513.462C195.274 513.713 195.421 513.881 195.792 513.848L197.513 513.698C199.103 513.558 199.913 514.271 200.007 515.347C200.118 516.614 198.933 517.669 197.128 517.827C195.347 517.983 194.114 517.392 194.009 516.184ZM196.382 512.05C197.254 511.974 197.704 511.332 197.64 510.603C197.575 509.862 197.021 509.308 196.148 509.384C195.252 509.463 194.814 510.103 194.879 510.844C194.944 511.585 195.485 512.128 196.382 512.05ZM194.991 515.978C195.054 516.707 195.846 517.084 197.042 516.979C198.309 516.868 199.066 516.296 198.997 515.507C198.947 514.933 198.584 514.507 197.508 514.601L195.56 514.772C195.168 515.119 194.949 515.5 194.991 515.978ZM206.25 513.018C205.754 513.82 204.899 514.376 203.775 514.475C201.743 514.653 200.357 513.268 200.204 511.511C200.044 509.682 201.091 508.157 202.955 507.994C204.593 507.85 205.758 508.905 205.887 510.387C205.908 510.626 205.892 510.856 205.871 511.027L201.245 511.432C201.407 512.875 202.404 513.667 203.695 513.554C204.472 513.486 205.098 513.07 205.445 512.498L206.25 513.018ZM203.007 508.856C202.015 508.943 201.373 509.59 201.248 510.648L204.859 510.333C204.745 509.451 204.071 508.763 203.007 508.856Z" fill="#646464"/>
        <path d="M249.603 486.158C249.802 486.324 250.042 486.395 250.324 486.371C250.606 486.346 250.831 486.234 250.998 486.036C251.164 485.837 251.235 485.597 251.211 485.314C251.186 485.032 251.074 484.808 250.876 484.641L249.007 483.073C249.209 482.704 249.35 482.315 249.432 481.907C249.513 481.498 249.534 481.069 249.495 480.621C249.386 479.376 248.858 478.355 247.91 477.56C246.962 476.765 245.865 476.422 244.62 476.53C243.375 476.639 242.354 477.168 241.558 478.115C240.763 479.064 240.42 480.16 240.529 481.406C240.638 482.651 241.166 483.671 242.114 484.467C243.062 485.262 244.159 485.605 245.404 485.496C245.836 485.458 246.25 485.364 246.646 485.212C247.043 485.06 247.406 484.853 247.734 484.59L249.603 486.158ZM245.23 483.504C244.533 483.565 243.922 483.376 243.399 482.936C242.875 482.497 242.583 481.929 242.522 481.231C242.461 480.534 242.65 479.923 243.089 479.4C243.528 478.876 244.097 478.584 244.794 478.523C245.491 478.462 246.102 478.651 246.626 479.09C247.149 479.53 247.442 480.098 247.503 480.795C247.564 481.493 247.374 482.103 246.935 482.627C246.496 483.151 245.927 483.443 245.23 483.504ZM238.281 490.135C237.734 490.183 237.248 490.029 236.824 489.673C236.399 489.317 236.163 488.865 236.115 488.317L235.069 476.362C235.021 475.814 235.175 475.328 235.532 474.904C235.887 474.48 236.339 474.243 236.887 474.196L252.826 472.801C253.374 472.753 253.86 472.907 254.285 473.264C254.709 473.619 254.945 474.071 254.993 474.619L256.039 486.573C256.087 487.121 255.933 487.608 255.577 488.032C255.221 488.456 254.768 488.692 254.221 488.74L238.281 490.135ZM238.107 488.142L254.046 486.748L253 474.793L237.061 476.188L238.107 488.142Z" fill="#646464"/>
        <path d="M218.898 512.911L218.166 504.543L220.389 504.348C222.075 504.201 223.196 505.03 223.321 506.465C223.409 507.469 222.961 508.267 222.096 508.704L225.138 512.365L223.811 512.481L221.062 509.011C220.98 509.03 220.884 509.039 220.8 509.046L219.701 509.142L220.022 512.812L218.898 512.911ZM220.521 505.3L219.373 505.401L219.617 508.186L220.765 508.086C221.721 508.002 222.238 507.439 222.159 506.542C222.085 505.693 221.477 505.217 220.521 505.3ZM231.504 510.808C231.008 511.61 230.153 512.167 229.029 512.265C226.997 512.443 225.611 511.059 225.458 509.301C225.298 507.472 226.345 505.947 228.209 505.784C229.847 505.641 231.012 506.695 231.141 508.178C231.162 508.417 231.146 508.647 231.125 508.817L226.499 509.222C226.661 510.666 227.658 511.458 228.949 511.345C229.726 511.277 230.352 510.861 230.7 510.288L231.504 510.808ZM228.261 506.647C227.269 506.734 226.627 507.38 226.502 508.439L230.113 508.123C229.999 507.242 229.325 506.554 228.261 506.647ZM235.869 510.703C236.61 510.638 237.188 510.226 237.513 509.668L238.367 510.208C237.871 511.01 237.04 511.564 235.94 511.661C233.944 511.835 232.534 510.453 232.38 508.696C232.227 506.938 233.375 505.332 235.371 505.157C236.459 505.062 237.387 505.475 238.013 506.167L237.266 506.847C236.849 506.353 236.208 506.048 235.455 506.114C234.164 506.227 233.332 507.323 233.444 508.603C233.557 509.894 234.566 510.817 235.869 510.703ZM239.847 511.078L239.063 502.112L240.079 502.023L240.396 505.645C240.839 505.065 241.427 504.628 242.324 504.549C243.674 504.431 244.758 505.252 244.908 506.961L245.227 510.607L244.211 510.696L243.895 507.086C243.801 506.01 243.148 505.441 242.204 505.523C241.319 505.601 240.826 506.162 240.498 506.817L240.863 510.989L239.847 511.078ZM252.541 508.968C252.045 509.77 251.19 510.326 250.066 510.425C248.034 510.603 246.648 509.218 246.494 507.461C246.334 505.632 247.381 504.107 249.246 503.944C250.884 503.8 252.048 504.855 252.178 506.337C252.199 506.576 252.183 506.806 252.162 506.977L247.535 507.382C247.698 508.825 248.695 509.617 249.986 509.504C250.763 509.436 251.389 509.02 251.736 508.448L252.541 508.968ZM249.298 504.806C248.305 504.893 247.663 505.54 247.539 506.598L251.149 506.283C251.036 505.401 250.362 504.713 249.298 504.806ZM254.218 509.821L253.691 503.796L254.707 503.707L254.773 504.46C255.169 503.895 255.689 503.5 256.454 503.433C256.645 503.417 256.827 503.425 256.974 503.46L257.061 504.452C256.878 504.42 256.696 504.412 256.457 504.433C255.668 504.502 255.19 504.953 254.872 505.595L255.234 509.732L254.218 509.821ZM261.318 508.477C262.059 508.412 262.638 508 262.962 507.441L263.817 507.981C263.321 508.783 262.49 509.338 261.39 509.434C259.394 509.609 257.984 508.226 257.83 506.469C257.676 504.712 258.825 503.106 260.821 502.931C261.909 502.836 262.836 503.248 263.463 503.94L262.715 504.62C262.299 504.127 261.658 503.821 260.905 503.887C259.614 504 258.782 505.097 258.894 506.376C259.007 507.667 260.015 508.591 261.318 508.477ZM265.297 508.851L264.512 499.886L265.529 499.797L265.845 503.419C266.289 502.838 266.877 502.401 267.773 502.323C269.124 502.204 270.208 503.025 270.357 504.735L270.676 508.381L269.66 508.47L269.344 504.859C269.25 503.783 268.598 503.214 267.654 503.297C266.769 503.374 266.276 503.935 265.948 504.59L266.313 508.762L265.297 508.851ZM277.99 506.741C277.494 507.543 276.64 508.1 275.516 508.198C273.484 508.376 272.098 506.991 271.944 505.234C271.784 503.405 272.831 501.88 274.696 501.717C276.334 501.574 277.498 502.628 277.628 504.111C277.649 504.35 277.633 504.58 277.611 504.75L272.985 505.155C273.148 506.599 274.144 507.391 275.435 507.278C276.212 507.21 276.839 506.794 277.186 506.221L277.99 506.741ZM274.747 502.58C273.755 502.667 273.113 503.313 272.989 504.372L276.599 504.056C276.486 503.175 275.811 502.487 274.747 502.58Z" fill="#646464"/>
        <path d="M308.208 480.503C307.51 480.565 306.9 480.375 306.376 479.936C305.853 479.497 305.56 478.928 305.499 478.231C305.438 477.534 305.628 476.923 306.067 476.399C306.506 475.876 307.075 475.584 307.772 475.523C308.469 475.462 309.08 475.651 309.603 476.09C310.127 476.529 310.419 477.098 310.48 477.795C310.541 478.492 310.352 479.103 309.913 479.627C309.473 480.15 308.905 480.442 308.208 480.503ZM304.702 486.331C304.154 486.379 303.668 486.225 303.244 485.87C302.82 485.513 302.584 485.061 302.536 484.513L301.315 470.566C301.267 470.018 301.421 469.533 301.777 469.109C302.133 468.684 302.586 468.448 303.133 468.4L304.13 468.313L304.043 467.316C304.018 467.034 304.092 466.789 304.266 466.581C304.441 466.374 304.669 466.258 304.952 466.233C305.234 466.208 305.479 466.283 305.687 466.457C305.894 466.631 306.01 466.86 306.035 467.142L306.122 468.138L314.092 467.441L314.004 466.445C313.98 466.163 314.055 465.917 314.229 465.709C314.403 465.502 314.631 465.386 314.914 465.361C315.196 465.337 315.441 465.411 315.648 465.585C315.856 465.76 315.972 465.988 315.997 466.27L316.084 467.267L317.08 467.18C317.628 467.132 318.114 467.286 318.539 467.642C318.963 467.998 319.199 468.45 319.247 468.998L320.467 482.944C320.515 483.492 320.361 483.978 320.005 484.403C319.649 484.827 319.197 485.063 318.649 485.111L304.702 486.331ZM304.528 484.339L318.475 483.119L317.603 473.157L303.656 474.377L304.528 484.339ZM303.482 472.384L317.429 471.164L317.255 469.172L303.308 470.392L303.482 472.384Z" fill="#646464"/>
        <path d="M284.277 498.036L283.237 498.127L284.447 496.395L285.666 496.288L284.277 498.036ZM282.274 507.366L281.542 498.998L286.037 498.605L286.121 499.561L282.75 499.856L282.984 502.534L285.877 502.281L285.96 503.225L283.067 503.478L283.315 506.311L286.686 506.016L286.769 506.973L282.274 507.366ZM287.055 500.877L288.155 500.78L290.514 505.573L292.004 500.444L293.104 500.347L291.276 506.578L289.937 506.696L287.055 500.877ZM297.233 499.022L296.241 499.109L297.31 497.016L298.458 496.916L297.233 499.022ZM300.052 504.811C299.556 505.613 298.701 506.17 297.578 506.268C295.545 506.446 294.159 505.061 294.006 503.304C293.846 501.475 294.893 499.95 296.758 499.787C298.395 499.644 299.56 500.698 299.689 502.18C299.71 502.419 299.694 502.65 299.673 502.82L295.047 503.225C295.209 504.668 296.206 505.46 297.497 505.348C298.274 505.28 298.9 504.863 299.248 504.291L300.052 504.811ZM296.809 500.65C295.817 500.736 295.175 501.383 295.051 502.442L298.661 502.126C298.547 501.244 297.873 500.557 296.809 500.65ZM301.729 505.664L301.202 499.639L302.218 499.55L302.278 500.231C302.721 499.651 303.309 499.214 304.206 499.135C305.557 499.017 306.64 499.838 306.79 501.547L307.109 505.193L306.093 505.282L305.777 501.672C305.683 500.596 305.019 500.028 304.086 500.109C303.214 500.186 302.708 500.736 302.381 501.403L302.746 505.575L301.729 505.664ZM314.423 503.554C313.927 504.356 313.072 504.912 311.949 505.011C309.916 505.189 308.53 503.804 308.377 502.047C308.217 500.218 309.264 498.693 311.129 498.53C312.766 498.386 313.931 499.441 314.06 500.923C314.081 501.162 314.065 501.392 314.044 501.563L309.418 501.968C309.58 503.411 310.577 504.203 311.868 504.09C312.645 504.022 313.271 503.606 313.619 503.034L314.423 503.554ZM311.18 499.392C310.188 499.479 309.546 500.126 309.421 501.184L313.032 500.869C312.918 499.987 312.244 499.299 311.18 499.392ZM316.1 504.407L315.573 498.382L316.589 498.293L316.647 498.95C317.055 498.384 317.62 497.962 318.457 497.888C319.33 497.812 320.082 498.144 320.519 498.876C320.94 498.177 321.529 497.62 322.569 497.529C323.861 497.416 324.88 498.194 325.024 499.831L325.353 503.597L324.337 503.686L324.011 499.956C323.923 498.952 323.311 498.427 322.45 498.503C321.685 498.57 321.185 499.047 320.852 499.787C320.875 499.917 320.899 500.048 320.911 500.191L321.241 503.957L320.225 504.046L319.898 500.316C319.81 499.312 319.21 498.786 318.338 498.862C317.513 498.935 317.044 499.494 316.751 500.146L317.116 504.318L316.1 504.407ZM332.67 501.957C332.174 502.759 331.319 503.316 330.195 503.414C328.163 503.592 326.777 502.208 326.623 500.45C326.463 498.621 327.51 497.096 329.375 496.933C331.013 496.79 332.177 497.844 332.307 499.327C332.328 499.566 332.312 499.796 332.291 499.967L327.664 500.371C327.827 501.815 328.824 502.607 330.115 502.494C330.892 502.426 331.518 502.01 331.865 501.437L332.67 501.957ZM329.427 497.796C328.434 497.883 327.792 498.529 327.668 499.588L331.278 499.272C331.165 498.391 330.491 497.703 329.427 497.796ZM334.347 502.81L333.82 496.785L334.836 496.696L334.896 497.378C335.339 496.797 335.927 496.36 336.823 496.282C338.174 496.163 339.258 496.984 339.407 498.693L339.726 502.34L338.71 502.428L338.395 498.818C338.3 497.742 337.636 497.174 336.704 497.256C335.831 497.332 335.325 497.882 334.998 498.549L335.363 502.721L334.347 502.81ZM341.942 500.11L341.672 497.026L340.536 497.125L340.456 496.205L341.591 496.105L341.46 494.599L342.488 494.509L342.619 496.015L344.711 495.832L344.792 496.753L342.7 496.936L342.97 500.02C343.052 500.964 343.554 501.186 344.283 501.122C344.677 501.087 344.948 501.015 345.167 500.9L345.246 501.808C344.97 501.953 344.651 502.029 344.221 502.067C342.882 502.184 342.07 501.58 341.942 500.11Z" fill="#646464"/>
    </g>
    <rect x="0.537709" y="0.44937" width="302.548" height="407.641" rx="12.5" transform="matrix(0.995151 -0.097567 0.0802681 0.996307 12.2585 30.6236)" fill="#F1F1F1" stroke="#878787" stroke-dasharray="5.51 5.51"/>
    <rect width="313.682" height="385.608" rx="8" transform="matrix(0.995156 -0.0974782 0.0803548 0.996297 -14.0488 45.388)" fill="white"/>
    <path d="M6.97533 122.58L5.1428 100.255L11.7062 99.6421C16.358 99.2075 19.3821 101.239 19.691 105.002C19.8402 106.82 19.1401 108.46 17.6627 109.627C20.1068 110.459 21.5702 112.25 21.7613 114.578C22.0964 118.661 19.1463 121.443 14.0167 121.922L6.97533 122.58ZM12.1107 103.397L9.97601 103.596L10.3896 108.635L12.5243 108.436C14.2448 108.275 15.1885 107.255 15.055 105.628C14.9267 104.065 13.8312 103.236 12.1107 103.397ZM13.4705 112.139L10.6985 112.398L11.1907 118.394L13.9626 118.135C16.0655 117.939 17.2483 116.703 17.0938 114.822C16.9368 112.908 15.5733 111.943 13.4705 112.139ZM26.891 101.694C25.4573 101.828 24.1471 100.729 24.0293 99.2941C23.9115 97.8589 25.0227 96.5339 26.4565 96.3999C27.8902 96.266 29.1686 97.3677 29.2864 98.8029C29.4042 100.238 28.3248 101.56 26.891 101.694ZM26.4017 120.765L25.0823 104.691L29.1287 104.313L30.4481 120.387L26.4017 120.765ZM49.8694 115.937C48.5368 118.086 46.1538 119.562 43.1269 119.845C37.4238 120.378 33.8786 116.692 33.4937 112.004C33.1037 107.252 35.7766 103.049 41.0337 102.558C45.4943 102.141 48.6742 104.897 49.0198 109.107C49.0931 110 49.0337 110.841 48.9508 111.395L37.7038 112.446C38.3322 115.408 40.2796 116.448 42.7966 116.212C44.549 116.049 46.0155 115.14 46.7815 113.912L49.8694 115.937ZM41.2104 105.884C39.1394 106.077 37.8636 107.353 37.5904 109.5L44.9822 108.809C44.7849 107.189 43.4725 105.672 41.2104 105.884ZM53.7513 118.21L52.4319 102.136L56.4783 101.758L56.583 103.033C57.6091 101.845 59.0385 100.876 61.1732 100.676C64.6461 100.352 67.6144 102.485 68.0045 107.237L68.7898 116.804L64.7116 117.186L63.9393 107.777C63.7639 105.64 62.4432 104.414 60.4678 104.599C58.4287 104.789 57.458 106.262 56.9364 107.339L57.7977 117.832L53.7513 118.21ZM69.6156 100.53L73.9487 100.125L79.0649 111.217L82.2645 99.3482L86.6294 98.9403L82.0864 115.562L76.7656 116.059L69.6156 100.53ZM104.88 110.797C103.547 112.946 101.164 114.422 98.1373 114.705C92.4342 115.238 88.8889 111.552 88.5041 106.864C88.114 102.112 90.787 97.9091 96.0441 97.4179C100.505 97.0011 103.685 99.757 104.03 103.967C104.103 104.86 104.044 105.701 103.961 106.255L92.7141 107.306C93.3426 110.268 95.29 111.307 97.807 111.072C99.5594 110.908 101.026 110 101.792 108.772L104.88 110.797ZM96.2208 100.744C94.1498 100.937 92.874 102.213 92.6007 104.36L99.9925 103.669C99.7953 102.049 98.4829 100.532 96.2208 100.744ZM108.762 113.07L107.442 96.9956L111.489 96.6175L111.593 97.8932C112.62 96.7046 114.049 95.7355 116.184 95.536C119.657 95.2115 122.625 97.3445 123.015 102.096L123.8 111.664L119.722 112.045L118.95 102.637C118.774 100.5 117.454 99.2738 115.478 99.4584C113.439 99.649 112.468 101.122 111.947 102.199L112.808 112.691L108.762 113.07ZM138.402 103.294L137.653 94.1727L141.732 93.7916L142.465 102.722C142.86 107.537 140.3 110.765 135.584 111.206C130.869 111.647 127.853 108.94 127.458 104.124L126.725 95.1938L130.803 94.8127L131.552 103.934C131.743 106.262 133.072 107.584 135.302 107.376C137.5 107.17 138.593 105.622 138.402 103.294ZM162.099 105.45C160.767 107.6 158.384 109.076 155.357 109.358C149.654 109.891 146.108 106.205 145.724 101.517C145.334 96.7652 148.007 92.5625 153.264 92.0713C157.724 91.6545 160.904 94.4104 161.25 98.6203C161.323 99.5133 161.264 100.354 161.181 100.908L149.934 101.959C150.562 104.922 152.509 105.961 155.027 105.726C156.779 105.562 158.245 104.654 159.011 103.425L162.099 105.45ZM153.44 95.3971C151.369 95.5906 150.094 96.8667 149.82 99.0133L157.212 98.3227C157.015 96.7021 155.702 95.1857 153.44 95.3971Z" fill="#3B69D1"/>
    <g filter="url(#filter1_d_5487_14152)">
        <rect width="48" height="48" rx="24" transform="matrix(0.995663 -0.093034 0.0818093 0.996648 237.291 66.9139)" fill="#3B69D1" shape-rendering="crispEdges"/>
        <path d="M263.15 88.6007C265.35 88.3951 266.986 86.4445 266.805 84.2419C266.625 82.0394 264.696 80.4219 262.496 80.6275C260.295 80.8331 258.659 82.7836 258.84 84.9862C259.021 87.1888 260.95 88.8063 263.15 88.6007ZM262.659 82.6208C263.754 82.5185 264.724 83.3317 264.814 84.428C264.904 85.5243 264.082 86.505 262.986 86.6074C261.891 86.7097 260.921 85.8965 260.831 84.8002C260.741 83.7038 261.564 82.7231 262.659 82.6208ZM263.232 89.5973C260.573 89.8457 255.376 91.6771 255.594 94.3282L255.757 96.3215C255.802 96.8696 256.287 97.2763 256.835 97.2251L270.774 95.9226C271.322 95.8715 271.733 95.3811 271.688 94.8329L271.524 92.8396C271.307 90.1886 265.89 89.3489 263.232 89.5973ZM269.615 94.0224L257.667 95.1388L257.586 94.1521C257.726 93.4159 260.707 91.8418 263.395 91.5906C266.084 91.3394 269.276 92.3367 269.533 93.0257L269.615 94.0224Z" fill="white"/>
        <rect x="0.538736" y="0.451807" width="47" height="47" rx="23.5" transform="matrix(0.995663 -0.093034 0.0818093 0.996648 237.256 66.9656)" stroke="#3B69D1" shape-rendering="crispEdges"/>
    </g>
    <path d="M17.0389 171.167C18.9516 171 20.3763 169.936 21.2134 168.489L24.0711 170.311C22.7229 172.525 20.3535 174.082 17.3171 174.347C12.0333 174.809 8.06752 171.061 7.64917 166.279C7.23082 161.497 10.4854 157.117 15.7693 156.655C18.8057 156.389 21.4114 157.534 23.1193 159.433L20.6235 161.747C19.548 160.468 17.9601 159.667 16.0475 159.835C12.8915 160.111 10.8595 162.77 11.1398 165.974C11.4201 169.177 13.883 171.443 17.0389 171.167ZM37.5569 170.119C36.565 171.724 34.7817 172.819 32.5104 173.018C28.2307 173.392 25.5545 170.615 25.247 167.1C24.9353 163.538 26.9254 160.401 30.8704 160.056C34.2176 159.763 36.6159 161.842 36.892 164.998C36.9506 165.667 36.9093 166.297 36.8492 166.712L28.4095 167.45C28.893 169.672 30.3592 170.46 32.248 170.294C33.563 170.179 34.6604 169.505 35.2306 168.588L37.5569 170.119ZM31.0162 162.548C29.4621 162.684 28.5093 163.635 28.3127 165.242L33.8595 164.757C33.705 163.542 32.7137 162.4 31.0162 162.548ZM40.8372 167.375L40.4063 162.45L38.1589 162.646L37.9204 159.921L40.1678 159.724L39.9043 156.711L42.9646 156.444L43.2282 159.456L46.9101 159.134L47.1486 161.86L43.4666 162.182L43.8975 167.107C44.0147 168.446 44.7779 168.909 45.9734 168.805C46.8102 168.731 47.3517 168.588 47.7435 168.385L47.9757 171.039C47.401 171.354 46.6942 171.536 45.69 171.624C42.6775 171.888 41.0945 170.315 40.8372 167.375ZM51.2506 166.464L50.8197 161.538L48.5722 161.735L48.3338 159.01L50.5812 158.813L50.3176 155.8L53.3779 155.533L53.6415 158.545L57.3234 158.223L57.5619 160.949L53.88 161.271L54.3109 166.196C54.428 167.535 55.1913 167.998 56.3867 167.893C57.2235 167.82 57.765 167.677 58.1569 167.474L58.389 170.127C57.8143 170.443 57.1075 170.625 56.1034 170.713C53.0909 170.976 51.5078 169.404 51.2506 166.464ZM71.7855 167.124C70.7936 168.729 69.0103 169.825 66.739 170.023C62.4593 170.398 59.7831 167.62 59.4756 164.106C59.1639 160.543 61.1541 157.406 65.099 157.061C68.4462 156.768 70.8445 158.847 71.1206 162.003C71.1792 162.672 71.138 163.302 71.0779 163.717L62.6381 164.456C63.1216 166.678 64.5878 167.465 66.4766 167.3C67.7916 167.185 68.889 166.511 69.4592 165.593L71.7855 167.124ZM65.2448 159.554C63.6907 159.69 62.738 160.64 62.5413 162.248L68.0881 161.762C67.9336 160.547 66.9423 159.405 65.2448 159.554ZM79.9484 166.627L81.7978 164.634C82.6205 165.502 83.5637 166.094 84.7113 165.994C85.6916 165.908 86.1435 165.29 86.0807 164.573C85.8967 162.469 80.2037 163.762 79.8335 159.53C79.6473 157.402 81.3003 155.643 83.8107 155.424C85.6517 155.263 87.4027 156.001 88.3659 157.097L86.5123 159.042C85.8238 158.331 84.9804 157.779 84.048 157.86C83.0916 157.944 82.6834 158.51 82.7378 159.131C82.9177 161.188 88.6169 159.966 88.9809 164.126C89.1548 166.665 87.2438 168.229 84.9725 168.428C82.8207 168.616 81.2153 167.89 79.9484 166.627ZM102.956 164.397C101.964 166.002 100.18 167.098 97.909 167.296C93.6293 167.671 90.9531 164.893 90.6456 161.379C90.3339 157.816 92.3241 154.679 96.269 154.334C99.6162 154.041 102.015 156.12 102.291 159.276C102.349 159.945 102.308 160.575 102.248 160.99L93.8081 161.729C94.2916 163.951 95.7578 164.738 97.6466 164.573C98.9616 164.458 100.059 163.784 100.629 162.866L102.956 164.397ZM96.4148 156.827C94.8607 156.963 93.908 157.913 93.7113 159.521L99.2581 159.035C99.1036 157.82 98.1123 156.678 96.4148 156.827ZM105.879 166.117L104.825 154.067L107.861 153.802L107.941 154.71C108.684 153.85 109.66 153.162 111.143 153.033C112.673 152.899 114.07 153.451 114.972 154.673C115.741 153.546 116.809 152.537 118.841 152.359C121.328 152.142 123.439 153.691 123.736 157.086L124.384 164.498L121.324 164.766L120.686 157.474C120.558 156.015 119.69 155.176 118.327 155.295C117.012 155.41 116.374 156.381 115.967 157.236C116.006 157.401 116.021 157.569 116.037 157.76L116.686 165.172L113.625 165.439L112.987 158.147C112.86 156.689 111.991 155.849 110.629 155.969C109.242 156.09 108.615 157.181 108.227 157.986L108.915 165.852L105.879 166.117ZM131.276 164.257C128.861 164.468 127.09 163.225 126.896 161.002C126.737 159.185 128.028 157.699 130.573 157.042L134.2 156.099L134.173 155.788C134.062 154.521 133.035 153.791 131.648 153.913C130.477 154.015 129.616 154.645 129.048 155.586L126.676 154.083C127.622 152.506 129.312 151.443 131.511 151.251C135.002 150.945 136.977 152.868 137.209 155.522L137.891 163.316L134.855 163.582L134.752 162.411C134.069 163.41 132.687 164.133 131.276 164.257ZM129.896 160.595C129.967 161.408 130.658 161.877 131.687 161.787C133.073 161.666 134.021 160.933 134.535 159.924L134.386 158.227L131.559 158.956C130.311 159.282 129.831 159.854 129.896 160.595ZM141.66 148.724C140.584 148.819 139.596 147.99 139.502 146.914C139.408 145.838 140.237 144.85 141.313 144.756C142.389 144.661 143.353 145.493 143.447 146.569C143.541 147.644 142.736 148.63 141.66 148.724ZM141.368 163.012L140.314 150.962L143.351 150.697L144.405 162.747L141.368 163.012ZM148.046 162.428L146.992 150.378L150.028 150.112L150.112 151.069C150.878 150.183 151.947 149.463 153.549 149.323C156.155 149.095 158.392 150.706 158.703 154.268L159.331 161.441L156.271 161.708L155.654 154.655C155.513 153.054 154.517 152.129 153.035 152.259C151.505 152.392 150.782 153.492 150.394 154.296L151.082 162.162L148.046 162.428ZM173.701 158.208C172.709 159.813 170.926 160.908 168.654 161.107C164.375 161.481 161.698 158.704 161.391 155.189C161.079 151.627 163.069 148.49 167.014 148.144C170.362 147.852 172.76 149.931 173.036 153.086C173.095 153.756 173.053 154.386 172.993 154.801L164.554 155.539C165.037 157.761 166.503 158.549 168.392 158.383C169.707 158.268 170.804 157.594 171.375 156.677L173.701 158.208ZM167.16 150.637C165.606 150.773 164.653 151.724 164.457 153.331L170.004 152.846C169.849 151.631 168.858 150.489 167.16 150.637Z" fill="#3B69D1"/>
    <g filter="url(#filter2_d_5487_14152)">
        <rect x="8.66016" y="189.68" width="303.69" height="271.735" rx="8" transform="rotate(-5 8.66016 189.68)" fill="white" shape-rendering="crispEdges"/>
        <path d="M36.3982 219.877C35.7008 219.938 35.0903 219.749 34.5667 219.31C34.0431 218.871 33.7508 218.302 33.6898 217.605C33.6288 216.907 33.8179 216.297 34.2573 215.773C34.6967 215.25 35.265 214.957 35.9624 214.896C36.6597 214.835 37.2702 215.025 37.7938 215.464C38.3174 215.903 38.6097 216.472 38.6708 217.169C38.7318 217.866 38.5426 218.477 38.1032 219C37.6638 219.524 37.0955 219.816 36.3982 219.877ZM32.8927 225.705C32.3448 225.753 31.8586 225.599 31.4339 225.244C31.0099 224.887 30.774 224.435 30.726 223.887L29.5058 209.94C29.4579 209.392 29.6118 208.906 29.9676 208.483C30.3239 208.058 30.776 207.822 31.3239 207.774L32.3201 207.686L32.233 206.69C32.2083 206.408 32.2829 206.163 32.4567 205.955C32.6313 205.748 32.8598 205.632 33.142 205.607C33.4243 205.582 33.6694 205.657 33.8773 205.831C34.0846 206.005 34.2007 206.234 34.2254 206.516L34.3125 207.512L42.2821 206.815L42.1949 205.819C42.1702 205.536 42.2451 205.291 42.4197 205.083C42.5936 204.876 42.8217 204.76 43.104 204.735C43.3862 204.711 43.631 204.785 43.8383 204.959C44.0463 205.134 44.1626 205.362 44.1873 205.644L44.2745 206.641L45.2707 206.553C45.8186 206.505 46.3049 206.66 46.7295 207.016C47.1535 207.372 47.3894 207.824 47.4374 208.372L48.6575 222.318C48.7055 222.866 48.5516 223.352 48.1959 223.777C47.8395 224.201 47.3874 224.437 46.8395 224.485L32.8927 225.705ZM32.7184 223.713L46.6651 222.493L45.7936 212.531L31.8469 213.751L32.7184 223.713Z" fill="#3B69D1"/>
        <path d="M68.4222 219.585L68.2521 217.641L71.7484 213.544C72.5324 212.592 73.0213 211.939 72.9419 211.031C72.861 210.106 72.176 209.62 71.2993 209.697C70.2314 209.79 69.6351 210.501 69.1318 211.541L67.2851 210.626C68.0916 209.014 69.3946 207.936 71.3392 207.766C73.2838 207.596 74.9546 208.702 75.1219 210.615C75.2558 212.145 74.3548 213.413 73.3485 214.577L70.8821 217.411L75.9666 216.966L76.1368 218.91L68.4222 219.585ZM82.5625 218.348L81.8596 210.315L83.8839 210.138L83.9536 210.935C84.4322 210.347 85.0813 209.872 85.9899 209.793C86.2608 209.769 86.5041 209.796 86.7009 209.843L86.8753 211.835C86.6147 211.794 86.3395 211.77 85.9729 211.802C84.9847 211.888 84.3945 212.486 84.1363 213.023L84.5867 218.171L82.5625 218.348ZM95.9767 215.857C95.3154 216.927 94.1265 217.658 92.6123 217.79C89.7592 218.04 87.9751 216.188 87.7701 213.845C87.5623 211.47 88.889 209.379 91.519 209.148C93.7505 208.953 95.3493 210.339 95.5334 212.443C95.5725 212.889 95.545 213.309 95.5049 213.586L89.8784 214.078C90.2008 215.56 91.1782 216.085 92.4374 215.974C93.3141 215.898 94.0457 215.448 94.4258 214.837L95.9767 215.857ZM91.6162 210.81C90.5802 210.901 89.945 211.535 89.8139 212.606L93.5117 212.283C93.4087 211.473 92.7479 210.711 91.6162 210.81ZM97.9257 217.004L97.2228 208.971L99.2471 208.794L99.3029 209.431C99.8133 208.84 100.526 208.36 101.594 208.267C103.331 208.115 104.823 209.189 105.031 211.564L105.449 216.346L103.409 216.524L102.997 211.822C102.904 210.754 102.24 210.138 101.251 210.224C100.231 210.314 99.7494 211.046 99.4911 211.583L99.9499 216.827L97.9257 217.004ZM106.822 212.178C106.617 209.835 107.989 207.708 110.523 207.486C111.607 207.391 112.418 207.657 113.094 208.225L112.695 203.666L114.735 203.488L115.781 215.442L113.741 215.62L113.685 214.983C113.118 215.659 112.366 216.062 111.282 216.157C108.748 216.378 107.027 214.521 106.822 212.178ZM108.942 211.993C109.065 213.395 110.031 214.339 111.402 214.219C112.31 214.139 113.026 213.691 113.504 212.911L113.275 210.297C112.669 209.611 111.886 209.294 110.978 209.373C109.607 209.493 108.819 210.59 108.942 211.993ZM125.489 213.275C124.828 214.345 123.639 215.076 122.125 215.208C119.271 215.458 117.487 213.606 117.282 211.263C117.075 208.888 118.401 206.797 121.031 206.566C123.263 206.371 124.862 207.757 125.046 209.861C125.085 210.307 125.057 210.727 125.017 211.004L119.391 211.496C119.713 212.978 120.69 213.503 121.95 213.392C122.826 213.316 123.558 212.866 123.938 212.255L125.489 213.275ZM121.128 208.228C120.092 208.319 119.457 208.953 119.326 210.024L123.024 209.701C122.921 208.891 122.26 208.129 121.128 208.228ZM127.01 214.459L126.851 212.642L130.547 207.886L126.594 208.232L126.435 206.415L132.922 205.847L133.081 207.664L129.386 212.421L133.578 212.054L133.736 213.871L127.01 214.459ZM134.509 208.712L138.812 208.335L138.984 210.296L134.68 210.673L134.509 208.712ZM138.771 205.336L140.939 205.146L143.529 210.701L145.099 204.782L147.283 204.591L145.053 212.881L142.391 213.114L138.771 205.336ZM152.262 203.834C154.876 203.605 156.83 205.378 157.041 207.785C157.251 210.191 155.635 212.276 153.021 212.505C150.407 212.734 148.453 210.961 148.242 208.554C148.032 206.148 149.648 204.063 152.262 203.834ZM152.885 210.59C154.176 210.477 155.058 209.355 154.937 207.969C154.814 206.566 153.752 205.631 152.461 205.744C151.122 205.861 150.223 206.968 150.346 208.37C150.469 209.773 151.546 210.707 152.885 210.59ZM164.226 207.702L163.827 203.144L165.867 202.965L166.258 207.428C166.469 209.835 165.196 211.44 162.837 211.646C160.478 211.853 158.961 210.492 158.751 208.085L158.36 203.622L160.4 203.443L160.799 208.002C160.901 209.165 161.569 209.83 162.685 209.732C163.785 209.636 164.328 208.866 164.226 207.702ZM167.946 209.706L169.179 208.377C169.727 208.955 170.356 209.35 171.121 209.283C171.775 209.226 172.076 208.814 172.034 208.336C171.911 206.933 168.116 207.795 167.869 204.974C167.745 203.556 168.847 202.383 170.521 202.237C171.748 202.129 172.915 202.621 173.557 203.352L172.322 204.649C171.863 204.175 171.3 203.807 170.679 203.861C170.041 203.917 169.769 204.294 169.805 204.708C169.925 206.079 173.725 205.265 173.967 208.038C174.083 209.731 172.809 210.774 171.295 210.906C169.861 211.032 168.79 210.547 167.946 209.706ZM181.731 200.292L179.587 197.814L181.786 197.621L183.659 200.124L181.731 200.292ZM182.614 209.836C181.004 209.976 179.823 209.148 179.694 207.666C179.588 206.455 180.449 205.464 182.145 205.026L184.563 204.397L184.545 204.19C184.471 203.345 183.786 202.859 182.862 202.94C182.081 203.008 181.507 203.428 181.128 204.055L179.547 203.053C180.178 202.002 181.304 201.293 182.771 201.165C185.098 200.961 186.415 202.243 186.569 204.013L187.024 209.209L185 209.386L184.931 208.605C184.476 209.271 183.554 209.753 182.614 209.836ZM181.694 207.395C181.741 207.936 182.202 208.249 182.887 208.19C183.812 208.109 184.444 207.62 184.786 206.947L184.687 205.816L182.803 206.302C181.97 206.519 181.65 206.9 181.694 207.395ZM191.788 200.697L193.955 200.508L196.545 206.063L198.116 200.144L200.299 199.953L198.069 208.243L195.407 208.475L191.788 200.697ZM209.465 205.929C208.804 206.998 207.615 207.729 206.101 207.861C203.248 208.111 201.463 206.259 201.258 203.916C201.051 201.541 202.377 199.45 205.007 199.22C207.239 199.024 208.838 200.41 209.022 202.514C209.061 202.96 209.033 203.38 208.993 203.657L203.367 204.149C203.689 205.631 204.667 206.156 205.926 206.045C206.802 205.969 207.534 205.519 207.914 204.908L209.465 205.929ZM205.105 200.881C204.069 200.972 203.433 201.606 203.302 202.677L207 202.354C206.897 201.544 206.236 200.782 205.105 200.881ZM211.414 207.075L210.711 199.042L212.735 198.865L212.791 199.502C213.302 198.911 214.015 198.431 215.083 198.338C216.82 198.186 218.311 199.26 218.519 201.635L218.937 206.417L216.897 206.595L216.486 201.893C216.392 200.825 215.728 200.209 214.74 200.295C213.72 200.385 213.238 201.117 212.98 201.654L213.438 206.898L211.414 207.075ZM221.43 196.691C220.713 196.753 220.055 196.201 219.992 195.483C219.929 194.766 220.482 194.107 221.199 194.045C221.916 193.982 222.559 194.536 222.622 195.253C222.684 195.97 222.148 196.628 221.43 196.691ZM221.236 206.216L220.533 198.182L222.557 198.005L223.26 206.039L221.236 206.216ZM225.688 205.826L224.985 197.793L227.009 197.616L227.079 198.413C227.557 197.825 228.206 197.35 229.115 197.271C229.386 197.247 229.629 197.274 229.826 197.321L230 199.314C229.74 199.272 229.465 199.248 229.098 199.28C228.11 199.367 227.52 199.964 227.261 200.501L227.712 205.649L225.688 205.826Z" fill="#161616"/>
        <path d="M282.916 199.113C282.717 198.946 282.606 198.722 282.581 198.439C282.556 198.157 282.627 197.917 282.794 197.718L286.339 193.493L282.114 189.948C281.916 189.781 281.804 189.557 281.779 189.274C281.755 188.992 281.826 188.752 281.992 188.553C282.159 188.355 282.383 188.243 282.666 188.218C282.948 188.193 283.188 188.264 283.387 188.431L288.37 192.613C288.479 192.704 288.559 192.805 288.611 192.918C288.662 193.03 288.694 193.153 288.705 193.286C288.717 193.419 288.707 193.545 288.676 193.665C288.645 193.785 288.583 193.899 288.492 194.007L284.311 198.991C284.144 199.189 283.92 199.301 283.637 199.326C283.355 199.35 283.115 199.279 282.916 199.113Z" fill="#646464"/>
        <path d="M44.0496 272.912C44.3318 272.888 44.5602 272.771 44.7348 272.563C44.9087 272.356 44.9833 272.111 44.9586 271.829L44.6078 267.819C44.5831 267.537 44.4675 267.313 44.2609 267.147C44.0536 266.981 43.8089 266.911 43.5266 266.935C43.2444 266.96 43.0163 267.076 42.8424 267.283C42.6678 267.491 42.5929 267.736 42.6176 268.019L42.9684 272.028C42.9931 272.311 43.1091 272.535 43.3163 272.7C43.5229 272.866 43.7673 272.937 44.0496 272.912ZM44.3982 276.897C44.6804 276.872 44.9088 276.756 45.0834 276.548C45.2573 276.341 45.3319 276.096 45.3072 275.814C45.2825 275.532 45.1665 275.303 44.9592 275.129C44.7512 274.955 44.5061 274.88 44.2239 274.905C43.9416 274.929 43.7135 275.045 43.5396 275.253C43.3651 275.461 43.2901 275.706 43.3148 275.988C43.3395 276.27 43.4559 276.498 43.6638 276.672C43.8711 276.847 44.1159 276.922 44.3982 276.897ZM44.834 281.878C43.4559 281.999 42.138 281.85 40.8801 281.433C39.6224 281.016 38.506 280.399 37.531 279.581C36.5559 278.763 35.7541 277.771 35.1254 276.604C34.496 275.438 34.121 274.166 34.0005 272.788C33.8799 271.41 34.0283 270.092 34.4456 268.834C34.8622 267.576 35.4796 266.46 36.2977 265.485C37.1158 264.51 38.108 263.708 39.2743 263.078C40.4406 262.449 41.7128 262.075 43.0909 261.954C44.4689 261.834 45.7868 261.982 47.0446 262.398C48.3024 262.816 49.4188 263.433 50.3939 264.251C51.3689 265.07 52.1707 266.062 52.7994 267.228C53.4288 268.394 53.8038 269.667 53.9244 271.045C54.0449 272.423 53.8966 273.741 53.4793 274.998C53.0626 276.256 52.4453 277.373 51.6271 278.348C50.809 279.323 49.8168 280.125 48.6504 280.753C47.4842 281.383 46.212 281.758 44.834 281.878Z" fill="#D31140"/>
        <path d="M80.9691 272.493C81.1546 274.613 79.5385 276.152 77.2114 276.355C75.1074 276.539 73.6717 275.733 72.6238 274.219L74.4028 272.891C75.1318 274.064 75.9283 274.54 77.0281 274.444C78.112 274.349 78.8677 273.624 78.7771 272.588C78.6878 271.568 77.8351 271 76.6556 271.104L74.8226 271.264L74.6552 269.351L76.3448 269.204C77.2852 269.121 77.9246 268.535 77.8493 267.675C77.7754 266.83 77.096 266.407 76.2193 266.484C75.3267 266.562 74.7629 267.093 74.3703 267.931L72.5222 267C73.2194 265.606 74.4102 264.715 76.2114 264.557C78.2516 264.379 79.8676 265.41 80.0279 267.243C80.1186 268.279 79.749 269.195 78.9704 269.841C80.1522 270.316 80.8617 271.266 80.9691 272.493ZM89.8145 275.172C88.2047 275.313 87.024 274.485 86.8943 273.003C86.7883 271.791 87.6492 270.8 89.3456 270.363L91.7639 269.734L91.7458 269.526C91.6719 268.682 90.9869 268.196 90.0624 268.276C89.2814 268.345 88.7078 268.764 88.329 269.392L86.7477 268.39C87.3785 267.339 88.505 266.63 89.9714 266.502C92.2985 266.298 93.6153 267.58 93.7701 269.349L94.2247 274.546L92.2004 274.723L92.1321 273.942C91.6764 274.608 90.7549 275.09 89.8145 275.172ZM88.8943 272.731C88.9417 273.273 89.4027 273.586 90.0881 273.526C91.0125 273.445 91.6443 272.956 91.987 272.284L91.888 271.152L90.0032 271.638C89.171 271.856 88.851 272.237 88.8943 272.731ZM100.261 272.411C101.057 272.342 101.663 271.919 101.997 271.328L103.681 272.401C103.018 273.455 101.894 274.196 100.428 274.324C97.6544 274.567 95.8225 272.719 95.6175 270.376C95.4125 268.033 96.8958 265.896 99.6692 265.653C101.136 265.525 102.371 266.059 103.207 266.982L101.735 268.331C101.303 267.807 100.634 267.496 99.8047 267.569C98.4818 267.684 97.5987 268.79 97.7214 270.192C97.8455 271.611 98.9057 272.53 100.261 272.411ZM105.637 270.592L105.35 267.308L103.852 267.439L103.693 265.622L105.191 265.491L105.015 263.483L107.056 263.304L107.231 265.313L109.686 265.098L109.845 266.915L107.39 267.13L107.678 270.413C107.756 271.306 108.265 271.615 109.061 271.545C109.619 271.496 109.98 271.4 110.242 271.265L110.396 273.034C110.013 273.244 109.542 273.366 108.873 273.425C106.864 273.6 105.809 272.552 105.637 270.592ZM112.396 263.448C111.679 263.51 111.02 262.958 110.957 262.24C110.895 261.523 111.447 260.864 112.165 260.802C112.882 260.739 113.525 261.293 113.587 262.01C113.65 262.727 113.113 263.385 112.396 263.448ZM112.202 272.973L111.499 264.939L113.523 264.762L114.226 272.796L112.202 272.973ZM119.748 263.896C122.362 263.668 124.316 265.44 124.527 267.847C124.737 270.254 123.121 272.339 120.507 272.567C117.893 272.796 115.939 271.024 115.728 268.617C115.518 266.21 117.134 264.125 119.748 263.896ZM120.371 270.652C121.662 270.539 122.544 269.418 122.423 268.031C122.3 266.628 121.238 265.693 119.947 265.806C118.608 265.924 117.709 267.03 117.832 268.433C117.955 269.835 119.032 270.769 120.371 270.652ZM126.724 271.702L126.021 263.669L128.046 263.492L128.101 264.129C128.612 263.539 129.325 263.059 130.393 262.965C132.13 262.813 133.621 263.887 133.829 266.262L134.248 271.044L132.207 271.222L131.796 266.52C131.703 265.452 131.038 264.836 130.05 264.923C129.03 265.012 128.548 265.745 128.29 266.281L128.749 271.525L126.724 271.702ZM135.743 269.741L136.976 268.412C137.524 268.991 138.153 269.385 138.918 269.318C139.572 269.261 139.873 268.849 139.831 268.371C139.708 266.968 135.913 267.831 135.666 265.009C135.542 263.591 136.644 262.418 138.318 262.272C139.545 262.164 140.713 262.657 141.355 263.387L140.119 264.684C139.66 264.21 139.098 263.842 138.476 263.896C137.838 263.952 137.566 264.329 137.603 264.744C137.722 266.114 141.522 265.3 141.765 268.073C141.881 269.766 140.607 270.809 139.092 270.941C137.658 271.067 136.588 270.582 135.743 269.741ZM155.408 267.876C154.747 268.945 153.558 269.676 152.044 269.808C149.191 270.058 147.407 268.206 147.202 265.863C146.994 263.488 148.321 261.397 150.951 261.167C153.182 260.971 154.781 262.357 154.965 264.461C155.004 264.908 154.977 265.328 154.937 265.604L149.31 266.096C149.632 267.578 150.61 268.103 151.869 267.993C152.746 267.916 153.477 267.466 153.857 266.855L155.408 267.876ZM151.048 262.828C150.012 262.919 149.377 263.553 149.245 264.624L152.943 264.301C152.84 263.491 152.179 262.729 151.048 262.828ZM157.357 269.022L156.654 260.989L158.679 260.812L158.734 261.449C159.245 260.859 159.958 260.379 161.026 260.285C162.763 260.133 164.254 261.207 164.462 263.582L164.881 268.364L162.84 268.542L162.429 263.84C162.336 262.772 161.671 262.156 160.683 262.242C159.663 262.332 159.181 263.065 158.923 263.601L159.382 268.845L157.357 269.022ZM171.475 267.787L170.772 259.754L172.797 259.577L172.866 260.374C173.345 259.786 173.994 259.311 174.903 259.232C175.174 259.208 175.417 259.235 175.614 259.282L175.788 261.274C175.527 261.233 175.252 261.209 174.886 261.241C173.897 261.327 173.307 261.925 173.049 262.462L173.499 267.61L171.475 267.787ZM184.889 265.296C184.228 266.366 183.039 267.096 181.525 267.229C178.672 267.479 176.888 265.627 176.683 263.284C176.475 260.909 177.802 258.817 180.432 258.587C182.663 258.392 184.262 259.778 184.446 261.882C184.485 262.328 184.458 262.748 184.418 263.025L178.791 263.517C179.114 264.999 180.091 265.523 181.35 265.413C182.227 265.337 182.958 264.887 183.339 264.276L184.889 265.296ZM180.529 260.249C179.493 260.34 178.858 260.974 178.727 262.045L182.424 261.722C182.321 260.911 181.661 260.15 180.529 260.249ZM187.076 263.467L186.789 260.183L185.291 260.314L185.132 258.497L186.63 258.366L186.454 256.358L188.495 256.179L188.67 258.188L191.125 257.973L191.284 259.79L188.829 260.005L189.117 263.288C189.195 264.181 189.703 264.49 190.5 264.42C191.058 264.371 191.419 264.275 191.68 264.14L191.835 265.909C191.452 266.12 190.981 266.241 190.312 266.3C188.303 266.475 187.248 265.427 187.076 263.467ZM195.925 265.889C194.315 266.03 193.134 265.201 193.005 263.719C192.899 262.508 193.76 261.517 195.456 261.079L197.874 260.45L197.856 260.243C197.782 259.398 197.097 258.912 196.173 258.993C195.392 259.061 194.818 259.481 194.439 260.108L192.858 259.106C193.489 258.055 194.615 257.346 196.082 257.218C198.409 257.015 199.726 258.297 199.88 260.066L200.335 265.262L198.311 265.439L198.242 264.658C197.787 265.324 196.865 265.807 195.925 265.889ZM195.005 263.448C195.052 263.99 195.513 264.303 196.198 264.243C197.123 264.162 197.755 263.673 198.097 263L197.998 261.869L196.114 262.355C195.281 262.572 194.961 262.954 195.005 263.448ZM202.653 265.059L201.95 257.026L203.974 256.849L204.044 257.646C204.523 257.058 205.172 256.583 206.08 256.504C206.351 256.48 206.595 256.507 206.791 256.554L206.966 258.547C206.705 258.505 206.43 258.481 206.063 258.513C205.075 258.6 204.485 259.197 204.227 259.734L204.677 264.882L202.653 265.059ZM207.861 260.556C207.656 258.213 209.027 256.086 211.562 255.864C212.646 255.769 213.456 256.035 214.132 256.603L213.733 252.044L215.773 251.866L216.819 263.82L214.779 263.998L214.723 263.361C214.156 264.037 213.404 264.44 212.32 264.535C209.786 264.756 208.066 262.899 207.861 260.556ZM209.98 260.371C210.103 261.773 211.069 262.717 212.44 262.597C213.348 262.517 214.064 262.069 214.542 261.289L214.313 258.675C213.707 257.989 212.924 257.672 212.016 257.751C210.645 257.871 209.858 258.968 209.98 260.371Z" fill="#161616"/>
        <path d="M287.884 255.896C287.685 255.729 287.574 255.505 287.549 255.223C287.524 254.94 287.595 254.7 287.762 254.501L291.307 250.276L287.082 246.731C286.883 246.564 286.772 246.34 286.747 246.058C286.722 245.775 286.793 245.535 286.96 245.336C287.127 245.138 287.351 245.026 287.633 245.001C287.916 244.977 288.156 245.048 288.355 245.214L293.338 249.396C293.446 249.487 293.527 249.588 293.579 249.701C293.63 249.814 293.661 249.936 293.673 250.069C293.685 250.202 293.675 250.328 293.644 250.448C293.612 250.568 293.551 250.682 293.46 250.79L289.279 255.774C289.112 255.972 288.887 256.084 288.605 256.109C288.323 256.134 288.082 256.063 287.884 255.896Z" fill="#646464"/>
        <path d="M13.7151 247.459L316.249 220.991L316.075 218.999L13.5408 245.467L13.7151 247.459ZM320.955 274.786L18.4215 301.254L18.5958 303.246L321.13 276.778L320.955 274.786Z" fill="#F1F1F1"/>
        <path d="M46.4643 334.938L52.4415 334.415C52.7238 334.39 52.9522 334.274 53.1267 334.066C53.3006 333.859 53.3752 333.614 53.3505 333.332C53.3258 333.049 53.2099 332.821 53.0026 332.647C52.7946 332.473 52.5494 332.398 52.2672 332.423L46.29 332.946C46.0078 332.97 45.7797 333.087 45.6058 333.294C45.4312 333.502 45.3563 333.747 45.381 334.029C45.4057 334.311 45.522 334.539 45.7299 334.713C45.9373 334.888 46.1821 334.963 46.4643 334.938ZM46.1157 330.953L52.0929 330.43C52.3751 330.405 52.6035 330.289 52.7781 330.081C52.952 329.874 53.0266 329.629 53.0019 329.347C52.9772 329.065 52.8612 328.836 52.6539 328.662C52.4459 328.488 52.2008 328.413 51.9186 328.438L45.9414 328.961C45.6591 328.985 45.4311 329.101 45.2571 329.309C45.0826 329.517 45.0077 329.762 45.0324 330.044C45.0571 330.326 45.1734 330.554 45.3813 330.728C45.5887 330.903 45.8335 330.978 46.1157 330.953ZM43.8244 339.184C43.2765 339.232 42.7905 339.078 42.3666 338.722C41.9419 338.366 41.7056 337.914 41.6577 337.366L40.2632 321.427C40.2152 320.879 40.3694 320.393 40.7258 319.968C41.0815 319.544 41.5333 319.308 42.0813 319.26L49.229 318.635C49.4946 318.612 49.7523 318.639 50.0021 318.718C50.2513 318.796 50.4751 318.919 50.6737 319.086L55.928 323.495C56.1266 323.661 56.2862 323.86 56.4069 324.092C56.5276 324.324 56.5996 324.573 56.6228 324.839L57.5968 335.972C57.6447 336.519 57.4909 337.006 57.1352 337.43C56.7788 337.854 56.3266 338.09 55.7787 338.138L43.8244 339.184ZM49.5776 324.627C49.6022 324.91 49.7186 325.138 49.9265 325.312C50.1339 325.486 50.3786 325.561 50.6609 325.536L54.6457 325.188L49.2289 320.643L49.5776 324.627Z" fill="#950EFF"/>
        <path d="M77.7477 330.217L77.5776 328.273L81.8127 321.606L84.3311 321.386L84.8777 327.634L86.0094 327.535L86.1795 329.48L85.0479 329.579L85.3072 332.543L83.1554 332.732L82.8961 329.767L77.7477 330.217ZM79.7931 328.079L82.7259 327.822L82.3927 324.013L79.7931 328.079ZM94.7823 331.955C93.1724 332.096 91.9918 331.268 91.8621 329.786C91.7561 328.574 92.617 327.583 94.3133 327.146L96.7317 326.517L96.7136 326.31C96.6397 325.465 95.9547 324.979 95.0302 325.059C94.2492 325.128 93.6756 325.547 93.2968 326.175L91.7155 325.173C92.3463 324.122 93.4728 323.413 94.9392 323.285C97.2663 323.081 98.583 324.363 98.7378 326.132L99.1924 331.329L97.1682 331.506L97.0998 330.725C96.6442 331.391 95.7227 331.873 94.7823 331.955ZM93.862 329.514C93.9094 330.056 94.3705 330.369 95.0559 330.309C95.9803 330.228 96.6121 329.739 96.9548 329.067L96.8558 327.935L94.971 328.421C94.1388 328.639 93.8188 329.02 93.862 329.514ZM105.228 329.194C106.025 329.125 106.631 328.702 106.964 328.111L108.648 329.184C107.986 330.238 106.862 330.979 105.396 331.107C102.622 331.35 100.79 329.502 100.585 327.159C100.38 324.816 101.864 322.679 104.637 322.436C106.103 322.308 107.339 322.842 108.174 323.765L106.702 325.114C106.271 324.59 105.601 324.279 104.772 324.352C103.45 324.467 102.566 325.573 102.689 326.975C102.813 328.394 103.873 329.313 105.228 329.194ZM110.605 327.375L110.318 324.091L108.82 324.222L108.661 322.405L110.159 322.274L109.983 320.266L112.023 320.088L112.199 322.096L114.654 321.881L114.813 323.698L112.358 323.913L112.645 327.196C112.723 328.089 113.232 328.398 114.029 328.328C114.587 328.279 114.948 328.183 115.209 328.048L115.364 329.817C114.981 330.028 114.51 330.149 113.84 330.208C111.832 330.383 110.777 329.335 110.605 327.375ZM117.364 320.231C116.647 320.293 115.988 319.741 115.925 319.023C115.863 318.306 116.415 317.647 117.132 317.585C117.85 317.522 118.492 318.076 118.555 318.793C118.618 319.511 118.081 320.168 117.364 320.231ZM117.169 329.756L116.467 321.722L118.491 321.545L119.194 329.579L117.169 329.756ZM124.716 320.68C127.33 320.451 129.284 322.223 129.494 324.63C129.705 327.037 128.088 329.122 125.474 329.35C122.86 329.579 120.906 327.807 120.696 325.4C120.485 322.993 122.102 320.908 124.716 320.68ZM125.339 327.435C126.63 327.322 127.512 326.201 127.39 324.814C127.268 323.412 126.206 322.477 124.915 322.589C123.576 322.707 122.677 323.813 122.8 325.216C122.923 326.618 124 327.552 125.339 327.435ZM131.692 328.485L130.989 320.452L133.013 320.275L133.069 320.912C133.58 320.322 134.293 319.842 135.361 319.748C137.098 319.596 138.589 320.67 138.797 323.045L139.215 327.827L137.175 328.006L136.764 323.303C136.67 322.236 136.006 321.619 135.018 321.706C133.998 321.795 133.516 322.528 133.258 323.064L133.716 328.308L131.692 328.485ZM140.711 326.524L141.944 325.195C142.492 325.774 143.121 326.168 143.886 326.101C144.54 326.044 144.841 325.632 144.799 325.154C144.676 323.752 140.881 324.614 140.634 321.792C140.51 320.374 141.612 319.201 143.286 319.055C144.513 318.948 145.68 319.44 146.322 320.17L145.087 321.467C144.628 320.993 144.065 320.625 143.444 320.679C142.806 320.735 142.534 321.112 142.57 321.527C142.69 322.897 146.49 322.083 146.732 324.857C146.848 326.549 145.574 327.592 144.06 327.724C142.626 327.85 141.555 327.365 140.711 326.524ZM154.496 317.11L152.352 314.632L154.551 314.439L156.424 316.942L154.496 317.11ZM155.379 326.654C153.769 326.795 152.588 325.966 152.459 324.484C152.353 323.273 153.214 322.282 154.91 321.844L157.328 321.215L157.31 321.008C157.236 320.163 156.551 319.677 155.627 319.758C154.846 319.826 154.272 320.246 153.893 320.873L152.312 319.871C152.943 318.82 154.069 318.111 155.536 317.983C157.863 317.78 159.18 319.062 159.334 320.831L159.789 326.027L157.765 326.204L157.696 325.423C157.241 326.089 156.319 326.572 155.379 326.654ZM154.459 324.213C154.506 324.755 154.967 325.068 155.653 325.008C156.577 324.927 157.209 324.438 157.551 323.765L157.452 322.634L155.568 323.12C154.735 323.337 154.415 323.719 154.459 324.213ZM166.403 325.448L165.7 317.415L167.725 317.238L167.794 318.035C168.273 317.447 168.922 316.973 169.831 316.893C170.102 316.869 170.345 316.896 170.542 316.943L170.716 318.936C170.455 318.894 170.18 318.87 169.814 318.902C168.825 318.989 168.235 319.586 167.977 320.123L168.427 325.271L166.403 325.448ZM176.392 315.195L174.447 315.365L175.873 312.574L178.073 312.382L176.392 315.195ZM179.817 322.958C179.156 324.028 177.967 324.758 176.453 324.89C173.6 325.14 171.816 323.288 171.611 320.945C171.403 318.57 172.73 316.479 175.36 316.249C177.591 316.054 179.19 317.439 179.374 319.543C179.413 319.99 179.386 320.41 179.346 320.686L173.719 321.179C174.042 322.66 175.019 323.185 176.278 323.075C177.155 322.998 177.886 322.549 178.267 321.937L179.817 322.958ZM175.457 317.911C174.421 318.001 173.786 318.635 173.655 319.707L177.352 319.383C177.249 318.573 176.589 317.812 175.457 317.911ZM183.942 324.155C182.332 324.296 181.151 323.467 181.021 321.985C180.916 320.774 181.776 319.783 183.473 319.345L185.891 318.716L185.873 318.509C185.799 317.664 185.114 317.178 184.19 317.259C183.409 317.327 182.835 317.747 182.456 318.374L180.875 317.372C181.506 316.321 182.632 315.613 184.099 315.484C186.426 315.281 187.742 316.563 187.897 318.332L188.352 323.528L186.328 323.705L186.259 322.924C185.804 323.59 184.882 324.073 183.942 324.155ZM183.021 321.714C183.069 322.256 183.53 322.569 184.215 322.509C185.14 322.428 185.772 321.939 186.114 321.267L186.015 320.135L184.13 320.621C183.298 320.838 182.978 321.22 183.021 321.714ZM190.67 323.325L189.624 311.371L191.648 311.194L192.694 323.148L190.67 323.325ZM195.316 313.411C194.599 313.473 193.94 312.921 193.878 312.203C193.815 311.486 194.367 310.828 195.085 310.765C195.802 310.702 196.445 311.256 196.507 311.973C196.57 312.691 196.033 313.348 195.316 313.411ZM195.122 322.936L194.419 314.903L196.443 314.725L197.146 322.759L195.122 322.936ZM198.661 321.454L199.894 320.125C200.443 320.704 201.071 321.098 201.837 321.031C202.49 320.974 202.791 320.562 202.749 320.084C202.627 318.682 198.831 319.544 198.585 316.722C198.461 315.304 199.563 314.131 201.236 313.985C202.463 313.878 203.631 314.37 204.273 315.1L203.037 316.397C202.578 315.923 202.016 315.555 201.394 315.609C200.757 315.665 200.485 316.042 200.521 316.457C200.641 317.827 204.44 317.013 204.683 319.787C204.799 321.479 203.525 322.522 202.011 322.654C200.576 322.78 199.506 322.295 198.661 321.454ZM213.999 319.967C213.338 321.037 212.149 321.767 210.635 321.9C207.782 322.149 205.998 320.298 205.793 317.955C205.585 315.58 206.912 313.488 209.542 313.258C211.773 313.063 213.372 314.449 213.556 316.553C213.595 316.999 213.568 317.419 213.528 317.696L207.901 318.188C208.223 319.67 209.201 320.194 210.46 320.084C211.337 320.007 212.068 319.558 212.448 318.947L213.999 319.967ZM209.639 314.92C208.603 315.011 207.968 315.645 207.837 316.716L211.534 316.393C211.431 315.582 210.771 314.821 209.639 314.92ZM215.948 321.114L215.246 313.08L217.27 312.903L217.339 313.7C217.818 313.112 218.467 312.638 219.376 312.558C219.647 312.535 219.89 312.562 220.087 312.609L220.261 314.601C220.001 314.56 219.725 314.536 219.359 314.568C218.371 314.654 217.78 315.252 217.522 315.788L217.973 320.937L215.948 321.114Z" fill="#161616"/>
        <path d="M292.852 312.679C292.653 312.512 292.541 312.288 292.517 312.006C292.492 311.723 292.563 311.483 292.73 311.284L296.275 307.059L292.05 303.514C291.851 303.347 291.74 303.123 291.715 302.841C291.69 302.558 291.761 302.318 291.928 302.119C292.094 301.921 292.319 301.809 292.601 301.784C292.883 301.76 293.124 301.831 293.322 301.997L298.306 306.179C298.414 306.27 298.494 306.372 298.546 306.484C298.598 306.597 298.629 306.719 298.641 306.852C298.652 306.985 298.643 307.111 298.612 307.231C298.58 307.351 298.519 307.465 298.428 307.574L294.246 312.557C294.08 312.756 293.855 312.867 293.573 312.892C293.291 312.917 293.05 312.846 292.852 312.679Z" fill="#646464"/>
        <path d="M69.2206 395.987L71.6274 395.776L75.6896 404.206L78.2262 395.199L80.633 394.988L77.3853 406.515L74.4206 406.775L69.2206 395.987ZM85.3308 397.404C87.9448 397.175 89.8988 398.948 90.1093 401.355C90.3199 403.761 88.7034 405.846 86.0894 406.075C83.4754 406.304 81.5215 404.531 81.3109 402.124C81.1004 399.718 82.7168 397.633 85.3308 397.404ZM85.954 404.159C87.245 404.046 88.1267 402.925 88.0054 401.539C87.8826 400.136 86.8211 399.201 85.53 399.314C84.1912 399.431 83.2922 400.538 83.4149 401.94C83.5376 403.343 84.6151 404.277 85.954 404.159ZM92.5016 395.685C91.7844 395.747 91.1257 395.195 91.0629 394.477C91.0002 393.76 91.5529 393.101 92.2701 393.039C92.9874 392.976 93.6301 393.53 93.6929 394.247C93.7556 394.964 93.2189 395.622 92.5016 395.685ZM92.3071 405.21L91.6042 397.176L93.6285 396.999L94.3313 405.033L92.3071 405.21ZM96.7588 404.82L96.056 396.787L98.0803 396.61L98.15 397.407C98.6286 396.819 99.2777 396.344 100.186 396.265C100.457 396.241 100.7 396.268 100.897 396.315L101.072 398.308C100.811 398.266 100.536 398.242 100.169 398.274C99.181 398.361 98.5909 398.958 98.3327 399.495L98.7831 404.643L96.7588 404.82ZM107.53 403.878L106.484 391.924L108.509 391.746L109.554 403.701L107.53 403.878ZM119.263 401.534C118.602 402.604 117.413 403.334 115.899 403.467C113.046 403.717 111.262 401.865 111.057 399.522C110.849 397.147 112.176 395.055 114.806 394.825C117.037 394.63 118.636 396.016 118.82 398.12C118.859 398.566 118.832 398.986 118.792 399.263L113.165 399.755C113.487 401.237 114.465 401.761 115.724 401.651C116.601 401.575 117.332 401.125 117.712 400.514L119.263 401.534ZM114.903 396.487C113.867 396.578 113.232 397.212 113.1 398.283L116.798 397.96C116.695 397.149 116.035 396.388 114.903 396.487ZM124.583 398.339C124.378 395.995 125.75 393.868 128.284 393.646C129.368 393.551 130.178 393.818 130.854 394.385L130.456 389.826L132.496 389.648L133.542 401.602L131.501 401.781L131.446 401.143C130.878 401.819 130.127 402.222 129.043 402.317C126.509 402.539 124.788 400.682 124.583 398.339ZM126.703 398.153C126.826 399.556 127.792 400.499 129.162 400.379C130.071 400.3 130.787 399.852 131.264 399.071L131.036 396.457C130.43 395.771 129.647 395.454 128.738 395.534C127.368 395.654 126.58 396.75 126.703 398.153ZM139.824 391.673L137.88 391.843L139.306 389.052L141.505 388.86L139.824 391.673ZM143.25 399.436C142.589 400.506 141.4 401.236 139.885 401.368C137.032 401.618 135.248 399.766 135.043 397.423C134.835 395.048 136.162 392.957 138.792 392.727C141.024 392.532 142.622 393.917 142.807 396.021C142.846 396.468 142.818 396.888 142.778 397.164L137.152 397.657C137.474 399.138 138.451 399.663 139.711 399.553C140.587 399.476 141.319 399.027 141.699 398.415L143.25 399.436ZM138.889 394.389C137.853 394.479 137.218 395.113 137.087 396.185L140.785 395.861C140.682 395.051 140.021 394.29 138.889 394.389ZM145.437 397.606L145.149 394.323L143.651 394.454L143.492 392.637L144.99 392.506L144.815 390.497L146.855 390.319L147.031 392.327L149.485 392.112L149.644 393.93L147.19 394.144L147.477 397.428C147.555 398.32 148.064 398.629 148.861 398.559C149.419 398.511 149.78 398.415 150.041 398.28L150.196 400.049C149.813 400.259 149.341 400.38 148.672 400.439C146.664 400.615 145.608 399.567 145.437 397.606ZM154.285 400.028C152.675 400.169 151.495 399.341 151.365 397.859C151.259 396.647 152.12 395.656 153.816 395.219L156.235 394.59L156.216 394.382C156.143 393.538 155.458 393.052 154.533 393.132C153.752 393.201 153.178 393.62 152.8 394.248L151.218 393.246C151.849 392.195 152.976 391.486 154.442 391.358C156.769 391.154 158.086 392.436 158.241 394.205L158.695 399.402L156.671 399.579L156.603 398.798C156.147 399.464 155.226 399.946 154.285 400.028ZM153.365 397.587C153.412 398.129 153.873 398.442 154.559 398.382C155.483 398.301 156.115 397.812 156.458 397.14L156.359 396.008L154.474 396.494C153.642 396.712 153.322 397.093 153.365 397.587ZM161.208 389.674C160.491 389.736 159.832 389.184 159.769 388.466C159.706 387.749 160.259 387.09 160.976 387.028C161.694 386.965 162.336 387.519 162.399 388.236C162.462 388.953 161.925 389.611 161.208 389.674ZM161.013 399.199L160.311 391.165L162.335 390.988L163.038 399.022L161.013 399.199ZM165.465 398.809L164.419 386.855L166.444 386.678L167.489 398.632L165.465 398.809ZM173.288 394.077C173.083 391.734 174.455 389.607 176.989 389.385C178.073 389.29 178.883 389.557 179.559 390.124L179.16 385.565L181.2 385.387L182.246 397.341L180.206 397.52L180.15 396.882C179.583 397.558 178.831 397.961 177.747 398.056C175.213 398.278 173.493 396.42 173.288 394.077ZM175.408 393.892C175.53 395.295 176.496 396.238 177.867 396.118C178.776 396.039 179.491 395.591 179.969 394.81L179.74 392.196C179.134 391.51 178.352 391.193 177.443 391.273C176.072 391.393 175.285 392.489 175.408 393.892ZM191.954 395.175C191.293 396.244 190.104 396.975 188.59 397.107C185.737 397.357 183.953 395.505 183.748 393.162C183.54 390.787 184.867 388.696 187.497 388.466C189.728 388.27 191.327 389.656 191.511 391.76C191.55 392.207 191.523 392.627 191.483 392.903L185.856 393.395C186.178 394.877 187.156 395.402 188.415 395.292C189.292 395.215 190.023 394.765 190.404 394.154L191.954 395.175ZM187.594 390.128C186.558 390.218 185.923 390.852 185.792 391.923L189.489 391.6C189.386 390.79 188.726 390.029 187.594 390.128ZM198.199 395.945L197.497 387.912L199.521 387.735L199.574 388.341C200.07 387.767 200.72 387.309 201.709 387.222C202.729 387.133 203.66 387.501 204.262 388.316C204.774 387.564 205.486 386.892 206.841 386.773C208.499 386.628 209.906 387.662 210.104 389.925L210.536 394.866L208.496 395.045L208.071 390.183C207.986 389.211 207.407 388.651 206.498 388.731C205.622 388.807 205.196 389.455 204.925 390.025C204.951 390.135 204.96 390.246 204.972 390.374L205.404 395.315L203.364 395.494L202.938 390.632C202.853 389.66 202.274 389.1 201.366 389.18C200.441 389.261 200.023 389.988 199.765 390.524L200.224 395.768L198.199 395.945ZM215.131 394.705C213.521 394.846 212.34 394.018 212.211 392.535C212.105 391.324 212.966 390.333 214.662 389.896L217.08 389.266L217.062 389.059C216.988 388.214 216.303 387.728 215.379 387.809C214.598 387.877 214.024 388.297 213.645 388.924L212.064 387.922C212.695 386.871 213.821 386.163 215.288 386.034C217.615 385.831 218.932 387.113 219.086 388.882L219.541 394.078L217.517 394.255L217.448 393.474C216.993 394.141 216.071 394.623 215.131 394.705ZM214.211 392.264C214.258 392.806 214.719 393.119 215.404 393.059C216.329 392.978 216.961 392.489 217.303 391.817L217.204 390.685L215.32 391.171C214.487 391.388 214.167 391.77 214.211 392.264ZM225.352 392.397L226.585 391.069C227.133 391.647 227.762 392.042 228.527 391.975C229.181 391.918 229.482 391.506 229.44 391.028C229.318 389.625 225.522 390.487 225.275 387.666C225.151 386.247 226.253 385.075 227.927 384.929C229.154 384.821 230.322 385.313 230.964 386.044L229.728 387.341C229.269 386.867 228.707 386.499 228.085 386.553C227.448 386.609 227.175 386.986 227.212 387.4C227.332 388.771 231.131 387.957 231.374 390.73C231.49 392.423 230.216 393.466 228.701 393.598C227.267 393.723 226.197 393.239 225.352 392.397ZM240.69 390.911C240.029 391.981 238.84 392.711 237.326 392.843C234.473 393.093 232.688 391.242 232.483 388.898C232.276 386.524 233.602 384.432 236.232 384.202C238.464 384.007 240.063 385.393 240.247 387.497C240.286 387.943 240.258 388.363 240.218 388.639L234.592 389.132C234.914 390.613 235.892 391.138 237.151 391.028C238.027 390.951 238.759 390.502 239.139 389.89L240.69 390.911ZM236.33 385.864C235.294 385.954 234.658 386.588 234.527 387.66L238.225 387.336C238.122 386.526 237.461 385.765 236.33 385.864ZM242.639 392.057L241.936 384.024L243.961 383.847L244.014 384.453C244.509 383.879 245.16 383.421 246.148 383.334C247.168 383.245 248.1 383.613 248.701 384.428C249.214 383.676 249.926 383.004 251.281 382.885C252.938 382.74 254.346 383.774 254.544 386.037L254.976 390.978L252.936 391.157L252.51 386.295C252.425 385.323 251.846 384.763 250.938 384.843C250.061 384.919 249.636 385.567 249.365 386.137C249.39 386.247 249.4 386.358 249.411 386.486L249.844 391.427L247.803 391.606L247.378 386.744C247.293 385.772 246.714 385.212 245.805 385.292C244.881 385.373 244.463 386.1 244.205 386.636L244.663 391.88L242.639 392.057ZM259.571 390.817C257.961 390.958 256.78 390.13 256.65 388.647C256.544 387.436 257.405 386.445 259.102 386.008L261.52 385.378L261.502 385.171C261.428 384.326 260.743 383.84 259.818 383.921C259.037 383.989 258.464 384.409 258.085 385.036L256.504 384.034C257.135 382.983 258.261 382.275 259.727 382.146C262.055 381.943 263.371 383.225 263.526 384.994L263.981 390.19L261.956 390.367L261.888 389.586C261.432 390.253 260.511 390.735 259.571 390.817ZM258.65 388.376C258.698 388.918 259.159 389.231 259.844 389.171C260.769 389.09 261.4 388.601 261.743 387.929L261.644 386.797L259.759 387.283C258.927 387.5 258.607 387.882 258.65 388.376ZM266.493 380.462C265.776 380.525 265.117 379.972 265.055 379.255C264.992 378.538 265.545 377.879 266.262 377.816C266.979 377.754 267.622 378.308 267.685 379.025C267.747 379.742 267.211 380.399 266.493 380.462ZM266.299 389.987L265.596 381.954L267.62 381.777L268.323 389.81L266.299 389.987ZM270.75 389.598L270.048 381.565L272.072 381.388L272.128 382.025C272.638 381.434 273.351 380.954 274.419 380.861C276.156 380.709 277.648 381.783 277.855 384.158L278.274 388.94L276.233 389.118L275.822 384.416C275.729 383.348 275.064 382.732 274.076 382.818C273.056 382.908 272.574 383.64 272.316 384.177L272.775 389.421L270.75 389.598ZM287.854 386.785C287.192 387.854 286.004 388.585 284.489 388.717C281.636 388.967 279.852 387.115 279.647 384.772C279.439 382.397 280.766 380.306 283.396 380.076C285.627 379.88 287.226 381.266 287.41 383.37C287.449 383.817 287.422 384.237 287.382 384.513L281.755 385.005C282.078 386.487 283.055 387.012 284.314 386.902C285.191 386.825 285.923 386.375 286.303 385.764L287.854 386.785ZM283.493 381.737C282.457 381.828 281.822 382.462 281.691 383.533L285.389 383.21C285.286 382.4 284.625 381.638 283.493 381.737Z" fill="#3B69D1"/>
        <rect x="49.4079" y="374.331" width="254.69" height="55" rx="27.5" transform="rotate(-5 49.4079 374.331)" stroke="#3B69D1"/>
    </g>
    <g clip-path="url(#clip1_5487_14152)">
        <path d="M35.2857 471.061C31.7709 468.128 28.4098 465.3 25.0406 462.487C24.3713 461.923 23.8984 461.526 22.9429 460.957C22.2377 460.527 20.7227 459.648 20.4221 460.502C20.2475 461.233 20.2167 461.775 21.2853 462.868C24.0591 465.679 27.2286 468.054 30.3604 470.427C33.1273 472.521 35.2692 474.076 37.8266 475.784C39.021 476.581 39.8648 476.241 40.3549 475.01C40.7944 473.906 41.2649 472.781 41.4884 471.614C42.3173 467.413 43.0334 463.208 43.7952 458.989C43.893 458.466 44.0008 458.063 44.0283 457.424C44.0541 456.648 44.116 456.085 43.3847 455.911C42.6911 455.738 42.2303 456.638 42.0883 457.137C40.8095 461.28 38.3144 469.872 38.0774 470.299C36.8348 467.992 35.6365 465.882 34.5543 463.703C27.0898 448.486 20.7735 432.867 18.2447 415.941C16.2427 402.542 15.8616 389.138 17.548 375.687C17.6425 374.892 17.6699 374.079 17.681 373.296C17.7115 372.234 17.5395 371.676 16.9915 371.623C15.9496 371.661 15.7455 372.376 15.5332 372.932C15.0937 374.036 14.8833 375.248 14.6745 376.423C12.0454 392.163 13.0769 407.796 16.1694 423.359C19.3421 439.334 25.9508 453.94 33.8252 468.036C34.2688 468.763 35.1972 470.665 35.2857 471.061Z" fill="black"/>
    </g>
    <defs>
        <filter id="filter0_d_5487_14152" x="11" y="448" width="340.351" height="106.277" filterUnits="userSpaceOnUse" color-interpolation-filters="sRGB">
            <feFlood flood-opacity="0" result="BackgroundImageFix"/>
            <feColorMatrix in="SourceAlpha" type="matrix" values="0 0 0 0 0 0 0 0 0 0 0 0 0 0 0 0 0 0 127 0" result="hardAlpha"/>
            <feOffset dy="4"/>
            <feGaussianBlur stdDeviation="2"/>
            <feComposite in2="hardAlpha" operator="out"/>
            <feColorMatrix type="matrix" values="0 0 0 0 0 0 0 0 0 0 0 0 0 0 0 0 0 0 0.25 0"/>
            <feBlend mode="normal" in2="BackgroundImageFix" result="effect1_dropShadow_5487_14152"/>
            <feBlend mode="normal" in="SourceGraphic" in2="effect1_dropShadow_5487_14152" result="shape"/>
        </filter>
        <filter id="filter1_d_5487_14152" x="225.291" y="54.4483" width="75.7188" height="76.3047" filterUnits="userSpaceOnUse" color-interpolation-filters="sRGB">
            <feFlood flood-opacity="0" result="BackgroundImageFix"/>
            <feColorMatrix in="SourceAlpha" type="matrix" values="0 0 0 0 0 0 0 0 0 0 0 0 0 0 0 0 0 0 127 0" result="hardAlpha"/>
            <feOffset dy="4"/>
            <feGaussianBlur stdDeviation="6"/>
            <feComposite in2="hardAlpha" operator="out"/>
            <feColorMatrix type="matrix" values="0 0 0 0 0.152941 0 0 0 0 0.286275 0 0 0 0 0.588235 0 0 0 0.12 0"/>
            <feBlend mode="normal" in2="BackgroundImageFix" result="effect1_dropShadow_5487_14152"/>
            <feBlend mode="normal" in="SourceGraphic" in2="effect1_dropShadow_5487_14152" result="shape"/>
        </filter>
        <filter id="filter2_d_5487_14152" x="-3.33984" y="155.212" width="350.217" height="321.169" filterUnits="userSpaceOnUse" color-interpolation-filters="sRGB">
            <feFlood flood-opacity="0" result="BackgroundImageFix"/>
            <feColorMatrix in="SourceAlpha" type="matrix" values="0 0 0 0 0 0 0 0 0 0 0 0 0 0 0 0 0 0 127 0" result="hardAlpha"/>
            <feOffset dy="4"/>
            <feGaussianBlur stdDeviation="6"/>
            <feComposite in2="hardAlpha" operator="out"/>
            <feColorMatrix type="matrix" values="0 0 0 0 0.152941 0 0 0 0 0.286275 0 0 0 0 0.588235 0 0 0 0.12 0"/>
            <feBlend mode="normal" in2="BackgroundImageFix" result="effect1_dropShadow_5487_14152"/>
            <feBlend mode="normal" in="SourceGraphic" in2="effect1_dropShadow_5487_14152" result="shape"/>
        </filter>
        <clipPath id="clip0_5487_14152">
            <rect width="24" height="24" fill="white" transform="translate(167.304 476.268) rotate(-5)"/>
        </clipPath>
        <clipPath id="clip1_5487_14152">
            <rect width="97" height="97" fill="white" transform="matrix(0.874393 0.485219 0.485219 -0.874393 -38 442.816)"/>
        </clipPath>
    </defs>
</svg>
