<svg width="352" height="372" viewBox="0 0 352 372" fill="none" xmlns="http://www.w3.org/2000/svg">
<rect x="26.1261" y="107.979" width="301.383" height="237.379" rx="9.69563" transform="rotate(-5 26.1261 107.979)" fill="#F1F1F1" stroke="#878787" stroke-width="0.843099" stroke-dasharray="4.22 4.22"/>
<path d="M8.28011 77.7305L6.98013 62.8718L10.7373 62.5431L14.913 68.4662L17.9968 61.9079L21.754 61.5792L23.0539 76.438L20.0397 76.7017L19.1075 66.0458L16.2827 71.897L14.16 72.0827L10.362 66.811L11.2943 77.4668L8.28011 77.7305ZM36.392 73.5171C35.5113 74.9417 33.928 75.9144 31.9115 76.0908C28.1119 76.4233 25.7358 73.9575 25.4629 70.8371C25.1861 67.6743 26.953 64.8889 30.4555 64.5825C33.4272 64.3225 35.5565 66.1682 35.8016 68.9701C35.8536 69.5644 35.817 70.1238 35.7637 70.4921L28.2706 71.1476C28.6999 73.1206 30.0016 73.8195 31.6785 73.6728C32.846 73.5707 33.8203 72.9721 34.3266 72.1578L36.392 73.5171ZM30.5849 66.7956C29.2052 66.9163 28.3593 67.7603 28.1847 69.1873L33.1093 68.7565C32.9721 67.6776 32.092 66.6638 30.5849 66.7956ZM37.7728 73.5888L39.4147 71.8196C40.1452 72.5899 40.9826 73.1155 42.0015 73.0264C42.8718 72.9502 43.273 72.4018 43.2172 71.765C43.0538 69.897 37.9994 71.0451 37.6707 67.2879C37.5055 65.3987 38.973 63.8373 41.2018 63.6423C42.8363 63.4993 44.3909 64.1547 45.2461 65.1279L43.6004 66.8547C42.9891 66.2237 42.2403 65.7331 41.4125 65.8055C40.5634 65.8798 40.201 66.3821 40.2493 66.934C40.409 68.7595 45.4689 67.6751 45.7921 71.3686C45.9465 73.6224 44.2499 75.0114 42.2333 75.1878C40.3229 75.3549 38.8976 74.7096 37.7728 73.5888ZM52.0129 63.1242L54.0082 62.9496L53.9098 61.8246C53.7111 59.5534 55.0585 57.596 57.7331 57.362C58.7095 57.2766 59.5578 57.4376 60.2686 57.7391L59.3192 60.0894C58.9804 59.8838 58.5391 59.7299 57.9872 59.7781C57.0745 59.858 56.5358 60.5468 56.6213 61.5232L56.7253 62.7119L59.9942 62.4259L60.2059 64.8458L56.937 65.1318L57.6612 73.4102L54.9442 73.6479L54.2199 65.3695L52.2246 65.5441L52.0129 63.1242ZM65.1841 73.0729C63.0402 73.2605 61.4679 72.1575 61.2952 70.1834C61.154 68.5701 62.3005 67.2506 64.5596 66.668L67.7803 65.8301L67.7561 65.5541C67.6577 64.4291 66.7455 63.7817 65.5143 63.8894C64.4742 63.9804 63.7103 64.5392 63.2059 65.3747L61.0999 64.0403C61.94 62.6407 63.4402 61.6967 65.3931 61.5258C68.4922 61.2547 70.2458 62.9621 70.4519 65.3183L71.0573 72.2382L68.3615 72.4741L68.2705 71.434C67.6637 72.3212 66.4365 72.9633 65.1841 73.0729ZM63.9586 69.822C64.0217 70.5437 64.6357 70.9606 65.5485 70.8807C66.7796 70.773 67.621 70.1219 68.0774 69.2264L67.9455 67.7193L65.4355 68.3667C64.3272 68.6561 63.901 69.164 63.9586 69.822ZM71.5764 61.4126L74.4632 61.1601L77.9125 68.5584L80.0034 60.6754L82.9115 60.4209L79.9417 71.4609L76.3969 71.7711L71.5764 61.4126ZM89.5424 59.413C93.0236 59.1085 95.6257 61.4689 95.9061 64.6741C96.1865 67.8794 94.0338 70.6558 90.5526 70.9604C87.0714 71.265 84.4693 68.9045 84.1889 65.6993C83.9085 62.494 86.0612 59.7176 89.5424 59.413ZM90.3722 68.4095C92.0916 68.259 93.2657 66.766 93.1042 64.9193C92.9407 63.0513 91.527 61.8061 89.8077 61.9565C88.0246 62.1125 86.8274 63.5862 86.9908 65.4541C87.1543 67.3221 88.5892 68.5655 90.3722 68.4095ZM98.8329 69.8082L97.8969 59.1099L100.593 58.874L100.686 59.9354C101.323 59.1524 102.187 58.5206 103.397 58.4148C103.758 58.3832 104.082 58.419 104.344 58.4816L104.576 61.135C104.229 61.0798 103.863 61.0477 103.375 61.0904C102.059 61.2055 101.273 62.0015 100.929 62.7161L101.529 69.5723L98.8329 69.8082ZM107.715 56.3686C106.76 56.4522 105.883 55.7161 105.799 54.7609C105.716 53.8057 106.452 52.9285 107.407 52.845C108.362 52.7614 109.218 53.4993 109.302 54.4545C109.385 55.4097 108.671 56.2851 107.715 56.3686ZM107.456 69.0537L106.52 58.3554L109.216 58.1196L110.152 68.8179L107.456 69.0537ZM112.17 67.0799L113.812 65.3107C114.543 66.0809 115.38 66.6066 116.399 66.5174C117.269 66.4413 117.67 65.8929 117.615 65.2561C117.451 63.3881 112.397 64.5361 112.068 60.779C111.903 58.8898 113.37 57.3283 115.599 57.1333C117.234 56.9903 118.788 57.6457 119.643 58.619L117.998 60.3458C117.387 59.7148 116.638 59.2242 115.81 59.2966C114.961 59.3709 114.598 59.8732 114.647 60.4251C114.806 62.2506 119.866 61.1662 120.189 64.8597C120.344 67.1134 118.647 68.5024 116.631 68.6789C114.72 68.846 113.295 68.2007 112.17 67.0799Z" fill="#3B69D1"/>
<g filter="url(#filter0_d_5473_14641)">
<rect x="7.40555" y="92.9249" width="304.525" height="237.938" rx="7.10142" transform="rotate(-5 7.40555 92.9249)" fill="white" shape-rendering="crispEdges"/>
<rect x="22.7949" y="105.838" width="81.2166" height="29.1063" rx="7.10142" transform="rotate(-5 22.7949 105.838)" fill="#DBEDF9"/>
<path d="M32.0929 124.653L34.715 115.69L36.5971 115.525L40.7358 123.897L39.2127 124.03L38.0841 121.684L34.3075 122.014L33.6036 124.521L32.0929 124.653ZM34.6719 120.759L37.5074 120.511L35.7687 116.895L34.6719 120.759ZM42.3408 123.757L41.5283 114.47L42.8037 114.358L43.6162 123.645L42.3408 123.757ZM45.8843 121.263L45.6286 118.341L44.4523 118.444L44.3516 117.292L45.5279 117.189L45.3914 115.629L46.6792 115.517L46.8157 117.077L48.8835 116.896L48.9842 118.047L46.9164 118.228L47.1721 121.151C47.2457 121.992 47.7153 122.226 48.4087 122.165C48.8297 122.128 49.1102 122.054 49.3255 121.948L49.4241 123.075C49.1377 123.224 48.7964 123.317 48.3135 123.359C46.8524 123.487 46.0176 122.786 45.8843 121.263ZM56.3746 121.506C55.8609 122.337 54.9497 122.903 53.7857 123.005C51.6312 123.193 50.2204 121.757 50.0612 119.937C49.8976 118.067 50.9552 116.465 52.9364 116.292C54.6575 116.141 55.8748 117.22 56.0135 118.805C56.0384 119.09 56.0262 119.378 55.9929 119.568L51.3867 119.971C51.5925 121.325 52.4839 121.958 53.685 121.853C54.4403 121.787 55.0425 121.398 55.3809 120.844L56.3746 121.506ZM53.0048 117.359C52.0761 117.44 51.4788 118.029 51.3652 119.012L54.7208 118.718C54.6278 117.94 54.0077 117.271 53.0048 117.359ZM58.0122 122.386L57.4662 116.145L58.7415 116.033L58.8033 116.739C59.1944 116.218 59.7089 115.824 60.4766 115.757C60.6747 115.739 60.8637 115.76 61.029 115.796L61.1384 117.046C60.936 117.014 60.7346 116.994 60.4746 117.017C59.6821 117.086 59.1989 117.553 58.9235 118.114L59.2875 122.274L58.0122 122.386ZM62.982 121.951L62.436 115.71L63.7114 115.599L63.7645 116.205C64.1917 115.669 64.7794 115.256 65.6709 115.178C67.0453 115.057 68.1791 115.894 68.3372 117.702L68.6655 121.454L67.3777 121.566L67.0538 117.864C66.9671 116.873 66.3703 116.327 65.4788 116.405C64.6244 116.479 64.1633 117.056 63.8891 117.629L64.2574 121.839L62.982 121.951ZM72.3858 121.315C71.1475 121.424 70.2438 120.791 70.1474 119.689C70.0651 118.748 70.736 118.003 72.0414 117.665L74.0305 117.154L74.0023 116.832C73.9352 116.064 73.3244 115.643 72.5196 115.714C71.8385 115.773 71.3332 116.13 71.0185 116.669L70.0012 116.021C70.4934 115.23 71.3437 114.681 72.4581 114.584C74.1421 114.436 75.1575 115.346 75.2777 116.72L75.6384 120.844L74.3631 120.955L74.3013 120.249C73.9032 120.833 73.1535 121.248 72.3858 121.315ZM71.4308 119.527C71.4731 120.01 71.8862 120.311 72.53 120.255C73.3101 120.186 73.8844 119.762 74.2038 119.135L74.1096 118.058L72.4505 118.49C71.6823 118.694 71.3896 119.057 71.4308 119.527ZM77.6376 120.669L77.0916 114.428L78.367 114.316L78.4201 114.923C78.8473 114.387 79.435 113.973 80.3265 113.895C81.7009 113.775 82.8347 114.612 82.9928 116.42L83.3211 120.171L82.0333 120.284L81.7094 116.582C81.6227 115.591 81.0259 115.044 80.1344 115.122C79.28 115.197 78.8189 115.774 78.5447 116.347L78.913 120.557L77.6376 120.669ZM88.1428 118.789C88.8486 118.727 89.3878 118.33 89.6923 117.817L90.7624 118.497C90.26 119.315 89.387 119.89 88.2355 119.991C86.1429 120.174 84.6949 118.741 84.5357 116.921C84.3765 115.101 85.5536 113.438 87.6462 113.255C88.7853 113.155 89.7573 113.569 90.3941 114.287L89.4583 115.143C89.0693 114.69 88.4694 114.393 87.7512 114.456C86.5502 114.561 85.7657 115.578 85.873 116.804C85.9813 118.042 86.9293 118.895 88.1428 118.789ZM97.4876 117.909C96.9739 118.74 96.0627 119.306 94.8988 119.408C92.7443 119.596 91.3335 118.16 91.1742 116.34C91.0107 114.47 92.0683 112.868 94.0495 112.695C95.7706 112.544 96.9879 113.623 97.1266 115.208C97.1515 115.493 97.1393 115.781 97.106 115.971L92.4998 116.374C92.7056 117.728 93.597 118.362 94.7981 118.256C95.5534 118.19 96.1556 117.801 96.494 117.247L97.4876 117.909ZM94.1179 113.762C93.1892 113.843 92.5919 114.432 92.4783 115.415L95.8339 115.121C95.7409 114.343 95.1208 113.674 94.1179 113.762Z" fill="#161616"/>
<rect x="22.7949" y="105.838" width="81.2166" height="29.1063" rx="7.10142" transform="rotate(-5 22.7949 105.838)" stroke="#161616"/>
<path d="M27.4941 153.233L27.2944 150.951L37.4479 150.063L37.6475 152.345L33.8267 152.679L34.7104 162.78L32.1986 162.999L31.3149 152.899L27.4941 153.233ZM47.2391 160.222C46.5052 161.409 45.1859 162.22 43.5054 162.367C40.3391 162.644 38.359 160.589 38.1315 157.988C37.901 155.353 39.3734 153.032 42.2921 152.776C44.7685 152.56 46.5429 154.098 46.7472 156.433C46.7905 156.928 46.76 157.394 46.7156 157.701L40.4714 158.247C40.8291 159.891 41.9139 160.474 43.3113 160.352C44.2842 160.266 45.0961 159.768 45.518 159.089L47.2391 160.222ZM42.3999 154.621C41.2501 154.721 40.5452 155.424 40.3997 156.614L44.5036 156.255C44.3893 155.356 43.6559 154.511 42.3999 154.621ZM53.4589 159.357C54.3434 159.279 55.0154 158.811 55.3857 158.154L57.2546 159.346C56.5191 160.515 55.272 161.337 53.6447 161.479C50.5668 161.749 48.5337 159.699 48.3062 157.098C48.0787 154.498 49.7249 152.126 52.8028 151.857C54.4302 151.714 55.801 152.307 56.7284 153.331L55.0948 154.829C54.6161 154.247 53.8729 153.902 52.9531 153.982C51.4849 154.111 50.5049 155.337 50.6411 156.894C50.7789 158.468 51.9554 159.488 53.4589 159.357ZM59.0585 160.649L57.8978 147.383L60.1443 147.186L60.5869 152.245C61.1534 151.59 61.9445 151.057 63.1297 150.953C65.0578 150.784 66.7128 151.977 66.9434 154.612L67.4077 159.919L65.1435 160.117L64.6869 154.899C64.5832 153.714 63.8637 153.028 62.7493 153.125C61.6172 153.224 61.0824 154.038 60.7958 154.633L61.305 160.453L59.0585 160.649ZM69.9586 159.696L69.1786 150.78L71.4251 150.584L71.487 151.291C72.0535 150.636 72.8447 150.103 74.0298 150C75.9579 149.831 77.6129 151.023 77.8435 153.659L78.3078 158.965L76.0436 159.163L75.5871 153.945C75.4834 152.76 74.7462 152.076 73.6495 152.172C72.5174 152.271 71.9825 153.084 71.6959 153.679L72.2051 159.499L69.9586 159.696ZM81.0747 148.171C80.2787 148.241 79.5477 147.627 79.478 146.831C79.4084 146.035 80.0218 145.304 80.8178 145.235C81.6138 145.165 82.3271 145.78 82.3967 146.576C82.4664 147.372 81.8707 148.101 81.0747 148.171ZM80.8587 158.742L80.0788 149.827L82.3253 149.63L83.1053 158.546L80.8587 158.742ZM89.9252 156.166C90.8097 156.089 91.4816 155.62 91.852 154.964L93.7208 156.155C92.9854 157.325 91.7383 158.147 90.1109 158.289C87.033 158.558 84.9999 156.508 84.7724 153.908C84.5449 151.308 86.1911 148.936 89.269 148.666C90.8964 148.524 92.2673 149.117 93.1946 150.141L91.561 151.638C91.0823 151.057 90.3392 150.712 89.4194 150.792C87.9512 150.921 86.9712 152.147 87.1074 153.704C87.2451 155.278 88.4216 156.298 89.9252 156.166ZM95.7406 146.888C94.9446 146.958 94.2136 146.344 94.144 145.548C94.0744 144.752 94.6877 144.021 95.4837 143.952C96.2797 143.882 96.993 144.497 97.0627 145.293C97.1323 146.089 96.5366 146.818 95.7406 146.888ZM95.5247 157.459L94.7447 148.544L96.9912 148.347L97.7712 157.262L95.5247 157.459ZM108.546 154.858C107.812 156.045 106.493 156.856 104.812 157.003C101.646 157.28 99.6659 155.225 99.4384 152.625C99.2078 149.989 100.68 147.668 103.599 147.413C106.075 147.196 107.85 148.734 108.054 151.069C108.097 151.564 108.067 152.03 108.022 152.337L101.778 152.884C102.136 154.528 103.221 155.11 104.618 154.988C105.591 154.903 106.403 154.404 106.825 153.725L108.546 154.858ZM103.707 149.257C102.557 149.357 101.852 150.061 101.707 151.25L105.81 150.891C105.696 149.992 104.963 149.147 103.707 149.257ZM110.709 156.131L109.929 147.215L112.175 147.019L112.237 147.726C112.804 147.071 113.595 146.538 114.78 146.434C116.708 146.266 118.363 147.458 118.594 150.093L119.058 155.4L116.794 155.598L116.337 150.38C116.234 149.195 115.497 148.511 114.4 148.607C113.268 148.706 112.733 149.519 112.446 150.114L112.955 155.934L110.709 156.131ZM125.486 153.537L126.854 152.062C127.462 152.704 128.16 153.142 129.009 153.068C129.735 153.004 130.069 152.547 130.023 152.017C129.886 150.46 125.674 151.417 125.4 148.286C125.263 146.711 126.486 145.41 128.343 145.248C129.705 145.129 131.001 145.675 131.713 146.486L130.342 147.925C129.832 147.399 129.208 146.99 128.519 147.05C127.811 147.112 127.509 147.531 127.549 147.991C127.682 149.512 131.899 148.608 132.168 151.686C132.297 153.564 130.883 154.722 129.203 154.869C127.611 155.008 126.423 154.471 125.486 153.537ZM139.997 149.682L139.554 144.623L141.818 144.425L142.251 149.378C142.485 152.049 141.072 153.831 138.455 154.06C135.837 154.289 134.154 152.778 133.92 150.107L133.487 145.154L135.751 144.956L136.193 150.015C136.306 151.306 137.048 152.044 138.286 151.935C139.507 151.829 140.11 150.974 139.997 149.682ZM145.466 157.474L144.305 144.208L146.551 144.011L146.615 144.736C147.244 143.986 148.077 143.521 149.298 143.414C152.128 143.167 154.02 145.229 154.247 147.83C154.475 150.43 152.97 152.79 150.14 153.037C148.919 153.144 148.018 152.831 147.268 152.201L147.712 157.278L145.466 157.474ZM149.165 145.565C148.121 145.656 147.313 146.19 146.819 147.071L147.064 149.866C147.739 150.663 148.61 151.032 149.635 150.942C151.157 150.809 152.048 149.591 151.912 148.034C151.776 146.477 150.686 145.432 149.165 145.565ZM157.074 156.459L155.913 143.192L158.16 142.996L158.223 143.721C158.853 142.971 159.686 142.506 160.906 142.399C163.736 142.151 165.628 144.214 165.855 146.814C166.083 149.414 164.578 151.774 161.748 152.022C160.527 152.128 159.627 151.815 158.876 151.186L159.321 156.262L157.074 156.459ZM160.773 144.549C159.73 144.641 158.921 145.175 158.428 146.056L158.672 148.851C159.348 149.647 160.218 150.017 161.244 149.927C162.765 149.794 163.657 148.575 163.52 147.018C163.384 145.462 162.295 144.416 160.773 144.549ZM171.823 141.444C174.724 141.19 176.892 143.157 177.126 145.828C177.359 148.499 175.565 150.813 172.664 151.067C169.763 151.32 167.595 149.353 167.361 146.682C167.128 144.011 168.922 141.698 171.823 141.444ZM172.514 148.941C173.947 148.815 174.925 147.571 174.791 146.032C174.655 144.476 173.476 143.438 172.044 143.563C170.558 143.693 169.56 144.921 169.696 146.478C169.832 148.035 171.028 149.071 172.514 148.941ZM179.565 150.106L178.785 141.191L181.031 140.995L181.109 141.879C181.64 141.227 182.36 140.7 183.368 140.612C183.669 140.586 183.939 140.615 184.158 140.668L184.351 142.879C184.062 142.833 183.756 142.806 183.35 142.842C182.253 142.938 181.598 143.601 181.311 144.196L181.811 149.91L179.565 150.106ZM187.619 146.122L187.301 142.478L185.638 142.624L185.461 140.607L187.124 140.462L186.929 138.233L189.193 138.035L189.388 140.263L192.113 140.025L192.289 142.042L189.565 142.28L189.884 145.924C189.97 146.915 190.535 147.257 191.419 147.18C192.039 147.126 192.439 147.019 192.729 146.869L192.901 148.833C192.476 149.066 191.953 149.201 191.21 149.266C188.981 149.461 187.81 148.298 187.619 146.122ZM31.3074 174.613C30.5114 174.683 29.7804 174.069 29.7108 173.273C29.6411 172.477 30.2545 171.746 31.0505 171.677C31.8465 171.607 32.5598 172.222 32.6295 173.018C32.6991 173.814 32.1034 174.543 31.3074 174.613ZM31.0915 185.184L30.3115 176.269L32.558 176.072L33.338 184.987L31.0915 185.184ZM36.032 184.752L35.252 175.836L37.4985 175.64L37.5604 176.347C38.1269 175.692 38.918 175.159 40.1032 175.056C42.0313 174.887 43.6863 176.079 43.9169 178.715L44.3812 184.021L42.117 184.219L41.6604 179.001C41.5568 177.816 40.8196 177.132 39.7229 177.228C38.5908 177.327 38.0559 178.14 37.7693 178.735L38.2785 184.555L36.032 184.752ZM45.0554 174.979L46.7182 174.833L46.6362 173.896C46.4706 172.003 47.5934 170.372 49.8222 170.177C50.6359 170.106 51.3428 170.24 51.9351 170.491L51.144 172.45C50.8616 172.278 50.4939 172.15 50.034 172.19C49.2734 172.257 48.8245 172.831 48.8957 173.645L48.9824 174.635L51.7065 174.397L51.8829 176.413L49.1588 176.652L49.7624 183.55L47.4982 183.749L46.8946 176.85L45.2318 176.995L45.0554 174.979ZM57.1208 173.567C60.0218 173.313 62.1902 175.28 62.4239 177.951C62.6576 180.622 60.8637 182.936 57.9627 183.189C55.0617 183.443 52.8933 181.476 52.6596 178.805C52.4259 176.134 54.2198 173.82 57.1208 173.567ZM57.8124 181.064C59.2452 180.938 60.2236 179.694 60.089 178.155C59.9528 176.599 58.7747 175.561 57.3419 175.686C55.856 175.816 54.8584 177.044 54.9946 178.601C55.1307 180.158 56.3265 181.194 57.8124 181.064ZM64.8629 182.229L64.083 173.314L66.3295 173.117L66.4068 174.002C66.938 173.349 67.6584 172.823 68.6666 172.735C68.9673 172.708 69.2373 172.738 69.4558 172.791L69.6492 175.002C69.36 174.956 69.0547 174.929 68.6478 174.964C67.5511 175.06 66.8961 175.724 66.6096 176.319L67.1094 182.033L64.8629 182.229ZM72.0491 181.601L71.2691 172.685L73.5156 172.489L73.5744 173.161C74.1248 172.525 74.8467 172.016 75.9434 171.92C77.0755 171.821 78.1094 172.229 78.7768 173.134C79.3455 172.3 80.1357 171.553 81.6393 171.422C83.4789 171.261 85.0409 172.407 85.2606 174.919L85.7404 180.403L83.4762 180.601L83.0042 175.206C82.9098 174.127 82.2672 173.506 81.259 173.594C80.2861 173.679 79.8142 174.398 79.513 175.03C79.5416 175.152 79.5524 175.276 79.5648 175.417L80.0445 180.901L77.7803 181.099L77.3083 175.704C77.2139 174.625 76.5714 174.004 75.5631 174.092C74.5371 174.182 74.073 174.989 73.7864 175.584L74.2956 181.404L72.0491 181.601ZM90.8394 180.224C89.0528 180.38 87.7425 179.461 87.5985 177.816C87.4809 176.472 88.4364 175.372 90.3189 174.887L93.0028 174.188L92.9827 173.958C92.9006 173.021 92.1405 172.481 91.1145 172.571C90.2477 172.647 89.6112 173.113 89.1908 173.809L87.4359 172.697C88.1359 171.531 89.3861 170.744 91.0135 170.601C93.5961 170.375 95.0574 171.798 95.2292 173.762L95.7337 179.528L93.4872 179.725L93.4114 178.858C92.9057 179.598 91.883 180.133 90.8394 180.224ZM89.8181 177.515C89.8707 178.116 90.3823 178.464 91.143 178.397C92.1689 178.307 92.8701 177.765 93.2504 177.019L93.1405 175.763L91.0488 176.302C90.1252 176.543 89.7701 176.967 89.8181 177.515ZM98.5875 175.999L98.2687 172.355L96.6059 172.501L96.4295 170.484L98.0923 170.339L97.8973 168.11L100.161 167.912L100.356 170.141L103.081 169.902L103.257 171.919L100.533 172.157L100.852 175.801C100.938 176.792 101.503 177.134 102.388 177.057C103.007 177.003 103.407 176.896 103.697 176.746L103.869 178.71C103.444 178.943 102.921 179.078 102.178 179.143C99.9491 179.338 98.7778 178.175 98.5875 175.999ZM106.088 168.071C105.292 168.14 104.561 167.527 104.492 166.731C104.422 165.935 105.035 165.204 105.831 165.134C106.627 165.064 107.341 165.679 107.41 166.475C107.48 167.271 106.884 168.001 106.088 168.071ZM105.872 178.641L105.092 169.726L107.339 169.53L108.119 178.445L105.872 178.641ZM109.786 173.807C109.559 171.207 111.063 168.847 113.893 168.6C115.096 168.494 115.997 168.808 116.747 169.437L116.684 168.712L118.948 168.514L120.109 181.781L117.845 181.979L117.4 176.902C116.771 177.652 115.938 178.117 114.735 178.223C111.905 178.47 110.014 176.408 109.786 173.807ZM112.121 173.603C112.257 175.16 113.329 176.207 114.85 176.074C115.894 175.982 116.721 175.446 117.198 174.585L116.95 171.755C116.276 170.976 115.388 170.608 114.38 170.696C112.859 170.829 111.985 172.046 112.121 173.603ZM127.957 172.824L127.514 167.765L129.778 167.566L130.212 172.519C130.445 175.19 129.033 176.972 126.415 177.201C123.797 177.43 122.114 175.919 121.88 173.248L121.447 168.295L123.711 168.097L124.153 173.156C124.266 174.448 125.008 175.185 126.247 175.076C127.467 174.97 128.07 174.115 127.957 172.824ZM141.126 174.096C140.392 175.283 139.073 176.093 137.392 176.24C134.226 176.517 132.246 174.463 132.018 171.862C131.788 169.227 133.26 166.905 136.179 166.65C138.655 166.433 140.43 167.971 140.634 170.306C140.677 170.802 140.647 171.268 140.602 171.575L134.358 172.121C134.716 173.765 135.801 174.348 137.198 174.225C138.171 174.14 138.983 173.641 139.405 172.963L141.126 174.096ZM136.287 168.494C135.137 168.595 134.432 169.298 134.286 170.487L138.39 170.128C138.276 169.229 137.543 168.384 136.287 168.494ZM145.919 169.487L150.695 169.07L150.885 171.245L146.109 171.663L145.919 169.487ZM161.87 160.909C165.761 160.568 168.695 163.342 169.005 166.88C169.314 170.417 166.906 173.658 163.015 173.999C159.106 174.341 156.171 171.567 155.862 168.029C155.552 164.492 157.96 161.251 161.87 160.909ZM162.809 171.646C165.126 171.443 166.63 169.476 166.422 167.105C166.215 164.735 164.393 163.059 162.075 163.261C159.741 163.466 158.237 165.433 158.445 167.803C158.652 170.174 160.474 171.85 162.809 171.646ZM169.915 164.055L171.578 163.909L171.496 162.972C171.33 161.079 172.453 159.448 174.682 159.253C175.495 159.182 176.202 159.316 176.795 159.567L176.003 161.526C175.721 161.355 175.353 161.226 174.893 161.267C174.133 161.333 173.684 161.907 173.755 162.721L173.842 163.711L176.566 163.473L176.742 165.49L174.018 165.728L174.622 172.627L172.358 172.825L171.754 165.926L170.091 166.072L169.915 164.055ZM177.446 163.396L179.109 163.251L179.027 162.313C178.862 160.42 179.984 158.789 182.213 158.594C183.027 158.523 183.734 158.657 184.326 158.908L183.535 160.867C183.253 160.696 182.885 160.567 182.425 160.608C181.664 160.674 181.216 161.248 181.287 162.062L181.373 163.052L184.097 162.814L184.274 164.831L181.55 165.069L182.153 171.968L179.889 172.166L179.286 165.267L177.623 165.413L177.446 163.396ZM186.302 171.605L185.522 162.69L187.769 162.493L187.846 163.377C188.377 162.725 189.097 162.198 190.106 162.11C190.406 162.084 190.676 162.114 190.895 162.166L191.088 164.377C190.799 164.331 190.494 164.304 190.087 164.34C188.99 164.436 188.335 165.099 188.049 165.695L188.548 171.408L186.302 171.605ZM201.189 168.841C200.455 170.028 199.136 170.838 197.455 170.985C194.289 171.262 192.309 169.208 192.081 166.607C191.851 163.972 193.323 161.651 196.242 161.395C198.718 161.178 200.493 162.717 200.697 165.052C200.74 165.547 200.71 166.013 200.665 166.32L194.421 166.866C194.779 168.51 195.864 169.093 197.261 168.97C198.234 168.885 199.046 168.387 199.468 167.708L201.189 168.841ZM196.35 163.239C195.2 163.34 194.495 164.043 194.349 165.233L198.453 164.873C198.339 163.974 197.606 163.13 196.35 163.239ZM208.12 169.696L207.34 160.781L209.586 160.584L209.648 161.292C210.214 160.636 211.006 160.103 212.191 160C214.119 159.831 215.774 161.023 216.004 163.659L216.469 168.966L214.205 169.164L213.748 163.945C213.644 162.76 212.907 162.076 211.81 162.172C210.678 162.271 210.143 163.084 209.857 163.68L210.366 169.499L208.12 169.696ZM219.461 155.87C221.248 155.714 222.581 156.898 222.727 158.561C222.872 160.224 221.765 161.622 219.978 161.778C218.174 161.936 216.823 160.753 216.677 159.09C216.532 157.428 217.657 156.028 219.461 155.87ZM219.848 160.292C220.627 160.224 221.138 159.556 221.064 158.707C220.988 157.84 220.371 157.306 219.593 157.374C218.797 157.443 218.282 158.077 218.358 158.943C218.434 159.81 219.052 160.362 219.848 160.292ZM228.075 167.932L227.207 158.009L224.769 159.684L223.435 158.089L227.063 155.544L229.38 155.341L230.463 167.723L228.075 167.932ZM241.554 163.206C241.76 165.559 239.966 167.266 237.384 167.492C235.049 167.696 233.455 166.802 232.292 165.121L234.267 163.647C235.076 164.949 235.96 165.478 237.18 165.371C238.383 165.266 239.222 164.462 239.121 163.312C239.022 162.18 238.076 161.55 236.767 161.664L234.733 161.842L234.547 159.719L236.422 159.555C237.466 159.464 238.175 158.814 238.092 157.859C238.009 156.921 237.256 156.452 236.283 156.537C235.292 156.624 234.666 157.214 234.231 158.143L232.18 157.11C232.953 155.563 234.275 154.574 236.274 154.399C238.538 154.201 240.331 155.345 240.509 157.38C240.61 158.529 240.2 159.546 239.336 160.263C240.647 160.79 241.435 161.844 241.554 163.206ZM244.545 166.509L243.462 154.127L248.326 153.701C252.253 153.358 255.156 155.973 255.448 159.317C255.741 162.66 253.337 165.74 249.41 166.084L244.545 166.509ZM248.561 155.98L246.173 156.189L246.857 164.007L249.245 163.799C251.545 163.597 253.058 161.736 252.866 159.543C252.672 157.332 250.861 155.779 248.561 155.98ZM258.589 165.28L257.506 152.898L264.723 152.267L264.906 154.354L260.2 154.766L260.457 157.702L264.455 157.352L264.638 159.44L260.64 159.789L260.919 162.973L265.624 162.562L265.806 164.649L258.589 165.28ZM268.141 164.445L267.942 162.163L274.157 153.741L267.435 154.329L267.235 152.047L277.035 151.19L277.234 153.471L271.037 161.892L278.095 161.275L278.295 163.556L268.141 164.445ZM285.313 150.109C289.204 149.768 292.138 152.542 292.448 156.08C292.757 159.617 290.349 162.858 286.458 163.199C282.548 163.541 279.614 160.767 279.305 157.23C278.995 153.692 281.403 150.451 285.313 150.109ZM286.252 160.846C288.569 160.643 290.073 158.676 289.865 156.306C289.658 153.935 287.836 152.259 285.518 152.462C283.183 152.666 281.68 154.633 281.887 157.004C282.095 159.374 283.917 161.05 286.252 160.846Z" fill="#161616"/>
<path d="M37.3478 212.997C38.3384 212.91 39.0763 212.359 39.5098 211.61L40.9898 212.554C40.2916 213.7 39.0645 214.506 37.4919 214.644C34.7554 214.883 32.7015 212.942 32.4849 210.465C32.2682 207.989 33.9538 205.72 36.6903 205.481C38.2628 205.343 39.6123 205.937 40.4969 206.92L39.2043 208.118C38.6473 207.456 37.8249 207.041 36.8344 207.128C35.1999 207.271 34.1475 208.648 34.2927 210.307C34.4379 211.967 35.7134 213.14 37.3478 212.997ZM41.6227 214.033L44.1457 205.078L46.4488 204.877L50.4884 213.257L48.6187 213.421L47.5919 211.24L44.1249 211.543L43.4924 213.869L41.6227 214.033ZM44.5386 209.997L46.916 209.789L45.4424 206.637L44.5386 209.997ZM51.9507 213.129L51.1924 204.462L54.0527 204.212C55.9595 204.045 57.2091 204.921 57.3499 206.531C57.4896 208.128 56.4113 209.208 54.5044 209.375L53.4024 209.471L53.709 212.976L51.9507 213.129ZM54.2548 205.666L53.0785 205.769L53.2745 208.01L54.4509 207.907C55.1938 207.842 55.6017 207.37 55.5399 206.664C55.4825 206.008 54.9977 205.601 54.2548 205.666ZM70.5238 211.504L68.5055 211.681L67.8457 211.127C67.1999 211.733 66.385 212.116 65.3325 212.208C63.4752 212.371 62.0491 211.472 61.8909 209.664C61.7945 208.562 62.4186 207.709 63.2507 207.237C62.7394 206.671 62.4947 206.156 62.4373 205.499C62.3225 204.187 63.2307 203.159 64.7662 203.025C66.1406 202.904 67.2544 203.655 67.3735 205.017C67.4754 206.181 66.7581 206.968 65.8 207.426L67.528 208.922C67.7807 208.388 67.9629 207.761 68.0374 207.043L69.647 206.902C69.4867 208.064 69.1917 209.113 68.7296 209.965L70.5238 211.504ZM64.0433 205.459C64.0931 206.028 64.44 206.285 64.817 206.601C65.6847 206.251 65.9585 205.815 65.9055 205.208C65.8654 204.75 65.4953 204.371 64.9257 204.421C64.319 204.474 63.9935 204.889 64.0433 205.459ZM63.5378 209.52C63.6179 210.437 64.367 210.87 65.3081 210.788C65.791 210.746 66.2588 210.53 66.6505 210.159L64.3511 208.264C64.3107 208.23 64.2703 208.196 64.2299 208.162C63.7337 208.48 63.489 208.963 63.5378 209.52ZM75.3005 211.087L74.5422 202.419L77.9473 202.121C80.6962 201.881 82.7279 203.712 82.9327 206.052C83.1374 208.392 81.4545 210.548 78.7056 210.789L75.3005 211.087ZM78.1118 203.716L76.4402 203.862L76.919 209.335L78.5906 209.189C80.2003 209.048 81.2592 207.745 81.1249 206.21C80.9894 204.662 79.7215 203.575 78.1118 203.716ZM85.1313 210.226L84.373 201.559L87.2333 201.309C89.1402 201.142 90.3897 202.018 90.5306 203.628C90.6703 205.225 89.5919 206.305 87.6851 206.472L86.583 206.568L86.8896 210.073L85.1313 210.226ZM87.4355 202.763L86.2591 202.866L86.4552 205.107L87.6315 205.004C88.3745 204.939 88.7823 204.467 88.7206 203.761C88.6632 203.105 88.1784 202.698 87.4355 202.763ZM94.1473 205.482L97.4905 205.19L97.6238 206.713L94.2805 207.005L94.1473 205.482ZM105.97 206.993C106.961 206.907 107.699 206.356 108.132 205.606L109.612 206.55C108.914 207.697 107.687 208.503 106.114 208.64C103.378 208.88 101.324 206.938 101.107 204.462C100.891 201.985 102.576 199.717 105.313 199.477C106.885 199.34 108.235 199.933 109.119 200.916L107.827 202.115C107.27 201.452 106.448 201.037 105.457 201.124C103.822 201.267 102.77 202.644 102.915 204.304C103.06 205.963 104.336 207.136 105.97 206.993ZM115.076 206.197C116.066 206.11 116.804 205.559 117.238 204.81L118.718 205.753C118.019 206.9 116.792 207.706 115.22 207.844C112.483 208.083 110.429 206.142 110.213 203.665C109.996 201.189 111.682 198.92 114.418 198.681C115.991 198.543 117.34 199.136 118.225 200.119L116.932 201.318C116.375 200.656 115.553 200.241 114.562 200.328C112.928 200.471 111.875 201.848 112.021 203.507C112.166 205.166 113.441 206.34 115.076 206.197ZM120.501 207.132L119.742 198.464L121.501 198.311L121.803 201.765L126.174 201.383L125.872 197.928L127.63 197.774L128.388 206.442L126.63 206.596L126.314 202.98L121.943 203.363L122.259 206.978L120.501 207.132ZM138.014 204.19C139.005 204.103 139.743 203.552 140.176 202.803L141.656 203.746C140.958 204.893 139.731 205.699 138.158 205.837C135.422 206.076 133.368 204.135 133.151 201.658C132.935 199.182 134.62 196.913 137.357 196.674C138.929 196.536 140.279 197.129 141.163 198.113L139.871 199.311C139.314 198.649 138.492 198.234 137.501 198.321C135.866 198.464 134.814 199.841 134.959 201.5C135.104 203.159 136.38 204.333 138.014 204.19ZM145.388 198.417C147.419 198.239 148.937 199.616 149.1 201.486C149.264 203.355 148.008 204.975 145.978 205.153C143.947 205.33 142.429 203.953 142.265 202.084C142.102 200.214 143.358 198.594 145.388 198.417ZM145.872 203.665C146.875 203.577 147.56 202.706 147.466 201.629C147.371 200.539 146.546 199.813 145.543 199.9C144.503 199.991 143.804 200.851 143.9 201.941C143.995 203.03 144.832 203.756 145.872 203.665ZM150.808 204.481L150.262 198.24L151.834 198.102L151.878 198.598C152.274 198.139 152.828 197.766 153.658 197.693C155.007 197.575 156.166 198.41 156.327 200.255L156.652 203.969L155.067 204.108L154.748 200.455C154.675 199.625 154.159 199.147 153.391 199.214C152.599 199.283 152.224 199.852 152.024 200.269L152.38 204.343L150.808 204.481ZM157.814 202.957L158.772 201.925C159.198 202.374 159.686 202.681 160.281 202.629C160.788 202.584 161.022 202.264 160.99 201.893C160.894 200.803 157.946 201.473 157.754 199.281C157.658 198.179 158.514 197.268 159.814 197.155C160.768 197.071 161.674 197.453 162.173 198.021L161.213 199.028C160.857 198.66 160.42 198.374 159.937 198.416C159.442 198.46 159.23 198.753 159.258 199.075C159.352 200.14 162.303 199.507 162.492 201.662C162.582 202.976 161.592 203.787 160.416 203.889C159.301 203.987 158.47 203.611 157.814 202.957ZM167.972 200.259L167.662 196.718L169.247 196.579L169.55 200.046C169.714 201.916 168.725 203.163 166.892 203.323C165.06 203.483 163.882 202.426 163.718 200.556L163.415 197.089L165 196.95L165.309 200.492C165.389 201.396 165.908 201.912 166.775 201.836C167.629 201.761 168.051 201.163 167.972 200.259ZM171.534 202.667L170.721 193.381L172.294 193.243L173.106 202.53L171.534 202.667ZM175.189 200.052L174.966 197.501L173.802 197.603L173.678 196.191L174.842 196.089L174.706 194.529L176.291 194.39L176.427 195.951L178.334 195.784L178.457 197.195L176.551 197.362L176.774 199.913C176.834 200.606 177.23 200.846 177.849 200.792C178.282 200.754 178.563 200.68 178.766 200.575L178.886 201.949C178.588 202.112 178.222 202.207 177.702 202.252C176.142 202.389 175.322 201.575 175.189 200.052ZM180.439 194.502C179.882 194.55 179.37 194.121 179.322 193.564C179.273 193.007 179.702 192.495 180.26 192.446C180.817 192.397 181.316 192.828 181.365 193.385C181.414 193.942 180.997 194.453 180.439 194.502ZM180.288 201.901L179.742 195.661L181.315 195.523L181.861 201.764L180.288 201.901ZM183.747 201.599L183.201 195.358L184.773 195.22L184.816 195.716C185.213 195.257 185.767 194.884 186.596 194.811C187.946 194.693 189.105 195.528 189.266 197.373L189.591 201.087L188.006 201.226L187.686 197.573C187.614 196.744 187.098 196.265 186.33 196.332C185.538 196.401 185.163 196.971 184.963 197.387L185.319 201.461L183.747 201.599ZM190.853 202.075C190.799 201.456 191.065 200.934 191.586 200.476C191.317 200.25 191.152 199.928 191.123 199.606C191.08 199.111 191.256 198.696 191.696 198.308C191.116 197.947 190.764 197.354 190.704 196.661C190.597 195.447 191.453 194.387 193.013 194.25C193.496 194.208 193.925 194.258 194.298 194.387L196.576 194.188L196.693 195.525L195.591 195.622C195.67 195.814 195.712 196.01 195.731 196.221C195.838 197.447 195.008 198.517 193.399 198.658C193.188 198.677 192.989 198.682 192.8 198.661C192.675 198.796 192.612 198.939 192.624 199.075C192.646 199.323 192.793 199.435 193.078 199.41L194.65 199.272C196.223 199.135 197.151 199.902 197.253 201.066C197.374 202.453 196.142 203.634 194.198 203.804C192.205 203.978 190.968 203.388 190.853 202.075ZM193.319 197.467C193.976 197.41 194.361 196.964 194.307 196.345C194.253 195.726 193.797 195.367 193.141 195.424C192.46 195.484 192.087 195.928 192.14 196.535C192.194 197.154 192.638 197.527 193.319 197.467ZM192.319 201.722C192.371 202.316 192.973 202.638 194.075 202.542C195.214 202.442 195.76 201.97 195.705 201.351C195.664 200.88 195.35 200.571 194.595 200.637L192.663 200.806C192.448 201.05 192.286 201.338 192.319 201.722Z" fill="#161616"/>
<path d="M41.199 234.703C41.5233 234.674 41.7909 234.535 42.0018 234.283C42.2123 234.032 42.3034 233.745 42.2751 233.42C42.2467 233.096 42.107 232.828 41.8561 232.617C41.6047 232.407 41.3169 232.316 40.9926 232.344C40.6683 232.373 40.4009 232.512 40.1904 232.763C39.9794 233.015 39.8882 233.302 39.9165 233.627C39.9449 233.951 40.0848 234.218 40.3361 234.429C40.587 234.64 40.8747 234.731 41.199 234.703ZM41.6955 240.378C41.6169 240.385 41.537 240.377 41.4558 240.354C41.3746 240.332 41.3023 240.299 41.2391 240.255C39.6934 239.112 38.5193 238.029 37.7167 237.006C36.9142 235.981 36.4716 234.998 36.3891 234.054C36.2601 232.58 36.6316 231.364 37.5036 230.407C38.3752 229.449 39.4351 228.916 40.6831 228.806C41.9312 228.697 43.0675 229.038 44.0922 229.83C45.1172 230.622 45.6942 231.755 45.8232 233.229C45.9057 234.172 45.6407 235.218 45.0282 236.366C44.4156 237.513 43.4474 238.784 42.1235 240.177C42.0689 240.231 42.0035 240.277 41.9275 240.313C41.8514 240.349 41.7741 240.371 41.6955 240.378Z" fill="#646464"/>
<path d="M52.5236 236.211L52.4358 235.209L56.0578 229.689L57.4075 229.571L57.8592 234.734L58.8622 234.646L58.95 235.649L57.947 235.737L58.1658 238.238L57.0514 238.336L56.8326 235.834L52.5236 236.211ZM53.6245 235.105L56.7448 234.832L56.3993 230.882L53.6245 235.105ZM62.5338 228.873C64.2673 228.721 65.3602 229.661 65.4685 230.899C65.5443 231.766 65.1582 232.486 64.3723 232.916C65.4832 233.206 66.1636 233.995 66.2611 235.109C66.3922 236.608 65.3166 237.862 63.3354 238.035C61.3666 238.208 60.0772 237.16 59.9461 235.662C59.8486 234.547 60.3817 233.652 61.4254 233.174C60.5643 232.888 60.059 232.246 59.9832 231.379C59.8748 230.141 60.7879 229.025 62.5338 228.873ZM62.8744 232.623C63.8031 232.542 64.3971 231.916 64.3256 231.099C64.253 230.269 63.5593 229.756 62.6307 229.837C61.6648 229.922 61.0832 230.547 61.1558 231.376C61.2283 232.206 61.9086 232.708 62.8744 232.623ZM63.2622 237.056C64.4509 236.952 65.194 236.176 65.1052 235.161C65.0153 234.133 64.1465 233.473 62.9578 233.577C61.7444 233.683 61.0034 234.484 61.0933 235.512C61.1832 236.539 62.0488 237.162 63.2622 237.056ZM70.0209 233.495L73.3641 233.203L73.453 234.218L70.1097 234.511L70.0209 233.495ZM77.3339 236.561L80.0302 227.591L81.5904 227.455L85.8034 235.82L84.5652 235.929L83.339 233.466L79.3519 233.814L78.5721 236.453L77.3339 236.561ZM79.648 232.778L82.8674 232.496L80.8992 228.538L79.648 232.778ZM87.4612 235.675L86.9152 229.435L87.9677 229.342L88.0294 230.048C88.4883 229.447 89.0976 228.994 90.0262 228.913C91.4254 228.79 92.5479 229.64 92.7028 231.411L93.0332 235.188L91.9807 235.28L91.6535 231.54C91.556 230.426 90.8682 229.837 89.9024 229.922C88.9985 230.001 88.4744 230.571 88.1356 231.262L88.5137 235.583L87.4612 235.675ZM94.5321 236.192C94.4769 235.56 94.742 235.026 95.3232 234.538C95.0189 234.34 94.8411 234.019 94.8118 233.685C94.7685 233.189 94.9928 232.758 95.4486 232.406C94.8681 232.045 94.4909 231.442 94.4302 230.748C94.3251 229.547 95.1773 228.45 96.6632 228.32C97.1214 228.28 97.5386 228.343 97.887 228.475L100.203 228.272L100.283 229.188L98.933 229.306C99.1335 229.601 99.2516 229.952 99.2841 230.324C99.3881 231.512 98.5482 232.609 97.05 232.74C96.7404 232.767 96.4389 232.744 96.1724 232.692C95.9286 232.901 95.7995 233.137 95.8201 233.372C95.8428 233.632 95.9953 233.806 96.3791 233.772L98.1622 233.616C99.809 233.472 100.647 234.21 100.745 235.324C100.859 236.637 99.6325 237.73 97.7628 237.893C95.9178 238.055 94.6416 237.443 94.5321 236.192ZM96.9898 231.909C97.8937 231.83 98.3596 231.166 98.2935 230.41C98.2263 229.643 97.6521 229.069 96.7482 229.148C95.8195 229.229 95.366 229.893 95.4332 230.661C95.5003 231.428 96.0611 231.991 96.9898 231.909ZM95.549 235.978C95.6151 236.734 96.4353 237.123 97.6735 237.015C98.986 236.9 99.7701 236.308 99.6986 235.49C99.6467 234.896 99.2712 234.455 98.1568 234.552L96.1384 234.729C95.7332 235.089 95.5057 235.483 95.549 235.978ZM107.211 232.912C106.698 233.743 105.812 234.319 104.648 234.421C102.543 234.605 101.108 233.171 100.949 231.351C100.783 229.456 101.867 227.877 103.799 227.708C105.495 227.559 106.701 228.652 106.836 230.187C106.857 230.435 106.841 230.673 106.819 230.85L102.027 231.269C102.195 232.764 103.228 233.585 104.565 233.468C105.37 233.397 106.018 232.966 106.378 232.373L107.211 232.912ZM103.852 228.602C102.825 228.691 102.159 229.361 102.031 230.458L105.77 230.131C105.653 229.218 104.954 228.505 103.852 228.602ZM108.949 233.795L108.403 227.555L109.455 227.463L109.524 228.243C109.934 227.658 110.472 227.249 111.265 227.179C111.463 227.162 111.651 227.171 111.804 227.207L111.894 228.235C111.703 228.202 111.516 228.193 111.268 228.215C110.451 228.286 109.955 228.754 109.626 229.419L110.001 233.703L108.949 233.795ZM113.127 232.569L113.815 231.872C114.296 232.379 114.843 232.643 115.474 232.588C116.168 232.527 116.527 232.072 116.479 231.527C116.357 230.128 113.28 230.896 113.087 228.692C113.002 227.714 113.761 226.836 114.962 226.731C115.853 226.653 116.658 227.007 117.144 227.576L116.468 228.259C116.092 227.818 115.596 227.562 115.051 227.609C114.382 227.668 114.058 228.095 114.1 228.578C114.223 229.978 117.316 229.258 117.503 231.387C117.592 232.552 116.727 233.364 115.564 233.466C114.573 233.553 113.758 233.225 113.127 232.569Z" fill="#161616"/>
<rect x="36.4918" y="257.299" width="61.0792" height="28.2187" rx="6.65758" transform="rotate(-5 36.4918 257.299)" fill="#EEF1F8"/>
<path d="M49.9708 273.847L53.5086 273.538C53.6757 273.523 53.8109 273.454 53.9142 273.331C54.0171 273.209 54.0613 273.064 54.0467 272.897C54.032 272.73 53.9634 272.595 53.8407 272.492C53.7176 272.388 53.5725 272.344 53.4054 272.359L49.8676 272.668C49.7006 272.683 49.5656 272.752 49.4627 272.875C49.3593 272.997 49.315 273.142 49.3296 273.309C49.3442 273.476 49.4131 273.611 49.5361 273.714C49.6589 273.818 49.8038 273.862 49.9708 273.847ZM49.7645 271.489L53.3023 271.179C53.4693 271.165 53.6045 271.096 53.7078 270.973C53.8108 270.85 53.8549 270.705 53.8403 270.538C53.8257 270.371 53.757 270.236 53.6343 270.133C53.5112 270.03 53.3662 269.986 53.1991 270L49.6613 270.31C49.4942 270.324 49.3592 270.393 49.2563 270.516C49.153 270.639 49.1086 270.784 49.1233 270.951C49.1379 271.118 49.2067 271.253 49.3298 271.356C49.4525 271.459 49.5974 271.504 49.7645 271.489ZM48.4083 276.361C48.084 276.389 47.7964 276.298 47.5454 276.087C47.2941 275.877 47.1542 275.609 47.1258 275.285L46.3004 265.851C46.2721 265.526 46.3633 265.238 46.5743 264.987C46.7848 264.736 47.0522 264.596 47.3765 264.568L51.6072 264.198C51.7644 264.184 51.9169 264.201 52.0648 264.247C52.2122 264.294 52.3447 264.366 52.4623 264.465L55.5722 267.074C55.6898 267.173 55.7843 267.291 55.8557 267.428C55.9271 267.566 55.9697 267.713 55.9835 267.87L56.56 274.459C56.5883 274.784 56.4973 275.071 56.2867 275.323C56.0758 275.574 55.8082 275.713 55.4839 275.742L48.4083 276.361ZM51.8135 267.745C51.8281 267.912 51.897 268.047 52.02 268.15C52.1428 268.253 52.2876 268.297 52.4547 268.283L54.8132 268.077L51.6071 265.386L51.8135 267.745Z" fill="#3B69D1"/>
<path d="M67.5484 272.667C68.638 272.571 69.4706 271.962 69.9471 271.134L71.1632 271.914C70.4515 273.049 69.2379 273.867 67.6653 274.004C64.9412 274.242 62.9121 272.299 62.6955 269.822C62.4788 267.346 64.1396 265.08 66.8637 264.841C68.4362 264.704 69.7734 265.298 70.6714 266.292L69.6091 267.271C68.9961 266.539 68.0703 266.083 66.9807 266.178C65.1729 266.337 63.9984 267.887 64.1566 269.695C64.3158 271.515 65.7405 272.825 67.5484 272.667ZM73.1043 273.279L72.346 264.611L75.7139 264.316C78.438 264.078 80.4574 265.91 80.6622 268.25C80.8669 270.591 79.1964 272.746 76.4723 272.984L73.1043 273.279ZM75.8401 265.615L73.8713 265.788L74.4021 271.855L76.3709 271.683C78.1663 271.526 79.336 270.063 79.1887 268.379C79.0403 266.683 77.6355 265.458 75.8401 265.615ZM82.9714 272.415L82.2131 263.748L85.5811 263.453C88.3052 263.215 90.3246 265.047 90.5293 267.387C90.734 269.727 89.0635 271.882 86.3394 272.121L82.9714 272.415ZM85.7072 264.752L83.7384 264.924L84.2692 270.992L86.238 270.82C88.0335 270.662 89.2031 269.2 89.0558 267.516C88.9074 265.82 87.5026 264.595 85.7072 264.752Z" fill="#3B69D1"/>
<rect x="36.4918" y="257.299" width="61.0792" height="28.2187" rx="6.65758" transform="rotate(-5 36.4918 257.299)" stroke="#EEF1F8" stroke-width="0.887677"/>
<rect x="108.836" y="250.969" width="104.086" height="28.2187" rx="6.65758" transform="rotate(-5 108.836 250.969)" fill="#EEF1F8"/>
<path d="M125.53 266.063C125.648 266.162 125.785 266.205 125.942 266.191C126.1 266.177 126.232 266.106 126.34 265.978C126.438 265.86 126.48 265.718 126.466 265.551C126.451 265.384 126.385 265.251 126.267 265.152L124.344 263.538L124.157 261.401C124.142 261.234 124.074 261.101 123.952 261.003C123.829 260.905 123.684 260.863 123.517 260.877C123.35 260.892 123.215 260.961 123.112 261.083C123.009 261.206 122.964 261.352 122.979 261.519L123.184 263.862C123.191 263.941 123.212 264.016 123.248 264.087C123.284 264.158 123.334 264.221 123.398 264.274L125.53 266.063ZM124.291 269.722C123.475 269.793 122.695 269.705 121.95 269.458C121.206 269.212 120.545 268.846 119.968 268.362C119.391 267.878 118.916 267.291 118.544 266.6C118.172 265.91 117.95 265.157 117.879 264.341C117.807 263.526 117.895 262.746 118.142 262.001C118.389 261.257 118.754 260.596 119.238 260.019C119.722 259.442 120.31 258.967 121 258.594C121.69 258.222 122.443 258.001 123.259 257.929C124.075 257.858 124.855 257.946 125.599 258.192C126.344 258.439 127.004 258.805 127.582 259.289C128.159 259.773 128.633 260.36 129.005 261.051C129.378 261.741 129.6 262.494 129.671 263.31C129.743 264.125 129.655 264.905 129.408 265.65C129.161 266.394 128.796 267.055 128.311 267.632C127.827 268.209 127.24 268.684 126.55 269.056C125.859 269.429 125.106 269.651 124.291 269.722Z" fill="#3B69D1"/>
<path d="M134.589 260.476L134.475 259.175L141.471 258.563L141.585 259.864L138.799 260.107L139.443 267.475L138.019 267.599L137.375 260.232L134.589 260.476ZM148.314 265.676C147.801 266.507 146.889 267.073 145.726 267.175C143.571 267.363 142.16 265.927 142.001 264.107C141.837 262.237 142.895 260.635 144.876 260.461C146.597 260.311 147.815 261.39 147.953 262.975C147.978 263.259 147.966 263.547 147.933 263.738L143.326 264.141C143.532 265.495 144.424 266.128 145.625 266.023C146.38 265.957 146.982 265.567 147.321 265.014L148.314 265.676ZM144.945 261.529C144.016 261.61 143.419 262.199 143.305 263.182L146.661 262.888C146.568 262.11 145.948 261.441 144.945 261.529ZM149.952 266.555L149.406 260.315L150.681 260.203L150.732 260.785C151.136 260.263 151.687 259.866 152.517 259.793C153.371 259.718 154.123 260.039 154.584 260.748C155.013 260.086 155.588 259.524 156.665 259.43C157.965 259.316 159.046 260.12 159.197 261.841L159.536 265.717L158.248 265.83L157.913 262.003C157.833 261.087 157.278 260.587 156.473 260.657C155.73 260.722 155.288 261.235 155.006 261.859C155.028 261.969 155.038 262.08 155.049 262.204L155.388 266.08L154.1 266.192L153.765 262.366C153.685 261.45 153.142 260.949 152.325 261.02C151.532 261.089 151.11 261.675 150.859 262.234L151.227 266.444L149.952 266.555ZM161.778 268.59L160.966 259.303L162.241 259.192L162.298 259.836C162.78 259.219 163.421 258.839 164.325 258.76C166.281 258.589 167.642 260.029 167.802 261.85C167.961 263.67 166.87 265.325 164.914 265.496C164.01 265.575 163.313 265.312 162.731 264.789L163.054 268.478L161.778 268.59ZM164.269 259.975C163.452 260.047 162.804 260.49 162.418 261.21L162.611 263.414C163.13 264.067 163.843 264.379 164.648 264.309C165.849 264.204 166.572 263.192 166.464 261.967C166.357 260.741 165.47 259.87 164.269 259.975ZM168.773 264.023L169.585 263.178C170.039 263.663 170.563 263.954 171.182 263.899C171.789 263.846 172.091 263.446 172.05 262.975C171.939 261.712 168.921 262.438 168.728 260.234C168.638 259.206 169.433 258.313 170.684 258.204C171.6 258.123 172.444 258.499 172.942 259.054L172.141 259.885C171.768 259.469 171.307 259.197 170.787 259.243C170.193 259.295 169.926 259.667 169.963 260.088C170.072 261.339 173.094 260.65 173.281 262.792C173.376 264.019 172.45 264.837 171.286 264.938C170.233 265.031 169.416 264.678 168.773 264.023ZM178.635 267.115L177.822 257.829L179.098 257.717L179.154 258.361C179.637 257.745 180.277 257.364 181.181 257.285C183.137 257.114 184.499 258.555 184.658 260.375C184.817 262.195 183.727 263.85 181.77 264.021C180.866 264.1 180.17 263.837 179.587 263.314L179.91 267.004L178.635 267.115ZM181.125 258.5C180.308 258.572 179.66 259.015 179.274 259.735L179.467 261.939C179.986 262.593 180.699 262.905 181.504 262.834C182.705 262.729 183.428 261.718 183.321 260.492C183.213 259.266 182.326 258.395 181.125 258.5ZM186.518 263.356L185.706 254.07L186.981 253.958L187.794 263.245L186.518 263.356ZM195.425 261.554C194.911 262.385 194 262.951 192.836 263.053C190.682 263.242 189.271 261.805 189.112 259.985C188.948 258.115 190.006 256.513 191.987 256.34C193.708 256.189 194.925 257.268 195.064 258.853C195.089 259.138 195.077 259.426 195.043 259.616L190.437 260.019C190.643 261.373 191.534 262.007 192.736 261.901C193.491 261.835 194.093 261.446 194.431 260.892L195.425 261.554ZM192.055 257.407C191.127 257.488 190.529 258.077 190.416 259.06L193.771 258.766C193.678 257.989 193.058 257.319 192.055 257.407ZM197.039 254.75C196.569 254.791 196.138 254.429 196.097 253.959C196.055 253.488 196.417 253.058 196.888 253.016C197.358 252.975 197.789 253.337 197.83 253.807C197.871 254.278 197.51 254.709 197.039 254.75ZM197.063 262.434L196.517 256.193L197.792 256.081L198.338 262.322L197.063 262.434ZM200.424 262.14L199.878 255.899L201.154 255.787L201.207 256.394C201.634 255.858 202.222 255.444 203.113 255.366C204.488 255.246 205.621 256.083 205.78 257.891L206.108 261.642L204.82 261.755L204.496 258.053C204.409 257.062 203.813 256.515 202.921 256.593C202.067 256.668 201.606 257.245 201.331 257.818L201.7 262.028L200.424 262.14Z" fill="#3B69D1"/>
<rect x="108.836" y="250.969" width="104.086" height="28.2187" rx="6.65758" transform="rotate(-5 108.836 250.969)" stroke="#EEF1F8" stroke-width="0.887677"/>
<path d="M221.102 287.944L222.34 287.836L225.992 295.065L228.333 287.311L229.571 287.203L226.863 296.174L225.327 296.308L221.102 287.944ZM233.373 289.066C235.379 288.891 236.889 290.318 237.048 292.139C237.207 293.959 235.968 295.627 233.962 295.802C231.944 295.979 230.446 294.55 230.287 292.73C230.128 290.91 231.354 289.243 233.373 289.066ZM233.888 294.811C235.188 294.697 236.046 293.524 235.933 292.236C235.82 290.936 234.772 289.942 233.472 290.056C232.135 290.173 231.275 291.333 231.389 292.634C231.503 293.934 232.551 294.928 233.888 294.811ZM238.857 287.201C238.449 287.237 238.085 286.932 238.049 286.524C238.015 286.127 238.32 285.764 238.728 285.728C239.137 285.692 239.488 285.998 239.523 286.395C239.559 286.803 239.266 287.166 238.857 287.201ZM239.013 295.111L238.467 288.87L239.519 288.778L240.065 295.019L239.013 295.111ZM242.29 294.824L241.744 288.583L242.796 288.491L242.865 289.271C243.275 288.687 243.813 288.278 244.606 288.208C244.804 288.191 244.992 288.199 245.145 288.236L245.235 289.264C245.044 289.23 244.857 289.222 244.609 289.244C243.792 289.315 243.296 289.783 242.967 290.448L243.342 294.732L242.29 294.824ZM250.549 294.102L249.736 284.815L250.789 284.723L251.601 294.009L250.549 294.102ZM259.283 292.302C258.769 293.133 257.884 293.709 256.72 293.811C254.615 293.995 253.179 292.561 253.02 290.741C252.854 288.847 253.939 287.267 255.871 287.098C257.567 286.95 258.773 288.042 258.907 289.577C258.929 289.825 258.912 290.063 258.89 290.24L254.099 290.659C254.267 292.154 255.299 292.975 256.637 292.858C257.441 292.787 258.09 292.356 258.45 291.763L259.283 292.302ZM255.924 287.992C254.896 288.082 254.231 288.751 254.102 289.848L257.842 289.521C257.725 288.608 257.026 287.895 255.924 287.992ZM263.552 289.82C263.393 287.999 264.508 286.342 266.465 286.171C267.393 286.09 268.155 286.385 268.768 286.968L268.436 283.179L269.489 283.087L270.301 292.373L269.249 292.466L269.184 291.723C268.682 292.403 267.983 292.826 267.054 292.907C265.098 293.078 263.712 291.64 263.552 289.82ZM264.667 289.722C264.783 291.047 265.766 292.022 267.091 291.906C267.958 291.83 268.689 291.342 269.083 290.571L268.869 288.119C268.321 287.419 267.53 287.076 266.675 287.151C265.35 287.267 264.551 288.397 264.667 289.722ZM275.057 284.671L274.029 284.761L275.137 282.593L276.326 282.489L275.057 284.671ZM277.977 290.666C277.464 291.497 276.578 292.074 275.414 292.176C273.309 292.36 271.874 290.926 271.715 289.106C271.549 287.211 272.633 285.631 274.565 285.462C276.261 285.314 277.467 286.406 277.602 287.942C277.623 288.189 277.607 288.428 277.585 288.604L272.793 289.024C272.961 290.519 273.994 291.339 275.331 291.222C276.136 291.152 276.784 290.721 277.144 290.128L277.977 290.666ZM274.618 286.356C273.591 286.446 272.925 287.116 272.797 288.212L276.536 287.885C276.419 286.972 275.72 286.26 274.618 286.356ZM279.855 289.429L279.575 286.234L278.399 286.337L278.315 285.384L279.492 285.281L279.355 283.721L280.42 283.628L280.556 285.188L282.723 284.998L282.807 285.952L280.64 286.141L280.919 289.336C281.005 290.314 281.524 290.543 282.279 290.477C282.688 290.441 282.968 290.367 283.195 290.247L283.277 291.188C282.991 291.338 282.661 291.417 282.215 291.456C280.829 291.577 279.988 290.952 279.855 289.429ZM286.59 291.123C285.364 291.23 284.475 290.622 284.381 289.557C284.299 288.616 284.959 287.884 286.264 287.546L288.339 287.015L288.301 286.581C288.225 285.715 287.563 285.274 286.671 285.352C285.953 285.414 285.4 285.8 285.063 286.366L284.217 285.828C284.697 285.038 285.536 284.503 286.626 284.407C288.211 284.269 289.233 285.115 289.353 286.489L289.72 290.675L288.667 290.767L288.598 289.974C288.18 290.622 287.394 291.053 286.59 291.123ZM285.443 289.427C285.49 289.959 285.957 290.305 286.687 290.241C287.517 290.169 288.163 289.713 288.513 289.008L288.406 287.783L286.588 288.253C285.747 288.477 285.396 288.894 285.443 289.427ZM291.676 282.58C291.267 282.616 290.903 282.311 290.868 281.903C290.833 281.506 291.138 281.143 291.547 281.107C291.955 281.071 292.306 281.377 292.341 281.774C292.377 282.182 292.084 282.545 291.676 282.58ZM291.831 290.49L291.285 284.249L292.338 284.157L292.884 290.398L291.831 290.49ZM295.108 290.203L294.296 280.916L295.348 280.824L296.16 290.111L295.108 290.203Z" fill="#161616"/>
<path d="M305.945 289.308C305.769 289.16 305.669 288.96 305.648 288.71C305.626 288.459 305.689 288.246 305.837 288.069L308.984 284.318L305.233 281.171C305.057 281.023 304.958 280.823 304.936 280.573C304.914 280.322 304.977 280.109 305.125 279.932C305.273 279.756 305.472 279.657 305.723 279.635C305.973 279.613 306.187 279.676 306.363 279.824L310.787 283.537C310.884 283.617 310.955 283.708 311.001 283.808C311.046 283.908 311.074 284.017 311.085 284.134C311.095 284.252 311.086 284.365 311.059 284.471C311.031 284.577 310.976 284.679 310.896 284.775L307.183 289.199C307.035 289.376 306.836 289.475 306.585 289.497C306.335 289.519 306.121 289.456 305.945 289.308Z" fill="#161616"/>
</g>
<defs>
<filter id="filter0_d_5473_14641" x="-3.24838" y="59.2812" width="345.412" height="284.881" filterUnits="userSpaceOnUse" color-interpolation-filters="sRGB">
<feFlood flood-opacity="0" result="BackgroundImageFix"/>
<feColorMatrix in="SourceAlpha" type="matrix" values="0 0 0 0 0 0 0 0 0 0 0 0 0 0 0 0 0 0 127 0" result="hardAlpha"/>
<feOffset dy="3.55071"/>
<feGaussianBlur stdDeviation="5.32607"/>
<feComposite in2="hardAlpha" operator="out"/>
<feColorMatrix type="matrix" values="0 0 0 0 0.152941 0 0 0 0 0.286275 0 0 0 0 0.588235 0 0 0 0.12 0"/>
<feBlend mode="normal" in2="BackgroundImageFix" result="effect1_dropShadow_5473_14641"/>
<feBlend mode="normal" in="SourceGraphic" in2="effect1_dropShadow_5473_14641" result="shape"/>
</filter>
</defs>
</svg>
