<svg width="351" height="551" viewBox="0 0 351 551" fill="none"
    xmlns="http://www.w3.org/2000/svg">
    <defs>
        <filter id="filter0_d_5487_14134" x="11" y="448" width="340.351" height="106.277" filterUnits="userSpaceOnUse" color-interpolation-filters="sRGB">
            <feFlood flood-opacity="0" result="BackgroundImageFix"/>
            <feColorMatrix in="SourceAlpha" type="matrix" values="0 0 0 0 0 0 0 0 0 0 0 0 0 0 0 0 0 0 127 0" result="hardAlpha"/>
            <feOffset dy="4"/>
            <feGaussianBlur stdDeviation="2"/>
            <feComposite in2="hardAlpha" operator="out"/>
            <feColorMatrix type="matrix" values="0 0 0 0 0 0 0 0 0 0 0 0 0 0 0 0 0 0 0.25 0"/>
            <feBlend mode="normal" in2="BackgroundImageFix" result="effect1_dropShadow_5487_14134"/>
            <feBlend mode="normal" in="SourceGraphic" in2="effect1_dropShadow_5487_14134" result="shape"/>
        </filter>
        <filter id="filter1_d_5487_14134" x="225.291" y="54.4483" width="75.7188" height="76.3047" filterUnits="userSpaceOnUse" color-interpolation-filters="sRGB">
            <feFlood flood-opacity="0" result="BackgroundImageFix"/>
            <feColorMatrix in="SourceAlpha" type="matrix" values="0 0 0 0 0 0 0 0 0 0 0 0 0 0 0 0 0 0 127 0" result="hardAlpha"/>
            <feOffset dy="4"/>
            <feGaussianBlur stdDeviation="6"/>
            <feComposite in2="hardAlpha" operator="out"/>
            <feColorMatrix type="matrix" values="0 0 0 0 0.152941 0 0 0 0 0.286275 0 0 0 0 0.588235 0 0 0 0.12 0"/>
            <feBlend mode="normal" in2="BackgroundImageFix" result="effect1_dropShadow_5487_14134"/>
            <feBlend mode="normal" in="SourceGraphic" in2="effect1_dropShadow_5487_14134" result="shape"/>
        </filter>
        <filter id="filter2_d_5487_14134" x="-3.33984" y="155.212" width="350.217" height="321.169" filterUnits="userSpaceOnUse" color-interpolation-filters="sRGB">
            <feFlood flood-opacity="0" result="BackgroundImageFix"/>
            <feColorMatrix in="SourceAlpha" type="matrix" values="0 0 0 0 0 0 0 0 0 0 0 0 0 0 0 0 0 0 127 0" result="hardAlpha"/>
            <feOffset dy="4"/>
            <feGaussianBlur stdDeviation="6"/>
            <feComposite in2="hardAlpha" operator="out"/>
            <feColorMatrix type="matrix" values="0 0 0 0 0.152941 0 0 0 0 0.286275 0 0 0 0 0.588235 0 0 0 0.12 0"/>
            <feBlend mode="normal" in2="BackgroundImageFix" result="effect1_dropShadow_5487_14134"/>
            <feBlend mode="normal" in="SourceGraphic" in2="effect1_dropShadow_5487_14134" result="shape"/>
        </filter>
        <clipPath id="clip0_5487_14134">
            <rect width="24" height="24" fill="white" transform="translate(208.085 472.7) rotate(-5)"/>
        </clipPath>
        <clipPath id="clip1_5487_14134">
            <rect width="97" height="97" fill="white" transform="matrix(0.856722 0.515779 0.515779 -0.856722 -34 443.102)"/>
        </clipPath>
    </defs>
    <g filter="url(#filter0_d_5487_14134)">
        <rect x="15" y="476.543" width="327.496" height="70" rx="8" transform="rotate(-5 15 476.543)" fill="white" shape-rendering="crispEdges"/>
        <path d="M52.7676 507.369C52.2197 507.417 51.7338 507.263 51.3098 506.907C50.8852 506.551 50.6488 506.099 50.6009 505.551L49.8165 496.585C49.7889 496.27 49.8335 495.964 49.9503 495.67C50.0664 495.375 50.2409 495.126 50.474 494.921L56.059 489.916C56.23 489.767 56.4122 489.65 56.6057 489.567C56.7991 489.483 57.0037 489.431 57.2196 489.412C57.4354 489.394 57.6458 489.409 57.8509 489.458C58.0559 489.507 58.2556 489.59 58.4499 489.706L64.8192 493.666C65.0843 493.827 65.2998 494.043 65.466 494.312C65.6315 494.582 65.728 494.875 65.7556 495.191L66.54 504.156C66.588 504.704 66.4341 505.19 66.0784 505.615C65.722 506.039 65.2699 506.275 64.722 506.323L60.7372 506.672L60.1271 499.698L56.1423 500.047L56.7524 507.02L52.7676 507.369Z" fill="#3B69D1"/>
        <path d="M39.3033 528.623L41.7391 519.978L43.9626 519.783L47.8626 527.874L46.0575 528.032L45.0663 525.927L41.719 526.22L41.1084 528.465L39.3033 528.623ZM42.1185 524.727L44.4137 524.526L42.991 521.483L42.1185 524.727ZM51.8567 526.32C52.4544 526.268 52.9086 525.951 53.1589 525.508L54.4218 526.313C53.9248 527.103 53.082 527.659 51.9822 527.755C49.9022 527.937 48.5282 526.551 48.3744 524.794C48.2207 523.037 49.3332 521.434 51.4133 521.252C52.5131 521.155 53.4395 521.556 54.0662 522.248L52.9622 523.26C52.6387 522.867 52.1365 522.634 51.5149 522.688C50.5227 522.775 49.8604 523.604 49.9524 524.656C50.0455 525.72 50.8406 526.409 51.8567 526.32ZM58.1958 525.766C58.7935 525.713 59.2476 525.397 59.4979 524.953L60.7609 525.758C60.2639 526.548 59.4211 527.104 58.3213 527.2C56.2412 527.382 54.8672 525.997 54.7135 524.239C54.5598 522.482 55.6723 520.879 57.7523 520.697C58.8521 520.601 59.7786 521.002 60.4053 521.694L59.3013 522.706C58.9778 522.312 58.4756 522.079 57.8539 522.134C56.8617 522.221 56.1994 523.049 56.2915 524.101C56.3846 525.165 57.1797 525.855 58.1958 525.766ZM65.7208 523.686L65.4217 520.267L66.9518 520.133L67.2447 523.48C67.4026 525.285 66.4479 526.489 64.6787 526.644C62.9094 526.799 61.7721 525.778 61.6142 523.973L61.3214 520.626L62.8515 520.492L63.1506 523.911C63.227 524.783 63.7283 525.282 64.5651 525.208C65.39 525.136 65.7972 524.559 65.7208 523.686ZM74.6206 524.546C74.1247 525.348 73.233 525.896 72.0974 525.995C69.9575 526.182 68.6194 524.794 68.4657 523.036C68.3098 521.255 69.3049 519.686 71.2774 519.514C72.951 519.367 74.1501 520.407 74.2882 521.985C74.3175 522.32 74.2968 522.635 74.2668 522.842L70.0469 523.211C70.2887 524.322 71.0218 524.716 71.9662 524.633C72.6237 524.576 73.1724 524.239 73.4575 523.78L74.6206 524.546ZM71.3503 520.76C70.5732 520.828 70.0969 521.304 69.9985 522.107L72.7719 521.864C72.6947 521.257 72.199 520.686 71.3503 520.76ZM76.2283 518.262C75.6903 518.309 75.1963 517.894 75.1493 517.356C75.1022 516.818 75.5167 516.324 76.0547 516.277C76.5926 516.23 77.0747 516.646 77.1217 517.184C77.1688 517.722 76.7662 518.214 76.2283 518.262ZM76.0824 525.405L75.5552 519.38L77.0734 519.248L77.6006 525.273L76.0824 525.405ZM79.4212 525.113L78.6368 516.148L80.155 516.015L80.9394 524.981L79.4212 525.113Z" fill="#3B69D1"/>
        <path d="M143.697 486.539L146.924 482.694C147.106 482.477 147.33 482.361 147.596 482.346C147.863 482.331 148.104 482.415 148.321 482.596C148.521 482.78 148.633 483.004 148.656 483.27C148.679 483.535 148.608 483.776 148.443 483.991L144.604 488.593C144.422 488.81 144.199 488.93 143.933 488.953C143.667 488.976 143.426 488.897 143.21 488.715L140.88 486.761C140.682 486.594 140.57 486.37 140.545 486.087C140.521 485.805 140.592 485.565 140.758 485.366C140.925 485.167 141.15 485.056 141.432 485.031C141.714 485.006 141.954 485.077 142.153 485.244L143.697 486.539ZM130.295 488.54C130.013 488.565 129.768 488.49 129.561 488.315C129.353 488.141 129.237 487.913 129.212 487.631C129.187 487.349 129.262 487.104 129.437 486.896C129.611 486.688 129.839 486.572 130.121 486.548L137.094 485.938C137.377 485.913 137.622 485.987 137.83 486.161C138.037 486.336 138.153 486.564 138.178 486.847C138.202 487.129 138.128 487.374 137.954 487.581C137.779 487.789 137.551 487.905 137.269 487.93L130.295 488.54ZM144.974 495.688L143.247 497.746C143.08 497.945 142.856 498.057 142.574 498.081C142.291 498.106 142.051 498.035 141.852 497.868C141.654 497.702 141.542 497.477 141.517 497.195C141.493 496.913 141.564 496.672 141.73 496.474L143.457 494.415L141.399 492.688C141.2 492.521 141.089 492.297 141.064 492.015C141.039 491.732 141.11 491.492 141.277 491.293C141.444 491.095 141.668 490.983 141.95 490.958C142.233 490.934 142.473 491.005 142.672 491.171L144.73 492.899L146.457 490.84C146.624 490.642 146.848 490.53 147.131 490.505C147.413 490.481 147.653 490.552 147.852 490.718C148.05 490.885 148.162 491.109 148.187 491.392C148.212 491.674 148.141 491.914 147.974 492.113L146.247 494.171L148.305 495.898C148.504 496.065 148.615 496.29 148.64 496.572C148.665 496.854 148.594 497.094 148.427 497.293C148.26 497.492 148.036 497.603 147.754 497.628C147.471 497.653 147.231 497.582 147.032 497.415L144.974 495.688ZM130.992 496.51C130.71 496.534 130.465 496.459 130.258 496.285C130.05 496.111 129.934 495.883 129.909 495.601C129.884 495.318 129.959 495.073 130.134 494.865C130.308 494.658 130.536 494.542 130.818 494.517L137.792 493.907C138.074 493.882 138.319 493.957 138.527 494.131C138.734 494.306 138.85 494.534 138.875 494.816C138.9 495.098 138.825 495.343 138.651 495.55C138.476 495.758 138.248 495.875 137.966 495.9L130.992 496.51Z" fill="#646464"/>
        <path d="M116.328 521.884L115.596 513.516L117.03 513.391L119.958 517.387L122.147 512.943L123.581 512.818L124.313 521.186L123.19 521.284L122.589 514.422L120.5 518.628L119.639 518.704L116.851 514.924L117.451 521.786L116.328 521.884ZM128.855 514.476C130.792 514.307 132.249 515.685 132.403 517.442C132.557 519.2 131.361 520.81 129.424 520.979C127.475 521.15 126.03 519.771 125.876 518.013C125.722 516.256 126.906 514.647 128.855 514.476ZM129.352 520.022C130.607 519.912 131.436 518.78 131.327 517.537C131.217 516.281 130.206 515.322 128.951 515.432C127.66 515.545 126.83 516.665 126.94 517.92C127.05 519.176 128.061 520.135 129.352 520.022ZM134.3 520.312L133.773 514.287L134.789 514.198L134.849 514.879C135.292 514.299 135.88 513.862 136.777 513.783C138.127 513.665 139.211 514.486 139.361 516.195L139.68 519.841L138.663 519.93L138.348 516.32C138.253 515.244 137.589 514.676 136.657 514.757C135.784 514.834 135.278 515.384 134.951 516.051L135.316 520.223L134.3 520.312ZM144.229 518.612L144.893 517.94C145.358 518.429 145.886 518.684 146.495 518.631C147.165 518.572 147.512 518.132 147.466 517.606C147.348 516.255 144.377 516.997 144.191 514.869C144.108 513.925 144.841 513.078 146.001 512.976C146.861 512.901 147.638 513.243 148.108 513.792L147.455 514.451C147.092 514.025 146.613 513.778 146.087 513.824C145.441 513.88 145.128 514.293 145.169 514.76C145.287 516.11 148.274 515.415 148.454 517.472C148.54 518.596 147.705 519.38 146.582 519.478C145.625 519.562 144.839 519.245 144.229 518.612ZM154.217 515.968L153.916 512.525L154.932 512.436L155.23 515.843C155.388 517.648 154.44 518.791 152.802 518.934C151.176 519.076 150.044 518.115 149.886 516.31L149.588 512.903L150.604 512.814L150.906 516.257C151.009 517.441 151.702 518.067 152.731 517.977C153.735 517.889 154.321 517.151 154.217 515.968ZM157.312 510.65C156.917 510.684 156.566 510.39 156.532 509.995C156.498 509.613 156.793 509.262 157.187 509.227C157.582 509.193 157.921 509.488 157.954 509.871C157.989 510.265 157.706 510.615 157.312 510.65ZM157.462 518.286L156.935 512.261L157.951 512.172L158.478 518.197L157.462 518.286ZM159.19 512.063L160.289 511.967L162.648 516.76L164.139 511.63L165.239 511.534L163.411 517.765L162.072 517.882L159.19 512.063ZM166.861 509.814C166.466 509.849 166.115 509.554 166.081 509.16C166.048 508.777 166.342 508.426 166.737 508.392C167.131 508.357 167.47 508.653 167.504 509.035C167.538 509.43 167.255 509.78 166.861 509.814ZM167.011 517.45L166.484 511.425L167.5 511.336L168.027 517.361L167.011 517.45Z" fill="#646464"/>
        <g clip-path="url(#clip0_5487_14134)">
            <path d="M216.279 486.037L222.281 485.512C222.563 485.487 222.787 485.371 222.953 485.164C223.119 484.957 223.19 484.713 223.165 484.43C223.14 484.148 223.024 483.92 222.817 483.745C222.609 483.571 222.364 483.497 222.082 483.521L216.08 484.047C215.797 484.071 215.573 484.187 215.407 484.393C215.241 484.601 215.171 484.845 215.195 485.128C215.22 485.41 215.336 485.638 215.543 485.812C215.751 485.987 215.997 486.061 216.279 486.037ZM216.017 483.048L226.004 482.174C226.286 482.15 226.511 482.034 226.676 481.827C226.842 481.62 226.913 481.376 226.888 481.093C226.864 480.811 226.747 480.583 226.539 480.408C226.332 480.234 226.087 480.16 225.805 480.184L215.818 481.058C215.536 481.083 215.312 481.198 215.146 481.405C214.98 481.612 214.909 481.857 214.934 482.139C214.959 482.421 215.075 482.649 215.282 482.823C215.49 482.998 215.735 483.073 216.017 483.048ZM215.756 480.06L225.743 479.186C226.025 479.161 226.249 479.046 226.415 478.839C226.581 478.632 226.652 478.387 226.627 478.105C226.602 477.822 226.486 477.594 226.278 477.419C226.071 477.246 225.826 477.171 225.543 477.196L215.557 478.069C215.274 478.094 215.05 478.21 214.884 478.416C214.718 478.624 214.648 478.868 214.673 479.151C214.697 479.433 214.813 479.661 215.021 479.836C215.229 480.01 215.474 480.084 215.756 480.06ZM211.784 492.026L210.426 476.511C210.378 475.963 210.533 475.476 210.889 475.052C211.245 474.628 211.696 474.392 212.244 474.344L228.183 472.949C228.731 472.901 229.218 473.055 229.642 473.411C230.066 473.767 230.302 474.22 230.35 474.767L231.396 486.722C231.444 487.27 231.29 487.756 230.934 488.181C230.578 488.605 230.126 488.841 229.578 488.889L215.631 490.109L213.54 492.6C213.253 492.943 212.897 493.045 212.475 492.906C212.053 492.768 211.823 492.475 211.784 492.026ZM213.567 489.461L214.635 488.188L229.404 486.896L228.358 474.942L212.419 476.336L213.567 489.461Z" fill="#646464"/>
        </g>
        <path d="M200.92 514.484L200.188 506.116L201.623 505.99L204.55 509.986L206.739 505.542L208.174 505.417L208.906 513.785L207.782 513.883L207.182 507.021L205.092 511.228L204.232 511.303L201.444 507.523L202.044 514.385L200.92 514.484ZM216.515 512.119C216.019 512.922 215.164 513.478 214.04 513.577C212.008 513.754 210.622 512.37 210.469 510.613C210.309 508.784 211.356 507.259 213.22 507.095C214.858 506.952 216.023 508.007 216.152 509.489C216.173 509.728 216.157 509.958 216.136 510.129L211.51 510.534C211.672 511.977 212.669 512.769 213.96 512.656C214.737 512.588 215.363 512.172 215.711 511.6L216.515 512.119ZM213.272 507.958C212.28 508.045 211.638 508.691 211.513 509.75L215.124 509.434C215.01 508.553 214.336 507.865 213.272 507.958ZM217.428 512.208L218.092 511.536C218.556 512.025 219.084 512.28 219.694 512.227C220.364 512.168 220.711 511.728 220.665 511.202C220.546 509.851 217.576 510.593 217.39 508.465C217.307 507.521 218.04 506.674 219.199 506.572C220.06 506.497 220.837 506.839 221.306 507.388L220.653 508.047C220.291 507.621 219.812 507.374 219.286 507.42C218.64 507.477 218.327 507.889 218.368 508.356C218.486 509.706 221.473 509.011 221.653 511.068C221.739 512.192 220.904 512.976 219.78 513.074C218.824 513.158 218.037 512.841 217.428 512.208ZM222.681 511.749L223.345 511.076C223.81 511.566 224.338 511.82 224.947 511.767C225.617 511.709 225.964 511.269 225.918 510.743C225.8 509.392 222.829 510.134 222.643 508.006C222.56 507.061 223.293 506.214 224.453 506.113C225.313 506.037 226.09 506.379 226.56 506.928L225.907 507.588C225.544 507.162 225.065 506.914 224.539 506.96C223.893 507.017 223.58 507.43 223.621 507.896C223.739 509.247 226.726 508.552 226.906 510.608C226.992 511.733 226.157 512.517 225.034 512.615C224.077 512.698 223.291 512.382 222.681 511.749ZM230.328 512.079C229.145 512.183 228.286 511.595 228.196 510.567C228.117 509.659 228.754 508.953 230.014 508.626L232.017 508.113L231.98 507.695C231.907 506.858 231.267 506.432 230.407 506.507C229.713 506.568 229.18 506.94 228.854 507.486L228.038 506.968C228.501 506.204 229.311 505.688 230.363 505.596C231.893 505.462 232.88 506.279 232.996 507.606L233.35 511.646L232.334 511.735L232.267 510.97C231.864 511.596 231.105 512.011 230.328 512.079ZM229.221 510.442C229.266 510.956 229.717 511.29 230.422 511.228C231.223 511.158 231.847 510.718 232.185 510.038L232.082 508.854L230.327 509.309C229.514 509.525 229.176 509.928 229.221 510.442ZM234.79 512.617C234.737 512.007 234.993 511.491 235.554 511.02C235.26 510.829 235.088 510.519 235.06 510.196C235.018 509.718 235.235 509.301 235.675 508.961C235.114 508.613 234.75 508.031 234.692 507.361C234.59 506.202 235.413 505.142 236.848 505.016C237.29 504.978 237.693 505.039 238.029 505.166L240.265 504.97L240.342 505.855L239.039 505.969C239.232 506.253 239.346 506.592 239.378 506.951C239.478 508.099 238.667 509.157 237.221 509.284C236.922 509.31 236.631 509.287 236.374 509.238C236.138 509.439 236.014 509.667 236.034 509.894C236.056 510.145 236.203 510.313 236.573 510.28L238.295 510.13C239.885 509.99 240.694 510.703 240.788 511.779C240.899 513.046 239.714 514.101 237.909 514.259C236.128 514.415 234.896 513.824 234.79 512.617ZM237.163 508.482C238.035 508.406 238.485 507.764 238.421 507.035C238.357 506.294 237.802 505.74 236.93 505.816C236.033 505.895 235.595 506.535 235.66 507.276C235.725 508.018 236.266 508.56 237.163 508.482ZM235.772 512.41C235.836 513.139 236.627 513.516 237.823 513.411C239.09 513.3 239.847 512.728 239.778 511.939C239.728 511.365 239.365 510.939 238.289 511.033L236.341 511.204C235.95 511.551 235.73 511.932 235.772 512.41ZM247.031 509.45C246.535 510.252 245.68 510.808 244.557 510.907C242.524 511.085 241.139 509.7 240.985 507.943C240.825 506.114 241.872 504.589 243.737 504.426C245.374 504.282 246.539 505.337 246.668 506.819C246.689 507.058 246.673 507.289 246.652 507.459L242.026 507.864C242.188 509.307 243.185 510.099 244.476 509.986C245.253 509.918 245.879 509.502 246.227 508.93L247.031 509.45ZM243.788 505.288C242.796 505.375 242.154 506.022 242.03 507.08L245.64 506.765C245.527 505.883 244.852 505.195 243.788 505.288Z" fill="#646464"/>
        <path d="M306.697 481.163C306.895 481.329 307.136 481.4 307.418 481.376C307.7 481.351 307.925 481.239 308.091 481.041C308.258 480.842 308.329 480.602 308.304 480.319C308.28 480.037 308.168 479.813 307.969 479.646L306.101 478.078C306.302 477.709 306.444 477.32 306.525 476.911C306.607 476.503 306.628 476.074 306.589 475.626C306.48 474.381 305.951 473.36 305.004 472.565C304.056 471.77 302.959 471.426 301.714 471.535C300.468 471.644 299.448 472.173 298.652 473.12C297.857 474.069 297.514 475.165 297.623 476.41C297.732 477.656 298.26 478.676 299.208 479.472C300.156 480.267 301.253 480.61 302.498 480.501C302.93 480.463 303.344 480.369 303.74 480.217C304.137 480.065 304.5 479.858 304.828 479.595L306.697 481.163ZM302.324 478.509C301.626 478.57 301.016 478.381 300.492 477.941C299.969 477.502 299.676 476.934 299.615 476.236C299.554 475.539 299.743 474.928 300.183 474.405C300.622 473.881 301.191 473.589 301.888 473.528C302.585 473.467 303.196 473.656 303.719 474.095C304.243 474.535 304.535 475.103 304.596 475.8C304.657 476.498 304.468 477.108 304.029 477.632C303.589 478.155 303.021 478.448 302.324 478.509ZM295.375 485.14C294.827 485.188 294.341 485.034 293.917 484.678C293.493 484.322 293.256 483.869 293.208 483.322L292.163 471.367C292.115 470.819 292.269 470.333 292.625 469.909C292.981 469.485 293.433 469.248 293.981 469.201L309.92 467.806C310.468 467.758 310.954 467.912 311.379 468.269C311.803 468.624 312.039 469.076 312.086 469.624L313.132 481.578C313.18 482.126 313.026 482.613 312.671 483.037C312.314 483.461 311.862 483.697 311.314 483.745L295.375 485.14ZM295.201 483.147L311.14 481.753L310.094 469.798L294.155 471.193L295.201 483.147Z" fill="#646464"/>
        <path d="M275.992 507.916L275.26 499.548L277.483 499.353C279.169 499.206 280.289 500.035 280.415 501.47C280.503 502.474 280.054 503.272 279.189 503.709L282.232 507.37L280.905 507.486L278.156 504.016C278.073 504.035 277.978 504.044 277.894 504.051L276.794 504.147L277.115 507.817L275.992 507.916ZM277.615 500.305L276.467 500.406L276.711 503.191L277.858 503.091C278.815 503.007 279.332 502.444 279.253 501.547C279.179 500.698 278.571 500.222 277.615 500.305ZM288.598 505.813C288.102 506.615 287.247 507.172 286.123 507.27C284.091 507.448 282.705 506.063 282.551 504.306C282.391 502.477 283.438 500.952 285.303 500.789C286.941 500.646 288.105 501.7 288.235 503.183C288.256 503.422 288.24 503.652 288.219 503.822L283.592 504.227C283.755 505.67 284.752 506.463 286.043 506.35C286.82 506.282 287.446 505.866 287.793 505.293L288.598 505.813ZM285.355 501.652C284.362 501.739 283.72 502.385 283.596 503.444L287.206 503.128C287.093 502.247 286.419 501.559 285.355 501.652ZM292.962 505.708C293.703 505.643 294.282 505.231 294.606 504.673L295.461 505.213C294.965 506.015 294.134 506.569 293.034 506.666C291.038 506.84 289.628 505.458 289.474 503.701C289.32 501.943 290.469 500.337 292.465 500.162C293.553 500.067 294.48 500.48 295.107 501.172L294.36 501.852C293.943 501.358 293.302 501.053 292.549 501.119C291.258 501.232 290.426 502.328 290.538 503.607C290.651 504.899 291.659 505.822 292.962 505.708ZM296.941 506.083L296.157 497.117L297.173 497.028L297.49 500.65C297.933 500.07 298.521 499.633 299.417 499.554C300.768 499.436 301.852 500.257 302.001 501.966L302.32 505.612L301.304 505.701L300.988 502.091C300.894 501.015 300.242 500.446 299.298 500.528C298.413 500.606 297.92 501.167 297.592 501.822L297.957 505.994L296.941 506.083ZM309.634 503.972C309.139 504.775 308.284 505.331 307.16 505.43C305.128 505.607 303.742 504.223 303.588 502.466C303.428 500.637 304.475 499.112 306.34 498.948C307.978 498.805 309.142 499.86 309.272 501.342C309.293 501.581 309.277 501.811 309.256 501.982L304.629 502.387C304.792 503.83 305.788 504.622 307.08 504.509C307.857 504.441 308.483 504.025 308.83 503.453L309.634 503.972ZM306.391 499.811C305.399 499.898 304.757 500.545 304.633 501.603L308.243 501.288C308.13 500.406 307.455 499.718 306.391 499.811ZM311.312 504.826L310.785 498.801L311.801 498.712L311.867 499.465C312.263 498.9 312.783 498.505 313.548 498.438C313.739 498.422 313.92 498.43 314.068 498.465L314.155 499.457C313.971 499.425 313.79 499.417 313.551 499.438C312.762 499.507 312.283 499.958 311.966 500.6L312.328 504.737L311.312 504.826ZM318.412 503.482C319.153 503.417 319.731 503.005 320.056 502.446L320.91 502.986C320.414 503.788 319.584 504.343 318.484 504.439C316.487 504.614 315.077 503.231 314.924 501.474C314.77 499.717 315.918 498.11 317.915 497.936C319.003 497.841 319.93 498.253 320.557 498.945L319.809 499.625C319.393 499.132 318.752 498.826 317.998 498.892C316.707 499.005 315.876 500.102 315.988 501.381C316.101 502.672 317.109 503.596 318.412 503.482ZM322.391 503.856L321.606 494.891L322.622 494.802L322.939 498.424C323.382 497.843 323.97 497.406 324.867 497.328C326.218 497.209 327.302 498.03 327.451 499.74L327.77 503.386L326.754 503.475L326.438 499.864C326.344 498.788 325.692 498.219 324.747 498.302C323.863 498.379 323.37 498.94 323.042 499.595L323.407 503.767L322.391 503.856ZM335.084 501.746C334.588 502.548 333.733 503.105 332.61 503.203C330.577 503.381 329.192 501.996 329.038 500.239C328.878 498.41 329.925 496.885 331.79 496.722C333.427 496.579 334.592 497.633 334.721 499.116C334.742 499.355 334.726 499.585 334.705 499.755L330.079 500.16C330.241 501.603 331.238 502.396 332.529 502.283C333.306 502.215 333.932 501.799 334.28 501.226L335.084 501.746ZM331.841 497.585C330.849 497.672 330.207 498.318 330.083 499.377L333.693 499.061C333.58 498.179 332.905 497.492 331.841 497.585Z" fill="#646464"/>
    </g>
    <rect x="0.537709" y="0.44937" width="302.548" height="407.641" rx="12.5" transform="matrix(0.995151 -0.097567 0.0802681 0.996307 12.2585 30.6236)" fill="#F1F1F1" stroke="#878787" stroke-dasharray="5.51 5.51"/>
    <rect width="313.682" height="385.608" rx="8" transform="matrix(0.995156 -0.0974782 0.0803548 0.996297 -14.0488 45.388)" fill="white"/>
    <path d="M6.97533 122.58L5.1428 100.255L11.7062 99.6421C16.358 99.2075 19.3821 101.239 19.691 105.002C19.8402 106.82 19.1401 108.46 17.6627 109.627C20.1068 110.459 21.5702 112.25 21.7613 114.578C22.0964 118.661 19.1463 121.443 14.0167 121.922L6.97533 122.58ZM12.1107 103.397L9.97601 103.596L10.3896 108.635L12.5243 108.436C14.2448 108.275 15.1885 107.255 15.055 105.628C14.9267 104.065 13.8312 103.236 12.1107 103.397ZM13.4705 112.139L10.6985 112.398L11.1907 118.394L13.9626 118.135C16.0655 117.939 17.2483 116.703 17.0938 114.822C16.9368 112.908 15.5733 111.943 13.4705 112.139ZM26.891 101.694C25.4573 101.828 24.1471 100.729 24.0293 99.2941C23.9115 97.8589 25.0227 96.5339 26.4565 96.3999C27.8902 96.266 29.1686 97.3677 29.2864 98.8029C29.4042 100.238 28.3248 101.56 26.891 101.694ZM26.4017 120.765L25.0823 104.691L29.1287 104.313L30.4481 120.387L26.4017 120.765ZM49.8694 115.937C48.5368 118.086 46.1538 119.562 43.1269 119.845C37.4238 120.378 33.8786 116.692 33.4937 112.004C33.1037 107.252 35.7766 103.049 41.0337 102.558C45.4943 102.141 48.6742 104.897 49.0198 109.107C49.0931 110 49.0337 110.841 48.9508 111.395L37.7038 112.446C38.3322 115.408 40.2796 116.448 42.7966 116.212C44.549 116.049 46.0155 115.14 46.7815 113.912L49.8694 115.937ZM41.2104 105.884C39.1394 106.077 37.8636 107.353 37.5904 109.5L44.9822 108.809C44.7849 107.189 43.4725 105.672 41.2104 105.884ZM53.7513 118.21L52.4319 102.136L56.4783 101.758L56.583 103.033C57.6091 101.845 59.0385 100.876 61.1732 100.676C64.6461 100.352 67.6144 102.485 68.0045 107.237L68.7898 116.804L64.7116 117.186L63.9393 107.777C63.7639 105.64 62.4432 104.414 60.4678 104.599C58.4287 104.789 57.458 106.262 56.9364 107.339L57.7977 117.832L53.7513 118.21ZM69.6156 100.53L73.9487 100.125L79.0649 111.217L82.2645 99.3482L86.6294 98.9403L82.0864 115.562L76.7656 116.059L69.6156 100.53ZM104.88 110.797C103.547 112.946 101.164 114.422 98.1373 114.705C92.4342 115.238 88.8889 111.552 88.5041 106.864C88.114 102.112 90.787 97.9091 96.0441 97.4179C100.505 97.0011 103.685 99.757 104.03 103.967C104.103 104.86 104.044 105.701 103.961 106.255L92.7141 107.306C93.3426 110.268 95.29 111.307 97.807 111.072C99.5594 110.908 101.026 110 101.792 108.772L104.88 110.797ZM96.2208 100.744C94.1498 100.937 92.874 102.213 92.6007 104.36L99.9925 103.669C99.7953 102.049 98.4829 100.532 96.2208 100.744ZM108.762 113.07L107.442 96.9956L111.489 96.6175L111.593 97.8932C112.62 96.7046 114.049 95.7355 116.184 95.536C119.657 95.2115 122.625 97.3445 123.015 102.096L123.8 111.664L119.722 112.045L118.95 102.637C118.774 100.5 117.454 99.2738 115.478 99.4584C113.439 99.649 112.468 101.122 111.947 102.199L112.808 112.691L108.762 113.07ZM138.402 103.294L137.653 94.1727L141.732 93.7916L142.465 102.722C142.86 107.537 140.3 110.765 135.584 111.206C130.869 111.647 127.853 108.94 127.458 104.124L126.725 95.1938L130.803 94.8127L131.552 103.934C131.743 106.262 133.072 107.584 135.302 107.376C137.5 107.17 138.593 105.622 138.402 103.294ZM162.099 105.45C160.767 107.6 158.384 109.076 155.357 109.358C149.654 109.891 146.108 106.205 145.724 101.517C145.334 96.7652 148.007 92.5625 153.264 92.0713C157.724 91.6545 160.904 94.4104 161.25 98.6203C161.323 99.5133 161.264 100.354 161.181 100.908L149.934 101.959C150.562 104.922 152.509 105.961 155.027 105.726C156.779 105.562 158.245 104.654 159.011 103.425L162.099 105.45ZM153.44 95.3971C151.369 95.5906 150.094 96.8667 149.82 99.0133L157.212 98.3227C157.015 96.7021 155.702 95.1857 153.44 95.3971Z" fill="#3B69D1"/>
    <g filter="url(#filter1_d_5487_14134)">
        <rect width="48" height="48" rx="24" transform="matrix(0.995663 -0.093034 0.0818093 0.996648 237.291 66.9139)" fill="#3B69D1" shape-rendering="crispEdges"/>
        <path d="M263.15 88.6007C265.35 88.3951 266.986 86.4445 266.805 84.2419C266.625 82.0394 264.696 80.4219 262.496 80.6275C260.295 80.8331 258.659 82.7836 258.84 84.9862C259.021 87.1888 260.95 88.8063 263.15 88.6007ZM262.659 82.6208C263.754 82.5185 264.724 83.3317 264.814 84.428C264.904 85.5243 264.082 86.505 262.986 86.6074C261.891 86.7097 260.921 85.8965 260.831 84.8002C260.741 83.7038 261.564 82.7231 262.659 82.6208ZM263.232 89.5973C260.573 89.8457 255.376 91.6771 255.594 94.3282L255.757 96.3215C255.802 96.8696 256.287 97.2763 256.835 97.2251L270.774 95.9226C271.322 95.8715 271.733 95.3811 271.688 94.8329L271.524 92.8396C271.307 90.1886 265.89 89.3489 263.232 89.5973ZM269.615 94.0224L257.667 95.1388L257.586 94.1521C257.726 93.4159 260.707 91.8418 263.395 91.5906C266.084 91.3394 269.276 92.3367 269.533 93.0257L269.615 94.0224Z" fill="white"/>
        <rect x="0.538736" y="0.451807" width="47" height="47" rx="23.5" transform="matrix(0.995663 -0.093034 0.0818093 0.996648 237.256 66.9656)" stroke="#3B69D1" shape-rendering="crispEdges"/>
    </g>
    <path d="M17.0389 171.167C18.9516 171 20.3763 169.936 21.2134 168.489L24.0711 170.311C22.7229 172.525 20.3535 174.082 17.3171 174.347C12.0333 174.809 8.06752 171.061 7.64917 166.279C7.23082 161.497 10.4854 157.117 15.7693 156.655C18.8057 156.389 21.4114 157.534 23.1193 159.433L20.6235 161.747C19.548 160.468 17.9601 159.667 16.0475 159.835C12.8915 160.111 10.8595 162.77 11.1398 165.974C11.4201 169.177 13.883 171.443 17.0389 171.167ZM37.5569 170.119C36.565 171.724 34.7817 172.819 32.5104 173.018C28.2307 173.392 25.5545 170.615 25.247 167.1C24.9353 163.538 26.9254 160.401 30.8704 160.056C34.2176 159.763 36.6159 161.842 36.892 164.998C36.9506 165.667 36.9093 166.297 36.8492 166.712L28.4095 167.45C28.893 169.672 30.3592 170.46 32.248 170.294C33.563 170.179 34.6604 169.505 35.2306 168.588L37.5569 170.119ZM31.0162 162.548C29.4621 162.684 28.5093 163.635 28.3127 165.242L33.8595 164.757C33.705 163.542 32.7137 162.4 31.0162 162.548ZM40.8372 167.375L40.4063 162.45L38.1589 162.646L37.9204 159.921L40.1678 159.724L39.9043 156.711L42.9646 156.444L43.2282 159.456L46.9101 159.134L47.1486 161.86L43.4666 162.182L43.8975 167.107C44.0147 168.446 44.7779 168.909 45.9734 168.805C46.8102 168.731 47.3517 168.588 47.7435 168.385L47.9757 171.039C47.401 171.354 46.6942 171.536 45.69 171.624C42.6775 171.888 41.0945 170.315 40.8372 167.375ZM51.2506 166.464L50.8197 161.538L48.5722 161.735L48.3338 159.01L50.5812 158.813L50.3176 155.8L53.3779 155.533L53.6415 158.545L57.3234 158.223L57.5619 160.949L53.88 161.271L54.3109 166.196C54.428 167.535 55.1913 167.998 56.3867 167.893C57.2235 167.82 57.765 167.677 58.1569 167.474L58.389 170.127C57.8143 170.443 57.1075 170.625 56.1034 170.713C53.0909 170.976 51.5078 169.404 51.2506 166.464ZM71.7855 167.124C70.7936 168.729 69.0103 169.825 66.739 170.023C62.4593 170.398 59.7831 167.62 59.4756 164.106C59.1639 160.543 61.1541 157.406 65.099 157.061C68.4462 156.768 70.8445 158.847 71.1206 162.003C71.1792 162.672 71.138 163.302 71.0779 163.717L62.6381 164.456C63.1216 166.678 64.5878 167.465 66.4766 167.3C67.7916 167.185 68.889 166.511 69.4592 165.593L71.7855 167.124ZM65.2448 159.554C63.6907 159.69 62.738 160.64 62.5413 162.248L68.0881 161.762C67.9336 160.547 66.9423 159.405 65.2448 159.554ZM79.9484 166.627L81.7978 164.634C82.6205 165.502 83.5637 166.094 84.7113 165.994C85.6916 165.908 86.1435 165.29 86.0807 164.573C85.8967 162.469 80.2037 163.762 79.8335 159.53C79.6473 157.402 81.3003 155.643 83.8107 155.424C85.6517 155.263 87.4027 156.001 88.3659 157.097L86.5123 159.042C85.8238 158.331 84.9804 157.779 84.048 157.86C83.0916 157.944 82.6834 158.51 82.7378 159.131C82.9177 161.188 88.6169 159.966 88.9809 164.126C89.1548 166.665 87.2438 168.229 84.9725 168.428C82.8207 168.616 81.2153 167.89 79.9484 166.627ZM102.956 164.397C101.964 166.002 100.18 167.098 97.909 167.296C93.6293 167.671 90.9531 164.893 90.6456 161.379C90.3339 157.816 92.3241 154.679 96.269 154.334C99.6162 154.041 102.015 156.12 102.291 159.276C102.349 159.945 102.308 160.575 102.248 160.99L93.8081 161.729C94.2916 163.951 95.7578 164.738 97.6466 164.573C98.9616 164.458 100.059 163.784 100.629 162.866L102.956 164.397ZM96.4148 156.827C94.8607 156.963 93.908 157.913 93.7113 159.521L99.2581 159.035C99.1036 157.82 98.1123 156.678 96.4148 156.827ZM105.879 166.117L104.825 154.067L107.861 153.802L107.941 154.71C108.684 153.85 109.66 153.162 111.143 153.033C112.673 152.899 114.07 153.451 114.972 154.673C115.741 153.546 116.809 152.537 118.841 152.359C121.328 152.142 123.439 153.691 123.736 157.086L124.384 164.498L121.324 164.766L120.686 157.474C120.558 156.015 119.69 155.176 118.327 155.295C117.012 155.41 116.374 156.381 115.967 157.236C116.006 157.401 116.021 157.569 116.037 157.76L116.686 165.172L113.625 165.439L112.987 158.147C112.86 156.689 111.991 155.849 110.629 155.969C109.242 156.09 108.615 157.181 108.227 157.986L108.915 165.852L105.879 166.117ZM131.276 164.257C128.861 164.468 127.09 163.225 126.896 161.002C126.737 159.185 128.028 157.699 130.573 157.042L134.2 156.099L134.173 155.788C134.062 154.521 133.035 153.791 131.648 153.913C130.477 154.015 129.616 154.645 129.048 155.586L126.676 154.083C127.622 152.506 129.312 151.443 131.511 151.251C135.002 150.945 136.977 152.868 137.209 155.522L137.891 163.316L134.855 163.582L134.752 162.411C134.069 163.41 132.687 164.133 131.276 164.257ZM129.896 160.595C129.967 161.408 130.658 161.877 131.687 161.787C133.073 161.666 134.021 160.933 134.535 159.924L134.386 158.227L131.559 158.956C130.311 159.282 129.831 159.854 129.896 160.595ZM141.66 148.724C140.584 148.819 139.596 147.99 139.502 146.914C139.408 145.838 140.237 144.85 141.313 144.756C142.389 144.661 143.353 145.493 143.447 146.569C143.541 147.644 142.736 148.63 141.66 148.724ZM141.368 163.012L140.314 150.962L143.351 150.697L144.405 162.747L141.368 163.012ZM148.046 162.428L146.992 150.378L150.028 150.112L150.112 151.069C150.878 150.183 151.947 149.463 153.549 149.323C156.155 149.095 158.392 150.706 158.703 154.268L159.331 161.441L156.271 161.708L155.654 154.655C155.513 153.054 154.517 152.129 153.035 152.259C151.505 152.392 150.782 153.492 150.394 154.296L151.082 162.162L148.046 162.428ZM173.701 158.208C172.709 159.813 170.926 160.908 168.654 161.107C164.375 161.481 161.698 158.704 161.391 155.189C161.079 151.627 163.069 148.49 167.014 148.144C170.362 147.852 172.76 149.931 173.036 153.086C173.095 153.756 173.053 154.386 172.993 154.801L164.554 155.539C165.037 157.761 166.503 158.549 168.392 158.383C169.707 158.268 170.804 157.594 171.375 156.677L173.701 158.208ZM167.16 150.637C165.606 150.773 164.653 151.724 164.457 153.331L170.004 152.846C169.849 151.631 168.858 150.489 167.16 150.637Z" fill="#3B69D1"/>
    <g filter="url(#filter2_d_5487_14134)">
        <rect x="8.66016" y="189.68" width="303.69" height="271.735" rx="8" transform="rotate(-5 8.66016 189.68)" fill="white" shape-rendering="crispEdges"/>
        <path d="M36.3982 219.877C35.7008 219.938 35.0903 219.749 34.5667 219.31C34.0431 218.871 33.7508 218.302 33.6898 217.605C33.6288 216.907 33.8179 216.297 34.2573 215.773C34.6967 215.25 35.265 214.957 35.9624 214.896C36.6597 214.835 37.2702 215.025 37.7938 215.464C38.3174 215.903 38.6097 216.472 38.6708 217.169C38.7318 217.866 38.5426 218.477 38.1032 219C37.6638 219.524 37.0955 219.816 36.3982 219.877ZM32.8927 225.705C32.3448 225.753 31.8586 225.599 31.4339 225.244C31.0099 224.887 30.774 224.435 30.726 223.887L29.5058 209.94C29.4579 209.392 29.6118 208.906 29.9676 208.483C30.3239 208.058 30.776 207.822 31.3239 207.774L32.3201 207.686L32.233 206.69C32.2083 206.408 32.2829 206.163 32.4567 205.955C32.6313 205.748 32.8598 205.632 33.142 205.607C33.4243 205.582 33.6694 205.657 33.8773 205.831C34.0846 206.005 34.2007 206.234 34.2254 206.516L34.3125 207.512L42.2821 206.815L42.1949 205.819C42.1702 205.536 42.2451 205.291 42.4197 205.083C42.5936 204.876 42.8217 204.76 43.104 204.735C43.3862 204.711 43.631 204.785 43.8383 204.959C44.0463 205.134 44.1626 205.362 44.1873 205.644L44.2745 206.641L45.2707 206.553C45.8186 206.505 46.3049 206.66 46.7295 207.016C47.1535 207.372 47.3894 207.824 47.4374 208.372L48.6575 222.318C48.7055 222.866 48.5516 223.352 48.1959 223.777C47.8395 224.201 47.3874 224.437 46.8395 224.485L32.8927 225.705ZM32.7184 223.713L46.6651 222.493L45.7936 212.531L31.8469 213.751L32.7184 223.713Z" fill="#3B69D1"/>
        <path d="M68.4222 219.585L68.2521 217.641L71.7484 213.544C72.5324 212.592 73.0213 211.939 72.9419 211.031C72.861 210.106 72.176 209.62 71.2993 209.697C70.2314 209.79 69.6351 210.501 69.1318 211.541L67.2851 210.626C68.0916 209.014 69.3946 207.936 71.3392 207.766C73.2838 207.596 74.9546 208.702 75.1219 210.615C75.2558 212.145 74.3548 213.413 73.3485 214.577L70.8821 217.411L75.9666 216.966L76.1368 218.91L68.4222 219.585ZM82.5625 218.348L81.8596 210.315L83.8839 210.138L83.9536 210.935C84.4322 210.347 85.0813 209.872 85.9899 209.793C86.2608 209.769 86.5041 209.796 86.7009 209.843L86.8753 211.835C86.6147 211.794 86.3395 211.77 85.9729 211.802C84.9847 211.888 84.3945 212.486 84.1363 213.023L84.5867 218.171L82.5625 218.348ZM95.9767 215.857C95.3154 216.927 94.1265 217.658 92.6123 217.79C89.7592 218.04 87.9751 216.188 87.7701 213.845C87.5623 211.47 88.889 209.379 91.519 209.148C93.7505 208.953 95.3493 210.339 95.5334 212.443C95.5725 212.889 95.545 213.309 95.5049 213.586L89.8784 214.078C90.2008 215.56 91.1782 216.085 92.4374 215.974C93.3141 215.898 94.0457 215.448 94.4258 214.837L95.9767 215.857ZM91.6162 210.81C90.5802 210.901 89.945 211.535 89.8139 212.606L93.5117 212.283C93.4087 211.473 92.7479 210.711 91.6162 210.81ZM97.9257 217.004L97.2228 208.971L99.2471 208.794L99.3029 209.431C99.8133 208.84 100.526 208.36 101.594 208.267C103.331 208.115 104.823 209.189 105.031 211.564L105.449 216.346L103.409 216.524L102.997 211.822C102.904 210.754 102.24 210.138 101.251 210.224C100.231 210.314 99.7494 211.046 99.4911 211.583L99.9499 216.827L97.9257 217.004ZM106.822 212.178C106.617 209.835 107.989 207.708 110.523 207.486C111.607 207.391 112.418 207.657 113.094 208.225L112.695 203.666L114.735 203.488L115.781 215.442L113.741 215.62L113.685 214.983C113.118 215.659 112.366 216.062 111.282 216.157C108.748 216.378 107.027 214.521 106.822 212.178ZM108.942 211.993C109.065 213.395 110.031 214.339 111.402 214.219C112.31 214.139 113.026 213.691 113.504 212.911L113.275 210.297C112.669 209.611 111.886 209.294 110.978 209.373C109.607 209.493 108.819 210.59 108.942 211.993ZM125.489 213.275C124.828 214.345 123.639 215.076 122.125 215.208C119.271 215.458 117.487 213.606 117.282 211.263C117.075 208.888 118.401 206.797 121.031 206.566C123.263 206.371 124.862 207.757 125.046 209.861C125.085 210.307 125.057 210.727 125.017 211.004L119.391 211.496C119.713 212.978 120.69 213.503 121.95 213.392C122.826 213.316 123.558 212.866 123.938 212.255L125.489 213.275ZM121.128 208.228C120.092 208.319 119.457 208.953 119.326 210.024L123.024 209.701C122.921 208.891 122.26 208.129 121.128 208.228ZM127.01 214.459L126.851 212.642L130.547 207.886L126.594 208.232L126.435 206.415L132.922 205.847L133.081 207.664L129.386 212.421L133.578 212.054L133.736 213.871L127.01 214.459ZM134.509 208.712L138.812 208.335L138.984 210.296L134.68 210.673L134.509 208.712ZM138.771 205.336L140.939 205.146L143.529 210.701L145.099 204.782L147.283 204.591L145.053 212.881L142.391 213.114L138.771 205.336ZM152.262 203.834C154.876 203.605 156.83 205.378 157.041 207.785C157.251 210.191 155.635 212.276 153.021 212.505C150.407 212.734 148.453 210.961 148.242 208.554C148.032 206.148 149.648 204.063 152.262 203.834ZM152.885 210.59C154.176 210.477 155.058 209.355 154.937 207.969C154.814 206.566 153.752 205.631 152.461 205.744C151.122 205.861 150.223 206.968 150.346 208.37C150.469 209.773 151.546 210.707 152.885 210.59ZM164.226 207.702L163.827 203.144L165.867 202.965L166.258 207.428C166.469 209.835 165.196 211.44 162.837 211.646C160.478 211.853 158.961 210.492 158.751 208.085L158.36 203.622L160.4 203.443L160.799 208.002C160.901 209.165 161.569 209.83 162.685 209.732C163.785 209.636 164.328 208.866 164.226 207.702ZM167.946 209.706L169.179 208.377C169.727 208.955 170.356 209.35 171.121 209.283C171.775 209.226 172.076 208.814 172.034 208.336C171.911 206.933 168.116 207.795 167.869 204.974C167.745 203.556 168.847 202.383 170.521 202.237C171.748 202.129 172.915 202.621 173.557 203.352L172.322 204.649C171.863 204.175 171.3 203.807 170.679 203.861C170.041 203.917 169.769 204.294 169.805 204.708C169.925 206.079 173.725 205.265 173.967 208.038C174.083 209.731 172.809 210.774 171.295 210.906C169.861 211.032 168.79 210.547 167.946 209.706ZM181.731 200.292L179.587 197.814L181.786 197.621L183.659 200.124L181.731 200.292ZM182.614 209.836C181.004 209.976 179.823 209.148 179.694 207.666C179.588 206.455 180.449 205.464 182.145 205.026L184.563 204.397L184.545 204.19C184.471 203.345 183.786 202.859 182.862 202.94C182.081 203.008 181.507 203.428 181.128 204.055L179.547 203.053C180.178 202.002 181.304 201.293 182.771 201.165C185.098 200.961 186.415 202.243 186.569 204.013L187.024 209.209L185 209.386L184.931 208.605C184.476 209.271 183.554 209.753 182.614 209.836ZM181.694 207.395C181.741 207.936 182.202 208.249 182.887 208.19C183.812 208.109 184.444 207.62 184.786 206.947L184.687 205.816L182.803 206.302C181.97 206.519 181.65 206.9 181.694 207.395ZM191.788 200.697L193.955 200.508L196.545 206.063L198.116 200.144L200.299 199.953L198.069 208.243L195.407 208.475L191.788 200.697ZM209.465 205.929C208.804 206.998 207.615 207.729 206.101 207.861C203.248 208.111 201.463 206.259 201.258 203.916C201.051 201.541 202.377 199.45 205.007 199.22C207.239 199.024 208.838 200.41 209.022 202.514C209.061 202.96 209.033 203.38 208.993 203.657L203.367 204.149C203.689 205.631 204.667 206.156 205.926 206.045C206.802 205.969 207.534 205.519 207.914 204.908L209.465 205.929ZM205.105 200.881C204.069 200.972 203.433 201.606 203.302 202.677L207 202.354C206.897 201.544 206.236 200.782 205.105 200.881ZM211.414 207.075L210.711 199.042L212.735 198.865L212.791 199.502C213.302 198.911 214.015 198.431 215.083 198.338C216.82 198.186 218.311 199.26 218.519 201.635L218.937 206.417L216.897 206.595L216.486 201.893C216.392 200.825 215.728 200.209 214.74 200.295C213.72 200.385 213.238 201.117 212.98 201.654L213.438 206.898L211.414 207.075ZM221.43 196.691C220.713 196.753 220.055 196.201 219.992 195.483C219.929 194.766 220.482 194.107 221.199 194.045C221.916 193.982 222.559 194.536 222.622 195.253C222.684 195.97 222.148 196.628 221.43 196.691ZM221.236 206.216L220.533 198.182L222.557 198.005L223.26 206.039L221.236 206.216ZM225.688 205.826L224.985 197.793L227.009 197.616L227.079 198.413C227.557 197.825 228.206 197.35 229.115 197.271C229.386 197.247 229.629 197.274 229.826 197.321L230 199.314C229.74 199.272 229.465 199.248 229.098 199.28C228.11 199.367 227.52 199.964 227.261 200.501L227.712 205.649L225.688 205.826Z" fill="#161616"/>
        <path d="M282.916 199.113C282.717 198.946 282.606 198.722 282.581 198.439C282.556 198.157 282.627 197.917 282.794 197.718L286.339 193.493L282.114 189.948C281.916 189.781 281.804 189.557 281.779 189.274C281.755 188.992 281.826 188.752 281.992 188.553C282.159 188.355 282.383 188.243 282.666 188.218C282.948 188.193 283.188 188.264 283.387 188.431L288.37 192.613C288.479 192.704 288.559 192.805 288.611 192.918C288.662 193.03 288.694 193.153 288.705 193.286C288.717 193.419 288.707 193.545 288.676 193.665C288.645 193.785 288.583 193.899 288.492 194.007L284.311 198.991C284.144 199.189 283.92 199.301 283.637 199.326C283.355 199.35 283.115 199.279 282.916 199.113Z" fill="#646464"/>
        <path d="M44.0496 272.912C44.3318 272.888 44.5602 272.771 44.7348 272.563C44.9087 272.356 44.9833 272.111 44.9586 271.829L44.6078 267.819C44.5831 267.537 44.4675 267.313 44.2609 267.147C44.0536 266.981 43.8089 266.911 43.5266 266.935C43.2444 266.96 43.0163 267.076 42.8424 267.283C42.6678 267.491 42.5929 267.736 42.6176 268.019L42.9684 272.028C42.9931 272.311 43.1091 272.535 43.3163 272.7C43.5229 272.866 43.7673 272.937 44.0496 272.912ZM44.3982 276.897C44.6804 276.872 44.9088 276.756 45.0834 276.548C45.2573 276.341 45.3319 276.096 45.3072 275.814C45.2825 275.532 45.1665 275.303 44.9592 275.129C44.7512 274.955 44.5061 274.88 44.2239 274.905C43.9416 274.929 43.7135 275.045 43.5396 275.253C43.3651 275.461 43.2901 275.706 43.3148 275.988C43.3395 276.27 43.4559 276.498 43.6638 276.672C43.8711 276.847 44.1159 276.922 44.3982 276.897ZM44.834 281.878C43.4559 281.999 42.138 281.85 40.8801 281.433C39.6224 281.016 38.506 280.399 37.531 279.581C36.5559 278.763 35.7541 277.771 35.1254 276.604C34.496 275.438 34.121 274.166 34.0005 272.788C33.8799 271.41 34.0283 270.092 34.4456 268.834C34.8622 267.576 35.4796 266.46 36.2977 265.485C37.1158 264.51 38.108 263.708 39.2743 263.078C40.4406 262.449 41.7128 262.075 43.0909 261.954C44.4689 261.834 45.7868 261.982 47.0446 262.398C48.3024 262.816 49.4188 263.433 50.3939 264.251C51.3689 265.07 52.1707 266.062 52.7994 267.228C53.4288 268.394 53.8038 269.667 53.9244 271.045C54.0449 272.423 53.8966 273.741 53.4793 274.998C53.0626 276.256 52.4453 277.373 51.6271 278.348C50.809 279.323 49.8168 280.125 48.6504 280.753C47.4842 281.383 46.212 281.758 44.834 281.878Z" fill="#D31140"/>
        <path d="M80.9691 272.493C81.1546 274.613 79.5385 276.152 77.2114 276.355C75.1074 276.539 73.6717 275.733 72.6238 274.219L74.4028 272.891C75.1318 274.064 75.9283 274.54 77.0281 274.444C78.112 274.349 78.8677 273.624 78.7771 272.588C78.6878 271.568 77.8351 271 76.6556 271.104L74.8226 271.264L74.6552 269.351L76.3448 269.204C77.2852 269.121 77.9246 268.535 77.8493 267.675C77.7754 266.83 77.096 266.407 76.2193 266.484C75.3267 266.562 74.7629 267.093 74.3703 267.931L72.5222 267C73.2194 265.606 74.4102 264.715 76.2114 264.557C78.2516 264.379 79.8676 265.41 80.0279 267.243C80.1186 268.279 79.749 269.195 78.9704 269.841C80.1522 270.316 80.8617 271.266 80.9691 272.493ZM86.605 271.165C86.4 268.822 87.7718 266.694 90.3061 266.472C91.39 266.377 92.2003 266.644 92.8763 267.211L92.4775 262.653L94.5177 262.474L95.5635 274.428L93.5233 274.607L93.4676 273.969C92.9003 274.645 92.1486 275.048 91.0647 275.143C88.5304 275.365 86.81 273.508 86.605 271.165ZM88.7249 270.979C88.8476 272.382 89.8135 273.325 91.1843 273.205C92.0928 273.126 92.8085 272.678 93.2863 271.897L93.0576 269.283C92.4515 268.597 91.6689 268.28 90.7604 268.36C89.3896 268.48 88.6022 269.577 88.7249 270.979ZM101.846 264.499L99.9015 264.669L101.328 261.878L103.527 261.686L101.846 264.499ZM105.272 272.262C104.61 273.332 103.422 274.062 101.907 274.195C99.0542 274.444 97.27 272.593 97.0651 270.25C96.8573 267.875 98.184 265.783 100.814 265.553C103.045 265.358 104.644 266.744 104.828 268.848C104.867 269.294 104.84 269.714 104.8 269.99L99.1734 270.483C99.4958 271.964 100.473 272.489 101.732 272.379C102.609 272.302 103.341 271.853 103.721 271.241L105.272 272.262ZM100.911 267.215C99.8752 267.305 99.24 267.939 99.1089 269.011L102.807 268.687C102.704 267.877 102.043 267.116 100.911 267.215ZM107.221 273.409L106.518 265.375L108.542 265.198L108.595 265.804C109.091 265.23 109.742 264.772 110.73 264.685C111.75 264.596 112.681 264.964 113.283 265.779C113.795 265.028 114.507 264.355 115.862 264.236C117.52 264.091 118.927 265.125 119.125 267.388L119.558 272.329L117.517 272.508L117.092 267.646C117.007 266.674 116.428 266.114 115.519 266.194C114.643 266.27 114.218 266.918 113.946 267.488C113.972 267.598 113.982 267.71 113.993 267.837L114.425 272.778L112.385 272.957L111.96 268.095C111.875 267.123 111.296 266.563 110.387 266.643C109.463 266.724 109.044 267.451 108.786 267.987L109.245 273.231L107.221 273.409ZM124.152 272.168C122.542 272.309 121.362 271.481 121.232 269.998C121.126 268.787 121.987 267.796 123.683 267.359L126.102 266.73L126.083 266.522C126.009 265.678 125.324 265.191 124.4 265.272C123.619 265.341 123.045 265.76 122.667 266.388L121.085 265.386C121.716 264.335 122.843 263.626 124.309 263.497C126.636 263.294 127.953 264.576 128.108 266.345L128.562 271.541L126.538 271.718L126.47 270.937C126.014 271.604 125.093 272.086 124.152 272.168ZM123.232 269.727C123.279 270.269 123.74 270.582 124.426 270.522C125.35 270.441 125.982 269.952 126.325 269.28L126.226 268.148L124.341 268.634C123.509 268.852 123.189 269.233 123.232 269.727ZM130.88 271.339L130.177 263.305L132.202 263.128L132.271 263.925C132.75 263.337 133.399 262.863 134.308 262.783C134.579 262.76 134.822 262.786 135.019 262.833L135.193 264.826C134.932 264.784 134.657 264.76 134.291 264.792C133.302 264.879 132.712 265.477 132.454 266.013L132.905 271.161L130.88 271.339ZM140.731 268.871C141.528 268.801 142.133 268.379 142.467 267.787L144.151 268.861C143.488 269.914 142.365 270.655 140.898 270.783C138.125 271.026 136.293 269.179 136.088 266.836C135.883 264.492 137.366 262.355 140.14 262.112C141.606 261.984 142.841 262.519 143.677 263.441L142.205 264.791C141.774 264.266 141.104 263.955 140.275 264.028C138.952 264.144 138.069 265.249 138.192 266.651C138.316 268.07 139.376 268.989 140.731 268.871ZM145.776 270.035L144.731 258.081L146.755 257.904L147.154 262.462C147.664 261.872 148.377 261.392 149.445 261.298C151.182 261.146 152.674 262.22 152.881 264.595L153.3 269.377L151.26 269.556L150.848 264.854C150.755 263.786 150.106 263.168 149.102 263.256C148.082 263.345 147.6 264.078 147.342 264.614L147.801 269.858L145.776 270.035ZM162.88 267.222C162.218 268.292 161.03 269.022 159.515 269.155C156.662 269.404 154.878 267.553 154.673 265.21C154.465 262.835 155.792 260.743 158.422 260.513C160.654 260.318 162.252 261.704 162.436 263.808C162.476 264.254 162.448 264.674 162.408 264.95L156.781 265.443C157.104 266.924 158.081 267.449 159.34 267.339C160.217 267.262 160.949 266.813 161.329 266.201L162.88 267.222ZM158.519 262.175C157.483 262.265 156.848 262.899 156.717 263.971L160.415 263.647C160.312 262.837 159.651 262.076 158.519 262.175ZM163.917 267.276L165.15 265.947C165.698 266.526 166.327 266.92 167.092 266.853C167.745 266.796 168.047 266.384 168.005 265.906C167.882 264.504 164.087 265.366 163.84 262.544C163.716 261.126 164.818 259.953 166.491 259.807C167.719 259.7 168.886 260.192 169.528 260.923L168.293 262.219C167.834 261.745 167.271 261.377 166.65 261.431C166.012 261.487 165.74 261.864 165.776 262.279C165.896 263.649 169.696 262.835 169.938 265.609C170.054 267.301 168.78 268.344 167.266 268.476C165.832 268.602 164.761 268.117 163.917 267.276ZM183.582 265.411C182.921 266.48 181.732 267.211 180.218 267.343C177.364 267.593 175.58 265.741 175.375 263.398C175.168 261.023 176.494 258.932 179.124 258.702C181.356 258.507 182.955 259.892 183.139 261.996C183.178 262.443 183.15 262.863 183.11 263.139L177.484 263.631C177.806 265.113 178.783 265.638 180.043 265.528C180.919 265.451 181.651 265.001 182.031 264.39L183.582 265.411ZM179.221 260.364C178.185 260.454 177.55 261.088 177.419 262.159L181.117 261.836C181.014 261.026 180.353 260.265 179.221 260.364ZM185.531 266.557L184.828 258.524L186.852 258.347L186.908 258.984C187.419 258.394 188.131 257.914 189.199 257.82C190.937 257.668 192.428 258.742 192.636 261.117L193.054 265.899L191.014 266.078L190.603 261.376C190.509 260.308 189.845 259.691 188.857 259.778C187.837 259.867 187.355 260.6 187.096 261.136L187.555 266.38L185.531 266.557ZM199.649 265.322L198.946 257.289L200.97 257.112L201.04 257.909C201.519 257.321 202.168 256.846 203.076 256.767C203.347 256.743 203.59 256.77 203.787 256.817L203.962 258.809C203.701 258.768 203.426 258.744 203.059 258.776C202.071 258.862 201.481 259.46 201.223 259.997L201.673 265.145L199.649 265.322ZM213.063 262.831C212.402 263.901 211.213 264.632 209.699 264.764C206.846 265.014 205.061 263.162 204.856 260.819C204.649 258.444 205.975 256.353 208.605 256.122C210.837 255.927 212.436 257.313 212.62 259.417C212.659 259.863 212.631 260.283 212.591 260.56L206.965 261.052C207.287 262.534 208.265 263.059 209.524 262.948C210.4 262.872 211.132 262.422 211.512 261.811L213.063 262.831ZM208.703 257.784C207.667 257.875 207.031 258.509 206.9 259.58L210.598 259.257C210.495 258.447 209.834 257.685 208.703 257.784ZM215.25 261.002L214.963 257.718L213.464 257.85L213.305 256.032L214.804 255.901L214.628 253.893L216.668 253.715L216.844 255.723L219.299 255.508L219.457 257.325L217.003 257.54L217.29 260.823C217.368 261.716 217.877 262.025 218.674 261.955C219.232 261.906 219.593 261.81 219.854 261.675L220.009 263.444C219.626 263.655 219.155 263.776 218.485 263.835C216.477 264.01 215.421 262.962 215.25 261.002ZM224.098 263.424C222.489 263.565 221.308 262.737 221.178 261.254C221.072 260.043 221.933 259.052 223.629 258.615L226.048 257.985L226.03 257.778C225.956 256.933 225.271 256.447 224.346 256.528C223.565 256.596 222.992 257.016 222.613 257.643L221.032 256.641C221.662 255.59 222.789 254.882 224.255 254.753C226.582 254.55 227.899 255.832 228.054 257.601L228.509 262.797L226.484 262.974L226.416 262.193C225.96 262.86 225.039 263.342 224.098 263.424ZM223.178 260.983C223.226 261.525 223.687 261.838 224.372 261.778C225.296 261.697 225.928 261.208 226.271 260.536L226.172 259.404L224.287 259.89C223.455 260.107 223.135 260.489 223.178 260.983ZM230.827 262.594L230.124 254.561L232.148 254.384L232.218 255.181C232.696 254.593 233.345 254.119 234.254 254.039C234.525 254.015 234.768 254.042 234.965 254.089L235.139 256.082C234.879 256.04 234.604 256.016 234.237 256.048C233.249 256.135 232.659 256.732 232.4 257.269L232.851 262.417L230.827 262.594ZM236.034 258.091C235.829 255.748 237.201 253.621 239.735 253.399C240.819 253.304 241.629 253.571 242.306 254.138L241.907 249.579L243.947 249.401L244.993 261.355L242.953 261.534L242.897 260.896C242.33 261.572 241.578 261.975 240.494 262.07C237.96 262.292 236.239 260.434 236.034 258.091ZM238.154 257.906C238.277 259.309 239.243 260.252 240.614 260.132C241.522 260.053 242.238 259.604 242.715 258.824L242.487 256.21C241.881 255.524 241.098 255.207 240.19 255.287C238.819 255.406 238.031 256.503 238.154 257.906Z" fill="#161616"/>
        <path d="M287.884 255.896C287.685 255.729 287.574 255.505 287.549 255.223C287.524 254.94 287.595 254.7 287.762 254.501L291.307 250.276L287.082 246.731C286.883 246.564 286.772 246.34 286.747 246.058C286.722 245.775 286.793 245.535 286.96 245.336C287.127 245.138 287.351 245.026 287.633 245.001C287.916 244.977 288.156 245.048 288.355 245.214L293.338 249.396C293.446 249.487 293.527 249.588 293.579 249.701C293.63 249.814 293.661 249.936 293.673 250.069C293.685 250.202 293.675 250.328 293.644 250.448C293.612 250.568 293.551 250.682 293.46 250.79L289.279 255.774C289.112 255.972 288.887 256.084 288.605 256.109C288.323 256.134 288.082 256.063 287.884 255.896Z" fill="#646464"/>
        <path d="M13.7151 247.459L316.249 220.991L316.075 218.999L13.5408 245.467L13.7151 247.459ZM320.955 274.786L18.4215 301.254L18.5958 303.246L321.13 276.778L320.955 274.786Z" fill="#F1F1F1"/>
        <path d="M46.4643 334.938L52.4415 334.415C52.7238 334.39 52.9522 334.274 53.1267 334.066C53.3006 333.859 53.3752 333.614 53.3505 333.332C53.3258 333.049 53.2099 332.821 53.0026 332.647C52.7946 332.473 52.5494 332.398 52.2672 332.423L46.29 332.946C46.0078 332.97 45.7797 333.087 45.6058 333.294C45.4312 333.502 45.3563 333.747 45.381 334.029C45.4057 334.311 45.522 334.539 45.7299 334.713C45.9373 334.888 46.1821 334.963 46.4643 334.938ZM46.1157 330.953L52.0929 330.43C52.3751 330.405 52.6035 330.289 52.7781 330.081C52.952 329.874 53.0266 329.629 53.0019 329.347C52.9772 329.065 52.8612 328.836 52.6539 328.662C52.4459 328.488 52.2008 328.413 51.9186 328.438L45.9414 328.961C45.6591 328.985 45.4311 329.101 45.2571 329.309C45.0826 329.517 45.0077 329.762 45.0324 330.044C45.0571 330.326 45.1734 330.554 45.3813 330.728C45.5887 330.903 45.8335 330.978 46.1157 330.953ZM43.8244 339.184C43.2765 339.232 42.7905 339.078 42.3666 338.722C41.9419 338.366 41.7056 337.914 41.6577 337.366L40.2632 321.427C40.2152 320.879 40.3694 320.393 40.7258 319.968C41.0815 319.544 41.5333 319.308 42.0813 319.26L49.229 318.635C49.4946 318.612 49.7523 318.639 50.0021 318.718C50.2513 318.796 50.4751 318.919 50.6737 319.086L55.928 323.495C56.1266 323.661 56.2862 323.86 56.4069 324.092C56.5276 324.324 56.5996 324.573 56.6228 324.839L57.5968 335.972C57.6447 336.519 57.4909 337.006 57.1352 337.43C56.7788 337.854 56.3266 338.09 55.7787 338.138L43.8244 339.184ZM49.5776 324.627C49.6022 324.91 49.7186 325.138 49.9265 325.312C50.1339 325.486 50.3786 325.561 50.6609 325.536L54.6457 325.188L49.2289 320.643L49.5776 324.627Z" fill="#950EFF"/>
        <path d="M77.7477 330.217L77.5776 328.273L81.8127 321.606L84.3311 321.386L84.8777 327.634L86.0094 327.535L86.1795 329.48L85.0479 329.579L85.3072 332.543L83.1554 332.732L82.8961 329.767L77.7477 330.217ZM79.7931 328.079L82.7259 327.822L82.3927 324.013L79.7931 328.079ZM94.7823 331.955C93.1724 332.096 91.9918 331.268 91.8621 329.786C91.7561 328.574 92.617 327.583 94.3133 327.146L96.7317 326.517L96.7136 326.31C96.6397 325.465 95.9547 324.979 95.0302 325.059C94.2492 325.128 93.6756 325.547 93.2968 326.175L91.7155 325.173C92.3463 324.122 93.4728 323.413 94.9392 323.285C97.2663 323.081 98.583 324.363 98.7378 326.132L99.1924 331.329L97.1682 331.506L97.0998 330.725C96.6442 331.391 95.7227 331.873 94.7823 331.955ZM93.862 329.514C93.9094 330.056 94.3705 330.369 95.0559 330.309C95.9803 330.228 96.6121 329.739 96.9548 329.067L96.8558 327.935L94.971 328.421C94.1388 328.639 93.8188 329.02 93.862 329.514ZM105.228 329.194C106.025 329.125 106.631 328.702 106.964 328.111L108.648 329.184C107.986 330.238 106.862 330.979 105.396 331.107C102.622 331.35 100.79 329.502 100.585 327.159C100.38 324.816 101.864 322.679 104.637 322.436C106.103 322.308 107.339 322.842 108.174 323.765L106.702 325.114C106.271 324.59 105.601 324.279 104.772 324.352C103.45 324.467 102.566 325.573 102.689 326.975C102.813 328.394 103.873 329.313 105.228 329.194ZM110.605 327.375L110.318 324.091L108.82 324.222L108.661 322.405L110.159 322.274L109.983 320.266L112.023 320.088L112.199 322.096L114.654 321.881L114.813 323.698L112.358 323.913L112.645 327.196C112.723 328.089 113.232 328.398 114.029 328.328C114.587 328.279 114.948 328.183 115.209 328.048L115.364 329.817C114.981 330.028 114.51 330.149 113.84 330.208C111.832 330.383 110.777 329.335 110.605 327.375ZM117.364 320.231C116.647 320.293 115.988 319.741 115.925 319.023C115.863 318.306 116.415 317.647 117.132 317.585C117.85 317.522 118.492 318.076 118.555 318.793C118.618 319.511 118.081 320.168 117.364 320.231ZM117.169 329.756L116.467 321.722L118.491 321.545L119.194 329.579L117.169 329.756ZM124.716 320.68C127.33 320.451 129.284 322.223 129.494 324.63C129.705 327.037 128.088 329.122 125.474 329.35C122.86 329.579 120.906 327.807 120.696 325.4C120.485 322.993 122.102 320.908 124.716 320.68ZM125.339 327.435C126.63 327.322 127.512 326.201 127.39 324.814C127.268 323.412 126.206 322.477 124.915 322.589C123.576 322.707 122.677 323.813 122.8 325.216C122.923 326.618 124 327.552 125.339 327.435ZM131.692 328.485L130.989 320.452L133.013 320.275L133.069 320.912C133.58 320.322 134.293 319.842 135.361 319.748C137.098 319.596 138.589 320.67 138.797 323.045L139.215 327.827L137.175 328.006L136.764 323.303C136.67 322.236 136.006 321.619 135.018 321.706C133.998 321.795 133.516 322.528 133.258 323.064L133.716 328.308L131.692 328.485ZM140.711 326.524L141.944 325.195C142.492 325.774 143.121 326.168 143.886 326.101C144.54 326.044 144.841 325.632 144.799 325.154C144.676 323.752 140.881 324.614 140.634 321.792C140.51 320.374 141.612 319.201 143.286 319.055C144.513 318.948 145.68 319.44 146.322 320.17L145.087 321.467C144.628 320.993 144.065 320.625 143.444 320.679C142.806 320.735 142.534 321.112 142.57 321.527C142.69 322.897 146.49 322.083 146.732 324.857C146.848 326.549 145.574 327.592 144.06 327.724C142.626 327.85 141.555 327.365 140.711 326.524ZM154.496 317.11L152.352 314.632L154.551 314.439L156.424 316.942L154.496 317.11ZM155.379 326.654C153.769 326.795 152.588 325.966 152.459 324.484C152.353 323.273 153.214 322.282 154.91 321.844L157.328 321.215L157.31 321.008C157.236 320.163 156.551 319.677 155.627 319.758C154.846 319.826 154.272 320.246 153.893 320.873L152.312 319.871C152.943 318.82 154.069 318.111 155.536 317.983C157.863 317.78 159.18 319.062 159.334 320.831L159.789 326.027L157.765 326.204L157.696 325.423C157.241 326.089 156.319 326.572 155.379 326.654ZM154.459 324.213C154.506 324.755 154.967 325.068 155.653 325.008C156.577 324.927 157.209 324.438 157.551 323.765L157.452 322.634L155.568 323.12C154.735 323.337 154.415 323.719 154.459 324.213ZM166.403 325.448L165.7 317.415L167.725 317.238L167.794 318.035C168.273 317.447 168.922 316.973 169.831 316.893C170.102 316.869 170.345 316.896 170.542 316.943L170.716 318.936C170.455 318.894 170.18 318.87 169.814 318.902C168.825 318.989 168.235 319.586 167.977 320.123L168.427 325.271L166.403 325.448ZM176.392 315.195L174.447 315.365L175.873 312.574L178.073 312.382L176.392 315.195ZM179.817 322.958C179.156 324.028 177.967 324.758 176.453 324.89C173.6 325.14 171.816 323.288 171.611 320.945C171.403 318.57 172.73 316.479 175.36 316.249C177.591 316.054 179.19 317.439 179.374 319.543C179.413 319.99 179.386 320.41 179.346 320.686L173.719 321.179C174.042 322.66 175.019 323.185 176.278 323.075C177.155 322.998 177.886 322.549 178.267 321.937L179.817 322.958ZM175.457 317.911C174.421 318.001 173.786 318.635 173.655 319.707L177.352 319.383C177.249 318.573 176.589 317.812 175.457 317.911ZM183.942 324.155C182.332 324.296 181.151 323.467 181.021 321.985C180.916 320.774 181.776 319.783 183.473 319.345L185.891 318.716L185.873 318.509C185.799 317.664 185.114 317.178 184.19 317.259C183.409 317.327 182.835 317.747 182.456 318.374L180.875 317.372C181.506 316.321 182.632 315.613 184.099 315.484C186.426 315.281 187.742 316.563 187.897 318.332L188.352 323.528L186.328 323.705L186.259 322.924C185.804 323.59 184.882 324.073 183.942 324.155ZM183.021 321.714C183.069 322.256 183.53 322.569 184.215 322.509C185.14 322.428 185.772 321.939 186.114 321.267L186.015 320.135L184.13 320.621C183.298 320.838 182.978 321.22 183.021 321.714ZM190.67 323.325L189.624 311.371L191.648 311.194L192.694 323.148L190.67 323.325ZM195.316 313.411C194.599 313.473 193.94 312.921 193.878 312.203C193.815 311.486 194.367 310.828 195.085 310.765C195.802 310.702 196.445 311.256 196.507 311.973C196.57 312.691 196.033 313.348 195.316 313.411ZM195.122 322.936L194.419 314.903L196.443 314.725L197.146 322.759L195.122 322.936ZM198.661 321.454L199.894 320.125C200.443 320.704 201.071 321.098 201.837 321.031C202.49 320.974 202.791 320.562 202.749 320.084C202.627 318.682 198.831 319.544 198.585 316.722C198.461 315.304 199.563 314.131 201.236 313.985C202.463 313.878 203.631 314.37 204.273 315.1L203.037 316.397C202.578 315.923 202.016 315.555 201.394 315.609C200.757 315.665 200.485 316.042 200.521 316.457C200.641 317.827 204.44 317.013 204.683 319.787C204.799 321.479 203.525 322.522 202.011 322.654C200.576 322.78 199.506 322.295 198.661 321.454ZM213.999 319.967C213.338 321.037 212.149 321.767 210.635 321.9C207.782 322.149 205.998 320.298 205.793 317.955C205.585 315.58 206.912 313.488 209.542 313.258C211.773 313.063 213.372 314.449 213.556 316.553C213.595 316.999 213.568 317.419 213.528 317.696L207.901 318.188C208.223 319.67 209.201 320.194 210.46 320.084C211.337 320.007 212.068 319.558 212.448 318.947L213.999 319.967ZM209.639 314.92C208.603 315.011 207.968 315.645 207.837 316.716L211.534 316.393C211.431 315.582 210.771 314.821 209.639 314.92ZM215.948 321.114L215.246 313.08L217.27 312.903L217.339 313.7C217.818 313.112 218.467 312.638 219.376 312.558C219.647 312.535 219.89 312.562 220.087 312.609L220.261 314.601C220.001 314.56 219.725 314.536 219.359 314.568C218.371 314.654 217.78 315.252 217.522 315.788L217.973 320.937L215.948 321.114Z" fill="#161616"/>
        <path d="M292.852 312.679C292.653 312.512 292.541 312.288 292.517 312.006C292.492 311.723 292.563 311.483 292.73 311.284L296.275 307.059L292.05 303.514C291.851 303.347 291.74 303.123 291.715 302.841C291.69 302.558 291.761 302.318 291.928 302.119C292.094 301.921 292.319 301.809 292.601 301.784C292.883 301.76 293.124 301.831 293.322 301.997L298.306 306.179C298.414 306.27 298.494 306.372 298.546 306.484C298.598 306.597 298.629 306.719 298.641 306.852C298.652 306.985 298.643 307.111 298.612 307.231C298.58 307.351 298.519 307.465 298.428 307.574L294.246 312.557C294.08 312.756 293.855 312.867 293.573 312.892C293.291 312.917 293.05 312.846 292.852 312.679Z" fill="#646464"/>
        <path d="M69.2206 395.987L71.6274 395.776L75.6896 404.206L78.2262 395.199L80.633 394.988L77.3853 406.515L74.4206 406.775L69.2206 395.987ZM85.3308 397.404C87.9448 397.175 89.8988 398.948 90.1093 401.355C90.3199 403.761 88.7034 405.846 86.0894 406.075C83.4754 406.304 81.5215 404.531 81.3109 402.124C81.1004 399.718 82.7168 397.633 85.3308 397.404ZM85.954 404.159C87.245 404.046 88.1267 402.925 88.0054 401.539C87.8826 400.136 86.8211 399.201 85.53 399.314C84.1912 399.431 83.2922 400.538 83.4149 401.94C83.5376 403.343 84.6151 404.277 85.954 404.159ZM92.5016 395.685C91.7844 395.747 91.1257 395.195 91.0629 394.477C91.0002 393.76 91.5529 393.101 92.2701 393.039C92.9874 392.976 93.6301 393.53 93.6929 394.247C93.7556 394.964 93.2189 395.622 92.5016 395.685ZM92.3071 405.21L91.6042 397.176L93.6285 396.999L94.3313 405.033L92.3071 405.21ZM96.7588 404.82L96.056 396.787L98.0803 396.61L98.15 397.407C98.6286 396.819 99.2777 396.344 100.186 396.265C100.457 396.241 100.7 396.268 100.897 396.315L101.072 398.308C100.811 398.266 100.536 398.242 100.169 398.274C99.181 398.361 98.5909 398.958 98.3327 399.495L98.7831 404.643L96.7588 404.82ZM107.53 403.878L106.484 391.924L108.509 391.746L109.554 403.701L107.53 403.878ZM119.263 401.534C118.602 402.604 117.413 403.334 115.899 403.467C113.046 403.717 111.262 401.865 111.057 399.522C110.849 397.147 112.176 395.055 114.806 394.825C117.037 394.63 118.636 396.016 118.82 398.12C118.859 398.566 118.832 398.986 118.792 399.263L113.165 399.755C113.487 401.237 114.465 401.761 115.724 401.651C116.601 401.575 117.332 401.125 117.712 400.514L119.263 401.534ZM114.903 396.487C113.867 396.578 113.232 397.212 113.1 398.283L116.798 397.96C116.695 397.149 116.035 396.388 114.903 396.487ZM124.583 398.339C124.378 395.995 125.75 393.868 128.284 393.646C129.368 393.551 130.178 393.818 130.854 394.385L130.456 389.826L132.496 389.648L133.542 401.602L131.501 401.781L131.446 401.143C130.878 401.819 130.127 402.222 129.043 402.317C126.509 402.539 124.788 400.682 124.583 398.339ZM126.703 398.153C126.826 399.556 127.792 400.499 129.162 400.379C130.071 400.3 130.787 399.852 131.264 399.071L131.036 396.457C130.43 395.771 129.647 395.454 128.738 395.534C127.368 395.654 126.58 396.75 126.703 398.153ZM139.824 391.673L137.88 391.843L139.306 389.052L141.505 388.86L139.824 391.673ZM143.25 399.436C142.589 400.506 141.4 401.236 139.885 401.368C137.032 401.618 135.248 399.766 135.043 397.423C134.835 395.048 136.162 392.957 138.792 392.727C141.024 392.532 142.622 393.917 142.807 396.021C142.846 396.468 142.818 396.888 142.778 397.164L137.152 397.657C137.474 399.138 138.451 399.663 139.711 399.553C140.587 399.476 141.319 399.027 141.699 398.415L143.25 399.436ZM138.889 394.389C137.853 394.479 137.218 395.113 137.087 396.185L140.785 395.861C140.682 395.051 140.021 394.29 138.889 394.389ZM145.437 397.606L145.149 394.323L143.651 394.454L143.492 392.637L144.99 392.506L144.815 390.497L146.855 390.319L147.031 392.327L149.485 392.112L149.644 393.93L147.19 394.144L147.477 397.428C147.555 398.32 148.064 398.629 148.861 398.559C149.419 398.511 149.78 398.415 150.041 398.28L150.196 400.049C149.813 400.259 149.341 400.38 148.672 400.439C146.664 400.615 145.608 399.567 145.437 397.606ZM154.285 400.028C152.675 400.169 151.495 399.341 151.365 397.859C151.259 396.647 152.12 395.656 153.816 395.219L156.235 394.59L156.216 394.382C156.143 393.538 155.458 393.052 154.533 393.132C153.752 393.201 153.178 393.62 152.8 394.248L151.218 393.246C151.849 392.195 152.976 391.486 154.442 391.358C156.769 391.154 158.086 392.436 158.241 394.205L158.695 399.402L156.671 399.579L156.603 398.798C156.147 399.464 155.226 399.946 154.285 400.028ZM153.365 397.587C153.412 398.129 153.873 398.442 154.559 398.382C155.483 398.301 156.115 397.812 156.458 397.14L156.359 396.008L154.474 396.494C153.642 396.712 153.322 397.093 153.365 397.587ZM161.208 389.674C160.491 389.736 159.832 389.184 159.769 388.466C159.706 387.749 160.259 387.09 160.976 387.028C161.694 386.965 162.336 387.519 162.399 388.236C162.462 388.953 161.925 389.611 161.208 389.674ZM161.013 399.199L160.311 391.165L162.335 390.988L163.038 399.022L161.013 399.199ZM165.465 398.809L164.419 386.855L166.444 386.678L167.489 398.632L165.465 398.809ZM173.288 394.077C173.083 391.734 174.455 389.607 176.989 389.385C178.073 389.29 178.883 389.557 179.559 390.124L179.16 385.565L181.2 385.387L182.246 397.341L180.206 397.52L180.15 396.882C179.583 397.558 178.831 397.961 177.747 398.056C175.213 398.278 173.493 396.42 173.288 394.077ZM175.408 393.892C175.53 395.295 176.496 396.238 177.867 396.118C178.776 396.039 179.491 395.591 179.969 394.81L179.74 392.196C179.134 391.51 178.352 391.193 177.443 391.273C176.072 391.393 175.285 392.489 175.408 393.892ZM191.954 395.175C191.293 396.244 190.104 396.975 188.59 397.107C185.737 397.357 183.953 395.505 183.748 393.162C183.54 390.787 184.867 388.696 187.497 388.466C189.728 388.27 191.327 389.656 191.511 391.76C191.55 392.207 191.523 392.627 191.483 392.903L185.856 393.395C186.178 394.877 187.156 395.402 188.415 395.292C189.292 395.215 190.023 394.765 190.404 394.154L191.954 395.175ZM187.594 390.128C186.558 390.218 185.923 390.852 185.792 391.923L189.489 391.6C189.386 390.79 188.726 390.029 187.594 390.128ZM198.199 395.945L197.497 387.912L199.521 387.735L199.574 388.341C200.07 387.767 200.72 387.309 201.709 387.222C202.729 387.133 203.66 387.501 204.262 388.316C204.774 387.564 205.486 386.892 206.841 386.773C208.499 386.628 209.906 387.662 210.104 389.925L210.536 394.866L208.496 395.045L208.071 390.183C207.986 389.211 207.407 388.651 206.498 388.731C205.622 388.807 205.196 389.455 204.925 390.025C204.951 390.135 204.96 390.246 204.972 390.374L205.404 395.315L203.364 395.494L202.938 390.632C202.853 389.66 202.274 389.1 201.366 389.18C200.441 389.261 200.023 389.988 199.765 390.524L200.224 395.768L198.199 395.945ZM215.131 394.705C213.521 394.846 212.34 394.018 212.211 392.535C212.105 391.324 212.966 390.333 214.662 389.896L217.08 389.266L217.062 389.059C216.988 388.214 216.303 387.728 215.379 387.809C214.598 387.877 214.024 388.297 213.645 388.924L212.064 387.922C212.695 386.871 213.821 386.163 215.288 386.034C217.615 385.831 218.932 387.113 219.086 388.882L219.541 394.078L217.517 394.255L217.448 393.474C216.993 394.141 216.071 394.623 215.131 394.705ZM214.211 392.264C214.258 392.806 214.719 393.119 215.404 393.059C216.329 392.978 216.961 392.489 217.303 391.817L217.204 390.685L215.32 391.171C214.487 391.388 214.167 391.77 214.211 392.264ZM225.352 392.397L226.585 391.069C227.133 391.647 227.762 392.042 228.527 391.975C229.181 391.918 229.482 391.506 229.44 391.028C229.318 389.625 225.522 390.487 225.275 387.666C225.151 386.247 226.253 385.075 227.927 384.929C229.154 384.821 230.322 385.313 230.964 386.044L229.728 387.341C229.269 386.867 228.707 386.499 228.085 386.553C227.448 386.609 227.175 386.986 227.212 387.4C227.332 388.771 231.131 387.957 231.374 390.73C231.49 392.423 230.216 393.466 228.701 393.598C227.267 393.723 226.197 393.239 225.352 392.397ZM240.69 390.911C240.029 391.981 238.84 392.711 237.326 392.843C234.473 393.093 232.688 391.242 232.483 388.898C232.276 386.524 233.602 384.432 236.232 384.202C238.464 384.007 240.063 385.393 240.247 387.497C240.286 387.943 240.258 388.363 240.218 388.639L234.592 389.132C234.914 390.613 235.892 391.138 237.151 391.028C238.027 390.951 238.759 390.502 239.139 389.89L240.69 390.911ZM236.33 385.864C235.294 385.954 234.658 386.588 234.527 387.66L238.225 387.336C238.122 386.526 237.461 385.765 236.33 385.864ZM242.639 392.057L241.936 384.024L243.961 383.847L244.014 384.453C244.509 383.879 245.16 383.421 246.148 383.334C247.168 383.245 248.1 383.613 248.701 384.428C249.214 383.676 249.926 383.004 251.281 382.885C252.938 382.74 254.346 383.774 254.544 386.037L254.976 390.978L252.936 391.157L252.51 386.295C252.425 385.323 251.846 384.763 250.938 384.843C250.061 384.919 249.636 385.567 249.365 386.137C249.39 386.247 249.4 386.358 249.411 386.486L249.844 391.427L247.803 391.606L247.378 386.744C247.293 385.772 246.714 385.212 245.805 385.292C244.881 385.373 244.463 386.1 244.205 386.636L244.663 391.88L242.639 392.057ZM259.571 390.817C257.961 390.958 256.78 390.13 256.65 388.647C256.544 387.436 257.405 386.445 259.102 386.008L261.52 385.378L261.502 385.171C261.428 384.326 260.743 383.84 259.818 383.921C259.037 383.989 258.464 384.409 258.085 385.036L256.504 384.034C257.135 382.983 258.261 382.275 259.727 382.146C262.055 381.943 263.371 383.225 263.526 384.994L263.981 390.19L261.956 390.367L261.888 389.586C261.432 390.253 260.511 390.735 259.571 390.817ZM258.65 388.376C258.698 388.918 259.159 389.231 259.844 389.171C260.769 389.09 261.4 388.601 261.743 387.929L261.644 386.797L259.759 387.283C258.927 387.5 258.607 387.882 258.65 388.376ZM266.493 380.462C265.776 380.525 265.117 379.972 265.055 379.255C264.992 378.538 265.545 377.879 266.262 377.816C266.979 377.754 267.622 378.308 267.685 379.025C267.747 379.742 267.211 380.399 266.493 380.462ZM266.299 389.987L265.596 381.954L267.62 381.777L268.323 389.81L266.299 389.987ZM270.75 389.598L270.048 381.565L272.072 381.388L272.128 382.025C272.638 381.434 273.351 380.954 274.419 380.861C276.156 380.709 277.648 381.783 277.855 384.158L278.274 388.94L276.233 389.118L275.822 384.416C275.729 383.348 275.064 382.732 274.076 382.818C273.056 382.908 272.574 383.64 272.316 384.177L272.775 389.421L270.75 389.598ZM287.854 386.785C287.192 387.854 286.004 388.585 284.489 388.717C281.636 388.967 279.852 387.115 279.647 384.772C279.439 382.397 280.766 380.306 283.396 380.076C285.627 379.88 287.226 381.266 287.41 383.37C287.449 383.817 287.422 384.237 287.382 384.513L281.755 385.005C282.078 386.487 283.055 387.012 284.314 386.902C285.191 386.825 285.923 386.375 286.303 385.764L287.854 386.785ZM283.493 381.737C282.457 381.828 281.822 382.462 281.691 383.533L285.389 383.21C285.286 382.4 284.625 381.638 283.493 381.737Z" fill="#3B69D1"/>
        <rect x="49.4079" y="374.331" width="254.69" height="55" rx="27.5" transform="rotate(-5 49.4079 374.331)" stroke="#3B69D1"/>
    </g>
    <g clip-path="url(#clip1_5487_14134)">
        <path d="M38.2434 473.916C34.8342 470.861 31.5751 467.916 28.3073 464.986C27.6583 464.398 27.1998 463.985 26.2649 463.383C25.5753 462.928 24.0923 461.996 23.7618 462.839C23.5614 463.563 23.5115 464.103 24.5409 465.234C27.2138 468.141 30.2974 470.626 33.3435 473.109C36.0348 475.299 38.1205 476.928 40.616 478.725C41.7815 479.565 42.6368 479.254 43.1701 478.042C43.6482 476.954 44.1582 475.845 44.4227 474.688C45.3994 470.519 46.2634 466.341 47.1736 462.152C47.2899 461.632 47.4118 461.234 47.4619 460.596C47.515 459.822 47.5967 459.261 46.8721 459.061C46.185 458.864 45.6928 459.747 45.5332 460.24C44.109 464.336 41.3121 472.835 41.0603 473.253C39.8999 470.903 38.7767 468.753 37.7721 466.536C30.8494 451.066 25.0883 435.234 23.1585 418.228C21.6306 404.768 21.7229 391.358 23.883 377.975C24.0055 377.184 24.0616 376.373 24.1003 375.59C24.1683 374.53 24.0161 373.967 23.4704 373.894C22.4278 373.895 22.1985 374.602 21.9667 375.151C21.4885 376.239 21.2355 377.443 20.9853 378.609C17.8024 394.246 18.2814 409.906 20.8226 425.569C23.4296 441.645 29.5186 456.476 36.8906 470.841C37.3082 471.584 38.1689 473.517 38.2434 473.916Z" fill="black"/>
    </g>
</svg>
