<svg width="352" height="372" viewBox="0 0 352 372" fill="none" xmlns="http://www.w3.org/2000/svg">
<rect x="38.7279" y="185.641" width="296.544" height="148.426" rx="9.96716" transform="rotate(-5 38.7279 185.641)" fill="#F1F1F1" stroke="#878787" stroke-width="0.866709" stroke-dasharray="4.33 4.33"/>
<path d="M12.2289 86.3484L10.9191 71.3775L14.7046 71.0464L18.9119 77.0142L22.019 70.4064L25.8045 70.0752L27.1143 85.0461L24.0773 85.3118L23.138 74.5756L20.2919 80.4709L18.1532 80.658L14.3266 75.3465L15.2659 86.0827L12.2289 86.3484ZM40.5529 82.1033C39.6656 83.5386 38.0704 84.5186 36.0387 84.6964C32.2104 85.0313 29.8164 82.5469 29.5413 79.403C29.2626 76.2164 31.0428 73.4099 34.5716 73.1011C37.5658 72.8392 39.7112 74.6988 39.9582 77.5219C40.0106 78.1207 39.9737 78.6843 39.9199 79.0553L32.3703 79.7158C32.8028 81.7038 34.1144 82.4079 35.804 82.2601C36.9802 82.1572 37.9619 81.5541 38.472 80.7337L40.5529 82.1033ZM34.7021 75.331C33.3119 75.4526 32.4596 76.303 32.2837 77.7408L37.2455 77.3067C37.1073 76.2197 36.2205 75.1982 34.7021 75.331ZM41.9442 82.1755L43.5985 80.3929C44.3345 81.169 45.1782 81.6986 46.2048 81.6088C47.0817 81.5321 47.4859 80.9795 47.4297 80.3379C47.2651 78.4558 42.1726 79.6125 41.8414 75.827C41.6748 73.9236 43.1535 72.3503 45.3991 72.1539C47.0459 72.0098 48.6123 72.6701 49.4739 73.6507L47.8158 75.3905C47.1999 74.7548 46.4455 74.2605 45.6114 74.3335C44.7559 74.4083 44.3907 74.9144 44.4394 75.4704C44.6003 77.3097 49.6984 76.2172 50.024 79.9385C50.1795 82.2093 48.4702 83.6088 46.4384 83.7865C44.5136 83.9549 43.0775 83.3047 41.9442 82.1755ZM61.6259 82.35C59.4658 82.539 57.8815 81.4277 57.7075 79.4387C57.5653 77.8133 58.7205 76.4838 60.9966 75.8968L64.2416 75.0526L64.2172 74.7745C64.1181 73.641 63.199 72.9887 61.9585 73.0972C60.9106 73.1889 60.1409 73.7519 59.6327 74.5938L57.5108 73.2493C58.3572 71.8391 59.8688 70.8879 61.8364 70.7158C64.9589 70.4426 66.7257 72.1629 66.9334 74.5369L67.5434 81.5091L64.8272 81.7467L64.7355 80.6987C64.1241 81.5927 62.8877 82.2396 61.6259 82.35ZM60.3911 79.0746C60.4547 79.8018 61.0733 80.2218 61.9929 80.1413C63.2334 80.0328 64.0811 79.3767 64.5409 78.4745L64.4081 76.956L61.8791 77.6083C60.7624 77.8999 60.3331 78.4116 60.3911 79.0746ZM70.6537 81.2369L69.2503 65.1967L71.9665 64.9591L73.3698 80.9993L70.6537 81.2369ZM86.3971 78.0924C85.5098 79.5277 83.9146 80.5078 81.8829 80.6855C78.0546 81.0205 75.6606 78.5361 75.3856 75.3922C75.1068 72.2055 76.887 69.399 80.4158 69.0903C83.41 68.8283 85.5554 70.688 85.8024 73.511C85.8548 74.1099 85.8179 74.6734 85.7641 75.0445L78.2145 75.705C78.647 77.6929 79.9586 78.3971 81.6482 78.2493C82.8244 78.1464 83.8061 77.5433 84.3162 76.7228L86.3971 78.0924ZM80.5463 71.3202C79.1561 71.4418 78.3038 72.2922 78.1279 73.7299L83.0897 73.2958C82.9515 72.2088 82.0648 71.1873 80.5463 71.3202ZM89.0122 79.6308L88.0692 68.8517L90.7853 68.6141L90.8789 69.6834C91.5211 68.8945 92.3921 68.258 93.6111 68.1514C93.9747 68.1196 94.3011 68.1557 94.5652 68.2187L94.7991 70.8921C94.4494 70.8365 94.0803 70.8042 93.5884 70.8472C92.2624 70.9632 91.4705 71.7652 91.124 72.4851L91.7284 79.3931L89.0122 79.6308ZM98.7509 74.8134L98.3655 70.4077L96.3551 70.5836L96.1418 68.1455L98.1522 67.9696L97.9164 65.2748L100.654 65.0353L100.89 67.7301L104.183 67.4419L104.397 69.88L101.103 70.1682L101.488 74.5739C101.593 75.7716 102.276 76.186 103.345 76.0924C104.094 76.0269 104.578 75.8983 104.929 75.7168L105.137 78.0908C104.622 78.3728 103.99 78.5359 103.092 78.6145C100.397 78.8502 98.9811 77.444 98.7509 74.8134ZM117.12 75.4045C116.233 76.8398 114.638 77.8199 112.606 77.9976C108.778 78.3326 106.384 75.8482 106.108 72.7043C105.83 69.5176 107.61 66.7111 111.139 66.4024C114.133 66.1404 116.278 68.0001 116.525 70.8231C116.578 71.422 116.541 71.9855 116.487 72.3566L108.937 73.0171C109.37 75.005 110.682 75.7092 112.371 75.5614C113.547 75.4585 114.529 74.8554 115.039 74.0349L117.12 75.4045ZM111.269 68.6322C109.879 68.7539 109.027 69.6043 108.851 71.042L113.813 70.6079C113.674 69.5209 112.788 68.4994 111.269 68.6322ZM118.511 75.4767L120.166 73.6941C120.902 74.4702 121.745 74.9998 122.772 74.91C123.649 74.8333 124.053 74.2807 123.997 73.6391C123.832 71.7571 118.74 72.9138 118.408 69.1283C118.242 67.2248 119.721 65.6516 121.966 65.4551C123.613 65.311 125.179 65.9714 126.041 66.952L124.383 68.6918C123.767 68.056 123.013 67.5617 122.179 67.6347C121.323 67.7096 120.958 68.2156 121.006 68.7717C121.167 70.611 126.266 69.5184 126.591 73.2397C126.747 75.5105 125.037 76.91 123.006 77.0878C121.081 77.2562 119.645 76.606 118.511 75.4767Z" fill="#3B69D1"/>
<g filter="url(#filter0_d_5473_14352)">
<rect x="11.6768" y="162.233" width="306.823" height="156.847" rx="7.15502" transform="rotate(-5 11.6768 162.233)" fill="white" shape-rendering="crispEdges"/>
<rect x="27.1823" y="175.243" width="82.324" height="29.16" rx="7.15502" transform="rotate(-5 27.1823 175.243)" fill="#D2CEF7"/>
<path d="M36.7862 194.059L39.4281 185.028L41.3244 184.862L45.4943 193.297L43.9598 193.431L42.8226 191.067L39.0175 191.399L38.3083 193.926L36.7862 194.059ZM39.3847 190.135L42.2416 189.885L40.4897 186.242L39.3847 190.135ZM47.1115 193.155L46.2929 183.799L47.5779 183.686L48.3965 193.043L47.1115 193.155ZM50.6817 190.643L50.4241 187.699L49.2389 187.802L49.1374 186.642L50.3226 186.538L50.1851 184.967L51.4826 184.853L51.6201 186.425L53.7035 186.243L53.805 187.403L51.7216 187.585L51.9792 190.529C52.0534 191.378 52.5265 191.613 53.2252 191.552C53.6494 191.515 53.9319 191.44 54.1489 191.333L54.2482 192.468C53.9597 192.619 53.6158 192.712 53.1293 192.755C51.6571 192.883 50.816 192.178 50.6817 190.643ZM61.2511 190.887C60.7335 191.725 59.8155 192.295 58.6428 192.398C56.472 192.588 55.0505 191.141 54.8901 189.307C54.7253 187.423 55.7909 185.809 57.787 185.634C59.5211 185.482 60.7476 186.569 60.8873 188.166C60.9125 188.453 60.9001 188.743 60.8666 188.935L56.2256 189.341C56.433 190.706 57.3311 191.344 58.5413 191.238C59.3023 191.171 59.9091 190.779 60.25 190.221L61.2511 190.887ZM57.8559 186.709C56.9202 186.791 56.3184 187.384 56.204 188.375L59.5849 188.079C59.4912 187.295 58.8665 186.621 57.8559 186.709ZM62.9011 191.774L62.351 185.486L63.636 185.374L63.6982 186.085C64.0923 185.56 64.6106 185.163 65.3841 185.095C65.5838 185.078 65.7742 185.099 65.9407 185.134L66.051 186.394C65.847 186.362 65.6441 186.342 65.3821 186.365C64.5837 186.435 64.0968 186.905 63.8193 187.47L64.1861 191.661L62.9011 191.774ZM67.9084 191.336L67.3583 185.048L68.6433 184.936L68.6968 185.547C69.1272 185.006 69.7194 184.59 70.6176 184.511C72.0024 184.39 73.1447 185.233 73.3041 187.055L73.6348 190.835L72.3373 190.948L72.011 187.218C71.9237 186.22 71.3223 185.669 70.4241 185.748C69.5633 185.823 69.0987 186.404 68.8223 186.982L69.1934 191.223L67.9084 191.336ZM77.3832 190.695C76.1356 190.805 75.225 190.168 75.1279 189.057C75.0449 188.109 75.721 187.359 77.0362 187.017L79.0403 186.503L79.0119 186.178C78.9443 185.405 78.3289 184.981 77.518 185.052C76.8318 185.112 76.3227 185.471 76.0056 186.014L74.9806 185.362C75.4765 184.564 76.3333 184.011 77.4561 183.913C79.1528 183.765 80.1758 184.681 80.2969 186.066L80.6604 190.22L79.3754 190.333L79.3132 189.621C78.9121 190.21 78.1567 190.628 77.3832 190.695ZM76.421 188.894C76.4636 189.381 76.8798 189.684 77.5285 189.627C78.3145 189.558 78.8931 189.13 79.215 188.499L79.12 187.413L77.4484 187.849C76.6744 188.055 76.3795 188.42 76.421 188.894ZM82.6747 190.044L82.1246 183.756L83.4096 183.644L83.463 184.255C83.8935 183.715 84.4856 183.298 85.3838 183.22C86.7687 183.098 87.911 183.941 88.0703 185.763L88.401 189.543L87.1036 189.656L86.7772 185.926C86.6899 184.928 86.0886 184.377 85.1903 184.456C84.3295 184.531 83.8649 185.112 83.5886 185.69L83.9597 189.932L82.6747 190.044ZM93.2591 188.15C93.9703 188.088 94.5136 187.688 94.8203 187.171L95.8985 187.856C95.3923 188.68 94.5128 189.26 93.3525 189.361C91.2441 189.546 89.7853 188.102 89.6248 186.268C89.4644 184.434 90.6504 182.759 92.7588 182.574C93.9065 182.474 94.8859 182.891 95.5274 183.614L94.5846 184.476C94.1927 184.02 93.5882 183.721 92.8646 183.785C91.6545 183.89 90.8641 184.915 90.9722 186.15C91.0813 187.398 92.0365 188.257 93.2591 188.15ZM102.675 187.263C102.157 188.101 101.239 188.671 100.066 188.774C97.8954 188.964 96.4739 187.517 96.3135 185.683C96.1487 183.799 97.2143 182.185 99.2104 182.01C100.945 181.858 102.171 182.945 102.311 184.542C102.336 184.829 102.324 185.119 102.29 185.311L97.649 185.717C97.8564 187.081 98.7545 187.719 99.9646 187.614C100.726 187.547 101.332 187.154 101.673 186.597L102.675 187.263ZM99.2793 183.085C98.3436 183.167 97.7418 183.76 97.6273 184.751L101.008 184.455C100.915 183.671 100.29 182.997 99.2793 183.085Z" fill="#161616"/>
<rect x="27.1823" y="175.243" width="82.324" height="29.16" rx="7.15502" transform="rotate(-5 27.1823 175.243)" stroke="#161616"/>
<path d="M32.8774 232.126L34.565 230.272C35.3977 231.169 36.4457 231.652 37.4616 231.563C38.4596 231.476 39.0188 230.888 38.9408 229.997C38.7397 227.698 33.1267 228.817 32.7572 224.593C32.5841 222.615 34.0803 220.832 36.4685 220.623C38.3399 220.459 39.839 221.172 41.019 222.344L39.3121 224.181C38.4987 223.301 37.6243 222.749 36.6797 222.831C35.7886 222.909 35.2503 223.531 35.3158 224.28C35.5138 226.543 41.1253 225.406 41.4995 229.683C41.6697 232.039 39.9749 233.606 37.6758 233.807C35.5728 233.991 34.0978 233.348 32.8774 232.126ZM52.2549 230.7C51.5155 231.896 50.1861 232.712 48.493 232.861C45.3028 233.14 43.3078 231.069 43.0786 228.449C42.8462 225.794 44.3298 223.455 47.2705 223.198C49.7656 222.98 51.5534 224.529 51.7592 226.882C51.8029 227.381 51.7722 227.85 51.7274 228.16L45.436 228.71C45.7965 230.367 46.8894 230.954 48.2974 230.83C49.2776 230.745 50.0957 230.242 50.5208 229.558L52.2549 230.7ZM47.3792 225.056C46.2207 225.157 45.5105 225.866 45.3639 227.064L49.4987 226.702C49.3835 225.797 48.6446 224.945 47.3792 225.056ZM54.4341 231.982L53.6483 222.999L55.9117 222.801L55.9897 223.692C56.5248 223.035 57.2507 222.504 58.2665 222.415C58.5695 222.389 58.8415 222.419 59.0616 222.472L59.2565 224.699C58.9652 224.653 58.6575 224.626 58.2476 224.662C57.1426 224.759 56.4827 225.427 56.194 226.027L56.6976 231.784L54.4341 231.982ZM60.058 222.438L62.4818 222.226L65.3779 228.438L67.1335 221.819L69.5752 221.606L67.0817 230.875L64.1054 231.135L60.058 222.438ZM79.8241 228.288C79.0846 229.484 77.7553 230.3 76.0622 230.449C72.8719 230.728 70.877 228.657 70.6477 226.037C70.4154 223.382 71.8989 221.043 74.8397 220.786C77.3348 220.568 79.1226 222.117 79.3284 224.47C79.3721 224.969 79.3413 225.438 79.2966 225.748L73.0052 226.298C73.3657 227.955 74.4586 228.542 75.8666 228.418C76.8468 228.333 77.6649 227.83 78.09 227.146L79.8241 228.288ZM74.9483 222.644C73.7899 222.745 73.0797 223.454 72.933 224.652L77.0679 224.29C76.9527 223.385 76.2137 222.533 74.9483 222.644ZM87.4761 225.176L87.0301 220.079L89.3114 219.879L89.748 224.869C89.9834 227.56 88.5601 229.355 85.9223 229.586C83.2846 229.817 81.589 228.295 81.3536 225.604L80.917 220.613L83.1983 220.414L83.6442 225.511C83.758 226.812 84.5055 227.555 85.753 227.446C86.9828 227.338 87.5899 226.477 87.4761 225.176ZM92.6028 228.642L91.817 219.66L94.0804 219.462L94.1584 220.353C94.6935 219.695 95.4193 219.165 96.4352 219.076C96.7382 219.05 97.0102 219.08 97.2303 219.132L97.4252 221.36C97.1338 221.314 96.8262 221.287 96.4163 221.323C95.3113 221.419 94.6514 222.088 94.3627 222.688L94.8663 228.444L92.6028 228.642ZM102.493 222.084L107.305 221.663L107.497 223.855L102.685 224.276L102.493 222.084ZM113.645 226.801L112.859 217.819L115.123 217.621L115.201 218.512C115.736 217.854 116.462 217.324 117.478 217.235C117.781 217.209 118.053 217.239 118.273 217.291L118.468 219.519C118.176 219.473 117.869 219.446 117.459 219.482C116.354 219.578 115.694 220.247 115.405 220.847L115.909 226.603L113.645 226.801ZM124.814 215.336L122.64 215.526L124.234 212.406L126.694 212.19L124.814 215.336ZM128.645 224.016C127.905 225.212 126.576 226.029 124.883 226.177C121.692 226.456 119.697 224.386 119.468 221.766C119.236 219.111 120.719 216.772 123.66 216.515C126.155 216.296 127.943 217.846 128.149 220.199C128.193 220.698 128.162 221.167 128.117 221.476L121.826 222.027C122.186 223.683 123.279 224.27 124.687 224.147C125.667 224.061 126.485 223.559 126.91 222.875L128.645 224.016ZM123.769 218.373C122.61 218.474 121.9 219.183 121.753 220.381L125.888 220.019C125.773 219.113 125.034 218.262 123.769 218.373ZM134.911 223.145C135.802 223.067 136.479 222.595 136.853 221.933L138.736 223.134C137.995 224.312 136.738 225.14 135.098 225.284C131.997 225.555 129.949 223.489 129.72 220.869C129.49 218.249 131.149 215.859 134.25 215.588C135.89 215.445 137.271 216.042 138.205 217.074L136.559 218.583C136.077 217.996 135.328 217.649 134.402 217.73C132.922 217.859 131.935 219.095 132.072 220.663C132.211 222.25 133.396 223.277 134.911 223.145ZM148.347 222.293C147.607 223.489 146.278 224.305 144.585 224.454C141.395 224.733 139.4 222.662 139.17 220.042C138.938 217.387 140.422 215.048 143.362 214.791C145.857 214.573 147.645 216.122 147.851 218.475C147.895 218.974 147.864 219.444 147.819 219.753L141.528 220.303C141.888 221.96 142.981 222.547 144.389 222.423C145.369 222.338 146.188 221.835 146.613 221.151L148.347 222.293ZM143.471 216.649C142.313 216.75 141.602 217.459 141.456 218.657L145.591 218.295C145.475 217.39 144.736 216.538 143.471 216.649ZM150.91 227.959L149.74 214.592L152.004 214.394L152.067 215.125C152.702 214.369 153.541 213.9 154.771 213.793C157.622 213.543 159.528 215.621 159.757 218.241C159.986 220.861 158.47 223.239 155.619 223.488C154.389 223.596 153.481 223.28 152.726 222.646L153.173 227.761L150.91 227.959ZM154.637 215.96C153.585 216.052 152.77 216.59 152.273 217.477L152.52 220.293C153.2 221.096 154.077 221.468 155.111 221.378C156.644 221.244 157.542 220.016 157.405 218.447C157.267 216.879 156.17 215.825 154.637 215.96ZM162.401 219.231L162.08 215.56L160.404 215.706L160.227 213.675L161.902 213.528L161.706 211.282L163.987 211.083L164.183 213.328L166.928 213.088L167.106 215.12L164.361 215.36L164.682 219.032C164.77 220.03 165.339 220.375 166.23 220.297C166.853 220.243 167.257 220.135 167.549 219.984L167.722 221.962C167.294 222.197 166.767 222.333 166.018 222.399C163.773 222.595 162.593 221.423 162.401 219.231ZM169.958 211.243C169.156 211.313 168.42 210.695 168.35 209.893C168.28 209.091 168.898 208.354 169.7 208.284C170.502 208.214 171.22 208.834 171.29 209.636C171.361 210.438 170.76 211.173 169.958 211.243ZM169.741 221.894L168.955 212.911L171.218 212.713L172.004 221.696L169.741 221.894ZM178.179 211.745C181.102 211.489 183.287 213.471 183.522 216.162C183.758 218.853 181.95 221.185 179.027 221.44C176.104 221.696 173.92 219.714 173.684 217.023C173.449 214.332 175.256 212.001 178.179 211.745ZM178.876 219.298C180.319 219.172 181.305 217.919 181.17 216.368C181.032 214.8 179.845 213.754 178.402 213.88C176.905 214.011 175.899 215.249 176.037 216.817C176.174 218.385 177.379 219.429 178.876 219.298ZM185.98 220.473L185.194 211.49L187.457 211.292L187.519 212.005C188.09 211.345 188.887 210.808 190.081 210.703C192.024 210.534 193.692 211.735 193.924 214.39L194.392 219.737L192.11 219.936L191.65 214.679C191.546 213.485 190.803 212.795 189.698 212.892C188.558 212.992 188.019 213.811 187.73 214.411L188.243 220.275L185.98 220.473ZM196.962 219.512L196.176 210.529L198.44 210.331L198.502 211.044C199.073 210.384 199.87 209.847 201.064 209.743C203.007 209.573 204.674 210.774 204.906 213.429L205.374 218.776L203.093 218.976L202.633 213.718C202.528 212.524 201.786 211.835 200.681 211.931C199.54 212.031 199.001 212.85 198.712 213.45L199.225 219.314L196.962 219.512ZM208.162 207.9C207.36 207.971 206.623 207.353 206.553 206.551C206.483 205.749 207.101 205.012 207.903 204.942C208.705 204.872 209.424 205.491 209.494 206.293C209.564 207.095 208.964 207.83 208.162 207.9ZM207.944 218.551L207.158 209.569L209.422 209.371L210.208 218.353L207.944 218.551ZM211.902 216.894L213.281 215.408C213.894 216.055 214.597 216.496 215.453 216.422C216.183 216.358 216.52 215.897 216.474 215.363C216.336 213.794 212.093 214.758 211.817 211.604C211.678 210.017 212.91 208.706 214.781 208.543C216.154 208.422 217.459 208.973 218.177 209.79L216.795 211.24C216.282 210.71 215.653 210.298 214.958 210.359C214.245 210.421 213.941 210.843 213.982 211.306C214.116 212.839 218.364 211.929 218.635 215.03C218.765 216.922 217.341 218.088 215.647 218.236C214.043 218.377 212.847 217.835 211.902 216.894ZM221.368 214.072L221.047 210.401L219.372 210.547L219.194 208.516L220.869 208.369L220.673 206.123L222.954 205.924L223.151 208.169L225.895 207.929L226.073 209.961L223.328 210.201L223.65 213.873C223.737 214.871 224.306 215.216 225.197 215.138C225.821 215.084 226.225 214.976 226.517 214.825L226.69 216.803C226.261 217.038 225.734 217.174 224.986 217.24C222.74 217.436 221.56 216.264 221.368 214.072ZM236.676 214.565C235.937 215.761 234.607 216.578 232.914 216.726C229.724 217.005 227.729 214.935 227.5 212.315C227.267 209.659 228.751 207.32 231.692 207.063C234.187 206.845 235.975 208.394 236.18 210.747C236.224 211.246 236.193 211.716 236.148 212.025L229.857 212.575C230.218 214.232 231.311 214.819 232.719 214.696C233.699 214.61 234.517 214.107 234.942 213.424L236.676 214.565ZM231.8 208.921C230.642 209.023 229.932 209.731 229.785 210.929L233.92 210.568C233.805 209.662 233.066 208.811 231.8 208.921Z" fill="#161616"/>
<path d="M41.5999 257.936C41.9266 257.907 42.1962 257.766 42.4087 257.513C42.6209 257.26 42.7127 256.97 42.6841 256.643C42.6555 256.317 42.5148 256.047 42.2619 255.835C42.0087 255.622 41.7187 255.531 41.392 255.559C41.0652 255.588 40.7958 255.729 40.5836 255.981C40.3711 256.235 40.2792 256.525 40.3077 256.851C40.3363 257.178 40.4772 257.448 40.7305 257.66C40.9833 257.872 41.2731 257.964 41.5999 257.936ZM42.1001 263.654C42.0209 263.661 41.9404 263.653 41.8586 263.63C41.7768 263.607 41.704 263.574 41.6403 263.529C40.0829 262.378 38.8999 261.287 38.0913 260.256C37.2827 259.224 36.8368 258.233 36.7536 257.282C36.6237 255.797 36.998 254.572 37.8766 253.607C38.7548 252.642 39.8226 252.105 41.0801 251.995C42.3376 251.885 43.4825 252.229 44.5149 253.026C45.5477 253.824 46.129 254.965 46.259 256.45C46.3421 257.401 46.0751 258.455 45.458 259.611C44.8408 260.768 43.8653 262.048 42.5314 263.451C42.4763 263.506 42.4105 263.552 42.3339 263.588C42.2572 263.625 42.1793 263.647 42.1001 263.654Z" fill="#646464"/>
<path d="M53.0081 259.418L52.9197 258.408L56.5691 252.846L57.929 252.727L58.3841 257.929L59.3946 257.841L59.4831 258.852L58.4725 258.94L58.693 261.46L57.5702 261.558L57.3497 259.038L53.0081 259.418ZM54.1174 258.303L57.2613 258.028L56.9131 254.048L54.1174 258.303ZM63.3919 261.3C62.0445 261.418 61.1313 260.895 60.4549 260.061L61.2932 259.297C61.8588 260.014 62.4914 260.348 63.3024 260.277C64.8993 260.138 65.582 258.745 65.442 256.57C64.8739 257.261 64.081 257.682 63.1079 257.768C61.4736 257.911 60.2427 256.774 60.1085 255.239C59.9699 253.655 60.9623 252.21 62.8586 252.044C64.9047 251.865 66.3163 253.2 66.5815 256.232C66.8293 259.064 65.8745 261.083 63.3919 261.3ZM61.2655 255.1C61.3539 256.111 62.1712 256.831 63.1942 256.742C64.08 256.664 64.8457 256.22 65.2906 255.414C64.943 253.597 64.0585 252.97 62.9606 253.066C61.8004 253.168 61.1738 254.052 61.2655 255.1ZM70.5645 256.688L73.9329 256.393L74.0224 257.416L70.654 257.711L70.5645 256.688ZM77.9327 259.777L80.6493 250.739L82.2213 250.602L86.4661 259.03L85.2185 259.139L83.9831 256.658L79.9659 257.009L79.1802 259.668L77.9327 259.777ZM80.2643 255.965L83.508 255.681L81.5248 251.694L80.2643 255.965ZM88.1364 258.884L87.5862 252.596L88.6467 252.504L88.7089 253.215C89.1713 252.609 89.7851 252.153 90.7208 252.071C92.1305 251.947 93.2615 252.804 93.4175 254.588L93.7504 258.393L92.69 258.486L92.3604 254.718C92.2621 253.595 91.5691 253.002 90.596 253.087C89.6853 253.167 89.1572 253.741 88.8159 254.437L89.1968 258.791L88.1364 258.884ZM95.2607 259.405C95.205 258.769 95.4722 258.23 96.0578 257.739C95.7512 257.539 95.572 257.215 95.5425 256.878C95.4989 256.379 95.7248 255.945 96.1841 255.59C95.5991 255.227 95.2191 254.619 95.158 253.92C95.0521 252.71 95.9108 251.604 97.4079 251.473C97.8695 251.433 98.2899 251.496 98.6409 251.629L100.974 251.425L101.055 252.348L99.6948 252.467C99.8968 252.764 100.016 253.118 100.048 253.492C100.153 254.69 99.3071 255.795 97.7975 255.927C97.4856 255.954 97.1818 255.93 96.9133 255.879C96.6677 256.089 96.5376 256.326 96.5584 256.563C96.5813 256.825 96.7349 257 97.1216 256.967L98.9181 256.809C100.577 256.664 101.422 257.408 101.52 258.53C101.636 259.853 100.4 260.954 98.5158 261.119C96.6569 261.281 95.3709 260.665 95.2607 259.405ZM97.7369 255.09C98.6476 255.01 99.117 254.341 99.0504 253.58C98.9828 252.806 98.4042 252.228 97.4935 252.308C96.5578 252.39 96.1009 253.058 96.1685 253.832C96.2362 254.605 96.8012 255.172 97.7369 255.09ZM96.2853 259.189C96.3518 259.95 97.1782 260.343 98.4258 260.234C99.7482 260.118 100.538 259.521 100.466 258.698C100.414 258.099 100.035 257.655 98.9127 257.753L96.8791 257.931C96.4709 258.293 96.2416 258.69 96.2853 259.189ZM108.036 256.1C107.518 256.937 106.626 257.518 105.453 257.621C103.332 257.806 101.886 256.361 101.726 254.527C101.559 252.618 102.651 251.027 104.598 250.857C106.307 250.707 107.522 251.808 107.657 253.355C107.679 253.604 107.662 253.844 107.64 254.022L102.812 254.445C102.982 255.951 104.022 256.778 105.369 256.66C106.18 256.589 106.834 256.155 107.196 255.557L108.036 256.1ZM104.651 251.757C103.616 251.848 102.946 252.522 102.816 253.627L106.584 253.298C106.465 252.378 105.761 251.66 104.651 251.757ZM109.786 256.99L109.236 250.702L110.296 250.609L110.365 251.395C110.779 250.806 111.321 250.394 112.12 250.324C112.319 250.307 112.508 250.315 112.663 250.352L112.753 251.388C112.562 251.354 112.372 251.346 112.123 251.367C111.299 251.439 110.8 251.911 110.469 252.581L110.847 256.897L109.786 256.99ZM113.996 255.754L114.689 255.053C115.173 255.563 115.725 255.829 116.361 255.774C117.06 255.713 117.422 255.253 117.374 254.705C117.25 253.295 114.15 254.069 113.956 251.848C113.87 250.863 114.634 249.979 115.845 249.873C116.743 249.794 117.553 250.151 118.044 250.724L117.362 251.412C116.984 250.967 116.484 250.709 115.935 250.757C115.261 250.816 114.934 251.247 114.977 251.734C115.1 253.143 118.217 252.418 118.405 254.564C118.495 255.738 117.624 256.556 116.451 256.658C115.453 256.746 114.632 256.415 113.996 255.754Z" fill="#161616"/>
<path d="M197.014 273.422L198.262 273.313L201.941 280.596L204.3 272.784L205.548 272.675L202.819 281.714L201.272 281.849L197.014 273.422ZM209.378 274.553C211.399 274.376 212.92 275.814 213.081 277.648C213.241 279.482 211.993 281.163 209.972 281.339C207.938 281.517 206.43 280.078 206.269 278.244C206.109 276.41 207.345 274.731 209.378 274.553ZM209.897 280.34C211.207 280.226 212.072 279.044 211.958 277.746C211.843 276.436 210.788 275.435 209.478 275.55C208.13 275.668 207.265 276.837 207.379 278.147C207.494 279.457 208.55 280.458 209.897 280.34ZM214.904 272.674C214.492 272.71 214.126 272.402 214.09 271.991C214.055 271.592 214.362 271.225 214.774 271.189C215.186 271.153 215.54 271.462 215.575 271.861C215.611 272.273 215.316 272.638 214.904 272.674ZM215.061 280.643L214.511 274.355L215.571 274.262L216.121 280.55L215.061 280.643ZM218.362 280.354L217.812 274.066L218.873 273.973L218.941 274.759C219.355 274.17 219.897 273.758 220.696 273.688C220.895 273.671 221.085 273.679 221.239 273.716L221.329 274.752C221.138 274.718 220.948 274.71 220.699 274.731C219.876 274.803 219.376 275.274 219.045 275.945L219.423 280.261L218.362 280.354ZM226.684 279.626L225.865 270.269L226.925 270.176L227.744 279.533L226.684 279.626ZM235.484 277.813C234.966 278.65 234.074 279.231 232.901 279.333C230.781 279.519 229.334 278.074 229.174 276.24C229.007 274.331 230.099 272.74 232.046 272.57C233.755 272.42 234.97 273.521 235.105 275.067C235.127 275.317 235.11 275.557 235.088 275.735L230.26 276.158C230.43 277.664 231.47 278.491 232.817 278.373C233.628 278.302 234.282 277.868 234.644 277.27L235.484 277.813ZM232.099 273.47C231.064 273.561 230.394 274.235 230.264 275.34L234.032 275.011C233.914 274.091 233.21 273.373 232.099 273.47ZM236.437 277.905L237.13 277.204C237.614 277.714 238.165 277.98 238.802 277.925C239.5 277.864 239.862 277.404 239.814 276.855C239.691 275.446 236.591 276.22 236.397 273.999C236.31 273.014 237.075 272.129 238.285 272.024C239.184 271.945 239.994 272.302 240.484 272.875L239.803 273.563C239.425 273.118 238.924 272.86 238.375 272.908C237.702 272.967 237.375 273.398 237.417 273.885C237.541 275.294 240.658 274.569 240.846 276.715C240.936 277.889 240.064 278.707 238.892 278.809C237.894 278.897 237.073 278.566 236.437 277.905ZM246.079 277.929L245.529 271.641L246.59 271.548L246.659 272.334C247.072 271.745 247.614 271.333 248.413 271.263C248.612 271.246 248.802 271.254 248.956 271.291L249.046 272.327C248.855 272.293 248.666 272.285 248.416 272.306C247.593 272.378 247.093 272.85 246.762 273.52L247.14 277.836L246.079 277.929ZM253.217 269.963L252.181 270.054L253.298 267.869L254.495 267.764L253.217 269.963ZM256.159 276.004C255.641 276.841 254.749 277.422 253.577 277.525C251.456 277.71 250.009 276.265 249.849 274.431C249.682 272.523 250.775 270.931 252.721 270.761C254.43 270.611 255.645 271.712 255.781 273.259C255.802 273.508 255.786 273.748 255.763 273.926L250.935 274.349C251.105 275.855 252.145 276.682 253.493 276.564C254.303 276.493 254.957 276.059 255.319 275.461L256.159 276.004ZM252.774 271.661C251.739 271.752 251.069 272.426 250.939 273.531L254.707 273.202C254.589 272.282 253.885 271.564 252.774 271.661ZM257.112 276.096L257.805 275.395C258.289 275.905 258.841 276.171 259.477 276.116C260.175 276.055 260.538 275.596 260.49 275.047C260.366 273.637 257.266 274.411 257.072 272.19C256.986 271.205 257.75 270.321 258.961 270.215C259.859 270.136 260.669 270.493 261.16 271.066L260.478 271.754C260.1 271.309 259.599 271.051 259.051 271.099C258.377 271.158 258.05 271.589 258.093 272.076C258.216 273.486 261.333 272.76 261.521 274.906C261.611 276.08 260.74 276.898 259.567 277C258.569 277.088 257.748 276.757 257.112 276.096ZM267.535 273.337L267.221 269.744L268.281 269.651L268.592 273.206C268.757 275.09 267.768 276.283 266.059 276.433C264.362 276.581 263.181 275.578 263.016 273.694L262.705 270.139L263.765 270.046L264.079 273.639C264.188 274.874 264.911 275.527 265.984 275.433C267.032 275.342 267.643 274.572 267.535 273.337ZM270.921 275.756L270.103 266.399L271.163 266.306L271.982 275.663L270.921 275.756ZM274.4 273.327L274.119 270.108L272.934 270.212L272.849 269.251L274.035 269.147L273.897 267.575L274.97 267.482L275.108 269.054L277.291 268.862L277.375 269.823L275.192 270.014L275.473 273.233C275.559 274.218 276.083 274.449 276.844 274.383C277.255 274.347 277.538 274.272 277.766 274.151L277.849 275.099C277.561 275.25 277.228 275.33 276.779 275.369C275.382 275.491 274.535 274.861 274.4 273.327ZM281.186 275.034C279.951 275.142 279.055 274.529 278.961 273.456C278.878 272.508 279.543 271.771 280.858 271.429L282.949 270.894L282.911 270.458C282.834 269.584 282.167 269.14 281.268 269.218C280.545 269.282 279.988 269.67 279.648 270.24L278.796 269.699C279.28 268.902 280.125 268.363 281.223 268.267C282.82 268.127 283.85 268.98 283.971 270.365L284.34 274.582L283.279 274.674L283.21 273.876C282.789 274.529 281.997 274.963 281.186 275.034ZM280.031 273.324C280.078 273.861 280.548 274.209 281.285 274.145C282.12 274.072 282.772 273.613 283.124 272.903L283.016 271.668L281.185 272.142C280.337 272.367 279.984 272.788 280.031 273.324ZM286.645 272.256L286.363 269.037L285.178 269.14L285.094 268.18L286.279 268.076L286.141 266.504L287.214 266.41L287.352 267.982L289.535 267.791L289.619 268.752L287.436 268.943L287.718 272.162C287.804 273.147 288.327 273.378 289.088 273.311C289.5 273.275 289.782 273.2 290.01 273.08L290.093 274.028C289.805 274.179 289.472 274.258 289.023 274.298C287.626 274.42 286.779 273.79 286.645 272.256ZM290.957 273.135L291.65 272.434C292.135 272.944 292.686 273.21 293.322 273.155C294.021 273.094 294.383 272.634 294.335 272.086C294.212 270.676 291.111 271.45 290.917 269.229C290.831 268.244 291.596 267.36 292.806 267.254C293.704 267.175 294.515 267.532 295.005 268.105L294.323 268.793C293.945 268.348 293.445 268.09 292.896 268.138C292.222 268.197 291.895 268.628 291.938 269.115C292.061 270.524 295.178 269.799 295.366 271.945C295.456 273.119 294.585 273.937 293.412 274.039C292.414 274.127 291.593 273.796 290.957 273.135Z" fill="#161616"/>
<path d="M304.832 272.796C304.654 272.647 304.554 272.447 304.532 272.194C304.51 271.942 304.574 271.727 304.723 271.549L307.894 267.769L304.115 264.598C303.937 264.449 303.837 264.248 303.815 263.996C303.793 263.743 303.856 263.528 304.005 263.351C304.155 263.173 304.355 263.073 304.608 263.051C304.86 263.029 305.075 263.092 305.253 263.241L309.711 266.982C309.808 267.063 309.879 267.154 309.926 267.255C309.972 267.356 310 267.465 310.01 267.584C310.021 267.703 310.012 267.816 309.984 267.923C309.956 268.031 309.901 268.133 309.82 268.23L306.079 272.687C305.93 272.865 305.73 272.965 305.477 272.987C305.225 273.009 305.01 272.946 304.832 272.796Z" fill="#161616"/>
</g>
<g filter="url(#filter1_d_5473_14352)">
<rect x="8.64209" y="101.77" width="302.219" height="49.3418" rx="7.04764" transform="rotate(-5 8.64209 101.77)" fill="white" shape-rendering="crispEdges"/>
<g clip-path="url(#clip0_5473_14352)">
<path d="M36.2139 133.852C37.1794 133.768 37.8923 132.918 37.8078 131.953L34.3144 132.258C34.3988 133.224 35.2484 133.937 36.2139 133.852ZM41.8974 128.048L41.4366 122.782C41.1794 119.841 38.8929 117.565 36.0845 117.209L35.9947 116.182C35.9309 115.454 35.2914 114.917 34.5629 114.981C33.8343 115.044 33.2977 115.684 33.3614 116.413L33.4513 117.44C30.7473 118.278 28.8909 120.916 29.1481 123.857L29.6089 129.123L28.5757 130.355C28.071 130.956 28.5402 131.87 29.3214 131.802L42.6369 130.637C43.4181 130.569 43.7301 129.586 43.1288 129.082L41.8974 128.048ZM38.08 124.853L36.3245 125.007L36.4781 126.762C36.5203 127.245 36.1599 127.675 35.6771 127.717C35.1944 127.759 34.7648 127.399 34.7226 126.916L34.569 125.16L32.8135 125.314C32.3307 125.356 31.9012 124.996 31.8589 124.513L31.8582 124.504C31.8159 124.022 32.1764 123.592 32.6591 123.55L34.4146 123.396L34.2611 121.641C34.2188 121.158 34.5792 120.728 35.062 120.686C35.5448 120.644 35.9743 121.004 36.0166 121.487L36.1701 123.243L37.9256 123.089C38.4084 123.047 38.838 123.407 38.8802 123.89L38.881 123.899C38.9232 124.381 38.5628 124.811 38.08 124.853Z" fill="#950EFF"/>
</g>
<path d="M61.9531 128.326L61.093 118.495L63.5788 118.277L66.3415 122.196L68.3818 117.857L70.8676 117.64L71.7277 127.47L69.7335 127.645L69.1167 120.595L67.2477 124.466L65.8433 124.589L63.3305 121.101L63.9473 128.151L61.9531 128.326ZM80.5524 125.538C79.9697 126.48 78.9222 127.124 77.588 127.241C75.0741 127.461 73.5021 125.829 73.3215 123.765C73.1384 121.672 74.3074 119.829 76.6247 119.627C78.5908 119.455 79.9996 120.676 80.1618 122.529C80.1962 122.923 80.172 123.293 80.1367 123.536L75.1792 123.97C75.4632 125.276 76.3244 125.738 77.4339 125.641C78.2063 125.573 78.851 125.177 79.1859 124.639L80.5524 125.538ZM76.7103 121.091C75.7975 121.171 75.2378 121.729 75.1223 122.673L78.3805 122.388C78.2898 121.674 77.7075 121.004 76.7103 121.091ZM81.466 125.585L82.5523 124.415C83.0356 124.924 83.5896 125.272 84.2637 125.213C84.8395 125.163 85.105 124.8 85.0681 124.379C84.96 123.143 81.6159 123.902 81.3984 121.417C81.2891 120.167 82.2601 119.133 83.7347 119.004C84.8161 118.91 85.8446 119.343 86.4104 119.987L85.3216 121.13C84.9172 120.712 84.4218 120.388 83.8741 120.436C83.3123 120.485 83.0725 120.817 83.1044 121.182C83.2101 122.39 86.5579 121.673 86.7717 124.116C86.8738 125.607 85.7513 126.526 84.4171 126.643C83.1532 126.754 82.2101 126.327 81.466 125.585ZM92.3775 125.664L91.7582 118.586L93.5418 118.429L93.6032 119.132C94.0249 118.614 94.5969 118.196 95.3974 118.126C95.6361 118.105 95.8505 118.128 96.0239 118.17L96.1775 119.925C95.9479 119.889 95.7054 119.868 95.3824 119.896C94.5117 119.972 93.9917 120.499 93.7642 120.971L94.1611 125.508L92.3775 125.664ZM104.197 123.469C103.614 124.412 102.567 125.055 101.232 125.172C98.7186 125.392 97.1465 123.761 96.9659 121.696C96.7828 119.604 97.9518 117.761 100.269 117.558C102.235 117.386 103.644 118.607 103.806 120.461C103.841 120.854 103.816 121.224 103.781 121.468L98.8236 121.902C99.1076 123.207 99.9689 123.669 101.078 123.572C101.851 123.505 102.495 123.109 102.83 122.57L104.197 123.469ZM100.355 119.022C99.4419 119.102 98.8822 119.66 98.7667 120.605L102.025 120.319C101.934 119.606 101.352 118.935 100.355 119.022ZM109.135 122.782C109.837 122.721 110.371 122.349 110.665 121.828L112.148 122.774C111.565 123.702 110.574 124.355 109.282 124.468C106.839 124.682 105.225 123.054 105.044 120.989C104.863 118.925 106.17 117.042 108.614 116.828C109.906 116.715 110.994 117.186 111.731 117.999L110.434 119.188C110.054 118.726 109.464 118.452 108.733 118.516C107.568 118.618 106.79 119.591 106.898 120.827C107.007 122.077 107.941 122.887 109.135 122.782ZM113.581 123.809L112.659 113.276L114.443 113.12L114.794 117.136C115.244 116.616 115.872 116.193 116.813 116.11C118.344 115.977 119.658 116.923 119.841 119.016L120.209 123.229L118.412 123.386L118.049 119.243C117.967 118.302 117.396 117.758 116.511 117.835C115.612 117.914 115.188 118.559 114.96 119.032L115.364 123.653L113.581 123.809ZM128.65 121.33C128.068 122.272 127.02 122.916 125.686 123.033C123.172 123.253 121.6 121.621 121.42 119.557C121.236 117.464 122.405 115.621 124.723 115.418C126.689 115.246 128.098 116.468 128.26 118.321C128.294 118.715 128.27 119.085 128.235 119.328L123.277 119.762C123.561 121.068 124.422 121.53 125.532 121.433C126.304 121.365 126.949 120.969 127.284 120.43L128.65 121.33ZM124.808 116.883C123.896 116.963 123.336 117.521 123.22 118.465L126.479 118.18C126.388 117.466 125.805 116.796 124.808 116.883ZM130.368 122.34L129.748 115.262L131.532 115.106L131.593 115.808C132.015 115.29 132.587 114.872 133.388 114.802C133.626 114.781 133.841 114.805 134.014 114.846L134.168 116.602C133.938 116.565 133.696 116.544 133.373 116.572C132.502 116.648 131.982 117.175 131.754 117.648L132.151 122.184L130.368 122.34ZM139.047 120.166C139.749 120.104 140.283 119.732 140.577 119.211L142.061 120.157C141.477 121.085 140.487 121.738 139.195 121.851C136.751 122.065 135.137 120.437 134.956 118.372C134.775 116.308 136.082 114.425 138.526 114.211C139.818 114.098 140.907 114.569 141.643 115.382L140.346 116.571C139.966 116.109 139.376 115.835 138.645 115.899C137.48 116.001 136.702 116.974 136.81 118.21C136.919 119.46 137.853 120.27 139.047 120.166ZM143.493 121.192L142.571 110.659L144.355 110.503L144.706 114.519C145.156 113.999 145.784 113.576 146.725 113.494C148.256 113.36 149.57 114.306 149.753 116.399L150.122 120.612L148.324 120.769L147.961 116.626C147.879 115.685 147.308 115.141 146.423 115.218C145.524 115.297 145.1 115.942 144.872 116.415L145.276 121.036L143.493 121.192ZM158.563 118.713C157.98 119.655 156.932 120.299 155.598 120.416C153.084 120.636 151.512 119.004 151.332 116.94C151.149 114.847 152.318 113.004 154.635 112.802C156.601 112.629 158.01 113.851 158.172 115.704C158.206 116.098 158.182 116.468 158.147 116.711L153.189 117.145C153.473 118.451 154.335 118.913 155.444 118.816C156.216 118.748 156.861 118.352 157.196 117.813L158.563 118.713ZM154.72 114.266C153.808 114.346 153.248 114.904 153.132 115.848L156.391 115.563C156.3 114.849 155.718 114.179 154.72 114.266ZM159.476 118.76L160.562 117.59C161.046 118.099 161.6 118.447 162.274 118.388C162.85 118.338 163.115 117.975 163.078 117.554C162.97 116.318 159.626 117.077 159.409 114.592C159.299 113.342 160.27 112.308 161.745 112.179C162.826 112.085 163.855 112.518 164.421 113.162L163.332 114.305C162.927 113.887 162.432 113.563 161.884 113.611C161.322 113.66 161.083 113.992 161.115 114.357C161.22 115.565 164.568 114.848 164.782 117.291C164.884 118.782 163.761 119.701 162.427 119.818C161.163 119.929 160.22 119.502 159.476 118.76ZM169.68 117.868L170.766 116.697C171.25 117.207 171.804 117.554 172.478 117.495C173.054 117.445 173.319 117.082 173.282 116.661C173.174 115.425 169.83 116.185 169.612 113.699C169.503 112.449 170.474 111.416 171.949 111.287C173.03 111.192 174.059 111.626 174.624 112.27L173.536 113.412C173.131 112.995 172.636 112.67 172.088 112.718C171.526 112.767 171.287 113.099 171.318 113.465C171.424 114.672 174.772 113.955 174.986 116.399C175.088 117.89 173.965 118.809 172.631 118.925C171.367 119.036 170.424 118.609 169.68 117.868ZM181.201 114.808L180.85 110.791L182.647 110.634L182.991 114.566C183.177 116.687 182.055 118.101 179.977 118.283C177.898 118.465 176.562 117.265 176.376 115.145L176.032 111.212L177.83 111.055L178.181 115.072C178.271 116.097 178.86 116.682 179.843 116.596C180.812 116.512 181.291 115.833 181.201 114.808ZM184.551 118.845C184.489 118.143 184.791 117.55 185.383 117.032C185.077 116.775 184.89 116.41 184.858 116.044C184.808 115.483 185.008 115.012 185.507 114.572C184.849 114.163 184.45 113.49 184.381 112.704C184.261 111.328 185.231 110.125 187.001 109.97C187.549 109.922 188.035 109.978 188.458 110.125L191.042 109.899L191.175 111.416L189.925 111.525C190.015 111.744 190.062 111.966 190.083 112.205C190.205 113.595 189.264 114.81 187.438 114.97C187.199 114.99 186.974 114.996 186.759 114.972C186.617 115.126 186.546 115.288 186.56 115.443C186.584 115.724 186.751 115.85 187.074 115.822L188.858 115.666C190.641 115.51 191.694 116.38 191.809 117.7C191.947 119.273 190.55 120.613 188.345 120.806C186.084 121.003 184.681 120.334 184.551 118.845ZM187.348 113.619C188.093 113.554 188.53 113.048 188.468 112.346C188.407 111.644 187.89 111.236 187.146 111.302C186.373 111.369 185.95 111.873 186.011 112.561C186.072 113.264 186.576 113.686 187.348 113.619ZM186.214 118.445C186.273 119.119 186.956 119.484 188.206 119.374C189.498 119.261 190.116 118.726 190.055 118.024C190.008 117.49 189.652 117.139 188.795 117.214L186.604 117.406C186.359 117.682 186.176 118.009 186.214 118.445ZM192.492 118.15C192.43 117.448 192.732 116.856 193.324 116.337C193.018 116.08 192.83 115.715 192.799 115.35C192.749 114.788 192.949 114.318 193.448 113.878C192.79 113.468 192.391 112.796 192.322 112.009C192.202 110.633 193.172 109.43 194.942 109.275C195.489 109.227 195.976 109.284 196.399 109.431L198.983 109.205L199.116 110.721L197.866 110.831C197.956 111.049 198.003 111.272 198.024 111.51C198.146 112.901 197.205 114.115 195.379 114.275C195.14 114.296 194.914 114.301 194.7 114.278C194.558 114.432 194.487 114.593 194.501 114.748C194.525 115.029 194.692 115.156 195.015 115.127L196.799 114.971C198.582 114.815 199.635 115.686 199.75 117.006C199.888 118.579 198.491 119.918 196.286 120.111C194.025 120.309 192.622 119.639 192.492 118.15ZM195.289 112.924C196.034 112.859 196.471 112.354 196.409 111.652C196.348 110.949 195.831 110.542 195.087 110.607C194.314 110.674 193.891 111.178 193.951 111.867C194.013 112.569 194.517 112.992 195.289 112.924ZM194.155 117.75C194.214 118.424 194.897 118.789 196.147 118.68C197.439 118.566 198.057 118.031 197.996 117.329C197.949 116.795 197.593 116.444 196.736 116.519L194.545 116.711C194.3 116.987 194.117 117.315 194.155 117.75ZM203.971 107.636L202.258 107.786L203.515 105.327L205.453 105.157L203.971 107.636ZM206.99 114.476C206.407 115.419 205.36 116.062 204.025 116.179C201.511 116.399 199.939 114.767 199.759 112.703C199.576 110.61 200.745 108.767 203.062 108.565C205.028 108.393 206.437 109.614 206.599 111.468C206.634 111.861 206.609 112.231 206.574 112.475L201.617 112.908C201.901 114.214 202.762 114.676 203.871 114.579C204.644 114.511 205.288 114.115 205.623 113.577L206.99 114.476ZM203.148 110.029C202.235 110.109 201.675 110.667 201.56 111.611L204.818 111.326C204.727 110.612 204.145 109.942 203.148 110.029ZM208.707 115.486L208.088 108.408L209.871 108.252L209.933 108.954C210.354 108.436 210.926 108.018 211.727 107.948C211.966 107.927 212.18 107.951 212.353 107.992L212.507 109.748C212.277 109.711 212.035 109.69 211.712 109.718C210.841 109.795 210.321 110.321 210.094 110.794L210.491 115.33L208.707 115.486ZM217.508 106.452L215.795 106.602L217.051 104.143L218.989 103.973L217.508 106.452ZM220.526 113.292C219.944 114.234 218.896 114.878 217.562 114.995C215.048 115.214 213.476 113.583 213.295 111.519C213.112 109.426 214.281 107.583 216.599 107.38C218.565 107.208 219.974 108.43 220.136 110.283C220.17 110.677 220.146 111.047 220.111 111.29L215.153 111.724C215.437 113.029 216.298 113.492 217.408 113.395C218.18 113.327 218.825 112.931 219.16 112.392L220.526 113.292ZM216.684 108.845C215.771 108.925 215.212 109.483 215.096 110.427L218.354 110.142C218.264 109.428 217.681 108.757 216.684 108.845ZM228.604 112.585C228.022 113.528 226.974 114.171 225.64 114.288C223.126 114.508 221.554 112.876 221.373 110.812C221.19 108.719 222.359 106.876 224.677 106.674C226.643 106.502 228.052 107.723 228.214 109.577C228.248 109.97 228.224 110.34 228.189 110.584L223.231 111.017C223.515 112.323 224.376 112.785 225.486 112.688C226.258 112.62 226.903 112.224 227.238 111.686L228.604 112.585ZM224.762 108.138C223.849 108.218 223.29 108.776 223.174 109.72L226.432 109.435C226.342 108.721 225.759 108.051 224.762 108.138ZM229.518 112.632L230.604 111.462C231.088 111.971 231.642 112.319 232.316 112.26C232.891 112.21 233.157 111.847 233.12 111.426C233.012 110.19 229.668 110.949 229.45 108.464C229.341 107.214 230.312 106.181 231.787 106.052C232.868 105.957 233.897 106.391 234.462 107.035L233.374 108.177C232.969 107.76 232.474 107.435 231.926 107.483C231.364 107.532 231.124 107.864 231.156 108.229C231.262 109.437 234.61 108.72 234.824 111.163C234.926 112.655 233.803 113.574 232.469 113.69C231.205 113.801 230.262 113.374 229.518 112.632Z" fill="#161616"/>
<path d="M284.794 107.063C284.619 106.916 284.521 106.718 284.499 106.47C284.478 106.221 284.54 106.009 284.687 105.834L287.811 102.111L284.088 98.9875C283.913 98.8407 283.815 98.6429 283.793 98.3942C283.771 98.1455 283.834 97.9336 283.98 97.7586C284.127 97.5836 284.325 97.4853 284.574 97.4635C284.822 97.4417 285.034 97.5043 285.209 97.6511L289.6 101.336C289.696 101.416 289.766 101.505 289.812 101.604C289.857 101.704 289.885 101.812 289.895 101.929C289.906 102.046 289.897 102.157 289.87 102.263C289.842 102.368 289.788 102.469 289.708 102.564L286.023 106.955C285.876 107.13 285.679 107.229 285.43 107.25C285.181 107.272 284.969 107.21 284.794 107.063Z" fill="#646464"/>
</g>
<defs>
<filter id="filter0_d_5473_14352" x="0.942436" y="128.335" width="340.794" height="204.461" filterUnits="userSpaceOnUse" color-interpolation-filters="sRGB">
<feFlood flood-opacity="0" result="BackgroundImageFix"/>
<feColorMatrix in="SourceAlpha" type="matrix" values="0 0 0 0 0 0 0 0 0 0 0 0 0 0 0 0 0 0 127 0" result="hardAlpha"/>
<feOffset dy="3.57751"/>
<feGaussianBlur stdDeviation="5.36626"/>
<feComposite in2="hardAlpha" operator="out"/>
<feColorMatrix type="matrix" values="0 0 0 0 0.152941 0 0 0 0 0.286275 0 0 0 0 0.588235 0 0 0 0.12 0"/>
<feBlend mode="normal" in2="BackgroundImageFix" result="effect1_dropShadow_5473_14352"/>
<feBlend mode="normal" in="SourceGraphic" in2="effect1_dropShadow_5473_14352" result="shape"/>
</filter>
<filter id="filter1_d_5473_14352" x="-1.93116" y="68.3814" width="326.516" height="96.6407" filterUnits="userSpaceOnUse" color-interpolation-filters="sRGB">
<feFlood flood-opacity="0" result="BackgroundImageFix"/>
<feColorMatrix in="SourceAlpha" type="matrix" values="0 0 0 0 0 0 0 0 0 0 0 0 0 0 0 0 0 0 127 0" result="hardAlpha"/>
<feOffset dy="3.52382"/>
<feGaussianBlur stdDeviation="5.28573"/>
<feComposite in2="hardAlpha" operator="out"/>
<feColorMatrix type="matrix" values="0 0 0 0 0.152941 0 0 0 0 0.286275 0 0 0 0 0.588235 0 0 0 0.12 0"/>
<feBlend mode="normal" in2="BackgroundImageFix" result="effect1_dropShadow_5473_14352"/>
<feBlend mode="normal" in="SourceGraphic" in2="effect1_dropShadow_5473_14352" result="shape"/>
</filter>
<clipPath id="clip0_5473_14352">
<rect width="21.1429" height="21.1429" fill="white" transform="translate(23.9152 114.586) rotate(-5)"/>
</clipPath>
</defs>
</svg>
