<svg width="352" height="372" viewBox="0 0 352 372" fill="none" xmlns="http://www.w3.org/2000/svg">
<path d="M61.4677 42.3111C59.7143 42.3111 58.4652 43.5099 58.4652 45.1512V45.1624C58.4652 46.6973 59.5519 47.8289 61.1036 47.8289C62.2127 47.8289 62.9185 47.2631 63.2154 46.6245H63.3275C63.3275 46.6861 63.3219 46.7477 63.3219 46.8093C63.2602 48.3554 62.7169 49.6102 61.4341 49.6102C60.7227 49.6102 60.2241 49.2405 60.0112 48.6747L59.9944 48.6187H58.5716L58.5828 48.6803C58.8405 49.9183 59.9496 50.7978 61.4341 50.7978C63.4675 50.7978 64.6943 49.1845 64.6943 46.462V46.4508C64.6943 43.5379 63.193 42.3111 61.4677 42.3111ZM61.4621 46.7197C60.5434 46.7197 59.8768 46.0475 59.8768 45.112V45.1008C59.8768 44.1989 60.5882 43.4875 61.4789 43.4875C62.3752 43.4875 63.0754 44.2101 63.0754 45.1344V45.1456C63.0754 46.0587 62.3752 46.7197 61.4621 46.7197Z" fill="#161616"/>
<path d="M67.008 45.3585C67.5234 45.3585 67.8987 44.9664 67.8987 44.4734C67.8987 43.9749 67.5234 43.5883 67.008 43.5883C66.4983 43.5883 66.1174 43.9749 66.1174 44.4734C66.1174 44.9664 66.4983 45.3585 67.008 45.3585ZM67.008 49.515C67.5234 49.515 67.8987 49.1285 67.8987 48.6299C67.8987 48.1313 67.5234 47.7448 67.008 47.7448C66.4983 47.7448 66.1174 48.1313 66.1174 48.6299C66.1174 49.1285 66.4983 49.515 67.008 49.515Z" fill="#161616"/>
<path d="M73.243 50.5961H74.6266V49.0444H75.7134V47.8513H74.6266V42.5128H72.582C71.4841 44.1821 70.3357 46.0419 69.2882 47.8625V49.0444H73.243V50.5961ZM70.6326 47.8849V47.8008C71.4168 46.4284 72.3523 44.9328 73.1814 43.6668H73.2654V47.8849H70.6326Z" fill="#161616"/>
<path d="M78.8338 50.5961H80.279V42.5128H78.8394L76.7275 43.9973V45.3585L78.7385 43.9356H78.8338V50.5961Z" fill="#161616"/>
<rect opacity="0.35" x="289.858" y="42.8203" width="16.0614" height="7.90331" rx="1.65686" stroke="black" stroke-width="0.764706"/>
<path opacity="0.4" d="M307.066 45.2423V48.3016C307.682 48.0425 308.082 47.4398 308.082 46.772C308.082 46.1042 307.682 45.5014 307.066 45.2423Z" fill="black"/>
<rect x="291.005" y="43.9676" width="13.7668" height="5.60872" rx="1.01961" fill="black"/>
<path fill-rule="evenodd" clip-rule="evenodd" d="M279.788 44.1832C281.49 44.1833 283.126 44.8365 284.36 46.0079C284.452 46.0984 284.601 46.0972 284.692 46.0054L285.58 45.1103C285.626 45.0637 285.652 45.0006 285.652 44.9349C285.651 44.8692 285.625 44.8064 285.578 44.7604C282.341 41.6612 277.235 41.6612 273.998 44.7604C273.952 44.8064 273.925 44.8692 273.924 44.9349C273.924 45.0005 273.95 45.0636 273.996 45.1103L274.884 46.0054C274.975 46.0974 275.124 46.0985 275.217 46.0079C276.45 44.8364 278.087 44.1832 279.788 44.1832ZM279.788 47.0953C280.723 47.0953 281.625 47.4425 282.318 48.0695C282.411 48.1584 282.559 48.1565 282.651 48.0651L283.537 47.17C283.584 47.1231 283.61 47.0594 283.609 46.9932C283.608 46.927 283.581 46.8638 283.534 46.8179C281.423 44.8565 278.155 44.8565 276.045 46.8179C275.997 46.8638 275.97 46.927 275.969 46.9932C275.969 47.0594 275.995 47.1231 276.042 47.17L276.928 48.0651C277.019 48.1565 277.167 48.1584 277.261 48.0695C277.953 47.4429 278.854 47.0957 279.788 47.0953ZM281.565 49.0547C281.566 49.1211 281.54 49.185 281.492 49.2315L279.959 50.778C279.914 50.8235 279.852 50.849 279.789 50.849C279.725 50.849 279.663 50.8235 279.618 50.778L278.084 49.2315C278.037 49.185 278.011 49.121 278.012 49.0546C278.014 48.9883 278.042 48.9254 278.092 48.8809C279.071 48.0532 280.506 48.0532 281.485 48.8809C281.535 48.9254 281.563 48.9883 281.565 49.0547Z" fill="black"/>
<path fill-rule="evenodd" clip-rule="evenodd" d="M269.336 42.6929H268.571C268.149 42.6929 267.806 43.0353 267.806 43.4577V50.0862C267.806 50.5086 268.149 50.851 268.571 50.851H269.336C269.758 50.851 270.101 50.5086 270.101 50.0862V43.4577C270.101 43.0353 269.758 42.6929 269.336 42.6929ZM265.002 44.4775H265.766C266.189 44.4775 266.531 44.8199 266.531 45.2423V50.0862C266.531 50.5086 266.189 50.851 265.766 50.851H265.002C264.579 50.851 264.237 50.5086 264.237 50.0862V45.2423C264.237 44.8199 264.579 44.4775 265.002 44.4775ZM262.198 46.2621H261.433C261.01 46.2621 260.668 46.6045 260.668 47.0269V50.0862C260.668 50.5086 261.01 50.851 261.433 50.851H262.198C262.62 50.851 262.963 50.5086 262.963 50.0862V47.0269C262.963 46.6045 262.62 46.2621 262.198 46.2621ZM258.628 47.7917H257.863C257.441 47.7917 257.099 48.1342 257.099 48.5566V50.0862C257.099 50.5086 257.441 50.851 257.863 50.851H258.628C259.051 50.851 259.393 50.5086 259.393 50.0862V48.5566C259.393 48.1342 259.051 47.7917 258.628 47.7917Z" fill="black"/>
<rect x="33.0051" y="62.6568" width="286.045" height="55.0674" rx="16" fill="#F1F1F1"/>
<path d="M47.7148 100.839L47.7148 84.0366L51.9634 84.0366L56.0681 91.0937L60.1727 84.0366L64.4214 84.0366L64.4214 100.839L61.0128 100.839L61.0128 88.7893L57.2683 95.0783L54.8679 95.0783L51.1233 88.7893L51.1233 100.839L47.7148 100.839ZM74.2997 88.2613C78.2363 88.2613 80.9247 91.1657 80.9247 94.7903C80.9247 98.4148 78.2363 101.319 74.2997 101.319C70.3631 101.319 67.6746 98.4148 67.6746 94.7903C67.6746 91.1657 70.3631 88.2613 74.2997 88.2613ZM74.3477 98.4389C76.292 98.4389 77.7562 96.8786 77.7562 94.7903C77.7562 92.678 76.292 91.1417 74.3477 91.1417C72.3314 91.1417 70.8431 92.678 70.8431 94.7903C70.8431 96.9026 72.3314 98.4389 74.3477 98.4389ZM83.7052 100.839L83.7052 88.7413L86.7537 88.7413L86.7537 89.7015C87.5938 88.8854 88.722 88.2613 90.3302 88.2613C92.9466 88.2613 95.035 90.0615 95.035 93.6381L95.035 100.839L91.9625 100.839L91.9625 93.7581C91.9625 92.1499 91.0503 91.1417 89.5621 91.1417C88.0259 91.1417 87.2097 92.1739 86.7537 92.942L86.7537 100.839L83.7052 100.839ZM104.966 106.744L104.966 88.7413L108.015 88.7413L108.015 89.7255C108.951 88.7893 110.127 88.2613 111.783 88.2613C115.624 88.2613 117.928 91.2617 117.928 94.7903C117.928 98.3188 115.624 101.319 111.783 101.319C110.127 101.319 108.951 100.791 108.015 99.8551L108.015 106.744L104.966 106.744ZM111.351 91.1417C109.935 91.1417 108.783 91.7658 108.015 92.894L108.015 96.6866C108.831 97.8388 109.959 98.4389 111.351 98.4389C113.416 98.4389 114.76 96.9026 114.76 94.7903C114.76 92.678 113.416 91.1417 111.351 91.1417ZM120.719 100.839L120.719 88.7413L123.767 88.7413L123.767 89.9415C124.559 89.1254 125.592 88.5013 126.96 88.5013C127.368 88.5013 127.728 88.5733 128.016 88.6693L128.016 91.6698C127.632 91.5738 127.224 91.5018 126.672 91.5018C125.183 91.5018 124.223 92.3179 123.767 93.086L123.767 100.839L120.719 100.839ZM135.715 88.2613C139.652 88.2613 142.341 91.1657 142.341 94.7903C142.341 98.4148 139.652 101.319 135.715 101.319C131.779 101.319 129.09 98.4148 129.09 94.7903C129.09 91.1657 131.779 88.2613 135.715 88.2613ZM135.763 98.4389C137.708 98.4389 139.172 96.8786 139.172 94.7903C139.172 92.678 137.708 91.1417 135.763 91.1417C133.747 91.1417 132.259 92.678 132.259 94.7903C132.259 96.9026 133.747 98.4389 135.763 98.4389ZM143.492 88.7413L145.748 88.7413L145.748 87.4691C145.748 84.9007 147.453 82.8364 150.477 82.8364C151.581 82.8364 152.518 83.1005 153.286 83.5085L151.989 86.0529C151.629 85.7889 151.149 85.5728 150.525 85.5728C149.493 85.5728 148.821 86.293 148.821 87.3971L148.821 88.7413L152.518 88.7413L152.518 91.4778L148.821 91.4778L148.821 100.839L145.748 100.839L145.748 91.4778L143.492 91.4778L143.492 88.7413ZM156.338 86.629C155.258 86.629 154.346 85.7169 154.346 84.6367C154.346 83.5565 155.258 82.6444 156.338 82.6444C157.419 82.6444 158.307 83.5565 158.307 84.6367C158.307 85.7169 157.419 86.629 156.338 86.629ZM154.802 100.839L154.802 88.7413L157.851 88.7413L157.851 100.839L154.802 100.839ZM161.506 100.839L161.506 82.8364L164.555 82.8364L164.555 100.839L161.506 100.839Z" fill="#3B69D1"/>
<g filter="url(#filter0_d_5600_14247)">
<rect x="270.101" y="71.8347" width="36.7116" height="36.7116" rx="18.3529" fill="#3B69D1" shape-rendering="crispEdges"/>
<path d="M288.456 90.1905C290.147 90.1905 291.516 88.8215 291.516 87.1312C291.516 85.4409 290.147 84.0719 288.456 84.0719C286.766 84.0719 285.397 85.4409 285.397 87.1312C285.397 88.8215 286.766 90.1905 288.456 90.1905ZM288.456 85.6016C289.298 85.6016 289.986 86.2899 289.986 87.1312C289.986 87.9725 289.298 88.6609 288.456 88.6609C287.615 88.6609 286.927 87.9725 286.927 87.1312C286.927 86.2899 287.615 85.6016 288.456 85.6016ZM288.456 90.9553C286.414 90.9553 282.338 91.9802 282.338 94.0146V95.5443C282.338 95.9649 282.682 96.3091 283.103 96.3091H293.81C294.231 96.3091 294.575 95.9649 294.575 95.5443V94.0146C294.575 91.9802 290.499 90.9553 288.456 90.9553ZM293.045 94.7795H283.868V94.0223C284.02 93.4716 286.391 92.485 288.456 92.485C290.522 92.485 292.892 93.4716 293.045 94.0146V94.7795Z" fill="white"/>
<rect x="270.483" y="72.2171" width="35.9469" height="35.9469" rx="17.9706" stroke="#3B69D1" stroke-width="0.764706" shape-rendering="crispEdges"/>
</g>
<rect x="32.2405" y="168.948" width="288.376" height="173.502" rx="10.4713" transform="rotate(-5.5659 32.2405 168.948)" fill="#F1F1F1" stroke="#878787" stroke-width="0.910548" stroke-dasharray="4.55 4.55"/>
<g filter="url(#filter1_d_5600_14247)">
<rect x="16.2232" y="154.75" width="289.058" height="173.395" rx="6.70175" transform="rotate(-5.56962 16.2232 154.75)" fill="white" shape-rendering="crispEdges"/>
<path d="M43.484 190.002C44.8183 189.872 45.8055 189.119 46.3799 188.103L48.3877 189.355C47.4618 190.911 45.8184 192.014 43.7003 192.22C40.0145 192.58 37.2197 189.99 36.8944 186.654C36.5691 183.319 38.811 180.238 42.4968 179.879C44.6149 179.672 46.4421 180.453 47.6477 181.767L45.9213 183.4C45.1615 182.515 44.0474 181.967 42.7131 182.097C40.5116 182.311 39.1114 184.182 39.3294 186.417C39.5473 188.652 41.2825 190.217 43.484 190.002ZM48.2037 179.659L50.7221 179.413L55.064 188.199L57.6267 178.74L60.1451 178.494L56.8639 190.6L53.7618 190.902L48.2037 179.659Z" fill="#161616"/>
<path d="M39.9831 220.91L39.8712 219.763L47.3162 219.037L47.4281 220.184L44.3327 220.486L45.1316 228.678L43.8774 228.801L43.0785 220.609L39.9831 220.91ZM51.5464 220.187L50.439 220.295L51.6106 217.945L52.8914 217.82L51.5464 220.187ZM54.7599 226.622C54.2148 227.523 53.2662 228.155 52.012 228.277C49.7438 228.498 48.1802 226.967 47.989 225.006C47.7899 222.964 48.9426 221.249 51.024 221.046C52.8519 220.868 54.1643 222.033 54.3256 223.687C54.3517 223.954 54.3364 224.211 54.3145 224.402L49.1511 224.906C49.3485 226.516 50.4709 227.39 51.9118 227.249C52.7791 227.165 53.4739 226.693 53.8556 226.05L54.7599 226.622ZM51.091 222.009C49.9836 222.117 49.2735 222.846 49.1465 224.031L53.1759 223.638C53.0396 222.654 52.2785 221.893 51.091 222.009ZM56.6432 227.556L55.6674 217.549L56.8015 217.439L57.7773 227.445L56.6432 227.556ZM62.83 219.087L61.7226 219.195L62.8942 216.844L64.1751 216.719L62.83 219.087ZM66.0436 225.521C65.4984 226.423 64.5498 227.054 63.2956 227.177C61.0275 227.398 59.4639 225.867 59.2726 223.905C59.0735 221.864 60.2263 220.149 62.3077 219.946C64.1356 219.767 65.4479 220.932 65.6093 222.587C65.6353 222.854 65.62 223.111 65.5982 223.302L60.4347 223.805C60.6322 225.416 61.7545 226.29 63.1955 226.149C64.0627 226.065 64.7575 225.593 65.1393 224.949L66.0436 225.521ZM62.3747 220.909C61.2672 221.017 60.5571 221.746 60.4302 222.93L64.4596 222.537C64.3232 221.554 63.5621 220.793 62.3747 220.909ZM70.9181 225.356C71.7453 225.275 72.3868 224.808 72.7431 224.181L73.7034 224.774C73.1583 225.676 72.2363 226.305 71.0089 226.424C68.7807 226.642 67.1904 225.113 66.9992 223.152C66.8079 221.19 68.0729 219.383 70.3011 219.166C71.5152 219.048 72.5559 219.498 73.2636 220.265L72.4361 221.032C71.9652 220.485 71.2457 220.152 70.4052 220.234C68.9642 220.374 68.0474 221.608 68.1866 223.036C68.3271 224.477 69.4638 225.497 70.9181 225.356ZM75.3667 225.73L74.3909 215.723L75.525 215.613L75.9192 219.655C76.4077 219.002 77.0599 218.507 78.0606 218.409C79.5682 218.262 80.7879 219.167 80.9739 221.075L81.3708 225.145L80.2367 225.255L79.8437 221.226C79.7266 220.025 78.9919 219.396 77.9378 219.499C76.9505 219.595 76.406 220.228 76.0467 220.963L76.5008 225.619L75.3667 225.73ZM85.4997 224.93C84.1788 225.059 83.2133 224.413 83.1014 223.265C83.0025 222.251 83.7061 221.455 85.1103 221.076L87.3421 220.481L87.2965 220.014C87.2054 219.08 86.4863 218.611 85.5256 218.705C84.7518 218.781 84.1598 219.202 83.8022 219.816L82.8845 219.246C83.3935 218.388 84.2927 217.802 85.4668 217.687C87.1746 217.521 88.2862 218.423 88.4306 219.903L88.8704 224.413L87.7363 224.524L87.653 223.67C87.2098 224.373 86.3669 224.846 85.4997 224.93ZM84.2449 223.113C84.3009 223.687 84.8082 224.055 85.5954 223.978C86.4893 223.891 87.1815 223.393 87.5515 222.629L87.4227 221.308L85.4673 221.836C84.5622 222.086 84.189 222.54 84.2449 223.113ZM91.1456 224.191L90.4898 217.467L91.6239 217.356L91.7059 218.197C92.1423 217.562 92.7183 217.115 93.5722 217.032C93.7857 217.011 93.9884 217.018 94.1537 217.056L94.2617 218.163C94.0564 218.129 93.8537 218.122 93.5868 218.148C92.7062 218.234 92.1767 218.744 91.8295 219.464L92.2797 224.081L91.1456 224.191ZM95.6629 224.977C95.5965 224.296 95.8767 223.717 96.4983 223.184C96.168 222.974 95.9728 222.63 95.9376 222.269C95.8856 221.736 96.1228 221.268 96.6107 220.884C95.9807 220.501 95.5674 219.854 95.4946 219.107C95.3683 217.813 96.2757 216.62 97.8768 216.464C98.3704 216.415 98.8211 216.479 99.1983 216.618L101.693 216.374L101.79 217.362L100.335 217.503C100.555 217.819 100.686 218.197 100.725 218.597C100.85 219.878 99.9557 221.069 98.3412 221.227C98.0077 221.259 97.6823 221.237 97.3943 221.184C97.1336 221.412 96.9969 221.668 97.0216 221.921C97.0489 222.201 97.2152 222.387 97.6288 222.347L99.5501 222.16C101.325 221.986 102.236 222.773 102.354 223.974C102.491 225.388 101.18 226.58 99.1653 226.777C97.1773 226.97 95.7943 226.324 95.6629 224.977ZM98.2674 220.332C99.2414 220.237 99.7367 219.515 99.6574 218.701C99.5767 217.874 98.9513 217.261 97.9773 217.356C96.9766 217.454 96.4946 218.174 96.5753 219.002C96.6559 219.829 97.2667 220.429 98.2674 220.332ZM96.7573 224.735C96.8366 225.549 97.7253 225.961 99.0596 225.831C100.474 225.693 101.313 225.045 101.227 224.165C101.165 223.524 100.755 223.052 99.5543 223.169L97.3795 223.381C96.9464 223.774 96.7052 224.201 96.7573 224.735ZM109.302 221.303C108.757 222.205 107.808 222.836 106.554 222.958C104.286 223.179 102.722 221.648 102.531 219.687C102.332 217.645 103.485 215.93 105.566 215.727C107.394 215.549 108.706 216.714 108.868 218.369C108.894 218.635 108.878 218.893 108.856 219.083L103.693 219.587C103.89 221.198 105.013 222.071 106.454 221.931C107.321 221.846 108.016 221.374 108.398 220.731L109.302 221.303ZM105.633 216.691C104.526 216.799 103.815 217.528 103.688 218.712L107.718 218.319C107.582 217.336 106.82 216.575 105.633 216.691ZM110.586 222.296L110.486 221.268L113.993 216.212L110.124 216.589L110.024 215.562L115.28 215.049L115.381 216.077L111.86 221.134L115.929 220.737L116.03 221.765L110.586 222.296ZM119.796 214.609L121.023 214.489L123.711 219.817L125.319 214.07L126.547 213.951L124.574 220.932L123.08 221.077L119.796 214.609ZM130.875 213.259C133.037 213.048 134.68 214.572 134.872 216.533C135.063 218.494 133.745 220.307 131.583 220.517C129.408 220.73 127.778 219.205 127.587 217.244C127.396 215.282 128.701 213.471 130.875 213.259ZM131.492 219.449C132.893 219.312 133.806 218.038 133.671 216.65C133.534 215.249 132.394 214.189 130.993 214.325C129.552 214.466 128.638 215.727 128.774 217.128C128.911 218.529 130.051 219.589 131.492 219.449ZM137.086 217.435L136.75 213.993L135.482 214.116L135.382 213.089L136.65 212.966L136.486 211.284L137.633 211.172L137.797 212.854L140.132 212.626L140.232 213.653L137.897 213.881L138.233 217.323C138.336 218.377 138.898 218.619 139.712 218.539C140.152 218.497 140.454 218.413 140.697 218.282L140.796 219.296C140.489 219.46 140.134 219.549 139.653 219.596C138.159 219.741 137.246 219.076 137.086 217.435ZM142.521 219.181L141.866 212.457L143 212.346L143.082 213.187C143.518 212.552 144.094 212.105 144.948 212.022C145.161 212.001 145.364 212.008 145.529 212.046L145.637 213.153C145.432 213.119 145.229 213.112 144.963 213.138C144.082 213.224 143.552 213.734 143.205 214.454L143.655 219.071L142.521 219.181ZM153.29 217.013C152.745 217.915 151.796 218.546 150.542 218.669C148.274 218.89 146.71 217.359 146.519 215.397C146.32 213.356 147.472 211.641 149.554 211.438C151.382 211.26 152.694 212.425 152.855 214.079C152.881 214.346 152.866 214.603 152.844 214.794L147.681 215.297C147.878 216.908 149.001 217.782 150.442 217.641C151.309 217.557 152.004 217.085 152.385 216.442L153.29 217.013ZM149.621 212.401C148.513 212.509 147.803 213.238 147.676 214.422L151.706 214.03C151.569 213.046 150.808 212.285 149.621 212.401ZM163.07 216.262C164.324 216.139 165.292 215.425 165.831 214.457L166.907 215.133C166.166 216.377 164.866 217.272 163.185 217.436C160.263 217.721 158.054 215.646 157.793 212.978C157.533 210.309 159.3 207.847 162.222 207.562C163.903 207.399 165.353 208.038 166.319 209.103L165.393 209.974C164.678 209.128 163.591 208.614 162.337 208.737C160.228 208.942 158.885 210.77 159.088 212.852C159.291 214.933 160.962 216.467 163.07 216.262ZM167.116 207.355L168.45 207.225L172.466 214.982L174.908 206.595L176.242 206.465L173.417 216.169L171.762 216.33L167.116 207.355ZM182.594 215.274L181.683 205.934L184.418 205.667C186.286 205.485 187.547 206.399 187.703 208C187.859 209.602 186.797 210.729 184.93 210.911L183.449 211.055L183.848 215.151L182.594 215.274ZM184.549 206.732L183.041 206.879L183.344 209.988L184.852 209.841C185.92 209.737 186.504 209.101 186.406 208.1C186.314 207.153 185.616 206.628 184.549 206.732ZM190.746 206.613L189.719 206.713L190.904 204.361L192.438 204.212L194.041 206.291L193.027 206.39L191.729 204.82L190.746 206.613ZM191.958 207.303C194.12 207.092 195.763 208.615 195.954 210.577C196.146 212.538 194.827 214.35 192.666 214.561C190.491 214.773 188.861 213.248 188.67 211.287C188.478 209.326 189.783 207.515 191.958 207.303ZM192.575 213.492C193.976 213.356 194.889 212.081 194.754 210.694C194.617 209.293 193.476 208.232 192.076 208.369C190.635 208.509 189.72 209.77 189.857 211.171C189.994 212.572 191.134 213.633 192.575 213.492ZM198.106 213.761L197.13 203.754L198.264 203.644L199.24 213.65L198.106 213.761ZM207.506 211.726C206.961 212.628 206.012 213.259 204.758 213.382C202.49 213.603 200.926 212.072 200.735 210.11C200.536 208.069 201.689 206.354 203.77 206.151C205.598 205.973 206.91 207.138 207.072 208.792C207.098 209.059 207.082 209.316 207.061 209.507L201.897 210.011C202.094 211.621 203.217 212.495 204.658 212.354C205.525 212.27 206.22 211.798 206.602 211.155L207.506 211.726ZM203.837 207.114C202.73 207.222 202.019 207.951 201.893 209.136L205.922 208.743C205.786 207.759 205.024 206.998 203.837 207.114ZM218.855 210.62C218.31 211.521 217.361 212.153 216.107 212.275C213.839 212.496 212.275 210.965 212.084 209.004C211.885 206.962 213.037 205.247 215.119 205.044C216.947 204.866 218.259 206.031 218.42 207.685C218.446 207.952 218.431 208.21 218.409 208.4L213.246 208.904C213.443 210.514 214.566 211.388 216.007 211.248C216.874 211.163 217.569 210.691 217.95 210.048L218.855 210.62ZM215.186 206.007C214.078 206.115 213.368 206.845 213.241 208.029L217.271 207.636C217.134 206.652 216.373 205.892 215.186 206.007ZM220.738 211.554L220.082 204.83L221.216 204.719L221.288 205.453C221.738 204.816 222.364 204.338 223.298 204.247C224.272 204.152 225.116 204.514 225.613 205.327C226.075 204.541 226.727 203.912 227.888 203.799C229.329 203.658 230.477 204.516 230.655 206.344L231.065 210.547L229.931 210.658L229.525 206.495C229.416 205.374 228.726 204.795 227.765 204.888C226.911 204.972 226.358 205.511 225.994 206.341C226.022 206.486 226.05 206.632 226.065 206.792L226.475 210.995L225.341 211.105L224.935 206.942C224.826 205.822 224.15 205.241 223.176 205.336C222.255 205.426 221.737 206.055 221.418 206.787L221.872 211.443L220.738 211.554ZM233.671 213.606L232.695 203.6L233.829 203.489L233.907 204.29C234.441 203.551 235.191 203.087 236.191 202.989C238.299 202.784 239.809 204.32 240.001 206.281C240.192 208.243 239.007 210.042 236.899 210.247C235.898 210.345 235.073 210.035 234.407 209.413L234.805 213.496L233.671 213.606ZM236.162 204.07C235.228 204.161 234.458 204.694 234.029 205.544L234.284 208.159C234.884 208.922 235.741 209.283 236.661 209.193C238.089 209.054 238.952 207.825 238.813 206.397C238.674 204.97 237.589 203.93 236.162 204.07ZM242.159 209.465L241.183 199.458L242.317 199.348L243.293 209.355L242.159 209.465ZM248.077 201.83C250.238 201.619 251.882 203.143 252.073 205.104C252.264 207.066 250.946 208.878 248.784 209.088C246.61 209.301 244.979 207.776 244.788 205.815C244.597 203.853 245.902 202.042 248.077 201.83ZM248.694 208.02C250.095 207.883 251.007 206.609 250.872 205.221C250.735 203.82 249.595 202.76 248.194 202.896C246.753 203.037 245.839 204.298 245.975 205.699C246.112 207.1 247.253 208.16 248.694 208.02ZM253.972 199.76C253.531 199.803 253.136 199.478 253.093 199.038C253.051 198.611 253.376 198.216 253.817 198.173C254.257 198.13 254.639 198.456 254.681 198.883C254.724 199.323 254.412 199.717 253.972 199.76ZM254.224 208.289L253.568 201.564L254.702 201.454L255.358 208.178L254.224 208.289ZM260.541 206.743L261.275 205.985C261.799 206.526 262.392 206.805 263.073 206.739C263.82 206.666 264.203 206.171 264.145 205.584C263.998 204.076 260.688 204.938 260.457 202.563C260.354 201.509 261.163 200.554 262.457 200.428C263.418 200.334 264.289 200.707 264.82 201.315L264.098 202.059C263.688 201.587 263.15 201.317 262.563 201.374C261.843 201.444 261.497 201.909 261.548 202.429C261.695 203.937 265.024 203.127 265.248 205.422C265.357 206.678 264.433 207.563 263.178 207.685C262.111 207.789 261.229 207.444 260.541 206.743ZM271.669 203.678L271.294 199.836L272.428 199.725L272.799 203.528C272.995 205.542 271.949 206.83 270.121 207.008C268.307 207.185 267.031 206.124 266.835 204.109L266.464 200.307L267.598 200.196L267.973 204.039C268.102 205.359 268.883 206.051 270.03 205.939C271.151 205.83 271.798 204.999 271.669 203.678ZM275.319 206.232L274.663 199.507L275.797 199.396L275.879 200.237C276.316 199.602 276.892 199.155 277.746 199.072C277.959 199.051 278.162 199.058 278.327 199.096L278.435 200.203C278.23 200.169 278.027 200.162 277.76 200.188C276.88 200.274 276.35 200.784 276.003 201.505L276.453 206.121L275.319 206.232ZM41.7875 242.314L43.015 242.194L45.703 247.522L47.3112 241.775L48.5387 241.656L46.566 248.637L45.0716 248.782L41.7875 242.314ZM52.8671 240.964C55.0286 240.753 56.6722 242.277 56.8635 244.238C57.0547 246.199 55.7364 248.012 53.5749 248.222C51.4001 248.435 49.7698 246.91 49.5786 244.949C49.3873 242.987 50.6923 241.176 52.8671 240.964ZM53.4842 247.154C54.8851 247.017 55.798 245.743 55.6627 244.355C55.5261 242.954 54.3855 241.894 52.9846 242.03C51.5436 242.171 50.6294 243.432 50.7661 244.833C50.9027 246.234 52.0432 247.294 53.4842 247.154ZM59.0774 245.14L58.7417 241.698L57.4742 241.821L57.374 240.794L58.6415 240.671L58.4776 238.989L59.625 238.877L59.789 240.559L62.1239 240.331L62.224 241.358L59.8891 241.586L60.2248 245.028C60.3276 246.082 60.8899 246.324 61.7038 246.244C62.1441 246.202 62.4458 246.118 62.6889 245.987L62.7877 247.001C62.4805 247.165 62.1255 247.254 61.6452 247.301C60.1508 247.446 59.2374 246.781 59.0774 245.14ZM64.5131 246.886L63.8573 240.162L64.9914 240.051L65.0734 240.892C65.5098 240.257 66.0858 239.81 66.9397 239.727C67.1532 239.706 67.3559 239.713 67.5212 239.751L67.6292 240.858C67.4239 240.824 67.2212 240.817 66.9543 240.843C66.0737 240.929 65.5442 241.439 65.197 242.159L65.6472 246.776L64.5131 246.886ZM75.2815 244.718C74.7364 245.62 73.7878 246.251 72.5336 246.374C70.2654 246.595 68.7019 245.064 68.5106 243.102C68.3115 241.061 69.4642 239.346 71.5456 239.143C73.3735 238.965 74.6859 240.13 74.8472 241.784C74.8733 242.051 74.858 242.308 74.8361 242.499L69.6727 243.003C69.8701 244.613 70.9925 245.487 72.4334 245.346C73.3007 245.262 73.9955 244.79 74.3772 244.147L75.2815 244.718ZM71.6126 240.106C70.5052 240.214 69.7951 240.943 69.6682 242.127L73.6975 241.735C73.5612 240.751 72.8001 239.99 71.6126 240.106ZM80.928 243.009L80.5923 239.567L79.3248 239.691L79.2246 238.663L80.4921 238.54L80.3282 236.859L81.4756 236.747L81.6396 238.428L83.9745 238.2L84.0747 239.228L81.7398 239.455L82.0754 242.898C82.1782 243.952 82.7405 244.193 83.5544 244.114C83.9947 244.071 84.2964 243.987 84.5395 243.856L84.6384 244.87C84.3312 245.035 83.9761 245.123 83.4958 245.17C82.0015 245.316 81.088 244.651 80.928 243.009ZM88.8892 236.643L87.7818 236.751L88.9534 234.401L90.2343 234.276L88.8892 236.643ZM92.1028 243.078C91.5576 243.98 90.609 244.611 89.3548 244.733C87.0866 244.955 85.5231 243.423 85.3318 241.462C85.1327 239.421 86.2855 237.705 88.3669 237.502C90.1948 237.324 91.5071 238.489 91.6685 240.144C91.6945 240.411 91.6792 240.668 91.6574 240.859L86.4939 241.362C86.6913 242.973 87.8137 243.846 89.2546 243.706C90.1219 243.621 90.8167 243.15 91.1984 242.506L92.1028 243.078ZM88.4338 238.466C87.3264 238.574 86.6163 239.303 86.4894 240.487L90.5187 240.094C90.3824 239.111 89.6213 238.35 88.4338 238.466ZM93.986 244.012L93.0102 234.006L94.1443 233.895L95.1201 243.902L93.986 244.012ZM100.173 235.543L99.0654 235.651L100.237 233.301L101.518 233.176L100.173 235.543ZM103.386 241.978C102.841 242.879 101.893 243.511 100.638 243.633C98.3703 243.854 96.8067 242.323 96.6154 240.362C96.4164 238.32 97.5691 236.605 99.6505 236.402C101.478 236.224 102.791 237.389 102.952 239.043C102.978 239.31 102.963 239.568 102.941 239.758L97.7775 240.262C97.975 241.872 99.0973 242.746 100.538 242.606C101.406 242.521 102.1 242.049 102.482 241.406L103.386 241.978ZM99.7175 237.365C98.6101 237.473 97.9 238.203 97.773 239.387L101.802 238.994C101.666 238.01 100.905 237.25 99.7175 237.365ZM105.59 246.194L104.614 236.187L105.748 236.077L105.826 236.877C106.36 236.138 107.11 235.675 108.11 235.577C110.218 235.372 111.729 236.908 111.92 238.869C112.111 240.831 110.926 242.63 108.818 242.835C107.817 242.933 106.992 242.623 106.326 242.001L106.724 246.084L105.59 246.194ZM108.081 236.658C107.147 236.749 106.377 237.282 105.948 238.132L106.203 240.747C106.803 241.51 107.66 241.871 108.581 241.781C110.008 241.642 110.872 240.413 110.732 238.985C110.593 237.557 109.509 236.518 108.081 236.658ZM114.078 242.053L113.102 232.046L114.236 231.936L114.63 235.978C115.119 235.325 115.771 234.83 116.771 234.733C118.279 234.586 119.499 235.49 119.685 237.398L120.082 241.468L118.948 241.578L118.555 237.549C118.438 236.348 117.703 235.719 116.649 235.822C115.661 235.918 115.117 236.551 114.758 237.286L115.212 241.943L114.078 242.053ZM124.751 233.954C126.913 233.744 128.557 235.267 128.748 237.228C128.939 239.19 127.621 241.002 125.459 241.213C123.284 241.425 121.654 239.9 121.463 237.939C121.272 235.977 122.577 234.166 124.751 233.954ZM125.368 240.144C126.769 240.007 127.682 238.733 127.547 237.345C127.41 235.944 126.27 234.884 124.869 235.02C123.428 235.161 122.514 236.422 122.65 237.823C122.787 239.224 123.928 240.284 125.368 240.144ZM130.899 240.413L130.243 233.688L131.377 233.578L131.451 234.338C131.94 233.684 132.592 233.19 133.593 233.092C135.1 232.945 136.32 233.85 136.506 235.758L136.903 239.827L135.769 239.938L135.376 235.908C135.259 234.708 134.511 234.08 133.47 234.182C132.496 234.277 131.937 234.897 131.579 235.646L132.033 240.302L130.899 240.413ZM145.055 237.914C144.51 238.816 143.561 239.447 142.307 239.57C140.039 239.791 138.475 238.26 138.284 236.298C138.085 234.257 139.238 232.542 141.319 232.339C143.147 232.161 144.459 233.326 144.621 234.98C144.647 235.247 144.631 235.504 144.61 235.695L139.446 236.199C139.644 237.809 140.766 238.683 142.207 238.542C143.074 238.458 143.769 237.986 144.151 237.343L145.055 237.914ZM141.386 233.302C140.279 233.41 139.569 234.139 139.442 235.323L143.471 234.931C143.335 233.947 142.574 233.186 141.386 233.302ZM150.855 241.78L149.879 231.773L151.013 231.663L151.091 232.463C151.625 231.724 152.374 231.261 153.375 231.163C155.483 230.958 156.993 232.494 157.185 234.455C157.376 236.417 156.191 238.216 154.083 238.421C153.082 238.519 152.257 238.209 151.59 237.587L151.989 241.67L150.855 241.78ZM153.346 232.244C152.412 232.335 151.642 232.868 151.213 233.718L151.468 236.333C152.068 237.096 152.925 237.457 153.845 237.367C155.273 237.228 156.136 235.999 155.997 234.571C155.858 233.143 154.773 232.104 153.346 232.244ZM161.795 230.342C163.956 230.131 165.6 231.655 165.791 233.616C165.982 235.577 164.664 237.39 162.502 237.6C160.328 237.812 158.697 236.288 158.506 234.326C158.315 232.365 159.62 230.554 161.795 230.342ZM162.412 236.532C163.813 236.395 164.725 235.121 164.59 233.733C164.454 232.332 163.313 231.272 161.912 231.408C160.471 231.549 159.557 232.81 159.693 234.211C159.83 235.612 160.971 236.672 162.412 236.532ZM172.344 233.462L171.969 229.619L173.104 229.509L173.474 233.311C173.671 235.326 172.624 236.613 170.797 236.792C168.982 236.968 167.707 235.908 167.51 233.893L167.139 230.09L168.274 229.98L168.648 233.822C168.777 235.143 169.558 235.835 170.706 235.723C171.827 235.614 172.473 234.783 172.344 233.462ZM175.994 236.015L175.339 229.291L176.473 229.18L176.555 230.021C176.991 229.386 177.567 228.939 178.421 228.855C178.634 228.835 178.837 228.842 179.002 228.88L179.11 229.987C178.905 229.953 178.702 229.946 178.436 229.972C177.555 230.058 177.025 230.567 176.678 231.288L177.128 235.905L175.994 236.015ZM185.214 238.43L184.238 228.423L185.372 228.312L185.45 229.113C185.984 228.374 186.733 227.91 187.734 227.813C189.842 227.607 191.352 229.143 191.544 231.105C191.735 233.066 190.55 234.865 188.442 235.071C187.441 235.168 186.616 234.858 185.95 234.236L186.348 238.319L185.214 238.43ZM187.705 228.893C186.771 228.984 186.001 229.517 185.572 230.367L185.827 232.982C186.427 233.745 187.284 234.106 188.204 234.016C189.632 233.877 190.495 232.648 190.356 231.221C190.217 229.793 189.132 228.754 187.705 228.893ZM193.702 234.289L193.046 227.564L194.18 227.453L194.262 228.294C194.698 227.659 195.274 227.212 196.128 227.129C196.342 227.108 196.544 227.115 196.71 227.153L196.818 228.26C196.612 228.226 196.41 228.219 196.143 228.245C195.262 228.331 194.733 228.841 194.385 229.562L194.836 234.178L193.702 234.289ZM201.256 225.686L200.149 225.794L201.321 223.444L202.602 223.319L201.256 225.686ZM204.47 232.12C203.925 233.022 202.976 233.653 201.722 233.776C199.454 233.997 197.89 232.466 197.699 230.504C197.5 228.463 198.653 226.748 200.734 226.545C202.562 226.367 203.874 227.532 204.036 229.186C204.062 229.453 204.046 229.71 204.025 229.901L198.861 230.405C199.059 232.015 200.181 232.889 201.622 232.748C202.489 232.664 203.184 232.192 203.566 231.549L204.47 232.12ZM200.801 227.508C199.694 227.616 198.984 228.345 198.857 229.53L202.886 229.137C202.75 228.153 201.989 227.392 200.801 227.508ZM206.673 236.337L205.698 226.33L206.832 226.22L206.91 227.02C207.444 226.281 208.193 225.818 209.194 225.72C211.302 225.514 212.812 227.051 213.003 229.012C213.195 230.973 212.01 232.773 209.902 232.978C208.901 233.076 208.076 232.766 207.409 232.144L207.807 236.226L206.673 236.337ZM209.165 226.8C208.231 226.891 207.461 227.424 207.032 228.274L207.287 230.889C207.887 231.653 208.744 232.014 209.664 231.924C211.092 231.785 211.955 230.555 211.816 229.128C211.677 227.7 210.592 226.661 209.165 226.8ZM216.89 232.216C215.569 232.345 214.604 231.698 214.492 230.551C214.393 229.537 215.097 228.741 216.501 228.361L218.733 227.766L218.687 227.299C218.596 226.366 217.877 225.897 216.916 225.991C216.142 226.066 215.55 226.487 215.193 227.101L214.275 226.531C214.784 225.673 215.683 225.087 216.857 224.973C218.565 224.806 219.677 225.708 219.821 227.189L220.261 231.699L219.127 231.809L219.043 230.955C218.6 231.658 217.757 232.131 216.89 232.216ZM215.635 230.399C215.691 230.972 216.199 231.34 216.986 231.264C217.88 231.177 218.572 230.678 218.942 229.915L218.813 228.594L216.858 229.121C215.953 229.371 215.579 229.825 215.635 230.399ZM222.536 231.477L221.88 224.752L223.014 224.642L223.096 225.482C223.533 224.847 224.109 224.4 224.963 224.317C225.176 224.296 225.379 224.303 225.544 224.341L225.652 225.448C225.447 225.415 225.244 225.407 224.977 225.433C224.097 225.519 223.567 226.029 223.22 226.75L223.67 231.366L222.536 231.477ZM233.305 229.309C232.759 230.21 231.811 230.842 230.557 230.964C228.288 231.185 226.725 229.654 226.534 227.693C226.334 225.651 227.487 223.936 229.569 223.733C231.396 223.555 232.709 224.72 232.87 226.374C232.896 226.641 232.881 226.899 232.859 227.089L227.696 227.593C227.893 229.203 229.015 230.077 230.456 229.937C231.324 229.852 232.018 229.38 232.4 228.737L233.305 229.309ZM229.636 224.696C228.528 224.804 227.818 225.534 227.691 226.718L231.72 226.325C231.584 225.341 230.823 224.581 229.636 224.696ZM235.188 230.243L234.532 223.518L235.666 223.408L235.748 224.248C236.184 223.613 236.761 223.166 237.614 223.083C237.828 223.062 238.031 223.07 238.196 223.107L238.304 224.215C238.099 224.181 237.896 224.174 237.629 224.2C236.748 224.286 236.219 224.795 235.872 225.516L236.322 230.132L235.188 230.243ZM242.417 222.75L243.645 222.63L246.333 227.957L247.941 222.211L249.168 222.091L247.196 229.072L245.701 229.218L242.417 222.75ZM253.497 221.4C255.658 221.189 257.302 222.712 257.493 224.674C257.684 226.635 256.366 228.447 254.205 228.658C252.03 228.87 250.4 227.345 250.208 225.384C250.017 223.423 251.322 221.612 253.497 221.4ZM254.114 227.589C255.515 227.453 256.428 226.178 256.292 224.791C256.156 223.39 255.015 222.329 253.614 222.466C252.173 222.606 251.259 223.867 251.396 225.268C251.532 226.669 252.673 227.73 254.114 227.589ZM258.652 227.026L259.386 226.267C259.91 226.809 260.503 227.087 261.183 227.021C261.931 226.948 262.313 226.453 262.256 225.866C262.109 224.358 258.799 225.22 258.567 222.845C258.464 221.791 259.274 220.836 260.568 220.71C261.529 220.616 262.4 220.989 262.931 221.598L262.209 222.342C261.799 221.87 261.261 221.599 260.674 221.656C259.953 221.726 259.608 222.191 259.659 222.711C259.806 224.219 263.134 223.41 263.358 225.705C263.467 226.96 262.543 227.845 261.289 227.967C260.222 228.071 259.34 227.726 258.652 227.026ZM45.7187 272.131L44.7429 262.124L45.877 262.013L45.955 262.814C46.4891 262.075 47.2386 261.611 48.2392 261.514C50.3473 261.308 51.8575 262.844 52.0488 264.806C52.24 266.767 51.0551 268.566 48.947 268.772C47.9464 268.869 47.1214 268.559 46.4547 267.937L46.8528 272.02L45.7187 272.131ZM48.2099 262.594C47.2759 262.685 46.5063 263.218 46.0774 264.068L46.3324 266.683C46.9321 267.446 47.7889 267.807 48.7095 267.717C50.1371 267.578 51.0005 266.349 50.8613 264.921C50.7221 263.494 49.6375 262.455 48.2099 262.594ZM54.2066 267.989L53.5509 261.265L54.685 261.154L54.767 261.995C55.2034 261.36 55.7794 260.913 56.6333 260.83C56.8468 260.809 57.0495 260.816 57.2148 260.854L57.3228 261.961C57.1175 261.927 56.9147 261.92 56.6479 261.946C55.7673 262.032 55.2378 262.542 54.8906 263.262L55.3407 267.879L54.2066 267.989ZM61.4927 260.221C63.6542 260.01 65.2978 261.534 65.4891 263.495C65.6803 265.456 64.362 267.269 62.2005 267.479C60.0257 267.691 58.3954 266.167 58.2042 264.205C58.0129 262.244 59.3179 260.433 61.4927 260.221ZM62.1098 266.411C63.5107 266.274 64.4236 265 64.2883 263.612C64.1517 262.211 63.0111 261.151 61.6102 261.287C60.1692 261.428 59.255 262.689 59.3916 264.09C59.5283 265.491 60.6688 266.551 62.1098 266.411ZM70.7227 265.571C71.5499 265.49 72.1913 265.023 72.5477 264.396L73.508 264.989C72.9628 265.891 72.0409 266.52 70.8134 266.639C68.5852 266.857 66.995 265.328 66.8037 263.367C66.6125 261.405 67.8774 259.598 70.1056 259.381C71.3198 259.263 72.3604 259.714 73.0682 260.48L72.2406 261.247C71.7698 260.701 71.0503 260.367 70.2097 260.449C68.7687 260.589 67.852 261.823 67.9912 263.251C68.1317 264.692 69.2683 265.713 70.7227 265.571ZM75.1713 265.945L74.1955 255.938L75.3295 255.828L75.7238 259.87C76.2123 259.217 76.8644 258.722 77.8651 258.625C79.3728 258.477 80.5924 259.382 80.7785 261.29L81.1753 265.36L80.0412 265.47L79.6483 261.441C79.5312 260.24 78.7964 259.611 77.7424 259.714C76.755 259.81 76.2106 260.443 75.8513 261.178L76.3054 265.834L75.1713 265.945ZM85.3042 265.146C83.9833 265.274 83.0178 264.628 82.9059 263.48C82.807 262.466 83.5106 261.67 84.9148 261.291L87.1466 260.696L87.1011 260.229C87.01 259.295 86.2908 258.827 85.3302 258.92C84.5563 258.996 83.9644 259.417 83.6067 260.031L82.689 259.461C83.198 258.603 84.0972 258.017 85.2713 257.902C86.9791 257.736 88.0907 258.638 88.2352 260.119L88.6749 264.628L87.5408 264.739L87.4576 263.885C87.0143 264.588 86.1715 265.061 85.3042 265.146ZM84.0495 263.328C84.1054 263.902 84.6127 264.27 85.3999 264.193C86.2939 264.106 86.986 263.608 87.3561 262.844L87.2273 261.523L85.2718 262.051C84.3668 262.301 83.9935 262.755 84.0495 263.328ZM90.6976 255.878C90.2573 255.921 89.862 255.596 89.819 255.156C89.7774 254.729 90.1025 254.333 90.5428 254.29C90.9831 254.247 91.3651 254.574 91.4068 255.001C91.4497 255.441 91.1379 255.835 90.6976 255.878ZM90.9501 264.406L90.2944 257.682L91.4285 257.571L92.0842 264.296L90.9501 264.406ZM94.4811 264.062L93.8254 257.338L94.9595 257.227L95.0336 257.987C95.5221 257.334 96.1743 256.839 97.175 256.742C98.6826 256.594 99.9023 257.499 100.088 259.407L100.485 263.477L99.3511 263.587L98.9581 259.558C98.841 258.357 98.0929 257.73 97.0522 257.831C96.0782 257.926 95.5191 258.546 95.1611 259.295L95.6152 263.951L94.4811 264.062ZM108.637 261.564C108.092 262.465 107.144 263.097 105.889 263.219C103.621 263.44 102.058 261.909 101.866 259.948C101.667 257.906 102.82 256.191 104.901 255.988C106.729 255.81 108.042 256.975 108.203 258.629C108.229 258.896 108.214 259.154 108.192 259.344L103.028 259.848C103.226 261.458 104.348 262.332 105.789 262.192C106.656 262.107 107.351 261.635 107.733 260.992L108.637 261.564ZM104.968 256.951C103.861 257.059 103.151 257.789 103.024 258.973L107.053 258.58C106.917 257.596 106.156 256.836 104.968 256.951ZM109.658 261.653L110.392 260.894C110.917 261.436 111.509 261.715 112.19 261.648C112.937 261.575 113.32 261.08 113.263 260.493C113.116 258.985 109.805 259.847 109.574 257.472C109.471 256.418 110.28 255.464 111.575 255.337C112.535 255.244 113.407 255.617 113.937 256.225L113.215 256.969C112.806 256.497 112.267 256.226 111.68 256.283C110.96 256.354 110.614 256.818 110.665 257.339C110.812 258.846 114.141 258.037 114.365 260.332C114.474 261.587 113.55 262.472 112.296 262.594C111.228 262.698 110.346 262.353 109.658 261.653ZM122.997 260.473C123.825 260.392 124.466 259.926 124.822 259.298L125.783 259.892C125.238 260.793 124.316 261.422 123.088 261.542C120.86 261.759 119.27 260.231 119.078 258.269C118.887 256.308 120.152 254.501 122.38 254.284C123.595 254.165 124.635 254.616 125.343 255.382L124.515 256.15C124.044 255.603 123.325 255.269 122.484 255.351C121.043 255.491 120.127 256.726 120.266 258.153C120.406 259.594 121.543 260.615 122.997 260.473ZM129.201 260.865C127.88 260.994 126.915 260.347 126.803 259.2C126.704 258.186 127.407 257.39 128.812 257.01L131.043 256.416L130.998 255.949C130.907 255.015 130.188 254.546 129.227 254.64C128.453 254.715 127.861 255.136 127.503 255.751L126.586 255.18C127.095 254.322 127.994 253.736 129.168 253.622C130.876 253.455 131.987 254.357 132.132 255.838L132.572 260.348L131.438 260.458L131.354 259.604C130.911 260.308 130.068 260.78 129.201 260.865ZM127.946 259.048C128.002 259.621 128.509 259.989 129.297 259.913C130.191 259.826 130.883 259.327 131.253 258.564L131.124 257.243L129.169 257.77C128.264 258.02 127.89 258.474 127.946 259.048ZM134.847 260.126L134.191 253.401L135.325 253.291L135.399 254.051C135.888 253.397 136.54 252.903 137.541 252.805C139.048 252.658 140.268 253.563 140.454 255.471L140.851 259.54L139.717 259.651L139.324 255.622C139.207 254.421 138.459 253.793 137.418 253.895C136.444 253.99 135.885 254.61 135.527 255.359L135.981 260.015L134.847 260.126ZM142.232 256.011C142.041 254.05 143.226 252.251 145.334 252.045C146.334 251.948 147.159 252.258 147.826 252.88L147.428 248.797L148.562 248.686L149.538 258.693L148.404 258.804L148.326 258.003C147.792 258.742 147.042 259.206 146.042 259.303C143.934 259.509 142.423 257.973 142.232 256.011ZM143.433 255.894C143.572 257.322 144.643 258.362 146.071 258.223C147.005 258.132 147.788 257.598 148.205 256.762L147.947 254.121C147.349 253.371 146.492 253.01 145.571 253.1C144.144 253.239 143.294 254.467 143.433 255.894ZM151.676 249.932C151.236 249.975 150.84 249.65 150.798 249.209C150.756 248.782 151.081 248.387 151.521 248.344C151.962 248.301 152.344 248.627 152.385 249.054C152.428 249.495 152.116 249.889 151.676 249.932ZM151.929 258.46L151.273 251.736L152.407 251.625L153.063 258.349L151.929 258.46ZM154.558 254.809C154.367 252.848 155.552 251.049 157.66 250.843C158.66 250.746 159.485 251.056 160.152 251.678L159.754 247.595L160.888 247.484L161.864 257.491L160.73 257.602L160.652 256.801C160.118 257.54 159.368 258.004 158.368 258.102C156.26 258.307 154.749 256.771 154.558 254.809ZM155.759 254.692C155.898 256.12 156.969 257.16 158.397 257.021C159.331 256.93 160.114 256.396 160.531 255.56L160.273 252.919C159.675 252.169 158.818 251.808 157.897 251.898C156.47 252.037 155.62 253.265 155.759 254.692ZM166.101 257.267C164.78 257.395 163.814 256.749 163.702 255.601C163.604 254.587 164.307 253.791 165.711 253.412L167.943 252.817L167.898 252.35C167.807 251.416 167.087 250.948 166.127 251.041C165.353 251.117 164.761 251.538 164.403 252.152L163.486 251.582C163.995 250.724 164.894 250.138 166.068 250.023C167.776 249.857 168.887 250.759 169.032 252.24L169.471 256.749L168.337 256.86L168.254 256.006C167.811 256.709 166.968 257.182 166.101 257.267ZM164.846 255.449C164.902 256.023 165.409 256.391 166.196 256.314C167.09 256.227 167.783 255.729 168.153 254.965L168.024 253.644L166.068 254.172C165.163 254.422 164.79 254.876 164.846 255.449ZM171.914 254.235L171.578 250.793L170.31 250.916L170.21 249.889L171.478 249.765L171.314 248.084L172.461 247.972L172.625 249.653L174.96 249.426L175.06 250.453L172.725 250.681L173.061 254.123C173.164 255.177 173.726 255.419 174.54 255.339C174.98 255.296 175.282 255.213 175.525 255.081L175.624 256.095C175.317 256.26 174.962 256.349 174.481 256.395C172.987 256.541 172.074 255.876 171.914 254.235ZM181.712 252.646L181.338 248.804L182.472 248.693L182.843 252.496C183.039 254.51 181.993 255.798 180.165 255.976C178.35 256.153 177.075 255.092 176.879 253.077L176.508 249.275L177.642 249.164L178.017 253.007C178.145 254.328 178.927 255.019 180.074 254.907C181.195 254.798 181.841 253.967 181.712 252.646ZM185.363 255.2L184.707 248.475L185.841 248.365L185.923 249.205C186.359 248.57 186.935 248.123 187.789 248.04C188.003 248.019 188.205 248.026 188.371 248.064L188.479 249.171C188.273 249.138 188.071 249.13 187.804 249.156C186.923 249.242 186.394 249.752 186.046 250.473L186.497 255.089L185.363 255.2ZM196.131 253.032C195.586 253.933 194.637 254.565 193.383 254.687C191.115 254.908 189.551 253.377 189.36 251.416C189.161 249.374 190.314 247.659 192.395 247.456C194.223 247.278 195.535 248.443 195.697 250.097C195.723 250.364 195.707 250.622 195.686 250.812L190.522 251.316C190.72 252.926 191.842 253.8 193.283 253.66C194.15 253.575 194.845 253.103 195.227 252.46L196.131 253.032ZM192.462 248.419C191.355 248.527 190.645 249.257 190.518 250.441L194.547 250.048C194.411 249.064 193.65 248.304 192.462 248.419ZM197.152 253.121L197.886 252.362C198.41 252.904 199.003 253.183 199.684 253.116C200.431 253.043 200.814 252.548 200.756 251.961C200.609 250.453 197.299 251.315 197.068 248.94C196.965 247.886 197.774 246.932 199.068 246.805C200.029 246.712 200.9 247.085 201.431 247.693L200.709 248.437C200.299 247.965 199.761 247.694 199.174 247.751C198.454 247.822 198.108 248.286 198.159 248.807C198.306 250.314 201.635 249.505 201.859 251.8C201.968 253.055 201.044 253.94 199.789 254.062C198.722 254.166 197.84 253.821 197.152 253.121Z" fill="#161616"/>
<path d="M255.145 268.661L256.312 268.547L259.826 275.335L261.963 267.996L263.13 267.883L260.658 276.373L259.211 276.515L255.145 268.661ZM266.735 269.605C268.626 269.421 270.064 270.754 270.232 272.47C270.399 274.186 269.246 275.772 267.354 275.956C265.451 276.142 264.025 274.808 263.858 273.091C263.69 271.375 264.832 269.791 266.735 269.605ZM267.275 275.021C268.501 274.902 269.3 273.787 269.181 272.572C269.062 271.347 268.064 270.419 266.838 270.538C265.577 270.661 264.777 271.764 264.897 272.99C265.016 274.216 266.014 275.144 267.275 275.021ZM271.893 267.794C271.508 267.832 271.162 267.547 271.124 267.162C271.088 266.788 271.372 266.442 271.758 266.405C272.143 266.367 272.477 266.653 272.514 267.026C272.551 267.412 272.278 267.756 271.893 267.794ZM272.114 275.256L271.54 269.372L272.533 269.276L273.106 275.16L272.114 275.256ZM275.204 274.955L274.63 269.071L275.622 268.974L275.694 269.71C276.076 269.154 276.58 268.763 277.327 268.69C277.514 268.672 277.691 268.678 277.836 268.711L277.93 269.68C277.751 269.651 277.573 269.644 277.34 269.667C276.569 269.742 276.106 270.188 275.802 270.819L276.196 274.858L275.204 274.955Z" fill="#161616"/>
<path d="M286.942 273.75C286.756 273.614 286.651 273.427 286.628 273.191C286.605 272.955 286.672 272.752 286.829 272.582L290.167 268.974L286.194 266.078C286.008 265.942 285.903 265.756 285.88 265.519C285.857 265.283 285.924 265.08 286.08 264.911C286.237 264.741 286.449 264.643 286.714 264.617C286.98 264.591 287.206 264.646 287.393 264.783L292.079 268.198C292.181 268.272 292.256 268.356 292.305 268.45C292.353 268.543 292.383 268.645 292.393 268.757C292.404 268.868 292.395 268.974 292.366 269.075C292.336 269.176 292.278 269.273 292.193 269.365L288.255 273.622C288.098 273.791 287.887 273.889 287.621 273.915C287.355 273.941 287.129 273.886 286.942 273.75Z" fill="#161616"/>
</g>
<defs>
<filter id="filter0_d_5600_14247" x="260.923" y="65.7161" width="55.0676" height="55.0674" filterUnits="userSpaceOnUse" color-interpolation-filters="sRGB">
<feFlood flood-opacity="0" result="BackgroundImageFix"/>
<feColorMatrix in="SourceAlpha" type="matrix" values="0 0 0 0 0 0 0 0 0 0 0 0 0 0 0 0 0 0 127 0" result="hardAlpha"/>
<feOffset dy="3.05882"/>
<feGaussianBlur stdDeviation="4.58824"/>
<feComposite in2="hardAlpha" operator="out"/>
<feColorMatrix type="matrix" values="0 0 0 0 0.152941 0 0 0 0 0.286275 0 0 0 0 0.588235 0 0 0 0.12 0"/>
<feBlend mode="normal" in2="BackgroundImageFix" result="effect1_dropShadow_5600_14247"/>
<feBlend mode="normal" in="SourceGraphic" in2="effect1_dropShadow_5600_14247" result="shape"/>
</filter>
<filter id="filter1_d_5600_14247" x="-4.72302" y="110.777" width="346.414" height="242.524" filterUnits="userSpaceOnUse" color-interpolation-filters="sRGB">
<feFlood flood-opacity="0" result="BackgroundImageFix"/>
<feColorMatrix in="SourceAlpha" type="matrix" values="0 0 0 0 0 0 0 0 0 0 0 0 0 0 0 0 0 0 127 0" result="hardAlpha"/>
<feOffset dy="5.02632"/>
<feGaussianBlur stdDeviation="10.4715"/>
<feComposite in2="hardAlpha" operator="out"/>
<feColorMatrix type="matrix" values="0 0 0 0 0.196078 0 0 0 0 0.196078 0 0 0 0 0.196078 0 0 0 0.1 0"/>
<feBlend mode="normal" in2="BackgroundImageFix" result="effect1_dropShadow_5600_14247"/>
<feBlend mode="normal" in="SourceGraphic" in2="effect1_dropShadow_5600_14247" result="shape"/>
</filter>
</defs>
</svg>
