<svg width="352" height="372" viewBox="0 0 352 372" fill="none"
    xmlns="http://www.w3.org/2000/svg">
    <rect x="16.2465" y="113.815" width="313.535" height="227.982" rx="12.667" transform="rotate(-5 16.2465 113.815)" fill="#F1F1F1" stroke="#878787" stroke-width="1.10148" stroke-dasharray="5.51 5.51"/>
    <path d="M12.8132 78.619C14.5353 78.4683 15.818 77.5101 16.5718 76.2078L19.1447 77.8482C17.9309 79.8415 15.7975 81.2429 13.0636 81.4821C8.30623 81.8983 4.73552 78.5231 4.35885 74.2178C3.98218 69.9124 6.91255 65.9685 11.67 65.5523C14.4039 65.3131 16.75 66.3442 18.2878 68.0535L16.0406 70.1372C15.0722 68.9856 13.6426 68.2647 11.9205 68.4153C9.07892 68.6639 7.24939 71.0582 7.50176 73.9428C7.75413 76.8274 9.97163 78.8676 12.8132 78.619ZM31.287 77.6752C30.3939 79.1199 28.7883 80.1063 26.7432 80.2853C22.8899 80.6224 20.4803 78.1218 20.2035 74.9573C19.9228 71.7498 21.7147 68.925 25.2666 68.6143C28.2804 68.3506 30.4397 70.2224 30.6883 73.0639C30.7411 73.6666 30.7039 74.2339 30.6498 74.6074L23.0509 75.2722C23.4863 77.2731 24.8064 77.9819 26.507 77.8331C27.691 77.7295 28.679 77.1225 29.1925 76.2967L31.287 77.6752ZM25.3979 70.8587C23.9987 70.9811 23.1408 71.8371 22.9637 73.2842L27.9579 72.8473C27.8188 71.7532 26.9263 70.725 25.3979 70.8587ZM34.2405 75.2043L33.8525 70.7698L31.829 70.9468L31.6143 68.4927L33.6378 68.3157L33.4005 65.6033L36.1559 65.3623L36.3933 68.0746L39.7084 67.7846L39.9231 70.2386L36.608 70.5287L36.9959 74.9632C37.1014 76.1687 37.7886 76.5858 38.865 76.4916C39.6184 76.4257 40.106 76.2963 40.4588 76.1136L40.6678 78.503C40.1504 78.7869 39.514 78.951 38.6098 79.0301C35.8975 79.2675 34.4721 77.8521 34.2405 75.2043ZM43.6164 74.384L43.2284 69.9495L41.2049 70.1265L40.9902 67.6725L43.0137 67.4954L42.7764 64.783L45.5319 64.542L45.7692 67.2543L49.0843 66.9643L49.299 69.4184L45.9839 69.7084L46.3718 74.1429C46.4773 75.3484 47.1645 75.7655 48.2409 75.6713C48.9943 75.6054 49.4819 75.476 49.8347 75.2933L50.0437 77.6828C49.5263 77.9666 48.8899 78.1308 47.9857 78.2099C45.2734 78.4472 43.8481 77.0318 43.6164 74.384ZM62.1056 74.9789C61.2125 76.4236 59.6068 77.4101 57.5618 77.589C53.7085 77.9261 51.2989 75.4255 51.022 72.261C50.7414 69.0536 52.5333 66.2287 56.0852 65.918C59.0989 65.6543 61.2583 67.5261 61.5069 70.3676C61.5596 70.9704 61.5225 71.5376 61.4684 71.9111L53.8695 72.5759C54.3048 74.5768 55.6249 75.2856 57.3256 75.1368C58.5095 75.0332 59.4976 74.4262 60.011 73.6004L62.1056 74.9789ZM56.2165 68.1624C54.8172 68.2848 53.9594 69.1408 53.7823 70.5879L58.7765 70.151C58.6374 69.0569 57.7449 68.0287 56.2165 68.1624ZM69.4552 74.5311L71.1204 72.7369C71.8611 73.5181 72.7104 74.0511 73.7436 73.9607C74.6262 73.8835 75.0331 73.3273 74.9766 72.6815C74.8109 70.7872 69.6851 71.9514 69.3517 68.1412C69.1841 66.2253 70.6724 64.6418 72.9327 64.444C74.5903 64.299 76.1668 64.9637 77.0341 65.9507L75.3652 67.7018C74.7452 67.062 73.9859 66.5644 73.1464 66.6379C72.2853 66.7132 71.9177 67.2226 71.9667 67.7823C72.1286 69.6336 77.2601 68.5339 77.5878 72.2795C77.7444 74.5651 76.0238 75.9738 73.9788 76.1527C72.0414 76.3222 70.5959 75.6678 69.4552 74.5311ZM90.1702 72.5236C89.2771 73.9683 87.6715 74.9547 85.6264 75.1336C81.7732 75.4708 79.3635 72.9701 79.0867 69.8057C78.8061 66.5982 80.5979 63.7734 84.1498 63.4626C87.1636 63.199 89.323 65.0707 89.5716 67.9123C89.6243 68.515 89.5872 69.0823 89.5331 69.4557L81.9341 70.1206C82.3695 72.1215 83.6896 72.8303 85.3902 72.6815C86.5742 72.5779 87.5623 71.9709 88.0757 71.145L90.1702 72.5236ZM84.2811 65.7071C82.8819 65.8295 82.024 66.6854 81.847 68.1326L86.8412 67.6956C86.7021 66.6015 85.8095 65.5734 84.2811 65.7071ZM92.8024 74.072L91.8532 63.2225L94.5871 62.9833L94.6587 63.8013C95.3284 63.0269 96.207 62.4078 97.5417 62.291C98.9194 62.1705 100.178 62.6678 100.99 63.7681C101.682 62.7531 102.644 61.8447 104.473 61.6846C106.712 61.4887 108.613 62.8842 108.88 65.941L109.464 72.6143L106.709 72.8554L106.134 66.2897C106.019 64.9766 105.237 64.2207 104.01 64.3281C102.826 64.4316 102.252 65.3062 101.886 66.0757C101.92 66.2245 101.934 66.3752 101.949 66.5474L102.533 73.2207L99.7771 73.4618L99.2027 66.8961C99.0878 65.583 98.3058 64.8271 97.0788 64.9345C95.8303 65.0437 95.2654 66.0259 94.9167 66.7505L95.5363 73.8328L92.8024 74.072ZM115.669 72.3968C113.495 72.587 111.901 71.4684 111.725 69.4664C111.582 67.8304 112.745 66.4922 115.036 65.9013L118.302 65.0516L118.278 64.7718C118.178 63.6308 117.253 62.9743 116.004 63.0835C114.949 63.1758 114.175 63.7425 113.663 64.5898L111.527 63.2366C112.379 61.8172 113.901 60.8598 115.881 60.6865C119.024 60.4115 120.803 62.1431 121.012 64.5326L121.626 71.5503L118.892 71.7895L118.799 70.7347C118.184 71.6345 116.939 72.2857 115.669 72.3968ZM114.427 69.0999C114.491 69.8318 115.113 70.2546 116.039 70.1736C117.287 70.0644 118.141 69.404 118.604 68.4959L118.47 66.9675L115.924 67.624C114.8 67.9176 114.368 68.4326 114.427 69.0999ZM125.019 58.412C124.05 58.4968 123.161 57.7503 123.076 56.7816C122.991 55.8129 123.738 54.9233 124.706 54.8386C125.675 54.7538 126.543 55.5022 126.628 56.4709C126.713 57.4396 125.988 58.3273 125.019 58.412ZM124.756 71.2764L123.807 60.4269L126.541 60.1877L127.49 71.0372L124.756 71.2764ZM130.769 70.7504L129.819 59.9009L132.553 59.6617L132.629 60.5228C133.318 59.725 134.281 59.0768 135.723 58.9506C138.069 58.7453 140.084 60.1959 140.364 63.4034L140.929 69.8615L138.174 70.1025L137.618 63.7521C137.492 62.3098 136.595 61.4773 135.26 61.594C133.882 61.7146 133.232 62.7043 132.883 63.4289L133.502 70.5112L130.769 70.7504ZM153.868 66.9508C152.974 68.3955 151.369 69.3819 149.324 69.5609C145.47 69.898 143.061 67.3973 142.784 64.2329C142.503 61.0254 144.295 58.2006 147.847 57.8899C150.861 57.6262 153.02 59.498 153.269 62.3395C153.322 62.9422 153.284 63.5095 153.23 63.883L145.631 64.5478C146.067 66.5487 147.387 67.2575 149.088 67.1087C150.271 67.0051 151.26 66.3981 151.773 65.5722L153.868 66.9508ZM147.978 60.1343C146.579 60.2567 145.721 61.1126 145.544 62.5598L150.538 62.1228C150.399 61.0287 149.507 60.0006 147.978 60.1343Z" fill="#3B69D1"/>
    <g filter="url(#filter0_d_5454_13254)">
        <rect x="5.31333" y="95.7843" width="308.828" height="234.775" rx="7.20187" transform="rotate(-5 5.31333 95.7843)" fill="white" shape-rendering="crispEdges"/>
        <path d="M30.2879 122.973C29.66 123.028 29.1104 122.858 28.6389 122.462C28.1675 122.067 27.9043 121.555 27.8493 120.927C27.7944 120.299 27.9647 119.75 28.3603 119.278C28.7559 118.807 29.2677 118.544 29.8955 118.489C30.5234 118.434 31.073 118.604 31.5445 119C32.016 119.395 32.2791 119.907 32.3341 120.535C32.389 121.163 32.2187 121.712 31.8231 122.184C31.4275 122.655 30.9158 122.918 30.2879 122.973ZM27.1317 128.22C26.6384 128.264 26.2006 128.125 25.8182 127.805C25.4365 127.484 25.224 127.077 25.1809 126.583L24.0822 114.026C24.0391 113.533 24.1776 113.095 24.4979 112.714C24.8188 112.331 25.2259 112.119 25.7192 112.075L26.6161 111.997L26.5377 111.1C26.5154 110.846 26.5826 110.625 26.7391 110.438C26.8963 110.251 27.102 110.147 27.3561 110.125C27.6103 110.102 27.831 110.169 28.0182 110.326C28.2049 110.483 28.3093 110.689 28.3316 110.943L28.41 111.84L35.5856 111.212L35.5071 110.315C35.4849 110.061 35.5524 109.84 35.7095 109.653C35.8661 109.466 36.0715 109.362 36.3256 109.34C36.5798 109.318 36.8001 109.385 36.9868 109.541C37.174 109.699 37.2788 109.904 37.301 110.158L37.3795 111.055L38.2765 110.977C38.7698 110.934 39.2076 111.072 39.59 111.393C39.9717 111.714 40.1841 112.12 40.2273 112.614L41.3259 125.171C41.3691 125.664 41.2305 126.102 40.9103 126.484C40.5894 126.866 40.1823 127.079 39.689 127.122L27.1317 128.22ZM26.9748 126.427L39.532 125.328L38.7473 116.358L26.19 117.457L26.9748 126.427Z" fill="#3B69D1"/>
        <path d="M59.1121 122.606L58.959 120.855L62.1069 117.167C62.8128 116.31 63.2531 115.722 63.1815 114.904C63.1087 114.072 62.4919 113.634 61.7026 113.703C60.7411 113.787 60.2042 114.427 59.751 115.363L58.0883 114.54C58.8145 113.088 59.9877 112.118 61.7385 111.964C63.4894 111.811 64.9937 112.808 65.1444 114.53C65.2649 115.907 64.4537 117.049 63.5476 118.097L61.3269 120.648L65.9049 120.248L66.0581 121.998L59.1121 122.606ZM71.8436 121.492L71.2108 114.259L73.0334 114.1L73.0962 114.817C73.5271 114.288 74.1116 113.861 74.9296 113.789C75.1736 113.768 75.3926 113.792 75.5698 113.835L75.7268 115.628C75.4921 115.591 75.2444 115.569 74.9143 115.598C74.0246 115.676 73.4932 116.214 73.2607 116.697L73.6662 121.333L71.8436 121.492ZM83.9215 119.25C83.3261 120.213 82.2556 120.871 80.8923 120.99C78.3234 121.215 76.717 119.548 76.5324 117.438C76.3454 115.3 77.5399 113.416 79.9079 113.209C81.917 113.033 83.3566 114.281 83.5224 116.176C83.5575 116.577 83.5328 116.956 83.4967 117.205L78.4307 117.648C78.721 118.982 79.6011 119.454 80.7348 119.355C81.5241 119.286 82.1828 118.881 82.5251 118.331L83.9215 119.25ZM79.9954 114.705C79.0626 114.787 78.4907 115.358 78.3726 116.322L81.7021 116.031C81.6094 115.302 81.0143 114.616 79.9954 114.705ZM85.6763 120.282L85.0435 113.049L86.8661 112.89L86.9163 113.464C87.3759 112.932 88.0177 112.5 88.9793 112.416C90.5435 112.279 91.8863 113.246 92.0733 115.384L92.45 119.689L90.6131 119.85L90.2427 115.617C90.1586 114.655 89.5605 114.1 88.6707 114.178C87.7522 114.258 87.3183 114.918 87.0858 115.401L87.4989 120.123L85.6763 120.282ZM93.6866 115.937C93.502 113.827 94.7371 111.912 97.019 111.712C97.9948 111.627 98.7244 111.867 99.3331 112.377L98.974 108.273L100.811 108.112L101.753 118.876L99.9157 119.036L99.8654 118.462C99.3547 119.071 98.6779 119.434 97.702 119.519C95.4201 119.719 93.8711 118.047 93.6866 115.937ZM95.5953 115.77C95.7058 117.033 96.5754 117.882 97.8096 117.774C98.6276 117.703 99.272 117.299 99.7022 116.597L99.4963 114.243C98.9506 113.626 98.246 113.34 97.4279 113.412C96.1937 113.52 95.4848 114.507 95.5953 115.77ZM110.494 116.925C109.898 117.888 108.828 118.546 107.464 118.665C104.895 118.89 103.289 117.223 103.105 115.113C102.917 112.975 104.112 111.092 106.48 110.884C108.489 110.709 109.929 111.957 110.094 113.851C110.13 114.253 110.105 114.631 110.069 114.88L105.003 115.323C105.293 116.657 106.173 117.13 107.307 117.03C108.096 116.961 108.755 116.557 109.097 116.006L110.494 116.925ZM106.567 112.381C105.635 112.462 105.063 113.033 104.945 113.998L108.274 113.706C108.181 112.977 107.586 112.292 106.567 112.381ZM111.863 117.991L111.72 116.355L115.047 112.073L111.488 112.384L111.345 110.748L117.186 110.237L117.329 111.873L114.002 116.155L117.776 115.825L117.919 117.461L111.863 117.991ZM118.615 112.816L122.489 112.477L122.644 114.242L118.769 114.581L118.615 112.816ZM122.453 109.776L124.405 109.605L126.737 114.607L128.15 109.278L130.116 109.106L128.109 116.57L125.712 116.779L122.453 109.776ZM134.599 108.424C136.953 108.218 138.712 109.814 138.902 111.981C139.091 114.148 137.636 116.025 135.282 116.231C132.929 116.437 131.17 114.841 130.98 112.674C130.79 110.507 132.246 108.63 134.599 108.424ZM135.16 114.507C136.323 114.405 137.117 113.396 137.007 112.147C136.897 110.884 135.941 110.042 134.779 110.144C133.573 110.249 132.764 111.246 132.874 112.509C132.985 113.772 133.955 114.612 135.16 114.507ZM145.371 111.907L145.012 107.803L146.849 107.642L147.201 111.66C147.39 113.827 146.244 115.272 144.12 115.458C141.996 115.644 140.631 114.419 140.441 112.251L140.09 108.233L141.927 108.072L142.286 112.177C142.378 113.225 142.979 113.823 143.984 113.735C144.974 113.648 145.463 112.955 145.371 111.907ZM148.721 113.711L149.831 112.515C150.324 113.035 150.891 113.391 151.579 113.331C152.168 113.279 152.439 112.908 152.401 112.478C152.291 111.215 148.874 111.991 148.652 109.451C148.54 108.174 149.532 107.118 151.039 106.986C152.144 106.889 153.195 107.332 153.773 107.99L152.661 109.158C152.247 108.731 151.741 108.4 151.181 108.449C150.607 108.499 150.362 108.838 150.395 109.212C150.503 110.446 153.924 109.713 154.142 112.21C154.247 113.733 153.1 114.673 151.736 114.792C150.445 114.905 149.481 114.469 148.721 113.711ZM161.132 105.235L159.202 103.004L161.182 102.83L162.869 105.083L161.132 105.235ZM161.927 113.828C160.478 113.955 159.415 113.209 159.298 111.874C159.203 110.784 159.978 109.892 161.505 109.498L163.683 108.931L163.666 108.745C163.6 107.984 162.983 107.546 162.151 107.619C161.447 107.681 160.931 108.058 160.59 108.623L159.166 107.721C159.734 106.775 160.748 106.137 162.069 106.021C164.164 105.838 165.349 106.992 165.489 108.585L165.898 113.264L164.076 113.423L164.014 112.72C163.604 113.32 162.774 113.754 161.927 113.828ZM161.099 111.63C161.141 112.118 161.557 112.4 162.174 112.346C163.006 112.273 163.575 111.833 163.883 111.227L163.794 110.208L162.097 110.646C161.348 110.842 161.06 111.185 161.099 111.63ZM170.187 105.6L172.139 105.429L174.471 110.431L175.885 105.102L177.851 104.93L175.843 112.394L173.446 112.603L170.187 105.6ZM186.103 110.31C185.508 111.273 184.438 111.931 183.074 112.05C180.505 112.275 178.899 110.608 178.714 108.498C178.527 106.36 179.722 104.477 182.09 104.269C184.099 104.094 185.539 105.342 185.704 107.236C185.739 107.638 185.715 108.016 185.679 108.265L180.613 108.708C180.903 110.042 181.783 110.515 182.917 110.415C183.706 110.346 184.365 109.942 184.707 109.391L186.103 110.31ZM182.177 105.766C181.245 105.847 180.673 106.418 180.555 107.383L183.884 107.091C183.791 106.362 183.196 105.677 182.177 105.766ZM187.858 111.342L187.225 104.109L189.048 103.95L189.098 104.524C189.558 103.992 190.2 103.56 191.161 103.476C192.726 103.339 194.068 104.306 194.255 106.444L194.632 110.75L192.795 110.91L192.425 106.677C192.341 105.715 191.742 105.16 190.853 105.238C189.934 105.318 189.5 105.978 189.268 106.461L189.681 111.183L187.858 111.342ZM196.877 101.992C196.231 102.049 195.638 101.551 195.581 100.905C195.525 100.26 196.023 99.6666 196.668 99.6101C197.314 99.5536 197.893 100.052 197.949 100.698C198.006 101.344 197.523 101.936 196.877 101.992ZM196.702 110.569L196.069 103.336L197.891 103.176L198.524 110.409L196.702 110.569ZM200.71 110.218L200.077 102.985L201.9 102.826L201.962 103.543C202.393 103.014 202.978 102.587 203.796 102.515C204.04 102.494 204.259 102.518 204.436 102.56L204.593 104.354C204.358 104.317 204.111 104.295 203.78 104.324C202.891 104.402 202.359 104.94 202.127 105.423L202.532 110.059L200.71 110.218Z" fill="#161616"/>
        <path d="M287.505 101.193C287.326 101.043 287.226 100.84 287.203 100.586C287.181 100.332 287.245 100.116 287.395 99.9369L290.587 96.1327L286.783 92.9407C286.604 92.7906 286.504 92.5885 286.481 92.3344C286.459 92.0802 286.523 91.8638 286.673 91.6849C286.823 91.5061 287.025 91.4056 287.279 91.3833C287.534 91.3611 287.75 91.425 287.929 91.5751L292.416 95.3401C292.513 95.4219 292.586 95.5135 292.632 95.6148C292.679 95.7162 292.707 95.8267 292.717 95.9463C292.728 96.0659 292.719 96.1797 292.691 96.2876C292.663 96.3955 292.608 96.4982 292.526 96.5958L288.761 101.083C288.611 101.262 288.409 101.362 288.154 101.384C287.9 101.407 287.684 101.343 287.505 101.193Z" fill="#646464"/>
        <path d="M37.211 171.118C37.4651 171.095 37.6707 170.991 37.8279 170.803C37.9845 170.617 38.0517 170.396 38.0294 170.142L37.7136 166.532C37.6914 166.278 37.5872 166.076 37.4012 165.927C37.2146 165.777 36.9943 165.714 36.7401 165.736C36.486 165.758 36.2806 165.863 36.124 166.049C35.9669 166.236 35.8994 166.457 35.9217 166.711L36.2375 170.322C36.2597 170.576 36.3642 170.777 36.5508 170.927C36.7368 171.076 36.9568 171.14 37.211 171.118ZM37.5249 174.705C37.779 174.683 37.9846 174.578 38.1418 174.391C38.2984 174.204 38.3656 173.984 38.3433 173.73C38.3211 173.476 38.2166 173.27 38.03 173.113C37.8427 172.956 37.622 172.889 37.3679 172.911C37.1138 172.934 36.9084 173.038 36.7518 173.225C36.5947 173.412 36.5272 173.633 36.5494 173.887C36.5717 174.141 36.6764 174.346 36.8636 174.503C37.0503 174.66 37.2707 174.728 37.5249 174.705ZM37.9172 179.19C36.6764 179.299 35.4898 179.165 34.3573 178.789C33.2248 178.414 32.2197 177.858 31.3418 177.122C30.4639 176.385 29.7419 175.492 29.1759 174.442C28.6092 173.392 28.2716 172.246 28.163 171.005C28.0545 169.765 28.188 168.578 28.5638 167.445C28.9389 166.313 29.4948 165.308 30.2314 164.43C30.968 163.552 31.8614 162.83 32.9114 162.263C33.9615 161.697 35.107 161.36 36.3478 161.251C37.5885 161.143 38.7752 161.276 39.9076 161.651C41.0401 162.027 42.0453 162.583 42.9232 163.32C43.8011 164.056 44.5231 164.95 45.0891 166C45.6558 167.05 45.9934 168.195 46.102 169.436C46.2105 170.677 46.0769 171.863 45.7012 172.996C45.3261 174.128 44.7702 175.133 44.0336 176.011C43.297 176.889 42.4036 177.611 41.3535 178.177C40.3034 178.744 39.158 179.082 37.9172 179.19Z" fill="#D31140"/>
        <path d="M70.4437 170.636C70.6107 172.545 69.1556 173.93 67.0604 174.113C65.166 174.279 63.8733 173.553 62.9298 172.19L64.5316 170.994C65.1879 172.05 65.9051 172.479 66.8954 172.392C67.8712 172.307 68.5517 171.655 68.4701 170.722C68.3897 169.803 67.6219 169.292 66.5599 169.385L64.9095 169.529L64.7589 167.807L66.2801 167.674C67.1268 167.6 67.7025 167.072 67.6347 166.298C67.5681 165.537 66.9564 165.157 66.1671 165.226C65.3634 165.296 64.8558 165.774 64.5024 166.528L62.8384 165.69C63.4661 164.435 64.5383 163.633 66.16 163.491C67.9969 163.33 69.4519 164.259 69.5963 165.909C69.6779 166.842 69.3451 167.666 68.6441 168.248C69.7082 168.676 70.347 169.531 70.4437 170.636ZM78.4079 173.048C76.9584 173.175 75.8954 172.429 75.7786 171.095C75.6832 170.004 76.4583 169.112 77.9857 168.718L80.1631 168.151L80.1468 167.965C80.0802 167.204 79.4635 166.767 78.6311 166.839C77.9279 166.901 77.4114 167.279 77.0704 167.844L75.6466 166.941C76.2146 165.995 77.2288 165.357 78.5492 165.241C80.6444 165.058 81.83 166.212 81.9694 167.805L82.3787 172.484L80.5561 172.643L80.4946 171.94C80.0843 172.54 79.2546 172.974 78.4079 173.048ZM77.5793 170.85C77.622 171.338 78.0371 171.62 78.6542 171.566C79.4866 171.493 80.0554 171.053 80.364 170.448L80.2748 169.429L78.5778 169.866C77.8285 170.062 77.5404 170.405 77.5793 170.85ZM87.8132 170.562C88.5307 170.5 89.0759 170.119 89.3764 169.587L90.8926 170.553C90.2959 171.502 89.2842 172.169 87.9639 172.285C85.4668 172.503 83.8173 170.84 83.6327 168.73C83.4481 166.62 84.7837 164.696 87.2808 164.477C88.6011 164.362 89.7133 164.843 90.4657 165.674L89.1404 166.889C88.752 166.417 88.1491 166.137 87.4028 166.202C86.2116 166.306 85.4166 167.301 85.5271 168.564C85.6388 169.842 86.5933 170.669 87.8132 170.562ZM92.6544 168.924L92.3957 165.968L91.0467 166.086L90.9036 164.45L92.2526 164.332L92.0944 162.523L93.9314 162.363L94.0896 164.171L96.2996 163.978L96.4428 165.614L94.2327 165.807L94.4913 168.763C94.5616 169.567 95.0198 169.845 95.7374 169.782C96.2397 169.738 96.5647 169.652 96.7999 169.53L96.9393 171.123C96.5943 171.313 96.17 171.422 95.5673 171.475C93.759 171.633 92.8088 170.689 92.6544 168.924ZM98.7398 162.492C98.094 162.548 97.501 162.05 97.4445 161.405C97.388 160.759 97.8856 160.166 98.5314 160.109C99.1772 160.053 99.7559 160.552 99.8124 161.197C99.8689 161.843 99.3856 162.435 98.7398 162.492ZM98.5647 171.068L97.9319 163.835L99.7545 163.675L100.387 170.908L98.5647 171.068ZM105.359 162.896C107.713 162.69 109.472 164.286 109.662 166.453C109.851 168.62 108.396 170.497 106.042 170.703C103.689 170.909 101.929 169.313 101.74 167.146C101.55 164.979 103.006 163.102 105.359 162.896ZM105.92 168.978C107.083 168.877 107.877 167.867 107.767 166.619C107.657 165.356 106.701 164.514 105.539 164.615C104.333 164.721 103.524 165.717 103.634 166.98C103.745 168.243 104.715 169.084 105.92 168.978ZM111.64 169.924L111.008 162.691L112.83 162.531L112.88 163.105C113.34 162.574 113.982 162.141 114.943 162.057C116.508 161.92 117.85 162.888 118.038 165.026L118.414 169.331L116.577 169.492L116.207 165.258C116.123 164.297 115.525 163.742 114.635 163.82C113.716 163.9 113.282 164.56 113.05 165.043L113.463 169.764L111.64 169.924ZM119.761 168.158L120.871 166.962C121.365 167.482 121.931 167.838 122.62 167.778C123.208 167.726 123.479 167.355 123.442 166.925C123.331 165.662 119.914 166.438 119.692 163.898C119.58 162.621 120.572 161.565 122.079 161.433C123.184 161.336 124.235 161.779 124.813 162.437L123.701 163.605C123.287 163.178 122.781 162.847 122.221 162.896C121.647 162.946 121.402 163.285 121.435 163.659C121.543 164.893 124.964 164.16 125.182 166.657C125.287 168.18 124.14 169.12 122.776 169.239C121.485 169.352 120.521 168.916 119.761 168.158ZM137.467 166.479C136.871 167.442 135.801 168.099 134.438 168.219C131.869 168.443 130.262 166.776 130.078 164.667C129.891 162.528 131.085 160.645 133.453 160.438C135.462 160.262 136.902 161.51 137.068 163.404C137.103 163.806 137.078 164.184 137.042 164.433L131.976 164.877C132.266 166.21 133.146 166.683 134.28 166.584C135.069 166.515 135.728 166.11 136.07 165.56L137.467 166.479ZM133.541 161.934C132.608 162.016 132.036 162.586 131.918 163.551L135.247 163.26C135.155 162.531 134.56 161.845 133.541 161.934ZM139.222 167.511L138.589 160.278L140.411 160.118L140.462 160.692C140.921 160.161 141.563 159.728 142.525 159.644C144.089 159.507 145.432 160.475 145.619 162.613L145.995 166.918L144.158 167.079L143.788 162.845C143.704 161.884 143.106 161.329 142.216 161.407C141.298 161.487 140.864 162.147 140.631 162.63L141.044 167.351L139.222 167.511ZM151.933 166.399L151.3 159.166L153.123 159.006L153.186 159.724C153.617 159.194 154.201 158.767 155.019 158.696C155.263 158.674 155.482 158.699 155.659 158.741L155.816 160.535C155.582 160.498 155.334 160.476 155.004 160.505C154.114 160.583 153.583 161.121 153.35 161.604L153.756 166.239L151.933 166.399ZM164.011 164.156C163.415 165.119 162.345 165.777 160.982 165.896C158.413 166.121 156.806 164.454 156.622 162.344C156.435 160.206 157.629 158.323 159.997 158.116C162.006 157.94 163.446 159.188 163.612 161.082C163.647 161.484 163.622 161.862 163.586 162.111L158.52 162.554C158.81 163.888 159.69 164.361 160.824 164.262C161.614 164.192 162.272 163.788 162.615 163.237L164.011 164.156ZM160.085 159.612C159.152 159.694 158.58 160.264 158.462 161.229L161.792 160.938C161.699 160.208 161.104 159.523 160.085 159.612ZM165.98 162.509L165.721 159.553L164.372 159.671L164.229 158.035L165.578 157.917L165.42 156.108L167.257 155.948L167.415 157.756L169.625 157.563L169.768 159.199L167.558 159.392L167.817 162.348C167.887 163.152 168.345 163.43 169.063 163.367C169.565 163.323 169.89 163.237 170.125 163.115L170.265 164.708C169.92 164.897 169.496 165.007 168.893 165.06C167.085 165.218 166.134 164.274 165.98 162.509ZM173.947 164.69C172.497 164.816 171.434 164.071 171.318 162.736C171.222 161.645 171.997 160.753 173.525 160.359L175.702 159.793L175.686 159.606C175.619 158.846 175.002 158.408 174.17 158.481C173.467 158.542 172.95 158.92 172.609 159.485L171.186 158.583C171.754 157.637 172.768 156.998 174.088 156.883C176.183 156.7 177.369 157.854 177.508 159.447L177.918 164.125L176.095 164.285L176.034 163.582C175.623 164.181 174.794 164.616 173.947 164.69ZM173.118 162.492C173.161 162.98 173.576 163.262 174.193 163.208C175.026 163.135 175.594 162.695 175.903 162.089L175.814 161.07L174.117 161.508C173.367 161.704 173.079 162.047 173.118 162.492ZM180.005 163.943L179.372 156.71L181.195 156.55L181.257 157.268C181.688 156.739 182.273 156.311 183.091 156.24C183.335 156.218 183.554 156.243 183.731 156.285L183.888 158.079C183.653 158.042 183.405 158.02 183.075 158.049C182.186 158.127 181.654 158.665 181.422 159.148L181.827 163.783L180.005 163.943ZM184.694 159.888C184.509 157.779 185.744 155.863 188.026 155.663C189.002 155.578 189.731 155.818 190.34 156.329L189.981 152.224L191.818 152.063L192.76 162.827L190.923 162.988L190.872 162.414C190.362 163.022 189.685 163.385 188.709 163.47C186.427 163.67 184.878 161.998 184.694 159.888ZM186.602 159.721C186.713 160.984 187.582 161.834 188.817 161.726C189.635 161.654 190.279 161.251 190.709 160.548L190.503 158.194C189.958 157.577 189.253 157.291 188.435 157.363C187.201 157.471 186.492 158.458 186.602 159.721Z" fill="#161616"/>
        <path d="M292.013 152.712C291.835 152.562 291.734 152.359 291.712 152.105C291.69 151.851 291.754 151.635 291.904 151.456L295.096 147.652L291.292 144.46C291.113 144.31 291.012 144.107 290.99 143.853C290.968 143.599 291.032 143.383 291.182 143.204C291.332 143.025 291.534 142.925 291.788 142.902C292.042 142.88 292.259 142.944 292.437 143.094L296.924 146.859C297.022 146.941 297.094 147.032 297.141 147.134C297.187 147.235 297.215 147.346 297.226 147.465C297.236 147.585 297.228 147.699 297.2 147.807C297.171 147.914 297.116 148.017 297.034 148.115L293.269 152.602C293.119 152.781 292.917 152.881 292.663 152.903C292.409 152.926 292.192 152.862 292.013 152.712Z" fill="#646464"/>
        <path d="M9.89934 148.2L317.552 121.284L317.395 119.49L9.74239 146.406L9.89934 148.2ZM321.824 170.112L14.1712 197.028L14.3282 198.822L321.981 171.906L321.824 170.112Z" fill="#F1F1F1"/>
        <path d="M39.4203 227.357L44.802 226.886C45.0562 226.864 45.2618 226.759 45.419 226.572C45.5756 226.385 45.6427 226.165 45.6205 225.91C45.5983 225.656 45.4938 225.451 45.3072 225.294C45.1199 225.137 44.8992 225.07 44.6451 225.092L39.2634 225.563C39.0093 225.585 38.8039 225.69 38.6474 225.877C38.4902 226.064 38.4227 226.284 38.4449 226.538C38.4672 226.792 38.5719 226.998 38.7591 227.154C38.9458 227.311 39.1662 227.379 39.4203 227.357ZM39.1065 223.769L44.4881 223.298C44.7423 223.276 44.9479 223.171 45.1051 222.984C45.2617 222.797 45.3289 222.577 45.3066 222.323C45.2844 222.069 45.1799 221.863 44.9932 221.706C44.806 221.549 44.5853 221.482 44.3312 221.504L38.9495 221.975C38.6954 221.997 38.49 222.102 38.3334 222.288C38.1763 222.476 38.1088 222.696 38.131 222.95C38.1533 223.205 38.258 223.41 38.4452 223.566C38.6319 223.724 38.8523 223.791 39.1065 223.769ZM37.0434 231.18C36.5501 231.223 36.1126 231.084 35.7308 230.764C35.3485 230.443 35.1357 230.036 35.0926 229.543L33.837 215.192C33.7938 214.698 33.9327 214.261 34.2535 213.878C34.5738 213.497 34.9806 213.284 35.4739 213.241L41.9095 212.678C42.1487 212.657 42.3808 212.682 42.6057 212.753C42.83 212.823 43.0316 212.934 43.2104 213.084L47.9412 217.053C48.12 217.203 48.2637 217.383 48.3724 217.591C48.4811 217.801 48.5459 218.025 48.5668 218.264L49.4437 228.287C49.4869 228.781 49.3483 229.219 49.0281 229.601C48.7072 229.983 48.3001 230.195 47.8068 230.238L37.0434 231.18ZM42.2234 218.073C42.2456 218.327 42.3504 218.533 42.5376 218.689C42.7243 218.847 42.9447 218.914 43.1988 218.892L46.7866 218.578L41.9095 214.486L42.2234 218.073Z" fill="#950EFF"/>
        <path d="M67.578 223.002L67.4248 221.252L71.238 215.249L73.5054 215.051L73.9976 220.677L75.0165 220.587L75.1697 222.338L74.1508 222.427L74.3843 225.097L72.4469 225.266L72.2134 222.597L67.578 223.002ZM69.4196 221.077L72.0602 220.846L71.7601 217.416L69.4196 221.077ZM82.9154 224.567C81.466 224.694 80.4029 223.948 80.2861 222.614C80.1907 221.523 80.9659 220.631 82.4932 220.237L84.6706 219.67L84.6543 219.484C84.5878 218.723 83.971 218.286 83.1387 218.358C82.4354 218.42 81.919 218.798 81.578 219.363L80.1542 218.46C80.7221 217.514 81.7364 216.876 83.0567 216.76C85.152 216.577 86.3375 217.731 86.4769 219.324L86.8862 224.003L85.0636 224.162L85.0021 223.459C84.5918 224.059 83.7621 224.493 82.9154 224.567ZM82.0868 222.369C82.1295 222.857 82.5446 223.139 83.1617 223.085C83.9941 223.012 84.563 222.572 84.8715 221.967L84.7824 220.948L83.0853 221.385C82.336 221.581 82.0479 221.924 82.0868 222.369ZM92.3207 222.081C93.0383 222.019 93.5835 221.638 93.8839 221.106L95.4001 222.072C94.8035 223.021 93.7917 223.688 92.4714 223.803C89.9743 224.022 88.3248 222.359 88.1403 220.249C87.9557 218.139 89.2913 216.215 91.7884 215.996C93.1087 215.881 94.2209 216.362 94.9732 217.193L93.6479 218.408C93.2595 217.936 92.6566 217.656 91.9103 217.721C90.7192 217.825 89.9241 218.82 90.0346 220.083C90.1464 221.361 91.1009 222.188 92.3207 222.081ZM97.1619 220.443L96.9033 217.487L95.5543 217.605L95.4111 215.969L96.7601 215.851L96.6019 214.042L98.4389 213.882L98.5971 215.69L100.807 215.497L100.95 217.133L98.7402 217.326L98.9989 220.282C99.0692 221.086 99.5273 221.364 100.245 221.301C100.747 221.257 101.072 221.171 101.307 221.049L101.447 222.642C101.102 222.832 100.678 222.941 100.075 222.994C98.2666 223.152 97.3164 222.208 97.1619 220.443ZM103.247 214.011C102.602 214.067 102.009 213.569 101.952 212.924C101.896 212.278 102.393 211.685 103.039 211.628C103.685 211.572 104.263 212.071 104.32 212.716C104.376 213.362 103.893 213.954 103.247 214.011ZM103.072 222.587L102.439 215.354L104.262 215.194L104.895 222.427L103.072 222.587ZM109.867 214.415C112.22 214.209 113.98 215.805 114.169 217.972C114.359 220.139 112.903 222.016 110.55 222.222C108.196 222.428 106.437 220.832 106.247 218.665C106.058 216.498 107.513 214.621 109.867 214.415ZM110.428 220.497C111.59 220.395 112.384 219.386 112.275 218.138C112.164 216.875 111.209 216.033 110.046 216.134C108.841 216.24 108.031 217.236 108.142 218.499C108.252 219.762 109.222 220.603 110.428 220.497ZM116.148 221.443L115.515 214.21L117.338 214.05L117.388 214.624C117.848 214.093 118.489 213.66 119.451 213.576C121.015 213.439 122.358 214.407 122.545 216.545L122.922 220.85L121.085 221.011L120.714 216.777C120.63 215.816 120.032 215.261 119.142 215.339C118.224 215.419 117.79 216.079 117.558 216.562L117.971 221.283L116.148 221.443ZM124.268 219.677L125.378 218.481C125.872 219.001 126.438 219.357 127.127 219.296C127.716 219.245 127.987 218.874 127.949 218.444C127.839 217.181 124.421 217.957 124.199 215.417C124.087 214.14 125.08 213.084 126.587 212.952C127.692 212.855 128.743 213.298 129.321 213.956L128.208 215.124C127.795 214.697 127.289 214.366 126.729 214.415C126.155 214.465 125.91 214.804 125.943 215.178C126.051 216.412 129.471 215.679 129.69 218.176C129.794 219.699 128.647 220.639 127.284 220.758C125.992 220.871 125.029 220.435 124.268 219.677ZM136.68 211.201L134.749 208.97L136.73 208.796L138.416 211.049L136.68 211.201ZM137.475 219.794C136.026 219.921 134.963 219.175 134.846 217.84C134.75 216.75 135.526 215.858 137.053 215.464L139.23 214.897L139.214 214.711C139.147 213.95 138.531 213.512 137.698 213.585C136.995 213.647 136.479 214.024 136.138 214.589L134.714 213.687C135.282 212.741 136.296 212.103 137.616 211.987C139.712 211.804 140.897 212.958 141.037 214.551L141.446 219.23L139.623 219.389L139.562 218.686C139.151 219.286 138.322 219.72 137.475 219.794ZM136.646 217.596C136.689 218.084 137.104 218.366 137.721 218.312C138.554 218.239 139.123 217.799 139.431 217.193L139.342 216.174L137.645 216.612C136.896 216.808 136.608 217.151 136.646 217.596ZM147.401 218.709L146.768 211.476L148.591 211.316L148.654 212.034C149.085 211.504 149.669 211.077 150.487 211.006C150.731 210.984 150.95 211.008 151.127 211.051L151.284 212.845C151.05 212.807 150.802 212.786 150.472 212.815C149.582 212.892 149.051 213.431 148.818 213.914L149.224 218.549L147.401 218.709ZM156.395 209.476L154.644 209.63L155.928 207.117L157.908 206.944L156.395 209.476ZM159.479 216.466C158.883 217.429 157.813 218.087 156.45 218.206C153.881 218.431 152.274 216.764 152.09 214.654C151.903 212.516 153.097 210.633 155.465 210.425C157.474 210.25 158.914 211.498 159.08 213.392C159.115 213.794 159.09 214.172 159.054 214.421L153.988 214.864C154.278 216.198 155.158 216.671 156.292 216.571C157.081 216.502 157.74 216.098 158.082 215.547L159.479 216.466ZM155.553 211.922C154.62 212.003 154.048 212.574 153.93 213.539L157.259 213.247C157.167 212.518 156.572 211.833 155.553 211.922ZM163.192 217.544C161.743 217.671 160.68 216.925 160.563 215.59C160.468 214.5 161.243 213.608 162.77 213.214L164.947 212.647L164.931 212.461C164.865 211.7 164.248 211.262 163.415 211.335C162.712 211.397 162.196 211.774 161.855 212.339L160.431 211.437C160.999 210.491 162.013 209.853 163.334 209.737C165.429 209.554 166.614 210.708 166.754 212.301L167.163 216.98L165.34 217.139L165.279 216.436C164.869 217.036 164.039 217.47 163.192 217.544ZM162.364 215.346C162.406 215.834 162.821 216.116 163.439 216.062C164.271 215.989 164.84 215.549 165.148 214.943L165.059 213.924L163.362 214.362C162.613 214.558 162.325 214.901 162.364 215.346ZM169.25 216.797L168.308 206.034L170.131 205.874L171.073 216.638L169.25 216.797ZM173.434 207.87C172.788 207.927 172.195 207.429 172.138 206.783C172.082 206.137 172.579 205.544 173.225 205.488C173.871 205.431 174.45 205.93 174.506 206.576C174.563 207.222 174.079 207.814 173.434 207.87ZM173.258 216.446L172.626 209.213L174.448 209.054L175.081 216.287L173.258 216.446ZM176.445 215.112L177.555 213.916C178.049 214.436 178.615 214.792 179.304 214.732C179.893 214.68 180.164 214.309 180.126 213.879C180.016 212.616 176.599 213.392 176.376 210.852C176.265 209.575 177.257 208.519 178.764 208.387C179.869 208.29 180.92 208.734 181.498 209.392L180.385 210.559C179.972 210.132 179.466 209.801 178.906 209.85C178.332 209.9 178.087 210.239 178.12 210.613C178.228 211.847 181.649 211.114 181.867 213.611C181.971 215.135 180.824 216.074 179.461 216.193C178.169 216.306 177.206 215.87 176.445 215.112ZM190.255 213.773C189.66 214.737 188.59 215.394 187.226 215.514C184.657 215.738 183.051 214.071 182.866 211.962C182.679 209.823 183.874 207.94 186.242 207.733C188.251 207.557 189.691 208.805 189.856 210.699C189.891 211.101 189.867 211.479 189.831 211.728L184.765 212.171C185.055 213.505 185.935 213.978 187.069 213.879C187.858 213.81 188.517 213.405 188.859 212.854L190.255 213.773ZM186.329 209.229C185.396 209.311 184.825 209.881 184.707 210.846L188.036 210.555C187.943 209.825 187.348 209.14 186.329 209.229ZM192.01 214.806L191.377 207.573L193.2 207.413L193.263 208.131C193.694 207.601 194.278 207.174 195.096 207.103C195.34 207.081 195.559 207.106 195.736 207.148L195.893 208.942C195.659 208.905 195.411 208.883 195.081 208.912C194.191 208.99 193.66 209.528 193.427 210.011L193.833 214.646L192.01 214.806Z" fill="#161616"/>
        <path d="M296.52 204.231C296.341 204.08 296.241 203.878 296.218 203.624C296.196 203.37 296.26 203.154 296.41 202.975L299.602 199.171L295.798 195.979C295.619 195.829 295.519 195.626 295.497 195.372C295.474 195.118 295.538 194.902 295.688 194.723C295.838 194.544 296.04 194.444 296.295 194.421C296.549 194.399 296.765 194.463 296.944 194.613L301.431 198.378C301.528 198.46 301.601 198.551 301.647 198.653C301.694 198.754 301.722 198.865 301.732 198.984C301.743 199.104 301.734 199.218 301.706 199.326C301.678 199.433 301.623 199.536 301.541 199.634L297.776 204.121C297.626 204.299 297.424 204.4 297.169 204.422C296.915 204.444 296.699 204.381 296.52 204.231Z" fill="#646464"/>
        <path d="M77.5643 281.07L79.7313 280.88L83.3888 288.471L85.6727 280.361L87.8397 280.171L84.9155 290.55L82.2462 290.783L77.5643 281.07ZM92.0695 282.346C94.4231 282.14 96.1823 283.736 96.3719 285.903C96.5615 288.07 95.1061 289.947 92.7525 290.153C90.3989 290.359 88.6397 288.763 88.4501 286.596C88.2605 284.429 89.7159 282.552 92.0695 282.346ZM92.6305 288.428C93.793 288.327 94.5868 287.317 94.4776 286.069C94.3671 284.806 93.4113 283.964 92.2488 284.066C91.0434 284.171 90.2339 285.167 90.3444 286.43C90.4549 287.693 91.425 288.534 92.6305 288.428ZM98.5259 280.798C97.8801 280.854 97.287 280.357 97.2305 279.711C97.174 279.065 97.6717 278.472 98.3175 278.416C98.9633 278.359 99.542 278.858 99.5985 279.504C99.655 280.15 99.1717 280.741 98.5259 280.798ZM98.3507 289.374L97.7179 282.141L99.5405 281.982L100.173 289.215L98.3507 289.374ZM102.359 289.023L101.726 281.79L103.549 281.631L103.612 282.349C104.042 281.819 104.627 281.392 105.445 281.32C105.689 281.299 105.908 281.323 106.085 281.366L106.242 283.16C106.007 283.122 105.76 283.101 105.43 283.129C104.54 283.207 104.008 283.745 103.776 284.229L104.182 288.864L102.359 289.023ZM112.057 288.175L111.116 277.412L112.938 277.252L113.88 288.015L112.057 288.175ZM122.621 286.065C122.026 287.028 120.956 287.686 119.592 287.805C117.023 288.03 115.417 286.363 115.232 284.253C115.045 282.115 116.24 280.231 118.608 280.024C120.617 279.848 122.057 281.096 122.222 282.991C122.257 283.393 122.233 283.771 122.197 284.02L117.131 284.463C117.421 285.797 118.301 286.269 119.435 286.17C120.224 286.101 120.883 285.696 121.225 285.146L122.621 286.065ZM118.695 281.521C117.763 281.602 117.191 282.173 117.073 283.138L120.402 282.846C120.309 282.117 119.714 281.431 118.695 281.521ZM127.411 283.187C127.227 281.078 128.462 279.162 130.744 278.963C131.72 278.877 132.449 279.117 133.058 279.628L132.699 275.523L134.536 275.363L135.477 286.126L133.64 286.287L133.59 285.713C133.079 286.321 132.403 286.684 131.427 286.77C129.145 286.969 127.596 285.297 127.411 283.187ZM129.32 283.02C129.43 284.283 130.3 285.133 131.534 285.025C132.352 284.953 132.997 284.55 133.427 283.847L133.221 281.493C132.675 280.876 131.971 280.59 131.153 280.662C129.918 280.77 129.209 281.758 129.32 283.02ZM141.134 277.186L139.383 277.339L140.667 274.826L142.648 274.653L141.134 277.186ZM144.218 284.175C143.623 285.139 142.552 285.796 141.189 285.915C138.62 286.14 137.014 284.473 136.829 282.364C136.642 280.225 137.837 278.342 140.205 278.135C142.214 277.959 143.653 279.207 143.819 281.101C143.854 281.503 143.83 281.881 143.793 282.13L138.727 282.573C139.018 283.907 139.898 284.38 141.032 284.281C141.821 284.212 142.48 283.807 142.822 283.256L144.218 284.175ZM140.292 279.631C139.359 279.713 138.787 280.283 138.669 281.248L141.999 280.957C141.906 280.227 141.311 279.542 140.292 279.631ZM146.187 282.528L145.929 279.572L144.58 279.69L144.436 278.054L145.785 277.936L145.627 276.128L147.464 275.967L147.622 277.775L149.832 277.582L149.976 279.218L147.766 279.411L148.024 282.367C148.094 283.171 148.553 283.449 149.27 283.386C149.772 283.342 150.098 283.256 150.333 283.134L150.472 284.727C150.127 284.917 149.703 285.026 149.1 285.079C147.292 285.237 146.342 284.293 146.187 282.528ZM154.154 284.709C152.705 284.836 151.642 284.09 151.525 282.755C151.429 281.665 152.205 280.772 153.732 280.379L155.909 279.812L155.893 279.626C155.827 278.865 155.21 278.427 154.377 278.5C153.674 278.562 153.158 278.939 152.817 279.504L151.393 278.602C151.961 277.656 152.975 277.018 154.295 276.902C156.391 276.719 157.576 277.873 157.716 279.466L158.125 284.145L156.302 284.304L156.241 283.601C155.831 284.201 155.001 284.635 154.154 284.709ZM153.326 282.511C153.368 282.999 153.783 283.281 154.401 283.227C155.233 283.154 155.802 282.714 156.11 282.108L156.021 281.089L154.324 281.527C153.575 281.723 153.287 282.066 153.326 282.511ZM160.387 275.386C159.741 275.442 159.148 274.945 159.092 274.299C159.035 273.653 159.533 273.06 160.179 273.003C160.825 272.947 161.403 273.446 161.46 274.092C161.516 274.737 161.033 275.329 160.387 275.386ZM160.212 283.962L159.579 276.729L161.402 276.569L162.035 283.802L160.212 283.962ZM164.22 283.611L163.279 272.848L165.101 272.688L166.043 283.452L164.22 283.611ZM171.264 279.351C171.079 277.241 172.314 275.326 174.596 275.126C175.572 275.041 176.301 275.28 176.91 275.791L176.551 271.687L178.388 271.526L179.33 282.289L177.493 282.45L177.442 281.876C176.932 282.485 176.255 282.848 175.279 282.933C172.997 283.133 171.448 281.461 171.264 279.351ZM173.172 279.184C173.283 280.447 174.152 281.296 175.387 281.188C176.205 281.117 176.849 280.713 177.279 280.01L177.073 277.657C176.528 277.039 175.823 276.754 175.005 276.825C173.771 276.933 173.062 277.921 173.172 279.184ZM188.071 280.339C187.475 281.302 186.405 281.96 185.041 282.079C182.473 282.304 180.866 280.637 180.682 278.527C180.494 276.389 181.689 274.505 184.057 274.298C186.066 274.122 187.506 275.37 187.671 277.265C187.707 277.666 187.682 278.045 187.646 278.294L182.58 278.737C182.87 280.071 183.75 280.543 184.884 280.444C185.673 280.375 186.332 279.97 186.674 279.42L188.071 280.339ZM184.144 275.794C183.212 275.876 182.64 276.447 182.522 277.411L185.851 277.12C185.758 276.391 185.163 275.705 184.144 275.794ZM193.693 281.033L193.061 273.8L194.883 273.64L194.931 274.186C195.377 273.669 195.963 273.257 196.853 273.179C197.771 273.098 198.61 273.43 199.152 274.163C199.613 273.487 200.254 272.881 201.474 272.774C202.967 272.644 204.234 273.574 204.412 275.612L204.801 280.061L202.964 280.222L202.581 275.844C202.505 274.969 201.983 274.465 201.165 274.537C200.376 274.606 199.993 275.189 199.749 275.702C199.772 275.801 199.781 275.902 199.791 276.016L200.18 280.465L198.343 280.626L197.96 276.249C197.884 275.373 197.362 274.869 196.544 274.941C195.712 275.014 195.335 275.669 195.103 276.152L195.516 280.873L193.693 281.033ZM208.938 279.916C207.489 280.043 206.426 279.297 206.309 277.962C206.213 276.872 206.989 275.98 208.516 275.586L210.693 275.019L210.677 274.833C210.61 274.072 209.994 273.634 209.161 273.707C208.458 273.769 207.942 274.146 207.601 274.711L206.177 273.809C206.745 272.863 207.759 272.225 209.079 272.109C211.175 271.926 212.36 273.08 212.5 274.673L212.909 279.352L211.086 279.511L211.025 278.808C210.614 279.408 209.785 279.842 208.938 279.916ZM208.109 277.718C208.152 278.206 208.567 278.488 209.184 278.434C210.017 278.361 210.586 277.921 210.894 277.315L210.805 276.296L209.108 276.734C208.359 276.93 208.071 277.273 208.109 277.718ZM218.141 277.838L219.251 276.642C219.745 277.163 220.311 277.518 221 277.458C221.588 277.406 221.86 277.036 221.822 276.605C221.711 275.342 218.294 276.118 218.072 273.578C217.96 272.301 218.952 271.245 220.459 271.113C221.564 271.017 222.615 271.46 223.194 272.118L222.081 273.285C221.668 272.859 221.161 272.527 220.602 272.576C220.028 272.626 219.783 272.966 219.815 273.339C219.923 274.573 223.344 273.84 223.563 276.337C223.667 277.861 222.52 278.8 221.157 278.919C219.865 279.032 218.901 278.596 218.141 277.838ZM231.951 276.5C231.356 277.463 230.285 278.121 228.922 278.24C226.353 278.465 224.746 276.798 224.562 274.688C224.375 272.55 225.569 270.666 227.937 270.459C229.946 270.283 231.386 271.531 231.552 273.426C231.587 273.827 231.562 274.206 231.526 274.455L226.46 274.898C226.75 276.232 227.631 276.704 228.764 276.605C229.554 276.536 230.212 276.131 230.555 275.581L231.951 276.5ZM228.025 271.955C227.092 272.037 226.52 272.608 226.402 273.572L229.732 273.281C229.639 272.552 229.044 271.866 228.025 271.955ZM233.706 277.532L233.073 270.299L234.896 270.14L234.943 270.685C235.39 270.169 235.975 269.756 236.865 269.678C237.784 269.598 238.623 269.929 239.164 270.663C239.625 269.986 240.266 269.381 241.486 269.274C242.979 269.143 244.246 270.074 244.424 272.111L244.814 276.56L242.977 276.721L242.594 272.344C242.517 271.468 241.996 270.965 241.178 271.036C240.388 271.105 240.006 271.688 239.761 272.201C239.784 272.3 239.793 272.401 239.803 272.516L240.192 276.965L238.356 277.125L237.973 272.748C237.896 271.873 237.375 271.369 236.557 271.44C235.724 271.513 235.348 272.168 235.115 272.651L235.528 277.373L233.706 277.532ZM248.95 276.415C247.501 276.542 246.438 275.796 246.321 274.462C246.226 273.371 247.001 272.479 248.528 272.085L250.706 271.518L250.689 271.332C250.623 270.571 250.006 270.134 249.174 270.206C248.47 270.268 247.954 270.646 247.613 271.211L246.189 270.308C246.757 269.362 247.771 268.724 249.092 268.608C251.187 268.425 252.372 269.579 252.512 271.172L252.921 275.851L251.099 276.01L251.037 275.307C250.627 275.907 249.797 276.341 248.95 276.415ZM248.122 274.217C248.164 274.705 248.58 274.987 249.197 274.933C250.029 274.86 250.598 274.42 250.906 273.815L250.817 272.796L249.12 273.233C248.371 273.429 248.083 273.772 248.122 274.217ZM255.183 267.092C254.538 267.149 253.945 266.651 253.888 266.005C253.832 265.359 254.329 264.766 254.975 264.71C255.621 264.653 256.2 265.152 256.256 265.798C256.313 266.444 255.829 267.036 255.183 267.092ZM255.008 275.668L254.375 268.435L256.198 268.276L256.831 275.509L255.008 275.668ZM259.016 275.318L258.384 268.085L260.206 267.925L260.256 268.499C260.716 267.967 261.358 267.535 262.319 267.451C263.884 267.314 265.226 268.281 265.414 270.42L265.79 274.725L263.953 274.886L263.583 270.652C263.499 269.691 262.901 269.136 262.011 269.213C261.092 269.294 260.658 269.954 260.426 270.437L260.839 275.158L259.016 275.318ZM274.416 272.785C273.82 273.748 272.75 274.405 271.387 274.525C268.818 274.749 267.211 273.082 267.027 270.973C266.84 268.834 268.034 266.951 270.402 266.744C272.411 266.568 273.851 267.816 274.017 269.71C274.052 270.112 274.027 270.49 273.991 270.739L268.925 271.183C269.215 272.517 270.095 272.989 271.229 272.89C272.018 272.821 272.677 272.416 273.019 271.866L274.416 272.785ZM270.49 268.24C269.557 268.322 268.985 268.893 268.867 269.857L272.196 269.566C272.104 268.837 271.509 268.151 270.49 268.24Z" fill="#3B69D1"/>
        <rect x="42.1045" y="263.218" width="264.71" height="49.9152" rx="24.9536" transform="rotate(-5 42.1045 263.218)" stroke="#3B69D1" stroke-width="0.900234"/>
    </g>
    <defs>
        <filter id="filter0_d_5454_13254" x="-5.49116" y="61.6652" width="349.724" height="282.406" filterUnits="userSpaceOnUse" color-interpolation-filters="sRGB">
            <feFlood flood-opacity="0" result="BackgroundImageFix"/>
            <feColorMatrix in="SourceAlpha" type="matrix" values="0 0 0 0 0 0 0 0 0 0 0 0 0 0 0 0 0 0 127 0" result="hardAlpha"/>
            <feOffset dy="3.60094"/>
            <feGaussianBlur stdDeviation="5.4014"/>
            <feComposite in2="hardAlpha" operator="out"/>
            <feColorMatrix type="matrix" values="0 0 0 0 0.152941 0 0 0 0 0.286275 0 0 0 0 0.588235 0 0 0 0.12 0"/>
            <feBlend mode="normal" in2="BackgroundImageFix" result="effect1_dropShadow_5454_13254"/>
            <feBlend mode="normal" in="SourceGraphic" in2="effect1_dropShadow_5454_13254" result="shape"/>
        </filter>
    </defs>
</svg>
