<svg width="352" height="372" viewBox="0 0 352 372" fill="none"
    xmlns="http://www.w3.org/2000/svg">
    <rect x="16.2465" y="113.815" width="313.535" height="227.982" rx="12.667" transform="rotate(-5 16.2465 113.815)" fill="#F1F1F1" stroke="#878787" stroke-width="1.10148" stroke-dasharray="5.51 5.51"/>
    <path d="M12.8132 78.619C14.5353 78.4683 15.818 77.5101 16.5718 76.2078L19.1447 77.8482C17.9309 79.8415 15.7975 81.2429 13.0636 81.4821C8.30623 81.8983 4.73552 78.5231 4.35885 74.2178C3.98218 69.9124 6.91255 65.9685 11.67 65.5523C14.4039 65.3131 16.75 66.3442 18.2878 68.0535L16.0406 70.1372C15.0722 68.9856 13.6426 68.2647 11.9205 68.4153C9.07892 68.6639 7.24939 71.0582 7.50176 73.9428C7.75413 76.8274 9.97163 78.8676 12.8132 78.619ZM31.287 77.6752C30.3939 79.1199 28.7883 80.1063 26.7432 80.2853C22.8899 80.6224 20.4803 78.1218 20.2035 74.9573C19.9228 71.7498 21.7147 68.925 25.2666 68.6143C28.2804 68.3506 30.4397 70.2224 30.6883 73.0639C30.7411 73.6666 30.7039 74.2339 30.6498 74.6074L23.0509 75.2722C23.4863 77.2731 24.8064 77.9819 26.507 77.8331C27.691 77.7295 28.679 77.1225 29.1925 76.2967L31.287 77.6752ZM25.3979 70.8587C23.9987 70.9811 23.1408 71.8371 22.9637 73.2842L27.9579 72.8473C27.8188 71.7532 26.9263 70.725 25.3979 70.8587ZM34.2405 75.2043L33.8525 70.7698L31.829 70.9468L31.6143 68.4927L33.6378 68.3157L33.4005 65.6033L36.1559 65.3623L36.3933 68.0746L39.7084 67.7846L39.9231 70.2386L36.608 70.5287L36.9959 74.9632C37.1014 76.1687 37.7886 76.5858 38.865 76.4916C39.6184 76.4257 40.106 76.2963 40.4588 76.1136L40.6678 78.503C40.1504 78.7869 39.514 78.951 38.6098 79.0301C35.8975 79.2675 34.4721 77.8521 34.2405 75.2043ZM43.6164 74.384L43.2284 69.9495L41.2049 70.1265L40.9902 67.6725L43.0137 67.4954L42.7764 64.783L45.5319 64.542L45.7692 67.2543L49.0843 66.9643L49.299 69.4184L45.9839 69.7084L46.3718 74.1429C46.4773 75.3484 47.1645 75.7655 48.2409 75.6713C48.9943 75.6054 49.4819 75.476 49.8347 75.2933L50.0437 77.6828C49.5263 77.9666 48.8899 78.1308 47.9857 78.2099C45.2734 78.4472 43.8481 77.0318 43.6164 74.384ZM62.1056 74.9789C61.2125 76.4236 59.6068 77.4101 57.5618 77.589C53.7085 77.9261 51.2989 75.4255 51.022 72.261C50.7414 69.0536 52.5333 66.2287 56.0852 65.918C59.0989 65.6543 61.2583 67.5261 61.5069 70.3676C61.5596 70.9704 61.5225 71.5376 61.4684 71.9111L53.8695 72.5759C54.3048 74.5768 55.6249 75.2856 57.3256 75.1368C58.5095 75.0332 59.4976 74.4262 60.011 73.6004L62.1056 74.9789ZM56.2165 68.1624C54.8172 68.2848 53.9594 69.1408 53.7823 70.5879L58.7765 70.151C58.6374 69.0569 57.7449 68.0287 56.2165 68.1624ZM69.4552 74.5311L71.1204 72.7369C71.8611 73.5181 72.7104 74.0511 73.7436 73.9607C74.6262 73.8835 75.0331 73.3273 74.9766 72.6815C74.8109 70.7872 69.6851 71.9514 69.3517 68.1412C69.1841 66.2253 70.6724 64.6418 72.9327 64.444C74.5903 64.299 76.1668 64.9637 77.0341 65.9507L75.3652 67.7018C74.7452 67.062 73.9859 66.5644 73.1464 66.6379C72.2853 66.7132 71.9177 67.2226 71.9667 67.7823C72.1286 69.6336 77.2601 68.5339 77.5878 72.2795C77.7444 74.5651 76.0238 75.9738 73.9788 76.1527C72.0414 76.3222 70.5959 75.6678 69.4552 74.5311ZM90.1702 72.5236C89.2771 73.9683 87.6715 74.9547 85.6264 75.1336C81.7732 75.4708 79.3635 72.9701 79.0867 69.8057C78.8061 66.5982 80.5979 63.7734 84.1498 63.4626C87.1636 63.199 89.323 65.0707 89.5716 67.9123C89.6243 68.515 89.5872 69.0823 89.5331 69.4557L81.9341 70.1206C82.3695 72.1215 83.6896 72.8303 85.3902 72.6815C86.5742 72.5779 87.5623 71.9709 88.0757 71.145L90.1702 72.5236ZM84.2811 65.7071C82.8819 65.8295 82.024 66.6854 81.847 68.1326L86.8412 67.6956C86.7021 66.6015 85.8095 65.5734 84.2811 65.7071ZM92.8024 74.072L91.8532 63.2225L94.5871 62.9833L94.6587 63.8013C95.3284 63.0269 96.207 62.4078 97.5417 62.291C98.9194 62.1705 100.178 62.6678 100.99 63.7681C101.682 62.7531 102.644 61.8447 104.473 61.6846C106.712 61.4887 108.613 62.8842 108.88 65.941L109.464 72.6143L106.709 72.8554L106.134 66.2897C106.019 64.9766 105.237 64.2207 104.01 64.3281C102.826 64.4316 102.252 65.3062 101.886 66.0757C101.92 66.2245 101.934 66.3752 101.949 66.5474L102.533 73.2207L99.7771 73.4618L99.2027 66.8961C99.0878 65.583 98.3058 64.8271 97.0788 64.9345C95.8303 65.0437 95.2654 66.0259 94.9167 66.7505L95.5363 73.8328L92.8024 74.072ZM115.669 72.3968C113.495 72.587 111.901 71.4684 111.725 69.4664C111.582 67.8304 112.745 66.4922 115.036 65.9013L118.302 65.0516L118.278 64.7718C118.178 63.6308 117.253 62.9743 116.004 63.0835C114.949 63.1758 114.175 63.7425 113.663 64.5898L111.527 63.2366C112.379 61.8172 113.901 60.8598 115.881 60.6865C119.024 60.4115 120.803 62.1431 121.012 64.5326L121.626 71.5503L118.892 71.7895L118.799 70.7347C118.184 71.6345 116.939 72.2857 115.669 72.3968ZM114.427 69.0999C114.491 69.8318 115.113 70.2546 116.039 70.1736C117.287 70.0644 118.141 69.404 118.604 68.4959L118.47 66.9675L115.924 67.624C114.8 67.9176 114.368 68.4326 114.427 69.0999ZM125.019 58.412C124.05 58.4968 123.161 57.7503 123.076 56.7816C122.991 55.8129 123.738 54.9233 124.706 54.8386C125.675 54.7538 126.543 55.5022 126.628 56.4709C126.713 57.4396 125.988 58.3273 125.019 58.412ZM124.756 71.2764L123.807 60.4269L126.541 60.1877L127.49 71.0372L124.756 71.2764ZM130.769 70.7504L129.819 59.9009L132.553 59.6617L132.629 60.5228C133.318 59.725 134.281 59.0768 135.723 58.9506C138.069 58.7453 140.084 60.1959 140.364 63.4034L140.929 69.8615L138.174 70.1025L137.618 63.7521C137.492 62.3098 136.595 61.4773 135.26 61.594C133.882 61.7146 133.232 62.7043 132.883 63.4289L133.502 70.5112L130.769 70.7504ZM153.868 66.9508C152.974 68.3955 151.369 69.3819 149.324 69.5609C145.47 69.898 143.061 67.3973 142.784 64.2329C142.503 61.0254 144.295 58.2006 147.847 57.8899C150.861 57.6262 153.02 59.498 153.269 62.3395C153.322 62.9422 153.284 63.5095 153.23 63.883L145.631 64.5478C146.067 66.5487 147.387 67.2575 149.088 67.1087C150.271 67.0051 151.26 66.3981 151.773 65.5722L153.868 66.9508ZM147.978 60.1343C146.579 60.2567 145.721 61.1126 145.544 62.5598L150.538 62.1228C150.399 61.0287 149.507 60.0006 147.978 60.1343Z" fill="#3B69D1"/>
    <g filter="url(#filter0_d_5473_14661)">
        <rect x="5.31333" y="95.7843" width="308.828" height="242.776" rx="7.20187" transform="rotate(-5 5.31333 95.7843)" fill="white" shape-rendering="crispEdges"/>
        <path d="M30.2879 122.973C29.66 123.028 29.1104 122.858 28.6389 122.462C28.1675 122.067 27.9043 121.555 27.8493 120.927C27.7944 120.299 27.9647 119.75 28.3603 119.278C28.7559 118.807 29.2677 118.544 29.8955 118.489C30.5234 118.434 31.073 118.604 31.5445 119C32.016 119.395 32.2791 119.907 32.3341 120.535C32.389 121.163 32.2187 121.712 31.8231 122.184C31.4275 122.655 30.9158 122.918 30.2879 122.973ZM27.1317 128.22C26.6384 128.264 26.2006 128.125 25.8182 127.805C25.4365 127.484 25.224 127.077 25.1809 126.583L24.0822 114.026C24.0391 113.533 24.1776 113.095 24.4979 112.714C24.8188 112.331 25.2259 112.119 25.7192 112.075L26.6161 111.997L26.5377 111.1C26.5154 110.846 26.5826 110.625 26.7391 110.438C26.8963 110.251 27.102 110.147 27.3561 110.125C27.6103 110.102 27.831 110.169 28.0182 110.326C28.2049 110.483 28.3093 110.689 28.3316 110.943L28.41 111.84L35.5856 111.212L35.5071 110.315C35.4849 110.061 35.5524 109.84 35.7095 109.653C35.8661 109.466 36.0715 109.362 36.3256 109.34C36.5798 109.318 36.8001 109.385 36.9868 109.541C37.174 109.699 37.2788 109.904 37.301 110.158L37.3795 111.055L38.2765 110.977C38.7698 110.934 39.2076 111.072 39.59 111.393C39.9717 111.714 40.1841 112.12 40.2273 112.614L41.3259 125.171C41.3691 125.664 41.2305 126.102 40.9103 126.484C40.5894 126.866 40.1823 127.079 39.689 127.122L27.1317 128.22ZM26.9748 126.427L39.532 125.328L38.7473 116.358L26.19 117.457L26.9748 126.427Z" fill="#3B69D1"/>
        <path d="M59.3787 124.591L59.2086 122.646L62.7054 118.549C63.4895 117.597 63.9786 116.944 63.8991 116.035C63.8182 115.11 63.1331 114.624 62.2563 114.701C61.1882 114.794 60.5918 115.505 60.0884 116.545L58.2414 115.63C59.0481 114.018 60.3513 112.94 62.2962 112.77C64.241 112.6 65.9121 113.706 66.0795 115.619C66.2134 117.15 65.3123 118.417 64.3057 119.582L61.8389 122.416L66.9243 121.971L67.0945 123.916L59.3787 124.591ZM73.5212 123.353L72.8182 115.319L74.8428 115.142L74.9126 115.939C75.3912 115.351 76.0404 114.876 76.9491 114.797C77.2201 114.773 77.4634 114.8 77.6603 114.847L77.8346 116.84C77.574 116.798 77.2988 116.774 76.9321 116.806C75.9438 116.893 75.3535 117.491 75.0953 118.027L75.5458 123.176L73.5212 123.353ZM86.9375 120.862C86.2761 121.932 85.087 122.663 83.5726 122.795C80.719 123.045 78.9346 121.193 78.7296 118.85C78.5218 116.474 79.8487 114.383 82.4791 114.152C84.7109 113.957 86.31 115.343 86.4941 117.448C86.5332 117.894 86.5057 118.314 86.4656 118.591L80.8383 119.083C81.1607 120.565 82.1383 121.09 83.3977 120.979C84.2744 120.903 85.0062 120.453 85.3864 119.842L86.9375 120.862ZM82.5763 115.815C81.5401 115.905 80.9048 116.539 80.7737 117.611L84.4722 117.287C84.3691 116.477 83.7082 115.716 82.5763 115.815ZM88.8868 122.009L88.1838 113.975L90.2084 113.797L90.2642 114.435C90.7747 113.844 91.4877 113.364 92.5558 113.271C94.2934 113.119 95.785 114.193 95.9928 116.568L96.4112 121.351L94.3707 121.529L93.9592 116.827C93.8658 115.759 93.2014 115.142 92.213 115.228C91.1928 115.318 90.7107 116.051 90.4525 116.587L90.9113 121.832L88.8868 122.009ZM97.7848 117.183C97.5798 114.839 98.9517 112.711 101.486 112.49C102.57 112.395 103.381 112.661 104.057 113.228L103.658 108.669L105.699 108.491L106.745 120.447L104.704 120.625L104.648 119.988C104.081 120.664 103.329 121.067 102.245 121.162C99.7105 121.383 97.9898 119.526 97.7848 117.183ZM99.905 116.997C100.028 118.4 100.994 119.344 102.365 119.224C103.273 119.144 103.989 118.696 104.467 117.915L104.238 115.301C103.632 114.615 102.849 114.298 101.941 114.377C100.57 114.497 99.7823 115.594 99.905 116.997ZM116.454 118.28C115.793 119.35 114.604 120.08 113.089 120.213C110.236 120.463 108.451 118.611 108.246 116.267C108.039 113.892 109.366 111.8 111.996 111.57C114.228 111.375 115.827 112.761 116.011 114.865C116.05 115.312 116.023 115.732 115.982 116.008L110.355 116.501C110.678 117.982 111.655 118.507 112.915 118.397C113.791 118.32 114.523 117.871 114.903 117.259L116.454 118.28ZM112.093 113.232C111.057 113.323 110.422 113.957 110.291 115.028L113.989 114.705C113.886 113.895 113.225 113.133 112.093 113.232ZM117.976 119.464L117.817 117.647L121.513 112.89L117.559 113.236L117.4 111.418L123.889 110.851L124.048 112.668L120.352 117.425L124.544 117.058L124.703 118.876L117.976 119.464ZM125.475 113.716L129.78 113.339L129.951 115.3L125.647 115.677L125.475 113.716ZM129.739 110.339L131.907 110.149L134.497 115.706L136.068 109.785L138.252 109.594L136.021 117.885L133.359 118.118L129.739 110.339ZM143.232 108.837C145.846 108.609 147.8 110.381 148.011 112.788C148.221 115.196 146.605 117.281 143.99 117.51C141.376 117.738 139.422 115.966 139.211 113.558C139.001 111.151 140.617 109.066 143.232 108.837ZM143.855 115.594C145.146 115.481 146.028 114.359 145.907 112.973C145.784 111.57 144.722 110.635 143.431 110.747C142.092 110.865 141.193 111.971 141.315 113.374C141.438 114.777 142.516 115.711 143.855 115.594ZM155.198 112.706L154.799 108.147L156.839 107.968L157.23 112.432C157.44 114.839 156.167 116.444 153.808 116.651C151.448 116.857 149.932 115.496 149.721 113.089L149.331 108.625L151.371 108.446L151.77 113.006C151.872 114.169 152.54 114.834 153.656 114.736C154.756 114.64 155.299 113.87 155.198 112.706ZM158.918 114.71L160.151 113.381C160.699 113.959 161.328 114.354 162.094 114.287C162.747 114.23 163.048 113.818 163.007 113.34C162.884 111.937 159.088 112.799 158.841 109.978C158.717 108.559 159.819 107.386 161.493 107.24C162.72 107.132 163.888 107.624 164.53 108.355L163.294 109.652C162.835 109.178 162.273 108.81 161.651 108.864C161.014 108.92 160.741 109.297 160.778 109.712C160.898 111.083 164.698 110.268 164.94 113.042C165.056 114.735 163.782 115.778 162.268 115.91C160.833 116.036 159.762 115.551 158.918 114.71ZM172.705 105.295L170.56 102.816L172.76 102.623L174.634 105.126L172.705 105.295ZM173.588 114.84C171.978 114.981 170.797 114.152 170.668 112.67C170.562 111.458 171.423 110.467 173.119 110.03L175.538 109.4L175.52 109.193C175.446 108.348 174.761 107.862 173.836 107.943C173.055 108.011 172.481 108.431 172.102 109.058L170.521 108.056C171.152 107.005 172.278 106.296 173.745 106.168C176.073 105.964 177.39 107.246 177.544 109.016L177.999 114.213L175.974 114.39L175.906 113.609C175.45 114.275 174.529 114.757 173.588 114.84ZM172.668 112.398C172.715 112.94 173.176 113.253 173.862 113.193C174.786 113.112 175.418 112.623 175.761 111.951L175.662 110.819L173.777 111.305C172.945 111.523 172.625 111.904 172.668 112.398ZM182.763 105.7L184.931 105.51L187.522 111.067L189.092 105.146L191.276 104.955L189.046 113.246L186.384 113.479L182.763 105.7ZM200.444 110.932C199.782 112.002 198.593 112.732 197.079 112.865C194.225 113.115 192.441 111.263 192.236 108.919C192.028 106.544 193.355 104.452 195.985 104.222C198.217 104.027 199.816 105.413 200 107.517C200.039 107.963 200.012 108.384 199.972 108.66L194.344 109.152C194.667 110.634 195.644 111.159 196.904 111.049C197.78 110.972 198.512 110.523 198.892 109.911L200.444 110.932ZM196.082 105.884C195.046 105.975 194.411 106.609 194.28 107.68L197.978 107.357C197.875 106.546 197.214 105.785 196.082 105.884ZM202.393 112.079L201.69 104.044L203.714 103.867L203.77 104.505C204.281 103.914 204.994 103.434 206.062 103.34C207.799 103.188 209.291 104.263 209.499 106.638L209.917 111.42L207.877 111.599L207.465 106.896C207.372 105.828 206.707 105.211 205.719 105.298C204.699 105.387 204.217 106.12 203.959 106.657L204.417 111.902L202.393 112.079ZM212.411 101.693C211.693 101.755 211.035 101.203 210.972 100.485C210.909 99.7678 211.462 99.109 212.179 99.0463C212.897 98.9835 213.539 99.5377 213.602 100.255C213.665 100.972 213.128 101.63 212.411 101.693ZM212.216 111.219L211.513 103.185L213.538 103.008L214.241 111.042L212.216 111.219ZM216.669 110.83L215.966 102.795L217.99 102.618L218.06 103.415C218.539 102.827 219.188 102.353 220.097 102.273C220.368 102.249 220.611 102.276 220.808 102.323L220.982 104.316C220.721 104.275 220.446 104.25 220.08 104.283C219.091 104.369 218.501 104.967 218.243 105.503L218.693 110.653L216.669 110.83Z" fill="#161616"/>
        <path d="M287.505 101.193C287.326 101.043 287.226 100.84 287.203 100.586C287.181 100.332 287.245 100.116 287.395 99.9369L290.587 96.1327L286.783 92.9407C286.604 92.7906 286.504 92.5885 286.481 92.3344C286.459 92.0802 286.523 91.8638 286.673 91.6849C286.823 91.5061 287.025 91.4056 287.279 91.3833C287.534 91.3611 287.75 91.425 287.929 91.5751L292.416 95.3401C292.513 95.4219 292.586 95.5135 292.632 95.6148C292.679 95.7162 292.707 95.8267 292.717 95.9463C292.728 96.0659 292.719 96.1797 292.691 96.2876C292.663 96.3955 292.608 96.4982 292.526 96.5958L288.761 101.083C288.611 101.262 288.409 101.362 288.154 101.384C287.9 101.407 287.684 101.343 287.505 101.193Z" fill="#646464"/>
        <path d="M37.3848 173.11C37.639 173.088 37.8446 172.983 38.0017 172.796C38.1583 172.609 38.2255 172.389 38.2033 172.135L37.8874 168.525C37.8652 168.271 37.7611 168.069 37.5751 167.919C37.3885 167.77 37.1681 167.706 36.914 167.729C36.6598 167.751 36.4545 167.855 36.2979 168.042C36.1407 168.229 36.0733 168.45 36.0955 168.704L36.4114 172.314C36.4336 172.568 36.538 172.77 36.7246 172.919C36.9106 173.069 37.1307 173.133 37.3848 173.11ZM37.6987 176.698C37.9528 176.676 38.1585 176.571 38.3156 176.384C38.4722 176.197 38.5394 175.977 38.5172 175.723C38.495 175.469 38.3905 175.263 38.2038 175.106C38.0166 174.949 37.7959 174.882 37.5418 174.904C37.2876 174.926 37.0823 175.031 36.9257 175.217C36.7685 175.405 36.7011 175.625 36.7233 175.88C36.7455 176.134 36.8503 176.339 37.0375 176.496C37.2242 176.653 37.4446 176.72 37.6987 176.698ZM38.0911 181.183C36.8503 181.291 35.6637 181.158 34.5311 180.782C33.3987 180.407 32.3935 179.851 31.5156 179.114C30.6378 178.378 29.9158 177.484 29.3497 176.434C28.783 175.384 28.4454 174.239 28.3369 172.998C28.2283 171.757 28.3619 170.571 28.7376 169.438C29.1127 168.306 29.6686 167.3 30.4052 166.423C31.1419 165.545 32.0352 164.822 33.0853 164.256C34.1354 163.69 35.2808 163.352 36.5216 163.244C37.7624 163.135 38.949 163.269 40.0815 163.644C41.214 164.019 42.2192 164.576 43.0971 165.312C43.9749 166.049 44.6969 166.942 45.263 167.992C45.8297 169.042 46.1673 170.188 46.2758 171.429C46.3844 172.669 46.2508 173.856 45.8751 174.989C45.4999 176.121 44.9441 177.126 44.2074 178.004C43.4708 178.882 42.5774 179.604 41.5273 180.17C40.4773 180.737 39.3319 181.074 38.0911 181.183Z" fill="#D31140"/>
        <path d="M71.6404 174.227C71.8259 176.347 70.2096 177.886 67.8821 178.089C65.7778 178.273 64.3419 177.467 63.2938 175.953L65.0731 174.624C65.8022 175.798 66.5988 176.274 67.6988 176.178C68.7828 176.083 69.5387 175.358 69.448 174.322C69.3588 173.302 68.5059 172.734 67.3262 172.837L65.4929 172.997L65.3256 171.084L67.0154 170.937C67.9559 170.854 68.5954 170.268 68.5201 169.407C68.4462 168.562 67.7667 168.14 66.8899 168.217C65.9971 168.295 65.4332 168.826 65.0406 169.664L63.1922 168.733C63.8895 167.339 65.0805 166.447 66.8819 166.29C68.9224 166.111 70.5387 167.142 70.6991 168.976C70.7898 170.012 70.4201 170.928 69.6413 171.574C70.8234 172.049 71.533 172.999 71.6404 174.227ZM77.2772 172.898C77.0722 170.555 78.4442 168.427 80.9789 168.205C82.0629 168.11 82.8733 168.377 83.5495 168.944L83.1506 164.385L85.1911 164.206L86.2371 176.162L84.1966 176.341L84.1408 175.703C83.5735 176.379 82.8216 176.782 81.7376 176.877C79.2029 177.099 77.4822 175.241 77.2772 172.898ZM79.3974 172.713C79.5202 174.115 80.4862 175.059 81.8572 174.939C82.7659 174.86 83.4816 174.411 83.9595 173.631L83.7308 171.016C83.1246 170.33 82.3419 170.013 81.4332 170.093C80.0622 170.213 79.2747 171.31 79.3974 172.713ZM92.5206 166.231L90.5757 166.401L92.0021 163.61L94.2021 163.418L92.5206 166.231ZM95.9468 173.996C95.2854 175.065 94.0963 175.796 92.5819 175.928C89.7283 176.178 87.9439 174.326 87.7389 171.983C87.5311 169.608 88.858 167.516 91.4884 167.285C93.7202 167.09 95.3193 168.476 95.5034 170.581C95.5425 171.027 95.515 171.447 95.4749 171.724L89.8475 172.216C90.1699 173.698 91.1476 174.223 92.4069 174.112C93.2837 174.036 94.0155 173.586 94.3957 172.975L95.9468 173.996ZM91.5856 168.948C90.5494 169.038 89.9141 169.672 89.783 170.744L93.4814 170.42C93.3784 169.61 92.7175 168.849 91.5856 168.948ZM97.896 175.142L97.1931 167.108L99.2177 166.931L99.2707 167.536C99.7667 166.963 100.417 166.504 101.406 166.418C102.426 166.329 103.358 166.697 103.959 167.512C104.472 166.76 105.184 166.087 106.539 165.969C108.197 165.824 109.604 166.857 109.802 169.121L110.235 174.063L108.194 174.241L107.769 169.379C107.684 168.407 107.105 167.847 106.196 167.926C105.319 168.003 104.894 168.651 104.623 169.221C104.648 169.331 104.658 169.442 104.669 169.57L105.102 174.512L103.061 174.69L102.636 169.828C102.551 168.856 101.972 168.296 101.063 168.375C100.138 168.456 99.72 169.184 99.4618 169.72L99.9206 174.965L97.896 175.142ZM114.83 173.902C113.22 174.042 112.039 173.214 111.909 171.732C111.803 170.52 112.665 169.529 114.361 169.091L116.78 168.462L116.762 168.255C116.688 167.41 116.003 166.924 115.078 167.005C114.297 167.073 113.723 167.493 113.344 168.12L111.763 167.118C112.394 166.067 113.52 165.358 114.987 165.23C117.315 165.026 118.631 166.308 118.786 168.078L119.241 173.275L117.216 173.452L117.148 172.671C116.692 173.337 115.771 173.819 114.83 173.902ZM113.91 171.46C113.957 172.002 114.418 172.315 115.104 172.255C116.028 172.174 116.66 171.685 117.003 171.013L116.904 169.881L115.019 170.367C114.187 170.585 113.866 170.966 113.91 171.46ZM121.559 173.072L120.856 165.037L122.881 164.86L122.951 165.657C123.429 165.069 124.079 164.595 124.987 164.515C125.258 164.492 125.502 164.519 125.698 164.566L125.873 166.558C125.612 166.517 125.337 166.493 124.97 166.525C123.982 166.611 123.392 167.209 123.133 167.746L123.584 172.895L121.559 173.072ZM131.412 170.604C132.209 170.534 132.814 170.111 133.148 169.52L134.832 170.593C134.169 171.647 133.046 172.388 131.579 172.517C128.805 172.759 126.973 170.912 126.768 168.568C126.563 166.225 128.046 164.087 130.82 163.844C132.287 163.716 133.522 164.251 134.358 165.173L132.886 166.523C132.454 165.998 131.785 165.688 130.956 165.76C129.632 165.876 128.749 166.981 128.872 168.384C128.996 169.803 130.056 170.722 131.412 170.604ZM136.458 171.768L135.412 159.812L137.436 159.635L137.835 164.194C138.346 163.604 139.059 163.124 140.127 163.03C141.865 162.878 143.356 163.952 143.564 166.328L143.982 171.11L141.942 171.289L141.53 166.586C141.437 165.518 140.788 164.9 139.784 164.988C138.764 165.077 138.282 165.81 138.024 166.347L138.482 171.591L136.458 171.768ZM153.564 168.955C152.902 170.025 151.713 170.755 150.199 170.888C147.345 171.137 145.561 169.285 145.356 166.942C145.148 164.567 146.475 162.475 149.105 162.245C151.337 162.049 152.936 163.436 153.12 165.54C153.16 165.986 153.132 166.406 153.092 166.683L147.465 167.175C147.787 168.657 148.765 169.182 150.024 169.072C150.901 168.995 151.632 168.545 152.013 167.934L153.564 168.955ZM149.203 163.907C148.166 163.997 147.531 164.631 147.4 165.703L151.098 165.379C150.995 164.569 150.335 163.808 149.203 163.907ZM154.601 169.009L155.834 167.68C156.383 168.258 157.011 168.653 157.777 168.586C158.43 168.529 158.732 168.117 158.69 167.639C158.567 166.236 154.771 167.098 154.524 164.276C154.4 162.858 155.502 161.685 157.176 161.539C158.404 161.431 159.571 161.923 160.213 162.654L158.977 163.951C158.518 163.477 157.956 163.109 157.334 163.163C156.697 163.219 156.424 163.596 156.461 164.011C156.581 165.382 160.381 164.567 160.623 167.341C160.739 169.034 159.465 170.077 157.951 170.209C156.516 170.335 155.446 169.85 154.601 169.009ZM174.269 167.143C173.608 168.213 172.419 168.944 170.904 169.076C168.051 169.326 166.266 167.474 166.061 165.13C165.853 162.755 167.18 160.663 169.811 160.433C172.043 160.238 173.642 161.624 173.826 163.728C173.865 164.175 173.837 164.595 173.797 164.871L168.17 165.364C168.492 166.845 169.47 167.37 170.729 167.26C171.606 167.183 172.338 166.734 172.718 166.122L174.269 167.143ZM169.908 162.095C168.872 162.186 168.237 162.82 168.105 163.891L171.804 163.568C171.701 162.758 171.04 161.996 169.908 162.095ZM176.218 168.29L175.516 160.255L177.54 160.078L177.596 160.716C178.106 160.125 178.819 159.645 179.888 159.552C181.625 159.4 183.117 160.474 183.324 162.849L183.743 167.632L181.702 167.81L181.291 163.107C181.197 162.039 180.533 161.423 179.545 161.509C178.524 161.598 178.042 162.331 177.784 162.868L178.243 168.113L176.218 168.29ZM190.339 167.055L189.636 159.02L191.66 158.843L191.73 159.64C192.209 159.052 192.858 158.577 193.767 158.498C194.038 158.474 194.281 158.501 194.478 158.548L194.652 160.541C194.391 160.499 194.116 160.475 193.75 160.507C192.761 160.594 192.171 161.192 191.913 161.728L192.363 166.877L190.339 167.055ZM203.755 164.564C203.094 165.633 201.904 166.364 200.39 166.496C197.536 166.746 195.752 164.894 195.547 162.551C195.339 160.176 196.666 158.084 199.297 157.853C201.528 157.658 203.127 159.044 203.312 161.149C203.351 161.595 203.323 162.015 203.283 162.292L197.656 162.784C197.978 164.266 198.956 164.791 200.215 164.68C201.092 164.604 201.824 164.154 202.204 163.543L203.755 164.564ZM199.394 159.516C198.358 159.606 197.722 160.24 197.591 161.312L201.29 160.988C201.187 160.178 200.526 159.417 199.394 159.516ZM205.942 162.734L205.655 159.45L204.156 159.581L203.997 157.763L205.496 157.632L205.32 155.624L207.361 155.445L207.536 157.454L209.991 157.239L210.15 159.056L207.695 159.271L207.983 162.555C208.061 163.448 208.57 163.757 209.367 163.687C209.925 163.638 210.286 163.542 210.547 163.407L210.702 165.177C210.319 165.387 209.847 165.508 209.178 165.567C207.169 165.743 206.114 164.694 205.942 162.734ZM214.792 165.156C213.182 165.297 212.001 164.469 211.871 162.986C211.765 161.774 212.626 160.783 214.323 160.346L216.742 159.717L216.724 159.509C216.65 158.664 215.965 158.178 215.04 158.259C214.259 158.327 213.685 158.747 213.306 159.375L211.725 158.373C212.356 157.321 213.482 156.612 214.949 156.484C217.276 156.28 218.593 157.563 218.748 159.332L219.203 164.529L217.178 164.706L217.11 163.925C216.654 164.592 215.733 165.074 214.792 165.156ZM213.872 162.715C213.919 163.257 214.38 163.57 215.066 163.51C215.99 163.429 216.622 162.94 216.965 162.267L216.866 161.135L214.981 161.622C214.148 161.839 213.828 162.22 213.872 162.715ZM221.521 164.326L220.818 156.292L222.843 156.115L222.913 156.912C223.391 156.324 224.041 155.849 224.949 155.77C225.22 155.746 225.463 155.773 225.66 155.82L225.835 157.813C225.574 157.771 225.299 157.747 224.932 157.779C223.944 157.866 223.354 158.463 223.095 159L223.546 164.149L221.521 164.326ZM226.73 159.823C226.525 157.479 227.897 155.351 230.431 155.13C231.515 155.035 232.326 155.301 233.002 155.868L232.603 151.309L234.644 151.131L235.69 163.087L233.649 163.265L233.593 162.628C233.026 163.304 232.274 163.707 231.19 163.802C228.655 164.024 226.935 162.166 226.73 159.823ZM228.85 159.637C228.973 161.04 229.939 161.984 231.31 161.864C232.218 161.784 232.934 161.336 233.412 160.555L233.183 157.941C232.577 157.255 231.794 156.938 230.886 157.017C229.515 157.137 228.727 158.234 228.85 159.637Z" fill="#161616"/>
        <path d="M292.187 154.704C292.009 154.554 291.908 154.352 291.886 154.098C291.864 153.844 291.927 153.627 292.077 153.449L295.27 149.644L291.465 146.452C291.287 146.302 291.186 146.1 291.164 145.846C291.142 145.592 291.205 145.375 291.356 145.197C291.506 145.018 291.708 144.917 291.962 144.895C292.216 144.873 292.432 144.937 292.611 145.087L297.098 148.852C297.196 148.934 297.268 149.025 297.315 149.127C297.361 149.228 297.389 149.338 297.4 149.458C297.41 149.578 297.402 149.691 297.374 149.799C297.345 149.907 297.29 150.01 297.208 150.107L293.443 154.594C293.293 154.773 293.091 154.874 292.837 154.896C292.583 154.918 292.366 154.854 292.187 154.704Z" fill="#646464"/>
        <path d="M10.0732 150.193L317.726 123.277L317.569 121.483L9.91625 148.399L10.0732 150.193ZM322.173 174.098L14.5194 201.014L14.6764 202.808L322.329 175.892L322.173 174.098Z" fill="#F1F1F1"/>
        <path d="M39.769 231.342L45.1507 230.871C45.4049 230.849 45.6105 230.744 45.7676 230.557C45.9242 230.37 45.9914 230.15 45.9692 229.896C45.947 229.642 45.8425 229.436 45.6559 229.28C45.4686 229.123 45.2479 229.055 44.9938 229.077L39.6121 229.548C39.358 229.57 39.1526 229.675 38.9961 229.862C38.8389 230.049 38.7714 230.269 38.7936 230.524C38.8158 230.778 38.9206 230.983 39.1078 231.14C39.2945 231.297 39.5149 231.364 39.769 231.342ZM39.4551 227.754L44.8368 227.283C45.091 227.261 45.2966 227.156 45.4538 226.969C45.6104 226.783 45.6775 226.562 45.6553 226.308C45.6331 226.054 45.5286 225.848 45.3419 225.691C45.1547 225.534 44.934 225.467 44.6799 225.49L39.2982 225.96C39.0441 225.983 38.8387 226.087 38.6821 226.274C38.5249 226.461 38.4575 226.682 38.4797 226.936C38.502 227.19 38.6067 227.395 38.7939 227.552C38.9806 227.709 39.201 227.777 39.4551 227.754ZM37.3921 235.165C36.8988 235.208 36.4612 235.07 36.0795 234.75C35.6972 234.429 35.4844 234.022 35.4412 233.528L34.1857 219.177C34.1425 218.684 34.2814 218.246 34.6022 217.864C34.9225 217.482 35.3293 217.27 35.8226 217.226L42.2582 216.663C42.4974 216.642 42.7295 216.667 42.9544 216.738C43.1787 216.809 43.3803 216.919 43.5591 217.069L48.2899 221.039C48.4687 221.189 48.6124 221.368 48.7211 221.577C48.8297 221.786 48.8945 222.01 48.9155 222.249L49.7924 232.273C49.8356 232.766 49.697 233.204 49.3768 233.586C49.0559 233.968 48.6488 234.18 48.1555 234.224L37.3921 235.165ZM42.5721 222.059C42.5943 222.313 42.6991 222.518 42.8863 222.675C43.073 222.832 43.2934 222.899 43.5475 222.877L47.1353 222.563L42.2582 218.471L42.5721 222.059Z" fill="#950EFF"/>
        <path d="M68.1324 228.68L67.9622 226.735L72.198 220.067L74.7167 219.847L75.2635 226.096L76.3953 225.997L76.5655 227.942L75.4336 228.041L75.693 231.006L73.5409 231.194L73.2815 228.229L68.1324 228.68ZM70.1781 226.541L73.1113 226.284L72.778 222.474L70.1781 226.541ZM81.9596 226.41C81.7545 224.066 83.1265 221.938 85.6613 221.717C86.7453 221.622 87.5557 221.888 88.2318 222.456L87.8329 217.896L89.8735 217.718L90.9195 229.674L88.879 229.852L88.8232 229.215C88.2559 229.891 87.504 230.294 86.42 230.389C83.8853 230.611 82.1646 228.753 81.9596 226.41ZM84.0798 226.224C84.2025 227.627 85.1686 228.571 86.5396 228.451C87.4482 228.371 88.164 227.923 88.6419 227.142L88.4131 224.528C87.807 223.842 87.0242 223.525 86.1156 223.604C84.7446 223.724 83.9571 224.821 84.0798 226.224ZM97.203 219.743L95.2581 219.913L96.6845 217.122L98.8845 216.929L97.203 219.743ZM100.629 227.507C99.9678 228.577 98.7787 229.308 97.2642 229.44C94.4107 229.69 92.6263 227.838 92.4212 225.494C92.2134 223.119 93.5404 221.027 96.1708 220.797C98.4026 220.602 100.002 221.988 100.186 224.092C100.225 224.539 100.197 224.959 100.157 225.235L94.5299 225.728C94.8523 227.209 95.8299 227.734 97.0893 227.624C97.9661 227.547 98.6978 227.098 99.078 226.486L100.629 227.507ZM96.268 222.459C95.2318 222.55 94.5965 223.184 94.4654 224.255L98.1638 223.932C98.0608 223.122 97.3998 222.36 96.268 222.459ZM102.578 228.654L101.875 220.619L103.9 220.442L103.953 221.048C104.449 220.474 105.1 220.016 106.088 219.929C107.108 219.84 108.04 220.208 108.641 221.023C109.154 220.272 109.866 219.599 111.221 219.48C112.879 219.335 114.287 220.369 114.485 222.632L114.917 227.574L112.877 227.753L112.451 222.891C112.366 221.918 111.787 221.359 110.878 221.438C110.002 221.515 109.576 222.162 109.305 222.732C109.331 222.842 109.34 222.954 109.352 223.082L109.784 228.023L107.743 228.202L107.318 223.34C107.233 222.367 106.654 221.808 105.745 221.887C104.821 221.968 104.402 222.695 104.144 223.232L104.603 228.477L102.578 228.654ZM119.512 227.413C117.902 227.554 116.722 226.726 116.592 225.243C116.486 224.032 117.347 223.041 119.043 222.603L121.462 221.974L121.444 221.767C121.37 220.922 120.685 220.435 119.76 220.516C118.979 220.585 118.406 221.004 118.027 221.632L116.445 220.63C117.076 219.579 118.203 218.87 119.669 218.741C121.997 218.538 123.314 219.82 123.469 221.589L123.923 226.786L121.899 226.964L121.83 226.182C121.375 226.849 120.453 227.331 119.512 227.413ZM118.592 224.972C118.64 225.514 119.101 225.827 119.786 225.767C120.711 225.686 121.343 225.197 121.685 224.524L121.586 223.393L119.701 223.879C118.869 224.096 118.549 224.478 118.592 224.972ZM126.242 226.584L125.539 218.549L127.563 218.372L127.633 219.169C128.112 218.581 128.761 218.106 129.67 218.027C129.941 218.003 130.184 218.03 130.381 218.077L130.555 220.07C130.295 220.028 130.019 220.004 129.653 220.036C128.664 220.123 128.074 220.721 127.816 221.257L128.266 226.406L126.242 226.584ZM136.094 224.115C136.891 224.046 137.497 223.623 137.83 223.032L139.515 224.105C138.852 225.159 137.728 225.9 136.261 226.028C133.487 226.271 131.655 224.423 131.45 222.08C131.245 219.736 132.729 217.599 135.503 217.356C136.969 217.228 138.205 217.762 139.04 218.685L137.568 220.035C137.137 219.51 136.467 219.199 135.638 219.272C134.315 219.388 133.432 220.493 133.554 221.896C133.679 223.315 134.739 224.234 136.094 224.115ZM141.14 225.28L140.094 213.324L142.119 213.147L142.518 217.706C143.028 217.115 143.741 216.635 144.809 216.542C146.547 216.39 148.038 217.464 148.246 219.839L148.665 224.622L146.624 224.8L146.213 220.098C146.119 219.03 145.471 218.412 144.467 218.499C143.446 218.589 142.964 219.322 142.706 219.858L143.165 225.103L141.14 225.28ZM158.246 222.466C157.585 223.536 156.396 224.267 154.881 224.399C152.028 224.649 150.243 222.797 150.038 220.454C149.83 218.078 151.157 215.986 153.788 215.756C156.02 215.561 157.619 216.947 157.803 219.051C157.842 219.498 157.814 219.918 157.774 220.194L152.147 220.687C152.469 222.169 153.447 222.693 154.706 222.583C155.583 222.507 156.315 222.057 156.695 221.445L158.246 222.466ZM153.885 217.418C152.849 217.509 152.214 218.143 152.082 219.215L155.781 218.891C155.678 218.081 155.017 217.319 153.885 217.418ZM159.283 222.52L160.516 221.191C161.065 221.77 161.694 222.165 162.459 222.098C163.113 222.041 163.414 221.629 163.372 221.15C163.249 219.748 159.453 220.61 159.207 217.788C159.082 216.369 160.185 215.197 161.858 215.05C163.086 214.943 164.253 215.435 164.896 216.166L163.66 217.463C163.201 216.989 162.638 216.62 162.017 216.675C161.379 216.731 161.107 217.108 161.143 217.522C161.263 218.893 165.063 218.079 165.306 220.853C165.422 222.545 164.148 223.589 162.633 223.721C161.198 223.847 160.128 223.362 159.283 222.52ZM173.07 213.105L170.926 210.627L173.126 210.434L174.999 212.937L173.07 213.105ZM173.954 222.65C172.344 222.791 171.163 221.963 171.033 220.48C170.927 219.269 171.788 218.278 173.485 217.84L175.903 217.211L175.885 217.004C175.811 216.159 175.126 215.672 174.202 215.753C173.42 215.822 172.847 216.241 172.468 216.869L170.886 215.867C171.517 214.816 172.644 214.107 174.111 213.978C176.438 213.775 177.755 215.057 177.91 216.826L178.365 222.023L176.34 222.201L176.272 221.419C175.816 222.086 174.894 222.568 173.954 222.65ZM173.033 220.209C173.081 220.751 173.542 221.064 174.227 221.004C175.152 220.923 175.784 220.434 176.127 219.762L176.028 218.63L174.142 219.116C173.31 219.333 172.99 219.715 173.033 220.209ZM184.98 221.445L184.277 213.41L186.301 213.233L186.371 214.03C186.85 213.442 187.499 212.968 188.408 212.888C188.679 212.864 188.922 212.891 189.119 212.938L189.293 214.931C189.032 214.89 188.757 214.865 188.391 214.898C187.402 214.984 186.812 215.582 186.554 216.118L187.004 221.268L184.98 221.445ZM194.97 211.19L193.025 211.36L194.451 208.568L196.651 208.376L194.97 211.19ZM198.396 218.954C197.735 220.024 196.546 220.754 195.031 220.887C192.178 221.136 190.393 219.284 190.188 216.941C189.98 214.566 191.307 212.474 193.938 212.244C196.169 212.048 197.769 213.435 197.953 215.539C197.992 215.985 197.964 216.405 197.924 216.682L192.297 217.174C192.619 218.656 193.597 219.181 194.856 219.071C195.733 218.994 196.465 218.544 196.845 217.933L198.396 218.954ZM194.035 213.906C192.999 213.996 192.363 214.63 192.232 215.702L195.931 215.378C195.828 214.568 195.167 213.807 194.035 213.906ZM202.521 220.151C200.911 220.292 199.73 219.463 199.6 217.981C199.494 216.769 200.355 215.778 202.052 215.341L204.471 214.712L204.452 214.504C204.379 213.659 203.693 213.173 202.769 213.254C201.988 213.322 201.414 213.742 201.035 214.37L199.454 213.367C200.084 212.316 201.211 211.607 202.678 211.479C205.005 211.275 206.322 212.558 206.477 214.327L206.932 219.524L204.907 219.701L204.839 218.92C204.383 219.586 203.461 220.069 202.521 220.151ZM201.6 217.71C201.648 218.252 202.109 218.565 202.794 218.505C203.719 218.424 204.351 217.935 204.694 217.262L204.595 216.13L202.71 216.617C201.877 216.834 201.557 217.215 201.6 217.71ZM209.25 219.321L208.204 207.365L210.229 207.188L211.275 219.144L209.25 219.321ZM213.897 209.405C213.18 209.468 212.521 208.915 212.458 208.198C212.395 207.48 212.948 206.822 213.666 206.759C214.383 206.696 215.026 207.25 215.089 207.968C215.151 208.685 214.615 209.342 213.897 209.405ZM213.703 218.932L213 210.897L215.024 210.72L215.727 218.755L213.703 218.932ZM217.243 217.449L218.476 216.121C219.024 216.699 219.653 217.094 220.419 217.027C221.072 216.97 221.373 216.558 221.332 216.08C221.209 214.677 217.413 215.539 217.166 212.717C217.042 211.299 218.144 210.126 219.818 209.979C221.046 209.872 222.213 210.364 222.855 211.095L221.619 212.392C221.16 211.918 220.598 211.55 219.976 211.604C219.339 211.66 219.066 212.037 219.103 212.452C219.223 213.823 223.023 213.008 223.265 215.782C223.381 217.475 222.107 218.518 220.593 218.65C219.158 218.776 218.087 218.291 217.243 217.449ZM232.583 215.963C231.922 217.033 230.733 217.763 229.218 217.896C226.365 218.145 224.58 216.293 224.375 213.95C224.168 211.575 225.494 209.483 228.125 209.253C230.357 209.057 231.956 210.444 232.14 212.548C232.179 212.994 232.151 213.414 232.111 213.691L226.484 214.183C226.806 215.665 227.784 216.19 229.043 216.08C229.92 216.003 230.652 215.553 231.032 214.942L232.583 215.963ZM228.222 210.915C227.186 211.005 226.551 211.639 226.419 212.711L230.118 212.387C230.015 211.577 229.354 210.816 228.222 210.915ZM234.532 217.109L233.83 209.075L235.854 208.898L235.924 209.695C236.403 209.107 237.052 208.632 237.96 208.553C238.231 208.529 238.475 208.556 238.672 208.603L238.846 210.596C238.585 210.554 238.31 210.53 237.943 210.562C236.955 210.649 236.365 211.246 236.107 211.783L236.557 216.932L234.532 217.109Z" fill="#161616"/>
        <path d="M296.869 208.216C296.69 208.066 296.589 207.864 296.567 207.61C296.545 207.355 296.609 207.139 296.759 206.96L299.951 203.156L296.147 199.964C295.968 199.814 295.867 199.612 295.845 199.358C295.823 199.104 295.887 198.887 296.037 198.708C296.187 198.529 296.389 198.429 296.643 198.407C296.897 198.384 297.114 198.448 297.293 198.598L301.78 202.363C301.877 202.445 301.949 202.537 301.996 202.638C302.042 202.74 302.071 202.85 302.081 202.97C302.092 203.089 302.083 203.203 302.055 203.311C302.026 203.419 301.971 203.522 301.889 203.619L298.124 208.106C297.974 208.285 297.772 208.385 297.518 208.408C297.264 208.43 297.048 208.366 296.869 208.216Z" fill="#646464"/>
        <path d="M67.2809 288.88L69.6881 288.669L73.7509 297.1L76.2879 288.092L78.6951 287.881L75.4469 299.41L72.4817 299.669L67.2809 288.88ZM83.3936 290.297C86.008 290.068 87.9623 291.841 88.1729 294.248C88.3835 296.656 86.7668 298.741 84.1523 298.969C81.5379 299.198 79.5837 297.425 79.3731 295.018C79.1625 292.611 80.7792 290.526 83.3936 290.297ZM84.0169 297.054C85.3081 296.941 86.1899 295.819 86.0686 294.432C85.9458 293.03 84.8841 292.094 83.5929 292.207C82.2538 292.325 81.3546 293.431 81.4774 294.834C81.6001 296.237 82.6778 297.171 84.0169 297.054ZM90.5655 288.577C89.8482 288.64 89.1894 288.087 89.1266 287.37C89.0638 286.653 89.6166 285.994 90.334 285.931C91.0514 285.868 91.6942 286.423 91.757 287.14C91.8197 287.857 91.2829 288.515 90.5655 288.577ZM90.3709 298.104L89.668 290.07L91.6926 289.892L92.3955 297.927L90.3709 298.104ZM94.8234 297.715L94.1204 289.68L96.145 289.503L96.2148 290.3C96.6934 289.712 97.3426 289.237 98.2513 289.158C98.5223 289.134 98.7656 289.161 98.9625 289.208L99.1368 291.201C98.8762 291.159 98.601 291.135 98.2343 291.167C97.246 291.254 96.6557 291.852 96.3975 292.388L96.848 297.537L94.8234 297.715ZM105.596 296.772L104.55 284.816L106.575 284.639L107.621 296.595L105.596 296.772ZM117.331 294.428C116.67 295.498 115.481 296.229 113.966 296.361C111.113 296.611 109.328 294.759 109.123 292.415C108.916 290.04 110.243 287.948 112.873 287.718C115.105 287.523 116.704 288.909 116.888 291.013C116.927 291.46 116.9 291.88 116.86 292.156L111.232 292.649C111.555 294.13 112.532 294.655 113.792 294.545C114.668 294.468 115.4 294.019 115.78 293.407L117.331 294.428ZM112.97 289.38C111.934 289.471 111.299 290.105 111.168 291.176L114.866 290.853C114.763 290.043 114.102 289.281 112.97 289.38ZM122.652 291.232C122.447 288.888 123.819 286.76 126.354 286.539C127.438 286.444 128.248 286.71 128.924 287.278L128.525 282.718L130.566 282.54L131.612 294.496L129.571 294.675L129.516 294.037C128.948 294.713 128.196 295.116 127.112 295.211C124.578 295.433 122.857 293.575 122.652 291.232ZM124.772 291.046C124.895 292.449 125.861 293.393 127.232 293.273C128.141 293.193 128.856 292.745 129.334 291.964L129.106 289.35C128.499 288.664 127.717 288.347 126.808 288.427C125.437 288.547 124.65 289.643 124.772 291.046ZM137.895 284.565L135.951 284.735L137.377 281.944L139.577 281.751L137.895 284.565ZM141.322 292.329C140.66 293.399 139.471 294.13 137.957 294.262C135.103 294.512 133.319 292.66 133.114 290.317C132.906 287.941 134.233 285.849 136.863 285.619C139.095 285.424 140.694 286.81 140.878 288.914C140.917 289.361 140.89 289.781 140.85 290.057L135.222 290.55C135.545 292.032 136.522 292.556 137.782 292.446C138.659 292.37 139.39 291.92 139.771 291.308L141.322 292.329ZM136.96 287.281C135.924 287.372 135.289 288.006 135.158 289.078L138.856 288.754C138.753 287.944 138.092 287.182 136.96 287.281ZM143.509 290.499L143.222 287.215L141.723 287.347L141.564 285.529L143.063 285.398L142.887 283.389L144.927 283.211L145.103 285.22L147.558 285.005L147.717 286.822L145.262 287.037L145.549 290.321C145.627 291.214 146.136 291.523 146.933 291.453C147.491 291.404 147.852 291.308 148.114 291.173L148.269 292.942C147.885 293.153 147.414 293.274 146.745 293.333C144.736 293.508 143.68 292.46 143.509 290.499ZM152.359 292.922C150.749 293.063 149.568 292.234 149.438 290.752C149.332 289.54 150.193 288.549 151.89 288.112L154.308 287.482L154.29 287.275C154.216 286.43 153.531 285.944 152.607 286.025C151.826 286.093 151.252 286.513 150.873 287.14L149.291 286.138C149.922 285.087 151.049 284.378 152.516 284.25C154.843 284.046 156.16 285.329 156.315 287.098L156.77 292.295L154.745 292.472L154.677 291.691C154.221 292.357 153.299 292.84 152.359 292.922ZM151.438 290.48C151.486 291.022 151.947 291.335 152.632 291.275C153.557 291.195 154.189 290.706 154.532 290.033L154.433 288.901L152.547 289.387C151.715 289.605 151.395 289.986 151.438 290.48ZM159.283 282.565C158.565 282.628 157.906 282.075 157.844 281.358C157.781 280.641 158.334 279.982 159.051 279.919C159.768 279.856 160.411 280.411 160.474 281.128C160.537 281.845 160 282.503 159.283 282.565ZM159.088 292.092L158.385 284.058L160.41 283.88L161.113 291.915L159.088 292.092ZM163.54 291.703L162.494 279.746L164.519 279.569L165.565 291.525L163.54 291.703ZM171.364 286.97C171.159 284.627 172.531 282.499 175.066 282.277C176.15 282.182 176.96 282.449 177.636 283.016L177.238 278.457L179.278 278.278L180.324 290.234L178.284 290.413L178.228 289.775C177.66 290.451 176.909 290.854 175.825 290.949C173.29 291.171 171.569 289.314 171.364 286.97ZM173.484 286.785C173.607 288.187 174.573 289.131 175.944 289.011C176.853 288.932 177.569 288.483 178.047 287.703L177.818 285.088C177.212 284.402 176.429 284.085 175.52 284.165C174.149 284.285 173.362 285.382 173.484 286.785ZM190.034 288.068C189.372 289.137 188.183 289.868 186.669 290C183.815 290.25 182.031 288.398 181.826 286.055C181.618 283.68 182.945 281.588 185.575 281.357C187.807 281.162 189.406 282.548 189.59 284.653C189.629 285.099 189.602 285.519 189.562 285.796L183.935 286.288C184.257 287.77 185.235 288.295 186.494 288.184C187.371 288.108 188.102 287.658 188.483 287.047L190.034 288.068ZM185.673 283.02C184.636 283.11 184.001 283.744 183.87 284.816L187.568 284.492C187.465 283.682 186.804 282.921 185.673 283.02ZM196.28 288.838L195.577 280.804L197.601 280.627L197.654 281.232C198.15 280.659 198.801 280.2 199.789 280.114C200.81 280.025 201.741 280.393 202.343 281.208C202.855 280.456 203.568 279.783 204.923 279.665C206.581 279.52 207.988 280.553 208.186 282.817L208.619 287.759L206.578 287.937L206.153 283.075C206.068 282.103 205.489 281.543 204.58 281.622C203.703 281.699 203.278 282.347 203.006 282.917C203.032 283.027 203.042 283.138 203.053 283.266L203.485 288.208L201.445 288.386L201.019 283.524C200.934 282.552 200.355 281.992 199.447 282.072C198.522 282.152 198.104 282.88 197.846 283.416L198.304 288.661L196.28 288.838ZM213.214 287.598C211.604 287.739 210.423 286.91 210.293 285.428C210.187 284.216 211.048 283.225 212.745 282.788L215.164 282.158L215.145 281.951C215.072 281.106 214.386 280.62 213.462 280.701C212.681 280.769 212.107 281.189 211.728 281.816L210.147 280.814C210.777 279.763 211.904 279.054 213.371 278.926C215.698 278.722 217.015 280.004 217.17 281.774L217.625 286.971L215.6 287.148L215.532 286.367C215.076 287.033 214.154 287.515 213.214 287.598ZM212.293 285.156C212.341 285.698 212.802 286.011 213.487 285.951C214.412 285.87 215.044 285.381 215.387 284.709L215.288 283.577L213.403 284.063C212.57 284.281 212.25 284.662 212.293 285.156ZM223.437 285.29L224.67 283.961C225.218 284.539 225.847 284.934 226.612 284.867C227.266 284.81 227.567 284.398 227.525 283.92C227.403 282.517 223.607 283.379 223.36 280.558C223.236 279.139 224.338 277.966 226.012 277.82C227.239 277.712 228.407 278.205 229.049 278.935L227.813 280.232C227.354 279.758 226.792 279.39 226.17 279.444C225.532 279.5 225.26 279.877 225.296 280.292C225.416 281.663 229.216 280.848 229.459 283.622C229.575 285.315 228.301 286.358 226.787 286.491C225.352 286.616 224.281 286.131 223.437 285.29ZM238.777 283.803C238.116 284.873 236.927 285.603 235.412 285.736C232.559 285.986 230.774 284.134 230.569 281.79C230.361 279.415 231.688 277.323 234.319 277.093C236.551 276.898 238.15 278.284 238.334 280.388C238.373 280.835 238.345 281.255 238.305 281.531L232.678 282.023C233 283.505 233.978 284.03 235.237 283.92C236.114 283.843 236.846 283.394 237.226 282.782L238.777 283.803ZM234.416 278.755C233.38 278.846 232.744 279.48 232.613 280.551L236.312 280.228C236.209 279.417 235.548 278.656 234.416 278.755ZM240.726 284.95L240.023 276.915L242.048 276.738L242.101 277.344C242.597 276.77 243.248 276.312 244.236 276.225C245.256 276.136 246.188 276.504 246.789 277.319C247.302 276.568 248.014 275.895 249.369 275.776C251.027 275.631 252.435 276.665 252.633 278.928L253.065 283.87L251.025 284.049L250.599 279.187C250.514 278.214 249.935 277.654 249.026 277.734C248.15 277.811 247.724 278.458 247.453 279.028C247.479 279.138 247.488 279.25 247.5 279.377L247.932 284.319L245.891 284.498L245.466 279.636C245.381 278.663 244.802 278.103 243.893 278.183C242.969 278.264 242.55 278.991 242.292 279.528L242.751 284.773L240.726 284.95ZM257.66 283.709C256.05 283.85 254.869 283.022 254.74 281.539C254.634 280.327 255.495 279.337 257.191 278.899L259.61 278.27L259.592 278.062C259.518 277.218 258.833 276.731 257.908 276.812C257.127 276.881 256.554 277.3 256.175 277.928L254.593 276.926C255.224 275.874 256.351 275.165 257.817 275.037C260.145 274.833 261.462 276.116 261.617 277.885L262.071 283.082L260.047 283.259L259.978 282.478C259.523 283.145 258.601 283.627 257.66 283.709ZM256.74 281.268C256.787 281.81 257.249 282.123 257.934 282.063C258.859 281.982 259.491 281.493 259.833 280.82L259.734 279.688L257.849 280.175C257.017 280.392 256.697 280.773 256.74 281.268ZM264.584 273.353C263.867 273.416 263.208 272.863 263.145 272.145C263.083 271.428 263.635 270.769 264.353 270.706C265.07 270.644 265.713 271.198 265.776 271.915C265.838 272.633 265.302 273.29 264.584 273.353ZM264.39 282.879L263.687 274.845L265.711 274.668L266.414 282.702L264.39 282.879ZM268.842 282.49L268.139 274.455L270.164 274.278L270.22 274.916C270.73 274.325 271.443 273.845 272.511 273.752C274.249 273.6 275.74 274.674 275.948 277.049L276.367 281.832L274.326 282.01L273.915 277.307C273.821 276.239 273.157 275.623 272.168 275.709C271.148 275.798 270.666 276.531 270.408 277.068L270.867 282.313L268.842 282.49ZM285.948 279.676C285.287 280.746 284.098 281.477 282.583 281.609C279.73 281.859 277.945 280.007 277.74 277.663C277.532 275.288 278.859 273.196 281.49 272.966C283.721 272.771 285.321 274.157 285.505 276.261C285.544 276.708 285.516 277.128 285.476 277.404L279.849 277.897C280.171 279.378 281.149 279.903 282.408 279.793C283.285 279.716 284.017 279.267 284.397 278.655L285.948 279.676ZM281.587 274.628C280.551 274.719 279.915 275.353 279.784 276.424L283.483 276.101C283.38 275.291 282.719 274.529 281.587 274.628Z" fill="#3B69D1"/>
        <rect x="42.628" y="269.196" width="264.71" height="51.9155" rx="25.9536" transform="rotate(-5 42.628 269.196)" stroke="#3B69D1" stroke-width="0.900234"/>
    </g>
    <defs>
        <filter id="filter0_d_5473_14661" x="-5.49116" y="61.6652" width="350.422" height="290.377" filterUnits="userSpaceOnUse" color-interpolation-filters="sRGB">
            <feFlood flood-opacity="0" result="BackgroundImageFix"/>
            <feColorMatrix in="SourceAlpha" type="matrix" values="0 0 0 0 0 0 0 0 0 0 0 0 0 0 0 0 0 0 127 0" result="hardAlpha"/>
            <feOffset dy="3.60094"/>
            <feGaussianBlur stdDeviation="5.4014"/>
            <feComposite in2="hardAlpha" operator="out"/>
            <feColorMatrix type="matrix" values="0 0 0 0 0.152941 0 0 0 0 0.286275 0 0 0 0 0.588235 0 0 0 0.12 0"/>
            <feBlend mode="normal" in2="BackgroundImageFix" result="effect1_dropShadow_5473_14661"/>
            <feBlend mode="normal" in="SourceGraphic" in2="effect1_dropShadow_5473_14661" result="shape"/>
        </filter>
    </defs>
</svg>
