<svg width="352" height="372" viewBox="0 0 352 372" fill="none" xmlns="http://www.w3.org/2000/svg">
<rect x="32.2405" y="148.458" width="288.376" height="128.102" rx="10.4713" transform="rotate(-5.5659 32.2405 148.458)" fill="#F1F1F1" stroke="#878787" stroke-width="0.910548" stroke-dasharray="4.55 4.55"/>
<g filter="url(#filter0_d_5600_14263)">
<rect x="17.4246" y="140.401" width="290.406" height="122.617" rx="6.70175" transform="rotate(-5.56962 17.4246 140.401)" fill="white" shape-rendering="crispEdges"/>
<path d="M39.6657 178.045L38.5272 166.37L41.4792 166.083L44.8093 170.708L47.183 165.526L50.135 165.238L51.2735 176.913L48.9052 177.144L48.0888 168.772L45.9131 173.395L44.2453 173.558L41.2175 169.442L42.0339 177.814L39.6657 178.045ZM57.2847 167.504C60.0199 167.238 62.0846 169.074 62.3302 171.592C62.5758 174.11 60.9046 176.311 58.1695 176.577C55.4343 176.844 53.3696 175.008 53.124 172.49C52.8784 169.971 54.5496 167.771 57.2847 167.504ZM58.0077 174.573C59.3586 174.441 60.2702 173.258 60.1287 171.807C59.9856 170.339 58.8642 169.371 57.5132 169.503C56.1123 169.639 55.1824 170.807 55.3255 172.275C55.4686 173.743 56.6067 174.709 58.0077 174.573ZM64.6719 175.606L63.8522 167.201L65.9703 166.994L66.0354 167.661C66.5638 167.037 67.3054 166.527 68.4228 166.418C70.2407 166.241 71.8137 167.35 72.056 169.835L72.5439 174.839L70.4091 175.047L69.9293 170.127C69.8204 169.01 69.1183 168.371 68.0843 168.472C67.0169 168.576 66.5198 169.348 66.255 169.913L66.79 175.4L64.6719 175.606ZM84.9143 171.73C86.2485 171.6 87.2358 170.847 87.8102 169.831L89.818 171.083C88.8921 172.638 87.2487 173.742 85.1306 173.948C81.4448 174.308 78.6499 171.718 78.3246 168.382C77.9994 165.047 80.2413 161.966 83.9271 161.607C86.0452 161.4 87.8724 162.181 89.078 163.495L87.3516 165.128C86.5917 164.243 85.4776 163.695 84.1434 163.825C81.9419 164.039 80.5417 165.91 80.7596 168.145C80.9775 170.38 82.7128 171.945 84.9143 171.73ZM89.634 161.387L92.1523 161.141L96.4943 169.927L99.057 160.468L101.575 160.222L98.2942 172.328L95.1921 172.63L89.634 161.387ZM109.179 171.266L108.04 159.592L111.476 159.257C113.911 159.019 115.512 160.075 115.704 162.043C115.797 162.994 115.443 163.854 114.678 164.467C115.966 164.897 116.747 165.831 116.866 167.048C117.074 169.183 115.55 170.645 112.864 170.907L109.179 171.266ZM111.718 161.22L110.6 161.329L110.857 163.964L111.975 163.855C112.875 163.767 113.362 163.232 113.279 162.381C113.199 161.564 112.618 161.132 111.718 161.22ZM112.5 165.79L111.049 165.932L111.355 169.067L112.806 168.926C113.907 168.819 114.517 168.17 114.421 167.186C114.323 166.185 113.601 165.683 112.5 165.79ZM122.563 161.139C125.298 160.872 127.363 162.708 127.608 165.226C127.854 167.745 126.183 169.945 123.448 170.212C120.713 170.478 118.648 168.642 118.402 166.124C118.157 163.606 119.828 161.406 122.563 161.139ZM123.286 168.207C124.637 168.075 125.548 166.892 125.407 165.441C125.264 163.973 124.142 163.005 122.792 163.137C121.391 163.274 120.461 164.442 120.604 165.909C120.747 167.377 121.885 168.344 123.286 168.207ZM135.133 165.065L134.668 160.295L136.802 160.087L137.258 164.757C137.503 167.275 136.187 168.969 133.719 169.21C131.25 169.451 129.648 168.041 129.402 165.523L128.947 160.853L131.082 160.645L131.547 165.415C131.666 166.632 132.373 167.321 133.54 167.207C134.691 167.095 135.251 166.283 135.133 165.065ZM139.967 168.264L138.747 155.756L140.865 155.549L142.085 168.057L139.967 168.264ZM147.017 167.829C145.333 167.993 144.088 167.138 143.937 165.587C143.813 164.32 144.704 163.273 146.476 162.797L149.002 162.113L148.981 161.896C148.895 161.012 148.173 160.51 147.205 160.605C146.388 160.684 145.792 161.13 145.402 161.791L143.735 160.758C144.385 159.651 145.557 158.897 147.091 158.747C149.526 158.509 150.919 159.839 151.099 161.69L151.63 167.127L149.511 167.333L149.432 166.516C148.961 167.219 148.001 167.733 147.017 167.829ZM146.028 165.282C146.084 165.849 146.57 166.172 147.287 166.102C148.254 166.008 148.911 165.489 149.263 164.782L149.147 163.597L147.178 164.126C146.309 164.362 145.978 164.765 146.028 165.282ZM154.055 166.89L153.235 158.485L155.353 158.278L155.418 158.945C155.947 158.321 156.688 157.811 157.806 157.702C159.624 157.525 161.197 158.634 161.439 161.119L161.927 166.123L159.792 166.331L159.312 161.411C159.203 160.293 158.501 159.655 157.467 159.756C156.4 159.86 155.903 160.632 155.638 161.197L156.173 166.684L154.055 166.89ZM163.641 167.437C163.56 166.603 163.912 165.895 164.609 165.272C164.243 164.971 164.015 164.538 163.973 164.105C163.908 163.438 164.139 162.876 164.728 162.347C163.94 161.869 163.459 161.074 163.367 160.14C163.208 158.505 164.347 157.064 166.449 156.859C167.099 156.796 167.677 156.857 168.182 157.027L171.251 156.728L171.427 158.529L169.942 158.674C170.052 158.932 170.111 159.196 170.139 159.48C170.3 161.131 169.196 162.585 167.028 162.797C166.744 162.824 166.476 162.834 166.22 162.808C166.053 162.993 165.971 163.186 165.989 163.369C166.022 163.703 166.221 163.852 166.605 163.814L168.723 163.608C170.841 163.401 172.102 164.423 172.255 165.991C172.437 167.859 170.793 169.467 168.174 169.722C165.489 169.984 163.814 169.205 163.641 167.437ZM166.905 161.192C167.789 161.106 168.302 160.5 168.221 159.667C168.139 158.833 167.52 158.354 166.636 158.44C165.719 158.53 165.222 159.134 165.302 159.951C165.383 160.785 165.987 161.282 166.905 161.192ZM165.613 166.942C165.691 167.742 166.507 168.168 167.992 168.023C169.526 167.873 170.255 167.23 170.173 166.396C170.112 165.762 169.684 165.349 168.667 165.449L166.065 165.702C165.777 166.033 165.563 166.425 165.613 166.942ZM180.83 162.899C180.149 164.026 178.911 164.803 177.327 164.958C174.341 165.249 172.454 163.328 172.215 160.877C171.972 158.392 173.34 156.187 176.092 155.919C178.427 155.691 180.115 157.126 180.33 159.328C180.376 159.795 180.351 160.235 180.312 160.525L174.425 161.099C174.778 162.647 175.807 163.186 177.125 163.058C178.042 162.968 178.803 162.49 179.195 161.846L180.83 162.899ZM176.211 157.658C175.127 157.764 174.468 158.434 174.342 159.558L178.211 159.181C178.095 158.333 177.395 157.543 176.211 157.658ZM182.883 164.079L182.063 155.673L184.181 155.467L184.263 156.301C184.758 155.68 185.433 155.176 186.383 155.084C186.667 155.056 186.922 155.082 187.128 155.129L187.332 157.214C187.058 157.173 186.77 157.151 186.386 157.188C185.352 157.289 184.741 157.921 184.476 158.486L185.001 163.872L182.883 164.079Z" fill="#161616"/>
<path d="M115.919 215.969C115.83 215.978 115.746 215.972 115.666 215.952C115.586 215.932 115.509 215.892 115.437 215.832L112.815 213.676C112.681 213.566 112.605 213.417 112.587 213.229C112.568 213.041 112.614 212.88 112.724 212.747C112.834 212.613 112.985 212.534 113.178 212.51C113.371 212.486 113.534 212.528 113.668 212.638L115.034 213.761L114.571 209.016C114.553 208.828 114.601 208.664 114.716 208.524C114.83 208.385 114.982 208.306 115.17 208.288C115.358 208.27 115.522 208.318 115.662 208.432C115.801 208.547 115.88 208.699 115.898 208.887L116.361 213.632L117.484 212.266C117.594 212.132 117.746 212.059 117.94 212.045C118.134 212.032 118.298 212.081 118.431 212.19C118.565 212.3 118.641 212.449 118.659 212.637C118.677 212.825 118.632 212.986 118.522 213.119L116.366 215.741C116.306 215.814 116.238 215.868 116.164 215.903C116.089 215.939 116.007 215.961 115.919 215.969ZM112.224 219.294C111.859 219.33 111.534 219.23 111.249 218.996C110.963 218.761 110.802 218.461 110.767 218.096L110.637 216.769C110.619 216.581 110.667 216.417 110.782 216.277C110.897 216.138 111.048 216.059 111.236 216.041C111.424 216.022 111.588 216.07 111.728 216.185C111.868 216.3 111.946 216.452 111.965 216.64L112.094 217.967L120.058 217.19L119.928 215.863C119.91 215.675 119.958 215.511 120.073 215.371C120.188 215.232 120.339 215.153 120.527 215.135C120.715 215.116 120.879 215.164 121.018 215.279C121.158 215.394 121.237 215.546 121.255 215.734L121.385 217.061C121.42 217.426 121.321 217.751 121.087 218.037C120.852 218.322 120.552 218.482 120.187 218.518L112.224 219.294Z" fill="#3B69D1"/>
<path d="M134.234 209.642L134.034 207.587L143.176 206.696L143.376 208.75L139.936 209.086L140.823 218.18L138.561 218.4L137.674 209.306L134.234 209.642ZM148.587 208.033L146.644 208.222L148.043 205.417L150.241 205.203L148.587 208.033ZM152.09 215.763C151.44 216.839 150.258 217.581 148.745 217.729C145.894 218.007 144.091 216.173 143.863 213.832C143.631 211.459 144.937 209.354 147.565 209.097C149.795 208.88 151.408 210.25 151.613 212.352C151.657 212.798 151.633 213.219 151.596 213.496L145.974 214.044C146.311 215.522 147.294 216.037 148.552 215.915C149.428 215.829 150.155 215.373 150.529 214.757L152.09 215.763ZM147.679 210.758C146.644 210.859 146.015 211.499 145.895 212.572L149.59 212.212C149.479 211.403 148.81 210.648 147.679 210.758ZM154.051 216.89L152.886 204.945L154.909 204.747L156.074 216.693L154.051 216.89ZM162.259 206.7L160.316 206.889L161.714 204.084L163.912 203.869L162.259 206.7ZM165.762 214.429C165.111 215.506 163.93 216.248 162.417 216.396C159.566 216.674 157.763 214.84 157.534 212.498C157.303 210.125 158.609 208.02 161.237 207.764C163.467 207.547 165.08 208.917 165.285 211.019C165.328 211.465 165.305 211.885 165.268 212.162L159.645 212.711C159.983 214.189 160.965 214.704 162.224 214.581C163.1 214.496 163.827 214.039 164.201 213.424L165.762 214.429ZM161.351 209.425C160.316 209.526 159.687 210.166 159.566 211.239L163.261 210.879C163.15 210.07 162.482 209.315 161.351 209.425ZM171.359 213.594C172.156 213.516 172.757 213.088 173.085 212.493L174.78 213.55C174.128 214.61 173.011 215.362 171.546 215.505C168.774 215.776 166.924 213.946 166.696 211.605C166.467 209.264 167.93 207.111 170.701 206.841C172.166 206.698 173.407 207.22 174.252 208.135L172.793 209.499C172.356 208.979 171.684 208.675 170.855 208.755C169.533 208.884 168.661 209.998 168.798 211.4C168.936 212.817 170.006 213.726 171.359 213.594ZM176.417 214.709L175.252 202.763L177.275 202.566L177.719 207.121C178.224 206.525 178.932 206.038 179.999 205.934C181.735 205.765 183.237 206.824 183.469 209.197L183.935 213.976L181.896 214.174L181.438 209.476C181.334 208.409 180.679 207.797 179.676 207.895C178.656 207.995 178.182 208.732 177.929 209.271L178.44 214.511L176.417 214.709ZM188.516 213.77C186.908 213.927 185.719 213.11 185.574 211.629C185.456 210.419 186.307 209.419 187.999 208.965L190.412 208.311L190.392 208.104C190.309 207.26 189.619 206.781 188.696 206.871C187.915 206.947 187.346 207.372 186.973 208.004L185.382 207.017C186.002 205.96 187.122 205.24 188.587 205.097C190.912 204.87 192.242 206.139 192.414 207.907L192.921 213.099L190.898 213.296L190.822 212.516C190.373 213.187 189.456 213.678 188.516 213.77ZM187.572 211.338C187.625 211.879 188.089 212.188 188.774 212.121C189.697 212.031 190.324 211.536 190.66 210.86L190.55 209.729L188.67 210.234C187.84 210.459 187.524 210.844 187.572 211.338ZM195.237 212.873L194.454 204.846L196.477 204.649L196.555 205.445C197.027 204.852 197.672 204.372 198.58 204.283C198.85 204.257 199.094 204.281 199.291 204.326L199.485 206.317C199.224 206.278 198.949 206.257 198.583 206.293C197.595 206.389 197.011 206.992 196.758 207.532L197.26 212.676L195.237 212.873ZM200.892 213.737C200.814 212.94 201.15 212.264 201.816 211.669C201.466 211.381 201.249 210.969 201.209 210.554C201.147 209.917 201.368 209.381 201.929 208.876C201.177 208.419 200.718 207.66 200.631 206.768C200.478 205.207 201.566 203.831 203.573 203.635C204.194 203.575 204.746 203.633 205.228 203.795L208.159 203.51L208.327 205.23L206.909 205.368C207.014 205.615 207.07 205.867 207.097 206.138C207.251 207.714 206.196 209.103 204.126 209.305C203.855 209.332 203.599 209.341 203.355 209.316C203.195 209.492 203.117 209.677 203.134 209.852C203.165 210.171 203.356 210.313 203.722 210.277L205.745 210.08C207.768 209.883 208.972 210.859 209.118 212.356C209.292 214.139 207.722 215.675 205.221 215.919C202.657 216.169 201.057 215.425 200.892 213.737ZM204.009 207.773C204.853 207.691 205.343 207.112 205.265 206.316C205.188 205.52 204.596 205.063 203.752 205.145C202.876 205.231 202.402 205.808 202.478 206.588C202.556 207.384 203.133 207.859 204.009 207.773ZM202.775 213.264C202.85 214.028 203.629 214.434 205.047 214.296C206.512 214.153 207.208 213.539 207.13 212.742C207.071 212.137 206.663 211.743 205.691 211.838L203.207 212.08C202.932 212.396 202.727 212.77 202.775 213.264ZM217.307 209.403C216.656 210.479 215.474 211.221 213.961 211.369C211.11 211.647 209.308 209.813 209.079 207.472C208.848 205.099 210.154 202.993 212.782 202.737C215.012 202.52 216.624 203.89 216.83 205.992C216.873 206.438 216.85 206.859 216.812 207.136L211.19 207.684C211.527 209.162 212.51 209.677 213.768 209.555C214.644 209.469 215.371 209.012 215.746 208.397L217.307 209.403ZM212.896 204.398C211.86 204.499 211.231 205.139 211.111 206.212L214.806 205.852C214.695 205.043 214.026 204.288 212.896 204.398ZM219.267 210.53L218.485 202.503L220.507 202.305L220.585 203.102C221.058 202.509 221.702 202.028 222.61 201.94C222.881 201.913 223.124 201.938 223.322 201.983L223.516 203.974C223.255 203.935 222.979 203.913 222.613 203.949C221.626 204.045 221.041 204.649 220.788 205.188L221.29 210.333L219.267 210.53Z" fill="#3B69D1"/>
<rect x="40.5094" y="199.323" width="255.892" height="43.0068" rx="21.5" transform="rotate(-5.57 40.5094 199.323)" stroke="#3B69D1"/>
</g>
<g filter="url(#filter1_d_5600_14263)">
<rect x="66.0103" y="294.326" width="229.579" height="48.0075" rx="24" transform="rotate(-5.57 66.0103 294.326)" fill="#3B69D1" shape-rendering="crispEdges"/>
<path d="M87.94 322.334C87.575 322.37 87.2498 322.27 86.9643 322.036C86.6793 321.801 86.5189 321.501 86.4834 321.136L85.5773 311.846C85.5417 311.481 85.6411 311.155 85.8754 310.87C86.1102 310.585 86.4101 310.424 86.7751 310.389L90.7568 310.001C90.9449 309.982 91.1088 310.03 91.2486 310.145C91.388 310.26 91.4668 310.411 91.4852 310.599C91.5035 310.787 91.4554 310.951 91.3408 311.091C91.2258 311.23 91.0743 311.309 90.8863 311.328L86.9045 311.716L87.8106 321.007L97.1013 320.101L96.713 316.119C96.6947 315.931 96.743 315.767 96.858 315.627C96.9726 315.488 97.1239 315.409 97.3119 315.391C97.4999 315.372 97.6636 315.42 97.803 315.535C97.9428 315.65 98.0219 315.802 98.0402 315.99L98.4286 319.971C98.4641 320.336 98.3648 320.662 98.1305 320.947C97.8956 321.232 97.5957 321.392 97.2307 321.428L87.94 322.334ZM90.2062 318.093C90.0727 317.984 89.9968 317.835 89.9784 317.647C89.9601 317.459 90.0058 317.298 90.1156 317.164L95.2662 310.901L93.5408 311.069C93.3527 311.087 93.189 311.039 93.0496 310.924C92.9098 310.809 92.8308 310.658 92.8124 310.47C92.7941 310.282 92.8424 310.118 92.9574 309.978C93.072 309.839 93.2233 309.76 93.4113 309.742L96.7294 309.418C96.9175 309.4 97.0812 309.448 97.2205 309.562C97.3604 309.677 97.4394 309.829 97.4578 310.017L97.7814 313.335C97.7997 313.523 97.7514 313.687 97.6363 313.826C97.5218 313.966 97.3705 314.045 97.1825 314.063C96.9944 314.082 96.8307 314.033 96.6913 313.918C96.5515 313.804 96.4725 313.653 96.4541 313.465L96.2859 311.739L91.1203 318.021C91.0105 318.155 90.8671 318.23 90.6902 318.247C90.5132 318.264 90.3519 318.213 90.2062 318.093Z" fill="white"/>
<path d="M115.464 318.838C116.738 318.714 117.681 317.995 118.23 317.025L120.147 318.22C119.263 319.706 117.694 320.759 115.671 320.956C112.151 321.299 109.482 318.826 109.171 315.641C108.861 312.456 111.002 309.514 114.521 309.17C116.544 308.973 118.289 309.719 119.44 310.974L117.792 312.533C117.066 311.688 116.002 311.164 114.728 311.289C112.626 311.494 111.288 313.28 111.497 315.414C111.705 317.548 113.362 319.043 115.464 318.838ZM124.883 311.311C127.495 311.056 129.467 312.81 129.702 315.215C129.936 317.62 128.34 319.721 125.728 319.975C123.116 320.23 121.144 318.477 120.91 316.072C120.675 313.667 122.271 311.566 124.883 311.311ZM125.574 318.061C126.864 317.935 127.734 316.805 127.599 315.42C127.462 314.018 126.392 313.093 125.101 313.219C123.764 313.35 122.876 314.465 123.012 315.867C123.149 317.269 124.236 318.192 125.574 318.061ZM131.938 319.048L131.155 311.021L133.178 310.824L133.24 311.461C133.744 310.865 134.453 310.378 135.52 310.274C137.256 310.105 138.758 311.164 138.989 313.537L139.455 318.315L137.417 318.514L136.958 313.815C136.854 312.748 136.184 312.138 135.196 312.235C134.177 312.334 133.702 313.072 133.45 313.611L133.961 318.851L131.938 319.048ZM141.976 315.111L141.656 311.83L140.159 311.976L139.982 310.16L141.479 310.014L141.283 308.007L143.322 307.809L143.518 309.815L145.97 309.576L146.147 311.392L143.695 311.631L144.015 314.912C144.102 315.804 144.614 316.108 145.41 316.03C145.967 315.976 146.328 315.876 146.587 315.738L146.76 317.506C146.379 317.72 145.909 317.847 145.24 317.912C143.233 318.107 142.167 317.07 141.976 315.111ZM148.664 307.899C147.948 307.969 147.284 307.422 147.214 306.706C147.144 305.989 147.69 305.325 148.407 305.255C149.123 305.185 149.772 305.733 149.842 306.449C149.911 307.166 149.381 307.829 148.664 307.899ZM148.565 317.427L147.782 309.4L149.805 309.202L150.587 317.229L148.565 317.427ZM153.013 316.993L152.23 308.966L154.253 308.769L154.315 309.406C154.82 308.81 155.528 308.323 156.595 308.219C158.331 308.049 159.833 309.109 160.065 311.482L160.531 316.26L158.492 316.459L158.034 311.76C157.93 310.693 157.259 310.083 156.272 310.179C155.252 310.279 154.778 311.017 154.525 311.556L155.036 316.796L153.013 316.993ZM167.777 312.048L167.332 307.493L169.371 307.294L169.806 311.754C170.04 314.159 168.783 315.777 166.426 316.006C164.069 316.236 162.539 314.89 162.304 312.485L161.869 308.026L163.908 307.827L164.352 312.382C164.466 313.545 165.141 314.202 166.256 314.094C167.355 313.986 167.89 313.211 167.777 312.048ZM179.656 313.076C179.005 314.153 177.823 314.895 176.31 315.043C173.459 315.321 171.656 313.487 171.428 311.145C171.197 308.772 172.503 306.667 175.131 306.411C177.36 306.193 178.973 307.564 179.178 309.666C179.222 310.112 179.198 310.532 179.161 310.809L173.539 311.357C173.876 312.836 174.859 313.351 176.117 313.228C176.993 313.143 177.72 312.686 178.094 312.071L179.656 313.076ZM175.244 308.072C174.209 308.173 173.58 308.813 173.46 309.886L177.155 309.526C177.044 308.716 176.375 307.962 175.244 308.072ZM181.616 314.204L180.833 306.176L182.856 305.979L182.934 306.775C183.407 306.183 184.051 305.702 184.959 305.613C185.23 305.587 185.473 305.611 185.67 305.656L185.865 307.647C185.604 307.608 185.328 307.587 184.962 307.623C183.974 307.719 183.39 308.323 183.137 308.862L183.639 314.006L181.616 314.204ZM190.45 305.239L192.616 305.027L195.261 310.557L196.773 304.622L198.955 304.409L196.807 312.722L194.147 312.981L190.45 305.239ZM208.181 310.294C207.53 311.371 206.349 312.113 204.835 312.261C201.985 312.539 200.182 310.705 199.953 308.363C199.722 305.99 201.028 303.885 203.656 303.629C205.886 303.412 207.499 304.782 207.704 306.884C207.747 307.33 207.724 307.75 207.687 308.027L202.064 308.576C202.401 310.054 203.384 310.569 204.642 310.447C205.518 310.361 206.246 309.904 206.62 309.289L208.181 310.294ZM203.77 305.29C202.735 305.391 202.106 306.031 201.985 307.104L205.68 306.744C205.569 305.935 204.901 305.18 203.77 305.29ZM210.142 311.422L209.359 303.394L211.381 303.197L211.459 303.994C211.932 303.401 212.576 302.92 213.484 302.831C213.755 302.805 213.999 302.829 214.196 302.875L214.39 304.865C214.129 304.827 213.854 304.805 213.487 304.841C212.5 304.937 211.915 305.541 211.663 306.08L212.164 311.224L210.142 311.422ZM215.798 309.696L217.018 308.355C217.572 308.928 218.205 309.317 218.969 309.242C219.622 309.179 219.919 308.764 219.873 308.286C219.736 306.884 215.949 307.784 215.674 304.965C215.536 303.548 216.626 302.364 218.299 302.201C219.525 302.081 220.697 302.562 221.347 303.287L220.124 304.596C219.66 304.126 219.094 303.763 218.473 303.824C217.836 303.886 217.567 304.266 217.608 304.68C217.741 306.05 221.533 305.198 221.803 307.969C221.936 309.66 220.672 310.716 219.159 310.864C217.726 311.004 216.651 310.53 215.798 309.696ZM228.184 309.662L227.019 297.717L229.042 297.52L230.207 309.465L228.184 309.662ZM233.072 302.561L231.193 302.744L232.179 298.018L234.472 297.794L233.072 302.561ZM239.265 300.156C241.877 299.902 243.848 301.655 244.083 304.06C244.318 306.465 242.722 308.566 240.11 308.821C237.498 309.075 235.526 307.322 235.291 304.917C235.057 302.512 236.653 300.411 239.265 300.156ZM239.955 306.906C241.245 306.781 242.116 305.651 241.981 304.265C241.844 302.863 240.773 301.939 239.483 302.065C238.145 302.195 237.257 303.311 237.394 304.712C237.53 306.114 238.617 307.037 239.955 306.906ZM244.456 299.972L245.953 299.826L245.871 298.982C245.704 297.277 246.702 295.797 248.708 295.602C249.441 295.53 250.079 295.645 250.615 295.866L249.92 297.638C249.664 297.486 249.331 297.374 248.917 297.414C248.232 297.481 247.833 298.002 247.905 298.735L247.991 299.627L250.444 299.388L250.621 301.203L248.169 301.443L248.774 307.654L246.736 307.853L246.13 301.641L244.633 301.787L244.456 299.972ZM251.237 299.31L252.734 299.164L252.652 298.32C252.486 296.616 253.483 295.136 255.49 294.94C256.222 294.869 256.861 294.984 257.397 295.205L256.701 296.977C256.445 296.825 256.113 296.713 255.699 296.753C255.014 296.82 254.614 297.341 254.686 298.074L254.773 298.966L257.226 298.726L257.403 300.542L254.95 300.781L255.556 306.993L253.517 307.192L252.911 300.98L251.414 301.126L251.237 299.31ZM259.291 306.628L258.508 298.601L260.531 298.404L260.609 299.2C261.081 298.608 261.726 298.127 262.634 298.038C262.904 298.012 263.148 298.036 263.345 298.081L263.54 300.072C263.278 300.033 263.003 300.012 262.637 300.048C261.649 300.144 261.065 300.748 260.812 301.287L261.314 306.431L259.291 306.628ZM272.682 304.004C272.031 305.081 270.85 305.823 269.336 305.97C266.486 306.248 264.683 304.414 264.454 302.073C264.223 299.7 265.529 297.595 268.157 297.339C270.387 297.121 272 298.491 272.205 300.594C272.248 301.04 272.225 301.46 272.188 301.737L266.565 302.285C266.902 303.764 267.885 304.279 269.143 304.156C270.019 304.071 270.747 303.614 271.121 302.999L272.682 304.004ZM268.271 299C267.236 299.101 266.607 299.741 266.486 300.814L270.181 300.454C270.07 299.644 269.402 298.89 268.271 299Z" fill="white"/>
<rect x="66.5564" y="294.775" width="228.579" height="47.0075" rx="23.5" transform="rotate(-5.57 66.5564 294.775)" stroke="#3B69D1" shape-rendering="crispEdges"/>
</g>
<path d="M20.5333 93.4581L28.4967 92.6815C28.8728 92.6448 29.1758 92.4867 29.4058 92.207C29.6349 91.9283 29.7312 91.6009 29.6945 91.2248C29.6579 90.8488 29.5002 90.5462 29.2215 90.317C28.9418 90.087 28.6139 89.9904 28.2378 90.027L20.2744 90.8036C19.8983 90.8403 19.5958 90.9985 19.3667 91.278C19.1366 91.5568 19.0399 91.8843 19.0766 92.2603C19.1132 92.6364 19.2714 92.939 19.551 93.168C19.8298 93.3981 20.1572 93.4948 20.5333 93.4581ZM20.0155 88.1492L27.979 87.3725C28.355 87.3359 28.658 87.1777 28.888 86.898C29.1172 86.6193 29.2135 86.2919 29.1768 85.9159C29.1401 85.5398 28.9824 85.2367 28.7036 85.0067C28.424 84.7776 28.0962 84.6814 27.7201 84.7181L19.7566 85.4947C19.3806 85.5313 19.078 85.689 18.8488 85.9677C18.6188 86.2474 18.5222 86.5753 18.5588 86.9513C18.5955 87.3274 18.7536 87.63 19.0332 87.8591C19.312 88.0891 19.6395 88.1858 20.0155 88.1492ZM17.0693 99.1554C16.3393 99.2266 15.6893 99.0278 15.1192 98.5591C14.5482 98.0895 14.2271 97.4898 14.1559 96.7598L12.0849 75.5239C12.0137 74.7939 12.2129 74.1434 12.6825 73.5724C13.1512 73.0023 13.7506 72.6817 14.4805 72.6105L24.0035 71.6818C24.3575 71.6473 24.7015 71.6808 25.0356 71.7822C25.3689 71.8836 25.669 72.0442 25.9361 72.2638L33.001 78.0732C33.268 78.2928 33.4836 78.5562 33.6475 78.8636C33.8116 79.1718 33.9109 79.5029 33.9454 79.8569L35.3918 94.6888C35.463 95.4188 35.2643 96.0693 34.7956 96.6402C34.326 97.2103 33.7262 97.531 32.9962 97.6022L17.0693 99.1554ZM24.5479 79.6679C24.5845 80.044 24.7427 80.3466 25.0223 80.5757C25.3011 80.8057 25.6285 80.9024 26.0046 80.8658L31.3135 80.348L24.0301 74.359L24.5479 79.6679Z" fill="#3B69D1"/>
<path d="M53.3693 79.2019L52.0103 65.2659L56.2707 64.8504C59.3366 64.5514 61.3814 65.9397 61.6338 68.5278C61.7988 70.2201 61.1048 71.5539 59.7355 72.3507L64.6974 78.0972L61.3726 78.4214L57.1002 73.1503L55.6469 73.2921L56.1964 78.9262L53.3693 79.2019ZM56.6591 67.1841L55.0664 67.3394L55.4178 70.9428L57.0105 70.7875C58.205 70.671 58.8339 69.9063 58.7232 68.7715C58.6203 67.7163 57.8536 67.0676 56.6591 67.1841ZM70.8101 65.7638L68.3813 66.0007L70.1295 62.4939L72.8769 62.226L70.8101 65.7638ZM75.1891 75.426C74.3758 76.7715 72.8986 77.6993 71.0073 77.8838C67.4436 78.2313 65.1902 75.9388 64.9047 73.0123C64.6155 70.0459 66.2481 67.4146 69.533 67.0942C72.3202 66.8224 74.3363 68.5351 74.5925 71.1631C74.6469 71.7205 74.6177 72.2459 74.5711 72.5921L67.5434 73.2775C67.9648 75.1256 69.1932 75.7695 70.766 75.6161C71.861 75.5094 72.77 74.9384 73.2377 74.1692L75.1891 75.426ZM69.6752 69.1706C68.3811 69.2968 67.5949 70.097 67.4444 71.4381L72.0632 70.9877C71.9243 69.9762 71.0887 69.0327 69.6752 69.1706ZM82.1858 74.3819C83.1813 74.2848 83.933 73.7492 84.3428 73.0058L86.4613 74.3267C85.646 75.6523 84.2504 76.5923 82.4188 76.7709C78.9547 77.1087 76.6415 74.8221 76.3561 71.8955C76.0707 68.9689 77.8985 66.2784 81.3626 65.9406C83.1942 65.762 84.7451 66.4146 85.8012 67.5577L83.9778 69.263C83.4321 68.6128 82.591 68.2326 81.5558 68.3335C79.9034 68.4947 78.8132 69.8873 78.9841 71.6392C79.1569 73.4111 80.4936 74.5469 82.1858 74.3819ZM94.6944 70.7904L94.1391 65.0966L96.6874 64.848L97.2311 70.4225C97.5242 73.4287 95.9528 75.451 93.0063 75.7384C90.0599 76.0257 88.1472 74.3431 87.8541 71.3369L87.3104 65.7625L89.8588 65.514L90.414 71.2079C90.5558 72.6612 91.3997 73.4833 92.7933 73.3474C94.167 73.2134 94.8361 72.2438 94.6944 70.7904ZM100.942 79.5066L99.4863 64.5751L102.015 64.3285L102.094 65.1448C102.795 64.2926 103.728 63.7595 105.102 63.6255C108.287 63.3149 110.441 65.6171 110.726 68.5436C111.012 71.4702 109.343 74.1452 106.158 74.4558C104.784 74.5898 103.766 74.2469 102.914 73.5462L103.471 79.26L100.942 79.5066ZM104.976 66.0495C103.802 66.1641 102.896 66.7749 102.351 67.7727L102.657 70.9183C103.427 71.8079 104.412 72.2144 105.566 72.1017C107.279 71.9348 108.269 70.5519 108.098 68.7999C107.927 67.048 106.688 65.8825 104.976 66.0495ZM118.326 61.1299L115.898 61.3668L117.646 57.86L120.393 57.5921L118.326 61.1299ZM122.706 70.7921C121.892 72.1376 120.415 73.0654 118.524 73.2499C114.96 73.5974 112.707 71.3049 112.421 68.3784C112.132 65.412 113.764 62.7807 117.049 62.4603C119.837 62.1885 121.853 63.9012 122.109 66.5292C122.163 67.0866 122.134 67.612 122.087 67.9582L115.06 68.6436C115.481 70.4917 116.71 71.1356 118.282 70.9822C119.377 70.8755 120.286 70.3044 120.754 69.5353L122.706 70.7921ZM117.192 64.5367C115.898 64.6629 115.111 65.4631 114.961 66.8042L119.58 66.3538C119.441 65.3423 118.605 64.3988 117.192 64.5367ZM125.156 72.2011L124.178 62.1671L126.706 61.9206L126.803 62.916C127.394 62.175 128.2 61.5739 129.335 61.4632C129.673 61.4302 129.977 61.4608 130.224 61.5172L130.467 64.0058C130.141 63.9572 129.796 63.9305 129.338 63.9751C128.104 64.0955 127.374 64.8501 127.058 65.524L127.685 71.9545L125.156 72.2011ZM141.895 68.9207C141.081 70.2662 139.604 71.1941 137.713 71.3785C134.149 71.726 131.896 69.4335 131.61 66.507C131.321 63.5406 132.954 60.9093 136.239 60.589C139.026 60.3171 141.042 62.0298 141.298 64.6578C141.353 65.2152 141.323 65.7406 141.277 66.0868L134.249 66.7722C134.67 68.6203 135.899 69.2642 137.472 69.1109C138.567 69.0041 139.476 68.4331 139.943 67.6639L141.895 68.9207ZM136.381 62.6653C135.087 62.7915 134.301 63.5917 134.15 64.9328L138.769 64.4824C138.63 63.4709 137.794 62.5274 136.381 62.6653ZM143.811 70.3818L143.59 68.1122L148.151 62.1204L143.213 62.6019L142.992 60.3323L151.095 59.5421L151.316 61.8117L146.755 67.8035L151.991 67.2929L152.213 69.5625L143.811 70.3818ZM157.798 58.8884L160.506 58.6243L163.813 65.5371L165.702 58.1176L168.43 57.8516L165.745 68.2428L162.42 68.567L157.798 58.8884ZM174.645 56.8435C177.91 56.5251 180.374 58.7166 180.668 61.7228C180.961 64.729 178.966 67.3554 175.701 67.6738C172.436 67.9922 169.971 65.8007 169.678 62.7945C169.385 59.7883 171.38 57.1619 174.645 56.8435ZM175.508 65.2809C177.12 65.1236 178.209 63.7111 178.04 61.9791C177.869 60.2271 176.53 59.0714 174.917 59.2287C173.245 59.3918 172.135 60.7863 172.306 62.5383C172.477 64.2902 173.835 65.444 175.508 65.2809ZM183.626 62.8009L183.226 58.6998L181.355 58.8823L181.133 56.6127L183.005 56.4302L182.76 53.9217L185.309 53.6732L185.553 56.1817L188.619 55.8827L188.84 58.1522L185.775 58.4512L186.174 62.5524C186.283 63.6673 186.923 64.0471 187.919 63.95C188.615 63.882 189.066 63.7577 189.39 63.5854L189.606 65.7952C189.13 66.0628 188.542 66.2206 187.706 66.3021C185.197 66.5467 183.865 65.2497 183.626 62.8009ZM191.862 65.6958L190.883 55.6618L193.412 55.4153L193.509 56.4107C194.1 55.6697 194.905 55.0686 196.04 54.958C196.379 54.9249 196.683 54.9555 196.93 55.0119L197.173 57.5005C196.846 57.4519 196.502 57.4252 196.044 57.4698C194.81 57.5902 194.079 58.3448 193.763 59.0187L194.39 65.4492L191.862 65.6958ZM208.601 62.4154C207.787 63.7609 206.31 64.6888 204.419 64.8732C200.855 65.2207 198.602 62.9283 198.316 60.0017C198.027 57.0353 199.659 54.404 202.944 54.0837C205.732 53.8118 207.748 55.5246 208.004 58.1525C208.058 58.7099 208.029 59.2353 207.983 59.5815L200.955 60.2669C201.376 62.115 202.605 62.7589 204.177 62.6056C205.272 62.4988 206.181 61.9278 206.649 61.1586L208.601 62.4154ZM203.087 56.16C201.793 56.2862 201.006 57.0864 200.856 58.4275L205.475 57.9771C205.336 56.9656 204.5 56.0221 203.087 56.16ZM222.947 60.3933C224.54 60.2379 225.718 59.3392 226.404 58.1267L228.801 59.6214C227.695 61.4777 225.734 62.7945 223.205 63.0411C218.805 63.4702 215.469 60.3789 215.081 56.3972C214.692 52.4154 217.369 48.7378 221.768 48.3087C224.297 48.0621 226.478 48.995 227.917 50.563L225.856 52.5125C224.949 51.4553 223.619 50.8012 222.027 50.9565C219.399 51.2128 217.727 53.4459 217.987 56.1137C218.248 58.7815 220.319 60.6495 222.947 60.3933ZM228.581 48.0463L231.587 47.7531L236.77 58.2413L239.829 46.9493L242.835 46.6561L238.919 61.1067L235.216 61.4679L228.581 48.0463ZM250.356 58.5241L251.881 56.848C252.574 57.5642 253.365 58.0499 254.321 57.9567C255.137 57.8771 255.508 57.3585 255.45 56.7612C255.279 55.0093 250.545 56.1341 250.202 52.6103C250.029 50.8384 251.392 49.3589 253.482 49.1551C255.015 49.0056 256.481 49.6063 257.293 50.5119L255.764 52.1483C255.184 51.5617 254.477 51.1081 253.7 51.1838C252.904 51.2615 252.568 51.7364 252.619 52.254C252.786 53.9661 257.526 52.901 257.863 56.3651C258.029 58.4793 256.45 59.799 254.558 59.9835C252.767 60.1582 251.423 59.5657 250.356 58.5241ZM266.659 54.02L266.104 48.3261L268.652 48.0776L269.196 53.6521C269.489 56.6583 267.918 58.6806 264.971 58.968C262.025 59.2553 260.112 57.5727 259.819 54.5665L259.275 48.9921L261.824 48.7436L262.379 54.4375C262.521 55.8908 263.365 56.7129 264.758 56.577C266.132 56.443 266.801 55.4734 266.659 54.02ZM272.43 57.8386L271.451 47.8047L273.98 47.5581L274.077 48.5535C274.668 47.8126 275.473 47.2115 276.608 47.1008C276.947 47.0678 277.251 47.0984 277.498 47.1547L277.74 49.6433C277.414 49.5947 277.07 49.568 276.612 49.6127C275.378 49.733 274.647 50.4876 274.331 51.1616L274.958 57.5921L272.43 57.8386ZM52.7497 93.2506L55.4573 92.9865L58.7643 99.8993L60.6534 92.4798L63.3809 92.2138L60.6963 102.605L57.3715 102.929L52.7497 93.2506ZM69.5961 91.2057C72.8611 90.8873 75.3258 93.0788 75.6189 96.085C75.9121 99.0912 73.9173 101.718 70.6522 102.036C67.3872 102.354 64.9225 100.163 64.6294 97.1567C64.3362 94.1505 66.331 91.5241 69.5961 91.2057ZM70.4591 99.6431C72.0717 99.4858 73.1599 98.0733 72.991 96.3413C72.8201 94.5893 71.4815 93.4336 69.8689 93.5909C68.1965 93.754 67.0864 95.1485 67.2573 96.9004C67.4282 98.6524 68.7868 99.8062 70.4591 99.6431ZM78.5775 97.1631L78.1776 93.0619L76.3062 93.2445L76.0848 90.9749L77.9562 90.7924L77.7116 88.2839L80.2599 88.0354L80.5045 90.5438L83.5705 90.2448L83.7918 92.5144L80.7259 92.8134L81.1258 96.9146C81.2346 98.0295 81.8745 98.4092 82.87 98.3122C83.5668 98.2442 84.0169 98.1199 84.3418 97.9476L84.5573 100.157C84.0809 100.425 83.4934 100.583 82.6572 100.664C80.1487 100.909 78.8163 99.6119 78.5775 97.1631ZM86.8133 100.058L85.8348 90.024L88.3632 89.7775L88.4603 90.7729C89.0512 90.0319 89.8568 89.4308 90.9916 89.3201C91.3301 89.2871 91.6345 89.3177 91.8812 89.3741L92.1239 91.8627C91.7976 91.8141 91.4533 91.7874 90.9954 91.832C89.7611 91.9524 89.0307 92.707 88.7146 93.3809L89.3417 99.8114L86.8133 100.058ZM103.552 96.7776C102.739 98.1231 101.261 99.051 99.37 99.2354C95.8064 99.5829 93.5529 97.2904 93.2675 94.3639C92.9782 91.3975 94.6108 88.7662 97.8958 88.4459C100.683 88.174 102.699 89.8867 102.955 92.5147C103.01 93.0721 102.981 93.5975 102.934 93.9437L95.9061 94.6291C96.3275 96.4772 97.556 97.1211 99.1288 96.9678C100.224 96.861 101.133 96.29 101.6 95.5208L103.552 96.7776ZM98.0379 90.5222C96.7439 90.6484 95.9577 91.4486 95.8071 92.7897L100.426 92.3393C100.287 91.3278 99.4515 90.3843 98.0379 90.5222ZM111.648 93.938L111.249 89.8368L109.377 90.0193L109.156 87.7497L111.027 87.5672L110.783 85.0587L113.331 84.8102L113.575 87.3187L116.641 87.0197L116.863 89.2893L113.797 89.5883L114.197 93.6895C114.306 94.8044 114.945 95.1841 115.941 95.087C116.638 95.0191 117.088 94.8948 117.413 94.7224L117.628 96.9323C117.152 97.1998 116.564 97.3576 115.728 97.4391C113.22 97.6838 111.887 96.3867 111.648 93.938ZM124.389 84.6563L121.96 84.8931L123.709 81.3864L126.456 81.1184L124.389 84.6563ZM128.768 94.3184C127.955 95.6639 126.478 96.5918 124.586 96.7762C121.023 97.1238 118.769 94.8313 118.484 91.9047C118.195 88.9383 119.827 86.3071 123.112 85.9867C125.899 85.7149 127.915 87.4276 128.172 90.0555C128.226 90.613 128.197 91.1384 128.15 91.4846L121.122 92.1699C121.544 94.0181 122.772 94.662 124.345 94.5086C125.44 94.4018 126.349 93.8308 126.817 93.0617L128.768 94.3184ZM123.254 88.063C121.96 88.1892 121.174 88.9894 121.023 90.3306L125.642 89.8801C125.503 88.8687 124.668 87.9252 123.254 88.063ZM131.219 95.7275L129.763 80.796L132.291 80.5494L133.747 95.4809L131.219 95.7275ZM141.479 82.9897L139.05 83.2265L140.798 79.7198L143.546 79.4518L141.479 82.9897ZM145.858 92.6518C145.044 93.9973 143.567 94.9252 141.676 95.1096C138.112 95.4572 135.859 93.1647 135.573 90.2381C135.284 87.2717 136.917 84.6404 140.202 84.3201C142.989 84.0483 145.005 85.761 145.261 88.3889C145.316 88.9464 145.286 89.4718 145.24 89.818L138.212 90.5033C138.633 92.3514 139.862 92.9954 141.435 92.842C142.53 92.7352 143.439 92.1642 143.906 91.3951L145.858 92.6518ZM140.344 86.3964C139.05 86.5226 138.264 87.3228 138.113 88.664L142.732 88.2135C142.593 87.2021 141.757 86.2586 140.344 86.3964ZM148.786 98.9584L147.33 84.0269L149.858 83.7803L149.938 84.5966C150.639 83.7444 151.572 83.2113 152.945 83.0773C156.131 82.7667 158.285 85.0689 158.57 87.9954C158.855 90.922 157.187 93.597 154.001 93.9076C152.628 94.0416 151.609 93.6987 150.757 92.998L151.315 98.7118L148.786 98.9584ZM152.82 85.5013C151.645 85.6158 150.74 86.2267 150.194 87.2245L150.501 90.3701C151.271 91.2597 152.255 91.6661 153.41 91.5535C155.122 91.3866 156.113 90.0037 155.942 88.2517C155.771 86.4997 154.532 85.3343 152.82 85.5013ZM161.374 92.7867L159.917 77.8552L162.446 77.6086L163.001 83.3025C163.632 82.5577 164.517 81.9488 165.851 81.8187C168.021 81.6071 169.899 82.9313 170.188 85.8977L170.77 91.8703L168.222 92.1188L167.649 86.2458C167.519 84.9119 166.701 84.1476 165.447 84.2699C164.173 84.3941 163.579 85.3162 163.263 85.9902L163.902 92.5401L161.374 92.7867ZM177.402 80.6922C180.667 80.3738 183.132 82.5653 183.425 85.5715C183.718 88.5777 181.723 91.2041 178.458 91.5225C175.193 91.8409 172.729 89.6494 172.436 86.6432C172.142 83.637 174.137 81.0106 177.402 80.6922ZM178.265 89.1296C179.878 88.9723 180.966 87.5598 180.797 85.8278C180.626 84.0758 179.288 82.9201 177.675 83.0774C176.003 83.2404 174.893 84.635 175.064 86.3869C175.234 88.1389 176.593 89.2927 178.265 89.1296ZM186.221 90.3636L185.242 80.3296L187.77 80.083L187.848 80.8794C188.479 80.1345 189.364 79.5257 190.698 79.3956C192.868 79.1839 194.746 80.5082 195.035 83.4746L195.617 89.4472L193.069 89.6957L192.496 83.8226C192.366 82.4888 191.528 81.7264 190.294 81.8467C189.02 81.971 188.426 82.8931 188.11 83.5671L188.749 90.117L186.221 90.3636ZM207.567 86.6338C206.754 87.9793 205.276 88.9072 203.385 89.0916C199.821 89.4392 197.568 87.1467 197.283 84.2201C196.993 81.2537 198.626 78.6224 201.911 78.3021C204.698 78.0303 206.714 79.743 206.97 82.3709C207.025 82.9284 206.996 83.4537 206.949 83.8L199.921 84.4853C200.343 86.3334 201.571 86.9774 203.144 86.824C204.239 86.7172 205.148 86.1462 205.615 85.3771L207.567 86.6338ZM202.053 80.3784C200.759 80.5046 199.973 81.3048 199.822 82.646L204.441 82.1955C204.302 81.1841 203.466 80.2406 202.053 80.3784Z" fill="#161616"/>
<path d="M256.902 187.814C257.761 183.317 258.603 179.006 259.429 174.694C259.597 173.835 259.715 173.229 259.749 172.117C259.782 171.292 259.816 169.54 258.923 169.691C258.199 169.894 257.711 170.129 257.273 171.595C256.161 175.384 255.622 179.309 255.066 183.2C254.578 186.635 254.258 189.263 254.005 192.328C253.887 193.76 254.595 194.333 255.909 194.164C257.088 194.013 258.3 193.878 259.429 193.507C263.505 192.194 267.53 190.779 271.589 189.398C272.095 189.229 272.499 189.128 273.072 188.842C273.762 188.488 274.284 188.269 274.082 187.545C273.897 186.854 272.886 186.888 272.381 187.006C268.137 187.899 259.412 189.886 258.923 189.886C260.338 187.68 261.602 185.608 262.983 183.604C272.667 169.691 283.261 156.588 296.837 146.162C307.583 137.909 319.12 131.071 331.702 126.018C332.443 125.715 333.167 125.344 333.858 124.974C334.801 124.485 335.205 124.064 334.986 123.559C334.447 122.666 333.723 122.835 333.133 122.919C331.954 123.07 330.792 123.475 329.664 123.862C314.623 129.201 301.452 137.69 289.342 147.947C276.912 158.474 267.345 171.342 258.839 185.069C258.418 185.81 257.206 187.545 256.902 187.814Z" fill="black"/>
<defs>
<filter id="filter0_d_5600_14263" x="-3.52166" y="96.2968" width="342.828" height="192.116" filterUnits="userSpaceOnUse" color-interpolation-filters="sRGB">
<feFlood flood-opacity="0" result="BackgroundImageFix"/>
<feColorMatrix in="SourceAlpha" type="matrix" values="0 0 0 0 0 0 0 0 0 0 0 0 0 0 0 0 0 0 127 0" result="hardAlpha"/>
<feOffset dy="5.02632"/>
<feGaussianBlur stdDeviation="10.4715"/>
<feComposite in2="hardAlpha" operator="out"/>
<feColorMatrix type="matrix" values="0 0 0 0 0.196078 0 0 0 0 0.196078 0 0 0 0 0.196078 0 0 0 0.1 0"/>
<feBlend mode="normal" in2="BackgroundImageFix" result="effect1_dropShadow_5600_14263"/>
<feBlend mode="normal" in="SourceGraphic" in2="effect1_dropShadow_5600_14263" result="shape"/>
</filter>
<filter id="filter1_d_5600_14263" x="54.0084" y="264.041" width="257.159" height="94.0679" filterUnits="userSpaceOnUse" color-interpolation-filters="sRGB">
<feFlood flood-opacity="0" result="BackgroundImageFix"/>
<feColorMatrix in="SourceAlpha" type="matrix" values="0 0 0 0 0 0 0 0 0 0 0 0 0 0 0 0 0 0 127 0" result="hardAlpha"/>
<feOffset dy="4"/>
<feGaussianBlur stdDeviation="6"/>
<feComposite in2="hardAlpha" operator="out"/>
<feColorMatrix type="matrix" values="0 0 0 0 0.152941 0 0 0 0 0.286275 0 0 0 0 0.588235 0 0 0 0.12 0"/>
<feBlend mode="normal" in2="BackgroundImageFix" result="effect1_dropShadow_5600_14263"/>
<feBlend mode="normal" in="SourceGraphic" in2="effect1_dropShadow_5600_14263" result="shape"/>
</filter>
</defs>
</svg>
