<svg width="360" height="360" viewBox="0 0 360 360" fill="none" xmlns="http://www.w3.org/2000/svg">
<rect x="181.875" y="197.454" width="78.388" height="78.388" transform="rotate(2.7176 181.875 197.454)" fill="white"/>
<circle cx="125.797" cy="117.797" r="39.797" fill="white"/>
<g clip-path="url(#clip0_1041_2715)">
<path d="M207.157 108.295L206.701 101.769L126.519 107.376L126.976 113.902C128.35 133.558 137.478 151.866 152.35 164.794L155.429 167.471C158.202 169.881 159.905 173.296 160.162 176.964C160.418 180.632 159.206 184.251 156.796 187.023L154.119 190.103C141.191 204.975 134.7 224.372 136.075 244.031L136.531 250.557L216.713 244.95L216.256 238.424C214.882 218.768 205.754 200.46 190.882 187.532L187.803 184.855C185.03 182.445 183.327 179.03 183.07 175.362C182.814 171.694 184.025 168.075 186.436 165.302L189.113 162.223C202.041 147.352 208.532 127.954 207.157 108.295Z" fill="#EEF1F8"/>
<path d="M212.428 101.369L120.792 107.777C117.628 107.998 114.886 105.614 114.664 102.45C114.443 99.2857 116.827 96.5434 119.991 96.3221L211.627 89.9143C214.791 89.693 217.534 92.0769 217.755 95.241C217.976 98.4055 215.592 101.147 212.428 101.369Z" fill="#274996"/>
<path d="M223.241 256.005L131.605 262.412C128.441 262.634 125.699 260.25 125.478 257.086C125.256 253.922 127.64 251.179 130.804 250.958L222.44 244.55C225.605 244.329 228.347 246.713 228.568 249.877C228.789 253.041 226.405 255.783 223.241 256.005Z" fill="#274996"/>
<path d="M158.129 155.054L158.129 155.054L161.205 157.729C165.837 161.755 168.623 167.342 169.051 173.465C169.142 174.773 170.273 175.756 171.581 175.665C172.889 175.573 173.872 174.442 173.78 173.135L173.78 173.135C173.352 167.011 175.333 161.091 179.357 156.46L179.357 156.46L182.036 153.377L182.037 153.376C182.701 152.616 183.568 151.678 184.513 150.655L184.513 150.655C187.978 146.908 190.391 144.172 191.759 141.995C193.123 139.823 193.363 138.343 192.732 137.022C192.587 136.719 192.275 136.214 191.688 135.807C191.109 135.406 190.227 135.076 188.893 135.169C173.946 136.215 166.979 133.482 164.1 131.692L164.1 131.692C161.959 130.36 159.51 129.748 157.016 129.922C151.858 130.283 147.756 133.847 146.784 138.78L158.129 155.054ZM158.129 155.054C153.421 150.964 150.001 146.208 146.988 141.643L158.129 155.054ZM146.988 141.643C146.735 141.259 146.593 140.753 146.597 140.277L146.597 140.276L146.597 140.259C146.597 140.244 146.598 140.219 146.6 140.186C146.603 140.12 146.609 140.019 146.621 139.888C146.645 139.627 146.692 139.247 146.784 138.78L146.988 141.643Z" fill="#3B69D1" stroke="#3B69D1"/>
<path d="M154.086 218.341L154.085 218.342C153.508 219.05 152.946 219.721 152.406 220.363C150.402 222.754 148.579 224.932 147.238 227.662C145.903 230.381 145.036 233.67 145.004 238.271C145 238.932 145.272 239.564 145.754 240.019C146.231 240.469 146.881 240.7 147.539 240.654L204.434 236.675C205.092 236.629 205.703 236.31 206.112 235.797L206.114 235.795C206.529 235.279 206.709 234.615 206.613 233.961C205.941 229.41 204.626 226.275 202.926 223.77C201.219 221.253 199.111 219.351 196.794 217.263L154.086 218.341ZM154.086 218.341C157.326 214.354 162.125 211.86 167.25 211.502L180.858 210.55C185.986 210.192 191.085 211.993 194.846 215.491L194.846 215.491C195.491 216.091 196.121 216.657 196.722 217.197L196.794 217.262L154.086 218.341Z" fill="#3B69D1" stroke="#3B69D1"/>
<path d="M172.582 189.983C171.274 190.074 170.143 189.091 170.052 187.783L169.852 184.919C169.76 183.611 170.743 182.481 172.051 182.389C173.359 182.298 174.49 183.28 174.582 184.589L174.782 187.452C174.873 188.761 173.89 189.891 172.582 189.983Z" fill="#3B69D1" stroke="#3B69D1"/>
<path d="M173.583 204.301C172.275 204.392 171.145 203.41 171.053 202.101L170.853 199.238C170.761 197.929 171.744 196.799 173.052 196.707C174.361 196.616 175.491 197.599 175.583 198.907L175.783 201.771C175.875 203.079 174.892 204.209 173.583 204.301Z" fill="#3B69D1" stroke="#3B69D1"/>
</g>
<defs>
<clipPath id="clip0_1041_2715">
<rect width="166.496" height="166.496" fill="white" transform="translate(82.7637 98.9253) rotate(-4)"/>
</clipPath>
</defs>
</svg>
