<svg width="360" height="360" viewBox="0 0 360 360" fill="none" xmlns="http://www.w3.org/2000/svg">
    <path opacity="0.1"
        d="M292.719 300.515C260.857 316.806 219.062 324.965 177.238 324.965C135.414 324.965 93.6166 316.806 61.7516 300.515L61.524 300.96L61.7516 300.515C29.8761 284.22 14.0972 262.943 14.0963 241.804C14.0954 220.665 29.8725 199.386 61.7516 183.088C93.6165 166.796 135.412 158.646 177.235 158.651C219.058 158.655 260.854 166.814 292.719 183.088C324.598 199.368 340.375 220.645 340.374 241.788C340.373 262.93 324.594 284.216 292.719 300.515Z"
        fill="#3B69D1" stroke="#3B69D1" />
    <path opacity="0.1"
        d="M314.39 230.082L314.389 230.083L285.647 246.779C285.647 246.779 285.647 246.779 285.647 246.78C283.222 248.181 280.325 249.056 277.608 249.331C274.877 249.607 272.4 249.272 270.775 248.334C269.973 247.87 269.478 247.317 269.228 246.735C268.979 246.155 268.953 245.502 269.167 244.798C269.602 243.367 271.026 241.744 273.467 240.345L273.47 240.343L302.196 223.633C302.197 223.633 302.197 223.633 302.197 223.632C304.626 222.231 307.524 221.351 310.24 221.071C312.97 220.79 315.444 221.123 317.068 222.063C317.873 222.529 318.37 223.084 318.622 223.668C318.872 224.249 318.899 224.904 318.686 225.61C318.254 227.044 316.832 228.673 314.39 230.082Z"
        fill="#3B69D1" stroke="#3B69D1" />
    <path opacity="0.1" d="M96.9232 231.266V263.302L69.1769 247.284L96.9232 231.266Z" fill="#3B69D1"
        stroke="#3B69D1" />
    <path opacity="0.1" d="M179.593 220.725L179.587 273.403L133.948 247.04L179.593 220.725Z"
        fill="#3B69D1" stroke="#3B69D1" />
    <path
        d="M20.3163 182.145L20.3167 182.145C24.093 180.899 28.6996 181.84 33.2815 184.262C37.8518 186.677 42.3222 190.527 45.7793 194.959C49.2348 199.39 52.1557 205.141 54.2019 210.642C56.2477 216.143 57.3969 221.334 57.3595 224.665L56.1186 238.347L48.8332 226.042C46.8776 220.354 42.5168 215.451 37.582 211.176C33.9407 208.022 29.9455 205.176 26.3278 202.599C25.0308 201.676 23.7822 200.786 22.616 199.93C18.2514 196.724 15.9598 192.785 15.622 189.418C15.4535 187.738 15.7701 186.208 16.5433 184.961C17.3148 183.718 18.5618 182.723 20.3163 182.145Z"
        fill="#3B69D1" stroke="#3B69D1" />
    <path opacity="0.1"
        d="M57.8592 224.69C57.9456 217.85 53.1648 203.616 46.1736 194.652C39.1824 185.688 28.08 179.057 20.16 181.67C12.744 184.111 13.428 193.802 22.32 200.333C31.212 206.863 44.568 215.086 48.3768 226.253L56.4768 239.933L57.8592 224.69Z"
        fill="#161616" />
    <path
        d="M58.2552 234.058C58.1459 234.048 58.0429 234.003 57.9621 233.928C57.8814 233.854 57.8275 233.755 57.8088 233.647C53.4888 210.24 34.8408 191.03 23.5872 186.703C23.5192 186.685 23.4558 186.652 23.4012 186.608C23.3466 186.563 23.3019 186.508 23.2701 186.445C23.2382 186.382 23.2199 186.313 23.2163 186.243C23.2128 186.172 23.224 186.102 23.2493 186.036C23.2746 185.97 23.3134 185.91 23.3632 185.861C23.413 185.811 23.4728 185.772 23.5385 185.747C23.6043 185.721 23.6747 185.71 23.7451 185.714C23.8154 185.717 23.8843 185.735 23.9472 185.767C35.4168 190.181 54.4248 209.707 58.788 233.467C58.8005 233.532 58.8002 233.598 58.787 233.662C58.7739 233.726 58.7482 233.787 58.7114 233.841C58.6746 233.895 58.6274 233.942 58.5726 233.978C58.5178 234.014 58.4564 234.038 58.392 234.05L58.2552 234.058Z"
        fill="white" />
    <path
        d="M54.4876 247.201C53.7375 245.48 52.4927 243.483 50.8064 241.403C48.5488 238.617 45.4768 235.652 41.6746 232.958L41.6743 232.958C38.1282 230.45 34.1753 228.497 30.6443 226.753C29.9849 226.427 29.3402 226.109 28.7156 225.795C26.721 224.794 24.9368 223.847 23.5054 222.874C22.0683 221.898 21.0367 220.927 20.4942 219.899C19.1476 217.348 19.5724 214.963 21.2708 213.329C22.9994 211.666 26.1375 210.698 30.3529 211.268C34.5109 211.831 40.3267 215.036 45.3933 220.348C50.4297 225.629 54.6717 232.936 55.7823 241.649L54.4876 247.201Z"
        fill="#3B69D1" stroke="#3B69D1" />
    <path
        d="M56.3112 244.944C56.215 244.936 56.1232 244.9 56.0466 244.842C55.9701 244.783 55.912 244.704 55.8792 244.613C48.96 224.518 33.7824 217.31 26.7264 216.31C26.5956 216.291 26.4774 216.222 26.3977 216.117C26.318 216.011 26.2835 215.879 26.3016 215.748C26.3197 215.617 26.3891 215.499 26.4944 215.419C26.5997 215.34 26.7324 215.305 26.8632 215.323C34.668 216.432 49.7664 223.776 56.8296 244.282C56.8714 244.408 56.8624 244.545 56.8046 244.665C56.7468 244.784 56.6448 244.877 56.52 244.922C56.4525 244.943 56.3815 244.951 56.3112 244.944Z"
        fill="white" />
    <path
        d="M312.71 204.509C312.7 204.609 312.691 204.699 312.684 204.777C312.589 204.689 312.448 204.524 312.267 204.214C311.475 202.858 310.267 199.343 308.768 190.714C307.297 182.244 309.896 174.838 313.58 169.815C315.423 167.303 317.526 165.402 319.506 164.266C321.505 163.118 323.287 162.797 324.547 163.261C325.971 163.786 327.012 164.426 327.673 165.216C328.322 165.99 328.638 166.945 328.547 168.182C328.454 169.438 327.94 170.989 326.902 172.912C325.867 174.831 324.325 177.092 322.211 179.762C317.905 185.2 315.518 191.554 314.207 196.532C313.551 199.023 313.162 201.177 312.937 202.71C312.825 203.476 312.753 204.088 312.71 204.509Z"
        fill="#3B69D1" stroke="#3B69D1" />
    <path opacity="0.1"
        d="M313.15 205.2C313.15 205.2 314.107 190.8 322.603 180.072C331.099 169.344 330.581 164.952 324.72 162.792C318.859 160.632 305.28 173.556 308.275 190.8C311.27 208.044 313.15 205.2 313.15 205.2Z"
        fill="#161616" />
    <path
        d="M310.55 196.978C310.465 196.978 310.383 196.946 310.321 196.889C310.258 196.831 310.219 196.753 310.212 196.668C309.226 180.785 320.436 167.753 324.612 164.801C324.647 164.775 324.687 164.756 324.73 164.746C324.772 164.736 324.816 164.735 324.859 164.742C324.902 164.75 324.943 164.766 324.98 164.789C325.017 164.813 325.048 164.844 325.073 164.88C325.124 164.953 325.144 165.043 325.129 165.13C325.114 165.218 325.066 165.296 324.994 165.348C320.875 168.228 309.874 181.022 310.853 196.625C310.857 196.712 310.827 196.798 310.769 196.864C310.711 196.929 310.63 196.97 310.543 196.978H310.55Z"
        fill="white" />
    <path
        d="M315.212 189.379C315.323 189.308 315.426 189.243 315.522 189.184C315.647 192.35 316.261 194.712 316.874 196.323C317.206 197.197 317.538 197.849 317.79 198.286C317.916 198.505 318.022 198.67 318.098 198.782C318.136 198.838 318.167 198.881 318.189 198.911C318.2 198.927 318.209 198.938 318.215 198.947L318.223 198.957L318.226 198.961L318.227 198.962L318.227 198.962C318.227 198.963 318.228 198.963 318.622 198.655L318.228 198.963L319.09 198.481C318.344 196.477 317.87 194.383 317.68 192.254C317.609 191.002 317.625 189.934 318 189.071C318.357 188.249 319.074 187.543 320.59 187.104L320.59 187.104C322.518 186.544 324.093 186.508 325.176 186.608C325.716 186.658 326.135 186.742 326.415 186.812C325.977 189.007 326.106 191.28 326.793 193.415L327.762 193.346L327.762 193.346L327.762 193.346L327.762 193.345L327.762 193.343L327.764 193.332L327.772 193.289C327.778 193.251 327.789 193.194 327.803 193.121C327.83 192.975 327.872 192.763 327.927 192.503C328.039 191.984 328.205 191.276 328.425 190.522C328.647 189.766 328.919 188.974 329.241 188.282C329.567 187.58 329.923 187.027 330.291 186.705C330.419 186.593 330.664 186.478 331.065 186.394C331.456 186.313 331.947 186.27 332.52 186.265C333.665 186.254 335.075 186.39 336.535 186.602C339.455 187.025 342.51 187.741 343.919 188.128C344.231 188.214 344.514 188.287 344.776 188.355C345.142 188.449 345.467 188.533 345.773 188.626C346.285 188.783 346.634 188.94 346.874 189.143C347.288 189.494 347.538 190.134 347.204 191.94C346.869 193.746 346.145 196.624 345.438 199.028C345.084 200.23 344.738 201.301 344.451 202.054C344.314 202.411 344.197 202.68 344.104 202.854C340.667 202.009 337.751 201.875 335.674 201.957C334.608 201.999 333.763 202.099 333.181 202.188C332.89 202.233 332.665 202.275 332.51 202.307C332.433 202.322 332.374 202.335 332.333 202.345C332.312 202.35 332.297 202.353 332.285 202.356L332.272 202.359L332.268 202.36L332.267 202.361L332.266 202.361C332.266 202.361 332.266 202.361 332.388 202.846L332.266 202.361L332.267 203.331C336.202 204.313 338.734 205.708 340.273 206.84C341.042 207.407 341.565 207.909 341.892 208.264C342.034 208.418 342.139 208.544 342.211 208.636C341.432 211.439 340.138 212.787 339.084 213.444C338.537 213.786 338.039 213.95 337.684 214.029C337.506 214.069 337.365 214.088 337.271 214.096C333.744 211.915 329.877 210.337 325.83 209.428L325.509 210.369C327.239 211.179 328.757 213.051 329.864 214.8C330.41 215.662 330.843 216.472 331.139 217.067C331.269 217.329 331.372 217.548 331.447 217.711C331.378 217.769 331.294 217.836 331.194 217.91C330.847 218.168 330.312 218.508 329.577 218.819C328.113 219.44 325.835 219.955 322.638 219.452C318.734 218.835 314.884 217.911 311.125 216.691C309.214 214.453 308.415 210.841 308.199 207.245C307.981 203.618 308.363 200.127 308.688 198.364L308.688 198.364L308.689 198.358C309.232 195.196 311.099 192.805 312.863 191.19C313.742 190.385 314.587 189.781 315.212 189.379Z"
        fill="#3B69D1" stroke="#3B69D1" />
    <path
        d="M312.091 215.842C312.161 215.841 312.23 215.822 312.29 215.785C312.349 215.748 312.398 215.695 312.43 215.633C317.736 204.595 337.486 191.772 344.556 190.397C344.604 190.388 344.65 190.37 344.691 190.344C344.731 190.317 344.767 190.283 344.794 190.243C344.822 190.202 344.841 190.157 344.851 190.109C344.86 190.062 344.861 190.013 344.851 189.965C344.83 189.868 344.773 189.784 344.691 189.729C344.609 189.674 344.509 189.652 344.412 189.67C337.212 191.074 317.153 204.07 311.76 215.309C311.718 215.398 311.712 215.5 311.744 215.593C311.777 215.686 311.844 215.762 311.933 215.806C311.983 215.828 312.037 215.84 312.091 215.842Z"
        fill="white" />
    <path
        d="M55.2816 254.059C54.468 254.059 53.9784 253.39 53.9784 252.259V131.148L202.32 45.5184V166.14C202.269 167.147 201.981 168.128 201.481 169.004C200.981 169.879 200.282 170.625 199.44 171.18L56.4624 253.692C56.1077 253.916 55.7005 254.042 55.2816 254.059Z"
        fill="#F1F1F1" />
    <path
        d="M201.874 46.2456V166.14C201.813 167.074 201.538 167.982 201.07 168.792C200.602 169.603 199.953 170.294 199.174 170.813L56.2536 253.325C55.9626 253.513 55.6276 253.622 55.2816 253.642C54.4824 253.642 54.396 252.67 54.396 252.259V131.393L201.874 46.2456ZM202.716 44.8056L53.5536 130.903V252.259C53.5536 253.699 54.2736 254.484 55.2816 254.484C55.7739 254.466 56.253 254.32 56.6712 254.059L199.598 171.54C200.506 170.948 201.261 170.151 201.802 169.212C202.344 168.274 202.657 167.222 202.716 166.14V44.784V44.8056Z"
        fill="#F1F1F1" />
    <path d="M202.216 45.6501V64.7633L54.0608 150.305V131.192L202.216 45.6501Z" fill="#3B69D1"
        stroke="#3B69D1" />
    <path
        d="M65.2536 131.983V134.863C65.2536 135.454 65.6784 135.698 66.1896 135.403L112.046 108.929V103.889L66.1896 130.363C65.9187 130.542 65.6932 130.782 65.5307 131.063C65.3683 131.344 65.2734 131.659 65.2536 131.983Z"
        fill="#F1F1F1" />
    <path
        d="M116.964 101.052C117.482 100.75 117.9 100.994 117.9 101.592V104.472C117.881 104.796 117.787 105.112 117.624 105.393C117.462 105.674 117.236 105.914 116.964 106.092L112.046 108.929V103.889L116.964 101.052Z"
        fill="#646464" />
    <path
        d="M53.5536 124.373C53.6127 123.291 53.9258 122.239 54.4674 121.3C55.009 120.362 55.764 119.565 56.6712 118.973L199.598 36.4536C201.319 35.46 202.716 36.2664 202.716 38.2536V44.784L53.5536 130.903V124.373Z"
        fill="#646464" />
    <path
        d="M185.547 48.96C185.756 48.5937 186.047 48.2811 186.397 48.0467C186.709 47.8709 186.872 47.9178 186.92 47.9458C186.964 47.971 187.085 48.08 187.075 48.4434C187.053 48.8693 186.932 49.2842 186.722 49.6549C186.512 50.0229 186.221 50.3372 185.87 50.5732C185.579 50.7403 185.424 50.6951 185.372 50.6649C185.318 50.6334 185.197 50.514 185.194 50.1599C185.217 49.7381 185.338 49.3272 185.547 48.96Z"
        fill="#3B69D1" stroke="#3B69D1" />
    <path
        d="M190.213 46.2816C190.422 45.9139 190.715 45.6002 191.067 45.3656C191.354 45.1953 191.509 45.2398 191.561 45.2698C191.615 45.3012 191.737 45.4204 191.74 45.7723C191.716 46.1953 191.595 46.6072 191.386 46.9757C191.177 47.3436 190.885 47.6582 190.535 47.8951C190.244 48.0619 190.09 48.0167 190.038 47.9865C189.984 47.955 189.863 47.8356 189.86 47.4815C189.883 47.0597 190.003 46.6488 190.213 46.2816Z"
        fill="#3B69D1" stroke="#3B69D1" />
    <path
        d="M194.813 43.6032C195.022 43.2367 195.314 42.9238 195.664 42.6894C195.97 42.5154 196.131 42.5623 196.18 42.5911C196.228 42.6186 196.348 42.7312 196.341 43.088C196.318 43.5131 196.197 43.9271 195.986 44.2973C195.777 44.6652 195.486 44.9798 195.136 45.2166C194.845 45.3835 194.69 45.3383 194.639 45.3081C194.585 45.2766 194.464 45.1572 194.461 44.8031C194.484 44.3812 194.604 43.9704 194.813 43.6032Z"
        fill="#3B69D1" stroke="#3B69D1" />
    <g opacity="0.1">
        <path opacity="0.1"
            d="M155.916 78.2424C154.986 78.8508 154.213 79.6699 153.658 80.6331C153.104 81.5964 152.785 82.6767 152.726 83.7864C152.726 85.824 154.166 86.6664 155.916 85.6296C156.847 85.0236 157.622 84.2062 158.177 83.2441C158.733 82.2819 159.053 81.2022 159.113 80.0928C159.12 78.0552 157.68 77.2272 155.916 78.2424Z"
            fill="#161616" />
        <path opacity="0.1"
            d="M141.3 86.688C140.369 87.2941 139.594 88.1114 139.039 89.0735C138.483 90.0357 138.163 91.1154 138.103 92.2248C138.103 94.2624 139.543 95.1048 141.3 94.0752C142.23 93.4668 143.003 92.6477 143.558 91.6845C144.112 90.7212 144.431 89.6409 144.49 88.5312C144.49 86.4936 143.064 85.68 141.3 86.688Z"
            fill="#161616" />
        <path opacity="0.1"
            d="M170.539 69.84C169.609 70.4469 168.836 71.2646 168.282 72.2267C167.728 73.1887 167.408 74.268 167.35 75.3768C167.35 77.4144 168.79 78.2568 170.539 77.22C171.471 76.6144 172.246 75.7971 172.801 74.8349C173.357 73.8727 173.677 72.7927 173.736 71.6832C173.736 69.6096 172.31 68.7816 170.539 69.84Z"
            fill="#161616" />
        <path opacity="0.1"
            d="M185.17 61.344C184.238 61.9501 183.464 62.7674 182.908 63.7295C182.353 64.6917 182.032 65.7714 181.973 66.8808C181.973 68.9184 183.413 69.7608 185.17 68.724C186.101 68.1179 186.876 67.3006 187.431 66.3384C187.987 65.3763 188.307 64.2966 188.366 63.1872C188.366 61.1496 186.934 60.3216 185.17 61.344Z"
            fill="#161616" />
    </g>
    <path
        d="M68.4 152.748L103.111 132.703C104.832 131.71 106.229 132.516 106.229 134.503V167.832C106.17 168.914 105.857 169.966 105.315 170.904C104.773 171.843 104.018 172.64 103.111 173.232L68.4 193.27C66.6792 194.263 65.2824 193.457 65.2824 191.47V158.148C65.3415 157.066 65.6545 156.014 66.1962 155.076C66.7378 154.137 67.4928 153.34 68.4 152.748Z"
        fill="#F1F1F1" />
    <path
        d="M118.08 124.042L190.8 82.08C192.521 81.0792 193.918 81.8856 193.918 83.88V117.202C193.858 118.283 193.545 119.336 193.004 120.274C192.462 121.212 191.707 122.01 190.8 122.602L118.08 164.563C116.359 165.557 114.962 164.75 114.962 162.763V129.442C115.021 128.36 115.335 127.307 115.876 126.369C116.418 125.431 117.173 124.634 118.08 124.042Z"
        fill="#F1F1F1" />
    <path
        d="M68.4 203.4L123.581 171.54C125.309 170.546 126.706 171.252 126.706 173.117C126.629 174.164 126.306 175.178 125.765 176.077C125.223 176.977 124.477 177.736 123.588 178.294L68.4 210.154C66.6792 211.147 65.2824 210.442 65.2824 208.577C65.3593 207.53 65.6816 206.516 66.2232 205.616C66.7649 204.717 67.5105 203.958 68.4 203.4Z"
        fill="#F1F1F1" />
    <path
        d="M68.4 215.222L123.581 183.362C125.309 182.369 126.706 183.074 126.706 184.939C126.629 185.986 126.306 187 125.765 187.9C125.223 188.799 124.477 189.558 123.588 190.116L68.4 221.976C66.6792 222.97 65.2824 222.264 65.2824 220.399C65.3593 219.352 65.6816 218.338 66.2232 217.439C66.7649 216.539 67.5105 215.78 68.4 215.222Z"
        fill="#F1F1F1" />
    <path
        d="M68.4 227.038L123.581 195.178C125.309 194.184 126.706 194.89 126.706 196.754C126.629 197.801 126.306 198.816 125.765 199.715C125.223 200.614 124.477 201.374 123.588 201.931L68.4 233.791C66.6792 234.785 65.2824 234.079 65.2824 232.214C65.3593 231.167 65.6816 230.153 66.2232 229.254C66.7649 228.355 67.5105 227.595 68.4 227.038Z"
        fill="#F1F1F1" />
    <path
        d="M95.0144 260.302L95 186.977C95.0343 186.411 95.1998 185.861 95.4835 185.37C95.7672 184.879 96.1613 184.461 96.6345 184.148L192.305 128.917C192.812 128.661 193.372 128.529 193.939 128.529C194.507 128.529 195.066 128.661 195.573 128.917L197.658 130.119C198.131 130.431 198.525 130.849 198.807 131.34C199.09 131.831 199.254 132.382 199.286 132.947V206.273C199.253 206.839 199.088 207.389 198.806 207.88C198.523 208.371 198.13 208.789 197.658 209.102L102.002 264.333C101.495 264.588 100.936 264.721 100.368 264.721C99.8004 264.721 99.2407 264.588 98.7339 264.333L96.6486 263.13C96.1751 262.818 95.7809 262.4 95.4971 261.909C95.2134 261.418 95.0482 260.868 95.0144 260.302Z"
        fill="#3B69D1" stroke="#3B69D1" />
    <path opacity="0.4"
        d="M95.04 185.119L100.354 188.186L199.231 131.09C198.915 130.521 198.462 130.038 197.914 129.686L195.84 128.477C195.263 128.182 194.623 128.029 193.975 128.029C193.327 128.029 192.688 128.182 192.11 128.477L96.372 183.722C95.8173 184.068 95.359 184.549 95.04 185.119Z"
        fill="white" />
    <path opacity="0.1"
        d="M94.5 186.962V260.316C94.5363 260.965 94.7246 261.596 95.0498 262.159C95.375 262.722 95.8279 263.2 96.372 263.556L98.4816 264.773C98.6437 264.867 98.815 264.944 98.9928 265.003C99.2433 265.088 99.5013 265.148 99.7632 265.183C100.255 265.243 100.753 265.224 101.239 265.126C101.364 265.103 101.486 265.072 101.606 265.032L101.83 264.946C101.687 265.007 101.534 265.038 101.38 265.038C101.225 265.038 101.072 265.007 100.93 264.946C100.73 264.813 100.572 264.628 100.471 264.41C100.371 264.193 100.333 263.952 100.361 263.714V190.346C100.342 190.013 100.425 189.681 100.598 189.396C100.772 189.111 101.028 188.885 101.333 188.748L100.361 188.186L95.04 185.119C94.7064 185.678 94.5205 186.312 94.5 186.962Z"
        fill="#161616" />
    <path opacity="0.2"
        d="M100.361 188.186L144.677 204.746C146.209 205.318 147.891 205.35 149.444 204.838C150.997 204.327 152.33 203.301 153.223 201.931L160.337 191.03L199.591 130.889L161.755 191.441L199.786 206.323C199.754 206.984 199.553 207.627 199.202 208.188L161.654 191.628L153.36 204.84C152.441 206.308 151.024 207.395 149.368 207.903C147.713 208.411 145.929 208.305 144.346 207.605L138.456 205.006L100.93 264.96C100.73 264.827 100.572 264.642 100.471 264.425C100.371 264.207 100.333 263.967 100.361 263.729V262.512L138.29 204.962L100.361 188.186Z"
        fill="#161616" />
    <path
        d="M179.316 103.975V272.383C179.316 274.37 180.713 275.177 182.434 274.183L258.091 230.501C258.998 229.909 259.753 229.111 260.295 228.173C260.837 227.235 261.15 226.182 261.209 225.101V56.6928C261.209 54.7056 259.812 53.8992 258.091 54.8928L182.434 98.5752C181.526 99.1664 180.77 99.9636 180.228 100.902C179.687 101.84 179.374 102.893 179.316 103.975Z"
        fill="#F1F1F1" stroke="#F1F1F1" stroke-width="1.16981" stroke-miterlimit="10" />
    <path
        d="M183.701 107.107C183.725 106.841 183.811 106.583 183.953 106.356C184.094 106.128 184.286 105.937 184.514 105.797L193.154 100.822C193.601 100.562 193.961 100.735 193.961 101.203C193.938 101.469 193.853 101.726 193.713 101.954C193.573 102.182 193.382 102.373 193.154 102.514L184.514 107.489C184.068 107.748 183.701 107.575 183.701 107.107Z"
        fill="#646464" />
    <path
        d="M183.701 110.462C183.725 110.196 183.811 109.938 183.952 109.71C184.093 109.483 184.286 109.292 184.514 109.152L193.154 104.177C193.601 103.918 193.961 104.09 193.961 104.551C193.939 104.819 193.855 105.077 193.715 105.306C193.574 105.535 193.383 105.728 193.154 105.869L184.514 110.837C184.068 111.096 183.701 110.93 183.701 110.462Z"
        fill="#646464" />
    <path
        d="M183.701 113.818C183.725 113.551 183.811 113.293 183.952 113.066C184.093 112.838 184.286 112.647 184.514 112.507L193.154 107.532C193.601 107.273 193.961 107.438 193.961 107.906C193.939 108.173 193.855 108.43 193.714 108.658C193.574 108.886 193.382 109.077 193.154 109.217L184.514 114.192C184.068 114.48 183.701 114.286 183.701 113.818Z"
        fill="#646464" />
    <path
        d="M255.362 70.632V69.2856C255.363 69.2692 255.359 69.253 255.352 69.2385C255.344 69.224 255.333 69.2118 255.319 69.2031C255.305 69.1943 255.289 69.1894 255.273 69.1887C255.256 69.188 255.24 69.1916 255.226 69.1992L254.189 69.6672C254.172 69.6753 254.155 69.6796 254.136 69.6799C254.118 69.6801 254.1 69.6763 254.084 69.6688C254.067 69.6612 254.052 69.65 254.041 69.636C254.029 69.622 254.021 69.6056 254.016 69.588C253.961 69.4085 253.884 69.2367 253.786 69.0768C253.766 69.0377 253.756 68.9946 253.756 68.9508C253.756 68.907 253.766 68.8639 253.786 68.8248L254.506 67.428C254.523 67.3926 254.526 67.3517 254.514 67.314C254.502 67.2763 254.476 67.2448 254.441 67.2264L253.721 66.7944C253.687 66.7771 253.648 66.7727 253.611 66.7819C253.574 66.7912 253.541 66.8135 253.519 66.8448L252.655 68.1408C252.63 68.1755 252.596 68.2035 252.557 68.2224C252.518 68.2412 252.475 68.2502 252.432 68.2488C252.243 68.2473 252.055 68.2666 251.87 68.3064C251.853 68.3119 251.834 68.3133 251.816 68.3106C251.798 68.3078 251.78 68.301 251.765 68.2906C251.75 68.2803 251.737 68.2666 251.728 68.2506C251.719 68.2346 251.713 68.2168 251.712 68.1984L251.597 67.068C251.597 66.9888 251.525 66.9528 251.46 66.996L250.294 67.6656C250.257 67.6898 250.225 67.7216 250.202 67.7588C250.178 67.7961 250.163 67.8379 250.157 67.8816L250.042 69.1776C250.026 69.2696 249.983 69.3548 249.919 69.4224C249.686 69.6459 249.469 69.8866 249.271 70.1424C249.243 70.1747 249.207 70.1981 249.166 70.2096C249.125 70.2212 249.081 70.2203 249.041 70.2072L248.321 69.948C248.282 69.9358 248.241 69.9369 248.203 69.9513C248.165 69.9657 248.133 69.9924 248.112 70.0272L247.255 71.5104C247.238 71.5456 247.232 71.5854 247.238 71.6242C247.245 71.663 247.263 71.6987 247.291 71.7264L247.896 72.2448C247.926 72.2744 247.947 72.3114 247.957 72.352C247.967 72.3926 247.966 72.4352 247.954 72.4752C247.843 72.7713 247.751 73.0743 247.68 73.3824C247.656 73.4697 247.606 73.5475 247.536 73.6056L246.47 74.3256C246.435 74.3531 246.405 74.3879 246.384 74.4276C246.363 74.4673 246.351 74.5111 246.348 74.556V75.8952C246.344 75.9124 246.346 75.9303 246.353 75.9465C246.36 75.9627 246.372 75.9764 246.386 75.9858C246.401 75.9952 246.419 75.9998 246.436 75.9991C246.454 75.9983 246.471 75.9922 246.485 75.9816L247.522 75.5136C247.539 75.5069 247.557 75.5038 247.575 75.5046C247.593 75.5054 247.611 75.51 247.627 75.5182C247.644 75.5263 247.658 75.5378 247.67 75.5519C247.681 75.566 247.69 75.5824 247.694 75.6C247.749 75.7795 247.827 75.9513 247.925 76.1112C247.944 76.1503 247.955 76.1934 247.955 76.2372C247.955 76.281 247.944 76.3241 247.925 76.3632L247.205 77.7528C247.188 77.7895 247.186 77.831 247.198 77.8694C247.21 77.9078 247.235 77.9406 247.27 77.9616L247.99 78.3936C248.024 78.4109 248.063 78.4153 248.1 78.4061C248.137 78.3968 248.169 78.3745 248.191 78.3432L249.055 77.0472C249.081 77.0125 249.115 76.9845 249.153 76.9656C249.192 76.9468 249.235 76.9378 249.278 76.9392C249.467 76.9407 249.655 76.9214 249.84 76.8816C249.858 76.8761 249.876 76.8747 249.894 76.8774C249.913 76.8802 249.93 76.887 249.945 76.8974C249.961 76.9077 249.973 76.9214 249.982 76.9374C249.992 76.9534 249.997 76.9712 249.998 76.9896L250.114 78.12C250.114 78.1992 250.178 78.2352 250.25 78.192L251.417 77.5224C251.454 77.4964 251.485 77.4633 251.508 77.4249C251.532 77.3865 251.547 77.3437 251.554 77.2992L251.669 76.0032C251.683 75.9129 251.726 75.8296 251.791 75.7656C252.025 75.5421 252.241 75.3014 252.439 75.0456C252.467 75.0133 252.504 74.9899 252.545 74.9784C252.586 74.9668 252.629 74.9677 252.67 74.9808L253.39 75.24C253.428 75.2522 253.47 75.2511 253.508 75.2367C253.546 75.2223 253.578 75.1956 253.598 75.1608L254.455 73.6776C254.473 73.6408 254.479 73.599 254.471 73.5587C254.464 73.5184 254.443 73.4817 254.412 73.4544L253.814 72.9432C253.785 72.9136 253.764 72.8766 253.754 72.836C253.743 72.7954 253.745 72.7528 253.757 72.7128C253.868 72.4167 253.959 72.1136 254.03 71.8056C254.051 71.7166 254.102 71.6376 254.174 71.5824L255.24 70.8624C255.275 70.8343 255.304 70.7994 255.325 70.7598C255.346 70.7202 255.359 70.6767 255.362 70.632ZM250.805 74.88C249.718 75.5136 248.839 75.0024 248.839 73.7496C248.873 73.0657 249.069 72.3996 249.41 71.8062C249.752 71.2128 250.23 70.7092 250.805 70.3368C251.892 69.7104 252.77 70.2216 252.77 71.4744C252.736 72.1571 252.539 72.8218 252.198 73.4138C251.856 74.0058 251.379 74.5083 250.805 74.88Z"
        fill="#646464" />
    <path
        d="M220.262 103.824C229.104 98.7192 236.268 102.859 236.268 113.069C236.268 123.278 229.104 135.684 220.262 140.789C211.421 145.894 204.257 141.754 204.257 131.551C204.257 121.349 211.421 108.929 220.262 103.824Z"
        fill="#646464" />
    <path
        d="M216.913 115.981C217.775 114.491 218.975 113.226 220.415 112.286C221.76 111.516 222.854 111.507 223.58 111.927C224.306 112.346 224.842 113.297 224.846 114.841C224.749 116.558 224.251 118.228 223.391 119.717C222.53 121.206 221.332 122.472 219.893 123.413C218.549 124.183 217.453 124.192 216.725 123.772C215.997 123.353 215.459 122.402 215.456 120.858C215.552 119.141 216.052 117.47 216.913 115.981Z"
        fill="#3B69D1" stroke="#3B69D1" />
    <path
        d="M222.115 125.023L222.115 125.023L222.118 125.022C224.381 123.714 226.314 123.654 227.65 124.425C228.985 125.196 229.9 126.901 229.9 129.514V130.636C227.373 134.599 223.978 137.938 219.972 140.399L219.971 140.4C217.897 141.682 215.525 142.401 213.089 142.485C212.332 142.486 211.578 142.386 210.848 142.187V141.07C210.848 138.467 211.769 135.538 213.281 132.916C214.793 130.295 216.869 128.028 219.129 126.722C219.129 126.721 219.13 126.721 219.13 126.721L222.115 125.023Z"
        fill="#3B69D1" stroke="#3B69D1" />
    <path
        d="M234.97 139.724L234.971 139.724C235.317 139.523 235.518 139.558 235.592 139.596C235.65 139.625 235.771 139.729 235.775 140.065C235.74 140.503 235.603 140.926 235.377 141.303C235.149 141.682 234.835 142.003 234.461 142.24L205.576 158.917L205.574 158.919C205.225 159.123 205.022 159.087 204.947 159.049C204.888 159.019 204.768 158.915 204.764 158.583C204.798 158.144 204.934 157.719 205.16 157.341C205.389 156.961 205.703 156.639 206.078 156.402L234.97 139.724Z"
        fill="#3B69D1" stroke="#3B69D1" />
    <path
        d="M202.716 167.911L237.809 147.6C238.673 147.103 239.371 147.456 239.371 148.392C239.332 148.915 239.17 149.422 238.899 149.871C238.627 150.32 238.254 150.699 237.809 150.977L202.716 171.288C201.852 171.785 201.154 171.432 201.154 170.496C201.193 169.973 201.355 169.466 201.626 169.017C201.897 168.568 202.271 168.189 202.716 167.911Z"
        fill="#646464" />
    <path
        d="M238.745 163.973L248.573 158.299C249.091 158.004 249.509 158.141 249.509 158.609C249.47 158.896 249.365 159.17 249.203 159.41C249.04 159.649 248.825 159.848 248.573 159.991L238.745 165.665C238.234 165.96 237.809 165.823 237.809 165.362C237.848 165.075 237.953 164.8 238.115 164.559C238.278 164.318 238.493 164.118 238.745 163.973Z"
        fill="#646464" />
    <path
        d="M204.334 181.052L204.335 181.052C204.671 180.857 204.86 180.901 204.933 180.943C205.005 180.985 205.139 181.128 205.139 181.519V191.412C205.112 191.87 204.979 192.315 204.75 192.712C204.521 193.109 204.203 193.448 203.821 193.701L189.398 202.024L189.397 202.024C189.061 202.219 188.872 202.175 188.799 202.133C188.727 202.091 188.593 201.948 188.593 201.557V191.664C188.62 191.206 188.753 190.761 188.982 190.364C189.211 189.967 189.529 189.628 189.911 189.375L204.334 181.052Z"
        fill="#3B69D1" stroke="#3B69D1" />
    <path
        d="M191.952 190.332L201.78 184.658C202.298 184.363 202.716 184.5 202.716 184.961C202.678 185.249 202.574 185.525 202.411 185.766C202.249 186.007 202.033 186.207 201.78 186.35L191.952 192.024C191.434 192.319 191.016 192.182 191.016 191.722C191.054 191.433 191.158 191.158 191.321 190.917C191.483 190.676 191.699 190.475 191.952 190.332Z"
        fill="#F1F1F1" />
    <path
        d="M191.016 195.329V198.209C191.016 198.806 191.434 199.044 191.952 198.749L201.78 193.075C202.052 192.898 202.279 192.659 202.442 192.377C202.604 192.096 202.698 191.78 202.716 191.455V188.575C202.716 187.978 202.298 187.74 201.78 188.035L191.952 193.68C191.677 193.861 191.448 194.105 191.285 194.392C191.123 194.678 191.03 194.999 191.016 195.329Z"
        fill="#F1F1F1" />
    <path
        d="M212.38 176.855C212.609 176.458 212.927 176.12 213.31 175.868L227.697 167.545C227.697 167.545 227.698 167.545 227.698 167.545C228.039 167.349 228.23 167.394 228.303 167.436C228.377 167.479 228.51 167.621 228.51 168.012V177.905C228.483 178.363 228.35 178.809 228.12 179.206C227.89 179.603 227.57 179.941 227.186 180.193L212.799 188.516C212.799 188.516 212.798 188.516 212.798 188.516C212.456 188.713 212.268 188.667 212.197 188.626C212.126 188.585 211.993 188.443 211.993 188.05V178.156C212.018 177.698 212.151 177.253 212.38 176.855Z"
        fill="#3B69D1" stroke="#3B69D1" />
    <path
        d="M215.352 176.825L225.18 171.151C225.691 170.856 226.109 170.993 226.109 171.454C226.071 171.741 225.967 172.016 225.806 172.256C225.645 172.497 225.431 172.698 225.18 172.843L215.352 178.517C214.834 178.812 214.416 178.675 214.416 178.207C214.455 177.92 214.56 177.646 214.722 177.406C214.884 177.167 215.1 176.968 215.352 176.825Z"
        fill="#F1F1F1" />
    <path
        d="M214.416 181.822V184.702C214.416 185.299 214.834 185.537 215.352 185.242L225.18 179.568C225.45 179.389 225.675 179.149 225.836 178.868C225.998 178.587 226.091 178.272 226.109 177.948V175.068C226.109 174.47 225.684 174.233 225.173 174.528L215.345 180.202C215.074 180.38 214.848 180.619 214.687 180.901C214.526 181.182 214.433 181.498 214.416 181.822Z"
        fill="#F1F1F1" />
    <path
        d="M251.099 154.03L251.099 154.03C251.435 153.835 251.624 153.88 251.697 153.922C251.769 153.964 251.903 154.106 251.903 154.498V164.398C251.876 164.855 251.743 165.3 251.514 165.698C251.285 166.095 250.967 166.433 250.585 166.686L236.199 175.009C236.199 175.009 236.198 175.009 236.198 175.009C235.857 175.205 235.666 175.161 235.593 175.118C235.519 175.076 235.386 174.934 235.386 174.542V164.649C235.413 164.191 235.546 163.746 235.776 163.348C236.006 162.951 236.326 162.613 236.71 162.361L251.099 154.03Z"
        fill="#3B69D1" stroke="#3B69D1" />
    <path
        d="M238.745 163.318L248.573 157.68C249.091 157.378 249.509 157.514 249.509 157.982C249.471 158.27 249.367 158.545 249.205 158.785C249.042 159.025 248.826 159.223 248.573 159.365L238.745 165.038C238.234 165.341 237.809 165.204 237.809 164.736C237.842 164.443 237.945 164.161 238.107 163.915C238.27 163.669 238.488 163.464 238.745 163.318Z"
        fill="#F1F1F1" />
    <path
        d="M237.809 168.314V171.194C237.809 171.785 238.234 172.03 238.745 171.734L248.573 166.054C248.846 165.877 249.073 165.638 249.235 165.356C249.398 165.074 249.492 164.758 249.509 164.434V161.554C249.509 160.956 249.091 160.711 248.573 161.014L238.745 166.687C238.472 166.866 238.245 167.106 238.082 167.389C237.919 167.672 237.826 167.989 237.809 168.314Z"
        fill="#F1F1F1" />
    <path
        d="M191.21 211.68L249.314 178.135C251.042 177.142 252.432 177.847 252.432 179.712C252.357 180.759 252.035 181.774 251.493 182.674C250.952 183.573 250.205 184.332 249.314 184.889L191.21 218.434C189.49 219.427 188.093 218.722 188.093 216.857C188.17 215.81 188.492 214.796 189.034 213.896C189.575 212.997 190.321 212.238 191.21 211.68Z"
        fill="#F1F1F1" />
    <path
        d="M191.21 225.194L249.314 191.65C251.042 190.656 252.432 191.362 252.432 193.226C252.357 194.274 252.035 195.289 251.493 196.188C250.952 197.088 250.205 197.847 249.314 198.403L191.21 231.955C189.49 232.949 188.093 232.243 188.093 230.371C188.17 229.324 188.492 228.31 189.034 227.411C189.575 226.511 190.321 225.752 191.21 225.194Z"
        fill="#F1F1F1" />
    <path
        d="M209.453 232.576C209.683 232.179 210.003 231.841 210.387 231.589L230.649 219.889C230.649 219.889 230.65 219.889 230.65 219.889C230.991 219.693 231.182 219.738 231.256 219.78C231.329 219.823 231.462 219.965 231.462 220.356V226.872C231.436 227.33 231.302 227.776 231.072 228.173C230.842 228.571 230.522 228.909 230.138 229.16L209.876 240.86C209.875 240.86 209.875 240.86 209.875 240.86C209.534 241.056 209.343 241.012 209.269 240.969C209.196 240.927 209.062 240.785 209.062 240.394V233.877C209.089 233.419 209.223 232.974 209.453 232.576Z"
        fill="#3B69D1" stroke="#3B69D1" />
    <path
        d="M192.478 212.681C192.056 212.961 191.706 213.336 191.456 213.776C191.206 214.217 191.062 214.709 191.038 215.215C191.038 216.144 191.693 216.526 192.478 216.058C192.899 215.777 193.249 215.402 193.499 214.962C193.75 214.522 193.893 214.029 193.918 213.523C193.939 212.594 193.284 212.213 192.478 212.681Z"
        fill="#F1F1F1" />
    <path
        d="M197.114 210.002C196.692 210.282 196.341 210.657 196.091 211.097C195.841 211.538 195.698 212.031 195.674 212.537C195.674 213.466 196.322 213.847 197.114 213.379C197.536 213.099 197.886 212.724 198.136 212.284C198.386 211.843 198.53 211.351 198.554 210.845C198.576 209.916 197.921 209.52 197.114 210.002Z"
        fill="#F1F1F1" />
    <path
        d="M201.744 207.36C201.322 207.64 200.972 208.015 200.722 208.456C200.472 208.896 200.329 209.389 200.304 209.894C200.304 210.823 200.959 211.205 201.744 210.737C202.166 210.457 202.516 210.081 202.766 209.641C203.016 209.201 203.159 208.708 203.184 208.202C203.206 207.238 202.55 206.856 201.744 207.36Z"
        fill="#F1F1F1" />
    <path
        d="M206.381 204.646C205.959 204.925 205.608 205.301 205.358 205.741C205.108 206.181 204.965 206.674 204.941 207.18C204.941 208.109 205.596 208.49 206.381 208.022C206.803 207.742 207.153 207.367 207.403 206.927C207.653 206.487 207.796 205.994 207.821 205.488C207.842 204.559 207.187 204.178 206.381 204.646Z"
        fill="#F1F1F1" />
    <path
        d="M211.01 201.967C210.589 202.247 210.239 202.623 209.989 203.063C209.738 203.503 209.595 203.996 209.57 204.502C209.57 205.43 210.226 205.812 211.01 205.344C211.432 205.064 211.782 204.689 212.032 204.248C212.282 203.808 212.426 203.315 212.45 202.81C212.472 201.881 211.817 201.499 211.01 201.967Z"
        fill="#F1F1F1" />
    <path
        d="M215.64 199.289C215.218 199.569 214.868 199.944 214.618 200.384C214.368 200.825 214.225 201.317 214.2 201.823C214.2 202.752 214.855 203.134 215.64 202.666C216.063 202.386 216.413 202.011 216.663 201.571C216.914 201.13 217.056 200.637 217.08 200.131C217.102 199.202 216.454 198.821 215.64 199.289Z"
        fill="#F1F1F1" />
    <path
        d="M220.277 196.61C219.855 196.891 219.505 197.266 219.255 197.706C219.005 198.146 218.862 198.639 218.837 199.145C218.837 200.074 219.492 200.455 220.277 199.987C220.699 199.707 221.049 199.332 221.299 198.892C221.549 198.451 221.692 197.958 221.717 197.453C221.76 196.56 221.083 196.142 220.277 196.61Z"
        fill="#F1F1F1" />
    <path
        d="M192.478 226.202C192.057 226.483 191.707 226.859 191.457 227.299C191.207 227.739 191.064 228.231 191.038 228.737C191.038 229.673 191.693 230.047 192.478 229.579C192.899 229.301 193.249 228.927 193.499 228.488C193.75 228.049 193.893 227.557 193.918 227.052C193.939 226.116 193.284 225.742 192.478 226.202Z"
        fill="#F1F1F1" />
    <path
        d="M197.114 223.524C196.692 223.804 196.342 224.179 196.092 224.619C195.842 225.06 195.699 225.553 195.674 226.058C195.674 226.994 196.322 227.369 197.114 226.901C197.536 226.622 197.886 226.248 198.136 225.809C198.386 225.37 198.53 224.878 198.554 224.374C198.576 223.438 197.921 223.063 197.114 223.524Z"
        fill="#F1F1F1" />
    <path
        d="M201.744 220.846C201.323 221.127 200.974 221.502 200.724 221.942C200.474 222.382 200.33 222.875 200.304 223.38C200.304 224.316 200.959 224.69 201.744 224.222C202.166 223.944 202.516 223.57 202.766 223.131C203.016 222.692 203.159 222.2 203.184 221.695C203.206 220.759 202.55 220.378 201.744 220.846Z"
        fill="#F1F1F1" />
    <path
        d="M206.381 218.16C205.959 218.44 205.609 218.815 205.359 219.256C205.109 219.696 204.966 220.189 204.941 220.694C204.941 221.63 205.596 222.005 206.381 221.537C206.802 221.258 207.152 220.884 207.403 220.445C207.653 220.006 207.796 219.514 207.821 219.01C207.842 218.081 207.187 217.699 206.381 218.16Z"
        fill="#F1F1F1" />
    <path
        d="M211.01 215.489C210.589 215.769 210.239 216.144 209.989 216.584C209.738 217.025 209.595 217.517 209.57 218.023C209.57 218.959 210.226 219.334 211.01 218.866C211.432 218.587 211.782 218.213 212.032 217.774C212.282 217.335 212.426 216.843 212.45 216.338C212.472 215.402 211.817 215.021 211.01 215.489Z"
        fill="#F1F1F1" />
    <path
        d="M215.64 212.81C215.218 213.091 214.868 213.466 214.618 213.906C214.368 214.346 214.225 214.839 214.2 215.345C214.2 216.281 214.855 216.655 215.64 216.187C216.063 215.909 216.415 215.534 216.665 215.093C216.915 214.653 217.057 214.159 217.08 213.653C217.102 212.724 216.454 212.342 215.64 212.81Z"
        fill="#F1F1F1" />
    <path
        d="M220.277 210.132C219.855 210.412 219.505 210.787 219.255 211.228C219.005 211.668 218.862 212.161 218.837 212.666C218.837 213.602 219.492 213.977 220.277 213.509C220.699 213.229 221.049 212.854 221.299 212.414C221.55 211.973 221.693 211.48 221.717 210.974C221.76 210.046 221.083 209.664 220.277 210.132Z"
        fill="#F1F1F1" />
    <path
        d="M285.257 240.574C282.768 240.591 280.32 239.945 278.165 238.702C272.974 235.699 270 229.435 270 221.494C270 207.54 278.87 191.491 290.16 184.954C296.258 181.433 302.314 181.051 307.217 183.881C312.401 186.876 315.382 193.147 315.382 201.082C315.382 215.035 306.511 231.091 295.186 237.629C292.19 239.461 288.767 240.477 285.257 240.574ZM300.132 192.06C298.379 192.184 296.685 192.741 295.2 193.68C286.992 198.396 280.08 211.147 280.08 221.494C280.08 225.684 281.254 228.866 283.219 229.997C285.458 231.293 288.576 229.882 290.225 228.924C298.454 224.179 305.395 211.428 305.395 201.082C305.395 196.891 304.222 193.716 302.256 192.578C301.608 192.216 300.874 192.037 300.132 192.06Z"
        fill="#646464" />
    <path
        d="M307.159 203.314C307.159 195.473 302.22 192.578 302.22 192.578C304.186 193.716 305.359 196.898 305.359 201.082C305.359 211.428 298.418 224.179 290.189 228.924C288.54 229.882 285.43 231.293 283.183 229.997C283.183 229.997 287.352 232.589 293.112 229.442C301.45 224.899 307.159 213.66 307.159 203.314Z"
        fill="#646464" />
    <path
        d="M299.239 105.329C299.189 103.985 298.62 102.712 297.651 101.779C296.682 100.845 295.39 100.324 294.044 100.324C292.699 100.324 291.406 100.845 290.438 101.779C289.469 102.712 288.9 103.985 288.85 105.329V187.92C288.887 188.383 289.047 188.827 289.314 189.207C289.582 189.587 289.946 189.889 290.369 190.08C291.507 190.655 292.765 190.955 294.041 190.955C295.316 190.955 296.574 190.655 297.713 190.08C298.138 189.89 298.504 189.589 298.772 189.209C299.041 188.829 299.202 188.384 299.239 187.92V105.343V105.329Z"
        fill="#646464" />
    <path
        d="M295.092 123.79C295.035 122.748 294.734 121.735 294.212 120.832C293.69 119.928 292.963 119.161 292.09 118.591C291.781 118.365 291.417 118.228 291.036 118.195C290.655 118.162 290.272 118.234 289.93 118.404L277.128 125.784L276.818 125.964C276.771 125.983 276.728 126.01 276.689 126.043C276.471 126.191 276.266 126.357 276.077 126.54C275.355 127.26 274.916 128.215 274.84 129.232C274.764 130.248 275.056 131.258 275.663 132.077C276.27 132.897 277.151 133.47 278.146 133.693C279.14 133.917 280.182 133.775 281.081 133.294L281.326 133.15L294.221 125.726C294.524 125.509 294.765 125.216 294.918 124.876C295.071 124.535 295.131 124.161 295.092 123.79Z"
        fill="#646464" />
    <path
        d="M295.092 144.468C295.034 143.428 294.732 142.416 294.21 141.514C293.689 140.612 292.962 139.846 292.09 139.277C291.783 139.048 291.418 138.909 291.037 138.875C290.656 138.84 290.272 138.912 289.93 139.082L274.91 147.722L274.601 147.902C274.554 147.923 274.511 147.949 274.471 147.982C274.252 148.127 274.047 148.293 273.859 148.478C273.39 148.945 273.036 149.515 272.826 150.142C272.615 150.77 272.554 151.437 272.646 152.093C272.738 152.748 272.982 153.373 273.357 153.918C273.733 154.463 274.23 154.913 274.81 155.232C275.435 155.564 276.132 155.737 276.84 155.736C277.546 155.739 278.241 155.566 278.863 155.232C278.95 155.189 279.029 155.131 279.108 155.088L294.228 146.448C294.537 146.226 294.781 145.926 294.933 145.577C295.085 145.228 295.14 144.845 295.092 144.468Z"
        fill="#646464" />
</svg>
