<svg width="50" height="50" viewBox="0 0 50 50" fill="none" xmlns="http://www.w3.org/2000/svg">
<g clip-path="url(#clip0_1527_12718)">
<path d="M42.4989 22.9889L40.8242 23.1819C34.0253 23.9656 28.6619 29.329 27.8783 36.1279L27.6852 37.8025L27.4922 36.1278C26.7086 29.329 21.3452 23.9656 14.5463 23.1819L12.8716 22.9889L14.5463 22.7959C21.3452 22.0123 26.7086 16.6488 27.4922 9.84997L27.6852 8.17529L27.8783 9.84999C28.6619 16.6489 34.0253 22.0123 40.8242 22.7959L42.4989 22.9889ZM21.1836 35.2708C18.2142 34.9286 15.8718 32.5862 15.5295 29.6168L15.4452 28.8854L15.3609 29.6168C15.0187 32.5862 12.6762 34.9286 9.70688 35.2708L8.97548 35.3551L9.70689 35.4394C12.6762 35.7817 15.0187 38.1241 15.3609 41.0935L15.4452 41.8249L15.5295 41.0935C15.8718 38.1241 18.2142 35.7817 21.1836 35.4394L21.915 35.3551L21.1836 35.2708ZM10.9828 28.3488C10.1359 28.2512 9.46788 27.5832 9.37028 26.7363L9.34623 26.5277L9.32219 26.7363C9.22459 27.5832 8.55653 28.2512 7.70969 28.3488L7.5011 28.3729L7.70969 28.3969C8.55653 28.4945 9.22458 29.1626 9.32218 30.0094L9.34622 30.218L9.37027 30.0094C9.46788 29.1625 10.1359 28.4945 10.9828 28.3969L11.1913 28.3729L10.9828 28.3488Z" fill="white"/>
</g>
<defs>
<clipPath id="clip0_1527_12718">
<rect width="50" height="50" fill="white"/>
</clipPath>
</defs>
</svg>
