<svg width="12" height="14" viewBox="0 0 12 14" fill="none" xmlns="http://www.w3.org/2000/svg">
<path d="M10.86 10.5267L10 9.66667V6.33334C10 4.28667 8.9067 2.57334 7.00003 2.12001V1.66667C7.00003 1.11334 6.55337 0.666672 6.00003 0.666672C5.4467 0.666672 5.00003 1.11334 5.00003 1.66667V2.12001C3.0867 2.57334 2.00003 4.28001 2.00003 6.33334V9.66667L1.14003 10.5267C0.720034 10.9467 1.01337 11.6667 1.6067 11.6667H10.3867C10.9867 11.6667 11.28 10.9467 10.86 10.5267ZM8.6667 10.3333H3.33337V6.33334C3.33337 4.68001 4.34003 3.33334 6.00003 3.33334C7.66003 3.33334 8.6667 4.68001 8.6667 6.33334V10.3333ZM6.00003 13.6667C6.73337 13.6667 7.33337 13.0667 7.33337 12.3333H4.6667C4.6667 13.0667 5.26003 13.6667 6.00003 13.6667Z" fill="white"/>
</svg>
