<svg width="43" height="43" viewBox="0 0 43 43" fill="none" xmlns="http://www.w3.org/2000/svg">
    <circle cx="21.5" cy="21.5" r="21" stroke="#767BA8" stroke-opacity="0.2" />
    <path
        d="M28.25 22.625H22.625V28.25C22.625 28.8687 22.1187 29.375 21.5 29.375C20.8812 29.375 20.375 28.8687 20.375 28.25V22.625H14.75C14.1312 22.625 13.625 22.1187 13.625 21.5C13.625 20.8812 14.1312 20.375 14.75 20.375H20.375V14.75C20.375 14.1312 20.8812 13.625 21.5 13.625C22.1187 13.625 22.625 14.1312 22.625 14.75V20.375H28.25C28.8687 20.375 29.375 20.8812 29.375 21.5C29.375 22.1187 28.8687 22.625 28.25 22.625Z"
        fill="#333866" />
</svg>
