<svg width="24" height="24" viewBox="0 0 24 24" fill="none" xmlns="http://www.w3.org/2000/svg">
<path d="M12.0001 23C13.1001 23 13.9901 22.11 13.9901 21.01H10.0101C10.0101 22.11 10.9001 23 12.0001 23ZM19.0001 17V11C19.0001 7.65 16.6401 4.85 13.5001 4.17V3C13.5001 2.17 12.8301 1.5 12.0001 1.5C11.1701 1.5 10.5001 2.17 10.5001 3V4.17C7.36005 4.85 5.00005 7.65 5.00005 11V17L3.71005 18.29C3.08005 18.92 3.52005 20 4.41005 20H19.5801C20.4701 20 20.9201 18.92 20.2901 18.29L19.0001 17ZM15.0001 13.01H13.0001V15.01C13.0001 15.56 12.5501 16.01 12.0001 16.01C11.4501 16.01 11.0001 15.56 11.0001 15.01V13.01H9.00005C8.45005 13.01 8.00005 12.56 8.00005 12.01V12C8.00005 11.45 8.45005 11 9.00005 11H11.0001V9C11.0001 8.45 11.4501 8 12.0001 8C12.5501 8 13.0001 8.45 13.0001 9V11H15.0001C15.5501 11 16.0001 11.45 16.0001 12V12.01C16.0001 12.56 15.5501 13.01 15.0001 13.01Z" fill="#950EFF"/>
</svg>
