<svg width="15" height="15" viewBox="0 0 15 15" fill="none" xmlns="http://www.w3.org/2000/svg">
    <path d="M7.49288 0.416626C3.58288 0.416626 0.416626 3.58996 0.416626 7.49996C0.416626 11.41 3.58288 14.5833 7.49288 14.5833C11.41 14.5833 14.5833 11.41 14.5833 7.49996C14.5833 3.58996 11.41 0.416626 7.49288 0.416626ZM7.49996 13.1666C4.36913 13.1666 1.83329 10.6308 1.83329 7.49996C1.83329 4.36913 4.36913 1.83329 7.49996 1.83329C10.6308 1.83329 13.1666 4.36913 13.1666 7.49996C13.1666 10.6308 10.6308 13.1666 7.49996 13.1666ZM7.34413 3.95829H7.30163C7.01829 3.95829 6.79163 4.18496 6.79163 4.46829V7.81163C6.79163 8.05954 6.91913 8.29329 7.13871 8.42079L10.0783 10.1845C10.3191 10.3262 10.6308 10.2554 10.7725 10.0145C10.9212 9.77371 10.8433 9.45496 10.5954 9.31329L7.85413 7.68413V4.46829C7.85413 4.18496 7.62746 3.95829 7.34413 3.95829Z"
            fill="#767BA8" />
</svg>
