<svg width="14" height="14" viewBox="0 0 14 14" fill="none" xmlns="http://www.w3.org/2000/svg">
<path d="M13.2922 0.709971C12.9017 0.319971 12.2708 0.319971 11.8803 0.709971L6.98362 5.58997L2.08695 0.699971C1.69642 0.309971 1.06556 0.309971 0.675025 0.699971C0.284493 1.08997 0.284493 1.71997 0.675025 2.10997L5.5717 6.99997L0.675025 11.89C0.284493 12.28 0.284493 12.91 0.675025 13.3C1.06556 13.69 1.69642 13.69 2.08695 13.3L6.98362 8.40997L11.8803 13.3C12.2708 13.69 12.9017 13.69 13.2922 13.3C13.6827 12.91 13.6827 12.28 13.2922 11.89L8.39555 6.99997L13.2922 2.10997C13.6727 1.72997 13.6727 1.08997 13.2922 0.709971Z" fill="#0D7F50"/>
</svg>
