<svg width="14" height="18" viewBox="0 0 14 18" fill="none" xmlns="http://www.w3.org/2000/svg">
<path d="M12.4398 1.9H9.26299C8.94378 1.0184 8.10779 0.380005 7.11979 0.380005C6.13178 0.380005 5.29579 1.0184 4.97659 1.9H1.79979C0.963785 1.9 0.279785 2.584 0.279785 3.42V15.58C0.279785 16.416 0.963785 17.1 1.79979 17.1H12.4398C13.2758 17.1 13.9598 16.416 13.9598 15.58V3.42C13.9598 2.584 13.2758 1.9 12.4398 1.9ZM7.11979 1.9C7.53779 1.9 7.87979 2.242 7.87979 2.66C7.87979 3.078 7.53779 3.42 7.11979 3.42C6.70179 3.42 6.35979 3.078 6.35979 2.66C6.35979 2.242 6.70179 1.9 7.11979 1.9ZM11.6798 15.58H2.55979C2.14179 15.58 1.79979 15.238 1.79979 14.82V4.18C1.79979 3.762 2.14179 3.42 2.55979 3.42H3.31979V4.18C3.31979 5.01601 4.00379 5.7 4.83979 5.7H9.39979C10.2358 5.7 10.9198 5.01601 10.9198 4.18V3.42H11.6798C12.0978 3.42 12.4398 3.762 12.4398 4.18V14.82C12.4398 15.238 12.0978 15.58 11.6798 15.58Z" fill="#767BA8"/>
</svg>
