<svg width="14" height="16" viewBox="0 0 14 16" fill="none" xmlns="http://www.w3.org/2000/svg">
    <path d="M12.3334 1.99996H11.6667V1.33329C11.6667 0.966626 11.3667 0.666626 11 0.666626C10.6334 0.666626 10.3334 0.966626 10.3334 1.33329V1.99996H3.66671V1.33329C3.66671 0.966626 3.36671 0.666626 3.00004 0.666626C2.63337 0.666626 2.33337 0.966626 2.33337 1.33329V1.99996H1.66671C0.933374 1.99996 0.333374 2.59996 0.333374 3.33329V14C0.333374 14.7333 0.933374 15.3333 1.66671 15.3333H12.3334C13.0667 15.3333 13.6667 14.7333 13.6667 14V3.33329C13.6667 2.59996 13.0667 1.99996 12.3334 1.99996ZM11.6667 14H2.33337C1.96671 14 1.66671 13.7 1.66671 13.3333V5.33329H12.3334V13.3333C12.3334 13.7 12.0334 14 11.6667 14Z"
            fill="#767BA8" />
</svg>
