<svg width="66" height="87" viewBox="0 0 66 87" fill="none" xmlns="http://www.w3.org/2000/svg">
    <rect x="29.2917" y="48.1513" width="26.1293" height="26.1293"
        transform="rotate(2.7176 29.2917 48.1513)" fill="white" />
    <ellipse cx="13.8334" cy="28.8333" rx="13.5" ry="13.5" fill="white" />
    <path
        d="M23.5005 58.6828L23.5005 58.6828L16.0875 61.2191L16.0875 61.2191L9.54192 63.4583H8.54175V62.475L9.85803 59.3155L11.7837 54.6932L11.7838 54.6932L13.7095 50.0718L15.7767 45.1111L15.7767 45.1111L17.5609 40.8291L17.5609 40.8291L19.4867 36.2078L19.4867 36.2077L20.3403 34.1586L21.5001 32.9988L28.5882 40.0869L37.1372 48.6359L40.5846 52.0833L39.4368 53.2311L38.4422 53.5716L38.4421 53.5716L30.9907 56.1208L30.9906 56.1208L23.5005 58.6828Z"
        fill="#3B69D1" stroke="#3B69D1" />
    <path d="M23.6623 59.1559L16.2493 61.6922L9.39648 59.1232L11.3222 54.5009L23.6623 59.1559Z"
        fill="#274996" />
    <path d="M38.604 54.0447L31.1525 56.5939L13.2479 49.8795L15.3152 44.9188L38.604 54.0447Z"
        fill="#274996" />
    <path d="M37.4907 48.2823L17.0994 40.6368L19.0251 36.0155L28.9417 39.7333L37.4907 48.2823Z"
        fill="#274996" />
    <path
        d="M25.4585 31.5L28.7689 28.1896C29.1837 27.7747 29.4168 27.2121 29.4168 26.6253C29.4168 26.1924 29.2898 25.769 29.0514 25.4076C28.8131 25.0461 28.474 24.7626 28.076 24.5921L26.0147 23.7086C24.6129 23.1079 23.3935 22.1495 22.4784 20.9294L21.5001 19.625L23.8751 18.0417C24.9013 19.5809 26.4113 20.7343 28.1664 21.3193L29.1093 21.6336C30.1209 21.9708 31.0009 22.6178 31.6244 23.4829C32.2479 24.348 32.5835 25.3874 32.5835 26.4538C32.5835 27.6666 32.1496 28.8395 31.3603 29.7604L27.8335 33.875L25.4585 31.5Z"
        fill="#FF8D7E" />
    <path d="M36.5418 27.5417L35.7501 22.7917L40.5001 24.375L36.5418 27.5417Z" fill="#EEF1F8" />
    <path d="M31.6121 19.6061L31.9968 18.0703L35.163 18.8635L34.7783 20.3993L31.6121 19.6061Z"
        fill="#0C7A81" />
    <path d="M39.2683 18.9561L41.6431 17.3719L42.5219 18.6892L40.1471 20.2734L39.2683 18.9561Z"
        fill="#FFF1ED" />
    <path d="M20.7339 24.5586L22.2697 24.1739L23.0629 27.3401L21.5271 27.7248L20.7339 24.5586Z"
        fill="#950EFF" />
    <path
        d="M43.457 42.8777L40.5001 45.8346L38.8605 44.1949L42.5651 41.0195L42.2397 40.6399L42.5651 41.0195C43.3954 40.3078 44.4528 39.9167 45.5463 39.9167C46.5078 39.9167 47.4449 40.2192 48.2248 40.7813C49.0048 41.3435 49.5881 42.1368 49.8922 43.049L50.2065 43.9919C50.7738 45.6938 51.8453 47.1784 53.2729 48.2519L52.2523 49.7829L51.3707 49.1217C50.2207 48.2592 49.3173 47.1097 48.7511 45.7884L47.8676 43.7271C47.6585 43.2392 47.3109 42.8235 46.8678 42.5313C46.4247 42.2391 45.9055 42.0833 45.3748 42.0833C44.6555 42.0833 43.9656 42.3691 43.457 42.8777Z"
        fill="#3B69D1" stroke="#3B69D1" />
    <path d="M46.8334 36.25L51.5834 37.0417L50 32.2917L46.8334 36.25Z" fill="#0D7F50" />
    <path d="M51.6115 39.5838L53.1473 39.199L53.9405 42.3652L52.4046 42.75L51.6115 39.5838Z"
        fill="#D33211" />
    <path d="M51.7295 31.8592L53.3137 29.4844L54.631 30.3632L53.0468 32.738L51.7295 31.8592Z"
        fill="#950EFF" />
    <path d="M44.2802 50.4973L44.6649 48.9614L47.8311 49.7546L47.4464 51.2904L44.2802 50.4973Z"
        fill="#F4E5FF" />
    <path
        d="M31.0001 37.8333L34.1531 34.1525C35.1768 32.9571 36.6166 32.1954 38.1808 32.0216L38.2707 32.0116C39.6124 31.8646 40.8745 31.3013 41.88 30.4008C42.8855 29.5003 43.5839 28.3076 43.8773 26.9901C44.0527 26.201 44.4402 25.4746 44.9981 24.8896C45.556 24.3045 46.263 23.8828 47.043 23.6701L53.1668 22L53.9585 25.1667L49.6775 26.118C48.8319 26.3059 48.0595 26.7361 47.4546 27.3561C46.8498 27.976 46.4387 28.7588 46.2717 29.6087L46.2492 29.7231C45.9683 31.1521 45.235 32.4527 44.1577 33.4327C43.0805 34.4127 41.7165 35.02 40.2674 35.1649L40.1738 35.1743C38.3558 35.3517 36.6808 36.2382 35.5118 37.6419C34.4742 38.8895 33.3751 40.2083 33.3751 40.2083L31.0001 37.8333Z"
        fill="#274996" />
</svg>
