<svg width="11" height="23" viewBox="0 0 11 23" fill="none" xmlns="http://www.w3.org/2000/svg">
<path d="M9.5 5.75002V16.33C9.5 18.42 7.97 20.28 5.89 20.48C3.5 20.71 1.5 18.84 1.5 16.5V4.14002C1.5 2.83002 2.44 1.64002 3.74 1.51002C5.24 1.36002 6.5 2.53002 6.5 4.00002V14.5C6.5 15.05 6.05 15.5 5.5 15.5C4.95 15.5 4.5 15.05 4.5 14.5V5.75002C4.5 5.34002 4.16 5.00002 3.75 5.00002C3.34 5.00002 3 5.34002 3 5.75002V14.36C3 15.67 3.94 16.86 5.24 16.99C6.74 17.14 8 15.97 8 14.5V4.17002C8 2.08002 6.47 0.220024 4.39 0.0200239C2.01 -0.209976 0 1.66002 0 4.00002V16.27C0 19.14 2.1 21.71 4.96 21.98C8.25 22.28 11 19.72 11 16.5V5.75002C11 5.34002 10.66 5.00002 10.25 5.00002C9.84 5.00002 9.5 5.34002 9.5 5.75002Z" fill="#3B69D1"/>
</svg>
