<svg width="121" height="110" viewBox="0 0 121 110" fill="none" xmlns="http://www.w3.org/2000/svg">
    <circle cx="64" cy="58" r="44" fill="#7AEBA7" />
    <path
        d="M59.0001 66.3999L52.0001 59.3999C51.2201 58.6199 49.9801 58.6199 49.2001 59.3999C48.4201 60.1799 48.4201 61.4199 49.2001 62.1999L57.5801 70.5799C58.3601 71.3599 59.6201 71.3599 60.4001 70.5799L81.6001 49.3999C82.3801 48.6199 82.3801 47.3799 81.6001 46.5999C80.8201 45.8199 79.5801 45.8199 78.8001 46.5999L59.0001 66.3999Z"
        fill="white" />
    <circle cx="4" cy="48" r="4" fill="#000091" />
    <circle cx="113" cy="106" r="4" fill="#E1000F" />
    <circle cx="8" cy="101" r="4" fill="#9762DA" />
    <circle cx="117" cy="30" r="4" fill="#5D5FEF" />
    <circle cx="42" cy="4" r="4" fill="#EF5DA8" />
</svg>
