<svg width="46" height="46" viewBox="0 0 46 46" fill="none" xmlns="http://www.w3.org/2000/svg">
    <g clip-path="url(#clip0_1783:13037)">
        <path
            d="M29.2271 17.9134L24.513 22.6274L29.2271 27.3415C29.7456 27.86 29.7456 28.7086 29.2271 29.2271C28.7085 29.7456 27.86 29.7456 27.3415 29.2271L22.6274 24.5131L17.9134 29.2271C17.3948 29.7456 16.5463 29.7456 16.0278 29.2271C15.5092 28.7086 15.5092 27.86 16.0278 27.3415L20.7418 22.6274L16.0278 17.9134C15.5092 17.3949 15.5092 16.5463 16.0278 16.0278C16.5463 15.5092 17.3948 15.5092 17.9134 16.0278L22.6274 20.7418L27.3415 16.0278C27.86 15.5092 28.7085 15.5092 29.2271 16.0278C29.7456 16.5463 29.7456 17.3949 29.2271 17.9134Z"
            fill="#767BA8" />
    </g>
    <defs>
        <clipPath id="clip0_1783:13037">
            <rect width="32" height="32" fill="white" transform="translate(0 22.6274) rotate(-45)" />
        </clipPath>
    </defs>
</svg>
