<svg width="121" height="120" viewBox="0 0 121 120" fill="none" xmlns="http://www.w3.org/2000/svg">
<rect x="17.1665" y="24.9759" width="86.3333" height="0.520081" fill="#F1F1F1"/>
<rect x="17.1665" y="42.1385" width="86.3333" height="0.520081" fill="#F1F1F1"/>
<rect x="17.1665" y="60.3414" width="86.3333" height="0.520084" fill="#F1F1F1"/>
<rect x="17.1665" y="77.504" width="86.3333" height="0.520065" fill="#F1F1F1"/>
<rect x="17.1665" y="94.6666" width="86.3333" height="0.520088" fill="#F1F1F1"/>
<rect x="33.8091" y="111.829" width="103.496" height="0.520081" transform="rotate(-90 33.8091 111.829)" fill="#F1F1F1"/>
<rect x="50.9717" y="111.829" width="103.496" height="0.520081" transform="rotate(-90 50.9717 111.829)" fill="#F1F1F1"/>
<rect x="68.1343" y="111.829" width="103.496" height="0.520073" transform="rotate(-90 68.1343 111.829)" fill="#F1F1F1"/>
<rect x="86.3374" y="111.829" width="103.496" height="0.520103" transform="rotate(-90 86.3374 111.829)" fill="#F1F1F1"/>
<g clip-path="url(#clip0_683_2912)">
<path d="M90.3674 22.1814L88.5193 20.3333L83.7669 25.0856L79.0146 20.3333L77.1665 22.1814L81.9188 26.9337L77.1665 31.6861L79.0146 33.5342L83.7669 28.7819L88.5193 33.5342L90.3674 31.6861L85.6151 26.9337L90.3674 22.1814Z" fill="#D33211"/>
</g>
<ellipse cx="40.0801" cy="50.5422" rx="13.2657" ry="13.2657" fill="white"/>
<rect x="59.3755" y="70.0387" width="26.1293" height="26.1293" transform="rotate(-30 59.3755 70.0387)" fill="white"/>
<g clip-path="url(#clip1_683_2912)">
<path d="M69.5519 36.5185H50.841C50.1646 36.5192 49.516 36.7883 49.0377 37.2666C48.5593 37.745 48.2903 38.3935 48.2896 39.07V44.1729C48.2896 44.3985 48.3792 44.6148 48.5387 44.7743C48.6982 44.9338 48.9145 45.0234 49.14 45.0234H71.2529C71.4784 45.0234 71.6948 44.9338 71.8543 44.7743C72.0138 44.6148 72.1034 44.3985 72.1034 44.1729V39.07C72.1026 38.3935 71.8336 37.745 71.3552 37.2666C70.8769 36.7883 70.2283 36.5192 69.5519 36.5185V36.5185Z" fill="#274996"/>
<path d="M79.0099 50.4046C78.9301 50.317 78.833 50.247 78.7246 50.1991C78.6162 50.1512 78.499 50.1264 78.3806 50.1264H42.0122C41.8937 50.1264 41.7765 50.1511 41.6682 50.1991C41.5598 50.247 41.4626 50.317 41.3829 50.4047C41.3032 50.4923 41.2427 50.5957 41.2052 50.7081C41.1678 50.8205 41.1542 50.9395 41.1654 51.0574L44.8914 90.1801C44.9114 90.3908 45.0093 90.5864 45.1659 90.7288C45.3224 90.8712 45.5265 90.9501 45.7381 90.9501H74.6549C74.8665 90.9501 75.0706 90.8712 75.2271 90.7288C75.3837 90.5864 75.4816 90.3908 75.5016 90.1801L79.2276 51.0574C79.2386 50.9395 79.225 50.8205 79.1875 50.7081C79.15 50.5957 79.0895 50.4923 79.0099 50.4046Z" fill="#EEF1F8"/>
<path d="M80.6081 43.3224H39.7845C38.8451 43.3224 38.0835 44.084 38.0835 45.0234V50.1264C38.0835 51.0658 38.8451 51.8274 39.7845 51.8274H80.6081C81.5476 51.8274 82.3091 51.0658 82.3091 50.1264V45.0234C82.3091 44.084 81.5476 43.3224 80.6081 43.3224Z" fill="#3B69D1"/>
<path d="M60.1962 84.9966C59.9706 84.9966 59.7543 84.907 59.5948 84.7475C59.4353 84.588 59.3457 84.3717 59.3457 84.1461V56.9303C59.3457 56.7048 59.4353 56.4884 59.5948 56.3289C59.7543 56.1694 59.9706 56.0798 60.1962 56.0798C60.4218 56.0798 60.6381 56.1694 60.7976 56.3289C60.9571 56.4884 61.0467 56.7048 61.0467 56.9303V84.1461C61.0467 84.3717 60.9571 84.588 60.7976 84.7475C60.6381 84.907 60.4218 84.9966 60.1962 84.9966Z" fill="#3B69D1"/>
<path d="M67.8518 84.9966C67.834 84.9966 67.8161 84.9958 67.7978 84.9949C67.6863 84.988 67.5773 84.9592 67.477 84.9102C67.3767 84.8611 67.287 84.7928 67.2131 84.7091C67.1392 84.6253 67.0826 84.5279 67.0464 84.4222C67.0102 84.3166 66.9951 84.2048 67.0022 84.0934L68.7032 56.8776C68.7201 56.6537 68.8238 56.4452 68.9922 56.2965C69.1606 56.1479 69.3804 56.0709 69.6047 56.082C69.7162 56.0889 69.8252 56.1177 69.9256 56.1667C70.0259 56.2158 70.1156 56.2842 70.1895 56.368C70.2634 56.4517 70.3201 56.5493 70.3563 56.655C70.3924 56.7606 70.4074 56.8724 70.4003 56.9839L68.6993 84.1997C68.6857 84.4153 68.5905 84.6177 68.4331 84.7657C68.2757 84.9137 68.0679 84.9963 67.8518 84.9966Z" fill="#3B69D1"/>
<path d="M52.5408 84.9966C52.3246 84.9964 52.1166 84.9138 51.9591 84.7657C51.8016 84.6176 51.7064 84.4151 51.6929 84.1993L49.9919 56.9835C49.98 56.7596 50.057 56.5401 50.2061 56.3727C50.3552 56.2053 50.5643 56.1036 50.7881 56.0896C51.0118 56.0755 51.232 56.1504 51.4008 56.2979C51.5696 56.4454 51.6734 56.6536 51.6895 56.8772L53.3905 84.093C53.3975 84.2044 53.3825 84.3162 53.3463 84.4218C53.3101 84.5274 53.2534 84.6249 53.1795 84.7086C53.1056 84.7924 53.016 84.8607 52.9156 84.9098C52.8153 84.9588 52.7063 84.9876 52.5949 84.9945C52.5766 84.9958 52.5587 84.9966 52.5408 84.9966Z" fill="#3B69D1"/>
</g>
<defs>
<clipPath id="clip0_683_2912">
<rect width="13.2009" height="13.2009" fill="white" transform="translate(77.1665 20.3333)"/>
</clipPath>
<clipPath id="clip1_683_2912">
<rect width="54.4316" height="54.4315" fill="white" transform="translate(32.9805 36.5185)"/>
</clipPath>
</defs>
</svg>
