<svg width="10" height="12" viewBox="0 0 10 12" fill="none" xmlns="http://www.w3.org/2000/svg">
<path d="M8.06016 4H7.00016V0.666667C7.00016 0.3 6.70016 0 6.3335 0H3.66683C3.30016 0 3.00016 0.3 3.00016 0.666667V4H1.94016C1.34683 4 1.04683 4.72 1.46683 5.14L4.52683 8.2C4.78683 8.46 5.20683 8.46 5.46683 8.2L8.52683 5.14C8.94683 4.72 8.6535 4 8.06016 4ZM0.333496 10.6667C0.333496 11.0333 0.633496 11.3333 1.00016 11.3333H9.00016C9.36683 11.3333 9.66683 11.0333 9.66683 10.6667C9.66683 10.3 9.36683 10 9.00016 10H1.00016C0.633496 10 0.333496 10.3 0.333496 10.6667Z" fill="white"/>
</svg>
