<svg width="24" height="24" viewBox="0 0 24 24" fill="none" xmlns="http://www.w3.org/2000/svg">
    <path
        d="M12 1C9.82441 1 7.69767 1.64514 5.88873 2.85383C4.07979 4.06253 2.66989 5.78049 1.83733 7.79048C1.00477 9.80047 0.786929 12.0122 1.21137 14.146C1.6358 16.2798 2.68345 18.2398 4.22183 19.7782C5.76021 21.3165 7.72022 22.3642 9.85401 22.7886C11.9878 23.2131 14.1995 22.9952 16.2095 22.1627C18.2195 21.3301 19.9375 19.9202 21.1462 18.1113C22.3549 16.3023 23 14.1756 23 12C23.0008 10.5552 22.7168 9.12448 22.1643 7.78955C21.6118 6.45461 20.8015 5.24167 19.7799 4.22007C18.7583 3.19847 17.5454 2.38824 16.2105 1.83572C14.8755 1.2832 13.4448 0.999213 12 1V1ZM17.72 9.57L11.72 15.82C11.6262 15.9157 11.5141 15.9916 11.3905 16.0431C11.2668 16.0946 11.134 16.1208 11 16.12C10.7708 16.1219 10.5481 16.0442 10.37 15.9L6.37001 12.65C6.26073 12.5699 6.16889 12.4683 6.10005 12.3516C6.03121 12.2349 5.98681 12.1054 5.96955 11.971C5.95229 11.8366 5.96252 11.7001 5.99964 11.5697C6.03675 11.4394 6.09996 11.318 6.18544 11.2128C6.27092 11.1077 6.37688 11.021 6.49688 10.9581C6.61688 10.8951 6.74843 10.8572 6.88353 10.8467C7.01863 10.8361 7.15446 10.8531 7.28278 10.8967C7.41111 10.9402 7.52924 11.0094 7.63001 11.1L10.92 13.77L16.28 8.18C16.4643 7.98904 16.717 7.87913 16.9823 7.87444C17.1137 7.87212 17.2443 7.8957 17.3666 7.94384C17.4889 7.99198 17.6005 8.06373 17.695 8.155C17.7896 8.24627 17.8652 8.35526 17.9176 8.47577C17.9701 8.59627 17.9982 8.72592 18.0006 8.85732C18.0029 8.98871 17.9793 9.11928 17.9312 9.24156C17.883 9.36384 17.8113 9.47544 17.72 9.57V9.57Z"
        fill="#3B69D1" />
</svg>
