<svg width="258" height="258" viewBox="0 0 258 258" fill="none" xmlns="http://www.w3.org/2000/svg">
    <rect x="58.1711" y="66.2204" width="153.915" height="0.9272" fill="#B3B3B3" />
    <rect x="58.1711" y="96.8179" width="153.915" height="0.9272" fill="#B3B3B3" />
    <rect x="58.1711" y="129.27" width="153.915" height="0.927185" fill="#B3B3B3" />
    <rect x="58.1711" y="159.867" width="153.915" height="0.927216" fill="#B3B3B3" />
    <rect x="58.1711" y="190.465" width="153.915" height="0.9272" fill="#B3B3B3" />
    <rect x="87.8416" y="221.063" width="184.513" height="0.927208"
        transform="rotate(-90 87.8416 221.063)" fill="#B3B3B3" />
    <rect x="118.439" y="221.063" width="184.513" height="0.927193"
        transform="rotate(-90 118.439 221.063)" fill="#B3B3B3" />
    <rect x="149.037" y="221.063" width="184.513" height="0.927216"
        transform="rotate(-90 149.037 221.063)" fill="#B3B3B3" />
    <rect x="181.489" y="221.063" width="184.513" height="0.927231"
        transform="rotate(-90 181.489 221.063)" fill="#B3B3B3" />
    <path
        d="M125.986 177.25C140.554 157.82 168.213 153.86 187.64 168.426C194.794 173.791 200.083 181.093 202.935 189.541C203.806 192.121 204.433 194.753 204.815 197.425L117.644 209.9C116.047 198.735 118.701 186.965 125.986 177.25Z"
        fill="#F4E5FF" />
    <g clip-path="url(#clip0_196_5879)">
        <path
            d="M93.4063 150.064L81.4949 161.978C80.7998 162.673 79.8888 163.02 78.9778 163.02C78.0668 163.02 77.1559 162.673 76.4608 161.978C75.073 160.588 75.073 158.334 76.4608 156.944L88.3722 145.03C89.7624 143.643 92.0161 143.643 93.4063 145.03V145.033C94.7941 146.423 94.7965 148.674 93.4063 150.064Z"
            fill="#161616" />
        <path
            d="M93.4063 150.064L81.4949 161.978C80.7998 162.673 79.8888 163.02 78.9779 163.02C78.0669 163.02 77.1559 162.673 76.4608 161.978L93.4063 145.033C94.7941 146.423 94.7965 148.674 93.4063 150.064Z"
            fill="#161616" />
        <path
            d="M160.313 118.792C160.313 141.216 142.07 159.461 119.644 159.461C111.386 159.461 103.432 156.996 96.6445 152.335C94.5711 150.911 92.6495 149.315 90.8869 147.552C89.1266 145.789 87.5253 143.866 86.1019 141.79C81.4403 135.005 78.9755 127.05 78.9755 118.792C78.9755 96.3668 97.221 78.1236 119.644 78.1236C130.858 78.1236 141.026 82.6856 148.387 90.0517C155.753 97.4154 160.313 107.581 160.313 118.792Z"
            fill="#161616" />
        <path
            d="M160.313 118.792C160.313 141.216 142.07 159.461 119.644 159.461C111.386 159.461 103.432 156.996 96.6446 152.335C94.5712 150.911 92.6496 149.315 90.887 147.552L148.387 90.0517C155.753 97.4154 160.313 107.581 160.313 118.792Z"
            fill="#161616" />
        <path
            d="M89.6533 118.795C89.6533 120.76 91.2466 122.353 93.2118 122.353C95.177 122.353 96.7703 120.76 96.7703 118.795C96.7703 106.181 107.032 95.9185 119.647 95.9185C121.612 95.9185 123.205 94.3252 123.205 92.36C123.205 90.3947 121.612 88.8015 119.647 88.8015C103.108 88.8015 89.6533 102.256 89.6533 118.795Z"
            fill="#161616" />
        <path
            d="M150.904 87.5347C142.898 79.5257 131.84 74.5652 119.647 74.5652C95.2567 74.5652 75.417 94.4049 75.417 118.79C75.417 127.774 78.0977 136.424 83.1674 143.801C84.7165 146.058 86.4554 148.152 88.3723 150.067C90.2891 151.986 92.3791 153.72 94.6328 155.269C102.013 160.339 110.663 163.02 119.647 163.02C144.032 163.02 163.871 143.18 163.871 118.79C163.871 106.599 158.911 95.5436 150.904 87.5347ZM119.647 155.903C112.107 155.903 104.853 153.656 98.661 149.403C96.7679 148.102 95.0148 146.644 93.4063 145.033C91.7955 143.427 90.3342 141.669 89.0341 139.773C84.7806 133.584 82.534 126.329 82.534 118.79C82.534 98.3287 99.1829 81.6821 119.647 81.6821C129.878 81.6821 139.157 85.8456 145.873 92.5664C152.593 99.2848 156.755 108.563 156.755 118.79C156.755 139.254 140.108 155.903 119.647 155.903Z"
            fill="#161616" />
        <path
            d="M163.872 118.79C163.872 143.18 144.032 163.02 119.647 163.02C110.663 163.02 102.013 160.339 94.6329 155.269C92.3792 153.72 90.2892 151.986 88.3723 150.067L93.4064 145.033C95.0148 146.644 96.768 148.103 98.6611 149.403C104.853 153.656 112.107 155.903 119.647 155.903C140.108 155.903 156.755 139.254 156.755 118.79C156.755 108.563 152.594 99.2848 145.873 92.5664L150.904 87.5347C158.911 95.5436 163.872 106.599 163.872 118.79Z"
            fill="#161616" />
        <path
            d="M86.5242 167.008L58.5474 194.987C57.1565 196.378 54.9023 196.373 53.5157 194.987L48.484 189.955L43.4499 184.921C42.0649 183.536 42.059 181.28 43.4499 179.889L71.4291 151.91C72.0957 151.243 72.9996 150.869 73.9437 150.869C74.8879 150.869 75.7942 151.243 76.4608 151.91L81.4948 156.944L86.5242 161.976C87.9144 163.366 87.9144 165.62 86.5242 167.008Z"
            fill="#161616" />
        <path
            d="M86.5244 167.008L58.5475 194.987C57.1566 196.378 54.9025 196.373 53.5158 194.987L48.4841 189.955L81.495 156.944L86.5244 161.976C87.9145 163.366 87.9145 165.62 86.5244 167.008Z"
            fill="#161616" />
    </g>
    <g clip-path="url(#clip1_196_5879)">
        <path
            d="M89.6976 146.356L77.7861 158.269C77.091 158.964 76.18 159.311 75.2691 159.311C74.3581 159.311 73.4471 158.964 72.752 158.269C71.3642 156.879 71.3642 154.625 72.752 153.235L84.6635 141.321C86.0537 139.934 88.3074 139.934 89.6976 141.321V141.324C91.0854 142.714 91.0877 144.965 89.6976 146.356Z"
            fill="#DFE7F4" />
        <path
            d="M89.6976 146.356L77.7861 158.269C77.0911 158.964 76.1801 159.311 75.2691 159.311C74.3581 159.311 73.4472 158.964 72.7521 158.269L89.6976 141.324C91.0854 142.714 91.0878 144.965 89.6976 146.356Z"
            fill="#C7CFE1" />
        <path
            d="M156.604 115.084C156.604 137.507 138.361 155.752 115.935 155.752C107.677 155.752 99.723 153.288 92.9358 148.626C90.8624 147.203 88.9408 145.606 87.1782 143.843C85.4179 142.081 83.8166 140.157 82.3932 138.081C77.7316 131.296 75.2667 123.342 75.2667 115.084C75.2667 92.658 93.5123 74.4148 115.935 74.4148C127.149 74.4148 137.317 78.9768 144.679 86.3429C152.045 93.7066 156.604 103.872 156.604 115.084Z"
            fill="#EEF1F8" />
        <path
            d="M156.604 115.084C156.604 137.507 138.361 155.752 115.936 155.752C107.677 155.752 99.7231 153.288 92.9359 148.626C90.8624 147.203 88.9409 145.606 87.1782 143.843L144.679 86.3429C152.045 93.7066 156.604 103.872 156.604 115.084Z"
            fill="#EEF1F8" />
        <path
            d="M85.9446 115.086C85.9446 117.051 87.5378 118.644 89.5031 118.644C91.4683 118.644 93.0616 117.051 93.0616 115.086C93.0616 102.472 103.324 92.2096 115.938 92.2096C117.903 92.2096 119.496 90.6164 119.496 88.6512C119.496 86.6859 117.903 85.0927 115.938 85.0927C99.3995 85.0927 85.9446 98.5475 85.9446 115.086Z"
            fill="#274996" />
        <path
            d="M147.196 83.8259C139.189 75.8169 128.132 70.8564 115.938 70.8564C91.548 70.8564 71.7083 90.6961 71.7083 115.081C71.7083 124.065 74.389 132.715 79.4586 140.093C81.0078 142.349 82.7467 144.443 84.6635 146.358C86.5803 148.277 88.6704 150.011 90.9241 151.56C98.3044 156.63 106.954 159.311 115.938 159.311C140.323 159.311 160.163 139.471 160.163 115.081C160.163 102.89 155.202 91.8348 147.196 83.8259ZM115.938 152.194C108.399 152.194 101.144 149.947 94.9523 145.694C93.0592 144.394 91.306 142.935 89.6976 141.324C88.0868 139.718 86.6254 137.96 85.3254 136.064C81.0718 129.875 78.8252 122.62 78.8252 115.081C78.8252 94.6199 95.4742 77.9733 115.938 77.9733C126.17 77.9733 135.448 82.1368 142.164 88.8576C148.885 95.576 153.046 104.854 153.046 115.081C153.046 135.545 136.399 152.194 115.938 152.194Z"
            fill="#3B69D1" />
        <path
            d="M160.163 115.081C160.163 139.471 140.323 159.311 115.938 159.311C106.954 159.311 98.3044 156.63 90.9241 151.56C88.6704 150.011 86.5804 148.277 84.6636 146.358L89.6976 141.324C91.3061 142.935 93.0592 144.394 94.9523 145.694C101.144 149.947 108.399 152.194 115.938 152.194C136.399 152.194 153.046 135.545 153.046 115.081C153.046 104.854 148.885 95.576 142.164 88.8576L147.196 83.8259C155.202 91.8348 160.163 102.89 160.163 115.081Z"
            fill="#274996" />
        <path
            d="M82.8154 163.299L54.8386 191.278C53.4477 192.669 51.1935 192.665 49.8069 191.278L44.7752 186.246L39.7411 181.212C38.3562 179.827 38.3502 177.571 39.7411 176.18L67.7203 148.201C68.387 147.535 69.2908 147.16 70.235 147.16C71.1792 147.16 72.0854 147.535 72.752 148.201L77.7861 153.235L82.8154 158.267C84.2056 159.657 84.2056 161.911 82.8154 163.299Z"
            fill="#3B69D1" />
        <path
            d="M82.8156 163.299L54.8388 191.278C53.4479 192.669 51.1937 192.665 49.8071 191.278L44.7754 186.246L77.7863 153.235L82.8156 158.267C84.2058 159.657 84.2058 161.911 82.8156 163.299Z"
            fill="#274996" />
    </g>
    <ellipse cx="137.91" cy="117.216" rx="11.1264" ry="11.1264" fill="#161616" />
    <ellipse cx="163.872" cy="117.216" rx="11.1264" ry="11.1264" fill="#161616" />
    <ellipse cx="189.833" cy="117.216" rx="11.1264" ry="11.1264" fill="#161616" />
    <ellipse cx="137.91" cy="114.435" rx="11.1264" ry="11.1264" fill="#3B69D1" />
    <ellipse cx="163.872" cy="114.435" rx="11.1264" ry="11.1264" fill="#3B69D1" />
    <ellipse cx="189.833" cy="114.435" rx="11.1264" ry="11.1264" fill="#3B69D1" />
    <g clip-path="url(#clip2_196_5879)">
        <path
            d="M187.548 72.6669L182.069 73.6329C181.826 73.6758 181.629 73.8053 181.478 74.0198C181.328 74.2348 181.274 74.4637 181.317 74.7073L182.283 80.1863C182.326 80.4299 182.455 80.6269 182.67 80.7772C182.885 80.9272 183.114 80.9814 183.357 80.9384L188.836 79.9724C189.079 79.9295 189.277 79.8003 189.426 79.5858C189.577 79.3711 189.631 79.1418 189.588 78.8982L188.622 73.4192C188.579 73.1756 188.45 72.9789 188.235 72.8284C188.021 72.6777 187.791 72.624 187.548 72.6669Z"
            fill="#950EFF" />
        <path
            d="M191.847 54.9978C191.02 53.9583 190.043 53.1307 188.914 52.5136C187.786 51.8967 186.562 51.4609 185.247 51.2066C183.931 50.9525 182.664 50.9325 181.447 51.1472C176.82 51.963 173.647 54.6096 171.925 59.0873C171.839 59.3065 171.834 59.5269 171.912 59.7485C171.991 59.9698 172.142 60.1393 172.367 60.2566L176.614 62.4502C176.833 62.5369 177.034 62.5642 177.217 62.5319C177.491 62.4836 177.705 62.3201 177.86 62.0417C178.714 60.4791 179.375 59.4604 179.84 58.9858C180.417 58.4292 181.199 58.0638 182.189 57.8894C183.117 57.7257 183.978 57.8251 184.771 58.1869C185.565 58.5492 186.018 59.05 186.13 59.6892C186.256 60.4041 186.169 61.0162 185.866 61.5247C185.563 62.0329 184.999 62.5716 184.173 63.141C183.081 63.8829 182.138 64.9005 181.346 66.1935C180.554 67.4866 180.269 68.7647 180.492 70.0278L180.673 71.055C180.724 71.3444 180.854 71.6156 181.064 71.8689C181.273 72.1225 181.492 72.2289 181.721 72.1886L187.199 71.2226C187.443 71.1796 187.635 71.0244 187.776 70.7555C187.917 70.4882 187.965 70.2246 187.919 69.9663C187.852 69.5859 187.971 69.0386 188.277 68.3261C188.583 67.6131 189.017 67.0261 189.579 66.5659C190.113 66.1266 190.53 65.775 190.829 65.5102C191.128 65.2459 191.507 64.837 191.967 64.2855C192.426 63.7335 192.765 63.2069 192.982 62.7059C193.2 62.2046 193.364 61.5754 193.474 60.8184C193.584 60.0615 193.566 59.2721 193.421 58.4504C193.198 57.1873 192.673 56.0363 191.847 54.9978Z"
            fill="#950EFF" />
    </g>
    <g clip-path="url(#clip3_196_5879)">
        <path
            d="M92.1716 44.9959L90.2976 41.6269L81.6346 46.4457L76.8158 37.7826L73.4468 39.6566L78.2656 48.3196L69.6025 53.1384L71.4765 56.5074L80.1396 51.6886L84.9583 60.3517L88.3273 58.4777L83.5086 49.8146L92.1716 44.9959Z"
            fill="#FF8D7E" />
    </g>
    <defs>
        <clipPath id="clip0_196_5879">
            <rect width="121.463" height="121.463" fill="white"
                transform="translate(42.4087 74.5652)" />
        </clipPath>
        <clipPath id="clip1_196_5879">
            <rect width="121.463" height="121.463" fill="white"
                transform="translate(38.7 70.8564)" />
        </clipPath>
        <clipPath id="clip2_196_5879">
            <rect width="29.6703" height="29.6704" fill="white"
                transform="translate(166.653 53.7557) rotate(-9.99999)" />
        </clipPath>
        <clipPath id="clip3_196_5879">
            <rect width="19.4712" height="19.4712" fill="white"
                transform="translate(74.1943 37.0351) rotate(15.9153)" />
        </clipPath>
    </defs>
</svg>
