<svg width="24" height="24" viewBox="0 0 24 24" fill="none" xmlns="http://www.w3.org/2000/svg">
    <path
        d="M12 1C9.82441 1 7.69767 1.64514 5.88873 2.85383C4.07979 4.06253 2.66989 5.78049 1.83733 7.79048C1.00477 9.80047 0.786929 12.0122 1.21137 14.146C1.6358 16.2798 2.68345 18.2398 4.22183 19.7782C5.76021 21.3165 7.72022 22.3642 9.85401 22.7886C11.9878 23.2131 14.1995 22.9952 16.2095 22.1627C18.2195 21.3301 19.9375 19.9202 21.1462 18.1113C22.3549 16.3023 23 14.1756 23 12C23 10.5555 22.7155 9.12506 22.1627 7.79048C21.6099 6.4559 20.7996 5.24327 19.7782 4.22182C18.7567 3.20038 17.5441 2.39013 16.2095 1.83732C14.8749 1.28452 13.4445 1 12 1ZM16.4836 16.1952C15.8029 16.7897 14.9876 17.2093 14.1082 17.4177C13.2287 17.626 12.3118 17.6168 11.4367 17.3908C10.5617 17.1648 9.75492 16.7288 9.08637 16.1207C8.41782 15.5126 7.90763 14.7506 7.6 13.9008H6.53178C6.33729 13.9008 6.15076 13.8235 6.01324 13.686C5.87571 13.5485 5.79845 13.362 5.79845 13.1675C5.79845 12.973 5.87571 12.7864 6.01324 12.6489C6.15076 12.5114 6.33729 12.4341 6.53178 12.4341H7.28125C7.27049 12.2933 7.25778 12.1467 7.25778 12C7.25778 11.8533 7.26854 11.7067 7.27978 11.5639H6.53178C6.33729 11.5639 6.15076 11.4866 6.01324 11.3491C5.87571 11.2116 5.79845 11.0251 5.79845 10.8306C5.79845 10.6361 5.87571 10.4496 6.01324 10.312C6.15076 10.1745 6.33729 10.0972 6.53178 10.0972H7.6C7.99058 9.02541 8.7009 8.09937 9.6349 7.44438C10.5689 6.78939 11.6815 6.43704 12.8223 6.43498C14.0694 6.4305 15.2811 6.84934 16.2592 7.62298C16.3378 7.68144 16.4038 7.75504 16.4535 7.83944C16.5031 7.92385 16.5354 8.01734 16.5483 8.11441C16.5613 8.21147 16.5546 8.31015 16.5288 8.40461C16.503 8.49907 16.4585 8.58741 16.398 8.66441C16.3375 8.7414 16.2622 8.8055 16.1765 8.85292C16.0908 8.90034 15.9965 8.93012 15.8991 8.9405C15.8018 8.95088 15.7033 8.94165 15.6096 8.91336C15.5158 8.88507 15.4287 8.83829 15.3533 8.77578C14.6328 8.20641 13.7406 7.89825 12.8223 7.90164C12.0751 7.90246 11.3424 8.10742 10.7032 8.49438C10.0641 8.88134 9.54282 9.43558 9.19574 10.0972H12.2469C12.4414 10.0972 12.6279 10.1745 12.7654 10.312C12.903 10.4496 12.9802 10.6361 12.9802 10.8306C12.9802 11.0251 12.903 11.2116 12.7654 11.3491C12.6279 11.4866 12.4414 11.5639 12.2469 11.5639H8.74987C8.73373 11.7087 8.72524 11.8543 8.72445 12C8.72468 12.1444 8.73235 12.2886 8.74743 12.4322H12.2469C12.4414 12.4322 12.6279 12.5094 12.7654 12.647C12.903 12.7845 12.9802 12.971 12.9802 13.1655C12.9802 13.36 12.903 13.5465 12.7654 13.6841C12.6279 13.8216 12.4414 13.8988 12.2469 13.8988H9.19622C9.48269 14.4482 9.89007 14.9253 10.3877 15.2944C10.8853 15.6634 11.4601 15.9148 12.0689 16.0295C12.6777 16.1442 13.3046 16.1193 13.9024 15.9566C14.5002 15.7939 15.0533 15.4977 15.52 15.0903C15.5925 15.0269 15.6769 14.9785 15.7681 14.9478C15.8594 14.917 15.9558 14.9045 16.0519 14.911C16.148 14.9176 16.2418 14.9429 16.3281 14.9857C16.4144 15.0285 16.4914 15.0879 16.5547 15.1604C16.6181 15.233 16.6665 15.3173 16.6972 15.4085C16.728 15.4998 16.7405 15.5962 16.734 15.6923C16.7274 15.7884 16.7021 15.8823 16.6593 15.9685C16.6165 16.0548 16.5561 16.1318 16.4836 16.1952Z"
        fill="#3B69D1" />
</svg>
