<svg width="121" height="120" viewBox="0 0 121 120" fill="none" xmlns="http://www.w3.org/2000/svg">
    <path
        d="M58.9251 84.3871C66.0062 74.9432 79.4495 73.0184 88.8922 80.0985C92.3694 82.7057 94.9404 86.2551 96.3261 90.3613C96.7497 91.6154 97.0546 92.8945 97.2402 94.1933L54.8705 100.257C54.0943 94.8299 55.3846 89.109 58.9251 84.3871Z"
        fill="white" />
    <g clip-path="url(#clip0_1971_16790)">
        <path
            d="M41.2874 69.3707L35.4979 75.1614C35.16 75.4992 34.7173 75.6676 34.2745 75.6676C33.8317 75.6676 33.3889 75.4992 33.0511 75.1614C32.3765 74.4857 32.3765 73.3903 33.0511 72.7146L38.8406 66.9239C39.5163 66.2493 40.6117 66.2493 41.2874 66.9239V66.925C41.962 67.6007 41.9631 68.695 41.2874 69.3707Z"
            fill="#DFE7F4" />
        <path
            d="M41.2874 69.3705L35.4978 75.1612C35.16 75.499 34.7172 75.6674 34.2744 75.6674C33.8317 75.6674 33.3889 75.499 33.051 75.1612L41.2874 66.9248C41.9619 67.6005 41.9631 68.6948 41.2874 69.3705Z"
            fill="#C7CFE1" />
        <path
            d="M73.8075 54.1709C73.8075 65.0697 64.9404 73.9379 54.0405 73.9379C50.0267 73.9379 46.1604 72.7399 42.8615 70.4741C41.8537 69.7822 40.9197 69.0062 40.063 68.1495C39.2074 67.2928 38.4291 66.3576 37.7373 65.3487C35.4715 62.0509 34.2734 58.1847 34.2734 54.1709C34.2734 43.2709 43.1417 34.4038 54.0405 34.4038C59.491 34.4038 64.4331 36.6212 68.0111 40.2014C71.5913 43.7806 73.8075 48.7215 73.8075 54.1709Z"
            fill="#EEF1F8" />
        <path
            d="M73.8075 54.1711C73.8075 65.0699 64.9404 73.9381 54.0405 73.9381C50.0266 73.9381 46.1604 72.7401 42.8615 70.4743C41.8537 69.7825 40.9197 69.0065 40.063 68.1497L68.0111 40.2017C71.5913 43.7808 73.8075 48.7217 73.8075 54.1711Z"
            fill="#EEF1F8" />
        <path
            d="M39.4634 54.172C39.4634 55.1272 40.2378 55.9016 41.193 55.9016C42.1482 55.9016 42.9226 55.1272 42.9226 54.172C42.9226 48.0409 47.9105 43.053 54.0416 43.053C54.9968 43.053 55.7712 42.2786 55.7712 41.3234C55.7712 40.3682 54.9968 39.5938 54.0416 39.5938C46.0031 39.5938 39.4634 46.1335 39.4634 54.172Z"
            fill="#274996" />
        <path
            d="M36.723 66.0436L36.7229 66.0434C34.3162 62.541 33.0437 58.4357 33.0437 54.1698C33.0437 42.5936 42.4629 33.1743 54.0415 33.1743C59.8299 33.1743 65.0788 35.5286 68.8807 39.3316C72.6828 43.1348 75.037 48.3826 75.037 54.1698C75.037 65.7484 65.6177 75.1676 54.0415 75.1676C49.7756 75.1676 45.6703 73.8951 42.1667 71.4884C41.096 70.7525 40.1039 69.9292 39.1944 69.0185L39.1939 69.0181C38.2844 68.1096 37.4588 67.1152 36.723 66.0436ZM40.9336 67.2783C41.7372 68.0831 42.613 68.8119 43.5584 69.4612C46.6516 71.5861 50.2764 72.7084 54.0415 72.7084C64.2629 72.7084 72.5778 64.3923 72.5778 54.1698C72.5778 49.0607 70.4986 44.4255 67.1423 41.0704C67.1423 41.0703 67.1423 41.0703 67.1423 41.0703C67.1422 41.0702 67.1422 41.0702 67.1422 41.0702C63.7882 37.7139 59.153 35.6335 54.0415 35.6335C43.8191 35.6335 35.5029 43.9484 35.5029 54.1698C35.5029 57.9347 36.6252 61.5595 38.75 64.6515C39.399 65.5978 40.1288 66.4758 40.9336 67.2783Z"
            fill="#3B69D1" stroke="#3B69D1" />
        <path
            d="M75.537 54.1697C75.537 66.0244 65.8939 75.6675 54.0415 75.6675C49.6748 75.6675 45.4707 74.3645 41.8835 71.9004C40.7881 71.1475 39.7723 70.3046 38.8406 69.3718L41.2874 66.9249C42.0692 67.7079 42.9213 68.417 43.8414 69.0489C46.8509 71.1163 50.377 72.2083 54.0415 72.2083C63.9867 72.2083 72.0778 64.1161 72.0778 54.1697C72.0778 49.1988 70.0553 44.6892 66.7886 41.4237L69.2343 38.978C73.1259 42.8708 75.537 48.2441 75.537 54.1697Z"
            fill="#274996" />
        <path
            d="M37.5892 77.2522L37.5889 77.2525L23.9908 90.8518C23.9908 90.8518 23.9908 90.8518 23.9908 90.8518C23.5104 91.3322 22.7313 91.3309 22.2522 90.8518L19.8066 88.4061L17.3597 85.9593C16.8813 85.4809 16.8795 84.701 17.3598 84.2208L30.959 70.6215C31.1893 70.3912 31.5015 70.2617 31.8277 70.2617C32.1543 70.2617 32.4676 70.3914 32.6976 70.6215L35.1443 73.0682L35.1444 73.0683L37.5888 75.5139L37.5889 75.5139C38.0695 75.9945 38.0691 76.7731 37.5892 77.2522Z"
            fill="#3B69D1" stroke="#3B69D1" />
        <path
            d="M37.9423 77.6062L24.3442 91.2054C23.6682 91.8815 22.5725 91.8794 21.8985 91.2054L19.4529 88.7598L35.4978 72.7148L37.9423 75.1605C38.618 75.8362 38.618 76.9316 37.9423 77.6062Z"
            fill="#274996" />
    </g>
    <path
        d="M69.6292 53.8557C69.6292 56.5663 67.4318 58.7637 64.7212 58.7637C62.0106 58.7637 59.8132 56.5663 59.8132 53.8557C59.8132 51.1451 62.0106 48.9478 64.7212 48.9478C67.4318 48.9478 69.6292 51.1451 69.6292 53.8557Z"
        fill="#3B69D1" stroke="#3B69D1" />
    <path
        d="M82.2478 53.8557C82.2478 56.5663 80.0505 58.7637 77.3399 58.7637C74.6293 58.7637 72.4319 56.5663 72.4319 53.8557C72.4319 51.1451 74.6293 48.9478 77.3399 48.9478C80.0505 48.9478 82.2478 51.1451 82.2478 53.8557Z"
        fill="#3B69D1" stroke="#3B69D1" />
    <path
        d="M94.8665 53.8557C94.8665 56.5663 92.6691 58.7637 89.9585 58.7637C87.2479 58.7637 85.0505 56.5663 85.0505 53.8557C85.0505 51.1451 87.2479 48.9478 89.9585 48.9478C92.6691 48.9478 94.8665 51.1451 94.8665 53.8557Z"
        fill="#3B69D1" stroke="#3B69D1" />
    <g clip-path="url(#clip1_1971_16790)">
        <path
            d="M88.8472 33.5547L86.1843 34.0243C86.066 34.0451 85.9703 34.1081 85.8972 34.2123C85.824 34.3168 85.7979 34.4281 85.8188 34.5465L86.2883 37.2096C86.3092 37.3279 86.372 37.4237 86.4763 37.4967C86.5807 37.5697 86.692 37.596 86.8104 37.5751L89.4733 37.1056C89.5916 37.0847 89.6876 37.0219 89.7604 36.9177C89.8337 36.8133 89.8599 36.7019 89.839 36.5835L89.3694 33.9204C89.3486 33.802 89.286 33.7064 89.1812 33.6332C89.0772 33.56 88.9655 33.5339 88.8472 33.5547Z"
            fill="white" />
        <path
            d="M90.9371 24.9665C90.5352 24.4613 90.0602 24.059 89.5114 23.7591C88.963 23.4592 88.3684 23.2474 87.729 23.1238C87.0894 23.0003 86.4738 22.9906 85.8819 23.0949C83.6333 23.4914 82.0907 24.7778 81.2541 26.9542C81.2119 27.0607 81.2098 27.1679 81.2478 27.2756C81.2859 27.3832 81.3595 27.4656 81.4687 27.5226L83.533 28.5888C83.6396 28.6309 83.7373 28.6441 83.8261 28.6285C83.9593 28.605 84.0634 28.5255 84.1388 28.3902C84.5539 27.6307 84.8748 27.1356 85.101 26.9049C85.3813 26.6344 85.7617 26.4568 86.2426 26.372C86.6938 26.2924 87.1121 26.3407 87.4979 26.5166C87.8836 26.6927 88.1037 26.9361 88.1585 27.2468C88.2197 27.5943 88.177 27.8918 88.0299 28.1389C87.8828 28.3859 87.6085 28.6478 87.2072 28.9245C86.6761 29.2851 86.2177 29.7797 85.833 30.4082C85.448 31.0367 85.3097 31.6579 85.418 32.2718L85.506 32.7711C85.5308 32.9118 85.5939 33.0436 85.6958 33.1667C85.7977 33.29 85.904 33.3417 86.015 33.3221L88.678 32.8526C88.7963 32.8317 88.8897 32.7563 88.9583 32.6256C89.0267 32.4956 89.05 32.3675 89.0279 32.2419C88.9953 32.0571 89.0533 31.7911 89.2018 31.4447C89.3504 31.0982 89.5613 30.8129 89.8348 30.5892C90.0944 30.3756 90.2967 30.2048 90.442 30.0761C90.5875 29.9476 90.7716 29.7489 90.9951 29.4808C91.2185 29.2125 91.3832 28.9566 91.4888 28.713C91.5946 28.4694 91.6742 28.1636 91.7276 27.7956C91.7812 27.4277 91.7725 27.044 91.7021 26.6446C91.5937 26.0307 91.3386 25.4713 90.9371 24.9665Z"
            fill="white" />
    </g>
    <g clip-path="url(#clip2_1971_16790)">
        <path
            d="M42.4898 20.1052L41.579 18.4677L37.3683 20.8098L35.0261 16.5992L33.3886 17.51L35.7308 21.7207L31.5201 24.0628L32.4309 25.7003L36.6416 23.3582L38.9838 27.5689L40.6213 26.658L38.2791 22.4473L42.4898 20.1052Z"
            fill="white" />
    </g>
    <defs>
        <clipPath id="clip0_1971_16790">
            <rect width="59.0371" height="59.0371" fill="white"
                transform="translate(16.5 32.6743)" />
        </clipPath>
        <clipPath id="clip1_1971_16790">
            <rect width="14.4213" height="14.4213" fill="white"
                transform="translate(78.6917 24.3628) rotate(-10)" />
        </clipPath>
        <clipPath id="clip2_1971_16790">
            <rect width="9.46396" height="9.46396" fill="white"
                transform="translate(33.752 16.2358) rotate(15.9153)" />
        </clipPath>
    </defs>
</svg>
