<svg width="24" height="24" viewBox="0 0 24 24" fill="none" xmlns="http://www.w3.org/2000/svg">
<path fill-rule="evenodd" clip-rule="evenodd" d="M3.587 21.413C3.979 21.8043 4.45 22 5 22H19C19.55 22 20.021 21.8043 20.413 21.413C20.8043 21.021 21 20.55 21 20V6C21 5.45 20.8043 4.97933 20.413 4.588C20.021 4.196 19.55 4 19 4H18V3C18 2.71667 17.904 2.479 17.712 2.287C17.5207 2.09567 17.2833 2 17 2C16.7167 2 16.4793 2.09567 16.288 2.287C16.096 2.479 16 2.71667 16 3V4H8V3C8 2.71667 7.90433 2.479 7.713 2.287C7.521 2.09567 7.28333 2 7 2C6.71667 2 6.479 2.09567 6.287 2.287C6.09567 2.479 6 2.71667 6 3V4H5C4.45 4 3.979 4.196 3.587 4.588C3.19567 4.97933 3 5.45 3 6V20C3 20.55 3.19567 21.021 3.587 21.413ZM9 16.5C8.3 16.5 7.70833 16.2583 7.225 15.775C6.74167 15.2917 6.5 14.7 6.5 14C6.5 13.3 6.74167 12.7083 7.225 12.225C7.70833 11.7417 8.3 11.5 9 11.5C9.7 11.5 10.2917 11.7417 10.775 12.225C11.2583 12.7083 11.5 13.3 11.5 14C11.5 14.7 11.2583 15.2917 10.775 15.775C10.2917 16.2583 9.7 16.5 9 16.5Z" fill="#3B69D1"/>
</svg>
