<svg width="24" height="24" viewBox="0 0 24 24" fill="none" xmlns="http://www.w3.org/2000/svg">
    <path
        d="M18.939 9.7013C18.898 9.63688 18.8387 9.58329 18.7669 9.54601C18.6952 9.50873 18.6136 9.48908 18.5306 9.48908H12.3816L13.4125 2.46492C13.4236 2.37092 13.3989 2.27633 13.3423 2.19638C13.2858 2.11643 13.2007 2.05579 13.1008 2.0242C13.0009 1.99261 12.892 1.99193 12.7916 2.02226C12.6912 2.05258 12.6051 2.11215 12.5473 2.19138L5.06953 13.8743C5.0258 13.9377 5.00183 14.0104 5.0001 14.0848C4.99837 14.1593 5.01893 14.2328 5.05967 14.2977C5.1004 14.3627 5.15984 14.4169 5.23185 14.4545C5.30386 14.4922 5.38584 14.5121 5.46933 14.5121H11.5264L10.7094 21.5468C10.7014 21.6405 10.7288 21.7339 10.7871 21.8121C10.8455 21.8904 10.9315 21.9489 11.0315 21.9785C11.1315 22.0082 11.2397 22.0071 11.3389 21.9755C11.4381 21.944 11.5227 21.8837 11.5791 21.8044L18.9333 10.1227C18.976 10.0592 18.999 9.98672 19 9.91269C19.001 9.83866 18.9799 9.76572 18.939 9.7013Z"
        fill="#3B69D1" />
</svg>
