<svg width="18" height="18" viewBox="0 0 18 18" fill="none" xmlns="http://www.w3.org/2000/svg">
    <path
        d="M9 12.5C10.1478 12.5 11.1236 13.2367 11.4802 14.2631L11.5229 14.2559L11.625 14.25H16.875C17.3582 14.25 17.75 14.6418 17.75 15.125C17.75 15.5737 17.4122 15.9436 16.9771 15.9941L16.875 16H11.625C11.5755 16 11.527 15.9959 11.4797 15.988C11.1236 17.0133 10.1478 17.75 9 17.75C7.85217 17.75 6.87642 17.0133 6.51978 15.9869L6.47706 15.9941L6.375 16H1.125C0.641751 16 0.25 15.6082 0.25 15.125C0.25 14.6763 0.58777 14.3064 1.02294 14.2559L1.125 14.25H6.375C6.42449 14.25 6.47302 14.2541 6.52026 14.262C6.87643 13.2367 7.85217 12.5 9 12.5ZM9 14.25C8.51675 14.25 8.125 14.6418 8.125 15.125C8.125 15.6082 8.51675 16 9 16C9.48325 16 9.875 15.6082 9.875 15.125C9.875 14.6418 9.48325 14.25 9 14.25ZM2.875 6.375C4.02283 6.375 4.99858 7.11171 5.35522 8.13808L5.39794 8.13089L5.5 8.125H16.875C17.3582 8.125 17.75 8.51675 17.75 9C17.75 9.44873 17.4122 9.81857 16.9771 9.86911L16.875 9.875H5.5C5.45051 9.875 5.40198 9.87089 5.35474 9.863C4.99857 10.8883 4.02283 11.625 2.875 11.625C1.42525 11.625 0.25 10.4497 0.25 9C0.25 7.55025 1.42525 6.375 2.875 6.375ZM2.875 8.125C2.39175 8.125 2 8.51675 2 9C2 9.48325 2.39175 9.875 2.875 9.875C3.35825 9.875 3.75 9.48325 3.75 9C3.75 8.51675 3.35825 8.125 2.875 8.125ZM12.5 0.25C13.6478 0.25 14.6236 0.986712 14.9802 2.01308L15.0229 2.00589L15.125 2H16.875C17.3582 2 17.75 2.39175 17.75 2.875C17.75 3.32373 17.4122 3.69357 16.9771 3.74411L16.875 3.75H15.125C15.0755 3.75 15.027 3.74589 14.9797 3.738C14.6236 4.76329 13.6478 5.5 12.5 5.5C11.3522 5.5 10.3764 4.76329 10.0198 3.73692L9.97706 3.74411L9.875 3.75H1.125C0.641751 3.75 0.25 3.35825 0.25 2.875C0.25 2.42627 0.58777 2.05643 1.02294 2.00589L1.125 2H9.875C9.92449 2 9.97302 2.00411 10.0203 2.012C10.3764 0.986713 11.3522 0.25 12.5 0.25ZM12.5 2C12.0168 2 11.625 2.39175 11.625 2.875C11.625 3.35825 12.0168 3.75 12.5 3.75C12.9832 3.75 13.375 3.35825 13.375 2.875C13.375 2.39175 12.9832 2 12.5 2Z"
        fill="white" />
</svg>
