<svg width="22" height="18" viewBox="0 0 22 18" fill="none" xmlns="http://www.w3.org/2000/svg">
    <path
        d="M18.6602 0.99C16.0202 -0.81 12.7602 0.0300002 11.0002 2.09C9.24021 0.0300002 5.98021 -0.82 3.34021 0.99C1.94021 1.95 1.06021 3.57 1.00021 5.28C0.860213 9.16 4.30021 12.27 9.55021 17.04L9.65021 17.13C10.4102 17.82 11.5802 17.82 12.3402 17.12L12.4502 17.02C17.7002 12.26 21.1302 9.15 21.0002 5.27C20.9402 3.57 20.0602 1.95 18.6602 0.99ZM11.1002 15.55L11.0002 15.65L10.9002 15.55C6.14021 11.24 3.00021 8.39 3.00021 5.5C3.00021 3.5 4.50021 2 6.50021 2C8.04021 2 9.54021 2.99 10.0702 4.36H11.9402C12.4602 2.99 13.9602 2 15.5002 2C17.5002 2 19.0002 3.5 19.0002 5.5C19.0002 8.39 15.8602 11.24 11.1002 15.55Z"
        fill="#333866" />
</svg>
