<svg
    width="22"
    height="18"
    viewBox="0 0 22 18"
    fill="none"
    xmlns="http://www.w3.org/2000/svg">
    <path
        d="M12.0152 16.7585L12.0136 16.76C11.4446 17.2766 10.5673 17.2764 9.99841 16.7524L9.996 16.7502L9.886 16.6502L9.88512 16.6494C7.24965 14.2649 5.11371 12.3289 3.64632 10.51C2.18621 8.70007 1.44018 7.06807 1.49937 5.29737C1.55408 3.75116 2.34727 2.27073 3.62106 1.40347L3.62133 1.40328C6.01936 -0.23174 8.99957 0.518883 10.6195 2.41495L10.9997 2.8599L11.3798 2.41495C13.0008 0.517668 15.9804 -0.240491 18.3769 1.40255L18.3783 1.40347C19.6522 2.27081 20.4454 3.75143 20.5 5.2978L20.5 5.2982C20.5639 7.06817 19.8184 8.69976 18.3567 10.5126C16.8939 12.3267 14.767 14.2591 12.1462 16.6404L12.1152 16.6685L12.1134 16.6701L12.0152 16.7585Z"
        fill="#FF8D7E"
        stroke="#FF8D7E" />
</svg>
