<svg width="18" height="18" viewBox="0 0 18 18" fill="none" xmlns="http://www.w3.org/2000/svg">
    <path
        d="M8.99984 0.666748C4.39984 0.666748 0.666504 4.40008 0.666504 9.00008C0.666504 13.6001 4.39984 17.3334 8.99984 17.3334C13.5998 17.3334 17.3332 13.6001 17.3332 9.00008C17.3332 4.40008 13.5998 0.666748 8.99984 0.666748ZM8.99984 9.83342C8.5415 9.83342 8.1665 9.45842 8.1665 9.00008V5.66675C8.1665 5.20842 8.5415 4.83342 8.99984 4.83342C9.45817 4.83342 9.83317 5.20842 9.83317 5.66675V9.00008C9.83317 9.45842 9.45817 9.83342 8.99984 9.83342ZM9.83317 13.1667H8.1665V11.5001H9.83317V13.1667Z"
        fill="#767BA8" />
</svg>
