<svg width="17" height="17" viewBox="0 0 17 17" fill="none" xmlns="http://www.w3.org/2000/svg">
    <path
        d="M8.33333 0C3.73333 0 0 3.73333 0 8.33333C0 12.9333 3.73333 16.6667 8.33333 16.6667C12.9333 16.6667 16.6667 12.9333 16.6667 8.33333C16.6667 3.73333 12.9333 0 8.33333 0ZM8.33333 12.5C7.875 12.5 7.5 12.125 7.5 11.6667V8.33333C7.5 7.875 7.875 7.5 8.33333 7.5C8.79167 7.5 9.16667 7.875 9.16667 8.33333V11.6667C9.16667 12.125 8.79167 12.5 8.33333 12.5ZM9.16667 5.83333H7.5V4.16667H9.16667V5.83333Z"
        fill="#767BA8" />
</svg>
