<svg width="195" height="89" viewBox="0 0 195 89" fill="none" xmlns="http://www.w3.org/2000/svg">
    <path
        d="M16.5941 51.0553C20.8294 51.0553 22.9818 53.5548 23.1207 58.6928H9.37325C9.85927 53.2771 12.2894 51.0553 16.5941 51.0553ZM16.733 78.689C26.1062 78.689 29.925 74.3843 31.383 68.6909L23.4678 66.5385C22.6347 69.038 21.246 71.121 16.8024 71.121C12.2894 71.121 9.85927 68.7603 9.30382 63.4835H31.5913C31.7302 61.7477 31.7996 60.4285 31.7996 59.0399C31.7996 49.9444 27.0089 43.9733 16.8719 43.9733C6.1794 43.9733 0 50.6387 0 62.0255C0 73.2039 6.80429 78.689 16.733 78.689Z"
        fill="#333866" />
    <path
        d="M46.0862 59.4565C46.0862 55.36 48.6552 52.5134 52.6822 52.5134C56.0844 52.5134 57.6813 54.8046 57.6813 58.1373V77.7864H67.124V59.4565C67.124 55.36 69.6235 52.5134 73.6505 52.5134C77.1221 52.5134 78.6496 54.8046 78.6496 58.1373V77.7864H88.1617V55.4989C88.1617 48.3475 84.8984 43.9733 78.4413 43.9733C73.0257 43.9733 69.2764 47.3754 67.4711 53.8325H66.7074C66.2908 47.6531 63.4441 43.9733 57.6119 43.9733C52.4045 43.9733 48.4469 47.306 46.5723 53.6937H45.8779V44.8759H36.6436V77.7864H46.0862V59.4565Z"
        fill="#333866" />
    <path
        d="M110.377 70.4267C106.35 70.4267 103.712 67.3717 103.712 62.7892V60.2202C103.712 55.4989 106.281 52.5134 110.447 52.5134C114.96 52.5134 116.973 55.36 116.973 61.4006C116.973 67.4411 114.96 70.4267 110.377 70.4267ZM126.277 61.4006C126.277 50.0832 122.18 43.9733 114.96 43.9733C109.683 43.9733 106.072 47.4448 104.337 53.2077H103.712V44.8759H94.269V88.34H103.712V69.1769H104.267C105.933 74.9397 109.474 78.7585 114.96 78.7585C122.042 78.7585 126.277 72.7179 126.277 61.4006Z"
        fill="#333866" />
    <path d="M140.592 33.2114H131.15V77.7864H140.592V33.2114Z" fill="#333866" />
    <path
        d="M162.486 78.7585C172.97 78.7585 179.358 72.1625 179.358 61.3311C179.358 50.361 172.762 43.9733 162.486 43.9733C152.002 43.9733 145.475 50.361 145.475 61.3311C145.475 72.1625 151.794 78.7585 162.486 78.7585ZM162.417 51.8885C167.624 51.8885 169.915 55.2906 169.915 61.2617C169.915 67.2328 167.693 70.7044 162.417 70.7044C157.07 70.7044 154.918 67.2328 154.918 61.2617C154.918 55.2906 157.209 51.8885 162.417 51.8885Z"
        fill="#333866" />
    <path d="M194.014 40.224V33.4197H184.155V40.224H194.014ZM193.806 77.7864V44.8759H184.363V77.7864H193.806Z"
        fill="#333866" />
    <path
        d="M48.9489 26.4534C44.9219 26.4534 42.2835 23.3984 42.2835 18.8159V16.247C42.2835 11.5256 44.8525 8.54007 49.0184 8.54007C53.5314 8.54007 55.5449 11.3868 55.5449 17.4273C55.5449 23.4678 53.5314 26.4534 48.9489 26.4534ZM64.8487 17.4273C64.8487 6.10997 60.7523 0 53.5314 0C48.2546 0 44.6442 3.47157 42.9084 9.23439H42.2835V0.902608H32.8408V44.3667H42.2835V25.2036H42.839C44.5053 30.9664 48.0463 34.7852 53.5314 34.7852C60.6134 34.7852 64.8487 28.7446 64.8487 17.4273Z"
        fill="#333866" />
    <path
        d="M81.5248 27.2866C77.9143 27.2866 76.734 25.6202 76.734 23.5373C76.734 21.246 78.6781 19.8574 81.7331 19.8574H88.5374V21.1766C88.5374 24.7176 85.8295 27.2866 81.5248 27.2866ZM89.0234 33.8131H97.9106V12.9143C97.9106 4.65191 93.8141 0.0694309 83.816 0.0694309C74.7205 0.0694309 70.138 4.30475 69.0271 10.2759L77.9143 12.2894C78.5392 9.09553 80.3444 7.56803 83.4689 7.56803C87.0793 7.56803 88.5374 9.51211 88.5374 12.9143V15.2055H79.9278C71.2489 15.2055 67.7773 19.302 67.7773 25.2036C67.7773 31.6608 71.8738 34.5075 77.4283 34.5075C83.0523 34.5075 86.5238 31.1747 88.1902 25.9674H89.0234V33.8131Z"
        fill="#333866" />
    <path
        d="M117.624 34.7852C127.553 34.7852 131.788 30.897 131.788 24.5093C131.788 19.3714 129.289 15.9692 119.013 13.8169C113.111 12.6365 112.209 11.3173 112.209 9.51212C112.209 7.56803 113.736 6.52656 116.861 6.52656C120.263 6.52656 121.79 7.84576 122.554 11.2479L130.955 9.51212C129.775 3.7493 126.65 0 117.069 0C107.765 0 103.252 3.7493 103.252 10.0676C103.252 15.6915 106.307 18.6771 115.333 20.6212C121.374 21.8015 122.693 22.9124 122.693 24.9259C122.623 27.0783 121.026 28.1198 117.833 28.1198C113.736 28.1198 111.514 26.2451 110.681 22.6347L102.21 24.3705C103.113 30.3416 106.515 34.7852 117.624 34.7852Z"
        fill="#333866" />
    <path
        d="M149.823 34.7852C159.752 34.7852 163.987 30.897 163.987 24.5093C163.987 19.3714 161.488 15.9692 151.212 13.8169C145.31 12.6365 144.407 11.3173 144.407 9.51212C144.407 7.56803 145.935 6.52656 149.059 6.52656C152.462 6.52656 153.989 7.84576 154.753 11.2479L163.154 9.51212C161.974 3.7493 158.849 0 149.268 0C139.964 0 135.451 3.7493 135.451 10.0676C135.451 15.6915 138.506 18.6771 147.532 20.6212C153.572 21.8015 154.892 22.9124 154.892 24.9259C154.822 27.0783 153.225 28.1198 150.031 28.1198C145.935 28.1198 143.713 26.2451 142.88 22.6347L134.409 24.3705C135.312 30.3416 138.714 34.7852 149.823 34.7852Z"
        fill="#333866" />
</svg>
