<svg width="25" height="24" viewBox="0 0 25 24" fill="none" xmlns="http://www.w3.org/2000/svg">
<path d="M12.4999 1.84508C6.89147 1.84508 2.34557 6.39188 2.34557 11.9995C2.34557 17.607 6.89147 22.1538 12.4999 22.1538C18.1075 22.1538 22.6543 17.607 22.6543 11.9995C22.6543 6.39188 18.1075 1.84508 12.4999 1.84508ZM12.4999 20.4611C7.82621 20.4611 4.03826 16.6724 4.03826 11.9995C4.03826 7.32654 7.8263 3.53778 12.4999 3.53778C17.1732 3.53778 20.9616 7.32654 20.9616 11.9995C20.9616 16.6724 17.1729 20.4611 12.4999 20.4611V20.4611Z" fill="#767BA8"/>
<path d="M14.1925 12C14.1925 12.9348 13.4348 13.6925 12.5 13.6925C11.5645 13.6925 10.8075 12.9348 10.8075 12C10.8075 11.066 11.5645 10.3074 12.5 10.3074C13.4348 10.3074 14.1925 11.066 14.1925 12Z" fill="#767BA8"/>
<path d="M9.11575 12C9.11575 12.9348 8.35803 13.6925 7.42323 13.6925C6.48771 13.6925 5.73071 12.9348 5.73071 12C5.73071 11.066 6.48771 10.3074 7.42323 10.3074C8.35803 10.3074 9.11575 11.066 9.11575 12Z" fill="#767BA8"/>
<path d="M19.2702 12C19.2702 12.9348 18.5125 13.6925 17.5777 13.6925C16.6421 13.6925 15.8851 12.9348 15.8851 12C15.8851 11.066 16.6421 10.3074 17.5777 10.3074C18.5125 10.3074 19.2702 11.066 19.2702 12Z" fill="#767BA8"/>
</svg>
