<svg width="20" height="20" viewBox="0 0 20 20" fill="none" xmlns="http://www.w3.org/2000/svg">
    <path d="M19.7447 9.35717L17.9245 7.53897L10.6435 0.266172C10.4729 0.0957422 10.2414 0 10.0001 0C9.75877 0 9.52732 0.0957422 9.35664 0.266172L2.07571 7.53897L0.25548 9.35717C0.0896953 9.52863 -0.00203922 9.75827 3.44048e-05 9.99663C0.00210803 10.235 0.0978239 10.463 0.266567 10.6316C0.43531 10.8001 0.663578 10.8957 0.902208 10.8978C1.14084 10.8999 1.37073 10.8082 1.54238 10.6426L1.80905 10.3763V19.0909C1.80905 19.332 1.90494 19.5632 2.07562 19.7337C2.2463 19.9042 2.47779 20 2.71917 20H17.281C17.5224 20 17.7539 19.9042 17.9246 19.7337C18.0953 19.5632 18.1911 19.332 18.1911 19.0909V10.3763L18.4578 10.6426C18.6295 10.8082 18.8594 10.8999 19.098 10.8978C19.3366 10.8957 19.5649 10.8001 19.7336 10.6316C19.9024 10.463 19.9981 10.235 20.0002 9.99663C20.0022 9.75827 19.9105 9.52863 19.7447 9.35717ZM16.3709 18.1818H3.62928V8.55807L10.0001 2.19437L16.3709 8.55807V18.1818Z"
            fill="#333866" />
</svg>
