<svg width="15" height="13" viewBox="0 0 15 13" fill="none" xmlns="http://www.w3.org/2000/svg">
    <path
        d="M12.8335 0.166748H2.16683C1.4335 0.166748 0.833496 0.766748 0.833496 1.50008V9.50008C0.833496 10.2334 1.4335 10.8334 2.16683 10.8334H8.16683V9.50008H2.16683V2.83341L6.7935 5.72675C7.22683 6.00008 7.7735 6.00008 8.20683 5.72675L12.8335 2.83341V6.16675H14.1668V1.50008C14.1668 0.766748 13.5668 0.166748 12.8335 0.166748ZM7.50016 4.83341L2.16683 1.50008H12.8335L7.50016 4.83341ZM12.1668 8.30675C12.1668 8.00675 12.5268 7.86008 12.7335 8.07341L14.5935 9.93341C14.7268 10.0667 14.7268 10.2734 14.5935 10.4067L12.7335 12.2667C12.5268 12.4734 12.1668 12.3267 12.1668 12.0267V10.8334H10.1668C9.80016 10.8334 9.50016 10.5334 9.50016 10.1667C9.50016 9.80008 9.80016 9.50008 10.1668 9.50008H12.1668V8.30675Z"
        fill="#333866" />
</svg>
