<svg width="24" height="24" viewBox="0 0 24 24" fill="none" xmlns="http://www.w3.org/2000/svg">
<path d="M3 8.99984C2.71667 8.99984 2.47933 8.90384 2.288 8.71184C2.096 8.52051 2 8.28318 2 7.99984C2 7.71651 2.096 7.47884 2.288 7.28684C2.47933 7.09551 2.71667 6.99984 3 6.99984L20 6.99976C20.2833 6.99976 20.521 7.09542 20.713 7.28676C20.9043 7.47876 21 7.71642 21 7.99976C21 8.28309 20.9043 8.52042 20.713 8.71176C20.521 8.90376 20.2833 8.99976 20 8.99976L3 8.99984ZM3 16.9998C2.71667 16.9998 2.47933 16.9038 2.288 16.7118C2.096 16.5205 2 16.2832 2 15.9998C2 15.7165 2.096 15.4788 2.288 15.2868C2.47933 15.0955 2.71667 14.9998 3 14.9998H20C20.2833 14.9998 20.521 15.0955 20.713 15.2868C20.9043 15.4788 21 15.7165 21 15.9998C21 16.2832 20.9043 16.5205 20.713 16.7118C20.521 16.9038 20.2833 16.9998 20 16.9998H3Z" fill="#646464"/>
</svg>
