<svg width="20" height="16" viewBox="0 0 20 16" fill="none" xmlns="http://www.w3.org/2000/svg">
    <path fill-rule="evenodd" clip-rule="evenodd"
            d="M5.19704 1.24927C5.47277 0.940175 5.44573 0.466072 5.13663 0.190335C4.82753 -0.085402 4.35343 -0.0583572 4.07769 0.250741L2.27298 2.27381L1.2724 1.3025C0.975196 1.01398 0.500374 1.02103 0.211859 1.31824C-0.0766554 1.61544 -0.0696089 2.09026 0.227598 2.37878L1.78949 3.89499C1.93614 4.03735 2.13455 4.1137 2.33882 4.10636C2.54308 4.09902 2.7355 4.00864 2.87156 3.85611L5.19704 1.24927ZM8.23301 1.2979C7.78126 1.2979 7.41504 1.66412 7.41504 2.11587C7.41504 2.56763 7.78126 2.93384 8.23301 2.93384H19.179C19.6308 2.93384 19.997 2.56763 19.997 2.11587C19.997 1.66412 19.6308 1.2979 19.179 1.2979H8.23301ZM8.23301 6.74777C7.78126 6.74777 7.41504 7.11399 7.41504 7.56575C7.41504 8.0175 7.78126 8.38372 8.23301 8.38372H19.179C19.6308 8.38372 19.997 8.0175 19.997 7.56575C19.997 7.11399 19.6308 6.74777 19.179 6.74777H8.23301ZM7.41504 13.0205C7.41504 12.5687 7.78126 12.2025 8.23301 12.2025H19.179C19.6308 12.2025 19.997 12.5687 19.997 13.0205C19.997 13.4722 19.6308 13.8384 19.179 13.8384H8.23301C7.78126 13.8384 7.41504 13.4722 7.41504 13.0205ZM5.13663 5.64311C5.44573 5.91885 5.47277 6.39295 5.19704 6.70205L2.87156 9.30889C2.7355 9.46141 2.54308 9.5518 2.33882 9.55914C2.13455 9.56648 1.93614 9.49013 1.78949 9.34776L0.227598 7.83156C-0.0696089 7.54304 -0.0766554 7.06822 0.211859 6.77101C0.500374 6.47381 0.975196 6.46676 1.2724 6.75527L2.27298 7.72659L4.07769 5.70352C4.35343 5.39442 4.82753 5.36738 5.13663 5.64311ZM5.19704 12.1558C5.47277 11.8467 5.44573 11.3726 5.13663 11.0969C4.82753 10.8211 4.35343 10.8482 4.07769 11.1573L2.27298 13.1803L1.2724 12.209C0.975196 11.9205 0.500374 11.9276 0.211859 12.2248C-0.0766554 12.522 -0.0696089 12.9968 0.227598 13.2853L1.78949 14.8015C1.93614 14.9439 2.13455 15.0202 2.33882 15.0129C2.54308 15.0055 2.7355 14.9152 2.87156 14.7626L5.19704 12.1558Z"
            fill="#333866" />
</svg>
