<svg width="366" height="366" viewBox="0 0 366 366" fill="none" xmlns="http://www.w3.org/2000/svg">
<path d="M133.385 17.4875L136.818 23.7607L143.099 27.2011L136.818 30.6342L133.385 36.9074L129.952 30.6342L123.671 27.2011L129.952 23.7607L133.385 17.4875Z" fill="#F5F5F5"/>
<path d="M276.601 187.59L279.177 192.304L283.884 194.873L279.177 197.45L276.601 202.164L274.024 197.45L269.317 194.873L274.024 192.304L276.601 187.59Z" fill="#EBEBEB"/>
<path d="M283.884 164.341L285.048 166.464L287.171 167.628L285.048 168.792L283.884 170.915L282.728 168.792L280.598 167.628L282.728 166.464L283.884 164.341Z" fill="#E0E0E0"/>
<path d="M108.856 19.8445L110.02 21.9746L112.142 23.1312L110.02 24.2951L108.856 26.4179L107.699 24.2951L105.569 23.1312L107.699 21.9746L108.856 19.8445Z" fill="#E0E0E0"/>
<path d="M80.0717 249.104C81.1644 248.097 81.9382 246.792 82.2978 245.351C82.6574 243.909 82.587 242.394 82.0952 240.992C80.7962 237.004 76.6562 234.811 72.9277 236.056C69.1991 237.302 67.2625 241.543 68.5963 245.52C69.05 246.947 69.9169 248.208 71.0873 249.142C72.2577 250.076 73.679 250.643 75.1713 250.769C65.3283 255.861 69.6268 266.979 69.6268 266.979L94.1907 258.747C94.1907 258.747 90.8862 247.159 80.0717 249.104Z" fill="#E0E0E0"/>
<path d="M299.125 295.684C298.942 294.745 298.432 293.902 297.685 293.304C296.938 292.707 296.003 292.394 295.047 292.422C294.09 292.45 293.175 292.817 292.465 293.458C291.754 294.098 291.295 294.97 291.168 295.918C291.035 294.972 290.57 294.103 289.856 293.467C289.142 292.832 288.226 292.47 287.27 292.447C286.314 292.424 285.382 292.742 284.638 293.343C283.895 293.943 283.389 294.789 283.211 295.728C283.019 297.116 283.371 298.524 284.192 299.659C285.005 300.778 285.959 301.787 287.032 302.66C288.496 303.956 289.821 305.163 291.27 306.452C292.734 305.149 293.927 303.926 295.362 302.623C296.43 301.741 297.378 300.722 298.18 299.593C298.981 298.458 299.319 297.06 299.125 295.684Z" fill="#EBEBEB"/>
<path d="M315.997 141.386L318.771 140.837L323.163 131.189L322.065 125.648C322.065 125.648 326.304 124.535 327.241 131.892C328.178 139.248 328.353 137.294 328.353 137.294C328.353 137.294 337.467 135.522 338.382 136.159C339.048 136.628 341.09 145.631 342.159 150.521C342.455 151.693 342.349 152.931 341.86 154.036C341.37 155.141 340.524 156.05 339.458 156.619C339.154 156.768 338.831 156.877 338.499 156.941C336.23 157.395 324.254 157.848 324.254 157.848L319.459 158.8L315.997 141.386Z" fill="#E0E0E0"/>
<path d="M307.747 141.437L313.215 160.088L317.973 159.144L314.284 140.544L307.747 141.437Z" fill="#E0E0E0"/>
<path d="M344.384 343.542C344.384 343.652 271.792 343.733 182.268 343.733C92.7444 343.733 20.13 343.652 20.13 343.542C20.13 343.432 92.7078 343.352 182.268 343.352C271.828 343.352 344.384 343.44 344.384 343.542Z" fill="#263238"/>
<path d="M240.294 344.077L139.358 344.04C133.534 344.04 127.948 341.726 123.83 337.608C119.712 333.49 117.398 327.904 117.398 322.08L117.442 69.0422C117.442 66.1547 118.012 63.2955 119.118 60.6284C120.224 57.9612 121.846 55.5384 123.89 53.4986C125.933 51.4589 128.359 49.8422 131.029 48.7412C133.698 47.6402 136.559 47.0765 139.446 47.0822L240.374 47.1408C246.198 47.1408 251.784 49.4544 255.902 53.5727C260.021 57.691 262.334 63.2766 262.334 69.1008L262.29 322.08C262.295 324.97 261.729 327.832 260.626 330.503C259.522 333.174 257.902 335.601 255.858 337.645C253.815 339.688 251.388 341.308 248.717 342.412C246.046 343.516 243.184 344.081 240.294 344.077Z" fill="#263238"/>
<path d="M240.264 56.0126H220.691C219.406 56.0434 218.186 56.5808 217.296 57.5078C216.406 58.4348 215.918 59.6761 215.94 60.961V64.5112C215.955 65.1491 215.843 65.7837 215.612 66.3786C215.381 66.9735 215.035 67.5169 214.594 67.9779C214.153 68.4389 213.625 68.8083 213.041 69.0651C212.456 69.3218 211.827 69.4608 211.189 69.4741H173.045C172.407 69.4599 171.777 69.32 171.193 69.0624C170.609 68.8049 170.081 68.4348 169.64 67.9732C169.199 67.5117 168.853 66.9677 168.622 66.3724C168.391 65.7771 168.28 65.1422 168.294 64.5038V60.9317C168.32 59.6436 167.834 58.3978 166.944 57.4665C166.054 56.5351 164.831 55.994 163.544 55.9614H156.648H139.527C137.505 55.9566 135.502 56.3506 133.633 57.121C131.764 57.8914 130.065 59.0229 128.633 60.4508C127.202 61.8787 126.066 63.5749 125.292 65.4423C124.517 67.3097 124.118 69.3116 124.118 71.3334L124.067 318.318C124.067 322.394 125.686 326.304 128.569 329.187C131.452 332.07 135.362 333.69 139.439 333.69L240.177 333.748C242.195 333.748 244.194 333.351 246.059 332.578C247.924 331.806 249.619 330.673 251.046 329.246C252.474 327.818 253.606 326.124 254.378 324.259C255.151 322.394 255.549 320.395 255.549 318.376L255.6 71.3846C255.6 67.3141 253.985 63.4097 251.11 60.5279C248.236 57.6462 244.335 56.0223 240.264 56.0126Z" fill="white"/>
<path d="M241.736 76.0768C241.736 76.1426 239.188 76.2158 236.055 76.2378C232.922 76.2598 230.368 76.2378 230.368 76.1719C230.368 76.106 232.908 76.0255 236.048 76.0036C239.188 75.9816 241.736 76.0109 241.736 76.0768Z" fill="#263238"/>
<path d="M241.758 78.9828C241.758 79.0487 239.218 79.1219 236.077 79.1512C232.937 79.1804 230.39 79.1512 230.39 79.078C230.39 79.0048 232.937 78.9389 236.077 78.9096C239.218 78.8803 241.758 78.9169 241.758 78.9828Z" fill="#263238"/>
<path d="M241.787 81.8888C241.787 81.9547 239.24 82.0352 236.099 82.0572C232.959 82.0792 230.419 82.0572 230.412 81.984C230.404 81.9108 232.959 81.8449 236.099 81.8156C239.24 81.7864 241.787 81.823 241.787 81.8888Z" fill="#263238"/>
<path d="M134.688 84.729H134.988H135.815L138.875 84.6558L138.787 84.7363C138.787 84.0629 138.787 83.3236 138.751 82.5403C138.751 82.1304 138.751 81.7424 138.751 81.2666C138.799 81.0207 138.924 80.7966 139.108 80.6268C139.293 80.457 139.526 80.3504 139.775 80.3224C140.273 80.3224 140.705 80.3224 141.239 80.3224C141.519 80.3676 141.774 80.511 141.958 80.727C142.142 80.943 142.242 81.2173 142.242 81.5009C142.242 82.5403 142.242 83.6164 142.279 84.7363L142.14 84.5972H145.997L145.851 84.7436C145.851 83.1918 145.851 81.5814 145.807 79.9344C145.807 79.5245 145.807 79.1219 145.807 78.712C145.79 78.5298 145.733 78.3536 145.639 78.1965C145.546 78.0395 145.418 77.9054 145.265 77.8043L143.582 76.1353L141.949 74.5322L141.166 73.7563C140.895 73.4928 140.683 73.222 140.368 73.1561C140.217 73.1164 140.06 73.1109 139.906 73.14C139.753 73.1691 139.608 73.2322 139.483 73.3244C139.248 73.5221 138.999 73.8002 138.751 74.0564L137.36 75.4546C136.489 76.3549 135.581 77.1821 134.922 77.9653C134.727 78.4269 134.661 78.9331 134.732 79.4293C134.732 79.9051 134.732 80.359 134.732 80.7835C134.732 81.618 134.732 82.35 134.732 82.9795C134.732 83.609 134.732 83.997 134.732 84.3776C134.742 84.5458 134.742 84.7145 134.732 84.8827C134.723 84.7291 134.723 84.5752 134.732 84.4216C134.732 84.0482 134.732 83.5871 134.732 83.0381C134.732 82.4891 134.732 81.6692 134.681 80.8421C134.681 80.4029 134.681 79.9417 134.681 79.4513C134.681 79.2024 134.681 78.9535 134.681 78.7193C134.679 78.4368 134.752 78.159 134.893 77.9141C135.625 77.043 136.459 76.2671 137.338 75.3374L138.714 73.9247C138.963 73.6831 139.161 73.4416 139.446 73.1927C139.603 73.0727 139.786 72.99 139.98 72.9507C140.174 72.9114 140.374 72.9165 140.566 72.9658C140.93 73.0996 141.252 73.3298 141.496 73.6319L142.286 74.4078L143.919 76.0109L145.609 77.6652C145.768 77.8074 145.912 77.9642 146.041 78.1337C146.168 78.328 146.239 78.5533 146.246 78.7852C146.246 79.1951 146.246 79.605 146.246 80.0149C146.246 81.6619 146.246 83.2723 146.283 84.8242V84.9706H146.136H142.279H142.008V84.8315C142.008 83.7115 142.008 82.6355 142.008 81.596C142.013 81.3727 141.937 81.1551 141.795 80.983C141.652 80.811 141.452 80.696 141.232 80.6591C140.786 80.6591 140.259 80.6591 139.827 80.6591C139.629 80.6788 139.443 80.7601 139.295 80.8915C139.146 81.0229 139.043 81.1977 138.999 81.3911C138.999 81.779 138.999 82.2256 138.999 82.6208C138.999 83.4187 138.999 84.1654 138.999 84.8168V84.9047H138.912H135.801H134.988C134.882 84.8567 134.782 84.7978 134.688 84.729Z" fill="#263238"/>
<path d="M201.3 277.728C200.949 277.783 200.594 277.808 200.239 277.801L197.355 277.86C194.924 277.896 191.557 277.918 187.839 277.918C184.12 277.918 180.753 277.918 178.323 277.86L175.438 277.801C175.083 277.807 174.728 277.783 174.377 277.728C174.728 277.669 175.083 277.644 175.438 277.655L178.323 277.589C180.753 277.589 184.12 277.538 187.839 277.538C191.557 277.538 194.917 277.538 197.355 277.589L200.239 277.655C200.594 277.644 200.95 277.668 201.3 277.728Z" fill="#455A64"/>
<path d="M243.588 284.345C243.588 284.455 228.091 284.536 208.979 284.536C189.866 284.536 174.37 284.455 174.37 284.345C174.37 284.236 189.866 284.155 208.979 284.155C228.091 284.155 243.588 284.243 243.588 284.345Z" fill="#455A64"/>
<path d="M221.957 290.604C221.957 290.714 211.306 290.794 198.167 290.794C185.028 290.794 174.37 290.714 174.37 290.604C174.37 290.494 185.02 290.414 198.167 290.414C211.314 290.414 221.957 290.472 221.957 290.604Z" fill="#455A64"/>
<path d="M244.957 302.704L242.805 300.545L240.755 302.587V296.409H244.949L244.957 302.704ZM242.805 300.274L242.87 300.34L244.766 302.243V296.606H240.953V302.133L242.805 300.274Z" fill="#263238"/>
<path d="M187.692 301.899L186.96 301.562C186.523 301.768 186.025 301.803 185.563 301.661C185.102 301.519 184.71 301.209 184.464 300.793C184.218 300.377 184.137 299.885 184.235 299.412C184.333 298.939 184.605 298.52 184.996 298.236C185.387 297.953 185.87 297.825 186.35 297.879C186.83 297.933 187.272 298.163 187.591 298.526C187.91 298.889 188.082 299.358 188.074 299.841C188.065 300.324 187.877 300.786 187.546 301.137L187.692 301.899ZM185.928 297.785C185.428 297.82 184.959 298.044 184.619 298.413C184.278 298.781 184.091 299.266 184.096 299.768C184.101 300.269 184.297 300.75 184.644 301.112C184.991 301.474 185.464 301.69 185.965 301.716C186.299 301.693 186.623 301.59 186.909 301.416L187.473 301.664L187.341 301.115C187.599 300.834 187.769 300.483 187.83 300.105C187.892 299.728 187.842 299.341 187.686 298.992C187.531 298.643 187.277 298.347 186.955 298.14C186.634 297.934 186.259 297.825 185.877 297.829L185.928 297.785Z" fill="#263238"/>
<path d="M192.567 301.584L191.704 299.461L190.071 297.997H194.024L192.567 301.584ZM190.437 298.122L191.828 299.395L192.56 301.203L193.804 298.092L190.437 298.122Z" fill="#263238"/>
<path d="M193.941 297.949L191.782 299.355L191.861 299.477L194.021 298.072L193.941 297.949Z" fill="#263238"/>
<path d="M181.463 298.407C181.405 298.125 181.248 297.872 181.022 297.694C180.795 297.515 180.513 297.423 180.225 297.432C179.937 297.442 179.661 297.553 179.447 297.746C179.233 297.939 179.094 298.202 179.054 298.488C179.015 298.199 178.874 297.933 178.655 297.739C178.437 297.545 178.157 297.436 177.866 297.431C177.574 297.425 177.29 297.525 177.065 297.71C176.84 297.896 176.689 298.156 176.639 298.444C176.583 298.865 176.69 299.292 176.939 299.637C177.186 299.976 177.477 300.281 177.803 300.545C178.249 300.933 178.652 301.277 179.091 301.686C179.53 301.291 179.896 300.918 180.335 300.523C180.657 300.253 180.943 299.943 181.185 299.6C181.429 299.254 181.529 298.826 181.463 298.407Z" fill="#3B69D1"/>
<path d="M249.363 308.172C249.363 308.172 249.363 307.93 249.363 307.484C249.363 307.037 249.363 306.357 249.363 305.478C249.363 303.714 249.363 301.086 249.326 297.748C249.326 291.021 249.29 281.234 249.261 268.959L249.385 269.083L132.331 269.149L132.521 268.959C132.521 282.589 132.521 295.801 132.521 308.172L132.338 307.989L216.101 308.069L240.55 308.121H247.138H248.836H249.422H248.858H247.182H240.66L216.247 308.172L132.36 308.26H132.17V308.172C132.17 295.801 132.17 282.589 132.17 268.959V268.768H132.375L249.429 268.834H249.553V268.959C249.553 281.264 249.502 291.08 249.488 297.829C249.488 301.181 249.488 303.765 249.488 305.529C249.488 306.393 249.488 307.052 249.488 307.506C249.488 307.96 249.363 308.172 249.363 308.172Z" fill="#263238"/>
<path d="M137.178 275.515L137.029 301.442L169.456 301.629L169.605 275.702L137.178 275.515Z" fill="#EBEBEB"/>
<path d="M169.597 275.686H168.975H167.204H160.55L137.126 275.635L137.301 275.466C137.265 283.189 137.221 292.031 137.177 301.386C137.213 301.438 136.818 301.028 136.987 301.196H139.219H141.415H145.807L154.225 301.247L169.407 301.357L169.253 301.518C169.326 293.73 169.392 287.273 169.443 282.735C169.443 280.48 169.495 278.709 169.509 277.472C169.509 276.879 169.509 276.418 169.509 276.081C169.509 275.744 169.509 275.591 169.509 275.591C169.509 275.591 169.509 275.737 169.509 276.045C169.509 276.352 169.509 276.828 169.509 277.413C169.509 278.636 169.509 280.4 169.509 282.64C169.509 287.2 169.509 293.693 169.509 301.518V301.672H169.348L154.167 301.613L145.749 301.569H141.357H139.161H136.928L136.73 301.372C136.796 292.009 136.847 283.167 136.899 275.452V275.276H137.074L160.572 275.488L167.16 275.576H168.894H169.334L169.597 275.686Z" fill="#263238"/>
<path d="M138.289 277.154L138.158 299.816L168.309 299.99L168.439 277.328L138.289 277.154Z" fill="#E0E0E0"/>
<path d="M138.143 299.798L148.757 285.773L155.228 294.623L159.679 289.938L168.294 299.974L138.143 299.798Z" fill="#F5F5F5"/>
<path d="M158.061 284.104C158.059 284.575 157.918 285.034 157.655 285.425C157.392 285.816 157.019 286.119 156.584 286.298C156.148 286.476 155.669 286.522 155.208 286.428C154.746 286.334 154.323 286.105 153.992 285.771C153.66 285.436 153.436 285.011 153.346 284.549C153.257 284.087 153.306 283.608 153.489 283.174C153.671 282.74 153.978 282.37 154.371 282.111C154.764 281.852 155.226 281.715 155.696 281.718C156.008 281.718 156.317 281.781 156.605 281.902C156.893 282.022 157.154 282.198 157.374 282.42C157.594 282.642 157.767 282.904 157.885 283.193C158.003 283.482 158.063 283.792 158.061 284.104Z" fill="#F5F5F5"/>
<path d="M191.85 107.509C191.734 107.528 191.615 107.528 191.499 107.509L190.51 107.545L186.85 107.611C183.769 107.611 179.53 107.663 174.802 107.663C170.073 107.663 165.835 107.663 162.753 107.611L159.093 107.545L158.097 107.509C157.984 107.529 157.867 107.529 157.753 107.509C157.866 107.481 157.982 107.469 158.097 107.472H159.093L162.753 107.414C165.835 107.377 170.073 107.355 174.802 107.355C179.53 107.355 183.769 107.355 186.85 107.414L190.51 107.472H191.499C191.617 107.469 191.735 107.482 191.85 107.509Z" fill="#263238"/>
<path d="M239.752 250.82L236.56 247.614L233.508 250.651V241.472H239.745L239.752 250.82ZM236.56 247.218L236.656 247.313L239.474 250.139V241.765H233.794V249.978L236.56 247.218Z" fill="#263238"/>
<path d="M158.602 249.854L157.138 249.187C156.286 249.584 155.316 249.648 154.419 249.368C153.521 249.087 152.761 248.482 152.286 247.671C151.811 246.859 151.656 245.9 151.851 244.98C152.045 244.06 152.576 243.246 153.339 242.697C154.102 242.148 155.043 241.903 155.977 242.01C156.911 242.117 157.771 242.569 158.39 243.277C159.009 243.985 159.341 244.899 159.322 245.839C159.303 246.779 158.934 247.678 158.288 248.36L158.602 249.854ZM155.111 241.765C154.603 241.769 154.102 241.873 153.634 242.072C153.167 242.27 152.743 242.558 152.388 242.92C152.032 243.282 151.751 243.711 151.56 244.181C151.37 244.652 151.275 245.155 151.279 245.663C151.283 246.17 151.387 246.672 151.586 247.139C151.784 247.607 152.072 248.03 152.434 248.386C152.796 248.742 153.225 249.023 153.695 249.213C154.166 249.403 154.669 249.499 155.177 249.495C155.835 249.455 156.474 249.254 157.036 248.909L157.102 248.873L158.2 249.363L157.951 248.28L158.002 248.228C158.511 247.674 158.846 246.982 158.966 246.239C159.086 245.496 158.987 244.734 158.679 244.047C158.372 243.36 157.871 242.778 157.236 242.372C156.602 241.967 155.863 241.756 155.111 241.765Z" fill="#263238"/>
<path d="M168.206 249.217L166.493 245.037L163.287 242.109L171.076 242.05L168.206 249.217ZM164.012 242.387L166.75 244.898L168.214 248.455L170.658 242.336L164.012 242.387Z" fill="#263238"/>
<path d="M170.921 242.038L166.675 244.8L166.831 245.04L171.077 242.277L170.921 242.038Z" fill="#263238"/>
<path d="M146.349 243.024C146.238 242.464 145.932 241.961 145.485 241.605C145.038 241.25 144.479 241.065 143.908 241.083C143.337 241.102 142.792 241.322 142.368 241.706C141.945 242.09 141.672 242.611 141.598 243.178C141.514 242.614 141.233 242.098 140.804 241.722C140.375 241.346 139.827 241.134 139.257 241.124C138.687 241.115 138.132 241.308 137.69 241.669C137.249 242.03 136.95 242.536 136.847 243.097C136.737 243.925 136.95 244.764 137.44 245.44C137.932 246.106 138.505 246.709 139.146 247.233C140.017 247.965 140.815 248.697 141.686 249.48C142.535 248.704 143.267 247.972 144.124 247.189C144.756 246.657 145.319 246.047 145.8 245.374C146.276 244.689 146.473 243.849 146.349 243.024Z" fill="#3B69D1"/>
<path d="M145.639 112.794C148.558 112.794 150.924 110.428 150.924 107.509C150.924 104.59 148.558 102.224 145.639 102.224C142.72 102.224 140.354 104.59 140.354 107.509C140.354 110.428 142.72 112.794 145.639 112.794Z" fill="#EBEBEB"/>
<path d="M237.761 220.515C237.761 220.625 215.611 220.713 188.292 220.713C160.974 220.713 138.817 220.625 138.817 220.515C138.817 220.405 160.967 220.325 188.292 220.325C215.618 220.325 237.761 220.413 237.761 220.515Z" fill="#455A64"/>
<path d="M237.761 212.28C237.761 212.382 215.611 212.47 188.292 212.47C160.974 212.47 138.817 212.382 138.817 212.28C138.817 212.178 160.967 212.09 188.292 212.09C215.618 212.09 237.761 212.178 237.761 212.28Z" fill="#455A64"/>
<path d="M192.67 228.867C192.67 228.97 180.614 229.057 165.747 229.057C150.88 229.057 138.817 228.97 138.817 228.867C138.817 228.765 150.873 228.677 165.747 228.677C180.621 228.677 192.67 228.765 192.67 228.867Z" fill="#455A64"/>
<path d="M186.03 318.632C186.023 319.048 185.893 319.453 185.656 319.795C185.42 320.137 185.087 320.402 184.701 320.555C184.314 320.709 183.891 320.744 183.484 320.658C183.077 320.571 182.705 320.366 182.414 320.068C182.123 319.771 181.927 319.394 181.851 318.985C181.774 318.576 181.82 318.153 181.983 317.771C182.145 317.388 182.418 317.062 182.766 316.833C183.113 316.605 183.521 316.485 183.937 316.488C184.215 316.49 184.49 316.548 184.747 316.658C185.003 316.767 185.235 316.926 185.429 317.125C185.624 317.325 185.777 317.56 185.88 317.819C185.983 318.077 186.034 318.354 186.03 318.632Z" fill="#263238"/>
<path d="M192.516 318.662C192.507 319.075 192.377 319.477 192.14 319.817C191.904 320.157 191.572 320.419 191.188 320.572C190.803 320.724 190.381 320.759 189.976 320.672C189.572 320.585 189.201 320.381 188.912 320.085C188.623 319.789 188.428 319.414 188.351 319.007C188.274 318.6 188.32 318.18 188.481 317.799C188.642 317.418 188.913 317.093 189.258 316.864C189.604 316.636 190.009 316.515 190.423 316.517C190.701 316.519 190.977 316.576 191.233 316.685C191.49 316.794 191.722 316.953 191.917 317.152C192.112 317.352 192.265 317.588 192.368 317.847C192.47 318.106 192.521 318.383 192.516 318.662Z" fill="#263238"/>
<path d="M199.053 318.691C199.044 319.105 198.913 319.507 198.677 319.847C198.441 320.186 198.109 320.449 197.724 320.601C197.339 320.753 196.918 320.788 196.513 320.701C196.108 320.615 195.738 320.411 195.449 320.114C195.16 319.818 194.965 319.443 194.888 319.036C194.811 318.63 194.856 318.209 195.018 317.828C195.179 317.447 195.449 317.122 195.795 316.894C196.14 316.666 196.545 316.545 196.959 316.546C197.238 316.549 197.513 316.607 197.769 316.716C198.025 316.826 198.257 316.985 198.451 317.184C198.646 317.383 198.799 317.619 198.902 317.877C199.006 318.136 199.057 318.412 199.053 318.691Z" fill="#263238"/>
<path d="M250.066 117.962H132.997V189.551H250.066V117.962Z" fill="#E0E0E0"/>
<path d="M143.809 189.573L177.349 144.672L198.152 172.752L212.243 157.731L239.891 189.544L143.809 189.573Z" fill="#F5F5F5"/>
<path d="M206.966 139.161C206.967 140.658 206.524 142.122 205.694 143.368C204.863 144.613 203.681 145.584 202.298 146.158C200.915 146.732 199.393 146.883 197.925 146.592C196.456 146.301 195.107 145.581 194.047 144.522C192.988 143.464 192.266 142.116 191.974 140.647C191.681 139.179 191.831 137.656 192.403 136.273C192.976 134.89 193.946 133.707 195.191 132.875C196.436 132.043 197.899 131.599 199.397 131.599C201.403 131.599 203.327 132.395 204.746 133.813C206.165 135.231 206.964 137.154 206.966 139.161Z" fill="#F5F5F5"/>
<path d="M249.751 256.09C249.751 254.56 249.678 189.888 249.575 94.1425L249.751 94.3182H132.697L132.887 94.1279C132.887 154.694 132.887 210.743 132.887 256.076L132.726 255.922L249.795 256.076L132.726 256.237H132.572V256.076C132.572 210.743 132.572 154.694 132.536 94.1279V93.9376H132.741H249.795H249.971V94.1059C249.934 142.03 249.905 182.532 249.883 211.065C249.883 225.31 249.846 236.56 249.839 244.261C249.839 248.097 249.839 251.047 249.839 253.045C249.839 254.033 249.839 254.787 249.839 255.3C249.839 255.812 249.751 256.09 249.751 256.09Z" fill="#263238"/>
<path d="M194.712 276.184L197.303 267.48C197.757 265.592 198.357 263.366 199.163 260.826C199.895 258.542 201.754 256.141 203.452 254.414C206.095 251.727 207.354 251.713 209.125 250.285C209.286 250.183 209.469 250.029 209.623 249.949C209.958 249.766 210.252 249.517 210.487 249.217C212.016 247.562 210.545 244.993 207.434 245.242C205.099 245.425 201.278 246.091 195.071 252.496C194.99 252.599 194.91 252.679 194.836 252.774C191.579 257.012 188.519 244.92 187.963 240.418C187.855 239.72 187.591 239.056 187.192 238.474C186.792 237.892 186.267 237.407 185.655 237.056C185.042 236.704 184.359 236.495 183.655 236.443C182.951 236.392 182.244 236.499 181.587 236.758L166.464 243.829C165.022 243.411 163.483 243.462 162.072 243.976C161.014 244.347 160.132 245.1 159.599 246.086C159.065 247.073 158.919 248.223 159.188 249.312L165.329 273.768L147.315 333.719H186.148L194.712 276.184Z" fill="#FFBE9D"/>
<path d="M224.578 221.123L212.573 244.649L206.57 242.98L176.412 267.524C175.181 268.531 173.606 269.018 172.021 268.881C170.437 268.745 168.968 267.995 167.928 266.792L156.436 253.448C156.436 253.448 179.604 243.471 183.886 235.214C188.168 226.957 183.22 225.075 183.22 225.075L194.119 212.69L224.578 221.123Z" fill="#3B69D1"/>
<path d="M209.008 173.074C209.008 173.074 191.44 169.187 166.706 145.412C141.971 121.636 130.362 90.036 127.368 90.2117C124.374 90.3874 111.125 84.2312 85.988 138.904C60.8512 193.577 70.7551 206.248 75.74 206.175C80.725 206.102 114.697 196.608 135.91 199.016C157.124 201.424 184.391 212.485 184.391 212.485L209.008 173.074Z" fill="#3B69D1"/>
<path d="M246.333 202.874L240.337 214.271L237.651 219.395C235.878 222.768 232.878 225.332 229.27 226.558C225.662 227.783 221.721 227.578 218.26 225.983L180.599 212.858L202.559 162.789L240.184 182.839C243.645 184.691 246.234 187.837 247.386 191.59C248.538 195.343 248.159 199.399 246.333 202.874Z" fill="#3B69D1"/>
<g opacity="0.4">
<path opacity="0.4" d="M246.333 202.874L240.337 214.271L237.651 219.395C235.878 222.768 232.878 225.332 229.27 226.558C225.662 227.783 221.721 227.578 218.26 225.983L180.599 212.858L202.559 162.789L240.184 182.839C243.645 184.691 246.234 187.837 247.386 191.59C248.538 195.343 248.159 199.399 246.333 202.874Z" fill="black"/>
</g>
<path d="M87.9938 139.9C74.6201 169.517 69.0496 195.912 75.5498 198.848C82.0499 201.783 98.1759 180.16 111.55 150.536C124.923 120.912 130.494 94.5305 123.994 91.5878C117.493 88.6452 101.367 110.283 87.9938 139.9Z" fill="#3B69D1"/>
<g opacity="0.5">
<path opacity="0.5" d="M87.9938 139.9C74.6201 169.517 69.0496 195.912 75.5498 198.848C82.0499 201.783 98.1759 180.16 111.55 150.536C124.923 120.912 130.494 94.5305 123.994 91.5878C117.493 88.6452 101.367 110.283 87.9938 139.9Z" fill="black"/>
</g>
<path d="M249.568 219.344L239.357 216.138L245.674 204.133L253.331 208.891L249.568 219.344Z" fill="#3B69D1"/>
<g opacity="0.6">
<path opacity="0.6" d="M245.674 204.133L239.357 216.138L241.458 216.796L246.589 204.696L245.674 204.133Z" fill="black"/>
</g>
<path d="M238.632 206.9C238.486 207.229 233.391 205.253 227.257 202.508C221.123 199.763 216.277 197.215 216.416 196.886C216.555 196.557 221.657 198.54 227.798 201.315C233.94 204.089 238.786 206.57 238.632 206.9Z" fill="#3B69D1"/>
<path d="M241.78 199.748C241.619 200.07 237.007 198.13 231.48 195.407C225.954 192.684 221.606 190.218 221.767 189.888C221.928 189.559 226.532 191.506 232.059 194.229C237.585 196.952 241.941 199.419 241.78 199.748Z" fill="#3B69D1"/>
<path d="M234.679 214.403C234.628 214.578 233.413 214.3 231.48 213.671C230.514 213.371 229.365 212.99 228.098 212.558C226.832 212.126 225.536 211.438 224.138 210.801C218.553 208.21 214.286 205.677 214.425 205.37C214.564 205.062 219.153 207.046 224.673 209.616C226.063 210.245 227.352 210.933 228.567 211.438C229.782 211.943 230.873 212.39 231.788 212.8C233.618 213.642 234.73 214.227 234.679 214.403Z" fill="#3B69D1"/>
<path d="M115.261 133.319C115.261 133.319 99.9912 123.847 91.6391 144.482C83.287 165.117 99.3471 168.506 99.3471 168.506C106.282 157.585 111.64 145.739 115.261 133.319Z" fill="#3B69D1"/>
<g opacity="0.5">
<path opacity="0.5" d="M131.504 108.724C131.599 108.724 131.379 110.144 130.911 112.669C130.442 115.195 129.74 118.848 128.759 123.342L126.636 130.567C126.25 131.86 125.853 133.2 125.443 134.586L124.821 136.686C124.594 137.418 124.294 138.084 124.03 138.795L120.582 147.696C120.282 148.472 119.975 149.247 119.675 150.031C119.375 150.814 118.943 151.561 118.599 152.337L116.329 157.021L114.053 161.699C113.665 162.431 113.321 163.251 112.904 163.968C112.486 164.685 112.047 165.432 111.63 166.127L106.762 174.348C106.367 174.992 106.03 175.658 105.591 176.273L104.325 178.066L101.894 181.492L97.5024 187.619C94.5744 191.154 92.1295 193.943 90.4459 195.883C89.619 196.934 88.7057 197.913 87.7156 198.811C88.4037 197.669 89.1873 196.586 90.058 195.576C91.683 193.504 93.9742 190.605 96.7851 187.041L100.994 180.87L103.351 177.437C103.761 176.851 104.171 176.251 104.588 175.643C105.005 175.036 105.32 174.37 105.723 173.718L110.532 165.505L111.784 163.353C112.216 162.621 112.516 161.889 112.918 161.099L115.173 156.45C115.905 154.877 116.688 153.332 117.435 151.802C117.786 151.07 118.211 150.294 118.503 149.518L119.418 147.205L122.917 138.421C123.188 137.689 123.496 137.038 123.73 136.335C123.964 135.632 124.162 134.944 124.374 134.256L125.619 130.281L127.866 123.144L130.406 112.604C130.661 111.281 131.028 109.984 131.504 108.724Z" fill="black"/>
</g>
<g opacity="0.4">
<path opacity="0.4" d="M160.081 251.808C161.479 254.341 162.899 256.932 164.956 258.93C167.013 260.929 169.824 262.349 172.752 262.056C175.68 261.763 178.352 259.377 178.381 256.493C179.757 257.525 181.873 256.969 183.015 255.673C184.157 254.377 184.53 252.584 184.662 250.864C186.536 251.969 189.141 251.098 190.393 249.319C190.968 248.393 191.331 247.351 191.458 246.268C191.584 245.185 191.471 244.087 191.125 243.053C190.412 240.995 189.398 239.054 188.117 237.292C189.581 237.41 191.089 237.512 192.377 236.861C193.665 236.209 194.573 234.496 193.79 233.266C193.275 232.58 192.528 232.104 191.689 231.927C189.427 231.195 187.846 230.653 185.489 230.924C184.947 230.924 186.433 237.131 171.669 245.608C162.907 250.622 160.081 251.808 160.081 251.808Z" fill="black"/>
</g>
<path d="M193.329 260.738C193.329 260.804 192.34 260.614 190.745 260.658C188.671 260.707 186.631 261.197 184.761 262.094C182.891 262.991 181.233 264.276 179.896 265.862C178.864 267.078 178.432 267.963 178.337 267.927C178.398 267.698 178.494 267.481 178.623 267.282C178.936 266.725 179.291 266.191 179.684 265.687C181 264.017 182.681 262.671 184.599 261.752C186.516 260.833 188.618 260.366 190.745 260.387C191.383 260.391 192.02 260.45 192.648 260.563C192.883 260.581 193.114 260.64 193.329 260.738Z" fill="#EB996E"/>
<path d="M161.04 247.848C163.419 250.132 165.044 252.657 167.54 254.956C168.675 256.002 170.468 257.979 171.932 258.242C173.396 258.506 174.421 258.308 175.021 256.888C175.512 255.739 174.633 254.165 174.033 253.228C172.445 250.732 170.922 248.785 169.736 246.845C169.173 245.937 169.897 245.747 170.161 246.172C171.303 247.357 173.016 248.368 174.04 249.678C175.446 251.442 175.695 253.792 179.369 253.045C179.861 252.965 180.327 252.772 180.731 252.481C182.114 251.42 182.195 249.553 181.595 248.089C181.076 246.959 180.385 245.917 179.545 245C181.111 246.764 182.817 248.66 185.306 248.821C186.009 248.907 186.721 248.771 187.344 248.434C187.967 248.097 188.469 247.575 188.783 246.94C189.515 245.271 188.468 243.653 187.407 242.351C185.528 240.034 183.438 237.897 181.163 235.967C180.313 235.254 179.242 234.858 178.132 234.848C176.844 234.848 175.204 235.082 174.472 236.194C174.054 236.731 173.75 237.347 173.577 238.005C173.405 238.664 173.368 239.35 173.469 240.023C173.469 240.023 170.249 238.39 167.657 240.096C166.062 241.216 164.916 242.866 164.422 244.751L161.04 247.848Z" fill="#FFBE9D"/>
<path d="M178.205 234.145C177.69 233.547 177.371 232.805 177.29 232.02C177.208 231.235 177.37 230.444 177.752 229.753C178.301 228.677 178.989 227.63 179.691 227.396C182.758 226.364 196.169 228.684 196.044 231.656C195.92 234.628 194.939 236.048 187.67 235.001C186.389 234.818 184.383 234.569 184.383 234.569L182.627 237.205L178.205 234.145Z" fill="#FFBE9D"/>
<path d="M180.606 246.604C178.846 243.701 176.28 241.374 173.22 239.906C173.72 239.986 174.2 240.155 174.641 240.403C176.844 241.469 178.694 243.146 179.969 245.235C180.265 245.647 180.481 246.112 180.606 246.604Z" fill="#EB996E"/>
<path d="M182.861 237.461C182.795 237.519 181.909 236.802 180.701 236.063C180.196 235.743 179.673 235.452 179.135 235.192C178.718 235.001 178.44 234.95 178.447 234.891C178.454 234.833 178.762 234.804 179.223 234.943C179.817 235.134 180.383 235.402 180.906 235.741C182.144 236.495 182.956 237.38 182.861 237.461Z" fill="#EB996E"/>
<path d="M185.115 234.694C184.243 234.795 183.359 234.695 182.532 234.401C181.926 234.216 181.364 233.912 180.877 233.508C180.511 233.193 180.357 232.937 180.394 232.9C181.098 233.356 181.852 233.729 182.641 234.013C183.48 234.185 184.307 234.412 185.115 234.694Z" fill="#EB996E"/>
<path d="M172.086 250.285C171.624 249.8 171.214 249.268 170.863 248.697C170.028 247.345 168.971 246.142 167.738 245.139C166.459 244.204 164.875 243.786 163.302 243.968C162.657 244.084 162.029 244.283 161.435 244.561C161.435 244.561 161.567 244.407 161.867 244.224C162.295 243.965 162.766 243.786 163.258 243.697C164.077 243.565 164.915 243.597 165.722 243.792C166.529 243.987 167.289 244.34 167.957 244.832C169.231 245.856 170.295 247.116 171.09 248.543C171.471 249.095 171.804 249.678 172.086 250.285Z" fill="#EB996E"/>
<path d="M182.341 279.931C180.536 280.315 178.707 280.577 176.866 280.715C175.035 280.98 173.189 281.117 171.339 281.125C173.147 280.741 174.979 280.479 176.822 280.341C178.65 280.081 180.494 279.944 182.341 279.931Z" fill="#EB996E"/>
<path d="M297.653 36.4829L298.48 37.9981L299.988 38.8253L298.48 39.6524L297.653 41.1604L296.826 39.6524L295.318 38.8253L296.826 37.9981L297.653 36.4829Z" fill="#3B69D1"/>
<path d="M314.936 73.9393L315.763 75.4546L317.271 76.2817L315.763 77.1089L314.936 78.6168L314.108 77.1089L312.593 76.2817L314.108 75.4546L314.936 73.9393Z" fill="#3B69D1"/>
<path d="M37.9908 173.872L38.818 175.387L40.3332 176.214L38.818 177.034L37.9908 178.549L37.1637 177.034L35.6558 176.214L37.1637 175.387L37.9908 173.872Z" fill="#3B69D1"/>
<path d="M274.983 45.7939L276.894 49.2856L280.385 51.1961L276.894 53.0993L274.983 56.5909L273.08 53.0993L269.588 51.1961L273.08 49.2856L274.983 45.7939Z" fill="#3B69D1"/>
<path d="M53.4799 150.133L55.3831 153.61L58.8674 155.513L55.3831 157.424L53.4799 160.901L51.5767 157.424L48.0924 155.513L51.5767 153.61L53.4799 150.133Z" fill="#3B69D1"/>
<path d="M319.635 233.186L321.538 236.67L325.015 238.573L321.538 240.477L319.635 243.961L317.732 240.477L314.248 238.573L317.732 236.67L319.635 233.186Z" fill="#3B69D1"/>
</svg>
