<svg width="24" height="24" viewBox="0 0 24 24" fill="none" xmlns="http://www.w3.org/2000/svg">
    <path
        d="M18.1197 20.9434C18.2912 20.9434 18.4604 21.0086 18.5891 21.1329C19.4119 21.9275 20.6122 22.192 21.6792 21.8609C20.9925 20.4303 20.8974 18.7914 21.4295 17.2739C22.0899 15.3858 22.2554 13.4934 21.5038 11.5954C20.8435 9.9281 19.5693 8.54287 17.9566 7.75295C18.0558 8.28188 18.1058 8.8208 18.1058 9.36542C18.1059 11.6771 17.2169 13.8513 15.6029 15.4876C13.9887 17.1241 11.8249 18.0442 9.51016 18.0786C9.0801 18.0854 8.65198 18.0601 8.2287 18.0043C9.50086 20.2342 11.9001 21.6865 14.5366 21.7256C15.69 21.7434 16.7974 21.5018 17.8287 21.0093C17.9215 20.9649 18.021 20.9434 18.1197 20.9434Z"
        fill="#3B69D1" />
    <path
        d="M9.52975 2.00148C5.42342 1.91994 2.00992 5.2419 2.00002 9.34733C1.9976 10.3504 2.19339 11.3229 2.58202 12.2379C2.58766 12.2513 2.59291 12.2647 2.59766 12.2784C3.1298 13.7959 3.0347 15.4348 2.34795 16.8654C3.41505 17.1964 4.61518 16.932 5.43807 16.1374C5.6408 15.9415 5.94412 15.8922 6.19848 16.0138C7.22965 16.5063 8.3372 16.7487 9.49049 16.7302C13.5647 16.6697 16.7561 13.4347 16.7561 9.36545C16.7561 5.38502 13.5143 2.08158 9.52975 2.00148ZM5.44253 10.4655C4.85256 10.4655 4.37428 9.98799 4.37428 9.39902C4.37428 8.81004 4.85256 8.33256 5.44253 8.33256C6.03249 8.33256 6.51077 8.81004 6.51077 9.39902C6.51072 9.98799 6.03249 10.4655 5.44253 10.4655ZM9.37806 10.4655C8.7881 10.4655 8.30982 9.98799 8.30982 9.39902C8.30982 8.81004 8.7881 8.33256 9.37806 8.33256C9.96803 8.33256 10.4463 8.81004 10.4463 9.39902C10.4463 9.98799 9.96803 10.4655 9.37806 10.4655ZM13.3136 10.4655C12.7237 10.4655 12.2454 9.98799 12.2454 9.39902C12.2454 8.81004 12.7237 8.33256 13.3136 8.33256C13.9036 8.33256 14.3819 8.81004 14.3819 9.39902C14.3819 9.98799 13.9036 10.4655 13.3136 10.4655Z"
        fill="#3B69D1" />
</svg>
