<svg width="384" height="384" viewBox="0 0 384 384" fill="none" xmlns="http://www.w3.org/2000/svg">
<g clip-path="url(#clip0_1112_1381)">
<rect width="384" height="384" fill="white"/>
<rect x="33.5417" y="129.954" width="326" height="131" rx="11.5" transform="rotate(-5 33.5417 129.954)" fill="#F1F1F1" stroke="#878787" stroke-dasharray="5 5"/>
<g filter="url(#filter0_d_1112_1381)">
<rect x="14" y="152.167" width="327" height="132" rx="16" transform="rotate(-5 14 152.167)" fill="white" shape-rendering="crispEdges"/>
<path d="M32.728 182.651C31.9578 173.848 38.4697 166.087 47.2726 165.317L108.04 160.001C116.843 159.23 124.604 165.742 125.374 174.545V174.545C126.144 183.348 119.632 191.109 110.829 191.879L50.0616 197.195C41.2587 197.965 33.4981 191.454 32.728 182.651V182.651Z" fill="#F4E5FF"/>
<path d="M50.8112 187.092L52.1222 186.977L51.4084 178.818L57.6451 186.494L59.3605 186.344L58.5064 176.581L57.1954 176.696L57.9092 184.854L51.6725 177.179L49.9571 177.329L50.8112 187.092ZM64.6772 178.514C62.4039 178.713 61.0222 180.591 61.2016 182.641C61.381 184.691 63.0676 186.3 65.341 186.101C67.6003 185.904 68.9959 184.025 68.8165 181.975C68.6372 179.925 66.9365 178.317 64.6772 178.514ZM65.2573 184.984C63.751 185.116 62.571 183.997 62.4429 182.532C62.3147 181.068 63.2825 179.761 64.7887 179.629C66.2531 179.501 67.4332 180.62 67.5613 182.085C67.6882 183.535 66.7217 184.856 65.2573 184.984ZM75.6615 181.882C75.7823 183.263 75.0988 184.123 73.9272 184.226C72.7278 184.331 71.9191 183.601 71.7983 182.22L71.4469 178.203L70.2614 178.307L70.6092 182.282C70.7934 184.388 72.1142 185.509 74.0109 185.343C75.9216 185.176 77.0276 183.842 76.8434 181.736L76.4956 177.762L75.3101 177.865L75.6615 181.882ZM77.8264 177.645L81.1889 184.434L82.7509 184.297L84.8835 177.028L83.6004 177.14L81.8613 183.124L79.1095 177.533L77.8264 177.645ZM92.9893 182.235L92.0509 181.628C91.6455 182.296 90.9151 182.782 90.0085 182.861C88.5023 182.993 87.3393 182.069 87.1498 180.385L92.5472 179.913C92.572 179.714 92.5906 179.445 92.5662 179.166C92.4149 177.437 91.0565 176.207 89.1458 176.374C86.9701 176.564 85.7486 178.343 85.9353 180.477C86.1146 182.527 87.7316 184.143 90.1025 183.935C91.4135 183.82 92.4107 183.171 92.9893 182.235ZM89.2058 177.38C90.4471 177.272 91.234 178.074 91.3661 179.103L87.1542 179.471C87.2991 178.236 88.0482 177.482 89.2058 177.38ZM96.8196 183.263C97.7261 183.184 98.6112 182.699 99.0814 181.969L99.1595 182.862L100.345 182.758L99.9325 178.044C99.7971 176.496 98.6456 175.543 96.8604 175.699C95.6331 175.806 94.6881 176.409 94.1476 177.299L95.1 177.905C95.4799 177.267 96.1024 176.833 96.9113 176.762C97.9155 176.675 98.6616 177.171 98.7471 178.148L98.7898 178.636L96.453 179.234C94.9826 179.615 94.2396 180.439 94.3324 181.499C94.4373 182.699 95.4388 183.384 96.8196 183.263ZM95.5281 181.352C95.4757 180.753 95.8702 180.282 96.8179 180.031L98.8654 179.5L98.9862 180.881C98.5919 181.675 97.8638 182.188 96.9294 182.27C96.1065 182.342 95.5806 181.952 95.5281 181.352ZM107.355 179.109C107.476 180.49 106.792 181.351 105.621 181.453C104.421 181.558 103.612 180.828 103.492 179.447L103.14 175.43L101.955 175.534L102.303 179.509C102.487 181.615 103.808 182.736 105.704 182.57C107.615 182.403 108.721 181.069 108.537 178.964L108.189 174.989L107.004 175.092L107.355 179.109Z" fill="#950EFF"/>
<path d="M56.0643 243.85L58.3276 243.652L57.933 239.141L59.3516 239.017C61.8062 238.802 63.1943 237.412 63.0144 235.356C62.8331 233.284 61.2247 232.155 58.77 232.37L55.0881 232.692L56.0643 243.85ZM59.0302 234.243C59.9866 234.159 60.6106 234.683 60.6845 235.527C60.764 236.436 60.239 237.044 59.2826 237.128L57.7684 237.26L57.516 234.375L59.0302 234.243ZM67.2731 243.11C68.2135 243.028 69.135 242.546 69.5906 241.879L69.659 242.66L71.6832 242.483L71.2286 237.287C71.0738 235.518 69.7571 234.236 67.43 234.439C65.9636 234.568 64.8371 235.276 64.2063 236.327L65.7876 237.329C66.1664 236.702 66.74 236.282 67.521 236.214C68.4455 236.133 69.1304 236.619 69.2043 237.464L69.2225 237.671L66.8041 238.301C65.1078 238.738 64.2469 239.729 64.3528 240.94C64.4825 242.423 65.6632 243.251 67.2731 243.11ZM66.3528 240.669C66.3096 240.175 66.6296 239.793 67.4618 239.576L69.3466 239.09L69.4456 240.222C69.1029 240.894 68.4711 241.383 67.5466 241.464C66.8613 241.524 66.4002 241.211 66.3528 240.669ZM74.0012 242.28L76.0255 242.103L75.5751 236.955C75.8333 236.418 76.4235 235.821 77.4117 235.734C77.7783 235.702 78.0534 235.726 78.314 235.768L78.1397 233.775C77.9429 233.728 77.6996 233.701 77.4286 233.725C76.5201 233.805 75.871 234.279 75.3924 234.867L75.3227 234.07L73.2984 234.247L74.0012 242.28ZM81.2592 238.69C81.4307 240.651 82.4861 241.699 84.4944 241.523C85.1638 241.464 85.635 241.343 86.0182 241.133L85.8634 239.363C85.6022 239.499 85.2412 239.595 84.6833 239.643C83.8863 239.713 83.3775 239.404 83.2994 238.512L83.0121 235.228L85.4668 235.013L85.3078 233.196L82.8532 233.411L82.6775 231.403L80.6373 231.581L80.813 233.59L79.3147 233.721L79.4737 235.538L80.9719 235.407L81.2592 238.69ZM90.1077 241.112C91.0481 241.03 91.9696 240.548 92.4253 239.882L92.4936 240.663L94.5179 240.485L94.0633 235.289C93.9085 233.52 92.5917 232.238 90.2646 232.442C88.7982 232.57 87.6717 233.279 87.0409 234.33L88.6223 235.332C89.001 234.704 89.5746 234.285 90.3556 234.216C91.2801 234.135 91.9651 234.622 92.039 235.466L92.0571 235.674L89.6388 236.303C87.9424 236.74 87.0815 237.731 87.1875 238.942C87.3172 240.425 88.4979 241.253 90.1077 241.112ZM89.1875 238.671C89.1442 238.177 89.4642 237.796 90.2964 237.578L92.1812 237.092L92.2802 238.224C91.9375 238.896 91.3058 239.385 90.3813 239.466C89.6959 239.526 89.2349 239.213 89.1875 238.671ZM96.1616 241.755C96.3095 243.445 97.9018 244.205 100.468 243.98C102.97 243.761 104.556 242.241 104.4 240.456C104.269 238.958 103.074 237.97 101.05 238.147L99.0255 238.324C98.6589 238.356 98.4697 238.212 98.4418 237.894C98.4264 237.718 98.5067 237.535 98.6681 237.36C98.9114 237.387 99.1678 237.38 99.4388 237.357C101.511 237.175 102.579 235.797 102.441 234.219C102.417 233.948 102.363 233.696 102.261 233.448L103.679 233.324L103.529 231.602L100.596 231.859C100.116 231.692 99.564 231.628 98.9423 231.682C96.934 231.858 95.8328 233.223 95.9695 234.785C96.0476 235.678 96.4998 236.441 97.2472 236.906C96.6805 237.405 96.4542 237.939 96.51 238.577C96.5462 238.991 96.7592 239.406 97.1059 239.697C96.4346 240.286 96.0919 240.958 96.1616 241.755ZM99.3368 235.824C98.4601 235.9 97.8881 235.42 97.8184 234.623C97.7501 233.842 98.23 233.27 99.1067 233.194C99.9515 233.12 100.538 233.582 100.608 234.379C100.677 235.176 100.182 235.75 99.3368 235.824ZM98.0492 241.301C98.006 240.807 98.2144 240.435 98.4922 240.122L100.979 239.904C101.951 239.819 102.355 240.217 102.408 240.823C102.478 241.62 101.776 242.227 100.31 242.356C98.8912 242.48 98.1162 242.066 98.0492 241.301ZM112.616 237.585L111.065 236.564C110.685 237.176 109.953 237.625 109.077 237.702C107.818 237.812 106.84 237.287 106.518 235.806L112.144 235.314C112.184 235.037 112.212 234.617 112.173 234.171C111.989 232.067 110.39 230.681 108.158 230.876C105.528 231.106 104.202 233.198 104.409 235.573C104.614 237.916 106.399 239.767 109.252 239.518C110.766 239.385 111.955 238.655 112.616 237.585ZM108.256 232.538C109.387 232.439 110.048 233.2 110.151 234.01L106.453 234.334C106.584 233.262 107.22 232.629 108.256 232.538ZM114.565 238.732L116.589 238.554L116.139 233.406C116.397 232.87 116.987 232.272 117.975 232.185C118.342 232.153 118.617 232.177 118.878 232.219L118.704 230.226C118.507 230.179 118.263 230.153 117.992 230.176C117.084 230.256 116.435 230.73 115.956 231.318L115.886 230.521L113.862 230.698L114.565 238.732ZM125.336 237.789L127.361 237.612L126.315 225.658L124.291 225.835L125.336 237.789ZM130.294 230.738L131.742 225.986L129.447 226.187L128.414 230.903L130.294 230.738ZM136.51 228.396C133.896 228.624 132.279 230.709 132.49 233.116C132.7 235.523 134.654 237.295 137.268 237.066C139.882 236.838 141.499 234.753 141.288 232.346C141.078 229.939 139.124 228.167 136.51 228.396ZM137.133 235.151C135.794 235.268 134.716 234.335 134.594 232.932C134.471 231.529 135.37 230.423 136.709 230.306C138 230.193 139.061 231.128 139.184 232.53C139.305 233.917 138.424 235.038 137.133 235.151ZM141.701 228.263L141.86 230.08L143.359 229.949L143.902 236.165L145.943 235.986L145.399 229.77L147.853 229.555L147.694 227.738L145.24 227.953L145.162 227.06C145.098 226.327 145.502 225.81 146.187 225.75C146.602 225.714 146.933 225.829 147.188 225.984L147.901 224.219C147.367 223.993 146.73 223.872 145.997 223.936C143.988 224.112 142.977 225.581 143.126 227.287L143.2 228.132L141.701 228.263ZM148.488 227.669L148.647 229.486L150.145 229.355L150.689 235.571L152.729 235.393L152.185 229.176L154.64 228.962L154.481 227.145L152.026 227.359L151.948 226.467C151.884 225.733 152.289 225.216 152.974 225.156C153.388 225.12 153.72 225.236 153.974 225.39L154.687 223.625C154.153 223.399 153.516 223.278 152.783 223.342C150.775 223.518 149.763 224.988 149.912 226.693L149.986 227.538L148.488 227.669ZM156.467 235.066L158.492 234.888L158.041 229.74C158.3 229.204 158.89 228.606 159.878 228.519C160.245 228.487 160.52 228.511 160.78 228.553L160.606 226.56C160.409 226.513 160.166 226.487 159.895 226.51C158.986 226.59 158.337 227.064 157.859 227.652L157.789 226.855L155.765 227.032L156.467 235.066ZM169.882 232.575L168.331 231.554C167.951 232.166 167.219 232.615 166.342 232.692C165.083 232.802 164.106 232.277 163.783 230.796L169.41 230.303C169.45 230.027 169.477 229.607 169.438 229.161C169.254 227.057 167.655 225.671 165.424 225.866C162.794 226.096 161.467 228.188 161.675 230.563C161.88 232.906 163.664 234.757 166.517 234.508C168.032 234.375 169.22 233.645 169.882 232.575ZM165.521 227.528C166.653 227.429 167.314 228.19 167.417 229L163.719 229.324C163.85 228.252 164.485 227.618 165.521 227.528ZM177.528 223.843L179.457 223.675L177.583 221.172L175.384 221.365L177.528 223.843ZM178.411 233.387C179.351 233.304 180.273 232.822 180.729 232.156L180.797 232.937L182.821 232.76L182.367 227.564C182.212 225.795 180.895 224.512 178.568 224.716C177.102 224.844 175.975 225.553 175.344 226.604L176.926 227.606C177.304 226.979 177.878 226.559 178.659 226.491C179.583 226.41 180.268 226.896 180.342 227.741L180.36 227.948L177.942 228.577C176.246 229.015 175.385 230.006 175.491 231.217C175.621 232.699 176.801 233.527 178.411 233.387ZM177.491 230.946C177.448 230.451 177.768 230.07 178.6 229.853L180.485 229.367L180.584 230.498C180.241 231.171 179.609 231.66 178.685 231.741C177.999 231.801 177.538 231.488 177.491 230.946ZM189.435 232.181L191.46 232.004L191.001 226.76C191.259 226.224 191.677 225.496 192.602 225.416C193.51 225.336 194.089 225.896 194.174 226.868L194.6 231.729L196.64 231.551L196.207 226.61C196.196 226.482 196.187 226.371 196.161 226.261C196.432 225.691 196.857 225.043 197.734 224.967C198.643 224.887 199.222 225.447 199.307 226.419L199.732 231.28L201.772 231.102L201.34 226.161C201.142 223.897 199.734 222.864 198.077 223.009C196.722 223.128 196.01 223.8 195.497 224.552C194.896 223.737 193.964 223.369 192.944 223.458C191.956 223.545 191.306 224.003 190.81 224.577L190.757 223.971L188.732 224.148L189.435 232.181ZM207.177 222.213C204.563 222.442 202.947 224.527 203.157 226.933C203.368 229.34 205.322 231.113 207.936 230.884C210.55 230.655 212.166 228.57 211.956 226.164C211.745 223.757 209.791 221.984 207.177 222.213ZM207.8 228.968C206.461 229.086 205.384 228.152 205.261 226.749C205.139 225.347 206.037 224.24 207.376 224.123C208.667 224.01 209.729 224.945 209.852 226.348C209.973 227.734 209.091 228.855 207.8 228.968ZM214.153 230.019L216.178 229.842L215.719 224.598C215.977 224.061 216.459 223.328 217.479 223.239C218.467 223.153 219.132 223.769 219.225 224.837L219.636 229.539L221.677 229.36L221.258 224.579C221.051 222.204 219.559 221.13 217.822 221.282C216.754 221.375 216.041 221.855 215.531 222.446L215.475 221.808L213.451 221.985L214.153 230.019ZM231.989 226.852C230.634 226.971 229.574 226.052 229.45 224.633C229.327 223.23 230.21 222.125 231.533 222.009C232.362 221.937 233.032 222.248 233.463 222.772L234.935 221.423C234.1 220.5 232.864 219.966 231.398 220.094C228.624 220.337 227.141 222.474 227.346 224.817C227.551 227.16 229.383 229.007 232.156 228.765C233.623 228.637 234.747 227.896 235.409 226.842L233.725 225.769C233.392 226.36 232.786 226.782 231.989 226.852ZM239.818 219.357C237.204 219.586 235.588 221.671 235.798 224.078C236.009 226.484 237.963 228.257 240.577 228.028C243.191 227.799 244.807 225.715 244.597 223.308C244.386 220.901 242.432 219.129 239.818 219.357ZM240.441 226.113C239.102 226.23 238.025 225.296 237.902 223.894C237.779 222.491 238.678 221.384 240.017 221.267C241.308 221.154 242.37 222.089 242.493 223.492C242.614 224.879 241.732 226 240.441 226.113ZM246.794 227.163L248.819 226.986L248.36 221.742C248.618 221.205 249.1 220.473 250.12 220.383C251.108 220.297 251.773 220.913 251.866 221.981L252.277 226.683L254.318 226.505L253.899 221.723C253.691 219.348 252.2 218.274 250.463 218.426C249.395 218.519 248.682 218.999 248.172 219.59L248.116 218.953L246.092 219.13L246.794 227.163ZM255.813 225.201C256.658 226.043 257.728 226.528 259.162 226.402C260.677 226.27 261.951 225.227 261.835 223.534C261.592 220.761 257.793 221.575 257.673 220.204C257.636 219.79 257.909 219.413 258.546 219.357C259.168 219.303 259.73 219.671 260.189 220.145L261.425 218.848C260.783 218.117 259.615 217.625 258.388 217.733C256.714 217.879 255.612 219.052 255.736 220.47C255.983 223.291 259.779 222.429 259.901 223.832C259.943 224.31 259.642 224.722 258.988 224.779C258.223 224.846 257.594 224.451 257.046 223.873L255.813 225.201ZM271.151 223.715L269.6 222.694C269.22 223.306 268.489 223.755 267.612 223.832C266.353 223.942 265.375 223.417 265.053 221.936L270.679 221.443C270.719 221.167 270.747 220.747 270.708 220.301C270.524 218.197 268.925 216.811 266.693 217.006C264.063 217.236 262.737 219.328 262.945 221.703C263.149 224.046 264.934 225.897 267.787 225.648C269.301 225.515 270.49 224.785 271.151 223.715ZM266.791 218.668C267.922 218.569 268.583 219.33 268.686 220.14L264.988 220.464C265.119 219.392 265.755 218.758 266.791 218.668ZM273.295 215.336C274.012 215.274 274.549 214.616 274.486 213.899C274.423 213.182 273.78 212.628 273.063 212.69C272.346 212.753 271.793 213.412 271.856 214.129C271.919 214.846 272.577 215.399 273.295 215.336ZM273.1 224.862L275.124 224.684L274.422 216.651L272.397 216.828L273.1 224.862ZM277.552 224.472L279.576 224.295L278.53 212.341L276.506 212.518L277.552 224.472ZM282.004 224.083L284.028 223.905L282.982 211.951L280.958 212.128L282.004 224.083ZM293.737 221.739L292.186 220.718C291.806 221.33 291.074 221.779 290.197 221.856C288.938 221.966 287.961 221.441 287.638 219.96L293.265 219.468C293.305 219.191 293.333 218.771 293.293 218.325C293.109 216.221 291.511 214.835 289.279 215.03C286.649 215.26 285.322 217.352 285.53 219.727C285.735 222.07 287.519 223.921 290.372 223.672C291.887 223.539 293.075 222.809 293.737 221.739ZM289.376 216.692C290.508 216.593 291.169 217.354 291.272 218.164L287.574 218.488C287.705 217.416 288.34 216.783 289.376 216.692ZM295.686 222.886L297.71 222.708L297.26 217.56C297.518 217.024 298.108 216.426 299.096 216.339C299.463 216.307 299.738 216.331 299.998 216.373L299.824 214.38C299.627 214.333 299.384 214.307 299.113 214.33C298.205 214.41 297.555 214.884 297.077 215.472L297.007 214.675L294.983 214.852L295.686 222.886Z" fill="#3B69D1"/>
<path d="M63.1491 209.1L287.293 189.49L287.119 187.498L62.9748 207.108L63.1491 209.1ZM291.999 243.284L67.8555 262.895L68.0298 264.887L292.174 245.277L291.999 243.284ZM67.8555 262.895C53.0005 264.194 39.9047 253.205 38.605 238.35L36.6126 238.525C38.0085 254.48 52.0745 266.283 68.0298 264.887L67.8555 262.895ZM316.543 214.034C317.843 228.889 306.854 241.985 291.999 243.284L292.174 245.277C308.129 243.881 319.932 229.815 318.536 213.86L316.543 214.034ZM287.293 189.49C302.148 188.19 315.244 199.179 316.543 214.034L318.536 213.86C317.14 197.904 303.074 186.102 287.119 187.498L287.293 189.49ZM62.9748 207.108C47.0194 208.504 35.2167 222.569 36.6126 238.525L38.605 238.35C37.3054 223.496 48.2941 210.4 63.1491 209.1L62.9748 207.108Z" fill="#3B69D1"/>
</g>
</g>
<defs>
<filter id="filter0_d_1112_1381" x="-11" y="104.667" width="387.26" height="209.998" filterUnits="userSpaceOnUse" color-interpolation-filters="sRGB">
<feFlood flood-opacity="0" result="BackgroundImageFix"/>
<feColorMatrix in="SourceAlpha" type="matrix" values="0 0 0 0 0 0 0 0 0 0 0 0 0 0 0 0 0 0 127 0" result="hardAlpha"/>
<feOffset dy="6"/>
<feGaussianBlur stdDeviation="12.5"/>
<feComposite in2="hardAlpha" operator="out"/>
<feColorMatrix type="matrix" values="0 0 0 0 0.196078 0 0 0 0 0.196078 0 0 0 0 0.196078 0 0 0 0.1 0"/>
<feBlend mode="normal" in2="BackgroundImageFix" result="effect1_dropShadow_1112_1381"/>
<feBlend mode="normal" in="SourceGraphic" in2="effect1_dropShadow_1112_1381" result="shape"/>
</filter>
<clipPath id="clip0_1112_1381">
<rect width="384" height="384" fill="white"/>
</clipPath>
</defs>
</svg>
