<svg width="22" height="28" viewBox="0 0 22 28" fill="none" xmlns="http://www.w3.org/2000/svg">
    <path
        d="M7.00004 21.9998H15C15.3778 21.9998 15.6947 21.8718 15.9507 21.6158C16.2058 21.3607 16.3334 21.0443 16.3334 20.6665C16.3334 20.2887 16.2058 19.9723 15.9507 19.7172C15.6947 19.4612 15.3778 19.3332 15 19.3332H7.00004C6.62226 19.3332 6.30582 19.4612 6.05071 19.7172C5.79471 19.9723 5.66671 20.2887 5.66671 20.6665C5.66671 21.0443 5.79471 21.3607 6.05071 21.6158C6.30582 21.8718 6.62226 21.9998 7.00004 21.9998ZM7.00004 16.6665H15C15.3778 16.6665 15.6947 16.5385 15.9507 16.2825C16.2058 16.0274 16.3334 15.7109 16.3334 15.3332C16.3334 14.9554 16.2058 14.6385 15.9507 14.3825C15.6947 14.1274 15.3778 13.9998 15 13.9998H7.00004C6.62226 13.9998 6.30582 14.1274 6.05071 14.3825C5.79471 14.6385 5.66671 14.9554 5.66671 15.3332C5.66671 15.7109 5.79471 16.0274 6.05071 16.2825C6.30582 16.5385 6.62226 16.6665 7.00004 16.6665ZM3.00004 27.3332C2.26671 27.3332 1.63915 27.0723 1.11737 26.5505C0.594707 26.0278 0.333374 25.3998 0.333374 24.6665V3.33317C0.333374 2.59984 0.594707 1.97184 1.11737 1.44917C1.63915 0.927393 2.26671 0.666504 3.00004 0.666504H12.5667C12.9223 0.666504 13.2614 0.733171 13.584 0.866504C13.9058 0.999837 14.1889 1.18873 14.4334 1.43317L20.9 7.89984C21.1445 8.14428 21.3334 8.42739 21.4667 8.74917C21.6 9.07184 21.6667 9.41095 21.6667 9.7665V24.6665C21.6667 25.3998 21.4058 26.0278 20.884 26.5505C20.3614 27.0723 19.7334 27.3332 19 27.3332H3.00004ZM12.3334 8.6665C12.3334 9.04428 12.4614 9.36073 12.7174 9.61584C12.9725 9.87184 13.2889 9.99984 13.6667 9.99984H19L12.3334 3.33317V8.6665Z"
        fill="#3B69D1" />
</svg>
