<svg width="387" height="384" viewBox="0 0 387 384" fill="none" xmlns="http://www.w3.org/2000/svg">
<g clip-path="url(#clip0_1129_1287)">
<rect x="34.5417" y="109.954" width="326" height="150.284" rx="11.5" transform="rotate(-5 34.5417 109.954)" fill="#F1F1F1" stroke="#878787" stroke-dasharray="5 5"/>
<g filter="url(#filter0_d_1129_1287)">
<g clip-path="url(#clip1_1129_1287)">
<rect x="15.8192" y="131.254" width="328" height="152" rx="16" transform="rotate(-5 15.8192 131.254)" fill="white"/>
<path d="M34.5473 161.738C33.7772 152.935 40.289 145.174 49.0919 144.404L101.89 139.785C110.693 139.015 118.454 145.527 119.224 154.33V154.33C119.994 163.133 113.482 170.893 104.679 171.663L51.8809 176.282C43.078 177.053 35.3175 170.541 34.5473 161.738V161.738Z" fill="#F4E5FF"/>
<path d="M48.6457 166.527L49.9567 166.413L49.2429 158.254L55.4796 165.929L57.195 165.779L56.3409 156.017L55.0299 156.131L55.7437 164.29L49.507 156.615L47.7915 156.765L48.6457 166.527ZM62.5116 157.95C60.2383 158.149 58.8567 160.027 59.0361 162.077C59.2154 164.127 60.9021 165.736 63.1754 165.537C65.4348 165.34 66.8304 163.461 66.651 161.411C66.4716 159.36 64.771 157.752 62.5116 157.95ZM63.0918 164.42C61.5855 164.552 60.4055 163.433 60.2773 161.968C60.1492 160.504 61.117 159.196 62.6232 159.065C64.0876 158.937 65.2677 160.056 65.3958 161.52C65.5227 162.971 64.5562 164.292 63.0918 164.42ZM73.496 161.318C73.6168 162.698 72.9332 163.559 71.7617 163.662C70.5623 163.767 69.7536 163.036 69.6328 161.656L69.2814 157.639L68.0959 157.743L68.4436 161.717C68.6279 163.823 69.9486 164.945 71.8454 164.779C73.7561 164.611 74.8621 163.278 74.6778 161.172L74.3301 157.197L73.1446 157.301L73.496 161.318ZM75.6609 157.081L79.0234 163.87L80.5854 163.733L82.7179 156.463L81.4348 156.576L79.6958 162.56L76.944 156.969L75.6609 157.081ZM90.8238 161.671L89.8853 161.064C89.48 161.732 88.7495 162.218 87.843 162.297C86.3368 162.429 85.1738 161.505 84.9843 159.821L90.3817 159.348C90.4065 159.15 90.4251 158.881 90.4007 158.602C90.2494 156.873 88.891 155.642 86.9803 155.809C84.8046 156 83.583 157.779 83.7697 159.913C83.9491 161.963 85.566 163.578 87.937 163.371C89.248 163.256 90.2452 162.607 90.8238 161.671ZM87.0403 156.816C88.2815 156.707 89.0685 157.51 89.2006 158.538L84.9887 158.907C85.1336 157.671 85.8827 156.917 87.0403 156.816ZM94.654 162.699C95.5606 162.62 96.4457 162.135 96.9159 161.405L96.994 162.297L98.1794 162.194L97.767 157.48C97.6316 155.932 96.4801 154.978 94.6949 155.134C93.4676 155.242 92.5225 155.845 91.9821 156.735L92.9345 157.34C93.3143 156.703 93.9369 156.269 94.7458 156.198C95.75 156.11 96.4961 156.607 96.5815 157.583L96.6242 158.072L94.2875 158.669C92.8171 159.051 92.0741 159.875 92.1668 160.935C92.2718 162.134 93.2733 162.82 94.654 162.699ZM93.3626 160.788C93.3101 160.188 93.7046 159.718 94.6523 159.467L96.6999 158.936L96.8207 160.317C96.4263 161.11 95.6983 161.624 94.7639 161.705C93.941 161.777 93.4151 161.388 93.3626 160.788ZM105.189 158.545C105.31 159.926 104.627 160.786 103.455 160.889C102.256 160.994 101.447 160.264 101.326 158.883L100.975 154.866L99.7893 154.97L100.137 158.945C100.321 161.051 101.642 162.172 103.539 162.006C105.449 161.839 106.555 160.505 106.371 158.399L106.023 154.424L104.838 154.528L105.189 158.545Z" fill="#950EFF"/>
<path d="M38.7254 204.537L40.3193 204.397L41.3231 201.001L46.4555 200.552L48.0338 203.722L49.6277 203.583L44.2046 192.814L42.1962 192.99L38.7254 204.537ZM41.7042 199.666L43.3147 194.209L45.8484 199.304L41.7042 199.666ZM49.6489 195.486L49.7562 196.713L51.2705 196.581L51.8659 203.387L53.2367 203.267L52.6412 196.461L55.4306 196.217L55.3232 194.99L52.5338 195.234L52.4446 194.214C52.3526 193.162 52.9039 192.487 53.8124 192.407C54.2746 192.367 54.6538 192.478 54.9761 192.675L55.4828 191.49C55.0142 191.274 54.4063 191.119 53.6731 191.183C51.9198 191.336 50.9274 192.66 51.0766 194.365L51.1631 195.354L49.6489 195.486ZM56.1397 194.918L56.2471 196.145L57.7613 196.013L58.3567 202.819L59.7275 202.699L59.1321 195.893L61.9214 195.649L61.814 194.422L59.0247 194.666L58.9354 193.646C58.8434 192.594 59.3947 191.919 60.3032 191.84C60.7655 191.799 61.1446 191.911 61.467 192.107L61.9737 190.923C61.505 190.707 60.8972 190.551 60.164 190.615C58.4107 190.768 57.4182 192.092 57.5675 193.797L57.6539 194.786L56.1397 194.918ZM63.9673 192.129C64.4933 192.083 64.8701 191.617 64.824 191.091C64.7794 190.581 64.3273 190.187 63.8014 190.233C63.2754 190.279 62.8827 190.747 62.9273 191.257C62.9733 191.783 63.4413 192.175 63.9673 192.129ZM64.1674 202.311L65.5222 202.192L64.8194 194.159L63.4646 194.277L64.1674 202.311ZM71.9999 200.662C70.2625 200.814 68.9181 199.582 68.7675 197.861C68.6183 196.155 69.727 194.693 71.4485 194.543C72.4526 194.455 73.3074 194.862 73.8628 195.52L74.8596 194.613C74.024 193.691 72.7874 193.14 71.3369 193.267C68.6751 193.5 67.1439 195.642 67.3489 197.985C67.5539 200.328 69.4337 202.171 72.0955 201.938C73.5619 201.81 74.6697 201.071 75.331 200.001L74.1919 199.281C73.7592 200.026 72.9881 200.575 71.9999 200.662ZM77.3047 201.161L78.6596 201.043L78.1729 195.48C78.6104 194.607 79.2677 193.858 80.4472 193.755C81.7064 193.645 82.5759 194.404 82.7014 195.839L83.1225 200.652L84.4773 200.534L84.052 195.672C83.8526 193.393 82.4077 192.299 80.6066 192.456C79.4112 192.561 78.627 193.144 78.0362 193.918L77.6137 189.088L76.2589 189.207L77.3047 201.161ZM94.2294 198.348L93.1569 197.654C92.6937 198.418 91.8589 198.972 90.8228 199.063C89.1014 199.214 87.7723 198.158 87.5557 196.233L93.7242 195.693C93.7525 195.466 93.7738 195.159 93.7459 194.84C93.573 192.864 92.0205 191.458 89.8369 191.649C87.3504 191.866 85.9543 193.9 86.1676 196.338C86.3726 198.682 88.2205 200.528 90.9302 200.29C92.4285 200.159 93.5681 199.417 94.2294 198.348ZM89.9054 192.799C91.324 192.675 92.2233 193.592 92.3743 194.768L87.5607 195.189C87.7263 193.777 88.5824 192.915 89.9054 192.799ZM96.4659 199.485L97.8207 199.366L97.3383 193.851C97.7612 192.995 98.3992 192.393 99.4512 192.301C99.77 192.273 100.012 192.284 100.257 192.327L100.141 191.004C99.9439 190.957 99.7021 190.946 99.447 190.969C98.4269 191.058 97.7342 191.584 97.2058 192.337L97.1179 191.333L95.7631 191.452L96.4659 199.485ZM112.391 194.622C112.529 196.2 111.747 197.184 110.409 197.301C109.038 197.421 108.114 196.587 107.975 195.009L107.574 190.418L106.219 190.537L106.616 195.079C106.827 197.486 108.336 198.768 110.504 198.578C112.688 198.387 113.952 196.863 113.741 194.456L113.344 189.913L111.989 190.032L112.391 194.622ZM116.717 197.713L118.072 197.595L117.585 192.032C118.021 191.143 118.696 190.409 119.859 190.307C121.102 190.198 121.988 190.956 122.113 192.391L122.534 197.204L123.889 197.086L123.464 192.224C123.265 189.945 121.82 188.851 120.019 189.008C118.823 189.113 118.039 189.695 117.448 190.47L117.369 189.561L116.014 189.68L116.717 197.713ZM126.416 186.666C126.942 186.62 127.319 186.153 127.273 185.627C127.228 185.117 126.776 184.723 126.25 184.769C125.724 184.815 125.332 185.283 125.376 185.793C125.422 186.319 125.89 186.712 126.416 186.666ZM126.616 196.847L127.971 196.729L127.268 188.695L125.914 188.814L126.616 196.847ZM129.798 192.521C130.003 194.864 131.787 196.716 134.305 196.496C135.501 196.391 136.401 195.847 137.046 194.955L137.474 199.848L138.828 199.73L137.783 187.775L136.428 187.894L136.513 188.866C135.723 188.1 134.742 187.72 133.547 187.825C131.028 188.045 129.593 190.178 129.798 192.521ZM131.216 192.397C131.067 190.692 132.112 189.235 133.802 189.087C134.918 188.99 135.936 189.431 136.643 190.349L136.916 193.473C136.394 194.482 135.469 195.109 134.337 195.208C132.648 195.356 131.366 194.103 131.216 192.397ZM146.65 191.625C146.788 193.203 146.007 194.187 144.668 194.304C143.298 194.424 142.373 193.589 142.235 192.011L141.834 187.421L140.479 187.539L140.876 192.082C141.087 194.489 142.596 195.77 144.764 195.581C146.948 195.39 148.212 193.866 148.001 191.459L147.604 186.916L146.249 187.035L146.65 191.625ZM158.001 192.768L156.929 192.075C156.466 192.838 155.631 193.393 154.595 193.484C152.873 193.634 151.544 192.578 151.328 190.654L157.496 190.114C157.524 189.887 157.546 189.58 157.518 189.261C157.345 187.285 155.793 185.878 153.609 186.07C151.122 186.287 149.726 188.32 149.94 190.759C150.145 193.102 151.993 194.948 154.702 194.711C156.2 194.58 157.34 193.838 158.001 192.768ZM153.677 187.22C155.096 187.096 155.995 188.013 156.146 189.188L151.333 189.609C151.498 188.198 152.354 187.336 153.677 187.22ZM160.238 193.906L161.593 193.787L161.106 188.224C161.496 187.355 162.121 186.61 163.221 186.513C164.385 186.412 165.185 187.113 165.302 188.451L165.737 193.424L167.092 193.306L166.653 188.285C166.636 188.094 166.604 187.92 166.573 187.746C167.017 186.76 167.684 186.123 168.704 186.034C169.852 185.933 170.668 186.633 170.785 187.972L171.22 192.945L172.575 192.826L172.136 187.805C171.945 185.622 170.585 184.584 168.863 184.735C167.477 184.856 166.691 185.6 166.13 186.532C165.546 185.555 164.544 185.113 163.38 185.215C162.265 185.312 161.511 185.876 160.967 186.63L160.89 185.754L159.535 185.872L160.238 193.906ZM182.33 190.64L181.258 189.947C180.795 190.71 179.96 191.265 178.924 191.355C177.202 191.506 175.873 190.45 175.657 188.525L181.825 187.986C181.853 187.758 181.875 187.451 181.847 187.132C181.674 185.156 180.121 183.75 177.938 183.941C175.451 184.159 174.055 186.192 174.269 188.631C174.474 190.974 176.322 192.82 179.031 192.583C180.529 192.452 181.669 191.709 182.33 190.64ZM178.006 185.091C179.425 184.967 180.324 185.884 180.475 187.06L175.662 187.481C175.827 186.069 176.683 185.207 178.006 185.091ZM184.567 191.777L185.922 191.659L185.435 186.096C185.871 185.206 186.546 184.473 187.709 184.371C188.953 184.262 189.838 185.02 189.964 186.454L190.385 191.268L191.739 191.15L191.314 186.288C191.115 184.009 189.67 182.915 187.869 183.072C186.673 183.177 185.889 183.759 185.298 184.534L185.219 183.625L183.864 183.744L184.567 191.777ZM194.693 188.177C194.865 190.137 195.947 190.942 197.732 190.786C198.306 190.736 198.731 190.634 199.099 190.441L198.993 189.23C198.702 189.384 198.341 189.48 197.815 189.526C196.842 189.611 196.174 189.316 196.064 188.057L195.704 183.945L198.493 183.701L198.386 182.473L195.597 182.717L195.421 180.709L194.05 180.829L194.226 182.837L192.712 182.97L192.819 184.197L194.333 184.065L194.693 188.177ZM41.8213 228.357L43.1761 228.239L42.1302 216.284L40.7754 216.403L41.8213 228.357ZM53.0645 226.041L51.992 225.347C51.5288 226.111 50.6939 226.666 49.6579 226.756C47.9365 226.907 46.6074 225.851 46.3908 223.926L52.5593 223.387C52.5876 223.159 52.6089 222.852 52.581 222.533C52.4081 220.557 50.8556 219.151 48.672 219.342C46.1855 219.56 44.7894 221.593 45.0027 224.032C45.2077 226.375 47.0556 228.221 49.7653 227.984C51.2636 227.852 52.4032 227.11 53.0645 226.041ZM48.7405 220.492C50.1591 220.368 51.0584 221.285 51.2094 222.461L46.3958 222.882C46.5614 221.47 47.4175 220.608 48.7405 220.492ZM54.2818 226.159C55.0945 227.003 56.1433 227.426 57.4184 227.314C58.9167 227.183 60.0299 226.138 59.9147 224.638C59.6749 221.897 55.6925 222.823 55.5349 221.022C55.4805 220.401 55.8981 219.85 56.7588 219.775C57.4602 219.713 58.0993 220.043 58.5827 220.611L59.4533 219.732C58.8271 219 57.7915 218.544 56.6439 218.645C55.0978 218.78 54.1205 219.909 54.2307 221.168C54.4789 224.006 58.4398 223.017 58.5973 224.818C58.6587 225.519 58.1961 226.106 57.3035 226.184C56.4906 226.255 55.7863 225.915 55.167 225.262L54.2818 226.159ZM69.5369 217.517C66.9388 217.744 65.3598 219.89 65.5648 222.233C65.7698 224.576 67.6974 226.415 70.2955 226.187C72.8776 225.962 74.4726 223.814 74.2676 221.471C74.0626 219.128 72.119 217.291 69.5369 217.517ZM70.1999 224.911C68.4784 225.061 67.1298 223.782 66.9834 222.109C66.837 220.435 67.943 218.941 69.6644 218.79C71.338 218.644 72.6866 219.923 72.833 221.597C72.9781 223.254 71.8735 224.764 70.1999 224.911ZM74.9177 217.367L75.0251 218.594L76.5393 218.462L77.1347 225.268L78.5055 225.148L77.9101 218.342L80.6994 218.098L80.592 216.871L77.8027 217.115L77.7134 216.094C77.6214 215.043 78.1727 214.368 79.0812 214.288C79.5435 214.248 79.9226 214.359 80.245 214.556L80.7517 213.371C80.283 213.155 79.6752 213 78.942 213.064C77.1887 213.217 76.1962 214.541 76.3455 216.246L76.4319 217.235L74.9177 217.367ZM81.4085 216.799L81.5159 218.026L83.0301 217.894L83.6256 224.7L84.9963 224.58L84.4009 217.774L87.1902 217.53L87.0829 216.303L84.2935 216.547L84.2043 215.527C84.1122 214.475 84.6635 213.8 85.5721 213.721C86.0343 213.68 86.4134 213.791 86.7358 213.988L87.2425 212.803C86.7739 212.587 86.166 212.432 85.4328 212.496C83.6795 212.649 82.6871 213.973 82.8363 215.678L82.9227 216.667L81.4085 216.799ZM89.0938 224.222L90.4486 224.103L89.9661 218.588C90.3891 217.732 91.0271 217.13 92.0791 217.038C92.3979 217.01 92.6397 217.021 92.8844 217.064L92.7687 215.741C92.5718 215.694 92.3299 215.683 92.0749 215.705C91.0548 215.795 90.3621 216.321 89.8337 217.074L89.7458 216.07L88.391 216.188L89.0938 224.222ZM101.971 221.762L100.899 221.069C100.436 221.832 99.6009 222.387 98.5648 222.477C96.8434 222.628 95.5143 221.572 95.2978 219.647L101.466 219.108C101.494 218.88 101.516 218.573 101.488 218.255C101.315 216.278 99.7626 214.872 97.5789 215.063C95.0924 215.281 93.6963 217.314 93.9097 219.753C94.1146 222.096 95.9626 223.942 98.6722 223.705C100.17 223.574 101.31 222.832 101.971 221.762ZM97.6474 216.214C99.066 216.089 99.9654 217.007 100.116 218.182L95.3027 218.603C95.4683 217.191 96.3245 216.329 97.6474 216.214ZM103.189 221.88C104.001 222.725 105.05 223.147 106.325 223.035C107.824 222.904 108.937 221.859 108.822 220.359C108.582 217.618 104.599 218.545 104.442 216.743C104.387 216.122 104.805 215.571 105.666 215.496C106.367 215.435 107.006 215.764 107.49 216.332L108.36 215.453C107.734 214.721 106.698 214.265 105.551 214.366C104.005 214.501 103.027 215.63 103.138 216.89C103.386 219.727 107.347 218.738 107.504 220.539C107.566 221.24 107.103 221.827 106.21 221.905C105.398 221.976 104.693 221.636 104.074 220.984L103.189 221.88ZM114.472 217.954C114.677 220.297 116.461 222.148 118.979 221.928C120.175 221.824 121.075 221.279 121.721 220.403L121.804 221.36L123.159 221.241L122.113 209.287L120.759 209.405L121.185 214.283C120.397 213.533 119.416 213.153 118.221 213.257C115.702 213.478 114.267 215.611 114.472 217.954ZM115.906 217.828C115.757 216.123 116.786 214.668 118.492 214.518C119.591 214.422 120.61 214.863 121.315 215.765L121.591 218.921C121.084 219.913 120.143 220.541 119.027 220.639C117.322 220.788 116.055 219.534 115.906 217.828ZM129.281 211.326L130.915 208.517L129.385 208.651L127.958 211.442L129.281 211.326ZM133.04 219.044L131.968 218.351C131.505 219.114 130.67 219.669 129.634 219.759C127.912 219.91 126.583 218.854 126.367 216.929L132.535 216.39C132.563 216.162 132.585 215.855 132.557 215.536C132.384 213.56 130.831 212.154 128.648 212.345C126.161 212.563 124.765 214.596 124.978 217.035C125.183 219.378 127.031 221.224 129.741 220.987C131.239 220.856 132.379 220.113 133.04 219.044ZM128.716 213.495C130.135 213.371 131.034 214.288 131.185 215.464L126.372 215.885C126.537 214.473 127.393 213.611 128.716 213.495ZM143.262 215.435C143.057 213.092 141.272 211.24 138.754 211.461C137.559 211.565 136.659 212.11 136.012 212.986L135.586 208.108L134.231 208.227L135.277 220.181L136.632 220.063L136.548 219.106C137.336 219.856 138.317 220.236 139.513 220.132C142.031 219.911 143.467 217.778 143.262 215.435ZM138.706 212.75C140.412 212.601 141.694 213.854 141.843 215.559C141.992 217.265 140.947 218.721 139.242 218.871C138.142 218.967 137.124 218.526 136.418 217.624L136.142 214.468C136.65 213.476 137.59 212.848 138.706 212.75ZM151.108 215.327C151.246 216.905 150.465 217.889 149.126 218.006C147.755 218.126 146.831 217.291 146.693 215.713L146.291 211.123L144.936 211.241L145.334 215.784C145.544 218.191 147.054 219.472 149.222 219.282C151.405 219.091 152.669 217.567 152.459 215.16L152.061 210.618L150.706 210.736L151.108 215.327ZM155.723 215.678C155.895 217.638 156.977 218.443 158.762 218.287C159.336 218.237 159.761 218.135 160.129 217.943L160.023 216.731C159.731 216.885 159.37 216.981 158.844 217.027C157.872 217.112 157.204 216.817 157.094 215.558L156.734 211.446L159.523 211.202L159.416 209.974L156.627 210.218L156.451 208.21L155.08 208.33L155.256 210.338L153.742 210.471L153.849 211.698L155.363 211.566L155.723 215.678ZM164.393 217.859C165.429 217.768 166.44 217.214 166.978 216.38L167.067 217.4L168.422 217.281L167.95 211.894C167.796 210.125 166.48 209.035 164.439 209.214C163.037 209.336 161.957 210.025 161.339 211.043L162.428 211.735C162.862 211.006 163.573 210.51 164.498 210.429C165.645 210.329 166.498 210.897 166.596 212.012L166.644 212.57L163.974 213.254C162.293 213.69 161.444 214.631 161.55 215.843C161.67 217.213 162.815 217.997 164.393 217.859ZM162.917 215.675C162.857 214.99 163.308 214.452 164.391 214.165L166.731 213.558L166.869 215.136C166.418 216.043 165.586 216.63 164.518 216.723C163.578 216.806 162.977 216.36 162.917 215.675ZM171.14 217.043L172.495 216.925L172.008 211.362C172.444 210.473 173.119 209.739 174.282 209.637C175.526 209.529 176.411 210.286 176.536 211.721L176.958 216.534L178.312 216.416L177.887 211.555C177.688 209.275 176.243 208.181 174.442 208.339C173.246 208.443 172.462 209.026 171.871 209.8L171.792 208.892L170.437 209.01L171.14 217.043ZM181.266 213.443C181.438 215.404 182.52 216.208 184.305 216.052C184.879 216.002 185.304 215.901 185.672 215.708L185.566 214.496C185.275 214.65 184.913 214.746 184.387 214.792C183.415 214.877 182.747 214.582 182.637 213.323L182.277 209.211L185.066 208.967L184.959 207.74L182.17 207.984L181.994 205.975L180.623 206.095L180.799 208.104L179.285 208.236L179.392 209.463L180.906 209.331L181.266 213.443ZM186.776 214.567C187.588 215.412 188.637 215.834 189.912 215.722C191.411 215.591 192.524 214.546 192.409 213.047C192.169 210.305 188.186 211.232 188.029 209.431C187.974 208.809 188.392 208.258 189.253 208.183C189.954 208.122 190.593 208.451 191.077 209.019L191.947 208.14C191.321 207.408 190.285 206.952 189.138 207.053C187.592 207.188 186.614 208.318 186.725 209.577C186.973 212.414 190.934 211.425 191.091 213.226C191.153 213.927 190.69 214.514 189.797 214.592C188.984 214.663 188.28 214.323 187.661 213.671L186.776 214.567ZM46.1162 252.298C47.1522 252.208 48.1638 251.653 48.7011 250.819L48.7904 251.839L50.1452 251.721L49.6738 246.333C49.5191 244.564 48.2031 243.475 46.1629 243.653C44.7603 243.776 43.6802 244.465 43.0625 245.482L44.151 246.174C44.5851 245.446 45.2966 244.95 46.2211 244.869C47.3687 244.768 48.2214 245.336 48.319 246.452L48.3678 247.01L45.6972 247.693C44.0168 248.129 43.1677 249.071 43.2737 250.282C43.3936 251.653 44.5382 252.436 46.1162 252.298ZM44.6402 250.114C44.5803 249.429 45.0312 248.892 46.1142 248.604L48.4543 247.998L48.5923 249.576C48.1417 250.483 47.3096 251.069 46.2417 251.163C45.3013 251.245 44.7002 250.8 44.6402 250.114ZM56.4774 250.203C54.74 250.355 53.3956 249.124 53.245 247.402C53.0958 245.697 54.2045 244.235 55.926 244.084C56.9301 243.996 57.7849 244.403 58.3403 245.061L59.3371 244.155C58.5015 243.232 57.2649 242.682 55.8144 242.809C53.1526 243.042 51.6214 245.183 51.8264 247.526C52.0314 249.869 53.9112 251.713 56.573 251.48C58.0394 251.351 59.1472 250.612 59.8085 249.542L58.6694 248.823C58.2367 249.567 57.4656 250.117 56.4774 250.203ZM65.0851 249.45C63.3478 249.602 62.0033 248.371 61.8527 246.649C61.7035 244.944 62.8123 243.481 64.5337 243.331C65.5379 243.243 66.3926 243.65 66.9481 244.308L67.9449 243.402C67.1093 242.479 65.8726 241.929 64.4221 242.056C61.7603 242.289 60.2291 244.43 60.4341 246.773C60.6391 249.116 62.5189 250.959 65.1808 250.727C66.6471 250.598 67.7549 249.859 68.4162 248.789L67.2772 248.07C66.8444 248.814 66.0734 249.364 65.0851 249.45ZM77.1037 248.029L76.0312 247.336C75.5679 248.099 74.7331 248.654 73.6971 248.745C71.9756 248.895 70.6465 247.839 70.43 245.915L76.5984 245.375C76.6267 245.148 76.648 244.841 76.6201 244.522C76.4472 242.546 74.8948 241.139 72.7111 241.331C70.2246 241.548 68.8285 243.581 69.0419 246.02C69.2469 248.363 71.0948 250.209 73.8044 249.972C75.3027 249.841 76.4424 249.099 77.1037 248.029ZM72.7796 242.481C74.1982 242.357 75.0976 243.274 75.2486 244.449L70.435 244.87C70.6006 243.459 71.4567 242.597 72.7796 242.481ZM79.6832 253.088L81.038 252.969L80.6113 248.092C81.3997 248.842 82.3806 249.222 83.576 249.117C86.0944 248.897 87.5299 246.764 87.3249 244.421C87.1199 242.078 85.3358 240.226 82.8174 240.446C81.6219 240.551 80.722 241.095 80.0758 241.971L79.9922 241.015L78.6373 241.133L79.6832 253.088ZM82.7695 241.735C84.475 241.586 85.7571 242.839 85.9063 244.545C86.0555 246.25 85.0105 247.707 83.305 247.856C82.2052 247.952 81.1869 247.511 80.4802 246.593L80.2069 243.469C80.7289 242.46 81.6538 241.833 82.7695 241.735ZM89.9645 245.523C90.136 247.483 91.2183 248.288 93.0035 248.132C93.5773 248.082 94.0021 247.98 94.3707 247.787L94.2647 246.576C93.973 246.73 93.612 246.826 93.086 246.872C92.1137 246.957 91.4454 246.662 91.3353 245.403L90.9755 241.291L93.7648 241.046L93.6575 239.819L90.8681 240.063L90.6924 238.055L89.3217 238.175L89.4974 240.183L87.9831 240.316L88.0905 241.543L89.6047 241.41L89.9645 245.523ZM99.5415 238.019L101.175 235.21L99.6447 235.344L98.2186 238.135L99.5415 238.019ZM103.3 245.737L102.228 245.044C101.765 245.807 100.93 246.362 99.8939 246.453C98.1724 246.603 96.8433 245.547 96.6268 243.623L102.795 243.083C102.824 242.856 102.845 242.549 102.817 242.23C102.644 240.254 101.092 238.848 98.9079 239.039C96.4214 239.256 95.0253 241.29 95.2387 243.728C95.4437 246.071 97.2916 247.917 100.001 247.68C101.5 247.549 102.639 246.807 103.3 245.737ZM98.9764 240.189C100.395 240.065 101.294 240.982 101.445 242.157L96.6318 242.578C96.7974 241.167 97.6535 240.305 98.9764 240.189ZM104.518 245.856C105.33 246.7 106.379 247.122 107.654 247.011C109.153 246.88 110.266 245.835 110.151 244.335C109.911 241.593 105.928 242.52 105.771 240.719C105.716 240.097 106.134 239.547 106.995 239.471C107.696 239.41 108.335 239.74 108.819 240.308L109.689 239.428C109.063 238.696 108.027 238.241 106.88 238.341C105.334 238.476 104.356 239.606 104.467 240.865C104.715 243.702 108.676 242.713 108.833 244.514C108.895 245.216 108.432 245.802 107.539 245.88C106.727 245.951 106.022 245.612 105.403 244.959L104.518 245.856Z" fill="#161616"/>
<path d="M235.193 183.333C234.471 175.08 240.576 167.804 248.829 167.082L268.752 165.339C277.005 164.617 284.281 170.722 285.003 178.975V178.975C285.725 187.228 279.62 194.503 271.367 195.225L251.443 196.968C243.19 197.69 235.915 191.585 235.193 183.333V183.333Z" fill="#34C759"/>
<g filter="url(#filter1_dd_1129_1287)">
<path fill-rule="evenodd" clip-rule="evenodd" d="M271.28 194.229C278.982 193.555 284.68 186.765 284.006 179.062C283.333 171.359 276.542 165.662 268.84 166.335C261.137 167.009 255.439 173.8 256.113 181.502C256.787 189.205 263.577 194.903 271.28 194.229Z" fill="white"/>
</g>
<path d="M303.242 172.842C299.751 173.147 297.613 176.065 297.892 179.252C298.171 182.44 300.783 184.942 304.273 184.637C307.748 184.333 309.886 181.415 309.607 178.228C309.328 175.04 306.716 172.538 303.242 172.842ZM304.151 183.234C301.632 183.454 299.656 181.604 299.438 179.117C299.22 176.631 300.846 174.465 303.364 174.244C305.867 174.026 307.844 175.876 308.061 178.363C308.279 180.849 306.653 183.015 304.151 183.234ZM317.635 179.677C317.773 181.255 316.992 182.239 315.653 182.356C314.282 182.476 313.358 181.642 313.22 180.064L312.818 175.473L311.463 175.592L311.861 180.134C312.071 182.541 313.581 183.823 315.748 183.633C317.932 183.442 319.196 181.918 318.985 179.511L318.588 174.968L317.233 175.087L317.635 179.677ZM321.761 172.587C322.287 172.541 322.663 172.074 322.617 171.548C322.573 171.038 322.121 170.644 321.595 170.69C321.069 170.736 320.676 171.204 320.721 171.714C320.767 172.24 321.235 172.633 321.761 172.587ZM321.961 182.768L323.316 182.65L322.613 174.616L321.258 174.735L321.961 182.768Z" fill="#161616"/>
</g>
</g>
</g>
<defs>
<filter id="filter0_d_1129_1287" x="-9.18079" y="83.667" width="390" height="230.009" filterUnits="userSpaceOnUse" color-interpolation-filters="sRGB">
<feFlood flood-opacity="0" result="BackgroundImageFix"/>
<feColorMatrix in="SourceAlpha" type="matrix" values="0 0 0 0 0 0 0 0 0 0 0 0 0 0 0 0 0 0 127 0" result="hardAlpha"/>
<feOffset dy="6"/>
<feGaussianBlur stdDeviation="12.5"/>
<feComposite in2="hardAlpha" operator="out"/>
<feColorMatrix type="matrix" values="0 0 0 0 0.196078 0 0 0 0 0.196078 0 0 0 0 0.196078 0 0 0 0.1 0"/>
<feBlend mode="normal" in2="BackgroundImageFix" result="effect1_dropShadow_1129_1287"/>
<feBlend mode="normal" in="SourceGraphic" in2="effect1_dropShadow_1129_1287" result="shape"/>
</filter>
<filter id="filter1_dd_1129_1287" x="254.059" y="165.281" width="32.0017" height="32.0017" filterUnits="userSpaceOnUse" color-interpolation-filters="sRGB">
<feFlood flood-opacity="0" result="BackgroundImageFix"/>
<feColorMatrix in="SourceAlpha" type="matrix" values="0 0 0 0 0 0 0 0 0 0 0 0 0 0 0 0 0 0 127 0" result="hardAlpha"/>
<feOffset dy="1"/>
<feGaussianBlur stdDeviation="1"/>
<feColorMatrix type="matrix" values="0 0 0 0 0 0 0 0 0 0 0 0 0 0 0 0 0 0 0.2 0"/>
<feBlend mode="normal" in2="BackgroundImageFix" result="effect1_dropShadow_1129_1287"/>
<feColorMatrix in="SourceAlpha" type="matrix" values="0 0 0 0 0 0 0 0 0 0 0 0 0 0 0 0 0 0 127 0" result="hardAlpha"/>
<feOffset dy="0.1"/>
<feGaussianBlur stdDeviation="0.15"/>
<feColorMatrix type="matrix" values="0 0 0 0 0 0 0 0 0 0 0 0 0 0 0 0 0 0 0.1 0"/>
<feBlend mode="normal" in2="effect1_dropShadow_1129_1287" result="effect2_dropShadow_1129_1287"/>
<feBlend mode="normal" in="SourceGraphic" in2="effect2_dropShadow_1129_1287" result="shape"/>
</filter>
<clipPath id="clip0_1129_1287">
<rect width="387" height="384" fill="white"/>
</clipPath>
<clipPath id="clip1_1129_1287">
<rect x="15.8192" y="131.254" width="328" height="152" rx="16" transform="rotate(-5 15.8192 131.254)" fill="white"/>
</clipPath>
</defs>
</svg>
