<svg width="10" height="13" viewBox="0 0 10 13" fill="none" xmlns="http://www.w3.org/2000/svg">
    <path
        d="M4.66667 6.59406C5.30833 6.59406 5.83333 6.06906 5.83333 5.42739C5.83333 4.78573 5.30833 4.26073 4.66667 4.26073C4.025 4.26073 3.5 4.78573 3.5 5.42739C3.5 6.06906 4.025 6.59406 4.66667 6.59406ZM4.66667 0.760727C7.11667 0.760727 9.33333 2.63906 9.33333 5.54406C9.33333 7.39906 7.90417 9.58073 5.05167 12.0949C4.83 12.2874 4.4975 12.2874 4.27583 12.0949C1.42917 9.58073 0 7.39906 0 5.54406C0 2.63906 2.21667 0.760727 4.66667 0.760727Z"
        fill="#767BA8" />
</svg>
