<svg width="15" height="16" viewBox="0 0 15 16" fill="none" xmlns="http://www.w3.org/2000/svg">
    <path d="M14.1068 6.39465L2.00442 0.368513C1.49457 0.114615 0.918562 0.226306 0.501228 0.659853C0.0838942 1.09347 -0.0906566 1.76158 0.0457497 2.40343L1.12297 7.47268H6.39717C6.63986 7.47268 6.83665 7.70879 6.83665 8.00006C6.83665 8.29129 6.63989 8.52744 6.39717 8.52744H1.12297L0.0457497 13.5967C-0.0906566 14.2385 0.0838649 14.9066 0.501228 15.3402C0.919412 15.7747 1.49548 15.885 2.00445 15.6316L14.1068 9.60547C14.6578 9.33111 15.0001 8.71594 15.0001 8.00006C15.0001 7.28417 14.6578 6.66897 14.1068 6.39465Z"
            fill="white" />
</svg>
