<svg width="29" height="29" viewBox="0 0 29 29" fill="none" xmlns="http://www.w3.org/2000/svg">
    <path d="M24.623 4.37703C21.7026 1.45661 17.5639 -0.227555 13.013 0.238279C6.43761 0.901195 1.02678 6.24036 0.292193 12.8158C-0.693224 21.5054 6.02553 28.8333 14.5001 28.8333C20.2155 28.8333 25.1247 25.4829 27.418 20.6633C27.9914 19.4629 27.1314 18.0833 25.8055 18.0833C25.1426 18.0833 24.5155 18.4416 24.2289 19.0329C22.2043 23.3866 17.3489 26.1458 12.0455 24.9633C8.06803 24.0854 4.86094 20.8424 4.01886 16.8649C2.51386 9.91328 7.79928 3.74995 14.5001 3.74995C17.4743 3.74995 20.1259 4.9862 22.0609 6.93911L19.3555 9.64453C18.2268 10.7733 19.0151 12.7083 20.6097 12.7083H27.0418C28.0272 12.7083 28.8334 11.902 28.8334 10.9166V4.48453C28.8334 2.88994 26.8984 2.0837 25.7697 3.21245L24.623 4.37703Z"
            fill="#333866" />
</svg>
