<svg width="16" height="15" viewBox="0 0 16 15" fill="none" xmlns="http://www.w3.org/2000/svg">
    <path
        d="M4.05002 7.28335L2.36669 6.58335C2.0778 6.46112 1.90558 6.25001 1.85002 5.95001C1.79447 5.65001 1.8778 5.3889 2.10002 5.16668L4.21669 3.05001C4.41669 2.85001 4.66114 2.70557 4.95002 2.61668C5.23891 2.52779 5.5278 2.51112 5.81669 2.56668L6.85002 2.76668C6.26114 3.46668 5.76936 4.14157 5.37469 4.79135C4.98047 5.44157 4.53891 6.27223 4.05002 7.28335ZM14.25 0.450012C14.3722 0.450012 14.4862 0.474901 14.592 0.524679C14.6974 0.574901 14.7945 0.644457 14.8834 0.733346C14.9722 0.822234 15.0389 0.919346 15.0834 1.02468C15.1278 1.13046 15.15 1.24446 15.15 1.36668C15.1278 2.3889 14.8889 3.41935 14.4334 4.45801C13.9778 5.49712 13.35 6.41668 12.55 7.21668C11.8834 7.88335 11.2667 8.40268 10.7 8.77468C10.1334 9.14712 9.37225 9.54446 8.41669 9.96668C8.2278 10.0556 8.03891 10.0833 7.85002 10.05C7.66114 10.0167 7.50558 9.9389 7.38336 9.81668L5.78336 8.23335C5.66114 8.11112 5.58625 7.95268 5.55869 7.75801C5.53069 7.56379 5.56114 7.37223 5.65002 7.18335C6.05002 6.2389 6.44447 5.48046 6.83336 4.90801C7.22225 4.33601 7.74447 3.72223 8.40002 3.06668C9.20002 2.26668 10.1196 1.63601 11.1587 1.17468C12.1974 0.71379 13.2278 0.472234 14.25 0.450012ZM10.1834 5.41668C10.4056 5.6389 10.6805 5.75001 11.008 5.75001C11.336 5.75001 11.6111 5.6389 11.8334 5.41668C12.0556 5.19446 12.1667 4.91935 12.1667 4.59135C12.1667 4.26379 12.0556 3.9889 11.8334 3.76668C11.6111 3.54446 11.336 3.43335 11.008 3.43335C10.6805 3.43335 10.4056 3.54446 10.1834 3.76668C9.96113 3.9889 9.85002 4.26379 9.85002 4.59135C9.85002 4.91935 9.96113 5.19446 10.1834 5.41668ZM8.30002 11.55C9.31114 11.0611 10.1445 10.6193 10.8 10.2247C11.4556 9.83046 12.1334 9.3389 12.8334 8.75001L13.0334 9.78335C13.0889 10.0722 13.0722 10.3611 12.9834 10.65C12.8945 10.9389 12.75 11.1833 12.55 11.3833L10.4334 13.5C10.2111 13.7222 9.95002 13.8056 9.65002 13.75C9.35002 13.6945 9.13891 13.5222 9.01669 13.2333L8.30002 11.55ZM2.25002 10.2C2.68336 9.76668 3.20847 9.54712 3.82536 9.54135C4.4418 9.53601 4.96669 9.75001 5.40002 10.1833C5.83336 10.6167 6.04714 11.1416 6.04136 11.758C6.03603 12.3749 5.81669 12.9 5.38336 13.3333C5.08336 13.6333 4.59447 13.8973 3.91669 14.1253C3.23891 14.3529 2.23336 14.5389 0.900024 14.6833C1.04447 13.35 1.23069 12.3445 1.45869 11.6667C1.68625 10.9889 1.95002 10.5 2.25002 10.2Z"
        fill="#161616" />
</svg>
