<svg width="22" height="19" viewBox="0 0 22 19" fill="none" xmlns="http://www.w3.org/2000/svg">
<path d="M18.5 0.5H2.5C1.4 0.5 0.5 1.4 0.5 2.5V14.5C0.5 15.6 1.4 16.5 2.5 16.5H11.5V14.5H2.5V4.5L9.44 8.84C10.09 9.25 10.91 9.25 11.56 8.84L18.5 4.5V9.5H20.5V2.5C20.5 1.4 19.6 0.5 18.5 0.5ZM10.5 7.5L2.5 2.5H18.5L10.5 7.5ZM17.5 12.71C17.5 12.26 18.04 12.04 18.35 12.36L21.14 15.15C21.34 15.35 21.34 15.66 21.14 15.86L18.35 18.65C18.04 18.96 17.5 18.74 17.5 18.29V16.5H14.5C13.95 16.5 13.5 16.05 13.5 15.5C13.5 14.95 13.95 14.5 14.5 14.5H17.5V12.71Z" fill="#333866"/>
</svg>
