<svg width="17" height="18" viewBox="0 0 17 18" fill="none" xmlns="http://www.w3.org/2000/svg">
    <path
        d="M13.7502 12.57C13.0852 12.57 12.4902 12.8325 12.0352 13.2438L5.7964 9.6125C5.84015 9.41125 5.87515 9.21 5.87515 9C5.87515 8.79 5.84015 8.58875 5.7964 8.3875L11.9652 4.79125C12.4377 5.22875 13.0589 5.5 13.7502 5.5C15.2027 5.5 16.3752 4.3275 16.3752 2.875C16.3752 1.4225 15.2027 0.25 13.7502 0.25C12.2977 0.25 11.1252 1.4225 11.1252 2.875C11.1252 3.085 11.1602 3.28625 11.2039 3.4875L5.03515 7.08375C4.56265 6.64625 3.9414 6.375 3.25015 6.375C1.79765 6.375 0.625153 7.5475 0.625153 9C0.625153 10.4525 1.79765 11.625 3.25015 11.625C3.9414 11.625 4.56265 11.3537 5.03515 10.9162L11.2652 14.5563C11.2214 14.74 11.1952 14.9325 11.1952 15.125C11.1952 16.5338 12.3414 17.68 13.7502 17.68C15.1589 17.68 16.3052 16.5338 16.3052 15.125C16.3052 13.7163 15.1589 12.57 13.7502 12.57Z"
        fill="#3B69D1" />
</svg>
