<svg width="12" height="14" viewBox="0 0 12 14" fill="none" xmlns="http://www.w3.org/2000/svg">
<path d="M6.919 13.17C5.865 13.17 4.98667 12.9717 4.284 12.575C3.59267 12.1783 3.077 11.623 2.737 10.909C2.397 10.195 2.21567 9.36767 2.193 8.427V5.673C2.21567 4.721 2.397 3.89367 2.737 3.191C3.08833 2.477 3.60967 1.92167 4.301 1.525C4.99233 1.12833 5.865 0.929999 6.919 0.929999C7.71233 0.929999 8.40367 1.032 8.993 1.236C9.59367 1.44 10.0867 1.712 10.472 2.052C10.8687 2.38067 11.169 2.75467 11.373 3.174C11.577 3.582 11.6847 3.99567 11.696 4.415C11.7073 4.517 11.6733 4.602 11.594 4.67C11.526 4.738 11.441 4.772 11.339 4.772H10.404C10.302 4.772 10.217 4.74367 10.149 4.687C10.081 4.63033 10.0243 4.52833 9.979 4.381C9.78633 3.65567 9.42367 3.14 8.891 2.834C8.36967 2.528 7.71233 2.375 6.919 2.375C5.98967 2.375 5.25867 2.64133 4.726 3.174C4.19333 3.70667 3.92133 4.568 3.91 5.758V8.342C3.92133 9.532 4.19333 10.3933 4.726 10.926C5.25867 11.4587 5.98967 11.725 6.919 11.725C7.71233 11.725 8.36967 11.572 8.891 11.266C9.42367 10.96 9.78633 10.4443 9.979 9.719C10.0243 9.57167 10.081 9.46967 10.149 9.413C10.217 9.35633 10.302 9.328 10.404 9.328H11.339C11.441 9.328 11.526 9.362 11.594 9.43C11.6733 9.498 11.7073 9.583 11.696 9.685C11.6847 10.1043 11.577 10.5237 11.373 10.943C11.169 11.351 10.8687 11.725 10.472 12.065C10.0867 12.3937 9.59367 12.66 8.993 12.864C8.40367 13.068 7.71233 13.17 6.919 13.17ZM1.122 8.954C1.00867 8.954 0.912333 8.92 0.833 8.852C0.765 8.77267 0.731 8.67633 0.731 8.563V7.968C0.731 7.85467 0.765 7.764 0.833 7.696C0.912333 7.61667 1.00867 7.577 1.122 7.577H7.293C7.40633 7.577 7.497 7.61667 7.565 7.696C7.64433 7.764 7.684 7.85467 7.684 7.968V8.563C7.684 8.67633 7.64433 8.77267 7.565 8.852C7.497 8.92 7.40633 8.954 7.293 8.954H1.122ZM1.122 6.54C1.00867 6.54 0.912333 6.506 0.833 6.438C0.765 6.35867 0.731 6.26233 0.731 6.149V5.554C0.731 5.44067 0.765 5.35 0.833 5.282C0.912333 5.20267 1.00867 5.163 1.122 5.163H7.293C7.40633 5.163 7.497 5.20267 7.565 5.282C7.64433 5.35 7.684 5.44067 7.684 5.554V6.149C7.684 6.26233 7.64433 6.35867 7.565 6.438C7.497 6.506 7.40633 6.54 7.293 6.54H1.122Z" fill="#767BA8"/>
</svg>
