<svg width="360" height="360" viewBox="0 0 360 360" fill="none" xmlns="http://www.w3.org/2000/svg">
<g clip-path="url(#clip0_1125_2710)">
<path d="M269.603 66.5443L264.058 61L249.801 75.257L235.544 61L230 66.5443L244.257 80.8013L230 95.0582L235.544 100.603L249.801 86.3457L264.058 100.603L269.603 95.0582L255.346 80.8013L269.603 66.5443Z" fill="#D31140"/>
</g>
<circle cx="118.74" cy="151.627" r="39.797" fill="white"/>
<rect x="176.627" y="210.116" width="78.388" height="78.388" transform="rotate(-30 176.627 210.116)" fill="white"/>
<g clip-path="url(#clip1_1125_2710)">
<path d="M207.155 109.555H151.023C148.993 109.558 147.048 110.365 145.613 111.8C144.178 113.235 143.371 115.18 143.368 117.21V132.519C143.368 133.195 143.637 133.844 144.116 134.323C144.594 134.801 145.243 135.07 145.92 135.07H212.258C212.935 135.07 213.584 134.801 214.062 134.323C214.541 133.844 214.81 133.195 214.81 132.519V117.21C214.807 115.18 214 113.235 212.565 111.8C211.13 110.365 209.185 109.558 207.155 109.555V109.555Z" fill="#274996"/>
<path d="M235.529 151.214C235.29 150.951 234.998 150.741 234.673 150.597C234.348 150.453 233.996 150.379 233.641 150.379H124.536C124.181 150.379 123.829 150.453 123.504 150.597C123.179 150.741 122.887 150.951 122.648 151.214C122.409 151.477 122.227 151.787 122.115 152.124C122.003 152.461 121.962 152.818 121.996 153.172L133.173 270.54C133.234 271.172 133.527 271.759 133.997 272.186C134.467 272.613 135.079 272.85 135.714 272.85H222.464C223.099 272.85 223.711 272.613 224.181 272.186C224.651 271.759 224.944 271.172 225.004 270.54L236.182 153.172C236.215 152.818 236.174 152.461 236.062 152.124C235.949 151.787 235.768 151.477 235.529 151.214Z" fill="#EEF1F8"/>
<path d="M117.853 133.967H240.324C240.934 133.967 241.427 134.461 241.427 135.07V150.379C241.427 150.988 240.934 151.482 240.324 151.482H117.853C117.244 151.482 116.75 150.988 116.75 150.379V135.07C116.75 134.461 117.244 133.967 117.853 133.967Z" fill="#3B69D1" stroke="#3B69D1" stroke-width="8"/>
<mask id="path-7-inside-1_1125_2710" fill="white">
<path d="M179.089 254.99C178.412 254.99 177.763 254.721 177.285 254.242C176.806 253.764 176.537 253.115 176.537 252.438V170.791C176.537 170.114 176.806 169.465 177.285 168.987C177.763 168.508 178.412 168.239 179.089 168.239C179.766 168.239 180.415 168.508 180.893 168.987C181.372 169.465 181.64 170.114 181.64 170.791V252.438C181.64 253.115 181.372 253.764 180.893 254.242C180.415 254.721 179.766 254.99 179.089 254.99Z"/>
</mask>
<path d="M179.089 254.99C178.412 254.99 177.763 254.721 177.285 254.242C176.806 253.764 176.537 253.115 176.537 252.438V170.791C176.537 170.114 176.806 169.465 177.285 168.987C177.763 168.508 178.412 168.239 179.089 168.239C179.766 168.239 180.415 168.508 180.893 168.987C181.372 169.465 181.64 170.114 181.64 170.791V252.438C181.64 253.115 181.372 253.764 180.893 254.242C180.415 254.721 179.766 254.99 179.089 254.99Z" fill="#3B69D1"/>
<path d="M179.089 246.99C180.534 246.99 181.92 247.564 182.942 248.586L171.628 259.899C173.607 261.878 176.291 262.99 179.089 262.99V246.99ZM182.942 248.586C183.963 249.607 184.537 250.993 184.537 252.438H168.537C168.537 255.237 169.649 257.92 171.628 259.899L182.942 248.586ZM184.537 252.438V170.791H168.537V252.438H184.537ZM184.537 170.791C184.537 172.236 183.963 173.622 182.942 174.644L171.628 163.33C169.649 165.309 168.537 167.993 168.537 170.791H184.537ZM182.942 174.644C181.92 175.665 180.534 176.239 179.089 176.239V160.239C176.291 160.239 173.607 161.351 171.628 163.33L182.942 174.644ZM179.089 176.239C177.644 176.239 176.258 175.665 175.236 174.644L186.55 163.33C184.571 161.351 181.887 160.239 179.089 160.239V176.239ZM175.236 174.644C174.214 173.622 173.64 172.236 173.64 170.791H189.64C189.64 167.993 188.529 165.309 186.55 163.33L175.236 174.644ZM173.64 170.791V252.438H189.64V170.791H173.64ZM173.64 252.438C173.64 250.993 174.214 249.607 175.236 248.586L186.55 259.899C188.529 257.92 189.64 255.237 189.64 252.438H173.64ZM175.236 248.586C176.258 247.564 177.644 246.99 179.089 246.99V262.99C181.887 262.99 184.571 261.878 186.55 259.899L175.236 248.586Z" fill="#3B69D1" mask="url(#path-7-inside-1_1125_2710)"/>
<mask id="path-9-inside-2_1125_2710" fill="white">
<path d="M202.055 254.99C202.001 254.99 201.948 254.987 201.893 254.985C201.558 254.964 201.231 254.878 200.93 254.73C200.629 254.583 200.36 254.378 200.139 254.127C199.917 253.876 199.747 253.583 199.638 253.267C199.53 252.95 199.485 252.614 199.506 252.28L204.609 170.633C204.66 169.961 204.971 169.335 205.476 168.89C205.981 168.444 206.64 168.213 207.313 168.246C207.648 168.266 207.975 168.353 208.276 168.5C208.577 168.647 208.846 168.852 209.068 169.104C209.29 169.355 209.46 169.648 209.568 169.965C209.677 170.282 209.722 170.617 209.7 170.952L204.597 252.599C204.557 253.246 204.271 253.853 203.799 254.297C203.327 254.741 202.703 254.989 202.055 254.99Z"/>
</mask>
<path d="M202.055 254.99C202.001 254.99 201.948 254.987 201.893 254.985C201.558 254.964 201.231 254.878 200.93 254.73C200.629 254.583 200.36 254.378 200.139 254.127C199.917 253.876 199.747 253.583 199.638 253.267C199.53 252.95 199.485 252.614 199.506 252.28L204.609 170.633C204.66 169.961 204.971 169.335 205.476 168.89C205.981 168.444 206.64 168.213 207.313 168.246C207.648 168.266 207.975 168.353 208.276 168.5C208.577 168.647 208.846 168.852 209.068 169.104C209.29 169.355 209.46 169.648 209.568 169.965C209.677 170.282 209.722 170.617 209.7 170.952L204.597 252.599C204.557 253.246 204.271 253.853 203.799 254.297C203.327 254.741 202.703 254.989 202.055 254.99Z" fill="#3B69D1"/>
<path d="M201.893 254.985L201.399 262.969L201.46 262.973L201.521 262.976L201.893 254.985ZM199.506 252.28L207.49 252.783L207.49 252.779L199.506 252.28ZM204.609 170.633L196.632 170.03L196.628 170.082L196.624 170.134L204.609 170.633ZM207.313 168.246L207.807 160.261L207.757 160.258L207.707 160.255L207.313 168.246ZM209.7 170.952L201.716 170.445L201.716 170.453L209.7 170.952ZM204.597 252.599L212.581 253.103L212.582 253.098L204.597 252.599ZM202.055 246.99C202.152 246.99 202.226 246.992 202.258 246.993C202.275 246.994 202.285 246.994 202.286 246.994C202.286 246.994 202.285 246.994 202.281 246.994C202.277 246.994 202.273 246.994 202.265 246.993L201.521 262.976C201.535 262.977 201.781 262.99 202.055 262.99V246.99ZM202.386 247C203.101 247.044 203.801 247.229 204.444 247.543L197.417 261.918C198.662 262.526 200.016 262.884 201.399 262.969L202.386 247ZM204.444 247.543C205.088 247.858 205.663 248.296 206.137 248.833L194.141 259.421C195.058 260.46 196.171 261.309 197.417 261.918L204.444 247.543ZM206.137 248.833C206.611 249.371 206.974 249.996 207.207 250.674L192.07 255.86C192.52 257.171 193.223 258.381 194.141 259.421L206.137 248.833ZM207.207 250.674C207.439 251.351 207.535 252.068 207.49 252.783L191.522 251.777C191.435 253.161 191.621 254.548 192.07 255.86L207.207 250.674ZM207.49 252.779L212.593 171.132L196.624 170.134L191.521 251.781L207.49 252.779ZM212.586 171.236C212.48 172.643 211.828 173.954 210.77 174.888L200.182 162.891C198.114 164.717 196.84 167.278 196.632 170.03L212.586 171.236ZM210.77 174.888C209.711 175.822 208.33 176.306 206.92 176.236L207.707 160.255C204.951 160.12 202.251 161.066 200.182 162.891L210.77 174.888ZM206.82 176.231C206.105 176.186 205.406 176.002 204.762 175.687L211.79 161.313C210.545 160.704 209.191 160.347 207.807 160.261L206.82 176.231ZM204.762 175.687C204.118 175.372 203.543 174.933 203.069 174.396L215.067 163.812C214.15 162.772 213.036 161.923 211.79 161.313L204.762 175.687ZM203.069 174.396C202.595 173.859 202.231 173.233 201.999 172.555L217.137 167.374C216.688 166.062 215.985 164.852 215.067 163.812L203.069 174.396ZM201.999 172.555C201.767 171.877 201.671 171.16 201.716 170.445L217.684 171.459C217.772 170.074 217.586 168.687 217.137 167.374L201.999 172.555ZM201.716 170.453L196.613 252.1L212.582 253.098L217.685 171.451L201.716 170.453ZM196.613 252.095C196.7 250.714 197.31 249.417 198.319 248.469L209.279 260.125C211.232 258.289 212.413 255.778 212.581 253.103L196.613 252.095ZM198.319 248.469C199.327 247.521 200.659 246.992 202.043 246.99L202.067 262.99C204.748 262.986 207.326 261.962 209.279 260.125L198.319 248.469Z" fill="#3B69D1" mask="url(#path-9-inside-2_1125_2710)"/>
<path d="M156.127 252.438L156.127 252.438L156.127 252.438ZM156.126 252.438L156.126 252.438L156.126 252.438ZM154.68 252.528L154.68 252.529L154.68 252.528Z" fill="#3B69D1" stroke="#3B69D1" stroke-width="8"/>
</g>
<defs>
<clipPath id="clip0_1125_2710">
<rect width="39.6027" height="39.6027" fill="white" transform="translate(230 61)"/>
</clipPath>
<clipPath id="clip1_1125_2710">
<rect width="163.295" height="163.295" fill="white" transform="translate(97.4417 109.555)"/>
</clipPath>
</defs>
</svg>
