<svg width="14" height="14" viewBox="0 0 14 14" fill="none" xmlns="http://www.w3.org/2000/svg">
<path d="M7.00016 0.333374C3.3335 0.333374 0.333496 3.33337 0.333496 7.00004C0.333496 10.6667 3.3335 13.6667 7.00016 13.6667C10.6668 13.6667 13.6668 10.6667 13.6668 7.00004C13.6668 3.33337 10.6668 0.333374 7.00016 0.333374ZM9.36683 9.53337L6.64683 7.86004C6.44683 7.74004 6.32683 7.52671 6.32683 7.29337V4.16671C6.3335 3.89337 6.56016 3.66671 6.8335 3.66671C7.10683 3.66671 7.3335 3.89337 7.3335 4.16671V7.13337L9.8935 8.67337C10.1335 8.82004 10.2135 9.13337 10.0668 9.37337C9.92016 9.60671 9.60683 9.68004 9.36683 9.53337Z" fill="#767BA8"/>
</svg>
