<svg width="172" height="172" viewBox="0 0 172 172" fill="none" xmlns="http://www.w3.org/2000/svg">
    <rect x="23.8889" y="35.7988" width="123.744" height="0.745445" fill="#F1F1F1" />
    <rect x="23.8889" y="60.3986" width="123.744" height="0.745449" fill="#F1F1F1" />
    <rect x="23.8889" y="86.4893" width="123.744" height="0.745461" fill="#F1F1F1" />
    <rect x="23.8889" y="111.089" width="123.744" height="0.745438" fill="#F1F1F1" />
    <rect x="23.8889" y="135.689" width="123.744" height="0.745453" fill="#F1F1F1" />
    <rect x="47.7433" y="160.289" width="148.344" height="0.745449"
        transform="rotate(-90 47.7433 160.289)" fill="#F1F1F1" />
    <rect x="72.343" y="160.289" width="148.344" height="0.745453"
        transform="rotate(-90 72.343 160.289)" fill="#F1F1F1" />
    <rect x="96.9429" y="160.289" width="148.344" height="0.745438"
        transform="rotate(-90 96.9429 160.289)" fill="#F1F1F1" />
    <rect x="123.034" y="160.289" width="148.344" height="0.745476"
        transform="rotate(-90 123.034 160.289)" fill="#F1F1F1" />
    <g clip-path="url(#clip0_198_5798)">
        <path
            d="M128.81 31.7934L126.161 29.1445L119.35 35.9561L112.538 29.1445L109.889 31.7934L116.701 38.6051L109.889 45.4167L112.538 48.0658L119.35 41.2541L126.161 48.0658L128.81 45.4167L121.999 38.6051L128.81 31.7934Z"
            fill="#FFF1ED" />
    </g>
    <ellipse cx="56.7314" cy="72.4439" rx="19.0141" ry="19.0141" fill="#FFF1ED" />
    <rect x="84.3883" y="100.389" width="37.452" height="37.452"
        transform="rotate(-30 84.3883 100.389)" fill="#FFF1ED" />
    <g clip-path="url(#clip1_198_5798)">
        <path
            d="M98.9742 52.3432H72.1553C71.1857 52.3443 70.2561 52.7299 69.5705 53.4155C68.8849 54.1011 68.4993 55.0307 68.4982 56.0003V63.3146C68.4982 63.6379 68.6266 63.9479 68.8552 64.1765C69.0839 64.4052 69.3939 64.5336 69.7172 64.5336H101.412C101.736 64.5336 102.046 64.4052 102.274 64.1765C102.503 63.9479 102.631 63.6379 102.631 63.3146V56.0003C102.63 55.0307 102.245 54.1011 101.559 53.4155C100.873 52.7299 99.9438 52.3443 98.9742 52.3432V52.3432Z"
            fill="#274996" />
        <path
            d="M112.531 72.2466C112.416 72.121 112.277 72.0207 112.122 71.952C111.966 71.8833 111.798 71.8479 111.629 71.8478H59.5006C59.3308 71.8478 59.1628 71.8833 59.0075 71.952C58.8522 72.0207 58.7129 72.121 58.5986 72.2467C58.4844 72.3723 58.3976 72.5204 58.3439 72.6816C58.2902 72.8427 58.2708 73.0133 58.2869 73.1823L63.6274 129.258C63.6561 129.56 63.7964 129.841 64.0208 130.045C64.2453 130.249 64.5377 130.362 64.8411 130.362H106.288C106.592 130.362 106.884 130.249 107.109 130.045C107.333 129.841 107.473 129.56 107.502 129.258L112.843 73.1823C112.858 73.0132 112.839 72.8427 112.785 72.6816C112.731 72.5205 112.645 72.3723 112.531 72.2466Z"
            fill="#EEF1F8" />
        <path
            d="M114.822 62.0955H56.3078C54.9613 62.0955 53.8697 63.1871 53.8697 64.5336V71.8478C53.8697 73.1944 54.9613 74.2859 56.3078 74.2859H114.822C116.168 74.2859 117.26 73.1944 117.26 71.8478V64.5336C117.26 63.1871 116.168 62.0955 114.822 62.0955Z"
            fill="#3B69D1" />
        <path
            d="M85.5648 121.828C85.2414 121.828 84.9314 121.7 84.7028 121.471C84.4742 121.243 84.3457 120.933 84.3457 120.609V81.6001C84.3457 81.2768 84.4742 80.9668 84.7028 80.7382C84.9314 80.5095 85.2414 80.3811 85.5648 80.3811C85.8881 80.3811 86.1981 80.5095 86.4267 80.7382C86.6554 80.9668 86.7838 81.2768 86.7838 81.6001V120.609C86.7838 120.933 86.6554 121.243 86.4267 121.471C86.1981 121.7 85.8881 121.828 85.5648 121.828Z"
            fill="#3B69D1" />
        <path
            d="M96.5373 121.828C96.5117 121.828 96.4861 121.827 96.4599 121.826C96.3002 121.816 96.1439 121.775 96.0001 121.705C95.8563 121.634 95.7278 121.536 95.6219 121.416C95.516 121.296 95.4347 121.157 95.3828 121.005C95.331 120.854 95.3094 120.694 95.3195 120.534L97.7576 81.5246C97.7819 81.2036 97.9305 80.9047 98.1719 80.6917C98.4132 80.4787 98.7282 80.3684 99.0498 80.3842C99.2096 80.3941 99.3659 80.4353 99.5097 80.5057C99.6536 80.576 99.7821 80.674 99.8881 80.7941C99.994 80.9142 100.075 81.054 100.127 81.2055C100.179 81.357 100.2 81.5172 100.19 81.677L97.7521 120.686C97.7326 120.995 97.5962 121.285 97.3706 121.498C97.1449 121.71 96.847 121.828 96.5373 121.828Z"
            fill="#3B69D1" />
        <path
            d="M74.5922 121.828C74.2823 121.828 73.9841 121.71 73.7584 121.498C73.5326 121.285 73.3962 120.995 73.3768 120.686L70.9387 81.6763C70.9217 81.3555 71.032 81.0409 71.2457 80.8009C71.4594 80.561 71.7592 80.4151 72.0798 80.395C72.4005 80.3749 72.7162 80.4823 72.9581 80.6937C73.2001 80.9051 73.3488 81.2035 73.3719 81.524L75.81 120.533C75.8201 120.693 75.7985 120.853 75.7466 121.005C75.6948 121.156 75.6135 121.296 75.5076 121.416C75.4017 121.536 75.2732 121.634 75.1294 121.704C74.9856 121.774 74.8293 121.816 74.6696 121.825C74.6434 121.827 74.6178 121.828 74.5922 121.828Z"
            fill="#3B69D1" />
    </g>
    <defs>
        <clipPath id="clip0_198_5798">
            <rect width="18.9213" height="18.9213" fill="white"
                transform="translate(109.889 29.1445)" />
        </clipPath>
        <clipPath id="clip1_198_5798">
            <rect width="78.0185" height="78.0185" fill="white"
                transform="translate(46.5555 52.3432)" />
        </clipPath>
    </defs>
</svg>
