<svg width="24" height="22" viewBox="0 0 24 22" fill="none" xmlns="http://www.w3.org/2000/svg">
<path d="M20.9368 1.65503C17.8568 -0.444969 14.0534 0.535031 12.0001 2.93836C9.94675 0.535031 6.14342 -0.456636 3.06342 1.65503C1.43009 2.77503 0.403419 4.66503 0.333419 6.66003C0.170086 11.1867 4.18342 14.815 10.3084 20.38L10.4251 20.485C11.3118 21.29 12.6768 21.29 13.5634 20.4734L13.6918 20.3567C19.8168 14.8034 23.8184 11.175 23.6668 6.64836C23.5968 4.66503 22.5701 2.77503 20.9368 1.65503ZM12.1168 18.6417L12.0001 18.7584L11.8834 18.6417C6.33009 13.6134 2.66675 10.2884 2.66675 6.9167C2.66675 4.58336 4.41675 2.83336 6.75009 2.83336C8.54675 2.83336 10.2968 3.98836 10.9151 5.5867H13.0968C13.7034 3.98836 15.4534 2.83336 17.2501 2.83336C19.5834 2.83336 21.3334 4.58336 21.3334 6.9167C21.3334 10.2884 17.6701 13.6134 12.1168 18.6417Z" fill="#333866"/>
</svg>
