<svg width="104" height="94" viewBox="0 0 104 94" fill="none" xmlns="http://www.w3.org/2000/svg">
<g clip-path="url(#clip0_58_145)">
<path d="M0 0H103.32V93.34H0V0Z" fill="white"/>
<path d="M26.0731 22.9273C26.2068 22.7935 26.3405 22.6596 26.462 22.5136C26.7051 22.2337 26.9482 21.9781 27.2278 21.7347C27.3129 21.6617 27.398 21.5887 27.4831 21.54C27.5074 21.5157 27.5074 21.467 27.5317 21.4426C27.4223 21.4913 27.3494 21.5765 27.2278 21.6252C27.2035 21.6252 27.1792 21.6009 27.2035 21.5765C27.2886 21.5157 27.3737 21.4548 27.4466 21.394H27.4344C27.4101 21.394 27.4101 21.3696 27.4101 21.3453C27.1062 21.2966 26.8875 21.5035 26.6808 21.686C26.6322 21.7104 26.5836 21.6617 26.5714 21.6617C26.2311 21.7712 25.9758 22.0755 25.6355 22.2093V22.1606C25.5018 22.2093 25.368 22.2945 25.2222 22.3189C25.0155 22.3675 24.8332 22.3432 24.6509 22.3432C24.3713 22.3675 24.0917 22.4284 23.8122 22.4892C23.8 22.4892 23.8 22.4892 23.7879 22.5014C23.642 22.5379 23.4961 22.5988 23.3624 22.6718L23.3138 22.7204C23.2652 22.7691 23.2166 22.83 23.1558 22.8543C23.0099 22.9273 22.9005 23.049 22.779 23.1585C22.7668 23.1707 22.7547 23.1707 22.7425 23.1707C22.621 23.2924 22.4994 23.4141 22.3779 23.5236C22.3657 23.5358 22.3292 23.5358 22.3049 23.5358C22.3049 23.5236 22.3171 23.5236 22.3171 23.5115C22.3414 23.475 22.3535 23.4506 22.3779 23.4141L22.4508 23.3046C22.4872 23.2559 22.5116 23.2072 22.548 23.1707C22.5602 23.1585 22.5602 23.1464 22.548 23.1464C22.5359 23.1342 22.5237 23.1342 22.5116 23.1342C22.621 23.0247 22.7668 22.9273 22.9005 22.8421C22.8884 22.8421 22.8641 22.83 22.8762 22.8178C22.8884 22.7935 22.9005 22.7813 22.9127 22.757C22.9127 22.7448 22.9127 22.7448 22.9248 22.7326C22.9248 22.7204 22.9127 22.7204 22.9127 22.7083L22.8033 22.7813C22.7425 22.83 22.706 22.9273 22.621 22.9273H22.5845C22.5723 22.9273 22.5602 22.9273 22.5602 22.9152V22.903C22.5602 22.8908 22.5723 22.8908 22.5723 22.8786C22.5723 22.8665 22.5845 22.8665 22.5845 22.8543C22.5845 22.8543 22.5845 22.8421 22.5966 22.8421C22.5966 22.83 22.6088 22.8178 22.6088 22.8178C22.6088 22.8056 22.621 22.8056 22.621 22.7935C22.6331 22.7813 22.6453 22.757 22.6453 22.7448C22.6453 22.7326 22.6574 22.7326 22.6574 22.7204C22.6696 22.7083 22.6696 22.6961 22.6817 22.6839C22.6939 22.6596 22.6817 22.6474 22.6696 22.6474C22.706 22.5866 22.7668 22.5501 22.8276 22.5136H22.8154C22.9005 22.4649 22.9978 22.4162 23.0829 22.3675L23.1193 22.331C22.9856 22.3797 22.8762 22.4405 22.7547 22.5136C22.7547 22.5136 22.7304 22.5257 22.7182 22.5379C22.7182 22.5379 22.6939 22.5501 22.6574 22.5136V22.5014C22.6817 22.4527 22.7547 22.4284 22.7911 22.3919C22.8154 22.3919 22.8398 22.3919 22.8398 22.4162C23.5812 21.8442 24.5901 21.9781 25.441 21.686C25.5139 21.6374 25.5747 21.5887 25.6476 21.5522C25.757 21.5035 25.8543 21.394 25.988 21.321C26.1703 21.1871 26.304 21.0167 26.3769 20.7977C26.3769 20.7733 26.3526 20.749 26.3526 20.749C26.0487 21.0654 25.7084 21.321 25.3437 21.5035C24.8575 21.7591 24.3348 21.7104 23.8243 21.7834C23.8486 21.7347 23.8973 21.7347 23.9337 21.7347C23.9337 21.6617 23.9823 21.6374 24.031 21.6009H24.1039C24.1282 21.6009 24.1282 21.5522 24.1525 21.5522C24.2011 21.5522 24.2741 21.5278 24.2498 21.5278C24.1768 21.4305 24.0431 21.6009 23.9337 21.5278C23.9823 21.4792 23.958 21.4183 24.0067 21.394H24.1039C24.1039 21.3453 24.1525 21.2966 24.1525 21.2966C24.4929 21.0897 24.8211 20.9315 25.1371 20.749C25.0642 20.749 25.0277 20.822 24.9548 20.7733C25.0034 20.7733 24.9548 20.7003 25.0034 20.7003C25.2586 20.6273 25.4653 20.4934 25.7205 20.3961C25.6233 20.3961 25.5625 20.4691 25.4653 20.3961C25.5139 20.3717 25.5382 20.3231 25.599 20.3231V20.25C25.599 20.2257 25.6233 20.2257 25.6476 20.2257C25.6233 20.2257 25.599 20.2014 25.599 20.2014C25.6233 20.1527 25.6962 20.177 25.7327 20.1283C25.7084 20.1283 25.6598 20.1283 25.6598 20.104C25.7327 20.0066 25.8421 19.9945 25.9637 19.9701C25.9393 19.9215 25.8664 19.9701 25.8664 19.9215C25.8664 19.8971 25.8907 19.8971 25.915 19.8971H25.8664C25.8178 19.8728 25.8421 19.8241 25.8421 19.7998C25.9758 19.6416 25.9758 19.4347 26.0487 19.2521C26.0244 19.2521 26.0001 19.2521 26.0001 19.2278C25.7692 19.4834 25.4045 19.5685 25.0642 19.6659H24.9061C24.7968 19.7146 24.6266 19.7146 24.5172 19.6416C24.4199 19.5929 24.3835 19.532 24.2862 19.459C24.1039 19.3495 23.9216 19.2521 23.7149 19.1791C23.1436 18.9966 22.548 18.8992 21.9524 18.9236C22.2077 18.7897 22.4872 18.7775 22.7547 18.6923C23.1436 18.5828 23.5083 18.4368 23.9216 18.4611C23.8486 18.4368 23.7636 18.4611 23.6906 18.4611C23.3746 18.4368 23.0464 18.5341 22.706 18.595C22.4751 18.6437 22.2685 18.7289 22.0375 18.7775C21.9038 18.8262 21.8309 18.9601 21.6728 18.9357V18.8627C21.9038 18.5828 22.1834 18.3151 22.548 18.2907C22.9613 18.2177 23.3503 18.2907 23.7636 18.3394C24.0674 18.3638 24.3348 18.4368 24.6387 18.4976C24.7481 18.4976 24.7724 18.6802 24.8697 18.7045C25.0034 18.7532 25.1493 18.7045 25.283 18.8019C25.283 18.7532 25.2586 18.7045 25.283 18.668C25.3802 18.5706 25.4896 18.6923 25.5868 18.6437C25.7692 18.5341 25.4288 18.3273 25.3316 18.1569C25.3316 18.1325 25.3559 18.1082 25.3559 18.1082C25.5382 18.2664 25.6719 18.449 25.9029 18.5706C26.0123 18.6193 26.2918 18.6802 26.2432 18.5463C26.1338 18.2907 25.9029 18.0839 25.7084 17.8526V17.7553C25.6598 17.7553 25.6598 17.731 25.6355 17.7066V17.6093C25.5382 17.5606 25.5625 17.4754 25.5261 17.4024C25.4531 17.2929 25.5018 17.1225 25.4531 16.9886C25.4045 16.8547 25.3802 16.7331 25.3559 16.5992C25.283 16.2098 25.1979 15.869 25.1493 15.4918C25.1006 15.0537 25.4045 14.7129 25.6112 14.3235C25.7692 14.0436 25.9515 13.7759 26.2554 13.5933C26.3283 13.3134 26.5106 13.0822 26.693 12.8632C26.8753 12.6441 27.1792 12.4981 27.398 12.4007C27.714 12.2547 28.0057 12.1695 28.0057 12.1695H12.1553V24.339H23.4232C23.8608 24.0226 24.2984 23.8765 24.9061 23.5723C25.1979 23.4506 25.8543 23.1464 26.0731 22.9273ZM22.548 21.2723C22.4994 21.2723 22.4143 21.2966 22.4386 21.2479C22.4629 21.1384 22.621 21.1384 22.7182 21.0897C22.7668 21.0654 22.8276 21.0167 22.8762 21.0411C22.9248 21.1141 22.9856 21.0897 23.0342 21.1384C22.8884 21.2723 22.706 21.2114 22.548 21.2723ZM19.023 20.7733C19.023 20.7733 18.9987 20.749 18.9987 20.7246C19.3026 20.3352 19.5214 19.9701 19.7402 19.5564C20.044 19.3982 20.2871 19.167 20.5181 18.9114C20.9071 18.4976 21.3203 18.1325 21.8066 17.9013C21.9889 17.8283 22.2198 17.8526 22.4022 17.9257C22.3292 18.023 22.2198 17.9987 22.1226 18.0595C22.0983 18.0595 22.074 18.0595 22.0497 18.0352C22.074 18.0109 22.074 17.9865 22.074 17.9622C21.843 18.2177 21.527 18.3273 21.3447 18.6315C21.2109 18.8627 21.1137 19.1548 20.822 19.2278C20.7247 19.2521 20.8463 19.1548 20.7977 19.1791C20.0805 19.6172 19.5821 20.1527 19.023 20.7733ZM20.9314 19.2521C20.9071 19.3008 20.8828 19.3008 20.8584 19.3495C20.8341 19.3982 20.8098 19.4225 20.7612 19.4469C20.7369 19.4469 20.7126 19.4469 20.7126 19.4225C20.7369 19.3252 20.8098 19.24 20.8949 19.2156C20.9314 19.2035 20.9314 19.2278 20.9314 19.2521ZM22.001 22.6961C21.9889 22.7204 21.9646 22.7448 21.9403 22.7691C21.9646 22.7691 21.9889 22.7935 21.9646 22.8056C21.916 22.8543 21.8552 22.903 21.7944 22.9273H21.7579C21.7336 22.9517 21.6972 22.976 21.6728 23.0125C21.6485 23.0369 21.5148 23.0247 21.5513 22.9882C21.6121 22.9395 21.6607 22.8786 21.7215 22.83C21.7579 22.8056 21.7944 22.7691 21.8187 22.7326C21.8309 22.7083 21.843 22.6961 21.8673 22.6839C21.9038 22.6596 22.0253 22.6474 22.001 22.6961ZM21.5878 22.5136C21.4905 22.5744 21.4054 22.6353 21.3203 22.6961C21.2231 22.757 21.1137 22.7935 21.0165 22.8421C21.0043 22.83 20.9922 22.83 20.98 22.83C20.8949 22.8786 20.822 22.9395 20.749 23.0125L20.7126 23.049L20.6761 23.0855L20.6275 23.1342C20.6153 23.1464 20.6153 23.1585 20.591 23.1707C20.5789 23.1829 20.5424 23.1829 20.5424 23.1585C20.5303 23.1707 20.5181 23.1707 20.5059 23.1829C20.4938 23.1951 20.4816 23.1951 20.4695 23.2072H20.4452C20.4209 23.2316 20.3844 23.2559 20.3601 23.2802C20.3115 23.3289 20.2628 23.3654 20.2264 23.4263V23.4384L20.2142 23.4506C20.2142 23.4506 20.2142 23.4628 20.2021 23.4628C20.2021 23.475 20.1899 23.475 20.1899 23.4871C20.1899 23.4871 20.1777 23.4993 20.1656 23.4993L20.1534 23.4871C20.1534 23.4871 20.1534 23.475 20.1413 23.475C20.1291 23.4628 20.1291 23.4506 20.117 23.4384V23.4263C20.1413 23.4019 20.1656 23.3776 20.1899 23.3411C20.2021 23.3289 20.2021 23.3167 20.2142 23.3167C20.2264 23.3046 20.2385 23.2802 20.2507 23.2681C20.2507 23.2559 20.2628 23.2559 20.2628 23.2437C20.2871 23.2072 20.3115 23.1829 20.3358 23.1464L20.3479 23.1342C20.3601 23.122 20.3722 23.0977 20.3844 23.0855C20.3965 23.0734 20.3965 23.0612 20.4087 23.0369V23.0247C20.4209 23.0003 20.4209 22.9882 20.433 22.976V22.9638C20.433 22.9517 20.433 22.9517 20.4452 22.9395C20.4452 22.9273 20.4452 22.9152 20.4573 22.903V22.8908C20.4816 22.8421 20.5181 22.8056 20.5546 22.7691H20.5424C20.5059 22.7935 20.4816 22.8178 20.4573 22.8421C20.433 22.8665 20.3844 22.83 20.4209 22.8056C20.4452 22.7935 20.4573 22.7691 20.4695 22.757C20.5059 22.7204 20.5424 22.6718 20.591 22.6353C20.6153 22.6109 20.6396 22.5988 20.664 22.5866L20.6761 22.5744C20.6883 22.5501 20.7126 22.5379 20.7247 22.5136C20.9435 22.3067 21.3203 22.3067 21.5999 22.1728C21.7093 22.1241 21.8552 22.1972 21.9646 22.1728C22.0375 22.1728 22.0983 22.1728 22.1712 22.2215C21.9646 22.258 21.7822 22.3919 21.5878 22.5136ZM22.0618 20.9072C22.0375 20.8829 22.1347 20.9072 22.1591 20.8585H21.9767C21.9524 20.8585 21.9524 20.8342 21.9524 20.8098C21.843 20.8342 21.6972 20.8829 21.5878 20.9072C21.4297 20.9559 21.2839 21.0654 21.1015 21.1141C20.8463 21.2114 20.6396 21.4183 20.3722 21.5035C20.3479 21.5035 20.3479 21.4792 20.3479 21.4548C20.3722 21.3818 20.4573 21.3575 20.5059 21.2966C20.5059 21.2723 20.5059 21.2479 20.4816 21.2479C20.664 20.9924 20.9192 20.8585 21.1502 20.6516V20.5786C21.2231 20.4813 21.3325 20.4447 21.3811 20.3231C21.4054 20.25 21.5027 20.1649 21.6121 20.1162C21.5878 20.0918 21.5391 20.0918 21.5391 20.0432C21.4419 20.0432 21.3568 20.0918 21.2596 20.0188C21.3082 19.9823 21.3568 19.958 21.4054 19.9336C21.3811 19.9336 21.369 19.9215 21.3568 19.8971C21.3325 19.8484 21.4054 19.7998 21.4662 19.7876C21.5634 19.7633 21.6728 19.7633 21.7458 19.6902C21.5878 19.6659 21.4054 19.7389 21.2353 19.6416C21.3447 19.3373 21.5391 19.0939 21.8066 18.9479C21.8309 18.9479 21.8795 18.9479 21.8795 18.9722C21.8795 19.0818 21.8066 19.1791 21.6972 19.2035C21.8795 19.2521 22.0618 19.2521 22.2441 19.3373C22.2198 19.386 22.1712 19.3617 22.1469 19.3617C22.2563 19.4347 22.4022 19.386 22.5116 19.4712C22.4386 19.5442 22.3779 19.4712 22.3049 19.4712C23.0221 19.6781 23.7757 19.8363 24.3713 20.2987C23.8608 20.5543 23.3381 20.6638 22.7911 20.7855C22.7182 20.7855 22.6817 20.7855 22.6088 20.7612C22.6088 20.7855 22.6088 20.8342 22.5845 20.8342C22.4872 20.8342 22.4265 20.8342 22.3535 20.8829C22.2685 20.9559 22.1347 20.9802 22.0618 20.9072Z" fill="#000091"/>
<path d="M45.6431 12.1695H32.5883C32.5883 12.1695 32.6126 12.1695 32.7099 12.2303C32.8193 12.2912 32.953 12.3642 33.0381 12.4007C33.2082 12.4859 33.3662 12.5954 33.4756 12.7658C33.5243 12.8388 33.585 12.9727 33.5486 13.07C33.5 13.1796 33.4756 13.3743 33.3662 13.4108C33.2325 13.4838 33.0502 13.4838 32.88 13.4595C32.7828 13.4595 32.6977 13.4351 32.6005 13.4108C32.9408 13.5446 33.269 13.715 33.5 14.0314C33.5243 14.0801 33.6094 14.1044 33.7066 14.1044C33.7309 14.1044 33.7309 14.1531 33.7309 14.1775C33.6823 14.2261 33.6337 14.2505 33.658 14.3113H33.7309C33.8403 14.2626 33.8281 14.0314 33.9862 14.1044C34.0956 14.1775 34.1442 14.3357 34.0834 14.4452C33.9862 14.5425 33.9011 14.6034 33.8038 14.6764C33.7795 14.7251 33.7795 14.7859 33.8038 14.8346C33.8768 14.932 33.9011 15.0172 33.9132 15.1145C33.9862 15.2727 34.0105 15.4553 34.0713 15.6256C34.1685 15.9664 34.2536 16.3193 34.2293 16.66C34.2293 16.8426 34.132 17.0008 34.205 17.1833C34.2536 17.3659 34.363 17.4997 34.4602 17.6701C34.5575 17.804 34.6425 17.9013 34.7155 18.0352C34.8492 18.2664 35.1044 18.4976 34.9951 18.7654C34.9221 18.9236 34.679 18.8992 34.5088 18.9966C34.3751 19.1061 34.4845 19.3008 34.5575 19.4103C34.6669 19.6172 34.4238 19.7511 34.2536 19.8119C34.3022 19.885 34.3873 19.8606 34.4116 19.9093C34.4359 20.0188 34.5453 20.0918 34.4845 20.2135C34.3873 20.3474 34.1199 20.4204 34.2536 20.6273C34.3508 20.7855 34.29 20.968 34.2293 21.1384C34.1563 21.321 33.9983 21.4426 33.816 21.4792C33.6823 21.5278 33.5121 21.5278 33.3784 21.5035C33.3298 21.4792 33.2812 21.4548 33.2447 21.4548C32.8557 21.4061 32.4668 21.2966 32.0778 21.2966C31.9684 21.321 31.8468 21.3453 31.7618 21.3818C31.6645 21.4548 31.5673 21.54 31.4822 21.6252C31.47 21.6495 31.4457 21.6617 31.4336 21.686C31.4214 21.6982 31.4092 21.7104 31.4092 21.7225L31.3849 21.7469C31.312 21.8321 31.2634 21.9173 31.2026 22.0146C31.2026 22.0268 31.1905 22.0268 31.1905 22.0268C31.1905 22.039 31.1783 22.0511 31.1661 22.0633C31.0932 22.1972 31.0324 22.3432 30.996 22.4892C30.838 23.0125 30.9109 23.4628 31.0203 23.5723C31.0446 23.5966 31.7739 23.8279 32.2844 24.0591C32.5275 24.1686 32.6856 24.2416 32.8314 24.339H45.6552V12.1695H45.6431Z" fill="#E1000F"/>
<path d="M33.3662 16.6235C33.4635 16.6479 33.5972 16.6479 33.5972 16.6965C33.5485 16.8791 33.2811 16.9278 33.1353 17.1103H33.0623C32.9894 17.159 33.0137 17.2685 32.9529 17.2685C32.88 17.2442 32.8192 17.2685 32.7463 17.2929C32.8435 17.3902 32.9529 17.4511 33.0866 17.4267C33.111 17.4267 33.1596 17.4754 33.1596 17.5241C33.1596 17.5241 33.1839 17.5241 33.2082 17.4997C33.2325 17.4997 33.2568 17.4997 33.2568 17.5241V17.6214C33.1839 17.7188 33.0745 17.6701 32.9772 17.6944C33.1596 17.7431 33.3419 17.7431 33.5121 17.6944C33.6458 17.6458 33.5121 17.4145 33.6093 17.305C33.5607 17.305 33.6093 17.232 33.5607 17.232C33.6093 17.1833 33.6579 17.1225 33.6944 17.0981C33.743 17.0981 33.8038 17.0738 33.8281 17.0251C33.8281 16.9764 33.7309 16.9521 33.7552 16.9156C33.8889 16.8182 34.0104 16.6844 33.9618 16.5505C33.9375 16.4775 33.7552 16.4775 33.6458 16.4288C33.5364 16.3801 33.3905 16.4288 33.2568 16.4532C33.1474 16.4532 33.0259 16.5262 32.9165 16.5505C32.7585 16.5992 32.6126 16.6844 32.4789 16.7817C32.6369 16.7087 32.7949 16.6844 32.9772 16.6479C33.111 16.6235 33.2204 16.5992 33.3662 16.6235Z" fill="#808080"/>
<path d="M12.1553 39.5509V30.4237H14.9267C15.9315 30.4237 16.7176 30.6671 17.2848 31.1539C17.8601 31.6407 18.1519 32.3059 18.16 33.1497C18.16 33.6933 18.0344 34.1638 17.7832 34.5614C17.532 34.967 17.1754 35.2834 16.7135 35.5106L19.5578 39.5509H17.3577L14.9388 35.8635H14.0029V39.5509H12.1553ZM14.0029 34.2936H15.0361C15.425 34.2936 15.7249 34.1922 15.9356 33.9894C16.1544 33.7866 16.2638 33.4986 16.2638 33.1254C16.2638 32.7765 16.1544 32.5007 15.9356 32.2978C15.7168 32.095 15.4169 31.9977 15.0361 32.0058H14.0029V34.2936ZM20.8463 39.5509V30.4237H26.1338V32.0058H22.6817V34.1111H25.6112V35.6931H22.6817V37.9688H26.1338V39.5509H20.8463ZM22.6331 29.6449L24.0917 27.8803H25.988L24.3105 29.6449H22.6331ZM28.3826 39.5509V30.4237H31.3849C32.3816 30.4237 33.1636 30.6671 33.7309 31.1539C34.3062 31.6407 34.5939 32.3059 34.5939 33.1497C34.5939 33.9935 34.3062 34.6547 33.7309 35.1333C33.1555 35.6201 32.3735 35.8635 31.3849 35.8635H30.2302V39.5509H28.3826ZM30.2302 34.2936H31.4578C31.8549 34.2936 32.1628 34.1882 32.3816 33.9772C32.6004 33.7744 32.7098 33.4904 32.7098 33.1254C32.7098 32.7765 32.5964 32.5007 32.3695 32.2978C32.1507 32.095 31.8468 31.9977 31.4578 32.0058H30.2302V34.2936ZM36.0768 35.9852V30.4237H37.9244V36.1312C37.9244 36.7397 38.0865 37.2184 38.4106 37.5672C38.7348 37.908 39.1845 38.0783 39.7599 38.0783C40.3271 38.0783 40.7728 37.908 41.097 37.5672C41.4211 37.2265 41.5832 36.7478 41.5832 36.1312V30.4237H43.4308V35.9852C43.4308 37.1859 43.1026 38.123 42.4462 38.7963C41.7898 39.4697 40.8903 39.8064 39.7477 39.8064C38.6132 39.8064 37.7178 39.4697 37.0614 38.7963C36.405 38.1149 36.0768 37.1778 36.0768 35.9852ZM45.8375 39.5509V30.4237H48.4144C49.3625 30.4237 50.104 30.6428 50.6388 31.0809C51.1818 31.519 51.4533 32.1275 51.4533 32.9063C51.4533 33.6608 51.1332 34.2612 50.493 34.7074C50.9711 34.9264 51.3398 35.2185 51.5991 35.5836C51.8584 35.9568 51.9881 36.3827 51.9881 36.8614C51.9881 37.697 51.6842 38.3542 51.0764 38.8329C50.4768 39.3115 49.6543 39.5509 48.6089 39.5509H45.8375ZM47.673 37.9688H48.7183C49.1478 37.9688 49.4841 37.8633 49.7272 37.6524C49.9703 37.4334 50.0919 37.1372 50.0919 36.764C50.0919 36.3908 49.9703 36.0988 49.7272 35.8878C49.4841 35.685 49.1478 35.5836 48.7183 35.5836H47.673V37.9688ZM47.673 34.0016H48.4509C48.7994 34.0016 49.0708 33.9123 49.2653 33.7338C49.4598 33.5635 49.557 33.316 49.557 32.9915C49.557 32.6832 49.4598 32.4439 49.2653 32.2735C49.0789 32.095 48.8075 32.0058 48.4509 32.0058H47.673V34.0016ZM53.9937 39.5509V30.4237H55.8291V37.8715H59.2812V39.5509H53.9937ZM61.0316 39.5509V30.4237H62.867V39.5509H61.0316ZM65.1158 36.8492C64.8808 36.257 64.7633 35.6363 64.7633 34.9873C64.7633 34.3383 64.8808 33.7217 65.1158 33.1375C65.3508 32.5453 65.6749 32.0301 66.0882 31.592C66.5096 31.1539 67.0201 30.805 67.6198 30.5454C68.2275 30.2858 68.8798 30.156 69.5768 30.156C70.2737 30.156 70.926 30.2858 71.5337 30.5454C72.1415 30.805 72.652 31.1539 73.0653 31.592C73.4786 32.0301 73.8027 32.5453 74.0377 33.1375C74.2727 33.7217 74.3902 34.3383 74.3902 34.9873C74.3902 35.7499 74.2322 36.4639 73.9162 37.1291C73.6001 37.7944 73.1626 38.3501 72.6034 38.7963L73.1504 39.3196C73.7906 39.9038 74.4227 40.1918 75.0466 40.1837C75.3059 40.1837 75.5247 40.1512 75.703 40.0863V41.6562C75.4194 41.7698 75.0993 41.8225 74.7427 41.8144C73.7622 41.8144 72.8182 41.4168 71.9106 40.6218L70.8287 39.6482C70.4317 39.7537 70.0143 39.8064 69.5768 39.8064C68.8798 39.8064 68.2275 39.6766 67.6198 39.417C67.0201 39.1574 66.5096 38.8126 66.0882 38.3826C65.6749 37.9445 65.3508 37.4334 65.1158 36.8492ZM67.486 32.7846C66.935 33.3769 66.6554 34.1111 66.6473 34.9873C66.6473 35.8635 66.9269 36.5977 67.486 37.19C68.0371 37.7822 68.738 38.0783 69.5889 38.0783C70.148 38.0783 70.6464 37.9445 71.084 37.6768C71.5297 37.409 71.8782 37.0358 72.1294 36.5572C72.3806 36.0866 72.5062 35.5633 72.5062 34.9873C72.5062 34.1111 72.2266 33.3769 71.6675 32.7846C71.1164 32.1924 70.4195 31.8962 69.5768 31.8962C68.7259 31.8962 68.0249 32.1924 67.4739 32.7846H67.486ZM76.1163 35.9852V30.4237H77.9639V36.1312C77.9639 36.7397 78.126 37.2184 78.4501 37.5672C78.7742 37.908 79.224 38.0783 79.7993 38.0783C80.3666 38.0783 80.8123 37.908 81.1364 37.5672C81.4605 37.2265 81.6226 36.7478 81.6226 36.1312V30.4237H83.4702V35.9852C83.4702 37.1859 83.142 38.123 82.4856 38.7963C81.8293 39.4778 80.9298 39.8145 79.7872 39.8064C78.6527 39.8064 77.7572 39.4697 77.1009 38.7963C76.4445 38.1149 76.1163 37.1778 76.1163 35.9852ZM85.877 39.5509V30.4237H91.1645V32.0058H87.7124V34.1111H90.6418V35.6931H87.7124V37.9688H91.1645V39.5509H85.877ZM12.1553 52.7548V43.6276H17.4428V45.2097H14.0029V47.315H16.9323V48.897H14.0029V52.7548H12.1553ZM19.1932 52.7548V43.6276H21.9646C22.9613 43.6276 23.7514 43.871 24.3349 44.3578C24.9102 44.8446 25.1979 45.5098 25.1979 46.3536C25.1979 46.8972 25.0723 47.3718 24.8211 47.7774C24.5699 48.1831 24.2133 48.4954 23.7514 48.7145L26.5957 52.7548H24.3956L21.9767 49.0674H21.0408V52.7548H19.1932ZM21.0408 47.4975H22.074C22.4629 47.4975 22.7668 47.3961 22.9856 47.1933C23.2044 46.9905 23.3098 46.7025 23.3017 46.3293C23.3017 45.9804 23.1963 45.7046 22.9856 45.5017C22.7749 45.2989 22.471 45.2016 22.074 45.2097H21.0408V47.4975ZM27.1184 52.7548L30.5583 43.6276H32.9651L36.405 52.7548H34.448L33.5729 50.3817H29.9384L29.0754 52.7548H27.1184ZM30.5097 48.7997H33.0137L31.7617 45.38L30.5097 48.7997ZM37.9366 52.7548V43.6276H40.2947L44.3546 50.1626V43.6276H46.19V52.7548H43.8319L39.772 46.1954V52.7548H37.9366ZM48.0984 48.1912C48.0984 47.5422 48.2159 46.9256 48.4509 46.3414C48.6859 45.7492 49.01 45.234 49.4233 44.7959C49.8447 44.3578 50.3552 44.013 50.9549 43.7615C51.5626 43.5019 52.219 43.3721 52.924 43.3721C53.7263 43.3721 54.4556 43.5343 55.112 43.8589C55.7765 44.1915 56.3194 44.6458 56.7408 45.2218L55.2943 46.3536C55.0269 45.9723 54.6906 45.6681 54.2854 45.4409C53.8803 45.2137 53.4265 45.1001 52.924 45.1001C52.0732 45.1001 51.3722 45.3963 50.8212 45.9885C50.2701 46.5808 49.9906 47.315 49.9825 48.1912C49.9825 49.0674 50.262 49.8057 50.8212 50.406C51.3722 50.9983 52.0732 51.2904 52.924 51.2822C53.4265 51.2822 53.8803 51.1727 54.2854 50.9537C54.6906 50.7265 55.0269 50.4182 55.2943 50.0288L56.7408 51.1484C56.3842 51.6433 55.9385 52.0489 55.4037 52.3653C54.8689 52.6817 54.2773 52.8805 53.629 52.9616L52.4986 54.8601H50.8698L52.0124 52.9373C51.2426 52.7994 50.5578 52.5032 49.9582 52.0489C49.3585 51.5946 48.8966 51.0307 48.5725 50.3574C48.2483 49.684 48.0903 48.9619 48.0984 48.1912ZM57.2756 52.7548L60.7156 43.6276H63.1223L66.5622 52.7548H64.6052L63.7422 50.3817H60.1078L59.2326 52.7548H57.2756ZM60.6791 48.7997H63.1709L61.9189 45.38L60.6791 48.7997ZM68.0938 52.7548V43.6276H69.9414V52.7548H68.0938ZM71.789 51.4891L73.1261 50.26C73.4016 50.617 73.7095 50.8928 74.0499 51.0875C74.3983 51.2822 74.7589 51.3796 75.1317 51.3796C75.4964 51.3796 75.78 51.2863 75.9826 51.0997C76.1933 50.9131 76.2986 50.6535 76.2986 50.3209C76.2986 50.1261 76.2419 49.9477 76.1284 49.7854C76.0069 49.6231 75.8489 49.4893 75.6544 49.3838C75.4599 49.2702 75.2371 49.1566 74.9858 49.0431C74.7346 48.9214 74.4794 48.8037 74.2201 48.6901C73.9608 48.5766 73.7095 48.4386 73.4664 48.2764C73.2152 48.1141 72.9924 47.9356 72.7979 47.7409C72.6034 47.5462 72.4454 47.2988 72.3238 46.9986C72.2023 46.6984 72.1415 46.3698 72.1415 46.0129C72.1415 45.2746 72.417 44.6499 72.9681 44.1388C73.5191 43.6276 74.216 43.3721 75.0588 43.3721C76.3229 43.3721 77.3804 43.8832 78.2313 44.9054L76.8821 46.1224C76.2986 45.3598 75.6949 44.9784 75.0709 44.9784C74.763 44.9784 74.5077 45.0717 74.3051 45.2583C74.1026 45.4449 74.0053 45.6721 74.0134 45.9398C74.0134 46.1102 74.062 46.2684 74.1593 46.4144C74.2565 46.5524 74.3821 46.6781 74.5361 46.7917C74.6982 46.8972 74.8846 47.0026 75.0952 47.1081L75.7395 47.4123C75.9745 47.5178 76.2054 47.6233 76.4323 47.7288C76.6673 47.8423 76.8861 47.9803 77.0887 48.1425C77.2994 48.2967 77.4858 48.4751 77.6479 48.678C77.8099 48.8727 77.9355 49.1039 78.0247 49.3716C78.1219 49.6475 78.1705 49.9517 78.1705 50.2843C78.1543 51.1119 77.8585 51.7731 77.2832 52.268C76.7159 52.7629 76.0069 53.0103 75.156 53.0103C74.4105 53.0103 73.7663 52.8846 73.2233 52.6331C72.6804 52.3734 72.2023 51.9921 71.789 51.4891ZM80.2248 52.7548V43.6276H85.5123V45.2097H82.0724V47.315H85.0018V48.897H82.0724V51.1727H85.5123V52.7548H80.2248Z" fill="black"/>
<path d="M42.349 77.7752C42.6164 77.7752 42.8473 77.9821 42.7258 78.4567L41.4981 78.7853C41.6926 78.2012 42.0572 77.7752 42.349 77.7752ZM43.0296 79.771H42.7865C42.4827 80.1361 42.1423 80.4282 41.8141 80.4282C41.4738 80.4282 41.3036 80.2213 41.3036 79.771C41.3036 79.5885 41.3279 79.3938 41.3644 79.2234L43.3578 78.5663C43.7468 77.6414 43.2728 77.2398 42.7258 77.2398C41.7777 77.2398 40.708 78.8948 40.708 80.197C40.708 80.8176 40.9997 81.1584 41.4616 81.1584C42.0086 81.1584 42.5678 80.6351 43.0296 79.771ZM42.7136 76.8017L43.8441 75.7673V75.6212H43.0904L42.4219 76.8138H42.7136V76.8017ZM38.4714 77.7996H39.1278L38.0825 80.6716C37.9852 80.915 38.1189 81.1584 38.3742 81.1584C39.1157 81.1584 40.003 80.5255 40.3433 79.625H40.161C39.8936 80.0023 39.3101 80.416 38.8725 80.5012L39.8328 77.7996H40.8174L40.9389 77.3858H39.9787L40.3433 76.3514H39.9665L39.2858 77.3858L38.4714 77.4953V77.7996ZM37.7907 77.6535C37.8758 77.3858 37.6935 77.2398 37.5598 77.2398C36.9885 77.2398 36.2956 77.7631 36.0282 78.4811H36.2105C36.3929 78.2133 36.7089 77.9213 37.0128 77.8726L35.9067 80.7446C35.8094 81.0123 36.0039 81.1584 36.1498 81.1584C36.6968 81.1584 37.341 80.6351 37.6084 79.9171H37.4261C37.2437 80.1848 36.9277 80.4769 36.6238 80.5255L37.7907 77.6535ZM37.9001 76.5096C38.1432 76.5096 38.3499 76.3027 38.3499 76.0593C38.3499 75.8159 38.1432 75.6091 37.9001 75.6091C37.7786 75.6091 37.6692 75.6577 37.5841 75.7429C37.499 75.8281 37.4504 75.9376 37.4504 76.0593C37.4504 76.3149 37.6449 76.5096 37.9001 76.5096ZM32.564 78.043C32.7341 78.043 32.8314 78.3107 32.564 78.907L31.786 80.6351C31.6402 80.9636 31.7982 81.1705 32.1142 81.1705C32.3087 81.1705 32.3938 81.1218 32.4789 80.915L33.2447 78.8948C33.5972 78.4567 34.2535 77.9943 34.5453 77.9943C34.7519 77.9943 34.7276 78.1647 34.5939 78.4324L33.4148 80.6837C33.3054 80.9028 33.4513 81.1705 33.7066 81.1705C34.2779 81.1705 34.9707 80.6472 35.2381 79.9292H35.0315C34.8492 80.197 34.5331 80.489 34.2292 80.5377L35.2381 78.4932C35.3718 78.2377 35.4326 77.9943 35.4326 77.7996C35.4326 77.471 35.2503 77.2519 34.8978 77.2519C34.3994 77.2519 33.974 77.8117 33.3662 78.5054V77.9699C33.3662 77.5927 33.2447 77.2519 32.9043 77.2519C32.5032 77.2519 32.1385 77.8848 31.8468 78.4932H32.0291C32.2358 78.2012 32.4181 78.043 32.564 78.043ZM31.7739 78.116C31.9076 77.6414 31.8347 77.2398 31.4821 77.2398C31.0324 77.2398 30.8865 77.544 30.4489 78.4932V77.9578C30.4489 77.5805 30.3274 77.2398 29.987 77.2398C29.5859 77.2398 29.2213 77.8726 28.9295 78.4811H29.1119C29.3064 78.2012 29.4887 78.0308 29.6345 78.0308C29.8047 78.0308 29.902 78.2985 29.6345 78.8948L28.8566 80.6229C28.7107 80.9515 28.8688 81.1584 29.1848 81.1584C29.3793 81.1584 29.4644 81.1097 29.5495 80.9028L30.2909 78.8827C30.5097 78.6149 30.7042 78.3837 30.9473 78.1282H31.7739V78.116ZM27.5317 77.7752C27.7991 77.7752 28.0301 77.9821 27.9085 78.4567L26.6808 78.7853C26.8875 78.2012 27.24 77.7752 27.5317 77.7752ZM28.2124 79.771H27.9693C27.6654 80.1361 27.325 80.4282 26.9969 80.4282C26.6565 80.4282 26.4863 80.2213 26.4863 79.771C26.4863 79.5885 26.5106 79.3938 26.5471 79.2234L28.5406 78.5663C28.9295 77.6414 28.4676 77.2398 27.9085 77.2398C26.9604 77.2398 25.8907 78.8948 25.8907 80.197C25.8907 80.8176 26.1825 81.1584 26.6444 81.1584C27.1913 81.1584 27.7505 80.6351 28.2124 79.771ZM23.6542 77.7996H24.3105L23.2652 80.6716C23.1679 80.915 23.3017 81.1584 23.5569 81.1584C24.2984 81.1584 25.1979 80.5255 25.5261 79.625H25.3437C25.0763 80.0023 24.4929 80.416 24.0553 80.5012L25.0155 77.7996H26.0001L26.1217 77.3858H25.1614L25.5261 76.3514H25.1493L24.4686 77.3858L23.6542 77.4953V77.7996ZM20.1656 80.0388C20.1656 79.1504 21.1502 77.9456 21.7093 77.9456C21.8309 77.9456 21.9524 77.9578 22.0497 77.9943L21.4784 79.5276C21.1502 79.9292 20.6396 80.416 20.3965 80.416C20.2507 80.416 20.1656 80.3065 20.1656 80.0388ZM23.1923 77.0694L22.8884 77.0451L22.548 77.3858H22.4873C21.0408 77.3858 19.4849 79.1869 19.4849 80.6107C19.4849 80.9393 19.6672 81.1584 20.0197 81.1584C20.4452 81.1584 20.8584 80.5499 21.3325 79.9049L21.3082 80.1361C21.2474 80.7933 21.4541 81.1584 21.7944 81.1584C22.1955 81.1584 22.5602 80.5255 22.8398 79.9171H22.6574C22.4629 80.197 22.2806 80.3673 22.1347 80.3673C21.9889 80.3673 21.8795 80.0874 22.1347 79.5033L23.1923 77.0694ZM20.0927 78.116C20.2264 77.6414 20.1534 77.2398 19.8009 77.2398C19.3512 77.2398 19.2053 77.544 18.7677 78.4932V77.9578C18.7677 77.5805 18.6462 77.2398 18.2937 77.2398C17.8926 77.2398 17.5279 77.8726 17.2483 78.4811H17.4307C17.6251 78.2012 17.8075 78.0308 17.9533 78.0308C18.1235 78.0308 18.2208 78.2985 17.9533 78.8948L17.1632 80.6351C17.0174 80.9636 17.1754 81.1705 17.4914 81.1705C17.6859 81.1705 17.771 81.1218 17.8561 80.915L18.6219 78.8827C18.8407 78.6149 19.0352 78.3837 19.2783 78.1282H20.0927V78.116ZM14.9996 81.0245L15.0725 80.8054C14.1123 80.6229 13.9907 80.6229 14.3797 79.5763L14.7443 78.5906H15.5101C15.9842 78.5906 15.9963 78.7975 15.9234 79.3208H16.203L16.8351 77.5805H16.5555C16.3124 77.9943 16.13 78.3107 15.6074 78.3107H14.8416L15.3643 76.8869C15.5466 76.3757 15.6317 76.2784 16.2881 76.2784H16.4582C17.1268 76.2784 17.2119 76.4609 17.2119 77.1668H17.4793L17.6981 75.9863H13.9907L13.9178 76.2054C14.6836 76.3636 14.7565 76.4366 14.404 77.4345L13.6139 79.5885C13.2492 80.5742 13.1034 80.6594 12.216 80.8176L12.1553 81.0367H14.9996V81.0245ZM33.3905 69.3905C33.6579 69.3905 33.8889 69.5973 33.7673 70.0719L32.5397 70.4005C32.7341 69.8164 33.0988 69.3905 33.3905 69.3905ZM34.0712 71.3863H33.8281C33.5242 71.7513 33.1839 72.0434 32.8557 72.0434C32.5153 72.0434 32.3452 71.8365 32.3452 71.3863C32.3452 71.2037 32.3695 71.009 32.4059 70.8386L34.3994 70.1815C34.7884 69.2566 34.3143 68.855 33.7673 68.855C32.8192 68.855 31.7496 70.5101 31.7496 71.8122C31.7496 72.4328 32.0413 72.7736 32.5032 72.7736C33.0502 72.7857 33.6093 72.2503 34.0712 71.3863ZM33.7552 68.4169L34.8856 67.3825V67.2365H34.132L33.4635 68.4291H33.7552V68.4169ZM29.513 69.4148H30.1694L29.124 72.2868C29.0268 72.5302 29.1605 72.7736 29.4158 72.7736C30.1572 72.7736 31.0446 72.1408 31.3849 71.2402H31.2026C30.9352 71.6175 30.3517 72.0312 29.9141 72.1164L30.8744 69.4148H31.859L31.9805 69.001H31.0202L31.3849 67.9666H31.0081L30.3274 69.001L29.513 69.1227V69.4148ZM28.8323 69.2809C28.9174 69.0132 28.7351 68.8672 28.5892 68.8672C28.0179 68.8672 27.325 69.3905 27.0576 70.1085H27.24C27.4223 69.8407 27.7383 69.5487 28.0422 69.5L26.9361 72.372C26.8388 72.6397 27.0333 72.7857 27.1792 72.7857C27.7262 72.7857 28.3704 72.2625 28.6378 71.5445H28.4555C28.2732 71.8122 27.9571 72.1043 27.6532 72.1529L28.8323 69.2809ZM28.9417 68.137C29.1848 68.137 29.3914 67.9301 29.3914 67.6867C29.3914 67.4433 29.1848 67.2365 28.9417 67.2365C28.7837 67.2365 28.6378 67.3216 28.5527 67.4555C28.4676 67.5894 28.4676 67.7719 28.5527 67.9179C28.6378 68.0518 28.7837 68.1492 28.9417 68.137ZM25.4167 72.1529L27.24 67.3095L27.1792 67.2243L25.915 67.3703V67.5164L26.1581 67.6989C26.3769 67.8693 26.304 68.0275 26.1095 68.5751L24.7238 72.2746C24.6023 72.4937 24.7603 72.7614 25.0155 72.7614C25.5868 72.7614 26.2068 72.2381 26.4742 71.5201H26.2918C26.0974 71.8 25.7084 72.0921 25.4167 72.1529ZM21.6972 71.654C21.6972 70.7656 22.6817 69.5608 23.2409 69.5608C23.3624 69.5608 23.4718 69.573 23.5812 69.6095L22.9978 71.1429C22.6696 71.5445 22.1591 72.0312 21.916 72.0312C21.7822 72.0434 21.6972 71.9217 21.6972 71.654ZM24.7238 68.6968L24.4199 68.6725L24.0796 69.0132H24.0188C22.5723 69.0132 21.0165 70.8143 21.0165 72.2381C21.0165 72.5667 21.1988 72.7857 21.5513 72.7857C21.9767 72.7857 22.39 72.1773 22.8641 71.5323L22.8398 71.7635C22.779 72.4207 22.9856 72.7857 23.326 72.7857C23.7271 72.7857 24.0917 72.1529 24.3713 71.5445H24.189C23.9945 71.8244 23.8122 71.9947 23.6663 71.9947C23.5204 71.9947 23.411 71.7148 23.6663 71.1429L24.7238 68.6968ZM17.6859 73.4794C17.6859 73.1022 18.0506 72.8588 18.5733 72.6519C18.7434 72.7371 19.0108 72.8344 19.3512 72.9439C19.8982 73.1265 20.1048 73.1995 20.1048 73.3577C20.1048 73.7106 19.6065 73.9784 18.6948 73.9784C18.0141 73.9905 17.6859 73.8445 17.6859 73.4794ZM19.181 71.155C18.9379 71.155 18.8528 70.9482 18.8528 70.7169C18.8528 69.9989 19.1932 69.1349 19.7402 69.1349C19.9833 69.1349 20.0684 69.3418 20.0684 69.573C20.0684 70.2788 19.7158 71.155 19.181 71.155ZM20.7369 73.1265C20.7369 72.6641 20.3236 72.4937 19.6551 72.299C19.0838 72.1286 18.8164 72.0799 18.8164 71.8852C18.8164 71.7392 18.9379 71.5566 19.181 71.4228C20.1291 71.3741 20.7247 70.5222 20.7247 69.7677C20.7247 69.6338 20.7004 69.5122 20.664 69.4026H21.3082L21.4297 68.9889H20.3358C20.1899 68.8915 20.0076 68.8428 19.8009 68.8428C18.8042 68.8428 18.16 69.719 18.16 70.4979C18.16 70.9968 18.4517 71.3376 18.9136 71.3984C18.4517 71.6175 18.1843 71.8487 18.1843 72.1408C18.1843 72.3111 18.2451 72.4328 18.3909 72.5424C17.3213 72.8588 16.8837 73.2604 16.8837 73.7228C16.8837 74.2217 17.5401 74.4286 18.318 74.4286C19.6308 74.4408 20.7369 73.7228 20.7369 73.1265ZM15.7775 70.2058C16.2516 70.2058 16.2638 70.4127 16.1908 70.936H16.4704L17.1025 69.1957H16.8229C16.5798 69.6095 16.3975 69.9259 15.8748 69.9259H14.8173L15.34 68.5021C15.5223 67.991 15.6195 67.8936 16.2638 67.8936H16.7257C17.3942 67.8936 17.4793 68.0762 17.4793 68.782H17.7467L17.9655 67.6015H13.9907L13.9178 67.8206C14.6836 67.9788 14.7565 68.0518 14.404 69.0497L13.6139 71.2037C13.2492 72.1894 13.1034 72.2746 12.216 72.4328L12.1553 72.6519H16.5798L17.3699 71.3984H17.066C16.5555 71.9095 16.0328 72.3598 15.0482 72.3598C13.8692 72.3598 13.9786 72.299 14.3675 71.2037L14.7322 70.218H15.7775V70.2058ZM16.3488 67.2365L17.4793 66.4089V66.2629H16.7257L16.0571 67.2365H16.3488ZM33.2447 61.0178C33.5121 61.0178 33.743 61.2247 33.6215 61.6993L32.3938 62.0279C32.5883 61.4316 32.9529 61.0178 33.2447 61.0178ZM33.9254 63.0136H33.6823C33.3784 63.3787 33.038 63.6708 32.7098 63.6708C32.3695 63.6708 32.1993 63.4639 32.1993 63.0136C32.1993 62.8311 32.2236 62.6364 32.2601 62.466L34.2535 61.8089C34.6425 60.884 34.1685 60.4824 33.6215 60.4824C32.6734 60.4824 31.6037 62.1374 31.6037 63.4396C31.6037 64.0602 31.8954 64.401 32.3573 64.401C32.9043 64.401 33.4635 63.8777 33.9254 63.0136ZM33.6093 60.0443L34.7398 59.0099V58.8638H33.9861L33.3176 60.0565H33.6093V60.0443ZM29.3671 61.03H30.0357L28.9903 63.902C28.8931 64.1454 29.0268 64.3888 29.282 64.3888C30.0235 64.3888 30.923 63.756 31.2512 62.8554H31.0689C30.8015 63.2327 30.218 63.6465 29.7804 63.7316L30.7407 61.03H31.7253L31.8468 60.6163H30.8865L31.2512 59.5818H30.8744L30.1937 60.6163L29.3793 60.7258V61.03H29.3671ZM29.0268 61.3586C29.1605 60.884 29.0876 60.4824 28.7351 60.4824C28.2853 60.4824 28.1394 60.7866 27.7019 61.7358V61.2004C27.7019 60.8231 27.5803 60.4824 27.24 60.4824C26.8388 60.4824 26.4742 61.1152 26.1825 61.7237H26.3648C26.5593 61.4438 26.7416 61.2734 26.8875 61.2734C27.0576 61.2734 27.1549 61.5411 26.8875 62.1374L26.1095 63.8655C25.9637 64.1941 26.1217 64.401 26.4377 64.401C26.6322 64.401 26.7173 64.3523 26.8024 64.1454L27.5682 62.1253C27.7869 61.8575 27.9814 61.6263 28.2245 61.3708H29.0268V61.3586ZM24.7846 61.0178C25.052 61.0178 25.283 61.2247 25.1614 61.6993L23.9337 62.0279C24.1282 61.4316 24.4929 61.0178 24.7846 61.0178ZM25.4653 63.0136H25.2222C24.9183 63.3787 24.578 63.6708 24.2498 63.6708C23.9094 63.6708 23.7392 63.4639 23.7392 63.0136C23.7392 62.8311 23.7636 62.6364 23.8 62.466L25.7935 61.8089C26.1825 60.884 25.7206 60.4824 25.1614 60.4824C24.2133 60.4824 23.1436 62.1374 23.1436 63.4396C23.1436 64.0602 23.4354 64.401 23.8973 64.401C24.4442 64.401 25.0034 63.8777 25.4653 63.0136ZM20.822 63.8168C20.6275 63.8168 20.3479 63.6343 20.3479 63.4761C20.3479 63.4274 20.433 63.1962 20.5424 62.9163L20.8584 62.0644C21.1988 61.6507 21.7336 61.2004 22.0375 61.2004C22.2198 61.2004 22.3535 61.3221 22.3535 61.5776C22.3414 62.3808 21.6121 63.8168 20.822 63.8168ZM23.0342 61.2734C23.0342 60.6893 22.8884 60.4702 22.4751 60.4702C21.9646 60.4702 21.4905 61.0178 21.0043 61.675L22.0253 58.9247L21.9646 58.8395L20.7004 58.9855V59.1316L20.9435 59.3141C21.1623 59.4845 21.0894 59.6549 20.8949 60.1903L19.7888 63.0988C19.6915 63.3422 19.5821 63.6343 19.5821 63.7073C19.5821 64.0481 20.044 64.3766 20.4695 64.3766C21.4297 64.401 23.0342 62.6364 23.0342 61.2734ZM19.3026 60.8962C19.3755 60.6284 19.2053 60.4824 19.0595 60.4824C18.4882 60.4824 17.7953 61.0057 17.5279 61.7237H17.7102C17.8926 61.4559 18.2086 61.1639 18.5125 61.1152L17.4063 63.9872C17.3091 64.2549 17.5036 64.401 17.6495 64.401C18.1964 64.401 18.8407 63.8777 19.1081 63.1597H18.9258C18.7434 63.4274 18.4274 63.7195 18.1235 63.7682L19.3026 60.8962ZM19.4241 59.7522C19.6672 59.7522 19.8739 59.5453 19.8739 59.3019C19.8739 59.0586 19.6672 58.8517 19.4241 58.8517C19.2661 58.8517 19.1202 58.9369 19.0352 59.0707C18.9501 59.2046 18.9501 59.3871 19.0352 59.5332C19.1202 59.667 19.2661 59.7644 19.4241 59.7522ZM16.6163 59.2046H13.9907L13.9178 59.4236C14.6836 59.5818 14.7565 59.6549 14.404 60.6528L13.6139 62.8068C13.2492 63.7925 13.1034 63.8777 12.216 64.0359L12.1553 64.2549H16.1422L17.0052 62.7094H16.7013C16.203 63.257 15.6317 63.9507 14.7443 63.9507C14.0758 63.9507 13.9786 63.829 14.3554 62.7946L15.1455 60.6406C15.5101 59.6549 15.656 59.5697 16.5433 59.4115L16.6163 59.2046Z" fill="black"/>
</g>
<defs>
<clipPath id="clip0_58_145">
<rect width="103.32" height="93.34" fill="white"/>
</clipPath>
</defs>
</svg>
