<svg width="120" height="120" viewBox="0 0 120 120" fill="none" xmlns="http://www.w3.org/2000/svg">
    <path
        d="M77.9616 71.7841C77.4 71.8772 77.0489 72.1797 76.8617 72.7846L78.9211 72.4123C78.8977 72.0168 78.6169 71.6678 77.9616 71.7841ZM77.9616 71.7841C77.4 71.8772 77.0489 72.1797 76.8617 72.7846L78.9211 72.4123C78.8977 72.0168 78.6169 71.6678 77.9616 71.7841ZM77.9616 71.7841C77.4 71.8772 77.0489 72.1797 76.8617 72.7846L78.9211 72.4123C78.8977 72.0168 78.6169 71.6678 77.9616 71.7841ZM77.9616 71.7841C77.4 71.8772 77.0489 72.1797 76.8617 72.7846L78.9211 72.4123C78.8977 72.0168 78.6169 71.6678 77.9616 71.7841ZM105.343 60.128L96.3562 61.7333V34.5123L92.3777 33L10.4212 47.0758L10 47.1456V80.9509H10.0234L10 80.9741L13.9317 83.3705L12.4573 86.7673L13.37 87L14.8912 83.5334L15.8507 83.3473L14.5401 86.3718L15.4528 86.6045L16.974 83.1379L17.9335 82.9517L16.5996 85.9763L17.5123 86.209L19.0101 82.7656L19.9696 82.5795L18.659 85.5808L19.5717 85.8134L21.0695 82.3701L22.029 82.184L20.7185 85.162L21.6312 85.3947L23.1289 81.9746L24.0885 81.7885L22.8013 84.7432L23.714 84.9759L25.2118 81.5558L26.1713 81.3697L24.8842 84.3244L25.7969 84.5571L27.2946 81.1603L28.2542 80.9741L26.967 83.9754L27.8797 84.2081L29.3541 80.8113L30.3136 80.6252L29.0264 83.5567L29.9392 83.7893L31.4135 80.4158L32.373 80.2296L31.1093 83.1379L32.022 83.3705L33.4964 80.0202L34.4559 79.8341L33.1921 82.7424L34.1048 82.975L35.5792 79.6247L36.5387 79.4386L35.275 82.3236L36.1877 82.5562L37.6387 79.2292L38.5982 79.0431L37.3344 81.9281L38.2471 82.1607L39.6981 78.8337L40.6576 78.6476L39.3939 81.5093L40.3066 81.7419L41.7575 78.4382L42.7171 78.252L41.4767 81.1137L42.3894 81.3464L43.8404 78.0427L44.7999 77.8565L43.5596 80.695L44.4723 80.9276L45.8998 77.6471L46.8594 77.461L45.619 80.2994L46.5317 80.5321L47.9593 77.2516L48.9188 77.0655L47.6784 79.8807L48.5912 80.1133L50.0187 76.8561L51.1655 76.6467L49.8315 79.648L50.7442 79.9039L52.2888 76.4373L53.4589 76.2279L52.1016 79.3223L53.0143 79.5549L54.5589 76.0185L55.5184 75.8324L54.161 78.9035L55.0737 79.1362L56.6183 75.623L57.5778 75.4369L56.2439 78.508L57.1566 78.7406L58.7011 75.2275L59.6607 75.0414L58.3267 78.0892L59.2394 78.3218L60.7606 74.832L61.7201 74.6458L60.3861 77.6937L61.2989 77.9263L62.82 74.4364L63.7795 74.2503L62.4456 77.2749L63.3583 77.5075L64.8795 74.0409L65.839 73.8548L64.5284 76.8561L65.4411 77.0888L66.4475 74.7854V84.1848L66.4241 84.2314L71.1748 86.6277L109.579 79.9737L110 79.9039V62.0823L105.343 60.128ZM99.0241 66.3865C100.709 66.084 101.809 66.9914 101.809 68.5967C101.809 68.9922 101.762 69.3878 101.692 69.5972L97.854 70.2951C98.0178 70.9466 98.5092 71.1792 99.3049 71.0396C99.8666 70.9466 100.311 70.6209 100.592 70.2486L101.903 71.0396C101.341 71.8772 100.405 72.5054 99.2581 72.7148C97.0817 73.1103 95.9115 71.8539 95.9115 70.1323C95.9349 68.4339 97.0115 66.7587 99.0241 66.3865ZM92.4947 67.573C93.7585 67.3404 94.7882 68.0383 94.7882 69.8298V73.2964L92.8926 73.6454V70.2486C92.8926 69.6437 92.5649 69.2947 91.9799 69.411C91.3246 69.5274 91.0204 70.109 90.9034 70.3184V73.9944L89.0311 74.3434V68.4339L90.9034 68.0849V68.4106C91.3246 68.0383 91.8161 67.7126 92.4947 67.573ZM66.3773 67.0612V69.5739L11.1233 79.7411L11.0297 79.7643V47.9832L91.3948 34.1633V62.6174L66.6815 67.0379L66.3773 67.0612ZM84.7484 73.6454C85.4271 73.5291 85.7313 73.0172 85.7313 72.4123V69.062L87.627 68.7131V71.947C87.627 73.7152 86.5738 75.0414 84.7484 75.3904C82.8996 75.7393 81.8699 74.7854 81.8699 73.0172V69.7833L83.7655 69.4343V72.7846C83.7421 73.3895 84.0463 73.7617 84.7484 73.6454ZM78.2425 74.9018C78.8041 74.8087 79.2488 74.483 79.5296 74.1107L80.8402 74.9018C80.2785 75.7393 79.3424 76.3675 78.1956 76.5769C76.0192 76.9724 74.8491 75.7161 74.8491 73.9944C74.8491 72.2727 75.9256 70.5976 77.9382 70.2486C79.6232 69.9461 80.7466 70.8535 80.7466 72.4589C80.7466 72.8544 80.6763 73.2499 80.6295 73.4593L76.7915 74.1573C76.9553 74.8087 77.4702 75.0646 78.2425 74.9018ZM73.4449 69.0155V76.4606C73.4449 78.3218 72.6024 79.5084 70.6834 79.8574C70.3791 79.9039 70.1217 79.9505 69.9579 79.9505V78.1124C70.0749 78.1124 70.1919 78.1125 70.3557 78.0659C71.0578 77.9263 71.3386 77.5541 71.3386 76.9492V69.3878L73.4449 69.0155ZM108.994 79.0664L71.2684 85.8134L67.9686 84.1616L105.039 77.5308L105.319 77.4843V61.1982L105.366 61.1749L108.994 62.6872V79.0664ZM99.0241 67.922C98.4624 68.0151 98.1114 68.3175 97.9242 68.9224L99.9836 68.5502C99.9602 68.1779 99.656 67.8057 99.0241 67.922ZM77.9616 71.7841C77.4 71.8772 77.0489 72.1797 76.8617 72.7846L78.9211 72.4123C78.8977 72.0168 78.6169 71.6678 77.9616 71.7841ZM77.9616 71.7841C77.4 71.8772 77.0489 72.1797 76.8617 72.7846L78.9211 72.4123C78.8977 72.0168 78.6169 71.6678 77.9616 71.7841ZM77.9616 71.7841C77.4 71.8772 77.0489 72.1797 76.8617 72.7846L78.9211 72.4123C78.8977 72.0168 78.6169 71.6678 77.9616 71.7841Z"
        fill="white" />
    <path
        d="M16.9974 67.7591C17.6059 67.6428 18.074 67.7126 18.4484 67.922V65.1301L20.1334 64.8044V72.645L18.4484 72.9707V72.738C18.074 73.087 17.6059 73.3429 16.9974 73.4593C15.3124 73.785 14.3295 72.6682 14.3295 71.1327C14.3295 69.5739 15.3124 68.0849 16.9974 67.7591ZM17.2549 71.8307C17.7931 71.7376 18.1676 71.4351 18.4718 70.9465V69.6669C18.1676 69.3179 17.7697 69.1551 17.2549 69.2481C16.5294 69.3877 16.0847 69.9927 16.0847 70.7604C16.0847 71.5282 16.506 71.9702 17.2549 71.8307Z"
        fill="white" />
    <path d="M20.9057 68.3175L21.912 64.9672L23.7842 64.595L22.4503 68.0151L20.9057 68.3175Z" fill="white" />
    <path
        d="M24.7672 64.4089L29.3073 63.5247V65.1068L26.6394 65.6187V66.8518L28.886 66.4097V67.9918L26.6394 68.4338V69.7833L29.3073 69.2714V70.8535L24.7672 71.7376V64.4089Z"
        fill="white" />
    <path
        d="M30.7349 65.293L32.3965 64.9672V65.2697C32.7475 64.9207 33.1922 64.6182 33.8006 64.5019C34.924 64.2925 35.8601 64.8974 35.8601 66.4795V69.5739L34.1751 69.8996V66.875C34.1751 66.3399 33.8942 66.0375 33.356 66.1305C32.7709 66.2469 32.5135 66.7587 32.3965 66.9448V70.2253L30.7349 70.551V65.293Z"
        fill="white" />
    <path
        d="M37.4046 68.9224C37.2174 68.7363 37.1004 68.4804 37.1004 68.2245C37.1004 67.8057 37.2408 67.4334 37.6386 67.0612C37.1706 66.8052 36.9365 66.3399 36.9365 65.7583C36.9365 64.7113 37.7322 63.7574 39.113 63.4782C39.5342 63.3852 39.9321 63.3852 40.2363 63.4782L42.132 63.106V64.5019L41.3129 64.6648C41.3129 64.7346 41.3129 64.8276 41.3129 64.9207C41.3129 65.9677 40.5406 66.9216 39.113 67.2008C39.0194 67.224 38.9024 67.2473 38.8088 67.2473C38.7386 67.3171 38.7152 67.4101 38.7152 67.4799C38.7152 67.6661 38.8322 67.7126 38.996 67.6661L40.2129 67.4334C41.5001 67.1775 42.2724 67.7824 42.2724 68.7828C42.2724 70.0392 41.2426 71.1559 39.464 71.5049C37.6854 71.8539 36.7025 71.4817 36.7025 70.3184C36.7025 69.7833 36.9599 69.3179 37.4046 68.9224ZM39.464 70.1788C40.3065 70.0159 40.6576 69.6437 40.6576 69.2481C40.6576 68.9457 40.447 68.7596 40.0257 68.8526L38.5747 69.1318C38.3641 69.2947 38.2705 69.5041 38.2705 69.7367C38.2705 70.1555 38.6215 70.3416 39.464 70.1788ZM39.8385 65.1766C39.8385 64.7578 39.5342 64.595 39.1364 64.6648C38.7152 64.7346 38.4343 65.0138 38.4343 65.4325C38.4343 65.8513 38.7152 66.0142 39.1364 65.9444C39.5577 65.8746 39.8385 65.5954 39.8385 65.1766Z"
        fill="white" />
    <path
        d="M42.6469 66.8052C42.6469 65.9909 43.2553 65.2464 44.4255 64.8276L45.8998 64.2925C45.8764 63.897 45.5488 63.6643 45.0807 63.7574C44.6361 63.8505 44.2616 64.1064 44.0744 64.5019L42.8575 63.8272C43.3489 63.0594 44.1446 62.5011 45.1275 62.3149C46.8125 61.9892 47.5848 62.85 47.5848 63.9901V67.3171L45.8998 67.6428V67.2473C45.5956 67.6428 45.0339 68.0151 44.4723 68.1314C43.3957 68.3175 42.6469 67.8289 42.6469 66.8052ZM44.8233 66.7122C45.3382 66.6191 45.6658 66.2934 45.8764 65.9211V65.4558L44.8467 65.8281C44.4021 65.9909 44.2616 66.1538 44.2616 66.4097C44.285 66.6656 44.4957 66.782 44.8233 66.7122Z"
        fill="white" />
    <path
        d="M49.1295 66.6424C48.9422 66.4562 48.8252 66.2003 48.8252 65.9444C48.8252 65.5256 48.9656 65.1534 49.3635 64.7811C48.8954 64.5252 48.6614 64.0599 48.6614 63.4782C48.6614 62.4313 49.4571 61.4774 50.8379 61.1982C51.2591 61.1051 51.657 61.1051 51.9612 61.1982L53.8568 60.8259V62.2219L53.0377 62.3847C53.0377 62.4545 53.0377 62.5476 53.0377 62.6406C53.0377 63.6876 52.2654 64.6415 50.8379 64.9207C50.7442 64.944 50.6272 64.9672 50.5336 64.9672C50.4634 65.037 50.44 65.1301 50.44 65.1999C50.44 65.386 50.557 65.4325 50.7208 65.386L51.9378 65.1534C53.2249 64.8974 53.9972 65.5023 53.9972 66.5028C53.9972 67.7591 52.9675 68.8759 51.1889 69.2249C49.4103 69.5739 48.4274 69.2016 48.4274 68.0383C48.4274 67.5265 48.6848 67.0612 49.1295 66.6424ZM51.1655 67.8987C52.008 67.7359 52.359 67.3636 52.359 66.9681C52.359 66.6656 52.1484 66.4795 51.7272 66.5726L50.2762 66.8518C50.0656 67.0146 49.972 67.224 49.972 67.4567C49.9954 67.8755 50.323 68.0616 51.1655 67.8987ZM51.5633 62.8966C51.5633 62.4778 51.2591 62.3149 50.8613 62.3847C50.44 62.4545 50.1592 62.7337 50.1592 63.1525C50.1592 63.5713 50.44 63.7341 50.8613 63.6643C51.2591 63.5945 51.5633 63.3386 51.5633 62.8966Z"
        fill="white" />
    <path
        d="M57.1565 65.6419C55.2141 66.0142 54.1844 64.9207 54.1844 63.3852C54.1844 61.8496 55.1439 60.3606 56.9459 60.0116C58.4437 59.7092 59.4266 60.5235 59.4266 61.9427C59.4266 62.2917 59.3798 62.6407 59.3096 62.85L55.8928 63.5248C56.0332 64.1064 56.4779 64.3158 57.1799 64.1762C57.6714 64.0831 58.0926 63.8039 58.3267 63.455L59.4968 64.1529C59.0054 64.8974 58.1863 65.4558 57.1565 65.6419ZM55.963 62.2684L57.7884 61.9194C57.765 61.5704 57.5076 61.268 56.9459 61.3843C56.4545 61.4774 56.1268 61.7333 55.963 62.2684Z"
        fill="white" />
    <path
        d="M60.5734 59.523L62.235 59.1973V59.4765C62.5392 59.1508 62.9605 58.8483 63.5455 58.732C64.1774 58.6157 64.7625 58.7785 65.1135 59.2671C65.4646 58.7785 65.956 58.2667 66.7517 58.1038C67.8048 57.8944 68.6941 58.4761 68.6941 60.0116V63.199L67.0092 63.5248V60.4071C67.0092 59.9418 66.7751 59.6626 66.2837 59.7557C65.7688 59.8487 65.5582 60.3606 65.4646 60.5002C65.4646 60.5467 65.4646 60.5933 65.4646 60.6398V63.8272L63.7796 64.1529V61.0353C63.7796 60.57 63.5455 60.2908 63.0541 60.3839C62.5392 60.4769 62.3286 60.9888 62.2116 61.1749V64.4554L60.55 64.7811V59.523H60.5734Z"
        fill="white" />
    <path
        d="M72.6726 62.6407C70.7302 63.0129 69.7004 61.9194 69.7004 60.3839C69.7004 58.8483 70.6599 57.3593 72.462 57.0103C73.9597 56.7079 74.9427 57.5222 74.9427 58.9414C74.9427 59.2904 74.8959 59.6394 74.849 59.8488L71.4322 60.5235C71.5727 61.1051 72.0173 61.3145 72.7194 61.1749C73.2109 61.0818 73.6321 60.8027 73.8661 60.4537L75.0363 61.1516C74.5214 61.8729 73.7023 62.4313 72.6726 62.6407ZM71.4791 59.2671L73.3045 58.9181C73.2811 58.5691 73.0236 58.2667 72.462 58.383C71.9705 58.4528 71.6429 58.732 71.4791 59.2671Z"
        fill="white" />
    <path
        d="M76.0894 56.4985L77.751 56.1727V56.4752C78.1021 56.1262 78.5467 55.8238 79.1552 55.7074C80.2785 55.498 81.2146 56.103 81.2146 57.685V60.7794L79.5296 61.1051V58.0805C79.5296 57.5454 79.2488 57.243 78.7105 57.336C78.1255 57.4524 77.868 57.9642 77.751 58.1503V61.4308L76.0894 61.7565V56.4985Z"
        fill="white" />
    <path
        d="M82.8996 56.6846L81.9167 56.8707V55.3584L82.8996 55.1723V53.8694L84.5846 53.5437V54.8699L86.0356 54.5907V56.1029L84.5846 56.3821V58.1038C84.5846 58.5226 84.7952 58.7087 85.2399 58.6157C85.6377 58.5459 85.8718 58.4295 86.0356 58.3365V59.7557C85.7547 59.9418 85.4271 60.0581 84.9356 60.1512C83.4847 60.4304 82.8996 59.6859 82.8996 58.4063V56.6846Z"
        fill="white" />
    <path
        d="M23.8545 57.3593L26.5926 58.8949C25.3288 60.8027 23.3162 62.2684 20.8355 62.757C16.506 63.5946 13.5573 60.8957 13.5573 57.0336C13.5573 53.1715 16.506 49.3326 20.8355 48.4951C23.3162 48.0065 25.3288 48.7044 26.5926 50.1004L23.8545 52.7062C23.2226 51.9151 22.1929 51.4498 20.8355 51.7057C18.6591 52.1245 17.1145 54.0788 17.1145 56.3356C17.1145 58.6157 18.6591 59.9418 20.8355 59.5231C22.1695 59.2671 23.2226 58.4063 23.8545 57.3593Z"
        fill="white" />
    <path
        d="M38.2237 54.1254C38.2237 57.1034 36.0239 59.8022 32.8411 60.4072C29.6115 61.0353 27.4351 59.1741 27.4351 56.2193C27.4351 53.2413 29.6349 50.5424 32.8411 49.9375C36.0239 49.3094 38.2237 51.1706 38.2237 54.1254ZM35.041 54.7536C35.041 53.2878 34.0814 52.5666 32.8411 52.7992C31.5539 53.0552 30.6178 54.1486 30.6178 55.6144C30.6178 57.0569 31.5773 57.8014 32.8411 57.5455C34.0814 57.3128 35.041 56.1728 35.041 54.7536Z"
        fill="white" />
    <path
        d="M40.1661 48.8906L43.2553 48.2857V48.8208C43.8872 48.1461 44.7063 47.6109 45.853 47.4016C47.9359 47.006 49.6443 48.1228 49.6443 51.0543V56.7544L46.5317 57.3593V51.7988C46.5317 50.8216 46.0168 50.24 45.0105 50.4261C43.934 50.6355 43.4425 51.5894 43.2553 51.9384V57.9875L40.1661 58.5924V48.8906Z"
        fill="white" />
    <path
        d="M52.7334 49.2396L50.908 49.5885V46.8199L52.7334 46.4709V44.028L55.846 43.4231V45.8427L58.5139 45.3309V48.0995L55.846 48.6114V51.7755C55.846 52.5433 56.2439 52.8923 57.0629 52.7294C57.7884 52.5898 58.2565 52.4037 58.5373 52.2408V54.8931C58.0225 55.2189 57.414 55.4515 56.5013 55.6377C53.8334 56.1495 52.7334 54.7768 52.7334 52.4037V49.2396Z"
        fill="white" />
    <path
        d="M60.4564 44.9586L63.5455 44.3537V45.1448C64.154 44.4701 64.9029 43.8884 65.9092 43.7023C66.2602 43.6325 66.5645 43.6325 66.7985 43.6557V46.8897C66.4709 46.8664 66.0964 46.8897 65.605 46.9828C64.4816 47.1922 63.7327 48.0065 63.5455 48.3554V54.0556L60.4564 54.6605V44.9586Z"
        fill="white" />
    <path
        d="M67.5006 50.6355C67.5006 49.1232 68.6473 47.7505 70.777 46.9828L73.4917 45.9823C73.4449 45.2611 72.8598 44.819 71.9705 44.9819C71.1514 45.1448 70.4728 45.6101 70.0983 46.3546L67.8517 45.0982C68.741 43.7023 70.2387 42.6786 72.0641 42.3063C75.1767 41.7014 76.6043 43.2835 76.6043 45.4007V51.5429L73.4917 52.1478V51.4265C72.9534 52.171 71.8769 52.8458 70.8472 53.0319C68.8814 53.4274 67.5006 52.5433 67.5006 50.6355ZM71.5493 50.4726C72.5088 50.2865 73.1173 49.6816 73.5151 49.0069V48.1461L71.6429 48.8208C70.8238 49.1232 70.5664 49.4257 70.5664 49.891C70.5196 50.3796 70.9408 50.6122 71.5493 50.4726Z"
        fill="white" />
    <path
        d="M79.6935 44.0047L77.868 44.3537V41.5851L79.6935 41.2361V38.7932L82.806 38.1883V40.6079L85.4739 40.0961V42.8647L82.806 43.3998V46.564C82.806 47.3318 83.2039 47.6807 84.023 47.5179C84.7485 47.3783 85.2165 47.1922 85.4973 47.0293V49.6816C84.9825 50.0073 84.374 50.24 83.4613 50.4261C80.7934 50.938 79.6935 49.5653 79.6935 47.1922V44.0047Z"
        fill="white" />
</svg>
