<svg width="250" height="136" viewBox="0 0 250 136" fill="none" xmlns="http://www.w3.org/2000/svg">
    <g clip-path="url(#clip0_447_952)">
        <path
            d="M238.3 111.383L237.6 111.508L144.925 128.036L153.175 132.149L247.475 115.347V74.5135L238.425 70.7493L238.3 70.7991V111.383Z"
            fill="white" />
        <path
            d="M202.25 87.9501L197.5 88.8226V103.556L202.25 102.708V93.5342C202.504 92.9717 202.884 92.4748 203.361 92.0816C203.838 91.6883 204.398 91.4092 205 91.2657C206.45 90.9665 207.275 91.839 207.275 93.3597V101.835L212.025 100.963V92.3127C212.025 87.8504 209.525 86.1054 206.275 86.6788C204.786 87.0107 203.414 87.7337 202.3 88.7728L202.25 87.9501Z"
            fill="white" />
        <path
            d="M223.15 99.4922C224.482 99.2632 225.753 98.7675 226.888 98.0348C228.022 97.3021 228.996 96.3477 229.75 95.2293L226.475 93.26C225.7 94.3121 224.542 95.0192 223.25 95.2293C221.275 95.5783 220.05 95.005 219.625 93.3846L229.225 91.6396C229.439 90.8263 229.54 89.9875 229.525 89.1467C229.588 88.2726 229.433 87.3965 229.075 86.5965C228.716 85.7965 228.164 85.0975 227.468 84.5619C226.773 84.0263 225.955 83.6706 225.088 83.5267C224.221 83.3828 223.332 83.4551 222.5 83.7372C220.306 84.121 218.321 85.2689 216.897 86.9763C215.473 88.6838 214.703 90.8399 214.725 93.0605C214.775 97.3483 217.7 100.489 223.15 99.4922ZM222.5 87.5513C224.1 87.2771 224.85 88.1994 225 89.1218L219.85 90.0441C219.994 89.4137 220.323 88.8402 220.795 88.3964C221.267 87.9526 221.86 87.6584 222.5 87.5513Z"
            fill="white" />
        <path
            d="M150.9 112.854C150.568 112.896 150.232 112.896 149.9 112.854V117.665C150.3 117.665 150.95 117.665 151.7 117.441C152.713 117.341 153.697 117.043 154.593 116.562C155.49 116.081 156.282 115.427 156.924 114.639C157.565 113.851 158.044 112.943 158.332 111.969C158.619 110.995 158.711 109.974 158.6 108.965V90.2436L153.35 91.166V110.187C153.374 110.524 153.328 110.863 153.217 111.183C153.105 111.502 152.929 111.796 152.7 112.045C152.47 112.295 152.193 112.495 151.883 112.634C151.574 112.773 151.239 112.848 150.9 112.854Z"
            fill="white" />
        <path
            d="M176.875 98.8689C176.943 97.9903 176.793 97.1084 176.438 96.3015C176.083 95.4945 175.533 94.7873 174.839 94.2425C174.144 93.6977 173.325 93.3322 172.455 93.1782C171.585 93.0242 170.69 93.0865 169.85 93.3597C167.645 93.7209 165.647 94.8677 164.226 96.5869C162.806 98.3062 162.059 100.481 162.125 102.708C162.125 107.021 165.05 110.187 170.5 109.164C171.826 108.945 173.094 108.46 174.228 107.741C175.362 107.021 176.338 106.081 177.1 104.976L173.825 103.007C173.05 104.059 171.892 104.766 170.6 104.976C168.675 105.375 167.4 104.752 166.975 103.132L176.575 101.387C176.766 100.561 176.867 99.7166 176.875 98.8689ZM167.15 99.6666C167.301 99.0222 167.645 98.4387 168.136 97.9936C168.627 97.5484 169.242 97.2625 169.9 97.1738C171.55 96.8995 172.25 97.7721 172.4 98.7443L167.15 99.6666Z"
            fill="white" />
        <path
            d="M179.675 92.188V100.215C179.54 101.14 179.647 102.084 179.985 102.956C180.323 103.828 180.881 104.598 181.605 105.192C182.329 105.786 183.195 106.184 184.118 106.347C185.041 106.51 185.99 106.433 186.875 106.123C188.898 105.843 190.747 104.834 192.074 103.286C193.401 101.737 194.113 99.7582 194.075 97.7222V89.5207L189.325 90.3932V98.7443C189.389 99.4817 189.165 100.215 188.699 100.791C188.233 101.368 187.561 101.742 186.825 101.835C185.075 102.11 184.325 101.187 184.325 99.6667V91.3155L179.675 92.188Z"
            fill="white" />
        <path
            d="M170 97.1738C169.342 97.2625 168.727 97.5484 168.236 97.9936C167.745 98.4388 167.401 99.0222 167.25 99.6667L172.4 98.7443C172.25 97.7222 171.55 96.8996 170 97.1738Z"
            fill="#3A61AA" />
        <path
            d="M222.5 87.5513C221.842 87.64 221.227 87.9259 220.736 88.3711C220.245 88.8163 219.901 89.3997 219.75 90.0442L224.9 89.1218C225 88.1994 224.15 87.2771 222.5 87.5513Z"
            fill="#3A61AA" />
        <path
            d="M215.9 72.1204V4.26424L205.9 0.5L0.900098 35.5997L-0.149902 35.7742V120.158L9.6751 126.141L6.0001 134.617L8.2751 135.19L12.0751 126.54L14.5751 126.091L11.3001 133.57L13.5751 134.143L17.5001 125.493L20.0001 125.019L16.5001 132.622L18.7751 133.196L22.5001 124.57L25.0001 124.097L21.7251 131.575L24.0001 132.149L27.7501 123.573L30.2501 123.1L26.9751 130.578L29.2501 131.152L32.8251 122.651L35.3251 122.202L32.0001 129.481L34.2751 130.08L38.0251 121.554L40.5251 121.08L37.3001 128.434L39.6001 129.033L43.3251 120.557L45.8251 120.083L42.5001 127.637L44.7751 128.21L48.4501 119.734L50.9501 119.286L47.5001 126.54L49.7751 127.113L53.4501 118.712L55.9501 118.239L52.8001 125.493L55.0751 126.066L58.7501 117.665L61.2501 117.192L58.0751 124.446L60.3501 125.019L64.0501 116.668L66.5501 116.219L63.4001 123.399L65.6751 123.997L69.3001 115.696L71.8001 115.222L68.6251 122.427L70.9251 123L74.5501 114.699L77.0501 114.25L73.8751 121.38L76.1751 121.953L79.8001 113.726L82.3001 113.253L79.2001 120.382L81.4751 120.981L84.6001 112.679L87.1001 112.231L83.9001 119.41L86.1751 119.984L89.7501 111.807L92.2501 111.333L89.0501 118.413L91.3251 118.986L95.0001 110.81L97.5001 110.361L94.4001 117.366L96.6751 117.939L100 109.838L102.875 109.314L99.5251 116.793L101.8 117.416L105.675 108.791L108.6 108.267L105.25 115.97L107.525 116.543L111.4 107.694L113.9 107.22L110.4 114.923L112.675 115.521L116.55 106.746L119.05 106.298L115.7 113.951L118 114.524L121.85 105.774L124.35 105.301L121.025 112.779L123.3 113.353L127.1 104.652L129.6 104.204L126.275 111.682L128.55 112.281L132.35 103.58L134.85 103.107L131.525 110.585L133.8 111.184L137.2 102.708L139.7 102.234L136.425 109.713L138.7 110.286L141.2 104.553V127.961L153.075 133.944L248.95 117.665L250 117.491V72.9929L238.35 68.1318L215.9 72.1204ZM222.5 83.7372C223.338 83.4612 224.231 83.397 225.1 83.5505C225.969 83.704 226.786 84.0704 227.477 84.6167C228.169 85.1629 228.713 85.872 229.062 86.6801C229.411 87.4882 229.553 88.3701 229.475 89.2464C229.49 90.0872 229.389 90.926 229.175 91.7393L219.575 93.4843C220 95.1047 221.225 95.6781 223.2 95.3291C224.492 95.1189 225.65 94.4118 226.425 93.3597L229.7 95.3291C228.936 96.429 227.958 97.3644 226.825 98.0796C225.691 98.7948 224.424 99.2752 223.1 99.4921C217.65 100.489 214.725 97.3483 214.725 93.0605C214.703 90.8399 215.473 88.6838 216.897 86.9763C218.321 85.2689 220.307 84.121 222.5 83.7372ZM206.175 86.6788C209.35 86.1054 211.925 87.8504 211.925 92.3127V100.963L207.175 101.835V93.3597C207.175 91.839 206.35 90.8668 204.9 91.2657C204.307 91.416 203.757 91.6982 203.289 92.0911C202.822 92.484 202.449 92.9773 202.2 93.5342V102.708L197.5 103.556V88.8226L202.175 87.9501V88.7728C203.31 87.7219 204.71 86.9981 206.225 86.6788H206.175ZM140.9 85.4074V91.6645L2.8001 117.017H2.5751V37.8932L203.475 3.39174V74.339L141.7 85.2578L140.9 85.4074ZM186.825 101.835C187.561 101.742 188.233 101.368 188.699 100.791C189.165 100.215 189.389 99.4817 189.325 98.7443V90.3932L194.075 89.5206V97.7222C194.157 99.7878 193.465 101.81 192.134 103.395C190.803 104.98 188.929 106.015 186.875 106.298C185.975 106.619 185.006 106.699 184.065 106.528C183.124 106.358 182.245 105.944 181.515 105.328C180.786 104.711 180.232 103.914 179.909 103.017C179.586 102.12 179.505 101.153 179.675 100.215V92.188L184.425 91.3155V99.6667C184.35 101.187 185.125 102.11 186.875 101.835H186.825ZM170.6 104.952C171.892 104.741 173.05 104.034 173.825 102.982L177.1 104.952C176.339 106.056 175.362 106.996 174.228 107.716C173.094 108.435 171.826 108.92 170.5 109.14C165 110.187 162.125 106.996 162.125 102.708C162.065 100.485 162.815 98.3165 164.235 96.6025C165.655 94.8884 167.65 93.7453 169.85 93.3846C170.69 93.1115 171.585 93.0491 172.455 93.2031C173.326 93.3571 174.144 93.7227 174.839 94.2675C175.534 94.8123 176.083 95.5194 176.438 96.3264C176.793 97.1334 176.943 98.0152 176.875 98.8939C176.865 99.7332 176.765 100.569 176.575 101.387L166.975 103.132C167.5 104.727 168.675 105.35 170.6 104.952ZM158.6 90.2436V108.791C158.711 109.8 158.62 110.821 158.332 111.795C158.044 112.769 157.566 113.676 156.924 114.464C156.282 115.253 155.49 115.906 154.593 116.387C153.697 116.868 152.713 117.167 151.7 117.266C150.95 117.266 150.3 117.491 149.9 117.491V112.954C150.232 112.996 150.568 112.996 150.9 112.954C151.255 112.956 151.607 112.883 151.932 112.74C152.256 112.596 152.546 112.385 152.783 112.121C153.02 111.857 153.197 111.546 153.303 111.208C153.41 110.87 153.443 110.513 153.4 110.162V91.2158L158.6 90.2436ZM247.5 74.5135V115.347L153.175 132.149L145 128.036L237.5 111.508H238.2V70.7991H238.325L247.5 74.5135Z"
            fill="#3A61AA" />
        <path
            d="M2.57495 37.8433V117.067L2.79995 117.017L140.95 91.6645V85.4074L141.7 85.3575L203.475 74.339V3.39172L2.57495 37.8433Z"
            fill="white" />
        <path
            d="M21.1248 87.5513C20.0057 86.9819 18.7165 86.84 17.4998 87.1524C15.571 87.5403 13.8423 88.5969 12.6204 90.1348C11.3985 91.6726 10.7623 93.5923 10.8248 95.5534C10.7183 96.4185 10.8259 97.2966 11.1384 98.1106C11.4509 98.9247 11.9586 99.65 12.6173 100.223C13.2759 100.796 14.0653 101.2 14.9165 101.398C15.7676 101.597 16.6546 101.584 17.4998 101.362C18.8549 101.12 20.1126 100.497 21.1248 99.5669V100.215L25.3248 99.3924V79.7735L21.1248 80.5961V87.5513ZM21.1248 95.0299C20.8134 95.5998 20.3777 96.0927 19.8498 96.4724C19.322 96.8521 18.7154 97.1088 18.0748 97.2236C16.2248 97.5726 15.1498 96.4758 15.1498 94.5563C15.0972 93.682 15.3648 92.8183 15.9028 92.126C16.4408 91.4336 17.2126 90.9596 18.0748 90.792C18.6305 90.6618 19.2117 90.691 19.7514 90.8763C20.2911 91.0616 20.7673 91.3953 21.1248 91.839V95.0299Z"
            fill="#3A61AA" />
        <path d="M27.25 88.5484L31.125 87.8005L34.45 79.25L29.775 80.1973L27.25 88.5484Z" fill="#3A61AA" />
        <path
            d="M36.9248 97.0741L48.2748 94.8554V90.9166L41.5998 92.188V88.8226L47.2248 87.7258V83.787L41.5998 84.8839V81.8176L48.2748 80.5463V76.5826L36.9248 78.8012V97.0741Z"
            fill="#3A61AA" />
        <path
            d="M59.4999 79.0256C58.1636 79.2927 56.9418 79.9628 56 80.9451V80.2721L51.825 81.0698V94.1823L56 93.3846V85.1082C56.2388 84.6068 56.5874 84.1651 57.0201 83.8156C57.4527 83.4662 57.9584 83.2179 58.5 83.089C59.825 82.8646 60.5249 83.6125 60.5249 84.9337V92.4124L64.75 91.5897V83.9615C64.65 80.0228 62.2999 78.5021 59.4999 79.0256Z"
            fill="#3A61AA" />
        <path
            d="M75.525 86.3298L72.5 86.928C72.075 86.928 71.775 86.928 71.775 86.4544C71.782 86.2385 71.8714 86.0334 72.025 85.881C72.2744 85.9049 72.5256 85.9049 72.775 85.881C74.2239 85.7513 75.5774 85.1053 76.5875 84.0614C77.5976 83.0176 78.1967 81.6457 78.275 80.1973V79.5491L80.325 79.1503V75.5605L75.6 76.4829C74.6719 76.2577 73.7031 76.2577 72.775 76.4829C71.3415 76.6344 70.0087 77.2893 69.0149 78.3305C68.0211 79.3718 67.4309 80.7315 67.35 82.1666C67.304 82.8166 67.444 83.4663 67.7538 84.04C68.0636 84.6137 68.5305 85.0879 69.1 85.4074C68.6751 85.7603 68.3337 86.2026 68.1003 86.7025C67.8669 87.2025 67.7473 87.7477 67.75 88.2991C67.7594 88.9567 68.029 89.5839 68.5 90.0441C67.9728 90.4652 67.5433 90.9953 67.2412 91.5978C66.9391 92.2003 66.7715 92.8609 66.75 93.5342C66.75 96.4259 69.25 97.3483 73.65 96.4758C78.05 95.6033 80.675 92.8362 80.675 89.6951C80.675 87.2023 78.75 85.7065 75.525 86.3298ZM72.85 79.4245C73.825 79.25 74.6 79.6738 74.6 80.7208C74.6075 81.2001 74.4301 81.6639 74.1044 82.0165C73.7787 82.3691 73.3297 82.5835 72.85 82.6154C71.775 82.7899 71.075 82.391 71.075 81.344C71.0675 80.8581 71.2476 80.3879 71.578 80.0307C71.9083 79.6734 72.3637 79.4564 72.85 79.4245ZM73.65 93.1852C71.55 93.584 70.675 93.1852 70.675 92.0883C70.6669 91.7932 70.731 91.5005 70.8617 91.2356C70.9923 90.9707 71.1857 90.7414 71.425 90.5676L75 89.8696C76.05 89.6453 76.575 90.1189 76.575 90.8668C76.575 91.6147 75.775 92.7364 73.65 93.1852Z"
            fill="#3A61AA" />
        <path
            d="M87.8249 73.5662C86.6681 73.7736 85.5668 74.2173 84.5902 74.8693C83.6136 75.5214 82.7827 76.3678 82.1499 77.3554L85.1749 79.0256C85.4223 78.548 85.7764 78.1333 86.2098 77.8135C86.6432 77.4937 87.1444 77.2772 87.6748 77.1809C88.8498 76.9316 89.6748 77.5299 89.7248 78.5021L86.0498 79.8483C83.0998 80.8953 81.5999 82.74 81.5999 84.834C81.5999 87.3269 83.4749 88.5983 86.1498 88.1246C87.5499 87.8025 88.8056 87.032 89.7248 85.9309V86.9031L93.9248 86.1054V77.7792C93.9498 74.9124 92.0249 72.7934 87.8249 73.5662ZM89.6999 82.5655C89.4384 83.0738 89.0635 83.5156 88.6042 83.857C88.1448 84.1984 87.6131 84.4303 87.0499 84.5349C86.2499 84.7094 85.6998 84.5349 85.6498 83.787C85.5998 83.0392 85.9998 82.74 87.1248 82.3411L89.6248 81.4188L89.6999 82.5655Z"
            fill="#3A61AA" />
        <path
            d="M104.85 80.646L101.8 81.2443C101.4 81.2443 101.1 81.2443 101.1 80.7706C101.097 80.665 101.116 80.5599 101.155 80.4614C101.193 80.363 101.251 80.2732 101.325 80.1973C101.583 80.2212 101.842 80.2212 102.1 80.1973C103.551 80.0416 104.897 79.3679 105.89 78.3005C106.882 77.233 107.454 75.8437 107.5 74.3889V73.7407L109.55 73.3419V69.8768L105 70.7991C104.083 70.5488 103.116 70.5488 102.2 70.7991C100.764 70.95 99.4278 71.604 98.4298 72.6447C97.4319 73.6855 96.8366 75.0455 96.7498 76.4829C96.7038 77.1329 96.8438 77.7825 97.1536 78.3563C97.4634 78.93 97.9303 79.4042 98.4998 79.7236C98.0801 80.081 97.7423 80.5241 97.5094 81.0231C97.2764 81.522 97.1538 82.0651 97.1498 82.6154C97.1577 82.9427 97.2302 83.2653 97.3632 83.5648C97.4962 83.8642 97.687 84.1345 97.9248 84.3604C97.4036 84.7869 96.9785 85.3182 96.6769 85.9195C96.3754 86.5208 96.2043 87.1788 96.1748 87.8504C96.1748 90.7422 98.6748 91.6645 103.075 90.792C107.475 89.9195 110 87.1524 110 84.0114C110 81.5185 108.05 80.0228 104.85 80.646ZM102.15 73.7407C103.15 73.5662 103.9 73.99 103.9 75.037C103.901 75.5146 103.722 75.9752 103.397 76.3265C103.073 76.6778 102.627 76.8939 102.15 76.9316C101.1 77.1061 100.4 76.7073 100.4 75.6602C100.392 75.1784 100.569 74.7116 100.894 74.355C101.219 73.9984 101.668 73.7787 102.15 73.7407ZM102.925 87.5014C100.8 87.9003 99.9748 87.5014 99.9248 86.4045C99.9217 86.1076 99.9905 85.8143 100.125 85.5495C100.26 85.2848 100.457 85.0564 100.7 84.8839L104.325 84.1859C105.375 83.9615 105.9 84.4352 105.9 85.183C105.9 85.9309 105 87.1026 102.925 87.5014Z"
            fill="#3A61AA" />
        <path
            d="M117.95 78.2279C116.2 78.5769 115.075 78.0534 114.725 76.5826L123.275 74.9124C123.484 74.1746 123.585 73.4105 123.575 72.6438C123.64 71.8801 123.515 71.1121 123.211 70.408C122.907 69.7039 122.434 69.0853 121.833 68.6071C121.233 68.1288 120.523 67.8057 119.767 67.6663C119.011 67.5268 118.232 67.5754 117.5 67.8077C115.528 68.158 113.746 69.1996 112.476 70.7447C111.206 72.2897 110.532 74.2364 110.575 76.2336C110.575 80.0477 113.075 82.7649 118.075 81.8426C119.253 81.6551 120.38 81.2287 121.386 80.5899C122.392 79.951 123.256 79.1132 123.925 78.1282L121 76.3832C120.639 76.8767 120.184 77.2939 119.66 77.6105C119.137 77.9272 118.555 78.1371 117.95 78.2279ZM117.5 71.2478C118.9 70.9736 119.525 71.7215 119.6 72.594L115 73.4665C115.142 72.8877 115.457 72.3656 115.904 71.9694C116.35 71.5733 116.907 71.3216 117.5 71.2478Z"
            fill="#3A61AA" />
        <path
            d="M141.875 63.0712C140.183 63.482 138.715 64.5264 137.775 65.9879C137.328 65.4077 136.72 64.971 136.027 64.7317C135.334 64.4924 134.586 64.4612 133.875 64.6417C132.603 64.8992 131.447 65.5541 130.575 66.5114V65.8134L126.425 66.6111V79.7236L130.575 78.9259V70.7243C130.875 70.2756 131.4 69.0043 132.675 68.755C133.95 68.5057 134.5 69.2286 134.5 70.4003V78.1531L138.7 77.3554V69.0541C138.95 68.7051 139.475 67.4338 140.75 67.2094C142.025 66.985 142.575 67.6581 142.575 68.8298V76.5826L146.775 75.7849V67.8077C146.725 64.0185 144.5 62.5477 141.875 63.0712Z"
            fill="#3A61AA" />
        <path
            d="M156.8 70.7243C155.05 71.0733 153.925 70.5498 153.575 69.104L162.125 67.4337C162.28 66.6876 162.355 65.9272 162.35 65.1652C162.423 64.387 162.299 63.6029 161.989 62.885C161.679 62.1671 161.193 61.5385 160.576 61.0569C159.959 60.5753 159.23 60.2562 158.456 60.1291C157.683 60.0019 156.89 60.0706 156.15 60.329C154.184 60.6793 152.409 61.7182 151.144 63.2586C149.879 64.799 149.207 66.7394 149.25 68.73C149.25 72.5691 151.75 75.2863 156.75 74.3639C159.056 73.8795 161.102 72.5663 162.5 70.6745L159.575 68.9295C158.912 69.8574 157.92 70.499 156.8 70.7243ZM156.15 63.7692C157.55 63.495 158.2 64.2429 158.25 65.1154L153.7 65.9879C153.823 65.4081 154.125 64.8817 154.565 64.4833C155.005 64.085 155.56 63.8351 156.15 63.7692Z"
            fill="#3A61AA" />
        <path
            d="M172.875 57.1132C171.537 57.3757 170.314 58.0465 169.375 59.0327V58.26L165.225 59.0826V72.1951L169.375 71.3725V63.1959C169.614 62.6944 169.962 62.2527 170.395 61.9032C170.828 61.5538 171.333 61.3055 171.875 61.1766C173.225 60.9273 173.925 61.7001 173.925 63.0214V70.5L178.125 69.7023V61.9743C178.025 58.0855 175.7 56.5897 172.875 57.1132Z"
            fill="#3A61AA" />
        <path
            d="M186.45 51.7037L182.25 52.5263V55.7671L179.75 56.2407V60.005L182.25 59.5313V63.844C182.25 67.0349 183.7 68.8297 187.25 68.1816C188.222 68.0402 189.156 67.7098 190 67.2094V63.6695C189.379 64.0158 188.702 64.252 188 64.3675C186.875 64.5918 186.35 64.1182 186.35 63.0712V58.7834L190 58.0854V54.3212L186.35 55.0192L186.45 51.7037Z"
            fill="#3A61AA" />
        <path
            d="M41.4749 65.0406L34.6249 61.2265C33.8259 62.6004 32.7447 63.7903 31.4522 64.7183C30.1597 65.6463 28.685 66.2913 27.1249 66.6111C25.9615 66.9074 24.7437 66.9209 23.5739 66.6503C22.4042 66.3797 21.3167 65.8331 20.4029 65.0562C19.4891 64.2794 18.7758 63.2951 18.3228 62.1862C17.8698 61.0773 17.6905 59.8761 17.7999 58.6837C17.7628 55.9781 18.6742 53.3443 20.3766 51.2372C22.079 49.13 24.4658 47.6815 27.1249 47.1417C28.4833 46.8015 29.9109 46.8554 31.2396 47.297C32.5684 47.7387 33.7429 48.5497 34.6249 49.6346L41.4749 43.1282C39.6504 41.249 37.3579 39.8871 34.832 39.1818C32.3062 38.4766 29.6377 38.4534 27.0999 39.1147C22.1088 40.0802 17.5928 42.7029 14.2878 46.5553C10.9828 50.4077 9.08364 55.2627 8.8999 60.329C8.8999 69.9765 16.3999 76.6823 27.0999 74.6132C30.0105 74.0414 32.779 72.9012 35.2461 71.2583C37.7131 69.6155 39.83 67.5024 41.4749 65.0406Z"
            fill="#3A61AA" />
        <path
            d="M57.1 68.8297C60.8135 68.1779 64.1848 66.2605 66.6379 63.4051C69.0911 60.5497 70.4738 56.9336 70.55 53.1745C70.55 45.6958 65.05 41.1588 57.1 42.7293C53.3685 43.3566 49.9743 45.2647 47.5045 48.1235C45.0348 50.9823 43.6447 54.6119 43.575 58.3846C43.575 65.7386 49.025 70.3005 57.1 68.8297ZM57.1 49.8589C57.8144 49.67 58.565 49.6625 59.2831 49.8372C60.0012 50.0119 60.664 50.3632 61.211 50.859C61.7579 51.3548 62.1716 51.9793 62.4142 52.6755C62.6569 53.3718 62.7207 54.1175 62.6 54.8447C62.6376 56.4637 62.1095 58.0454 61.1061 59.3189C60.1027 60.5923 58.6864 61.4782 57.1 61.8248C56.3961 62.016 55.6557 62.0307 54.9447 61.8677C54.2338 61.7046 53.5743 61.3688 53.0249 60.8901C52.4756 60.4114 52.0535 59.8047 51.7961 59.124C51.5388 58.4433 51.4542 57.7097 51.55 56.9886C51.4581 55.3328 51.969 53.6996 52.9888 52.3895C54.0085 51.0795 55.4685 50.1809 57.1 49.8589Z"
            fill="#3A61AA" />
        <path
            d="M83.1249 47.7151C83.5232 46.7999 84.1234 45.9861 84.8809 45.3343C85.6384 44.6826 86.5337 44.2097 87.4999 43.9508C89.9999 43.4772 91.2999 44.9231 91.2999 47.3661V61.2265L99.0749 59.7058V45.4964C99.0749 38.1923 94.8249 35.5249 89.5999 36.3974C87.1042 36.8392 84.8216 38.0823 83.0999 39.9373V38.6161L75.3999 40.1118V64.2927L83.0999 62.797L83.1249 47.7151Z"
            fill="#3A61AA" />
        <path
            d="M106.825 48.8618C106.825 54.7949 109.575 58.2101 116.25 56.9387C118.017 56.624 119.711 55.9904 121.25 55.0691V48.463C120.09 49.0652 118.841 49.4776 117.55 49.6845C115.5 50.0833 114.525 49.2108 114.525 47.3162V39.4138L121.175 38.1424V31.2372L114.525 32.5085V26.4758L106.825 27.9216V34.0043L102.275 34.8768V41.782L106.825 40.9095V48.8618Z"
            fill="#3A61AA" />
        <path
            d="M133.875 38.7906C134.439 37.9165 135.172 37.1626 136.03 36.5721C136.888 35.9817 137.855 35.5665 138.875 35.3504C139.862 35.1538 140.869 35.0784 141.875 35.1261V27.0741C141.138 26.9549 140.387 26.9549 139.65 27.0741C137.333 27.5724 135.254 28.8376 133.75 30.6638V28.6944L126.15 30.4145V54.5954L133.875 53.0997V38.7906Z"
            fill="#3A61AA" />
        <path
            d="M143.75 44.4743C143.75 49.2108 147.2 51.4295 152.125 50.4323C154.73 49.9265 157.07 48.5126 158.725 46.4437V48.2386L166.5 46.7179V31.4117C166.5 26.1268 162.95 22.188 155.15 23.7087C153.017 24.1023 150.985 24.9212 149.176 26.1163C147.368 27.3114 145.82 28.8581 144.625 30.6638L150.25 33.7799C150.721 32.8866 151.397 32.1165 152.222 31.5319C153.047 30.9472 153.999 30.5644 155 30.4145C157.225 30.0156 158.675 31.1125 158.8 32.9074L152.025 35.4003C146.625 37.2699 143.75 40.6852 143.75 44.4743ZM154.1 39.9373L158.775 38.2671V40.386C158.27 41.3286 157.558 42.1454 156.692 42.7756C155.826 43.4057 154.829 43.833 153.775 44.0256C152.25 44.3746 151.275 43.8013 151.275 42.5798C151.275 41.3582 152.05 40.6852 154.1 39.9373Z"
            fill="#3A61AA" />
        <path
            d="M174.225 35.8739C174.225 41.807 176.975 45.2222 183.65 43.9508C185.417 43.6362 187.111 43.0026 188.65 42.0812V35.4003C187.49 36.0025 186.241 36.415 184.95 36.6218C182.9 37.0206 181.925 36.1481 181.925 34.1289V26.4259L188.575 25.0798V18.1994L181.925 19.4708V13.438L174.125 14.9338V21.0413L169.575 21.8889V28.7941L174.225 27.9216V35.8739Z"
            fill="#3A61AA" />
    </g>
    <defs>
        <clipPath id="clip0_447_952">
            <rect width="250" height="134.615" fill="white" transform="translate(0 0.5)" />
        </clipPath>
    </defs>
</svg>
