<svg fill="none" xmlns="http://www.w3.org/2000/svg" viewBox="22.1 61.2 159.82 81.62">
    <path
        d="M35.7694 112.395C33.9775 112.395 32.5859 112.904 31.5947 113.924C30.6034 114.905 30.0125 116.471 29.8219 118.623H41.145C41.0306 114.471 39.2387 112.395 35.7694 112.395ZM35.8837 134.929C31.6519 134.929 28.2969 133.778 25.8187 131.475C23.3406 129.135 22.1016 125.757 22.1016 121.341C22.1016 116.698 23.3216 113.093 25.7616 110.526C28.2016 107.922 31.6137 106.62 35.9981 106.62C40.0775 106.62 43.1465 107.714 45.2053 109.904C47.264 112.093 48.2934 115.094 48.2934 118.906C48.2934 119.887 48.2362 121.095 48.1218 122.53H29.7647C29.9934 124.681 30.6034 126.267 31.5947 127.286C32.624 128.267 34.0728 128.758 35.9409 128.758C37.6184 128.758 38.8384 128.437 39.6009 127.795C40.4015 127.154 41.0115 126.229 41.4309 125.021L47.9503 126.776C46.5397 132.212 42.5175 134.929 35.8837 134.929Z"
        fill="white" />
    <path
        d="M60.0606 119.246V134.193H52.2831V107.356H59.889V114.546H60.4609C61.2234 111.98 62.3862 110.017 63.9494 108.658C65.5125 107.299 67.3806 106.62 69.5537 106.62C74.1668 106.62 76.664 109.3 77.0453 114.66H77.6743C79.1993 109.3 82.2112 106.62 86.71 106.62C89.3406 106.62 91.3231 107.45 92.6574 109.111C94.0299 110.734 94.7162 113.037 94.7162 116.018V134.193H86.8815V118.17C86.8815 115.113 85.509 113.584 82.764 113.584C81.1246 113.584 79.8093 114.112 78.8181 115.169C77.865 116.188 77.3884 117.547 77.3884 119.246V134.193H69.6109V118.17C69.6109 116.773 69.2678 115.66 68.5815 114.829C67.8953 113.999 66.8659 113.584 65.4934 113.584C63.854 113.584 62.5387 114.112 61.5475 115.169C60.5562 116.188 60.0606 117.547 60.0606 119.246Z"
        fill="white" />
    <path
        d="M113.014 128.192C116.636 128.192 118.447 125.738 118.447 120.831C118.447 118.34 118.008 116.509 117.131 115.339C116.293 114.169 114.939 113.584 113.071 113.584C111.355 113.584 110.002 114.15 109.011 115.282C108.02 116.415 107.524 117.944 107.524 119.869V121.963C107.524 123.851 108.02 125.361 109.011 126.493C110.04 127.625 111.375 128.192 113.014 128.192ZM126.11 120.831C126.11 125.398 125.29 128.909 123.651 131.362C122.011 133.778 119.724 134.986 116.788 134.986C112.442 134.986 109.506 132.381 107.981 127.172H107.524V142.799H99.7464V107.356H107.524V114.15H108.039C109.564 109.13 112.48 106.62 116.788 106.62C119.762 106.62 122.05 107.846 123.651 110.3C125.29 112.716 126.11 116.226 126.11 120.831Z"
        fill="white" />
    <path d="M137.901 97.8438V134.193H130.123V97.8438H137.901Z" fill="white" />
    <path
        d="M155.934 134.986C151.549 134.986 148.118 133.721 145.64 131.192C143.162 128.663 141.923 125.191 141.923 120.774C141.923 116.32 143.162 112.848 145.64 110.357C148.156 107.865 151.587 106.62 155.934 106.62C160.204 106.62 163.578 107.884 166.056 110.413C168.572 112.904 169.83 116.358 169.83 120.774C169.83 125.191 168.591 128.663 166.113 131.192C163.635 133.721 160.242 134.986 155.934 134.986ZM162.053 120.718C162.053 115.622 159.994 113.074 155.876 113.074C151.759 113.074 149.7 115.622 149.7 120.718C149.7 125.851 151.759 128.418 155.876 128.418C159.994 128.418 162.053 125.851 162.053 120.718Z"
        fill="white" />
    <path d="M181.902 103.562H173.781V98.0136H181.902V103.562ZM181.73 134.193H173.952V107.356H181.73V134.193Z"
        fill="white" />
    <path
        d="M63.3189 82.489C66.9356 82.489 68.7439 80.0681 68.7439 75.2261C68.7439 72.7679 68.3061 70.9615 67.4305 69.8069C66.593 68.6523 65.2414 68.075 63.376 68.075C61.6628 68.075 60.3113 68.6336 59.3215 69.751C58.3316 70.8684 57.8367 72.3768 57.8367 74.2764V76.3435C57.8367 78.2058 58.3316 79.6956 59.3215 80.813C60.3494 81.9304 61.6818 82.489 63.3189 82.489ZM76.3961 75.2261C76.3961 79.7329 75.5776 83.1967 73.9406 85.6177C72.3035 88.0014 70.0193 89.1933 67.0879 89.1933C62.7478 89.1933 59.8164 86.6233 58.2936 81.4834H57.8367V96.9031H50.0703V61.9294H57.8367V68.6336H58.3507C59.8735 63.68 62.7859 61.2031 67.0879 61.2031C70.0574 61.2031 72.3416 62.4136 73.9406 64.8346C75.5776 67.2183 76.3961 70.6822 76.3961 75.2261Z"
        fill="white" />
    <path
        d="M90.1118 83.1595C91.8631 83.1595 93.2526 82.7125 94.2805 81.8186C95.3465 80.8875 95.8795 79.6956 95.8795 78.243V77.1815H90.2831C89.0268 77.1815 88.0179 77.4422 87.2565 77.9637C86.5332 78.4851 86.1715 79.2114 86.1715 80.1426C86.1715 82.1538 87.4849 83.1595 90.1118 83.1595ZM96.2792 88.4111V82.098H95.594C94.1092 86.6792 91.1587 88.9698 86.7426 88.9698C84.3441 88.9698 82.4215 88.3552 80.9749 87.1261C79.5282 85.8598 78.8048 83.9789 78.8048 81.4834C78.8048 78.9879 79.6043 77.0325 81.2033 75.6172C82.8403 74.1646 85.372 73.4383 88.7984 73.4383H95.8795V71.5947C95.8795 68.7268 94.4899 67.2928 91.7108 67.2928C89.16 67.2928 87.6372 68.5592 87.1423 71.0919L79.8327 69.4717C80.3277 66.939 81.584 64.9463 83.6017 63.4937C85.6195 62.0039 88.4177 61.259 91.9963 61.259C96.0318 61.259 98.9632 62.1343 100.791 63.8848C102.656 65.5981 103.589 68.1681 103.589 71.5947V88.4111H96.2792Z"
        fill="white" />
    <path
        d="M119.803 89.1933C115.539 89.1933 112.455 88.467 110.552 87.0144C108.686 85.5618 107.544 83.4947 107.125 80.813L114.092 79.4163C114.778 82.3587 116.738 83.8299 119.974 83.8299C122.601 83.8299 123.934 82.9732 123.972 81.2599C123.972 80.4033 123.553 79.7329 122.715 79.2487C121.916 78.7272 120.317 78.243 117.918 77.7961C114.264 77.0139 111.694 75.9897 110.209 74.7233C108.724 73.4197 107.982 71.6133 107.982 69.3041C107.982 66.6969 108.934 64.7042 110.837 63.3261C112.741 61.9108 115.577 61.2031 119.346 61.2031C123.039 61.2031 125.723 61.8549 127.398 63.1585C129.111 64.4249 130.234 66.3244 130.767 68.8571L123.857 70.2538C123.553 68.8757 123.039 67.9074 122.316 67.3487C121.63 66.7527 120.583 66.4548 119.175 66.4548C116.624 66.4548 115.349 67.2556 115.349 68.8571C115.349 69.6765 115.71 70.3469 116.434 70.8684C117.195 71.3898 118.699 71.874 120.945 72.321C124.942 73.1404 127.683 74.2391 129.168 75.6172C130.691 76.9581 131.452 78.7272 131.452 80.9247C131.452 86.4371 127.569 89.1933 119.803 89.1933Z"
        fill="white" />
    <path
        d="M146.286 89.1933C142.022 89.1933 138.938 88.467 137.035 87.0144C135.169 85.5618 134.027 83.4947 133.608 80.813L140.575 79.4163C141.26 82.3587 143.221 83.8299 146.457 83.8299C149.084 83.8299 150.416 82.9732 150.454 81.2599C150.454 80.4033 150.036 79.7329 149.198 79.2487C148.399 78.7272 146.8 78.243 144.401 77.7961C140.746 77.0139 138.177 75.9897 136.692 74.7233C135.207 73.4197 134.465 71.6133 134.465 69.3041C134.465 66.6969 135.417 64.7042 137.32 63.3261C139.224 61.9108 142.06 61.2031 145.829 61.2031C149.522 61.2031 152.206 61.8549 153.881 63.1585C155.594 64.4249 156.717 66.3244 157.25 68.8571L150.34 70.2538C150.036 68.8757 149.522 67.9074 148.798 67.3487C148.113 66.7527 147.066 66.4548 145.658 66.4548C143.107 66.4548 141.831 67.2556 141.831 68.8571C141.831 69.6765 142.193 70.3469 142.916 70.8684C143.678 71.3898 145.182 71.874 147.428 72.321C151.425 73.1404 154.166 74.2391 155.651 75.6172C157.174 76.9581 157.935 78.7272 157.935 80.9247C157.935 86.4371 154.052 89.1933 146.286 89.1933Z"
        fill="white" />
</svg>