<svg width="120" height="79" viewBox="0 0 120 79" fill="none" xmlns="http://www.w3.org/2000/svg">
    <path
        d="M12.2923 62.391L11.6524 64.7644H9.76827L10.4082 62.391H8.87953L8.23963 64.7644H6V66.1453H7.88414L7.38608 67.952H6V69.3329H6.99539L6.3555 71.7062H7.88414L8.52403 69.3329H10.3726L9.73272 71.7062H11.261L11.9009 69.3329H14.1405V67.952H12.2923L12.79 66.1453H14.1405V64.7644H13.1807L13.8206 62.391H12.2923ZM9.41277 66.1453H11.2969L10.7992 67.952H8.91508L9.41277 66.1453Z"
        fill="white" />
    <path d="M17.5893 71.7059V64.2328L15.6696 65.3307L14.7809 64.0557L17.6604 62.3911H19.4023V71.7059H17.5893Z"
        fill="white" />
    <path
        d="M23.5971 72.4145C23.5971 73.2645 23.3838 73.9021 22.9928 74.3271C22.6017 74.7875 21.9618 75 21.1086 75C20.8242 75 20.5754 74.9646 20.3977 74.9646C20.1844 74.9292 20.0066 74.8583 19.8289 74.7875V73.3C19.9355 73.3354 20.0777 73.3708 20.2555 73.4062C20.4332 73.4416 20.611 73.4416 20.8598 73.4416C21.1797 73.4416 21.4641 73.3708 21.6419 73.1937C21.8552 73.052 21.9263 72.7687 21.9263 72.3791V64.9414H23.6327V72.4145H23.5971ZM22.7439 63.8434C22.424 63.8434 22.1751 63.7372 21.9618 63.5247C21.7485 63.3122 21.6419 63.0288 21.6419 62.7455C21.6419 62.4267 21.7485 62.1788 21.9618 61.9663C22.1751 61.7538 22.4595 61.6475 22.7439 61.6475C23.0283 61.6475 23.2772 61.7538 23.4905 61.9663C23.7038 62.1788 23.8104 62.4267 23.8104 62.7455C23.8104 63.0642 23.7038 63.3122 23.4905 63.5247C23.2772 63.7372 23.0283 63.8434 22.7439 63.8434Z"
        fill="white" />
    <path
        d="M28.6096 66.1456C28.183 66.1456 27.863 66.2518 27.5786 66.4643C27.2942 66.6769 27.1165 66.9956 26.9743 67.4206H29.996C29.996 67.1019 29.8538 66.7831 29.605 66.5352C29.3917 66.2873 29.0717 66.1456 28.6096 66.1456ZM31.8446 70.6082C31.5247 71.0332 31.1336 71.352 30.6004 71.5999C30.1027 71.8478 29.5339 71.9541 28.894 71.9541C28.2896 71.9541 27.7564 71.8478 27.2942 71.6708C26.8321 71.4583 26.441 71.2103 26.1211 70.8916C25.8011 70.5728 25.5523 70.1832 25.4101 69.7582C25.2324 69.2978 25.1613 68.8373 25.1613 68.3769C25.1613 67.8811 25.2324 67.4206 25.3746 66.9956C25.5523 66.5352 25.7656 66.181 26.05 65.8268C26.3344 65.5081 26.6899 65.2247 27.1165 65.0476C27.5431 64.8351 28.0408 64.7643 28.574 64.7643C29.4983 64.7643 30.2449 65.0476 30.8137 65.6143C31.3825 66.181 31.6669 66.8894 31.6669 67.7748C31.6669 67.9519 31.6669 68.129 31.6313 68.3061C31.5958 68.4832 31.5958 68.6248 31.5602 68.7311H26.9032C26.9743 69.2978 27.152 69.7228 27.5431 70.0061C27.8986 70.3249 28.3607 70.4666 28.9295 70.4666C29.285 70.4666 29.6405 70.3957 29.9249 70.254C30.2093 70.1124 30.4582 69.8999 30.6359 69.6519L31.8446 70.6082Z"
        fill="white" />
    <path
        d="M37.7103 68.8019V65.0122H39.4167V68.7311C39.4167 69.7228 39.1323 70.5374 38.5635 71.1041C37.9947 71.6708 37.2482 71.9541 36.2528 71.9541C35.2574 71.9541 34.5108 71.6708 33.942 71.1041C33.3732 70.502 33.1244 69.7228 33.1244 68.7311V65.0122H34.8308V68.8019C34.8308 69.2978 34.973 69.6519 35.2218 69.9353C35.4707 70.2186 35.8262 70.3603 36.2883 70.3603C36.7505 70.3603 37.106 70.2186 37.3548 69.9353C37.6037 69.6874 37.7103 69.2978 37.7103 68.8019Z"
        fill="white" />
    <path
        d="M41.3009 71.7062V65.0122H43.0073V65.5435C43.2561 65.331 43.505 65.1185 43.8249 64.9768C44.1449 64.8351 44.5359 64.7289 44.9981 64.7289C45.3536 64.7289 45.7091 64.7997 46.029 64.906C46.349 65.0476 46.6334 65.2247 46.8467 65.4727C47.0955 65.7206 47.2733 66.0393 47.4155 66.3935C47.5577 66.7831 47.6287 67.2081 47.6287 67.704V71.7062H45.9224V67.7748C45.9224 67.3144 45.8157 66.9956 45.5669 66.7123C45.318 66.4289 44.9981 66.3227 44.607 66.3227C44.1804 66.3227 43.8249 66.4289 43.5761 66.6769C43.3272 66.8894 43.1495 67.1019 43.0428 67.3144V71.7062H41.3009Z"
        fill="white" />
    <path
        d="M52.499 66.1456C52.0724 66.1456 51.7524 66.2518 51.468 66.4643C51.1836 66.6769 51.0059 66.9956 50.8637 67.4206H53.8854C53.8854 67.1019 53.7432 66.7831 53.4944 66.5352C53.3166 66.2873 52.9611 66.1456 52.499 66.1456ZM55.734 70.6082C55.414 71.0332 55.023 71.352 54.4898 71.5999C53.9921 71.8478 53.4233 71.9541 52.7834 71.9541C52.179 71.9541 51.6458 71.8478 51.1836 71.6708C50.7215 71.4583 50.3304 71.2103 50.0105 70.8916C49.6906 70.5728 49.4417 70.1832 49.2995 69.7582C49.1218 69.2978 49.0507 68.8373 49.0507 68.3769C49.0507 67.8811 49.1218 67.4206 49.264 66.9956C49.4417 66.5352 49.655 66.181 49.9394 65.8268C50.2238 65.5081 50.5793 65.2247 51.0059 65.0476C51.4325 64.8351 51.9302 64.7643 52.4634 64.7643C53.3877 64.7643 54.1343 65.0476 54.7031 65.6143C55.2718 66.181 55.5562 66.8894 55.5562 67.7748C55.5562 67.9519 55.5562 68.129 55.5207 68.3061C55.4851 68.4832 55.4851 68.6248 55.4496 68.7311H50.7926C50.8637 69.2978 51.0414 69.7228 51.4325 70.0061C51.788 70.3249 52.2501 70.4666 52.8189 70.4666C53.1744 70.4666 53.5299 70.3957 53.8143 70.254C54.0987 70.1124 54.3476 69.8999 54.5253 69.6519L55.734 70.6082Z"
        fill="white" />
    <path d="M59.1113 71.7062V64.233L57.1916 65.331L56.3029 64.056L59.1824 62.3913H60.9243V71.7062H59.1113Z"
        fill="white" />
    <path
        d="M62.844 70.7499L63.9816 69.7228C64.1949 69.9707 64.4082 70.1832 64.657 70.3603C64.9059 70.5374 65.1903 70.6082 65.5102 70.6082C65.7946 70.6082 65.9724 70.5374 66.1146 70.3957C66.2568 70.254 66.3279 70.1123 66.3279 69.8998C66.3279 69.6165 66.1501 69.404 65.8302 69.2623C65.5102 69.1207 65.1547 68.979 64.7637 68.8373C64.3726 68.6602 64.0171 68.4477 63.6972 68.1644C63.3776 67.8814 63.1998 67.4213 63.1995 66.8199C63.1999 66.5376 63.2631 66.2588 63.3845 66.0037C63.5059 65.7486 63.6825 65.5235 63.9016 65.3444C64.3588 64.9686 64.9187 64.7643 65.5813 64.7643C66.1146 64.7643 66.5767 64.8705 67.0033 65.083C67.4655 65.2955 67.7854 65.5789 68.0342 65.8976L66.8967 66.9248C66.7189 66.7122 66.5412 66.5352 66.2923 66.3935C66.079 66.2518 65.8302 66.181 65.5458 66.181C65.3303 66.181 65.1682 66.2341 65.036 66.3173C64.8785 66.4169 64.7662 66.5883 64.7637 66.7742C64.7601 67.0622 64.9382 67.2775 65.2614 67.4206C65.5813 67.5623 65.9368 67.7039 66.3279 67.8456C66.7189 68.0227 67.0744 68.2352 67.3944 68.5186C67.7143 68.8019 67.892 69.2269 67.892 69.829C67.892 70.1832 67.821 70.5019 67.6788 70.7853C67.5366 71.0686 67.3588 71.2811 67.1455 71.4582C66.9322 71.6353 66.6478 71.777 66.3634 71.8832C66.079 71.9895 65.7591 72.0249 65.4391 72.0249C65.2219 72.0249 65.0182 72.0111 64.8252 71.9838C64.2973 71.9084 63.8127 71.6569 63.4146 71.3038C63.2144 71.1296 63.0239 70.9447 62.844 70.7499"
        fill="white" />
    <path
        d="M72.7624 70.3957C73.2956 70.3957 73.7578 70.2186 74.1133 69.829C74.4688 69.4394 74.6465 68.9436 74.6465 68.3769C74.6465 67.7748 74.4688 67.3144 74.1133 66.9248C73.7578 66.5352 73.2956 66.3581 72.7624 66.3581C72.1936 66.3581 71.7314 66.5352 71.3759 66.9248C71.0204 67.3144 70.8427 67.7748 70.8427 68.3769C70.8427 68.979 71.0204 69.4394 71.3759 69.829C71.7314 70.1832 72.1936 70.3957 72.7624 70.3957ZM72.7268 64.7289C73.2601 64.7289 73.7578 64.8351 74.2199 65.0122C74.6821 65.1893 75.0731 65.4726 75.3931 65.7914C75.713 66.1102 75.9619 66.4998 76.1396 66.9248C76.3173 67.3852 76.424 67.8456 76.424 68.3415C76.424 68.8373 76.3173 69.2978 76.1396 69.7582C75.9619 70.2186 75.713 70.5728 75.3931 70.927C75.0731 71.2457 74.6821 71.4937 74.2199 71.7062C73.7578 71.8832 73.2601 71.9895 72.7268 71.9895C72.1936 71.9895 71.6959 71.8832 71.2337 71.7062C70.7716 71.4937 70.3806 71.2457 70.0606 70.927C69.7407 70.6082 69.4918 70.2186 69.3141 69.7582C69.1363 69.2978 69.0297 68.8373 69.0297 68.3415C69.0297 67.8456 69.1363 67.3852 69.3141 66.9248C69.4918 66.4643 69.7407 66.1102 70.0606 65.7914C70.3806 65.4726 70.7716 65.1893 71.2337 65.0122C71.6603 64.8351 72.158 64.7289 72.7268 64.7289Z"
        fill="white" />
    <path d="M77.9526 61.7184H79.659V71.7062H77.9526V61.7184Z" fill="white" />
    <path
        d="M86.129 68.8019V65.0122H87.8354V68.7311C87.8354 69.7228 87.551 70.5374 86.9822 71.1041C86.4134 71.6708 85.6669 71.9541 84.6715 71.9541C83.6761 71.9541 82.9295 71.6708 82.3607 71.1041C81.7919 70.502 81.5431 69.7228 81.5431 68.7311V65.0122H83.2495V68.8019C83.2495 69.2978 83.3561 69.6519 83.6405 69.9353C83.8894 70.2186 84.2449 70.3603 84.707 70.3603C85.1692 70.3603 85.5247 70.2186 85.7735 69.9353C85.9868 69.6874 86.129 69.2978 86.129 68.8019Z"
        fill="white" />
    <path
        d="M90.2173 69.2623V66.5352H88.973V64.9768H90.2173V63.3121H91.9236V64.9768H93.9855V66.5352H91.9236V69.2623C91.9236 69.6519 92.0303 69.8998 92.208 70.0769C92.4213 70.2186 92.6702 70.3248 92.9901 70.3248C93.239 70.3248 93.4167 70.3248 93.5945 70.2894C93.7722 70.254 93.8789 70.2186 94.0211 70.1832V71.6707C93.8433 71.7416 93.6656 71.8124 93.4523 71.8478C93.239 71.8832 92.9901 71.9186 92.7413 71.9186C91.8881 71.9186 91.2838 71.7061 90.8572 71.2457C90.4306 70.7144 90.2173 70.0769 90.2173 69.2623Z"
        fill="white" />
    <path
        d="M95.5141 65.0122H97.2205V71.7062H95.5141V65.0122ZM96.3673 63.8434C96.0474 63.8434 95.7985 63.7372 95.5852 63.5247C95.3719 63.3122 95.2653 63.0288 95.2653 62.7455C95.2653 62.4267 95.3719 62.1788 95.5852 61.9663C95.7985 61.7538 96.0829 61.6475 96.3673 61.6475C96.6873 61.6475 96.9361 61.7538 97.1494 61.9663C97.3627 62.1788 97.4693 62.4267 97.4693 62.7455C97.4693 63.0643 97.3627 63.3122 97.1494 63.5247C96.9361 63.7372 96.6873 63.8434 96.3673 63.8434Z"
        fill="white" />
    <path
        d="M102.482 70.3957C103.015 70.3957 103.477 70.2186 103.833 69.829C104.188 69.4394 104.366 68.9436 104.366 68.3769C104.366 67.7748 104.188 67.3144 103.833 66.9248C103.477 66.5352 103.015 66.3581 102.482 66.3581C101.913 66.3581 101.451 66.5352 101.095 66.9248C100.74 67.3144 100.562 67.7748 100.562 68.3769C100.562 68.979 100.74 69.4394 101.095 69.829C101.451 70.1832 101.913 70.3957 102.482 70.3957ZM102.446 64.7289C102.98 64.7289 103.477 64.8351 103.939 65.0122C104.402 65.1893 104.793 65.4726 105.113 65.7914C105.432 66.1102 105.681 66.4998 105.859 66.9248C106.037 67.3498 106.143 67.8456 106.143 68.3415C106.143 68.8373 106.072 69.2978 105.859 69.7582C105.681 70.2186 105.432 70.5728 105.113 70.927C104.793 71.2457 104.402 71.4937 103.939 71.7062C103.477 71.8832 102.98 71.9895 102.446 71.9895C101.913 71.9895 101.415 71.8832 100.953 71.7062C100.491 71.4937 100.1 71.2457 99.7801 70.927C99.4601 70.6082 99.2113 70.2186 99.0335 69.7582C98.8558 69.2978 98.7491 68.8373 98.7491 68.3415C98.7491 67.8456 98.8202 67.3852 99.0335 66.9248C99.2113 66.4643 99.4601 66.1102 99.7801 65.7914C100.1 65.4726 100.491 65.1893 100.953 65.0122C101.415 64.8351 101.913 64.7289 102.446 64.7289Z"
        fill="white" />
    <path
        d="M107.672 71.7062V65.0122H109.379V65.5435C109.627 65.331 109.876 65.1185 110.196 64.9768C110.516 64.8351 110.907 64.7289 111.369 64.7289C111.725 64.7289 112.08 64.7997 112.4 64.906C112.72 65.0476 113.005 65.2247 113.218 65.4727C113.467 65.7206 113.644 66.0393 113.787 66.3935C113.929 66.7831 114 67.2081 114 67.704V71.7062H112.294V67.7748C112.294 67.3144 112.187 66.9956 111.938 66.7123C111.689 66.4289 111.369 66.3227 110.978 66.3227C110.552 66.3227 110.196 66.4289 109.947 66.6769C109.698 66.8894 109.521 67.1019 109.414 67.3144V71.7062H107.672Z"
        fill="white" />
    <path
        d="M60.0356 5.58131C46.7756 5.58131 36.004 16.3129 36.004 29.5237C36.004 42.7345 46.7756 53.466 60.0356 53.466C73.2956 53.466 84.0672 42.7345 84.0672 29.5237C84.0672 16.3483 73.2956 5.58131 60.0356 5.58131ZM60.0356 54.8828C46.029 54.8828 34.6176 43.5137 34.6176 29.5591C34.6176 15.5691 46.029 4.20002 60.0356 4.20002C74.0422 4.20002 85.4536 15.5691 85.4536 29.5237C85.4892 43.5137 74.0777 54.8828 60.0356 54.8828Z"
        fill="white" />
    <path
        d="M60.0356 17.1629C53.1745 17.1629 47.6287 22.7235 47.6287 29.5237C47.6287 36.3593 53.21 41.8844 60.0356 41.8844C66.8966 41.8844 72.4424 36.3239 72.4424 29.5237C72.478 22.7235 66.8966 17.1629 60.0356 17.1629ZM60.0356 42.4511C52.8901 42.4511 47.0955 36.678 47.0955 29.5591C47.0955 22.4401 52.8901 16.667 60.0356 16.667C67.181 16.667 72.9756 22.4401 72.9756 29.5591C72.9756 36.6426 67.181 42.4511 60.0356 42.4511Z"
        fill="white" />
    <path d="M72.7269 26.6194L68.4609 33.9509L72.4425 36.2531L76.7085 28.9216L72.7269 26.6194Z" fill="#E20E18" />
    <path d="M68.7453 24.3527L64.4794 31.6842L68.4609 33.9863L72.7269 26.6549L68.7453 24.3527Z" fill="white" />
    <path d="M64.7638 22.0505L60.4978 29.382L64.4794 31.6841L68.7453 24.3527L64.7638 22.0505Z" fill="#253574" />
    <path
        d="M64.7281 22.0505L60.4622 29.382L72.478 36.2885L76.7439 28.957L64.7281 22.0505ZM64.9059 22.6881L76.0685 29.0987L72.2647 35.6155L61.1021 29.2049L64.9059 22.6881Z"
        fill="#253574" />
    <path d="M64.9059 21.5192L56.4451 36.1113L56.9072 36.3593L65.368 21.7672L64.9059 21.5192Z" fill="#253574" />
    <path d="M55.343 22.0151L43.3628 28.9216L47.6288 36.2531L59.609 29.3466L55.343 22.0151Z" fill="#253574" />
    <path
        d="M52.7479 32.0029L52.8901 31.6842L53.2456 31.7196L52.9967 31.5071L53.1389 31.1883L52.8545 31.3654L52.6057 31.1529L52.6768 31.4717L52.3568 31.6488L52.7123 31.6842L52.7479 32.0029Z"
        fill="#FFE910" />
    <path
        d="M50.0817 27.2215L50.2239 26.9027L50.5794 26.9382L50.3305 26.7256L50.4727 26.4069L50.1883 26.584L49.9395 26.3715L50.0106 26.6902L49.7262 26.8673L50.0461 26.9027L50.0817 27.2215Z"
        fill="#FFE910" />
    <path
        d="M48.9085 31.0112L49.0507 30.6925L49.4062 30.7279L49.1574 30.5154L49.3351 30.1966L49.0152 30.3737L48.7663 30.1612L48.8374 30.48L48.5175 30.6571H48.8374L48.9085 31.0112Z"
        fill="#FFE910" />
    <path
        d="M53.8855 28.1424L54.0277 27.8236L54.3832 27.8591L54.1344 27.6111L54.2766 27.3278L53.9922 27.5049L53.7433 27.2924L53.8144 27.6111L53.53 27.7882H53.85L53.8855 28.1424Z"
        fill="#FFE910" />
    <path
        d="M51.5037 26.7965L51.6459 26.4777L52.0014 26.5132L51.7526 26.3007L51.8948 25.9819L51.6104 26.159L51.3615 25.9465L51.4326 26.3007L51.1127 26.4777L51.4682 26.5132L51.5037 26.7965Z"
        fill="#FFE910" />
    <path
        d="M52.9257 27.1861L53.0679 26.8673L53.4234 26.9028L53.1745 26.6548L53.3167 26.3361L53.0323 26.5132L52.7835 26.3007L52.8546 26.6548L52.5702 26.8319L52.9257 26.8673V27.1861Z"
        fill="#FFE910" />
    <path
        d="M54.1699 29.5237L54.3121 29.2049L54.6676 29.2403L54.4187 29.0278L54.5609 28.7091L54.241 28.8862L53.9921 28.6737L54.0632 28.9924L53.7788 29.1695L54.0988 29.2049L54.1699 29.5237Z"
        fill="#FFE910" />
    <path
        d="M53.7788 30.9404L53.921 30.6216L54.2765 30.657L54.0277 30.4091L54.1699 30.0903L53.8855 30.2674L53.6366 30.0549L53.7077 30.3737L53.4233 30.5508L53.7433 30.5862L53.7788 30.9404Z"
        fill="#FFE910" />
    <path
        d="M51.3614 32.3217L51.5036 32.0029L51.8591 32.0383L51.6103 31.7904L51.7525 31.4716L51.4325 31.6487L51.1837 31.4362L51.2548 31.755L50.9348 31.9321L51.2548 31.9675L51.3614 32.3217Z"
        fill="#FFE910" />
    <path
        d="M50.0106 31.9321L50.1528 31.6133L50.5083 31.6487L50.2594 31.4362L50.4016 31.1175L50.0817 31.2945L49.8328 31.082L49.9039 31.4008L49.6195 31.5779L49.975 31.6133L50.0106 31.9321Z"
        fill="#FFE910" />
    <path
        d="M48.553 29.7007L48.6952 29.382L49.0507 29.4174L48.8019 29.1695L48.9796 28.8507L48.6597 29.0278L48.4108 28.8153L48.4819 29.1341L48.1975 29.3111L48.5175 29.3466L48.553 29.7007Z"
        fill="#FFE910" />
    <path
        d="M48.873 28.3195L49.0152 28.0007L49.3707 28.0361L49.1219 27.8236L49.2641 27.5048L48.9797 27.6819L48.6953 27.4694L48.7664 27.8236L48.4464 28.0007L48.7664 28.0361L48.873 28.3195Z"
        fill="#FFE910" />
    <path d="M55.2008 21.5192L54.7386 21.7672L63.1995 36.3593L63.6616 36.1113L55.2008 21.5192Z" fill="#253574" />
    <path
        d="M40.8743 20.3505L42.6873 17.1983L43.6116 17.7296L42.4385 19.7838L43.7182 20.5276L44.7136 18.7567L45.6379 19.2879L44.6425 21.0588L46.9533 22.3693L46.3134 23.4672L40.8743 20.3505Z"
        fill="white" />
    <path
        d="M46.5267 14.6482L47.5576 15.8879L48.1264 15.4274C48.553 15.0732 48.5886 14.6482 48.2686 14.2586C47.9487 13.9045 47.5221 13.8336 47.0955 14.1878L46.5267 14.6482ZM44.8558 14.6482L46.3134 13.4086C47.3799 12.5232 48.4819 12.5232 49.2285 13.4086C49.7262 13.9753 49.7972 14.6482 49.4773 15.2858L52.7834 16.1712L51.6458 17.1275L48.7308 16.242L48.2331 16.667L49.8683 18.615L48.873 19.4296L44.8558 14.6482Z"
        fill="white" />
    <path
        d="M56.445 12.3106L55.023 10.2564L54.7742 12.7357L56.445 12.3106ZM53.8855 9.30013L55.4852 8.87512L59.3601 14.3294L58.0448 14.6836L57.0494 13.2669L54.632 13.9044L54.4543 15.6399L53.1389 15.9941L53.8855 9.30013Z"
        fill="white" />
    <path
        d="M61.5642 8.273L63.164 8.59176L64.977 13.5857L65.9013 9.15844L67.1455 9.40637L65.8657 15.5336L64.266 15.2149L62.453 10.221L61.5287 14.6482L60.2844 14.4003L61.5642 8.273Z"
        fill="white" />
    <path
        d="M72.0514 17.6587L72.3714 18.8984C71.4471 19.1463 70.3806 18.9692 69.4919 18.2608C67.9277 17.0566 67.821 15.0024 68.9231 13.6211C70.0251 12.2044 72.0514 11.8502 73.6156 13.0899C74.5044 13.7982 74.931 14.7545 74.8954 15.7108H73.6156C73.6512 15.0733 73.4379 14.4712 72.8691 14.0107C71.9448 13.267 70.7006 13.4795 69.954 14.4357C69.2075 15.392 69.3141 16.6316 70.2384 17.34C70.8072 17.765 71.4471 17.8358 72.0514 17.6587Z"
        fill="white" />
    <path
        d="M77.7038 17.6941L79.4813 20.8817L78.557 21.3776L77.3839 19.2879L76.0685 19.9963L77.0639 21.7672L76.1396 22.263L75.1442 20.4921L73.7222 21.2713L74.8954 23.361L73.9711 23.8568L72.1936 20.6692L77.7038 17.6941Z"
        fill="white" />
    <path
        d="M45.1047 35.8989L43.6472 36.6072L43.9671 37.2447C44.216 37.7406 44.6426 37.8469 45.0692 37.6343C45.4958 37.4218 45.638 36.9968 45.3891 36.5364L45.1047 35.8989ZM45.4958 34.2697L46.349 35.9697C46.9533 37.2093 46.7045 38.2719 45.6735 38.8031C44.9981 39.1573 44.3226 39.0511 43.7538 38.626L42.1541 41.6011L41.4786 40.2553L43.0073 37.6343L42.7229 37.0677L40.4477 38.201L39.8789 37.0677L45.4958 34.2697Z"
        fill="white" />
    <path
        d="M48.3042 39.2281L50.9348 41.7782L50.1883 42.522L48.4819 40.8574L47.451 41.9199L48.9085 43.3366L48.162 44.0804L46.7044 42.6637L45.5668 43.8324L47.2732 45.4971L46.5267 46.2408L43.896 43.6908L48.3042 39.2281Z"
        fill="white" />
    <path
        d="M52.0369 42.4511L53.1745 43.0178L50.9349 47.6221L53.0679 48.6492L52.5702 49.6763L49.264 48.0825L52.0369 42.4511Z"
        fill="white" />
    <path
        d="M59.3958 48.1888L58.7203 45.7804L57.6538 48.0471L59.3958 48.1888ZM57.9738 44.5053L59.6446 44.647L61.4932 51.093L60.1423 50.9868L59.6801 49.3221L57.1917 49.1096L56.4451 50.668L55.0942 50.5618L57.9738 44.5053Z"
        fill="white" />
    <path
        d="M62.5596 44.6824L64.0882 44.1158L68.2831 47.4096L66.7189 43.1595L67.9276 42.7345L70.0961 48.6138L68.5675 49.1805L64.3726 45.8866L65.9368 50.1368L64.7281 50.5618L62.5596 44.6824Z"
        fill="white" />
    <path
        d="M75.2864 41.9199L76.5307 41.7428C76.6729 42.6991 76.3529 43.6908 75.5708 44.5054C74.1844 45.8867 72.1225 45.7804 70.8783 44.5054C69.5985 43.2303 69.4918 41.2115 70.9138 39.8302C71.7315 39.0156 72.7268 38.7323 73.6867 38.874L73.5089 40.149C72.9046 40.0427 72.2291 40.1844 71.7315 40.6803C70.8783 41.4949 70.9494 42.7699 71.8025 43.6199C72.6557 44.47 73.9 44.5408 74.7532 43.6908C75.2509 43.1595 75.3931 42.522 75.2864 41.9199Z"
        fill="white" />
    <path
        d="M73.1534 37.2801L74.6465 33.9509L75.6064 34.3759L74.611 36.5364L75.9619 37.1385L76.7795 35.2967L77.7394 35.7217L76.9217 37.5635L78.3792 38.2364L79.3746 36.0759L80.3345 36.5009L78.8414 39.8302L73.1534 37.2801Z"
        fill="white" />
</svg>
