<svg width="250" height="129" viewBox="0 0 250 129" fill="none" xmlns="http://www.w3.org/2000/svg">
<g clip-path="url(#clip0_14_36)">
<path d="M21.3834 80.6643C18.5801 80.6643 16.403 81.4671 14.8523 83.0729C13.3015 84.6193 12.377 87.0873 12.0788 90.4773H29.7933C29.6143 83.9351 26.8111 80.6643 21.3834 80.6643ZM21.5623 116.17C14.9417 116.17 9.69302 114.356 5.8161 110.728C1.93919 107.041 0.000732422 101.718 0.000732422 94.7595C0.000732422 87.4443 1.90937 81.7644 5.72664 77.7203C9.5439 73.6165 14.8821 71.5647 21.7413 71.5647C28.1233 71.5647 32.9247 73.2894 36.1454 76.7389C39.3664 80.1884 40.9768 84.9166 40.9768 90.9235C40.9768 92.4699 40.8872 94.373 40.7082 96.6329H11.9893C12.3472 100.023 13.3015 102.521 14.8523 104.127C16.4627 105.673 18.7292 106.446 21.6518 106.446C24.2762 106.446 26.1848 105.941 27.3776 104.93C28.6303 103.918 29.5845 102.461 30.2406 100.558L40.4398 103.324C38.2332 111.888 31.9406 116.17 21.5623 116.17Z" fill="white"/>
<path d="M59.3851 91.4587V115.01H47.2176V72.7245H59.1165V84.0543H60.0112C61.2043 80.01 63.0234 76.9173 65.4689 74.7763C67.9141 72.6353 70.8367 71.5647 74.2365 71.5647C81.4535 71.5647 85.3604 75.7875 85.9567 84.2327H86.941C89.3266 75.7875 94.0386 71.5647 101.077 71.5647C105.192 71.5647 108.294 72.8732 110.381 75.4899C112.528 78.0474 113.602 81.6752 113.602 86.3737V115.01H101.345V89.7637C101.345 84.9463 99.1979 82.5377 94.9035 82.5377C92.3389 82.5377 90.2812 83.3702 88.7304 85.0355C87.2391 86.6413 86.4937 88.7823 86.4937 91.4587V115.01H74.3261V89.7637C74.3261 87.5633 73.7891 85.8088 72.7157 84.5003C71.6421 83.1918 70.0317 82.5377 67.8843 82.5377C65.3197 82.5377 63.262 83.3702 61.7112 85.0355C60.1604 86.6413 59.3851 88.7823 59.3851 91.4587Z" fill="white"/>
<path d="M142.228 105.554C147.894 105.554 150.727 101.688 150.727 93.9565C150.727 90.0313 150.041 87.1468 148.669 85.3031C147.357 83.4594 145.239 82.5377 142.317 82.5377C139.633 82.5377 137.516 83.4297 135.965 85.2139C134.414 86.9981 133.639 89.4069 133.639 92.4401V95.741C133.639 98.7144 134.414 101.094 135.965 102.878C137.575 104.662 139.663 105.554 142.228 105.554ZM162.716 93.9565C162.716 101.153 161.433 106.684 158.868 110.55C156.304 114.356 152.725 116.259 148.132 116.259C141.333 116.259 136.74 112.156 134.354 103.948H133.639V128.57H121.471V72.7245H133.639V83.4297H134.444C136.83 75.5196 141.392 71.5647 148.132 71.5647C152.785 71.5647 156.363 73.4976 158.868 77.3635C161.433 81.1698 162.716 86.7008 162.716 93.9565Z" fill="white"/>
<path d="M181.162 57.7375V115.011H168.995V57.7375H181.162Z" fill="white"/>
<path d="M209.375 116.259C202.516 116.259 197.148 114.267 193.271 110.282C189.394 106.297 187.455 100.826 187.455 93.8673C187.455 86.8494 189.394 81.3779 193.271 77.4527C197.207 73.5273 202.575 71.5647 209.375 71.5647C216.055 71.5647 221.334 73.557 225.21 77.5419C229.147 81.4671 231.115 86.9089 231.115 93.8673C231.115 100.826 229.177 106.297 225.3 110.282C221.423 114.267 216.115 116.259 209.375 116.259ZM218.948 93.7781C218.948 85.7493 215.727 81.7347 209.285 81.7347C202.844 81.7347 199.623 85.7493 199.623 93.7781C199.623 101.867 202.844 105.911 209.285 105.911C215.727 105.911 218.948 101.867 218.948 93.7781Z" fill="white"/>
<path d="M249.999 66.747H237.295V58.0044H249.999V66.747ZM249.731 115.01H237.563V72.7242H249.731V115.01Z" fill="white"/>
<path d="M64.4776 33.5385C70.1358 33.5385 72.9648 29.724 72.9648 22.095C72.9648 18.2217 72.28 15.3755 70.91 13.5562C69.5997 11.737 67.4853 10.8273 64.567 10.8273C61.8869 10.8273 59.7725 11.7076 58.2239 13.4682C56.6752 15.2288 55.901 17.6055 55.901 20.5985V23.8555C55.901 26.7899 56.6752 29.1371 58.2239 30.8977C59.8319 32.6584 61.9167 33.5385 64.4776 33.5385ZM84.9364 22.095C84.9364 29.1958 83.6558 34.6536 81.0949 38.4682C78.5337 42.2241 74.96 44.102 70.3741 44.102C63.5842 44.102 58.9981 40.0528 56.6156 31.9542H55.901V56.2499H43.7507V1.14424H55.901V11.7076H56.705C59.0874 3.90245 63.6438 -0.00012207 70.3741 -0.00012207C75.0196 -0.00012207 78.5933 1.90715 81.0949 5.72171C83.6558 9.47757 84.9364 14.9353 84.9364 22.095Z" fill="white"/>
<path d="M106.397 34.5949C109.136 34.5949 111.31 33.8908 112.919 32.4824C114.586 31.015 115.42 29.1371 115.42 26.8485V25.1759H106.665C104.699 25.1759 103.121 25.5867 101.93 26.4083C100.798 27.23 100.232 28.3742 100.232 29.8413C100.232 33.0103 102.287 34.5949 106.397 34.5949ZM116.045 42.8696V32.9224H114.973C112.651 40.1407 108.035 43.7498 101.126 43.7498C97.3734 43.7498 94.3657 42.7815 92.1024 40.8449C89.8391 38.8496 88.7075 35.886 88.7075 31.9541C88.7075 28.0223 89.9583 24.9412 92.4599 22.7111C95.0208 20.4224 98.9814 19.278 104.342 19.278H115.42V16.3731C115.42 11.8543 113.246 9.59493 108.898 9.59493C104.908 9.59493 102.525 11.5902 101.751 15.5808L90.3157 13.028C91.0899 9.03742 93.0553 5.89776 96.212 3.60902C99.3686 1.2616 103.746 0.0878906 109.345 0.0878906C115.658 0.0878906 120.244 1.467 123.103 4.22523C126.022 6.92475 127.481 10.974 127.481 16.3731V42.8696H116.045Z" fill="white"/>
<path d="M152.846 44.102C146.175 44.102 141.35 42.9577 138.372 40.6689C135.454 38.3801 133.667 35.1232 133.012 30.8977L143.911 28.697C144.984 33.3331 148.051 35.6514 153.114 35.6514C157.223 35.6514 159.308 34.3014 159.367 31.6019C159.367 30.2522 158.712 29.1958 157.402 28.4329C156.151 27.6114 153.65 26.8485 149.897 26.1442C144.18 24.9118 140.159 23.298 137.836 21.3027C135.514 19.2487 134.352 16.4025 134.352 12.764C134.352 8.65598 135.841 5.51631 138.819 3.34496C141.797 1.1149 146.234 -0.00012207 152.131 -0.00012207C157.908 -0.00012207 162.107 1.02687 164.728 3.08085C167.408 5.07617 169.165 8.06913 169.999 12.0597L159.189 14.2604C158.712 12.0891 157.908 10.5633 156.776 9.68297C155.704 8.74402 154.067 8.27452 151.863 8.27452C147.872 8.27452 145.877 9.53626 145.877 12.0597C145.877 13.3508 146.443 14.4072 147.575 15.2288C148.766 16.0504 151.118 16.8132 154.632 17.5175C160.886 18.8086 165.174 20.5398 167.497 22.7111C169.88 24.8238 171.071 27.6114 171.071 31.0737C171.071 39.7592 164.996 44.102 152.846 44.102Z" fill="white"/>
<path d="M194.276 44.102C187.606 44.102 182.781 42.9577 179.803 40.6689C176.885 38.3801 175.098 35.1232 174.443 30.8977L185.342 28.697C186.414 33.3331 189.482 35.6514 194.544 35.6514C198.654 35.6514 200.738 34.3014 200.798 31.6019C200.798 30.2522 200.143 29.1958 198.832 28.4329C197.582 27.6114 195.08 26.8485 191.328 26.1442C185.61 24.9118 181.59 23.298 179.267 21.3027C176.944 19.2487 175.783 16.4025 175.783 12.764C175.783 8.65598 177.272 5.51631 180.25 3.34496C183.228 1.1149 187.665 -0.00012207 193.561 -0.00012207C199.339 -0.00012207 203.538 1.02687 206.158 3.08085C208.839 5.07617 210.595 8.06913 211.429 12.0597L200.619 14.2604C200.143 12.0891 199.339 10.5633 198.207 9.68297C197.135 8.74402 195.497 8.27452 193.293 8.27452C189.303 8.27452 187.308 9.53626 187.308 12.0597C187.308 13.3508 187.873 14.4072 189.005 15.2288C190.196 16.0504 192.549 16.8132 196.063 17.5175C202.317 18.8086 206.605 20.5398 208.928 22.7111C211.31 24.8238 212.501 27.6114 212.501 31.0737C212.501 39.7592 206.426 44.102 194.276 44.102Z" fill="white"/>
</g>
<defs>
<clipPath id="clip0_14_36">
<rect width="250" height="128.571" fill="white"/>
</clipPath>
</defs>
</svg>
