<svg width="177" height="176" viewBox="0 0 177 176" fill="none" xmlns="http://www.w3.org/2000/svg">
    <rect width="176" height="176" transform="translate(0.5)" fill="white" />
    <path opacity="0.3"
        d="M32.9098 142.105C31.1803 134.173 35.2471 127.954 35.2471 127.954C38.2954 134.115 32.9098 142.105 32.9098 142.105Z"
        fill="#0D7F50" />
    <path opacity="0.3"
        d="M32.4593 118.464C37.46 118.436 40.9378 121.764 40.9378 121.764C36.9109 122.834 32.4593 118.464 32.4593 118.464Z"
        fill="#0D7F50" />
    <path opacity="0.3"
        d="M43.1201 122.343C44.3052 128.209 41.1982 133.056 41.1982 133.056C39.0135 128.576 43.1201 122.343 43.1201 122.343Z"
        fill="#0D7F50" />
    <path
        d="M30.1056 130.205C30.0398 130.114 33.534 127.538 37.9059 124.451C42.2801 121.364 45.8775 118.936 45.9409 119.027C46.0042 119.118 42.5124 121.694 38.1382 124.781C33.7687 127.866 30.1713 130.294 30.1056 130.205Z"
        fill="#0D7F50" />
    <path opacity="0.3"
        d="M20.6414 138.985C20.6414 138.985 23.6921 130.24 31.9172 129.088C31.9148 129.086 29.418 136.585 20.6414 138.985Z"
        fill="#0D7F50" />
    <path opacity="0.3"
        d="M21.5332 125.837C21.5332 125.837 29.2162 120.625 36.5096 124.582C36.5096 124.584 30.0164 129.121 21.5332 125.837Z"
        fill="#0D7F50" />
    <path opacity="0.3"
        d="M137.747 35.9729C139.2 43.9586 134.917 50.0349 134.917 50.0349C132.087 43.774 137.747 35.9729 137.747 35.9729Z"
        fill="#0D7F50" />
    <path opacity="0.3"
        d="M137.376 59.6168C132.378 59.4719 129.018 56.0248 129.018 56.0248C133.077 55.0946 137.376 59.6168 137.376 59.6168Z"
        fill="#0D7F50" />
    <path
        d="M126.856 55.3704C125.878 49.467 129.149 44.7298 129.149 44.7298C131.179 49.2847 126.856 55.3704 126.856 55.3704Z"
        fill="#0D7F50" />
    <path
        d="M140.136 47.9643C140.197 48.0578 136.616 50.5117 132.139 53.4447C127.659 56.38 123.982 58.682 123.918 58.5885C123.857 58.495 127.436 56.0435 131.916 53.1081C136.395 50.1751 140.075 47.8708 140.136 47.9643Z"
        fill="#0D7F50" />
    <path opacity="0.3"
        d="M149.901 39.5159C149.901 39.5159 146.547 48.1513 138.287 49.0183C138.289 49.0183 141.047 41.6122 149.901 39.5159Z"
        fill="#0D7F50" />
    <path opacity="0.3"
        d="M148.551 52.6244C148.551 52.6244 140.69 57.5672 133.54 53.3605C133.54 53.3605 140.188 49.051 148.551 52.6244Z"
        fill="#0D7F50" />
    <path
        d="M20.7588 78.7012C21.7279 78.1169 22.7581 77.6752 23.8235 77.3761L24.4548 74.3566L29.5799 74.2678L30.3167 77.2639C31.3915 77.528 32.4381 77.9323 33.4261 78.4815L36.0168 76.7918L39.7034 80.3371L38.0983 82.9733C38.685 83.9385 39.1285 84.9668 39.4289 86.0255L42.4608 86.6541L42.5499 91.7582L39.5415 92.4921C39.2763 93.5624 38.8704 94.6024 38.3189 95.5887L40.0155 98.1688L36.4556 101.84L33.8086 100.242C32.8394 100.826 31.8069 101.268 30.7438 101.567L30.1126 104.586L24.9875 104.675L24.2506 101.679C23.1758 101.415 22.1316 101.011 21.1413 100.461L18.5506 102.151L14.8639 98.6058L16.4691 95.9696C15.8824 95.0044 15.4389 93.9761 15.1362 92.9174L12.1043 92.2888L12.0151 87.1846L15.0235 86.4508C15.2887 85.3804 15.697 84.3405 16.2461 83.3542L14.5495 80.7741L18.1094 77.1026L20.7588 78.7012ZM23.4903 85.4996C21.3806 87.6754 21.4417 91.1413 23.6264 93.2423C25.8111 95.3433 29.2913 95.2825 31.4009 93.1067C33.5106 90.9309 33.4496 87.4651 31.2648 85.3641C29.0801 83.2631 25.5999 83.3238 23.4903 85.4996Z"
        fill="#EBEBEB" />
    <path
        d="M160.62 89.5357C161.028 89.2903 161.463 89.1034 161.908 88.9772L162.174 87.7058L164.33 87.6684L164.64 88.9281C165.093 89.0379 165.532 89.2085 165.947 89.4399L167.036 88.7294L168.587 90.2205L167.911 91.3306C168.158 91.7372 168.345 92.1696 168.472 92.6136L169.749 92.8777L169.786 95.0255L168.521 95.3339C168.411 95.7827 168.24 96.222 168.007 96.6357L168.721 97.7201L167.224 99.2649L166.109 98.5918C165.701 98.8372 165.267 99.0241 164.821 99.1503L164.555 100.422L162.399 100.459L162.089 99.1994C161.639 99.0896 161.197 98.9166 160.782 98.6876L159.693 99.3981L158.142 97.907L158.818 96.7969C158.571 96.3903 158.384 95.9579 158.257 95.5139L156.98 95.2498L156.943 93.1021L158.208 92.7936C158.318 92.3449 158.492 91.9055 158.722 91.4918L158.008 90.4074L159.505 88.8627L160.62 89.5357ZM161.77 92.3963C160.883 93.3124 160.909 94.7707 161.826 95.6541C162.746 96.5375 164.211 96.5118 165.098 95.5957C165.985 94.6796 165.959 93.2213 165.041 92.3378C164.121 91.4544 162.657 91.4802 161.77 92.3963Z"
        fill="#EBEBEB" />
    <path
        d="M80.4369 82.2698C81.2253 81.7954 82.0631 81.4355 82.9267 81.1925L83.4406 78.7386L87.6059 78.6661L88.2043 81.1013C89.0773 81.3163 89.9268 81.6458 90.7317 82.0922L92.8366 80.718L95.8333 83.5996L94.5286 85.7427C95.005 86.5279 95.3663 87.3623 95.6104 88.2223L98.0744 88.7341L98.1471 92.8824L95.7019 93.4783C95.486 94.3477 95.1551 95.1937 94.7069 95.9953L96.0868 98.0917L93.1933 101.076L91.0414 99.7767C90.253 100.251 89.4152 100.611 88.5516 100.854L88.0377 103.308L83.8724 103.38L83.274 100.945C82.401 100.73 81.5515 100.401 80.7466 99.9543L78.6417 101.328L75.645 98.4469L76.9497 96.3038C76.4733 95.5186 76.112 94.6842 75.8679 93.8242L73.4039 93.3124L73.3311 89.1641L75.7764 88.5658C75.9923 87.6965 76.3231 86.8505 76.7714 86.0488L75.3915 83.9525L78.285 80.9681L80.4369 82.2698ZM82.6568 87.797C80.9437 89.5661 80.993 92.3822 82.7671 94.0906C84.5435 95.7967 87.3713 95.7476 89.0843 93.9808C90.7974 92.2116 90.7481 89.3955 88.974 87.6871C87.1999 85.9787 84.3699 86.0278 82.6568 87.797Z"
        fill="#EBEBEB" />
    <path
        d="M57.5897 118.279C58.3782 117.805 59.216 117.445 60.0795 117.202L60.5934 114.748L64.7588 114.675L65.3572 117.111C66.2301 117.326 67.0796 117.655 67.8845 118.101L69.9895 116.727L72.9862 119.609L71.6814 121.752C72.1578 122.537 72.5192 123.372 72.7633 124.232L75.2273 124.743L75.3 128.892L72.8548 129.488C72.6389 130.357 72.308 131.203 71.8598 132.005L73.2396 134.101L70.3462 137.085L68.1943 135.786C67.4058 136.26 66.5681 136.62 65.7045 136.863L65.1906 139.317L61.0252 139.39L60.4268 136.954C59.5539 136.739 58.7044 136.41 57.8995 135.964L55.7945 137.338L52.7978 134.456L54.1026 132.313C53.6262 131.528 53.2648 130.694 53.0208 129.833L50.5568 129.322L50.484 125.173L52.9292 124.575C53.1451 123.706 53.476 122.86 53.9242 122.058L52.5444 119.962L55.4378 116.977L57.5897 118.279ZM59.8097 123.804C58.0966 125.573 58.1459 128.389 59.92 130.098C61.6964 131.804 64.5241 131.755 66.2372 129.988C67.9502 128.219 67.901 125.402 66.1269 123.694C64.3528 121.986 61.5227 122.035 59.8097 123.804Z"
        fill="#EBEBEB" />
    <path
        d="M144.658 105.488C145.526 104.965 146.451 104.57 147.406 104.299L147.972 101.59L152.566 101.511L153.228 104.198C154.19 104.434 155.129 104.799 156.016 105.29L158.339 103.773L161.646 106.951L160.207 109.316C160.733 110.181 161.129 111.104 161.402 112.053L164.121 112.616L164.201 117.192L161.502 117.851C161.265 118.81 160.899 119.744 160.407 120.628L161.93 122.942L158.738 126.234L156.363 124.802C155.495 125.325 154.568 125.72 153.615 125.991L153.05 128.7L148.455 128.779L147.793 126.092C146.831 125.856 145.892 125.491 145.005 125L142.682 126.517L139.376 123.339L140.814 120.974C140.289 120.109 139.892 119.186 139.62 118.237L136.9 117.674L136.82 113.098L139.519 112.439C139.756 111.481 140.122 110.546 140.615 109.662L139.092 107.349L142.283 104.056L144.658 105.488ZM147.108 111.586C145.217 113.537 145.271 116.645 147.23 118.529C149.189 120.413 152.311 120.359 154.202 118.408C156.093 116.456 156.039 113.348 154.08 111.464C152.12 109.578 148.999 109.634 147.108 111.586Z"
        fill="#EBEBEB" />
    <path opacity="0.3"
        d="M158.126 62.8817C159.365 62.017 160.031 60.4091 159.679 58.7568C159.217 56.5927 157.192 55.1881 155.155 55.6181C153.118 56.0481 151.839 58.1492 152.301 60.3133C152.655 61.9796 153.941 63.1878 155.443 63.4613C149.957 65.5366 151.55 71.6176 151.55 71.6176L164.975 68.7851C164.975 68.7851 163.934 62.5148 158.126 62.8817Z"
        fill="#FF8D7E" />
    <path
        d="M158.126 62.8817C158.163 62.8793 158.21 62.877 158.309 62.8723C158.428 62.87 158.593 62.8466 158.825 62.8606C159.28 62.8653 159.968 62.9214 160.787 63.2182C161.601 63.508 162.533 64.0946 163.305 65.0528C164.072 66.0063 164.708 67.28 165.022 68.7804L165.032 68.8248L164.987 68.8341C161.256 69.6241 156.64 70.6033 151.567 71.6783L151.508 71.69L151.494 71.6339C151.348 71.0076 151.283 70.3579 151.278 69.6942C151.276 69.0305 151.344 68.355 151.51 67.6913C151.757 66.6817 152.247 65.7376 152.949 65.0061C153.298 64.6391 153.693 64.3236 154.11 64.0572C154.528 63.7885 154.979 63.5875 155.427 63.4075L155.436 63.522C154.66 63.3795 153.953 62.9915 153.413 62.461C152.871 61.9305 152.498 61.2574 152.308 60.5587C151.912 59.1517 152.318 57.642 153.216 56.6745C153.669 56.1954 154.228 55.8355 154.826 55.6579C155.422 55.4779 156.042 55.4569 156.612 55.5691C157.762 55.8004 158.649 56.5506 159.158 57.3686C159.416 57.7799 159.592 58.2123 159.688 58.6376C159.792 59.0606 159.82 59.4719 159.801 59.8529C159.759 60.6171 159.517 61.2434 159.247 61.6991C158.973 62.1572 158.679 62.4517 158.468 62.6316C158.365 62.7274 158.28 62.7812 158.222 62.8209C158.173 62.849 158.147 62.8677 158.126 62.8817C158.144 62.8677 158.165 62.849 158.205 62.8162C158.259 62.7718 158.349 62.7041 158.447 62.6106C158.651 62.426 158.938 62.1291 159.203 61.6734C159.466 61.22 159.698 60.5984 159.733 59.8459C159.749 59.4719 159.719 59.0653 159.613 58.6493C159.517 58.2333 159.341 57.8079 159.085 57.406C158.581 56.6067 157.708 55.8775 156.586 55.6555C156.03 55.548 155.427 55.5714 154.847 55.7467C154.265 55.9219 153.726 56.2725 153.284 56.7399C152.414 57.6841 152.02 59.1541 152.409 60.5236C152.594 61.206 152.961 61.858 153.486 62.3722C154.012 62.8887 154.699 63.2626 155.45 63.4005L155.652 63.4379L155.46 63.515C155.019 63.6926 154.575 63.8936 154.167 64.1554C153.758 64.4171 153.371 64.7256 153.031 65.0855C152.343 65.803 151.865 66.7261 151.623 67.717C151.461 68.3667 151.391 69.0351 151.395 69.6895C151.398 70.3439 151.466 70.9912 151.607 71.5989L151.536 71.5545C156.612 70.4888 161.23 69.5189 164.964 68.736L164.926 68.7897C164.623 67.3104 163.997 66.0367 163.244 65.0925C162.486 64.1413 161.57 63.5571 160.766 63.2603C159.958 62.9588 159.275 62.8957 158.823 62.8817C158.597 62.863 158.412 62.8793 158.297 62.8747C158.208 62.8817 158.161 62.8817 158.126 62.8817Z"
        fill="white" />
    <path
        d="M166.897 65.2514L164.262 65.8217L163.69 63.1948L161.441 63.6809L162.014 66.3054L159.376 66.8757L159.864 69.1146L162.5 68.5443L163.072 71.1712L165.32 70.6874L164.748 68.0606L167.386 67.4903L166.897 65.2514Z"
        fill="#FF8D7E" />
    <path
        d="M19.447 113.077L17.1871 113.75L16.5136 111.499L14.587 112.072L15.2605 114.322L13.0007 114.993L13.5756 116.912L15.8355 116.241L16.5113 118.492L18.4379 117.919L17.7621 115.669L20.0219 114.996L19.447 113.077Z"
        fill="#FF8D7E" />
    <path opacity="0.3"
        d="M18.9143 57.5181C20.0384 57.4457 21.0873 56.6791 21.505 55.4943C22.0518 53.9401 21.3102 52.2668 19.8483 51.755C18.3863 51.2432 16.7577 52.0868 16.2086 53.641C15.7862 54.8375 16.1358 56.0996 16.983 56.8544C12.6886 56.0598 11.3369 60.5399 11.3369 60.5399L20.9723 63.9146C20.9747 63.9123 22.7488 59.5233 18.9143 57.5181Z"
        fill="#FF8D7E" />
    <path
        d="M18.9143 57.5181C18.9425 57.5322 18.9753 57.5509 19.0363 57.5812C19.1138 57.6256 19.2264 57.6724 19.3696 57.7705C19.6582 57.9482 20.0736 58.2473 20.4819 58.7521C20.8878 59.2522 21.2539 59.9837 21.3759 60.8905C21.4956 61.7949 21.4041 62.8513 21.0216 63.9287L21.0075 63.9707L20.9629 63.9544C18.2807 63.0196 14.9672 61.865 11.3228 60.5937L11.2665 60.575L11.2853 60.5212C11.595 59.6191 12.1066 58.7357 12.8317 58.0136C13.3832 57.4667 14.0637 57.0507 14.7982 56.8568C15.1643 56.7563 15.5374 56.7095 15.9082 56.7002C16.279 56.6908 16.6451 56.7352 17.0018 56.7937L16.9501 56.8965C16.509 56.5039 16.2086 55.9827 16.0701 55.4335C15.9317 54.8843 15.9552 54.3094 16.1077 53.7905C16.4034 52.7389 17.2529 51.9326 18.2033 51.6615C18.6796 51.533 19.1771 51.5189 19.6277 51.6358C20.0782 51.7526 20.4842 51.9793 20.8034 52.2715C21.4463 52.8651 21.7209 53.6877 21.7256 54.4052C21.735 55.1343 21.4839 55.77 21.1647 56.2351C20.8409 56.7048 20.4396 57.011 20.09 57.1956C19.738 57.3803 19.4353 57.4527 19.2311 57.4854C19.0246 57.5228 18.919 57.5135 18.9143 57.5181C18.9073 57.5158 19.0199 57.5065 19.2241 57.4667C19.4259 57.427 19.7215 57.3475 20.0665 57.1606C20.4091 56.9736 20.7963 56.6675 21.1108 56.2024C21.4205 55.742 21.6599 55.1157 21.6435 54.4075C21.6341 53.7064 21.3619 52.9095 20.7377 52.3392C20.4279 52.0565 20.036 51.8414 19.6019 51.7316C19.1654 51.6194 18.689 51.6358 18.2291 51.762C17.3139 52.0261 16.4972 52.8043 16.2133 53.8233C16.0678 54.3257 16.0467 54.8796 16.1804 55.4078C16.3142 55.936 16.6028 56.4361 17.0252 56.81L17.1778 56.9456L16.9736 56.9105C16.6239 56.8544 16.2673 56.81 15.9059 56.8194C15.5445 56.8287 15.1807 56.8754 14.8264 56.9736C14.113 57.1629 13.4536 57.5649 12.9139 58.1001C12.2075 58.8035 11.7006 59.6799 11.3979 60.5563L11.3604 60.4815C15.0024 61.7622 18.3135 62.9261 20.9911 63.8679L20.9324 63.8936C21.3149 62.8396 21.4111 61.7903 21.3009 60.8999C21.1882 60.0048 20.8362 59.2803 20.442 58.7825C20.0477 58.28 19.6394 57.9762 19.3578 57.7916C19.2217 57.6934 19.0973 57.6303 19.0269 57.5836C18.9683 57.5509 18.9401 57.5345 18.9143 57.5181Z"
        fill="white" />
    <path
        d="M143.149 90.8725H128.105H116.928H101.517C100.21 90.8725 99.1492 91.9288 99.1492 93.2306V108.515H98.1096C97.6262 108.515 97.1545 108.393 96.718 108.183C95.5776 107.634 94.2517 107.409 92.8531 107.645C90.077 108.115 87.911 110.41 87.6036 113.198C87.1812 117.036 90.1873 120.28 93.9537 120.28C94.8689 120.28 95.7395 120.086 96.5256 119.74C96.9339 119.56 97.3681 119.457 97.8139 119.457H99.1468V134.363C99.1468 135.664 100.208 136.721 101.515 136.721H143.144C144.21 136.721 145.071 135.861 145.071 134.802V92.7912C145.076 91.7302 144.215 90.8725 143.149 90.8725Z"
        fill="#3B69D1" />
    <path
        d="M143.149 90.8725C143.149 90.8725 143.194 90.8725 143.278 90.8748C143.32 90.8748 143.374 90.8795 143.44 90.8912C143.503 90.8982 143.579 90.9122 143.661 90.9356C143.982 91.0174 144.491 91.2511 144.834 91.8377C145.003 92.1252 145.106 92.5014 145.09 92.9127C145.09 93.3217 145.092 93.7704 145.092 94.2542C145.095 95.2241 145.095 96.3435 145.097 97.6032C145.102 102.644 145.109 109.933 145.116 118.943C145.118 123.449 145.12 128.382 145.123 133.678C145.123 134.01 145.123 134.342 145.123 134.676C145.127 134.842 145.116 135.017 145.085 135.185C145.045 135.354 144.998 135.52 144.916 135.674C144.613 136.295 143.952 136.742 143.241 136.765C141.866 136.767 140.469 136.77 139.052 136.772C136.219 136.772 133.303 136.775 130.313 136.775C124.331 136.775 118.054 136.777 111.547 136.779C108.292 136.779 104.981 136.779 101.62 136.779C101.195 136.793 100.757 136.697 100.374 136.496C99.9963 136.291 99.6631 135.989 99.4425 135.618C99.2125 135.251 99.0952 134.816 99.0881 134.384C99.0881 133.961 99.0881 133.538 99.0881 133.112C99.0881 131.416 99.0881 129.707 99.0881 127.99C99.0881 125.113 99.0881 122.264 99.0881 119.457L99.1492 119.518C98.8112 119.518 98.4733 119.518 98.1354 119.518C97.9664 119.52 97.7975 119.513 97.6332 119.525C97.469 119.536 97.3047 119.56 97.1428 119.597C96.9808 119.635 96.8236 119.684 96.6711 119.747C96.5209 119.808 96.3613 119.88 96.2041 119.938C95.8873 120.058 95.5611 120.151 95.2302 120.217C94.8993 120.284 94.5638 120.324 94.2259 120.338C94.0569 120.347 93.8903 120.343 93.7213 120.331C93.5547 120.319 93.3857 120.317 93.2191 120.301C92.5527 120.217 91.905 120.034 91.2902 119.772C90.6871 119.487 90.1286 119.12 89.6287 118.686C89.1453 118.235 88.7253 117.723 88.385 117.162C88.0659 116.589 87.8148 115.982 87.6669 115.348C87.6294 115.19 87.6106 115.028 87.5824 114.869L87.5426 114.629C87.5355 114.549 87.5332 114.467 87.5285 114.386L87.505 113.902L87.5308 113.418C87.6176 112.13 88.1245 110.892 88.92 109.901C89.7203 108.912 90.8068 108.174 92.0012 107.797C93.1933 107.416 94.4863 107.402 95.6691 107.732C95.9647 107.814 96.2534 107.917 96.535 108.04C96.8142 108.171 97.0771 108.295 97.368 108.365C97.6567 108.44 97.9477 108.468 98.248 108.461C98.5484 108.461 98.8464 108.461 99.1468 108.461L99.0905 108.517C99.0928 104.072 99.0928 99.7954 99.0952 95.7125C99.0952 95.2031 99.0952 94.6936 99.0952 94.1911C99.0952 93.9387 99.0952 93.6887 99.0952 93.4362C99.0905 93.1885 99.1022 92.9268 99.1632 92.6814C99.2782 92.1859 99.5598 91.7349 99.9423 91.4077C100.135 91.2464 100.351 91.1132 100.581 91.0127C100.813 90.9169 101.057 90.8608 101.306 90.8375C103.263 90.8164 105.154 90.8328 106.996 90.8304C114.36 90.8351 120.83 90.8398 126.187 90.8445C131.543 90.8515 135.781 90.8561 138.683 90.8608C140.134 90.8655 141.248 90.8678 142.004 90.8702C142.379 90.8725 142.666 90.8748 142.858 90.8748C143.051 90.8678 143.149 90.8725 143.149 90.8725C143.149 90.8725 143.051 90.8748 142.861 90.8772C142.668 90.8772 142.382 90.8795 142.006 90.8818C141.251 90.8842 140.136 90.8865 138.686 90.8912C135.783 90.8959 131.545 90.9005 126.19 90.9076C120.835 90.9122 114.363 90.9146 106.999 90.9216C105.159 90.9263 103.256 90.9122 101.317 90.9333C101.08 90.9566 100.846 91.0104 100.623 91.1015C100.402 91.1973 100.196 91.3236 100.013 91.4801C99.6467 91.7933 99.3768 92.2257 99.2665 92.7001C99.2102 92.9385 99.1984 93.1792 99.2031 93.4316C99.2031 93.6816 99.2031 93.934 99.2031 94.1864C99.2031 94.6912 99.2031 95.1984 99.2031 95.7079C99.2055 99.7907 99.2055 104.07 99.2078 108.513V108.569H99.1515C98.8535 108.569 98.5531 108.569 98.2527 108.569C97.9524 108.576 97.6403 108.548 97.3446 108.47C97.0465 108.4 96.7603 108.265 96.4927 108.139C96.2182 108.017 95.9342 107.917 95.6432 107.837C94.4816 107.515 93.2097 107.529 92.0411 107.905C90.8701 108.274 89.8024 108.999 89.0163 109.971C88.2348 110.943 87.7397 112.158 87.6528 113.423L87.627 113.897L87.6505 114.372C87.6552 114.451 87.6575 114.53 87.6646 114.61L87.7021 114.846C87.7303 115.003 87.7467 115.161 87.7843 115.316C87.9298 115.937 88.1738 116.533 88.4883 117.097C88.8238 117.646 89.2345 118.151 89.7109 118.592C90.2013 119.018 90.7481 119.377 91.3395 119.658C91.9402 119.915 92.5761 120.095 93.2309 120.177C93.3951 120.193 93.5594 120.195 93.7237 120.207C93.8879 120.219 94.0522 120.224 94.2188 120.214C94.5497 120.2 94.8782 120.16 95.2021 120.095C95.5259 120.03 95.8474 119.938 96.1595 119.822C96.3167 119.763 96.4646 119.698 96.6241 119.632C96.7837 119.569 96.9456 119.518 97.1146 119.478C97.2812 119.438 97.4525 119.413 97.6238 119.401C97.7975 119.389 97.9641 119.396 98.1331 119.394C98.471 119.394 98.8089 119.394 99.1468 119.394H99.2078V119.455C99.2078 122.261 99.2078 125.11 99.2078 127.987C99.2078 129.705 99.2078 131.413 99.2078 133.11C99.2078 133.533 99.2078 133.958 99.2078 134.379C99.2149 134.79 99.3252 135.202 99.5434 135.55C99.7546 135.903 100.069 136.19 100.428 136.384C100.794 136.576 101.2 136.667 101.616 136.653C104.976 136.653 108.287 136.653 111.542 136.653C118.049 136.655 124.327 136.655 130.308 136.658C133.298 136.658 136.215 136.66 139.047 136.66C140.462 136.66 141.858 136.658 143.231 136.658C143.905 136.637 144.531 136.216 144.82 135.625C144.897 135.48 144.942 135.321 144.98 135.162C145.008 135.001 145.019 134.842 145.017 134.673C145.017 134.339 145.017 134.007 145.017 133.676C145.019 128.377 145.022 123.444 145.024 118.94C145.031 109.931 145.038 102.642 145.043 97.6009C145.045 96.3412 145.048 95.2218 145.048 94.2519C145.048 93.7681 145.05 93.3194 145.05 92.9104C145.066 92.5014 144.965 92.1345 144.801 91.8494C144.466 91.2698 143.966 91.0338 143.644 90.9473C143.562 90.9239 143.489 90.9076 143.426 90.9005C143.363 90.8889 143.309 90.8818 143.266 90.8818C143.194 90.8772 143.149 90.8725 143.149 90.8725Z"
        fill="#263238" />
    <path
        d="M129.75 111.824C129.745 111.831 129.808 111.876 129.893 111.978C129.975 112.081 130.076 112.254 130.099 112.488C130.127 112.719 130.055 113.011 129.827 113.226C129.611 113.444 129.252 113.577 128.903 113.483C128.553 113.399 128.278 113.14 128.175 112.852C128.062 112.563 128.093 112.266 128.175 112.049C128.257 111.826 128.398 111.684 128.515 111.625C128.635 111.567 128.715 111.583 128.715 111.574C128.715 111.572 128.696 111.565 128.658 111.562C128.621 111.56 128.565 111.565 128.499 111.593C128.367 111.644 128.206 111.794 128.109 112.025C128.013 112.254 127.973 112.57 128.091 112.885C128.201 113.201 128.499 113.486 128.879 113.579C129.069 113.626 129.266 113.619 129.442 113.565C129.618 113.509 129.771 113.411 129.888 113.292C130.008 113.173 130.09 113.032 130.135 112.89C130.177 112.747 130.184 112.607 130.165 112.483C130.13 112.233 130.013 112.056 129.919 111.957C129.822 111.855 129.752 111.822 129.75 111.824Z"
        fill="#E0E0E0" />
    <path
        d="M136.557 58.1865C135.656 58.1865 134.802 58.3665 134.028 58.689C133.626 58.8549 133.197 58.9531 132.76 58.9531L131.099 58.8549L131.017 44.9659C131.017 43.7553 129.975 42.7714 128.689 42.7714L126.845 42.7784H112.518H101.876H87.5942H87.2023C85.9585 42.7784 84.9495 43.7599 84.9495 44.9729V58.7731H83.9592C83.4992 58.7731 83.0463 58.6633 82.6357 58.4646C81.589 57.9598 79.6366 57.3101 78.3037 57.5298C75.6614 57.9669 72.9744 60.6171 72.9744 63.2276C72.9744 67.6048 76.417 70.3485 80.0027 70.3485C80.8757 70.3485 81.7017 70.1686 82.4503 69.8461C82.8375 69.6802 83.112 69.5867 83.5368 69.5867L84.9471 69.582V83.2491C84.9471 84.4596 85.9562 85.4435 87.1999 85.4435H87.5918H102.39H113.384H126.84H128.609C129.895 85.4435 130.937 84.462 130.937 83.2491L131.01 69.0351L132.465 69.1356C132.941 69.1356 133.406 69.2501 133.833 69.4441C134.955 69.9559 136.259 70.1639 137.634 69.9442C140.366 69.5072 142.497 67.3711 142.797 64.777C143.22 61.206 140.263 58.1865 136.557 58.1865Z"
        fill="#274996" />
    <path
        d="M136.557 58.1865C136.557 58.1865 136.701 58.1912 136.984 58.2029C137.055 58.2052 137.135 58.2099 137.221 58.2146C137.308 58.2239 137.405 58.2403 137.508 58.2543C137.611 58.2707 137.724 58.287 137.846 58.3057C137.965 58.3221 138.092 58.3641 138.226 58.3969C138.766 58.5254 139.42 58.7708 140.108 59.2125C140.788 59.6542 141.521 60.2945 142.063 61.2177C142.192 61.4514 142.33 61.6874 142.429 61.9539C142.551 62.2086 142.619 62.4914 142.703 62.7765C142.743 62.9191 142.76 63.071 142.788 63.2182C142.802 63.293 142.814 63.3678 142.828 63.4449C142.837 63.522 142.837 63.5991 142.844 63.6763C142.851 63.8328 142.865 63.9894 142.868 64.1483C142.858 64.3073 142.849 64.4685 142.839 64.6321C142.788 65.2818 142.607 65.9525 142.297 66.5929C141.99 67.2356 141.537 67.8385 140.974 68.362C139.857 69.4184 138.216 70.0938 136.452 70.0681C135.572 70.0564 134.664 69.8648 133.814 69.4768C133.396 69.2875 132.934 69.1753 132.46 69.1753C131.984 69.1426 131.5 69.1099 131.012 69.0748L131.054 69.0375C131.045 71.2974 131.033 73.7022 131.022 76.2402C131.015 77.5093 131.01 78.811 131.003 80.1431C131 80.8092 130.996 81.4846 130.993 82.167C130.991 82.5082 130.991 82.8517 130.989 83.1953C130.996 83.5459 130.916 83.9034 130.752 84.2213C130.433 84.8639 129.78 85.322 129.062 85.4505C128.698 85.5136 128.337 85.4856 127.976 85.4926C127.614 85.4926 127.25 85.4926 126.884 85.4926C125.425 85.4926 123.935 85.4926 122.416 85.4949C119.382 85.4949 116.235 85.4973 112.99 85.4973C106.499 85.4996 99.6091 85.4996 92.4119 85.502C91.5131 85.502 90.6073 85.502 89.6991 85.502C89.2439 85.502 88.7886 85.502 88.331 85.502H87.6458C87.4158 85.4996 87.1882 85.5066 86.9512 85.4879C86.4842 85.4365 86.029 85.2472 85.6723 84.9341C85.3109 84.6302 85.0551 84.2026 84.9471 83.7398C84.8955 83.5085 84.8861 83.2654 84.8908 83.0364V82.3423C84.8908 81.8795 84.8908 81.4145 84.8908 80.9471C84.8908 77.2195 84.8908 73.4264 84.8908 69.5796L84.9518 69.6404C84.4755 69.6427 83.992 69.6427 83.4992 69.6451C83.2575 69.6474 83.0205 69.6918 82.7929 69.7736C82.5653 69.8554 82.3353 69.9676 82.0959 70.0494C81.6172 70.22 81.1127 70.3322 80.5988 70.3789C80.343 70.4 80.0825 70.4186 79.8244 70.3976C79.5662 70.3836 79.3058 70.3813 79.05 70.3345C76.8394 70.0564 74.8189 68.6775 73.784 66.7518C73.2654 65.7913 72.9885 64.7162 72.9369 63.6389C72.8806 63.1037 72.951 62.5521 73.0988 62.0357C73.1669 61.7739 73.2772 61.5285 73.3804 61.2784C73.5048 61.0424 73.6221 60.7994 73.7747 60.5773C73.9108 60.346 74.0844 60.1403 74.244 59.9276C74.4223 59.7313 74.5913 59.5233 74.7884 59.3434C75.1662 58.9671 75.5886 58.6423 76.0368 58.3618C76.4804 58.0744 76.9661 57.85 77.4636 57.6817C77.9611 57.5111 78.4891 57.406 79.0171 57.427C80.0684 57.4667 81.0775 57.7612 82.0349 58.1328C82.2743 58.2263 82.509 58.3338 82.7389 58.4413C82.9666 58.5441 83.2059 58.6212 83.4523 58.6656C83.6987 58.7147 83.9451 58.7147 84.1986 58.7124C84.452 58.7124 84.7054 58.7124 84.9565 58.7124L84.8979 58.7708C84.8979 54.2346 84.9002 49.8129 84.9002 45.5291C84.9049 45.2603 84.8908 44.9986 84.9143 44.7205C84.9424 44.447 85.0293 44.1829 85.156 43.9422C85.4118 43.4584 85.8459 43.0798 86.3481 42.8812C86.5992 42.7807 86.8691 42.727 87.1389 42.7223C87.4064 42.7153 87.6669 42.7199 87.9297 42.7199C88.4554 42.7199 88.9764 42.7199 89.4973 42.7199C91.5765 42.7199 93.6204 42.7223 95.6221 42.7223C103.636 42.7246 111.016 42.7293 117.601 42.7316C120.893 42.734 123.986 42.7363 126.859 42.7363C127.218 42.7363 127.574 42.734 127.926 42.734C128.102 42.734 128.278 42.734 128.452 42.7316C128.626 42.7293 128.802 42.7293 128.975 42.748C129.67 42.8274 130.318 43.2037 130.688 43.7669C130.876 44.045 130.996 44.3629 131.038 44.6877C131.073 45.0149 131.052 45.3304 131.061 45.6483C131.064 46.2793 131.069 46.8939 131.071 47.4945C131.094 52.2948 131.111 56.1369 131.125 58.8526L131.108 58.8339C131.58 58.8619 132.021 58.89 132.43 58.9134C132.84 58.9578 133.218 58.9204 133.556 58.8339C133.894 58.7498 134.18 58.6025 134.457 58.5161C134.732 58.4249 134.985 58.3618 135.208 58.3151C135.659 58.2239 136.001 58.2006 136.226 58.1889C136.447 58.1819 136.557 58.1865 136.557 58.1865C136.527 58.1889 136.435 58.1912 136.219 58.2006C135.994 58.2146 135.654 58.2426 135.203 58.3361C134.978 58.3852 134.729 58.4483 134.455 58.5418C134.18 58.6282 133.894 58.7778 133.554 58.8643C133.216 58.9554 132.826 58.9928 132.418 58.9507C132.007 58.9274 131.566 58.9017 131.094 58.876H131.078V58.8596C131.059 56.144 131.031 52.3018 130.996 47.5015C130.991 46.9009 130.986 46.2863 130.984 45.6553C130.977 45.3421 130.993 45.0173 130.961 44.7041C130.918 44.3909 130.801 44.0824 130.62 43.8137C130.261 43.2691 129.632 42.9046 128.959 42.8274C128.79 42.8111 128.619 42.8087 128.443 42.8111C128.269 42.8111 128.093 42.8134 127.917 42.8134C127.565 42.8158 127.208 42.8158 126.849 42.8181C123.977 42.8204 120.884 42.8228 117.592 42.8228C111.007 42.8251 103.627 42.8274 95.6127 42.8321C93.6087 42.8321 91.5671 42.8345 89.4879 42.8345C88.967 42.8345 88.446 42.8345 87.9204 42.8345C87.3971 42.8461 86.862 42.783 86.3809 42.991C85.9022 43.1803 85.4892 43.5402 85.2475 43.9983C85.1278 44.2273 85.0457 44.4774 85.0199 44.7368C84.9964 44.9916 85.0105 45.265 85.0058 45.5314C85.0058 49.8152 85.0081 54.2369 85.0081 58.7731V58.8316H84.9495C84.6984 58.8316 84.445 58.8316 84.1915 58.8316C83.9404 58.8339 83.6776 58.8339 83.4218 58.7825C83.166 58.7357 82.9173 58.6563 82.6803 58.5511C82.4479 58.4413 82.2203 58.3384 81.9809 58.245C81.0352 57.878 80.0332 57.5882 79.0054 57.5485C78.4938 57.5275 77.9822 57.6303 77.4941 57.7986C77.006 57.9645 76.5296 58.1842 76.0932 58.467C75.652 58.7428 75.2366 59.0653 74.8659 59.4345C74.6711 59.6098 74.5068 59.8155 74.3308 60.0094C74.1736 60.2198 74.0046 60.4208 73.8709 60.6474C73.7207 60.8625 73.608 61.1008 73.4837 61.3345C73.3828 61.5776 73.2748 61.8183 73.2091 62.073C73.066 62.5778 72.9956 63.1037 73.0519 63.6365C73.1035 64.6952 73.3757 65.7516 73.8849 66.6981C74.9011 68.5887 76.8863 69.9466 79.0593 70.2177C79.3104 70.2644 79.5662 70.2667 79.8197 70.2808C80.0731 70.2995 80.3265 70.2831 80.58 70.2621C81.0845 70.2153 81.5773 70.1055 82.0467 69.9396C82.2813 69.8601 82.5043 69.7503 82.7436 69.6638C82.983 69.5773 83.2388 69.5282 83.4899 69.5282C83.9827 69.5259 84.4661 69.5259 84.9424 69.5236H85.0035V69.5843C85.0035 73.4311 85.0035 77.2241 85.0035 80.9517C85.0035 81.4168 85.0035 81.8819 85.0035 82.3469V83.041C84.9988 83.2748 85.0081 83.4968 85.0574 83.7165C85.1583 84.1535 85.4 84.5578 85.745 84.8476C86.0829 85.1444 86.5147 85.322 86.9582 85.3734C87.1788 85.3921 87.4111 85.3851 87.6388 85.3874H88.324C88.7816 85.3874 89.2368 85.3874 89.6921 85.3874C90.6003 85.3874 91.5061 85.3874 92.4048 85.3874C99.6021 85.3898 106.492 85.3898 112.983 85.3921C116.228 85.3921 119.375 85.3945 122.409 85.3945C123.928 85.3945 125.418 85.3968 126.877 85.3968C127.243 85.3968 127.605 85.3968 127.969 85.3968C128.33 85.3898 128.694 85.4178 129.036 85.3571C129.726 85.2332 130.353 84.7938 130.658 84.1792C130.815 83.8754 130.893 83.5365 130.885 83.1976C130.888 82.8517 130.89 82.5105 130.893 82.1693C130.897 81.4869 130.9 80.8115 130.904 80.1454C130.911 78.811 130.918 77.5116 130.928 76.2426C130.942 73.7045 130.956 71.302 130.97 69.0398V68.9977L131.012 69.0001C131.5 69.0351 131.981 69.0678 132.458 69.1029C132.939 69.1029 133.413 69.2197 133.84 69.4137C134.68 69.7993 135.576 69.9886 136.447 70.0027C138.195 70.033 139.819 69.367 140.927 68.3223C141.485 67.8058 141.934 67.2075 142.241 66.5742C142.548 65.9409 142.729 65.2771 142.781 64.6321C142.79 64.4709 142.799 64.3119 142.809 64.153C142.807 63.9941 142.792 63.8399 142.788 63.6856C142.783 63.6085 142.783 63.5314 142.771 63.4566C142.76 63.3818 142.746 63.307 142.734 63.2322C142.706 63.085 142.692 62.9354 142.652 62.7929C142.57 62.5101 142.499 62.232 142.379 61.9772C142.283 61.7131 142.145 61.4771 142.018 61.2457C141.483 60.3273 140.758 59.6893 140.082 59.2452C139.399 58.8035 138.749 58.5558 138.212 58.4249C138.078 58.3922 137.954 58.3501 137.834 58.3314C137.714 58.3127 137.602 58.294 137.498 58.2777C137.395 58.2613 137.299 58.245 137.212 58.2356C137.125 58.2309 137.045 58.2263 136.975 58.2216C136.703 58.1959 136.557 58.1865 136.557 58.1865Z"
        fill="#263238" />
    <path
        d="M83.9005 69.3109C83.4758 69.3109 83.2012 69.4044 82.814 69.5703C82.0654 69.8928 81.237 70.0728 80.3664 70.0728C76.7807 70.0728 73.3382 67.9554 73.3382 63.5781C73.3382 60.9676 76.0228 58.3174 78.6674 57.8804C80.0004 57.6607 81.9528 58.3104 82.9994 58.8152C83.4124 59.0138 83.863 59.1237 84.3229 59.1237H84.9706L85.0128 44.7251C85.0128 43.7436 84.1352 42.949 83.335 42.949H40.4754C39.112 42.949 38.2344 43.7436 38.2344 44.7251V59.5794L39.9592 59.4883C40.3605 59.4883 40.757 59.4158 41.1278 59.2803C41.8741 59.0068 42.6531 58.5301 43.5097 58.5301C47.1846 58.5301 49.7471 60.596 49.5993 63.9567C49.4702 66.9177 47.2667 69.2314 44.0072 69.4371C42.8573 69.5095 41.8647 69.2268 40.9025 68.8178C40.4731 68.6355 39.9686 68.5023 39.4945 68.5023L38.2367 68.528V83.0714C38.2367 84.275 39.3138 85.2519 40.6421 85.2519H56.238H67.4011H82.6098C83.9381 85.2519 85.0152 84.275 85.0152 83.0714V69.3039L83.9005 69.3109Z"
        fill="#274996" />
    <path
        d="M72.9158 42.9537C72.9158 42.9537 73.0777 42.949 73.3969 42.9466C73.716 42.9443 74.19 42.9443 74.8119 42.9396C76.058 42.9373 77.8931 42.9326 80.2655 42.9279C80.8592 42.9279 81.4858 42.9256 82.1429 42.9256C82.4738 42.9279 82.8093 42.9209 83.1566 42.9279C83.5063 42.9396 83.8606 43.0448 84.1727 43.2364C84.4825 43.4304 84.7524 43.7132 84.9026 44.0661C84.9823 44.2414 85.0246 44.433 85.0363 44.627C85.048 44.821 85.0387 45.0126 85.041 45.2089C85.0387 45.9918 85.0387 46.8051 85.0363 47.6464C85.0293 51.0165 85.0199 54.8609 85.0105 59.1237V59.1658H84.9683C84.7007 59.1634 84.4356 59.1704 84.1634 59.1611C83.8911 59.1471 83.6166 59.0933 83.3561 59.0068C83.0909 58.9204 82.8492 58.7825 82.5958 58.682C82.3423 58.5745 82.0842 58.4763 81.819 58.3852C81.291 58.2076 80.7443 58.0557 80.1811 57.9669C79.8995 57.9201 79.6132 57.8897 79.3269 57.8874C79.0406 57.8851 78.7519 57.8991 78.468 57.9739C77.3252 58.2076 76.2551 58.8292 75.361 59.6449C74.9104 60.0538 74.5162 60.5306 74.1877 61.0541C73.8615 61.5776 73.6057 62.1572 73.479 62.7718C73.3476 63.3865 73.3875 64.0315 73.4743 64.6648C73.5001 64.8238 73.5189 64.9827 73.5517 65.1416L73.6784 65.609C73.7136 65.7679 73.777 65.9175 73.838 66.0671C73.9037 66.2166 73.946 66.3756 74.0304 66.5158C74.603 67.689 75.6074 68.6659 76.8324 69.2408C77.1327 69.3974 77.4566 69.5072 77.7757 69.6241C78.1043 69.7152 78.4328 69.8157 78.7731 69.8694C79.4489 69.991 80.1482 70.0494 80.8428 70.0003C81.5374 69.9466 82.225 69.7736 82.8727 69.4862C83.1989 69.3413 83.5673 69.2431 83.9334 69.2548C84.2924 69.2548 84.6515 69.2525 85.0129 69.2525H85.0692V69.3086C85.0692 72.3374 85.0715 75.455 85.0715 78.6497C85.0715 79.449 85.0715 80.253 85.0715 81.0616C85.0715 81.4659 85.0715 81.8702 85.0715 82.2768V82.8868C85.0739 83.0878 85.0668 83.3028 85.0246 83.5085C84.9331 83.9198 84.7172 84.3031 84.4121 84.5952C84.1141 84.8943 83.7269 85.1 83.3209 85.2168C83.1144 85.2683 82.9055 85.308 82.692 85.308C82.4808 85.315 82.2743 85.3103 82.0654 85.3127C81.6477 85.3127 81.23 85.3127 80.81 85.3127C74.1008 85.3127 67.1242 85.3127 59.9669 85.315C53.3094 85.3127 46.8044 85.3103 40.5247 85.308C39.7245 85.2823 38.9337 84.871 38.5066 84.1909C38.2884 83.8567 38.1781 83.457 38.1757 83.0621C38.1757 82.6765 38.1757 82.2932 38.1757 81.9076C38.1757 80.3721 38.1757 78.8531 38.1757 77.3503C38.1757 74.3426 38.1781 71.4002 38.1781 68.5303V68.4742H38.2344C38.577 68.4672 38.9173 68.4602 39.2552 68.4532C39.5931 68.4345 39.9475 68.4672 40.276 68.5513C40.6092 68.6285 40.9237 68.771 41.2311 68.8949C41.5408 69.0164 41.8576 69.1216 42.1768 69.2034C42.8174 69.367 43.4768 69.4348 44.1269 69.3717C44.7792 69.3272 45.4175 69.1753 46.0136 68.9393C47.2104 68.4719 48.2288 67.6025 48.8319 66.5111C49.435 65.4197 49.6533 64.1507 49.4984 62.9565C49.4163 62.3605 49.2449 61.7786 48.9563 61.2574C48.6653 60.7409 48.2734 60.2899 47.8205 59.9206C47.37 59.5467 46.849 59.2709 46.3116 59.0653C46.0464 58.9531 45.7672 58.8853 45.4903 58.8059C45.3518 58.7685 45.211 58.7498 45.0702 58.7217C44.9294 58.6937 44.791 58.6656 44.6502 58.6539L44.2278 58.6072C44.087 58.5955 43.9462 58.5955 43.8054 58.5885C43.5238 58.5721 43.2469 58.5721 42.977 58.6352C42.4349 58.7474 41.9374 58.9998 41.4282 59.2102C41.1748 59.3153 40.9119 59.4111 40.6421 59.4649C40.3745 59.5233 40.0929 59.5327 39.8278 59.542C39.2904 59.5701 38.76 59.5981 38.2344 59.6262L38.1875 59.6285V59.5818C38.1898 54.7744 38.1945 50.4275 38.1968 46.6065C38.1968 46.1297 38.1968 45.66 38.1992 45.1996C38.2039 44.9682 38.1898 44.7415 38.2156 44.5101C38.2461 44.2811 38.3236 44.0614 38.4409 43.8674C38.6756 43.4771 39.051 43.1967 39.4593 43.0495C39.8724 42.8882 40.3088 42.9256 40.7148 42.9233C42.3575 42.9256 43.8593 42.9279 45.211 42.9279C47.912 42.9326 50.0076 42.9373 51.432 42.9396C52.1431 42.942 52.6852 42.9443 53.0512 42.9466C53.415 42.949 53.6027 42.9537 53.6027 42.9537C53.6027 42.9537 53.415 42.9583 53.0512 42.9607C52.6852 42.963 52.1431 42.9653 51.432 42.9677C50.0076 42.97 47.9097 42.9747 45.211 42.9794C43.8593 42.9817 42.3598 42.9817 40.7148 42.984C40.3041 42.9887 39.8794 42.9537 39.4805 43.1102C39.0862 43.2528 38.7225 43.5262 38.4972 43.9025C38.3846 44.0895 38.3095 44.3021 38.2813 44.5218C38.2555 44.7392 38.2696 44.9729 38.2672 45.2019C38.2672 45.6623 38.2672 46.132 38.2696 46.6088C38.2719 50.4299 38.2743 54.7791 38.279 59.5841L38.232 59.5397C38.7577 59.5116 39.2904 59.4836 39.8278 59.4532C40.0976 59.4439 40.3628 59.4345 40.6256 59.3784C40.8885 59.327 41.1419 59.2335 41.3953 59.1284C41.8999 58.9204 42.4021 58.6633 42.9606 58.5464C43.2375 58.481 43.5308 58.481 43.8124 58.495C43.9532 58.502 44.0964 58.502 44.2395 58.5137L44.6666 58.5605C44.8097 58.5721 44.9505 58.6002 45.0937 58.6282C45.2345 58.6563 45.3776 58.6773 45.5184 58.7147C45.7977 58.7918 46.0816 58.8619 46.3515 58.9765C46.8983 59.1845 47.4286 59.4626 47.8862 59.8458C48.3485 60.2221 48.7498 60.6825 49.0478 61.2107C49.3412 61.7435 49.5195 62.3371 49.604 62.9448C49.7612 64.1624 49.5406 65.4501 48.9281 66.5649C48.3157 67.6796 47.2761 68.5654 46.0582 69.0421C45.4504 69.2805 44.8027 69.4371 44.1409 69.4815C43.4792 69.5469 42.8033 69.4792 42.1533 69.3109C41.8295 69.2268 41.508 69.1216 41.1935 68.9977C40.8791 68.8715 40.5787 68.736 40.2525 68.6612C39.9263 68.5794 39.6001 68.5467 39.2599 68.5677C38.9196 68.5747 38.5793 68.5817 38.2391 68.5887L38.2954 68.5326C38.2954 71.4025 38.2977 74.3472 38.2977 77.3527C38.2977 78.8554 38.2977 80.3768 38.2977 81.9099C38.3283 82.6695 38.164 83.4874 38.6099 84.1301C39.0135 84.7728 39.7691 85.1678 40.5318 85.1911C46.8091 85.1935 53.3117 85.1935 59.9692 85.1958C67.1266 85.1958 74.1032 85.1958 80.8123 85.1981C81.2324 85.1981 81.6501 85.1981 82.0678 85.1981C82.4878 85.1958 82.9008 85.2192 83.2927 85.107C84.0742 84.899 84.7477 84.275 84.9143 83.4874C84.9542 83.2911 84.9612 83.0971 84.9589 82.8915V82.2815C84.9589 81.8749 84.9589 81.4706 84.9589 81.0662C84.9589 80.2576 84.9589 79.4537 84.9589 78.6544C84.9589 75.4597 84.9612 72.342 84.9612 69.3132L85.0175 69.3693C84.6562 69.3693 84.2971 69.3717 83.9381 69.3717C83.5837 69.36 83.2435 69.4511 82.9196 69.5937C82.2649 69.8835 81.5609 70.0611 80.8546 70.1148C80.1459 70.1639 79.4419 70.1031 78.7566 69.9793C78.4117 69.9255 78.0784 69.8227 77.7452 69.7316C77.4214 69.6124 77.0928 69.5002 76.7878 69.3413C75.544 68.757 74.5209 67.7614 73.9389 66.5649C73.8544 66.4223 73.8099 66.2587 73.7442 66.1091C73.6831 65.9549 73.6174 65.803 73.5822 65.6417L73.4532 65.1673C73.4203 65.0084 73.4015 64.8448 73.3734 64.6835C73.2842 64.0432 73.2467 63.3865 73.3804 62.7555C73.5095 62.1268 73.7723 61.5379 74.1032 61.005C74.4364 60.4745 74.8377 59.9907 75.2953 59.5771C76.2035 58.7521 77.2853 58.1234 78.4492 57.8851C78.7355 57.8103 79.0359 57.7939 79.3292 57.7986C79.6226 57.8009 79.9112 57.8336 80.1975 57.8804C80.7677 57.9715 81.3168 58.1258 81.8495 58.3057C82.1147 58.3969 82.3752 58.4974 82.631 58.6049C82.8891 58.71 83.1285 58.8479 83.3843 58.9297C83.64 59.0162 83.9052 59.0676 84.1704 59.0816C84.4356 59.091 84.7054 59.084 84.9706 59.0863L84.9284 59.1284C84.9448 54.8679 84.9589 51.0211 84.973 47.6511C84.9753 46.8098 84.98 45.9965 84.9823 45.2136C84.98 45.0196 84.9894 44.8233 84.98 44.634C84.9683 44.447 84.9284 44.2624 84.8509 44.0941C84.7054 43.7529 84.445 43.4771 84.1446 43.2878C83.8395 43.1032 83.4969 42.9981 83.1543 42.9864C82.8117 42.977 82.4714 42.984 82.1429 42.9794C81.4835 42.9794 80.8569 42.977 80.2655 42.977C77.8954 42.9723 76.058 42.9677 74.8119 42.9653C74.19 42.963 73.7183 42.9607 73.3969 42.9583C73.0777 42.9583 72.9158 42.9537 72.9158 42.9537Z"
        fill="#263238" />
    <path
        d="M78.8341 101.123C79.9675 101.05 80.9484 101.333 81.8965 101.742C82.3189 101.924 82.8187 102.058 83.2857 102.058L84.5271 102.032V87.4885C84.5271 86.2849 83.464 85.308 82.1546 85.308H66.7652H55.7476H40.7383C39.4265 85.308 38.3658 86.2849 38.3658 87.4885V125.835C38.3658 126.816 39.2317 127.611 40.2995 127.611H82.5958C83.6635 127.611 84.5294 126.816 84.5294 125.835V111.976H82.8164C82.4198 111.976 82.0302 112.049 81.6618 112.184C80.9249 112.457 80.12 112.612 79.2752 112.612C75.6496 112.612 72.7257 109.845 72.8712 106.486C73.0003 103.525 75.6144 101.331 78.8341 101.123Z"
        fill="#274996" />
    <path
        d="M78.8341 101.123C78.8341 101.123 78.6956 101.142 78.4234 101.172C78.2873 101.181 78.1184 101.214 77.9189 101.254C77.7171 101.284 77.4895 101.347 77.2313 101.42C76.7197 101.576 76.0908 101.812 75.4314 102.245C75.2672 102.354 75.0959 102.464 74.9363 102.604C74.8541 102.672 74.7673 102.738 74.6875 102.81C74.6077 102.887 74.528 102.964 74.4482 103.044L74.3261 103.163L74.2135 103.296C74.1384 103.385 74.061 103.476 73.9812 103.567C73.8474 103.768 73.6879 103.962 73.5729 104.191C73.4368 104.409 73.3382 104.654 73.2303 104.902C73.1481 105.159 73.0496 105.421 73.005 105.701C72.8923 106.257 72.8642 106.865 72.958 107.482C73.0496 108.099 73.2349 108.735 73.5658 109.333C73.8944 109.929 74.3402 110.492 74.8964 110.973C75.9993 111.939 77.5528 112.577 79.2401 112.579C80.0825 112.588 80.9437 112.429 81.7792 112.109C81.995 112.039 82.218 111.99 82.4456 111.964C82.6732 111.936 82.9056 111.943 83.1332 111.943C83.5931 111.943 84.0578 111.943 84.5294 111.943H84.5693V111.983C84.5717 114.154 84.5717 116.461 84.574 118.891C84.574 120.107 84.5764 121.355 84.5764 122.631C84.5764 123.269 84.5764 123.914 84.5764 124.568C84.5764 124.895 84.5764 125.222 84.5764 125.552C84.5764 125.716 84.5811 125.882 84.5623 126.054C84.5412 126.225 84.4919 126.389 84.4239 126.548C84.1376 127.181 83.4758 127.604 82.7788 127.658C82.0866 127.674 81.4013 127.662 80.702 127.667C79.3058 127.667 77.8837 127.667 76.4358 127.669C73.54 127.669 70.5386 127.672 67.4481 127.672C61.2669 127.674 54.7174 127.674 47.8909 127.676C46.1849 127.676 44.4601 127.676 42.7212 127.676C41.8483 127.672 40.9824 127.686 40.0953 127.667C39.6471 127.623 39.2083 127.436 38.8774 127.125C38.5442 126.816 38.3283 126.377 38.3118 125.919C38.3095 122.392 38.3095 118.807 38.3072 115.175C38.3072 109.922 38.3072 104.764 38.3072 99.7393C38.3072 97.2269 38.3072 94.7473 38.3072 92.3028C38.3072 91.0805 38.3072 89.8676 38.3072 88.6663C38.3072 88.3649 38.3072 88.0657 38.3072 87.7666C38.3025 87.4721 38.3095 87.1543 38.4081 86.8621C38.5934 86.2732 39.044 85.7918 39.5884 85.5253C39.8606 85.3898 40.1563 85.3057 40.4567 85.2753C40.7618 85.2472 41.0528 85.2636 41.3484 85.2589C41.9374 85.2589 42.5241 85.2589 43.1061 85.2589C44.2724 85.2589 45.4293 85.2589 46.5745 85.2589C48.8648 85.2589 51.1082 85.2613 53.3047 85.2613C57.6953 85.2636 61.8888 85.2636 65.8547 85.2659C69.8205 85.2683 73.5541 85.2706 77.0295 85.2729C78.766 85.2729 80.4369 85.2753 82.0396 85.2753C82.8492 85.2402 83.6612 85.5978 84.1305 86.2218C84.3675 86.5303 84.513 86.8995 84.5576 87.2758C84.5811 87.6544 84.5647 88.019 84.5693 88.3836C84.5623 94.1935 84.5576 98.8325 84.5529 102.041V102.062H84.5341C84.046 102.069 83.5884 102.088 83.1613 102.083C82.7319 102.06 82.3447 101.948 82.0044 101.812C81.3356 101.518 80.756 101.333 80.282 101.242C79.808 101.149 79.4442 101.132 79.2025 101.13C79.0828 101.127 78.9913 101.132 78.9303 101.134C78.8646 101.123 78.8341 101.123 78.8341 101.123C78.8341 101.123 78.9538 101.109 79.1955 101.106C79.4372 101.104 79.8009 101.118 80.2796 101.209C80.756 101.298 81.3403 101.483 82.0091 101.773C82.347 101.903 82.7319 102.013 83.1567 102.037C83.5814 102.039 84.039 102.02 84.5271 102.011L84.5083 102.032C84.5036 98.8255 84.499 94.1864 84.4919 88.3742C84.4872 88.012 84.5036 87.638 84.4802 87.2758C84.4379 86.9135 84.2971 86.556 84.0672 86.2592C83.6096 85.6586 82.8305 85.3103 82.0373 85.3477C80.4345 85.3477 78.7637 85.3501 77.0272 85.3501C73.5541 85.3524 69.8182 85.3547 65.8523 85.3571C61.8865 85.3594 57.693 85.3594 53.3024 85.3617C51.1082 85.3617 48.8625 85.3641 46.5721 85.3641C45.4269 85.3641 44.2724 85.3641 43.1037 85.3641C42.5194 85.3641 41.9351 85.3641 41.3461 85.3641C41.0528 85.3688 40.7524 85.3547 40.4684 85.3804C40.1821 85.4108 39.8982 85.4903 39.6377 85.6188C39.1191 85.8736 38.692 86.3316 38.5184 86.8878C38.4245 87.1659 38.4174 87.4534 38.4245 87.7572C38.4245 88.0564 38.4245 88.3578 38.4245 88.657C38.4245 89.8606 38.4245 91.0712 38.4245 92.2934C38.4245 94.7357 38.4245 97.2176 38.4245 99.7299C38.4245 104.755 38.4245 109.912 38.4245 115.166C38.4268 118.796 38.4268 122.378 38.4292 125.903C38.4456 126.328 38.6427 126.737 38.9572 127.027C39.2693 127.319 39.68 127.494 40.1047 127.536C40.9706 127.555 41.853 127.541 42.7212 127.545C44.4601 127.545 46.1849 127.545 47.8909 127.545C54.7174 127.548 61.2646 127.548 67.4481 127.55C70.5386 127.55 73.5377 127.553 76.4358 127.553C77.8837 127.553 79.3058 127.553 80.702 127.555C81.399 127.553 82.096 127.564 82.7695 127.548C83.4336 127.496 84.0648 127.092 84.3347 126.496C84.398 126.347 84.445 126.192 84.4661 126.031C84.4849 125.872 84.4802 125.706 84.4802 125.54C84.4802 125.211 84.4802 124.881 84.4802 124.556C84.4802 123.904 84.4802 123.257 84.4802 122.619C84.4802 121.343 84.4825 120.095 84.4825 118.88C84.4849 116.449 84.4849 114.143 84.4872 111.971L84.5271 112.011C84.0554 112.011 83.5908 112.011 83.1308 112.011C82.9009 112.011 82.6732 112.004 82.4503 112.032C82.2274 112.058 82.0091 112.105 81.7979 112.175C80.9625 112.495 80.0825 112.656 79.2354 112.644C77.5317 112.64 75.9641 111.992 74.8494 111.013C74.2909 110.525 73.8404 109.957 73.5095 109.352C73.1763 108.749 72.9909 108.104 72.8994 107.482C72.8055 106.858 72.836 106.246 72.951 105.685C72.9979 105.4 73.0965 105.138 73.181 104.878C73.2913 104.628 73.3898 104.383 73.5283 104.163C73.6456 103.932 73.8075 103.738 73.9436 103.537C74.0234 103.446 74.1009 103.355 74.1783 103.264L74.2933 103.13L74.4177 103.011C74.4998 102.932 74.5819 102.855 74.6594 102.777C74.7415 102.705 74.8283 102.64 74.9105 102.572C75.0724 102.432 75.246 102.322 75.4103 102.212C76.0768 101.782 76.708 101.546 77.2219 101.394C77.4824 101.324 77.71 101.263 77.9119 101.233C78.1113 101.195 78.2803 101.165 78.4187 101.158C78.6933 101.134 78.8341 101.123 78.8341 101.123Z"
        fill="#263238" />
</svg>
